<svg xmlns="http://www.w3.org/2000/svg" viewBox="0 0 1200 800" preserveAspectRatio="none" width="1200" height="800"><path d="M0,0H1200V800H0Z" style="fill: #ffffff;"></path><g><g transform="translate(120,80)"><path d="M0,0H960V640H0Z" style="fill: #ffffff; stroke: #000000; stroke-width: 1;"></path><svg x="0" y="0" overflow="hidden" width="960" height="640" viewBox="0 0 960 640"><g><path d="M0,587l97,-75l97,-72l97,-70l97,-65l97,-61l97,-57l97,-51l97,-44l97,-39" style="stroke: #000000; stroke-width: 1; fill: none;"></path><path d="M-4,587a4,4,0,1,0,8,0a4,4,0,1,0,-8,0zM93,512a4,4,0,1,0,8,0a4,4,0,1,0,-8,0zM190,440a4,4,0,1,0,8,0a4,4,0,1,0,-8,0zM287,370a4,4,0,1,0,8,0a4,4,0,1,0,-8,0zM384,305a4,4,0,1,0,8,0a4,4,0,1,0,-8,0zM481,244a4,4,0,1,0,8,0a4,4,0,1,0,-8,0zM578,187a4,4,0,1,0,8,0a4,4,0,1,0,-8,0zM675,136a4,4,0,1,0,8,0a4,4,0,1,0,-8,0zM772,92a4,4,0,1,0,8,0a4,4,0,1,0,-8,0zM869,53a4,4,0,1,0,8,0a4,4,0,1,0,-8,0z" style="stroke: #000000; fill: #000000;"></path></g></svg><g><g transform="translate(0,640)"><path d="M0,0h960M0,-19V0M19,-10V0M39,-10V0M58,-10V0M78,-10V0M97,-19V0M116,-10V0M136,-10V0M155,-10V0M175,-10V0M194,-19V0M213,-10V0M233,-10V0M252,-10V0M272,-10V0M291,-19V0M310,-10V0M330,-10V0M349,-10V0M368,-10V0M388,-19V0M407,-10V0M427,-10V0M446,-10V0M465,-10V0M485,-19V0M504,-10V0M524,-10V0M543,-10V0M562,-10V0M582,-19V0M601,-10V0M621,-10V0M640,-10V0M659,-10V0M679,-19V0M698,-10V0M718,-10V0M737,-10V0M756,-10V0M776,-19V0M795,-10V0M815,-10V0M834,-10V0M853,-10V0M873,-19V0M892,-10V0M912,-10V0M931,-10V0M950,-10V0" style="stroke: #000000; stroke-width: 1;"></path><g font-family="Arial" font-size="28" space="preserve" fill="#000000" text-anchor="middle"><text dy=".8em" transform="translate(0,5)">0</text><text dy=".8em" transform="translate(97,5)">0.1</text><text dy=".8em" transform="translate(194,5)">0.2</text><text dy=".8em" transform="translate(291,5)">0.3</text><text dy=".8em" transform="translate(388,5)">0.4</text><text dy=".8em" transform="translate(485,5)">0.5</text><text dy=".8em" transform="translate(582,5)">0.6</text><text dy=".8em" transform="translate(679,5)">0.7</text><text dy=".8em" transform="translate(776,5)">0.8</text><text dy=".8em" transform="translate(873,5)">0.9</text></g></g><g><path d="M0,0v640M15,632H0M15,616H0M15,601H0M29,586H0M15,570H0M15,555H0M15,539H0M15,524H0M29,509H0M15,493H0M15,478H0M15,462H0M15,447H0M29,432H0M15,416H0M15,401H0M15,385H0M15,370H0M29,355H0M15,339H0M15,324H0M15,308H0M15,293H0M29,278H0M15,262H0M15,247H0M15,231H0M15,216H0M29,201H0M15,185H0M15,170H0M15,154H0M15,139H0M29,124H0M15,108H0M15,93H0M15,77H0M15,62H0M29,47H0M15,31H0M15,16H0M15,0H0" style="stroke: #000000; stroke-width: 1;"></path><g font-family="Arial" font-size="28" space="preserve" fill="#000000" text-anchor="end"><text dy=".4em" transform="translate(-6,586)">2</text><text dy=".4em" transform="translate(-6,509)">3</text><text dy=".4em" transform="translate(-6,432)">4</text><text dy=".4em" transform="translate(-6,355)">5</text><text dy=".4em" transform="translate(-6,278)">6</text><text dy=".4em" transform="translate(-6,201)">7</text><text dy=".4em" transform="translate(-6,124)">8</text><text dy=".4em" transform="translate(-6,47)">9</text></g></g><path d="M0,0v640M97,0v640M194,0v640M291,0v640M388,0v640M485,0v640M582,0v640M679,0v640M776,0v640M873,0v640" style="stroke: #000000; stroke-width: 1; stroke-dasharray: 1,2;"></path><path d="M0,586h960M0,509h960M0,432h960M0,355h960M0,278h960M0,201h960M0,124h960M0,47h960" style="stroke: #000000; stroke-width: 1; stroke-dasharray: 1,2;"></path></g></g><g transform="translate(120,4)" font-family="Arial" font-size="40" space="preserve"><text fill="#000000" text-anchor="middle" dy=".8em" transform="translate(480)">A Simple Graph Example with Text</text></g></g></svg>