<?xml version="1.0" standalone="no"?>
<svg width="567.429" height="701.799" viewBox="0 0 567.429 701.799" xmlns="http://www.w3.org/2000/svg" shape-rendering="crispEdges">
<title>
analyze_pro.svg
</title>
<desc>
Creator: ROOT Version 6.33/01
CreationDate: Tue May 28 11:34:29 2024</desc>
<defs>
</defs>
<rect x="0.5" y="0" width="566.929" height="701.299" fill="white"/>
<rect x="28.8465" y="23.3766" width="99.2126" height="46.7532" fill="#ddba87"/>
<path d="M32.988,70.1299v 2.76102h 97.8321v -45.3727h -2.76102v 42.6117z" fill="black"/>
<path d="M28.8465,70.1299v -46.7532h 99.2126v 46.7532h -99.2126z" fill="none" stroke="black"/>
<text xml:space="preserve" x="41.9153" y="52.4594" fill="black" font-size="19.4667" font-family="Helvetica" font-weight="bold">Analyze
</text>
<rect x="28.8465" y="112.208" width="113.386" height="56.1039" fill="#f2f2f2"/>
<path d="M34.3685,168.312v 3.68136h 111.545v -54.2632h -3.68136v 50.5819z" fill="black"/>
<path d="M28.8465,168.312v -56.1039h 113.386v 56.1039h -113.386z" fill="none" stroke="black"/>
<text xml:space="preserve" x="32.7119" y="125.166" fill="black" font-size="10.3982" font-family="Helvetica" font-weight="bold">Parenthesis matching
</text>
<text xml:space="preserve" x="32.7119" y="143.573" fill="black" font-size="10.3982" font-family="Helvetica" font-weight="bold">Remove unnecessary
</text>
<text xml:space="preserve" x="56.6407" y="162.9" fill="black" font-size="10.3982" font-family="Helvetica" font-weight="bold">parenthesis
</text>
<rect x="198.925" y="116.883" width="113.386" height="46.7532" fill="#f2f2f2"/>
<path d="M204.447,163.636v 3.68136h 111.545v -44.9126h -3.68136v 41.2312z" fill="black"/>
<path d="M198.925,163.636v -46.7532h 113.386v 46.7532h -113.386z" fill="none" stroke="black"/>
<text xml:space="preserve" x="226.904" y="134.37" fill="black" font-size="15.2367" font-family="Helvetica" font-weight="bold">break of
</text>
<text xml:space="preserve" x="227.824" y="156.458" fill="black" font-size="15.2367" font-family="Helvetica" font-weight="bold">Analyze
</text>
<rect x="28.8465" y="210.39" width="113.386" height="46.7532" fill="#f2f2f2"/>
<path d="M34.3685,257.143v 3.68136h 111.545v -44.9126h -3.68136v 41.2312z" fill="black"/>
<path d="M28.8465,257.143v -46.7532h 113.386v 46.7532h -113.386z" fill="none" stroke="black"/>
<text xml:space="preserve" x="32.7119" y="226.404" fill="black" font-size="15.1519" font-family="Helvetica" font-weight="bold">look for simple
</text>
<text xml:space="preserve" x="51.1187" y="249.412" fill="black" font-size="15.1519" font-family="Helvetica" font-weight="bold">operators
</text>
<rect x="28.8465" y="303.896" width="113.386" height="46.7532" fill="#f2f2f2"/>
<path d="M34.3685,350.649v 3.68136h 111.545v -44.9126h -3.68136v 41.2312z" fill="black"/>
<path d="M28.8465,350.649v -46.7532h 113.386v 46.7532h -113.386z" fill="none" stroke="black"/>
<text xml:space="preserve" x="31.7915" y="319.358" fill="black" font-size="12.0194" font-family="Helvetica" font-weight="bold">look for an already
</text>
<text xml:space="preserve" x="30.8712" y="342.366" fill="black" font-size="12.0194" font-family="Helvetica" font-weight="bold">defined expression
</text>
<rect x="28.8465" y="397.403" width="113.386" height="46.7532" fill="#f2f2f2"/>
<path d="M34.3685,444.156v 3.68136h 111.545v -44.9126h -3.68136v 41.2312z" fill="black"/>
<path d="M28.8465,444.156v -46.7532h 113.386v 46.7532h -113.386z" fill="none" stroke="black"/>
<text xml:space="preserve" x="49.278" y="413.232" fill="black" font-size="11.6354" font-family="Helvetica" font-weight="bold">look for usual
</text>
<text xml:space="preserve" x="33.6322" y="437.161" fill="black" font-size="11.6354" font-family="Helvetica" font-weight="bold">functions :cos sin ..
</text>
<rect x="28.8465" y="490.909" width="113.386" height="46.7532" fill="#f2f2f2"/>
<path d="M34.3685,537.662v 3.68136h 111.545v -44.9126h -3.68136v 41.2312z" fill="black"/>
<path d="M28.8465,537.662v -46.7532h 113.386v 46.7532h -113.386z" fill="none" stroke="black"/>
<text xml:space="preserve" x="52.039" y="508.027" fill="black" font-size="15.2367" font-family="Helvetica" font-weight="bold">look for a
</text>
<text xml:space="preserve" x="35.4729" y="531.956" fill="black" font-size="15.2367" font-family="Helvetica" font-weight="bold">numeric value
</text>
<rect x="198.925" y="198.701" width="113.386" height="70.1299" fill="#f2f2f2"/>
<path d="M204.447,268.831v 3.68136h 111.545v -68.2892h -3.68136v 64.6078z" fill="black"/>
<path d="M198.925,268.831v -70.1299h 113.386v 70.1299h -113.386z" fill="none" stroke="black"/>
<text xml:space="preserve" x="202.975" y="214.439" fill="black" font-size="14.3043" font-family="Helvetica" font-weight="bold">Analyze left and
</text>
<text xml:space="preserve" x="216.78" y="238.368" fill="black" font-size="14.3043" font-family="Helvetica" font-weight="bold">right part of
</text>
<text xml:space="preserve" x="206.656" y="261.376" fill="black" font-size="14.3043" font-family="Helvetica" font-weight="bold">the expression
</text>
<rect x="198.925" y="303.896" width="113.386" height="46.7532" fill="#f2f2f2"/>
<path d="M204.447,350.649v 3.68136h 111.545v -44.9126h -3.68136v 41.2312z" fill="black"/>
<path d="M198.925,350.649v -46.7532h 113.386v 46.7532h -113.386z" fill="none" stroke="black"/>
<text xml:space="preserve" x="203.895" y="331.322" fill="black" font-size="11.3462" font-family="Helvetica" font-weight="bold">Replace expression
</text>
<rect x="198.925" y="397.403" width="113.386" height="46.7532" fill="#ddba87"/>
<path d="M204.447,444.156v 3.68136h 111.545v -44.9126h -3.68136v 41.2312z" fill="black"/>
<path d="M198.925,444.156v -46.7532h 113.386v 46.7532h -113.386z" fill="none" stroke="black"/>
<text xml:space="preserve" x="202.975" y="427.958" fill="black" font-size="27.4406" font-family="Helvetica" font-weight="bold">Analyze
</text>
<rect x="198.925" y="490.909" width="113.386" height="46.7532" fill="#f2f2f2"/>
<path d="M204.447,537.662v 3.68136h 111.545v -44.9126h -3.68136v 41.2312z" fill="black"/>
<path d="M198.925,537.662v -46.7532h 113.386v 46.7532h -113.386z" fill="none" stroke="black"/>
<text xml:space="preserve" x="239.788" y="508.027" fill="black" font-size="13.4482" font-family="Helvetica" font-weight="bold">Error
</text>
<text xml:space="preserve" x="202.975" y="530.116" fill="black" font-size="13.4482" font-family="Helvetica" font-weight="bold">Break of Analyze
</text>
<rect x="425.697" y="140.26" width="85.0394" height="46.7532" fill="#ddba87"/>
<path d="M431.219,187.013v 3.68136h 83.1987v -44.9126h -3.68136v 41.2312z" fill="black"/>
<path d="M425.697,187.013v -46.7532h 85.0394v 46.7532h -85.0394z" fill="none" stroke="black"/>
<text xml:space="preserve" x="440.422" y="156.458" fill="black" font-size="15.2367" font-family="Helvetica" font-weight="bold">Analyze
</text>
<text xml:space="preserve" x="454.227" y="180.387" fill="black" font-size="15.2367" font-family="Helvetica" font-weight="bold">Left
</text>
<rect x="425.697" y="210.39" width="85.0394" height="46.7532" fill="#ddba87"/>
<path d="M431.219,257.143v 3.68136h 83.1987v -44.9126h -3.68136v 41.2312z" fill="black"/>
<path d="M425.697,257.143v -46.7532h 85.0394v 46.7532h -85.0394z" fill="none" stroke="black"/>
<text xml:space="preserve" x="440.422" y="226.404" fill="black" font-size="15.2367" font-family="Helvetica" font-weight="bold">Analyze
</text>
<text xml:space="preserve" x="448.705" y="250.332" fill="black" font-size="15.2367" font-family="Helvetica" font-weight="bold">Right
</text>
<rect x="425.697" y="280.519" width="113.386" height="70.1299" fill="#f2f2f2"/>
<path d="M431.219,350.649v 3.68136h 111.545v -68.2892h -3.68136v 64.6078z" fill="black"/>
<path d="M425.697,350.649v -70.1299h 113.386v 70.1299h -113.386z" fill="none" stroke="black"/>
<text xml:space="preserve" x="447.785" y="296.349" fill="black" font-size="9.88379" font-family="Helvetica" font-weight="bold">StackNumber++
</text>
<text xml:space="preserve" x="431.219" y="318.437" fill="black" font-size="9.88379" font-family="Helvetica" font-weight="bold">operator[StackNumber]
</text>
<text xml:space="preserve" x="445.944" y="341.446" fill="black" font-size="9.88379" font-family="Helvetica" font-weight="bold">= operator found
</text>
<rect x="369.004" y="392.727" width="141.732" height="56.1039" fill="#f2f2f2"/>
<path d="M374.526,448.831v 3.68136h 139.892v -54.2632h -3.68136v 50.5819z" fill="black"/>
<path d="M369.004,448.831v -56.1039h 141.732v 56.1039h -141.732z" fill="none" stroke="black"/>
<text xml:space="preserve" x="393.485" y="406.79" fill="black" font-size="12.0194" font-family="Helvetica" font-weight="bold">StackNumber++
</text>
<text xml:space="preserve" x="372.317" y="424.276" fill="black" font-size="12.0194" font-family="Helvetica" font-weight="bold">operator[StackNumber]
</text>
<text xml:space="preserve" x="392.565" y="444.524" fill="black" font-size="12.0194" font-family="Helvetica" font-weight="bold">= function found
</text>
<rect x="198.925" y="490.909" width="113.386" height="46.7532" fill="#f2f2f2"/>
<path d="M204.447,537.662v 3.68136h 111.545v -44.9126h -3.68136v 41.2312z" fill="black"/>
<path d="M198.925,537.662v -46.7532h 113.386v 46.7532h -113.386z" fill="none" stroke="black"/>
<text xml:space="preserve" x="237.948" y="508.027" fill="black" font-size="13.6521" font-family="Helvetica" font-weight="bold">Error
</text>
<text xml:space="preserve" x="200.214" y="530.116" fill="black" font-size="13.6521" font-family="Helvetica" font-weight="bold">break of Analyze
</text>
<rect x="28.8465" y="584.416" width="198.425" height="70.1299" fill="#f2f2f2"/>
<path d="M34.3685,654.545v 3.68136h 196.585v -68.2892h -3.68136v 64.6078z" fill="black"/>
<path d="M28.8465,654.545v -70.1299h 198.425v 70.1299h -198.425z" fill="none" stroke="black"/>
<text xml:space="preserve" x="86.0916" y="600.982" fill="black" font-size="11.6567" font-family="Helvetica" font-weight="bold">StackNumber++
</text>
<text xml:space="preserve" x="57.5611" y="623.07" fill="black" font-size="11.6567" font-family="Helvetica" font-weight="bold">operator[StackNumber] = 0
</text>
<text xml:space="preserve" x="37.3136" y="646.078" fill="black" font-size="11.6567" font-family="Helvetica" font-weight="bold">value[StackNumber] = value found
</text>
<path d="M85.5394,70.1299v 31.5117" fill="none" stroke="black"/>
<path d="M88.9405,101.642l -3.40112, 5.89091l -3.40112, -5.89091z" fill="black"/>
<path d="M88.9405,101.642l -3.40112, 5.89091l -3.40112, -5.89091h 6.80224z" fill="none" stroke="black"/>
<path d="M85.5394,168.312v 31.5117" fill="none" stroke="black"/>
<path d="M88.9405,199.823l -3.40112, 5.89091l -3.40112, -5.89091z" fill="black"/>
<path d="M88.9405,199.823l -3.40112, 5.89091l -3.40112, -5.89091h 6.80224z" fill="none" stroke="black"/>
<path d="M85.5394,257.143v 36.187" fill="none" stroke="black"/>
<path d="M88.9405,293.33l -3.40112, 5.89091l -3.40112, -5.89091z" fill="black"/>
<path d="M88.9405,293.33l -3.40112, 5.89091l -3.40112, -5.89091h 6.80224z" fill="none" stroke="black"/>
<path d="M85.5394,350.649v 36.187" fill="none" stroke="black"/>
<path d="M88.9405,386.836l -3.40112, 5.89091l -3.40112, -5.89091z" fill="black"/>
<path d="M88.9405,386.836l -3.40112, 5.89091l -3.40112, -5.89091h 6.80224z" fill="none" stroke="black"/>
<path d="M85.5394,444.156v 36.187" fill="none" stroke="black"/>
<path d="M88.9405,480.343l -3.40112, 5.89091l -3.40112, -5.89091z" fill="black"/>
<path d="M88.9405,480.343l -3.40112, 5.89091l -3.40112, -5.89091h 6.80224z" fill="none" stroke="black"/>
<path d="M85.5394,537.662v 36.187" fill="none" stroke="black"/>
<path d="M88.9405,573.849l -3.40112, 5.89091l -3.40112, -5.89091z" fill="black"/>
<path d="M88.9405,573.849l -3.40112, 5.89091l -3.40112, -5.89091h 6.80224z" fill="none" stroke="black"/>
<path d="M142.232,140.26h 50.802" fill="none" stroke="black"/>
<path d="M193.034,136.859l 5.89091, 3.40112l -5.89091, 3.40112z" fill="black"/>
<path d="M193.034,136.859l 5.89091, 3.40112l -5.89091, 3.40112v -6.80224z" fill="none" stroke="black"/>
<path d="M142.232,233.766h 50.802" fill="none" stroke="black"/>
<path d="M193.034,230.365l 5.89091, 3.40112l -5.89091, 3.40112z" fill="black"/>
<path d="M193.034,230.365l 5.89091, 3.40112l -5.89091, 3.40112v -6.80224z" fill="none" stroke="black"/>
<path d="M142.232,327.273h 50.802" fill="none" stroke="black"/>
<path d="M193.034,323.872l 5.89091, 3.40112l -5.89091, 3.40112z" fill="black"/>
<path d="M193.034,323.872l 5.89091, 3.40112l -5.89091, 3.40112v -6.80224z" fill="none" stroke="black"/>
<path d="M142.232,420.779h 50.802" fill="none" stroke="black"/>
<path d="M193.034,417.378l 5.89091, 3.40112l -5.89091, 3.40112z" fill="black"/>
<path d="M193.034,417.378l 5.89091, 3.40112l -5.89091, 3.40112v -6.80224z" fill="none" stroke="black"/>
<path d="M142.232,514.286h 50.802" fill="none" stroke="black"/>
<path d="M193.034,510.885l 5.89091, 3.40112l -5.89091, 3.40112z" fill="black"/>
<path d="M193.034,510.885l 5.89091, 3.40112l -5.89091, 3.40112v -6.80224z" fill="none" stroke="black"/>
<path d="M312.311,233.766h 107.495" fill="none" stroke="black"/>
<path d="M419.806,230.365l 5.89091, 3.40112l -5.89091, 3.40112z" fill="black"/>
<path d="M419.806,230.365l 5.89091, 3.40112l -5.89091, 3.40112v -6.80224z" fill="none" stroke="black"/>
<path d="M369.004,163.636h 50.802" fill="none" stroke="black"/>
<path d="M419.806,160.235l 5.89091, 3.40112l -5.89091, 3.40112z" fill="black"/>
<path d="M419.806,160.235l 5.89091, 3.40112l -5.89091, 3.40112v -6.80224z" fill="none" stroke="black"/>
<path d="M369.004,315.584h 50.802" fill="none" stroke="black"/>
<path d="M419.806,312.183l 5.89091, 3.40112l -5.89091, 3.40112z" fill="black"/>
<path d="M419.806,312.183l 5.89091, 3.40112l -5.89091, 3.40112v -6.80224z" fill="none" stroke="black"/>
<path d="M312.311,420.779h 50.802" fill="none" stroke="black"/>
<path d="M363.113,417.378l 5.89091, 3.40112l -5.89091, 3.40112z" fill="black"/>
<path d="M363.113,417.378l 5.89091, 3.40112l -5.89091, 3.40112v -6.80224z" fill="none" stroke="black"/>
<text xml:space="preserve" x="91.2087" y="186.489" fill="#0000ff" font-size="8.30178" font-family="Helvetica" font-weight="bold" font-style="oblique">err = 0
</text>
<text xml:space="preserve" x="91.2087" y="279.995" fill="#0000ff" font-size="8.30178" font-family="Helvetica" font-weight="bold" font-style="oblique">not found
</text>
<text xml:space="preserve" x="91.2087" y="560.515" fill="#0000ff" font-size="8.30178" font-family="Helvetica" font-weight="bold" font-style="oblique">found
</text>
<text xml:space="preserve" x="147.902" y="137.922" fill="#0000ff" font-size="8.30178" font-family="Helvetica" font-weight="bold" font-style="oblique">err != 0
</text>
<text xml:space="preserve" x="147.902" y="231.429" fill="#0000ff" font-size="8.30178" font-family="Helvetica" font-weight="bold" font-style="oblique">found
</text>
<text xml:space="preserve" x="147.902" y="324.935" fill="#0000ff" font-size="8.30178" font-family="Helvetica" font-weight="bold" font-style="oblique">found
</text>
<text xml:space="preserve" x="147.902" y="418.442" fill="#0000ff" font-size="8.30178" font-family="Helvetica" font-weight="bold" font-style="oblique">found
</text>
<text xml:space="preserve" x="147.902" y="511.948" fill="#0000ff" font-size="8.30178" font-family="Helvetica" font-weight="bold" font-style="oblique">not found
</text>
<path d="M369.004,315.584v -151.948" fill="none" stroke="black"/></svg>
