<?xml version="1.0" standalone="no"?>
<svg width="567.429" height="701.799" viewBox="0 0 567.429 701.799" xmlns="http://www.w3.org/2000/svg" shape-rendering="crispEdges">
<title>
/Users/adrianduesselberg/root-graphic-tests/build/old_svg_pro/analyze_pro.svg
</title>
<desc>
Creator: ROOT Version 6.32.02
CreationDate: Mon Sep  2 14:29:39 2024</desc>
<defs>
</defs>
<rect x="0.5" y="0" width="566.929" height="701.299" fill="white"/>
<rect x="28.8465" y="23.3766" width="99.2126" height="46.7532" fill="#ddba87"/>
<path d="M32.988,70.1299v 2.76102h 97.8321v -45.3727h -2.76102v 42.6117z" fill="black"/>
<path d="M28.8465,70.1299v -46.7532h 99.2126v 46.7532h -99.2126z" fill="none" stroke="black"/>
<text xml:space="preserve" x="42.8356" y="53.3797" fill="black" font-size="20.7235" font-family="Helvetica">Analyze
</text>
<rect x="28.8465" y="112.208" width="113.386" height="56.1039" fill="#f2f2f2"/>
<path d="M34.3685,168.312v 3.68136h 111.545v -54.2632h -3.68136v 50.5819z" fill="black"/>
<path d="M28.8465,168.312v -56.1039h 113.386v 56.1039h -113.386z" fill="none" stroke="black"/>
<text xml:space="preserve" x="31.7915" y="125.166" fill="black" font-size="11.1052" font-family="Helvetica">Parenthesis matching
</text>
<text xml:space="preserve" x="31.7915" y="143.573" fill="black" font-size="11.1052" font-family="Helvetica">Remove unnecessary
</text>
<text xml:space="preserve" x="56.6407" y="162.9" fill="black" font-size="11.1052" font-family="Helvetica">parenthesis
</text>
<rect x="198.925" y="116.883" width="113.386" height="46.7532" fill="#f2f2f2"/>
<path d="M204.447,163.636v 3.68136h 111.545v -44.9126h -3.68136v 41.2312z" fill="black"/>
<path d="M198.925,163.636v -46.7532h 113.386v 46.7532h -113.386z" fill="none" stroke="black"/>
<text xml:space="preserve" x="228.744" y="134.37" fill="black" font-size="15.2367" font-family="Helvetica">break of
</text>
<text xml:space="preserve" x="228.744" y="156.458" fill="black" font-size="15.2367" font-family="Helvetica">Analyze
</text>
<rect x="28.8465" y="210.39" width="113.386" height="46.7532" fill="#f2f2f2"/>
<path d="M34.3685,257.143v 3.68136h 111.545v -44.9126h -3.68136v 41.2312z" fill="black"/>
<path d="M28.8465,257.143v -46.7532h 113.386v 46.7532h -113.386z" fill="none" stroke="black"/>
<text xml:space="preserve" x="37.3136" y="226.404" fill="black" font-size="15.2367" font-family="Helvetica">look for simple
</text>
<text xml:space="preserve" x="53.8797" y="249.412" fill="black" font-size="15.2367" font-family="Helvetica">operators
</text>
<rect x="28.8465" y="303.896" width="113.386" height="46.7532" fill="#f2f2f2"/>
<path d="M34.3685,350.649v 3.68136h 111.545v -44.9126h -3.68136v 41.2312z" fill="black"/>
<path d="M28.8465,350.649v -46.7532h 113.386v 46.7532h -113.386z" fill="none" stroke="black"/>
<text xml:space="preserve" x="31.7915" y="319.358" fill="black" font-size="12.965" font-family="Helvetica">look for an already
</text>
<text xml:space="preserve" x="30.8712" y="342.366" fill="black" font-size="12.965" font-family="Helvetica">defined expression
</text>
<rect x="28.8465" y="397.403" width="113.386" height="46.7532" fill="#f2f2f2"/>
<path d="M34.3685,444.156v 3.68136h 111.545v -44.9126h -3.68136v 41.2312z" fill="black"/>
<path d="M28.8465,444.156v -46.7532h 113.386v 46.7532h -113.386z" fill="none" stroke="black"/>
<text xml:space="preserve" x="46.517" y="414.153" fill="black" font-size="12.8727" font-family="Helvetica">look for usual
</text>
<text xml:space="preserve" x="30.8712" y="438.082" fill="black" font-size="12.8727" font-family="Helvetica">functions :cos sin ..
</text>
<rect x="28.8465" y="490.909" width="113.386" height="46.7532" fill="#f2f2f2"/>
<path d="M34.3685,537.662v 3.68136h 111.545v -44.9126h -3.68136v 41.2312z" fill="black"/>
<path d="M28.8465,537.662v -46.7532h 113.386v 46.7532h -113.386z" fill="none" stroke="black"/>
<text xml:space="preserve" x="54.8" y="508.027" fill="black" font-size="15.2367" font-family="Helvetica">look for a
</text>
<text xml:space="preserve" x="39.1543" y="531.956" fill="black" font-size="15.2367" font-family="Helvetica">numeric value
</text>
<rect x="198.925" y="198.701" width="113.386" height="70.1299" fill="#f2f2f2"/>
<path d="M204.447,268.831v 3.68136h 111.545v -68.2892h -3.68136v 64.6078z" fill="black"/>
<path d="M198.925,268.831v -70.1299h 113.386v 70.1299h -113.386z" fill="none" stroke="black"/>
<text xml:space="preserve" x="202.975" y="215.359" fill="black" font-size="15.2367" font-family="Helvetica">Analyze left and
</text>
<text xml:space="preserve" x="217.7" y="238.368" fill="black" font-size="15.2367" font-family="Helvetica">right part of
</text>
<text xml:space="preserve" x="207.576" y="261.376" fill="black" font-size="15.2367" font-family="Helvetica">the expression
</text>
<rect x="198.925" y="303.896" width="113.386" height="46.7532" fill="#f2f2f2"/>
<path d="M204.447,350.649v 3.68136h 111.545v -44.9126h -3.68136v 41.2312z" fill="black"/>
<path d="M198.925,350.649v -46.7532h 113.386v 46.7532h -113.386z" fill="none" stroke="black"/>
<text xml:space="preserve" x="202.975" y="331.322" fill="black" font-size="12.0994" font-family="Helvetica">Replace expression
</text>
<rect x="198.925" y="397.403" width="113.386" height="46.7532" fill="#ddba87"/>
<path d="M204.447,444.156v 3.68136h 111.545v -44.9126h -3.68136v 41.2312z" fill="black"/>
<path d="M198.925,444.156v -46.7532h 113.386v 46.7532h -113.386z" fill="none" stroke="black"/>
<text xml:space="preserve" x="202.975" y="428.878" fill="black" font-size="29.2985" font-family="Helvetica">Analyze
</text>
<rect x="198.925" y="490.909" width="113.386" height="46.7532" fill="#f2f2f2"/>
<path d="M204.447,537.662v 3.68136h 111.545v -44.9126h -3.68136v 41.2312z" fill="black"/>
<path d="M198.925,537.662v -46.7532h 113.386v 46.7532h -113.386z" fill="none" stroke="black"/>
<text xml:space="preserve" x="239.788" y="508.027" fill="black" font-size="14.3043" font-family="Helvetica">Error
</text>
<text xml:space="preserve" x="202.975" y="530.116" fill="black" font-size="14.3043" font-family="Helvetica">Break of Analyze
</text>
<rect x="425.697" y="140.26" width="85.0394" height="46.7532" fill="#ddba87"/>
<path d="M431.219,187.013v 3.68136h 83.1987v -44.9126h -3.68136v 41.2312z" fill="black"/>
<path d="M425.697,187.013v -46.7532h 85.0394v 46.7532h -85.0394z" fill="none" stroke="black"/>
<text xml:space="preserve" x="441.343" y="156.458" fill="black" font-size="15.2367" font-family="Helvetica">Analyze
</text>
<text xml:space="preserve" x="455.148" y="181.307" fill="black" font-size="15.2367" font-family="Helvetica">Left
</text>
<rect x="425.697" y="210.39" width="85.0394" height="46.7532" fill="#ddba87"/>
<path d="M431.219,257.143v 3.68136h 83.1987v -44.9126h -3.68136v 41.2312z" fill="black"/>
<path d="M425.697,257.143v -46.7532h 85.0394v 46.7532h -85.0394z" fill="none" stroke="black"/>
<text xml:space="preserve" x="441.343" y="226.404" fill="black" font-size="15.2367" font-family="Helvetica">Analyze
</text>
<text xml:space="preserve" x="450.546" y="250.332" fill="black" font-size="15.2367" font-family="Helvetica">Right
</text>
<rect x="425.697" y="280.519" width="113.386" height="70.1299" fill="#f2f2f2"/>
<path d="M431.219,350.649v 3.68136h 111.545v -68.2892h -3.68136v 64.6078z" fill="black"/>
<path d="M425.697,350.649v -70.1299h 113.386v 70.1299h -113.386z" fill="none" stroke="black"/>
<text xml:space="preserve" x="445.944" y="297.27" fill="black" font-size="10.6231" font-family="Helvetica">StackNumber++
</text>
<text xml:space="preserve" x="430.299" y="319.358" fill="black" font-size="10.6231" font-family="Helvetica">operator[StackNumber]
</text>
<text xml:space="preserve" x="445.024" y="342.366" fill="black" font-size="10.6231" font-family="Helvetica">= operator found
</text>
<rect x="369.004" y="392.727" width="141.732" height="56.1039" fill="#f2f2f2"/>
<path d="M374.526,448.831v 3.68136h 139.892v -54.2632h -3.68136v 50.5819z" fill="black"/>
<path d="M369.004,448.831v -56.1039h 141.732v 56.1039h -141.732z" fill="none" stroke="black"/>
<text xml:space="preserve" x="396.246" y="406.79" fill="black" font-size="12.2894" font-family="Helvetica">StackNumber++
</text>
<text xml:space="preserve" x="377.839" y="424.276" fill="black" font-size="12.2894" font-family="Helvetica">operator[StackNumber]
</text>
<text xml:space="preserve" x="396.246" y="444.524" fill="black" font-size="12.2894" font-family="Helvetica">= function found
</text>
<rect x="198.925" y="490.909" width="113.386" height="46.7532" fill="#f2f2f2"/>
<path d="M204.447,537.662v 3.68136h 111.545v -44.9126h -3.68136v 41.2312z" fill="black"/>
<path d="M198.925,537.662v -46.7532h 113.386v 46.7532h -113.386z" fill="none" stroke="black"/>
<text xml:space="preserve" x="238.868" y="508.027" fill="black" font-size="14.5363" font-family="Helvetica">Error
</text>
<text xml:space="preserve" x="200.214" y="531.036" fill="black" font-size="14.5363" font-family="Helvetica">break of Analyze
</text>
<rect x="28.8465" y="584.416" width="198.425" height="70.1299" fill="#f2f2f2"/>
<path d="M34.3685,654.545v 3.68136h 196.585v -68.2892h -3.68136v 64.6078z" fill="black"/>
<path d="M28.8465,654.545v -70.1299h 198.425v 70.1299h -198.425z" fill="none" stroke="black"/>
<text xml:space="preserve" x="85.1712" y="600.982" fill="black" font-size="12.4797" font-family="Helvetica">StackNumber++
</text>
<text xml:space="preserve" x="56.6407" y="623.07" fill="black" font-size="12.4797" font-family="Helvetica">operator[StackNumber] = 0
</text>
<text xml:space="preserve" x="36.3932" y="646.078" fill="black" font-size="12.4797" font-family="Helvetica">value[StackNumber] = value found
</text>
<path d="M85.5394,70.1299v 31.5117" fill="none" stroke="black"/>
<path d="M88.9405,101.642l -3.40112, 5.89091l -3.40112, -5.89091z" fill="black"/>
<path d="M88.9405,101.642l -3.40112, 5.89091l -3.40112, -5.89091h 6.80224z" fill="none" stroke="black"/>
<path d="M85.5394,168.312v 31.5117" fill="none" stroke="black"/>
<path d="M88.9405,199.823l -3.40112, 5.89091l -3.40112, -5.89091z" fill="black"/>
<path d="M88.9405,199.823l -3.40112, 5.89091l -3.40112, -5.89091h 6.80224z" fill="none" stroke="black"/>
<path d="M85.5394,257.143v 36.187" fill="none" stroke="black"/>
<path d="M88.9405,293.33l -3.40112, 5.89091l -3.40112, -5.89091z" fill="black"/>
<path d="M88.9405,293.33l -3.40112, 5.89091l -3.40112, -5.89091h 6.80224z" fill="none" stroke="black"/>
<path d="M85.5394,350.649v 36.187" fill="none" stroke="black"/>
<path d="M88.9405,386.836l -3.40112, 5.89091l -3.40112, -5.89091z" fill="black"/>
<path d="M88.9405,386.836l -3.40112, 5.89091l -3.40112, -5.89091h 6.80224z" fill="none" stroke="black"/>
<path d="M85.5394,444.156v 36.187" fill="none" stroke="black"/>
<path d="M88.9405,480.343l -3.40112, 5.89091l -3.40112, -5.89091z" fill="black"/>
<path d="M88.9405,480.343l -3.40112, 5.89091l -3.40112, -5.89091h 6.80224z" fill="none" stroke="black"/>
<path d="M85.5394,537.662v 36.187" fill="none" stroke="black"/>
<path d="M88.9405,573.849l -3.40112, 5.89091l -3.40112, -5.89091z" fill="black"/>
<path d="M88.9405,573.849l -3.40112, 5.89091l -3.40112, -5.89091h 6.80224z" fill="none" stroke="black"/>
<path d="M142.232,140.26h 50.802" fill="none" stroke="black"/>
<path d="M193.034,136.859l 5.89091, 3.40112l -5.89091, 3.40112z" fill="black"/>
<path d="M193.034,136.859l 5.89091, 3.40112l -5.89091, 3.40112v -6.80224z" fill="none" stroke="black"/>
<path d="M142.232,233.766h 50.802" fill="none" stroke="black"/>
<path d="M193.034,230.365l 5.89091, 3.40112l -5.89091, 3.40112z" fill="black"/>
<path d="M193.034,230.365l 5.89091, 3.40112l -5.89091, 3.40112v -6.80224z" fill="none" stroke="black"/>
<path d="M142.232,327.273h 50.802" fill="none" stroke="black"/>
<path d="M193.034,323.872l 5.89091, 3.40112l -5.89091, 3.40112z" fill="black"/>
<path d="M193.034,323.872l 5.89091, 3.40112l -5.89091, 3.40112v -6.80224z" fill="none" stroke="black"/>
<path d="M142.232,420.779h 50.802" fill="none" stroke="black"/>
<path d="M193.034,417.378l 5.89091, 3.40112l -5.89091, 3.40112z" fill="black"/>
<path d="M193.034,417.378l 5.89091, 3.40112l -5.89091, 3.40112v -6.80224z" fill="none" stroke="black"/>
<path d="M142.232,514.286h 50.802" fill="none" stroke="black"/>
<path d="M193.034,510.885l 5.89091, 3.40112l -5.89091, 3.40112z" fill="black"/>
<path d="M193.034,510.885l 5.89091, 3.40112l -5.89091, 3.40112v -6.80224z" fill="none" stroke="black"/>
<path d="M312.311,233.766h 107.495" fill="none" stroke="black"/>
<path d="M419.806,230.365l 5.89091, 3.40112l -5.89091, 3.40112z" fill="black"/>
<path d="M419.806,230.365l 5.89091, 3.40112l -5.89091, 3.40112v -6.80224z" fill="none" stroke="black"/>
<path d="M369.004,163.636h 50.802" fill="none" stroke="black"/>
<path d="M419.806,160.235l 5.89091, 3.40112l -5.89091, 3.40112z" fill="black"/>
<path d="M419.806,160.235l 5.89091, 3.40112l -5.89091, 3.40112v -6.80224z" fill="none" stroke="black"/>
<path d="M369.004,315.584h 50.802" fill="none" stroke="black"/>
<path d="M419.806,312.183l 5.89091, 3.40112l -5.89091, 3.40112z" fill="black"/>
<path d="M419.806,312.183l 5.89091, 3.40112l -5.89091, 3.40112v -6.80224z" fill="none" stroke="black"/>
<path d="M312.311,420.779h 50.802" fill="none" stroke="black"/>
<path d="M363.113,417.378l 5.89091, 3.40112l -5.89091, 3.40112z" fill="black"/>
<path d="M363.113,417.378l 5.89091, 3.40112l -5.89091, 3.40112v -6.80224z" fill="none" stroke="black"/>
<text xml:space="preserve" x="91.2087" y="186.489" fill="#0000ff" font-size="8.30178" font-family="Helvetica" font-weight="bold" font-style="oblique">err = 0
</text>
<text xml:space="preserve" x="91.2087" y="279.995" fill="#0000ff" font-size="8.30178" font-family="Helvetica" font-weight="bold" font-style="oblique">not found
</text>
<text xml:space="preserve" x="91.2087" y="560.515" fill="#0000ff" font-size="8.30178" font-family="Helvetica" font-weight="bold" font-style="oblique">found
</text>
<text xml:space="preserve" x="147.902" y="137.922" fill="#0000ff" font-size="8.30178" font-family="Helvetica" font-weight="bold" font-style="oblique">err != 0
</text>
<text xml:space="preserve" x="147.902" y="231.429" fill="#0000ff" font-size="8.30178" font-family="Helvetica" font-weight="bold" font-style="oblique">found
</text>
<text xml:space="preserve" x="147.902" y="324.935" fill="#0000ff" font-size="8.30178" font-family="Helvetica" font-weight="bold" font-style="oblique">found
</text>
<text xml:space="preserve" x="147.902" y="418.442" fill="#0000ff" font-size="8.30178" font-family="Helvetica" font-weight="bold" font-style="oblique">found
</text>
<text xml:space="preserve" x="147.902" y="511.948" fill="#0000ff" font-size="8.30178" font-family="Helvetica" font-weight="bold" font-style="oblique">not found
</text>
<path d="M369.004,315.584v -151.948" fill="none" stroke="black"/></svg>
