<?xml version="1.0" standalone="no"?>
<svg width="567.429" height="544.6" viewBox="0 0 567.429 544.6" xmlns="http://www.w3.org/2000/svg" shape-rendering="crispEdges">
<title>
./old_svg_ref/AtlasExample.svg
</title>
<desc>
Creator: ROOT Version 6.33/01
CreationDate: Thu Jun  6 09:46:51 2024</desc>
<defs>
</defs>
<rect x="0.5" y="0" width="566.929" height="544.1" fill="white"/>
<rect x="91.2087" y="27.205" width="447.874" height="429.839" fill="white"/>
<rect x="91.2087" y="27.205" width="447.874" height="429.839" fill="none" stroke="black"/>
<rect x="91.2087" y="27.205" width="447.874" height="429.839" fill="white"/>
<rect x="91.2087" y="27.205" width="447.874" height="429.839" fill="none" stroke="black"/>
<path d="M91.2087,457.044h 447.874" fill="none" stroke="black"/>
<path d="M148.495,444.149v 12.8952" fill="none" stroke="black"/>
<path d="M161.514,450.596v 6.44758" fill="none" stroke="black"/>
<path d="M174.534,450.596v 6.44758" fill="none" stroke="black"/>
<path d="M187.554,450.596v 6.44758" fill="none" stroke="black"/>
<path d="M200.573,450.596v 6.44758" fill="none" stroke="black"/>
<path d="M213.593,444.149v 12.8952" fill="none" stroke="black"/>
<path d="M226.612,450.596v 6.44758" fill="none" stroke="black"/>
<path d="M239.632,450.596v 6.44758" fill="none" stroke="black"/>
<path d="M252.652,450.596v 6.44758" fill="none" stroke="black"/>
<path d="M265.671,450.596v 6.44758" fill="none" stroke="black"/>
<path d="M278.691,444.149v 12.8952" fill="none" stroke="black"/>
<path d="M291.71,450.596v 6.44758" fill="none" stroke="black"/>
<path d="M304.73,450.596v 6.44758" fill="none" stroke="black"/>
<path d="M317.75,450.596v 6.44758" fill="none" stroke="black"/>
<path d="M330.769,450.596v 6.44758" fill="none" stroke="black"/>
<path d="M343.789,444.149v 12.8952" fill="none" stroke="black"/>
<path d="M356.808,450.596v 6.44758" fill="none" stroke="black"/>
<path d="M369.828,450.596v 6.44758" fill="none" stroke="black"/>
<path d="M382.848,450.596v 6.44758" fill="none" stroke="black"/>
<path d="M395.867,450.596v 6.44758" fill="none" stroke="black"/>
<path d="M408.887,444.149v 12.8952" fill="none" stroke="black"/>
<path d="M421.906,450.596v 6.44758" fill="none" stroke="black"/>
<path d="M434.926,450.596v 6.44758" fill="none" stroke="black"/>
<path d="M447.946,450.596v 6.44758" fill="none" stroke="black"/>
<path d="M460.965,450.596v 6.44758" fill="none" stroke="black"/>
<path d="M473.985,444.149v 12.8952" fill="none" stroke="black"/>
<path d="M487.004,450.596v 6.44758" fill="none" stroke="black"/>
<path d="M500.024,450.596v 6.44758" fill="none" stroke="black"/>
<path d="M513.044,450.596v 6.44758" fill="none" stroke="black"/>
<path d="M526.063,450.596v 6.44758" fill="none" stroke="black"/>
<path d="M539.083,444.149v 12.8952" fill="none" stroke="black"/>
<path d="M148.495,444.149v 12.8952" fill="none" stroke="black"/>
<path d="M135.475,450.596v 6.44758" fill="none" stroke="black"/>
<path d="M122.456,450.596v 6.44758" fill="none" stroke="black"/>
<path d="M109.436,450.596v 6.44758" fill="none" stroke="black"/>
<path d="M96.4165,450.596v 6.44758" fill="none" stroke="black"/>
<text xml:space="preserve" x="127.964" y="481.319" fill="black" font-size="25.4587" font-family="Helvetica">500
</text>
<text xml:space="preserve" x="185.037" y="481.319" fill="black" font-size="25.4587" font-family="Helvetica">1000
</text>
<text xml:space="preserve" x="249.721" y="481.319" fill="black" font-size="25.4587" font-family="Helvetica">1500
</text>
<text xml:space="preserve" x="315.355" y="481.319" fill="black" font-size="25.4587" font-family="Helvetica">2000
</text>
<text xml:space="preserve" x="380.038" y="481.319" fill="black" font-size="25.4587" font-family="Helvetica">2500
</text>
<text xml:space="preserve" x="445.673" y="481.319" fill="black" font-size="25.4587" font-family="Helvetica">3000
</text>
<text xml:space="preserve" x="510.356" y="481.319" fill="black" font-size="25.4587" font-family="Helvetica">3500
</text>
<text xml:space="preserve" x="459.941" y="523.173" fill="black" font-size="25.4587" font-family="Helvetica">  [GeV]
</text>
<text xml:space="preserve" x="426.648" y="530.783" fill="black" font-size="17.1391" font-family="Helvetica">T,jet
</text>
<text xml:space="preserve" x="410.477" y="523.173" fill="black" font-size="25.4587" font-family="Helvetica">E
</text>
<path d="M91.2087,27.205h 447.874" fill="none" stroke="black"/>
<path d="M148.495,40.1002v -12.8952" fill="none" stroke="black"/>
<path d="M161.514,33.6526v -6.44758" fill="none" stroke="black"/>
<path d="M174.534,33.6526v -6.44758" fill="none" stroke="black"/>
<path d="M187.554,33.6526v -6.44758" fill="none" stroke="black"/>
<path d="M200.573,33.6526v -6.44758" fill="none" stroke="black"/>
<path d="M213.593,40.1002v -12.8952" fill="none" stroke="black"/>
<path d="M226.612,33.6526v -6.44758" fill="none" stroke="black"/>
<path d="M239.632,33.6526v -6.44758" fill="none" stroke="black"/>
<path d="M252.652,33.6526v -6.44758" fill="none" stroke="black"/>
<path d="M265.671,33.6526v -6.44758" fill="none" stroke="black"/>
<path d="M278.691,40.1002v -12.8952" fill="none" stroke="black"/>
<path d="M291.71,33.6526v -6.44758" fill="none" stroke="black"/>
<path d="M304.73,33.6526v -6.44758" fill="none" stroke="black"/>
<path d="M317.75,33.6526v -6.44758" fill="none" stroke="black"/>
<path d="M330.769,33.6526v -6.44758" fill="none" stroke="black"/>
<path d="M343.789,40.1002v -12.8952" fill="none" stroke="black"/>
<path d="M356.808,33.6526v -6.44758" fill="none" stroke="black"/>
<path d="M369.828,33.6526v -6.44758" fill="none" stroke="black"/>
<path d="M382.848,33.6526v -6.44758" fill="none" stroke="black"/>
<path d="M395.867,33.6526v -6.44758" fill="none" stroke="black"/>
<path d="M408.887,40.1002v -12.8952" fill="none" stroke="black"/>
<path d="M421.906,33.6526v -6.44758" fill="none" stroke="black"/>
<path d="M434.926,33.6526v -6.44758" fill="none" stroke="black"/>
<path d="M447.946,33.6526v -6.44758" fill="none" stroke="black"/>
<path d="M460.965,33.6526v -6.44758" fill="none" stroke="black"/>
<path d="M473.985,40.1002v -12.8952" fill="none" stroke="black"/>
<path d="M487.004,33.6526v -6.44758" fill="none" stroke="black"/>
<path d="M500.024,33.6526v -6.44758" fill="none" stroke="black"/>
<path d="M513.044,33.6526v -6.44758" fill="none" stroke="black"/>
<path d="M526.063,33.6526v -6.44758" fill="none" stroke="black"/>
<path d="M539.083,40.1002v -12.8952" fill="none" stroke="black"/>
<path d="M148.495,40.1002v -12.8952" fill="none" stroke="black"/>
<path d="M135.475,33.6526v -6.44758" fill="none" stroke="black"/>
<path d="M122.456,33.6526v -6.44758" fill="none" stroke="black"/>
<path d="M109.436,33.6526v -6.44758" fill="none" stroke="black"/>
<path d="M96.4165,33.6526v -6.44758" fill="none" stroke="black"/>
<path d="M91.2087,457.044v -429.839" fill="none" stroke="black"/>
<path d="M104.645,457.044h -13.4362" fill="none" stroke="black"/>
<text xml:space="preserve" x="76.5979" y="456.587" fill="black" font-size="17.1391" font-family="Helvetica">3
</text>
<text xml:space="preserve" x="67.0856" y="456.587" fill="black" font-size="17.1391" font-family="Times">&#8722;
</text>
<text xml:space="preserve" x="39.5002" y="468.953" fill="black" font-size="25.4587" font-family="Helvetica">10
</text>
<path d="M97.9268,444.482h -6.71811" fill="none" stroke="black"/>
<path d="M97.9268,437.135h -6.71811" fill="none" stroke="black"/>
<path d="M97.9268,431.921h -6.71811" fill="none" stroke="black"/>
<path d="M97.9268,427.877h -6.71811" fill="none" stroke="black"/>
<path d="M97.9268,424.573h -6.71811" fill="none" stroke="black"/>
<path d="M97.9268,421.78h -6.71811" fill="none" stroke="black"/>
<path d="M97.9268,419.36h -6.71811" fill="none" stroke="black"/>
<path d="M97.9268,417.225h -6.71811" fill="none" stroke="black"/>
<path d="M104.645,415.316h -13.4362" fill="none" stroke="black"/>
<text xml:space="preserve" x="76.5979" y="416.636" fill="black" font-size="17.1391" font-family="Helvetica">2
</text>
<text xml:space="preserve" x="67.0856" y="416.636" fill="black" font-size="17.1391" font-family="Times">&#8722;
</text>
<text xml:space="preserve" x="39.5002" y="428.051" fill="black" font-size="25.4587" font-family="Helvetica">10
</text>
<path d="M97.9268,402.755h -6.71811" fill="none" stroke="black"/>
<path d="M97.9268,395.407h -6.71811" fill="none" stroke="black"/>
<path d="M97.9268,390.193h -6.71811" fill="none" stroke="black"/>
<path d="M97.9268,386.15h -6.71811" fill="none" stroke="black"/>
<path d="M97.9268,382.846h -6.71811" fill="none" stroke="black"/>
<path d="M97.9268,380.052h -6.71811" fill="none" stroke="black"/>
<path d="M97.9268,377.632h -6.71811" fill="none" stroke="black"/>
<path d="M97.9268,375.498h -6.71811" fill="none" stroke="black"/>
<path d="M104.645,373.588h -13.4362" fill="none" stroke="black"/>
<text xml:space="preserve" x="79.4515" y="374.782" fill="black" font-size="17.1391" font-family="Helvetica">1
</text>
<text xml:space="preserve" x="69.9393" y="374.782" fill="black" font-size="17.1391" font-family="Times">&#8722;
</text>
<text xml:space="preserve" x="42.3538" y="386.197" fill="black" font-size="25.4587" font-family="Helvetica">10
</text>
<path d="M97.9268,361.027h -6.71811" fill="none" stroke="black"/>
<path d="M97.9268,353.679h -6.71811" fill="none" stroke="black"/>
<path d="M97.9268,348.466h -6.71811" fill="none" stroke="black"/>
<path d="M97.9268,344.422h -6.71811" fill="none" stroke="black"/>
<path d="M97.9268,341.118h -6.71811" fill="none" stroke="black"/>
<path d="M97.9268,338.324h -6.71811" fill="none" stroke="black"/>
<path d="M97.9268,335.904h -6.71811" fill="none" stroke="black"/>
<path d="M97.9268,333.77h -6.71811" fill="none" stroke="black"/>
<path d="M104.645,331.861h -13.4362" fill="none" stroke="black"/>
<text xml:space="preserve" x="76.5979" y="342.44" fill="black" font-size="25.4587" font-family="Helvetica">1
</text>
<path d="M97.9268,319.299h -6.71811" fill="none" stroke="black"/>
<path d="M97.9268,311.951h -6.71811" fill="none" stroke="black"/>
<path d="M97.9268,306.738h -6.71811" fill="none" stroke="black"/>
<path d="M97.9268,302.694h -6.71811" fill="none" stroke="black"/>
<path d="M97.9268,299.39h -6.71811" fill="none" stroke="black"/>
<path d="M97.9268,296.596h -6.71811" fill="none" stroke="black"/>
<path d="M97.9268,294.177h -6.71811" fill="none" stroke="black"/>
<path d="M97.9268,292.042h -6.71811" fill="none" stroke="black"/>
<path d="M104.645,290.133h -13.4362" fill="none" stroke="black"/>
<text xml:space="preserve" x="58.5246" y="299.635" fill="black" font-size="25.4587" font-family="Helvetica">10
</text>
<path d="M97.9268,277.571h -6.71811" fill="none" stroke="black"/>
<path d="M97.9268,270.224h -6.71811" fill="none" stroke="black"/>
<path d="M97.9268,265.01h -6.71811" fill="none" stroke="black"/>
<path d="M97.9268,260.966h -6.71811" fill="none" stroke="black"/>
<path d="M97.9268,257.662h -6.71811" fill="none" stroke="black"/>
<path d="M97.9268,254.869h -6.71811" fill="none" stroke="black"/>
<path d="M97.9268,252.449h -6.71811" fill="none" stroke="black"/>
<path d="M97.9268,250.314h -6.71811" fill="none" stroke="black"/>
<path d="M104.645,248.405h -13.4362" fill="none" stroke="black"/>
<text xml:space="preserve" x="76.5979" y="249.221" fill="black" font-size="17.1391" font-family="Helvetica">2
</text>
<text xml:space="preserve" x="49.0124" y="260.635" fill="black" font-size="25.4587" font-family="Helvetica">10
</text>
<path d="M97.9268,235.844h -6.71811" fill="none" stroke="black"/>
<path d="M97.9268,228.496h -6.71811" fill="none" stroke="black"/>
<path d="M97.9268,223.282h -6.71811" fill="none" stroke="black"/>
<path d="M97.9268,219.239h -6.71811" fill="none" stroke="black"/>
<path d="M97.9268,215.935h -6.71811" fill="none" stroke="black"/>
<path d="M97.9268,213.141h -6.71811" fill="none" stroke="black"/>
<path d="M97.9268,210.721h -6.71811" fill="none" stroke="black"/>
<path d="M97.9268,208.587h -6.71811" fill="none" stroke="black"/>
<path d="M104.645,206.677h -13.4362" fill="none" stroke="black"/>
<text xml:space="preserve" x="76.5979" y="206.415" fill="black" font-size="17.1391" font-family="Helvetica">3
</text>
<text xml:space="preserve" x="49.0124" y="218.781" fill="black" font-size="25.4587" font-family="Helvetica">10
</text>
<path d="M97.9268,194.116h -6.71811" fill="none" stroke="black"/>
<path d="M97.9268,186.768h -6.71811" fill="none" stroke="black"/>
<path d="M97.9268,181.555h -6.71811" fill="none" stroke="black"/>
<path d="M97.9268,177.511h -6.71811" fill="none" stroke="black"/>
<path d="M97.9268,174.207h -6.71811" fill="none" stroke="black"/>
<path d="M97.9268,171.413h -6.71811" fill="none" stroke="black"/>
<path d="M97.9268,168.993h -6.71811" fill="none" stroke="black"/>
<path d="M97.9268,166.859h -6.71811" fill="none" stroke="black"/>
<path d="M104.645,164.95h -13.4362" fill="none" stroke="black"/>
<text xml:space="preserve" x="76.5979" y="165.513" fill="black" font-size="17.1391" font-family="Helvetica">4
</text>
<text xml:space="preserve" x="49.0124" y="176.928" fill="black" font-size="25.4587" font-family="Helvetica">10
</text>
<path d="M97.9268,152.388h -6.71811" fill="none" stroke="black"/>
<path d="M97.9268,145.04h -6.71811" fill="none" stroke="black"/>
<path d="M97.9268,139.827h -6.71811" fill="none" stroke="black"/>
<path d="M97.9268,135.783h -6.71811" fill="none" stroke="black"/>
<path d="M97.9268,132.479h -6.71811" fill="none" stroke="black"/>
<path d="M97.9268,129.686h -6.71811" fill="none" stroke="black"/>
<path d="M97.9268,127.266h -6.71811" fill="none" stroke="black"/>
<path d="M97.9268,125.131h -6.71811" fill="none" stroke="black"/>
<path d="M104.645,123.222h -13.4362" fill="none" stroke="black"/>
<text xml:space="preserve" x="76.5979" y="123.659" fill="black" font-size="17.1391" font-family="Helvetica">5
</text>
<text xml:space="preserve" x="49.0124" y="136.025" fill="black" font-size="25.4587" font-family="Helvetica">10
</text>
<path d="M97.9268,110.66h -6.71811" fill="none" stroke="black"/>
<path d="M97.9268,103.313h -6.71811" fill="none" stroke="black"/>
<path d="M97.9268,98.0992h -6.71811" fill="none" stroke="black"/>
<path d="M97.9268,94.0553h -6.71811" fill="none" stroke="black"/>
<path d="M97.9268,90.7513h -6.71811" fill="none" stroke="black"/>
<path d="M97.9268,87.9578h -6.71811" fill="none" stroke="black"/>
<path d="M97.9268,85.5379h -6.71811" fill="none" stroke="black"/>
<path d="M97.9268,83.4034h -6.71811" fill="none" stroke="black"/>
<path d="M104.645,81.494h -13.4362" fill="none" stroke="black"/>
<text xml:space="preserve" x="76.5979" y="81.8052" fill="black" font-size="17.1391" font-family="Helvetica">6
</text>
<text xml:space="preserve" x="49.0124" y="94.1711" fill="black" font-size="25.4587" font-family="Helvetica">10
</text>
<path d="M97.9268,68.9327h -6.71811" fill="none" stroke="black"/>
<path d="M97.9268,61.5848h -6.71811" fill="none" stroke="black"/>
<path d="M97.9268,56.3714h -6.71811" fill="none" stroke="black"/>
<path d="M97.9268,52.3276h -6.71811" fill="none" stroke="black"/>
<path d="M97.9268,49.0235h -6.71811" fill="none" stroke="black"/>
<path d="M97.9268,46.23h -6.71811" fill="none" stroke="black"/>
<path d="M97.9268,43.8101h -6.71811" fill="none" stroke="black"/>
<path d="M97.9268,41.6757h -6.71811" fill="none" stroke="black"/>
<path d="M104.645,39.7663h -13.4362" fill="none" stroke="black"/>
<text xml:space="preserve" x="76.5979" y="40.9026" fill="black" font-size="17.1391" font-family="Helvetica">7
</text>
<text xml:space="preserve" x="49.0124" y="52.3173" fill="black" font-size="25.4587" font-family="Helvetica">10
</text>
<path d="M97.9268,27.205h -6.71811" fill="none" stroke="black"/>
<g transform="rotate(-90,31.8904,127.464)">
<text xml:space="preserve" x="31.8904" y="127.464" fill="black" font-size="25.4587" font-family="Helvetica"> [fb/GeV]
</text>
</g>
<g transform="rotate(-90,41.4026,160.757)">
<text xml:space="preserve" x="41.4026" y="160.757" fill="black" font-size="17.1391" font-family="Helvetica">T,jet
</text>
</g>
<g transform="rotate(-90,31.8904,199.757)">
<text xml:space="preserve" x="31.8904" y="199.757" fill="black" font-size="25.4587" font-family="Helvetica">/dE
</text>
</g>
<g transform="rotate(-90,40.4514,218.781)">
<text xml:space="preserve" x="40.4514" y="218.781" fill="black" font-size="17.1391" font-family="Helvetica">jet
</text>
</g>
<g transform="rotate(-90,31.8904,234.001)">
<text xml:space="preserve" x="31.8904" y="234.001" fill="black" font-size="25.4587" font-family="Times">&#0963;
</text>
</g>
<g transform="rotate(-90,31.8904,247.318)">
<text xml:space="preserve" x="31.8904" y="247.318" fill="black" font-size="25.4587" font-family="Helvetica">d
</text>
</g>
<path d="M539.083,457.044v -429.839" fill="none" stroke="black"/>
<path d="M525.646,457.044h 13.4362" fill="none" stroke="black"/>
<path d="M532.365,444.482h 6.71811" fill="none" stroke="black"/>
<path d="M532.365,437.135h 6.71811" fill="none" stroke="black"/>
<path d="M532.365,431.921h 6.71811" fill="none" stroke="black"/>
<path d="M532.365,427.877h 6.71811" fill="none" stroke="black"/>
<path d="M532.365,424.573h 6.71811" fill="none" stroke="black"/>
<path d="M532.365,421.78h 6.71811" fill="none" stroke="black"/>
<path d="M532.365,419.36h 6.71811" fill="none" stroke="black"/>
<path d="M532.365,417.225h 6.71811" fill="none" stroke="black"/>
<path d="M525.646,415.316h 13.4362" fill="none" stroke="black"/>
<path d="M532.365,402.755h 6.71811" fill="none" stroke="black"/>
<path d="M532.365,395.407h 6.71811" fill="none" stroke="black"/>
<path d="M532.365,390.193h 6.71811" fill="none" stroke="black"/>
<path d="M532.365,386.15h 6.71811" fill="none" stroke="black"/>
<path d="M532.365,382.846h 6.71811" fill="none" stroke="black"/>
<path d="M532.365,380.052h 6.71811" fill="none" stroke="black"/>
<path d="M532.365,377.632h 6.71811" fill="none" stroke="black"/>
<path d="M532.365,375.498h 6.71811" fill="none" stroke="black"/>
<path d="M525.646,373.588h 13.4362" fill="none" stroke="black"/>
<path d="M532.365,361.027h 6.71811" fill="none" stroke="black"/>
<path d="M532.365,353.679h 6.71811" fill="none" stroke="black"/>
<path d="M532.365,348.466h 6.71811" fill="none" stroke="black"/>
<path d="M532.365,344.422h 6.71811" fill="none" stroke="black"/>
<path d="M532.365,341.118h 6.71811" fill="none" stroke="black"/>
<path d="M532.365,338.324h 6.71811" fill="none" stroke="black"/>
<path d="M532.365,335.904h 6.71811" fill="none" stroke="black"/>
<path d="M532.365,333.77h 6.71811" fill="none" stroke="black"/>
<path d="M525.646,331.861h 13.4362" fill="none" stroke="black"/>
<path d="M532.365,319.299h 6.71811" fill="none" stroke="black"/>
<path d="M532.365,311.951h 6.71811" fill="none" stroke="black"/>
<path d="M532.365,306.738h 6.71811" fill="none" stroke="black"/>
<path d="M532.365,302.694h 6.71811" fill="none" stroke="black"/>
<path d="M532.365,299.39h 6.71811" fill="none" stroke="black"/>
<path d="M532.365,296.596h 6.71811" fill="none" stroke="black"/>
<path d="M532.365,294.177h 6.71811" fill="none" stroke="black"/>
<path d="M532.365,292.042h 6.71811" fill="none" stroke="black"/>
<path d="M525.646,290.133h 13.4362" fill="none" stroke="black"/>
<path d="M532.365,277.571h 6.71811" fill="none" stroke="black"/>
<path d="M532.365,270.224h 6.71811" fill="none" stroke="black"/>
<path d="M532.365,265.01h 6.71811" fill="none" stroke="black"/>
<path d="M532.365,260.966h 6.71811" fill="none" stroke="black"/>
<path d="M532.365,257.662h 6.71811" fill="none" stroke="black"/>
<path d="M532.365,254.869h 6.71811" fill="none" stroke="black"/>
<path d="M532.365,252.449h 6.71811" fill="none" stroke="black"/>
<path d="M532.365,250.314h 6.71811" fill="none" stroke="black"/>
<path d="M525.646,248.405h 13.4362" fill="none" stroke="black"/>
<path d="M532.365,235.844h 6.71811" fill="none" stroke="black"/>
<path d="M532.365,228.496h 6.71811" fill="none" stroke="black"/>
<path d="M532.365,223.282h 6.71811" fill="none" stroke="black"/>
<path d="M532.365,219.239h 6.71811" fill="none" stroke="black"/>
<path d="M532.365,215.935h 6.71811" fill="none" stroke="black"/>
<path d="M532.365,213.141h 6.71811" fill="none" stroke="black"/>
<path d="M532.365,210.721h 6.71811" fill="none" stroke="black"/>
<path d="M532.365,208.587h 6.71811" fill="none" stroke="black"/>
<path d="M525.646,206.677h 13.4362" fill="none" stroke="black"/>
<path d="M532.365,194.116h 6.71811" fill="none" stroke="black"/>
<path d="M532.365,186.768h 6.71811" fill="none" stroke="black"/>
<path d="M532.365,181.555h 6.71811" fill="none" stroke="black"/>
<path d="M532.365,177.511h 6.71811" fill="none" stroke="black"/>
<path d="M532.365,174.207h 6.71811" fill="none" stroke="black"/>
<path d="M532.365,171.413h 6.71811" fill="none" stroke="black"/>
<path d="M532.365,168.993h 6.71811" fill="none" stroke="black"/>
<path d="M532.365,166.859h 6.71811" fill="none" stroke="black"/>
<path d="M525.646,164.95h 13.4362" fill="none" stroke="black"/>
<path d="M532.365,152.388h 6.71811" fill="none" stroke="black"/>
<path d="M532.365,145.04h 6.71811" fill="none" stroke="black"/>
<path d="M532.365,139.827h 6.71811" fill="none" stroke="black"/>
<path d="M532.365,135.783h 6.71811" fill="none" stroke="black"/>
<path d="M532.365,132.479h 6.71811" fill="none" stroke="black"/>
<path d="M532.365,129.686h 6.71811" fill="none" stroke="black"/>
<path d="M532.365,127.266h 6.71811" fill="none" stroke="black"/>
<path d="M532.365,125.131h 6.71811" fill="none" stroke="black"/>
<path d="M525.646,123.222h 13.4362" fill="none" stroke="black"/>
<path d="M532.365,110.66h 6.71811" fill="none" stroke="black"/>
<path d="M532.365,103.313h 6.71811" fill="none" stroke="black"/>
<path d="M532.365,98.0992h 6.71811" fill="none" stroke="black"/>
<path d="M532.365,94.0553h 6.71811" fill="none" stroke="black"/>
<path d="M532.365,90.7513h 6.71811" fill="none" stroke="black"/>
<path d="M532.365,87.9578h 6.71811" fill="none" stroke="black"/>
<path d="M532.365,85.5379h 6.71811" fill="none" stroke="black"/>
<path d="M532.365,83.4034h 6.71811" fill="none" stroke="black"/>
<path d="M525.646,81.494h 13.4362" fill="none" stroke="black"/>
<path d="M532.365,68.9327h 6.71811" fill="none" stroke="black"/>
<path d="M532.365,61.5848h 6.71811" fill="none" stroke="black"/>
<path d="M532.365,56.3714h 6.71811" fill="none" stroke="black"/>
<path d="M532.365,52.3276h 6.71811" fill="none" stroke="black"/>
<path d="M532.365,49.0235h 6.71811" fill="none" stroke="black"/>
<path d="M532.365,46.23h 6.71811" fill="none" stroke="black"/>
<path d="M532.365,43.8101h 6.71811" fill="none" stroke="black"/>
<path d="M532.365,41.6757h 6.71811" fill="none" stroke="black"/>
<path d="M525.646,39.7663h 13.4362" fill="none" stroke="black"/>
<path d="M532.365,27.205h 6.71811" fill="none" stroke="black"/>
<rect x="96.4165" y="45.8816" width="13.0196" height="2.94024" fill="#ffff00"/>
<rect x="109.436" y="101.285" width="13.0196" height="2.52251" fill="#ffff00"/>
<rect x="122.456" y="135.124" width="13.0196" height="3.07697" fill="#ffff00"/>
<rect x="135.475" y="162.083" width="13.0196" height="3.02609" fill="#ffff00"/>
<rect x="148.495" y="184.133" width="13.0196" height="3.09299" fill="#ffff00"/>
<rect x="161.514" y="201.269" width="13.0196" height="3.68312" fill="#ffff00"/>
<rect x="174.534" y="216.993" width="13.0196" height="3.97203" fill="#ffff00"/>
<rect x="187.554" y="231.326" width="13.0196" height="4.16142" fill="#ffff00"/>
<rect x="200.573" y="243.84" width="13.0196" height="4.52818" fill="#ffff00"/>
<rect x="213.593" y="255.084" width="13.0196" height="4.9558" fill="#ffff00"/>
<rect x="226.612" y="267.14" width="13.0196" height="4.82922" fill="#ffff00"/>
<rect x="239.632" y="277.16" width="13.0196" height="5.23747" fill="#ffff00"/>
<rect x="252.652" y="286.847" width="13.0196" height="5.38299" fill="#ffff00"/>
<rect x="265.671" y="296.026" width="13.0196" height="5.63823" fill="#ffff00"/>
<rect x="278.691" y="304.983" width="13.0196" height="5.90589" fill="#ffff00"/>
<rect x="291.71" y="311.831" width="13.0196" height="6.26843" fill="#ffff00"/>
<rect x="304.73" y="321.82" width="13.0196" height="6.20588" fill="#ffff00"/>
<rect x="317.75" y="328.121" width="13.0196" height="6.50257" fill="#ffff00"/>
<rect x="330.769" y="336.299" width="13.0196" height="6.70822" fill="#ffff00"/>
<rect x="343.789" y="345.477" width="13.0196" height="6.53691" fill="#ffff00"/>
<rect x="356.808" y="352.188" width="13.0196" height="6.98834" fill="#ffff00"/>
<rect x="369.828" y="356.312" width="13.0196" height="7.54173" fill="#ffff00"/>
<rect x="382.848" y="368.705" width="13.0196" height="7.28085" fill="#ffff00"/>
<rect x="395.867" y="373.277" width="13.0196" height="7.32405" fill="#ffff00"/>
<rect x="408.887" y="381.437" width="13.0196" height="7.78812" fill="#ffff00"/>
<rect x="421.906" y="387.022" width="13.0196" height="7.8253" fill="#ffff00"/>
<rect x="434.926" y="394.88" width="13.0196" height="8.11818" fill="#ffff00"/>
<rect x="447.946" y="399.892" width="13.0196" height="8.64731" fill="#ffff00"/>
<rect x="460.965" y="409.721" width="13.0196" height="8.09447" fill="#ffff00"/>
<rect x="473.985" y="416.18" width="13.0196" height="8.5771" fill="#ffff00"/>
<rect x="487.004" y="422.248" width="13.0196" height="9.00311" fill="#ffff00"/>
<rect x="500.024" y="428.967" width="13.0196" height="9.15998" fill="#ffff00"/>
<rect x="513.044" y="435.913" width="13.0196" height="9.56629" fill="#ffff00"/>
<rect x="526.063" y="445.498" width="13.0196" height="9.84394" fill="#ffff00"/>
<rect x="96.4165" y="45.977" width="13.0196" height="2.60874" fill="#ffff00"/>
<rect x="109.436" y="101.412" width="13.0196" height="2.24659" fill="#ffff00"/>
<rect x="122.456" y="135.246" width="13.0196" height="2.81727" fill="#ffff00"/>
<rect x="135.475" y="162.325" width="13.0196" height="2.59278" fill="#ffff00"/>
<rect x="148.495" y="184.574" width="13.0196" height="2.39271" fill="#ffff00"/>
<rect x="161.514" y="201.808" width="13.0196" height="2.82743" fill="#ffff00"/>
<rect x="174.534" y="217.714" width="13.0196" height="2.86038" fill="#ffff00"/>
<rect x="187.554" y="232.221" width="13.0196" height="2.81136" fill="#ffff00"/>
<rect x="200.573" y="244.92" width="13.0196" height="2.89739" fill="#ffff00"/>
<rect x="213.593" y="256.237" width="13.0196" height="3.1956" fill="#ffff00"/>
<rect x="226.612" y="268.591" width="13.0196" height="2.68454" fill="#ffff00"/>
<rect x="239.632" y="278.825" width="13.0196" height="2.76911" fill="#ffff00"/>
<rect x="252.652" y="288.553" width="13.0196" height="2.86128" fill="#ffff00"/>
<rect x="265.671" y="297.909" width="13.0196" height="2.86016" fill="#ffff00"/>
<rect x="278.691" y="307.058" width="13.0196" height="2.84396" fill="#ffff00"/>
<rect x="291.71" y="313.579" width="13.0196" height="3.65064" fill="#ffff00"/>
<rect x="304.73" y="324.313" width="13.0196" height="2.59895" fill="#ffff00"/>
<rect x="317.75" y="330.177" width="13.0196" height="3.46763" fill="#ffff00"/>
<rect x="330.769" y="338.636" width="13.0196" height="3.28526" fill="#ffff00"/>
<rect x="343.789" y="348.228" width="13.0196" height="2.61142" fill="#ffff00"/>
<rect x="356.808" y="355.028" width="13.0196" height="2.91967" fill="#ffff00"/>
<rect x="369.828" y="358.411" width="13.0196" height="4.42194" fill="#ffff00"/>
<rect x="382.848" y="372.643" width="13.0196" height="1.77693" fill="#ffff00"/>
<rect x="395.867" y="376.079" width="13.0196" height="3.3394" fill="#ffff00"/>
<rect x="408.887" y="384.978" width="13.0196" height="2.78257" fill="#ffff00"/>
<rect x="421.906" y="390.083" width="13.0196" height="3.48278" fill="#ffff00"/>
<rect x="434.926" y="398.277" width="13.0196" height="3.33883" fill="#ffff00"/>
<rect x="447.946" y="403.024" width="13.0196" height="4.16426" fill="#ffff00"/>
<rect x="460.965" y="413.376" width="13.0196" height="3.00284" fill="#ffff00"/>
<rect x="473.985" y="420.234" width="13.0196" height="2.94041" fill="#ffff00"/>
<rect x="487.004" y="425.959" width="13.0196" height="3.77483" fill="#ffff00"/>
<rect x="500.024" y="432.519" width="13.0196" height="4.11758" fill="#ffff00"/>
<rect x="513.044" y="439.621" width="13.0196" height="4.29259" fill="#ffff00"/>
<rect x="526.063" y="450.397" width="13.0196" height="3.03738" fill="#ffff00"/>
<path d="M102.926,47.1334h -6.5098" fill="none" stroke="black" stroke-width="3"/>
<path d="M102.926,47.1334h 6.5098" fill="none" stroke="black" stroke-width="3"/>
<path d="M115.946,102.238h -6.5098" fill="none" stroke="black" stroke-width="3"/>
<path d="M115.946,102.238h 6.5098" fill="none" stroke="black" stroke-width="3"/>
<path d="M128.965,136.38h -6.5098" fill="none" stroke="black" stroke-width="3"/>
<path d="M128.965,136.38h 6.5098" fill="none" stroke="black" stroke-width="3"/>
<path d="M141.985,163.293h -6.5098" fill="none" stroke="black" stroke-width="3"/>
<path d="M141.985,163.293h 6.5098" fill="none" stroke="black" stroke-width="3"/>
<path d="M155.005,185.399h -6.5098" fill="none" stroke="black" stroke-width="3"/>
<path d="M155.005,185.399h 6.5098" fill="none" stroke="black" stroke-width="3"/>
<path d="M168.024,202.891h -6.5098" fill="none" stroke="black" stroke-width="3"/>
<path d="M168.024,202.891h 6.5098" fill="none" stroke="black" stroke-width="3"/>
<path d="M181.044,218.807h -6.5098" fill="none" stroke="black" stroke-width="3"/>
<path d="M181.044,218.807h 6.5098" fill="none" stroke="black" stroke-width="3"/>
<path d="M194.063,233.273h -6.5098" fill="none" stroke="black" stroke-width="3"/>
<path d="M194.063,233.273h 6.5098" fill="none" stroke="black" stroke-width="3"/>
<path d="M207.083,246.017h -6.5098" fill="none" stroke="black" stroke-width="3"/>
<path d="M207.083,246.017h 6.5098" fill="none" stroke="black" stroke-width="3"/>
<path d="M220.103,257.511h -6.5098" fill="none" stroke="black" stroke-width="3"/>
<path d="M220.103,257.511h 6.5098" fill="none" stroke="black" stroke-width="3"/>
<path d="M233.122,269.538h -6.5098" fill="none" stroke="black" stroke-width="3"/>
<path d="M233.122,269.538h 6.5098" fill="none" stroke="black" stroke-width="3"/>
<path d="M246.142,279.818h -6.5098" fill="none" stroke="black" stroke-width="3"/>
<path d="M246.142,279.818h 6.5098" fill="none" stroke="black" stroke-width="3"/>
<path d="M259.161,289.596h -6.5098" fill="none" stroke="black" stroke-width="3"/>
<path d="M259.161,289.596h 6.5098" fill="none" stroke="black" stroke-width="3"/>
<path d="M272.181,298.943h -6.5098" fill="none" stroke="black" stroke-width="3"/>
<path d="M272.181,298.943h 6.5098" fill="none" stroke="black" stroke-width="3"/>
<path d="M285.201,308.075h -6.5098" fill="none" stroke="black" stroke-width="3"/>
<path d="M285.201,308.075h 6.5098" fill="none" stroke="black" stroke-width="3"/>
<path d="M298.22,315.09h -6.5098" fill="none" stroke="black" stroke-width="3"/>
<path d="M298.22,315.09h 6.5098" fill="none" stroke="black" stroke-width="3"/>
<path d="M311.24,325.159h -6.5098" fill="none" stroke="black" stroke-width="3"/>
<path d="M311.24,325.159h 6.5098" fill="none" stroke="black" stroke-width="3"/>
<path d="M324.259,331.56h -6.5098" fill="none" stroke="black" stroke-width="3"/>
<path d="M324.259,331.56h 6.5098" fill="none" stroke="black" stroke-width="3"/>
<path d="M337.279,339.896h -6.5098" fill="none" stroke="black" stroke-width="3"/>
<path d="M337.279,339.896h 6.5098" fill="none" stroke="black" stroke-width="3"/>
<path d="M350.299,349.053h -6.5098" fill="none" stroke="black" stroke-width="3"/>
<path d="M350.299,349.053h 6.5098" fill="none" stroke="black" stroke-width="3"/>
<path d="M363.318,356.04h -6.5098" fill="none" stroke="black" stroke-width="3"/>
<path d="M363.318,356.04h 6.5098" fill="none" stroke="black" stroke-width="3"/>
<path d="M376.338,360.353h -6.5098" fill="none" stroke="black" stroke-width="3"/>
<path d="M376.338,360.353h 6.5098" fill="none" stroke="black" stroke-width="3"/>
<path d="M389.357,372.903h -6.5098" fill="none" stroke="black" stroke-width="3"/>
<path d="M389.357,372.903h 6.5098" fill="none" stroke="black" stroke-width="3"/>
<path d="M402.377,377.326h -6.5098" fill="none" stroke="black" stroke-width="3"/>
<path d="M402.377,377.326h 6.5098" fill="none" stroke="black" stroke-width="3"/>
<path d="M415.397,385.863h -6.5098" fill="none" stroke="black" stroke-width="3"/>
<path d="M415.397,385.863h 6.5098" fill="none" stroke="black" stroke-width="3"/>
<path d="M428.416,391.402h -6.5098" fill="none" stroke="black" stroke-width="3"/>
<path d="M428.416,391.402h 6.5098" fill="none" stroke="black" stroke-width="3"/>
<path d="M441.436,399.495h -6.5098" fill="none" stroke="black" stroke-width="3"/>
<path d="M441.436,399.495h 6.5098" fill="none" stroke="black" stroke-width="3"/>
<path d="M454.455,404.753h -6.5098" fill="none" stroke="black" stroke-width="3"/>
<path d="M454.455,404.753h 6.5098" fill="none" stroke="black" stroke-width="3"/>
<path d="M467.475,414.356h -6.5098" fill="none" stroke="black" stroke-width="3"/>
<path d="M467.475,414.356h 6.5098" fill="none" stroke="black" stroke-width="3"/>
<path d="M480.495,421.164h -6.5098" fill="none" stroke="black" stroke-width="3"/>
<path d="M480.495,421.164h 6.5098" fill="none" stroke="black" stroke-width="3"/>
<path d="M493.514,427.41h -6.5098" fill="none" stroke="black" stroke-width="3"/>
<path d="M493.514,427.41h 6.5098" fill="none" stroke="black" stroke-width="3"/>
<path d="M506.534,434.174h -6.5098" fill="none" stroke="black" stroke-width="3"/>
<path d="M506.534,434.174h 6.5098" fill="none" stroke="black" stroke-width="3"/>
<path d="M519.553,441.377h -6.5098" fill="none" stroke="black" stroke-width="3"/>
<path d="M519.553,441.377h 6.5098" fill="none" stroke="black" stroke-width="3"/>
<path d="M532.573,451.338h -6.5098" fill="none" stroke="black" stroke-width="3"/>
<path d="M532.573,451.338h 6.5098" fill="none" stroke="black" stroke-width="3"/>
<path d="M102.926,44.977v 3.80373" fill="none" stroke="black"/>
<path d="M102.926,52.5868v -3.80373" fill="none" stroke="black"/>
<path d="M102.926,48.7808z" fill="none" stroke="black"/>
<path d="M102.926,48.7831z" fill="none" stroke="black"/>
<path d="M115.946,100.491v 3.79952" fill="none" stroke="black"/>
<path d="M115.946,108.101v -3.79952" fill="none" stroke="black"/>
<path d="M115.946,104.291z" fill="none" stroke="black"/>
<path d="M115.946,104.301z" fill="none" stroke="black"/>
<path d="M128.965,129.53v 3.79292" fill="none" stroke="black"/>
<path d="M128.965,137.139v -3.79291" fill="none" stroke="black"/>
<path d="M128.965,133.323z" fill="none" stroke="black"/>
<path d="M128.965,133.346z" fill="none" stroke="black"/>
<path d="M141.985,159.2v 3.77776" fill="none" stroke="black"/>
<path d="M141.985,166.81v -3.77772" fill="none" stroke="black"/>
<path d="M141.985,162.978z" fill="none" stroke="black"/>
<path d="M141.985,163.032z" fill="none" stroke="black"/>
<path d="M155.005,179.801v 3.75701" fill="none" stroke="black"/>
<path d="M155.005,187.411v -3.75689" fill="none" stroke="black"/>
<path d="M155.005,183.558z" fill="none" stroke="black"/>
<path d="M155.005,183.654z" fill="none" stroke="black"/>
<path d="M168.024,200.474v 3.72028" fill="none" stroke="black"/>
<path d="M168.024,208.084v -3.71989" fill="none" stroke="black"/>
<path d="M168.024,204.195z" fill="none" stroke="black"/>
<path d="M168.024,204.364z" fill="none" stroke="black"/>
<path d="M181.044,214.86v 3.6792" fill="none" stroke="black"/>
<path d="M181.044,222.47v -3.67832" fill="none" stroke="black"/>
<path d="M181.044,218.539z" fill="none" stroke="black"/>
<path d="M181.044,218.791z" fill="none" stroke="black"/>
<path d="M194.063,229.645v 3.61622" fill="none" stroke="black"/>
<path d="M194.063,237.255v -3.61423" fill="none" stroke="black"/>
<path d="M194.063,233.261z" fill="none" stroke="black"/>
<path d="M194.063,233.64z" fill="none" stroke="black"/>
<path d="M207.083,244.349v 3.52255" fill="none" stroke="black"/>
<path d="M207.083,251.959v -3.51808" fill="none" stroke="black"/>
<path d="M207.083,247.872z" fill="none" stroke="black"/>
<path d="M207.083,248.441z" fill="none" stroke="black"/>
<path d="M220.103,257.472v 3.40073" fill="none" stroke="black"/>
<path d="M220.103,265.082v -3.39151" fill="none" stroke="black"/>
<path d="M220.103,260.873z" fill="none" stroke="black"/>
<path d="M220.103,261.69z" fill="none" stroke="black"/>
<path d="M233.122,268.079v 3.26534" fill="none" stroke="black"/>
<path d="M233.122,275.689v -3.24878" fill="none" stroke="black"/>
<path d="M233.122,271.345z" fill="none" stroke="black"/>
<path d="M233.122,272.44z" fill="none" stroke="black"/>
<path d="M246.142,275.408v 3.1466" fill="none" stroke="black"/>
<path d="M246.142,283.018v -3.12178" fill="none" stroke="black"/>
<path d="M246.142,278.555z" fill="none" stroke="black"/>
<path d="M246.142,279.896z" fill="none" stroke="black"/>
<path d="M259.161,284.582v 2.96135" fill="none" stroke="black"/>
<path d="M259.161,292.191v -2.92016" fill="none" stroke="black"/>
<path d="M259.161,287.543z" fill="none" stroke="black"/>
<path d="M259.161,289.271z" fill="none" stroke="black"/>
<path d="M272.181,294.639v 2.69965" fill="none" stroke="black"/>
<path d="M272.181,302.249v -2.62784" fill="none" stroke="black"/>
<path d="M272.181,297.339z" fill="none" stroke="black"/>
<path d="M272.181,299.621z" fill="none" stroke="black"/>
<path d="M285.201,305.7v 2.32099" fill="none" stroke="black"/>
<path d="M285.201,313.31v -2.18856" fill="none" stroke="black"/>
<path d="M285.201,308.021z" fill="none" stroke="black"/>
<path d="M285.201,311.122z" fill="none" stroke="black"/>
<path d="M298.22,314.503v 1.93348" fill="none" stroke="black"/>
<path d="M298.22,322.113v -1.71773" fill="none" stroke="black"/>
<path d="M298.22,316.437z" fill="none" stroke="black"/>
<path d="M298.22,320.395z" fill="none" stroke="black"/>
<path d="M311.24,319.308v 1.68315" fill="none" stroke="black"/>
<path d="M311.24,326.918v -1.40138" fill="none" stroke="black"/>
<path d="M311.24,320.991z" fill="none" stroke="black"/>
<path d="M311.24,325.517z" fill="none" stroke="black"/>
<path d="M324.259,325.808v 1.2941" fill="none" stroke="black"/>
<path d="M324.259,333.418v -0.889415" fill="none" stroke="black"/>
<path d="M324.259,327.102z" fill="none" stroke="black"/>
<path d="M324.259,332.528z" fill="none" stroke="black"/>
<path d="M337.279,333.935v 0.714155" fill="none" stroke="black"/>
<path d="M337.279,341.544v -0.0763959" fill="none" stroke="black"/>
<path d="M337.279,334.649z" fill="none" stroke="black"/>
<path d="M337.279,341.468z" fill="none" stroke="black"/>
<path d="M350.299,346.33v -0.408947" fill="none" stroke="black"/>
<path d="M350.299,353.94v 1.69545" fill="none" stroke="black"/>
<path d="M350.299,345.921z" fill="none" stroke="black"/>
<path d="M350.299,355.635z" fill="none" stroke="black"/>
<path d="M363.318,352.163v -1.0539" fill="none" stroke="black"/>
<path d="M363.318,359.773v 2.85392" fill="none" stroke="black"/>
<path d="M363.318,351.109z" fill="none" stroke="black"/>
<path d="M363.318,362.627z" fill="none" stroke="black"/>
<path d="M376.338,357.209v -1.6796" fill="none" stroke="black"/>
<path d="M376.338,364.819v 4.09764" fill="none" stroke="black"/>
<path d="M376.338,355.53z" fill="none" stroke="black"/>
<path d="M376.338,368.917z" fill="none" stroke="black"/>
<path d="M389.357,363.81v -2.60107" fill="none" stroke="black"/>
<path d="M389.357,371.42v 6.19296" fill="none" stroke="black"/>
<path d="M389.357,361.209z" fill="none" stroke="black"/>
<path d="M389.357,377.613z" fill="none" stroke="black"/>
<path d="M402.377,364.385v -2.68718" fill="none" stroke="black"/>
<path d="M402.377,371.995v 6.40763" fill="none" stroke="black"/>
<path d="M402.377,361.698z" fill="none" stroke="black"/>
<path d="M402.377,378.402z" fill="none" stroke="black"/>
<path d="M415.397,372.05v -3.92875" fill="none" stroke="black"/>
<path d="M415.397,379.66v 9.96553" fill="none" stroke="black"/>
<path d="M415.397,368.122z" fill="none" stroke="black"/>
<path d="M415.397,389.626z" fill="none" stroke="black"/>
<path d="M428.416,375.269v -4.5042" fill="none" stroke="black"/>
<path d="M428.416,382.879v 11.9899" fill="none" stroke="black"/>
<path d="M428.416,370.765z" fill="none" stroke="black"/>
<path d="M428.416,394.869z" fill="none" stroke="black"/>
<path d="M441.436,376.171v -4.67123" fill="none" stroke="black"/>
<path d="M441.436,383.78v 12.6358" fill="none" stroke="black"/>
<path d="M441.436,371.499z" fill="none" stroke="black"/>
<path d="M441.436,396.416z" fill="none" stroke="black"/>
<path d="M454.455,380.704v -5.55156" fill="none" stroke="black"/>
<path d="M454.455,388.314v 16.6086" fill="none" stroke="black"/>
<path d="M454.455,375.153z" fill="none" stroke="black"/>
<path d="M454.455,404.923z" fill="none" stroke="black"/>
<path d="M467.475,377.712v -4.96297" fill="none" stroke="black"/>
<path d="M467.475,385.322v 13.8379" fill="none" stroke="black"/>
<path d="M467.475,372.749z" fill="none" stroke="black"/>
<path d="M467.475,399.16z" fill="none" stroke="black"/>
<path d="M480.495,379.027v -5.21811" fill="none" stroke="black"/>
<path d="M480.495,386.637v 14.9764" fill="none" stroke="black"/>
<path d="M480.495,373.809z" fill="none" stroke="black"/>
<path d="M480.495,401.614z" fill="none" stroke="black"/>
<path d="M493.514,376.91v -4.81019" fill="none" stroke="black"/>
<path d="M493.514,384.52v 13.1961" fill="none" stroke="black"/>
<path d="M493.514,372.1z" fill="none" stroke="black"/>
<path d="M493.514,397.716z" fill="none" stroke="black"/>
<path d="M506.534,379.826v -5.37575" fill="none" stroke="black"/>
<path d="M506.534,387.436v 15.7261" fill="none" stroke="black"/>
<path d="M506.534,374.45z" fill="none" stroke="black"/>
<path d="M506.534,403.162z" fill="none" stroke="black"/>
<path d="M519.553,373.098v -4.11251" fill="none" stroke="black"/>
<path d="M519.553,380.708v 10.5809" fill="none" stroke="black"/>
<path d="M519.553,368.986z" fill="none" stroke="black"/>
<path d="M519.553,391.289z" fill="none" stroke="black"/>
<path d="M532.573,375.075v -4.46859" fill="none" stroke="black"/>
<path d="M532.573,382.685v 11.8559" fill="none" stroke="black"/>
<path d="M532.573,370.607z" fill="none" stroke="black"/>
<path d="M532.573,394.541z" fill="none" stroke="black"/>
<g fill="black">
<circle cx="102.926" cy="48.7819" r="3.80489"/>
<circle cx="115.946" cy="104.296" r="3.80489"/>
<circle cx="128.965" cy="133.335" r="3.80489"/>
<circle cx="141.985" cy="163.005" r="3.80489"/>
<circle cx="155.005" cy="183.606" r="3.80489"/>
<circle cx="168.024" cy="204.279" r="3.80489"/>
<circle cx="181.044" cy="218.665" r="3.80489"/>
<circle cx="194.063" cy="233.45" r="3.80489"/>
<circle cx="207.083" cy="248.154" r="3.80489"/>
<circle cx="220.103" cy="261.277" r="3.80489"/>
<circle cx="233.122" cy="271.884" r="3.80489"/>
<circle cx="246.142" cy="279.213" r="3.80489"/>
<circle cx="259.161" cy="288.386" r="3.80489"/>
<circle cx="272.181" cy="298.444" r="3.80489"/>
<circle cx="285.201" cy="309.505" r="3.80489"/>
<circle cx="298.22" cy="318.308" r="3.80489"/>
<circle cx="311.24" cy="323.113" r="3.80489"/>
<circle cx="324.259" cy="329.613" r="3.80489"/>
<circle cx="337.279" cy="337.74" r="3.80489"/>
<circle cx="350.299" cy="350.135" r="3.80489"/>
<circle cx="363.318" cy="355.968" r="3.80489"/>
<circle cx="376.338" cy="361.014" r="3.80489"/>
<circle cx="389.357" cy="367.615" r="3.80489"/>
<circle cx="402.377" cy="368.19" r="3.80489"/>
<circle cx="415.397" cy="375.855" r="3.80489"/>
<circle cx="428.416" cy="379.074" r="3.80489"/>
<circle cx="441.436" cy="379.976" r="3.80489"/>
<circle cx="454.455" cy="384.509" r="3.80489"/>
<circle cx="467.475" cy="381.517" r="3.80489"/>
<circle cx="480.495" cy="382.832" r="3.80489"/>
<circle cx="493.514" cy="380.715" r="3.80489"/>
<circle cx="506.534" cy="383.631" r="3.80489"/>
<circle cx="519.553" cy="376.903" r="3.80489"/>
<circle cx="532.573" cy="378.88" r="3.80489"/>
</g>
<text xml:space="preserve" x="196.452" y="81.8052" fill="black" font-size="25.4587" font-family="Helvetica">= 14 TeV
</text>
<text xml:space="preserve" x="184.086" y="81.8052" fill="black" font-size="25.4587" font-family="Helvetica">s
</text>
<path d="M175.525,67.5369l 2.85367, 15.2196" fill="none" stroke="black" stroke-width="2"/>
<path d="M178.379,82.7564l 2.85367, -22.8294" fill="none" stroke="black"/>
<path d="M181.232,59.9271h 15.2196" fill="none" stroke="black"/>
<text xml:space="preserve" x="361.965" y="81.8052" fill="black" font-size="25.4587" font-family="Helvetica">|&lt;0.5
</text>
<text xml:space="preserve" x="342.94" y="94.1711" fill="black" font-size="17.1391" font-family="Helvetica">jet
</text>
<text xml:space="preserve" x="328.672" y="81.8052" fill="black" font-size="25.4587" font-family="Times">&#0951;
</text>
<text xml:space="preserve" x="323.916" y="81.8052" fill="black" font-size="25.4587" font-family="Helvetica">|
</text>
<rect x="255.618" y="108.82" width="198.425" height="81.615" fill="white"/>
<text xml:space="preserve" x="304.891" y="138.879" fill="black" font-size="24.4964" font-family="Helvetica">Data 2009
</text>
<path d="M280.421,125.419v -8.43735" fill="none" stroke="black"/>
<path d="M280.421,133.029v 8.43735" fill="none" stroke="black"/>
<path d="M280.421,116.981z" fill="none" stroke="black"/>
<path d="M280.421,141.466z" fill="none" stroke="black"/>
<g fill="black">
<circle cx="280.421" cy="129.224" r="3.80489"/>
</g>
<text xml:space="preserve" x="304.891" y="178.83" fill="black" font-size="24.4964" font-family="Helvetica">NLO QCD
</text>
<path d="M263.059,184.314h 34.7244v -28.5652h -34.7244z" fill="#ffff00"/>
<path d="M263.059,170.031h 34.7244" fill="none" stroke="black" stroke-width="3"/></svg>
