<?xml version="1.0" standalone="no"?>
<svg width="567.429" height="544.6" viewBox="0 0 567.429 544.6" xmlns="http://www.w3.org/2000/svg" shape-rendering="crispEdges">
<title>
./old_svg_ref/BreitWigner.svg
</title>
<desc>
Creator: ROOT Version 6.33.01
CreationDate: Wed Jul 10 10:04:43 2024</desc>
<defs>
</defs>
<rect x="0.5" y="0" width="566.929" height="544.1" fill="white"/>
<rect x="91.2087" y="10.882" width="464.882" height="446.162" fill="white"/>
<rect x="91.2087" y="10.882" width="464.882" height="446.162" fill="none" stroke="black"/>
<path d="M91.2087,457.044h 464.882" fill="none" stroke="black"/>
<path d="M91.2087,443.659v 13.3849" fill="none" stroke="black"/>
<path d="M109.071,450.351v 6.69243" fill="none" stroke="black"/>
<path d="M126.933,450.351v 6.69243" fill="none" stroke="black"/>
<path d="M144.795,450.351v 6.69243" fill="none" stroke="black"/>
<path d="M162.658,443.659v 13.3849" fill="none" stroke="black"/>
<path d="M180.52,450.351v 6.69243" fill="none" stroke="black"/>
<path d="M198.382,450.351v 6.69243" fill="none" stroke="black"/>
<path d="M216.244,450.351v 6.69243" fill="none" stroke="black"/>
<path d="M234.106,443.659v 13.3849" fill="none" stroke="black"/>
<path d="M251.969,450.351v 6.69243" fill="none" stroke="black"/>
<path d="M269.831,450.351v 6.69243" fill="none" stroke="black"/>
<path d="M287.693,450.351v 6.69243" fill="none" stroke="black"/>
<path d="M305.555,443.659v 13.3849" fill="none" stroke="black"/>
<path d="M323.417,450.351v 6.69243" fill="none" stroke="black"/>
<path d="M341.28,450.351v 6.69243" fill="none" stroke="black"/>
<path d="M359.142,450.351v 6.69243" fill="none" stroke="black"/>
<path d="M377.004,443.659v 13.3849" fill="none" stroke="black"/>
<path d="M394.866,450.351v 6.69243" fill="none" stroke="black"/>
<path d="M412.728,450.351v 6.69243" fill="none" stroke="black"/>
<path d="M430.591,450.351v 6.69243" fill="none" stroke="black"/>
<path d="M448.453,443.659v 13.3849" fill="none" stroke="black"/>
<path d="M466.315,450.351v 6.69243" fill="none" stroke="black"/>
<path d="M484.177,450.351v 6.69243" fill="none" stroke="black"/>
<path d="M502.039,450.351v 6.69243" fill="none" stroke="black"/>
<path d="M519.902,443.659v 13.3849" fill="none" stroke="black"/>
<path d="M519.902,443.659v 13.3849" fill="none" stroke="black"/>
<path d="M537.764,450.351v 6.69243" fill="none" stroke="black"/>
<path d="M555.626,450.351v 6.69243" fill="none" stroke="black"/>
<text xml:space="preserve" x="85.1589" y="477.514" fill="black" font-size="20.467" font-family="Helvetica">0
</text>
<text xml:space="preserve" x="140.33" y="477.514" fill="black" font-size="20.467" font-family="Helvetica">2000
</text>
<text xml:space="preserve" x="212.623" y="477.514" fill="black" font-size="20.467" font-family="Helvetica">4000
</text>
<text xml:space="preserve" x="283.965" y="477.514" fill="black" font-size="20.467" font-family="Helvetica">6000
</text>
<text xml:space="preserve" x="355.306" y="477.514" fill="black" font-size="20.467" font-family="Helvetica">8000
</text>
<text xml:space="preserve" x="420.941" y="477.514" fill="black" font-size="20.467" font-family="Helvetica">10000
</text>
<text xml:space="preserve" x="492.283" y="477.514" fill="black" font-size="20.467" font-family="Helvetica">12000
</text>
<text xml:space="preserve" x="486.575" y="497.49" fill="black" font-size="20.467" font-family="Helvetica">E [GeV]
</text>
<path d="M91.2087,10.882h 464.882" fill="none" stroke="black"/>
<path d="M91.2087,24.2668v -13.3849" fill="none" stroke="black"/>
<path d="M109.071,17.5744v -6.69243" fill="none" stroke="black"/>
<path d="M126.933,17.5744v -6.69243" fill="none" stroke="black"/>
<path d="M144.795,17.5744v -6.69243" fill="none" stroke="black"/>
<path d="M162.658,24.2668v -13.3849" fill="none" stroke="black"/>
<path d="M180.52,17.5744v -6.69243" fill="none" stroke="black"/>
<path d="M198.382,17.5744v -6.69243" fill="none" stroke="black"/>
<path d="M216.244,17.5744v -6.69243" fill="none" stroke="black"/>
<path d="M234.106,24.2668v -13.3849" fill="none" stroke="black"/>
<path d="M251.969,17.5744v -6.69243" fill="none" stroke="black"/>
<path d="M269.831,17.5744v -6.69243" fill="none" stroke="black"/>
<path d="M287.693,17.5744v -6.69243" fill="none" stroke="black"/>
<path d="M305.555,24.2668v -13.3849" fill="none" stroke="black"/>
<path d="M323.417,17.5744v -6.69243" fill="none" stroke="black"/>
<path d="M341.28,17.5744v -6.69243" fill="none" stroke="black"/>
<path d="M359.142,17.5744v -6.69243" fill="none" stroke="black"/>
<path d="M377.004,24.2668v -13.3849" fill="none" stroke="black"/>
<path d="M394.866,17.5744v -6.69243" fill="none" stroke="black"/>
<path d="M412.728,17.5744v -6.69243" fill="none" stroke="black"/>
<path d="M430.591,17.5744v -6.69243" fill="none" stroke="black"/>
<path d="M448.453,24.2668v -13.3849" fill="none" stroke="black"/>
<path d="M466.315,17.5744v -6.69243" fill="none" stroke="black"/>
<path d="M484.177,17.5744v -6.69243" fill="none" stroke="black"/>
<path d="M502.039,17.5744v -6.69243" fill="none" stroke="black"/>
<path d="M519.902,24.2668v -13.3849" fill="none" stroke="black"/>
<path d="M519.902,24.2668v -13.3849" fill="none" stroke="black"/>
<path d="M537.764,17.5744v -6.69243" fill="none" stroke="black"/>
<path d="M555.626,17.5744v -6.69243" fill="none" stroke="black"/>
<path d="M91.2087,457.044v -446.162" fill="none" stroke="black"/>
<path d="M98.1819,453.701h -6.97323" fill="none" stroke="black"/>
<path d="M98.1819,446.223h -6.97323" fill="none" stroke="black"/>
<path d="M98.1819,439.627h -6.97323" fill="none" stroke="black"/>
<path d="M105.155,433.727h -13.9465" fill="none" stroke="black"/>
<text xml:space="preserve" x="78.5003" y="433.758" fill="black" font-size="13.8113" font-family="Helvetica">6
</text>
<text xml:space="preserve" x="70.8905" y="433.758" fill="black" font-size="13.8113" font-family="Times">&#8722;
</text>
<text xml:space="preserve" x="49.0124" y="443.27" fill="black" font-size="20.467" font-family="Helvetica">10
</text>
<path d="M98.1819,394.91h -6.97323" fill="none" stroke="black"/>
<path d="M98.1819,372.204h -6.97323" fill="none" stroke="black"/>
<path d="M98.1819,356.093h -6.97323" fill="none" stroke="black"/>
<path d="M98.1819,343.597h -6.97323" fill="none" stroke="black"/>
<path d="M98.1819,333.387h -6.97323" fill="none" stroke="black"/>
<path d="M98.1819,324.754h -6.97323" fill="none" stroke="black"/>
<path d="M98.1819,317.276h -6.97323" fill="none" stroke="black"/>
<path d="M98.1819,310.68h -6.97323" fill="none" stroke="black"/>
<path d="M105.155,304.78h -13.9465" fill="none" stroke="black"/>
<text xml:space="preserve" x="78.5003" y="304.391" fill="black" font-size="13.8113" font-family="Helvetica">5
</text>
<text xml:space="preserve" x="70.8905" y="304.391" fill="black" font-size="13.8113" font-family="Times">&#8722;
</text>
<text xml:space="preserve" x="49.0124" y="313.904" fill="black" font-size="20.467" font-family="Helvetica">10
</text>
<path d="M98.1819,265.963h -6.97323" fill="none" stroke="black"/>
<path d="M98.1819,243.257h -6.97323" fill="none" stroke="black"/>
<path d="M98.1819,227.147h -6.97323" fill="none" stroke="black"/>
<path d="M98.1819,214.651h -6.97323" fill="none" stroke="black"/>
<path d="M98.1819,204.44h -6.97323" fill="none" stroke="black"/>
<path d="M98.1819,195.808h -6.97323" fill="none" stroke="black"/>
<path d="M98.1819,188.33h -6.97323" fill="none" stroke="black"/>
<path d="M98.1819,181.734h -6.97323" fill="none" stroke="black"/>
<path d="M105.155,175.834h -13.9465" fill="none" stroke="black"/>
<text xml:space="preserve" x="78.5003" y="176.928" fill="black" font-size="13.8113" font-family="Helvetica">4
</text>
<text xml:space="preserve" x="70.8905" y="176.928" fill="black" font-size="13.8113" font-family="Times">&#8722;
</text>
<text xml:space="preserve" x="49.0124" y="185.489" fill="black" font-size="20.467" font-family="Helvetica">10
</text>
<path d="M98.1819,137.017h -6.97323" fill="none" stroke="black"/>
<path d="M98.1819,114.311h -6.97323" fill="none" stroke="black"/>
<path d="M98.1819,98.2002h -6.97323" fill="none" stroke="black"/>
<path d="M98.1819,85.704h -6.97323" fill="none" stroke="black"/>
<path d="M98.1819,75.4939h -6.97323" fill="none" stroke="black"/>
<path d="M98.1819,66.8614h -6.97323" fill="none" stroke="black"/>
<path d="M98.1819,59.3835h -6.97323" fill="none" stroke="black"/>
<path d="M98.1819,52.7876h -6.97323" fill="none" stroke="black"/>
<path d="M105.155,46.8873h -13.9465" fill="none" stroke="black"/>
<text xml:space="preserve" x="78.5003" y="46.6099" fill="black" font-size="13.8113" font-family="Helvetica">3
</text>
<text xml:space="preserve" x="70.8905" y="46.6099" fill="black" font-size="13.8113" font-family="Times">&#8722;
</text>
<text xml:space="preserve" x="49.0124" y="56.1222" fill="black" font-size="20.467" font-family="Helvetica">10
</text>
<g transform="rotate(-90,51.8661,71.3418)">
<text xml:space="preserve" x="51.8661" y="71.3418" fill="black" font-size="20.467" font-family="Helvetica">Events
</text>
</g>
<path d="M556.091,457.044v -446.162" fill="none" stroke="black"/>
<path d="M549.117,453.701h 6.97323" fill="none" stroke="black"/>
<path d="M549.117,446.223h 6.97323" fill="none" stroke="black"/>
<path d="M549.117,439.627h 6.97323" fill="none" stroke="black"/>
<path d="M542.144,433.727h 13.9465" fill="none" stroke="black"/>
<path d="M549.117,394.91h 6.97323" fill="none" stroke="black"/>
<path d="M549.117,372.204h 6.97323" fill="none" stroke="black"/>
<path d="M549.117,356.093h 6.97323" fill="none" stroke="black"/>
<path d="M549.117,343.597h 6.97323" fill="none" stroke="black"/>
<path d="M549.117,333.387h 6.97323" fill="none" stroke="black"/>
<path d="M549.117,324.754h 6.97323" fill="none" stroke="black"/>
<path d="M549.117,317.276h 6.97323" fill="none" stroke="black"/>
<path d="M549.117,310.68h 6.97323" fill="none" stroke="black"/>
<path d="M542.144,304.78h 13.9465" fill="none" stroke="black"/>
<path d="M549.117,265.963h 6.97323" fill="none" stroke="black"/>
<path d="M549.117,243.257h 6.97323" fill="none" stroke="black"/>
<path d="M549.117,227.147h 6.97323" fill="none" stroke="black"/>
<path d="M549.117,214.651h 6.97323" fill="none" stroke="black"/>
<path d="M549.117,204.44h 6.97323" fill="none" stroke="black"/>
<path d="M549.117,195.808h 6.97323" fill="none" stroke="black"/>
<path d="M549.117,188.33h 6.97323" fill="none" stroke="black"/>
<path d="M549.117,181.734h 6.97323" fill="none" stroke="black"/>
<path d="M542.144,175.834h 13.9465" fill="none" stroke="black"/>
<path d="M549.117,137.017h 6.97323" fill="none" stroke="black"/>
<path d="M549.117,114.311h 6.97323" fill="none" stroke="black"/>
<path d="M549.117,98.2002h 6.97323" fill="none" stroke="black"/>
<path d="M549.117,85.704h 6.97323" fill="none" stroke="black"/>
<path d="M549.117,75.4939h 6.97323" fill="none" stroke="black"/>
<path d="M549.117,66.8614h 6.97323" fill="none" stroke="black"/>
<path d="M549.117,59.3835h 6.97323" fill="none" stroke="black"/>
<path d="M549.117,52.7876h 6.97323" fill="none" stroke="black"/>
<path d="M542.144,46.8873h 13.9465" fill="none" stroke="black"/>
<path d="M91.2087,379.41l 0.464417, -0.16099l 0.464417, -0.16122l 0.464417, -0.161452l 0.464417, -0.161683l 0.464417, -0.161916l 0.464417, -0.162149l 0.464417, -0.162383l 0.464417, -0.162617l 0.464417, -0.162852l 0.464417, -0.163088l 0.464417,
 -0.163324l 0.464417, -0.163561l 0.464417, -0.163799l 0.464417, -0.164038l 0.464417, -0.164277l 0.464417, -0.164517l 0.464417, -0.164757l 0.464417, -0.164999l 0.464417, -0.165241l 0.464417, -0.165483l 0.464417, -0.165727l 0.464417, -0.165971l
 0.464417, -0.166216l 0.464417, -0.166461l 0.464417, -0.166707l 0.464417, -0.166954l 0.464417, -0.167202l 0.464417, -0.167451l 0.464417, -0.1677l 0.464417, -0.16795l 0.464417, -0.1682l 0.464417, -0.168452l 0.464417, -0.168704l 0.464417, -0.168957l
 0.464417, -0.169211l 0.464417, -0.169465l 0.464417, -0.16972l 0.464417, -0.169976l 0.464417, -0.170233l 0.464417, -0.17049l 0.464417, -0.170749l 0.464417, -0.171008l 0.464417, -0.171268l 0.464417, -0.171528l 0.464417, -0.17179l 0.464417, -0.172052l
 0.464417, -0.172315l 0.464417, -0.172579l 0.464417, -0.172843l 0.464417, -0.173109l 0.464417, -0.173375l 0.464417, -0.173642l 0.464417, -0.17391l 0.464417, -0.174178l 0.464417, -0.174448l 0.464417, -0.174718l 0.464417, -0.174989l 0.464417,
 -0.175261l 0.464417, -0.175534l 0.464417, -0.175808l 0.464417, -0.176082l 0.464417, -0.176358l 0.464417, -0.176634l 0.464417, -0.176911l 0.464417, -0.177189l 0.464417, -0.177468l 0.464417, -0.177748l 0.464417, -0.178028l 0.464417, -0.17831l
 0.464417, -0.178592l 0.464417, -0.178875l 0.464417, -0.179159l 0.464417, -0.179444l 0.464417, -0.17973l 0.464417, -0.180017l 0.464417, -0.180305l 0.464417, -0.180594l 0.464417, -0.180883l 0.464417, -0.181174l 0.464417, -0.181465l 0.464417,
 -0.181757l 0.464417, -0.182051l 0.464417, -0.182345l 0.464417, -0.18264l 0.464417, -0.182936l 0.464417, -0.183233l 0.464417, -0.183531l 0.464417, -0.18383l 0.464417, -0.18413l 0.464417, -0.184431l 0.464417, -0.184733l 0.464417, -0.185036l 0.464417,
 -0.18534l 0.464417, -0.185645l 0.464417, -0.185951l 0.464417, -0.186258l 0.464417, -0.186566l 0.464417, -0.186875l 0.464417, -0.187185l 0.464417, -0.187496l 0.464417, -0.187808l 0.464417, -0.188121l 0.464417, -0.188435l 0.464417, -0.18875l 0.464417,
 -0.189066l 0.464417, -0.189383l 0.464417, -0.189701l 0.464417, -0.190021l 0.464417, -0.190341l 0.464417, -0.190662l 0.464417, -0.190985l 0.464417, -0.191309l 0.464417, -0.191633l 0.464417, -0.191959l 0.464417, -0.192286l 0.464417, -0.192614l
 0.464417, -0.192943l 0.464417, -0.193273l 0.464417, -0.193605l 0.464417, -0.193937l 0.464417, -0.194271l 0.464417, -0.194606l 0.464417, -0.194942l 0.464417, -0.195279l 0.464417, -0.195617l 0.464417, -0.195956l 0.464417, -0.196297l 0.464417,
 -0.196638l 0.464417, -0.196981l 0.464417, -0.197325l 0.464417, -0.197671l 0.464417, -0.198017l 0.464417, -0.198365l 0.464417, -0.198714l 0.464417, -0.199064l 0.464417, -0.199415l 0.464417, -0.199768l 0.464417, -0.200122l 0.464417, -0.200477l
 0.464417, -0.200833l 0.464417, -0.201191l 0.464417, -0.20155l 0.464417, -0.20191l 0.464417, -0.202271l 0.464417, -0.202634l 0.464417, -0.202998l 0.464417, -0.203363l 0.464417, -0.203729l 0.464417, -0.204097l 0.464417, -0.204467l 0.464417, -0.204837l
 0.464417, -0.205209l 0.464417, -0.205582l 0.464417, -0.205957l 0.464417, -0.206332l 0.464417, -0.20671l 0.464417, -0.207088l 0.464417, -0.207468l 0.464417, -0.20785l 0.464417, -0.208233l 0.464417, -0.208617l 0.464417, -0.209002l 0.464417, -0.209389l
 0.464417, -0.209778l 0.464417, -0.210167l 0.464417, -0.210559l 0.464417, -0.210951l 0.464417, -0.211346l 0.464417, -0.211741l 0.464417, -0.212138l 0.464417, -0.212537l 0.464417, -0.212937l 0.464417, -0.213339l 0.464417, -0.213742l 0.464417,
 -0.214146l 0.464417, -0.214552l 0.464417, -0.21496l 0.464417, -0.215369l 0.464417, -0.21578l 0.464417, -0.216192l 0.464417, -0.216606l 0.464417, -0.217021l 0.464417, -0.217438l 0.464417, -0.217857l 0.464417, -0.218277l 0.464417, -0.218699l 0.464417,
 -0.219122l 0.464417, -0.219547l 0.464417, -0.219974l 0.464417, -0.220402l 0.464417, -0.220832l 0.464417, -0.221263l 0.464417, -0.221697l 0.464417, -0.222132l 0.464417, -0.222568l 0.464417, -0.223007l 0.464417, -0.223447l 0.464417, -0.223888l
 0.464417, -0.224332l 0.464417, -0.224777l 0.464417, -0.225224l 0.464417, -0.225673l 0.464417, -0.226123l 0.464417, -0.226576l 0.464417, -0.22703l 0.464417, -0.227486l 0.464417, -0.227943l 0.464417, -0.228403l 0.464417, -0.228864l 0.464417,
 -0.229327l 0.464417, -0.229792l 0.464417, -0.230259l 0.464417, -0.230728l 0.464417, -0.231199l 0.464417, -0.231671l 0.464417, -0.232146l 0.464417, -0.232622l 0.464417, -0.233101l 0.464417, -0.233581l 0.464417, -0.234063l 0.464417, -0.234547l
 0.464417, -0.235034l 0.464417, -0.235522l 0.464417, -0.236012l 0.464417, -0.236504l 0.464417, -0.236999l 0.464417, -0.237495l 0.464417, -0.237993l 0.464417, -0.238494l 0.464417, -0.238996l 0.464417, -0.239501l 0.464417, -0.240008l 0.464417,
 -0.240516l 0.464417, -0.241027l 0.464417, -0.241541l 0.464417, -0.242056l 0.464417, -0.242573l 0.464417, -0.243093l 0.464417, -0.243615l 0.464417, -0.244139l 0.464417, -0.244665l 0.464417, -0.245194l 0.464417, -0.245724l 0.464417, -0.246258l
 0.464417, -0.246793l 0.464417, -0.247331l 0.464417, -0.24787l 0.464417, -0.248413l 0.464417, -0.248957l 0.464417, -0.249504l 0.464417, -0.250054l 0.464417, -0.250605l 0.464417, -0.25116l 0.464417, -0.251716l 0.464417, -0.252275l 0.464417, -0.252837l
 0.464417, -0.253401l 0.464417, -0.253967l 0.464417, -0.254536l 0.464417, -0.255107l 0.464417, -0.255681l 0.464417, -0.256258l 0.464417, -0.256837l 0.464417, -0.257419l 0.464417, -0.258003l 0.464417, -0.25859l 0.464417, -0.259179l 0.464417,
 -0.259771l 0.464417, -0.260366l 0.464417, -0.260964l 0.464417, -0.261564l 0.464417, -0.262167l 0.464417, -0.262773l 0.464417, -0.263381l 0.464417, -0.263992l 0.464417, -0.264607l 0.464417, -0.265223l 0.464417, -0.265843l 0.464417, -0.266466l
 0.464417, -0.267091l 0.464417, -0.267719l 0.464417, -0.268351l 0.464417, -0.268985l 0.464417, -0.269622l 0.464417, -0.270262l 0.464417, -0.270905l 0.464417, -0.271551l 0.464417, -0.2722l 0.464417, -0.272852l 0.464417, -0.273508l 0.464417, -0.274166l
 0.464417, -0.274827l 0.464417, -0.275492l 0.464417, -0.27616l 0.464417, -0.276831l 0.464417, -0.277505l 0.464417, -0.278182l 0.464417, -0.278863l 0.464417, -0.279547l 0.464417, -0.280234l 0.464417, -0.280925l 0.464417, -0.281619l 0.464417,
 -0.282316l 0.464417, -0.283017l 0.464417, -0.283721l 0.464417, -0.284428l 0.464417, -0.28514l 0.464417, -0.285854l 0.464417, -0.286572l 0.464417, -0.287294l 0.464417, -0.288019l 0.464417, -0.288748l 0.464417, -0.28948l 0.464417, -0.290216l 0.464417,
 -0.290956l 0.464417, -0.291699l 0.464417, -0.292446l 0.464417, -0.293197l 0.464417, -0.293952l 0.464417, -0.29471l 0.464417, -0.295473l 0.464417, -0.296239l 0.464417, -0.297009l 0.464417, -0.297783l 0.464417, -0.298561l 0.464417, -0.299343l
 0.464417, -0.300129l 0.464417, -0.300919l 0.464417, -0.301714l 0.464417, -0.302512l 0.464417, -0.303314l 0.464417, -0.304121l 0.464417, -0.304932l 0.464417, -0.305747l 0.464417, -0.306566l 0.464417, -0.30739l 0.464417, -0.308218l 0.464417, -0.30905l
 0.464417, -0.309887l 0.464417, -0.310728l 0.464417, -0.311573l 0.464417, -0.312423l 0.464417, -0.313278l 0.464417, -0.314137l 0.464417, -0.315001l 0.464417, -0.31587l 0.464417, -0.316743l 0.464417, -0.317621l 0.464417, -0.318504l 0.464417,
 -0.319391l 0.464417, -0.320283l 0.464417, -0.321181l 0.464417, -0.322083l 0.464417, -0.32299l 0.464417, -0.323902l 0.464417, -0.324819l 0.464417, -0.325741l 0.464417, -0.326668l 0.464417, -0.327601l 0.464417, -0.328539l 0.464417, -0.329481l
 0.464417, -0.33043l 0.464417, -0.331383l 0.464417, -0.332342l 0.464417, -0.333306l 0.464417, -0.334276l 0.464417, -0.335251l 0.464417, -0.336232l 0.464417, -0.337218l 0.464417, -0.33821l 0.464417, -0.339208l 0.464417, -0.340212l 0.464417, -0.341221l
 0.464417, -0.342236l 0.464417, -0.343257l 0.464417, -0.344284l 0.464417, -0.345317l 0.464417, -0.346356l 0.464417, -0.347401l 0.464417, -0.348452l 0.464417, -0.349509l 0.464417, -0.350573l 0.464417, -0.351642l 0.464417, -0.352719l 0.464417,
 -0.353801l 0.464417, -0.35489l 0.464417, -0.355986l 0.464417, -0.357088l 0.464417, -0.358197l 0.464417, -0.359312l 0.464417, -0.360434l 0.464417, -0.361563l 0.464417, -0.362699l 0.464417, -0.363842l 0.464417, -0.364992l 0.464417, -0.366149l
 0.464417, -0.367313l 0.464417, -0.368484l 0.464417, -0.369662l 0.464417, -0.370848l 0.464417, -0.372041l 0.464417, -0.373241l 0.464417, -0.374449l 0.464417, -0.375664l 0.464417, -0.376888l 0.464417, -0.378118l 0.464417, -0.379357l 0.464417,
 -0.380603l 0.464417, -0.381858l 0.464417, -0.38312l 0.464417, -0.384391l 0.464417, -0.385669l 0.464417, -0.386956l 0.464417, -0.388251l 0.464417, -0.389554l 0.464417, -0.390866l 0.464417, -0.392186l 0.464417, -0.393515l 0.464417, -0.394853l
 0.464417, -0.396199l 0.464417, -0.397554l 0.464417, -0.398919l 0.464417, -0.400292l 0.464417, -0.401674l 0.464417, -0.403065l 0.464417, -0.404466l 0.464417, -0.405876l 0.464417, -0.407295l 0.464417, -0.408724l 0.464417, -0.410163l 0.464417,
 -0.411611l 0.464417, -0.413069l 0.464417, -0.414537l 0.464417, -0.416015l 0.464417, -0.417503l 0.464417, -0.419002l 0.464417, -0.42051l 0.464417, -0.422029l 0.464417, -0.423559l 0.464417, -0.425099l 0.464417, -0.42665l 0.464417, -0.428211l 0.464417,
 -0.429784l 0.464417, -0.431367l 0.464417, -0.432962l 0.464417, -0.434568l 0.464417, -0.436185l 0.464417, -0.437813l 0.464417, -0.439454l 0.464417, -0.441106l 0.464417, -0.442769l 0.464417, -0.444445l 0.464417, -0.446133l 0.464417, -0.447833l
 0.464417, -0.449545l 0.464417, -0.451269l 0.464417, -0.453006l 0.464417, -0.454756l 0.464417, -0.456519l 0.464417, -0.458294l 0.464417, -0.460083l 0.464417, -0.461884l 0.464417, -0.4637l 0.464417, -0.465528l 0.464417, -0.46737l 0.464417, -0.469226l
 0.464417, -0.471096l 0.464417, -0.47298l 0.464417, -0.474877l 0.464417, -0.47679l 0.464417, -0.478716l 0.464417, -0.480658l 0.464417, -0.482614l 0.464417, -0.484585l 0.464417, -0.486571l 0.464417, -0.488572l 0.464417, -0.490589l 0.464417, -0.492621l
 0.464417, -0.494669l 0.464417, -0.496733l 0.464417, -0.498813l 0.464417, -0.500909l 0.464417, -0.503022l 0.464417, -0.505151l 0.464417, -0.507297l 0.464417, -0.50946l 0.464417, -0.51164l 0.464417, -0.513837l 0.464417, -0.516051l 0.464417, -0.518284l
 0.464417, -0.520534l 0.464417, -0.522802l 0.464417, -0.525088l 0.464417, -0.527393l 0.464417, -0.529716l 0.464417, -0.532058l 0.464417, -0.534419l 0.464417, -0.5368l 0.464417, -0.5392l 0.464417, -0.541619l 0.464417, -0.544058l 0.464417, -0.546517l
 0.464417, -0.548997l 0.464417, -0.551497l 0.464417, -0.554017l 0.464417, -0.556559l 0.464417, -0.559121l 0.464417, -0.561705l 0.464417, -0.564311l 0.464417, -0.566938l 0.464417, -0.569587l 0.464417, -0.572259l 0.464417, -0.574953l 0.464417,
 -0.57767l 0.464417, -0.580409l 0.464417, -0.583172l 0.464417, -0.585959l 0.464417, -0.588769l 0.464417, -0.591603l 0.464417, -0.594461l 0.464417, -0.597343l 0.464417, -0.600251l 0.464417, -0.603183l 0.464417, -0.60614l 0.464417, -0.609123l 0.464417,
 -0.612131l 0.464417, -0.615166l 0.464417, -0.618226l 0.464417, -0.621313l 0.464417, -0.624427l 0.464417, -0.627568l 0.464417, -0.630736l 0.464417, -0.633931l 0.464417, -0.637154l 0.464417, -0.640406l 0.464417, -0.643685l 0.464417, -0.646993l
 0.464417, -0.65033l 0.464417, -0.653696l 0.464417, -0.657091l 0.464417, -0.660516l 0.464417, -0.66397l 0.464417, -0.667455l 0.464417, -0.67097l 0.464417, -0.674516l 0.464417, -0.678092l 0.464417, -0.681699l 0.464417, -0.685338l 0.464417, -0.689008l
 0.464417, -0.69271l 0.464417, -0.696444l 0.464417, -0.70021l 0.464417, -0.704009l 0.464417, -0.70784l 0.464417, -0.711704l 0.464417, -0.715601l 0.464417, -0.719531l 0.464417, -0.723495l 0.464417, -0.727491l 0.464417, -0.731522l 0.464417, -0.735587l
 0.464417, -0.739685l 0.464417, -0.743817l 0.464417, -0.747984l 0.464417, -0.752184l 0.464417, -0.756419l 0.464417, -0.760689l 0.464417, -0.764992l 0.464417, -0.76933l 0.464417, -0.773702l 0.464417, -0.778109l 0.464417, -0.782549l 0.464417,
 -0.787024l 0.464417, -0.791532l 0.464417, -0.796074l 0.464417, -0.80065l 0.464417, -0.805259l 0.464417, -0.809902l 0.464417, -0.814577l 0.464417, -0.819284l 0.464417, -0.824023l 0.464417, -0.828794l 0.464417, -0.833595l 0.464417, -0.838427l
 0.464417, -0.843289l 0.464417, -0.84818l 0.464417, -0.853099l 0.464417, -0.858046l 0.464417, -0.863019l 0.464417, -0.868018l 0.464417, -0.873041l 0.464417, -0.878088l 0.464417, -0.883156l 0.464417, -0.888245l 0.464417, -0.893354l 0.464417, -0.89848l
 0.464417, -0.903621l 0.464417, -0.908777l 0.464417, -0.913945l 0.464417, -0.919122l 0.464417, -0.924307l 0.464417, -0.929497l 0.464417, -0.93469l 0.464417, -0.939882l 0.464417, -0.945071l 0.464417, -0.950253l 0.464417, -0.955425l 0.464417,
 -0.960583l 0.464417, -0.965724l 0.464417, -0.970843l 0.464417, -0.975935l 0.464417, -0.980997l 0.464417, -0.986023l 0.464417, -0.991007l 0.464417, -0.995945l 0.464417, -1.00083l 0.464417, -1.00565l 0.464417, -1.01041l 0.464417, -1.0151l 0.464417,
 -1.0197l 0.464417, -1.02422l 0.464417, -1.02864l 0.464417, -1.03295l 0.464417, -1.03715l 0.464417, -1.04122l 0.464417, -1.04515l 0.464417, -1.04894l 0.464417, -1.05256l 0.464417, -1.05602l 0.464417, -1.05928l 0.464417, -1.06235l 0.464417, -1.06521l
 0.464417, -1.06783l 0.464417, -1.07022l 0.464417, -1.07234l 0.464417, -1.07418l 0.464417, -1.07572l 0.464417, -1.07694l 0.464417, -1.07783l 0.464417, -1.07836l 0.464417, -1.07851l 0.464417, -1.07826l 0.464417, -1.07758l 0.464417, -1.07645l 0.464417,
 -1.07485l 0.464417, -1.07274l 0.464417, -1.0701l 0.464417, -1.0669l 0.464417, -1.06312l 0.464417, -1.05872l 0.464417, -1.05367l 0.464417, -1.04795l 0.464417, -1.04152l 0.464417, -1.03435l 0.464417, -1.02641l 0.464417, -1.01767l 0.464417, -1.00809l
 0.464417, -0.997642l 0.464417, -0.986298l 0.464417, -0.974024l 0.464417, -0.96079l 0.464417, -0.946568l 0.464417, -0.931328l 0.464417, -0.915045l 0.464417, -0.897694l 0.464417, -0.879252l 0.464417, -0.859698l 0.464417, -0.839016l 0.464417,
 -0.817191l 0.464417, -0.794211l 0.464417, -0.77007l 0.464417, -0.744764l 0.464417, -0.718293l 0.464417, -0.690665l 0.464417, -0.661887l 0.464417, -0.631978l 0.464417, -0.600957l 0.464417, -0.568851l 0.464417, -0.535692l 0.464417, -0.501519l
 0.464417, -0.466374l 0.464417, -0.430308l 0.464417, -0.393376l 0.464417, -0.355637l 0.464417, -0.317159l 0.464417, -0.278011l 0.464417, -0.238269l 0.464417, -0.198013l 0.464417, -0.157324l 0.464417, -0.116291l 0.464417, -0.075l 0.464417, -0.0335431l
 0.464417, 0.00798828l 0.464417, 0.0495019l 0.464417, 0.0909057l 0.464417, 0.132108l 0.464417, 0.173019l 0.464417, 0.213552l 0.464417, 0.25362l 0.464417, 0.293142l 0.464417, 0.332042l 0.464417, 0.370243l 0.464417, 0.407679l 0.464417, 0.444285l
 0.464417, 0.480003l 0.464417, 0.51478l 0.464417, 0.548568l 0.464417, 0.581326l 0.464417, 0.613018l 0.464417, 0.643614l 0.464417, 0.673091l 0.464417, 0.701428l 0.464417, 0.728612l 0.464417, 0.754635l 0.464417, 0.779493l 0.464417, 0.803187l 0.464417,
 0.825721l 0.464417, 0.847105l 0.464417, 0.867351l 0.464417, 0.886475l 0.464417, 0.904495l 0.464417, 0.921433l 0.464417, 0.937312l 0.464417, 0.952157l 0.464417, 0.965996l 0.464417, 0.978857l 0.464417, 0.990769l 0.464417, 1.00176l 0.464417, 1.01187l
 0.464417, 1.02113l 0.464417, 1.02956l 0.464417, 1.0372l 0.464417, 1.04408l 0.464417, 1.05023l 0.464417, 1.05569l 0.464417, 1.06048l 0.464417, 1.06464l 0.464417, 1.0682l 0.464417, 1.07118l 0.464417, 1.07361l 0.464417, 1.07552l 0.464417, 1.07694l
 0.464417, 1.0779l 0.464417, 1.07841l 0.464417, 1.0785l 0.464417, 1.0782l 0.464417, 1.07753l 0.464417, 1.07651l 0.464417, 1.07516l 0.464417, 1.0735l 0.464417, 1.07155l 0.464417, 1.06933l 0.464417, 1.06685l 0.464417, 1.06414l 0.464417, 1.0612l
 0.464417, 1.05805l 0.464417, 1.05471l 0.464417, 1.05119l 0.464417, 1.0475l 0.464417, 1.04365l 0.464417, 1.03967l 0.464417, 1.03555l 0.464417, 1.03131l 0.464417, 1.02695l 0.464417, 1.02249l 0.464417, 1.01794l 0.464417, 1.01331l 0.464417, 1.00859l
 0.464417, 1.00381l 0.464417, 0.998957l 0.464417, 0.994052l 0.464417, 0.989095l 0.464417, 0.984094l 0.464417, 0.979054l 0.464417, 0.97398l 0.464417, 0.968877l 0.464417, 0.963749l 0.464417, 0.958601l 0.464417, 0.953437l 0.464417, 0.948261l 0.464417,
 0.943076l 0.464417, 0.937885l 0.464417, 0.932693l 0.464417, 0.927501l 0.464417, 0.922312l 0.464417, 0.91713l 0.464417, 0.911956l 0.464417, 0.906793l 0.464417, 0.901642l 0.464417, 0.896506l 0.464417, 0.891387l 0.464417, 0.886286l 0.464417, 0.881204l
 0.464417, 0.876144l 0.464417, 0.871106l 0.464417, 0.866092l 0.464417, 0.861103l 0.464417, 0.85614l 0.464417, 0.851204l 0.464417, 0.846296l 0.464417, 0.841416l 0.464417, 0.836565l 0.464417, 0.831745l 0.464417, 0.826955l 0.464417, 0.822196l 0.464417,
 0.81747l 0.464417, 0.812775l 0.464417, 0.808112l 0.464417, 0.803483l 0.464417, 0.798886l 0.464417, 0.794323l 0.464417, 0.789794l 0.464417, 0.785299l 0.464417, 0.780837l 0.464417, 0.77641l 0.464417, 0.772017l 0.464417, 0.767658l 0.464417, 0.763333l
 0.464417, 0.759043l 0.464417, 0.754786l 0.464417, 0.750565l 0.464417, 0.746377l 0.464417, 0.742224l 0.464417, 0.738105l 0.464417, 0.734019l 0.464417, 0.729968l 0.464417, 0.72595l 0.464417, 0.721966l 0.464417, 0.718015l 0.464417, 0.714098l 0.464417,
 0.710214l 0.464417, 0.706363l 0.464417, 0.702544l 0.464417, 0.698758l 0.464417, 0.695004l 0.464417, 0.691283l 0.464417, 0.687593l 0.464417, 0.683935l 0.464417, 0.680308l 0.464417, 0.676713l 0.464417, 0.673148l 0.464417, 0.669614l 0.464417, 0.666111l
 0.464417, 0.662638l 0.464417, 0.659195l 0.464417, 0.655782l 0.464417, 0.652398l 0.464417, 0.649043l 0.464417, 0.645718l 0.464417, 0.64242l 0.464417, 0.639152l 0.464417, 0.635911l 0.464417, 0.632699l 0.464417, 0.629514l 0.464417, 0.626357l 0.464417,
 0.623226l 0.464417, 0.620123l 0.464417, 0.617046l 0.464417, 0.613996l 0.464417, 0.610971l 0.464417, 0.607973l 0.464417, 0.605l 0.464417, 0.602052l 0.464417, 0.599129l 0.464417, 0.596232l 0.464417, 0.593359l 0.464417, 0.59051l 0.464417, 0.587685l
 0.464417, 0.584884l 0.464417, 0.582107l 0.464417, 0.579353l 0.464417, 0.576622l 0.464417, 0.573914l 0.464417, 0.571229l 0.464417, 0.568566l 0.464417, 0.565925l 0.464417, 0.563306l 0.464417, 0.560709l 0.464417, 0.558133l 0.464417, 0.555579l 0.464417,
 0.553045l 0.464417, 0.550533l 0.464417, 0.548041l 0.464417, 0.545569l 0.464417, 0.543118l 0.464417, 0.540686l 0.464417, 0.538274l 0.464417, 0.535882l 0.464417, 0.533509l 0.464417, 0.531155l 0.464417, 0.52882l 0.464417, 0.526504l 0.464417, 0.524207l
 0.464417, 0.521927l 0.464417, 0.519666l 0.464417, 0.517423l 0.464417, 0.515198l 0.464417, 0.51299l 0.464417, 0.510799l 0.464417, 0.508626l 0.464417, 0.50647l 0.464417, 0.50433l 0.464417, 0.502208l 0.464417, 0.500101l 0.464417, 0.498011l 0.464417,
 0.495938l 0.464417, 0.49388l 0.464417, 0.491838l 0.464417, 0.489812l 0.464417, 0.487801l 0.464417, 0.485805l 0.464417, 0.483825l 0.464417, 0.48186l 0.464417, 0.479909l 0.464417, 0.477974l 0.464417, 0.476053l 0.464417, 0.474146l 0.464417, 0.472253l
 0.464417, 0.470375l 0.464417, 0.468511l 0.464417, 0.46666l 0.464417, 0.464823l 0.464417, 0.463l 0.464417, 0.46119l 0.464417, 0.459393l 0.464417, 0.45761l 0.464417, 0.455839l 0.464417, 0.454082l 0.464417, 0.452337l 0.464417, 0.450604l 0.464417,
 0.448885l 0.464417, 0.447177l 0.464417, 0.445482l 0.464417, 0.443799l 0.464417, 0.442128l 0.464417, 0.440469l 0.464417, 0.438821l 0.464417, 0.437186l 0.464417, 0.435561l 0.464417, 0.433949l 0.464417, 0.432347l 0.464417, 0.430757l 0.464417, 0.429178l
 0.464417, 0.427609l 0.464417, 0.426052l 0.464417, 0.424505l 0.464417, 0.422969l 0.464417, 0.421444l 0.464417, 0.419929l 0.464417, 0.418424l 0.464417, 0.41693l 0.464417, 0.415446l 0.464417, 0.413972l 0.464417, 0.412507l 0.464417, 0.411053l 0.464417,
 0.409608l 0.464417, 0.408174l 0.464417, 0.406748l 0.464417, 0.405333l 0.464417, 0.403926l 0.464417, 0.402529l 0.464417, 0.401141l 0.464417, 0.399762l 0.464417, 0.398393l 0.464417, 0.397032l 0.464417, 0.39568l 0.464417, 0.394337l 0.464417, 0.393003l
 0.464417, 0.391677l 0.464417, 0.39036l 0.464417, 0.389052l 0.464417, 0.387752l 0.464417, 0.38646l 0.464417, 0.385176l 0.464417, 0.383901l 0.464417, 0.382634l 0.464417, 0.381374l 0.464417, 0.380123l 0.464417, 0.37888l 0.464417, 0.377644l 0.464417,
 0.376416l 0.464417, 0.375196l 0.464417, 0.373984l 0.464417, 0.372778l 0.464417, 0.371581l 0.464417, 0.370391l 0.464417, 0.369208l 0.464417, 0.368032l 0.464417, 0.366864l 0.464417, 0.365703l 0.464417, 0.364549l 0.464417, 0.363402l 0.464417, 0.362262l
 0.464417, 0.361128l 0.464417, 0.360002l 0.464417, 0.358882l 0.464417, 0.35777l 0.464417, 0.356663l 0.464417, 0.355564" fill="none" stroke="black" stroke-width="2"/>
<path d="M91.2087,302.242l 0.464417, -0.00022854l 0.464417, -0.000685623l 0.464417, -0.00114271l 0.464417, -0.00159982l 0.464417, -0.00205694l 0.464417, -0.00251409l 0.464417, -0.00297127l 0.464417, -0.00342849l 0.464417, -0.00388574l 0.464417,
 -0.00434304l 0.464417, -0.0048004l 0.464417, -0.00525781l 0.464417, -0.00571528l 0.464417, -0.00617283l 0.464417, -0.00663044l 0.464417, -0.00708814l 0.464417, -0.00754592l 0.464417, -0.00800379l 0.464417, -0.00846176l 0.464417, -0.00891983l
 0.464417, -0.00937801l 0.464417, -0.00983629l 0.464417, -0.0102947l 0.464417, -0.0107532l 0.464417, -0.0112119l 0.464417, -0.0116707l 0.464417, -0.0121296l 0.464417, -0.0125887l 0.464417, -0.0130479l 0.464417, -0.0135073l 0.464417, -0.0139669l
 0.464417, -0.0144266l 0.464417, -0.0148865l 0.464417, -0.0153465l 0.464417, -0.0158068l 0.464417, -0.0162672l 0.464417, -0.0167279l 0.464417, -0.0171887l 0.464417, -0.0176498l 0.464417, -0.018111l 0.464417, -0.0185725l 0.464417, -0.0190342l
 0.464417, -0.0194961l 0.464417, -0.0199583l 0.464417, -0.0204207l 0.464417, -0.0208834l 0.464417, -0.0213463l 0.464417, -0.0218094l 0.464417, -0.0222729l 0.464417, -0.0227366l 0.464417, -0.0232006l 0.464417, -0.0236648l 0.464417, -0.0241293l
 0.464417, -0.0245942l 0.464417, -0.0250593l 0.464417, -0.0255248l 0.464417, -0.0259905l 0.464417, -0.0264566l 0.464417, -0.0269229l 0.464417, -0.0273896l 0.464417, -0.0278567l 0.464417, -0.0283241l 0.464417, -0.0287918l 0.464417, -0.0292599l
 0.464417, -0.0297283l 0.464417, -0.0301971l 0.464417, -0.0306663l 0.464417, -0.0311358l 0.464417, -0.0316057l 0.464417, -0.032076l 0.464417, -0.0325467l 0.464417, -0.0330178l 0.464417, -0.0334893l 0.464417, -0.0339612l 0.464417, -0.0344336l
 0.464417, -0.0349063l 0.464417, -0.0353795l 0.464417, -0.0358531l 0.464417, -0.0363272l 0.464417, -0.0368017l 0.464417, -0.0372766l 0.464417, -0.037752l 0.464417, -0.0382279l 0.464417, -0.0387043l 0.464417, -0.0391811l 0.464417, -0.0396584l
 0.464417, -0.0401362l 0.464417, -0.0406145l 0.464417, -0.0410933l 0.464417, -0.0415726l 0.464417, -0.0420525l 0.464417, -0.0425328l 0.464417, -0.0430137l 0.464417, -0.0434951l 0.464417, -0.0439771l 0.464417, -0.0444596l 0.464417, -0.0449426l
 0.464417, -0.0454263l 0.464417, -0.0459104l 0.464417, -0.0463952l 0.464417, -0.0468806l 0.464417, -0.0473665l 0.464417, -0.047853l 0.464417, -0.0483401l 0.464417, -0.0488279l 0.464417, -0.0493162l 0.464417, -0.0498052l 0.464417, -0.0502948l
 0.464417, -0.050785l 0.464417, -0.0512759l 0.464417, -0.0517674l 0.464417, -0.0522595l 0.464417, -0.0527524l 0.464417, -0.0532459l 0.464417, -0.0537401l 0.464417, -0.0542349l 0.464417, -0.0547305l 0.464417, -0.0552267l 0.464417, -0.0557237l
 0.464417, -0.0562213l 0.464417, -0.0567197l 0.464417, -0.0572188l 0.464417, -0.0577186l 0.464417, -0.0582192l 0.464417, -0.0587205l 0.464417, -0.0592226l 0.464417, -0.0597255l 0.464417, -0.0602291l 0.464417, -0.0607334l 0.464417, -0.0612386l
 0.464417, -0.0617446l 0.464417, -0.0622513l 0.464417, -0.0627589l 0.464417, -0.0632673l 0.464417, -0.0637764l 0.464417, -0.0642865l 0.464417, -0.0647973l 0.464417, -0.065309l 0.464417, -0.0658216l 0.464417, -0.066335l 0.464417, -0.0668493l 0.464417,
 -0.0673644l 0.464417, -0.0678805l 0.464417, -0.0683974l 0.464417, -0.0689152l 0.464417, -0.069434l 0.464417, -0.0699536l 0.464417, -0.0704742l 0.464417, -0.0709957l 0.464417, -0.0715182l 0.464417, -0.0720416l 0.464417, -0.0725659l 0.464417,
 -0.0730912l 0.464417, -0.0736175l 0.464417, -0.0741448l 0.464417, -0.074673l 0.464417, -0.0752023l 0.464417, -0.0757326l 0.464417, -0.0762638l 0.464417, -0.0767961l 0.464417, -0.0773295l 0.464417, -0.0778638l 0.464417, -0.0783993l 0.464417,
 -0.0789358l 0.464417, -0.0794733l 0.464417, -0.0800119l 0.464417, -0.0805517l 0.464417, -0.0810925l 0.464417, -0.0816344l 0.464417, -0.0821774l 0.464417, -0.0827215l 0.464417, -0.0832668l 0.464417, -0.0838132l 0.464417, -0.0843608l 0.464417,
 -0.0849095l 0.464417, -0.0854594l 0.464417, -0.0860105l 0.464417, -0.0865627l 0.464417, -0.0871162l 0.464417, -0.0876709l 0.464417, -0.0882267l 0.464417, -0.0887838l 0.464417, -0.0893422l 0.464417, -0.0899018l 0.464417, -0.0904626l 0.464417,
 -0.0910247l 0.464417, -0.0915881l 0.464417, -0.0921528l 0.464417, -0.0927187l 0.464417, -0.093286l 0.464417, -0.0938546l 0.464417, -0.0944245l 0.464417, -0.0949958l 0.464417, -0.0955684l 0.464417, -0.0961423l 0.464417, -0.0967177l 0.464417,
 -0.0972944l 0.464417, -0.0978725l 0.464417, -0.098452l 0.464417, -0.0990329l 0.464417, -0.0996152l 0.464417, -0.100199l 0.464417, -0.100784l 0.464417, -0.101371l 0.464417, -0.101959l 0.464417, -0.102549l 0.464417, -0.10314l 0.464417, -0.103732l
 0.464417, -0.104327l 0.464417, -0.104922l 0.464417, -0.105519l 0.464417, -0.106118l 0.464417, -0.106719l 0.464417, -0.10732l 0.464417, -0.107924l 0.464417, -0.108529l 0.464417, -0.109136l 0.464417, -0.109744l 0.464417, -0.110354l 0.464417,
 -0.110965l 0.464417, -0.111579l 0.464417, -0.112194l 0.464417, -0.11281l 0.464417, -0.113429l 0.464417, -0.114049l 0.464417, -0.11467l 0.464417, -0.115294l 0.464417, -0.115919l 0.464417, -0.116546l 0.464417, -0.117175l 0.464417, -0.117805l 0.464417,
 -0.118438l 0.464417, -0.119072l 0.464417, -0.119708l 0.464417, -0.120346l 0.464417, -0.120986l 0.464417, -0.121627l 0.464417, -0.122271l 0.464417, -0.122916l 0.464417, -0.123563l 0.464417, -0.124213l 0.464417, -0.124864l 0.464417, -0.125517l
 0.464417, -0.126172l 0.464417, -0.126829l 0.464417, -0.127488l 0.464417, -0.12815l 0.464417, -0.128813l 0.464417, -0.129478l 0.464417, -0.130145l 0.464417, -0.130815l 0.464417, -0.131486l 0.464417, -0.13216l 0.464417, -0.132836l 0.464417, -0.133514l
 0.464417, -0.134194l 0.464417, -0.134876l 0.464417, -0.13556l 0.464417, -0.136247l 0.464417, -0.136936l 0.464417, -0.137627l 0.464417, -0.13832l 0.464417, -0.139016l 0.464417, -0.139714l 0.464417, -0.140414l 0.464417, -0.141117l 0.464417, -0.141822l
 0.464417, -0.142529l 0.464417, -0.143239l 0.464417, -0.143951l 0.464417, -0.144666l 0.464417, -0.145383l 0.464417, -0.146103l 0.464417, -0.146824l 0.464417, -0.147549l 0.464417, -0.148276l 0.464417, -0.149006l 0.464417, -0.149738l 0.464417,
 -0.150472l 0.464417, -0.15121l 0.464417, -0.151949l 0.464417, -0.152692l 0.464417, -0.153437l 0.464417, -0.154185l 0.464417, -0.154936l 0.464417, -0.155689l 0.464417, -0.156445l 0.464417, -0.157204l 0.464417, -0.157965l 0.464417, -0.15873l 0.464417,
 -0.159497l 0.464417, -0.160267l 0.464417, -0.16104l 0.464417, -0.161816l 0.464417, -0.162595l 0.464417, -0.163376l 0.464417, -0.164161l 0.464417, -0.164949l 0.464417, -0.165739l 0.464417, -0.166533l 0.464417, -0.16733l 0.464417, -0.16813l 0.464417,
 -0.168933l 0.464417, -0.169739l 0.464417, -0.170548l 0.464417, -0.17136l 0.464417, -0.172176l 0.464417, -0.172995l 0.464417, -0.173817l 0.464417, -0.174642l 0.464417, -0.175471l 0.464417, -0.176303l 0.464417, -0.177138l 0.464417, -0.177977l
 0.464417, -0.178819l 0.464417, -0.179665l 0.464417, -0.180514l 0.464417, -0.181366l 0.464417, -0.182223l 0.464417, -0.183082l 0.464417, -0.183945l 0.464417, -0.184812l 0.464417, -0.185683l 0.464417, -0.186557l 0.464417, -0.187435l 0.464417,
 -0.188316l 0.464417, -0.189202l 0.464417, -0.190091l 0.464417, -0.190984l 0.464417, -0.19188l 0.464417, -0.192781l 0.464417, -0.193686l 0.464417, -0.194594l 0.464417, -0.195506l 0.464417, -0.196423l 0.464417, -0.197344l 0.464417, -0.198268l
 0.464417, -0.199197l 0.464417, -0.20013l 0.464417, -0.201067l 0.464417, -0.202008l 0.464417, -0.202953l 0.464417, -0.203903l 0.464417, -0.204857l 0.464417, -0.205816l 0.464417, -0.206778l 0.464417, -0.207746l 0.464417, -0.208717l 0.464417,
 -0.209694l 0.464417, -0.210674l 0.464417, -0.21166l 0.464417, -0.21265l 0.464417, -0.213644l 0.464417, -0.214643l 0.464417, -0.215647l 0.464417, -0.216656l 0.464417, -0.21767l 0.464417, -0.218688l 0.464417, -0.219711l 0.464417, -0.22074l 0.464417,
 -0.221773l 0.464417, -0.222811l 0.464417, -0.223854l 0.464417, -0.224903l 0.464417, -0.225956l 0.464417, -0.227015l 0.464417, -0.228079l 0.464417, -0.229148l 0.464417, -0.230223l 0.464417, -0.231303l 0.464417, -0.232388l 0.464417, -0.233479l
 0.464417, -0.234575l 0.464417, -0.235677l 0.464417, -0.236785l 0.464417, -0.237898l 0.464417, -0.239017l 0.464417, -0.240141l 0.464417, -0.241272l 0.464417, -0.242408l 0.464417, -0.243551l 0.464417, -0.244699l 0.464417, -0.245853l 0.464417,
 -0.247013l 0.464417, -0.24818l 0.464417, -0.249352l 0.464417, -0.250531l 0.464417, -0.251716l 0.464417, -0.252908l 0.464417, -0.254106l 0.464417, -0.25531l 0.464417, -0.256521l 0.464417, -0.257739l 0.464417, -0.258963l 0.464417, -0.260193l 0.464417,
 -0.261431l 0.464417, -0.262675l 0.464417, -0.263927l 0.464417, -0.265185l 0.464417, -0.26645l 0.464417, -0.267723l 0.464417, -0.269002l 0.464417, -0.270289l 0.464417, -0.271583l 0.464417, -0.272884l 0.464417, -0.274193l 0.464417, -0.275509l
 0.464417, -0.276833l 0.464417, -0.278164l 0.464417, -0.279503l 0.464417, -0.28085l 0.464417, -0.282205l 0.464417, -0.283567l 0.464417, -0.284938l 0.464417, -0.286316l 0.464417, -0.287703l 0.464417, -0.289098l 0.464417, -0.290501l 0.464417,
 -0.291913l 0.464417, -0.293333l 0.464417, -0.294762l 0.464417, -0.296199l 0.464417, -0.297645l 0.464417, -0.299099l 0.464417, -0.300563l 0.464417, -0.302035l 0.464417, -0.303517l 0.464417, -0.305008l 0.464417, -0.306507l 0.464417, -0.308017l
 0.464417, -0.309535l 0.464417, -0.311063l 0.464417, -0.312601l 0.464417, -0.314148l 0.464417, -0.315705l 0.464417, -0.317272l 0.464417, -0.318849l 0.464417, -0.320436l 0.464417, -0.322033l 0.464417, -0.323641l 0.464417, -0.325258l 0.464417,
 -0.326887l 0.464417, -0.328525l 0.464417, -0.330175l 0.464417, -0.331835l 0.464417, -0.333506l 0.464417, -0.335188l 0.464417, -0.336881l 0.464417, -0.338586l 0.464417, -0.340302l 0.464417, -0.342029l 0.464417, -0.343768l 0.464417, -0.345518l
 0.464417, -0.347281l 0.464417, -0.349055l 0.464417, -0.350841l 0.464417, -0.35264l 0.464417, -0.35445l 0.464417, -0.356273l 0.464417, -0.358109l 0.464417, -0.359958l 0.464417, -0.361819l 0.464417, -0.363693l 0.464417, -0.36558l 0.464417, -0.367481l
 0.464417, -0.369394l 0.464417, -0.371322l 0.464417, -0.373263l 0.464417, -0.375217l 0.464417, -0.377186l 0.464417, -0.379169l 0.464417, -0.381166l 0.464417, -0.383177l 0.464417, -0.385203l 0.464417, -0.387243l 0.464417, -0.389299l 0.464417,
 -0.391369l 0.464417, -0.393454l 0.464417, -0.395555l 0.464417, -0.397671l 0.464417, -0.399803l 0.464417, -0.40195l 0.464417, -0.404114l 0.464417, -0.406294l 0.464417, -0.40849l 0.464417, -0.410702l 0.464417, -0.412931l 0.464417, -0.415177l 0.464417,
 -0.41744l 0.464417, -0.41972l 0.464417, -0.422018l 0.464417, -0.424333l 0.464417, -0.426666l 0.464417, -0.429017l 0.464417, -0.431385l 0.464417, -0.433773l 0.464417, -0.436179l 0.464417, -0.438603l 0.464417, -0.441047l 0.464417, -0.443509l 0.464417,
 -0.445991l 0.464417, -0.448493l 0.464417, -0.451014l 0.464417, -0.453555l 0.464417, -0.456116l 0.464417, -0.458698l 0.464417, -0.461301l 0.464417, -0.463924l 0.464417, -0.466568l 0.464417, -0.469234l 0.464417, -0.471921l 0.464417, -0.47463l
 0.464417, -0.477361l 0.464417, -0.480114l 0.464417, -0.482889l 0.464417, -0.485687l 0.464417, -0.488508l 0.464417, -0.491353l 0.464417, -0.49422l 0.464417, -0.497112l 0.464417, -0.500027l 0.464417, -0.502966l 0.464417, -0.50593l 0.464417, -0.508919l
 0.464417, -0.511932l 0.464417, -0.51497l 0.464417, -0.518034l 0.464417, -0.521124l 0.464417, -0.52424l 0.464417, -0.527381l 0.464417, -0.530549l 0.464417, -0.533744l 0.464417, -0.536966l 0.464417, -0.540215l 0.464417, -0.543492l 0.464417, -0.546796l
 0.464417, -0.550129l 0.464417, -0.553489l 0.464417, -0.556879l 0.464417, -0.560297l 0.464417, -0.563744l 0.464417, -0.56722l 0.464417, -0.570727l 0.464417, -0.574262l 0.464417, -0.577829l 0.464417, -0.581425l 0.464417, -0.585052l 0.464417, -0.58871l
 0.464417, -0.592399l 0.464417, -0.59612l 0.464417, -0.599872l 0.464417, -0.603655l 0.464417, -0.607471l 0.464417, -0.61132l 0.464417, -0.6152l 0.464417, -0.619114l 0.464417, -0.62306l 0.464417, -0.627039l 0.464417, -0.631052l 0.464417, -0.635098l
 0.464417, -0.639178l 0.464417, -0.643291l 0.464417, -0.647439l 0.464417, -0.65162l 0.464417, -0.655836l 0.464417, -0.660086l 0.464417, -0.66437l 0.464417, -0.668689l 0.464417, -0.673042l 0.464417, -0.67743l 0.464417, -0.681852l 0.464417, -0.686309l
 0.464417, -0.6908l 0.464417, -0.695325l 0.464417, -0.699885l 0.464417, -0.704479l 0.464417, -0.709107l 0.464417, -0.713768l 0.464417, -0.718463l 0.464417, -0.723192l 0.464417, -0.727953l 0.464417, -0.732747l 0.464417, -0.737574l 0.464417, -0.742432l
 0.464417, -0.747321l 0.464417, -0.752241l 0.464417, -0.757191l 0.464417, -0.76217l 0.464417, -0.767178l 0.464417, -0.772214l 0.464417, -0.777277l 0.464417, -0.782365l 0.464417, -0.787479l 0.464417, -0.792616l 0.464417, -0.797775l 0.464417,
 -0.802956l 0.464417, -0.808156l 0.464417, -0.813374l 0.464417, -0.818608l 0.464417, -0.823856l 0.464417, -0.829117l 0.464417, -0.834388l 0.464417, -0.839667l 0.464417, -0.844952l 0.464417, -0.850239l 0.464417, -0.855527l 0.464417, -0.860811l
 0.464417, -0.86609l 0.464417, -0.871358l 0.464417, -0.876614l 0.464417, -0.881852l 0.464417, -0.887069l 0.464417, -0.89226l 0.464417, -0.897421l 0.464417, -0.902546l 0.464417, -0.90763l 0.464417, -0.912668l 0.464417, -0.917653l 0.464417, -0.922579l
 0.464417, -0.927439l 0.464417, -0.932227l 0.464417, -0.936933l 0.464417, -0.941552l 0.464417, -0.946073l 0.464417, -0.950487l 0.464417, -0.954786l 0.464417, -0.958959l 0.464417, -0.962996l 0.464417, -0.966884l 0.464417, -0.970613l 0.464417,
 -0.97417l 0.464417, -0.977541l 0.464417, -0.980713l 0.464417, -0.983671l 0.464417, -0.986399l 0.464417, -0.988882l 0.464417, -0.991103l 0.464417, -0.993044l 0.464417, -0.994686l 0.464417, -0.99601l 0.464417, -0.996996l 0.464417, -0.997622l 0.464417,
 -0.997867l 0.464417, -0.997707l 0.464417, -0.997119l 0.464417, -0.996078l 0.464417, -0.994558l 0.464417, -0.992533l 0.464417, -0.989975l 0.464417, -0.986856l 0.464417, -0.983148l 0.464417, -0.97882l 0.464417, -0.973842l 0.464417, -0.968183l
 0.464417, -0.961812l 0.464417, -0.954697l 0.464417, -0.946805l 0.464417, -0.938105l 0.464417, -0.928563l 0.464417, -0.918148l 0.464417, -0.906828l 0.464417, -0.894571l 0.464417, -0.881348l 0.464417, -0.867127l 0.464417, -0.851881l 0.464417,
 -0.835584l 0.464417, -0.818209l 0.464417, -0.799735l 0.464417, -0.78014l 0.464417, -0.759407l 0.464417, -0.737521l 0.464417, -0.714471l 0.464417, -0.690249l 0.464417, -0.664853l 0.464417, -0.638282l 0.464417, -0.610543l 0.464417, -0.581647l
 0.464417, -0.551609l 0.464417, -0.52045l 0.464417, -0.488198l 0.464417, -0.454885l 0.464417, -0.42055l 0.464417, -0.385238l 0.464417, -0.348997l 0.464417, -0.311885l 0.464417, -0.273963l 0.464417, -0.235297l 0.464417, -0.195959l 0.464417, -0.156026l
 0.464417, -0.115578l 0.464417, -0.0746993l 0.464417, -0.033477l 0.464417, 0.00799911l 0.464417, 0.0496373l 0.464417, 0.0913448l 0.464417, 0.133028l 0.464417, 0.174594l 0.464417, 0.215951l 0.464417, 0.257007l 0.464417, 0.297675l 0.464417, 0.337867l
 0.464417, 0.377503l 0.464417, 0.416504l 0.464417, 0.454795l 0.464417, 0.492308l 0.464417, 0.528978l 0.464417, 0.564747l 0.464417, 0.599562l 0.464417, 0.633375l 0.464417, 0.666146l 0.464417, 0.697839l 0.464417, 0.728423l 0.464417, 0.757876l 0.464417,
 0.786178l 0.464417, 0.813317l 0.464417, 0.839284l 0.464417, 0.864076l 0.464417, 0.887694l 0.464417, 0.910144l 0.464417, 0.931436l 0.464417, 0.951583l 0.464417, 0.9706l 0.464417, 0.988507l 0.464417, 1.00533l 0.464417, 1.02108l 0.464417, 1.0358l
 0.464417, 1.0495l 0.464417, 1.06223l 0.464417, 1.074l 0.464417, 1.08486l 0.464417, 1.09482l 0.464417, 1.10393l 0.464417, 1.11221l 0.464417, 1.11971l 0.464417, 1.12644l 0.464417, 1.13244l 0.464417, 1.13775l 0.464417, 1.1424l 0.464417, 1.14641l
 0.464417, 1.14982l 0.464417, 1.15265l 0.464417, 1.15494l 0.464417, 1.1567l 0.464417, 1.15798l 0.464417, 1.15879l 0.464417, 1.15917l 0.464417, 1.15912l 0.464417, 1.15869l 0.464417, 1.15788l 0.464417, 1.15672l 0.464417, 1.15524l 0.464417, 1.15345l
 0.464417, 1.15138l 0.464417, 1.14903l 0.464417, 1.14642l 0.464417, 1.14359l 0.464417, 1.14052l 0.464417, 1.13726l 0.464417, 1.1338l 0.464417, 1.13016l 0.464417, 1.12636l 0.464417, 1.12241l 0.464417, 1.11831l 0.464417, 1.11408l 0.464417, 1.10973l
 0.464417, 1.10527l 0.464417, 1.10071l 0.464417, 1.09606l 0.464417, 1.09132l 0.464417, 1.08651l 0.464417, 1.08163l 0.464417, 1.07668l 0.464417, 1.07168l 0.464417, 1.06663l 0.464417, 1.06154l 0.464417, 1.05641l 0.464417, 1.05125l 0.464417, 1.04606l
 0.464417, 1.04084l 0.464417, 1.03561l 0.464417, 1.03036l 0.464417, 1.0251l 0.464417, 1.01983l 0.464417, 1.01456l 0.464417, 1.00929l 0.464417, 1.00402l 0.464417, 0.99875l 0.464417, 0.99349l 0.464417, 0.98824l 0.464417, 0.983001l 0.464417, 0.977775l
 0.464417, 0.972566l 0.464417, 0.967373l 0.464417, 0.9622l 0.464417, 0.957047l 0.464417, 0.951915l 0.464417, 0.946808l 0.464417, 0.941724l 0.464417, 0.936666l 0.464417, 0.931635l 0.464417, 0.926631l 0.464417, 0.921656l 0.464417, 0.916709l 0.464417,
 0.911793l 0.464417, 0.906907l 0.464417, 0.902053l 0.464417, 0.89723l 0.464417, 0.892439l 0.464417, 0.887681l 0.464417, 0.882956l 0.464417, 0.878264l 0.464417, 0.873606l 0.464417, 0.868982l 0.464417, 0.864392l 0.464417, 0.859836l 0.464417, 0.855314l
 0.464417, 0.850827l 0.464417, 0.846374l 0.464417, 0.841956l 0.464417, 0.837573l 0.464417, 0.833225l 0.464417, 0.828911l 0.464417, 0.824631l 0.464417, 0.820387l 0.464417, 0.816176l 0.464417, 0.812l 0.464417, 0.807859l 0.464417, 0.803751l 0.464417,
 0.799678l 0.464417, 0.795638l 0.464417, 0.791632l 0.464417, 0.78766l 0.464417, 0.783721l 0.464417, 0.779815l 0.464417, 0.775943l 0.464417, 0.772103l 0.464417, 0.768295l 0.464417, 0.76452l 0.464417, 0.760777l 0.464417, 0.757066l 0.464417, 0.753387l
 0.464417, 0.749739l 0.464417, 0.746122l 0.464417, 0.742536l 0.464417, 0.73898l 0.464417, 0.735456l 0.464417, 0.731961l 0.464417, 0.728496l 0.464417, 0.725061l 0.464417, 0.721655l 0.464417, 0.718279l 0.464417, 0.714931l 0.464417, 0.711612l 0.464417,
 0.708321l 0.464417, 0.705058l 0.464417, 0.701823l 0.464417, 0.698616l 0.464417, 0.695436l 0.464417, 0.692282l 0.464417, 0.689156l 0.464417, 0.686056l 0.464417, 0.682983l 0.464417, 0.679935l 0.464417, 0.676913l 0.464417, 0.673917l 0.464417, 0.670946l
 0.464417, 0.667999l 0.464417, 0.665078l 0.464417, 0.662181l 0.464417, 0.659308l 0.464417, 0.656459l 0.464417, 0.653634l 0.464417, 0.650832l 0.464417, 0.648053l 0.464417, 0.645298l 0.464417, 0.642565l 0.464417, 0.639854l 0.464417, 0.637166l 0.464417,
 0.6345l 0.464417, 0.631856l 0.464417, 0.629234l 0.464417, 0.626632l 0.464417, 0.624052l 0.464417, 0.621493l 0.464417, 0.618955l 0.464417, 0.616436l 0.464417, 0.613939l 0.464417, 0.611461l 0.464417, 0.609003l 0.464417, 0.606565l 0.464417, 0.604146l
 0.464417, 0.601746l 0.464417, 0.599366l 0.464417, 0.597004l 0.464417, 0.594661l 0.464417, 0.592336l 0.464417, 0.590029l 0.464417, 0.587741l 0.464417, 0.58547l 0.464417, 0.583217l 0.464417, 0.580981l 0.464417, 0.578763l 0.464417, 0.576562l 0.464417,
 0.574378l 0.464417, 0.57221l 0.464417, 0.570059l 0.464417, 0.567925l 0.464417, 0.565807l 0.464417, 0.563704l 0.464417, 0.561618l 0.464417, 0.559548l 0.464417, 0.557493l 0.464417, 0.555453l 0.464417, 0.553429l 0.464417, 0.551419l 0.464417, 0.549425l
 0.464417, 0.547446l 0.464417, 0.545481l 0.464417, 0.54353l 0.464417, 0.541594l 0.464417, 0.539672l 0.464417, 0.537764l 0.464417, 0.53587l 0.464417, 0.53399l 0.464417, 0.532124l 0.464417, 0.53027l 0.464417, 0.528431l 0.464417, 0.526604l 0.464417,
 0.524791l 0.464417, 0.52299l 0.464417, 0.521202l 0.464417, 0.519427l 0.464417, 0.517665l 0.464417, 0.515915l 0.464417, 0.514177l 0.464417, 0.512451l 0.464417, 0.510738l 0.464417, 0.509036l 0.464417, 0.507346l 0.464417, 0.505668l 0.464417, 0.504002l
 0.464417, 0.502347l 0.464417, 0.500703l 0.464417, 0.499071l 0.464417, 0.497449l 0.464417, 0.495839l 0.464417, 0.49424l 0.464417, 0.492652l 0.464417, 0.491074l 0.464417, 0.489507l 0.464417, 0.48795l 0.464417, 0.486404l 0.464417, 0.484868l 0.464417,
 0.483342l 0.464417, 0.481827l 0.464417, 0.480321l 0.464417, 0.478826l 0.464417, 0.47734l 0.464417, 0.475864l 0.464417, 0.474397l 0.464417, 0.47294l 0.464417, 0.471493l 0.464417, 0.470055l 0.464417, 0.468626l 0.464417, 0.467207l 0.464417, 0.465796l
 0.464417, 0.464395l 0.464417, 0.463002l 0.464417, 0.461619l 0.464417, 0.460244l 0.464417, 0.458878l 0.464417, 0.45752l 0.464417, 0.456171l 0.464417, 0.454831l 0.464417, 0.453499l 0.464417, 0.452175l 0.464417, 0.450859l 0.464417, 0.449552l 0.464417,
 0.448252l 0.464417, 0.446961l 0.464417, 0.445678l 0.464417, 0.444402l 0.464417, 0.443134l 0.464417, 0.441874l 0.464417, 0.440622l 0.464417, 0.439377l 0.464417, 0.43814l 0.464417, 0.43691l 0.464417, 0.435688l 0.464417, 0.434473l 0.464417, 0.433265l
 0.464417, 0.432064l 0.464417, 0.430871l 0.464417, 0.429684l 0.464417, 0.428505l 0.464417, 0.427332l 0.464417, 0.426167l 0.464417, 0.425008l 0.464417, 0.423856" fill="none" stroke="#0000ff" stroke-width="2"/>
<text xml:space="preserve" x="399.063" y="46.6099" fill="black" font-size="20.467" font-family="Helvetica" font-weight="bold">NonRel BW
</text>
<path d="M363.831,40.8075h 28.7717" fill="none" stroke="black" stroke-width="2"/>
<text xml:space="preserve" x="399.063" y="74.1954" fill="black" font-size="20.467" font-family="Helvetica" font-weight="bold">Rel BW
</text>
<path d="M363.831,68.0125h 28.7717" fill="none" stroke="#0000ff" stroke-width="2"/>
<text xml:space="preserve" x="130.818" y="408.075" fill="black" font-size="20.467" font-family="Helvetica">Comparing BW
</text>
<text xml:space="preserve" x="130.818" y="428.051" fill="black" font-size="20.467" font-family="Helvetica">M = 9000 GeV
</text>
<text xml:space="preserve" x="143.184" y="448.026" fill="black" font-size="20.467" font-family="Helvetica"> = 1350 GeV
</text>
<text xml:space="preserve" x="130.818" y="448.026" fill="black" font-size="20.467" font-family="Times">&#0915;
</text>
<path d="M91.2087,457.044h 464.882" fill="none" stroke="black"/>
<path d="M91.2087,443.659v 13.3849" fill="none" stroke="black"/>
<path d="M109.071,450.351v 6.69243" fill="none" stroke="black"/>
<path d="M126.933,450.351v 6.69243" fill="none" stroke="black"/>
<path d="M144.795,450.351v 6.69243" fill="none" stroke="black"/>
<path d="M162.658,443.659v 13.3849" fill="none" stroke="black"/>
<path d="M180.52,450.351v 6.69243" fill="none" stroke="black"/>
<path d="M198.382,450.351v 6.69243" fill="none" stroke="black"/>
<path d="M216.244,450.351v 6.69243" fill="none" stroke="black"/>
<path d="M234.106,443.659v 13.3849" fill="none" stroke="black"/>
<path d="M251.969,450.351v 6.69243" fill="none" stroke="black"/>
<path d="M269.831,450.351v 6.69243" fill="none" stroke="black"/>
<path d="M287.693,450.351v 6.69243" fill="none" stroke="black"/>
<path d="M305.555,443.659v 13.3849" fill="none" stroke="black"/>
<path d="M323.417,450.351v 6.69243" fill="none" stroke="black"/>
<path d="M341.28,450.351v 6.69243" fill="none" stroke="black"/>
<path d="M359.142,450.351v 6.69243" fill="none" stroke="black"/>
<path d="M377.004,443.659v 13.3849" fill="none" stroke="black"/>
<path d="M394.866,450.351v 6.69243" fill="none" stroke="black"/>
<path d="M412.728,450.351v 6.69243" fill="none" stroke="black"/>
<path d="M430.591,450.351v 6.69243" fill="none" stroke="black"/>
<path d="M448.453,443.659v 13.3849" fill="none" stroke="black"/>
<path d="M466.315,450.351v 6.69243" fill="none" stroke="black"/>
<path d="M484.177,450.351v 6.69243" fill="none" stroke="black"/>
<path d="M502.039,450.351v 6.69243" fill="none" stroke="black"/>
<path d="M519.902,443.659v 13.3849" fill="none" stroke="black"/>
<path d="M519.902,443.659v 13.3849" fill="none" stroke="black"/>
<path d="M537.764,450.351v 6.69243" fill="none" stroke="black"/>
<path d="M555.626,450.351v 6.69243" fill="none" stroke="black"/>
<path d="M91.2087,10.882h 464.882" fill="none" stroke="black"/>
<path d="M91.2087,24.2668v -13.3849" fill="none" stroke="black"/>
<path d="M109.071,17.5744v -6.69243" fill="none" stroke="black"/>
<path d="M126.933,17.5744v -6.69243" fill="none" stroke="black"/>
<path d="M144.795,17.5744v -6.69243" fill="none" stroke="black"/>
<path d="M162.658,24.2668v -13.3849" fill="none" stroke="black"/>
<path d="M180.52,17.5744v -6.69243" fill="none" stroke="black"/>
<path d="M198.382,17.5744v -6.69243" fill="none" stroke="black"/>
<path d="M216.244,17.5744v -6.69243" fill="none" stroke="black"/>
<path d="M234.106,24.2668v -13.3849" fill="none" stroke="black"/>
<path d="M251.969,17.5744v -6.69243" fill="none" stroke="black"/>
<path d="M269.831,17.5744v -6.69243" fill="none" stroke="black"/>
<path d="M287.693,17.5744v -6.69243" fill="none" stroke="black"/>
<path d="M305.555,24.2668v -13.3849" fill="none" stroke="black"/>
<path d="M323.417,17.5744v -6.69243" fill="none" stroke="black"/>
<path d="M341.28,17.5744v -6.69243" fill="none" stroke="black"/>
<path d="M359.142,17.5744v -6.69243" fill="none" stroke="black"/>
<path d="M377.004,24.2668v -13.3849" fill="none" stroke="black"/>
<path d="M394.866,17.5744v -6.69243" fill="none" stroke="black"/>
<path d="M412.728,17.5744v -6.69243" fill="none" stroke="black"/>
<path d="M430.591,17.5744v -6.69243" fill="none" stroke="black"/>
<path d="M448.453,24.2668v -13.3849" fill="none" stroke="black"/>
<path d="M466.315,17.5744v -6.69243" fill="none" stroke="black"/>
<path d="M484.177,17.5744v -6.69243" fill="none" stroke="black"/>
<path d="M502.039,17.5744v -6.69243" fill="none" stroke="black"/>
<path d="M519.902,24.2668v -13.3849" fill="none" stroke="black"/>
<path d="M519.902,24.2668v -13.3849" fill="none" stroke="black"/>
<path d="M537.764,17.5744v -6.69243" fill="none" stroke="black"/>
<path d="M555.626,17.5744v -6.69243" fill="none" stroke="black"/>
<path d="M91.2087,457.044v -446.162" fill="none" stroke="black"/>
<path d="M98.1819,453.701h -6.97323" fill="none" stroke="black"/>
<path d="M98.1819,446.223h -6.97323" fill="none" stroke="black"/>
<path d="M98.1819,439.627h -6.97323" fill="none" stroke="black"/>
<path d="M105.155,433.727h -13.9465" fill="none" stroke="black"/>
<path d="M98.1819,394.91h -6.97323" fill="none" stroke="black"/>
<path d="M98.1819,372.204h -6.97323" fill="none" stroke="black"/>
<path d="M98.1819,356.093h -6.97323" fill="none" stroke="black"/>
<path d="M98.1819,343.597h -6.97323" fill="none" stroke="black"/>
<path d="M98.1819,333.387h -6.97323" fill="none" stroke="black"/>
<path d="M98.1819,324.754h -6.97323" fill="none" stroke="black"/>
<path d="M98.1819,317.276h -6.97323" fill="none" stroke="black"/>
<path d="M98.1819,310.68h -6.97323" fill="none" stroke="black"/>
<path d="M105.155,304.78h -13.9465" fill="none" stroke="black"/>
<path d="M98.1819,265.963h -6.97323" fill="none" stroke="black"/>
<path d="M98.1819,243.257h -6.97323" fill="none" stroke="black"/>
<path d="M98.1819,227.147h -6.97323" fill="none" stroke="black"/>
<path d="M98.1819,214.651h -6.97323" fill="none" stroke="black"/>
<path d="M98.1819,204.44h -6.97323" fill="none" stroke="black"/>
<path d="M98.1819,195.808h -6.97323" fill="none" stroke="black"/>
<path d="M98.1819,188.33h -6.97323" fill="none" stroke="black"/>
<path d="M98.1819,181.734h -6.97323" fill="none" stroke="black"/>
<path d="M105.155,175.834h -13.9465" fill="none" stroke="black"/>
<path d="M98.1819,137.017h -6.97323" fill="none" stroke="black"/>
<path d="M98.1819,114.311h -6.97323" fill="none" stroke="black"/>
<path d="M98.1819,98.2002h -6.97323" fill="none" stroke="black"/>
<path d="M98.1819,85.704h -6.97323" fill="none" stroke="black"/>
<path d="M98.1819,75.4939h -6.97323" fill="none" stroke="black"/>
<path d="M98.1819,66.8614h -6.97323" fill="none" stroke="black"/>
<path d="M98.1819,59.3835h -6.97323" fill="none" stroke="black"/>
<path d="M98.1819,52.7876h -6.97323" fill="none" stroke="black"/>
<path d="M105.155,46.8873h -13.9465" fill="none" stroke="black"/>
<path d="M556.091,457.044v -446.162" fill="none" stroke="black"/>
<path d="M549.117,453.701h 6.97323" fill="none" stroke="black"/>
<path d="M549.117,446.223h 6.97323" fill="none" stroke="black"/>
<path d="M549.117,439.627h 6.97323" fill="none" stroke="black"/>
<path d="M542.144,433.727h 13.9465" fill="none" stroke="black"/>
<path d="M549.117,394.91h 6.97323" fill="none" stroke="black"/>
<path d="M549.117,372.204h 6.97323" fill="none" stroke="black"/>
<path d="M549.117,356.093h 6.97323" fill="none" stroke="black"/>
<path d="M549.117,343.597h 6.97323" fill="none" stroke="black"/>
<path d="M549.117,333.387h 6.97323" fill="none" stroke="black"/>
<path d="M549.117,324.754h 6.97323" fill="none" stroke="black"/>
<path d="M549.117,317.276h 6.97323" fill="none" stroke="black"/>
<path d="M549.117,310.68h 6.97323" fill="none" stroke="black"/>
<path d="M542.144,304.78h 13.9465" fill="none" stroke="black"/>
<path d="M549.117,265.963h 6.97323" fill="none" stroke="black"/>
<path d="M549.117,243.257h 6.97323" fill="none" stroke="black"/>
<path d="M549.117,227.147h 6.97323" fill="none" stroke="black"/>
<path d="M549.117,214.651h 6.97323" fill="none" stroke="black"/>
<path d="M549.117,204.44h 6.97323" fill="none" stroke="black"/>
<path d="M549.117,195.808h 6.97323" fill="none" stroke="black"/>
<path d="M549.117,188.33h 6.97323" fill="none" stroke="black"/>
<path d="M549.117,181.734h 6.97323" fill="none" stroke="black"/>
<path d="M542.144,175.834h 13.9465" fill="none" stroke="black"/>
<path d="M549.117,137.017h 6.97323" fill="none" stroke="black"/>
<path d="M549.117,114.311h 6.97323" fill="none" stroke="black"/>
<path d="M549.117,98.2002h 6.97323" fill="none" stroke="black"/>
<path d="M549.117,85.704h 6.97323" fill="none" stroke="black"/>
<path d="M549.117,75.4939h 6.97323" fill="none" stroke="black"/>
<path d="M549.117,66.8614h 6.97323" fill="none" stroke="black"/>
<path d="M549.117,59.3835h 6.97323" fill="none" stroke="black"/>
<path d="M549.117,52.7876h 6.97323" fill="none" stroke="black"/>
<path d="M542.144,46.8873h 13.9465" fill="none" stroke="black"/></svg>
