<?xml version="1.0" standalone="no"?>
<svg width="567.429" height="384.969" viewBox="0 0 567.429 384.969" xmlns="http://www.w3.org/2000/svg" shape-rendering="crispEdges">
<title>
./old_svg_ref/candleplot.svg
</title>
<desc>
Creator: ROOT Version 6.33.01
CreationDate: Wed Jul 10 09:59:59 2024</desc>
<defs>
</defs>
<rect x="0.5" y="0" width="566.929" height="384.469" fill="white"/>
<rect x="91.2087" y="19.2235" width="447.874" height="303.731" fill="white"/>
<rect x="91.2087" y="19.2235" width="447.874" height="303.731" fill="none" stroke="black"/>
<path d="M93.0748,161.654v -20.9108h 14.9291v 20.9108h -14.9291z" fill="#ffff00"/>
<path d="M93.0748,161.654v -20.9108h 14.9291v 20.9108h -14.9291z" fill="none" stroke="black" stroke-width="2"/>
<path d="M93.0748,109.128h 14.9291" fill="none" stroke="black" stroke-width="2"/>
<path d="M93.0748,192.654h 14.9291" fill="none" stroke="black" stroke-width="2"/>
<path d="M100.539,109.128v 31.6156" fill="none" stroke="black" stroke-width="2"/>
<path d="M100.539,161.654v 30.9995" fill="none" stroke="black" stroke-width="2"/>
<path d="M93.0748,151.525h 14.9291" fill="none" stroke="black" stroke-width="2"/>
<path d="M93.0748,151.244h 14.9291" fill="none" stroke="black" stroke-width="2" stroke-dasharray=" 3, 3"/>
<path d="M93.0748,192.654h 14.9291" fill="none" stroke="black" stroke-width="2"/>
<path d="M93.0748,109.128h 14.9291" fill="none" stroke="black" stroke-width="2"/>
<g stroke="black" stroke-width="1" fill="none">
<line x1="97.7751" y1="197.938" x2="103.304" y2="203.467"/><line x1="97.7751" y1="203.467" x2="103.304" y2="197.938"/>
<line x1="97.7751" y1="196.723" x2="103.304" y2="202.252"/><line x1="97.7751" y1="202.252" x2="103.304" y2="196.723"/>
<line x1="97.7751" y1="195.205" x2="103.304" y2="200.733"/><line x1="97.7751" y1="200.733" x2="103.304" y2="195.205"/>
<line x1="97.7751" y1="193.99" x2="103.304" y2="199.518"/><line x1="97.7751" y1="199.518" x2="103.304" y2="193.99"/>
<line x1="97.7751" y1="191.56" x2="103.304" y2="197.088"/><line x1="97.7751" y1="197.088" x2="103.304" y2="191.56"/>
<line x1="97.7751" y1="191.256" x2="103.304" y2="196.785"/><line x1="97.7751" y1="196.785" x2="103.304" y2="191.256"/>
<line x1="97.7751" y1="106.212" x2="103.304" y2="111.74"/><line x1="97.7751" y1="111.74" x2="103.304" y2="106.212"/>
<line x1="97.7751" y1="105.908" x2="103.304" y2="111.436"/><line x1="97.7751" y1="111.436" x2="103.304" y2="105.908"/>
<line x1="97.7751" y1="105.3" x2="103.304" y2="110.829"/><line x1="97.7751" y1="110.829" x2="103.304" y2="105.3"/>
<line x1="97.7751" y1="103.782" x2="103.304" y2="109.31"/><line x1="97.7751" y1="109.31" x2="103.304" y2="103.782"/>
<line x1="97.7751" y1="103.174" x2="103.304" y2="108.703"/><line x1="97.7751" y1="108.703" x2="103.304" y2="103.174"/>
<line x1="97.7751" y1="97.4034" x2="103.304" y2="102.932"/><line x1="97.7751" y1="102.932" x2="103.304" y2="97.4034"/>
<line x1="97.7751" y1="96.4922" x2="103.304" y2="102.021"/><line x1="97.7751" y1="102.021" x2="103.304" y2="96.4922"/>
<line x1="97.7751" y1="95.581" x2="103.304" y2="101.11"/><line x1="97.7751" y1="101.11" x2="103.304" y2="95.581"/>
<line x1="97.7751" y1="90.4176" x2="103.304" y2="95.9461"/><line x1="97.7751" y1="95.9461" x2="103.304" y2="90.4176"/>
</g>
<path d="M130.398,154.596v -21.5244h 14.9291v 21.5244h -14.9291z" fill="#ffff00"/>
<path d="M130.398,154.596v -21.5244h 14.9291v 21.5244h -14.9291z" fill="none" stroke="black" stroke-width="2"/>
<path d="M130.398,101.534h 14.9291" fill="none" stroke="black" stroke-width="2"/>
<path d="M130.398,187.187h 14.9291" fill="none" stroke="black" stroke-width="2"/>
<path d="M137.862,101.534v 31.5374" fill="none" stroke="black" stroke-width="2"/>
<path d="M137.862,154.596v 32.5903" fill="none" stroke="black" stroke-width="2"/>
<path d="M130.398,143.935h 14.9291" fill="none" stroke="black" stroke-width="2"/>
<path d="M130.398,143.864h 14.9291" fill="none" stroke="black" stroke-width="2" stroke-dasharray=" 3, 3"/>
<path d="M130.398,187.187h 14.9291" fill="none" stroke="black" stroke-width="2"/>
<path d="M130.398,101.534h 14.9291" fill="none" stroke="black" stroke-width="2"/>
<g stroke="black" stroke-width="1" fill="none">
<line x1="135.098" y1="185.789" x2="140.626" y2="191.318"/><line x1="135.098" y1="191.318" x2="140.626" y2="185.789"/>
<line x1="135.098" y1="97.0997" x2="140.626" y2="102.628"/><line x1="135.098" y1="102.628" x2="140.626" y2="97.0997"/>
<line x1="135.098" y1="96.7959" x2="140.626" y2="102.324"/><line x1="135.098" y1="102.324" x2="140.626" y2="96.7959"/>
<line x1="135.098" y1="94.9736" x2="140.626" y2="100.502"/><line x1="135.098" y1="100.502" x2="140.626" y2="94.9736"/>
<line x1="135.098" y1="91.3288" x2="140.626" y2="96.8573"/><line x1="135.098" y1="96.8573" x2="140.626" y2="91.3288"/>
</g>
<path d="M167.72,151.476v -19.7208h 14.9291v 19.7208h -14.9291z" fill="#ffff00"/>
<path d="M167.72,151.476v -19.7208h 14.9291v 19.7208h -14.9291z" fill="none" stroke="black" stroke-width="2"/>
<path d="M167.72,102.142h 14.9291" fill="none" stroke="black" stroke-width="2"/>
<path d="M167.72,179.593h 14.9291" fill="none" stroke="black" stroke-width="2"/>
<path d="M175.185,102.142v 29.6137" fill="none" stroke="black" stroke-width="2"/>
<path d="M175.185,151.476v 28.1168" fill="none" stroke="black" stroke-width="2"/>
<path d="M167.72,141.814h 14.9291" fill="none" stroke="black" stroke-width="2"/>
<path d="M167.72,142.028h 14.9291" fill="none" stroke="black" stroke-width="2" stroke-dasharray=" 3, 3"/>
<path d="M167.72,179.593h 14.9291" fill="none" stroke="black" stroke-width="2"/>
<path d="M167.72,102.142h 14.9291" fill="none" stroke="black" stroke-width="2"/>
<g stroke="black" stroke-width="1" fill="none">
<line x1="172.421" y1="190.041" x2="177.949" y2="195.57"/><line x1="172.421" y1="195.57" x2="177.949" y2="190.041"/>
<line x1="172.421" y1="181.537" x2="177.949" y2="187.065"/><line x1="172.421" y1="187.065" x2="177.949" y2="181.537"/>
<line x1="172.421" y1="180.018" x2="177.949" y2="185.547"/><line x1="172.421" y1="185.547" x2="177.949" y2="180.018"/>
<line x1="172.421" y1="179.411" x2="177.949" y2="184.939"/><line x1="172.421" y1="184.939" x2="177.949" y2="179.411"/>
<line x1="172.421" y1="178.499" x2="177.949" y2="184.028"/><line x1="172.421" y1="184.028" x2="177.949" y2="178.499"/>
<line x1="172.421" y1="95.2773" x2="177.949" y2="100.806"/><line x1="172.421" y1="100.806" x2="177.949" y2="95.2773"/>
<line x1="172.421" y1="92.5437" x2="177.949" y2="98.0723"/><line x1="172.421" y1="98.0723" x2="177.949" y2="92.5437"/>
</g>
<path d="M205.043,150.536v -20.2082h 14.9291v 20.2082h -14.9291z" fill="#ffff00"/>
<path d="M205.043,150.536v -20.2082h 14.9291v 20.2082h -14.9291z" fill="none" stroke="black" stroke-width="2"/>
<path d="M205.043,100.016h 14.9291" fill="none" stroke="black" stroke-width="2"/>
<path d="M205.043,179.29h 14.9291" fill="none" stroke="black" stroke-width="2"/>
<path d="M212.508,100.016v 30.3123" fill="none" stroke="black" stroke-width="2"/>
<path d="M212.508,150.536v 28.7532" fill="none" stroke="black" stroke-width="2"/>
<path d="M205.043,140.277h 14.9291" fill="none" stroke="black" stroke-width="2"/>
<path d="M205.043,140.458h 14.9291" fill="none" stroke="black" stroke-width="2" stroke-dasharray=" 3, 3"/>
<path d="M205.043,179.29h 14.9291" fill="none" stroke="black" stroke-width="2"/>
<path d="M205.043,100.016h 14.9291" fill="none" stroke="black" stroke-width="2"/>
<g stroke="black" stroke-width="1" fill="none">
<line x1="209.744" y1="199.457" x2="215.272" y2="204.985"/><line x1="209.744" y1="204.985" x2="215.272" y2="199.457"/>
<line x1="209.744" y1="186.093" x2="215.272" y2="191.621"/><line x1="209.744" y1="191.621" x2="215.272" y2="186.093"/>
<line x1="209.744" y1="183.663" x2="215.272" y2="189.191"/><line x1="209.744" y1="189.191" x2="215.272" y2="183.663"/>
<line x1="209.744" y1="179.411" x2="215.272" y2="184.939"/><line x1="209.744" y1="184.939" x2="215.272" y2="179.411"/>
<line x1="209.744" y1="178.803" x2="215.272" y2="184.332"/><line x1="209.744" y1="184.332" x2="215.272" y2="178.803"/>
<line x1="209.744" y1="95.2773" x2="215.272" y2="100.806"/><line x1="209.744" y1="100.806" x2="215.272" y2="95.2773"/>
<line x1="209.744" y1="91.9363" x2="215.272" y2="97.4648"/><line x1="209.744" y1="97.4648" x2="215.272" y2="91.9363"/>
<line x1="209.744" y1="72.1938" x2="215.272" y2="77.7223"/><line x1="209.744" y1="77.7223" x2="215.272" y2="72.1938"/>
</g>
<path d="M242.366,152.409v -20.312h 14.9291v 20.312h -14.9291z" fill="#ffff00"/>
<path d="M242.366,152.409v -20.312h 14.9291v 20.312h -14.9291z" fill="none" stroke="black" stroke-width="2"/>
<path d="M242.366,101.838h 14.9291" fill="none" stroke="black" stroke-width="2"/>
<path d="M242.366,182.631h 14.9291" fill="none" stroke="black" stroke-width="2"/>
<path d="M249.831,101.838v 30.2592" fill="none" stroke="black" stroke-width="2"/>
<path d="M249.831,152.409v 30.2212" fill="none" stroke="black" stroke-width="2"/>
<path d="M242.366,142.133h 14.9291" fill="none" stroke="black" stroke-width="2"/>
<path d="M242.366,142.114h 14.9291" fill="none" stroke="black" stroke-width="2" stroke-dasharray=" 3, 3"/>
<path d="M242.366,182.631h 14.9291" fill="none" stroke="black" stroke-width="2"/>
<path d="M242.366,101.838h 14.9291" fill="none" stroke="black" stroke-width="2"/>
<g stroke="black" stroke-width="1" fill="none">
<line x1="247.066" y1="193.686" x2="252.595" y2="199.215"/><line x1="247.066" y1="199.215" x2="252.595" y2="193.686"/>
<line x1="247.066" y1="187.308" x2="252.595" y2="192.836"/><line x1="247.066" y1="192.836" x2="252.595" y2="187.308"/>
<line x1="247.066" y1="183.359" x2="252.595" y2="188.888"/><line x1="247.066" y1="188.888" x2="252.595" y2="183.359"/>
<line x1="247.066" y1="182.752" x2="252.595" y2="188.28"/><line x1="247.066" y1="188.28" x2="252.595" y2="182.752"/>
<line x1="247.066" y1="180.322" x2="252.595" y2="185.85"/><line x1="247.066" y1="185.85" x2="252.595" y2="180.322"/>
<line x1="247.066" y1="98.3146" x2="252.595" y2="103.843"/><line x1="247.066" y1="103.843" x2="252.595" y2="98.3146"/>
<line x1="247.066" y1="96.1885" x2="252.595" y2="101.717"/><line x1="247.066" y1="101.717" x2="252.595" y2="96.1885"/>
<line x1="247.066" y1="93.4549" x2="252.595" y2="98.9834"/><line x1="247.066" y1="98.9834" x2="252.595" y2="93.4549"/>
<line x1="247.066" y1="89.8101" x2="252.595" y2="95.3387"/><line x1="247.066" y1="95.3387" x2="252.595" y2="89.8101"/>
<line x1="247.066" y1="87.3803" x2="252.595" y2="92.9088"/><line x1="247.066" y1="92.9088" x2="252.595" y2="87.3803"/>
</g>
<path d="M279.689,155.356v -20.7144h 14.9291v 20.7144h -14.9291z" fill="#ffff00"/>
<path d="M279.689,155.356v -20.7144h 14.9291v 20.7144h -14.9291z" fill="none" stroke="black" stroke-width="2"/>
<path d="M279.689,104.268h 14.9291" fill="none" stroke="black" stroke-width="2"/>
<path d="M279.689,186.275h 14.9291" fill="none" stroke="black" stroke-width="2"/>
<path d="M287.154,104.268v 30.3731" fill="none" stroke="black" stroke-width="2"/>
<path d="M287.154,155.356v 30.9198" fill="none" stroke="black" stroke-width="2"/>
<path d="M279.689,145.272h 14.9291" fill="none" stroke="black" stroke-width="2"/>
<path d="M279.689,145.114h 14.9291" fill="none" stroke="black" stroke-width="2" stroke-dasharray=" 3, 3"/>
<path d="M279.689,186.275h 14.9291" fill="none" stroke="black" stroke-width="2"/>
<path d="M279.689,104.268h 14.9291" fill="none" stroke="black" stroke-width="2"/>
<g stroke="black" stroke-width="1" fill="none">
<line x1="284.389" y1="192.167" x2="289.918" y2="197.696"/><line x1="284.389" y1="197.696" x2="289.918" y2="192.167"/>
<line x1="284.389" y1="99.8333" x2="289.918" y2="105.362"/><line x1="284.389" y1="105.362" x2="289.918" y2="99.8333"/>
<line x1="284.389" y1="99.5295" x2="289.918" y2="105.058"/><line x1="284.389" y1="105.058" x2="289.918" y2="99.5295"/>
<line x1="284.389" y1="98.6183" x2="289.918" y2="104.147"/><line x1="284.389" y1="104.147" x2="289.918" y2="98.6183"/>
<line x1="284.389" y1="98.3146" x2="289.918" y2="103.843"/><line x1="284.389" y1="103.843" x2="289.918" y2="98.3146"/>
</g>
<path d="M317.012,160.762v -20.4801h 14.9291v 20.4801h -14.9291z" fill="#ffff00"/>
<path d="M317.012,160.762v -20.4801h 14.9291v 20.4801h -14.9291z" fill="none" stroke="black" stroke-width="2"/>
<path d="M317.012,109.431h 14.9291" fill="none" stroke="black" stroke-width="2"/>
<path d="M317.012,191.742h 14.9291" fill="none" stroke="black" stroke-width="2"/>
<path d="M324.476,109.431v 30.8504" fill="none" stroke="black" stroke-width="2"/>
<path d="M324.476,160.762v 30.9805" fill="none" stroke="black" stroke-width="2"/>
<path d="M317.012,150.8h 14.9291" fill="none" stroke="black" stroke-width="2"/>
<path d="M317.012,150.309h 14.9291" fill="none" stroke="black" stroke-width="2" stroke-dasharray=" 3, 3"/>
<path d="M317.012,191.742h 14.9291" fill="none" stroke="black" stroke-width="2"/>
<path d="M317.012,109.431h 14.9291" fill="none" stroke="black" stroke-width="2"/>
<g stroke="black" stroke-width="1" fill="none">
<line x1="321.712" y1="193.686" x2="327.241" y2="199.215"/><line x1="321.712" y1="199.215" x2="327.241" y2="193.686"/>
<line x1="321.712" y1="105.908" x2="327.241" y2="111.436"/><line x1="321.712" y1="111.436" x2="327.241" y2="105.908"/>
</g>
<path d="M354.335,166.776v -20.7954h 14.9291v 20.7954h -14.9291z" fill="#ffff00"/>
<path d="M354.335,166.776v -20.7954h 14.9291v 20.7954h -14.9291z" fill="none" stroke="black" stroke-width="2"/>
<path d="M354.335,114.899h 14.9291" fill="none" stroke="black" stroke-width="2"/>
<path d="M354.335,198.121h 14.9291" fill="none" stroke="black" stroke-width="2"/>
<path d="M361.799,114.899v 31.0818" fill="none" stroke="black" stroke-width="2"/>
<path d="M361.799,166.776v 31.345" fill="none" stroke="black" stroke-width="2"/>
<path d="M354.335,157.041h 14.9291" fill="none" stroke="black" stroke-width="2"/>
<path d="M354.335,156.524h 14.9291" fill="none" stroke="black" stroke-width="2" stroke-dasharray=" 3, 3"/>
<path d="M354.335,198.121h 14.9291" fill="none" stroke="black" stroke-width="2"/>
<path d="M354.335,114.899h 14.9291" fill="none" stroke="black" stroke-width="2"/>
<g stroke="black" stroke-width="1" fill="none">
<line x1="359.035" y1="198.849" x2="364.563" y2="204.378"/><line x1="359.035" y1="204.378" x2="364.563" y2="198.849"/>
<line x1="359.035" y1="197.938" x2="364.563" y2="203.467"/><line x1="359.035" y1="203.467" x2="364.563" y2="197.938"/>
<line x1="359.035" y1="111.071" x2="364.563" y2="116.6"/><line x1="359.035" y1="116.6" x2="364.563" y2="111.071"/>
<line x1="359.035" y1="101.048" x2="364.563" y2="106.577"/><line x1="359.035" y1="106.577" x2="364.563" y2="101.048"/>
</g>
<path d="M391.657,172.987v -19.4539h 14.9291v 19.4539h -14.9291z" fill="#ffff00"/>
<path d="M391.657,172.987v -19.4539h 14.9291v 19.4539h -14.9291z" fill="none" stroke="black" stroke-width="2"/>
<path d="M391.657,124.618h 14.9291" fill="none" stroke="black" stroke-width="2"/>
<path d="M391.657,199.336h 14.9291" fill="none" stroke="black" stroke-width="2"/>
<path d="M399.122,124.618v 28.9152" fill="none" stroke="black" stroke-width="2"/>
<path d="M399.122,172.987v 26.3486" fill="none" stroke="black" stroke-width="2"/>
<path d="M391.657,163.268h 14.9291" fill="none" stroke="black" stroke-width="2"/>
<path d="M391.657,163.572h 14.9291" fill="none" stroke="black" stroke-width="2" stroke-dasharray=" 3, 3"/>
<path d="M391.657,199.336h 14.9291" fill="none" stroke="black" stroke-width="2"/>
<path d="M391.657,124.618h 14.9291" fill="none" stroke="black" stroke-width="2"/>
<g stroke="black" stroke-width="1" fill="none">
<line x1="396.358" y1="208.873" x2="401.886" y2="214.401"/><line x1="396.358" y1="214.401" x2="401.886" y2="208.873"/>
<line x1="396.358" y1="207.05" x2="401.886" y2="212.579"/><line x1="396.358" y1="212.579" x2="401.886" y2="207.05"/>
<line x1="396.358" y1="201.982" x2="401.886" y2="207.51"/><line x1="396.358" y1="207.51" x2="401.886" y2="201.982"/>
<line x1="396.358" y1="201.75" x2="401.886" y2="207.278"/><line x1="396.358" y1="207.278" x2="401.886" y2="201.75"/>
<line x1="396.358" y1="121.094" x2="401.886" y2="126.623"/><line x1="396.358" y1="126.623" x2="401.886" y2="121.094"/>
<line x1="396.358" y1="119.879" x2="401.886" y2="125.408"/><line x1="396.358" y1="125.408" x2="401.886" y2="119.879"/>
<line x1="396.358" y1="111.982" x2="401.886" y2="117.511"/><line x1="396.358" y1="117.511" x2="401.886" y2="111.982"/>
</g>
<path d="M428.98,181.652v -20.1306h 14.9291v 20.1306h -14.9291z" fill="#ffff00"/>
<path d="M428.98,181.652v -20.1306h 14.9291v 20.1306h -14.9291z" fill="none" stroke="black" stroke-width="2"/>
<path d="M428.98,131.604h 14.9291" fill="none" stroke="black" stroke-width="2"/>
<path d="M428.98,208.448h 14.9291" fill="none" stroke="black" stroke-width="2"/>
<path d="M436.445,131.604v 29.9175" fill="none" stroke="black" stroke-width="2"/>
<path d="M436.445,181.652v 26.7958" fill="none" stroke="black" stroke-width="2"/>
<path d="M428.98,170.765h 14.9291" fill="none" stroke="black" stroke-width="2"/>
<path d="M428.98,171.311h 14.9291" fill="none" stroke="black" stroke-width="2" stroke-dasharray=" 3, 3"/>
<path d="M428.98,208.448h 14.9291" fill="none" stroke="black" stroke-width="2"/>
<path d="M428.98,131.604h 14.9291" fill="none" stroke="black" stroke-width="2"/>
<g stroke="black" stroke-width="1" fill="none">
<line x1="433.681" y1="213.429" x2="439.209" y2="218.957"/><line x1="433.681" y1="218.957" x2="439.209" y2="213.429"/>
<line x1="433.681" y1="211.606" x2="439.209" y2="217.135"/><line x1="433.681" y1="217.135" x2="439.209" y2="211.606"/>
<line x1="433.681" y1="127.776" x2="439.209" y2="133.305"/><line x1="433.681" y1="133.305" x2="439.209" y2="127.776"/>
<line x1="433.681" y1="127.169" x2="439.209" y2="132.698"/><line x1="433.681" y1="132.698" x2="439.209" y2="127.169"/>
<line x1="433.681" y1="125.043" x2="439.209" y2="130.571"/><line x1="433.681" y1="130.571" x2="439.209" y2="125.043"/>
<line x1="433.681" y1="124.132" x2="439.209" y2="129.66"/><line x1="433.681" y1="129.66" x2="439.209" y2="124.132"/>
</g>
<path d="M466.303,188.477v -19.0287h 14.9291v 19.0287h -14.9291z" fill="#ffff00"/>
<path d="M466.303,188.477v -19.0287h 14.9291v 19.0287h -14.9291z" fill="none" stroke="black" stroke-width="2"/>
<path d="M466.303,140.716h 14.9291" fill="none" stroke="black" stroke-width="2"/>
<path d="M466.303,216.952h 14.9291" fill="none" stroke="black" stroke-width="2"/>
<path d="M473.768,140.716v 28.7329" fill="none" stroke="black" stroke-width="2"/>
<path d="M473.768,188.477v 28.4747" fill="none" stroke="black" stroke-width="2"/>
<path d="M466.303,178.758h 14.9291" fill="none" stroke="black" stroke-width="2"/>
<path d="M466.303,179.289h 14.9291" fill="none" stroke="black" stroke-width="2" stroke-dasharray=" 3, 3"/>
<path d="M466.303,216.952h 14.9291" fill="none" stroke="black" stroke-width="2"/>
<path d="M466.303,140.716h 14.9291" fill="none" stroke="black" stroke-width="2"/>
<g stroke="black" stroke-width="1" fill="none">
<line x1="471.003" y1="224.059" x2="476.532" y2="229.588"/><line x1="471.003" y1="229.588" x2="476.532" y2="224.059"/>
<line x1="471.003" y1="220.111" x2="476.532" y2="225.639"/><line x1="471.003" y1="225.639" x2="476.532" y2="220.111"/>
<line x1="471.003" y1="219.199" x2="476.532" y2="224.728"/><line x1="471.003" y1="224.728" x2="476.532" y2="219.199"/>
<line x1="471.003" y1="216.162" x2="476.532" y2="221.691"/><line x1="471.003" y1="221.691" x2="476.532" y2="216.162"/>
<line x1="471.003" y1="215.251" x2="476.532" y2="220.779"/><line x1="471.003" y1="220.779" x2="476.532" y2="215.251"/>
<line x1="471.003" y1="214.947" x2="476.532" y2="220.476"/><line x1="471.003" y1="220.476" x2="476.532" y2="214.947"/>
<line x1="471.003" y1="137.591" x2="476.532" y2="143.119"/><line x1="471.003" y1="143.119" x2="476.532" y2="137.591"/>
<line x1="471.003" y1="137.359" x2="476.532" y2="142.887"/><line x1="471.003" y1="142.887" x2="476.532" y2="137.359"/>
<line x1="471.003" y1="135.977" x2="476.532" y2="141.506"/><line x1="471.003" y1="141.506" x2="476.532" y2="135.977"/>
<line x1="471.003" y1="134.155" x2="476.532" y2="139.683"/><line x1="471.003" y1="139.683" x2="476.532" y2="134.155"/>
<line x1="471.003" y1="128.688" x2="476.532" y2="134.216"/><line x1="471.003" y1="134.216" x2="476.532" y2="128.688"/>
</g>
<path d="M503.626,197.703v -20.4183h 14.9291v 20.4183h -14.9291z" fill="#ffff00"/>
<path d="M503.626,197.703v -20.4183h 14.9291v 20.4183h -14.9291z" fill="none" stroke="black" stroke-width="2"/>
<path d="M503.626,146.487h 14.9291" fill="none" stroke="black" stroke-width="2"/>
<path d="M503.626,226.671h 14.9291" fill="none" stroke="black" stroke-width="2"/>
<path d="M511.091,146.487v 30.7983" fill="none" stroke="black" stroke-width="2"/>
<path d="M511.091,197.703v 28.9683" fill="none" stroke="black" stroke-width="2"/>
<path d="M503.626,187.111h 14.9291" fill="none" stroke="black" stroke-width="2"/>
<path d="M503.626,187.104h 14.9291" fill="none" stroke="black" stroke-width="2" stroke-dasharray=" 3, 3"/>
<path d="M503.626,226.671h 14.9291" fill="none" stroke="black" stroke-width="2"/>
<path d="M503.626,146.487h 14.9291" fill="none" stroke="black" stroke-width="2"/>
<g stroke="black" stroke-width="1" fill="none">
<line x1="508.326" y1="233.475" x2="513.855" y2="239.003"/><line x1="508.326" y1="239.003" x2="513.855" y2="233.475"/>
<line x1="508.326" y1="231.956" x2="513.855" y2="237.485"/><line x1="508.326" y1="237.485" x2="513.855" y2="231.956"/>
<line x1="508.326" y1="228.615" x2="513.855" y2="234.144"/><line x1="508.326" y1="234.144" x2="513.855" y2="228.615"/>
<line x1="508.326" y1="143.362" x2="513.855" y2="148.89"/><line x1="508.326" y1="148.89" x2="513.855" y2="143.362"/>
<line x1="508.326" y1="143.13" x2="513.855" y2="148.658"/><line x1="508.326" y1="148.658" x2="513.855" y2="143.13"/>
<line x1="508.326" y1="140.229" x2="513.855" y2="145.758"/><line x1="508.326" y1="145.758" x2="513.855" y2="140.229"/>
<line x1="508.326" y1="139.622" x2="513.855" y2="145.151"/><line x1="508.326" y1="145.151" x2="513.855" y2="139.622"/>
<line x1="508.326" y1="138.711" x2="513.855" y2="144.239"/><line x1="508.326" y1="144.239" x2="513.855" y2="138.711"/>
<line x1="508.326" y1="136.888" x2="513.855" y2="142.417"/><line x1="508.326" y1="142.417" x2="513.855" y2="136.888"/>
</g>
<path d="M91.2087,322.954h 447.874" fill="none" stroke="black"/>
<path d="M91.2087,313.842v 9.11192" fill="none" stroke="black"/>
<path d="M165.854,313.842v 9.11192" fill="none" stroke="black"/>
<path d="M240.5,313.842v 9.11192" fill="none" stroke="black"/>
<path d="M315.146,313.842v 9.11192" fill="none" stroke="black"/>
<path d="M389.791,313.842v 9.11192" fill="none" stroke="black"/>
<path d="M464.437,313.842v 9.11192" fill="none" stroke="black"/>
<path d="M539.083,313.842v 9.11192" fill="none" stroke="black"/>
<text xml:space="preserve" x="55.8896" y="340.483" fill="black" font-size="18.1362" font-family="Helvetica">01/01/10
</text>
<text xml:space="preserve" x="130.829" y="340.483" fill="black" font-size="18.1362" font-family="Helvetica">02/03/10
</text>
<text xml:space="preserve" x="205.767" y="340.483" fill="black" font-size="18.1362" font-family="Helvetica">02/05/10
</text>
<text xml:space="preserve" x="279.892" y="340.483" fill="black" font-size="18.1362" font-family="Helvetica">02/07/10
</text>
<text xml:space="preserve" x="354.831" y="340.483" fill="black" font-size="18.1362" font-family="Helvetica">01/09/10
</text>
<text xml:space="preserve" x="429.77" y="340.483" fill="black" font-size="18.1362" font-family="Helvetica">01/11/10
</text>
<text xml:space="preserve" x="505.523" y="340.483" fill="black" font-size="18.1362" font-family="Helvetica">01/01/11
</text>
<text xml:space="preserve" x="363.791" y="371.436" fill="black" font-size="18.1362" font-family="Helvetica">Date [day/month/year]
</text>
<path d="M91.2087,19.2235h 447.874" fill="none" stroke="black"/>
<path d="M91.2087,28.3354v -9.11192" fill="none" stroke="black"/>
<path d="M165.854,28.3354v -9.11192" fill="none" stroke="black"/>
<path d="M240.5,28.3354v -9.11192" fill="none" stroke="black"/>
<path d="M315.146,28.3354v -9.11192" fill="none" stroke="black"/>
<path d="M389.791,28.3354v -9.11192" fill="none" stroke="black"/>
<path d="M464.437,28.3354v -9.11192" fill="none" stroke="black"/>
<path d="M539.083,28.3354v -9.11192" fill="none" stroke="black"/>
<path d="M91.2087,322.954v -303.731" fill="none" stroke="black"/>
<path d="M104.645,322.954h -13.4362" fill="none" stroke="black"/>
<path d="M97.9268,316.879h -6.71811" fill="none" stroke="black"/>
<path d="M97.9268,310.805h -6.71811" fill="none" stroke="black"/>
<path d="M97.9268,304.73h -6.71811" fill="none" stroke="black"/>
<path d="M97.9268,298.656h -6.71811" fill="none" stroke="black"/>
<path d="M104.645,292.581h -13.4362" fill="none" stroke="black"/>
<path d="M97.9268,286.506h -6.71811" fill="none" stroke="black"/>
<path d="M97.9268,280.432h -6.71811" fill="none" stroke="black"/>
<path d="M97.9268,274.357h -6.71811" fill="none" stroke="black"/>
<path d="M97.9268,268.283h -6.71811" fill="none" stroke="black"/>
<path d="M104.645,262.208h -13.4362" fill="none" stroke="black"/>
<path d="M97.9268,256.133h -6.71811" fill="none" stroke="black"/>
<path d="M97.9268,250.059h -6.71811" fill="none" stroke="black"/>
<path d="M97.9268,243.984h -6.71811" fill="none" stroke="black"/>
<path d="M97.9268,237.91h -6.71811" fill="none" stroke="black"/>
<path d="M104.645,231.835h -13.4362" fill="none" stroke="black"/>
<path d="M97.9268,225.76h -6.71811" fill="none" stroke="black"/>
<path d="M97.9268,219.686h -6.71811" fill="none" stroke="black"/>
<path d="M97.9268,213.611h -6.71811" fill="none" stroke="black"/>
<path d="M97.9268,207.536h -6.71811" fill="none" stroke="black"/>
<path d="M104.645,201.462h -13.4362" fill="none" stroke="black"/>
<path d="M97.9268,195.387h -6.71811" fill="none" stroke="black"/>
<path d="M97.9268,189.313h -6.71811" fill="none" stroke="black"/>
<path d="M97.9268,183.238h -6.71811" fill="none" stroke="black"/>
<path d="M97.9268,177.163h -6.71811" fill="none" stroke="black"/>
<path d="M104.645,171.089h -13.4362" fill="none" stroke="black"/>
<path d="M97.9268,165.014h -6.71811" fill="none" stroke="black"/>
<path d="M97.9268,158.94h -6.71811" fill="none" stroke="black"/>
<path d="M97.9268,152.865h -6.71811" fill="none" stroke="black"/>
<path d="M97.9268,146.79h -6.71811" fill="none" stroke="black"/>
<path d="M104.645,140.716h -13.4362" fill="none" stroke="black"/>
<path d="M97.9268,134.641h -6.71811" fill="none" stroke="black"/>
<path d="M97.9268,128.566h -6.71811" fill="none" stroke="black"/>
<path d="M97.9268,122.492h -6.71811" fill="none" stroke="black"/>
<path d="M97.9268,116.417h -6.71811" fill="none" stroke="black"/>
<path d="M104.645,110.343h -13.4362" fill="none" stroke="black"/>
<path d="M97.9268,104.268h -6.71811" fill="none" stroke="black"/>
<path d="M97.9268,98.1934h -6.71811" fill="none" stroke="black"/>
<path d="M97.9268,92.1188h -6.71811" fill="none" stroke="black"/>
<path d="M97.9268,86.0442h -6.71811" fill="none" stroke="black"/>
<path d="M104.645,79.9696h -13.4362" fill="none" stroke="black"/>
<path d="M97.9268,73.895h -6.71811" fill="none" stroke="black"/>
<path d="M97.9268,67.8204h -6.71811" fill="none" stroke="black"/>
<path d="M97.9268,61.7458h -6.71811" fill="none" stroke="black"/>
<path d="M97.9268,55.6711h -6.71811" fill="none" stroke="black"/>
<path d="M104.645,49.5965h -13.4362" fill="none" stroke="black"/>
<path d="M97.9268,43.5219h -6.71811" fill="none" stroke="black"/>
<path d="M97.9268,37.4473h -6.71811" fill="none" stroke="black"/>
<path d="M97.9268,31.3727h -6.71811" fill="none" stroke="black"/>
<path d="M97.9268,25.2981h -6.71811" fill="none" stroke="black"/>
<path d="M104.645,19.2235h -13.4362" fill="none" stroke="black"/>
<text xml:space="preserve" x="78.6971" y="329.08" fill="black" font-size="18.1362" font-family="Helvetica">0
</text>
<text xml:space="preserve" x="59.1478" y="298.941" fill="black" font-size="18.1362" font-family="Helvetica">100
</text>
<text xml:space="preserve" x="59.1478" y="268.803" fill="black" font-size="18.1362" font-family="Helvetica">200
</text>
<text xml:space="preserve" x="59.1478" y="238.664" fill="black" font-size="18.1362" font-family="Helvetica">300
</text>
<text xml:space="preserve" x="59.1478" y="207.711" fill="black" font-size="18.1362" font-family="Helvetica">400
</text>
<text xml:space="preserve" x="59.1478" y="177.573" fill="black" font-size="18.1362" font-family="Helvetica">500
</text>
<text xml:space="preserve" x="59.1478" y="147.434" fill="black" font-size="18.1362" font-family="Helvetica">600
</text>
<text xml:space="preserve" x="59.1478" y="116.481" fill="black" font-size="18.1362" font-family="Helvetica">700
</text>
<text xml:space="preserve" x="59.1478" y="86.3427" fill="black" font-size="18.1362" font-family="Helvetica">800
</text>
<text xml:space="preserve" x="59.1478" y="56.2042" fill="black" font-size="18.1362" font-family="Helvetica">900
</text>
<text xml:space="preserve" x="49.3732" y="26.0657" fill="black" font-size="18.1362" font-family="Helvetica">1000
</text>
<path d="M539.083,322.954v -303.731" fill="none" stroke="black"/>
<path d="M525.646,322.954h 13.4362" fill="none" stroke="black"/>
<path d="M532.365,316.879h 6.71811" fill="none" stroke="black"/>
<path d="M532.365,310.805h 6.71811" fill="none" stroke="black"/>
<path d="M532.365,304.73h 6.71811" fill="none" stroke="black"/>
<path d="M532.365,298.656h 6.71811" fill="none" stroke="black"/>
<path d="M525.646,292.581h 13.4362" fill="none" stroke="black"/>
<path d="M532.365,286.506h 6.71811" fill="none" stroke="black"/>
<path d="M532.365,280.432h 6.71811" fill="none" stroke="black"/>
<path d="M532.365,274.357h 6.71811" fill="none" stroke="black"/>
<path d="M532.365,268.283h 6.71811" fill="none" stroke="black"/>
<path d="M525.646,262.208h 13.4362" fill="none" stroke="black"/>
<path d="M532.365,256.133h 6.71811" fill="none" stroke="black"/>
<path d="M532.365,250.059h 6.71811" fill="none" stroke="black"/>
<path d="M532.365,243.984h 6.71811" fill="none" stroke="black"/>
<path d="M532.365,237.91h 6.71811" fill="none" stroke="black"/>
<path d="M525.646,231.835h 13.4362" fill="none" stroke="black"/>
<path d="M532.365,225.76h 6.71811" fill="none" stroke="black"/>
<path d="M532.365,219.686h 6.71811" fill="none" stroke="black"/>
<path d="M532.365,213.611h 6.71811" fill="none" stroke="black"/>
<path d="M532.365,207.536h 6.71811" fill="none" stroke="black"/>
<path d="M525.646,201.462h 13.4362" fill="none" stroke="black"/>
<path d="M532.365,195.387h 6.71811" fill="none" stroke="black"/>
<path d="M532.365,189.313h 6.71811" fill="none" stroke="black"/>
<path d="M532.365,183.238h 6.71811" fill="none" stroke="black"/>
<path d="M532.365,177.163h 6.71811" fill="none" stroke="black"/>
<path d="M525.646,171.089h 13.4362" fill="none" stroke="black"/>
<path d="M532.365,165.014h 6.71811" fill="none" stroke="black"/>
<path d="M532.365,158.94h 6.71811" fill="none" stroke="black"/>
<path d="M532.365,152.865h 6.71811" fill="none" stroke="black"/>
<path d="M532.365,146.79h 6.71811" fill="none" stroke="black"/>
<path d="M525.646,140.716h 13.4362" fill="none" stroke="black"/>
<path d="M532.365,134.641h 6.71811" fill="none" stroke="black"/>
<path d="M532.365,128.566h 6.71811" fill="none" stroke="black"/>
<path d="M532.365,122.492h 6.71811" fill="none" stroke="black"/>
<path d="M532.365,116.417h 6.71811" fill="none" stroke="black"/>
<path d="M525.646,110.343h 13.4362" fill="none" stroke="black"/>
<path d="M532.365,104.268h 6.71811" fill="none" stroke="black"/>
<path d="M532.365,98.1934h 6.71811" fill="none" stroke="black"/>
<path d="M532.365,92.1188h 6.71811" fill="none" stroke="black"/>
<path d="M532.365,86.0442h 6.71811" fill="none" stroke="black"/>
<path d="M525.646,79.9696h 13.4362" fill="none" stroke="black"/>
<path d="M532.365,73.895h 6.71811" fill="none" stroke="black"/>
<path d="M532.365,67.8204h 6.71811" fill="none" stroke="black"/>
<path d="M532.365,61.7458h 6.71811" fill="none" stroke="black"/>
<path d="M532.365,55.6711h 6.71811" fill="none" stroke="black"/>
<path d="M525.646,49.5965h 13.4362" fill="none" stroke="black"/>
<path d="M532.365,43.5219h 6.71811" fill="none" stroke="black"/>
<path d="M532.365,37.4473h 6.71811" fill="none" stroke="black"/>
<path d="M532.365,31.3727h 6.71811" fill="none" stroke="black"/>
<path d="M532.365,25.2981h 6.71811" fill="none" stroke="black"/>
<path d="M525.646,19.2235h 13.4362" fill="none" stroke="black"/>
<path d="M111.736,154.948v -28.5579h 14.9291v 28.5579h -14.9291z" fill="#00ff00"/>
<path d="M111.736,154.948v -28.5579h 14.9291v 28.5579h -14.9291z" fill="none" stroke="#ff0000" stroke-width="2"/>
<path d="M111.736,84.5256h 14.9291" fill="none" stroke="#ff0000" stroke-width="2"/>
<path d="M111.736,197.513h 14.9291" fill="none" stroke="#ff0000" stroke-width="2"/>
<path d="M119.201,84.5256v 41.8642" fill="none" stroke="#ff0000" stroke-width="2"/>
<path d="M119.201,154.948v 42.5657" fill="none" stroke="#ff0000" stroke-width="2"/>
<path d="M111.736,140.556h 14.9291" fill="none" stroke="#ff0000" stroke-width="2"/>
<g stroke="#ff0000" stroke-width="1" fill="none">
<circle cx="119.201" cy="140.493" r="3.90986"/>
</g>
<path d="M111.736,197.513h 14.9291" fill="none" stroke="#ff0000" stroke-width="2"/>
<path d="M111.736,84.5256h 14.9291" fill="none" stroke="#ff0000" stroke-width="2"/>
<g stroke="#ff0000" stroke-width="1" fill="none">
<line x1="116.437" y1="218.896" x2="121.965" y2="224.424"/><line x1="116.437" y1="224.424" x2="121.965" y2="218.896"/>
<line x1="116.437" y1="206.443" x2="121.965" y2="211.971"/><line x1="116.437" y1="211.971" x2="121.965" y2="206.443"/>
<line x1="116.437" y1="197.938" x2="121.965" y2="203.467"/><line x1="116.437" y1="203.467" x2="121.965" y2="197.938"/>
<line x1="116.437" y1="195.812" x2="121.965" y2="201.341"/><line x1="116.437" y1="201.341" x2="121.965" y2="195.812"/>
<line x1="116.437" y1="195.508" x2="121.965" y2="201.037"/><line x1="116.437" y1="201.037" x2="121.965" y2="195.508"/>
<line x1="116.437" y1="77.3572" x2="121.965" y2="82.8857"/><line x1="116.437" y1="82.8857" x2="121.965" y2="77.3572"/>
<line x1="116.437" y1="76.1423" x2="121.965" y2="81.6708"/><line x1="116.437" y1="81.6708" x2="121.965" y2="76.1423"/>
<line x1="116.437" y1="74.9273" x2="121.965" y2="80.4559"/><line x1="116.437" y1="80.4559" x2="121.965" y2="74.9273"/>
<line x1="116.437" y1="67.0303" x2="121.965" y2="72.5589"/><line x1="116.437" y1="72.5589" x2="121.965" y2="67.0303"/>
<line x1="116.437" y1="65.8154" x2="121.965" y2="71.344"/><line x1="116.437" y1="71.344" x2="121.965" y2="65.8154"/>
<line x1="116.437" y1="63.0818" x2="121.965" y2="68.6104"/><line x1="116.437" y1="68.6104" x2="121.965" y2="63.0818"/>
</g>
<path d="M149.059,160.762v -28.6266h 14.9291v 28.6266h -14.9291z" fill="#00ff00"/>
<path d="M149.059,160.762v -28.6266h 14.9291v 28.6266h -14.9291z" fill="none" stroke="#ff0000" stroke-width="2"/>
<path d="M149.059,89.3852h 14.9291" fill="none" stroke="#ff0000" stroke-width="2"/>
<path d="M149.059,201.158h 14.9291" fill="none" stroke="#ff0000" stroke-width="2"/>
<path d="M156.524,89.3852v 42.7501" fill="none" stroke="#ff0000" stroke-width="2"/>
<path d="M156.524,160.762v 40.3962" fill="none" stroke="#ff0000" stroke-width="2"/>
<path d="M149.059,146.069h 14.9291" fill="none" stroke="#ff0000" stroke-width="2"/>
<g stroke="#ff0000" stroke-width="1" fill="none">
<circle cx="156.524" cy="146.138" r="3.90986"/>
</g>
<path d="M149.059,201.158h 14.9291" fill="none" stroke="#ff0000" stroke-width="2"/>
<path d="M149.059,89.3852h 14.9291" fill="none" stroke="#ff0000" stroke-width="2"/>
<g stroke="#ff0000" stroke-width="1" fill="none">
<line x1="153.759" y1="201.583" x2="159.288" y2="207.112"/><line x1="153.759" y1="207.112" x2="159.288" y2="201.583"/>
<line x1="153.759" y1="85.2542" x2="159.288" y2="90.7827"/><line x1="153.759" y1="90.7827" x2="159.288" y2="85.2542"/>
<line x1="153.759" y1="68.8527" x2="159.288" y2="74.3813"/><line x1="153.759" y1="74.3813" x2="159.288" y2="68.8527"/>
<line x1="153.759" y1="57.311" x2="159.288" y2="62.8395"/><line x1="153.759" y1="62.8395" x2="159.288" y2="57.311"/>
</g>
<path d="M186.382,165.698v -29.9023h 14.9291v 29.9023h -14.9291z" fill="#00ff00"/>
<path d="M186.382,165.698v -29.9023h 14.9291v 29.9023h -14.9291z" fill="none" stroke="#ff0000" stroke-width="2"/>
<path d="M186.382,90.9039h 14.9291" fill="none" stroke="#ff0000" stroke-width="2"/>
<path d="M186.382,208.751h 14.9291" fill="none" stroke="#ff0000" stroke-width="2"/>
<path d="M193.846,90.9039v 44.8914" fill="none" stroke="#ff0000" stroke-width="2"/>
<path d="M193.846,165.698v 43.0538" fill="none" stroke="#ff0000" stroke-width="2"/>
<path d="M186.382,150.967h 14.9291" fill="none" stroke="#ff0000" stroke-width="2"/>
<g stroke="#ff0000" stroke-width="1" fill="none">
<circle cx="193.846" cy="150.578" r="3.90986"/>
</g>
<path d="M186.382,208.751h 14.9291" fill="none" stroke="#ff0000" stroke-width="2"/>
<path d="M186.382,90.9039h 14.9291" fill="none" stroke="#ff0000" stroke-width="2"/>
<g stroke="#ff0000" stroke-width="1" fill="none">
<line x1="191.082" y1="215.555" x2="196.611" y2="221.083"/><line x1="191.082" y1="221.083" x2="196.611" y2="215.555"/>
<line x1="191.082" y1="87.3803" x2="196.611" y2="92.9088"/><line x1="191.082" y1="92.9088" x2="196.611" y2="87.3803"/>
<line x1="191.082" y1="86.1654" x2="196.611" y2="91.6939"/><line x1="191.082" y1="91.6939" x2="196.611" y2="86.1654"/>
<line x1="191.082" y1="85.2542" x2="196.611" y2="90.7827"/><line x1="191.082" y1="90.7827" x2="196.611" y2="85.2542"/>
<line x1="191.082" y1="76.1423" x2="196.611" y2="81.6708"/><line x1="191.082" y1="81.6708" x2="196.611" y2="76.1423"/>
</g>
<path d="M223.705,170.583v -28.2976h 14.9291v 28.2976h -14.9291z" fill="#00ff00"/>
<path d="M223.705,170.583v -28.2976h 14.9291v 28.2976h -14.9291z" fill="none" stroke="#ff0000" stroke-width="2"/>
<path d="M223.705,100.623h 14.9291" fill="none" stroke="#ff0000" stroke-width="2"/>
<path d="M223.705,213.004h 14.9291" fill="none" stroke="#ff0000" stroke-width="2"/>
<path d="M231.169,100.623v 41.6617" fill="none" stroke="#ff0000" stroke-width="2"/>
<path d="M231.169,170.583v 42.421" fill="none" stroke="#ff0000" stroke-width="2"/>
<path d="M223.705,156.358h 14.9291" fill="none" stroke="#ff0000" stroke-width="2"/>
<g stroke="#ff0000" stroke-width="1" fill="none">
<circle cx="231.169" cy="156.161" r="3.90986"/>
</g>
<path d="M223.705,213.004h 14.9291" fill="none" stroke="#ff0000" stroke-width="2"/>
<path d="M223.705,100.623h 14.9291" fill="none" stroke="#ff0000" stroke-width="2"/>
<g stroke="#ff0000" stroke-width="1" fill="none">
<line x1="228.405" y1="232.867" x2="233.934" y2="238.396"/><line x1="228.405" y1="238.396" x2="233.934" y2="232.867"/>
<line x1="228.405" y1="228.919" x2="233.934" y2="234.447"/><line x1="228.405" y1="234.447" x2="233.934" y2="228.919"/>
<line x1="228.405" y1="221.933" x2="233.934" y2="227.462"/><line x1="228.405" y1="227.462" x2="233.934" y2="221.933"/>
<line x1="228.405" y1="219.503" x2="233.934" y2="225.032"/><line x1="228.405" y1="225.032" x2="233.934" y2="219.503"/>
<line x1="228.405" y1="215.555" x2="233.934" y2="221.083"/><line x1="228.405" y1="221.083" x2="233.934" y2="215.555"/>
<line x1="228.405" y1="214.947" x2="233.934" y2="220.476"/><line x1="228.405" y1="220.476" x2="233.934" y2="214.947"/>
<line x1="228.405" y1="211.302" x2="233.934" y2="216.831"/><line x1="228.405" y1="216.831" x2="233.934" y2="211.302"/>
<line x1="228.405" y1="88.2915" x2="233.934" y2="93.82"/><line x1="228.405" y1="93.82" x2="233.934" y2="88.2915"/>
</g>
<path d="M261.028,176.404v -29.4922h 14.9291v 29.4922h -14.9291z" fill="#00ff00"/>
<path d="M261.028,176.404v -29.4922h 14.9291v 29.4922h -14.9291z" fill="none" stroke="#ff0000" stroke-width="2"/>
<path d="M261.028,108.824h 14.9291" fill="none" stroke="#ff0000" stroke-width="2"/>
<path d="M261.028,219.989h 14.9291" fill="none" stroke="#ff0000" stroke-width="2"/>
<path d="M268.492,108.824v 38.0878" fill="none" stroke="#ff0000" stroke-width="2"/>
<path d="M268.492,176.404v 43.5854" fill="none" stroke="#ff0000" stroke-width="2"/>
<path d="M261.028,162.194h 14.9291" fill="none" stroke="#ff0000" stroke-width="2"/>
<g stroke="#ff0000" stroke-width="1" fill="none">
<circle cx="268.492" cy="161.653" r="3.90986"/>
</g>
<path d="M261.028,219.989h 14.9291" fill="none" stroke="#ff0000" stroke-width="2"/>
<path d="M261.028,108.824h 14.9291" fill="none" stroke="#ff0000" stroke-width="2"/>
<g stroke="#ff0000" stroke-width="1" fill="none">
<line x1="265.728" y1="232.564" x2="271.256" y2="238.092"/><line x1="265.728" y1="238.092" x2="271.256" y2="232.564"/>
<line x1="265.728" y1="223.452" x2="271.256" y2="228.98"/><line x1="265.728" y1="228.98" x2="271.256" y2="223.452"/>
<line x1="265.728" y1="220.414" x2="271.256" y2="225.943"/><line x1="265.728" y1="225.943" x2="271.256" y2="220.414"/>
<line x1="265.728" y1="218.288" x2="271.256" y2="223.817"/><line x1="265.728" y1="223.817" x2="271.256" y2="218.288"/>
<line x1="265.728" y1="99.6246" x2="271.256" y2="105.153"/><line x1="265.728" y1="105.153" x2="271.256" y2="99.6246"/>
<line x1="265.728" y1="99.3925" x2="271.256" y2="104.921"/><line x1="265.728" y1="104.921" x2="271.256" y2="99.3925"/>
<line x1="265.728" y1="91.6325" x2="271.256" y2="97.1611"/><line x1="265.728" y1="97.1611" x2="271.256" y2="91.6325"/>
<line x1="265.728" y1="91.0251" x2="271.256" y2="96.5536"/><line x1="265.728" y1="96.5536" x2="271.256" y2="91.0251"/>
<line x1="265.728" y1="89.8101" x2="271.256" y2="95.3387"/><line x1="265.728" y1="95.3387" x2="271.256" y2="89.8101"/>
<line x1="265.728" y1="89.5064" x2="271.256" y2="95.035"/><line x1="265.728" y1="95.035" x2="271.256" y2="89.5064"/>
<line x1="265.728" y1="88.8989" x2="271.256" y2="94.4275"/><line x1="265.728" y1="94.4275" x2="271.256" y2="88.8989"/>
<line x1="265.728" y1="87.684" x2="271.256" y2="93.2126"/><line x1="265.728" y1="93.2126" x2="271.256" y2="87.684"/>
<line x1="265.728" y1="86.4691" x2="271.256" y2="91.9976"/><line x1="265.728" y1="91.9976" x2="271.256" y2="86.4691"/>
</g>
<path d="M298.35,184.301v -30.3731h 14.9291v 30.3731h -14.9291z" fill="#00ff00"/>
<path d="M298.35,184.301v -30.3731h 14.9291v 30.3731h -14.9291z" fill="none" stroke="#ff0000" stroke-width="2"/>
<path d="M298.35,110.343h 14.9291" fill="none" stroke="#ff0000" stroke-width="2"/>
<path d="M298.35,228.19h 14.9291" fill="none" stroke="#ff0000" stroke-width="2"/>
<path d="M305.815,110.343v 43.5854" fill="none" stroke="#ff0000" stroke-width="2"/>
<path d="M305.815,184.301v 43.8891" fill="none" stroke="#ff0000" stroke-width="2"/>
<path d="M298.35,168.963h 14.9291" fill="none" stroke="#ff0000" stroke-width="2"/>
<g stroke="#ff0000" stroke-width="1" fill="none">
<circle cx="305.815" cy="168.759" r="3.90986"/>
</g>
<path d="M298.35,228.19h 14.9291" fill="none" stroke="#ff0000" stroke-width="2"/>
<path d="M298.35,110.343h 14.9291" fill="none" stroke="#ff0000" stroke-width="2"/>
<g stroke="#ff0000" stroke-width="1" fill="none">
<line x1="303.051" y1="234.993" x2="308.579" y2="240.522"/><line x1="303.051" y1="240.522" x2="308.579" y2="234.993"/>
<line x1="303.051" y1="100.744" x2="308.579" y2="106.273"/><line x1="303.051" y1="106.273" x2="308.579" y2="100.744"/>
</g>
<path d="M335.673,190.376v -27.9432h 14.9291v 27.9432h -14.9291z" fill="#00ff00"/>
<path d="M335.673,190.376v -27.9432h 14.9291v 27.9432h -14.9291z" fill="none" stroke="#ff0000" stroke-width="2"/>
<path d="M335.673,123.403h 14.9291" fill="none" stroke="#ff0000" stroke-width="2"/>
<path d="M335.673,231.835h 14.9291" fill="none" stroke="#ff0000" stroke-width="2"/>
<path d="M343.138,123.403v 39.0294" fill="none" stroke="#ff0000" stroke-width="2"/>
<path d="M343.138,190.376v 41.4592" fill="none" stroke="#ff0000" stroke-width="2"/>
<path d="M335.673,176.586h 14.9291" fill="none" stroke="#ff0000" stroke-width="2"/>
<g stroke="#ff0000" stroke-width="1" fill="none">
<circle cx="343.138" cy="176.389" r="3.90986"/>
</g>
<path d="M335.673,231.835h 14.9291" fill="none" stroke="#ff0000" stroke-width="2"/>
<path d="M335.673,123.403h 14.9291" fill="none" stroke="#ff0000" stroke-width="2"/>
<g stroke="#ff0000" stroke-width="1" fill="none">
<line x1="340.374" y1="238.334" x2="345.902" y2="243.863"/><line x1="340.374" y1="243.863" x2="345.902" y2="238.334"/>
<line x1="340.374" y1="236.208" x2="345.902" y2="241.737"/><line x1="340.374" y1="241.737" x2="345.902" y2="236.208"/>
<line x1="340.374" y1="235.297" x2="345.902" y2="240.826"/><line x1="340.374" y1="240.826" x2="345.902" y2="235.297"/>
<line x1="340.374" y1="231.652" x2="345.902" y2="237.181"/><line x1="340.374" y1="237.181" x2="345.902" y2="231.652"/>
<line x1="340.374" y1="231.045" x2="345.902" y2="236.573"/><line x1="340.374" y1="236.573" x2="345.902" y2="231.045"/>
<line x1="340.374" y1="115.324" x2="345.902" y2="120.852"/><line x1="340.374" y1="120.852" x2="345.902" y2="115.324"/>
<line x1="340.374" y1="114.109" x2="345.902" y2="119.637"/><line x1="340.374" y1="119.637" x2="345.902" y2="114.109"/>
<line x1="340.374" y1="112.59" x2="345.902" y2="118.118"/><line x1="340.374" y1="118.118" x2="345.902" y2="112.59"/>
<line x1="340.374" y1="109.856" x2="345.902" y2="115.385"/><line x1="340.374" y1="115.385" x2="345.902" y2="109.856"/>
<line x1="340.374" y1="107.427" x2="345.902" y2="112.955"/><line x1="340.374" y1="112.955" x2="345.902" y2="107.427"/>
<line x1="340.374" y1="101.352" x2="345.902" y2="106.88"/><line x1="340.374" y1="106.88" x2="345.902" y2="101.352"/>
<line x1="340.374" y1="96.7959" x2="345.902" y2="102.324"/><line x1="340.374" y1="102.324" x2="345.902" y2="96.7959"/>
</g>
<path d="M372.996,197.547v -29.04h 14.9291v 29.04h -14.9291z" fill="#00ff00"/>
<path d="M372.996,197.547v -29.04h 14.9291v 29.04h -14.9291z" fill="none" stroke="#ff0000" stroke-width="2"/>
<path d="M372.996,129.781h 14.9291" fill="none" stroke="#ff0000" stroke-width="2"/>
<path d="M372.996,239.732h 14.9291" fill="none" stroke="#ff0000" stroke-width="2"/>
<path d="M380.461,129.781v 38.7257" fill="none" stroke="#ff0000" stroke-width="2"/>
<path d="M380.461,197.547v 42.1848" fill="none" stroke="#ff0000" stroke-width="2"/>
<path d="M372.996,182.266h 14.9291" fill="none" stroke="#ff0000" stroke-width="2"/>
<g stroke="#ff0000" stroke-width="1" fill="none">
<circle cx="380.461" cy="182.724" r="3.90986"/>
</g>
<path d="M372.996,239.732h 14.9291" fill="none" stroke="#ff0000" stroke-width="2"/>
<path d="M372.996,129.781h 14.9291" fill="none" stroke="#ff0000" stroke-width="2"/>
<g stroke="#ff0000" stroke-width="1" fill="none">
<line x1="377.696" y1="245.624" x2="383.225" y2="251.152"/><line x1="377.696" y1="251.152" x2="383.225" y2="245.624"/>
<line x1="377.696" y1="121.702" x2="383.225" y2="127.23"/><line x1="377.696" y1="127.23" x2="383.225" y2="121.702"/>
<line x1="377.696" y1="118.665" x2="383.225" y2="124.193"/><line x1="377.696" y1="124.193" x2="383.225" y2="118.665"/>
<line x1="377.696" y1="118.361" x2="383.225" y2="123.889"/><line x1="377.696" y1="123.889" x2="383.225" y2="118.361"/>
<line x1="377.696" y1="118.152" x2="383.225" y2="123.681"/><line x1="377.696" y1="123.681" x2="383.225" y2="118.152"/>
<line x1="377.696" y1="117.92" x2="383.225" y2="123.449"/><line x1="377.696" y1="123.449" x2="383.225" y2="117.92"/>
<line x1="377.696" y1="111.679" x2="383.225" y2="117.207"/><line x1="377.696" y1="117.207" x2="383.225" y2="111.679"/>
</g>
<path d="M410.319,203.149v -28.112h 14.9291v 28.112h -14.9291z" fill="#00ff00"/>
<path d="M410.319,203.149v -28.112h 14.9291v 28.112h -14.9291z" fill="none" stroke="#ff0000" stroke-width="2"/>
<path d="M410.319,133.426h 14.9291" fill="none" stroke="#ff0000" stroke-width="2"/>
<path d="M410.319,243.984h 14.9291" fill="none" stroke="#ff0000" stroke-width="2"/>
<path d="M417.783,133.426v 41.6111" fill="none" stroke="#ff0000" stroke-width="2"/>
<path d="M417.783,203.149v 40.8349" fill="none" stroke="#ff0000" stroke-width="2"/>
<path d="M410.319,189.506h 14.9291" fill="none" stroke="#ff0000" stroke-width="2"/>
<g stroke="#ff0000" stroke-width="1" fill="none">
<circle cx="417.783" cy="189.277" r="3.90986"/>
</g>
<path d="M410.319,243.984h 14.9291" fill="none" stroke="#ff0000" stroke-width="2"/>
<path d="M410.319,133.426h 14.9291" fill="none" stroke="#ff0000" stroke-width="2"/>
<g stroke="#ff0000" stroke-width="1" fill="none">
<line x1="415.019" y1="247.143" x2="420.548" y2="252.671"/><line x1="415.019" y1="252.671" x2="420.548" y2="247.143"/>
<line x1="415.019" y1="246.839" x2="420.548" y2="252.367"/><line x1="415.019" y1="252.367" x2="420.548" y2="246.839"/>
<line x1="415.019" y1="245.017" x2="420.548" y2="250.545"/><line x1="415.019" y1="250.545" x2="420.548" y2="245.017"/>
<line x1="415.019" y1="244.105" x2="420.548" y2="249.634"/><line x1="415.019" y1="249.634" x2="420.548" y2="244.105"/>
<line x1="415.019" y1="126.258" x2="420.548" y2="131.786"/><line x1="415.019" y1="131.786" x2="420.548" y2="126.258"/>
</g>
<path d="M447.642,207.739v -28.1457h 14.9291v 28.1457h -14.9291z" fill="#00ff00"/>
<path d="M447.642,207.739v -28.1457h 14.9291v 28.1457h -14.9291z" fill="none" stroke="#ff0000" stroke-width="2"/>
<path d="M447.642,140.108h 14.9291" fill="none" stroke="#ff0000" stroke-width="2"/>
<path d="M447.642,248.844h 14.9291" fill="none" stroke="#ff0000" stroke-width="2"/>
<path d="M455.106,140.108v 39.485" fill="none" stroke="#ff0000" stroke-width="2"/>
<path d="M455.106,207.739v 41.1049" fill="none" stroke="#ff0000" stroke-width="2"/>
<path d="M447.642,193.413h 14.9291" fill="none" stroke="#ff0000" stroke-width="2"/>
<g stroke="#ff0000" stroke-width="1" fill="none">
<circle cx="455.106" cy="193.777" r="3.90986"/>
</g>
<path d="M447.642,248.844h 14.9291" fill="none" stroke="#ff0000" stroke-width="2"/>
<path d="M447.642,140.108h 14.9291" fill="none" stroke="#ff0000" stroke-width="2"/>
<g stroke="#ff0000" stroke-width="1" fill="none">
<line x1="452.342" y1="263.639" x2="457.871" y2="269.168"/><line x1="452.342" y1="269.168" x2="457.871" y2="263.639"/>
<line x1="452.342" y1="263.407" x2="457.871" y2="268.936"/><line x1="452.342" y1="268.936" x2="457.871" y2="263.407"/>
<line x1="452.342" y1="255.04" x2="457.871" y2="260.568"/><line x1="452.342" y1="260.568" x2="457.871" y2="255.04"/>
<line x1="452.342" y1="250.484" x2="457.871" y2="256.012"/><line x1="452.342" y1="256.012" x2="457.871" y2="250.484"/>
<line x1="452.342" y1="248.054" x2="457.871" y2="253.582"/><line x1="452.342" y1="253.582" x2="457.871" y2="248.054"/>
<line x1="452.342" y1="130.814" x2="457.871" y2="136.342"/><line x1="452.342" y1="136.342" x2="457.871" y2="130.814"/>
<line x1="452.342" y1="127.776" x2="457.871" y2="133.305"/><line x1="452.342" y1="133.305" x2="457.871" y2="127.776"/>
</g>
<path d="M484.965,215.585v -30.2212h 14.9291v 30.2212h -14.9291z" fill="#00ff00"/>
<path d="M484.965,215.585v -30.2212h 14.9291v 30.2212h -14.9291z" fill="none" stroke="#ff0000" stroke-width="2"/>
<path d="M484.965,142.538h 14.9291" fill="none" stroke="#ff0000" stroke-width="2"/>
<path d="M484.965,258.867h 14.9291" fill="none" stroke="#ff0000" stroke-width="2"/>
<path d="M492.429,142.538v 42.826" fill="none" stroke="#ff0000" stroke-width="2"/>
<path d="M492.429,215.585v 43.2816" fill="none" stroke="#ff0000" stroke-width="2"/>
<path d="M484.965,201.071h 14.9291" fill="none" stroke="#ff0000" stroke-width="2"/>
<g stroke="#ff0000" stroke-width="1" fill="none">
<circle cx="492.429" cy="200.56" r="3.90986"/>
</g>
<path d="M484.965,258.867h 14.9291" fill="none" stroke="#ff0000" stroke-width="2"/>
<path d="M484.965,142.538h 14.9291" fill="none" stroke="#ff0000" stroke-width="2"/>
<g stroke="#ff0000" stroke-width="1" fill="none">
<line x1="489.665" y1="264.152" x2="495.193" y2="269.68"/><line x1="489.665" y1="269.68" x2="495.193" y2="264.152"/>
<line x1="489.665" y1="259.292" x2="495.193" y2="264.82"/><line x1="489.665" y1="264.82" x2="495.193" y2="259.292"/>
<line x1="489.665" y1="258.684" x2="495.193" y2="264.213"/><line x1="489.665" y1="264.213" x2="495.193" y2="258.684"/>
<line x1="489.665" y1="135.37" x2="495.193" y2="140.898"/><line x1="489.665" y1="140.898" x2="495.193" y2="135.37"/>
<line x1="489.665" y1="133.851" x2="495.193" y2="139.38"/><line x1="489.665" y1="139.38" x2="495.193" y2="133.851"/>
</g>
<path d="M522.287,215.332v -29.8162h 14.9291v 29.8162h -14.9291z" fill="#00ff00"/>
<path d="M522.287,215.332v -29.8162h 14.9291v 29.8162h -14.9291z" fill="none" stroke="#ff0000" stroke-width="2"/>
<path d="M522.287,141.019h 14.9291" fill="none" stroke="#ff0000" stroke-width="2"/>
<path d="M522.287,256.437h 14.9291" fill="none" stroke="#ff0000" stroke-width="2"/>
<path d="M529.752,141.019v 44.4965" fill="none" stroke="#ff0000" stroke-width="2"/>
<path d="M529.752,215.332v 41.1049" fill="none" stroke="#ff0000" stroke-width="2"/>
<path d="M522.287,200.854h 14.9291" fill="none" stroke="#ff0000" stroke-width="2"/>
<g stroke="#ff0000" stroke-width="1" fill="none">
<circle cx="529.752" cy="200.488" r="3.90986"/>
</g>
<path d="M522.287,256.437h 14.9291" fill="none" stroke="#ff0000" stroke-width="2"/>
<path d="M522.287,141.019h 14.9291" fill="none" stroke="#ff0000" stroke-width="2"/>
<g stroke="#ff0000" stroke-width="1" fill="none">
<line x1="526.988" y1="270.834" x2="532.516" y2="276.362"/><line x1="526.988" y1="276.362" x2="532.516" y2="270.834"/>
<line x1="526.988" y1="257.773" x2="532.516" y2="263.302"/><line x1="526.988" y1="263.302" x2="532.516" y2="257.773"/>
<line x1="526.988" y1="134.554" x2="532.516" y2="140.082"/><line x1="526.988" y1="140.082" x2="532.516" y2="134.554"/>
<line x1="526.988" y1="134.322" x2="532.516" y2="139.85"/><line x1="526.988" y1="139.85" x2="532.516" y2="134.322"/>
<line x1="526.988" y1="115.02" x2="532.516" y2="120.548"/><line x1="526.988" y1="120.548" x2="532.516" y2="115.02"/>
</g>
<rect x="442.705" y="24.9905" width="113.386" height="92.2726" fill="white"/>
<path d="M447.592,117.263v 3.25821h 111.757v -90.6435h -3.25821v 87.3853z" fill="black"/>
<path d="M442.705,117.263v -92.2726h 113.386v 92.2726h -113.386z" fill="none" stroke="black"/>
<text xml:space="preserve" x="471.312" y="52.1314" fill="black" font-size="9.3277" font-family="Helvetica" font-weight="bold">Machine A + B
</text>
<path d="M446.957,64.2064h 19.8425v -32.2954h -19.8425z" fill="#ffff00"/>
<path d="M446.957,31.9109h 19.8425" fill="none" stroke="black" stroke-width="2"/>
<path d="M446.957,64.2064h 19.8425" fill="none" stroke="black" stroke-width="2"/>
<path d="M466.799,64.2064v -32.2954" fill="none" stroke="black" stroke-width="2"/>
<path d="M446.957,64.2064v -32.2954" fill="none" stroke="black" stroke-width="2"/>
<text xml:space="preserve" x="471.312" y="98.561" fill="black" font-size="9.3277" font-family="Helvetica" font-weight="bold">Machine B
</text>
<path d="M446.957,110.343h 19.8425v -32.2954h -19.8425z" fill="#00ff00"/>
<path d="M446.957,78.0472h 19.8425" fill="none" stroke="#ff0000" stroke-width="2"/>
<path d="M446.957,110.343h 19.8425" fill="none" stroke="#ff0000" stroke-width="2"/>
<path d="M466.799,110.343v -32.2954" fill="none" stroke="#ff0000" stroke-width="2"/>
<path d="M446.957,110.343v -32.2954" fill="none" stroke="#ff0000" stroke-width="2"/></svg>
