<?xml version="1.0" standalone="no"?>
<svg width="567.429" height="384.969" viewBox="0 0 567.429 384.969" xmlns="http://www.w3.org/2000/svg" shape-rendering="crispEdges">
<title>
./old_svg_ref/candleplot.svg
</title>
<desc>
Creator: ROOT Version 6.33/01
CreationDate: Fri Jun  7 10:44:11 2024</desc>
<defs>
</defs>
<rect x="0.5" y="0" width="566.929" height="384.469" fill="white"/>
<rect x="57.1929" y="38.4469" width="453.543" height="307.575" fill="white"/>
<rect x="57.1929" y="38.4469" width="453.543" height="307.575" fill="none" stroke="black"/>
<path d="M59.0827,182.681v -21.1755h 15.1181v 21.1755h -15.1181z" fill="#ffff00"/>
<path d="M59.0827,182.681v -21.1755h 15.1181v 21.1755h -15.1181z" fill="none" stroke="#000099"/>
<path d="M59.0827,129.489h 15.1181" fill="none" stroke="#000099"/>
<path d="M59.0827,214.072h 15.1181" fill="none" stroke="#000099"/>
<path d="M66.6417,129.489v 32.0158" fill="none" stroke="#000099"/>
<path d="M66.6417,182.681v 31.3919" fill="none" stroke="#000099"/>
<path d="M59.0827,172.423h 15.1181" fill="none" stroke="#000099"/>
<path d="M59.0827,172.139h 15.1181" fill="none" stroke="#000099" stroke-dasharray=" 3, 3"/>
<path d="M59.0827,214.072h 15.1181" fill="none" stroke="#000099"/>
<path d="M59.0827,129.489h 15.1181" fill="none" stroke="#000099"/>
<g stroke="#000099" stroke-width="1" fill="none">
<line x1="64.3382" y1="219.92" x2="68.9453" y2="224.527"/><line x1="64.3382" y1="224.527" x2="68.9453" y2="219.92"/>
<line x1="64.3382" y1="218.689" x2="68.9453" y2="223.296"/><line x1="64.3382" y1="223.296" x2="68.9453" y2="218.689"/>
<line x1="64.3382" y1="217.151" x2="68.9453" y2="221.759"/><line x1="64.3382" y1="221.759" x2="68.9453" y2="217.151"/>
<line x1="64.3382" y1="215.921" x2="68.9453" y2="220.528"/><line x1="64.3382" y1="220.528" x2="68.9453" y2="215.921"/>
<line x1="64.3382" y1="213.461" x2="68.9453" y2="218.068"/><line x1="64.3382" y1="218.068" x2="68.9453" y2="213.461"/>
<line x1="64.3382" y1="213.153" x2="68.9453" y2="217.76"/><line x1="64.3382" y1="217.76" x2="68.9453" y2="213.153"/>
<line x1="64.3382" y1="127.032" x2="68.9453" y2="131.639"/><line x1="64.3382" y1="131.639" x2="68.9453" y2="127.032"/>
<line x1="64.3382" y1="126.724" x2="68.9453" y2="131.331"/><line x1="64.3382" y1="131.331" x2="68.9453" y2="126.724"/>
<line x1="64.3382" y1="126.109" x2="68.9453" y2="130.716"/><line x1="64.3382" y1="130.716" x2="68.9453" y2="126.109"/>
<line x1="64.3382" y1="124.571" x2="68.9453" y2="129.178"/><line x1="64.3382" y1="129.178" x2="68.9453" y2="124.571"/>
<line x1="64.3382" y1="123.956" x2="68.9453" y2="128.563"/><line x1="64.3382" y1="128.563" x2="68.9453" y2="123.956"/>
<line x1="64.3382" y1="118.112" x2="68.9453" y2="122.719"/><line x1="64.3382" y1="122.719" x2="68.9453" y2="118.112"/>
<line x1="64.3382" y1="117.189" x2="68.9453" y2="121.797"/><line x1="64.3382" y1="121.797" x2="68.9453" y2="117.189"/>
<line x1="64.3382" y1="116.267" x2="68.9453" y2="120.874"/><line x1="64.3382" y1="120.874" x2="68.9453" y2="116.267"/>
<line x1="64.3382" y1="111.038" x2="68.9453" y2="115.645"/><line x1="64.3382" y1="115.645" x2="68.9453" y2="111.038"/>
</g>
<path d="M96.878,175.533v -21.7968h 15.1181v 21.7968h -15.1181z" fill="#ffff00"/>
<path d="M96.878,175.533v -21.7968h 15.1181v 21.7968h -15.1181z" fill="none" stroke="#000099"/>
<path d="M96.878,121.8h 15.1181" fill="none" stroke="#000099"/>
<path d="M96.878,208.536h 15.1181" fill="none" stroke="#000099"/>
<path d="M104.437,121.8v 31.9366" fill="none" stroke="#000099"/>
<path d="M104.437,175.533v 33.0028" fill="none" stroke="#000099"/>
<path d="M96.878,164.737h 15.1181" fill="none" stroke="#000099"/>
<path d="M96.878,164.665h 15.1181" fill="none" stroke="#000099" stroke-dasharray=" 3, 3"/>
<path d="M96.878,208.536h 15.1181" fill="none" stroke="#000099"/>
<path d="M96.878,121.8h 15.1181" fill="none" stroke="#000099"/>
<g stroke="#000099" stroke-width="1" fill="none">
<line x1="102.133" y1="207.617" x2="106.741" y2="212.224"/><line x1="102.133" y1="212.224" x2="106.741" y2="207.617"/>
<line x1="102.133" y1="117.805" x2="106.741" y2="122.412"/><line x1="102.133" y1="122.412" x2="106.741" y2="117.805"/>
<line x1="102.133" y1="117.497" x2="106.741" y2="122.104"/><line x1="102.133" y1="122.104" x2="106.741" y2="117.497"/>
<line x1="102.133" y1="115.652" x2="106.741" y2="120.259"/><line x1="102.133" y1="120.259" x2="106.741" y2="115.652"/>
<line x1="102.133" y1="111.961" x2="106.741" y2="116.568"/><line x1="102.133" y1="116.568" x2="106.741" y2="111.961"/>
</g>
<path d="M134.673,172.374v -19.9704h 15.1181v 19.9704h -15.1181z" fill="#ffff00"/>
<path d="M134.673,172.374v -19.9704h 15.1181v 19.9704h -15.1181z" fill="none" stroke="#000099"/>
<path d="M134.673,122.415h 15.1181" fill="none" stroke="#000099"/>
<path d="M134.673,200.847h 15.1181" fill="none" stroke="#000099"/>
<path d="M142.232,122.415v 29.9886" fill="none" stroke="#000099"/>
<path d="M142.232,172.374v 28.4727" fill="none" stroke="#000099"/>
<path d="M134.673,162.589h 15.1181" fill="none" stroke="#000099"/>
<path d="M134.673,162.806h 15.1181" fill="none" stroke="#000099" stroke-dasharray=" 3, 3"/>
<path d="M134.673,200.847h 15.1181" fill="none" stroke="#000099"/>
<path d="M134.673,122.415h 15.1181" fill="none" stroke="#000099"/>
<g stroke="#000099" stroke-width="1" fill="none">
<line x1="139.929" y1="211.923" x2="144.536" y2="216.53"/><line x1="139.929" y1="216.53" x2="144.536" y2="211.923"/>
<line x1="139.929" y1="203.311" x2="144.536" y2="207.918"/><line x1="139.929" y1="207.918" x2="144.536" y2="203.311"/>
<line x1="139.929" y1="201.773" x2="144.536" y2="206.38"/><line x1="139.929" y1="206.38" x2="144.536" y2="201.773"/>
<line x1="139.929" y1="201.158" x2="144.536" y2="205.765"/><line x1="139.929" y1="205.765" x2="144.536" y2="201.158"/>
<line x1="139.929" y1="200.235" x2="144.536" y2="204.842"/><line x1="139.929" y1="204.842" x2="144.536" y2="200.235"/>
<line x1="139.929" y1="115.959" x2="144.536" y2="120.566"/><line x1="139.929" y1="120.566" x2="144.536" y2="115.959"/>
<line x1="139.929" y1="113.191" x2="144.536" y2="117.798"/><line x1="139.929" y1="117.798" x2="144.536" y2="113.191"/>
</g>
<path d="M172.469,171.422v -20.464h 15.1181v 20.464h -15.1181z" fill="#ffff00"/>
<path d="M172.469,171.422v -20.464h 15.1181v 20.464h -15.1181z" fill="none" stroke="#000099"/>
<path d="M172.469,120.262h 15.1181" fill="none" stroke="#000099"/>
<path d="M172.469,200.539h 15.1181" fill="none" stroke="#000099"/>
<path d="M180.028,120.262v 30.696" fill="none" stroke="#000099"/>
<path d="M180.028,171.422v 29.1171" fill="none" stroke="#000099"/>
<path d="M172.469,161.033h 15.1181" fill="none" stroke="#000099"/>
<path d="M172.469,161.217h 15.1181" fill="none" stroke="#000099" stroke-dasharray=" 3, 3"/>
<path d="M172.469,200.539h 15.1181" fill="none" stroke="#000099"/>
<path d="M172.469,120.262h 15.1181" fill="none" stroke="#000099"/>
<g stroke="#000099" stroke-width="1" fill="none">
<line x1="177.724" y1="221.458" x2="182.331" y2="226.065"/><line x1="177.724" y1="226.065" x2="182.331" y2="221.458"/>
<line x1="177.724" y1="207.924" x2="182.331" y2="212.531"/><line x1="177.724" y1="212.531" x2="182.331" y2="207.924"/>
<line x1="177.724" y1="205.464" x2="182.331" y2="210.071"/><line x1="177.724" y1="210.071" x2="182.331" y2="205.464"/>
<line x1="177.724" y1="201.158" x2="182.331" y2="205.765"/><line x1="177.724" y1="205.765" x2="182.331" y2="201.158"/>
<line x1="177.724" y1="200.542" x2="182.331" y2="205.149"/><line x1="177.724" y1="205.149" x2="182.331" y2="200.542"/>
<line x1="177.724" y1="115.959" x2="182.331" y2="120.566"/><line x1="177.724" y1="120.566" x2="182.331" y2="115.959"/>
<line x1="177.724" y1="112.576" x2="182.331" y2="117.183"/><line x1="177.724" y1="117.183" x2="182.331" y2="112.576"/>
<line x1="177.724" y1="92.5834" x2="182.331" y2="97.1906"/><line x1="177.724" y1="97.1906" x2="182.331" y2="92.5834"/>
</g>
<path d="M210.264,173.319v -20.5691h 15.1181v 20.5691h -15.1181z" fill="#ffff00"/>
<path d="M210.264,173.319v -20.5691h 15.1181v 20.5691h -15.1181z" fill="none" stroke="#000099"/>
<path d="M210.264,122.107h 15.1181" fill="none" stroke="#000099"/>
<path d="M210.264,203.922h 15.1181" fill="none" stroke="#000099"/>
<path d="M217.823,122.107v 30.6422" fill="none" stroke="#000099"/>
<path d="M217.823,173.319v 30.6037" fill="none" stroke="#000099"/>
<path d="M210.264,162.912h 15.1181" fill="none" stroke="#000099"/>
<path d="M210.264,162.893h 15.1181" fill="none" stroke="#000099" stroke-dasharray=" 3, 3"/>
<path d="M210.264,203.922h 15.1181" fill="none" stroke="#000099"/>
<path d="M210.264,122.107h 15.1181" fill="none" stroke="#000099"/>
<g stroke="#000099" stroke-width="1" fill="none">
<line x1="215.519" y1="215.614" x2="220.126" y2="220.221"/><line x1="215.519" y1="220.221" x2="220.126" y2="215.614"/>
<line x1="215.519" y1="209.154" x2="220.126" y2="213.762"/><line x1="215.519" y1="213.762" x2="220.126" y2="209.154"/>
<line x1="215.519" y1="205.156" x2="220.126" y2="209.763"/><line x1="215.519" y1="209.763" x2="220.126" y2="205.156"/>
<line x1="215.519" y1="204.541" x2="220.126" y2="209.148"/><line x1="215.519" y1="209.148" x2="220.126" y2="204.541"/>
<line x1="215.519" y1="202.08" x2="220.126" y2="206.687"/><line x1="215.519" y1="206.687" x2="220.126" y2="202.08"/>
<line x1="215.519" y1="119.035" x2="220.126" y2="123.642"/><line x1="215.519" y1="123.642" x2="220.126" y2="119.035"/>
<line x1="215.519" y1="116.882" x2="220.126" y2="121.489"/><line x1="215.519" y1="121.489" x2="220.126" y2="116.882"/>
<line x1="215.519" y1="114.114" x2="220.126" y2="118.721"/><line x1="215.519" y1="118.721" x2="220.126" y2="114.114"/>
<line x1="215.519" y1="110.423" x2="220.126" y2="115.03"/><line x1="215.519" y1="115.03" x2="220.126" y2="110.423"/>
<line x1="215.519" y1="107.962" x2="220.126" y2="112.569"/><line x1="215.519" y1="112.569" x2="220.126" y2="107.962"/>
</g>
<path d="M248.059,176.302v -20.9766h 15.1181v 20.9766h -15.1181z" fill="#ffff00"/>
<path d="M248.059,176.302v -20.9766h 15.1181v 20.9766h -15.1181z" fill="none" stroke="#000099"/>
<path d="M248.059,124.568h 15.1181" fill="none" stroke="#000099"/>
<path d="M248.059,207.613h 15.1181" fill="none" stroke="#000099"/>
<path d="M255.618,124.568v 30.7575" fill="none" stroke="#000099"/>
<path d="M255.618,176.302v 31.3112" fill="none" stroke="#000099"/>
<path d="M248.059,166.091h 15.1181" fill="none" stroke="#000099"/>
<path d="M248.059,165.931h 15.1181" fill="none" stroke="#000099" stroke-dasharray=" 3, 3"/>
<path d="M248.059,207.613h 15.1181" fill="none" stroke="#000099"/>
<path d="M248.059,124.568h 15.1181" fill="none" stroke="#000099"/>
<g stroke="#000099" stroke-width="1" fill="none">
<line x1="253.315" y1="214.076" x2="257.922" y2="218.683"/><line x1="253.315" y1="218.683" x2="257.922" y2="214.076"/>
<line x1="253.315" y1="120.573" x2="257.922" y2="125.18"/><line x1="253.315" y1="125.18" x2="257.922" y2="120.573"/>
<line x1="253.315" y1="120.265" x2="257.922" y2="124.872"/><line x1="253.315" y1="124.872" x2="257.922" y2="120.265"/>
<line x1="253.315" y1="119.342" x2="257.922" y2="123.95"/><line x1="253.315" y1="123.95" x2="257.922" y2="119.342"/>
<line x1="253.315" y1="119.035" x2="257.922" y2="123.642"/><line x1="253.315" y1="123.642" x2="257.922" y2="119.035"/>
</g>
<path d="M285.854,181.777v -20.7394h 15.1181v 20.7394h -15.1181z" fill="#ffff00"/>
<path d="M285.854,181.777v -20.7394h 15.1181v 20.7394h -15.1181z" fill="none" stroke="#000099"/>
<path d="M285.854,129.797h 15.1181" fill="none" stroke="#000099"/>
<path d="M285.854,213.15h 15.1181" fill="none" stroke="#000099"/>
<path d="M293.413,129.797v 31.2409" fill="none" stroke="#000099"/>
<path d="M293.413,181.777v 31.3727" fill="none" stroke="#000099"/>
<path d="M285.854,171.689h 15.1181" fill="none" stroke="#000099"/>
<path d="M285.854,171.192h 15.1181" fill="none" stroke="#000099" stroke-dasharray=" 3, 3"/>
<path d="M285.854,213.15h 15.1181" fill="none" stroke="#000099"/>
<path d="M285.854,129.797h 15.1181" fill="none" stroke="#000099"/>
<g stroke="#000099" stroke-width="1" fill="none">
<line x1="291.11" y1="215.614" x2="295.717" y2="220.221"/><line x1="291.11" y1="220.221" x2="295.717" y2="215.614"/>
<line x1="291.11" y1="126.724" x2="295.717" y2="131.331"/><line x1="291.11" y1="131.331" x2="295.717" y2="126.724"/>
</g>
<path d="M323.65,187.867v -21.0587h 15.1181v 21.0587h -15.1181z" fill="#ffff00"/>
<path d="M323.65,187.867v -21.0587h 15.1181v 21.0587h -15.1181z" fill="none" stroke="#000099"/>
<path d="M323.65,135.333h 15.1181" fill="none" stroke="#000099"/>
<path d="M323.65,219.609h 15.1181" fill="none" stroke="#000099"/>
<path d="M331.209,135.333v 31.4752" fill="none" stroke="#000099"/>
<path d="M331.209,187.867v 31.7418" fill="none" stroke="#000099"/>
<path d="M323.65,178.009h 15.1181" fill="none" stroke="#000099"/>
<path d="M323.65,177.485h 15.1181" fill="none" stroke="#000099" stroke-dasharray=" 3, 3"/>
<path d="M323.65,219.609h 15.1181" fill="none" stroke="#000099"/>
<path d="M323.65,135.333h 15.1181" fill="none" stroke="#000099"/>
<g stroke="#000099" stroke-width="1" fill="none">
<line x1="328.905" y1="220.842" x2="333.512" y2="225.449"/><line x1="328.905" y1="225.449" x2="333.512" y2="220.842"/>
<line x1="328.905" y1="219.92" x2="333.512" y2="224.527"/><line x1="328.905" y1="224.527" x2="333.512" y2="219.92"/>
<line x1="328.905" y1="131.953" x2="333.512" y2="136.56"/><line x1="328.905" y1="136.56" x2="333.512" y2="131.953"/>
<line x1="328.905" y1="121.803" x2="333.512" y2="126.41"/><line x1="328.905" y1="126.41" x2="333.512" y2="121.803"/>
</g>
<path d="M361.445,194.157v -19.7002h 15.1181v 19.7002h -15.1181z" fill="#ffff00"/>
<path d="M361.445,194.157v -19.7002h 15.1181v 19.7002h -15.1181z" fill="none" stroke="#000099"/>
<path d="M361.445,145.176h 15.1181" fill="none" stroke="#000099"/>
<path d="M361.445,220.839h 15.1181" fill="none" stroke="#000099"/>
<path d="M369.004,145.176v 29.2812" fill="none" stroke="#000099"/>
<path d="M369.004,194.157v 26.6822" fill="none" stroke="#000099"/>
<path d="M361.445,184.315h 15.1181" fill="none" stroke="#000099"/>
<path d="M361.445,184.622h 15.1181" fill="none" stroke="#000099" stroke-dasharray=" 3, 3"/>
<path d="M361.445,220.839h 15.1181" fill="none" stroke="#000099"/>
<path d="M361.445,145.176h 15.1181" fill="none" stroke="#000099"/>
<g stroke="#000099" stroke-width="1" fill="none">
<line x1="366.7" y1="230.992" x2="371.307" y2="235.599"/><line x1="366.7" y1="235.599" x2="371.307" y2="230.992"/>
<line x1="366.7" y1="229.147" x2="371.307" y2="233.754"/><line x1="366.7" y1="233.754" x2="371.307" y2="229.147"/>
<line x1="366.7" y1="224.014" x2="371.307" y2="228.622"/><line x1="366.7" y1="228.622" x2="371.307" y2="224.014"/>
<line x1="366.7" y1="223.779" x2="371.307" y2="228.386"/><line x1="366.7" y1="228.386" x2="371.307" y2="223.779"/>
<line x1="366.7" y1="142.103" x2="371.307" y2="146.71"/><line x1="366.7" y1="146.71" x2="371.307" y2="142.103"/>
<line x1="366.7" y1="140.873" x2="371.307" y2="145.48"/><line x1="366.7" y1="145.48" x2="371.307" y2="140.873"/>
<line x1="366.7" y1="132.876" x2="371.307" y2="137.483"/><line x1="366.7" y1="137.483" x2="371.307" y2="132.876"/>
</g>
<path d="M399.24,202.931v -20.3854h 15.1181v 20.3854h -15.1181z" fill="#ffff00"/>
<path d="M399.24,202.931v -20.3854h 15.1181v 20.3854h -15.1181z" fill="none" stroke="#000099"/>
<path d="M399.24,152.25h 15.1181" fill="none" stroke="#000099"/>
<path d="M399.24,230.066h 15.1181" fill="none" stroke="#000099"/>
<path d="M406.799,152.25v 30.2962" fill="none" stroke="#000099"/>
<path d="M406.799,202.931v 27.135" fill="none" stroke="#000099"/>
<path d="M399.24,191.907h 15.1181" fill="none" stroke="#000099"/>
<path d="M399.24,192.46h 15.1181" fill="none" stroke="#000099" stroke-dasharray=" 3, 3"/>
<path d="M399.24,230.066h 15.1181" fill="none" stroke="#000099"/>
<path d="M399.24,152.25h 15.1181" fill="none" stroke="#000099"/>
<g stroke="#000099" stroke-width="1" fill="none">
<line x1="404.496" y1="235.606" x2="409.103" y2="240.213"/><line x1="404.496" y1="240.213" x2="409.103" y2="235.606"/>
<line x1="404.496" y1="233.761" x2="409.103" y2="238.368"/><line x1="404.496" y1="238.368" x2="409.103" y2="233.761"/>
<line x1="404.496" y1="148.87" x2="409.103" y2="153.477"/><line x1="404.496" y1="153.477" x2="409.103" y2="148.87"/>
<line x1="404.496" y1="148.255" x2="409.103" y2="152.862"/><line x1="404.496" y1="152.862" x2="409.103" y2="148.255"/>
<line x1="404.496" y1="146.102" x2="409.103" y2="150.709"/><line x1="404.496" y1="150.709" x2="409.103" y2="146.102"/>
<line x1="404.496" y1="145.179" x2="409.103" y2="149.786"/><line x1="404.496" y1="149.786" x2="409.103" y2="145.179"/>
</g>
<path d="M437.035,209.843v -19.2696h 15.1181v 19.2696h -15.1181z" fill="#ffff00"/>
<path d="M437.035,209.843v -19.2696h 15.1181v 19.2696h -15.1181z" fill="none" stroke="#000099"/>
<path d="M437.035,161.477h 15.1181" fill="none" stroke="#000099"/>
<path d="M437.035,238.678h 15.1181" fill="none" stroke="#000099"/>
<path d="M444.594,161.477v 29.0966" fill="none" stroke="#000099"/>
<path d="M444.594,209.843v 28.8352" fill="none" stroke="#000099"/>
<path d="M437.035,200.001h 15.1181" fill="none" stroke="#000099"/>
<path d="M437.035,200.539h 15.1181" fill="none" stroke="#000099" stroke-dasharray=" 3, 3"/>
<path d="M437.035,238.678h 15.1181" fill="none" stroke="#000099"/>
<path d="M437.035,161.477h 15.1181" fill="none" stroke="#000099"/>
<g stroke="#000099" stroke-width="1" fill="none">
<line x1="442.291" y1="246.371" x2="446.898" y2="250.978"/><line x1="442.291" y1="250.978" x2="446.898" y2="246.371"/>
<line x1="442.291" y1="242.373" x2="446.898" y2="246.98"/><line x1="442.291" y1="246.98" x2="446.898" y2="242.373"/>
<line x1="442.291" y1="241.45" x2="446.898" y2="246.057"/><line x1="442.291" y1="246.057" x2="446.898" y2="241.45"/>
<line x1="442.291" y1="238.374" x2="446.898" y2="242.981"/><line x1="442.291" y1="242.981" x2="446.898" y2="238.374"/>
<line x1="442.291" y1="237.451" x2="446.898" y2="242.059"/><line x1="442.291" y1="242.059" x2="446.898" y2="237.451"/>
<line x1="442.291" y1="237.144" x2="446.898" y2="241.751"/><line x1="442.291" y1="241.751" x2="446.898" y2="237.144"/>
<line x1="442.291" y1="158.808" x2="446.898" y2="163.416"/><line x1="442.291" y1="163.416" x2="446.898" y2="158.808"/>
<line x1="442.291" y1="158.573" x2="446.898" y2="163.181"/><line x1="442.291" y1="163.181" x2="446.898" y2="158.573"/>
<line x1="442.291" y1="157.174" x2="446.898" y2="161.781"/><line x1="442.291" y1="161.781" x2="446.898" y2="157.174"/>
<line x1="442.291" y1="155.329" x2="446.898" y2="159.936"/><line x1="442.291" y1="159.936" x2="446.898" y2="155.329"/>
<line x1="442.291" y1="149.792" x2="446.898" y2="154.4"/><line x1="442.291" y1="154.4" x2="446.898" y2="149.792"/>
</g>
<path d="M474.831,219.186v -20.6768h 15.1181v 20.6768h -15.1181z" fill="#ffff00"/>
<path d="M474.831,219.186v -20.6768h 15.1181v 20.6768h -15.1181z" fill="none" stroke="#000099"/>
<path d="M474.831,167.321h 15.1181" fill="none" stroke="#000099"/>
<path d="M474.831,248.521h 15.1181" fill="none" stroke="#000099"/>
<path d="M482.39,167.321v 31.1881" fill="none" stroke="#000099"/>
<path d="M482.39,219.186v 29.335" fill="none" stroke="#000099"/>
<path d="M474.831,208.459h 15.1181" fill="none" stroke="#000099"/>
<path d="M474.831,208.452h 15.1181" fill="none" stroke="#000099" stroke-dasharray=" 3, 3"/>
<path d="M474.831,248.521h 15.1181" fill="none" stroke="#000099"/>
<path d="M474.831,167.321h 15.1181" fill="none" stroke="#000099"/>
<g stroke="#000099" stroke-width="1" fill="none">
<line x1="480.086" y1="255.906" x2="484.693" y2="260.513"/><line x1="480.086" y1="260.513" x2="484.693" y2="255.906"/>
<line x1="480.086" y1="254.368" x2="484.693" y2="258.975"/><line x1="480.086" y1="258.975" x2="484.693" y2="254.368"/>
<line x1="480.086" y1="250.985" x2="484.693" y2="255.592"/><line x1="480.086" y1="255.592" x2="484.693" y2="250.985"/>
<line x1="480.086" y1="164.652" x2="484.693" y2="169.259"/><line x1="480.086" y1="169.259" x2="484.693" y2="164.652"/>
<line x1="480.086" y1="164.417" x2="484.693" y2="169.024"/><line x1="480.086" y1="169.024" x2="484.693" y2="164.417"/>
<line x1="480.086" y1="161.48" x2="484.693" y2="166.087"/><line x1="480.086" y1="166.087" x2="484.693" y2="161.48"/>
<line x1="480.086" y1="160.865" x2="484.693" y2="165.472"/><line x1="480.086" y1="165.472" x2="484.693" y2="160.865"/>
<line x1="480.086" y1="159.942" x2="484.693" y2="164.55"/><line x1="480.086" y1="164.55" x2="484.693" y2="159.942"/>
<line x1="480.086" y1="158.097" x2="484.693" y2="162.704"/><line x1="480.086" y1="162.704" x2="484.693" y2="158.097"/>
</g>
<text xml:space="preserve" x="227.76" y="18.7347" fill="black" font-size="16.9898" font-family="Helvetica">Machine A + B
</text>
<path d="M57.1929,346.022h 453.543" fill="none" stroke="black"/>
<path d="M57.1929,336.795v 9.22726" fill="none" stroke="black"/>
<path d="M132.783,336.795v 9.22726" fill="none" stroke="black"/>
<path d="M208.374,336.795v 9.22726" fill="none" stroke="black"/>
<path d="M283.965,336.795v 9.22726" fill="none" stroke="black"/>
<path d="M359.555,336.795v 9.22726" fill="none" stroke="black"/>
<path d="M435.146,336.795v 9.22726" fill="none" stroke="black"/>
<path d="M510.736,336.795v 9.22726" fill="none" stroke="black"/>
<text xml:space="preserve" x="33.8967" y="358.403" fill="black" font-size="12.8453" font-family="Helvetica">01/01/10
</text>
<text xml:space="preserve" x="108.836" y="358.403" fill="black" font-size="12.8453" font-family="Helvetica">02/03/10
</text>
<text xml:space="preserve" x="184.589" y="358.403" fill="black" font-size="12.8453" font-family="Helvetica">02/05/10
</text>
<text xml:space="preserve" x="260.343" y="358.403" fill="black" font-size="12.8453" font-family="Helvetica">02/07/10
</text>
<text xml:space="preserve" x="336.096" y="358.403" fill="black" font-size="12.8453" font-family="Helvetica">01/09/10
</text>
<text xml:space="preserve" x="411.849" y="358.403" fill="black" font-size="12.8453" font-family="Helvetica">01/11/10
</text>
<text xml:space="preserve" x="487.603" y="358.403" fill="black" font-size="12.8453" font-family="Helvetica">01/01/11
</text>
<text xml:space="preserve" x="390.671" y="370.622" fill="black" font-size="12.8453" font-family="Helvetica">Date [day/month/year]
</text>
<path d="M57.1929,346.022v -307.575" fill="none" stroke="black"/>
<path d="M70.7992,346.022h -13.6063" fill="none" stroke="black"/>
<path d="M63.9961,339.871h -6.80315" fill="none" stroke="black"/>
<path d="M63.9961,333.719h -6.80315" fill="none" stroke="black"/>
<path d="M63.9961,327.568h -6.80315" fill="none" stroke="black"/>
<path d="M63.9961,321.416h -6.80315" fill="none" stroke="black"/>
<path d="M70.7992,315.265h -13.6063" fill="none" stroke="black"/>
<path d="M63.9961,309.113h -6.80315" fill="none" stroke="black"/>
<path d="M63.9961,302.962h -6.80315" fill="none" stroke="black"/>
<path d="M63.9961,296.81h -6.80315" fill="none" stroke="black"/>
<path d="M63.9961,290.659h -6.80315" fill="none" stroke="black"/>
<path d="M70.7992,284.507h -13.6063" fill="none" stroke="black"/>
<path d="M63.9961,278.356h -6.80315" fill="none" stroke="black"/>
<path d="M63.9961,272.204h -6.80315" fill="none" stroke="black"/>
<path d="M63.9961,266.053h -6.80315" fill="none" stroke="black"/>
<path d="M63.9961,259.901h -6.80315" fill="none" stroke="black"/>
<path d="M70.7992,253.75h -13.6063" fill="none" stroke="black"/>
<path d="M63.9961,247.598h -6.80315" fill="none" stroke="black"/>
<path d="M63.9961,241.447h -6.80315" fill="none" stroke="black"/>
<path d="M63.9961,235.295h -6.80315" fill="none" stroke="black"/>
<path d="M63.9961,229.144h -6.80315" fill="none" stroke="black"/>
<path d="M70.7992,222.992h -13.6063" fill="none" stroke="black"/>
<path d="M63.9961,216.841h -6.80315" fill="none" stroke="black"/>
<path d="M63.9961,210.689h -6.80315" fill="none" stroke="black"/>
<path d="M63.9961,204.538h -6.80315" fill="none" stroke="black"/>
<path d="M63.9961,198.386h -6.80315" fill="none" stroke="black"/>
<path d="M70.7992,192.235h -13.6063" fill="none" stroke="black"/>
<path d="M63.9961,186.083h -6.80315" fill="none" stroke="black"/>
<path d="M63.9961,179.932h -6.80315" fill="none" stroke="black"/>
<path d="M63.9961,173.78h -6.80315" fill="none" stroke="black"/>
<path d="M63.9961,167.629h -6.80315" fill="none" stroke="black"/>
<path d="M70.7992,161.477h -13.6063" fill="none" stroke="black"/>
<path d="M63.9961,155.326h -6.80315" fill="none" stroke="black"/>
<path d="M63.9961,149.174h -6.80315" fill="none" stroke="black"/>
<path d="M63.9961,143.023h -6.80315" fill="none" stroke="black"/>
<path d="M63.9961,136.871h -6.80315" fill="none" stroke="black"/>
<path d="M70.7992,130.72h -13.6063" fill="none" stroke="black"/>
<path d="M63.9961,124.568h -6.80315" fill="none" stroke="black"/>
<path d="M63.9961,118.417h -6.80315" fill="none" stroke="black"/>
<path d="M63.9961,112.265h -6.80315" fill="none" stroke="black"/>
<path d="M63.9961,106.113h -6.80315" fill="none" stroke="black"/>
<path d="M70.7992,99.962h -13.6063" fill="none" stroke="black"/>
<path d="M63.9961,93.8105h -6.80315" fill="none" stroke="black"/>
<path d="M63.9961,87.659h -6.80315" fill="none" stroke="black"/>
<path d="M63.9961,81.5075h -6.80315" fill="none" stroke="black"/>
<path d="M63.9961,75.356h -6.80315" fill="none" stroke="black"/>
<path d="M70.7992,69.2045h -13.6063" fill="none" stroke="black"/>
<path d="M63.9961,63.0529h -6.80315" fill="none" stroke="black"/>
<path d="M63.9961,56.9014h -6.80315" fill="none" stroke="black"/>
<path d="M63.9961,50.7499h -6.80315" fill="none" stroke="black"/>
<path d="M63.9961,44.5984h -6.80315" fill="none" stroke="black"/>
<path d="M70.7992,38.4469h -13.6063" fill="none" stroke="black"/>
<text xml:space="preserve" x="47.7441" y="351.072" fill="black" font-size="12.8453" font-family="Helvetica">0
</text>
<text xml:space="preserve" x="33.8967" y="320.119" fill="black" font-size="12.8453" font-family="Helvetica">100
</text>
<text xml:space="preserve" x="33.8967" y="289.166" fill="black" font-size="12.8453" font-family="Helvetica">200
</text>
<text xml:space="preserve" x="33.8967" y="259.028" fill="black" font-size="12.8453" font-family="Helvetica">300
</text>
<text xml:space="preserve" x="33.8967" y="228.075" fill="black" font-size="12.8453" font-family="Helvetica">400
</text>
<text xml:space="preserve" x="33.8967" y="197.122" fill="black" font-size="12.8453" font-family="Helvetica">500
</text>
<text xml:space="preserve" x="33.8967" y="166.169" fill="black" font-size="12.8453" font-family="Helvetica">600
</text>
<text xml:space="preserve" x="33.8967" y="135.216" fill="black" font-size="12.8453" font-family="Helvetica">700
</text>
<text xml:space="preserve" x="33.8967" y="105.077" fill="black" font-size="12.8453" font-family="Helvetica">800
</text>
<text xml:space="preserve" x="33.8967" y="74.1244" fill="black" font-size="12.8453" font-family="Helvetica">900
</text>
<text xml:space="preserve" x="27.3803" y="43.1713" fill="black" font-size="12.8453" font-family="Helvetica">1000
</text>
<rect x="442.705" y="24.9905" width="113.386" height="92.2726" fill="white"/>
<path d="M442.705,117.263h 113.386" fill="none" stroke="black"/>
<path d="M556.091,117.263v -92.2726" fill="none" stroke="black"/>
<path d="M556.091,24.9905h -113.386" fill="none" stroke="black"/>
<path d="M442.705,24.9905v 92.2726" fill="none" stroke="black"/>
<text xml:space="preserve" x="492.49" y="38.284" fill="black" font-size="13.4802" font-family="Helvetica">h1
</text>
<path d="M442.705,40.3693h 113.386" fill="none" stroke="black"/>
<text xml:space="preserve" x="448.504" y="52.1314" fill="black" font-size="10.5085" font-family="Helvetica">Entries 
</text>
<text xml:space="preserve" x="517.741" y="52.1314" fill="black" font-size="10.5085" font-family="Helvetica"> 13000
</text>
<text xml:space="preserve" x="448.504" y="67.6079" fill="black" font-size="10.5085" font-family="Helvetica">Mean x 
</text>
<text xml:space="preserve" x="497.378" y="67.6079" fill="black" font-size="10.5085" font-family="Helvetica"> 1.278e+09
</text>
<text xml:space="preserve" x="448.504" y="82.2699" fill="black" font-size="10.5085" font-family="Helvetica">Mean y 
</text>
<text xml:space="preserve" x="517.741" y="83.0844" fill="black" font-size="10.5085" font-family="Helvetica">  550.6
</text>
<text xml:space="preserve" x="448.504" y="98.561" fill="black" font-size="10.5085" font-family="Helvetica">Std Dev x 
</text>
<text xml:space="preserve" x="497.378" y="98.561" fill="black" font-size="10.5085" font-family="Helvetica"> 9.698e+06
</text>
<text xml:space="preserve" x="448.504" y="113.223" fill="black" font-size="10.5085" font-family="Helvetica">Std Dev y 
</text>
<text xml:space="preserve" x="517.741" y="114.037" fill="black" font-size="10.5085" font-family="Helvetica">  69.28
</text>
<path d="M77.9803,175.889v -28.9194h 15.1181v 28.9194h -15.1181z" fill="#00ff00"/>
<path d="M77.9803,175.889v -28.9194h 15.1181v 28.9194h -15.1181z" fill="none" stroke="#ff0000"/>
<path d="M77.9803,104.576h 15.1181" fill="none" stroke="#ff0000"/>
<path d="M77.9803,218.994h 15.1181" fill="none" stroke="#ff0000"/>
<path d="M85.5394,104.576v 42.3941" fill="none" stroke="#ff0000"/>
<path d="M85.5394,175.889v 43.1045" fill="none" stroke="#ff0000"/>
<path d="M77.9803,161.315h 15.1181" fill="none" stroke="#ff0000"/>
<g stroke="#ff0000" stroke-width="1" fill="none">
<circle cx="85.5394" cy="161.252" r="3.25821"/>
</g>
<path d="M77.9803,218.994h 15.1181" fill="none" stroke="#ff0000"/>
<path d="M77.9803,104.576h 15.1181" fill="none" stroke="#ff0000"/>
<g stroke="#ff0000" stroke-width="1" fill="none">
<line x1="83.2358" y1="241.142" x2="87.8429" y2="245.749"/><line x1="83.2358" y1="245.749" x2="87.8429" y2="241.142"/>
<line x1="83.2358" y1="228.532" x2="87.8429" y2="233.139"/><line x1="83.2358" y1="233.139" x2="87.8429" y2="228.532"/>
<line x1="83.2358" y1="219.92" x2="87.8429" y2="224.527"/><line x1="83.2358" y1="224.527" x2="87.8429" y2="219.92"/>
<line x1="83.2358" y1="217.767" x2="87.8429" y2="222.374"/><line x1="83.2358" y1="222.374" x2="87.8429" y2="217.767"/>
<line x1="83.2358" y1="217.459" x2="87.8429" y2="222.066"/><line x1="83.2358" y1="222.066" x2="87.8429" y2="217.459"/>
<line x1="83.2358" y1="97.8122" x2="87.8429" y2="102.419"/><line x1="83.2358" y1="102.419" x2="87.8429" y2="97.8122"/>
<line x1="83.2358" y1="96.5819" x2="87.8429" y2="101.189"/><line x1="83.2358" y1="101.189" x2="87.8429" y2="96.5819"/>
<line x1="83.2358" y1="95.3516" x2="87.8429" y2="99.9587"/><line x1="83.2358" y1="99.9587" x2="87.8429" y2="95.3516"/>
<line x1="83.2358" y1="87.3547" x2="87.8429" y2="91.9618"/><line x1="83.2358" y1="91.9618" x2="87.8429" y2="87.3547"/>
<line x1="83.2358" y1="86.1244" x2="87.8429" y2="90.7315"/><line x1="83.2358" y1="90.7315" x2="87.8429" y2="86.1244"/>
<line x1="83.2358" y1="83.3562" x2="87.8429" y2="87.9633"/><line x1="83.2358" y1="87.9633" x2="87.8429" y2="83.3562"/>
</g>
<path d="M115.776,181.777v -28.989h 15.1181v 28.989h -15.1181z" fill="#00ff00"/>
<path d="M115.776,181.777v -28.989h 15.1181v 28.989h -15.1181z" fill="none" stroke="#ff0000"/>
<path d="M115.776,109.497h 15.1181" fill="none" stroke="#ff0000"/>
<path d="M115.776,222.685h 15.1181" fill="none" stroke="#ff0000"/>
<path d="M123.335,109.497v 43.2912" fill="none" stroke="#ff0000"/>
<path d="M123.335,181.777v 40.9075" fill="none" stroke="#ff0000"/>
<path d="M115.776,166.898h 15.1181" fill="none" stroke="#ff0000"/>
<g stroke="#ff0000" stroke-width="1" fill="none">
<circle cx="123.335" cy="166.968" r="3.25821"/>
</g>
<path d="M115.776,222.685h 15.1181" fill="none" stroke="#ff0000"/>
<path d="M115.776,109.497h 15.1181" fill="none" stroke="#ff0000"/>
<g stroke="#ff0000" stroke-width="1" fill="none">
<line x1="121.031" y1="223.611" x2="125.638" y2="228.218"/><line x1="121.031" y1="228.218" x2="125.638" y2="223.611"/>
<line x1="121.031" y1="105.809" x2="125.638" y2="110.416"/><line x1="121.031" y1="110.416" x2="125.638" y2="105.809"/>
<line x1="121.031" y1="89.2001" x2="125.638" y2="93.8072"/><line x1="121.031" y1="93.8072" x2="125.638" y2="89.2001"/>
<line x1="121.031" y1="77.5122" x2="125.638" y2="82.1194"/><line x1="121.031" y1="82.1194" x2="125.638" y2="77.5122"/>
</g>
<path d="M153.571,186.775v -30.2808h 15.1181v 30.2808h -15.1181z" fill="#00ff00"/>
<path d="M153.571,186.775v -30.2808h 15.1181v 30.2808h -15.1181z" fill="none" stroke="#ff0000"/>
<path d="M153.571,111.035h 15.1181" fill="none" stroke="#ff0000"/>
<path d="M153.571,230.374h 15.1181" fill="none" stroke="#ff0000"/>
<path d="M161.13,111.035v 45.4596" fill="none" stroke="#ff0000"/>
<path d="M161.13,186.775v 43.5988" fill="none" stroke="#ff0000"/>
<path d="M153.571,171.858h 15.1181" fill="none" stroke="#ff0000"/>
<g stroke="#ff0000" stroke-width="1" fill="none">
<circle cx="161.13" cy="171.464" r="3.25821"/>
</g>
<path d="M153.571,230.374h 15.1181" fill="none" stroke="#ff0000"/>
<path d="M153.571,111.035h 15.1181" fill="none" stroke="#ff0000"/>
<g stroke="#ff0000" stroke-width="1" fill="none">
<line x1="158.826" y1="237.759" x2="163.433" y2="242.366"/><line x1="158.826" y1="242.366" x2="163.433" y2="237.759"/>
<line x1="158.826" y1="107.962" x2="163.433" y2="112.569"/><line x1="158.826" y1="112.569" x2="163.433" y2="107.962"/>
<line x1="158.826" y1="106.732" x2="163.433" y2="111.339"/><line x1="158.826" y1="111.339" x2="163.433" y2="106.732"/>
<line x1="158.826" y1="105.809" x2="163.433" y2="110.416"/><line x1="158.826" y1="110.416" x2="163.433" y2="105.809"/>
<line x1="158.826" y1="96.5819" x2="163.433" y2="101.189"/><line x1="158.826" y1="101.189" x2="163.433" y2="96.5819"/>
</g>
<path d="M191.366,191.722v -28.6558h 15.1181v 28.6558h -15.1181z" fill="#00ff00"/>
<path d="M191.366,191.722v -28.6558h 15.1181v 28.6558h -15.1181z" fill="none" stroke="#ff0000"/>
<path d="M191.366,120.877h 15.1181" fill="none" stroke="#ff0000"/>
<path d="M191.366,234.68h 15.1181" fill="none" stroke="#ff0000"/>
<path d="M198.925,120.877v 42.1891" fill="none" stroke="#ff0000"/>
<path d="M198.925,191.722v 42.958" fill="none" stroke="#ff0000"/>
<path d="M191.366,177.317h 15.1181" fill="none" stroke="#ff0000"/>
<g stroke="#ff0000" stroke-width="1" fill="none">
<circle cx="198.925" cy="177.118" r="3.25821"/>
</g>
<path d="M191.366,234.68h 15.1181" fill="none" stroke="#ff0000"/>
<path d="M191.366,120.877h 15.1181" fill="none" stroke="#ff0000"/>
<g stroke="#ff0000" stroke-width="1" fill="none">
<line x1="196.622" y1="255.291" x2="201.229" y2="259.898"/><line x1="196.622" y1="259.898" x2="201.229" y2="255.291"/>
<line x1="196.622" y1="251.292" x2="201.229" y2="255.899"/><line x1="196.622" y1="255.899" x2="201.229" y2="251.292"/>
<line x1="196.622" y1="244.218" x2="201.229" y2="248.825"/><line x1="196.622" y1="248.825" x2="201.229" y2="244.218"/>
<line x1="196.622" y1="241.757" x2="201.229" y2="246.365"/><line x1="196.622" y1="246.365" x2="201.229" y2="241.757"/>
<line x1="196.622" y1="237.759" x2="201.229" y2="242.366"/><line x1="196.622" y1="242.366" x2="201.229" y2="237.759"/>
<line x1="196.622" y1="237.144" x2="201.229" y2="241.751"/><line x1="196.622" y1="241.751" x2="201.229" y2="237.144"/>
<line x1="196.622" y1="233.453" x2="201.229" y2="238.06"/><line x1="196.622" y1="238.06" x2="201.229" y2="233.453"/>
<line x1="196.622" y1="108.885" x2="201.229" y2="113.492"/><line x1="196.622" y1="113.492" x2="201.229" y2="108.885"/>
</g>
<path d="M229.161,197.617v -29.8656h 15.1181v 29.8656h -15.1181z" fill="#00ff00"/>
<path d="M229.161,197.617v -29.8656h 15.1181v 29.8656h -15.1181z" fill="none" stroke="#ff0000"/>
<path d="M229.161,129.182h 15.1181" fill="none" stroke="#ff0000"/>
<path d="M229.161,241.754h 15.1181" fill="none" stroke="#ff0000"/>
<path d="M236.72,129.182v 38.5699" fill="none" stroke="#ff0000"/>
<path d="M236.72,197.617v 44.1371" fill="none" stroke="#ff0000"/>
<path d="M229.161,183.227h 15.1181" fill="none" stroke="#ff0000"/>
<g stroke="#ff0000" stroke-width="1" fill="none">
<circle cx="236.72" cy="182.68" r="3.25821"/>
</g>
<path d="M229.161,241.754h 15.1181" fill="none" stroke="#ff0000"/>
<path d="M229.161,129.182h 15.1181" fill="none" stroke="#ff0000"/>
<g stroke="#ff0000" stroke-width="1" fill="none">
<line x1="234.417" y1="254.983" x2="239.024" y2="259.59"/><line x1="234.417" y1="259.59" x2="239.024" y2="254.983"/>
<line x1="234.417" y1="245.756" x2="239.024" y2="250.363"/><line x1="234.417" y1="250.363" x2="239.024" y2="245.756"/>
<line x1="234.417" y1="242.68" x2="239.024" y2="247.287"/><line x1="234.417" y1="247.287" x2="239.024" y2="242.68"/>
<line x1="234.417" y1="240.527" x2="239.024" y2="245.134"/><line x1="234.417" y1="245.134" x2="239.024" y2="240.527"/>
<line x1="234.417" y1="120.362" x2="239.024" y2="124.969"/><line x1="234.417" y1="124.969" x2="239.024" y2="120.362"/>
<line x1="234.417" y1="120.126" x2="239.024" y2="124.734"/><line x1="234.417" y1="124.734" x2="239.024" y2="120.126"/>
<line x1="234.417" y1="112.268" x2="239.024" y2="116.875"/><line x1="234.417" y1="116.875" x2="239.024" y2="112.268"/>
<line x1="234.417" y1="111.653" x2="239.024" y2="116.26"/><line x1="234.417" y1="116.26" x2="239.024" y2="111.653"/>
<line x1="234.417" y1="110.423" x2="239.024" y2="115.03"/><line x1="234.417" y1="115.03" x2="239.024" y2="110.423"/>
<line x1="234.417" y1="110.115" x2="239.024" y2="114.722"/><line x1="234.417" y1="114.722" x2="239.024" y2="110.115"/>
<line x1="234.417" y1="109.5" x2="239.024" y2="114.107"/><line x1="234.417" y1="114.107" x2="239.024" y2="109.5"/>
<line x1="234.417" y1="108.27" x2="239.024" y2="112.877"/><line x1="234.417" y1="112.877" x2="239.024" y2="108.27"/>
<line x1="234.417" y1="107.039" x2="239.024" y2="111.647"/><line x1="234.417" y1="111.647" x2="239.024" y2="107.039"/>
</g>
<path d="M266.957,205.614v -30.7575h 15.1181v 30.7575h -15.1181z" fill="#00ff00"/>
<path d="M266.957,205.614v -30.7575h 15.1181v 30.7575h -15.1181z" fill="none" stroke="#ff0000"/>
<path d="M266.957,130.72h 15.1181" fill="none" stroke="#ff0000"/>
<path d="M266.957,250.059h 15.1181" fill="none" stroke="#ff0000"/>
<path d="M274.516,130.72v 44.1371" fill="none" stroke="#ff0000"/>
<path d="M274.516,205.614v 44.4446" fill="none" stroke="#ff0000"/>
<path d="M266.957,190.082h 15.1181" fill="none" stroke="#ff0000"/>
<g stroke="#ff0000" stroke-width="1" fill="none">
<circle cx="274.516" cy="189.875" r="3.25821"/>
</g>
<path d="M266.957,250.059h 15.1181" fill="none" stroke="#ff0000"/>
<path d="M266.957,130.72h 15.1181" fill="none" stroke="#ff0000"/>
<g stroke="#ff0000" stroke-width="1" fill="none">
<line x1="272.212" y1="257.444" x2="276.819" y2="262.051"/><line x1="272.212" y1="262.051" x2="276.819" y2="257.444"/>
<line x1="272.212" y1="121.496" x2="276.819" y2="126.103"/><line x1="272.212" y1="126.103" x2="276.819" y2="121.496"/>
</g>
<path d="M304.752,211.766v -28.2969h 15.1181v 28.2969h -15.1181z" fill="#00ff00"/>
<path d="M304.752,211.766v -28.2969h 15.1181v 28.2969h -15.1181z" fill="none" stroke="#ff0000"/>
<path d="M304.752,143.945h 15.1181" fill="none" stroke="#ff0000"/>
<path d="M304.752,253.75h 15.1181" fill="none" stroke="#ff0000"/>
<path d="M312.311,143.945v 39.5234" fill="none" stroke="#ff0000"/>
<path d="M312.311,211.766v 41.984" fill="none" stroke="#ff0000"/>
<path d="M304.752,197.802h 15.1181" fill="none" stroke="#ff0000"/>
<g stroke="#ff0000" stroke-width="1" fill="none">
<circle cx="312.311" cy="197.602" r="3.25821"/>
</g>
<path d="M304.752,253.75h 15.1181" fill="none" stroke="#ff0000"/>
<path d="M304.752,143.945h 15.1181" fill="none" stroke="#ff0000"/>
<g stroke="#ff0000" stroke-width="1" fill="none">
<line x1="310.007" y1="260.827" x2="314.615" y2="265.434"/><line x1="310.007" y1="265.434" x2="314.615" y2="260.827"/>
<line x1="310.007" y1="258.674" x2="314.615" y2="263.281"/><line x1="310.007" y1="263.281" x2="314.615" y2="258.674"/>
<line x1="310.007" y1="257.751" x2="314.615" y2="262.359"/><line x1="310.007" y1="262.359" x2="314.615" y2="257.751"/>
<line x1="310.007" y1="254.06" x2="314.615" y2="258.668"/><line x1="310.007" y1="258.668" x2="314.615" y2="254.06"/>
<line x1="310.007" y1="253.445" x2="314.615" y2="258.052"/><line x1="310.007" y1="258.052" x2="314.615" y2="253.445"/>
<line x1="310.007" y1="136.259" x2="314.615" y2="140.866"/><line x1="310.007" y1="140.866" x2="314.615" y2="136.259"/>
<line x1="310.007" y1="135.029" x2="314.615" y2="139.636"/><line x1="310.007" y1="139.636" x2="314.615" y2="135.029"/>
<line x1="310.007" y1="133.491" x2="314.615" y2="138.098"/><line x1="310.007" y1="138.098" x2="314.615" y2="133.491"/>
<line x1="310.007" y1="130.723" x2="314.615" y2="135.33"/><line x1="310.007" y1="135.33" x2="314.615" y2="130.723"/>
<line x1="310.007" y1="128.262" x2="314.615" y2="132.869"/><line x1="310.007" y1="132.869" x2="314.615" y2="128.262"/>
<line x1="310.007" y1="122.111" x2="314.615" y2="126.718"/><line x1="310.007" y1="126.718" x2="314.615" y2="122.111"/>
<line x1="310.007" y1="117.497" x2="314.615" y2="122.104"/><line x1="310.007" y1="122.104" x2="314.615" y2="117.497"/>
</g>
<path d="M342.547,219.028v -29.4076h 15.1181v 29.4076h -15.1181z" fill="#00ff00"/>
<path d="M342.547,219.028v -29.4076h 15.1181v 29.4076h -15.1181z" fill="none" stroke="#ff0000"/>
<path d="M342.547,150.404h 15.1181" fill="none" stroke="#ff0000"/>
<path d="M342.547,261.747h 15.1181" fill="none" stroke="#ff0000"/>
<path d="M350.106,150.404v 39.2159" fill="none" stroke="#ff0000"/>
<path d="M350.106,219.028v 42.7188" fill="none" stroke="#ff0000"/>
<path d="M342.547,203.553h 15.1181" fill="none" stroke="#ff0000"/>
<g stroke="#ff0000" stroke-width="1" fill="none">
<circle cx="350.106" cy="204.017" r="3.25821"/>
</g>
<path d="M342.547,261.747h 15.1181" fill="none" stroke="#ff0000"/>
<path d="M342.547,150.404h 15.1181" fill="none" stroke="#ff0000"/>
<g stroke="#ff0000" stroke-width="1" fill="none">
<line x1="347.803" y1="268.209" x2="352.41" y2="272.816"/><line x1="347.803" y1="272.816" x2="352.41" y2="268.209"/>
<line x1="347.803" y1="142.718" x2="352.41" y2="147.325"/><line x1="347.803" y1="147.325" x2="352.41" y2="142.718"/>
<line x1="347.803" y1="139.642" x2="352.41" y2="144.25"/><line x1="347.803" y1="144.25" x2="352.41" y2="139.642"/>
<line x1="347.803" y1="139.335" x2="352.41" y2="143.942"/><line x1="347.803" y1="143.942" x2="352.41" y2="139.335"/>
<line x1="347.803" y1="139.124" x2="352.41" y2="143.731"/><line x1="347.803" y1="143.731" x2="352.41" y2="139.124"/>
<line x1="347.803" y1="138.889" x2="352.41" y2="143.496"/><line x1="347.803" y1="143.496" x2="352.41" y2="138.889"/>
<line x1="347.803" y1="132.568" x2="352.41" y2="137.175"/><line x1="347.803" y1="137.175" x2="352.41" y2="132.568"/>
</g>
<path d="M380.343,224.701v -28.4678h 15.1181v 28.4678h -15.1181z" fill="#00ff00"/>
<path d="M380.343,224.701v -28.4678h 15.1181v 28.4678h -15.1181z" fill="none" stroke="#ff0000"/>
<path d="M380.343,154.095h 15.1181" fill="none" stroke="#ff0000"/>
<path d="M380.343,266.053h 15.1181" fill="none" stroke="#ff0000"/>
<path d="M387.902,154.095v 42.1378" fill="none" stroke="#ff0000"/>
<path d="M387.902,224.701v 41.3518" fill="none" stroke="#ff0000"/>
<path d="M380.343,210.885h 15.1181" fill="none" stroke="#ff0000"/>
<g stroke="#ff0000" stroke-width="1" fill="none">
<circle cx="387.902" cy="210.653" r="3.25821"/>
</g>
<path d="M380.343,266.053h 15.1181" fill="none" stroke="#ff0000"/>
<path d="M380.343,154.095h 15.1181" fill="none" stroke="#ff0000"/>
<g stroke="#ff0000" stroke-width="1" fill="none">
<line x1="385.598" y1="269.747" x2="390.205" y2="274.354"/><line x1="385.598" y1="274.354" x2="390.205" y2="269.747"/>
<line x1="385.598" y1="269.439" x2="390.205" y2="274.046"/><line x1="385.598" y1="274.046" x2="390.205" y2="269.439"/>
<line x1="385.598" y1="267.594" x2="390.205" y2="272.201"/><line x1="385.598" y1="272.201" x2="390.205" y2="267.594"/>
<line x1="385.598" y1="266.671" x2="390.205" y2="271.278"/><line x1="385.598" y1="271.278" x2="390.205" y2="266.671"/>
<line x1="385.598" y1="147.332" x2="390.205" y2="151.939"/><line x1="385.598" y1="151.939" x2="390.205" y2="147.332"/>
</g>
<path d="M418.138,229.349v -28.502h 15.1181v 28.502h -15.1181z" fill="#00ff00"/>
<path d="M418.138,229.349v -28.502h 15.1181v 28.502h -15.1181z" fill="none" stroke="#ff0000"/>
<path d="M418.138,160.862h 15.1181" fill="none" stroke="#ff0000"/>
<path d="M418.138,270.974h 15.1181" fill="none" stroke="#ff0000"/>
<path d="M425.697,160.862v 39.9848" fill="none" stroke="#ff0000"/>
<path d="M425.697,229.349v 41.6252" fill="none" stroke="#ff0000"/>
<path d="M418.138,214.841h 15.1181" fill="none" stroke="#ff0000"/>
<g stroke="#ff0000" stroke-width="1" fill="none">
<circle cx="425.697" cy="215.21" r="3.25821"/>
</g>
<path d="M418.138,270.974h 15.1181" fill="none" stroke="#ff0000"/>
<path d="M418.138,160.862h 15.1181" fill="none" stroke="#ff0000"/>
<g stroke="#ff0000" stroke-width="1" fill="none">
<line x1="423.393" y1="286.452" x2="428" y2="291.059"/><line x1="423.393" y1="291.059" x2="428" y2="286.452"/>
<line x1="423.393" y1="286.217" x2="428" y2="290.824"/><line x1="423.393" y1="290.824" x2="428" y2="286.217"/>
<line x1="423.393" y1="277.744" x2="428" y2="282.351"/><line x1="423.393" y1="282.351" x2="428" y2="277.744"/>
<line x1="423.393" y1="273.13" x2="428" y2="277.737"/><line x1="423.393" y1="277.737" x2="428" y2="273.13"/>
<line x1="423.393" y1="270.67" x2="428" y2="275.277"/><line x1="423.393" y1="275.277" x2="428" y2="270.67"/>
<line x1="423.393" y1="151.945" x2="428" y2="156.553"/><line x1="423.393" y1="156.553" x2="428" y2="151.945"/>
<line x1="423.393" y1="148.87" x2="428" y2="153.477"/><line x1="423.393" y1="153.477" x2="428" y2="148.87"/>
</g>
<path d="M455.933,237.294v -30.6037h 15.1181v 30.6037h -15.1181z" fill="#00ff00"/>
<path d="M455.933,237.294v -30.6037h 15.1181v 30.6037h -15.1181z" fill="none" stroke="#ff0000"/>
<path d="M455.933,163.323h 15.1181" fill="none" stroke="#ff0000"/>
<path d="M455.933,281.124h 15.1181" fill="none" stroke="#ff0000"/>
<path d="M463.492,163.323v 43.3681" fill="none" stroke="#ff0000"/>
<path d="M463.492,237.294v 43.8295" fill="none" stroke="#ff0000"/>
<path d="M455.933,222.597h 15.1181" fill="none" stroke="#ff0000"/>
<g stroke="#ff0000" stroke-width="1" fill="none">
<circle cx="463.492" cy="222.079" r="3.25821"/>
</g>
<path d="M455.933,281.124h 15.1181" fill="none" stroke="#ff0000"/>
<path d="M455.933,163.323h 15.1181" fill="none" stroke="#ff0000"/>
<g stroke="#ff0000" stroke-width="1" fill="none">
<line x1="461.189" y1="286.971" x2="465.796" y2="291.578"/><line x1="461.189" y1="291.578" x2="465.796" y2="286.971"/>
<line x1="461.189" y1="282.05" x2="465.796" y2="286.657"/><line x1="461.189" y1="286.657" x2="465.796" y2="282.05"/>
<line x1="461.189" y1="281.435" x2="465.796" y2="286.042"/><line x1="461.189" y1="286.042" x2="465.796" y2="281.435"/>
<line x1="461.189" y1="156.559" x2="465.796" y2="161.166"/><line x1="461.189" y1="161.166" x2="465.796" y2="156.559"/>
<line x1="461.189" y1="155.021" x2="465.796" y2="159.628"/><line x1="461.189" y1="159.628" x2="465.796" y2="155.021"/>
</g>
<path d="M493.728,237.038v -30.1936h 15.1181v 30.1936h -15.1181z" fill="#00ff00"/>
<path d="M493.728,237.038v -30.1936h 15.1181v 30.1936h -15.1181z" fill="none" stroke="#ff0000"/>
<path d="M493.728,161.785h 15.1181" fill="none" stroke="#ff0000"/>
<path d="M493.728,278.663h 15.1181" fill="none" stroke="#ff0000"/>
<path d="M501.287,161.785v 45.0598" fill="none" stroke="#ff0000"/>
<path d="M501.287,237.038v 41.6252" fill="none" stroke="#ff0000"/>
<path d="M493.728,222.377h 15.1181" fill="none" stroke="#ff0000"/>
<g stroke="#ff0000" stroke-width="1" fill="none">
<circle cx="501.287" cy="222.006" r="3.25821"/>
</g>
<path d="M493.728,278.663h 15.1181" fill="none" stroke="#ff0000"/>
<path d="M493.728,161.785h 15.1181" fill="none" stroke="#ff0000"/>
<g stroke="#ff0000" stroke-width="1" fill="none">
<line x1="498.984" y1="293.738" x2="503.591" y2="298.345"/><line x1="498.984" y1="298.345" x2="503.591" y2="293.738"/>
<line x1="498.984" y1="280.512" x2="503.591" y2="285.119"/><line x1="498.984" y1="285.119" x2="503.591" y2="280.512"/>
<line x1="498.984" y1="155.733" x2="503.591" y2="160.34"/><line x1="498.984" y1="160.34" x2="503.591" y2="155.733"/>
<line x1="498.984" y1="155.498" x2="503.591" y2="160.105"/><line x1="498.984" y1="160.105" x2="503.591" y2="155.498"/>
<line x1="498.984" y1="135.952" x2="503.591" y2="140.559"/><line x1="498.984" y1="140.559" x2="503.591" y2="135.952"/>
</g>
<rect x="442.705" y="24.9905" width="113.386" height="92.2726" fill="white"/>
<path d="M442.705,117.263h 113.386" fill="none" stroke="black"/>
<path d="M556.091,117.263v -92.2726" fill="none" stroke="black"/>
<path d="M556.091,24.9905h -113.386" fill="none" stroke="black"/>
<path d="M442.705,24.9905v 92.2726" fill="none" stroke="black"/>
<text xml:space="preserve" x="471.312" y="52.1314" fill="black" font-size="9.50205" font-family="Helvetica">Machine A + B
</text>
<path d="M446.957,64.2064h 19.8425v -32.2954h -19.8425z" fill="#ffff00"/>
<path d="M446.957,31.9109h 19.8425" fill="none" stroke="#000099"/>
<path d="M446.957,64.2064h 19.8425" fill="none" stroke="#000099"/>
<path d="M466.799,64.2064v -32.2954" fill="none" stroke="#000099"/>
<path d="M446.957,64.2064v -32.2954" fill="none" stroke="#000099"/>
<text xml:space="preserve" x="471.312" y="98.561" fill="black" font-size="9.50205" font-family="Helvetica">Machine B
</text>
<path d="M446.957,110.343h 19.8425v -32.2954h -19.8425z" fill="#00ff00"/>
<path d="M446.957,78.0472h 19.8425" fill="none" stroke="#ff0000"/>
<path d="M446.957,110.343h 19.8425" fill="none" stroke="#ff0000"/>
<path d="M466.799,110.343v -32.2954" fill="none" stroke="#ff0000"/>
<path d="M446.957,110.343v -32.2954" fill="none" stroke="#ff0000"/>
<text xml:space="preserve" x="227.76" y="18.7347" fill="black" font-size="16.9898" font-family="Helvetica">Machine A + B
</text></svg>
