<?xml version="1.0" standalone="no"?>
<svg width="567.429" height="354.355" viewBox="0 0 567.429 354.355" xmlns="http://www.w3.org/2000/svg" shape-rendering="crispEdges">
<title>
/Users/adrianduesselberg/root-graphic-tests/build/old_svg_pro/exclusiongraph_pro.svg
</title>
<desc>
Creator: ROOT Version 6.32.02
CreationDate: Mon Sep  2 14:33:53 2024</desc>
<defs>
</defs>
<rect x="0.5" y="0" width="566.929" height="353.855" fill="white"/>
<rect x="91.2087" y="17.6928" width="447.874" height="279.546" fill="white"/>
<rect x="91.2087" y="17.6928" width="447.874" height="279.546" fill="none" stroke="black"/>
<path d="M91.2087,297.238h 447.874" fill="none" stroke="black"/>
<path d="M111.567,17.6928v 279.546" fill="none" stroke="black" stroke-dasharray=" 1, 2"/>
<path d="M163.766,17.6928v 279.546" fill="none" stroke="black" stroke-dasharray=" 1, 2"/>
<path d="M215.966,17.6928v 279.546" fill="none" stroke="black" stroke-dasharray=" 1, 2"/>
<path d="M268.166,17.6928v 279.546" fill="none" stroke="black" stroke-dasharray=" 1, 2"/>
<path d="M320.366,17.6928v 279.546" fill="none" stroke="black" stroke-dasharray=" 1, 2"/>
<path d="M372.565,17.6928v 279.546" fill="none" stroke="black" stroke-dasharray=" 1, 2"/>
<path d="M424.765,17.6928v 279.546" fill="none" stroke="black" stroke-dasharray=" 1, 2"/>
<path d="M476.965,17.6928v 279.546" fill="none" stroke="black" stroke-dasharray=" 1, 2"/>
<path d="M529.165,17.6928v 279.546" fill="none" stroke="black" stroke-dasharray=" 1, 2"/>
<path d="M111.567,17.6928v 279.546" fill="none" stroke="black" stroke-dasharray=" 1, 2"/>
<path d="M529.165,17.6928v 279.546" fill="none" stroke="black" stroke-dasharray=" 1, 2"/>
<path d="M91.2087,17.6928h 447.874" fill="none" stroke="black"/>
<path d="M91.2087,297.238v -279.546" fill="none" stroke="black"/>
<path d="M539.083,284.642h -447.874" fill="none" stroke="black" stroke-dasharray=" 1, 2"/>
<path d="M539.083,221.081h -447.874" fill="none" stroke="black" stroke-dasharray=" 1, 2"/>
<path d="M539.083,157.52h -447.874" fill="none" stroke="black" stroke-dasharray=" 1, 2"/>
<path d="M539.083,93.9599h -447.874" fill="none" stroke="black" stroke-dasharray=" 1, 2"/>
<path d="M539.083,30.3994h -447.874" fill="none" stroke="black" stroke-dasharray=" 1, 2"/>
<path d="M539.083,284.642h -447.874" fill="none" stroke="black" stroke-dasharray=" 1, 2"/>
<path d="M539.083,30.3994h -447.874" fill="none" stroke="black" stroke-dasharray=" 1, 2"/>
<path d="M539.083,297.238v -279.546" fill="none" stroke="black"/>
<path d="M91.2087,297.238h 447.874" fill="none" stroke="black"/>
<path d="M111.567,288.852v 8.38636" fill="none" stroke="black"/>
<path d="M122.007,293.045v 4.19318" fill="none" stroke="black"/>
<path d="M132.446,293.045v 4.19318" fill="none" stroke="black"/>
<path d="M142.886,293.045v 4.19318" fill="none" stroke="black"/>
<path d="M153.326,293.045v 4.19318" fill="none" stroke="black"/>
<path d="M163.766,288.852v 8.38636" fill="none" stroke="black"/>
<path d="M174.206,293.045v 4.19318" fill="none" stroke="black"/>
<path d="M184.646,293.045v 4.19318" fill="none" stroke="black"/>
<path d="M195.086,293.045v 4.19318" fill="none" stroke="black"/>
<path d="M205.526,293.045v 4.19318" fill="none" stroke="black"/>
<path d="M215.966,288.852v 8.38636" fill="none" stroke="black"/>
<path d="M226.406,293.045v 4.19318" fill="none" stroke="black"/>
<path d="M236.846,293.045v 4.19318" fill="none" stroke="black"/>
<path d="M247.286,293.045v 4.19318" fill="none" stroke="black"/>
<path d="M257.726,293.045v 4.19318" fill="none" stroke="black"/>
<path d="M268.166,288.852v 8.38636" fill="none" stroke="black"/>
<path d="M278.606,293.045v 4.19318" fill="none" stroke="black"/>
<path d="M289.046,293.045v 4.19318" fill="none" stroke="black"/>
<path d="M299.486,293.045v 4.19318" fill="none" stroke="black"/>
<path d="M309.926,293.045v 4.19318" fill="none" stroke="black"/>
<path d="M320.366,288.852v 8.38636" fill="none" stroke="black"/>
<path d="M330.806,293.045v 4.19318" fill="none" stroke="black"/>
<path d="M341.246,293.045v 4.19318" fill="none" stroke="black"/>
<path d="M351.686,293.045v 4.19318" fill="none" stroke="black"/>
<path d="M362.125,293.045v 4.19318" fill="none" stroke="black"/>
<path d="M372.565,288.852v 8.38636" fill="none" stroke="black"/>
<path d="M383.005,293.045v 4.19318" fill="none" stroke="black"/>
<path d="M393.445,293.045v 4.19318" fill="none" stroke="black"/>
<path d="M403.885,293.045v 4.19318" fill="none" stroke="black"/>
<path d="M414.325,293.045v 4.19318" fill="none" stroke="black"/>
<path d="M424.765,288.852v 8.38636" fill="none" stroke="black"/>
<path d="M435.205,293.045v 4.19318" fill="none" stroke="black"/>
<path d="M445.645,293.045v 4.19318" fill="none" stroke="black"/>
<path d="M456.085,293.045v 4.19318" fill="none" stroke="black"/>
<path d="M466.525,293.045v 4.19318" fill="none" stroke="black"/>
<path d="M476.965,288.852v 8.38636" fill="none" stroke="black"/>
<path d="M487.405,293.045v 4.19318" fill="none" stroke="black"/>
<path d="M497.845,293.045v 4.19318" fill="none" stroke="black"/>
<path d="M508.285,293.045v 4.19318" fill="none" stroke="black"/>
<path d="M518.725,293.045v 4.19318" fill="none" stroke="black"/>
<path d="M529.165,288.852v 8.38636" fill="none" stroke="black"/>
<path d="M111.567,288.852v 8.38636" fill="none" stroke="black"/>
<path d="M101.127,293.045v 4.19318" fill="none" stroke="black"/>
<path d="M529.165,288.852v 8.38636" fill="none" stroke="black"/>
<text xml:space="preserve" x="107.037" y="312.952" fill="black" font-size="16.7319" font-family="Helvetica">0
</text>
<text xml:space="preserve" x="152.696" y="312.952" fill="black" font-size="16.7319" font-family="Helvetica">0.5
</text>
<text xml:space="preserve" x="213.574" y="312.952" fill="black" font-size="16.7319" font-family="Helvetica">1
</text>
<text xml:space="preserve" x="256.379" y="312.952" fill="black" font-size="16.7319" font-family="Helvetica">1.5
</text>
<text xml:space="preserve" x="315.355" y="312.952" fill="black" font-size="16.7319" font-family="Helvetica">2
</text>
<text xml:space="preserve" x="361.014" y="312.952" fill="black" font-size="16.7319" font-family="Helvetica">2.5
</text>
<text xml:space="preserve" x="419.99" y="312.952" fill="black" font-size="16.7319" font-family="Helvetica">3
</text>
<text xml:space="preserve" x="465.648" y="312.952" fill="black" font-size="16.7319" font-family="Helvetica">3.5
</text>
<text xml:space="preserve" x="524.624" y="312.952" fill="black" font-size="16.7319" font-family="Helvetica">4
</text>
<path d="M91.2087,17.6928h 447.874" fill="none" stroke="black"/>
<path d="M111.567,26.0791v -8.38636" fill="none" stroke="black"/>
<path d="M122.007,21.8859v -4.19318" fill="none" stroke="black"/>
<path d="M132.446,21.8859v -4.19318" fill="none" stroke="black"/>
<path d="M142.886,21.8859v -4.19318" fill="none" stroke="black"/>
<path d="M153.326,21.8859v -4.19318" fill="none" stroke="black"/>
<path d="M163.766,26.0791v -8.38636" fill="none" stroke="black"/>
<path d="M174.206,21.8859v -4.19318" fill="none" stroke="black"/>
<path d="M184.646,21.8859v -4.19318" fill="none" stroke="black"/>
<path d="M195.086,21.8859v -4.19318" fill="none" stroke="black"/>
<path d="M205.526,21.8859v -4.19318" fill="none" stroke="black"/>
<path d="M215.966,26.0791v -8.38636" fill="none" stroke="black"/>
<path d="M226.406,21.8859v -4.19318" fill="none" stroke="black"/>
<path d="M236.846,21.8859v -4.19318" fill="none" stroke="black"/>
<path d="M247.286,21.8859v -4.19318" fill="none" stroke="black"/>
<path d="M257.726,21.8859v -4.19318" fill="none" stroke="black"/>
<path d="M268.166,26.0791v -8.38636" fill="none" stroke="black"/>
<path d="M278.606,21.8859v -4.19318" fill="none" stroke="black"/>
<path d="M289.046,21.8859v -4.19318" fill="none" stroke="black"/>
<path d="M299.486,21.8859v -4.19318" fill="none" stroke="black"/>
<path d="M309.926,21.8859v -4.19318" fill="none" stroke="black"/>
<path d="M320.366,26.0791v -8.38636" fill="none" stroke="black"/>
<path d="M330.806,21.8859v -4.19318" fill="none" stroke="black"/>
<path d="M341.246,21.8859v -4.19318" fill="none" stroke="black"/>
<path d="M351.686,21.8859v -4.19318" fill="none" stroke="black"/>
<path d="M362.125,21.8859v -4.19318" fill="none" stroke="black"/>
<path d="M372.565,26.0791v -8.38636" fill="none" stroke="black"/>
<path d="M383.005,21.8859v -4.19318" fill="none" stroke="black"/>
<path d="M393.445,21.8859v -4.19318" fill="none" stroke="black"/>
<path d="M403.885,21.8859v -4.19318" fill="none" stroke="black"/>
<path d="M414.325,21.8859v -4.19318" fill="none" stroke="black"/>
<path d="M424.765,26.0791v -8.38636" fill="none" stroke="black"/>
<path d="M435.205,21.8859v -4.19318" fill="none" stroke="black"/>
<path d="M445.645,21.8859v -4.19318" fill="none" stroke="black"/>
<path d="M456.085,21.8859v -4.19318" fill="none" stroke="black"/>
<path d="M466.525,21.8859v -4.19318" fill="none" stroke="black"/>
<path d="M476.965,26.0791v -8.38636" fill="none" stroke="black"/>
<path d="M487.405,21.8859v -4.19318" fill="none" stroke="black"/>
<path d="M497.845,21.8859v -4.19318" fill="none" stroke="black"/>
<path d="M508.285,21.8859v -4.19318" fill="none" stroke="black"/>
<path d="M518.725,21.8859v -4.19318" fill="none" stroke="black"/>
<path d="M529.165,26.0791v -8.38636" fill="none" stroke="black"/>
<path d="M111.567,26.0791v -8.38636" fill="none" stroke="black"/>
<path d="M101.127,21.8859v -4.19318" fill="none" stroke="black"/>
<path d="M529.165,26.0791v -8.38636" fill="none" stroke="black"/>
<path d="M91.2087,297.238v -279.546" fill="none" stroke="black"/>
<path d="M104.645,284.642h -13.4362" fill="none" stroke="black"/>
<path d="M97.9268,271.929h -6.71811" fill="none" stroke="black"/>
<path d="M97.9268,259.217h -6.71811" fill="none" stroke="black"/>
<path d="M97.9268,246.505h -6.71811" fill="none" stroke="black"/>
<path d="M97.9268,233.793h -6.71811" fill="none" stroke="black"/>
<path d="M104.645,221.081h -13.4362" fill="none" stroke="black"/>
<path d="M97.9268,208.369h -6.71811" fill="none" stroke="black"/>
<path d="M97.9268,195.657h -6.71811" fill="none" stroke="black"/>
<path d="M97.9268,182.945h -6.71811" fill="none" stroke="black"/>
<path d="M97.9268,170.233h -6.71811" fill="none" stroke="black"/>
<path d="M104.645,157.52h -13.4362" fill="none" stroke="black"/>
<path d="M97.9268,144.808h -6.71811" fill="none" stroke="black"/>
<path d="M97.9268,132.096h -6.71811" fill="none" stroke="black"/>
<path d="M97.9268,119.384h -6.71811" fill="none" stroke="black"/>
<path d="M97.9268,106.672h -6.71811" fill="none" stroke="black"/>
<path d="M104.645,93.9599h -13.4362" fill="none" stroke="black"/>
<path d="M97.9268,81.2478h -6.71811" fill="none" stroke="black"/>
<path d="M97.9268,68.5357h -6.71811" fill="none" stroke="black"/>
<path d="M97.9268,55.8236h -6.71811" fill="none" stroke="black"/>
<path d="M97.9268,43.1115h -6.71811" fill="none" stroke="black"/>
<path d="M104.645,30.3994h -13.4362" fill="none" stroke="black"/>
<path d="M104.645,284.642h -13.4362" fill="none" stroke="black"/>
<path d="M104.645,30.3994h -13.4362" fill="none" stroke="black"/>
<text xml:space="preserve" x="69.9393" y="291.074" fill="black" font-size="16.7319" font-family="Helvetica">10
</text>
<text xml:space="preserve" x="60.4271" y="291.074" fill="black" font-size="16.7319" font-family="Times">&#8722;
</text>
<text xml:space="preserve" x="79.4515" y="226.391" fill="black" font-size="16.7319" font-family="Helvetica">5
</text>
<text xml:space="preserve" x="69.9393" y="226.391" fill="black" font-size="16.7319" font-family="Times">&#8722;
</text>
<text xml:space="preserve" x="79.4515" y="164.562" fill="black" font-size="16.7319" font-family="Helvetica">0
</text>
<text xml:space="preserve" x="79.4515" y="99.8784" fill="black" font-size="16.7319" font-family="Helvetica">5
</text>
<text xml:space="preserve" x="69.9393" y="37.0977" fill="black" font-size="16.7319" font-family="Helvetica">10
</text>
<path d="M539.083,297.238v -279.546" fill="none" stroke="black"/>
<path d="M525.646,284.642h 13.4362" fill="none" stroke="black"/>
<path d="M532.365,271.929h 6.71811" fill="none" stroke="black"/>
<path d="M532.365,259.217h 6.71811" fill="none" stroke="black"/>
<path d="M532.365,246.505h 6.71811" fill="none" stroke="black"/>
<path d="M532.365,233.793h 6.71811" fill="none" stroke="black"/>
<path d="M525.646,221.081h 13.4362" fill="none" stroke="black"/>
<path d="M532.365,208.369h 6.71811" fill="none" stroke="black"/>
<path d="M532.365,195.657h 6.71811" fill="none" stroke="black"/>
<path d="M532.365,182.945h 6.71811" fill="none" stroke="black"/>
<path d="M532.365,170.233h 6.71811" fill="none" stroke="black"/>
<path d="M525.646,157.52h 13.4362" fill="none" stroke="black"/>
<path d="M532.365,144.808h 6.71811" fill="none" stroke="black"/>
<path d="M532.365,132.096h 6.71811" fill="none" stroke="black"/>
<path d="M532.365,119.384h 6.71811" fill="none" stroke="black"/>
<path d="M532.365,106.672h 6.71811" fill="none" stroke="black"/>
<path d="M525.646,93.9599h 13.4362" fill="none" stroke="black"/>
<path d="M532.365,81.2478h 6.71811" fill="none" stroke="black"/>
<path d="M532.365,68.5357h 6.71811" fill="none" stroke="black"/>
<path d="M532.365,55.8236h 6.71811" fill="none" stroke="black"/>
<path d="M532.365,43.1115h 6.71811" fill="none" stroke="black"/>
<path d="M525.646,30.3994h 13.4362" fill="none" stroke="black"/>
<path d="M525.646,284.642h 13.4362" fill="none" stroke="black"/>
<path d="M525.646,30.3994h 13.4362" fill="none" stroke="black"/>
<path d="M91.2087,140.773l 20.3579, 16.747l 10.44, -12.6909l 10.44, -12.5641l 10.44, -12.3118l 10.44, -11.9364l 10.44, -11.4418l 8.91497, -9.29427l 1.52498, -1.5386l 8.30578, -8.1127l 2.13417, -2.00299l 7.82008, -7.04776l 2.61987, -2.24967l 7.42723,
 -6.06589l 3.01273, -2.32039l 7.10996, -5.14731l 3.33, -2.24403l 6.85665, -4.27763l 3.5833, -2.04491l 6.65872, -3.4452l 3.78123, -1.74538l 6.50962, -2.64021l 3.93033, -1.36653l 6.40445, -1.8543l 4.0355, -0.928575l 6.33977, -1.0802l 4.10018,
 -0.451007l 6.31344, -0.311392l 4.12651, 0.0471555l 6.3247, 0.458226l 4.11526, 0.547149l 6.37409, 1.23477l 4.06586, 1.03017l 6.46324, 2.0247l 3.97671, 1.47717l 6.59509, 2.83514l 3.84487, 1.86868l 6.77399, 3.67426l 3.66597, 2.18451l 7.00593, 4.55157l
 3.43402, 2.4036l 7.29885, 5.47838l 3.14111, 2.50371l 7.66335, 6.4684l 2.7766, 2.46084l 8.11468, 7.53964l 2.32528, 2.24754l 8.67815, 8.72027l 1.7618, 1.82707l 10.44, 11.2021l 10.44, 11.7449l 10.44, 12.1704l 10.44, 12.4743l 10.44, 12.6536l 10.44,
 12.7064l 10.44, 12.6322l 10.44, 12.4319l 32.5612, -27.344l -10.3325, -12.3034l -10.2943, -12.4565l -10.4288, -12.6928l -10.5627, -12.8019l -10.702, -12.7866l -10.853, -12.6506l -11.0226, -12.3985l -11.027, -11.834l -2.24539, -2.3289l -9.20625,
 -9.24996l -2.92357, -2.82576l -8.78836, -8.1644l -3.53467, -3.13249l -8.51251, -7.18372l -4.09166, -3.261l -8.35845, -6.27201l -3.75216, -2.6258h -173.799l -0.366479, 0.246908l -8.20113, 5.93562l -3.99356, 3.07537l -8.30419, 6.78069l -3.4047,
 2.92335l -8.51837, 7.67588l -2.75644, 2.58692l -8.85599, 8.64912l -2.01264, 2.03065l -9.52151, 9.92932l -11.0991, 12.1628l -10.9493, 12.5171l -10.7884, 12.7216l -8.67104, 10.4348z" fill="white"/>
<path d="M111.567,157.52l 10.44, -12.6909l 10.44, -12.5641l 10.44, -12.3118l 10.44, -11.9364l 10.44, -11.4418l 8.91497, -9.29427l 1.52498, -1.5386l 8.30578, -8.1127l 2.13417, -2.00299l 7.82008, -7.04776l 2.61987, -2.24967l 7.42723, -6.06589l 3.01273,
 -2.32039l 7.10996, -5.14731l 3.33, -2.24403l 6.85665, -4.27763l 3.5833, -2.04491l 6.65872, -3.4452l 3.78123, -1.74538l 6.50962, -2.64021l 3.93033, -1.36653l 6.40445, -1.8543l 4.0355, -0.928575l 6.33977, -1.0802l 4.10018, -0.451007l 6.31344,
 -0.311392l 4.12651, 0.0471555l 6.3247, 0.458226l 4.11526, 0.547149l 6.37409, 1.23477l 4.06586, 1.03017l 6.46324, 2.0247l 3.97671, 1.47717l 6.59509, 2.83514l 3.84487, 1.86868l 6.77399, 3.67426l 3.66597, 2.18451l 7.00593, 4.55157l 3.43402, 2.4036l
 7.29885, 5.47838l 3.14111, 2.50371l 7.66335, 6.4684l 2.7766, 2.46084l 8.11468, 7.53964l 2.32528, 2.24754l 8.67815, 8.72027l 1.7618, 1.82707l 10.44, 11.2021l 10.44, 11.7449l 10.44, 12.1704l 10.44, 12.4743l 10.44, 12.6536l 10.44, 12.7064l 10.44,
 12.6322l 10.44, 12.4319" fill="none" stroke="#ff0000" stroke-width="4"/>
<path d="M111.567,30.3994l 8.15311, 0.387877l 2.28684, 0.247199l 8.18427, 1.38284l 2.25569, 0.51604l 8.2683, 2.3893l 2.17165, 0.754413l 8.39695, 3.41176l 2.04301, 0.945376l 8.57377, 4.45653l 1.86618, 1.0705l 8.80442, 5.53128l 1.63553, 1.11041l
 9.09793, 6.64651l 1.34202, 1.04348l 10.44, 8.66146l 10.44, 9.54638l 10.44, 10.3359l 10.44, 11.0222l 10.44, 11.5983l 10.44, 12.0586l 10.44, 12.3983l 10.44, 12.6142l 10.44, 12.7041l 10.44, 12.667l 10.44, 12.5033l 10.44, 12.2147l 10.44, 11.8041l 10.44,
 11.2755l 10.44, 10.6343l 10.44, 9.88683l 10.44, 9.04056l 10.44, 8.10396l 8.91775, 6.1203l 1.52221, 0.966088l 8.66231, 5.05712l 1.77765, 0.940889l 8.46397, 4.02292l 1.97598, 0.826779l 8.31589, 3.00906l 2.12407, 0.643869l 8.21373, 2.00875l 2.22622,
 0.41092l 8.15481, 1.0161l 2.28514, 0.146123l 8.13767, 0.0257246l 2.30228, -0.132554l 8.16171, -0.967564l 2.27824, -0.407252l 8.18362, -1.95459l 2.25634, -0.674475l 5.02712, 16.8173h -142.615l -2.76259, -2.14338l -12.5461, -10.8561l -12.1088,
 -11.4609l -11.7463, -11.9602l -11.4436, -12.3561l -11.1871, -12.6464l -10.9646, -12.8269l -10.7657, -12.8924l -10.5812, -12.838l -10.403, -12.6592l -10.2232, -12.353l -10.0338, -11.9172l -9.82619, -11.3516l -9.59088, -10.6579l -9.31675, -9.84033l
 -8.99097, -8.90676l -8.59915, -7.87027l -8.67736, -7.18702l -7.61248, -5.56386l 0.00662283, 0.0038951l -6.98767, -4.39282l 0.139822, 0.0793326l -6.20612, -3.22889l -5.60266, -2.27942l 0.629909, 0.217703l -5.28749, -1.53063l 0.892148, 0.203198l
 -4.90799, -0.83109l 1.09018, 0.117494l -6.4514, -0.28125z" fill="#5954d8"/>
<path d="M111.567,30.3994l 8.15311, 0.387877l 2.28684, 0.247199l 8.18427, 1.38284l 2.25569, 0.51604l 8.2683, 2.3893l 2.17165, 0.754413l 8.39695, 3.41176l 2.04301, 0.945376l 8.57377, 4.45653l 1.86618, 1.0705l 8.80442, 5.53128l 1.63553, 1.11041l
 9.09793, 6.64651l 1.34202, 1.04348l 10.44, 8.66146l 10.44, 9.54638l 10.44, 10.3359l 10.44, 11.0222l 10.44, 11.5983l 10.44, 12.0586l 10.44, 12.3983l 10.44, 12.6142l 10.44, 12.7041l 10.44, 12.667l 10.44, 12.5033l 10.44, 12.2147l 10.44, 11.8041l 10.44,
 11.2755l 10.44, 10.6343l 10.44, 9.88683l 10.44, 9.04056l 10.44, 8.10396l 8.91775, 6.1203l 1.52221, 0.966088l 8.66231, 5.05712l 1.77765, 0.940889l 8.46397, 4.02292l 1.97598, 0.826779l 8.31589, 3.00906l 2.12407, 0.643869l 8.21373, 2.00875l 2.22622,
 0.41092l 8.15481, 1.0161l 2.28514, 0.146123l 8.13767, 0.0257246l 2.30228, -0.132554l 8.16171, -0.967564l 2.27824, -0.407252l 8.18362, -1.95459l 2.25634, -0.674475" fill="none" stroke="#0000ff" stroke-width="2"/>
<path d="M163.766,182.945l 10.44, -12.6909l 10.44, -12.5641l 10.44, -12.3118l 10.44, -11.9364l 10.44, -11.4418l 8.91497, -9.29427l 1.52498, -1.5386l 8.30578, -8.1127l 2.13417, -2.00299l 7.82008, -7.04776l 2.61987, -2.24967l 7.42723, -6.06589l
 3.01273, -2.32039l 7.10996, -5.14731l 3.33, -2.24403l 6.85665, -4.27763l 3.5833, -2.04491l 6.65872, -3.4452l 3.78123, -1.74538l 6.50962, -2.64021l 3.93033, -1.36653l 6.40445, -1.8543l 4.0355, -0.928575l 6.33977, -1.0802l 4.10018, -0.451007l 6.31344,
 -0.311392l 4.12651, 0.0471555l 6.3247, 0.458226l 4.11526, 0.547149l 6.37409, 1.23477l 4.06586, 1.03017l 6.46324, 2.0247l 3.97671, 1.47717l 6.59509, 2.83514l 3.84487, 1.86868l 6.77399, 3.67426l 3.66597, 2.18451l 7.00593, 4.55157l 3.43402, 2.4036l
 7.29885, 5.47838l 3.14111, 2.50371l 7.66335, 6.4684l 2.7766, 2.46084l 8.11468, 7.53964l 2.32528, 2.24754l 8.67815, 8.72027l 1.7618, 1.82707l 10.44, 11.2021l 10.44, 11.7449l 10.44, 12.1704l 10.44, 12.4743l 10.44, 12.6536l 10.44, 12.7064l 10.44,
 12.6322l 10.44, 12.4319l -17.3659, 14.5835l -10.4972, -12.5004l -10.5176, -12.7259l -10.4459, -12.7136l -10.3745, -12.5744l -10.3002, -12.3077l -10.2197, -11.9143l -10.1292, -11.3964l -10.1269, -10.8651l -1.50388, -1.55943l -8.39651, -8.43776l
 -2.00619, -1.93916l -7.75538, -7.20644l -2.3723, -2.10263l -7.21047, -6.0869l -2.63414, -2.09982l -6.73372, -5.05511l -2.80478, -1.96348l -6.30862, -4.09958l -2.89487, -1.72544l -5.92648, -3.21571l -2.91682, -1.41814l -5.58704, -2.40297l -2.88801,
 -1.0733l -5.29979, -1.6613l -2.83233, -0.718069l -5.08322, -0.985491l -2.77764, -0.369531l -4.95928, -0.359649l -2.74798, -0.0313289l -4.94353, 0.243983l -2.75371, 0.303271l -5.03646, 0.85875l -2.78622, 0.641693l -5.2232, 1.51322l -2.82195,
 0.981818l -5.48137, 2.22424l -2.83236, 1.30801l -5.79098, 2.99731l -2.7922, 1.59395l -6.14051, 3.83186l -2.68255, 1.80809l -6.528, 4.72688l -2.48962, 1.91774l -6.95951, 5.68466l -2.2013, 1.89038l -7.44766, 6.71276l -1.80229, 1.69155l -8.01234,
 7.82662l -1.26489, 1.27617l -8.59149, 8.95558l -10.0884, 11.0573l -10.1683, 11.6267l -10.2541, 12.0932l -10.3317, 12.4341l -10.4043, 12.6477z" fill="#ff0000"/>
<path d="M163.766,182.945l 10.44, -12.6909l 10.44, -12.5641l 10.44, -12.3118l 10.44, -11.9364l 10.44, -11.4418l 8.91497, -9.29427l 1.52498, -1.5386l 8.30578, -8.1127l 2.13417, -2.00299l 7.82008, -7.04776l 2.61987, -2.24967l 7.42723, -6.06589l
 3.01273, -2.32039l 7.10996, -5.14731l 3.33, -2.24403l 6.85665, -4.27763l 3.5833, -2.04491l 6.65872, -3.4452l 3.78123, -1.74538l 6.50962, -2.64021l 3.93033, -1.36653l 6.40445, -1.8543l 4.0355, -0.928575l 6.33977, -1.0802l 4.10018, -0.451007l 6.31344,
 -0.311392l 4.12651, 0.0471555l 6.3247, 0.458226l 4.11526, 0.547149l 6.37409, 1.23477l 4.06586, 1.03017l 6.46324, 2.0247l 3.97671, 1.47717l 6.59509, 2.83514l 3.84487, 1.86868l 6.77399, 3.67426l 3.66597, 2.18451l 7.00593, 4.55157l 3.43402, 2.4036l
 7.29885, 5.47838l 3.14111, 2.50371l 7.66335, 6.4684l 2.7766, 2.46084l 8.11468, 7.53964l 2.32528, 2.24754l 8.67815, 8.72027l 1.7618, 1.82707l 10.44, 11.2021l 10.44, 11.7449l 10.44, 12.1704l 10.44, 12.4743l 10.44, 12.6536l 10.44, 12.7064l 10.44,
 12.6322l 10.44, 12.4319" fill="none" stroke="#ffff00" stroke-width="2"/></svg>
