<?xml version="1.0" standalone="no"?>
<svg width="567.429" height="407.891" viewBox="0 0 567.429 407.891" xmlns="http://www.w3.org/2000/svg" shape-rendering="crispEdges">
<title>
./old_svg_ref/Fibonacci.svg
</title>
<desc>
Creator: ROOT Version 6.33.01
CreationDate: Wed Jul 10 09:59:28 2024</desc>
<defs>
</defs>
<rect x="0.5" y="0" width="566.929" height="407.391" fill="white"/>
<rect x="91.2087" y="20.3696" width="447.874" height="321.839" fill="white"/>
<path d="M407.355,113.995v -5.85162h 13.1728v 5.85162h -13.1728z" fill="#263da8"/>
<path d="M420.528,108.144v 5.85162l 0.431001, -0.00313303l 0.430539, -0.00939574l 0.429617, -0.0156484l 0.428234, -0.0218843l 0.426393, -0.0280967l 0.424095, -0.0342791l 0.421343, -0.0404248l 0.41814, -0.0465271l 0.414489, -0.0525797l 0.410395,
 -0.0585759l 0.405861, -0.0645095l 0.400892, -0.0703739l 0.395494, -0.076163l 0.389672, -0.0818705l 0.383433, -0.0874904l 0.376784, -0.0930165l 0.369731, -0.0984431l 0.362282, -0.103764l 0.354446, -0.108974l 0.346229, -0.114068l 0.337642, -0.119039l
 0.328694, -0.123883l 0.319393, -0.128594l 0.309751, -0.133167l 0.299776, -0.137598l 0.289481, -0.141881l 0.278876, -0.146013l 0.267972, -0.149988l 0.256781, -0.153802l 0.245315, -0.157452l 0.233587, -0.160934l 0.221608, -0.164242l 0.209392,
 -0.167375l 0.196952, -0.170329l 0.184301, -0.173101l 0.171453, -0.175687l 0.158421, -0.178085l 0.145219, -0.180292l 0.131862, -0.182306l 0.118364, -0.184125l 0.104739, -0.185747l 0.0910014, -0.18717l 0.0771667, -0.188392l 0.0632494, -0.189413l
 0.0492644, -0.190231l 0.0352266, -0.190845l 0.021151, -0.191255l 0.00705286, -0.19146z" fill="#263da8"/>
<path d="M407.355,108.144h 26.3455l -0.0141057, -0.382919l -0.0423021, -0.382509l -0.0704531, -0.38169l -0.0985287, -0.380461l -0.126499, -0.378825l -0.154333, -0.376784l -0.182003, -0.374339l -0.209477, -0.371493l -0.236728, -0.36825l -0.263724,
 -0.364612l -0.290438, -0.360584l -0.316842, -0.356169l -0.342906, -0.351373l -0.368603, -0.346201l -0.393905, -0.340658l -0.418785, -0.334751l -0.443217, -0.328485l -0.467174, -0.321867l -0.490631, -0.314905l -0.513563, -0.307605l -0.535944,
 -0.299976l -0.557752, -0.292025l -0.578962, -0.283762l -0.599553, -0.275196l -0.619501, -0.266334l -0.638787, -0.257187l -0.657388, -0.247765l -0.675285, -0.238078l -0.692459, -0.228135l -0.708891, -0.217949l -0.724565, -0.207529l -0.739462,
 -0.196886l -0.753568, -0.186033l -0.766867, -0.174981l -0.779345, -0.163741l -0.790988, -0.152326l -0.801784, -0.140748l -0.811721, -0.129019l -0.820789, -0.117152l -0.828979, -0.105159l -0.83628, -0.0930543l -0.842687, -0.0808495l -0.84819,
 -0.0685582l -0.852786, -0.0561935l -0.856468, -0.0437685l -0.859233, -0.0312968l -0.861079, -0.0187915l -0.862002, -0.00626606z" fill="#263da8"/>
<path d="M407.355,113.995v -17.5549l -1.293, 0.00939909l -1.29162, 0.0281872l -1.28885, 0.0469452l -1.2847, 0.0656528l -1.27918, 0.0842902l -1.27229, 0.102837l -1.26403, 0.121274l -1.25442, 0.139581l -1.24347, 0.157739l -1.23118, 0.175728l -1.21758,
 0.193528l -1.20268, 0.211122l -1.18648, 0.228489l -1.16902, 0.245612l -1.1503, 0.262471l -1.13035, 0.27905l -1.10919, 0.295329l -1.08685, 0.311293l -1.06334, 0.326923l -1.03869, 0.342203l -1.01293, 0.357117l -0.986081, 0.371648l -0.95818, 0.385781l
 -0.929252, 0.399501l -0.899329, 0.412793l -0.868444, 0.425644l -0.836628, 0.438038l -0.803916, 0.449964l -0.770344, 0.461407l -0.735946, 0.472357l -0.700761, 0.482801l -0.664825, 0.492727l -0.628177, 0.502126l -0.590857, 0.510988l -0.552904,
 0.519302l -0.514359, 0.52706l -0.475263, 0.534254l -0.435658, 0.540875l -0.395586, 0.546918l -0.355091, 0.552375l -0.314216, 0.55724l -0.273004, 0.561509l -0.2315, 0.565176l -0.189748, 0.568238l -0.147793, 0.570692l -0.10568, 0.572534l -0.0634531,
 0.573764l -0.0211586, 0.574379z" fill="#1652cc"/>
<path d="M433.701,113.995h -65.8638l 0.0352643, 0.957298l 0.105755, 0.956273l 0.176133, 0.954224l 0.246322, 0.951153l 0.316247, 0.947064l 0.385834, 0.94196l 0.455007, 0.935848l 0.523693, 0.928734l 0.591819, 0.920625l 0.65931, 0.91153l 0.726096,
 0.901459l 0.792104, 0.890423l 0.857264, 0.878433l 0.921506, 0.865503l 0.984761, 0.851646l 1.04696, 0.836877l 1.10804, 0.821212l 1.16793, 0.804668l 1.22658, 0.787261l 1.28391, 0.769012l 1.33986, 0.749939l 1.39438, 0.730064l 1.44741, 0.709406l
 1.49888, 0.687989l 1.54875, 0.665835l 1.59697, 0.642968l 1.64347, 0.619413l 1.68821, 0.595194l 1.73115, 0.570338l 1.77223, 0.544872l 1.81141, 0.518821l 1.84866, 0.492216l 1.88392, 0.465083l 1.91717, 0.437452l 1.94836, 0.409353l 1.97747, 0.380815l
 2.00446, 0.351869l 2.0293, 0.322547l 2.05197, 0.29288l 2.07245, 0.262898l 2.0907, 0.232636l 2.10672, 0.202124l 2.12048, 0.171395l 2.13196, 0.140484l 2.14117, 0.109421l 2.14808, 0.0782419l 2.1527, 0.0469787l 2.155, 0.0156652z" fill="#1063db"/>
<path d="M433.701,96.4406v 46.813l 3.44801, -0.0250642l 3.44431, -0.0751659l 3.43693, -0.125187l 3.42587, -0.175074l 3.41114, -0.224774l 3.39276, -0.274233l 3.37075, -0.323398l 3.34512, -0.372217l 3.31592, -0.420637l 3.28316, -0.468607l 3.24688,
 -0.516076l 3.20713, -0.562991l 3.16395, -0.609304l 3.11738, -0.654964l 3.06747, -0.699923l 3.01427, -0.744132l 2.95785, -0.787545l 2.89826, -0.830114l 2.83557, -0.871794l 2.76984, -0.912541l 2.70114, -0.952311l 2.62955, -0.991061l 2.55515, -1.02875l
 2.47801, -1.06534l 2.39821, -1.10078l 2.31585, -1.13505l 2.23101, -1.1681l 2.14378, -1.1999l 2.05425, -1.23042l 1.96252, -1.25962l 1.8687, -1.28747l 1.77287, -1.31394l 1.67514, -1.339l 1.57562, -1.36263l 1.47441, -1.38481l 1.37162, -1.40549l
 1.26737, -1.42468l 1.16175, -1.44233l 1.0549, -1.45845l 0.94691, -1.473l 0.837909, -1.48597l 0.728011, -1.49736l 0.617334, -1.50714l 0.505995, -1.5153l 0.394115, -1.52185l 0.281813, -1.52676l 0.169208, -1.53004l 0.0564229, -1.53168z"
 fill="#1380d5"/>
<path d="M367.837,96.4406h 171.246l -0.0916872, -2.48898l -0.274963, -2.48631l -0.457945, -2.48098l -0.640437, -2.473l -0.822242, -2.46237l -1.00317, -2.4491l -1.18302, -2.4332l -1.3616, -2.41471l -1.53873, -2.39362l -1.71421, -2.36998l -1.88785,
 -2.34379l -2.05947, -2.3151l -2.22889, -2.28393l -2.39592, -2.25031l -2.56038, -2.21428l -2.7221, -2.17588l -2.88091, -2.13515l -3.03663, -2.09214l -3.1891, -2.04688l -3.33816, -1.99943l -3.48364, -1.94984l -3.62539, -1.89817l -3.76326, -1.84446l
 -3.89709, -1.78877l -4.02676, -1.73117l -4.15211, -1.67172l -4.27302, -1.61047l -4.38935, -1.54751l -4.50098, -1.48288l -4.60779, -1.41667l -4.70967, -1.34894l -4.80651, -1.27976l -4.89819, -1.20922l -4.98463, -1.13737l -5.06574, -1.06432l -5.14142,
 -0.990119l -5.21159, -0.914861l -5.27619, -0.838623l -5.33513, -0.761487l -5.38836, -0.683536l -5.43582, -0.604853l -5.47746, -0.525522l -5.51324, -0.445628l -5.54311, -0.365257l -5.56704, -0.284496l -5.58502, -0.203429l -5.59701, -0.122145l
 -5.60301, -0.0407294z" fill="#0da7c2"/>
<path d="M367.837,143.254v -122.884l -9.05102, 0.0657936l -9.04132, 0.19731l -9.02195, 0.328616l -8.99292, 0.45957l -8.95425, 0.590031l -8.906, 0.719861l -8.84821, 0.84892l -8.78094, 0.97707l -8.70428, 1.10417l -8.61829, 1.23009l -8.52307, 1.3547l
 -8.41873, 1.47785l -8.30537, 1.59942l -8.18312, 1.71928l -8.0521, 1.8373l -7.91247, 1.95335l -7.76436, 2.06731l -7.60793, 2.17905l -7.44336, 2.28846l -7.27082, 2.39542l -7.09049, 2.49982l -6.90257, 2.60153l -6.70726, 2.70047l -6.50477, 2.79651l
 -6.29531, 2.88955l -6.0791, 2.97951l -5.85639, 3.06627l -5.62741, 3.14975l -5.39241, 3.22985l -5.15162, 3.3065l -4.90533, 3.3796l -4.65378, 3.44909l -4.39724, 3.51488l -4.136, 3.57691l -3.87033, 3.63511l -3.60051, 3.68942l -3.32684, 3.73978l
 -3.0496, 3.78613l -2.7691, 3.82843l -2.48564, 3.86662l -2.19951, 3.90068l -1.91103, 3.93056l -1.6205, 3.95623l -1.32824, 3.97767l -1.03455, 3.99484l -0.739758, 4.00774l -0.444172, 4.01635l -0.14811, 4.02065z" fill="#94be71"/>
<path d="M539.083,143.254h -447.874l 0.239797, 6.50963l 0.719135, 6.50266l 1.1977, 6.48872l 1.67499, 6.46784l 2.15048, 6.44003l 2.62367, 6.40533l 3.09405, 6.36377l 3.56111, 6.31539l 4.02437, 6.26025l 4.48331, 6.1984l 4.93745, 6.12992l 5.38631,
 6.05488l 5.8294, 5.97335l 6.26624, 5.88542l 6.69638, 5.79119l 7.11934, 5.69076l 7.53468, 5.58424l 7.94196, 5.47174l 8.34073, 5.35338l 8.73056, 5.22928l 9.11105, 5.09959l 9.48178, 4.96443l 9.84236, 4.82396l 10.1924, 4.67833l 10.5315, 4.52768l
 10.8594, 4.37218l 11.1756, 4.21201l 11.4798, 4.04732l 11.7718, 3.8783l 12.0512, 3.70513l 12.3176, 3.52799l 12.5709, 3.34707l 12.8107, 3.16256l 13.0367, 2.97467l 13.2489, 2.7836l 13.4468, 2.58954l 13.6303, 2.39271l 13.7993, 2.19332l 13.9534, 1.99158l
 14.0926, 1.78771l 14.2168, 1.58192l 14.3257, 1.37444l 14.4192, 1.16549l 14.4974, 0.955289l 14.56, 0.744065l 14.607, 0.532045l 14.6383, 0.319455l 14.654, 0.106523z" fill="#f9f90e"/>
<text xml:space="preserve" x="411.452" y="115.38" fill="#993333" font-size="9.47008" font-family="Helvetica">1
</text>
<text xml:space="preserve" x="424.985" y="115.38" fill="#993333" font-size="9.47008" font-family="Helvetica">1
</text>
<text xml:space="preserve" x="417.862" y="106.833" fill="#993333" font-size="9.47008" font-family="Helvetica">2
</text>
<text xml:space="preserve" x="385.1" y="108.97" fill="#993333" font-size="9.47008" font-family="Helvetica">3
</text>
<text xml:space="preserve" x="397.92" y="132.473" fill="#993333" font-size="9.47008" font-family="Helvetica">5
</text>
<text xml:space="preserve" x="483.387" y="123.215" fill="#993333" font-size="9.47008" font-family="Helvetica">8
</text>
<text xml:space="preserve" x="448.488" y="61.9634" fill="#993333" font-size="9.47008" font-family="Helvetica">13
</text>
<text xml:space="preserve" x="225.562" y="86.1789" fill="#993333" font-size="9.47008" font-family="Helvetica">21
</text>
<text xml:space="preserve" x="310.317" y="246.429" fill="#993333" font-size="9.47008" font-family="Helvetica">34
</text>
<path d="M407.355,113.995v -5.85162h 13.1728v 5.85162h -13.1728z" fill="none" stroke="#263da8"/>
<path d="M407.355,113.995v -5.85162h 13.1728v 5.85162h -13.1728z" fill="none" stroke="black"/>
<path d="M420.528,108.144v 5.85162l 0.431001, -0.00313303l 0.430539, -0.00939574l 0.429617, -0.0156484l 0.428234, -0.0218843l 0.426393, -0.0280967l 0.424095, -0.0342791l 0.421343, -0.0404248l 0.41814, -0.0465271l 0.414489, -0.0525797l 0.410395,
 -0.0585759l 0.405861, -0.0645095l 0.400892, -0.0703739l 0.395494, -0.076163l 0.389672, -0.0818705l 0.383433, -0.0874904l 0.376784, -0.0930165l 0.369731, -0.0984431l 0.362282, -0.103764l 0.354446, -0.108974l 0.346229, -0.114068l 0.337642, -0.119039l
 0.328694, -0.123883l 0.319393, -0.128594l 0.309751, -0.133167l 0.299776, -0.137598l 0.289481, -0.141881l 0.278876, -0.146013l 0.267972, -0.149988l 0.256781, -0.153802l 0.245315, -0.157452l 0.233587, -0.160934l 0.221608, -0.164242l 0.209392,
 -0.167375l 0.196952, -0.170329l 0.184301, -0.173101l 0.171453, -0.175687l 0.158421, -0.178085l 0.145219, -0.180292l 0.131862, -0.182306l 0.118364, -0.184125l 0.104739, -0.185747l 0.0910014, -0.18717l 0.0771667, -0.188392l 0.0632494, -0.189413l
 0.0492644, -0.190231l 0.0352266, -0.190845l 0.021151, -0.191255l 0.00705286, -0.19146z" fill="none" stroke="#263da8"/>
<path d="M420.528,108.144v 5.85162l 0.431001, -0.00313303l 0.430539, -0.00939574l 0.429617, -0.0156484l 0.428234, -0.0218843l 0.426393, -0.0280967l 0.424095, -0.0342791l 0.421343, -0.0404248l 0.41814, -0.0465271l 0.414489, -0.0525797l 0.410395,
 -0.0585759l 0.405861, -0.0645095l 0.400892, -0.0703739l 0.395494, -0.076163l 0.389672, -0.0818705l 0.383433, -0.0874904l 0.376784, -0.0930165l 0.369731, -0.0984431l 0.362282, -0.103764l 0.354446, -0.108974l 0.346229, -0.114068l 0.337642, -0.119039l
 0.328694, -0.123883l 0.319393, -0.128594l 0.309751, -0.133167l 0.299776, -0.137598l 0.289481, -0.141881l 0.278876, -0.146013l 0.267972, -0.149988l 0.256781, -0.153802l 0.245315, -0.157452l 0.233587, -0.160934l 0.221608, -0.164242l 0.209392,
 -0.167375l 0.196952, -0.170329l 0.184301, -0.173101l 0.171453, -0.175687l 0.158421, -0.178085l 0.145219, -0.180292l 0.131862, -0.182306l 0.118364, -0.184125l 0.104739, -0.185747l 0.0910014, -0.18717l 0.0771667, -0.188392l 0.0632494, -0.189413l
 0.0492644, -0.190231l 0.0352266, -0.190845l 0.021151, -0.191255l 0.00705286, -0.19146h -13.1728z" fill="none" stroke="black"/>
<path d="M407.355,108.144h 26.3455l -0.0141057, -0.382919l -0.0423021, -0.382509l -0.0704531, -0.38169l -0.0985287, -0.380461l -0.126499, -0.378825l -0.154333, -0.376784l -0.182003, -0.374339l -0.209477, -0.371493l -0.236728, -0.36825l -0.263724,
 -0.364612l -0.290438, -0.360584l -0.316842, -0.356169l -0.342906, -0.351373l -0.368603, -0.346201l -0.393905, -0.340658l -0.418785, -0.334751l -0.443217, -0.328485l -0.467174, -0.321867l -0.490631, -0.314905l -0.513563, -0.307605l -0.535944,
 -0.299976l -0.557752, -0.292025l -0.578962, -0.283762l -0.599553, -0.275196l -0.619501, -0.266334l -0.638787, -0.257187l -0.657388, -0.247765l -0.675285, -0.238078l -0.692459, -0.228135l -0.708891, -0.217949l -0.724565, -0.207529l -0.739462,
 -0.196886l -0.753568, -0.186033l -0.766867, -0.174981l -0.779345, -0.163741l -0.790988, -0.152326l -0.801784, -0.140748l -0.811721, -0.129019l -0.820789, -0.117152l -0.828979, -0.105159l -0.83628, -0.0930543l -0.842687, -0.0808495l -0.84819,
 -0.0685582l -0.852786, -0.0561935l -0.856468, -0.0437685l -0.859233, -0.0312968l -0.861079, -0.0187915l -0.862002, -0.00626606z" fill="none" stroke="#263da8"/>
<path d="M407.355,108.144h 26.3455l -0.0141057, -0.382919l -0.0423021, -0.382509l -0.0704531, -0.38169l -0.0985287, -0.380461l -0.126499, -0.378825l -0.154333, -0.376784l -0.182003, -0.374339l -0.209477, -0.371493l -0.236728, -0.36825l -0.263724,
 -0.364612l -0.290438, -0.360584l -0.316842, -0.356169l -0.342906, -0.351373l -0.368603, -0.346201l -0.393905, -0.340658l -0.418785, -0.334751l -0.443217, -0.328485l -0.467174, -0.321867l -0.490631, -0.314905l -0.513563, -0.307605l -0.535944,
 -0.299976l -0.557752, -0.292025l -0.578962, -0.283762l -0.599553, -0.275196l -0.619501, -0.266334l -0.638787, -0.257187l -0.657388, -0.247765l -0.675285, -0.238078l -0.692459, -0.228135l -0.708891, -0.217949l -0.724565, -0.207529l -0.739462,
 -0.196886l -0.753568, -0.186033l -0.766867, -0.174981l -0.779345, -0.163741l -0.790988, -0.152326l -0.801784, -0.140748l -0.811721, -0.129019l -0.820789, -0.117152l -0.828979, -0.105159l -0.83628, -0.0930543l -0.842687, -0.0808495l -0.84819,
 -0.0685582l -0.852786, -0.0561935l -0.856468, -0.0437685l -0.859233, -0.0312968l -0.861079, -0.0187915l -0.862002, -0.00626606v 11.7032z" fill="none" stroke="black"/>
<path d="M407.355,113.995v -17.5549l -1.293, 0.00939909l -1.29162, 0.0281872l -1.28885, 0.0469452l -1.2847, 0.0656528l -1.27918, 0.0842902l -1.27229, 0.102837l -1.26403, 0.121274l -1.25442, 0.139581l -1.24347, 0.157739l -1.23118, 0.175728l -1.21758,
 0.193528l -1.20268, 0.211122l -1.18648, 0.228489l -1.16902, 0.245612l -1.1503, 0.262471l -1.13035, 0.27905l -1.10919, 0.295329l -1.08685, 0.311293l -1.06334, 0.326923l -1.03869, 0.342203l -1.01293, 0.357117l -0.986081, 0.371648l -0.95818, 0.385781l
 -0.929252, 0.399501l -0.899329, 0.412793l -0.868444, 0.425644l -0.836628, 0.438038l -0.803916, 0.449964l -0.770344, 0.461407l -0.735946, 0.472357l -0.700761, 0.482801l -0.664825, 0.492727l -0.628177, 0.502126l -0.590857, 0.510988l -0.552904,
 0.519302l -0.514359, 0.52706l -0.475263, 0.534254l -0.435658, 0.540875l -0.395586, 0.546918l -0.355091, 0.552375l -0.314216, 0.55724l -0.273004, 0.561509l -0.2315, 0.565176l -0.189748, 0.568238l -0.147793, 0.570692l -0.10568, 0.572534l -0.0634531,
 0.573764l -0.0211586, 0.574379z" fill="none" stroke="#1652cc"/>
<path d="M407.355,113.995v -17.5549l -1.293, 0.00939909l -1.29162, 0.0281872l -1.28885, 0.0469452l -1.2847, 0.0656528l -1.27918, 0.0842902l -1.27229, 0.102837l -1.26403, 0.121274l -1.25442, 0.139581l -1.24347, 0.157739l -1.23118, 0.175728l -1.21758,
 0.193528l -1.20268, 0.211122l -1.18648, 0.228489l -1.16902, 0.245612l -1.1503, 0.262471l -1.13035, 0.27905l -1.10919, 0.295329l -1.08685, 0.311293l -1.06334, 0.326923l -1.03869, 0.342203l -1.01293, 0.357117l -0.986081, 0.371648l -0.95818, 0.385781l
 -0.929252, 0.399501l -0.899329, 0.412793l -0.868444, 0.425644l -0.836628, 0.438038l -0.803916, 0.449964l -0.770344, 0.461407l -0.735946, 0.472357l -0.700761, 0.482801l -0.664825, 0.492727l -0.628177, 0.502126l -0.590857, 0.510988l -0.552904,
 0.519302l -0.514359, 0.52706l -0.475263, 0.534254l -0.435658, 0.540875l -0.395586, 0.546918l -0.355091, 0.552375l -0.314216, 0.55724l -0.273004, 0.561509l -0.2315, 0.565176l -0.189748, 0.568238l -0.147793, 0.570692l -0.10568, 0.572534l -0.0634531,
 0.573764l -0.0211586, 0.574379h 39.5183z" fill="none" stroke="black"/>
<path d="M433.701,113.995h -65.8638l 0.0352643, 0.957298l 0.105755, 0.956273l 0.176133, 0.954224l 0.246322, 0.951153l 0.316247, 0.947064l 0.385834, 0.94196l 0.455007, 0.935848l 0.523693, 0.928734l 0.591819, 0.920625l 0.65931, 0.91153l 0.726096,
 0.901459l 0.792104, 0.890423l 0.857264, 0.878433l 0.921506, 0.865503l 0.984761, 0.851646l 1.04696, 0.836877l 1.10804, 0.821212l 1.16793, 0.804668l 1.22658, 0.787261l 1.28391, 0.769012l 1.33986, 0.749939l 1.39438, 0.730064l 1.44741, 0.709406l
 1.49888, 0.687989l 1.54875, 0.665835l 1.59697, 0.642968l 1.64347, 0.619413l 1.68821, 0.595194l 1.73115, 0.570338l 1.77223, 0.544872l 1.81141, 0.518821l 1.84866, 0.492216l 1.88392, 0.465083l 1.91717, 0.437452l 1.94836, 0.409353l 1.97747, 0.380815l
 2.00446, 0.351869l 2.0293, 0.322547l 2.05197, 0.29288l 2.07245, 0.262898l 2.0907, 0.232636l 2.10672, 0.202124l 2.12048, 0.171395l 2.13196, 0.140484l 2.14117, 0.109421l 2.14808, 0.0782419l 2.1527, 0.0469787l 2.155, 0.0156652z" fill="none"
 stroke="#1063db"/>
<path d="M433.701,113.995h -65.8638l 0.0352643, 0.957298l 0.105755, 0.956273l 0.176133, 0.954224l 0.246322, 0.951153l 0.316247, 0.947064l 0.385834, 0.94196l 0.455007, 0.935848l 0.523693, 0.928734l 0.591819, 0.920625l 0.65931, 0.91153l 0.726096,
 0.901459l 0.792104, 0.890423l 0.857264, 0.878433l 0.921506, 0.865503l 0.984761, 0.851646l 1.04696, 0.836877l 1.10804, 0.821212l 1.16793, 0.804668l 1.22658, 0.787261l 1.28391, 0.769012l 1.33986, 0.749939l 1.39438, 0.730064l 1.44741, 0.709406l
 1.49888, 0.687989l 1.54875, 0.665835l 1.59697, 0.642968l 1.64347, 0.619413l 1.68821, 0.595194l 1.73115, 0.570338l 1.77223, 0.544872l 1.81141, 0.518821l 1.84866, 0.492216l 1.88392, 0.465083l 1.91717, 0.437452l 1.94836, 0.409353l 1.97747, 0.380815l
 2.00446, 0.351869l 2.0293, 0.322547l 2.05197, 0.29288l 2.07245, 0.262898l 2.0907, 0.232636l 2.10672, 0.202124l 2.12048, 0.171395l 2.13196, 0.140484l 2.14117, 0.109421l 2.14808, 0.0782419l 2.1527, 0.0469787l 2.155, 0.0156652v -29.2581z" fill="none"
 stroke="black"/>
<path d="M433.701,96.4406v 46.813l 3.44801, -0.0250642l 3.44431, -0.0751659l 3.43693, -0.125187l 3.42587, -0.175074l 3.41114, -0.224774l 3.39276, -0.274233l 3.37075, -0.323398l 3.34512, -0.372217l 3.31592, -0.420637l 3.28316, -0.468607l 3.24688,
 -0.516076l 3.20713, -0.562991l 3.16395, -0.609304l 3.11738, -0.654964l 3.06747, -0.699923l 3.01427, -0.744132l 2.95785, -0.787545l 2.89826, -0.830114l 2.83557, -0.871794l 2.76984, -0.912541l 2.70114, -0.952311l 2.62955, -0.991061l 2.55515, -1.02875l
 2.47801, -1.06534l 2.39821, -1.10078l 2.31585, -1.13505l 2.23101, -1.1681l 2.14378, -1.1999l 2.05425, -1.23042l 1.96252, -1.25962l 1.8687, -1.28747l 1.77287, -1.31394l 1.67514, -1.339l 1.57562, -1.36263l 1.47441, -1.38481l 1.37162, -1.40549l
 1.26737, -1.42468l 1.16175, -1.44233l 1.0549, -1.45845l 0.94691, -1.473l 0.837909, -1.48597l 0.728011, -1.49736l 0.617334, -1.50714l 0.505995, -1.5153l 0.394115, -1.52185l 0.281813, -1.52676l 0.169208, -1.53004l 0.0564229, -1.53168z" fill="none"
 stroke="#1380d5"/>
<path d="M433.701,96.4406v 46.813l 3.44801, -0.0250642l 3.44431, -0.0751659l 3.43693, -0.125187l 3.42587, -0.175074l 3.41114, -0.224774l 3.39276, -0.274233l 3.37075, -0.323398l 3.34512, -0.372217l 3.31592, -0.420637l 3.28316, -0.468607l 3.24688,
 -0.516076l 3.20713, -0.562991l 3.16395, -0.609304l 3.11738, -0.654964l 3.06747, -0.699923l 3.01427, -0.744132l 2.95785, -0.787545l 2.89826, -0.830114l 2.83557, -0.871794l 2.76984, -0.912541l 2.70114, -0.952311l 2.62955, -0.991061l 2.55515, -1.02875l
 2.47801, -1.06534l 2.39821, -1.10078l 2.31585, -1.13505l 2.23101, -1.1681l 2.14378, -1.1999l 2.05425, -1.23042l 1.96252, -1.25962l 1.8687, -1.28747l 1.77287, -1.31394l 1.67514, -1.339l 1.57562, -1.36263l 1.47441, -1.38481l 1.37162, -1.40549l
 1.26737, -1.42468l 1.16175, -1.44233l 1.0549, -1.45845l 0.94691, -1.473l 0.837909, -1.48597l 0.728011, -1.49736l 0.617334, -1.50714l 0.505995, -1.5153l 0.394115, -1.52185l 0.281813, -1.52676l 0.169208, -1.53004l 0.0564229, -1.53168h -105.382z"
 fill="none" stroke="black"/>
<path d="M367.837,96.4406h 171.246l -0.0916872, -2.48898l -0.274963, -2.48631l -0.457945, -2.48098l -0.640437, -2.473l -0.822242, -2.46237l -1.00317, -2.4491l -1.18302, -2.4332l -1.3616, -2.41471l -1.53873, -2.39362l -1.71421, -2.36998l -1.88785,
 -2.34379l -2.05947, -2.3151l -2.22889, -2.28393l -2.39592, -2.25031l -2.56038, -2.21428l -2.7221, -2.17588l -2.88091, -2.13515l -3.03663, -2.09214l -3.1891, -2.04688l -3.33816, -1.99943l -3.48364, -1.94984l -3.62539, -1.89817l -3.76326, -1.84446l
 -3.89709, -1.78877l -4.02676, -1.73117l -4.15211, -1.67172l -4.27302, -1.61047l -4.38935, -1.54751l -4.50098, -1.48288l -4.60779, -1.41667l -4.70967, -1.34894l -4.80651, -1.27976l -4.89819, -1.20922l -4.98463, -1.13737l -5.06574, -1.06432l -5.14142,
 -0.990119l -5.21159, -0.914861l -5.27619, -0.838623l -5.33513, -0.761487l -5.38836, -0.683536l -5.43582, -0.604853l -5.47746, -0.525522l -5.51324, -0.445628l -5.54311, -0.365257l -5.56704, -0.284496l -5.58502, -0.203429l -5.59701, -0.122145l
 -5.60301, -0.0407294z" fill="none" stroke="#0da7c2"/>
<path d="M367.837,96.4406h 171.246l -0.0916872, -2.48898l -0.274963, -2.48631l -0.457945, -2.48098l -0.640437, -2.473l -0.822242, -2.46237l -1.00317, -2.4491l -1.18302, -2.4332l -1.3616, -2.41471l -1.53873, -2.39362l -1.71421, -2.36998l -1.88785,
 -2.34379l -2.05947, -2.3151l -2.22889, -2.28393l -2.39592, -2.25031l -2.56038, -2.21428l -2.7221, -2.17588l -2.88091, -2.13515l -3.03663, -2.09214l -3.1891, -2.04688l -3.33816, -1.99943l -3.48364, -1.94984l -3.62539, -1.89817l -3.76326, -1.84446l
 -3.89709, -1.78877l -4.02676, -1.73117l -4.15211, -1.67172l -4.27302, -1.61047l -4.38935, -1.54751l -4.50098, -1.48288l -4.60779, -1.41667l -4.70967, -1.34894l -4.80651, -1.27976l -4.89819, -1.20922l -4.98463, -1.13737l -5.06574, -1.06432l -5.14142,
 -0.990119l -5.21159, -0.914861l -5.27619, -0.838623l -5.33513, -0.761487l -5.38836, -0.683536l -5.43582, -0.604853l -5.47746, -0.525522l -5.51324, -0.445628l -5.54311, -0.365257l -5.56704, -0.284496l -5.58502, -0.203429l -5.59701, -0.122145l
 -5.60301, -0.0407294v 76.0711z" fill="none" stroke="black"/>
<path d="M367.837,143.254v -122.884l -9.05102, 0.0657936l -9.04132, 0.19731l -9.02195, 0.328616l -8.99292, 0.45957l -8.95425, 0.590031l -8.906, 0.719861l -8.84821, 0.84892l -8.78094, 0.97707l -8.70428, 1.10417l -8.61829, 1.23009l -8.52307, 1.3547l
 -8.41873, 1.47785l -8.30537, 1.59942l -8.18312, 1.71928l -8.0521, 1.8373l -7.91247, 1.95335l -7.76436, 2.06731l -7.60793, 2.17905l -7.44336, 2.28846l -7.27082, 2.39542l -7.09049, 2.49982l -6.90257, 2.60153l -6.70726, 2.70047l -6.50477, 2.79651l
 -6.29531, 2.88955l -6.0791, 2.97951l -5.85639, 3.06627l -5.62741, 3.14975l -5.39241, 3.22985l -5.15162, 3.3065l -4.90533, 3.3796l -4.65378, 3.44909l -4.39724, 3.51488l -4.136, 3.57691l -3.87033, 3.63511l -3.60051, 3.68942l -3.32684, 3.73978l
 -3.0496, 3.78613l -2.7691, 3.82843l -2.48564, 3.86662l -2.19951, 3.90068l -1.91103, 3.93056l -1.6205, 3.95623l -1.32824, 3.97767l -1.03455, 3.99484l -0.739758, 4.00774l -0.444172, 4.01635l -0.14811, 4.02065z" fill="none" stroke="#94be71"/>
<path d="M367.837,143.254v -122.884l -9.05102, 0.0657936l -9.04132, 0.19731l -9.02195, 0.328616l -8.99292, 0.45957l -8.95425, 0.590031l -8.906, 0.719861l -8.84821, 0.84892l -8.78094, 0.97707l -8.70428, 1.10417l -8.61829, 1.23009l -8.52307, 1.3547l
 -8.41873, 1.47785l -8.30537, 1.59942l -8.18312, 1.71928l -8.0521, 1.8373l -7.91247, 1.95335l -7.76436, 2.06731l -7.60793, 2.17905l -7.44336, 2.28846l -7.27082, 2.39542l -7.09049, 2.49982l -6.90257, 2.60153l -6.70726, 2.70047l -6.50477, 2.79651l
 -6.29531, 2.88955l -6.0791, 2.97951l -5.85639, 3.06627l -5.62741, 3.14975l -5.39241, 3.22985l -5.15162, 3.3065l -4.90533, 3.3796l -4.65378, 3.44909l -4.39724, 3.51488l -4.136, 3.57691l -3.87033, 3.63511l -3.60051, 3.68942l -3.32684, 3.73978l
 -3.0496, 3.78613l -2.7691, 3.82843l -2.48564, 3.86662l -2.19951, 3.90068l -1.91103, 3.93056l -1.6205, 3.95623l -1.32824, 3.97767l -1.03455, 3.99484l -0.739758, 4.00774l -0.444172, 4.01635l -0.14811, 4.02065h 276.628z" fill="none" stroke="black"/>
<path d="M539.083,143.254h -447.874l 0.239797, 6.50963l 0.719135, 6.50266l 1.1977, 6.48872l 1.67499, 6.46784l 2.15048, 6.44003l 2.62367, 6.40533l 3.09405, 6.36377l 3.56111, 6.31539l 4.02437, 6.26025l 4.48331, 6.1984l 4.93745, 6.12992l 5.38631,
 6.05488l 5.8294, 5.97335l 6.26624, 5.88542l 6.69638, 5.79119l 7.11934, 5.69076l 7.53468, 5.58424l 7.94196, 5.47174l 8.34073, 5.35338l 8.73056, 5.22928l 9.11105, 5.09959l 9.48178, 4.96443l 9.84236, 4.82396l 10.1924, 4.67833l 10.5315, 4.52768l
 10.8594, 4.37218l 11.1756, 4.21201l 11.4798, 4.04732l 11.7718, 3.8783l 12.0512, 3.70513l 12.3176, 3.52799l 12.5709, 3.34707l 12.8107, 3.16256l 13.0367, 2.97467l 13.2489, 2.7836l 13.4468, 2.58954l 13.6303, 2.39271l 13.7993, 2.19332l 13.9534, 1.99158l
 14.0926, 1.78771l 14.2168, 1.58192l 14.3257, 1.37444l 14.4192, 1.16549l 14.4974, 0.955289l 14.56, 0.744065l 14.607, 0.532045l 14.6383, 0.319455l 14.654, 0.106523z" fill="none" stroke="#f9f90e"/>
<path d="M539.083,143.254h -447.874l 0.239797, 6.50963l 0.719135, 6.50266l 1.1977, 6.48872l 1.67499, 6.46784l 2.15048, 6.44003l 2.62367, 6.40533l 3.09405, 6.36377l 3.56111, 6.31539l 4.02437, 6.26025l 4.48331, 6.1984l 4.93745, 6.12992l 5.38631,
 6.05488l 5.8294, 5.97335l 6.26624, 5.88542l 6.69638, 5.79119l 7.11934, 5.69076l 7.53468, 5.58424l 7.94196, 5.47174l 8.34073, 5.35338l 8.73056, 5.22928l 9.11105, 5.09959l 9.48178, 4.96443l 9.84236, 4.82396l 10.1924, 4.67833l 10.5315, 4.52768l
 10.8594, 4.37218l 11.1756, 4.21201l 11.4798, 4.04732l 11.7718, 3.8783l 12.0512, 3.70513l 12.3176, 3.52799l 12.5709, 3.34707l 12.8107, 3.16256l 13.0367, 2.97467l 13.2489, 2.7836l 13.4468, 2.58954l 13.6303, 2.39271l 13.7993, 2.19332l 13.9534, 1.99158l
 14.0926, 1.78771l 14.2168, 1.58192l 14.3257, 1.37444l 14.4192, 1.16549l 14.4974, 0.955289l 14.56, 0.744065l 14.607, 0.532045l 14.6383, 0.319455l 14.654, 0.106523v -198.955z" fill="none" stroke="black"/>
<path d="M407.355,113.995v -5.85162h 13.1728v 5.85162h -13.1728z" fill="none" stroke="#263da8"/>
<path d="M407.355,113.995v -5.85162h 13.1728v 5.85162h -13.1728z" fill="none" stroke="black"/>
<path d="M420.528,108.144v 5.85162l 0.431001, -0.00313303l 0.430539, -0.00939574l 0.429617, -0.0156484l 0.428234, -0.0218843l 0.426393, -0.0280967l 0.424095, -0.0342791l 0.421343, -0.0404248l 0.41814, -0.0465271l 0.414489, -0.0525797l 0.410395,
 -0.0585759l 0.405861, -0.0645095l 0.400892, -0.0703739l 0.395494, -0.076163l 0.389672, -0.0818705l 0.383433, -0.0874904l 0.376784, -0.0930165l 0.369731, -0.0984431l 0.362282, -0.103764l 0.354446, -0.108974l 0.346229, -0.114068l 0.337642, -0.119039l
 0.328694, -0.123883l 0.319393, -0.128594l 0.309751, -0.133167l 0.299776, -0.137598l 0.289481, -0.141881l 0.278876, -0.146013l 0.267972, -0.149988l 0.256781, -0.153802l 0.245315, -0.157452l 0.233587, -0.160934l 0.221608, -0.164242l 0.209392,
 -0.167375l 0.196952, -0.170329l 0.184301, -0.173101l 0.171453, -0.175687l 0.158421, -0.178085l 0.145219, -0.180292l 0.131862, -0.182306l 0.118364, -0.184125l 0.104739, -0.185747l 0.0910014, -0.18717l 0.0771667, -0.188392l 0.0632494, -0.189413l
 0.0492644, -0.190231l 0.0352266, -0.190845l 0.021151, -0.191255l 0.00705286, -0.19146z" fill="none" stroke="#263da8"/>
<path d="M420.528,108.144v 5.85162l 0.431001, -0.00313303l 0.430539, -0.00939574l 0.429617, -0.0156484l 0.428234, -0.0218843l 0.426393, -0.0280967l 0.424095, -0.0342791l 0.421343, -0.0404248l 0.41814, -0.0465271l 0.414489, -0.0525797l 0.410395,
 -0.0585759l 0.405861, -0.0645095l 0.400892, -0.0703739l 0.395494, -0.076163l 0.389672, -0.0818705l 0.383433, -0.0874904l 0.376784, -0.0930165l 0.369731, -0.0984431l 0.362282, -0.103764l 0.354446, -0.108974l 0.346229, -0.114068l 0.337642, -0.119039l
 0.328694, -0.123883l 0.319393, -0.128594l 0.309751, -0.133167l 0.299776, -0.137598l 0.289481, -0.141881l 0.278876, -0.146013l 0.267972, -0.149988l 0.256781, -0.153802l 0.245315, -0.157452l 0.233587, -0.160934l 0.221608, -0.164242l 0.209392,
 -0.167375l 0.196952, -0.170329l 0.184301, -0.173101l 0.171453, -0.175687l 0.158421, -0.178085l 0.145219, -0.180292l 0.131862, -0.182306l 0.118364, -0.184125l 0.104739, -0.185747l 0.0910014, -0.18717l 0.0771667, -0.188392l 0.0632494, -0.189413l
 0.0492644, -0.190231l 0.0352266, -0.190845l 0.021151, -0.191255l 0.00705286, -0.19146h -13.1728z" fill="none" stroke="black"/>
<path d="M407.355,108.144h 26.3455l -0.0141057, -0.382919l -0.0423021, -0.382509l -0.0704531, -0.38169l -0.0985287, -0.380461l -0.126499, -0.378825l -0.154333, -0.376784l -0.182003, -0.374339l -0.209477, -0.371493l -0.236728, -0.36825l -0.263724,
 -0.364612l -0.290438, -0.360584l -0.316842, -0.356169l -0.342906, -0.351373l -0.368603, -0.346201l -0.393905, -0.340658l -0.418785, -0.334751l -0.443217, -0.328485l -0.467174, -0.321867l -0.490631, -0.314905l -0.513563, -0.307605l -0.535944,
 -0.299976l -0.557752, -0.292025l -0.578962, -0.283762l -0.599553, -0.275196l -0.619501, -0.266334l -0.638787, -0.257187l -0.657388, -0.247765l -0.675285, -0.238078l -0.692459, -0.228135l -0.708891, -0.217949l -0.724565, -0.207529l -0.739462,
 -0.196886l -0.753568, -0.186033l -0.766867, -0.174981l -0.779345, -0.163741l -0.790988, -0.152326l -0.801784, -0.140748l -0.811721, -0.129019l -0.820789, -0.117152l -0.828979, -0.105159l -0.83628, -0.0930543l -0.842687, -0.0808495l -0.84819,
 -0.0685582l -0.852786, -0.0561935l -0.856468, -0.0437685l -0.859233, -0.0312968l -0.861079, -0.0187915l -0.862002, -0.00626606z" fill="none" stroke="#263da8"/>
<path d="M407.355,108.144h 26.3455l -0.0141057, -0.382919l -0.0423021, -0.382509l -0.0704531, -0.38169l -0.0985287, -0.380461l -0.126499, -0.378825l -0.154333, -0.376784l -0.182003, -0.374339l -0.209477, -0.371493l -0.236728, -0.36825l -0.263724,
 -0.364612l -0.290438, -0.360584l -0.316842, -0.356169l -0.342906, -0.351373l -0.368603, -0.346201l -0.393905, -0.340658l -0.418785, -0.334751l -0.443217, -0.328485l -0.467174, -0.321867l -0.490631, -0.314905l -0.513563, -0.307605l -0.535944,
 -0.299976l -0.557752, -0.292025l -0.578962, -0.283762l -0.599553, -0.275196l -0.619501, -0.266334l -0.638787, -0.257187l -0.657388, -0.247765l -0.675285, -0.238078l -0.692459, -0.228135l -0.708891, -0.217949l -0.724565, -0.207529l -0.739462,
 -0.196886l -0.753568, -0.186033l -0.766867, -0.174981l -0.779345, -0.163741l -0.790988, -0.152326l -0.801784, -0.140748l -0.811721, -0.129019l -0.820789, -0.117152l -0.828979, -0.105159l -0.83628, -0.0930543l -0.842687, -0.0808495l -0.84819,
 -0.0685582l -0.852786, -0.0561935l -0.856468, -0.0437685l -0.859233, -0.0312968l -0.861079, -0.0187915l -0.862002, -0.00626606v 11.7032z" fill="none" stroke="black"/>
<path d="M407.355,113.995v -17.5549l -1.293, 0.00939909l -1.29162, 0.0281872l -1.28885, 0.0469452l -1.2847, 0.0656528l -1.27918, 0.0842902l -1.27229, 0.102837l -1.26403, 0.121274l -1.25442, 0.139581l -1.24347, 0.157739l -1.23118, 0.175728l -1.21758,
 0.193528l -1.20268, 0.211122l -1.18648, 0.228489l -1.16902, 0.245612l -1.1503, 0.262471l -1.13035, 0.27905l -1.10919, 0.295329l -1.08685, 0.311293l -1.06334, 0.326923l -1.03869, 0.342203l -1.01293, 0.357117l -0.986081, 0.371648l -0.95818, 0.385781l
 -0.929252, 0.399501l -0.899329, 0.412793l -0.868444, 0.425644l -0.836628, 0.438038l -0.803916, 0.449964l -0.770344, 0.461407l -0.735946, 0.472357l -0.700761, 0.482801l -0.664825, 0.492727l -0.628177, 0.502126l -0.590857, 0.510988l -0.552904,
 0.519302l -0.514359, 0.52706l -0.475263, 0.534254l -0.435658, 0.540875l -0.395586, 0.546918l -0.355091, 0.552375l -0.314216, 0.55724l -0.273004, 0.561509l -0.2315, 0.565176l -0.189748, 0.568238l -0.147793, 0.570692l -0.10568, 0.572534l -0.0634531,
 0.573764l -0.0211586, 0.574379z" fill="none" stroke="#1652cc"/>
<path d="M407.355,113.995v -17.5549l -1.293, 0.00939909l -1.29162, 0.0281872l -1.28885, 0.0469452l -1.2847, 0.0656528l -1.27918, 0.0842902l -1.27229, 0.102837l -1.26403, 0.121274l -1.25442, 0.139581l -1.24347, 0.157739l -1.23118, 0.175728l -1.21758,
 0.193528l -1.20268, 0.211122l -1.18648, 0.228489l -1.16902, 0.245612l -1.1503, 0.262471l -1.13035, 0.27905l -1.10919, 0.295329l -1.08685, 0.311293l -1.06334, 0.326923l -1.03869, 0.342203l -1.01293, 0.357117l -0.986081, 0.371648l -0.95818, 0.385781l
 -0.929252, 0.399501l -0.899329, 0.412793l -0.868444, 0.425644l -0.836628, 0.438038l -0.803916, 0.449964l -0.770344, 0.461407l -0.735946, 0.472357l -0.700761, 0.482801l -0.664825, 0.492727l -0.628177, 0.502126l -0.590857, 0.510988l -0.552904,
 0.519302l -0.514359, 0.52706l -0.475263, 0.534254l -0.435658, 0.540875l -0.395586, 0.546918l -0.355091, 0.552375l -0.314216, 0.55724l -0.273004, 0.561509l -0.2315, 0.565176l -0.189748, 0.568238l -0.147793, 0.570692l -0.10568, 0.572534l -0.0634531,
 0.573764l -0.0211586, 0.574379h 39.5183z" fill="none" stroke="black"/>
<path d="M433.701,113.995h -65.8638l 0.0352643, 0.957298l 0.105755, 0.956273l 0.176133, 0.954224l 0.246322, 0.951153l 0.316247, 0.947064l 0.385834, 0.94196l 0.455007, 0.935848l 0.523693, 0.928734l 0.591819, 0.920625l 0.65931, 0.91153l 0.726096,
 0.901459l 0.792104, 0.890423l 0.857264, 0.878433l 0.921506, 0.865503l 0.984761, 0.851646l 1.04696, 0.836877l 1.10804, 0.821212l 1.16793, 0.804668l 1.22658, 0.787261l 1.28391, 0.769012l 1.33986, 0.749939l 1.39438, 0.730064l 1.44741, 0.709406l
 1.49888, 0.687989l 1.54875, 0.665835l 1.59697, 0.642968l 1.64347, 0.619413l 1.68821, 0.595194l 1.73115, 0.570338l 1.77223, 0.544872l 1.81141, 0.518821l 1.84866, 0.492216l 1.88392, 0.465083l 1.91717, 0.437452l 1.94836, 0.409353l 1.97747, 0.380815l
 2.00446, 0.351869l 2.0293, 0.322547l 2.05197, 0.29288l 2.07245, 0.262898l 2.0907, 0.232636l 2.10672, 0.202124l 2.12048, 0.171395l 2.13196, 0.140484l 2.14117, 0.109421l 2.14808, 0.0782419l 2.1527, 0.0469787l 2.155, 0.0156652z" fill="none"
 stroke="#1063db"/>
<path d="M433.701,113.995h -65.8638l 0.0352643, 0.957298l 0.105755, 0.956273l 0.176133, 0.954224l 0.246322, 0.951153l 0.316247, 0.947064l 0.385834, 0.94196l 0.455007, 0.935848l 0.523693, 0.928734l 0.591819, 0.920625l 0.65931, 0.91153l 0.726096,
 0.901459l 0.792104, 0.890423l 0.857264, 0.878433l 0.921506, 0.865503l 0.984761, 0.851646l 1.04696, 0.836877l 1.10804, 0.821212l 1.16793, 0.804668l 1.22658, 0.787261l 1.28391, 0.769012l 1.33986, 0.749939l 1.39438, 0.730064l 1.44741, 0.709406l
 1.49888, 0.687989l 1.54875, 0.665835l 1.59697, 0.642968l 1.64347, 0.619413l 1.68821, 0.595194l 1.73115, 0.570338l 1.77223, 0.544872l 1.81141, 0.518821l 1.84866, 0.492216l 1.88392, 0.465083l 1.91717, 0.437452l 1.94836, 0.409353l 1.97747, 0.380815l
 2.00446, 0.351869l 2.0293, 0.322547l 2.05197, 0.29288l 2.07245, 0.262898l 2.0907, 0.232636l 2.10672, 0.202124l 2.12048, 0.171395l 2.13196, 0.140484l 2.14117, 0.109421l 2.14808, 0.0782419l 2.1527, 0.0469787l 2.155, 0.0156652v -29.2581z" fill="none"
 stroke="black"/>
<path d="M433.701,96.4406v 46.813l 3.44801, -0.0250642l 3.44431, -0.0751659l 3.43693, -0.125187l 3.42587, -0.175074l 3.41114, -0.224774l 3.39276, -0.274233l 3.37075, -0.323398l 3.34512, -0.372217l 3.31592, -0.420637l 3.28316, -0.468607l 3.24688,
 -0.516076l 3.20713, -0.562991l 3.16395, -0.609304l 3.11738, -0.654964l 3.06747, -0.699923l 3.01427, -0.744132l 2.95785, -0.787545l 2.89826, -0.830114l 2.83557, -0.871794l 2.76984, -0.912541l 2.70114, -0.952311l 2.62955, -0.991061l 2.55515, -1.02875l
 2.47801, -1.06534l 2.39821, -1.10078l 2.31585, -1.13505l 2.23101, -1.1681l 2.14378, -1.1999l 2.05425, -1.23042l 1.96252, -1.25962l 1.8687, -1.28747l 1.77287, -1.31394l 1.67514, -1.339l 1.57562, -1.36263l 1.47441, -1.38481l 1.37162, -1.40549l
 1.26737, -1.42468l 1.16175, -1.44233l 1.0549, -1.45845l 0.94691, -1.473l 0.837909, -1.48597l 0.728011, -1.49736l 0.617334, -1.50714l 0.505995, -1.5153l 0.394115, -1.52185l 0.281813, -1.52676l 0.169208, -1.53004l 0.0564229, -1.53168z" fill="none"
 stroke="#1380d5"/>
<path d="M433.701,96.4406v 46.813l 3.44801, -0.0250642l 3.44431, -0.0751659l 3.43693, -0.125187l 3.42587, -0.175074l 3.41114, -0.224774l 3.39276, -0.274233l 3.37075, -0.323398l 3.34512, -0.372217l 3.31592, -0.420637l 3.28316, -0.468607l 3.24688,
 -0.516076l 3.20713, -0.562991l 3.16395, -0.609304l 3.11738, -0.654964l 3.06747, -0.699923l 3.01427, -0.744132l 2.95785, -0.787545l 2.89826, -0.830114l 2.83557, -0.871794l 2.76984, -0.912541l 2.70114, -0.952311l 2.62955, -0.991061l 2.55515, -1.02875l
 2.47801, -1.06534l 2.39821, -1.10078l 2.31585, -1.13505l 2.23101, -1.1681l 2.14378, -1.1999l 2.05425, -1.23042l 1.96252, -1.25962l 1.8687, -1.28747l 1.77287, -1.31394l 1.67514, -1.339l 1.57562, -1.36263l 1.47441, -1.38481l 1.37162, -1.40549l
 1.26737, -1.42468l 1.16175, -1.44233l 1.0549, -1.45845l 0.94691, -1.473l 0.837909, -1.48597l 0.728011, -1.49736l 0.617334, -1.50714l 0.505995, -1.5153l 0.394115, -1.52185l 0.281813, -1.52676l 0.169208, -1.53004l 0.0564229, -1.53168h -105.382z"
 fill="none" stroke="black"/>
<path d="M367.837,96.4406h 171.246l -0.0916872, -2.48898l -0.274963, -2.48631l -0.457945, -2.48098l -0.640437, -2.473l -0.822242, -2.46237l -1.00317, -2.4491l -1.18302, -2.4332l -1.3616, -2.41471l -1.53873, -2.39362l -1.71421, -2.36998l -1.88785,
 -2.34379l -2.05947, -2.3151l -2.22889, -2.28393l -2.39592, -2.25031l -2.56038, -2.21428l -2.7221, -2.17588l -2.88091, -2.13515l -3.03663, -2.09214l -3.1891, -2.04688l -3.33816, -1.99943l -3.48364, -1.94984l -3.62539, -1.89817l -3.76326, -1.84446l
 -3.89709, -1.78877l -4.02676, -1.73117l -4.15211, -1.67172l -4.27302, -1.61047l -4.38935, -1.54751l -4.50098, -1.48288l -4.60779, -1.41667l -4.70967, -1.34894l -4.80651, -1.27976l -4.89819, -1.20922l -4.98463, -1.13737l -5.06574, -1.06432l -5.14142,
 -0.990119l -5.21159, -0.914861l -5.27619, -0.838623l -5.33513, -0.761487l -5.38836, -0.683536l -5.43582, -0.604853l -5.47746, -0.525522l -5.51324, -0.445628l -5.54311, -0.365257l -5.56704, -0.284496l -5.58502, -0.203429l -5.59701, -0.122145l
 -5.60301, -0.0407294z" fill="none" stroke="#0da7c2"/>
<path d="M367.837,96.4406h 171.246l -0.0916872, -2.48898l -0.274963, -2.48631l -0.457945, -2.48098l -0.640437, -2.473l -0.822242, -2.46237l -1.00317, -2.4491l -1.18302, -2.4332l -1.3616, -2.41471l -1.53873, -2.39362l -1.71421, -2.36998l -1.88785,
 -2.34379l -2.05947, -2.3151l -2.22889, -2.28393l -2.39592, -2.25031l -2.56038, -2.21428l -2.7221, -2.17588l -2.88091, -2.13515l -3.03663, -2.09214l -3.1891, -2.04688l -3.33816, -1.99943l -3.48364, -1.94984l -3.62539, -1.89817l -3.76326, -1.84446l
 -3.89709, -1.78877l -4.02676, -1.73117l -4.15211, -1.67172l -4.27302, -1.61047l -4.38935, -1.54751l -4.50098, -1.48288l -4.60779, -1.41667l -4.70967, -1.34894l -4.80651, -1.27976l -4.89819, -1.20922l -4.98463, -1.13737l -5.06574, -1.06432l -5.14142,
 -0.990119l -5.21159, -0.914861l -5.27619, -0.838623l -5.33513, -0.761487l -5.38836, -0.683536l -5.43582, -0.604853l -5.47746, -0.525522l -5.51324, -0.445628l -5.54311, -0.365257l -5.56704, -0.284496l -5.58502, -0.203429l -5.59701, -0.122145l
 -5.60301, -0.0407294v 76.0711z" fill="none" stroke="black"/>
<path d="M367.837,143.254v -122.884l -9.05102, 0.0657936l -9.04132, 0.19731l -9.02195, 0.328616l -8.99292, 0.45957l -8.95425, 0.590031l -8.906, 0.719861l -8.84821, 0.84892l -8.78094, 0.97707l -8.70428, 1.10417l -8.61829, 1.23009l -8.52307, 1.3547l
 -8.41873, 1.47785l -8.30537, 1.59942l -8.18312, 1.71928l -8.0521, 1.8373l -7.91247, 1.95335l -7.76436, 2.06731l -7.60793, 2.17905l -7.44336, 2.28846l -7.27082, 2.39542l -7.09049, 2.49982l -6.90257, 2.60153l -6.70726, 2.70047l -6.50477, 2.79651l
 -6.29531, 2.88955l -6.0791, 2.97951l -5.85639, 3.06627l -5.62741, 3.14975l -5.39241, 3.22985l -5.15162, 3.3065l -4.90533, 3.3796l -4.65378, 3.44909l -4.39724, 3.51488l -4.136, 3.57691l -3.87033, 3.63511l -3.60051, 3.68942l -3.32684, 3.73978l
 -3.0496, 3.78613l -2.7691, 3.82843l -2.48564, 3.86662l -2.19951, 3.90068l -1.91103, 3.93056l -1.6205, 3.95623l -1.32824, 3.97767l -1.03455, 3.99484l -0.739758, 4.00774l -0.444172, 4.01635l -0.14811, 4.02065z" fill="none" stroke="#94be71"/>
<path d="M367.837,143.254v -122.884l -9.05102, 0.0657936l -9.04132, 0.19731l -9.02195, 0.328616l -8.99292, 0.45957l -8.95425, 0.590031l -8.906, 0.719861l -8.84821, 0.84892l -8.78094, 0.97707l -8.70428, 1.10417l -8.61829, 1.23009l -8.52307, 1.3547l
 -8.41873, 1.47785l -8.30537, 1.59942l -8.18312, 1.71928l -8.0521, 1.8373l -7.91247, 1.95335l -7.76436, 2.06731l -7.60793, 2.17905l -7.44336, 2.28846l -7.27082, 2.39542l -7.09049, 2.49982l -6.90257, 2.60153l -6.70726, 2.70047l -6.50477, 2.79651l
 -6.29531, 2.88955l -6.0791, 2.97951l -5.85639, 3.06627l -5.62741, 3.14975l -5.39241, 3.22985l -5.15162, 3.3065l -4.90533, 3.3796l -4.65378, 3.44909l -4.39724, 3.51488l -4.136, 3.57691l -3.87033, 3.63511l -3.60051, 3.68942l -3.32684, 3.73978l
 -3.0496, 3.78613l -2.7691, 3.82843l -2.48564, 3.86662l -2.19951, 3.90068l -1.91103, 3.93056l -1.6205, 3.95623l -1.32824, 3.97767l -1.03455, 3.99484l -0.739758, 4.00774l -0.444172, 4.01635l -0.14811, 4.02065h 276.628z" fill="none" stroke="black"/>
<path d="M539.083,143.254h -447.874l 0.239797, 6.50963l 0.719135, 6.50266l 1.1977, 6.48872l 1.67499, 6.46784l 2.15048, 6.44003l 2.62367, 6.40533l 3.09405, 6.36377l 3.56111, 6.31539l 4.02437, 6.26025l 4.48331, 6.1984l 4.93745, 6.12992l 5.38631,
 6.05488l 5.8294, 5.97335l 6.26624, 5.88542l 6.69638, 5.79119l 7.11934, 5.69076l 7.53468, 5.58424l 7.94196, 5.47174l 8.34073, 5.35338l 8.73056, 5.22928l 9.11105, 5.09959l 9.48178, 4.96443l 9.84236, 4.82396l 10.1924, 4.67833l 10.5315, 4.52768l
 10.8594, 4.37218l 11.1756, 4.21201l 11.4798, 4.04732l 11.7718, 3.8783l 12.0512, 3.70513l 12.3176, 3.52799l 12.5709, 3.34707l 12.8107, 3.16256l 13.0367, 2.97467l 13.2489, 2.7836l 13.4468, 2.58954l 13.6303, 2.39271l 13.7993, 2.19332l 13.9534, 1.99158l
 14.0926, 1.78771l 14.2168, 1.58192l 14.3257, 1.37444l 14.4192, 1.16549l 14.4974, 0.955289l 14.56, 0.744065l 14.607, 0.532045l 14.6383, 0.319455l 14.654, 0.106523z" fill="none" stroke="#f9f90e"/>
<path d="M539.083,143.254h -447.874l 0.239797, 6.50963l 0.719135, 6.50266l 1.1977, 6.48872l 1.67499, 6.46784l 2.15048, 6.44003l 2.62367, 6.40533l 3.09405, 6.36377l 3.56111, 6.31539l 4.02437, 6.26025l 4.48331, 6.1984l 4.93745, 6.12992l 5.38631,
 6.05488l 5.8294, 5.97335l 6.26624, 5.88542l 6.69638, 5.79119l 7.11934, 5.69076l 7.53468, 5.58424l 7.94196, 5.47174l 8.34073, 5.35338l 8.73056, 5.22928l 9.11105, 5.09959l 9.48178, 4.96443l 9.84236, 4.82396l 10.1924, 4.67833l 10.5315, 4.52768l
 10.8594, 4.37218l 11.1756, 4.21201l 11.4798, 4.04732l 11.7718, 3.8783l 12.0512, 3.70513l 12.3176, 3.52799l 12.5709, 3.34707l 12.8107, 3.16256l 13.0367, 2.97467l 13.2489, 2.7836l 13.4468, 2.58954l 13.6303, 2.39271l 13.7993, 2.19332l 13.9534, 1.99158l
 14.0926, 1.78771l 14.2168, 1.58192l 14.3257, 1.37444l 14.4192, 1.16549l 14.4974, 0.955289l 14.56, 0.744065l 14.607, 0.532045l 14.6383, 0.319455l 14.654, 0.106523v -198.955z" fill="none" stroke="black"/></svg>
