<?xml version="1.0" standalone="no"?>
<svg width="567.429" height="710.791" viewBox="0 0 567.429 710.791" xmlns="http://www.w3.org/2000/svg" shape-rendering="crispEdges">
<title>
./old_svg_ref/fillrandom.svg
</title>
<desc>
Creator: ROOT Version 6.33/01
CreationDate: Fri Jun  7 11:38:52 2024</desc>
<defs>
</defs>
<rect x="0.5" y="0" width="566.929" height="710.291" fill="white"/>
<rect x="28.8465" y="35.5145" width="510.236" height="319.631" fill="white"/>
<rect x="79.8701" y="67.4776" width="408.189" height="255.705" fill="white"/>
<rect x="79.8701" y="67.4776" width="408.189" height="255.705" fill="none" stroke="black"/>
<rect x="79.8701" y="67.4776" width="408.189" height="255.705" fill="white"/>
<rect x="79.8701" y="67.4776" width="408.189" height="255.705" fill="none" stroke="black"/>
<path d="M79.8701,323.182h 408.189" fill="none" stroke="black"/>
<path d="M79.8701,67.4776v 255.705" fill="none" stroke="black" stroke-dasharray=" 1, 2"/>
<path d="M120.689,67.4776v 255.705" fill="none" stroke="black" stroke-dasharray=" 1, 2"/>
<path d="M161.508,67.4776v 255.705" fill="none" stroke="black" stroke-dasharray=" 1, 2"/>
<path d="M202.327,67.4776v 255.705" fill="none" stroke="black" stroke-dasharray=" 1, 2"/>
<path d="M243.146,67.4776v 255.705" fill="none" stroke="black" stroke-dasharray=" 1, 2"/>
<path d="M283.965,67.4776v 255.705" fill="none" stroke="black" stroke-dasharray=" 1, 2"/>
<path d="M324.783,67.4776v 255.705" fill="none" stroke="black" stroke-dasharray=" 1, 2"/>
<path d="M365.602,67.4776v 255.705" fill="none" stroke="black" stroke-dasharray=" 1, 2"/>
<path d="M406.421,67.4776v 255.705" fill="none" stroke="black" stroke-dasharray=" 1, 2"/>
<path d="M447.24,67.4776v 255.705" fill="none" stroke="black" stroke-dasharray=" 1, 2"/>
<path d="M488.059,67.4776v 255.705" fill="none" stroke="black" stroke-dasharray=" 1, 2"/>
<path d="M79.8701,323.182v -255.705" fill="none" stroke="black"/>
<path d="M488.059,323.182h -408.189" fill="none" stroke="black" stroke-dasharray=" 1, 2"/>
<path d="M488.059,296.364h -408.189" fill="none" stroke="black" stroke-dasharray=" 1, 2"/>
<path d="M488.059,269.546h -408.189" fill="none" stroke="black" stroke-dasharray=" 1, 2"/>
<path d="M488.059,242.729h -408.189" fill="none" stroke="black" stroke-dasharray=" 1, 2"/>
<path d="M488.059,215.911h -408.189" fill="none" stroke="black" stroke-dasharray=" 1, 2"/>
<path d="M488.059,189.093h -408.189" fill="none" stroke="black" stroke-dasharray=" 1, 2"/>
<path d="M488.059,162.275h -408.189" fill="none" stroke="black" stroke-dasharray=" 1, 2"/>
<path d="M488.059,135.457h -408.189" fill="none" stroke="black" stroke-dasharray=" 1, 2"/>
<path d="M488.059,108.639h -408.189" fill="none" stroke="black" stroke-dasharray=" 1, 2"/>
<path d="M488.059,81.8216h -408.189" fill="none" stroke="black" stroke-dasharray=" 1, 2"/>
<path d="M488.059,81.8216h -408.189" fill="none" stroke="black" stroke-dasharray=" 1, 2"/>
<path d="M81.911,215.954l 4.08189, 0.353359l 4.08189, 0.70512l 4.08189, 1.05066l 4.08189, 1.38693l 4.08189, 1.71061l 4.08189, 2.01796l 4.08189, 2.30477l 4.08189, 2.56624l 4.08189, 2.7969l 4.08189, 2.99051l 4.08189, 3.13998l 4.08189, 3.2374l 4.08189,
 3.27401l 4.08189, 3.24039l 4.08189, 3.12667l 4.08189, 2.92287l 4.08189, 2.61944l 4.08189, 2.20787l 4.08189, 1.68145l 4.08189, 1.03618l 4.08189, 0.27171l 4.08189, -0.607749l 4.08189, -1.59252l 4.08189, -2.66675l 4.08189, -3.80799l 4.08189, -4.98708l
 4.08189, -6.16849l 4.08189, -7.31117l 4.08189, -8.36989l 4.08189, -9.29707l 4.08189, -10.6177l 4.08189, -17.1386l 4.08189, -16.937l 4.08189, -16.4184l 4.08189, -15.5654l 4.08189, -14.3729l 4.08189, -12.85l 4.08189, -11.02l 4.08189, -8.92066l
 4.08189, -6.6025l 4.08189, -4.1268l 4.08189, -1.56271l 4.08189, 1.01615l 4.08189, 3.53542l 4.08189, 5.92381l 4.08189, 8.11657l 4.08189, 10.0586l 4.08189, 11.7069l 4.08189, 13.0319" fill="none" stroke="#0000ff" stroke-width="6"/>
<path d="M281.924,133.043l 4.08189, 14.0185l 4.08189, 14.6654l 4.08189, 14.9845l 4.08189, 14.9988l 4.08189, 14.7407l 4.08189, 14.2488l 4.08189, 13.566l 4.08189, 12.7364l 4.08189, 11.8034l 4.08189, 10.8074l 4.08189, 9.7848l 4.08189, 8.76658l 4.08189,
 7.77794l 4.08189, 4.58238l 4.08189, 2.69346l 4.08189, 2.04087l 4.08189, 1.48741l 4.08189, 1.03098l 4.08189, 0.666472l 4.08189, 0.386675l 4.08189, 0.182972l 4.08189, 0.0460222l 4.08189, -0.0337003l 4.08189, -0.0654948l 4.08189, -0.058133l 4.08189,
 -0.0196628l 4.08189, 0.0426995l 4.08189, 0.122608l 4.08189, 0.214575l 4.08189, 0.313922l 4.08189, 0.416709l 4.08189, 0.519656l 4.08189, 0.620057l 4.08189, 0.715702l 4.08189, 0.804801l 4.08189, 0.885927l 4.08189, 0.957954l 4.08189, 1.02002l 4.08189,
 1.07148l 4.08189, 1.11188l 4.08189, 1.14096l 4.08189, 1.15859l 4.08189, 1.16478l 4.08189, 1.15967l 4.08189, 0.570968l 4.08189, -1.11654l 4.08189, -1.07956l 4.08189, -1.03288l 4.08189, -0.977154" fill="none" stroke="#0000ff" stroke-width="6"/>
<path d="M481.936,318.69l 4.08189, -0.913081" fill="none" stroke="#0000ff" stroke-width="6"/>
<path d="M79.8701,323.182h 408.189" fill="none" stroke="black"/>
<path d="M79.8701,315.511v 7.67114" fill="none" stroke="black"/>
<path d="M88.0339,319.347v 3.83557" fill="none" stroke="black"/>
<path d="M96.1976,319.347v 3.83557" fill="none" stroke="black"/>
<path d="M104.361,319.347v 3.83557" fill="none" stroke="black"/>
<path d="M112.525,319.347v 3.83557" fill="none" stroke="black"/>
<path d="M120.689,315.511v 7.67114" fill="none" stroke="black"/>
<path d="M128.853,319.347v 3.83557" fill="none" stroke="black"/>
<path d="M137.017,319.347v 3.83557" fill="none" stroke="black"/>
<path d="M145.18,319.347v 3.83557" fill="none" stroke="black"/>
<path d="M153.344,319.347v 3.83557" fill="none" stroke="black"/>
<path d="M161.508,315.511v 7.67114" fill="none" stroke="black"/>
<path d="M169.672,319.347v 3.83557" fill="none" stroke="black"/>
<path d="M177.835,319.347v 3.83557" fill="none" stroke="black"/>
<path d="M185.999,319.347v 3.83557" fill="none" stroke="black"/>
<path d="M194.163,319.347v 3.83557" fill="none" stroke="black"/>
<path d="M202.327,315.511v 7.67114" fill="none" stroke="black"/>
<path d="M210.491,319.347v 3.83557" fill="none" stroke="black"/>
<path d="M218.654,319.347v 3.83557" fill="none" stroke="black"/>
<path d="M226.818,319.347v 3.83557" fill="none" stroke="black"/>
<path d="M234.982,319.347v 3.83557" fill="none" stroke="black"/>
<path d="M243.146,315.511v 7.67114" fill="none" stroke="black"/>
<path d="M251.309,319.347v 3.83557" fill="none" stroke="black"/>
<path d="M259.473,319.347v 3.83557" fill="none" stroke="black"/>
<path d="M267.637,319.347v 3.83557" fill="none" stroke="black"/>
<path d="M275.801,319.347v 3.83557" fill="none" stroke="black"/>
<path d="M283.965,315.511v 7.67114" fill="none" stroke="black"/>
<path d="M292.128,319.347v 3.83557" fill="none" stroke="black"/>
<path d="M300.292,319.347v 3.83557" fill="none" stroke="black"/>
<path d="M308.456,319.347v 3.83557" fill="none" stroke="black"/>
<path d="M316.62,319.347v 3.83557" fill="none" stroke="black"/>
<path d="M324.783,315.511v 7.67114" fill="none" stroke="black"/>
<path d="M332.947,319.347v 3.83557" fill="none" stroke="black"/>
<path d="M341.111,319.347v 3.83557" fill="none" stroke="black"/>
<path d="M349.275,319.347v 3.83557" fill="none" stroke="black"/>
<path d="M357.439,319.347v 3.83557" fill="none" stroke="black"/>
<path d="M365.602,315.511v 7.67114" fill="none" stroke="black"/>
<path d="M373.766,319.347v 3.83557" fill="none" stroke="black"/>
<path d="M381.93,319.347v 3.83557" fill="none" stroke="black"/>
<path d="M390.094,319.347v 3.83557" fill="none" stroke="black"/>
<path d="M398.257,319.347v 3.83557" fill="none" stroke="black"/>
<path d="M406.421,315.511v 7.67114" fill="none" stroke="black"/>
<path d="M414.585,319.347v 3.83557" fill="none" stroke="black"/>
<path d="M422.749,319.347v 3.83557" fill="none" stroke="black"/>
<path d="M430.913,319.347v 3.83557" fill="none" stroke="black"/>
<path d="M439.076,319.347v 3.83557" fill="none" stroke="black"/>
<path d="M447.24,315.511v 7.67114" fill="none" stroke="black"/>
<path d="M455.404,319.347v 3.83557" fill="none" stroke="black"/>
<path d="M463.568,319.347v 3.83557" fill="none" stroke="black"/>
<path d="M471.732,319.347v 3.83557" fill="none" stroke="black"/>
<path d="M479.895,319.347v 3.83557" fill="none" stroke="black"/>
<path d="M488.059,315.511v 7.67114" fill="none" stroke="black"/>
<text xml:space="preserve" x="76.2535" y="333.967" fill="black" font-size="10.7634" font-family="Helvetica">0
</text>
<text xml:space="preserve" x="118.61" y="333.967" fill="black" font-size="10.7634" font-family="Helvetica">1
</text>
<text xml:space="preserve" x="158.523" y="333.967" fill="black" font-size="10.7634" font-family="Helvetica">2
</text>
<text xml:space="preserve" x="199.251" y="333.967" fill="black" font-size="10.7634" font-family="Helvetica">3
</text>
<text xml:space="preserve" x="239.979" y="333.967" fill="black" font-size="10.7634" font-family="Helvetica">4
</text>
<text xml:space="preserve" x="280.706" y="333.967" fill="black" font-size="10.7634" font-family="Helvetica">5
</text>
<text xml:space="preserve" x="321.434" y="333.967" fill="black" font-size="10.7634" font-family="Helvetica">6
</text>
<text xml:space="preserve" x="362.162" y="333.967" fill="black" font-size="10.7634" font-family="Helvetica">7
</text>
<text xml:space="preserve" x="402.889" y="333.967" fill="black" font-size="10.7634" font-family="Helvetica">8
</text>
<text xml:space="preserve" x="443.617" y="333.967" fill="black" font-size="10.7634" font-family="Helvetica">9
</text>
<text xml:space="preserve" x="482.716" y="333.967" fill="black" font-size="10.7634" font-family="Helvetica">10
</text>
<path d="M79.8701,323.182v -255.705" fill="none" stroke="black"/>
<path d="M92.1158,323.182h -12.2457" fill="none" stroke="black"/>
<path d="M85.9929,317.819h -6.12283" fill="none" stroke="black"/>
<path d="M85.9929,312.455h -6.12283" fill="none" stroke="black"/>
<path d="M85.9929,307.091h -6.12283" fill="none" stroke="black"/>
<path d="M85.9929,301.728h -6.12283" fill="none" stroke="black"/>
<path d="M92.1158,296.364h -12.2457" fill="none" stroke="black"/>
<path d="M85.9929,291.001h -6.12283" fill="none" stroke="black"/>
<path d="M85.9929,285.637h -6.12283" fill="none" stroke="black"/>
<path d="M85.9929,280.274h -6.12283" fill="none" stroke="black"/>
<path d="M85.9929,274.91h -6.12283" fill="none" stroke="black"/>
<path d="M92.1158,269.546h -12.2457" fill="none" stroke="black"/>
<path d="M85.9929,264.183h -6.12283" fill="none" stroke="black"/>
<path d="M85.9929,258.819h -6.12283" fill="none" stroke="black"/>
<path d="M85.9929,253.456h -6.12283" fill="none" stroke="black"/>
<path d="M85.9929,248.092h -6.12283" fill="none" stroke="black"/>
<path d="M92.1158,242.729h -12.2457" fill="none" stroke="black"/>
<path d="M85.9929,237.365h -6.12283" fill="none" stroke="black"/>
<path d="M85.9929,232.001h -6.12283" fill="none" stroke="black"/>
<path d="M85.9929,226.638h -6.12283" fill="none" stroke="black"/>
<path d="M85.9929,221.274h -6.12283" fill="none" stroke="black"/>
<path d="M92.1158,215.911h -12.2457" fill="none" stroke="black"/>
<path d="M85.9929,210.547h -6.12283" fill="none" stroke="black"/>
<path d="M85.9929,205.184h -6.12283" fill="none" stroke="black"/>
<path d="M85.9929,199.82h -6.12283" fill="none" stroke="black"/>
<path d="M85.9929,194.457h -6.12283" fill="none" stroke="black"/>
<path d="M92.1158,189.093h -12.2457" fill="none" stroke="black"/>
<path d="M85.9929,183.729h -6.12283" fill="none" stroke="black"/>
<path d="M85.9929,178.366h -6.12283" fill="none" stroke="black"/>
<path d="M85.9929,173.002h -6.12283" fill="none" stroke="black"/>
<path d="M85.9929,167.639h -6.12283" fill="none" stroke="black"/>
<path d="M92.1158,162.275h -12.2457" fill="none" stroke="black"/>
<path d="M85.9929,156.912h -6.12283" fill="none" stroke="black"/>
<path d="M85.9929,151.548h -6.12283" fill="none" stroke="black"/>
<path d="M85.9929,146.184h -6.12283" fill="none" stroke="black"/>
<path d="M85.9929,140.821h -6.12283" fill="none" stroke="black"/>
<path d="M92.1158,135.457h -12.2457" fill="none" stroke="black"/>
<path d="M85.9929,130.094h -6.12283" fill="none" stroke="black"/>
<path d="M85.9929,124.73h -6.12283" fill="none" stroke="black"/>
<path d="M85.9929,119.367h -6.12283" fill="none" stroke="black"/>
<path d="M85.9929,114.003h -6.12283" fill="none" stroke="black"/>
<path d="M92.1158,108.639h -12.2457" fill="none" stroke="black"/>
<path d="M85.9929,103.276h -6.12283" fill="none" stroke="black"/>
<path d="M85.9929,97.9123h -6.12283" fill="none" stroke="black"/>
<path d="M85.9929,92.5487h -6.12283" fill="none" stroke="black"/>
<path d="M85.9929,87.1851h -6.12283" fill="none" stroke="black"/>
<path d="M92.1158,81.8216h -12.2457" fill="none" stroke="black"/>
<path d="M92.1158,81.8216h -12.2457" fill="none" stroke="black"/>
<path d="M85.9929,76.458h -6.12283" fill="none" stroke="black"/>
<path d="M85.9929,71.0944h -6.12283" fill="none" stroke="black"/>
<text xml:space="preserve" x="71.3661" y="327.45" fill="black" font-size="10.7634" font-family="Helvetica">0
</text>
<text xml:space="preserve" x="71.3661" y="300.57" fill="black" font-size="10.7634" font-family="Helvetica">5
</text>
<text xml:space="preserve" x="65.6643" y="273.69" fill="black" font-size="10.7634" font-family="Helvetica">10
</text>
<text xml:space="preserve" x="65.6643" y="246.81" fill="black" font-size="10.7634" font-family="Helvetica">15
</text>
<text xml:space="preserve" x="65.6643" y="219.929" fill="black" font-size="10.7634" font-family="Helvetica">20
</text>
<text xml:space="preserve" x="65.6643" y="193.049" fill="black" font-size="10.7634" font-family="Helvetica">25
</text>
<text xml:space="preserve" x="65.6643" y="166.169" fill="black" font-size="10.7634" font-family="Helvetica">30
</text>
<text xml:space="preserve" x="65.6643" y="139.289" fill="black" font-size="10.7634" font-family="Helvetica">35
</text>
<text xml:space="preserve" x="65.6643" y="112.408" fill="black" font-size="10.7634" font-family="Helvetica">40
</text>
<text xml:space="preserve" x="65.6643" y="85.5281" fill="black" font-size="10.7634" font-family="Helvetica">45
</text>
<rect x="283.965" y="76.458" width="195.931" height="37.545" fill="#f2f2f2"/>
<path d="M287.63,114.003v 2.44366h 194.709v -36.3232h -2.44366v 33.8795z" fill="black"/>
<path d="M283.965,114.003v -37.545h 195.931v 37.545h -195.931z" fill="none" stroke="black"/>
<text xml:space="preserve" x="290.481" y="101.005" fill="black" font-size="19.6387" font-family="Helvetica" font-weight="bold">The sqroot function
</text>
<text xml:space="preserve" x="211.469" y="51.3169" fill="black" font-size="15.7449" font-family="Helvetica">x*gaus(0) + [3]*form1
</text>
<rect x="28.8465" y="390.66" width="510.236" height="284.116" fill="white"/>
<rect x="79.8701" y="419.071" width="408.189" height="227.293" fill="white"/>
<rect x="79.8701" y="419.071" width="408.189" height="227.293" fill="none" stroke="black"/>
<rect x="79.8701" y="419.071" width="408.189" height="227.293" fill="white"/>
<rect x="79.8701" y="419.071" width="408.189" height="227.293" fill="none" stroke="black"/>
<path d="M79.8701,646.364v -83.5496h 2.04094v 3.79771h 2.04094v -3.79771h 2.04094v -16.4567h 2.04094v 13.9249h 2.04094v 21.5204h 2.04094v -22.7863h 2.04094v 24.0522h 2.04094v -21.5204h 4.08189v 8.86132h 4.08189v 3.79771h 2.04094v -2.53181h 2.04094v
 22.7863h 2.04094v -31.6476h 2.04094v 15.1908h 2.04094v -11.3931h 2.04094v 18.9886h 2.04094v -18.9886h 2.04094v -10.1272h 2.04094v 20.2545h 2.04094v -6.32952h 2.04094v 8.86132h 2.04094v 12.659h 2.04094v -7.59542h 2.04094v 6.32952h 2.04094v -2.53181h
 2.04094v -8.86132h 2.04094v 6.32952h 2.04094v -7.59542h 2.04094v 25.3181h 2.04094v -21.5204h 2.04094v 2.53181h 2.04094v 2.53181h 2.04094v 13.9249h 2.04094v -2.53181h 2.04094v -1.2659h 2.04094v -7.59542h 2.04094v 16.4567h 2.04094v -12.659h 2.04094v
 18.9886h 2.04094v -6.32952h 2.04094v -13.9249h 2.04094v 10.1272h 2.04094v -13.9249h 2.04094v 6.32952h 2.04094v 3.79771h 2.04094v 16.4567h 2.04094v -6.32952h 2.04094v -21.5204h 2.04094v 3.79771h 2.04094v -13.9249h 2.04094v 26.584h 2.04094v -22.7863h
 2.04094v 1.2659h 4.08189v -10.1272h 2.04094v 11.3931h 2.04094v -36.7112h 2.04094v 26.584h 2.04094v -8.86132h 2.04094v 2.53181h 2.04094v -18.9886h 2.04094v -11.3931h 2.04094v -21.5204h 2.04094v 17.7226h 2.04094v -15.1908h 2.04094v 2.53181h 2.04094v
 -6.32952h 2.04094v -15.1908h 2.04094v -2.53181h 2.04094v 1.2659h 2.04094v -13.9249h 2.04094v -2.53181h 2.04094v -1.2659h 2.04094v 13.9249h 2.04094v -50.6361h 2.04094v 20.2545h 2.04094v 13.9249h 2.04094v 2.53181h 2.04094v -12.659h 2.04094v -29.1158h
 2.04094v -7.59542h 2.04094v 27.8499h 2.04094v -8.86132h 2.04094v 26.584h 2.04094v -31.6476h 2.04094v 7.59542h 2.04094v -1.2659h 2.04094v -18.9886h 2.04094v 46.8384h 2.04094v 12.659h 2.04094v -2.53181h 2.04094v 5.06361h 2.04094v -11.3931h 2.04094v
 10.1272h 2.04094v -11.3931h 2.04094v 18.9886h 2.04094v 25.3181h 2.04094v -25.3181h 2.04094v 24.0522h 2.04094v -16.4567h 2.04094v 32.9135h 2.04094v -17.7226h 2.04094v 18.9886h 2.04094v -2.53181h 2.04094v -10.1272h 2.04094v 31.6476h 2.04094v 10.1272h
 2.04094v -6.32952h 2.04094v 2.53181h 2.04094v 18.9886h 2.04094v -2.53181h 2.04094v 5.06361h 2.04094v -6.32952h 2.04094v 21.5204h 2.04094v 5.06361h 2.04094v -24.0522h 2.04094v 16.4567h 2.04094v 3.79771h 2.04094v 15.1908h 2.04094v -11.3931h 2.04094v
 10.1272h 2.04094v 5.06361h 2.04094v 10.1272h 2.04094v -3.79771h 2.04094v -3.79771h 2.04094v 2.53181h 4.08189v 6.32952h 2.04094v -2.53181h 2.04094v -1.2659h 2.04094v 3.79771h 2.04094v -3.79771h 2.04094v -8.86132h 2.04094v 11.3931h 2.04094v 5.06361h
 2.04094v -3.79771h 2.04094v -7.59542h 2.04094v 10.1272h 2.04094v -6.32952h 2.04094v 5.06361h 2.04094v -1.2659h 2.04094v 7.59542h 2.04094v -6.32952h 2.04094v -1.2659h 2.04094v -8.86132h 2.04094v 12.659h 2.04094v 1.2659h 2.04094v -8.86132h 2.04094v
 5.06361h 2.04094v -1.2659h 2.04094v 2.53181h 2.04094v -2.53181h 2.04094v -3.79771h 2.04094v 5.06361h 2.04094v 1.2659h 2.04094v -5.06361h 2.04094v 2.53181h 2.04094v -1.2659h 2.04094v 6.32952h 2.04094v -5.06361h 4.08189v 7.59542h 2.04094v -5.06361h
 2.04094v -6.32952h 2.04094v 2.53181h 2.04094v 5.06361h 2.04094v 2.53181h 2.04094v -3.79771h 2.04094v 2.53181h 2.04094v -3.79771h 2.04094v 5.06361h 2.04094v -2.53181h 2.04094v 3.79771h 4.08189v -7.59542h 2.04094v 2.53181h 2.04094v 6.32952h 2.04094v
 -2.53181h 2.04094v 1.2659h 2.04094v 2.53181h 2.04094v -1.2659h 2.04094v 1.2659h 2.04094v -1.2659h 2.04094v 2.53181h 6.12283v -2.53181h 2.04094v 2.53181h 4.08189v -3.79771h 2.04094v 1.2659h 2.04094v 1.2659h 2.04094v -3.79771h 2.04094v 2.53181h
 2.04094v 2.53181h 2.04094v -3.79771h 2.04094v -5.06361h 2.04094v 8.86132z" fill="#bf8277"/>
<path d="M79.8701,562.815h 2.04094v 3.79771h 2.04094v -3.79771h 2.04094v -16.4567h 2.04094v 13.9249h 2.04094v 21.5204h 2.04094v -22.7863h 2.04094v 24.0522h 2.04094v -21.5204h 4.08189v 8.86132h 4.08189v 3.79771h 2.04094v -2.53181h 2.04094v 22.7863h
 2.04094v -31.6476h 2.04094v 15.1908h 2.04094v -11.3931h 2.04094v 18.9886h 2.04094v -18.9886h 2.04094v -10.1272h 2.04094v 20.2545h 2.04094v -6.32952h 2.04094v 8.86132h 2.04094v 12.659h 2.04094v -7.59542h 2.04094v 6.32952h 2.04094v -2.53181h 2.04094v
 -8.86132h 2.04094v 6.32952h 2.04094v -7.59542h 2.04094v 25.3181h 2.04094v -21.5204h 2.04094v 2.53181h 2.04094v 2.53181h 2.04094v 13.9249h 2.04094v -2.53181h 2.04094v -1.2659h 2.04094v -7.59542h 2.04094v 16.4567h 2.04094v -12.659h 2.04094v 18.9886h
 2.04094v -6.32952h 2.04094v -13.9249h 2.04094v 10.1272h 2.04094v -13.9249h 2.04094v 6.32952h 2.04094v 3.79771h 2.04094v 16.4567h 2.04094v -6.32952h 2.04094v -21.5204h 2.04094v 3.79771h 2.04094v -13.9249h 2.04094v 26.584h 2.04094v -22.7863h 2.04094v
 1.2659h 4.08189v -10.1272h 2.04094v 11.3931h 2.04094v -36.7112h 2.04094v 26.584h 2.04094v -8.86132h 2.04094v 2.53181h 2.04094v -18.9886h 2.04094v -11.3931h 2.04094v -21.5204h 2.04094v 17.7226h 2.04094v -15.1908h 2.04094v 2.53181h 2.04094v -6.32952h
 2.04094v -15.1908h 2.04094v -2.53181h 2.04094v 1.2659h 2.04094v -13.9249h 2.04094v -2.53181h 2.04094v -1.2659h 2.04094v 13.9249h 2.04094v -50.6361h 2.04094v 20.2545h 2.04094v 13.9249h 2.04094v 2.53181h 2.04094v -12.659h 2.04094v -29.1158h 2.04094v
 -7.59542h 2.04094v 27.8499h 2.04094v -8.86132h 2.04094v 26.584h 2.04094v -31.6476h 2.04094v 7.59542h 2.04094v -1.2659h 2.04094v -18.9886h 2.04094v 46.8384h 2.04094v 12.659h 2.04094v -2.53181h 2.04094v 5.06361h 2.04094v -11.3931h 2.04094v 10.1272h
 2.04094v -11.3931h 2.04094v 18.9886h 2.04094v 25.3181h 2.04094v -25.3181h 2.04094v 24.0522h 2.04094v -16.4567h 2.04094v 32.9135h 2.04094v -17.7226h 2.04094v 18.9886h 2.04094v -2.53181h 2.04094v -10.1272h 2.04094v 31.6476h 2.04094v 10.1272h 2.04094v
 -6.32952h 2.04094v 2.53181h 2.04094v 18.9886h 2.04094v -2.53181h 2.04094v 5.06361h 2.04094v -6.32952h 2.04094v 21.5204h 2.04094v 5.06361h 2.04094v -24.0522h 2.04094v 16.4567h 2.04094v 3.79771h 2.04094v 15.1908h 2.04094v -11.3931h 2.04094v 10.1272h
 2.04094v 5.06361h 2.04094v 10.1272h 2.04094v -3.79771h 2.04094v -3.79771h 2.04094v 2.53181h 4.08189v 6.32952h 2.04094v -2.53181h 2.04094v -1.2659h 2.04094v 3.79771h 2.04094v -3.79771h 2.04094v -8.86132h 2.04094v 11.3931h 2.04094v 5.06361h 2.04094v
 -3.79771h 2.04094v -7.59542h 2.04094v 10.1272h 2.04094v -6.32952h 2.04094v 5.06361h 2.04094v -1.2659h 2.04094v 7.59542h 2.04094v -6.32952h 2.04094v -1.2659h 2.04094v -8.86132h 2.04094v 12.659h 2.04094v 1.2659h 2.04094v -8.86132h 2.04094v 5.06361h
 2.04094v -1.2659h 2.04094v 2.53181h 2.04094v -2.53181h 2.04094v -3.79771h 2.04094v 5.06361h 2.04094v 1.2659h 2.04094v -5.06361h 2.04094v 2.53181h 2.04094v -1.2659h 2.04094v 6.32952h 2.04094v -5.06361h 4.08189v 7.59542h 2.04094v -5.06361h 2.04094v
 -6.32952h 2.04094v 2.53181h 2.04094v 5.06361h 2.04094v 2.53181h 2.04094v -3.79771h 2.04094v 2.53181h 2.04094v -3.79771h 2.04094v 5.06361h 2.04094v -2.53181h 2.04094v 3.79771h 4.08189v -7.59542h 2.04094v 2.53181h 2.04094v 6.32952h 2.04094v -2.53181h
 2.04094v 1.2659h 2.04094v 2.53181h 2.04094v -1.2659h 2.04094v 1.2659h 2.04094v -1.2659h 2.04094v 2.53181h 6.12283v -2.53181h 2.04094v 2.53181h 4.08189v -3.79771h 2.04094v 1.2659h 2.04094v 1.2659h 2.04094v -3.79771h 2.04094v 2.53181h 2.04094v
 2.53181h 2.04094v -3.79771h 2.04094v -5.06361h 2.04094" fill="none" stroke="#000099"/>
<rect x="426.831" y="409.127" width="102.047" height="45.4586" fill="white"/>
<path d="M426.831,454.586h 102.047" fill="none" stroke="black"/>
<path d="M528.878,454.586v -45.4586" fill="none" stroke="black"/>
<path d="M528.878,409.127h -102.047" fill="none" stroke="black"/>
<path d="M426.831,409.127v 45.4586" fill="none" stroke="black"/>
<text xml:space="preserve" x="470.497" y="418.68" fill="black" font-size="10.0922" font-family="Helvetica">h1f
</text>
<path d="M426.831,420.492h 102.047" fill="none" stroke="black"/>
<text xml:space="preserve" x="432.213" y="429.27" fill="black" font-size="8.76276" font-family="Helvetica">Entries 
</text>
<text xml:space="preserve" x="498.192" y="429.27" fill="black" font-size="8.76276" font-family="Helvetica"> 10000
</text>
<text xml:space="preserve" x="432.213" y="440.673" fill="black" font-size="8.76276" font-family="Helvetica">Mean  
</text>
<text xml:space="preserve" x="498.192" y="440.673" fill="black" font-size="8.76276" font-family="Helvetica">  3.646
</text>
<text xml:space="preserve" x="432.213" y="452.077" fill="black" font-size="8.76276" font-family="Helvetica">Std Dev   
</text>
<text xml:space="preserve" x="500.636" y="452.077" fill="black" font-size="8.76276" font-family="Helvetica">   1.84
</text>
<path d="M79.8701,646.364h 408.189" fill="none" stroke="black"/>
<path d="M79.8701,639.546v 6.81879" fill="none" stroke="black"/>
<path d="M88.0339,642.955v 3.40939" fill="none" stroke="black"/>
<path d="M96.1976,642.955v 3.40939" fill="none" stroke="black"/>
<path d="M104.361,642.955v 3.40939" fill="none" stroke="black"/>
<path d="M112.525,642.955v 3.40939" fill="none" stroke="black"/>
<path d="M120.689,639.546v 6.81879" fill="none" stroke="black"/>
<path d="M128.853,642.955v 3.40939" fill="none" stroke="black"/>
<path d="M137.017,642.955v 3.40939" fill="none" stroke="black"/>
<path d="M145.18,642.955v 3.40939" fill="none" stroke="black"/>
<path d="M153.344,642.955v 3.40939" fill="none" stroke="black"/>
<path d="M161.508,639.546v 6.81879" fill="none" stroke="black"/>
<path d="M169.672,642.955v 3.40939" fill="none" stroke="black"/>
<path d="M177.835,642.955v 3.40939" fill="none" stroke="black"/>
<path d="M185.999,642.955v 3.40939" fill="none" stroke="black"/>
<path d="M194.163,642.955v 3.40939" fill="none" stroke="black"/>
<path d="M202.327,639.546v 6.81879" fill="none" stroke="black"/>
<path d="M210.491,642.955v 3.40939" fill="none" stroke="black"/>
<path d="M218.654,642.955v 3.40939" fill="none" stroke="black"/>
<path d="M226.818,642.955v 3.40939" fill="none" stroke="black"/>
<path d="M234.982,642.955v 3.40939" fill="none" stroke="black"/>
<path d="M243.146,639.546v 6.81879" fill="none" stroke="black"/>
<path d="M251.309,642.955v 3.40939" fill="none" stroke="black"/>
<path d="M259.473,642.955v 3.40939" fill="none" stroke="black"/>
<path d="M267.637,642.955v 3.40939" fill="none" stroke="black"/>
<path d="M275.801,642.955v 3.40939" fill="none" stroke="black"/>
<path d="M283.965,639.546v 6.81879" fill="none" stroke="black"/>
<path d="M292.128,642.955v 3.40939" fill="none" stroke="black"/>
<path d="M300.292,642.955v 3.40939" fill="none" stroke="black"/>
<path d="M308.456,642.955v 3.40939" fill="none" stroke="black"/>
<path d="M316.62,642.955v 3.40939" fill="none" stroke="black"/>
<path d="M324.783,639.546v 6.81879" fill="none" stroke="black"/>
<path d="M332.947,642.955v 3.40939" fill="none" stroke="black"/>
<path d="M341.111,642.955v 3.40939" fill="none" stroke="black"/>
<path d="M349.275,642.955v 3.40939" fill="none" stroke="black"/>
<path d="M357.439,642.955v 3.40939" fill="none" stroke="black"/>
<path d="M365.602,639.546v 6.81879" fill="none" stroke="black"/>
<path d="M373.766,642.955v 3.40939" fill="none" stroke="black"/>
<path d="M381.93,642.955v 3.40939" fill="none" stroke="black"/>
<path d="M390.094,642.955v 3.40939" fill="none" stroke="black"/>
<path d="M398.257,642.955v 3.40939" fill="none" stroke="black"/>
<path d="M406.421,639.546v 6.81879" fill="none" stroke="black"/>
<path d="M414.585,642.955v 3.40939" fill="none" stroke="black"/>
<path d="M422.749,642.955v 3.40939" fill="none" stroke="black"/>
<path d="M430.913,642.955v 3.40939" fill="none" stroke="black"/>
<path d="M439.076,642.955v 3.40939" fill="none" stroke="black"/>
<path d="M447.24,639.546v 6.81879" fill="none" stroke="black"/>
<path d="M455.404,642.955v 3.40939" fill="none" stroke="black"/>
<path d="M463.568,642.955v 3.40939" fill="none" stroke="black"/>
<path d="M471.732,642.955v 3.40939" fill="none" stroke="black"/>
<path d="M479.895,642.955v 3.40939" fill="none" stroke="black"/>
<path d="M488.059,639.546v 6.81879" fill="none" stroke="black"/>
<path d="M488.059,639.546v 6.81879" fill="none" stroke="black"/>
<text xml:space="preserve" x="77.068" y="655.715" fill="black" font-size="9.623" font-family="Helvetica">0
</text>
<text xml:space="preserve" x="119.425" y="655.715" fill="black" font-size="9.623" font-family="Helvetica">1
</text>
<text xml:space="preserve" x="159.338" y="655.715" fill="black" font-size="9.623" font-family="Helvetica">2
</text>
<text xml:space="preserve" x="200.066" y="655.715" fill="black" font-size="9.623" font-family="Helvetica">3
</text>
<text xml:space="preserve" x="240.793" y="655.715" fill="black" font-size="9.623" font-family="Helvetica">4
</text>
<text xml:space="preserve" x="281.521" y="655.715" fill="black" font-size="9.623" font-family="Helvetica">5
</text>
<text xml:space="preserve" x="322.249" y="655.715" fill="black" font-size="9.623" font-family="Helvetica">6
</text>
<text xml:space="preserve" x="362.976" y="655.715" fill="black" font-size="9.623" font-family="Helvetica">7
</text>
<text xml:space="preserve" x="403.704" y="655.715" fill="black" font-size="9.623" font-family="Helvetica">8
</text>
<text xml:space="preserve" x="444.432" y="655.715" fill="black" font-size="9.623" font-family="Helvetica">9
</text>
<text xml:space="preserve" x="483.53" y="655.715" fill="black" font-size="9.623" font-family="Helvetica">10
</text>
<path d="M79.8701,646.364v -227.293" fill="none" stroke="black"/>
<path d="M92.1158,646.364h -12.2457" fill="none" stroke="black"/>
<path d="M85.9929,640.035h -6.12283" fill="none" stroke="black"/>
<path d="M85.9929,633.705h -6.12283" fill="none" stroke="black"/>
<path d="M85.9929,627.376h -6.12283" fill="none" stroke="black"/>
<path d="M92.1158,621.046h -12.2457" fill="none" stroke="black"/>
<path d="M85.9929,614.717h -6.12283" fill="none" stroke="black"/>
<path d="M85.9929,608.387h -6.12283" fill="none" stroke="black"/>
<path d="M85.9929,602.058h -6.12283" fill="none" stroke="black"/>
<path d="M92.1158,595.728h -12.2457" fill="none" stroke="black"/>
<path d="M85.9929,589.399h -6.12283" fill="none" stroke="black"/>
<path d="M85.9929,583.069h -6.12283" fill="none" stroke="black"/>
<path d="M85.9929,576.74h -6.12283" fill="none" stroke="black"/>
<path d="M92.1158,570.41h -12.2457" fill="none" stroke="black"/>
<path d="M85.9929,564.081h -6.12283" fill="none" stroke="black"/>
<path d="M85.9929,557.751h -6.12283" fill="none" stroke="black"/>
<path d="M85.9929,551.422h -6.12283" fill="none" stroke="black"/>
<path d="M92.1158,545.092h -12.2457" fill="none" stroke="black"/>
<path d="M85.9929,538.763h -6.12283" fill="none" stroke="black"/>
<path d="M85.9929,532.433h -6.12283" fill="none" stroke="black"/>
<path d="M85.9929,526.104h -6.12283" fill="none" stroke="black"/>
<path d="M92.1158,519.774h -12.2457" fill="none" stroke="black"/>
<path d="M85.9929,513.445h -6.12283" fill="none" stroke="black"/>
<path d="M85.9929,507.115h -6.12283" fill="none" stroke="black"/>
<path d="M85.9929,500.785h -6.12283" fill="none" stroke="black"/>
<path d="M92.1158,494.456h -12.2457" fill="none" stroke="black"/>
<path d="M85.9929,488.126h -6.12283" fill="none" stroke="black"/>
<path d="M85.9929,481.797h -6.12283" fill="none" stroke="black"/>
<path d="M85.9929,475.467h -6.12283" fill="none" stroke="black"/>
<path d="M92.1158,469.138h -12.2457" fill="none" stroke="black"/>
<path d="M85.9929,462.808h -6.12283" fill="none" stroke="black"/>
<path d="M85.9929,456.479h -6.12283" fill="none" stroke="black"/>
<path d="M85.9929,450.149h -6.12283" fill="none" stroke="black"/>
<path d="M92.1158,443.82h -12.2457" fill="none" stroke="black"/>
<path d="M92.1158,443.82h -12.2457" fill="none" stroke="black"/>
<path d="M85.9929,437.49h -6.12283" fill="none" stroke="black"/>
<path d="M85.9929,431.161h -6.12283" fill="none" stroke="black"/>
<path d="M85.9929,424.831h -6.12283" fill="none" stroke="black"/>
<text xml:space="preserve" x="72.1807" y="650.014" fill="black" font-size="9.623" font-family="Helvetica">0
</text>
<text xml:space="preserve" x="67.2934" y="623.948" fill="black" font-size="9.623" font-family="Helvetica">20
</text>
<text xml:space="preserve" x="67.2934" y="598.697" fill="black" font-size="9.623" font-family="Helvetica">40
</text>
<text xml:space="preserve" x="67.2934" y="573.446" fill="black" font-size="9.623" font-family="Helvetica">60
</text>
<text xml:space="preserve" x="67.2934" y="548.194" fill="black" font-size="9.623" font-family="Helvetica">80
</text>
<text xml:space="preserve" x="62.4061" y="522.943" fill="black" font-size="9.623" font-family="Helvetica">100
</text>
<text xml:space="preserve" x="62.4061" y="497.692" fill="black" font-size="9.623" font-family="Helvetica">120
</text>
<text xml:space="preserve" x="62.4061" y="472.441" fill="black" font-size="9.623" font-family="Helvetica">140
</text>
<text xml:space="preserve" x="62.4061" y="447.19" fill="black" font-size="9.623" font-family="Helvetica">160
</text>
<rect x="426.831" y="409.127" width="102.047" height="45.4586" fill="white"/>
<path d="M426.831,454.586h 102.047" fill="none" stroke="black"/>
<path d="M528.878,454.586v -45.4586" fill="none" stroke="black"/>
<path d="M528.878,409.127h -102.047" fill="none" stroke="black"/>
<path d="M426.831,409.127v 45.4586" fill="none" stroke="black"/>
<text xml:space="preserve" x="470.497" y="418.68" fill="black" font-size="10.0922" font-family="Helvetica">h1f
</text>
<path d="M426.831,420.492h 102.047" fill="none" stroke="black"/>
<text xml:space="preserve" x="432.213" y="429.27" fill="black" font-size="8.76276" font-family="Helvetica">Entries 
</text>
<text xml:space="preserve" x="498.192" y="429.27" fill="black" font-size="8.76276" font-family="Helvetica"> 10000
</text>
<text xml:space="preserve" x="432.213" y="440.673" fill="black" font-size="8.76276" font-family="Helvetica">Mean  
</text>
<text xml:space="preserve" x="498.192" y="440.673" fill="black" font-size="8.76276" font-family="Helvetica">  3.646
</text>
<text xml:space="preserve" x="432.213" y="452.077" fill="black" font-size="8.76276" font-family="Helvetica">Std Dev   
</text>
<text xml:space="preserve" x="500.636" y="452.077" fill="black" font-size="8.76276" font-family="Helvetica">   1.84
</text>
<text xml:space="preserve" x="223.688" y="404.833" fill="black" font-size="12.6857" font-family="Helvetica">Test random numbers
</text></svg>
