<?xml version="1.0" standalone="no"?>
<svg width="567.429" height="265.447" viewBox="0 0 567.429 265.447" xmlns="http://www.w3.org/2000/svg" shape-rendering="crispEdges">
<title>
./old_svg_ref/gaxis3.svg
</title>
<desc>
Creator: ROOT Version 6.33/01
CreationDate: Tue Jun  4 11:54:52 2024</desc>
<defs>
</defs>
<rect x="0.5" y="0" width="566.929" height="264.947" fill="white"/>
<path d="M24.122,132.473h 519.685" fill="none" stroke="black"/>
<path d="M24.122,125.187v 7.28604" fill="none" stroke="black"/>
<path d="M34.5157,128.83v 3.64302" fill="none" stroke="black"/>
<path d="M44.9095,128.83v 3.64302" fill="none" stroke="black"/>
<path d="M55.3032,128.83v 3.64302" fill="none" stroke="black"/>
<path d="M65.6969,128.83v 3.64302" fill="none" stroke="black"/>
<path d="M76.0906,125.187v 7.28604" fill="none" stroke="black"/>
<path d="M86.4843,128.83v 3.64302" fill="none" stroke="black"/>
<path d="M96.878,128.83v 3.64302" fill="none" stroke="black"/>
<path d="M107.272,128.83v 3.64302" fill="none" stroke="black"/>
<path d="M117.665,128.83v 3.64302" fill="none" stroke="black"/>
<path d="M128.059,125.187v 7.28604" fill="none" stroke="black"/>
<path d="M138.453,128.83v 3.64302" fill="none" stroke="black"/>
<path d="M148.846,128.83v 3.64302" fill="none" stroke="black"/>
<path d="M159.24,128.83v 3.64302" fill="none" stroke="black"/>
<path d="M169.634,128.83v 3.64302" fill="none" stroke="black"/>
<path d="M180.028,125.187v 7.28604" fill="none" stroke="black"/>
<path d="M190.421,128.83v 3.64302" fill="none" stroke="black"/>
<path d="M200.815,128.83v 3.64302" fill="none" stroke="black"/>
<path d="M211.209,128.83v 3.64302" fill="none" stroke="black"/>
<path d="M221.602,128.83v 3.64302" fill="none" stroke="black"/>
<path d="M231.996,125.187v 7.28604" fill="none" stroke="black"/>
<path d="M242.39,128.83v 3.64302" fill="none" stroke="black"/>
<path d="M252.783,128.83v 3.64302" fill="none" stroke="black"/>
<path d="M263.177,128.83v 3.64302" fill="none" stroke="black"/>
<path d="M273.571,128.83v 3.64302" fill="none" stroke="black"/>
<path d="M283.965,125.187v 7.28604" fill="none" stroke="black"/>
<path d="M294.358,128.83v 3.64302" fill="none" stroke="black"/>
<path d="M304.752,128.83v 3.64302" fill="none" stroke="black"/>
<path d="M315.146,128.83v 3.64302" fill="none" stroke="black"/>
<path d="M325.539,128.83v 3.64302" fill="none" stroke="black"/>
<path d="M335.933,125.187v 7.28604" fill="none" stroke="black"/>
<path d="M346.327,128.83v 3.64302" fill="none" stroke="black"/>
<path d="M356.72,128.83v 3.64302" fill="none" stroke="black"/>
<path d="M367.114,128.83v 3.64302" fill="none" stroke="black"/>
<path d="M377.508,128.83v 3.64302" fill="none" stroke="black"/>
<path d="M387.902,125.187v 7.28604" fill="none" stroke="black"/>
<path d="M398.295,128.83v 3.64302" fill="none" stroke="black"/>
<path d="M408.689,128.83v 3.64302" fill="none" stroke="black"/>
<path d="M419.083,128.83v 3.64302" fill="none" stroke="black"/>
<path d="M429.476,128.83v 3.64302" fill="none" stroke="black"/>
<path d="M439.87,125.187v 7.28604" fill="none" stroke="black"/>
<path d="M450.264,128.83v 3.64302" fill="none" stroke="black"/>
<path d="M460.657,128.83v 3.64302" fill="none" stroke="black"/>
<path d="M471.051,128.83v 3.64302" fill="none" stroke="black"/>
<path d="M481.445,128.83v 3.64302" fill="none" stroke="black"/>
<path d="M491.839,125.187v 7.28604" fill="none" stroke="black"/>
<path d="M502.232,128.83v 3.64302" fill="none" stroke="black"/>
<path d="M512.626,128.83v 3.64302" fill="none" stroke="black"/>
<path d="M523.02,128.83v 3.64302" fill="none" stroke="black"/>
<path d="M533.413,128.83v 3.64302" fill="none" stroke="black"/>
<path d="M543.807,125.187v 7.28604" fill="none" stroke="black"/>
<text xml:space="preserve" x="21.1545" y="142.445" fill="#ff0000" font-size="10.2228" font-family="Helvetica" font-weight="bold">0
</text>
<text xml:space="preserve" x="70.2978" y="142.445" fill="black" font-size="10.2228" font-family="Helvetica" font-weight="bold">10
</text>
<text xml:space="preserve" x="154.34" y="142.445" fill="#0000ff" font-size="10.2228" font-family="Helvetica" font-weight="bold">value of 30
</text>
<g transform="rotate(-30,226.987,145.293)">
<text xml:space="preserve" x="226.987" y="145.293" fill="black" font-size="10.2228" font-family="Helvetica" font-weight="bold">40
</text>
</g>
<text xml:space="preserve" x="264.022" y="142.445" fill="#00ff00" font-size="10.2228" font-family="Helvetica" font-weight="bold">6th label
</text>
<text xml:space="preserve" x="330.259" y="142.445" fill="black" font-size="10.2228" font-family="Helvetica" font-weight="bold">60
</text>
<text xml:space="preserve" x="382.251" y="142.445" fill="black" font-size="10.2228" font-family="Helvetica" font-weight="bold">70
</text>
<text xml:space="preserve" x="434.244" y="142.445" fill="black" font-size="10.2228" font-family="Helvetica" font-weight="bold">80
</text>
<text xml:space="preserve" x="454.186" y="142.445" fill="#00ff00" font-size="10.2228" font-family="Helvetica" font-weight="bold">2nd to last label
</text>
<text xml:space="preserve" x="535.379" y="142.445" fill="black" font-size="10.2228" font-family="Helvetica" font-weight="bold">100
</text>
<text xml:space="preserve" x="494.782" y="158.826" fill="#0000ff" font-size="12.6535" font-family="Helvetica">Axis Title
</text></svg>
