<?xml version="1.0" standalone="no"?>
<svg width="567.429" height="384.969" viewBox="0 0 567.429 384.969" xmlns="http://www.w3.org/2000/svg" shape-rendering="crispEdges">
<title>
./old_svg_ref/gerrors2.svg
</title>
<desc>
Creator: ROOT Version 6.33.01
CreationDate: Wed Jul 10 09:56:42 2024</desc>
<defs>
</defs>
<rect x="0.5" y="0" width="566.929" height="384.469" fill="white"/>
<rect x="91.2087" y="19.2235" width="447.874" height="303.731" fill="white"/>
<rect x="91.2087" y="19.2235" width="447.874" height="303.731" fill="none" stroke="black"/>
<rect x="91.2087" y="19.2235" width="447.874" height="303.731" fill="white"/>
<rect x="91.2087" y="19.2235" width="447.874" height="303.731" fill="none" stroke="black"/>
<path d="M91.2087,322.954h 447.874" fill="none" stroke="black"/>
<path d="M91.2087,19.2235v 303.731" fill="none" stroke="black" stroke-dasharray=" 1, 2"/>
<path d="M147.193,19.2235v 303.731" fill="none" stroke="black" stroke-dasharray=" 1, 2"/>
<path d="M203.177,19.2235v 303.731" fill="none" stroke="black" stroke-dasharray=" 1, 2"/>
<path d="M259.161,19.2235v 303.731" fill="none" stroke="black" stroke-dasharray=" 1, 2"/>
<path d="M315.146,19.2235v 303.731" fill="none" stroke="black" stroke-dasharray=" 1, 2"/>
<path d="M371.13,19.2235v 303.731" fill="none" stroke="black" stroke-dasharray=" 1, 2"/>
<path d="M427.114,19.2235v 303.731" fill="none" stroke="black" stroke-dasharray=" 1, 2"/>
<path d="M483.098,19.2235v 303.731" fill="none" stroke="black" stroke-dasharray=" 1, 2"/>
<path d="M539.083,19.2235v 303.731" fill="none" stroke="black" stroke-dasharray=" 1, 2"/>
<path d="M91.2087,19.2235v 303.731" fill="none" stroke="black" stroke-dasharray=" 1, 2"/>
<path d="M539.083,19.2235v 303.731" fill="none" stroke="black" stroke-dasharray=" 1, 2"/>
<path d="M91.2087,19.2235h 447.874" fill="none" stroke="black"/>
<path d="M91.2087,322.954v -303.731" fill="none" stroke="black"/>
<path d="M539.083,322.954h -447.874" fill="none" stroke="black" stroke-dasharray=" 1, 2"/>
<path d="M539.083,272.332h -447.874" fill="none" stroke="black" stroke-dasharray=" 1, 2"/>
<path d="M539.083,221.711h -447.874" fill="none" stroke="black" stroke-dasharray=" 1, 2"/>
<path d="M539.083,171.089h -447.874" fill="none" stroke="black" stroke-dasharray=" 1, 2"/>
<path d="M539.083,120.467h -447.874" fill="none" stroke="black" stroke-dasharray=" 1, 2"/>
<path d="M539.083,69.8452h -447.874" fill="none" stroke="black" stroke-dasharray=" 1, 2"/>
<path d="M539.083,19.2235h -447.874" fill="none" stroke="black" stroke-dasharray=" 1, 2"/>
<path d="M539.083,322.954v -303.731" fill="none" stroke="black"/>
<path d="M91.2087,322.954h 447.874" fill="none" stroke="black"/>
<path d="M91.2087,313.842v 9.11192" fill="none" stroke="black"/>
<path d="M105.205,318.398v 4.55596" fill="none" stroke="black"/>
<path d="M119.201,318.398v 4.55596" fill="none" stroke="black"/>
<path d="M133.197,318.398v 4.55596" fill="none" stroke="black"/>
<path d="M147.193,313.842v 9.11192" fill="none" stroke="black"/>
<path d="M161.189,318.398v 4.55596" fill="none" stroke="black"/>
<path d="M175.185,318.398v 4.55596" fill="none" stroke="black"/>
<path d="M189.181,318.398v 4.55596" fill="none" stroke="black"/>
<path d="M203.177,313.842v 9.11192" fill="none" stroke="black"/>
<path d="M217.173,318.398v 4.55596" fill="none" stroke="black"/>
<path d="M231.169,318.398v 4.55596" fill="none" stroke="black"/>
<path d="M245.165,318.398v 4.55596" fill="none" stroke="black"/>
<path d="M259.161,313.842v 9.11192" fill="none" stroke="black"/>
<path d="M273.157,318.398v 4.55596" fill="none" stroke="black"/>
<path d="M287.154,318.398v 4.55596" fill="none" stroke="black"/>
<path d="M301.15,318.398v 4.55596" fill="none" stroke="black"/>
<path d="M315.146,313.842v 9.11192" fill="none" stroke="black"/>
<path d="M329.142,318.398v 4.55596" fill="none" stroke="black"/>
<path d="M343.138,318.398v 4.55596" fill="none" stroke="black"/>
<path d="M357.134,318.398v 4.55596" fill="none" stroke="black"/>
<path d="M371.13,313.842v 9.11192" fill="none" stroke="black"/>
<path d="M385.126,318.398v 4.55596" fill="none" stroke="black"/>
<path d="M399.122,318.398v 4.55596" fill="none" stroke="black"/>
<path d="M413.118,318.398v 4.55596" fill="none" stroke="black"/>
<path d="M427.114,313.842v 9.11192" fill="none" stroke="black"/>
<path d="M441.11,318.398v 4.55596" fill="none" stroke="black"/>
<path d="M455.106,318.398v 4.55596" fill="none" stroke="black"/>
<path d="M469.102,318.398v 4.55596" fill="none" stroke="black"/>
<path d="M483.098,313.842v 9.11192" fill="none" stroke="black"/>
<path d="M497.094,318.398v 4.55596" fill="none" stroke="black"/>
<path d="M511.091,318.398v 4.55596" fill="none" stroke="black"/>
<path d="M525.087,318.398v 4.55596" fill="none" stroke="black"/>
<path d="M539.083,313.842v 9.11192" fill="none" stroke="black"/>
<path d="M91.2087,313.842v 9.11192" fill="none" stroke="black"/>
<path d="M539.083,313.842v 9.11192" fill="none" stroke="black"/>
<text xml:space="preserve" x="82.7699" y="340.483" fill="black" font-size="18.1362" font-family="Helvetica">0.4
</text>
<text xml:space="preserve" x="73.8098" y="340.483" fill="black" font-size="18.1362" font-family="Times">&#8722;
</text>
<text xml:space="preserve" x="138.974" y="340.483" fill="black" font-size="18.1362" font-family="Helvetica">0.2
</text>
<text xml:space="preserve" x="130.014" y="340.483" fill="black" font-size="18.1362" font-family="Times">&#8722;
</text>
<text xml:space="preserve" x="198.436" y="340.483" fill="black" font-size="18.1362" font-family="Helvetica">0
</text>
<text xml:space="preserve" x="247.31" y="340.483" fill="black" font-size="18.1362" font-family="Helvetica">0.2
</text>
<text xml:space="preserve" x="302.699" y="340.483" fill="black" font-size="18.1362" font-family="Helvetica">0.4
</text>
<text xml:space="preserve" x="358.903" y="340.483" fill="black" font-size="18.1362" font-family="Helvetica">0.6
</text>
<text xml:space="preserve" x="415.108" y="340.483" fill="black" font-size="18.1362" font-family="Helvetica">0.8
</text>
<text xml:space="preserve" x="479.457" y="340.483" fill="black" font-size="18.1362" font-family="Helvetica">1
</text>
<text xml:space="preserve" x="526.701" y="340.483" fill="black" font-size="18.1362" font-family="Helvetica">1.2
</text>
<text xml:space="preserve" x="494.119" y="373.065" fill="black" font-size="18.1362" font-family="Helvetica">X title
</text>
<path d="M91.2087,19.2235h 447.874" fill="none" stroke="black"/>
<path d="M91.2087,28.3354v -9.11192" fill="none" stroke="black"/>
<path d="M105.205,23.7794v -4.55596" fill="none" stroke="black"/>
<path d="M119.201,23.7794v -4.55596" fill="none" stroke="black"/>
<path d="M133.197,23.7794v -4.55596" fill="none" stroke="black"/>
<path d="M147.193,28.3354v -9.11192" fill="none" stroke="black"/>
<path d="M161.189,23.7794v -4.55596" fill="none" stroke="black"/>
<path d="M175.185,23.7794v -4.55596" fill="none" stroke="black"/>
<path d="M189.181,23.7794v -4.55596" fill="none" stroke="black"/>
<path d="M203.177,28.3354v -9.11192" fill="none" stroke="black"/>
<path d="M217.173,23.7794v -4.55596" fill="none" stroke="black"/>
<path d="M231.169,23.7794v -4.55596" fill="none" stroke="black"/>
<path d="M245.165,23.7794v -4.55596" fill="none" stroke="black"/>
<path d="M259.161,28.3354v -9.11192" fill="none" stroke="black"/>
<path d="M273.157,23.7794v -4.55596" fill="none" stroke="black"/>
<path d="M287.154,23.7794v -4.55596" fill="none" stroke="black"/>
<path d="M301.15,23.7794v -4.55596" fill="none" stroke="black"/>
<path d="M315.146,28.3354v -9.11192" fill="none" stroke="black"/>
<path d="M329.142,23.7794v -4.55596" fill="none" stroke="black"/>
<path d="M343.138,23.7794v -4.55596" fill="none" stroke="black"/>
<path d="M357.134,23.7794v -4.55596" fill="none" stroke="black"/>
<path d="M371.13,28.3354v -9.11192" fill="none" stroke="black"/>
<path d="M385.126,23.7794v -4.55596" fill="none" stroke="black"/>
<path d="M399.122,23.7794v -4.55596" fill="none" stroke="black"/>
<path d="M413.118,23.7794v -4.55596" fill="none" stroke="black"/>
<path d="M427.114,28.3354v -9.11192" fill="none" stroke="black"/>
<path d="M441.11,23.7794v -4.55596" fill="none" stroke="black"/>
<path d="M455.106,23.7794v -4.55596" fill="none" stroke="black"/>
<path d="M469.102,23.7794v -4.55596" fill="none" stroke="black"/>
<path d="M483.098,28.3354v -9.11192" fill="none" stroke="black"/>
<path d="M497.094,23.7794v -4.55596" fill="none" stroke="black"/>
<path d="M511.091,23.7794v -4.55596" fill="none" stroke="black"/>
<path d="M525.087,23.7794v -4.55596" fill="none" stroke="black"/>
<path d="M539.083,28.3354v -9.11192" fill="none" stroke="black"/>
<path d="M91.2087,28.3354v -9.11192" fill="none" stroke="black"/>
<path d="M539.083,28.3354v -9.11192" fill="none" stroke="black"/>
<path d="M91.2087,322.954v -303.731" fill="none" stroke="black"/>
<path d="M104.645,322.954h -13.4362" fill="none" stroke="black"/>
<path d="M97.9268,310.299h -6.71811" fill="none" stroke="black"/>
<path d="M97.9268,297.643h -6.71811" fill="none" stroke="black"/>
<path d="M97.9268,284.988h -6.71811" fill="none" stroke="black"/>
<path d="M104.645,272.332h -13.4362" fill="none" stroke="black"/>
<path d="M97.9268,259.677h -6.71811" fill="none" stroke="black"/>
<path d="M97.9268,247.021h -6.71811" fill="none" stroke="black"/>
<path d="M97.9268,234.366h -6.71811" fill="none" stroke="black"/>
<path d="M104.645,221.711h -13.4362" fill="none" stroke="black"/>
<path d="M97.9268,209.055h -6.71811" fill="none" stroke="black"/>
<path d="M97.9268,196.4h -6.71811" fill="none" stroke="black"/>
<path d="M97.9268,183.744h -6.71811" fill="none" stroke="black"/>
<path d="M104.645,171.089h -13.4362" fill="none" stroke="black"/>
<path d="M97.9268,158.433h -6.71811" fill="none" stroke="black"/>
<path d="M97.9268,145.778h -6.71811" fill="none" stroke="black"/>
<path d="M97.9268,133.122h -6.71811" fill="none" stroke="black"/>
<path d="M104.645,120.467h -13.4362" fill="none" stroke="black"/>
<path d="M97.9268,107.812h -6.71811" fill="none" stroke="black"/>
<path d="M97.9268,95.1561h -6.71811" fill="none" stroke="black"/>
<path d="M97.9268,82.5007h -6.71811" fill="none" stroke="black"/>
<path d="M104.645,69.8452h -13.4362" fill="none" stroke="black"/>
<path d="M97.9268,57.1898h -6.71811" fill="none" stroke="black"/>
<path d="M97.9268,44.5343h -6.71811" fill="none" stroke="black"/>
<path d="M97.9268,31.8789h -6.71811" fill="none" stroke="black"/>
<path d="M104.645,19.2235h -13.4362" fill="none" stroke="black"/>
<text xml:space="preserve" x="78.6971" y="329.08" fill="black" font-size="18.1362" font-family="Helvetica">0
</text>
<text xml:space="preserve" x="78.6971" y="279.392" fill="black" font-size="18.1362" font-family="Helvetica">2
</text>
<text xml:space="preserve" x="78.6971" y="228.889" fill="black" font-size="18.1362" font-family="Helvetica">4
</text>
<text xml:space="preserve" x="78.6971" y="177.573" fill="black" font-size="18.1362" font-family="Helvetica">6
</text>
<text xml:space="preserve" x="78.6971" y="127.07" fill="black" font-size="18.1362" font-family="Helvetica">8
</text>
<text xml:space="preserve" x="68.9225" y="76.568" fill="black" font-size="18.1362" font-family="Helvetica">10
</text>
<text xml:space="preserve" x="68.9225" y="26.8803" fill="black" font-size="18.1362" font-family="Helvetica">12
</text>
<g transform="rotate(-90,34.7112,64.3497)">
<text xml:space="preserve" x="34.7112" y="64.3497" fill="black" font-size="18.1362" font-family="Helvetica">Y title
</text>
</g>
<path d="M539.083,322.954v -303.731" fill="none" stroke="black"/>
<path d="M525.646,322.954h 13.4362" fill="none" stroke="black"/>
<path d="M532.365,310.299h 6.71811" fill="none" stroke="black"/>
<path d="M532.365,297.643h 6.71811" fill="none" stroke="black"/>
<path d="M532.365,284.988h 6.71811" fill="none" stroke="black"/>
<path d="M525.646,272.332h 13.4362" fill="none" stroke="black"/>
<path d="M532.365,259.677h 6.71811" fill="none" stroke="black"/>
<path d="M532.365,247.021h 6.71811" fill="none" stroke="black"/>
<path d="M532.365,234.366h 6.71811" fill="none" stroke="black"/>
<path d="M525.646,221.711h 13.4362" fill="none" stroke="black"/>
<path d="M532.365,209.055h 6.71811" fill="none" stroke="black"/>
<path d="M532.365,196.4h 6.71811" fill="none" stroke="black"/>
<path d="M532.365,183.744h 6.71811" fill="none" stroke="black"/>
<path d="M525.646,171.089h 13.4362" fill="none" stroke="black"/>
<path d="M532.365,158.433h 6.71811" fill="none" stroke="black"/>
<path d="M532.365,145.778h 6.71811" fill="none" stroke="black"/>
<path d="M532.365,133.122h 6.71811" fill="none" stroke="black"/>
<path d="M525.646,120.467h 13.4362" fill="none" stroke="black"/>
<path d="M532.365,107.812h 6.71811" fill="none" stroke="black"/>
<path d="M532.365,95.1561h 6.71811" fill="none" stroke="black"/>
<path d="M532.365,82.5007h 6.71811" fill="none" stroke="black"/>
<path d="M525.646,69.8452h 13.4362" fill="none" stroke="black"/>
<path d="M532.365,57.1898h 6.71811" fill="none" stroke="black"/>
<path d="M532.365,44.5343h 6.71811" fill="none" stroke="black"/>
<path d="M532.365,31.8789h 6.71811" fill="none" stroke="black"/>
<path d="M525.646,19.2235h 13.4362" fill="none" stroke="black"/>
<path d="M138.336,297.643h -10.7378" fill="none" stroke="black"/>
<path d="M144.853,297.643h 10.7378" fill="none" stroke="black"/>
<path d="M127.598,297.643z" fill="none" stroke="black"/>
<path d="M155.591,297.643z" fill="none" stroke="black"/>
<path d="M141.594,294.385v -16.9905" fill="none" stroke="black"/>
<path d="M141.594,300.901v 16.9905" fill="none" stroke="black"/>
<path d="M141.594,277.395z" fill="none" stroke="black"/>
<path d="M141.594,317.892z" fill="none" stroke="black"/>
<path d="M213.915,249.553h -24.7339" fill="none" stroke="black"/>
<path d="M220.431,249.553h 24.7339" fill="none" stroke="black"/>
<path d="M189.181,249.553z" fill="none" stroke="black"/>
<path d="M245.165,249.553z" fill="none" stroke="black"/>
<path d="M217.173,246.294v -14.4594" fill="none" stroke="black"/>
<path d="M217.173,252.811v 14.4594" fill="none" stroke="black"/>
<path d="M217.173,231.835z" fill="none" stroke="black"/>
<path d="M217.173,267.27z" fill="none" stroke="black"/>
<path d="M269.899,181.213h -16.3363" fill="none" stroke="black"/>
<path d="M276.416,181.213h 16.3363" fill="none" stroke="black"/>
<path d="M253.563,181.213z" fill="none" stroke="black"/>
<path d="M292.752,181.213z" fill="none" stroke="black"/>
<path d="M273.157,177.955v -11.9283" fill="none" stroke="black"/>
<path d="M273.157,184.471v 11.9283" fill="none" stroke="black"/>
<path d="M273.157,166.027z" fill="none" stroke="black"/>
<path d="M273.157,196.4z" fill="none" stroke="black"/>
<path d="M297.891,135.654h -16.3363" fill="none" stroke="black"/>
<path d="M304.408,135.654h 16.3363" fill="none" stroke="black"/>
<path d="M281.555,135.654z" fill="none" stroke="black"/>
<path d="M320.744,135.654z" fill="none" stroke="black"/>
<path d="M301.15,132.395v -9.39723" fill="none" stroke="black"/>
<path d="M301.15,138.912v 9.39723" fill="none" stroke="black"/>
<path d="M301.15,122.998z" fill="none" stroke="black"/>
<path d="M301.15,148.309z" fill="none" stroke="black"/>
<path d="M339.88,95.1561h -7.93864" fill="none" stroke="black"/>
<path d="M346.396,95.1561h 7.93864" fill="none" stroke="black"/>
<path d="M331.941,95.1561z" fill="none" stroke="black"/>
<path d="M354.335,95.1561z" fill="none" stroke="black"/>
<path d="M343.138,91.8979v -6.86614" fill="none" stroke="black"/>
<path d="M343.138,98.4143v 6.86614" fill="none" stroke="black"/>
<path d="M343.138,85.0318z" fill="none" stroke="black"/>
<path d="M343.138,105.28z" fill="none" stroke="black"/>
<path d="M370.671,79.9696h -10.7378" fill="none" stroke="black"/>
<path d="M377.187,79.9696h 10.7378" fill="none" stroke="black"/>
<path d="M359.933,79.9696z" fill="none" stroke="black"/>
<path d="M387.925,79.9696z" fill="none" stroke="black"/>
<path d="M373.929,76.7114v -6.86614" fill="none" stroke="black"/>
<path d="M373.929,83.2278v 6.86614" fill="none" stroke="black"/>
<path d="M373.929,69.8452z" fill="none" stroke="black"/>
<path d="M373.929,90.0939z" fill="none" stroke="black"/>
<path d="M395.864,102.749h -13.5371" fill="none" stroke="black"/>
<path d="M402.38,102.749h 13.5371" fill="none" stroke="black"/>
<path d="M382.327,102.749z" fill="none" stroke="black"/>
<path d="M415.917,102.749z" fill="none" stroke="black"/>
<path d="M399.122,99.4912v -9.39723" fill="none" stroke="black"/>
<path d="M399.122,106.008v 9.39723" fill="none" stroke="black"/>
<path d="M399.122,90.0939z" fill="none" stroke="black"/>
<path d="M399.122,115.405z" fill="none" stroke="black"/>
<path d="M437.852,163.496h -16.3363" fill="none" stroke="black"/>
<path d="M444.368,163.496h 16.3363" fill="none" stroke="black"/>
<path d="M421.516,163.496z" fill="none" stroke="black"/>
<path d="M460.705,163.496z" fill="none" stroke="black"/>
<path d="M441.11,160.237v -11.9283" fill="none" stroke="black"/>
<path d="M441.11,166.754v 11.9283" fill="none" stroke="black"/>
<path d="M441.11,148.309z" fill="none" stroke="black"/>
<path d="M441.11,178.682z" fill="none" stroke="black"/>
<path d="M449.049,209.055h -19.1355" fill="none" stroke="black"/>
<path d="M455.565,209.055h 19.1355" fill="none" stroke="black"/>
<path d="M429.913,209.055z" fill="none" stroke="black"/>
<path d="M474.701,209.055z" fill="none" stroke="black"/>
<path d="M452.307,205.797v -14.4594" fill="none" stroke="black"/>
<path d="M452.307,212.313v 14.4594" fill="none" stroke="black"/>
<path d="M452.307,191.337z" fill="none" stroke="black"/>
<path d="M452.307,226.773z" fill="none" stroke="black"/>
<path d="M465.844,297.643h -10.7378" fill="none" stroke="black"/>
<path d="M472.361,297.643h 10.7378" fill="none" stroke="black"/>
<path d="M455.106,297.643z" fill="none" stroke="black"/>
<path d="M483.098,297.643z" fill="none" stroke="black"/>
<path d="M469.102,294.385v -16.9905" fill="none" stroke="black"/>
<path d="M469.102,300.901v 16.9905" fill="none" stroke="black"/>
<path d="M469.102,277.395z" fill="none" stroke="black"/>
<path d="M469.102,317.892z" fill="none" stroke="black"/>
<path d="M141.594,297.643l 75.5787, -48.0907l 55.9843, -68.3394l 27.9921, -45.5596l 41.9882, -40.4974l 30.7913, -15.1865l 25.1929, 22.7798l 41.9882, 60.7461l 11.1969, 45.5596l 16.7953, 88.5881" fill="none" stroke="black"/>
<g fill="#0000ff">
<rect x="137.685" y="293.733" width="7.81971" height="7.81971"/>
<rect x="213.263" y="245.643" width="7.81971" height="7.81971"/>
<rect x="269.248" y="177.303" width="7.81971" height="7.81971"/>
<rect x="297.24" y="131.744" width="7.81971" height="7.81971"/>
<rect x="339.228" y="91.2463" width="7.81971" height="7.81971"/>
<rect x="370.019" y="76.0597" width="7.81971" height="7.81971"/>
<rect x="395.212" y="98.8395" width="7.81971" height="7.81971"/>
<rect x="437.2" y="159.586" width="7.81971" height="7.81971"/>
<rect x="448.397" y="205.145" width="7.81971" height="7.81971"/>
<rect x="465.193" y="293.733" width="7.81971" height="7.81971"/>
</g>
<path d="M121.541,302.199h -7.93864" fill="none" stroke="black"/>
<path d="M128.057,302.199h 7.93864" fill="none" stroke="black"/>
<path d="M113.602,302.199z" fill="none" stroke="black"/>
<path d="M135.996,302.199z" fill="none" stroke="black"/>
<path d="M124.799,298.941v -11.9283" fill="none" stroke="black"/>
<path d="M124.799,305.457v 11.9283" fill="none" stroke="black"/>
<path d="M124.799,287.013z" fill="none" stroke="black"/>
<path d="M124.799,317.386z" fill="none" stroke="black"/>
<path d="M201.319,225.254h -30.3323" fill="none" stroke="black"/>
<path d="M207.835,225.254h 30.3323" fill="none" stroke="black"/>
<path d="M170.986,225.254z" fill="none" stroke="black"/>
<path d="M238.167,225.254z" fill="none" stroke="black"/>
<path d="M204.577,221.996v -16.9905" fill="none" stroke="black"/>
<path d="M204.577,228.512v 16.9905" fill="none" stroke="black"/>
<path d="M204.577,205.005z" fill="none" stroke="black"/>
<path d="M204.577,245.503z" fill="none" stroke="black"/>
<path d="M253.104,145.778h -19.1355" fill="none" stroke="black"/>
<path d="M259.62,145.778h 19.1355" fill="none" stroke="black"/>
<path d="M233.969,145.778z" fill="none" stroke="black"/>
<path d="M278.756,145.778z" fill="none" stroke="black"/>
<path d="M256.362,142.52v -14.4594" fill="none" stroke="black"/>
<path d="M256.362,149.036v 14.4594" fill="none" stroke="black"/>
<path d="M256.362,128.06z" fill="none" stroke="black"/>
<path d="M256.362,163.496z" fill="none" stroke="black"/>
<path d="M281.096,95.1561h -13.5371" fill="none" stroke="black"/>
<path d="M287.613,95.1561h 13.5371" fill="none" stroke="black"/>
<path d="M267.559,95.1561z" fill="none" stroke="black"/>
<path d="M301.15,95.1561z" fill="none" stroke="black"/>
<path d="M284.354,91.8979v -6.86614" fill="none" stroke="black"/>
<path d="M284.354,98.4143v 6.86614" fill="none" stroke="black"/>
<path d="M284.354,85.0318z" fill="none" stroke="black"/>
<path d="M284.354,105.28z" fill="none" stroke="black"/>
<path d="M325.884,69.8452h -10.7379" fill="none" stroke="black"/>
<path d="M332.4,69.8452h 10.7379" fill="none" stroke="black"/>
<path d="M315.146,69.8452z" fill="none" stroke="black"/>
<path d="M343.138,69.8452z" fill="none" stroke="black"/>
<path d="M329.142,66.587v -4.33505" fill="none" stroke="black"/>
<path d="M329.142,73.1034v 4.33505" fill="none" stroke="black"/>
<path d="M329.142,62.252z" fill="none" stroke="black"/>
<path d="M329.142,77.4385z" fill="none" stroke="black"/>
<path d="M356.675,55.9242h -7.93864" fill="none" stroke="black"/>
<path d="M363.191,55.9242h 7.93864" fill="none" stroke="black"/>
<path d="M348.736,55.9242z" fill="none" stroke="black"/>
<path d="M371.13,55.9242z" fill="none" stroke="black"/>
<path d="M359.933,52.666v -4.33505" fill="none" stroke="black"/>
<path d="M359.933,59.1825v 4.33505" fill="none" stroke="black"/>
<path d="M359.933,48.331z" fill="none" stroke="black"/>
<path d="M359.933,63.5175z" fill="none" stroke="black"/>
<path d="M381.868,78.9571h -16.3363" fill="none" stroke="black"/>
<path d="M388.384,78.9571h 16.3363" fill="none" stroke="black"/>
<path d="M365.531,78.9571z" fill="none" stroke="black"/>
<path d="M404.72,78.9571z" fill="none" stroke="black"/>
<path d="M385.126,75.6989v -6.86614" fill="none" stroke="black"/>
<path d="M385.126,82.2154v 6.86614" fill="none" stroke="black"/>
<path d="M385.126,68.8328z" fill="none" stroke="black"/>
<path d="M385.126,89.0815z" fill="none" stroke="black"/>
<path d="M423.856,139.197h -13.5371" fill="none" stroke="black"/>
<path d="M430.372,139.197h 13.5371" fill="none" stroke="black"/>
<path d="M410.319,139.197z" fill="none" stroke="black"/>
<path d="M443.909,139.197z" fill="none" stroke="black"/>
<path d="M427.114,135.939v -9.39723" fill="none" stroke="black"/>
<path d="M427.114,142.455v 9.39723" fill="none" stroke="black"/>
<path d="M427.114,126.542z" fill="none" stroke="black"/>
<path d="M427.114,151.853z" fill="none" stroke="black"/>
<path d="M451.848,185.769h -19.1355" fill="none" stroke="black"/>
<path d="M458.365,185.769h 19.1355" fill="none" stroke="black"/>
<path d="M432.713,185.769z" fill="none" stroke="black"/>
<path d="M477.5,185.769z" fill="none" stroke="black"/>
<path d="M455.106,182.511v -11.9283" fill="none" stroke="black"/>
<path d="M455.106,189.027v 11.9283" fill="none" stroke="black"/>
<path d="M455.106,170.583z" fill="none" stroke="black"/>
<path d="M455.106,200.956z" fill="none" stroke="black"/>
<path d="M482.639,272.332h -7.93864" fill="none" stroke="black"/>
<path d="M489.156,272.332h 7.93864" fill="none" stroke="black"/>
<path d="M474.701,272.332z" fill="none" stroke="black"/>
<path d="M497.094,272.332z" fill="none" stroke="black"/>
<path d="M485.898,269.074v -14.4594" fill="none" stroke="black"/>
<path d="M485.898,275.591v 14.4594" fill="none" stroke="black"/>
<path d="M485.898,254.615z" fill="none" stroke="black"/>
<path d="M485.898,290.05z" fill="none" stroke="black"/>
<path d="M124.799,302.199l 79.7776, -76.9451l 51.7854, -79.4762l 27.9921, -50.6218l 44.7874, -25.3109l 30.7913, -13.921l 25.1929, 23.0329l 41.9882, 60.2399l 27.9921, 46.572l 30.7913, 86.5632" fill="none" stroke="black"/>
<g fill="#ff0000">
<circle cx="124.799" cy="302.199" r="3.90986"/>
<circle cx="204.577" cy="225.254" r="3.90986"/>
<circle cx="256.362" cy="145.778" r="3.90986"/>
<circle cx="284.354" cy="95.1561" r="3.90986"/>
<circle cx="329.142" cy="69.8452" r="3.90986"/>
<circle cx="359.933" cy="55.9242" r="3.90986"/>
<circle cx="385.126" cy="78.9571" r="3.90986"/>
<circle cx="427.114" cy="139.197" r="3.90986"/>
<circle cx="455.106" cy="185.769" r="3.90986"/>
<circle cx="485.898" cy="272.332" r="3.90986"/>
</g></svg>
