<?xml version="1.0" standalone="no"?>
<svg width="567.429" height="384.969" viewBox="0 0 567.429 384.969" xmlns="http://www.w3.org/2000/svg" shape-rendering="crispEdges">
<title>
./old_svg_ref/graphShade.svg
</title>
<desc>
Creator: ROOT Version 6.33/01
CreationDate: Thu Jun  6 11:04:13 2024</desc>
<defs>
</defs>
<rect x="0.5" y="0" width="566.929" height="384.469" fill="white"/>
<rect x="57.1929" y="38.4469" width="453.543" height="307.575" fill="white"/>
<rect x="57.1929" y="38.4469" width="453.543" height="307.575" fill="none" stroke="black"/>
<rect x="57.1929" y="38.4469" width="453.543" height="307.575" fill="white"/>
<rect x="57.1929" y="38.4469" width="453.543" height="307.575" fill="none" stroke="black"/>
<path d="M57.1929,346.022h 453.543" fill="none" stroke="black"/>
<path d="M57.1929,38.4469v 307.575" fill="none" stroke="black" stroke-dasharray=" 1, 2"/>
<path d="M98.4241,38.4469v 307.575" fill="none" stroke="black" stroke-dasharray=" 1, 2"/>
<path d="M139.655,38.4469v 307.575" fill="none" stroke="black" stroke-dasharray=" 1, 2"/>
<path d="M180.887,38.4469v 307.575" fill="none" stroke="black" stroke-dasharray=" 1, 2"/>
<path d="M222.118,38.4469v 307.575" fill="none" stroke="black" stroke-dasharray=" 1, 2"/>
<path d="M263.349,38.4469v 307.575" fill="none" stroke="black" stroke-dasharray=" 1, 2"/>
<path d="M304.58,38.4469v 307.575" fill="none" stroke="black" stroke-dasharray=" 1, 2"/>
<path d="M345.811,38.4469v 307.575" fill="none" stroke="black" stroke-dasharray=" 1, 2"/>
<path d="M387.043,38.4469v 307.575" fill="none" stroke="black" stroke-dasharray=" 1, 2"/>
<path d="M428.274,38.4469v 307.575" fill="none" stroke="black" stroke-dasharray=" 1, 2"/>
<path d="M469.505,38.4469v 307.575" fill="none" stroke="black" stroke-dasharray=" 1, 2"/>
<path d="M510.736,38.4469v 307.575" fill="none" stroke="black" stroke-dasharray=" 1, 2"/>
<path d="M57.1929,346.022v -307.575" fill="none" stroke="black"/>
<path d="M510.736,346.022h -453.543" fill="none" stroke="black" stroke-dasharray=" 1, 2"/>
<path d="M510.736,294.76h -453.543" fill="none" stroke="black" stroke-dasharray=" 1, 2"/>
<path d="M510.736,243.497h -453.543" fill="none" stroke="black" stroke-dasharray=" 1, 2"/>
<path d="M510.736,192.235h -453.543" fill="none" stroke="black" stroke-dasharray=" 1, 2"/>
<path d="M510.736,140.972h -453.543" fill="none" stroke="black" stroke-dasharray=" 1, 2"/>
<path d="M510.736,89.7095h -453.543" fill="none" stroke="black" stroke-dasharray=" 1, 2"/>
<path d="M510.736,38.4469h -453.543" fill="none" stroke="black" stroke-dasharray=" 1, 2"/>
<path d="M57.1929,346.022h 453.543" fill="none" stroke="black"/>
<path d="M57.1929,336.795v 9.22726" fill="none" stroke="black"/>
<path d="M67.5007,341.409v 4.61363" fill="none" stroke="black"/>
<path d="M77.8085,341.409v 4.61363" fill="none" stroke="black"/>
<path d="M88.1163,341.409v 4.61363" fill="none" stroke="black"/>
<path d="M98.4241,336.795v 9.22726" fill="none" stroke="black"/>
<path d="M108.732,341.409v 4.61363" fill="none" stroke="black"/>
<path d="M119.04,341.409v 4.61363" fill="none" stroke="black"/>
<path d="M129.348,341.409v 4.61363" fill="none" stroke="black"/>
<path d="M139.655,336.795v 9.22726" fill="none" stroke="black"/>
<path d="M149.963,341.409v 4.61363" fill="none" stroke="black"/>
<path d="M160.271,341.409v 4.61363" fill="none" stroke="black"/>
<path d="M170.579,341.409v 4.61363" fill="none" stroke="black"/>
<path d="M180.887,336.795v 9.22726" fill="none" stroke="black"/>
<path d="M191.194,341.409v 4.61363" fill="none" stroke="black"/>
<path d="M201.502,341.409v 4.61363" fill="none" stroke="black"/>
<path d="M211.81,341.409v 4.61363" fill="none" stroke="black"/>
<path d="M222.118,336.795v 9.22726" fill="none" stroke="black"/>
<path d="M232.426,341.409v 4.61363" fill="none" stroke="black"/>
<path d="M242.733,341.409v 4.61363" fill="none" stroke="black"/>
<path d="M253.041,341.409v 4.61363" fill="none" stroke="black"/>
<path d="M263.349,336.795v 9.22726" fill="none" stroke="black"/>
<path d="M273.657,341.409v 4.61363" fill="none" stroke="black"/>
<path d="M283.965,341.409v 4.61363" fill="none" stroke="black"/>
<path d="M294.272,341.409v 4.61363" fill="none" stroke="black"/>
<path d="M304.58,336.795v 9.22726" fill="none" stroke="black"/>
<path d="M314.888,341.409v 4.61363" fill="none" stroke="black"/>
<path d="M325.196,341.409v 4.61363" fill="none" stroke="black"/>
<path d="M335.504,341.409v 4.61363" fill="none" stroke="black"/>
<path d="M345.811,336.795v 9.22726" fill="none" stroke="black"/>
<path d="M356.119,341.409v 4.61363" fill="none" stroke="black"/>
<path d="M366.427,341.409v 4.61363" fill="none" stroke="black"/>
<path d="M376.735,341.409v 4.61363" fill="none" stroke="black"/>
<path d="M387.043,336.795v 9.22726" fill="none" stroke="black"/>
<path d="M397.35,341.409v 4.61363" fill="none" stroke="black"/>
<path d="M407.658,341.409v 4.61363" fill="none" stroke="black"/>
<path d="M417.966,341.409v 4.61363" fill="none" stroke="black"/>
<path d="M428.274,336.795v 9.22726" fill="none" stroke="black"/>
<path d="M438.582,341.409v 4.61363" fill="none" stroke="black"/>
<path d="M448.889,341.409v 4.61363" fill="none" stroke="black"/>
<path d="M459.197,341.409v 4.61363" fill="none" stroke="black"/>
<path d="M469.505,336.795v 9.22726" fill="none" stroke="black"/>
<path d="M479.813,341.409v 4.61363" fill="none" stroke="black"/>
<path d="M490.121,341.409v 4.61363" fill="none" stroke="black"/>
<path d="M500.428,341.409v 4.61363" fill="none" stroke="black"/>
<path d="M510.736,336.795v 9.22726" fill="none" stroke="black"/>
<text xml:space="preserve" x="54.2605" y="358.403" fill="black" font-size="12.8453" font-family="Helvetica">0
</text>
<text xml:space="preserve" x="89.2863" y="358.403" fill="black" font-size="12.8453" font-family="Helvetica">0.2
</text>
<text xml:space="preserve" x="130.829" y="358.403" fill="black" font-size="12.8453" font-family="Helvetica">0.4
</text>
<text xml:space="preserve" x="171.556" y="358.403" fill="black" font-size="12.8453" font-family="Helvetica">0.6
</text>
<text xml:space="preserve" x="213.098" y="358.403" fill="black" font-size="12.8453" font-family="Helvetica">0.8
</text>
<text xml:space="preserve" x="261.157" y="358.403" fill="black" font-size="12.8453" font-family="Helvetica">1
</text>
<text xml:space="preserve" x="295.368" y="358.403" fill="black" font-size="12.8453" font-family="Helvetica">1.2
</text>
<text xml:space="preserve" x="336.911" y="358.403" fill="black" font-size="12.8453" font-family="Helvetica">1.4
</text>
<text xml:space="preserve" x="378.453" y="358.403" fill="black" font-size="12.8453" font-family="Helvetica">1.6
</text>
<text xml:space="preserve" x="419.18" y="358.403" fill="black" font-size="12.8453" font-family="Helvetica">1.8
</text>
<text xml:space="preserve" x="466.425" y="358.403" fill="black" font-size="12.8453" font-family="Helvetica">2
</text>
<text xml:space="preserve" x="501.45" y="358.403" fill="black" font-size="12.8453" font-family="Helvetica">2.2
</text>
<path d="M57.1929,346.022v -307.575" fill="none" stroke="black"/>
<path d="M70.7992,346.022h -13.6063" fill="none" stroke="black"/>
<path d="M63.9961,333.207h -6.80315" fill="none" stroke="black"/>
<path d="M63.9961,320.391h -6.80315" fill="none" stroke="black"/>
<path d="M63.9961,307.575h -6.80315" fill="none" stroke="black"/>
<path d="M70.7992,294.76h -13.6063" fill="none" stroke="black"/>
<path d="M63.9961,281.944h -6.80315" fill="none" stroke="black"/>
<path d="M63.9961,269.128h -6.80315" fill="none" stroke="black"/>
<path d="M63.9961,256.313h -6.80315" fill="none" stroke="black"/>
<path d="M70.7992,243.497h -13.6063" fill="none" stroke="black"/>
<path d="M63.9961,230.682h -6.80315" fill="none" stroke="black"/>
<path d="M63.9961,217.866h -6.80315" fill="none" stroke="black"/>
<path d="M63.9961,205.05h -6.80315" fill="none" stroke="black"/>
<path d="M70.7992,192.235h -13.6063" fill="none" stroke="black"/>
<path d="M63.9961,179.419h -6.80315" fill="none" stroke="black"/>
<path d="M63.9961,166.603h -6.80315" fill="none" stroke="black"/>
<path d="M63.9961,153.788h -6.80315" fill="none" stroke="black"/>
<path d="M70.7992,140.972h -13.6063" fill="none" stroke="black"/>
<path d="M63.9961,128.156h -6.80315" fill="none" stroke="black"/>
<path d="M63.9961,115.341h -6.80315" fill="none" stroke="black"/>
<path d="M63.9961,102.525h -6.80315" fill="none" stroke="black"/>
<path d="M70.7992,89.7095h -13.6063" fill="none" stroke="black"/>
<path d="M63.9961,76.8938h -6.80315" fill="none" stroke="black"/>
<path d="M63.9961,64.0782h -6.80315" fill="none" stroke="black"/>
<path d="M63.9961,51.2626h -6.80315" fill="none" stroke="black"/>
<path d="M70.7992,38.4469h -13.6063" fill="none" stroke="black"/>
<text xml:space="preserve" x="47.7441" y="351.072" fill="black" font-size="12.8453" font-family="Helvetica">0
</text>
<text xml:space="preserve" x="47.7441" y="299.756" fill="black" font-size="12.8453" font-family="Helvetica">2
</text>
<text xml:space="preserve" x="47.7441" y="248.439" fill="black" font-size="12.8453" font-family="Helvetica">4
</text>
<text xml:space="preserve" x="47.7441" y="197.122" fill="black" font-size="12.8453" font-family="Helvetica">6
</text>
<text xml:space="preserve" x="47.7441" y="145.805" fill="black" font-size="12.8453" font-family="Helvetica">8
</text>
<text xml:space="preserve" x="41.2277" y="94.4882" fill="black" font-size="12.8453" font-family="Helvetica">10
</text>
<text xml:space="preserve" x="40.4131" y="43.1713" fill="black" font-size="12.8453" font-family="Helvetica">12
</text>
<path d="M77.8085,270.277l 20.6156, -24.0673l 20.6156, -23.07l 20.6156, -21.8422l 20.6156, -20.3961l 20.6156, -18.7463l 20.6156, -16.9092l 20.6156, -14.9031l 20.6156, -12.7481l 20.6156, -10.4657l 20.6156, -8.07875l 20.6156, -5.61108l 20.6156,
 -3.08735l 20.6156, -0.532776l 20.6156, 2.02712l 20.6156, 4.56677l 20.6156, 7.06079l 20.6156, 9.48425l 20.6156, 11.813l 20.6156, 14.0236v 30.2267l -20.6156, -9.45037l -20.6156, -7.5874l -20.6156, -5.64863l -20.6156, -3.65342l -20.6156, -1.6217l
 -20.6156, 0.426221l -20.6156, 2.46988l -20.6156, 4.48887l -20.6156, 6.463l -20.6156, 8.37255l -20.6156, 10.1985l -20.6156, 11.9225l -20.6156, 13.5273l -20.6156, 14.997l -20.6156, 16.3169l -20.6156, 17.4738l -20.6156, 18.456l -20.6156, 19.2538l
 -20.6156, 19.8593z" fill="#b2b2b2"/>
<path d="M77.8085,305.285l 20.6156, -19.8593l 20.6156, -19.2538l 20.6156, -18.456l 20.6156, -17.4738l 20.6156, -16.3169l 20.6156, -14.997l 20.6156, -13.5273l 20.6156, -11.9225l 20.6156, -10.1985l 20.6156, -8.37255l 20.6156, -6.463l 20.6156, -4.48887l
 20.6156, -2.46988l 20.6156, -0.426221l 20.6156, 1.6217l 20.6156, 3.65342l 20.6156, 5.64863l 20.6156, 7.5874l 20.6156, 9.45037" fill="none" stroke="black"/>
<path d="M77.8085,270.277l 20.6156, -24.0673l 20.6156, -23.07l 20.6156, -21.8422l 20.6156, -20.3961l 20.6156, -18.7463l 20.6156, -16.9092l 20.6156, -14.9031l 20.6156, -12.7481l 20.6156, -10.4657l 20.6156, -8.07875l 20.6156, -5.61108l 20.6156,
 -3.08735l 20.6156, -0.532776l 20.6156, 2.02712l 20.6156, 4.56677l 20.6156, 7.06079l 20.6156, 9.48425l 20.6156, 11.813l 20.6156, 14.0236" fill="none" stroke="black"/>
<path d="M77.8085,288.951l 16.8636, -18.0783l 3.75202, -3.95033l 15.8212, -16.3842l 4.79439, -4.85411l 14.182, -14.0433l 6.43363, -6.1925l 12.9332, -12.0939l 7.68245, -6.93714l 11.9757, -10.4272l 8.63987, -7.2089l 11.2416, -8.96582l 9.37404,
 -7.09922l 10.6792, -7.6504l 9.93638, -6.68302l 10.2501, -6.4365l 10.3655, -6.02208l 9.92563, -5.29158l 10.69, -5.16769l 9.68512, -4.19223l 10.9305, -4.16321l 9.51387, -3.12182l 11.1017, -3.04631l 9.40183, -2.0685l 11.2138, -1.8507l 9.3426, -1.02357l
 9.80727, -0.567613l 1.46573, -0.0399102l 9.33289, 0.0197386l 9.83061, 0.530908l 1.4521, 0.122652l 9.37241, 1.06753l 11.2432, 1.90344l 9.46343, 2.1263l 11.1522, 3.11265l 9.61107, 3.20399l 11.0045, 4.25059l 9.82394, 4.31129l 10.7917, 5.28444l 9.94315,
 5.35901l 10.6725, 6.28201" fill="none" stroke="black" stroke-width="4"/>
<g fill="#0000ff">
<rect x="74.5503" y="285.693" width="6.51643" height="6.51643"/>
<rect x="95.1659" y="263.664" width="6.51643" height="6.51643"/>
<rect x="115.782" y="242.426" width="6.51643" height="6.51643"/>
<rect x="136.397" y="222.19" width="6.51643" height="6.51643"/>
<rect x="157.013" y="203.159" width="6.51643" height="6.51643"/>
<rect x="177.628" y="185.523" width="6.51643" height="6.51643"/>
<rect x="198.244" y="169.458" width="6.51643" height="6.51643"/>
<rect x="218.86" y="155.124" width="6.51643" height="6.51643"/>
<rect x="239.475" y="142.666" width="6.51643" height="6.51643"/>
<rect x="260.091" y="132.206" width="6.51643" height="6.51643"/>
<rect x="280.706" y="123.851" width="6.51643" height="6.51643"/>
<rect x="301.322" y="117.683" width="6.51643" height="6.51643"/>
<rect x="321.938" y="113.764" width="6.51643" height="6.51643"/>
<rect x="342.553" y="112.132" width="6.51643" height="6.51643"/>
<rect x="363.169" y="112.806" width="6.51643" height="6.51643"/>
<rect x="383.784" y="115.777" width="6.51643" height="6.51643"/>
<rect x="404.4" y="121.016" width="6.51643" height="6.51643"/>
<rect x="425.016" y="128.47" width="6.51643" height="6.51643"/>
<rect x="445.631" y="138.066" width="6.51643" height="6.51643"/>
<rect x="466.247" y="149.707" width="6.51643" height="6.51643"/>
</g></svg>
