<?xml version="1.0" standalone="no"?>
<svg width="504.235" height="737.508" viewBox="0 0 504.235 737.508" xmlns="http://www.w3.org/2000/svg" shape-rendering="crispEdges">
<title>
./old_svg_ref/h2_cut.svg
</title>
<desc>
Creator: ROOT Version 6.33.01
CreationDate: Wed Jul 10 10:00:43 2024</desc>
<defs>
</defs>
<rect x="0.5" y="0" width="503.735" height="737.008" fill="white"/>
<rect x="81.0975" y="36.8504" width="397.95" height="582.236" fill="white"/>
<rect x="81.0975" y="36.8504" width="397.95" height="582.236" fill="none" stroke="black"/>
<rect x="260.175" y="371.636" width="9.94876" height="14.5559" fill="#d0ba59"/>
<rect x="270.124" y="371.636" width="9.94876" height="14.5559" fill="#e1bf4a"/>
<rect x="280.073" y="371.636" width="9.94876" height="14.5559" fill="#e1bf4a"/>
<rect x="290.022" y="371.636" width="9.94876" height="14.5559" fill="#b2bc65"/>
<rect x="250.226" y="357.08" width="9.94876" height="14.5559" fill="#e1bf4a"/>
<rect x="260.175" y="357.08" width="9.94876" height="14.5559" fill="#f4c53a"/>
<rect x="270.124" y="357.08" width="9.94876" height="14.5559" fill="#f4c53a"/>
<rect x="280.073" y="357.08" width="9.94876" height="14.5559" fill="#f4c53a"/>
<rect x="290.022" y="357.08" width="9.94876" height="14.5559" fill="#e1bf4a"/>
<rect x="299.97" y="357.08" width="9.94876" height="14.5559" fill="#d0ba59"/>
<rect x="250.226" y="342.524" width="9.94876" height="14.5559" fill="#f4c53a"/>
<rect x="260.175" y="342.524" width="9.94876" height="14.5559" fill="#f4c53a"/>
<rect x="270.124" y="342.524" width="9.94876" height="14.5559" fill="#fcd12b"/>
<rect x="280.073" y="342.524" width="9.94876" height="14.5559" fill="#fcd12b"/>
<rect x="290.022" y="342.524" width="9.94876" height="14.5559" fill="#fcd12b"/>
<rect x="299.97" y="342.524" width="9.94876" height="14.5559" fill="#f4c53a"/>
<rect x="240.278" y="327.968" width="9.94876" height="14.5559" fill="#d0ba59"/>
<rect x="250.226" y="327.968" width="9.94876" height="14.5559" fill="#f4c53a"/>
<rect x="260.175" y="327.968" width="9.94876" height="14.5559" fill="#fcd12b"/>
<rect x="270.124" y="327.968" width="9.94876" height="14.5559" fill="#fcd12b"/>
<rect x="280.073" y="327.968" width="9.94876" height="14.5559" fill="#f9f90e"/>
<rect x="290.022" y="327.968" width="9.94876" height="14.5559" fill="#fcd12b"/>
<rect x="299.97" y="327.968" width="9.94876" height="14.5559" fill="#d0ba59"/>
<rect x="309.919" y="327.968" width="9.94876" height="14.5559" fill="#e1bf4a"/>
<rect x="240.278" y="313.413" width="9.94876" height="14.5559" fill="#f4c53a"/>
<rect x="250.226" y="313.413" width="9.94876" height="14.5559" fill="#e1bf4a"/>
<rect x="260.175" y="313.413" width="9.94876" height="14.5559" fill="#fcd12b"/>
<rect x="270.124" y="313.413" width="9.94876" height="14.5559" fill="#f9f90e"/>
<rect x="280.073" y="313.413" width="9.94876" height="14.5559" fill="#f9f90e"/>
<rect x="290.022" y="313.413" width="9.94876" height="14.5559" fill="#fae61c"/>
<rect x="299.97" y="313.413" width="9.94876" height="14.5559" fill="#f4c53a"/>
<rect x="309.919" y="313.413" width="9.94876" height="14.5559" fill="#d0ba59"/>
<rect x="250.226" y="298.857" width="9.94876" height="14.5559" fill="#fcd12b"/>
<rect x="260.175" y="298.857" width="9.94876" height="14.5559" fill="#f4c53a"/>
<rect x="270.124" y="298.857" width="9.94876" height="14.5559" fill="#f4c53a"/>
<rect x="280.073" y="298.857" width="9.94876" height="14.5559" fill="#fcd12b"/>
<rect x="290.022" y="298.857" width="9.94876" height="14.5559" fill="#f4c53a"/>
<rect x="299.97" y="298.857" width="9.94876" height="14.5559" fill="#fcd12b"/>
<rect x="250.226" y="284.301" width="9.94876" height="14.5559" fill="#f4c53a"/>
<rect x="260.175" y="284.301" width="9.94876" height="14.5559" fill="#f4c53a"/>
<rect x="270.124" y="284.301" width="9.94876" height="14.5559" fill="#f4c53a"/>
<rect x="280.073" y="284.301" width="9.94876" height="14.5559" fill="#f4c53a"/>
<rect x="290.022" y="284.301" width="9.94876" height="14.5559" fill="#e1bf4a"/>
<rect x="299.97" y="284.301" width="9.94876" height="14.5559" fill="#d0ba59"/>
<rect x="260.175" y="269.745" width="9.94876" height="14.5559" fill="#d0ba59"/>
<rect x="270.124" y="269.745" width="9.94876" height="14.5559" fill="#e1bf4a"/>
<rect x="280.073" y="269.745" width="9.94876" height="14.5559" fill="#e1bf4a"/>
<rect x="290.022" y="269.745" width="9.94876" height="14.5559" fill="#b2bc65"/>
<path d="M81.0975,619.087h 397.95" fill="none" stroke="black"/>
<path d="M81.0975,601.62v 17.4671" fill="none" stroke="black"/>
<path d="M91.0463,610.353v 8.73354" fill="none" stroke="black"/>
<path d="M100.995,610.353v 8.73354" fill="none" stroke="black"/>
<path d="M110.944,610.353v 8.73354" fill="none" stroke="black"/>
<path d="M120.893,601.62v 17.4671" fill="none" stroke="black"/>
<path d="M130.841,610.353v 8.73354" fill="none" stroke="black"/>
<path d="M140.79,610.353v 8.73354" fill="none" stroke="black"/>
<path d="M150.739,610.353v 8.73354" fill="none" stroke="black"/>
<path d="M160.688,601.62v 17.4671" fill="none" stroke="black"/>
<path d="M170.636,610.353v 8.73354" fill="none" stroke="black"/>
<path d="M180.585,610.353v 8.73354" fill="none" stroke="black"/>
<path d="M190.534,610.353v 8.73354" fill="none" stroke="black"/>
<path d="M200.483,601.62v 17.4671" fill="none" stroke="black"/>
<path d="M210.431,610.353v 8.73354" fill="none" stroke="black"/>
<path d="M220.38,610.353v 8.73354" fill="none" stroke="black"/>
<path d="M230.329,610.353v 8.73354" fill="none" stroke="black"/>
<path d="M240.278,601.62v 17.4671" fill="none" stroke="black"/>
<path d="M250.226,610.353v 8.73354" fill="none" stroke="black"/>
<path d="M260.175,610.353v 8.73354" fill="none" stroke="black"/>
<path d="M270.124,610.353v 8.73354" fill="none" stroke="black"/>
<path d="M280.073,601.62v 17.4671" fill="none" stroke="black"/>
<path d="M290.022,610.353v 8.73354" fill="none" stroke="black"/>
<path d="M299.97,610.353v 8.73354" fill="none" stroke="black"/>
<path d="M309.919,610.353v 8.73354" fill="none" stroke="black"/>
<path d="M319.868,601.62v 17.4671" fill="none" stroke="black"/>
<path d="M329.817,610.353v 8.73354" fill="none" stroke="black"/>
<path d="M339.765,610.353v 8.73354" fill="none" stroke="black"/>
<path d="M349.714,610.353v 8.73354" fill="none" stroke="black"/>
<path d="M359.663,601.62v 17.4671" fill="none" stroke="black"/>
<path d="M369.612,610.353v 8.73354" fill="none" stroke="black"/>
<path d="M379.56,610.353v 8.73354" fill="none" stroke="black"/>
<path d="M389.509,610.353v 8.73354" fill="none" stroke="black"/>
<path d="M399.458,601.62v 17.4671" fill="none" stroke="black"/>
<path d="M409.407,610.353v 8.73354" fill="none" stroke="black"/>
<path d="M419.355,610.353v 8.73354" fill="none" stroke="black"/>
<path d="M429.304,610.353v 8.73354" fill="none" stroke="black"/>
<path d="M439.253,601.62v 17.4671" fill="none" stroke="black"/>
<path d="M449.202,610.353v 8.73354" fill="none" stroke="black"/>
<path d="M459.15,610.353v 8.73354" fill="none" stroke="black"/>
<path d="M469.099,610.353v 8.73354" fill="none" stroke="black"/>
<path d="M479.048,601.62v 17.4671" fill="none" stroke="black"/>
<text xml:space="preserve" x="74.0317" y="652.489" fill="black" font-size="23.6071" font-family="Helvetica">10
</text>
<text xml:space="preserve" x="61.3539" y="652.489" fill="black" font-size="23.6071" font-family="Times">&#8722;
</text>
<text xml:space="preserve" x="119.672" y="652.489" fill="black" font-size="23.6071" font-family="Helvetica">8
</text>
<text xml:space="preserve" x="107.839" y="652.489" fill="black" font-size="23.6071" font-family="Times">&#8722;
</text>
<text xml:space="preserve" x="160.241" y="652.489" fill="black" font-size="23.6071" font-family="Helvetica">6
</text>
<text xml:space="preserve" x="148.409" y="652.489" fill="black" font-size="23.6071" font-family="Times">&#8722;
</text>
<text xml:space="preserve" x="199.965" y="652.489" fill="black" font-size="23.6071" font-family="Helvetica">4
</text>
<text xml:space="preserve" x="188.133" y="652.489" fill="black" font-size="23.6071" font-family="Times">&#8722;
</text>
<text xml:space="preserve" x="239.689" y="652.489" fill="black" font-size="23.6071" font-family="Helvetica">2
</text>
<text xml:space="preserve" x="227.857" y="652.489" fill="black" font-size="23.6071" font-family="Times">&#8722;
</text>
<text xml:space="preserve" x="273.497" y="652.489" fill="black" font-size="23.6071" font-family="Helvetica">0
</text>
<text xml:space="preserve" x="313.221" y="652.489" fill="black" font-size="23.6071" font-family="Helvetica">2
</text>
<text xml:space="preserve" x="352.945" y="652.489" fill="black" font-size="23.6071" font-family="Helvetica">4
</text>
<text xml:space="preserve" x="392.669" y="652.489" fill="black" font-size="23.6071" font-family="Helvetica">6
</text>
<text xml:space="preserve" x="432.393" y="652.489" fill="black" font-size="23.6071" font-family="Helvetica">8
</text>
<text xml:space="preserve" x="466.201" y="652.489" fill="black" font-size="23.6071" font-family="Helvetica">10
</text>
<path d="M81.0975,36.8504h 397.95" fill="none" stroke="black"/>
<path d="M81.0975,54.3175v -17.4671" fill="none" stroke="black"/>
<path d="M91.0463,45.5839v -8.73354" fill="none" stroke="black"/>
<path d="M100.995,45.5839v -8.73354" fill="none" stroke="black"/>
<path d="M110.944,45.5839v -8.73354" fill="none" stroke="black"/>
<path d="M120.893,54.3175v -17.4671" fill="none" stroke="black"/>
<path d="M130.841,45.5839v -8.73354" fill="none" stroke="black"/>
<path d="M140.79,45.5839v -8.73354" fill="none" stroke="black"/>
<path d="M150.739,45.5839v -8.73354" fill="none" stroke="black"/>
<path d="M160.688,54.3175v -17.4671" fill="none" stroke="black"/>
<path d="M170.636,45.5839v -8.73354" fill="none" stroke="black"/>
<path d="M180.585,45.5839v -8.73354" fill="none" stroke="black"/>
<path d="M190.534,45.5839v -8.73354" fill="none" stroke="black"/>
<path d="M200.483,54.3175v -17.4671" fill="none" stroke="black"/>
<path d="M210.431,45.5839v -8.73354" fill="none" stroke="black"/>
<path d="M220.38,45.5839v -8.73354" fill="none" stroke="black"/>
<path d="M230.329,45.5839v -8.73354" fill="none" stroke="black"/>
<path d="M240.278,54.3175v -17.4671" fill="none" stroke="black"/>
<path d="M250.226,45.5839v -8.73354" fill="none" stroke="black"/>
<path d="M260.175,45.5839v -8.73354" fill="none" stroke="black"/>
<path d="M270.124,45.5839v -8.73354" fill="none" stroke="black"/>
<path d="M280.073,54.3175v -17.4671" fill="none" stroke="black"/>
<path d="M290.022,45.5839v -8.73354" fill="none" stroke="black"/>
<path d="M299.97,45.5839v -8.73354" fill="none" stroke="black"/>
<path d="M309.919,45.5839v -8.73354" fill="none" stroke="black"/>
<path d="M319.868,54.3175v -17.4671" fill="none" stroke="black"/>
<path d="M329.817,45.5839v -8.73354" fill="none" stroke="black"/>
<path d="M339.765,45.5839v -8.73354" fill="none" stroke="black"/>
<path d="M349.714,45.5839v -8.73354" fill="none" stroke="black"/>
<path d="M359.663,54.3175v -17.4671" fill="none" stroke="black"/>
<path d="M369.612,45.5839v -8.73354" fill="none" stroke="black"/>
<path d="M379.56,45.5839v -8.73354" fill="none" stroke="black"/>
<path d="M389.509,45.5839v -8.73354" fill="none" stroke="black"/>
<path d="M399.458,54.3175v -17.4671" fill="none" stroke="black"/>
<path d="M409.407,45.5839v -8.73354" fill="none" stroke="black"/>
<path d="M419.355,45.5839v -8.73354" fill="none" stroke="black"/>
<path d="M429.304,45.5839v -8.73354" fill="none" stroke="black"/>
<path d="M439.253,54.3175v -17.4671" fill="none" stroke="black"/>
<path d="M449.202,45.5839v -8.73354" fill="none" stroke="black"/>
<path d="M459.15,45.5839v -8.73354" fill="none" stroke="black"/>
<path d="M469.099,45.5839v -8.73354" fill="none" stroke="black"/>
<path d="M479.048,54.3175v -17.4671" fill="none" stroke="black"/>
<path d="M81.0975,619.087v -582.236" fill="none" stroke="black"/>
<path d="M93.0361,619.087h -11.9385" fill="none" stroke="black"/>
<path d="M87.0668,604.531h -5.96926" fill="none" stroke="black"/>
<path d="M87.0668,589.975h -5.96926" fill="none" stroke="black"/>
<path d="M87.0668,575.419h -5.96926" fill="none" stroke="black"/>
<path d="M93.0361,560.863h -11.9385" fill="none" stroke="black"/>
<path d="M87.0668,546.307h -5.96926" fill="none" stroke="black"/>
<path d="M87.0668,531.751h -5.96926" fill="none" stroke="black"/>
<path d="M87.0668,517.195h -5.96926" fill="none" stroke="black"/>
<path d="M93.0361,502.639h -11.9385" fill="none" stroke="black"/>
<path d="M87.0668,488.083h -5.96926" fill="none" stroke="black"/>
<path d="M87.0668,473.528h -5.96926" fill="none" stroke="black"/>
<path d="M87.0668,458.972h -5.96926" fill="none" stroke="black"/>
<path d="M93.0361,444.416h -11.9385" fill="none" stroke="black"/>
<path d="M87.0668,429.86h -5.96926" fill="none" stroke="black"/>
<path d="M87.0668,415.304h -5.96926" fill="none" stroke="black"/>
<path d="M87.0668,400.748h -5.96926" fill="none" stroke="black"/>
<path d="M93.0361,386.192h -11.9385" fill="none" stroke="black"/>
<path d="M87.0668,371.636h -5.96926" fill="none" stroke="black"/>
<path d="M87.0668,357.08h -5.96926" fill="none" stroke="black"/>
<path d="M87.0668,342.524h -5.96926" fill="none" stroke="black"/>
<path d="M93.0361,327.968h -11.9385" fill="none" stroke="black"/>
<path d="M87.0668,313.413h -5.96926" fill="none" stroke="black"/>
<path d="M87.0668,298.857h -5.96926" fill="none" stroke="black"/>
<path d="M87.0668,284.301h -5.96926" fill="none" stroke="black"/>
<path d="M93.0361,269.745h -11.9385" fill="none" stroke="black"/>
<path d="M87.0668,255.189h -5.96926" fill="none" stroke="black"/>
<path d="M87.0668,240.633h -5.96926" fill="none" stroke="black"/>
<path d="M87.0668,226.077h -5.96926" fill="none" stroke="black"/>
<path d="M93.0361,211.521h -11.9385" fill="none" stroke="black"/>
<path d="M87.0668,196.965h -5.96926" fill="none" stroke="black"/>
<path d="M87.0668,182.409h -5.96926" fill="none" stroke="black"/>
<path d="M87.0668,167.854h -5.96926" fill="none" stroke="black"/>
<path d="M93.0361,153.298h -11.9385" fill="none" stroke="black"/>
<path d="M87.0668,138.742h -5.96926" fill="none" stroke="black"/>
<path d="M87.0668,124.186h -5.96926" fill="none" stroke="black"/>
<path d="M87.0668,109.63h -5.96926" fill="none" stroke="black"/>
<path d="M93.0361,95.074h -11.9385" fill="none" stroke="black"/>
<path d="M87.0668,80.5181h -5.96926" fill="none" stroke="black"/>
<path d="M87.0668,65.9622h -5.96926" fill="none" stroke="black"/>
<path d="M87.0668,51.4063h -5.96926" fill="none" stroke="black"/>
<path d="M93.0361,36.8504h -11.9385" fill="none" stroke="black"/>
<text xml:space="preserve" x="52.9019" y="627.133" fill="black" font-size="23.6071" font-family="Helvetica">10
</text>
<text xml:space="preserve" x="40.224" y="627.133" fill="black" font-size="23.6071" font-family="Times">&#8722;
</text>
<text xml:space="preserve" x="65.5798" y="569.66" fill="black" font-size="23.6071" font-family="Helvetica">8
</text>
<text xml:space="preserve" x="52.9019" y="569.66" fill="black" font-size="23.6071" font-family="Times">&#8722;
</text>
<text xml:space="preserve" x="65.5798" y="511.341" fill="black" font-size="23.6071" font-family="Helvetica">6
</text>
<text xml:space="preserve" x="52.9019" y="511.341" fill="black" font-size="23.6071" font-family="Times">&#8722;
</text>
<text xml:space="preserve" x="65.5798" y="453.868" fill="black" font-size="23.6071" font-family="Helvetica">4
</text>
<text xml:space="preserve" x="52.9019" y="453.868" fill="black" font-size="23.6071" font-family="Times">&#8722;
</text>
<text xml:space="preserve" x="65.5798" y="395.55" fill="black" font-size="23.6071" font-family="Helvetica">2
</text>
<text xml:space="preserve" x="52.9019" y="395.55" fill="black" font-size="23.6071" font-family="Times">&#8722;
</text>
<text xml:space="preserve" x="65.5798" y="336.387" fill="black" font-size="23.6071" font-family="Helvetica">0
</text>
<text xml:space="preserve" x="65.5798" y="278.914" fill="black" font-size="23.6071" font-family="Helvetica">2
</text>
<text xml:space="preserve" x="65.5798" y="220.595" fill="black" font-size="23.6071" font-family="Helvetica">4
</text>
<text xml:space="preserve" x="65.5798" y="161.432" fill="black" font-size="23.6071" font-family="Helvetica">6
</text>
<text xml:space="preserve" x="65.5798" y="103.113" fill="black" font-size="23.6071" font-family="Helvetica">8
</text>
<text xml:space="preserve" x="52.9019" y="45.6404" fill="black" font-size="23.6071" font-family="Helvetica">10
</text>
<path d="M479.048,619.087v -582.236" fill="none" stroke="black"/>
<path d="M467.109,619.087h 11.9385" fill="none" stroke="black"/>
<path d="M473.079,604.531h 5.96926" fill="none" stroke="black"/>
<path d="M473.079,589.975h 5.96926" fill="none" stroke="black"/>
<path d="M473.079,575.419h 5.96926" fill="none" stroke="black"/>
<path d="M467.109,560.863h 11.9385" fill="none" stroke="black"/>
<path d="M473.079,546.307h 5.96926" fill="none" stroke="black"/>
<path d="M473.079,531.751h 5.96926" fill="none" stroke="black"/>
<path d="M473.079,517.195h 5.96926" fill="none" stroke="black"/>
<path d="M467.109,502.639h 11.9385" fill="none" stroke="black"/>
<path d="M473.079,488.083h 5.96926" fill="none" stroke="black"/>
<path d="M473.079,473.528h 5.96926" fill="none" stroke="black"/>
<path d="M473.079,458.972h 5.96926" fill="none" stroke="black"/>
<path d="M467.109,444.416h 11.9385" fill="none" stroke="black"/>
<path d="M473.079,429.86h 5.96926" fill="none" stroke="black"/>
<path d="M473.079,415.304h 5.96926" fill="none" stroke="black"/>
<path d="M473.079,400.748h 5.96926" fill="none" stroke="black"/>
<path d="M467.109,386.192h 11.9385" fill="none" stroke="black"/>
<path d="M473.079,371.636h 5.96926" fill="none" stroke="black"/>
<path d="M473.079,357.08h 5.96926" fill="none" stroke="black"/>
<path d="M473.079,342.524h 5.96926" fill="none" stroke="black"/>
<path d="M467.109,327.968h 11.9385" fill="none" stroke="black"/>
<path d="M473.079,313.413h 5.96926" fill="none" stroke="black"/>
<path d="M473.079,298.857h 5.96926" fill="none" stroke="black"/>
<path d="M473.079,284.301h 5.96926" fill="none" stroke="black"/>
<path d="M467.109,269.745h 11.9385" fill="none" stroke="black"/>
<path d="M473.079,255.189h 5.96926" fill="none" stroke="black"/>
<path d="M473.079,240.633h 5.96926" fill="none" stroke="black"/>
<path d="M473.079,226.077h 5.96926" fill="none" stroke="black"/>
<path d="M467.109,211.521h 11.9385" fill="none" stroke="black"/>
<path d="M473.079,196.965h 5.96926" fill="none" stroke="black"/>
<path d="M473.079,182.409h 5.96926" fill="none" stroke="black"/>
<path d="M473.079,167.854h 5.96926" fill="none" stroke="black"/>
<path d="M467.109,153.298h 11.9385" fill="none" stroke="black"/>
<path d="M473.079,138.742h 5.96926" fill="none" stroke="black"/>
<path d="M473.079,124.186h 5.96926" fill="none" stroke="black"/>
<path d="M473.079,109.63h 5.96926" fill="none" stroke="black"/>
<path d="M467.109,95.074h 11.9385" fill="none" stroke="black"/>
<path d="M473.079,80.5181h 5.96926" fill="none" stroke="black"/>
<path d="M473.079,65.9622h 5.96926" fill="none" stroke="black"/>
<path d="M473.079,51.4063h 5.96926" fill="none" stroke="black"/>
<path d="M467.109,36.8504h 11.9385" fill="none" stroke="black"/>
<path d="M299.97,269.745l 19.8975, 58.2236l -19.8975, 58.2236h -39.795l -19.8975, -58.2236l 19.8975, -58.2236" fill="none" stroke="black"/></svg>
