<?xml version="1.0" standalone="no"?>
<svg width="567.429" height="299.15" viewBox="0 0 567.429 299.15" xmlns="http://www.w3.org/2000/svg" shape-rendering="crispEdges">
<title>
./old_svg_ref/hlabels1.svg
</title>
<desc>
Creator: ROOT Version 6.33/01
CreationDate: Fri Jun  7 12:12:43 2024</desc>
<defs>
</defs>
<rect x="0.5" y="0" width="566.929" height="298.65" fill="white"/>
<rect x="57.1929" y="44.7975" width="453.543" height="223.988" fill="white"/>
<rect x="57.1929" y="44.7975" width="453.543" height="223.988" fill="none" stroke="black"/>
<path d="M57.1929,268.785h 453.543" fill="none" stroke="black"/>
<path d="M57.1929,44.7975v 223.988" fill="none" stroke="black" stroke-dasharray=" 1, 2"/>
<path d="M79.8701,44.7975v 223.988" fill="none" stroke="black" stroke-dasharray=" 1, 2"/>
<path d="M102.547,44.7975v 223.988" fill="none" stroke="black" stroke-dasharray=" 1, 2"/>
<path d="M125.224,44.7975v 223.988" fill="none" stroke="black" stroke-dasharray=" 1, 2"/>
<path d="M147.902,44.7975v 223.988" fill="none" stroke="black" stroke-dasharray=" 1, 2"/>
<path d="M170.579,44.7975v 223.988" fill="none" stroke="black" stroke-dasharray=" 1, 2"/>
<path d="M193.256,44.7975v 223.988" fill="none" stroke="black" stroke-dasharray=" 1, 2"/>
<path d="M215.933,44.7975v 223.988" fill="none" stroke="black" stroke-dasharray=" 1, 2"/>
<path d="M238.61,44.7975v 223.988" fill="none" stroke="black" stroke-dasharray=" 1, 2"/>
<path d="M261.287,44.7975v 223.988" fill="none" stroke="black" stroke-dasharray=" 1, 2"/>
<path d="M283.965,44.7975v 223.988" fill="none" stroke="black" stroke-dasharray=" 1, 2"/>
<path d="M306.642,44.7975v 223.988" fill="none" stroke="black" stroke-dasharray=" 1, 2"/>
<path d="M329.319,44.7975v 223.988" fill="none" stroke="black" stroke-dasharray=" 1, 2"/>
<path d="M351.996,44.7975v 223.988" fill="none" stroke="black" stroke-dasharray=" 1, 2"/>
<path d="M374.673,44.7975v 223.988" fill="none" stroke="black" stroke-dasharray=" 1, 2"/>
<path d="M397.35,44.7975v 223.988" fill="none" stroke="black" stroke-dasharray=" 1, 2"/>
<path d="M420.028,44.7975v 223.988" fill="none" stroke="black" stroke-dasharray=" 1, 2"/>
<path d="M442.705,44.7975v 223.988" fill="none" stroke="black" stroke-dasharray=" 1, 2"/>
<path d="M465.382,44.7975v 223.988" fill="none" stroke="black" stroke-dasharray=" 1, 2"/>
<path d="M488.059,44.7975v 223.988" fill="none" stroke="black" stroke-dasharray=" 1, 2"/>
<path d="M510.736,44.7975v 223.988" fill="none" stroke="black" stroke-dasharray=" 1, 2"/>
<path d="M57.1929,268.785v -223.988" fill="none" stroke="black"/>
<path d="M510.736,258.627h -453.543" fill="none" stroke="black" stroke-dasharray=" 1, 2"/>
<path d="M510.736,236.053h -453.543" fill="none" stroke="black" stroke-dasharray=" 1, 2"/>
<path d="M510.736,213.48h -453.543" fill="none" stroke="black" stroke-dasharray=" 1, 2"/>
<path d="M510.736,190.906h -453.543" fill="none" stroke="black" stroke-dasharray=" 1, 2"/>
<path d="M510.736,168.332h -453.543" fill="none" stroke="black" stroke-dasharray=" 1, 2"/>
<path d="M510.736,145.758h -453.543" fill="none" stroke="black" stroke-dasharray=" 1, 2"/>
<path d="M510.736,123.185h -453.543" fill="none" stroke="black" stroke-dasharray=" 1, 2"/>
<path d="M510.736,100.611h -453.543" fill="none" stroke="black" stroke-dasharray=" 1, 2"/>
<path d="M510.736,78.0373h -453.543" fill="none" stroke="black" stroke-dasharray=" 1, 2"/>
<path d="M510.736,55.4636h -453.543" fill="none" stroke="black" stroke-dasharray=" 1, 2"/>
<path d="M510.736,258.627h -453.543" fill="none" stroke="black" stroke-dasharray=" 1, 2"/>
<path d="M510.736,55.4636h -453.543" fill="none" stroke="black" stroke-dasharray=" 1, 2"/>
<path d="M57.1929,268.785v -186.233h 22.6772v 27.0884h 22.6772v 108.354h 22.6772v -117.383h 22.6772v 108.354h 22.6772v -81.2654h 22.6772v 130.928h 22.6772v -13.5442h 22.6772v -76.7506h 22.6772v -27.0884h 22.6772v 45.1474h 22.6772v -90.2948h 22.6772v
 -22.5737h 22.6772v 54.1769h 22.6772v -72.2359h 22.6772v 72.2359h 22.6772v -36.1179h 22.6772v 58.6916h 22.6772v 13.5442h 22.6772v 18.059h 22.6772v 86.9088z" fill="#7c99d1"/>
<path d="M57.1929,82.5521h 22.6772v 27.0884h 22.6772v 108.354h 22.6772v -117.383h 22.6772v 108.354h 22.6772v -81.2654h 22.6772v 130.928h 22.6772v -13.5442h 22.6772v -76.7506h 22.6772v -27.0884h 22.6772v 45.1474h 22.6772v -90.2948h 22.6772v -22.5737h
 22.6772v 54.1769h 22.6772v -72.2359h 22.6772v 72.2359h 22.6772v -36.1179h 22.6772v 58.6916h 22.6772v 13.5442h 22.6772v 18.059h 22.6772" fill="none" stroke="#000099"/>
<path d="M57.1929,268.785h 453.543" fill="none" stroke="black"/>
<g transform="rotate(20,67.5697,273.974)">
<text xml:space="preserve" x="67.5697" y="273.974" fill="black" font-size="6.89306" font-family="Helvetica">Valery
</text>
</g>
<g transform="rotate(20,89.7154,274.606)">
<text xml:space="preserve" x="89.7154" y="274.606" fill="black" font-size="6.89306" font-family="Helvetica">Odile
</text>
</g>
<g transform="rotate(20,112.494,274.606)">
<text xml:space="preserve" x="112.494" y="274.606" fill="black" font-size="6.89306" font-family="Helvetica">Fons
</text>
</g>
<g transform="rotate(20,135.272,274.606)">
<text xml:space="preserve" x="135.272" y="274.606" fill="black" font-size="6.89306" font-family="Helvetica">Jeff
</text>
</g>
<g transform="rotate(20,158.051,274.606)">
<text xml:space="preserve" x="158.051" y="274.606" fill="black" font-size="6.89306" font-family="Helvetica">Sebastien
</text>
</g>
<g transform="rotate(20,180.829,273.974)">
<text xml:space="preserve" x="180.829" y="273.974" fill="black" font-size="6.89306" font-family="Helvetica">Greg
</text>
</g>
<g transform="rotate(20,203.607,274.606)">
<text xml:space="preserve" x="203.607" y="274.606" fill="black" font-size="6.89306" font-family="Helvetica">Peter
</text>
</g>
<g transform="rotate(20,225.753,273.974)">
<text xml:space="preserve" x="225.753" y="273.974" fill="black" font-size="6.89306" font-family="Helvetica">Bjarne
</text>
</g>
<g transform="rotate(20,248.531,274.606)">
<text xml:space="preserve" x="248.531" y="274.606" fill="black" font-size="6.89306" font-family="Helvetica">Pasha
</text>
</g>
<g transform="rotate(20,271.31,273.974)">
<text xml:space="preserve" x="271.31" y="273.974" fill="black" font-size="6.89306" font-family="Helvetica">Eddy
</text>
</g>
<g transform="rotate(20,294.088,274.606)">
<text xml:space="preserve" x="294.088" y="274.606" fill="black" font-size="6.89306" font-family="Helvetica">Rene
</text>
</g>
<g transform="rotate(20,316.867,273.974)">
<text xml:space="preserve" x="316.867" y="273.974" fill="black" font-size="6.89306" font-family="Helvetica">Philippe
</text>
</g>
<g transform="rotate(20,339.645,274.606)">
<text xml:space="preserve" x="339.645" y="274.606" fill="black" font-size="6.89306" font-family="Helvetica">Nicolas
</text>
</g>
<g transform="rotate(20,361.791,274.606)">
<text xml:space="preserve" x="361.791" y="274.606" fill="black" font-size="6.89306" font-family="Helvetica">Jean
</text>
</g>
<g transform="rotate(20,384.569,274.606)">
<text xml:space="preserve" x="384.569" y="274.606" fill="black" font-size="6.89306" font-family="Helvetica">Anton
</text>
</g>
<g transform="rotate(20,407.348,274.606)">
<text xml:space="preserve" x="407.348" y="274.606" fill="black" font-size="6.89306" font-family="Helvetica">Suzanne
</text>
</g>
<g transform="rotate(20,430.126,274.606)">
<text xml:space="preserve" x="430.126" y="274.606" fill="black" font-size="6.89306" font-family="Helvetica">Marie
</text>
</g>
<g transform="rotate(20,452.904,274.606)">
<text xml:space="preserve" x="452.904" y="274.606" fill="black" font-size="6.89306" font-family="Helvetica">Pierre
</text>
</g>
<g transform="rotate(20,475.683,274.606)">
<text xml:space="preserve" x="475.683" y="274.606" fill="black" font-size="6.89306" font-family="Helvetica">Otto
</text>
</g>
<g transform="rotate(20,497.828,274.606)">
<text xml:space="preserve" x="497.828" y="274.606" fill="black" font-size="6.89306" font-family="Helvetica">Xavier
</text>
</g>
<path d="M57.1929,261.618v 7.1676" fill="none" stroke="black"/>
<path d="M79.8701,261.618v 7.1676" fill="none" stroke="black"/>
<path d="M102.547,261.618v 7.1676" fill="none" stroke="black"/>
<path d="M125.224,261.618v 7.1676" fill="none" stroke="black"/>
<path d="M147.902,261.618v 7.1676" fill="none" stroke="black"/>
<path d="M170.579,261.618v 7.1676" fill="none" stroke="black"/>
<path d="M193.256,261.618v 7.1676" fill="none" stroke="black"/>
<path d="M215.933,261.618v 7.1676" fill="none" stroke="black"/>
<path d="M238.61,261.618v 7.1676" fill="none" stroke="black"/>
<path d="M261.287,261.618v 7.1676" fill="none" stroke="black"/>
<path d="M283.965,261.618v 7.1676" fill="none" stroke="black"/>
<path d="M306.642,261.618v 7.1676" fill="none" stroke="black"/>
<path d="M329.319,261.618v 7.1676" fill="none" stroke="black"/>
<path d="M351.996,261.618v 7.1676" fill="none" stroke="black"/>
<path d="M374.673,261.618v 7.1676" fill="none" stroke="black"/>
<path d="M397.35,261.618v 7.1676" fill="none" stroke="black"/>
<path d="M420.028,261.618v 7.1676" fill="none" stroke="black"/>
<path d="M442.705,261.618v 7.1676" fill="none" stroke="black"/>
<path d="M465.382,261.618v 7.1676" fill="none" stroke="black"/>
<path d="M488.059,261.618v 7.1676" fill="none" stroke="black"/>
<path d="M510.736,261.618v 7.1676" fill="none" stroke="black"/>
<path d="M57.1929,268.785v -223.988" fill="none" stroke="black"/>
<path d="M69.9488,258.627h -12.7559" fill="none" stroke="black"/>
<path d="M63.5709,254.112h -6.37795" fill="none" stroke="black"/>
<path d="M63.5709,249.597h -6.37795" fill="none" stroke="black"/>
<path d="M63.5709,245.083h -6.37795" fill="none" stroke="black"/>
<path d="M63.5709,240.568h -6.37795" fill="none" stroke="black"/>
<path d="M69.9488,236.053h -12.7559" fill="none" stroke="black"/>
<path d="M63.5709,231.539h -6.37795" fill="none" stroke="black"/>
<path d="M63.5709,227.024h -6.37795" fill="none" stroke="black"/>
<path d="M63.5709,222.509h -6.37795" fill="none" stroke="black"/>
<path d="M63.5709,217.994h -6.37795" fill="none" stroke="black"/>
<path d="M69.9488,213.48h -12.7559" fill="none" stroke="black"/>
<path d="M63.5709,208.965h -6.37795" fill="none" stroke="black"/>
<path d="M63.5709,204.45h -6.37795" fill="none" stroke="black"/>
<path d="M63.5709,199.935h -6.37795" fill="none" stroke="black"/>
<path d="M63.5709,195.421h -6.37795" fill="none" stroke="black"/>
<path d="M69.9488,190.906h -12.7559" fill="none" stroke="black"/>
<path d="M63.5709,186.391h -6.37795" fill="none" stroke="black"/>
<path d="M63.5709,181.876h -6.37795" fill="none" stroke="black"/>
<path d="M63.5709,177.362h -6.37795" fill="none" stroke="black"/>
<path d="M63.5709,172.847h -6.37795" fill="none" stroke="black"/>
<path d="M69.9488,168.332h -12.7559" fill="none" stroke="black"/>
<path d="M63.5709,163.817h -6.37795" fill="none" stroke="black"/>
<path d="M63.5709,159.303h -6.37795" fill="none" stroke="black"/>
<path d="M63.5709,154.788h -6.37795" fill="none" stroke="black"/>
<path d="M63.5709,150.273h -6.37795" fill="none" stroke="black"/>
<path d="M69.9488,145.758h -12.7559" fill="none" stroke="black"/>
<path d="M63.5709,141.244h -6.37795" fill="none" stroke="black"/>
<path d="M63.5709,136.729h -6.37795" fill="none" stroke="black"/>
<path d="M63.5709,132.214h -6.37795" fill="none" stroke="black"/>
<path d="M63.5709,127.699h -6.37795" fill="none" stroke="black"/>
<path d="M69.9488,123.185h -12.7559" fill="none" stroke="black"/>
<path d="M63.5709,118.67h -6.37795" fill="none" stroke="black"/>
<path d="M63.5709,114.155h -6.37795" fill="none" stroke="black"/>
<path d="M63.5709,109.641h -6.37795" fill="none" stroke="black"/>
<path d="M63.5709,105.126h -6.37795" fill="none" stroke="black"/>
<path d="M69.9488,100.611h -12.7559" fill="none" stroke="black"/>
<path d="M63.5709,96.0963h -6.37795" fill="none" stroke="black"/>
<path d="M63.5709,91.5815h -6.37795" fill="none" stroke="black"/>
<path d="M63.5709,87.0668h -6.37795" fill="none" stroke="black"/>
<path d="M63.5709,82.5521h -6.37795" fill="none" stroke="black"/>
<path d="M69.9488,78.0373h -12.7559" fill="none" stroke="black"/>
<path d="M63.5709,73.5226h -6.37795" fill="none" stroke="black"/>
<path d="M63.5709,69.0078h -6.37795" fill="none" stroke="black"/>
<path d="M63.5709,64.4931h -6.37795" fill="none" stroke="black"/>
<path d="M63.5709,59.9783h -6.37795" fill="none" stroke="black"/>
<path d="M69.9488,55.4636h -12.7559" fill="none" stroke="black"/>
<path d="M69.9488,258.627h -12.7559" fill="none" stroke="black"/>
<path d="M63.5709,263.142h -6.37795" fill="none" stroke="black"/>
<path d="M63.5709,267.656h -6.37795" fill="none" stroke="black"/>
<path d="M69.9488,55.4636h -12.7559" fill="none" stroke="black"/>
<path d="M63.5709,50.9489h -6.37795" fill="none" stroke="black"/>
<path d="M63.5709,46.4341h -6.37795" fill="none" stroke="black"/>
<text xml:space="preserve" x="38.464" y="262.584" fill="black" font-size="10.0897" font-family="Helvetica">225
</text>
<text xml:space="preserve" x="38.464" y="239.806" fill="black" font-size="10.0897" font-family="Helvetica">230
</text>
<text xml:space="preserve" x="38.464" y="217.028" fill="black" font-size="10.0897" font-family="Helvetica">235
</text>
<text xml:space="preserve" x="38.464" y="194.882" fill="black" font-size="10.0897" font-family="Helvetica">240
</text>
<text xml:space="preserve" x="38.464" y="172.103" fill="black" font-size="10.0897" font-family="Helvetica">245
</text>
<text xml:space="preserve" x="38.464" y="149.325" fill="black" font-size="10.0897" font-family="Helvetica">250
</text>
<text xml:space="preserve" x="38.464" y="127.179" fill="black" font-size="10.0897" font-family="Helvetica">255
</text>
<text xml:space="preserve" x="38.464" y="104.401" fill="black" font-size="10.0897" font-family="Helvetica">260
</text>
<text xml:space="preserve" x="38.464" y="81.6226" fill="black" font-size="10.0897" font-family="Helvetica">265
</text>
<text xml:space="preserve" x="38.464" y="59.4769" fill="black" font-size="10.0897" font-family="Helvetica">270
</text>
<text xml:space="preserve" x="273.208" y="14.5529" fill="black" font-size="13.3091" font-family="Helvetica">test
</text>
<rect x="397.35" y="5.973" width="158.74" height="38.8245" fill="#e5e5e5"/>
<path d="M401.147,44.7975v 2.53093h 157.475v -37.5591h -2.53093v 35.0281z" fill="black"/>
<path d="M397.35,44.7975v -38.8245h 158.74v 38.8245h -158.74z" fill="none" stroke="black"/>
<text xml:space="preserve" x="405.449" y="13.2874" fill="black" font-size="8.03016" font-family="Helvetica" font-weight="bold">Use the axis Context Menu LabelsOption
</text>
<text xml:space="preserve" x="405.449" y="22.7784" fill="black" font-size="8.03016" font-family="Helvetica" font-weight="bold"> "a"   to sort by alphabetic order
</text>
<text xml:space="preserve" x="405.449" y="32.9021" fill="black" font-size="8.03016" font-family="Helvetica" font-weight="bold"> "&gt;"   to sort by decreasing values
</text>
<text xml:space="preserve" x="405.449" y="42.3931" fill="black" font-size="8.03016" font-family="Helvetica" font-weight="bold"> "&lt;"   to sort by increasing values
</text>
<text xml:space="preserve" x="273.208" y="14.5529" fill="black" font-size="13.3091" font-family="Helvetica">test
</text></svg>
