<?xml version="1.0" standalone="no"?>
<svg width="567.429" height="299.15" viewBox="0 0 567.429 299.15" xmlns="http://www.w3.org/2000/svg" shape-rendering="crispEdges">
<title>
./old_svg_ref/hlabels1.svg
</title>
<desc>
Creator: ROOT Version 6.33.01
CreationDate: Wed Jul 10 10:01:33 2024</desc>
<defs>
</defs>
<rect x="0.5" y="0" width="566.929" height="298.65" fill="white"/>
<rect x="91.2087" y="44.7975" width="447.874" height="206.069" fill="white"/>
<rect x="91.2087" y="44.7975" width="447.874" height="206.069" fill="none" stroke="black"/>
<path d="M91.2087,250.866h 447.874" fill="none" stroke="black"/>
<path d="M91.2087,44.7975v 206.069" fill="none" stroke="black" stroke-dasharray=" 1, 2"/>
<path d="M113.602,44.7975v 206.069" fill="none" stroke="black" stroke-dasharray=" 1, 2"/>
<path d="M135.996,44.7975v 206.069" fill="none" stroke="black" stroke-dasharray=" 1, 2"/>
<path d="M158.39,44.7975v 206.069" fill="none" stroke="black" stroke-dasharray=" 1, 2"/>
<path d="M180.783,44.7975v 206.069" fill="none" stroke="black" stroke-dasharray=" 1, 2"/>
<path d="M203.177,44.7975v 206.069" fill="none" stroke="black" stroke-dasharray=" 1, 2"/>
<path d="M225.571,44.7975v 206.069" fill="none" stroke="black" stroke-dasharray=" 1, 2"/>
<path d="M247.965,44.7975v 206.069" fill="none" stroke="black" stroke-dasharray=" 1, 2"/>
<path d="M270.358,44.7975v 206.069" fill="none" stroke="black" stroke-dasharray=" 1, 2"/>
<path d="M292.752,44.7975v 206.069" fill="none" stroke="black" stroke-dasharray=" 1, 2"/>
<path d="M315.146,44.7975v 206.069" fill="none" stroke="black" stroke-dasharray=" 1, 2"/>
<path d="M337.539,44.7975v 206.069" fill="none" stroke="black" stroke-dasharray=" 1, 2"/>
<path d="M359.933,44.7975v 206.069" fill="none" stroke="black" stroke-dasharray=" 1, 2"/>
<path d="M382.327,44.7975v 206.069" fill="none" stroke="black" stroke-dasharray=" 1, 2"/>
<path d="M404.72,44.7975v 206.069" fill="none" stroke="black" stroke-dasharray=" 1, 2"/>
<path d="M427.114,44.7975v 206.069" fill="none" stroke="black" stroke-dasharray=" 1, 2"/>
<path d="M449.508,44.7975v 206.069" fill="none" stroke="black" stroke-dasharray=" 1, 2"/>
<path d="M471.902,44.7975v 206.069" fill="none" stroke="black" stroke-dasharray=" 1, 2"/>
<path d="M494.295,44.7975v 206.069" fill="none" stroke="black" stroke-dasharray=" 1, 2"/>
<path d="M516.689,44.7975v 206.069" fill="none" stroke="black" stroke-dasharray=" 1, 2"/>
<path d="M539.083,44.7975v 206.069" fill="none" stroke="black" stroke-dasharray=" 1, 2"/>
<path d="M91.2087,44.7975h 447.874" fill="none" stroke="black"/>
<path d="M91.2087,250.866v -206.069" fill="none" stroke="black"/>
<path d="M539.083,241.521h -447.874" fill="none" stroke="black" stroke-dasharray=" 1, 2"/>
<path d="M539.083,220.753h -447.874" fill="none" stroke="black" stroke-dasharray=" 1, 2"/>
<path d="M539.083,199.985h -447.874" fill="none" stroke="black" stroke-dasharray=" 1, 2"/>
<path d="M539.083,179.217h -447.874" fill="none" stroke="black" stroke-dasharray=" 1, 2"/>
<path d="M539.083,158.449h -447.874" fill="none" stroke="black" stroke-dasharray=" 1, 2"/>
<path d="M539.083,137.682h -447.874" fill="none" stroke="black" stroke-dasharray=" 1, 2"/>
<path d="M539.083,116.914h -447.874" fill="none" stroke="black" stroke-dasharray=" 1, 2"/>
<path d="M539.083,96.1459h -447.874" fill="none" stroke="black" stroke-dasharray=" 1, 2"/>
<path d="M539.083,75.3781h -447.874" fill="none" stroke="black" stroke-dasharray=" 1, 2"/>
<path d="M539.083,54.6103h -447.874" fill="none" stroke="black" stroke-dasharray=" 1, 2"/>
<path d="M539.083,241.521h -447.874" fill="none" stroke="black" stroke-dasharray=" 1, 2"/>
<path d="M539.083,54.6103h -447.874" fill="none" stroke="black" stroke-dasharray=" 1, 2"/>
<path d="M539.083,250.866v -206.069" fill="none" stroke="black"/>
<path d="M91.2087,250.866v -171.334h 22.3937v 24.9214h 22.3937v 99.6855h 22.3937v -107.993h 22.3937v 99.6855h 22.3937v -74.7641h 22.3937v 120.453h 22.3937v -12.4607h 22.3937v -70.6106h 22.3937v -24.9214h 22.3937v 41.5356h 22.3937v -83.0713h 22.3937v
 -20.7678h 22.3937v 49.8428h 22.3937v -66.457h 22.3937v 66.457h 22.3937v -33.2285h 22.3937v 53.9963h 22.3937v 12.4607h 22.3937v 16.6143h 22.3937v 79.9561z" fill="#7c99d1"/>
<path d="M91.2087,79.5317h 22.3937v 24.9214h 22.3937v 99.6855h 22.3937v -107.993h 22.3937v 99.6855h 22.3937v -74.7641h 22.3937v 120.453h 22.3937v -12.4607h 22.3937v -70.6106h 22.3937v -24.9214h 22.3937v 41.5356h 22.3937v -83.0713h 22.3937v -20.7678h
 22.3937v 49.8428h 22.3937v -66.457h 22.3937v 66.457h 22.3937v -33.2285h 22.3937v 53.9963h 22.3937v 12.4607h 22.3937v 16.6143h 22.3937" fill="none" stroke="black" stroke-width="2"/>
<path d="M91.2087,250.866h 447.874" fill="none" stroke="black"/>
<g transform="rotate(20,101.105,256.257)">
<text xml:space="preserve" x="101.105" y="256.257" fill="black" font-size="9.63294" font-family="Helvetica">Valery
</text>
</g>
<g transform="rotate(20,122.618,257.522)">
<text xml:space="preserve" x="122.618" y="257.522" fill="black" font-size="9.63294" font-family="Helvetica">Odile
</text>
</g>
<g transform="rotate(20,145.396,256.89)">
<text xml:space="preserve" x="145.396" y="256.89" fill="black" font-size="9.63294" font-family="Helvetica">Fons
</text>
</g>
<g transform="rotate(20,167.542,256.89)">
<text xml:space="preserve" x="167.542" y="256.89" fill="black" font-size="9.63294" font-family="Helvetica">Jeff
</text>
</g>
<g transform="rotate(20,190.32,257.522)">
<text xml:space="preserve" x="190.32" y="257.522" fill="black" font-size="9.63294" font-family="Helvetica">Sebastien
</text>
</g>
<g transform="rotate(20,213.098,256.257)">
<text xml:space="preserve" x="213.098" y="256.257" fill="black" font-size="9.63294" font-family="Helvetica">Greg
</text>
</g>
<g transform="rotate(20,234.611,256.89)">
<text xml:space="preserve" x="234.611" y="256.89" fill="black" font-size="9.63294" font-family="Helvetica">Peter
</text>
</g>
<g transform="rotate(20,258.022,256.257)">
<text xml:space="preserve" x="258.022" y="256.257" fill="black" font-size="9.63294" font-family="Helvetica">Bjarne
</text>
</g>
<g transform="rotate(20,279.535,256.89)">
<text xml:space="preserve" x="279.535" y="256.89" fill="black" font-size="9.63294" font-family="Helvetica">Pasha
</text>
</g>
<g transform="rotate(20,302.947,256.257)">
<text xml:space="preserve" x="302.947" y="256.257" fill="black" font-size="9.63294" font-family="Helvetica">Eddy
</text>
</g>
<g transform="rotate(20,324.46,256.89)">
<text xml:space="preserve" x="324.46" y="256.89" fill="black" font-size="9.63294" font-family="Helvetica">Rene
</text>
</g>
<g transform="rotate(20,347.238,256.257)">
<text xml:space="preserve" x="347.238" y="256.257" fill="black" font-size="9.63294" font-family="Helvetica">Philippe
</text>
</g>
<g transform="rotate(20,369.384,256.89)">
<text xml:space="preserve" x="369.384" y="256.89" fill="black" font-size="9.63294" font-family="Helvetica">Nicolas
</text>
</g>
<g transform="rotate(20,391.529,256.89)">
<text xml:space="preserve" x="391.529" y="256.89" fill="black" font-size="9.63294" font-family="Helvetica">Jean
</text>
</g>
<g transform="rotate(20,414.308,256.89)">
<text xml:space="preserve" x="414.308" y="256.89" fill="black" font-size="9.63294" font-family="Helvetica">Anton
</text>
</g>
<g transform="rotate(20,436.453,257.522)">
<text xml:space="preserve" x="436.453" y="257.522" fill="black" font-size="9.63294" font-family="Helvetica">Suzanne
</text>
</g>
<g transform="rotate(20,458.599,256.89)">
<text xml:space="preserve" x="458.599" y="256.89" fill="black" font-size="9.63294" font-family="Helvetica">Marie
</text>
</g>
<g transform="rotate(20,481.377,256.89)">
<text xml:space="preserve" x="481.377" y="256.89" fill="black" font-size="9.63294" font-family="Helvetica">Pierre
</text>
</g>
<g transform="rotate(20,503.523,257.522)">
<text xml:space="preserve" x="503.523" y="257.522" fill="black" font-size="9.63294" font-family="Helvetica">Otto
</text>
</g>
<g transform="rotate(20,526.301,256.89)">
<text xml:space="preserve" x="526.301" y="256.89" fill="black" font-size="9.63294" font-family="Helvetica">Xavier
</text>
</g>
<path d="M91.2087,243.788v 7.07801" fill="none" stroke="black"/>
<path d="M113.602,243.788v 7.07801" fill="none" stroke="black"/>
<path d="M135.996,243.788v 7.07801" fill="none" stroke="black"/>
<path d="M158.39,243.788v 7.07801" fill="none" stroke="black"/>
<path d="M180.783,243.788v 7.07801" fill="none" stroke="black"/>
<path d="M203.177,243.788v 7.07801" fill="none" stroke="black"/>
<path d="M225.571,243.788v 7.07801" fill="none" stroke="black"/>
<path d="M247.965,243.788v 7.07801" fill="none" stroke="black"/>
<path d="M270.358,243.788v 7.07801" fill="none" stroke="black"/>
<path d="M292.752,243.788v 7.07801" fill="none" stroke="black"/>
<path d="M315.146,243.788v 7.07801" fill="none" stroke="black"/>
<path d="M337.539,243.788v 7.07801" fill="none" stroke="black"/>
<path d="M359.933,243.788v 7.07801" fill="none" stroke="black"/>
<path d="M382.327,243.788v 7.07801" fill="none" stroke="black"/>
<path d="M404.72,243.788v 7.07801" fill="none" stroke="black"/>
<path d="M427.114,243.788v 7.07801" fill="none" stroke="black"/>
<path d="M449.508,243.788v 7.07801" fill="none" stroke="black"/>
<path d="M471.902,243.788v 7.07801" fill="none" stroke="black"/>
<path d="M494.295,243.788v 7.07801" fill="none" stroke="black"/>
<path d="M516.689,243.788v 7.07801" fill="none" stroke="black"/>
<path d="M539.083,243.788v 7.07801" fill="none" stroke="black"/>
<path d="M91.2087,44.7975h 447.874" fill="none" stroke="black"/>
<path d="M91.2087,51.8755v -7.07801" fill="none" stroke="black"/>
<path d="M113.602,51.8755v -7.07801" fill="none" stroke="black"/>
<path d="M135.996,51.8755v -7.07801" fill="none" stroke="black"/>
<path d="M158.39,51.8755v -7.07801" fill="none" stroke="black"/>
<path d="M180.783,51.8755v -7.07801" fill="none" stroke="black"/>
<path d="M203.177,51.8755v -7.07801" fill="none" stroke="black"/>
<path d="M225.571,51.8755v -7.07801" fill="none" stroke="black"/>
<path d="M247.965,51.8755v -7.07801" fill="none" stroke="black"/>
<path d="M270.358,51.8755v -7.07801" fill="none" stroke="black"/>
<path d="M292.752,51.8755v -7.07801" fill="none" stroke="black"/>
<path d="M315.146,51.8755v -7.07801" fill="none" stroke="black"/>
<path d="M337.539,51.8755v -7.07801" fill="none" stroke="black"/>
<path d="M359.933,51.8755v -7.07801" fill="none" stroke="black"/>
<path d="M382.327,51.8755v -7.07801" fill="none" stroke="black"/>
<path d="M404.72,51.8755v -7.07801" fill="none" stroke="black"/>
<path d="M427.114,51.8755v -7.07801" fill="none" stroke="black"/>
<path d="M449.508,51.8755v -7.07801" fill="none" stroke="black"/>
<path d="M471.902,51.8755v -7.07801" fill="none" stroke="black"/>
<path d="M494.295,51.8755v -7.07801" fill="none" stroke="black"/>
<path d="M516.689,51.8755v -7.07801" fill="none" stroke="black"/>
<path d="M539.083,51.8755v -7.07801" fill="none" stroke="black"/>
<path d="M91.2087,250.866v -206.069" fill="none" stroke="black"/>
<path d="M102.944,241.521h -11.7354" fill="none" stroke="black"/>
<path d="M97.0764,237.367h -5.86772" fill="none" stroke="black"/>
<path d="M97.0764,233.214h -5.86772" fill="none" stroke="black"/>
<path d="M97.0764,229.06h -5.86772" fill="none" stroke="black"/>
<path d="M97.0764,224.906h -5.86772" fill="none" stroke="black"/>
<path d="M102.944,220.753h -11.7354" fill="none" stroke="black"/>
<path d="M97.0764,216.599h -5.86772" fill="none" stroke="black"/>
<path d="M97.0764,212.446h -5.86772" fill="none" stroke="black"/>
<path d="M97.0764,208.292h -5.86772" fill="none" stroke="black"/>
<path d="M97.0764,204.139h -5.86772" fill="none" stroke="black"/>
<path d="M102.944,199.985h -11.7354" fill="none" stroke="black"/>
<path d="M97.0764,195.831h -5.86772" fill="none" stroke="black"/>
<path d="M97.0764,191.678h -5.86772" fill="none" stroke="black"/>
<path d="M97.0764,187.524h -5.86772" fill="none" stroke="black"/>
<path d="M97.0764,183.371h -5.86772" fill="none" stroke="black"/>
<path d="M102.944,179.217h -11.7354" fill="none" stroke="black"/>
<path d="M97.0764,175.064h -5.86772" fill="none" stroke="black"/>
<path d="M97.0764,170.91h -5.86772" fill="none" stroke="black"/>
<path d="M97.0764,166.757h -5.86772" fill="none" stroke="black"/>
<path d="M97.0764,162.603h -5.86772" fill="none" stroke="black"/>
<path d="M102.944,158.449h -11.7354" fill="none" stroke="black"/>
<path d="M97.0764,154.296h -5.86772" fill="none" stroke="black"/>
<path d="M97.0764,150.142h -5.86772" fill="none" stroke="black"/>
<path d="M97.0764,145.989h -5.86772" fill="none" stroke="black"/>
<path d="M97.0764,141.835h -5.86772" fill="none" stroke="black"/>
<path d="M102.944,137.682h -11.7354" fill="none" stroke="black"/>
<path d="M97.0764,133.528h -5.86772" fill="none" stroke="black"/>
<path d="M97.0764,129.374h -5.86772" fill="none" stroke="black"/>
<path d="M97.0764,125.221h -5.86772" fill="none" stroke="black"/>
<path d="M97.0764,121.067h -5.86772" fill="none" stroke="black"/>
<path d="M102.944,116.914h -11.7354" fill="none" stroke="black"/>
<path d="M97.0764,112.76h -5.86772" fill="none" stroke="black"/>
<path d="M97.0764,108.607h -5.86772" fill="none" stroke="black"/>
<path d="M97.0764,104.453h -5.86772" fill="none" stroke="black"/>
<path d="M97.0764,100.299h -5.86772" fill="none" stroke="black"/>
<path d="M102.944,96.1459h -11.7354" fill="none" stroke="black"/>
<path d="M97.0764,91.9924h -5.86772" fill="none" stroke="black"/>
<path d="M97.0764,87.8388h -5.86772" fill="none" stroke="black"/>
<path d="M97.0764,83.6852h -5.86772" fill="none" stroke="black"/>
<path d="M97.0764,79.5317h -5.86772" fill="none" stroke="black"/>
<path d="M102.944,75.3781h -11.7354" fill="none" stroke="black"/>
<path d="M97.0764,71.2246h -5.86772" fill="none" stroke="black"/>
<path d="M97.0764,67.071h -5.86772" fill="none" stroke="black"/>
<path d="M97.0764,62.9174h -5.86772" fill="none" stroke="black"/>
<path d="M97.0764,58.7639h -5.86772" fill="none" stroke="black"/>
<path d="M102.944,54.6103h -11.7354" fill="none" stroke="black"/>
<path d="M102.944,241.521h -11.7354" fill="none" stroke="black"/>
<path d="M97.0764,245.674h -5.86772" fill="none" stroke="black"/>
<path d="M97.0764,249.828h -5.86772" fill="none" stroke="black"/>
<path d="M102.944,54.6103h -11.7354" fill="none" stroke="black"/>
<path d="M97.0764,50.4568h -5.86772" fill="none" stroke="black"/>
<path d="M97.0764,46.3032h -5.86772" fill="none" stroke="black"/>
<text xml:space="preserve" x="65.6715" y="246.766" fill="black" font-size="14.1995" font-family="Helvetica">225
</text>
<text xml:space="preserve" x="65.6715" y="225.886" fill="black" font-size="14.1995" font-family="Helvetica">230
</text>
<text xml:space="preserve" x="65.6715" y="205.006" fill="black" font-size="14.1995" font-family="Helvetica">235
</text>
<text xml:space="preserve" x="65.6715" y="184.125" fill="black" font-size="14.1995" font-family="Helvetica">240
</text>
<text xml:space="preserve" x="65.6715" y="163.245" fill="black" font-size="14.1995" font-family="Helvetica">245
</text>
<text xml:space="preserve" x="65.6715" y="142.998" fill="black" font-size="14.1995" font-family="Helvetica">250
</text>
<text xml:space="preserve" x="65.6715" y="122.118" fill="black" font-size="14.1995" font-family="Helvetica">255
</text>
<text xml:space="preserve" x="65.6715" y="101.237" fill="black" font-size="14.1995" font-family="Helvetica">260
</text>
<text xml:space="preserve" x="65.6715" y="80.3571" fill="black" font-size="14.1995" font-family="Helvetica">265
</text>
<text xml:space="preserve" x="65.6715" y="59.4769" fill="black" font-size="14.1995" font-family="Helvetica">270
</text>
<path d="M539.083,250.866v -206.069" fill="none" stroke="black"/>
<path d="M527.347,241.521h 11.7354" fill="none" stroke="black"/>
<path d="M533.215,237.367h 5.86772" fill="none" stroke="black"/>
<path d="M533.215,233.214h 5.86772" fill="none" stroke="black"/>
<path d="M533.215,229.06h 5.86772" fill="none" stroke="black"/>
<path d="M533.215,224.906h 5.86772" fill="none" stroke="black"/>
<path d="M527.347,220.753h 11.7354" fill="none" stroke="black"/>
<path d="M533.215,216.599h 5.86772" fill="none" stroke="black"/>
<path d="M533.215,212.446h 5.86772" fill="none" stroke="black"/>
<path d="M533.215,208.292h 5.86772" fill="none" stroke="black"/>
<path d="M533.215,204.139h 5.86772" fill="none" stroke="black"/>
<path d="M527.347,199.985h 11.7354" fill="none" stroke="black"/>
<path d="M533.215,195.831h 5.86772" fill="none" stroke="black"/>
<path d="M533.215,191.678h 5.86772" fill="none" stroke="black"/>
<path d="M533.215,187.524h 5.86772" fill="none" stroke="black"/>
<path d="M533.215,183.371h 5.86772" fill="none" stroke="black"/>
<path d="M527.347,179.217h 11.7354" fill="none" stroke="black"/>
<path d="M533.215,175.064h 5.86772" fill="none" stroke="black"/>
<path d="M533.215,170.91h 5.86772" fill="none" stroke="black"/>
<path d="M533.215,166.757h 5.86772" fill="none" stroke="black"/>
<path d="M533.215,162.603h 5.86772" fill="none" stroke="black"/>
<path d="M527.347,158.449h 11.7354" fill="none" stroke="black"/>
<path d="M533.215,154.296h 5.86772" fill="none" stroke="black"/>
<path d="M533.215,150.142h 5.86772" fill="none" stroke="black"/>
<path d="M533.215,145.989h 5.86772" fill="none" stroke="black"/>
<path d="M533.215,141.835h 5.86772" fill="none" stroke="black"/>
<path d="M527.347,137.682h 11.7354" fill="none" stroke="black"/>
<path d="M533.215,133.528h 5.86772" fill="none" stroke="black"/>
<path d="M533.215,129.374h 5.86772" fill="none" stroke="black"/>
<path d="M533.215,125.221h 5.86772" fill="none" stroke="black"/>
<path d="M533.215,121.067h 5.86772" fill="none" stroke="black"/>
<path d="M527.347,116.914h 11.7354" fill="none" stroke="black"/>
<path d="M533.215,112.76h 5.86772" fill="none" stroke="black"/>
<path d="M533.215,108.607h 5.86772" fill="none" stroke="black"/>
<path d="M533.215,104.453h 5.86772" fill="none" stroke="black"/>
<path d="M533.215,100.299h 5.86772" fill="none" stroke="black"/>
<path d="M527.347,96.1459h 11.7354" fill="none" stroke="black"/>
<path d="M533.215,91.9924h 5.86772" fill="none" stroke="black"/>
<path d="M533.215,87.8388h 5.86772" fill="none" stroke="black"/>
<path d="M533.215,83.6852h 5.86772" fill="none" stroke="black"/>
<path d="M533.215,79.5317h 5.86772" fill="none" stroke="black"/>
<path d="M527.347,75.3781h 11.7354" fill="none" stroke="black"/>
<path d="M533.215,71.2246h 5.86772" fill="none" stroke="black"/>
<path d="M533.215,67.071h 5.86772" fill="none" stroke="black"/>
<path d="M533.215,62.9174h 5.86772" fill="none" stroke="black"/>
<path d="M533.215,58.7639h 5.86772" fill="none" stroke="black"/>
<path d="M527.347,54.6103h 11.7354" fill="none" stroke="black"/>
<path d="M527.347,241.521h 11.7354" fill="none" stroke="black"/>
<path d="M533.215,245.674h 5.86772" fill="none" stroke="black"/>
<path d="M533.215,249.828h 5.86772" fill="none" stroke="black"/>
<path d="M527.347,54.6103h 11.7354" fill="none" stroke="black"/>
<path d="M533.215,50.4568h 5.86772" fill="none" stroke="black"/>
<path d="M533.215,46.3032h 5.86772" fill="none" stroke="black"/>
<rect x="397.35" y="5.973" width="158.74" height="38.8245" fill="#e5e5e5"/>
<path d="M401.147,44.7975v 2.53093h 157.475v -37.5591h -2.53093v 35.0281z" fill="black"/>
<path d="M397.35,44.7975v -38.8245h 158.74v 38.8245h -158.74z" fill="none" stroke="black"/>
<text xml:space="preserve" x="405.449" y="13.2874" fill="black" font-size="8.069" font-family="Helvetica">Use the axis Context Menu LabelsOption
</text>
<text xml:space="preserve" x="405.449" y="22.7784" fill="black" font-size="8.069" font-family="Helvetica"> "a"   to sort by alphabetic order
</text>
<text xml:space="preserve" x="405.449" y="32.9021" fill="black" font-size="8.069" font-family="Helvetica"> "&gt;"   to sort by decreasing values
</text>
<text xml:space="preserve" x="405.449" y="42.3931" fill="black" font-size="8.069" font-family="Helvetica"> "&lt;"   to sort by increasing values
</text></svg>
