<?xml version="1.0" standalone="no"?>
<svg width="567.429" height="384.969" viewBox="0 0 567.429 384.969" xmlns="http://www.w3.org/2000/svg" shape-rendering="crispEdges">
<title>
./old_svg_ref/hlGraph1.svg
</title>
<desc>
Creator: ROOT Version 6.33.01
CreationDate: Wed Jul 10 09:57:54 2024</desc>
<defs>
</defs>
<rect x="0.5" y="0" width="566.929" height="384.469" fill="white"/>
<rect x="91.2087" y="19.2235" width="447.874" height="303.731" fill="white"/>
<rect x="91.2087" y="19.2235" width="447.874" height="303.731" fill="none" stroke="black"/>
<path d="M91.2087,322.954h 447.874" fill="none" stroke="black"/>
<path d="M91.2087,313.842v 9.11192" fill="none" stroke="black"/>
<path d="M107.528,318.398v 4.55596" fill="none" stroke="black"/>
<path d="M123.847,318.398v 4.55596" fill="none" stroke="black"/>
<path d="M140.166,318.398v 4.55596" fill="none" stroke="black"/>
<path d="M156.485,318.398v 4.55596" fill="none" stroke="black"/>
<path d="M172.803,313.842v 9.11192" fill="none" stroke="black"/>
<path d="M189.122,318.398v 4.55596" fill="none" stroke="black"/>
<path d="M205.441,318.398v 4.55596" fill="none" stroke="black"/>
<path d="M221.76,318.398v 4.55596" fill="none" stroke="black"/>
<path d="M238.079,318.398v 4.55596" fill="none" stroke="black"/>
<path d="M254.398,313.842v 9.11192" fill="none" stroke="black"/>
<path d="M270.717,318.398v 4.55596" fill="none" stroke="black"/>
<path d="M287.036,318.398v 4.55596" fill="none" stroke="black"/>
<path d="M303.355,318.398v 4.55596" fill="none" stroke="black"/>
<path d="M319.674,318.398v 4.55596" fill="none" stroke="black"/>
<path d="M335.993,313.842v 9.11192" fill="none" stroke="black"/>
<path d="M352.312,318.398v 4.55596" fill="none" stroke="black"/>
<path d="M368.631,318.398v 4.55596" fill="none" stroke="black"/>
<path d="M384.95,318.398v 4.55596" fill="none" stroke="black"/>
<path d="M401.269,318.398v 4.55596" fill="none" stroke="black"/>
<path d="M417.588,313.842v 9.11192" fill="none" stroke="black"/>
<path d="M433.907,318.398v 4.55596" fill="none" stroke="black"/>
<path d="M450.226,318.398v 4.55596" fill="none" stroke="black"/>
<path d="M466.545,318.398v 4.55596" fill="none" stroke="black"/>
<path d="M482.864,318.398v 4.55596" fill="none" stroke="black"/>
<path d="M499.183,313.842v 9.11192" fill="none" stroke="black"/>
<path d="M499.183,313.842v 9.11192" fill="none" stroke="black"/>
<path d="M515.502,318.398v 4.55596" fill="none" stroke="black"/>
<path d="M531.821,318.398v 4.55596" fill="none" stroke="black"/>
<text xml:space="preserve" x="86.0281" y="340.483" fill="black" font-size="18.1362" font-family="Helvetica">0
</text>
<text xml:space="preserve" x="158.523" y="340.483" fill="black" font-size="18.1362" font-family="Helvetica">100
</text>
<text xml:space="preserve" x="239.979" y="340.483" fill="black" font-size="18.1362" font-family="Helvetica">200
</text>
<text xml:space="preserve" x="321.434" y="340.483" fill="black" font-size="18.1362" font-family="Helvetica">300
</text>
<text xml:space="preserve" x="402.889" y="340.483" fill="black" font-size="18.1362" font-family="Helvetica">400
</text>
<text xml:space="preserve" x="484.345" y="340.483" fill="black" font-size="18.1362" font-family="Helvetica">500
</text>
<path d="M91.2087,19.2235h 447.874" fill="none" stroke="black"/>
<path d="M91.2087,28.3354v -9.11192" fill="none" stroke="black"/>
<path d="M107.528,23.7794v -4.55596" fill="none" stroke="black"/>
<path d="M123.847,23.7794v -4.55596" fill="none" stroke="black"/>
<path d="M140.166,23.7794v -4.55596" fill="none" stroke="black"/>
<path d="M156.485,23.7794v -4.55596" fill="none" stroke="black"/>
<path d="M172.803,28.3354v -9.11192" fill="none" stroke="black"/>
<path d="M189.122,23.7794v -4.55596" fill="none" stroke="black"/>
<path d="M205.441,23.7794v -4.55596" fill="none" stroke="black"/>
<path d="M221.76,23.7794v -4.55596" fill="none" stroke="black"/>
<path d="M238.079,23.7794v -4.55596" fill="none" stroke="black"/>
<path d="M254.398,28.3354v -9.11192" fill="none" stroke="black"/>
<path d="M270.717,23.7794v -4.55596" fill="none" stroke="black"/>
<path d="M287.036,23.7794v -4.55596" fill="none" stroke="black"/>
<path d="M303.355,23.7794v -4.55596" fill="none" stroke="black"/>
<path d="M319.674,23.7794v -4.55596" fill="none" stroke="black"/>
<path d="M335.993,28.3354v -9.11192" fill="none" stroke="black"/>
<path d="M352.312,23.7794v -4.55596" fill="none" stroke="black"/>
<path d="M368.631,23.7794v -4.55596" fill="none" stroke="black"/>
<path d="M384.95,23.7794v -4.55596" fill="none" stroke="black"/>
<path d="M401.269,23.7794v -4.55596" fill="none" stroke="black"/>
<path d="M417.588,28.3354v -9.11192" fill="none" stroke="black"/>
<path d="M433.907,23.7794v -4.55596" fill="none" stroke="black"/>
<path d="M450.226,23.7794v -4.55596" fill="none" stroke="black"/>
<path d="M466.545,23.7794v -4.55596" fill="none" stroke="black"/>
<path d="M482.864,23.7794v -4.55596" fill="none" stroke="black"/>
<path d="M499.183,28.3354v -9.11192" fill="none" stroke="black"/>
<path d="M499.183,28.3354v -9.11192" fill="none" stroke="black"/>
<path d="M515.502,23.7794v -4.55596" fill="none" stroke="black"/>
<path d="M531.821,23.7794v -4.55596" fill="none" stroke="black"/>
<path d="M91.2087,322.954v -303.731" fill="none" stroke="black"/>
<path d="M104.645,266.468h -13.4362" fill="none" stroke="black"/>
<path d="M97.9268,251.676h -6.71811" fill="none" stroke="black"/>
<path d="M97.9268,236.883h -6.71811" fill="none" stroke="black"/>
<path d="M97.9268,222.091h -6.71811" fill="none" stroke="black"/>
<path d="M104.645,207.298h -13.4362" fill="none" stroke="black"/>
<path d="M97.9268,192.505h -6.71811" fill="none" stroke="black"/>
<path d="M97.9268,177.713h -6.71811" fill="none" stroke="black"/>
<path d="M97.9268,162.92h -6.71811" fill="none" stroke="black"/>
<path d="M104.645,148.127h -13.4362" fill="none" stroke="black"/>
<path d="M97.9268,133.335h -6.71811" fill="none" stroke="black"/>
<path d="M97.9268,118.542h -6.71811" fill="none" stroke="black"/>
<path d="M97.9268,103.75h -6.71811" fill="none" stroke="black"/>
<path d="M104.645,88.957h -13.4362" fill="none" stroke="black"/>
<path d="M97.9268,74.1644h -6.71811" fill="none" stroke="black"/>
<path d="M97.9268,59.3718h -6.71811" fill="none" stroke="black"/>
<path d="M97.9268,44.5792h -6.71811" fill="none" stroke="black"/>
<path d="M104.645,29.7866h -13.4362" fill="none" stroke="black"/>
<path d="M104.645,266.468h -13.4362" fill="none" stroke="black"/>
<path d="M97.9268,281.261h -6.71811" fill="none" stroke="black"/>
<path d="M97.9268,296.054h -6.71811" fill="none" stroke="black"/>
<path d="M97.9268,310.846h -6.71811" fill="none" stroke="black"/>
<path d="M104.645,29.7866h -13.4362" fill="none" stroke="black"/>
<text xml:space="preserve" x="64.0352" y="272.875" fill="black" font-size="18.1362" font-family="Helvetica">0.2
</text>
<text xml:space="preserve" x="64.0352" y="213.413" fill="black" font-size="18.1362" font-family="Helvetica">0.4
</text>
<text xml:space="preserve" x="64.0352" y="154.765" fill="black" font-size="18.1362" font-family="Helvetica">0.6
</text>
<text xml:space="preserve" x="64.0352" y="95.3027" fill="black" font-size="18.1362" font-family="Helvetica">0.8
</text>
<text xml:space="preserve" x="81.9553" y="37.4695" fill="black" font-size="18.1362" font-family="Helvetica">1
</text>
<path d="M539.083,322.954v -303.731" fill="none" stroke="black"/>
<path d="M525.646,266.468h 13.4362" fill="none" stroke="black"/>
<path d="M532.365,251.676h 6.71811" fill="none" stroke="black"/>
<path d="M532.365,236.883h 6.71811" fill="none" stroke="black"/>
<path d="M532.365,222.091h 6.71811" fill="none" stroke="black"/>
<path d="M525.646,207.298h 13.4362" fill="none" stroke="black"/>
<path d="M532.365,192.505h 6.71811" fill="none" stroke="black"/>
<path d="M532.365,177.713h 6.71811" fill="none" stroke="black"/>
<path d="M532.365,162.92h 6.71811" fill="none" stroke="black"/>
<path d="M525.646,148.127h 13.4362" fill="none" stroke="black"/>
<path d="M532.365,133.335h 6.71811" fill="none" stroke="black"/>
<path d="M532.365,118.542h 6.71811" fill="none" stroke="black"/>
<path d="M532.365,103.75h 6.71811" fill="none" stroke="black"/>
<path d="M525.646,88.957h 13.4362" fill="none" stroke="black"/>
<path d="M532.365,74.1644h 6.71811" fill="none" stroke="black"/>
<path d="M532.365,59.3718h 6.71811" fill="none" stroke="black"/>
<path d="M532.365,44.5792h 6.71811" fill="none" stroke="black"/>
<path d="M525.646,29.7866h 13.4362" fill="none" stroke="black"/>
<path d="M525.646,266.468h 13.4362" fill="none" stroke="black"/>
<path d="M532.365,281.261h 6.71811" fill="none" stroke="black"/>
<path d="M532.365,296.054h 6.71811" fill="none" stroke="black"/>
<path d="M532.365,310.846h 6.71811" fill="none" stroke="black"/>
<path d="M525.646,29.7866h 13.4362" fill="none" stroke="black"/>
<g fill="black">
<circle cx="91.2087" cy="44.5343" r="0.0651643"/>
<circle cx="92.0246" cy="49.2561" r="0.0651643"/>
<circle cx="92.8406" cy="61.407" r="0.0651643"/>
<circle cx="93.6565" cy="50.4813" r="0.0651643"/>
<circle cx="94.4725" cy="50.0203" r="0.0651643"/>
<circle cx="95.2884" cy="72.3334" r="0.0651643"/>
<circle cx="96.1043" cy="74.077" r="0.0651643"/>
<circle cx="96.9203" cy="86.0858" r="0.0651643"/>
<circle cx="97.7362" cy="93.1369" r="0.0651643"/>
<circle cx="98.5522" cy="102.135" r="0.0651643"/>
<circle cx="99.3681" cy="99.7946" r="0.0651643"/>
<circle cx="100.184" cy="99.5712" r="0.0651643"/>
<circle cx="101" cy="101.45" r="0.0651643"/>
<circle cx="101.816" cy="96.2926" r="0.0651643"/>
<circle cx="102.632" cy="97.5911" r="0.0651643"/>
<circle cx="103.448" cy="100.051" r="0.0651643"/>
<circle cx="104.264" cy="110.456" r="0.0651643"/>
<circle cx="105.08" cy="101.858" r="0.0651643"/>
<circle cx="105.896" cy="105.704" r="0.0651643"/>
<circle cx="106.712" cy="117.826" r="0.0651643"/>
<circle cx="107.528" cy="118.314" r="0.0651643"/>
<circle cx="108.344" cy="126.169" r="0.0651643"/>
<circle cx="109.16" cy="135.279" r="0.0651643"/>
<circle cx="109.975" cy="140.327" r="0.0651643"/>
<circle cx="110.791" cy="149.965" r="0.0651643"/>
<circle cx="111.607" cy="157.352" r="0.0651643"/>
<circle cx="112.423" cy="160.944" r="0.0651643"/>
<circle cx="113.239" cy="166.424" r="0.0651643"/>
<circle cx="114.055" cy="170.478" r="0.0651643"/>
<circle cx="114.871" cy="165.325" r="0.0651643"/>
<circle cx="115.687" cy="176.508" r="0.0651643"/>
<circle cx="116.503" cy="170.29" r="0.0651643"/>
<circle cx="117.319" cy="178.611" r="0.0651643"/>
<circle cx="118.135" cy="184.897" r="0.0651643"/>
<circle cx="118.951" cy="192.379" r="0.0651643"/>
<circle cx="119.767" cy="195.08" r="0.0651643"/>
<circle cx="120.583" cy="203.348" r="0.0651643"/>
<circle cx="121.399" cy="204.679" r="0.0651643"/>
<circle cx="122.215" cy="204.591" r="0.0651643"/>
<circle cx="123.031" cy="207.762" r="0.0651643"/>
<circle cx="123.847" cy="208.914" r="0.0651643"/>
<circle cx="124.663" cy="211.774" r="0.0651643"/>
<circle cx="125.478" cy="216.542" r="0.0651643"/>
<circle cx="126.294" cy="222.028" r="0.0651643"/>
<circle cx="127.11" cy="222.154" r="0.0651643"/>
<circle cx="127.926" cy="223.069" r="0.0651643"/>
<circle cx="128.742" cy="224.957" r="0.0651643"/>
<circle cx="129.558" cy="223.891" r="0.0651643"/>
<circle cx="130.374" cy="228.788" r="0.0651643"/>
<circle cx="131.19" cy="235.618" r="0.0651643"/>
<circle cx="132.006" cy="235.198" r="0.0651643"/>
<circle cx="132.822" cy="237.836" r="0.0651643"/>
<circle cx="133.638" cy="238.503" r="0.0651643"/>
<circle cx="134.454" cy="243.012" r="0.0651643"/>
<circle cx="135.27" cy="240.408" r="0.0651643"/>
<circle cx="136.086" cy="243.176" r="0.0651643"/>
<circle cx="136.902" cy="243.124" r="0.0651643"/>
<circle cx="137.718" cy="244.709" r="0.0651643"/>
<circle cx="138.534" cy="243.76" r="0.0651643"/>
<circle cx="139.35" cy="246.767" r="0.0651643"/>
<circle cx="140.166" cy="244.179" r="0.0651643"/>
<circle cx="140.982" cy="246.364" r="0.0651643"/>
<circle cx="141.797" cy="248.945" r="0.0651643"/>
<circle cx="142.613" cy="251.434" r="0.0651643"/>
<circle cx="143.429" cy="252.526" r="0.0651643"/>
<circle cx="144.245" cy="252.843" r="0.0651643"/>
<circle cx="145.061" cy="253.264" r="0.0651643"/>
<circle cx="145.877" cy="256.87" r="0.0651643"/>
<circle cx="146.693" cy="260.003" r="0.0651643"/>
<circle cx="147.509" cy="257.25" r="0.0651643"/>
<circle cx="148.325" cy="258.996" r="0.0651643"/>
<circle cx="149.141" cy="260.318" r="0.0651643"/>
<circle cx="149.957" cy="258.643" r="0.0651643"/>
<circle cx="150.773" cy="263.59" r="0.0651643"/>
<circle cx="151.589" cy="266.352" r="0.0651643"/>
<circle cx="152.405" cy="266.805" r="0.0651643"/>
<circle cx="153.221" cy="267.938" r="0.0651643"/>
<circle cx="154.037" cy="267.482" r="0.0651643"/>
<circle cx="154.853" cy="268.345" r="0.0651643"/>
<circle cx="155.669" cy="269.514" r="0.0651643"/>
<circle cx="156.485" cy="273.078" r="0.0651643"/>
<circle cx="157.3" cy="277.057" r="0.0651643"/>
<circle cx="158.116" cy="276.331" r="0.0651643"/>
<circle cx="158.932" cy="276.786" r="0.0651643"/>
<circle cx="159.748" cy="278.074" r="0.0651643"/>
<circle cx="160.564" cy="278.209" r="0.0651643"/>
<circle cx="161.38" cy="277.85" r="0.0651643"/>
<circle cx="162.196" cy="278.831" r="0.0651643"/>
<circle cx="163.012" cy="280.933" r="0.0651643"/>
<circle cx="163.828" cy="282.043" r="0.0651643"/>
<circle cx="164.644" cy="282.234" r="0.0651643"/>
<circle cx="165.46" cy="282.608" r="0.0651643"/>
<circle cx="166.276" cy="283.693" r="0.0651643"/>
<circle cx="167.092" cy="282.926" r="0.0651643"/>
<circle cx="167.908" cy="282.162" r="0.0651643"/>
<circle cx="168.724" cy="282.657" r="0.0651643"/>
<circle cx="169.54" cy="281.537" r="0.0651643"/>
<circle cx="170.356" cy="282.711" r="0.0651643"/>
<circle cx="171.172" cy="280.594" r="0.0651643"/>
<circle cx="171.988" cy="279.168" r="0.0651643"/>
<circle cx="172.803" cy="281.317" r="0.0651643"/>
<circle cx="173.619" cy="282.608" r="0.0651643"/>
<circle cx="174.435" cy="281.917" r="0.0651643"/>
<circle cx="175.251" cy="283.563" r="0.0651643"/>
<circle cx="176.067" cy="284.012" r="0.0651643"/>
<circle cx="176.883" cy="283.839" r="0.0651643"/>
<circle cx="177.699" cy="283.574" r="0.0651643"/>
<circle cx="178.515" cy="283.533" r="0.0651643"/>
<circle cx="179.331" cy="284.941" r="0.0651643"/>
<circle cx="180.147" cy="284.785" r="0.0651643"/>
<circle cx="180.963" cy="285.499" r="0.0651643"/>
<circle cx="181.779" cy="285.546" r="0.0651643"/>
<circle cx="182.595" cy="286.784" r="0.0651643"/>
<circle cx="183.411" cy="287.541" r="0.0651643"/>
<circle cx="184.227" cy="287.015" r="0.0651643"/>
<circle cx="185.043" cy="288.182" r="0.0651643"/>
<circle cx="185.859" cy="289.998" r="0.0651643"/>
<circle cx="186.675" cy="289.23" r="0.0651643"/>
<circle cx="187.491" cy="289.67" r="0.0651643"/>
<circle cx="188.307" cy="290.115" r="0.0651643"/>
<circle cx="189.122" cy="290.433" r="0.0651643"/>
<circle cx="189.938" cy="290.431" r="0.0651643"/>
<circle cx="190.754" cy="289.855" r="0.0651643"/>
<circle cx="191.57" cy="290.56" r="0.0651643"/>
<circle cx="192.386" cy="290.647" r="0.0651643"/>
<circle cx="193.202" cy="291.575" r="0.0651643"/>
<circle cx="194.018" cy="291.29" r="0.0651643"/>
<circle cx="194.834" cy="292.249" r="0.0651643"/>
<circle cx="195.65" cy="291.712" r="0.0651643"/>
<circle cx="196.466" cy="291.08" r="0.0651643"/>
<circle cx="197.282" cy="290.8" r="0.0651643"/>
<circle cx="198.098" cy="291.534" r="0.0651643"/>
<circle cx="198.914" cy="291.071" r="0.0651643"/>
<circle cx="199.73" cy="291.266" r="0.0651643"/>
<circle cx="200.546" cy="291.472" r="0.0651643"/>
<circle cx="201.362" cy="291.735" r="0.0651643"/>
<circle cx="202.178" cy="291.907" r="0.0651643"/>
<circle cx="202.994" cy="293.749" r="0.0651643"/>
<circle cx="203.81" cy="293.112" r="0.0651643"/>
<circle cx="204.625" cy="292.263" r="0.0651643"/>
<circle cx="205.441" cy="292.417" r="0.0651643"/>
<circle cx="206.257" cy="293.098" r="0.0651643"/>
<circle cx="207.073" cy="292.7" r="0.0651643"/>
<circle cx="207.889" cy="292.412" r="0.0651643"/>
<circle cx="208.705" cy="291.498" r="0.0651643"/>
<circle cx="209.521" cy="292.245" r="0.0651643"/>
<circle cx="210.337" cy="291.574" r="0.0651643"/>
<circle cx="211.153" cy="291.41" r="0.0651643"/>
<circle cx="211.969" cy="291.374" r="0.0651643"/>
<circle cx="212.785" cy="292.657" r="0.0651643"/>
<circle cx="213.601" cy="293.461" r="0.0651643"/>
<circle cx="214.417" cy="293.55" r="0.0651643"/>
<circle cx="215.233" cy="294.978" r="0.0651643"/>
<circle cx="216.049" cy="295.123" r="0.0651643"/>
<circle cx="216.865" cy="294.172" r="0.0651643"/>
<circle cx="217.681" cy="293.952" r="0.0651643"/>
<circle cx="218.497" cy="294.288" r="0.0651643"/>
<circle cx="219.313" cy="293.715" r="0.0651643"/>
<circle cx="220.128" cy="293.083" r="0.0651643"/>
<circle cx="220.944" cy="293.945" r="0.0651643"/>
<circle cx="221.76" cy="295.093" r="0.0651643"/>
<circle cx="222.576" cy="295.384" r="0.0651643"/>
<circle cx="223.392" cy="295.434" r="0.0651643"/>
<circle cx="224.208" cy="294.633" r="0.0651643"/>
<circle cx="225.024" cy="294.545" r="0.0651643"/>
<circle cx="225.84" cy="294.006" r="0.0651643"/>
<circle cx="226.656" cy="293.504" r="0.0651643"/>
<circle cx="227.472" cy="293.168" r="0.0651643"/>
<circle cx="228.288" cy="292.41" r="0.0651643"/>
<circle cx="229.104" cy="291.599" r="0.0651643"/>
<circle cx="229.92" cy="292.219" r="0.0651643"/>
<circle cx="230.736" cy="292.593" r="0.0651643"/>
<circle cx="231.552" cy="291.881" r="0.0651643"/>
<circle cx="232.368" cy="291.749" r="0.0651643"/>
<circle cx="233.184" cy="290.953" r="0.0651643"/>
<circle cx="234" cy="291.662" r="0.0651643"/>
<circle cx="234.816" cy="290.57" r="0.0651643"/>
<circle cx="235.632" cy="292.221" r="0.0651643"/>
<circle cx="236.447" cy="291.428" r="0.0651643"/>
<circle cx="237.263" cy="292.05" r="0.0651643"/>
<circle cx="238.079" cy="291.86" r="0.0651643"/>
<circle cx="238.895" cy="294" r="0.0651643"/>
<circle cx="239.711" cy="293.696" r="0.0651643"/>
<circle cx="240.527" cy="292.889" r="0.0651643"/>
<circle cx="241.343" cy="292.529" r="0.0651643"/>
<circle cx="242.159" cy="294.004" r="0.0651643"/>
<circle cx="242.975" cy="294.294" r="0.0651643"/>
<circle cx="243.791" cy="294.478" r="0.0651643"/>
<circle cx="244.607" cy="295.089" r="0.0651643"/>
<circle cx="245.423" cy="295.703" r="0.0651643"/>
<circle cx="246.239" cy="295.449" r="0.0651643"/>
<circle cx="247.055" cy="294.86" r="0.0651643"/>
<circle cx="247.871" cy="296.187" r="0.0651643"/>
<circle cx="248.687" cy="296.929" r="0.0651643"/>
<circle cx="249.503" cy="297.643" r="0.0651643"/>
<circle cx="250.319" cy="297.48" r="0.0651643"/>
<circle cx="251.135" cy="296.11" r="0.0651643"/>
<circle cx="251.95" cy="295.83" r="0.0651643"/>
<circle cx="252.766" cy="295.698" r="0.0651643"/>
<circle cx="253.582" cy="295.494" r="0.0651643"/>
<circle cx="254.398" cy="297.145" r="0.0651643"/>
<circle cx="255.214" cy="295.528" r="0.0651643"/>
<circle cx="256.03" cy="295.77" r="0.0651643"/>
<circle cx="256.846" cy="294.862" r="0.0651643"/>
<circle cx="257.662" cy="294.621" r="0.0651643"/>
<circle cx="258.478" cy="294.71" r="0.0651643"/>
<circle cx="259.294" cy="294.657" r="0.0651643"/>
<circle cx="260.11" cy="293.092" r="0.0651643"/>
<circle cx="260.926" cy="293.356" r="0.0651643"/>
<circle cx="261.742" cy="292.058" r="0.0651643"/>
<circle cx="262.558" cy="293.204" r="0.0651643"/>
<circle cx="263.374" cy="293.144" r="0.0651643"/>
<circle cx="264.19" cy="293.278" r="0.0651643"/>
<circle cx="265.006" cy="293.185" r="0.0651643"/>
<circle cx="265.822" cy="293.344" r="0.0651643"/>
<circle cx="266.638" cy="292.401" r="0.0651643"/>
<circle cx="267.453" cy="292.773" r="0.0651643"/>
<circle cx="268.269" cy="294.182" r="0.0651643"/>
<circle cx="269.085" cy="294.397" r="0.0651643"/>
<circle cx="269.901" cy="294.819" r="0.0651643"/>
<circle cx="270.717" cy="294.008" r="0.0651643"/>
<circle cx="271.533" cy="294.159" r="0.0651643"/>
<circle cx="272.349" cy="293.026" r="0.0651643"/>
<circle cx="273.165" cy="292.537" r="0.0651643"/>
<circle cx="273.981" cy="292.661" r="0.0651643"/>
<circle cx="274.797" cy="291.787" r="0.0651643"/>
<circle cx="275.613" cy="290.827" r="0.0651643"/>
<circle cx="276.429" cy="291.551" r="0.0651643"/>
<circle cx="277.245" cy="291.047" r="0.0651643"/>
<circle cx="278.061" cy="291.612" r="0.0651643"/>
<circle cx="278.877" cy="291.071" r="0.0651643"/>
<circle cx="279.693" cy="289.928" r="0.0651643"/>
<circle cx="280.509" cy="290.35" r="0.0651643"/>
<circle cx="281.325" cy="290.103" r="0.0651643"/>
<circle cx="282.141" cy="290.611" r="0.0651643"/>
<circle cx="282.957" cy="291.491" r="0.0651643"/>
<circle cx="283.772" cy="291.009" r="0.0651643"/>
<circle cx="284.588" cy="292.403" r="0.0651643"/>
<circle cx="285.404" cy="293.489" r="0.0651643"/>
<circle cx="286.22" cy="292.73" r="0.0651643"/>
<circle cx="287.036" cy="291.999" r="0.0651643"/>
<circle cx="287.852" cy="292.797" r="0.0651643"/>
<circle cx="288.668" cy="292.988" r="0.0651643"/>
<circle cx="289.484" cy="293.467" r="0.0651643"/>
<circle cx="290.3" cy="293.475" r="0.0651643"/>
<circle cx="291.116" cy="294.135" r="0.0651643"/>
<circle cx="291.932" cy="294.313" r="0.0651643"/>
<circle cx="292.748" cy="293.814" r="0.0651643"/>
<circle cx="293.564" cy="293.64" r="0.0651643"/>
<circle cx="294.38" cy="293.899" r="0.0651643"/>
<circle cx="295.196" cy="293.768" r="0.0651643"/>
<circle cx="296.012" cy="293.938" r="0.0651643"/>
<circle cx="296.828" cy="292.983" r="0.0651643"/>
<circle cx="297.644" cy="292.428" r="0.0651643"/>
<circle cx="298.46" cy="291.36" r="0.0651643"/>
<circle cx="299.275" cy="291.401" r="0.0651643"/>
<circle cx="300.091" cy="291.303" r="0.0651643"/>
<circle cx="300.907" cy="291.997" r="0.0651643"/>
<circle cx="301.723" cy="291.511" r="0.0651643"/>
<circle cx="302.539" cy="291.068" r="0.0651643"/>
<circle cx="303.355" cy="292.568" r="0.0651643"/>
<circle cx="304.171" cy="293.781" r="0.0651643"/>
<circle cx="304.987" cy="294.296" r="0.0651643"/>
<circle cx="305.803" cy="293.853" r="0.0651643"/>
<circle cx="306.619" cy="293.344" r="0.0651643"/>
<circle cx="307.435" cy="292.852" r="0.0651643"/>
<circle cx="308.251" cy="293.794" r="0.0651643"/>
<circle cx="309.067" cy="293.679" r="0.0651643"/>
<circle cx="309.883" cy="294.013" r="0.0651643"/>
<circle cx="310.699" cy="292.806" r="0.0651643"/>
<circle cx="311.515" cy="291.971" r="0.0651643"/>
<circle cx="312.331" cy="292.561" r="0.0651643"/>
<circle cx="313.147" cy="293.032" r="0.0651643"/>
<circle cx="313.963" cy="292.528" r="0.0651643"/>
<circle cx="314.779" cy="293.9" r="0.0651643"/>
<circle cx="315.594" cy="294.2" r="0.0651643"/>
<circle cx="316.41" cy="295.016" r="0.0651643"/>
<circle cx="317.226" cy="294.317" r="0.0651643"/>
<circle cx="318.042" cy="294.102" r="0.0651643"/>
<circle cx="318.858" cy="294.429" r="0.0651643"/>
<circle cx="319.674" cy="293.479" r="0.0651643"/>
<circle cx="320.49" cy="292.578" r="0.0651643"/>
<circle cx="321.306" cy="291.73" r="0.0651643"/>
<circle cx="322.122" cy="291.316" r="0.0651643"/>
<circle cx="322.938" cy="291.003" r="0.0651643"/>
<circle cx="323.754" cy="293.054" r="0.0651643"/>
<circle cx="324.57" cy="292.47" r="0.0651643"/>
<circle cx="325.386" cy="292.336" r="0.0651643"/>
<circle cx="326.202" cy="293.289" r="0.0651643"/>
<circle cx="327.018" cy="293.486" r="0.0651643"/>
<circle cx="327.834" cy="293.444" r="0.0651643"/>
<circle cx="328.65" cy="294.108" r="0.0651643"/>
<circle cx="329.466" cy="294.019" r="0.0651643"/>
<circle cx="330.281" cy="294.308" r="0.0651643"/>
<circle cx="331.097" cy="293.527" r="0.0651643"/>
<circle cx="331.913" cy="291.924" r="0.0651643"/>
<circle cx="332.729" cy="291.317" r="0.0651643"/>
<circle cx="333.545" cy="289.57" r="0.0651643"/>
<circle cx="334.361" cy="290.444" r="0.0651643"/>
<circle cx="335.177" cy="290.522" r="0.0651643"/>
<circle cx="335.993" cy="289.391" r="0.0651643"/>
<circle cx="336.809" cy="288.792" r="0.0651643"/>
<circle cx="337.625" cy="288.694" r="0.0651643"/>
<circle cx="338.441" cy="290.021" r="0.0651643"/>
<circle cx="339.257" cy="290.232" r="0.0651643"/>
<circle cx="340.073" cy="289.665" r="0.0651643"/>
<circle cx="340.889" cy="289.86" r="0.0651643"/>
<circle cx="341.705" cy="290.309" r="0.0651643"/>
<circle cx="342.521" cy="290.657" r="0.0651643"/>
<circle cx="343.337" cy="291.009" r="0.0651643"/>
<circle cx="344.153" cy="290.732" r="0.0651643"/>
<circle cx="344.969" cy="291.373" r="0.0651643"/>
<circle cx="345.785" cy="290.527" r="0.0651643"/>
<circle cx="346.6" cy="291.544" r="0.0651643"/>
<circle cx="347.416" cy="292.033" r="0.0651643"/>
<circle cx="348.232" cy="292.045" r="0.0651643"/>
<circle cx="349.048" cy="290.784" r="0.0651643"/>
<circle cx="349.864" cy="291.169" r="0.0651643"/>
<circle cx="350.68" cy="290.851" r="0.0651643"/>
<circle cx="351.496" cy="292.184" r="0.0651643"/>
<circle cx="352.312" cy="292.763" r="0.0651643"/>
<circle cx="353.128" cy="292.639" r="0.0651643"/>
<circle cx="353.944" cy="293.244" r="0.0651643"/>
<circle cx="354.76" cy="292.399" r="0.0651643"/>
<circle cx="355.576" cy="292.18" r="0.0651643"/>
<circle cx="356.392" cy="290.49" r="0.0651643"/>
<circle cx="357.208" cy="290.309" r="0.0651643"/>
<circle cx="358.024" cy="291.238" r="0.0651643"/>
<circle cx="358.84" cy="290.88" r="0.0651643"/>
<circle cx="359.656" cy="291.815" r="0.0651643"/>
<circle cx="360.472" cy="289.724" r="0.0651643"/>
<circle cx="361.288" cy="290.448" r="0.0651643"/>
<circle cx="362.103" cy="289.984" r="0.0651643"/>
<circle cx="362.919" cy="289.044" r="0.0651643"/>
<circle cx="363.735" cy="288.784" r="0.0651643"/>
<circle cx="364.551" cy="289.433" r="0.0651643"/>
<circle cx="365.367" cy="289.477" r="0.0651643"/>
<circle cx="366.183" cy="289.411" r="0.0651643"/>
<circle cx="366.999" cy="288.666" r="0.0651643"/>
<circle cx="367.815" cy="288.786" r="0.0651643"/>
<circle cx="368.631" cy="289.252" r="0.0651643"/>
<circle cx="369.447" cy="289.931" r="0.0651643"/>
<circle cx="370.263" cy="289.892" r="0.0651643"/>
<circle cx="371.079" cy="290.618" r="0.0651643"/>
<circle cx="371.895" cy="291.725" r="0.0651643"/>
<circle cx="372.711" cy="293.536" r="0.0651643"/>
<circle cx="373.527" cy="293.735" r="0.0651643"/>
<circle cx="374.343" cy="293.722" r="0.0651643"/>
<circle cx="375.159" cy="293.644" r="0.0651643"/>
<circle cx="375.975" cy="292.704" r="0.0651643"/>
<circle cx="376.791" cy="292.007" r="0.0651643"/>
<circle cx="377.607" cy="291.939" r="0.0651643"/>
<circle cx="378.422" cy="291.57" r="0.0651643"/>
<circle cx="379.238" cy="290.899" r="0.0651643"/>
<circle cx="380.054" cy="290.46" r="0.0651643"/>
<circle cx="380.87" cy="289.912" r="0.0651643"/>
<circle cx="381.686" cy="290.487" r="0.0651643"/>
<circle cx="382.502" cy="289.493" r="0.0651643"/>
<circle cx="383.318" cy="288.487" r="0.0651643"/>
<circle cx="384.134" cy="288.248" r="0.0651643"/>
<circle cx="384.95" cy="288.424" r="0.0651643"/>
<circle cx="385.766" cy="287.671" r="0.0651643"/>
<circle cx="386.582" cy="288.038" r="0.0651643"/>
<circle cx="387.398" cy="289.265" r="0.0651643"/>
<circle cx="388.214" cy="289.245" r="0.0651643"/>
<circle cx="389.03" cy="290.32" r="0.0651643"/>
<circle cx="389.846" cy="289.824" r="0.0651643"/>
<circle cx="390.662" cy="290.935" r="0.0651643"/>
<circle cx="391.478" cy="291.641" r="0.0651643"/>
<circle cx="392.294" cy="291.592" r="0.0651643"/>
<circle cx="393.11" cy="294.062" r="0.0651643"/>
<circle cx="393.925" cy="293.209" r="0.0651643"/>
<circle cx="394.741" cy="292.39" r="0.0651643"/>
<circle cx="395.557" cy="291.432" r="0.0651643"/>
<circle cx="396.373" cy="290.536" r="0.0651643"/>
<circle cx="397.189" cy="292.103" r="0.0651643"/>
<circle cx="398.005" cy="291.639" r="0.0651643"/>
<circle cx="398.821" cy="291.151" r="0.0651643"/>
<circle cx="399.637" cy="290.495" r="0.0651643"/>
<circle cx="400.453" cy="290.988" r="0.0651643"/>
<circle cx="401.269" cy="290.826" r="0.0651643"/>
<circle cx="402.085" cy="289.508" r="0.0651643"/>
<circle cx="402.901" cy="289.273" r="0.0651643"/>
<circle cx="403.717" cy="288.971" r="0.0651643"/>
<circle cx="404.533" cy="289.409" r="0.0651643"/>
<circle cx="405.349" cy="287.706" r="0.0651643"/>
<circle cx="406.165" cy="289.092" r="0.0651643"/>
<circle cx="406.981" cy="288.043" r="0.0651643"/>
<circle cx="407.797" cy="286.735" r="0.0651643"/>
<circle cx="408.613" cy="287.112" r="0.0651643"/>
<circle cx="409.428" cy="287.903" r="0.0651643"/>
<circle cx="410.244" cy="286.959" r="0.0651643"/>
<circle cx="411.06" cy="288.463" r="0.0651643"/>
<circle cx="411.876" cy="288.866" r="0.0651643"/>
<circle cx="412.692" cy="290.022" r="0.0651643"/>
<circle cx="413.508" cy="290.408" r="0.0651643"/>
<circle cx="414.324" cy="289.93" r="0.0651643"/>
<circle cx="415.14" cy="288.973" r="0.0651643"/>
<circle cx="415.956" cy="289.288" r="0.0651643"/>
<circle cx="416.772" cy="288.787" r="0.0651643"/>
<circle cx="417.588" cy="289.235" r="0.0651643"/>
<circle cx="418.404" cy="288.812" r="0.0651643"/>
<circle cx="419.22" cy="289.529" r="0.0651643"/>
<circle cx="420.036" cy="288.135" r="0.0651643"/>
<circle cx="420.852" cy="289.249" r="0.0651643"/>
<circle cx="421.668" cy="289.078" r="0.0651643"/>
<circle cx="422.484" cy="290.206" r="0.0651643"/>
<circle cx="423.3" cy="291.056" r="0.0651643"/>
<circle cx="424.116" cy="291.099" r="0.0651643"/>
<circle cx="424.932" cy="291.257" r="0.0651643"/>
<circle cx="425.747" cy="291.631" r="0.0651643"/>
<circle cx="426.563" cy="292.217" r="0.0651643"/>
<circle cx="427.379" cy="293.339" r="0.0651643"/>
<circle cx="428.195" cy="293.38" r="0.0651643"/>
<circle cx="429.011" cy="293.975" r="0.0651643"/>
<circle cx="429.827" cy="294.475" r="0.0651643"/>
<circle cx="430.643" cy="296.057" r="0.0651643"/>
<circle cx="431.459" cy="295.631" r="0.0651643"/>
<circle cx="432.275" cy="296.712" r="0.0651643"/>
<circle cx="433.091" cy="296.827" r="0.0651643"/>
<circle cx="433.907" cy="296.286" r="0.0651643"/>
<circle cx="434.723" cy="295.713" r="0.0651643"/>
<circle cx="435.539" cy="293.941" r="0.0651643"/>
<circle cx="436.355" cy="293.214" r="0.0651643"/>
<circle cx="437.171" cy="294.36" r="0.0651643"/>
<circle cx="437.987" cy="294.148" r="0.0651643"/>
<circle cx="438.803" cy="294.186" r="0.0651643"/>
<circle cx="439.619" cy="294.174" r="0.0651643"/>
<circle cx="440.435" cy="294.646" r="0.0651643"/>
<circle cx="441.25" cy="294.308" r="0.0651643"/>
<circle cx="442.066" cy="294.375" r="0.0651643"/>
<circle cx="442.882" cy="293.024" r="0.0651643"/>
<circle cx="443.698" cy="293.129" r="0.0651643"/>
<circle cx="444.514" cy="293.406" r="0.0651643"/>
<circle cx="445.33" cy="293.665" r="0.0651643"/>
<circle cx="446.146" cy="291.878" r="0.0651643"/>
<circle cx="446.962" cy="292.055" r="0.0651643"/>
<circle cx="447.778" cy="291.139" r="0.0651643"/>
<circle cx="448.594" cy="289.539" r="0.0651643"/>
<circle cx="449.41" cy="288.957" r="0.0651643"/>
<circle cx="450.226" cy="287.048" r="0.0651643"/>
<circle cx="451.042" cy="287.01" r="0.0651643"/>
<circle cx="451.858" cy="286.845" r="0.0651643"/>
<circle cx="452.674" cy="285.264" r="0.0651643"/>
<circle cx="453.49" cy="285.012" r="0.0651643"/>
<circle cx="454.306" cy="285.932" r="0.0651643"/>
<circle cx="455.122" cy="286.779" r="0.0651643"/>
<circle cx="455.938" cy="285.572" r="0.0651643"/>
<circle cx="456.753" cy="285.157" r="0.0651643"/>
<circle cx="457.569" cy="285.776" r="0.0651643"/>
<circle cx="458.385" cy="284.646" r="0.0651643"/>
<circle cx="459.201" cy="285.094" r="0.0651643"/>
<circle cx="460.017" cy="284.139" r="0.0651643"/>
<circle cx="460.833" cy="283.885" r="0.0651643"/>
<circle cx="461.649" cy="283.902" r="0.0651643"/>
<circle cx="462.465" cy="285.711" r="0.0651643"/>
<circle cx="463.281" cy="284.719" r="0.0651643"/>
<circle cx="464.097" cy="285.007" r="0.0651643"/>
<circle cx="464.913" cy="284.59" r="0.0651643"/>
<circle cx="465.729" cy="283.562" r="0.0651643"/>
<circle cx="466.545" cy="284.135" r="0.0651643"/>
<circle cx="467.361" cy="284.138" r="0.0651643"/>
<circle cx="468.177" cy="284.828" r="0.0651643"/>
<circle cx="468.993" cy="286.552" r="0.0651643"/>
<circle cx="469.809" cy="286.91" r="0.0651643"/>
<circle cx="470.625" cy="288.007" r="0.0651643"/>
<circle cx="471.441" cy="288.428" r="0.0651643"/>
<circle cx="472.257" cy="287.741" r="0.0651643"/>
<circle cx="473.072" cy="287.423" r="0.0651643"/>
<circle cx="473.888" cy="287.295" r="0.0651643"/>
<circle cx="474.704" cy="286.652" r="0.0651643"/>
<circle cx="475.52" cy="287.17" r="0.0651643"/>
<circle cx="476.336" cy="288.125" r="0.0651643"/>
<circle cx="477.152" cy="290.045" r="0.0651643"/>
<circle cx="477.968" cy="290.054" r="0.0651643"/>
<circle cx="478.784" cy="288.475" r="0.0651643"/>
<circle cx="479.6" cy="290.912" r="0.0651643"/>
<circle cx="480.416" cy="291.412" r="0.0651643"/>
<circle cx="481.232" cy="290.849" r="0.0651643"/>
<circle cx="482.048" cy="290.435" r="0.0651643"/>
<circle cx="482.864" cy="290.465" r="0.0651643"/>
<circle cx="483.68" cy="290.863" r="0.0651643"/>
<circle cx="484.496" cy="291.055" r="0.0651643"/>
<circle cx="485.312" cy="292.448" r="0.0651643"/>
<circle cx="486.128" cy="291.952" r="0.0651643"/>
<circle cx="486.944" cy="290.883" r="0.0651643"/>
<circle cx="487.76" cy="290.521" r="0.0651643"/>
<circle cx="488.575" cy="289.045" r="0.0651643"/>
<circle cx="489.391" cy="289.878" r="0.0651643"/>
<circle cx="490.207" cy="291.197" r="0.0651643"/>
<circle cx="491.023" cy="292.011" r="0.0651643"/>
<circle cx="491.839" cy="292.982" r="0.0651643"/>
<circle cx="492.655" cy="293.093" r="0.0651643"/>
<circle cx="493.471" cy="293.296" r="0.0651643"/>
<circle cx="494.287" cy="292.959" r="0.0651643"/>
<circle cx="495.103" cy="293.313" r="0.0651643"/>
<circle cx="495.919" cy="293.152" r="0.0651643"/>
<circle cx="496.735" cy="294.15" r="0.0651643"/>
<circle cx="497.551" cy="294.577" r="0.0651643"/>
<circle cx="498.367" cy="294.282" r="0.0651643"/>
</g>
<rect x="170.579" y="0" width="396.85" height="230.682" fill="#ccccff"/>
<text xml:space="preserve" x="369.004" y="120.882" text-anchor="middle" fill="black" font-size="11.0817" font-family="Helvetica">please move the mouse over the graPad
</text></svg>
