<?xml version="1.0" standalone="no"?>
<svg width="567.429" height="354.355" viewBox="0 0 567.429 354.355" xmlns="http://www.w3.org/2000/svg" shape-rendering="crispEdges">
<title>
./old_svg_ref/hlHisto4.svg
</title>
<desc>
Creator: ROOT Version 6.33.01
CreationDate: Wed Jul 10 10:01:26 2024</desc>
<defs>
</defs>
<rect x="0.5" y="0" width="566.929" height="353.855" fill="white"/>
<rect x="91.2087" y="17.6928" width="447.874" height="279.546" fill="white"/>
<rect x="91.2087" y="17.6928" width="447.874" height="279.546" fill="none" stroke="black"/>
<rect x="91.2087" y="17.6928" width="447.874" height="279.546" fill="white"/>
<rect x="91.2087" y="17.6928" width="447.874" height="279.546" fill="none" stroke="black"/>
<path d="M91.2087,297.238h 447.874" fill="none" stroke="black"/>
<path d="M91.2087,17.6928v 279.546" fill="none" stroke="#cccccc" stroke-dasharray=" 1, 2"/>
<path d="M135.996,17.6928v 279.546" fill="none" stroke="#cccccc" stroke-dasharray=" 1, 2"/>
<path d="M180.783,17.6928v 279.546" fill="none" stroke="#cccccc" stroke-dasharray=" 1, 2"/>
<path d="M225.571,17.6928v 279.546" fill="none" stroke="#cccccc" stroke-dasharray=" 1, 2"/>
<path d="M270.358,17.6928v 279.546" fill="none" stroke="#cccccc" stroke-dasharray=" 1, 2"/>
<path d="M315.146,17.6928v 279.546" fill="none" stroke="#cccccc" stroke-dasharray=" 1, 2"/>
<path d="M359.933,17.6928v 279.546" fill="none" stroke="#cccccc" stroke-dasharray=" 1, 2"/>
<path d="M404.72,17.6928v 279.546" fill="none" stroke="#cccccc" stroke-dasharray=" 1, 2"/>
<path d="M449.508,17.6928v 279.546" fill="none" stroke="#cccccc" stroke-dasharray=" 1, 2"/>
<path d="M494.295,17.6928v 279.546" fill="none" stroke="#cccccc" stroke-dasharray=" 1, 2"/>
<path d="M539.083,17.6928v 279.546" fill="none" stroke="#cccccc" stroke-dasharray=" 1, 2"/>
<path d="M91.2087,17.6928h 447.874" fill="none" stroke="black"/>
<path d="M91.2087,297.238v -279.546" fill="none" stroke="black"/>
<path d="M539.083,297.238h -447.874" fill="none" stroke="#cccccc" stroke-dasharray=" 1, 2"/>
<path d="M539.083,254.722h -447.874" fill="none" stroke="#cccccc" stroke-dasharray=" 1, 2"/>
<path d="M539.083,212.207h -447.874" fill="none" stroke="#cccccc" stroke-dasharray=" 1, 2"/>
<path d="M539.083,169.691h -447.874" fill="none" stroke="#cccccc" stroke-dasharray=" 1, 2"/>
<path d="M539.083,127.175h -447.874" fill="none" stroke="#cccccc" stroke-dasharray=" 1, 2"/>
<path d="M539.083,84.6594h -447.874" fill="none" stroke="#cccccc" stroke-dasharray=" 1, 2"/>
<path d="M539.083,42.1436h -447.874" fill="none" stroke="#cccccc" stroke-dasharray=" 1, 2"/>
<path d="M539.083,42.1436h -447.874" fill="none" stroke="#cccccc" stroke-dasharray=" 1, 2"/>
<path d="M539.083,297.238v -279.546" fill="none" stroke="black"/>
<path d="M91.2087,296.686h 2.23937v -0.318868h 2.23937v -0.340126h 2.23937v -0.0425158h 2.23937v 0.4039h 2.23937v 0.70151h 2.23937v -0.29761h 2.23937v -0.637737h 2.23937v -0.552705h 2.23937v 0.4039h 2.23937v 0.4039h 2.23937v 0.616479h 2.23937v
 -0.170063h 2.23937v -0.340126h 2.23937v -0.510189h 2.23937v -0.29761h 2.23937v 0.4039h 2.23937v 0.573963h 2.23937v 0.361384h 2.23937v -0.488932h 2.23937v -0.892831h 2.23937v -0.276353h 2.23937v 0.616479h 2.23937v 0.510189h 2.23937v 0.510189h
 2.23937v -0.446416h 2.23937v -0.658995h 2.23937v -0.531447h 2.23937v 0.233837h 2.23937v 0.531447h 2.23937v 0.786542h 2.23937v -0.318868h 2.23937v -0.680252h 2.23937v -0.595221h 2.23937v 0.318868h 2.23937v -0.148805h 2.23937v 1.19044h 2.23937v
 0.212579h 2.23937v -0.744026h 2.23937v -1.02038h 2.23937v 0.170063h 2.23937v -0.0212579h 2.23937v 0.8078h 2.23937v 0.892831h 2.23937v -1.02038h 2.23937v -0.744026h 2.23937v -0.467674h 2.23937v 0.361384h 2.23937v 0.850316h 2.23937v 0.914089h 2.23937v
 -0.425158h 2.23937v -1.06289h 2.23937v -0.914089h 2.23937v 0.510189h 2.23937v 0.552705h 2.23937v 0.892831h 2.23937v -0.0850316h 2.23937v -1.2117h 2.23937v -0.850316h 2.23937v -0.276353h 2.23937v 0.892831h 2.23937v 1.25422h 2.23937v 0.658995h
 2.23937v -1.55183h 2.23937v -0.829058h 2.23937v -0.850316h 2.23937v 0.977863h 2.23937v 0.382642h 2.23937v 1.63686h 2.23937v -1.08415h 2.23937v -1.82818h 4.47874v -0.765284h 2.23937v 1.42428h 2.23937v 2.21082h 2.23937v -0.786542h 2.23937v -2.35963h
 2.23937v -1.72189h 2.23937v 0.127547h 2.23937v 1.25422h 2.23937v 2.29585h 2.23937v 0.914089h 2.23937v -3.35875h 2.23937v -2.46592h 2.23937v -0.956605h 2.23937v 0.595221h 2.23937v 2.89107h 2.23937v 3.20994h 2.23937v -4.82554h 2.23937v -4.01774h
 2.23937v -1.99824h 2.23937v -0.255095h 2.23937v 3.06114h 2.23937v 6.58995h 2.23937v -6.14353h 2.23937v -12.691h 2.23937v -15.0506h 2.23937v -12.032h 2.23937v -6.50491h 2.23937v -4.65548h 2.23937v -1.08415h 2.23937v 4.97435h 2.23937v 6.41988h
 2.23937v 3.14617h 2.23937v -7.39775h 2.23937v -33.7363h 2.23937v -65.6444h 2.23937v -81.0989h 2.23937v -32.2482h 2.23937v 38.8807h 2.23937v 67.919h 2.23937v 76.7835h 2.23937v 50.5088h 2.23937v 18.6644h 2.23937v 3.91145h 2.23937v 1.10541h 2.23937v
 1.57308h 2.23937v 2.59346h 2.23937v 2.99736h 2.23937v -0.488932h 2.23937v -2.5722h 2.23937v -1.10541h 2.23937v 0.850316h 2.23937v 1.19044h 2.23937v 1.67937h 2.23937v 0.8078h 2.23937v -1.87069h 2.23937v -1.87069h 2.23937v 0.573963h 2.23937v 1.29673h
 2.23937v 1.02038h 2.23937v 1.25422h 2.23937v -1.31799h 2.23937v -0.914089h 2.23937v -0.786542h 2.23937v 0.977863h 2.23937v 0.467674h 2.23937v 1.57308h 2.23937v -0.8078h 2.23937v -1.19044h 2.23937v -0.871574h 2.23937v 0.722768h 2.23937v 0.488932h
 2.23937v 1.65812h 2.23937v -0.106289h 2.23937v -1.3605h 2.23937v -0.233837h 2.23937v -0.340126h 2.23937v 0.340126h 2.23937v 0.999121h 2.23937v 0.850316h 2.23937v -1.02038h 2.23937v -0.70151h 2.23937v -0.510189h 2.23937v 0.722768h 2.23937v 0.786542h
 2.23937v 0.871574h 2.23937v -0.510189h 2.23937v -0.744026h 2.23937v -0.616479h 2.23937v 0.0850316h 2.23937v 0.531447h 2.23937v 1.14793h 2.23937v -0.318868h 2.23937v -0.977863h 2.23937v -0.148805h 2.23937v -0.0212579h 2.23937v 0.382642h 2.23937v
 0.892831h 2.23937v 0.170063h 2.23937v -0.850316h 2.23937v -0.595221h 2.23937v 0.170063h 2.23937v 0.467674h 2.23937v 0.510189h 2.23937v 0.446416h 2.23937v -0.8078h 2.23937v -0.191321h 2.23937v -0.29761h 2.23937v 0.170063h 2.23937v 0.425158h 2.23937v
 0.658995h 2.23937v -0.148805h 2.23937v -0.637737h 2.23937v -0.29761h 2.23937v -0.0850316h 2.23937v 0.361384h 2.23937v 0.829058h 2.23937v -0.0425158h 2.23937v -0.425158h 2.23937v -0.616479h 2.23937v 0.127547h 2.23937v 0.0850316h 2.23937v 0.616479h
 2.23937v 0.0637737h 2.23937v -0.29761h 2.23937v -0.595221h 2.23937v 0.191321h 2.23937v -0.0637737h 2.23937v 0.446416h 2.23937" fill="none" stroke="black" stroke-width="2"/>
<path d="M93.448,296.382l 4.47874, -0.381342l 4.47874, 0.764738l 4.47874, -0.29562l 4.47874, -0.574255l 4.47874, 0.662522l 4.47874, 0.0280646l 4.47874, -0.781788l 4.47874, 0.530998l 4.47874, 0.398384l 4.47874, -1.00355l 4.47874, 0.367217l 4.47874,
 0.818454l 4.47874, -1.23936l 4.47874, 0.167511l 4.47874, 1.29266l 4.47874, -1.48941l 4.47874, -0.0729368l 4.47874, 1.50118l 4.47874, -1.42824l 4.47874, -0.360769l 4.47874, 1.47169l 4.47874, -1.07559l 4.47874, -0.705602l 4.47874, 1.39996l 4.47874,
 -0.615418l 4.47874, -1.12202l 4.47874, 1.27409l 4.47874, -0.0174104l 4.47874, -1.6333l 4.47874, 1.07539l 4.47874, 0.767465l 4.47874, -2.27883l 4.47874, 0.771791l 4.47874, 1.82478l 4.47874, -3.13054l 4.47874, 0.302065l 4.47874, 3.31896l 4.47874,
 -4.33401l 4.47874, -0.46842l 4.47874, 4.64302l 4.47874, -5.26473l 4.47874, -1.90488l 4.47874, 5.62838l 4.47874, -5.82503l 4.47874, -5.44342l 4.47874, 7.16038l 4.47874, -8.51651l 4.47874, -26.0459l 4.47874, -17.9814" fill="none" stroke="black"
 stroke-width="3"/>
<path d="M312.906,238.561l 4.47874, -0.0848998l 4.47874, 13.5199l 4.47874, -21.6291l 4.47874, -129.848l 4.47874, -58.1907l 4.47874, 136.92l 4.47874, 97.602l 4.47874, 11.6039l 4.47874, 3.00962l 4.47874, 5.29037l 4.47874, -4.6428l 4.47874, 0.46842l
 4.47874, 4.33401l 4.47874, -3.31896l 4.47874, -0.302065l 4.47874, 3.13054l 4.47874, -1.82478l 4.47874, -0.771791l 4.47874, 2.27883l 4.47874, -0.767465l 4.47874, -1.07539l 4.47874, 1.6333l 4.47874, 0.0174104l 4.47874, -1.27409l 4.47874, 1.12202l
 4.47874, 0.615418l 4.47874, -1.39996l 4.47874, 0.705602l 4.47874, 1.07559l 4.47874, -1.47169l 4.47874, 0.360769l 4.47874, 1.42824l 4.47874, -1.50118l 4.47874, 0.0729368l 4.47874, 1.48941l 4.47874, -1.29266l 4.47874, -0.167511l 4.47874, 1.23936l
 4.47874, -0.818454l 4.47874, -0.367217l 4.47874, 1.00355l 4.47874, -0.398384l 4.47874, -0.530998l 4.47874, 0.781788l 4.47874, -0.0280646l 4.47874, -0.662522l 4.47874, 0.574255l 4.47874, 0.29562l 4.47874, -0.764738" fill="none" stroke="black"
 stroke-width="3"/>
<path d="M532.365,296l 4.47874, 0.381342" fill="none" stroke="black" stroke-width="3"/>
<path d="M91.2087,297.238h 447.874" fill="none" stroke="black"/>
<path d="M91.2087,288.852v 8.38636" fill="none" stroke="black"/>
<path d="M100.166,293.045v 4.19318" fill="none" stroke="black"/>
<path d="M109.124,293.045v 4.19318" fill="none" stroke="black"/>
<path d="M118.081,293.045v 4.19318" fill="none" stroke="black"/>
<path d="M127.039,293.045v 4.19318" fill="none" stroke="black"/>
<path d="M135.996,288.852v 8.38636" fill="none" stroke="black"/>
<path d="M144.954,293.045v 4.19318" fill="none" stroke="black"/>
<path d="M153.911,293.045v 4.19318" fill="none" stroke="black"/>
<path d="M162.868,293.045v 4.19318" fill="none" stroke="black"/>
<path d="M171.826,293.045v 4.19318" fill="none" stroke="black"/>
<path d="M180.783,288.852v 8.38636" fill="none" stroke="black"/>
<path d="M189.741,293.045v 4.19318" fill="none" stroke="black"/>
<path d="M198.698,293.045v 4.19318" fill="none" stroke="black"/>
<path d="M207.656,293.045v 4.19318" fill="none" stroke="black"/>
<path d="M216.613,293.045v 4.19318" fill="none" stroke="black"/>
<path d="M225.571,288.852v 8.38636" fill="none" stroke="black"/>
<path d="M234.528,293.045v 4.19318" fill="none" stroke="black"/>
<path d="M243.486,293.045v 4.19318" fill="none" stroke="black"/>
<path d="M252.443,293.045v 4.19318" fill="none" stroke="black"/>
<path d="M261.401,293.045v 4.19318" fill="none" stroke="black"/>
<path d="M270.358,288.852v 8.38636" fill="none" stroke="black"/>
<path d="M279.316,293.045v 4.19318" fill="none" stroke="black"/>
<path d="M288.273,293.045v 4.19318" fill="none" stroke="black"/>
<path d="M297.231,293.045v 4.19318" fill="none" stroke="black"/>
<path d="M306.188,293.045v 4.19318" fill="none" stroke="black"/>
<path d="M315.146,288.852v 8.38636" fill="none" stroke="black"/>
<path d="M324.103,293.045v 4.19318" fill="none" stroke="black"/>
<path d="M333.061,293.045v 4.19318" fill="none" stroke="black"/>
<path d="M342.018,293.045v 4.19318" fill="none" stroke="black"/>
<path d="M350.976,293.045v 4.19318" fill="none" stroke="black"/>
<path d="M359.933,288.852v 8.38636" fill="none" stroke="black"/>
<path d="M368.891,293.045v 4.19318" fill="none" stroke="black"/>
<path d="M377.848,293.045v 4.19318" fill="none" stroke="black"/>
<path d="M386.806,293.045v 4.19318" fill="none" stroke="black"/>
<path d="M395.763,293.045v 4.19318" fill="none" stroke="black"/>
<path d="M404.72,288.852v 8.38636" fill="none" stroke="black"/>
<path d="M413.678,293.045v 4.19318" fill="none" stroke="black"/>
<path d="M422.635,293.045v 4.19318" fill="none" stroke="black"/>
<path d="M431.593,293.045v 4.19318" fill="none" stroke="black"/>
<path d="M440.55,293.045v 4.19318" fill="none" stroke="black"/>
<path d="M449.508,288.852v 8.38636" fill="none" stroke="black"/>
<path d="M458.465,293.045v 4.19318" fill="none" stroke="black"/>
<path d="M467.423,293.045v 4.19318" fill="none" stroke="black"/>
<path d="M476.38,293.045v 4.19318" fill="none" stroke="black"/>
<path d="M485.338,293.045v 4.19318" fill="none" stroke="black"/>
<path d="M494.295,288.852v 8.38636" fill="none" stroke="black"/>
<path d="M503.253,293.045v 4.19318" fill="none" stroke="black"/>
<path d="M512.21,293.045v 4.19318" fill="none" stroke="black"/>
<path d="M521.168,293.045v 4.19318" fill="none" stroke="black"/>
<path d="M530.125,293.045v 4.19318" fill="none" stroke="black"/>
<path d="M539.083,288.852v 8.38636" fill="none" stroke="black"/>
<text xml:space="preserve" x="86.1101" y="312.952" fill="black" font-size="16.7319" font-family="Helvetica">50
</text>
<text xml:space="preserve" x="76.5979" y="312.952" fill="black" font-size="16.7319" font-family="Times">&#8722;
</text>
<text xml:space="preserve" x="130.818" y="312.952" fill="black" font-size="16.7319" font-family="Helvetica">40
</text>
<text xml:space="preserve" x="121.305" y="312.952" fill="black" font-size="16.7319" font-family="Times">&#8722;
</text>
<text xml:space="preserve" x="176.476" y="312.952" fill="black" font-size="16.7319" font-family="Helvetica">30
</text>
<text xml:space="preserve" x="166.964" y="312.952" fill="black" font-size="16.7319" font-family="Times">&#8722;
</text>
<text xml:space="preserve" x="221.184" y="312.952" fill="black" font-size="16.7319" font-family="Helvetica">20
</text>
<text xml:space="preserve" x="211.672" y="312.952" fill="black" font-size="16.7319" font-family="Times">&#8722;
</text>
<text xml:space="preserve" x="265.891" y="312.952" fill="black" font-size="16.7319" font-family="Helvetica">10
</text>
<text xml:space="preserve" x="256.379" y="312.952" fill="black" font-size="16.7319" font-family="Times">&#8722;
</text>
<text xml:space="preserve" x="310.599" y="312.952" fill="black" font-size="16.7319" font-family="Helvetica">0
</text>
<text xml:space="preserve" x="350.55" y="312.952" fill="black" font-size="16.7319" font-family="Helvetica">10
</text>
<text xml:space="preserve" x="395.258" y="312.952" fill="black" font-size="16.7319" font-family="Helvetica">20
</text>
<text xml:space="preserve" x="439.965" y="312.952" fill="black" font-size="16.7319" font-family="Helvetica">30
</text>
<text xml:space="preserve" x="484.673" y="312.952" fill="black" font-size="16.7319" font-family="Helvetica">40
</text>
<text xml:space="preserve" x="529.38" y="312.952" fill="black" font-size="16.7319" font-family="Helvetica">50
</text>
<path d="M91.2087,17.6928h 447.874" fill="none" stroke="black"/>
<path d="M91.2087,26.0791v -8.38636" fill="none" stroke="black"/>
<path d="M100.166,21.8859v -4.19318" fill="none" stroke="black"/>
<path d="M109.124,21.8859v -4.19318" fill="none" stroke="black"/>
<path d="M118.081,21.8859v -4.19318" fill="none" stroke="black"/>
<path d="M127.039,21.8859v -4.19318" fill="none" stroke="black"/>
<path d="M135.996,26.0791v -8.38636" fill="none" stroke="black"/>
<path d="M144.954,21.8859v -4.19318" fill="none" stroke="black"/>
<path d="M153.911,21.8859v -4.19318" fill="none" stroke="black"/>
<path d="M162.868,21.8859v -4.19318" fill="none" stroke="black"/>
<path d="M171.826,21.8859v -4.19318" fill="none" stroke="black"/>
<path d="M180.783,26.0791v -8.38636" fill="none" stroke="black"/>
<path d="M189.741,21.8859v -4.19318" fill="none" stroke="black"/>
<path d="M198.698,21.8859v -4.19318" fill="none" stroke="black"/>
<path d="M207.656,21.8859v -4.19318" fill="none" stroke="black"/>
<path d="M216.613,21.8859v -4.19318" fill="none" stroke="black"/>
<path d="M225.571,26.0791v -8.38636" fill="none" stroke="black"/>
<path d="M234.528,21.8859v -4.19318" fill="none" stroke="black"/>
<path d="M243.486,21.8859v -4.19318" fill="none" stroke="black"/>
<path d="M252.443,21.8859v -4.19318" fill="none" stroke="black"/>
<path d="M261.401,21.8859v -4.19318" fill="none" stroke="black"/>
<path d="M270.358,26.0791v -8.38636" fill="none" stroke="black"/>
<path d="M279.316,21.8859v -4.19318" fill="none" stroke="black"/>
<path d="M288.273,21.8859v -4.19318" fill="none" stroke="black"/>
<path d="M297.231,21.8859v -4.19318" fill="none" stroke="black"/>
<path d="M306.188,21.8859v -4.19318" fill="none" stroke="black"/>
<path d="M315.146,26.0791v -8.38636" fill="none" stroke="black"/>
<path d="M324.103,21.8859v -4.19318" fill="none" stroke="black"/>
<path d="M333.061,21.8859v -4.19318" fill="none" stroke="black"/>
<path d="M342.018,21.8859v -4.19318" fill="none" stroke="black"/>
<path d="M350.976,21.8859v -4.19318" fill="none" stroke="black"/>
<path d="M359.933,26.0791v -8.38636" fill="none" stroke="black"/>
<path d="M368.891,21.8859v -4.19318" fill="none" stroke="black"/>
<path d="M377.848,21.8859v -4.19318" fill="none" stroke="black"/>
<path d="M386.806,21.8859v -4.19318" fill="none" stroke="black"/>
<path d="M395.763,21.8859v -4.19318" fill="none" stroke="black"/>
<path d="M404.72,26.0791v -8.38636" fill="none" stroke="black"/>
<path d="M413.678,21.8859v -4.19318" fill="none" stroke="black"/>
<path d="M422.635,21.8859v -4.19318" fill="none" stroke="black"/>
<path d="M431.593,21.8859v -4.19318" fill="none" stroke="black"/>
<path d="M440.55,21.8859v -4.19318" fill="none" stroke="black"/>
<path d="M449.508,26.0791v -8.38636" fill="none" stroke="black"/>
<path d="M458.465,21.8859v -4.19318" fill="none" stroke="black"/>
<path d="M467.423,21.8859v -4.19318" fill="none" stroke="black"/>
<path d="M476.38,21.8859v -4.19318" fill="none" stroke="black"/>
<path d="M485.338,21.8859v -4.19318" fill="none" stroke="black"/>
<path d="M494.295,26.0791v -8.38636" fill="none" stroke="black"/>
<path d="M503.253,21.8859v -4.19318" fill="none" stroke="black"/>
<path d="M512.21,21.8859v -4.19318" fill="none" stroke="black"/>
<path d="M521.168,21.8859v -4.19318" fill="none" stroke="black"/>
<path d="M530.125,21.8859v -4.19318" fill="none" stroke="black"/>
<path d="M539.083,26.0791v -8.38636" fill="none" stroke="black"/>
<path d="M91.2087,297.238v -279.546" fill="none" stroke="black"/>
<path d="M104.645,297.238h -13.4362" fill="none" stroke="black"/>
<path d="M97.9268,286.609h -6.71811" fill="none" stroke="black"/>
<path d="M97.9268,275.98h -6.71811" fill="none" stroke="black"/>
<path d="M97.9268,265.351h -6.71811" fill="none" stroke="black"/>
<path d="M104.645,254.722h -13.4362" fill="none" stroke="black"/>
<path d="M97.9268,244.094h -6.71811" fill="none" stroke="black"/>
<path d="M97.9268,233.465h -6.71811" fill="none" stroke="black"/>
<path d="M97.9268,222.836h -6.71811" fill="none" stroke="black"/>
<path d="M104.645,212.207h -13.4362" fill="none" stroke="black"/>
<path d="M97.9268,201.578h -6.71811" fill="none" stroke="black"/>
<path d="M97.9268,190.949h -6.71811" fill="none" stroke="black"/>
<path d="M97.9268,180.32h -6.71811" fill="none" stroke="black"/>
<path d="M104.645,169.691h -13.4362" fill="none" stroke="black"/>
<path d="M97.9268,159.062h -6.71811" fill="none" stroke="black"/>
<path d="M97.9268,148.433h -6.71811" fill="none" stroke="black"/>
<path d="M97.9268,137.804h -6.71811" fill="none" stroke="black"/>
<path d="M104.645,127.175h -13.4362" fill="none" stroke="black"/>
<path d="M97.9268,116.546h -6.71811" fill="none" stroke="black"/>
<path d="M97.9268,105.917h -6.71811" fill="none" stroke="black"/>
<path d="M97.9268,95.2883h -6.71811" fill="none" stroke="black"/>
<path d="M104.645,84.6594h -13.4362" fill="none" stroke="black"/>
<path d="M97.9268,74.0304h -6.71811" fill="none" stroke="black"/>
<path d="M97.9268,63.4015h -6.71811" fill="none" stroke="black"/>
<path d="M97.9268,52.7725h -6.71811" fill="none" stroke="black"/>
<path d="M104.645,42.1436h -13.4362" fill="none" stroke="black"/>
<path d="M104.645,42.1436h -13.4362" fill="none" stroke="black"/>
<path d="M97.9268,31.5146h -6.71811" fill="none" stroke="black"/>
<path d="M97.9268,20.8857h -6.71811" fill="none" stroke="black"/>
<text xml:space="preserve" x="79.4515" y="303.44" fill="black" font-size="16.7319" font-family="Helvetica">0
</text>
<text xml:space="preserve" x="52.8173" y="261.586" fill="black" font-size="16.7319" font-family="Helvetica">2000
</text>
<text xml:space="preserve" x="52.8173" y="218.781" fill="black" font-size="16.7319" font-family="Helvetica">4000
</text>
<text xml:space="preserve" x="52.8173" y="175.976" fill="black" font-size="16.7319" font-family="Helvetica">6000
</text>
<text xml:space="preserve" x="52.8173" y="134.122" fill="black" font-size="16.7319" font-family="Helvetica">8000
</text>
<text xml:space="preserve" x="43.3051" y="91.3174" fill="black" font-size="16.7319" font-family="Helvetica">10000
</text>
<text xml:space="preserve" x="43.3051" y="48.5124" fill="black" font-size="16.7319" font-family="Helvetica">12000
</text>
<path d="M539.083,297.238v -279.546" fill="none" stroke="black"/>
<path d="M525.646,297.238h 13.4362" fill="none" stroke="black"/>
<path d="M532.365,286.609h 6.71811" fill="none" stroke="black"/>
<path d="M532.365,275.98h 6.71811" fill="none" stroke="black"/>
<path d="M532.365,265.351h 6.71811" fill="none" stroke="black"/>
<path d="M525.646,254.722h 13.4362" fill="none" stroke="black"/>
<path d="M532.365,244.094h 6.71811" fill="none" stroke="black"/>
<path d="M532.365,233.465h 6.71811" fill="none" stroke="black"/>
<path d="M532.365,222.836h 6.71811" fill="none" stroke="black"/>
<path d="M525.646,212.207h 13.4362" fill="none" stroke="black"/>
<path d="M532.365,201.578h 6.71811" fill="none" stroke="black"/>
<path d="M532.365,190.949h 6.71811" fill="none" stroke="black"/>
<path d="M532.365,180.32h 6.71811" fill="none" stroke="black"/>
<path d="M525.646,169.691h 13.4362" fill="none" stroke="black"/>
<path d="M532.365,159.062h 6.71811" fill="none" stroke="black"/>
<path d="M532.365,148.433h 6.71811" fill="none" stroke="black"/>
<path d="M532.365,137.804h 6.71811" fill="none" stroke="black"/>
<path d="M525.646,127.175h 13.4362" fill="none" stroke="black"/>
<path d="M532.365,116.546h 6.71811" fill="none" stroke="black"/>
<path d="M532.365,105.917h 6.71811" fill="none" stroke="black"/>
<path d="M532.365,95.2883h 6.71811" fill="none" stroke="black"/>
<path d="M525.646,84.6594h 13.4362" fill="none" stroke="black"/>
<path d="M532.365,74.0304h 6.71811" fill="none" stroke="black"/>
<path d="M532.365,63.4015h 6.71811" fill="none" stroke="black"/>
<path d="M532.365,52.7725h 6.71811" fill="none" stroke="black"/>
<path d="M525.646,42.1436h 13.4362" fill="none" stroke="black"/>
<path d="M525.646,42.1436h 13.4362" fill="none" stroke="black"/>
<path d="M532.365,31.5146h 6.71811" fill="none" stroke="black"/>
<path d="M532.365,20.8857h 6.71811" fill="none" stroke="black"/>
<text xml:space="preserve" x="315.146" y="117.617" text-anchor="middle" fill="#663333" font-size="13.4855" font-family="Helvetica">please move the mouse over the frame
</text></svg>
