<?xml version="1.0" standalone="no"?>
<svg width="504.235" height="737.508" viewBox="0 0 504.235 737.508" xmlns="http://www.w3.org/2000/svg" shape-rendering="crispEdges">
<title>
./old_svg_ref/hlquantiles.svg
</title>
<desc>
Creator: ROOT Version 6.33.01
CreationDate: Wed Jul 10 10:05:15 2024</desc>
<defs>
</defs>
<rect x="0.5" y="0" width="503.735" height="737.008" fill="#d3ce87"/>
<rect x="5.53735" y="7.37008" width="493.66" height="230.929" fill="#d3ce87"/>
<rect x="84.5229" y="18.9165" width="389.991" height="182.434" fill="#d3ce87"/>
<rect x="84.5229" y="18.9165" width="389.991" height="182.434" fill="none" stroke="black"/>
<rect x="84.5229" y="18.9165" width="389.991" height="182.434" fill="#d3ce87"/>
<rect x="84.5229" y="18.9165" width="389.991" height="182.434" fill="none" stroke="black"/>
<path d="M84.5229,201.351v -4.96419h 7.79983v 4.96419h 7.79983v -4.96419h 23.3995v 4.96419h 7.79983v -9.92838h 7.79983v 9.92838h 7.79983v -34.7493h 7.79983v 9.92838h 7.79983v 9.92838h 7.79983v -29.7851h 7.79983v 4.96419h 7.79983v 4.96419h 7.79983v
 -9.92838h 7.79983v -54.6061h 7.79983v 19.8568h 7.79983v 9.92838h 7.79983v 4.96419h 7.79983v -19.8568h 7.79983v -14.8926h 7.79983v 4.96419h 7.79983v -29.7851h 15.5997v -4.96419h 7.79983v 24.821h 7.79983v -14.8926h 15.5997v -54.6061h 7.79983v 59.5703h
 7.79983v 19.8568h 7.79983v 39.7135h 7.79983v -54.6061h 7.79983v 54.6061h 7.79983v 29.7851h 7.79983v -34.7493h 7.79983v 44.6777h 7.79983v -14.8926h 7.79983v -19.8568h 7.79983v 14.8926h 7.79983v 19.8568h 7.79983v 4.96419h 7.79983v -9.92838h 7.79983v
 19.8568h 7.79983v -9.92838h 7.79983v 4.96419h 7.79983v -9.92838h 7.79983v 14.8926h 15.5997v -14.8926h 7.79983v 14.8926z" fill="#7c99d1"/>
<path d="M84.5229,196.386h 7.79983v 4.96419h 7.79983v -4.96419h 23.3995v 4.96419h 7.79983v -9.92838h 7.79983v 9.92838h 7.79983v -34.7493h 7.79983v 9.92838h 7.79983v 9.92838h 7.79983v -29.7851h 7.79983v 4.96419h 7.79983v 4.96419h 7.79983v -9.92838h
 7.79983v -54.6061h 7.79983v 19.8568h 7.79983v 9.92838h 7.79983v 4.96419h 7.79983v -19.8568h 7.79983v -14.8926h 7.79983v 4.96419h 7.79983v -29.7851h 15.5997v -4.96419h 7.79983v 24.821h 7.79983v -14.8926h 15.5997v -54.6061h 7.79983v 59.5703h 7.79983v
 19.8568h 7.79983v 39.7135h 7.79983v -54.6061h 7.79983v 54.6061h 7.79983v 29.7851h 7.79983v -34.7493h 7.79983v 44.6777h 7.79983v -14.8926h 7.79983v -19.8568h 7.79983v 14.8926h 7.79983v 19.8568h 7.79983v 4.96419h 7.79983v -9.92838h 7.79983v 19.8568h
 7.79983v -9.92838h 7.79983v 4.96419h 7.79983v -9.92838h 7.79983v 14.8926h 15.5997v -14.8926h 7.79983" fill="none" stroke="black" stroke-width="2"/>
<path d="M84.5229,201.351h 389.991" fill="none" stroke="black"/>
<path d="M84.5229,195.878v 5.47302" fill="none" stroke="black"/>
<path d="M97.5227,198.614v 2.73651" fill="none" stroke="black"/>
<path d="M110.522,198.614v 2.73651" fill="none" stroke="black"/>
<path d="M123.522,198.614v 2.73651" fill="none" stroke="black"/>
<path d="M136.522,198.614v 2.73651" fill="none" stroke="black"/>
<path d="M149.522,195.878v 5.47302" fill="none" stroke="black"/>
<path d="M162.521,198.614v 2.73651" fill="none" stroke="black"/>
<path d="M175.521,198.614v 2.73651" fill="none" stroke="black"/>
<path d="M188.521,198.614v 2.73651" fill="none" stroke="black"/>
<path d="M201.52,198.614v 2.73651" fill="none" stroke="black"/>
<path d="M214.52,195.878v 5.47302" fill="none" stroke="black"/>
<path d="M227.52,198.614v 2.73651" fill="none" stroke="black"/>
<path d="M240.52,198.614v 2.73651" fill="none" stroke="black"/>
<path d="M253.519,198.614v 2.73651" fill="none" stroke="black"/>
<path d="M266.519,198.614v 2.73651" fill="none" stroke="black"/>
<path d="M279.519,195.878v 5.47302" fill="none" stroke="black"/>
<path d="M292.518,198.614v 2.73651" fill="none" stroke="black"/>
<path d="M305.518,198.614v 2.73651" fill="none" stroke="black"/>
<path d="M318.518,198.614v 2.73651" fill="none" stroke="black"/>
<path d="M331.518,198.614v 2.73651" fill="none" stroke="black"/>
<path d="M344.517,195.878v 5.47302" fill="none" stroke="black"/>
<path d="M357.517,198.614v 2.73651" fill="none" stroke="black"/>
<path d="M370.517,198.614v 2.73651" fill="none" stroke="black"/>
<path d="M383.516,198.614v 2.73651" fill="none" stroke="black"/>
<path d="M396.516,198.614v 2.73651" fill="none" stroke="black"/>
<path d="M409.516,195.878v 5.47302" fill="none" stroke="black"/>
<path d="M422.516,198.614v 2.73651" fill="none" stroke="black"/>
<path d="M435.515,198.614v 2.73651" fill="none" stroke="black"/>
<path d="M448.515,198.614v 2.73651" fill="none" stroke="black"/>
<path d="M461.515,198.614v 2.73651" fill="none" stroke="black"/>
<path d="M474.514,195.878v 5.47302" fill="none" stroke="black"/>
<text xml:space="preserve" x="83.3289" y="212.143" fill="black" font-size="11.0931" font-family="Helvetica">3
</text>
<text xml:space="preserve" x="78.2577" y="212.143" fill="black" font-size="11.0931" font-family="Times">&#8722;
</text>
<text xml:space="preserve" x="148.409" y="212.143" fill="black" font-size="11.0931" font-family="Helvetica">2
</text>
<text xml:space="preserve" x="143.338" y="212.143" fill="black" font-size="11.0931" font-family="Times">&#8722;
</text>
<text xml:space="preserve" x="214.334" y="212.143" fill="black" font-size="11.0931" font-family="Helvetica">1
</text>
<text xml:space="preserve" x="209.263" y="212.143" fill="black" font-size="11.0931" font-family="Times">&#8722;
</text>
<text xml:space="preserve" x="276.033" y="212.143" fill="black" font-size="11.0931" font-family="Helvetica">0
</text>
<text xml:space="preserve" x="341.958" y="212.143" fill="black" font-size="11.0931" font-family="Helvetica">1
</text>
<text xml:space="preserve" x="406.192" y="212.143" fill="black" font-size="11.0931" font-family="Helvetica">2
</text>
<text xml:space="preserve" x="471.272" y="212.143" fill="black" font-size="11.0931" font-family="Helvetica">3
</text>
<path d="M84.5229,18.9165h 389.991" fill="none" stroke="black"/>
<path d="M84.5229,24.3896v -5.47302" fill="none" stroke="black"/>
<path d="M97.5227,21.653v -2.73651" fill="none" stroke="black"/>
<path d="M110.522,21.653v -2.73651" fill="none" stroke="black"/>
<path d="M123.522,21.653v -2.73651" fill="none" stroke="black"/>
<path d="M136.522,21.653v -2.73651" fill="none" stroke="black"/>
<path d="M149.522,24.3896v -5.47302" fill="none" stroke="black"/>
<path d="M162.521,21.653v -2.73651" fill="none" stroke="black"/>
<path d="M175.521,21.653v -2.73651" fill="none" stroke="black"/>
<path d="M188.521,21.653v -2.73651" fill="none" stroke="black"/>
<path d="M201.52,21.653v -2.73651" fill="none" stroke="black"/>
<path d="M214.52,24.3896v -5.47302" fill="none" stroke="black"/>
<path d="M227.52,21.653v -2.73651" fill="none" stroke="black"/>
<path d="M240.52,21.653v -2.73651" fill="none" stroke="black"/>
<path d="M253.519,21.653v -2.73651" fill="none" stroke="black"/>
<path d="M266.519,21.653v -2.73651" fill="none" stroke="black"/>
<path d="M279.519,24.3896v -5.47302" fill="none" stroke="black"/>
<path d="M292.518,21.653v -2.73651" fill="none" stroke="black"/>
<path d="M305.518,21.653v -2.73651" fill="none" stroke="black"/>
<path d="M318.518,21.653v -2.73651" fill="none" stroke="black"/>
<path d="M331.518,21.653v -2.73651" fill="none" stroke="black"/>
<path d="M344.517,24.3896v -5.47302" fill="none" stroke="black"/>
<path d="M357.517,21.653v -2.73651" fill="none" stroke="black"/>
<path d="M370.517,21.653v -2.73651" fill="none" stroke="black"/>
<path d="M383.516,21.653v -2.73651" fill="none" stroke="black"/>
<path d="M396.516,21.653v -2.73651" fill="none" stroke="black"/>
<path d="M409.516,24.3896v -5.47302" fill="none" stroke="black"/>
<path d="M422.516,21.653v -2.73651" fill="none" stroke="black"/>
<path d="M435.515,21.653v -2.73651" fill="none" stroke="black"/>
<path d="M448.515,21.653v -2.73651" fill="none" stroke="black"/>
<path d="M461.515,21.653v -2.73651" fill="none" stroke="black"/>
<path d="M474.514,24.3896v -5.47302" fill="none" stroke="black"/>
<path d="M84.5229,201.351v -182.434" fill="none" stroke="black"/>
<path d="M96.2227,201.351h -11.6997" fill="none" stroke="black"/>
<path d="M90.3728,196.386h -5.84987" fill="none" stroke="black"/>
<path d="M90.3728,191.422h -5.84987" fill="none" stroke="black"/>
<path d="M90.3728,186.458h -5.84987" fill="none" stroke="black"/>
<path d="M90.3728,181.494h -5.84987" fill="none" stroke="black"/>
<path d="M96.2227,176.53h -11.6997" fill="none" stroke="black"/>
<path d="M90.3728,171.565h -5.84987" fill="none" stroke="black"/>
<path d="M90.3728,166.601h -5.84987" fill="none" stroke="black"/>
<path d="M90.3728,161.637h -5.84987" fill="none" stroke="black"/>
<path d="M90.3728,156.673h -5.84987" fill="none" stroke="black"/>
<path d="M96.2227,151.709h -11.6997" fill="none" stroke="black"/>
<path d="M90.3728,146.744h -5.84987" fill="none" stroke="black"/>
<path d="M90.3728,141.78h -5.84987" fill="none" stroke="black"/>
<path d="M90.3728,136.816h -5.84987" fill="none" stroke="black"/>
<path d="M90.3728,131.852h -5.84987" fill="none" stroke="black"/>
<path d="M96.2227,126.888h -11.6997" fill="none" stroke="black"/>
<path d="M90.3728,121.923h -5.84987" fill="none" stroke="black"/>
<path d="M90.3728,116.959h -5.84987" fill="none" stroke="black"/>
<path d="M90.3728,111.995h -5.84987" fill="none" stroke="black"/>
<path d="M90.3728,107.031h -5.84987" fill="none" stroke="black"/>
<path d="M96.2227,102.067h -11.6997" fill="none" stroke="black"/>
<path d="M90.3728,97.1025h -5.84987" fill="none" stroke="black"/>
<path d="M90.3728,92.1383h -5.84987" fill="none" stroke="black"/>
<path d="M90.3728,87.1742h -5.84987" fill="none" stroke="black"/>
<path d="M90.3728,82.21h -5.84987" fill="none" stroke="black"/>
<path d="M96.2227,77.2458h -11.6997" fill="none" stroke="black"/>
<path d="M90.3728,72.2816h -5.84987" fill="none" stroke="black"/>
<path d="M90.3728,67.3174h -5.84987" fill="none" stroke="black"/>
<path d="M90.3728,62.3532h -5.84987" fill="none" stroke="black"/>
<path d="M90.3728,57.389h -5.84987" fill="none" stroke="black"/>
<path d="M96.2227,52.4248h -11.6997" fill="none" stroke="black"/>
<path d="M90.3728,47.4606h -5.84987" fill="none" stroke="black"/>
<path d="M90.3728,42.4964h -5.84987" fill="none" stroke="black"/>
<path d="M90.3728,37.5322h -5.84987" fill="none" stroke="black"/>
<path d="M90.3728,32.5681h -5.84987" fill="none" stroke="black"/>
<path d="M96.2227,27.6039h -11.6997" fill="none" stroke="black"/>
<path d="M96.2227,27.6039h -11.6997" fill="none" stroke="black"/>
<path d="M90.3728,22.6397h -5.84987" fill="none" stroke="black"/>
<text xml:space="preserve" x="75.7221" y="205.382" fill="black" font-size="11.0931" font-family="Helvetica">0
</text>
<text xml:space="preserve" x="75.7221" y="180.871" fill="black" font-size="11.0931" font-family="Helvetica">5
</text>
<text xml:space="preserve" x="69.8058" y="155.515" fill="black" font-size="11.0931" font-family="Helvetica">10
</text>
<text xml:space="preserve" x="69.8058" y="131.005" fill="black" font-size="11.0931" font-family="Helvetica">15
</text>
<text xml:space="preserve" x="69.8058" y="106.494" fill="black" font-size="11.0931" font-family="Helvetica">20
</text>
<text xml:space="preserve" x="69.8058" y="81.1385" fill="black" font-size="11.0931" font-family="Helvetica">25
</text>
<text xml:space="preserve" x="69.8058" y="56.6279" fill="black" font-size="11.0931" font-family="Helvetica">30
</text>
<text xml:space="preserve" x="69.8058" y="32.1173" fill="black" font-size="11.0931" font-family="Helvetica">35
</text>
<path d="M474.514,201.351v -182.434" fill="none" stroke="black"/>
<path d="M462.815,201.351h 11.6997" fill="none" stroke="black"/>
<path d="M468.664,196.386h 5.84987" fill="none" stroke="black"/>
<path d="M468.664,191.422h 5.84987" fill="none" stroke="black"/>
<path d="M468.664,186.458h 5.84987" fill="none" stroke="black"/>
<path d="M468.664,181.494h 5.84987" fill="none" stroke="black"/>
<path d="M462.815,176.53h 11.6997" fill="none" stroke="black"/>
<path d="M468.664,171.565h 5.84987" fill="none" stroke="black"/>
<path d="M468.664,166.601h 5.84987" fill="none" stroke="black"/>
<path d="M468.664,161.637h 5.84987" fill="none" stroke="black"/>
<path d="M468.664,156.673h 5.84987" fill="none" stroke="black"/>
<path d="M462.815,151.709h 11.6997" fill="none" stroke="black"/>
<path d="M468.664,146.744h 5.84987" fill="none" stroke="black"/>
<path d="M468.664,141.78h 5.84987" fill="none" stroke="black"/>
<path d="M468.664,136.816h 5.84987" fill="none" stroke="black"/>
<path d="M468.664,131.852h 5.84987" fill="none" stroke="black"/>
<path d="M462.815,126.888h 11.6997" fill="none" stroke="black"/>
<path d="M468.664,121.923h 5.84987" fill="none" stroke="black"/>
<path d="M468.664,116.959h 5.84987" fill="none" stroke="black"/>
<path d="M468.664,111.995h 5.84987" fill="none" stroke="black"/>
<path d="M468.664,107.031h 5.84987" fill="none" stroke="black"/>
<path d="M462.815,102.067h 11.6997" fill="none" stroke="black"/>
<path d="M468.664,97.1025h 5.84987" fill="none" stroke="black"/>
<path d="M468.664,92.1383h 5.84987" fill="none" stroke="black"/>
<path d="M468.664,87.1742h 5.84987" fill="none" stroke="black"/>
<path d="M468.664,82.21h 5.84987" fill="none" stroke="black"/>
<path d="M462.815,77.2458h 11.6997" fill="none" stroke="black"/>
<path d="M468.664,72.2816h 5.84987" fill="none" stroke="black"/>
<path d="M468.664,67.3174h 5.84987" fill="none" stroke="black"/>
<path d="M468.664,62.3532h 5.84987" fill="none" stroke="black"/>
<path d="M468.664,57.389h 5.84987" fill="none" stroke="black"/>
<path d="M462.815,52.4248h 11.6997" fill="none" stroke="black"/>
<path d="M468.664,47.4606h 5.84987" fill="none" stroke="black"/>
<path d="M468.664,42.4964h 5.84987" fill="none" stroke="black"/>
<path d="M468.664,37.5322h 5.84987" fill="none" stroke="black"/>
<path d="M468.664,32.5681h 5.84987" fill="none" stroke="black"/>
<path d="M462.815,27.6039h 11.6997" fill="none" stroke="black"/>
<path d="M462.815,27.6039h 11.6997" fill="none" stroke="black"/>
<path d="M468.664,22.6397h 5.84987" fill="none" stroke="black"/>
<rect x="5.53735" y="253.039" width="493.66" height="230.929" fill="#d3ce87"/>
<rect x="84.5229" y="264.586" width="389.991" height="182.434" fill="#adbcc6"/>
<rect x="84.5229" y="264.586" width="389.991" height="182.434" fill="none" stroke="black"/>
<rect x="84.5229" y="264.586" width="389.991" height="182.434" fill="#adbcc6"/>
<rect x="84.5229" y="264.586" width="389.991" height="182.434" fill="none" stroke="black"/>
<path d="M84.5229,447.02h 389.991" fill="none" stroke="black"/>
<path d="M84.5229,264.586v 182.434" fill="none" stroke="black" stroke-dasharray=" 1, 2"/>
<path d="M155.495,264.586v 182.434" fill="none" stroke="black" stroke-dasharray=" 1, 2"/>
<path d="M226.467,264.586v 182.434" fill="none" stroke="black" stroke-dasharray=" 1, 2"/>
<path d="M297.439,264.586v 182.434" fill="none" stroke="black" stroke-dasharray=" 1, 2"/>
<path d="M368.411,264.586v 182.434" fill="none" stroke="black" stroke-dasharray=" 1, 2"/>
<path d="M439.383,264.586v 182.434" fill="none" stroke="black" stroke-dasharray=" 1, 2"/>
<path d="M439.383,264.586v 182.434" fill="none" stroke="black" stroke-dasharray=" 1, 2"/>
<path d="M84.5229,264.586h 389.991" fill="none" stroke="black"/>
<path d="M84.5229,447.02v -182.434" fill="none" stroke="black"/>
<path d="M474.514,425.41h -389.991" fill="none" stroke="black" stroke-dasharray=" 1, 2"/>
<path d="M474.514,396.285h -389.991" fill="none" stroke="black" stroke-dasharray=" 1, 2"/>
<path d="M474.514,367.161h -389.991" fill="none" stroke="black" stroke-dasharray=" 1, 2"/>
<path d="M474.514,338.037h -389.991" fill="none" stroke="black" stroke-dasharray=" 1, 2"/>
<path d="M474.514,308.913h -389.991" fill="none" stroke="black" stroke-dasharray=" 1, 2"/>
<path d="M474.514,279.789h -389.991" fill="none" stroke="black" stroke-dasharray=" 1, 2"/>
<path d="M474.514,425.41h -389.991" fill="none" stroke="black" stroke-dasharray=" 1, 2"/>
<path d="M474.514,279.789h -389.991" fill="none" stroke="black" stroke-dasharray=" 1, 2"/>
<path d="M474.514,447.02v -182.434" fill="none" stroke="black"/>
<path d="M84.5229,447.02h 389.991" fill="none" stroke="black"/>
<path d="M84.5229,441.547v 5.47302" fill="none" stroke="black"/>
<path d="M102.266,444.283v 2.73651" fill="none" stroke="black"/>
<path d="M120.009,444.283v 2.73651" fill="none" stroke="black"/>
<path d="M137.752,444.283v 2.73651" fill="none" stroke="black"/>
<path d="M155.495,441.547v 5.47302" fill="none" stroke="black"/>
<path d="M173.238,444.283v 2.73651" fill="none" stroke="black"/>
<path d="M190.981,444.283v 2.73651" fill="none" stroke="black"/>
<path d="M208.724,444.283v 2.73651" fill="none" stroke="black"/>
<path d="M226.467,441.547v 5.47302" fill="none" stroke="black"/>
<path d="M244.21,444.283v 2.73651" fill="none" stroke="black"/>
<path d="M261.953,444.283v 2.73651" fill="none" stroke="black"/>
<path d="M279.696,444.283v 2.73651" fill="none" stroke="black"/>
<path d="M297.439,441.547v 5.47302" fill="none" stroke="black"/>
<path d="M315.182,444.283v 2.73651" fill="none" stroke="black"/>
<path d="M332.925,444.283v 2.73651" fill="none" stroke="black"/>
<path d="M350.668,444.283v 2.73651" fill="none" stroke="black"/>
<path d="M368.411,441.547v 5.47302" fill="none" stroke="black"/>
<path d="M386.154,444.283v 2.73651" fill="none" stroke="black"/>
<path d="M403.897,444.283v 2.73651" fill="none" stroke="black"/>
<path d="M421.64,444.283v 2.73651" fill="none" stroke="black"/>
<path d="M439.383,441.547v 5.47302" fill="none" stroke="black"/>
<path d="M439.383,441.547v 5.47302" fill="none" stroke="black"/>
<path d="M457.126,444.283v 2.73651" fill="none" stroke="black"/>
<text xml:space="preserve" x="80.7933" y="457.249" fill="black" font-size="11.0931" font-family="Helvetica">0
</text>
<text xml:space="preserve" x="147.563" y="457.249" fill="black" font-size="11.0931" font-family="Helvetica">0.2
</text>
<text xml:space="preserve" x="218.56" y="457.249" fill="black" font-size="11.0931" font-family="Helvetica">0.4
</text>
<text xml:space="preserve" x="289.556" y="457.249" fill="black" font-size="11.0931" font-family="Helvetica">0.6
</text>
<text xml:space="preserve" x="360.552" y="457.249" fill="black" font-size="11.0931" font-family="Helvetica">0.8
</text>
<text xml:space="preserve" x="436.619" y="457.249" fill="black" font-size="11.0931" font-family="Helvetica">1
</text>
<path d="M84.5229,264.586h 389.991" fill="none" stroke="black"/>
<path d="M84.5229,270.059v -5.47302" fill="none" stroke="black"/>
<path d="M102.266,267.322v -2.73651" fill="none" stroke="black"/>
<path d="M120.009,267.322v -2.73651" fill="none" stroke="black"/>
<path d="M137.752,267.322v -2.73651" fill="none" stroke="black"/>
<path d="M155.495,270.059v -5.47302" fill="none" stroke="black"/>
<path d="M173.238,267.322v -2.73651" fill="none" stroke="black"/>
<path d="M190.981,267.322v -2.73651" fill="none" stroke="black"/>
<path d="M208.724,267.322v -2.73651" fill="none" stroke="black"/>
<path d="M226.467,270.059v -5.47302" fill="none" stroke="black"/>
<path d="M244.21,267.322v -2.73651" fill="none" stroke="black"/>
<path d="M261.953,267.322v -2.73651" fill="none" stroke="black"/>
<path d="M279.696,267.322v -2.73651" fill="none" stroke="black"/>
<path d="M297.439,270.059v -5.47302" fill="none" stroke="black"/>
<path d="M315.182,267.322v -2.73651" fill="none" stroke="black"/>
<path d="M332.925,267.322v -2.73651" fill="none" stroke="black"/>
<path d="M350.668,267.322v -2.73651" fill="none" stroke="black"/>
<path d="M368.411,270.059v -5.47302" fill="none" stroke="black"/>
<path d="M386.154,267.322v -2.73651" fill="none" stroke="black"/>
<path d="M403.897,267.322v -2.73651" fill="none" stroke="black"/>
<path d="M421.64,267.322v -2.73651" fill="none" stroke="black"/>
<path d="M439.383,270.059v -5.47302" fill="none" stroke="black"/>
<path d="M439.383,270.059v -5.47302" fill="none" stroke="black"/>
<path d="M457.126,267.322v -2.73651" fill="none" stroke="black"/>
<path d="M84.5229,447.02v -182.434" fill="none" stroke="black"/>
<path d="M96.2227,425.41h -11.6997" fill="none" stroke="black"/>
<path d="M90.3728,419.585h -5.84987" fill="none" stroke="black"/>
<path d="M90.3728,413.76h -5.84987" fill="none" stroke="black"/>
<path d="M90.3728,407.935h -5.84987" fill="none" stroke="black"/>
<path d="M90.3728,402.11h -5.84987" fill="none" stroke="black"/>
<path d="M96.2227,396.285h -11.6997" fill="none" stroke="black"/>
<path d="M90.3728,390.461h -5.84987" fill="none" stroke="black"/>
<path d="M90.3728,384.636h -5.84987" fill="none" stroke="black"/>
<path d="M90.3728,378.811h -5.84987" fill="none" stroke="black"/>
<path d="M90.3728,372.986h -5.84987" fill="none" stroke="black"/>
<path d="M96.2227,367.161h -11.6997" fill="none" stroke="black"/>
<path d="M90.3728,361.336h -5.84987" fill="none" stroke="black"/>
<path d="M90.3728,355.512h -5.84987" fill="none" stroke="black"/>
<path d="M90.3728,349.687h -5.84987" fill="none" stroke="black"/>
<path d="M90.3728,343.862h -5.84987" fill="none" stroke="black"/>
<path d="M96.2227,338.037h -11.6997" fill="none" stroke="black"/>
<path d="M90.3728,332.212h -5.84987" fill="none" stroke="black"/>
<path d="M90.3728,326.387h -5.84987" fill="none" stroke="black"/>
<path d="M90.3728,320.563h -5.84987" fill="none" stroke="black"/>
<path d="M90.3728,314.738h -5.84987" fill="none" stroke="black"/>
<path d="M96.2227,308.913h -11.6997" fill="none" stroke="black"/>
<path d="M90.3728,303.088h -5.84987" fill="none" stroke="black"/>
<path d="M90.3728,297.263h -5.84987" fill="none" stroke="black"/>
<path d="M90.3728,291.438h -5.84987" fill="none" stroke="black"/>
<path d="M90.3728,285.613h -5.84987" fill="none" stroke="black"/>
<path d="M96.2227,279.789h -11.6997" fill="none" stroke="black"/>
<path d="M96.2227,425.41h -11.6997" fill="none" stroke="black"/>
<path d="M90.3728,431.234h -5.84987" fill="none" stroke="black"/>
<path d="M90.3728,437.059h -5.84987" fill="none" stroke="black"/>
<path d="M90.3728,442.884h -5.84987" fill="none" stroke="black"/>
<path d="M96.2227,279.789h -11.6997" fill="none" stroke="black"/>
<path d="M90.3728,273.964h -5.84987" fill="none" stroke="black"/>
<path d="M90.3728,268.139h -5.84987" fill="none" stroke="black"/>
<text xml:space="preserve" x="75.7221" y="430.203" fill="black" font-size="11.0931" font-family="Helvetica">2
</text>
<text xml:space="preserve" x="69.8058" y="430.203" fill="black" font-size="11.0931" font-family="Times">&#8722;
</text>
<text xml:space="preserve" x="77.4125" y="401.466" fill="black" font-size="11.0931" font-family="Helvetica">1
</text>
<text xml:space="preserve" x="71.4962" y="401.466" fill="black" font-size="11.0931" font-family="Times">&#8722;
</text>
<text xml:space="preserve" x="75.7221" y="371.039" fill="black" font-size="11.0931" font-family="Helvetica">0
</text>
<text xml:space="preserve" x="77.4125" y="343.148" fill="black" font-size="11.0931" font-family="Helvetica">1
</text>
<text xml:space="preserve" x="75.7221" y="313.566" fill="black" font-size="11.0931" font-family="Helvetica">2
</text>
<text xml:space="preserve" x="75.7221" y="283.985" fill="black" font-size="11.0931" font-family="Helvetica">3
</text>
<path d="M474.514,447.02v -182.434" fill="none" stroke="black"/>
<path d="M462.815,425.41h 11.6997" fill="none" stroke="black"/>
<path d="M468.664,419.585h 5.84987" fill="none" stroke="black"/>
<path d="M468.664,413.76h 5.84987" fill="none" stroke="black"/>
<path d="M468.664,407.935h 5.84987" fill="none" stroke="black"/>
<path d="M468.664,402.11h 5.84987" fill="none" stroke="black"/>
<path d="M462.815,396.285h 11.6997" fill="none" stroke="black"/>
<path d="M468.664,390.461h 5.84987" fill="none" stroke="black"/>
<path d="M468.664,384.636h 5.84987" fill="none" stroke="black"/>
<path d="M468.664,378.811h 5.84987" fill="none" stroke="black"/>
<path d="M468.664,372.986h 5.84987" fill="none" stroke="black"/>
<path d="M462.815,367.161h 11.6997" fill="none" stroke="black"/>
<path d="M468.664,361.336h 5.84987" fill="none" stroke="black"/>
<path d="M468.664,355.512h 5.84987" fill="none" stroke="black"/>
<path d="M468.664,349.687h 5.84987" fill="none" stroke="black"/>
<path d="M468.664,343.862h 5.84987" fill="none" stroke="black"/>
<path d="M462.815,338.037h 11.6997" fill="none" stroke="black"/>
<path d="M468.664,332.212h 5.84987" fill="none" stroke="black"/>
<path d="M468.664,326.387h 5.84987" fill="none" stroke="black"/>
<path d="M468.664,320.563h 5.84987" fill="none" stroke="black"/>
<path d="M468.664,314.738h 5.84987" fill="none" stroke="black"/>
<path d="M462.815,308.913h 11.6997" fill="none" stroke="black"/>
<path d="M468.664,303.088h 5.84987" fill="none" stroke="black"/>
<path d="M468.664,297.263h 5.84987" fill="none" stroke="black"/>
<path d="M468.664,291.438h 5.84987" fill="none" stroke="black"/>
<path d="M468.664,285.613h 5.84987" fill="none" stroke="black"/>
<path d="M462.815,279.789h 11.6997" fill="none" stroke="black"/>
<path d="M462.815,425.41h 11.6997" fill="none" stroke="black"/>
<path d="M468.664,431.234h 5.84987" fill="none" stroke="black"/>
<path d="M468.664,437.059h 5.84987" fill="none" stroke="black"/>
<path d="M468.664,442.884h 5.84987" fill="none" stroke="black"/>
<path d="M462.815,279.789h 11.6997" fill="none" stroke="black"/>
<path d="M468.664,273.964h 5.84987" fill="none" stroke="black"/>
<path d="M468.664,268.139h 5.84987" fill="none" stroke="black"/>
<g fill="#ff0000">
<rect x="87.0573" y="430.803" width="2.02846" height="2.02846"/>
<rect x="90.6059" y="423.563" width="2.02846" height="2.02846"/>
<rect x="94.1545" y="420.668" width="2.02846" height="2.02846"/>
<rect x="97.7031" y="416.241" width="2.02846" height="2.02846"/>
<rect x="101.252" y="413.522" width="2.02846" height="2.02846"/>
<rect x="104.8" y="411.581" width="2.02846" height="2.02846"/>
<rect x="108.349" y="409.396" width="2.02846" height="2.02846"/>
<rect x="111.898" y="407.087" width="2.02846" height="2.02846"/>
<rect x="115.446" y="404.591" width="2.02846" height="2.02846"/>
<rect x="118.995" y="402.649" width="2.02846" height="2.02846"/>
<rect x="122.543" y="400.921" width="2.02846" height="2.02846"/>
<rect x="126.092" y="400.048" width="2.02846" height="2.02846"/>
<rect x="129.641" y="399.174" width="2.02846" height="2.02846"/>
<rect x="133.189" y="398.3" width="2.02846" height="2.02846"/>
<rect x="136.738" y="397.383" width="2.02846" height="2.02846"/>
<rect x="140.286" y="396.291" width="2.02846" height="2.02846"/>
<rect x="143.835" y="395.198" width="2.02846" height="2.02846"/>
<rect x="147.384" y="394.106" width="2.02846" height="2.02846"/>
<rect x="150.932" y="392.858" width="2.02846" height="2.02846"/>
<rect x="154.481" y="391.61" width="2.02846" height="2.02846"/>
<rect x="158.029" y="390.342" width="2.02846" height="2.02846"/>
<rect x="161.578" y="388.998" width="2.02846" height="2.02846"/>
<rect x="165.127" y="387.654" width="2.02846" height="2.02846"/>
<rect x="168.675" y="386.5" width="2.02846" height="2.02846"/>
<rect x="172.224" y="385.472" width="2.02846" height="2.02846"/>
<rect x="175.772" y="384.444" width="2.02846" height="2.02846"/>
<rect x="179.321" y="383.447" width="2.02846" height="2.02846"/>
<rect x="182.87" y="382.573" width="2.02846" height="2.02846"/>
<rect x="186.418" y="381.699" width="2.02846" height="2.02846"/>
<rect x="189.967" y="380.826" width="2.02846" height="2.02846"/>
<rect x="193.515" y="379.943" width="2.02846" height="2.02846"/>
<rect x="197.064" y="379.023" width="2.02846" height="2.02846"/>
<rect x="200.613" y="378.103" width="2.02846" height="2.02846"/>
<rect x="204.161" y="377.184" width="2.02846" height="2.02846"/>
<rect x="207.71" y="376.352" width="2.02846" height="2.02846"/>
<rect x="211.258" y="375.653" width="2.02846" height="2.02846"/>
<rect x="214.807" y="374.954" width="2.02846" height="2.02846"/>
<rect x="218.356" y="374.255" width="2.02846" height="2.02846"/>
<rect x="221.904" y="373.556" width="2.02846" height="2.02846"/>
<rect x="225.453" y="372.857" width="2.02846" height="2.02846"/>
<rect x="229.001" y="372.158" width="2.02846" height="2.02846"/>
<rect x="232.55" y="371.459" width="2.02846" height="2.02846"/>
<rect x="236.099" y="370.76" width="2.02846" height="2.02846"/>
<rect x="239.647" y="370.061" width="2.02846" height="2.02846"/>
<rect x="243.196" y="369.373" width="2.02846" height="2.02846"/>
<rect x="246.744" y="368.701" width="2.02846" height="2.02846"/>
<rect x="250.293" y="368.029" width="2.02846" height="2.02846"/>
<rect x="253.842" y="367.357" width="2.02846" height="2.02846"/>
<rect x="257.39" y="366.685" width="2.02846" height="2.02846"/>
<rect x="260.939" y="365.981" width="2.02846" height="2.02846"/>
<rect x="264.487" y="365.148" width="2.02846" height="2.02846"/>
<rect x="268.036" y="364.316" width="2.02846" height="2.02846"/>
<rect x="271.585" y="363.484" width="2.02846" height="2.02846"/>
<rect x="275.133" y="362.652" width="2.02846" height="2.02846"/>
<rect x="278.682" y="361.924" width="2.02846" height="2.02846"/>
<rect x="282.23" y="361.196" width="2.02846" height="2.02846"/>
<rect x="285.779" y="360.468" width="2.02846" height="2.02846"/>
<rect x="289.328" y="359.74" width="2.02846" height="2.02846"/>
<rect x="292.876" y="359.012" width="2.02846" height="2.02846"/>
<rect x="296.425" y="358.283" width="2.02846" height="2.02846"/>
<rect x="299.973" y="357.555" width="2.02846" height="2.02846"/>
<rect x="303.522" y="356.827" width="2.02846" height="2.02846"/>
<rect x="307.071" y="356.099" width="2.02846" height="2.02846"/>
<rect x="310.619" y="355.463" width="2.02846" height="2.02846"/>
<rect x="314.168" y="354.963" width="2.02846" height="2.02846"/>
<rect x="317.716" y="354.464" width="2.02846" height="2.02846"/>
<rect x="321.265" y="353.965" width="2.02846" height="2.02846"/>
<rect x="324.814" y="353.466" width="2.02846" height="2.02846"/>
<rect x="328.362" y="352.966" width="2.02846" height="2.02846"/>
<rect x="331.911" y="352.467" width="2.02846" height="2.02846"/>
<rect x="335.46" y="351.863" width="2.02846" height="2.02846"/>
<rect x="339.008" y="351.104" width="2.02846" height="2.02846"/>
<rect x="342.557" y="350.344" width="2.02846" height="2.02846"/>
<rect x="346.105" y="349.584" width="2.02846" height="2.02846"/>
<rect x="349.654" y="348.824" width="2.02846" height="2.02846"/>
<rect x="353.203" y="347.937" width="2.02846" height="2.02846"/>
<rect x="356.751" y="347.017" width="2.02846" height="2.02846"/>
<rect x="360.3" y="346.097" width="2.02846" height="2.02846"/>
<rect x="363.848" y="345.178" width="2.02846" height="2.02846"/>
<rect x="367.397" y="343.589" width="2.02846" height="2.02846"/>
<rect x="370.946" y="342" width="2.02846" height="2.02846"/>
<rect x="374.494" y="341.047" width="2.02846" height="2.02846"/>
<rect x="378.043" y="340.253" width="2.02846" height="2.02846"/>
<rect x="381.591" y="339.459" width="2.02846" height="2.02846"/>
<rect x="385.14" y="338.664" width="2.02846" height="2.02846"/>
<rect x="388.689" y="337.552" width="2.02846" height="2.02846"/>
<rect x="392.237" y="335.964" width="2.02846" height="2.02846"/>
<rect x="395.786" y="333.994" width="2.02846" height="2.02846"/>
<rect x="399.334" y="330.907" width="2.02846" height="2.02846"/>
<rect x="402.883" y="329.451" width="2.02846" height="2.02846"/>
<rect x="406.432" y="327.994" width="2.02846" height="2.02846"/>
<rect x="409.98" y="323.626" width="2.02846" height="2.02846"/>
<rect x="413.529" y="320.713" width="2.02846" height="2.02846"/>
<rect x="417.077" y="318.966" width="2.02846" height="2.02846"/>
<rect x="420.626" y="317.218" width="2.02846" height="2.02846"/>
<rect x="424.175" y="314.722" width="2.02846" height="2.02846"/>
<rect x="427.723" y="310.229" width="2.02846" height="2.02846"/>
<rect x="431.272" y="304.112" width="2.02846" height="2.02846"/>
<rect x="434.82" y="291.589" width="2.02846" height="2.02846"/>
<rect x="438.369" y="278.774" width="2.02846" height="2.02846"/>
</g>
<text xml:space="preserve" x="120.009" y="297.263" fill="#ff0000" font-size="17.4489" font-family="Helvetica">please move the mouse over the graph
</text>
<rect x="5.53735" y="498.709" width="493.66" height="230.929" fill="#d3ce87"/>
<rect x="84.5229" y="510.255" width="389.991" height="182.434" fill="#cccccc"/>
<rect x="84.5229" y="510.255" width="389.991" height="182.434" fill="none" stroke="black"/>
<rect x="84.5229" y="510.255" width="389.991" height="182.434" fill="#cccccc"/>
<rect x="84.5229" y="510.255" width="389.991" height="182.434" fill="none" stroke="black"/>
<path d="M84.5229,692.689h 389.991" fill="none" stroke="black"/>
<path d="M84.5229,510.255v 182.434" fill="none" stroke="black" stroke-dasharray=" 1, 2"/>
<path d="M155.43,510.255v 182.434" fill="none" stroke="black" stroke-dasharray=" 1, 2"/>
<path d="M226.338,510.255v 182.434" fill="none" stroke="black" stroke-dasharray=" 1, 2"/>
<path d="M297.246,510.255v 182.434" fill="none" stroke="black" stroke-dasharray=" 1, 2"/>
<path d="M368.153,510.255v 182.434" fill="none" stroke="black" stroke-dasharray=" 1, 2"/>
<path d="M439.061,510.255v 182.434" fill="none" stroke="black" stroke-dasharray=" 1, 2"/>
<path d="M439.061,510.255v 182.434" fill="none" stroke="black" stroke-dasharray=" 1, 2"/>
<path d="M84.5229,510.255h 389.991" fill="none" stroke="black"/>
<path d="M84.5229,692.689v -182.434" fill="none" stroke="black"/>
<path d="M474.514,692.689h -389.991" fill="none" stroke="black" stroke-dasharray=" 1, 2"/>
<path d="M474.514,664.184h -389.991" fill="none" stroke="black" stroke-dasharray=" 1, 2"/>
<path d="M474.514,635.678h -389.991" fill="none" stroke="black" stroke-dasharray=" 1, 2"/>
<path d="M474.514,607.173h -389.991" fill="none" stroke="black" stroke-dasharray=" 1, 2"/>
<path d="M474.514,578.668h -389.991" fill="none" stroke="black" stroke-dasharray=" 1, 2"/>
<path d="M474.514,550.163h -389.991" fill="none" stroke="black" stroke-dasharray=" 1, 2"/>
<path d="M474.514,521.657h -389.991" fill="none" stroke="black" stroke-dasharray=" 1, 2"/>
<path d="M474.514,521.657h -389.991" fill="none" stroke="black" stroke-dasharray=" 1, 2"/>
<path d="M474.514,692.689v -182.434" fill="none" stroke="black"/>
<path d="M84.5229,692.689h 389.991" fill="none" stroke="black"/>
<path d="M84.5229,687.216v 5.47302" fill="none" stroke="black"/>
<path d="M102.25,689.953v 2.73651" fill="none" stroke="black"/>
<path d="M119.977,689.953v 2.73651" fill="none" stroke="black"/>
<path d="M137.704,689.953v 2.73651" fill="none" stroke="black"/>
<path d="M155.43,687.216v 5.47302" fill="none" stroke="black"/>
<path d="M173.157,689.953v 2.73651" fill="none" stroke="black"/>
<path d="M190.884,689.953v 2.73651" fill="none" stroke="black"/>
<path d="M208.611,689.953v 2.73651" fill="none" stroke="black"/>
<path d="M226.338,687.216v 5.47302" fill="none" stroke="black"/>
<path d="M244.065,689.953v 2.73651" fill="none" stroke="black"/>
<path d="M261.792,689.953v 2.73651" fill="none" stroke="black"/>
<path d="M279.519,689.953v 2.73651" fill="none" stroke="black"/>
<path d="M297.246,687.216v 5.47302" fill="none" stroke="black"/>
<path d="M314.972,689.953v 2.73651" fill="none" stroke="black"/>
<path d="M332.699,689.953v 2.73651" fill="none" stroke="black"/>
<path d="M350.426,689.953v 2.73651" fill="none" stroke="black"/>
<path d="M368.153,687.216v 5.47302" fill="none" stroke="black"/>
<path d="M385.88,689.953v 2.73651" fill="none" stroke="black"/>
<path d="M403.607,689.953v 2.73651" fill="none" stroke="black"/>
<path d="M421.334,689.953v 2.73651" fill="none" stroke="black"/>
<path d="M439.061,687.216v 5.47302" fill="none" stroke="black"/>
<path d="M439.061,687.216v 5.47302" fill="none" stroke="black"/>
<path d="M456.787,689.953v 2.73651" fill="none" stroke="black"/>
<text xml:space="preserve" x="80.7933" y="703.2" fill="black" font-size="11.0931" font-family="Helvetica">0
</text>
<text xml:space="preserve" x="151.789" y="703.2" fill="black" font-size="11.0931" font-family="Helvetica">2
</text>
<text xml:space="preserve" x="222.786" y="703.2" fill="black" font-size="11.0931" font-family="Helvetica">4
</text>
<text xml:space="preserve" x="293.782" y="703.2" fill="black" font-size="11.0931" font-family="Helvetica">6
</text>
<text xml:space="preserve" x="364.778" y="703.2" fill="black" font-size="11.0931" font-family="Helvetica">8
</text>
<text xml:space="preserve" x="433.239" y="703.2" fill="black" font-size="11.0931" font-family="Helvetica">10
</text>
<path d="M84.5229,510.255h 389.991" fill="none" stroke="black"/>
<path d="M84.5229,515.728v -5.47302" fill="none" stroke="black"/>
<path d="M102.25,512.992v -2.73651" fill="none" stroke="black"/>
<path d="M119.977,512.992v -2.73651" fill="none" stroke="black"/>
<path d="M137.704,512.992v -2.73651" fill="none" stroke="black"/>
<path d="M155.43,515.728v -5.47302" fill="none" stroke="black"/>
<path d="M173.157,512.992v -2.73651" fill="none" stroke="black"/>
<path d="M190.884,512.992v -2.73651" fill="none" stroke="black"/>
<path d="M208.611,512.992v -2.73651" fill="none" stroke="black"/>
<path d="M226.338,515.728v -5.47302" fill="none" stroke="black"/>
<path d="M244.065,512.992v -2.73651" fill="none" stroke="black"/>
<path d="M261.792,512.992v -2.73651" fill="none" stroke="black"/>
<path d="M279.519,512.992v -2.73651" fill="none" stroke="black"/>
<path d="M297.246,515.728v -5.47302" fill="none" stroke="black"/>
<path d="M314.972,512.992v -2.73651" fill="none" stroke="black"/>
<path d="M332.699,512.992v -2.73651" fill="none" stroke="black"/>
<path d="M350.426,512.992v -2.73651" fill="none" stroke="black"/>
<path d="M368.153,515.728v -5.47302" fill="none" stroke="black"/>
<path d="M385.88,512.992v -2.73651" fill="none" stroke="black"/>
<path d="M403.607,512.992v -2.73651" fill="none" stroke="black"/>
<path d="M421.334,512.992v -2.73651" fill="none" stroke="black"/>
<path d="M439.061,515.728v -5.47302" fill="none" stroke="black"/>
<path d="M439.061,515.728v -5.47302" fill="none" stroke="black"/>
<path d="M456.787,512.992v -2.73651" fill="none" stroke="black"/>
<path d="M84.5229,692.689v -182.434" fill="none" stroke="black"/>
<path d="M96.2227,692.689h -11.6997" fill="none" stroke="black"/>
<path d="M90.3728,686.988h -5.84987" fill="none" stroke="black"/>
<path d="M90.3728,681.287h -5.84987" fill="none" stroke="black"/>
<path d="M90.3728,675.586h -5.84987" fill="none" stroke="black"/>
<path d="M90.3728,669.885h -5.84987" fill="none" stroke="black"/>
<path d="M96.2227,664.184h -11.6997" fill="none" stroke="black"/>
<path d="M90.3728,658.483h -5.84987" fill="none" stroke="black"/>
<path d="M90.3728,652.782h -5.84987" fill="none" stroke="black"/>
<path d="M90.3728,647.081h -5.84987" fill="none" stroke="black"/>
<path d="M90.3728,641.38h -5.84987" fill="none" stroke="black"/>
<path d="M96.2227,635.678h -11.6997" fill="none" stroke="black"/>
<path d="M90.3728,629.977h -5.84987" fill="none" stroke="black"/>
<path d="M90.3728,624.276h -5.84987" fill="none" stroke="black"/>
<path d="M90.3728,618.575h -5.84987" fill="none" stroke="black"/>
<path d="M90.3728,612.874h -5.84987" fill="none" stroke="black"/>
<path d="M96.2227,607.173h -11.6997" fill="none" stroke="black"/>
<path d="M90.3728,601.472h -5.84987" fill="none" stroke="black"/>
<path d="M90.3728,595.771h -5.84987" fill="none" stroke="black"/>
<path d="M90.3728,590.07h -5.84987" fill="none" stroke="black"/>
<path d="M90.3728,584.369h -5.84987" fill="none" stroke="black"/>
<path d="M96.2227,578.668h -11.6997" fill="none" stroke="black"/>
<path d="M90.3728,572.967h -5.84987" fill="none" stroke="black"/>
<path d="M90.3728,567.266h -5.84987" fill="none" stroke="black"/>
<path d="M90.3728,561.565h -5.84987" fill="none" stroke="black"/>
<path d="M90.3728,555.864h -5.84987" fill="none" stroke="black"/>
<path d="M96.2227,550.163h -11.6997" fill="none" stroke="black"/>
<path d="M90.3728,544.461h -5.84987" fill="none" stroke="black"/>
<path d="M90.3728,538.76h -5.84987" fill="none" stroke="black"/>
<path d="M90.3728,533.059h -5.84987" fill="none" stroke="black"/>
<path d="M90.3728,527.358h -5.84987" fill="none" stroke="black"/>
<path d="M96.2227,521.657h -11.6997" fill="none" stroke="black"/>
<path d="M96.2227,521.657h -11.6997" fill="none" stroke="black"/>
<path d="M90.3728,515.956h -5.84987" fill="none" stroke="black"/>
<path d="M90.3728,510.255h -5.84987" fill="none" stroke="black"/>
<text xml:space="preserve" x="75.7221" y="697.284" fill="black" font-size="11.0931" font-family="Helvetica">0
</text>
<text xml:space="preserve" x="66.425" y="668.547" fill="black" font-size="11.0931" font-family="Helvetica">0.5
</text>
<text xml:space="preserve" x="77.4125" y="640.656" fill="black" font-size="11.0931" font-family="Helvetica">1
</text>
<text xml:space="preserve" x="66.425" y="611.074" fill="black" font-size="11.0931" font-family="Helvetica">1.5
</text>
<text xml:space="preserve" x="75.7221" y="584.028" fill="black" font-size="11.0931" font-family="Helvetica">2
</text>
<text xml:space="preserve" x="66.425" y="554.446" fill="black" font-size="11.0931" font-family="Helvetica">2.5
</text>
<text xml:space="preserve" x="75.7221" y="525.71" fill="black" font-size="11.0931" font-family="Helvetica">3
</text>
<path d="M474.514,692.689v -182.434" fill="none" stroke="black"/>
<path d="M462.815,692.689h 11.6997" fill="none" stroke="black"/>
<path d="M468.664,686.988h 5.84987" fill="none" stroke="black"/>
<path d="M468.664,681.287h 5.84987" fill="none" stroke="black"/>
<path d="M468.664,675.586h 5.84987" fill="none" stroke="black"/>
<path d="M468.664,669.885h 5.84987" fill="none" stroke="black"/>
<path d="M462.815,664.184h 11.6997" fill="none" stroke="black"/>
<path d="M468.664,658.483h 5.84987" fill="none" stroke="black"/>
<path d="M468.664,652.782h 5.84987" fill="none" stroke="black"/>
<path d="M468.664,647.081h 5.84987" fill="none" stroke="black"/>
<path d="M468.664,641.38h 5.84987" fill="none" stroke="black"/>
<path d="M462.815,635.678h 11.6997" fill="none" stroke="black"/>
<path d="M468.664,629.977h 5.84987" fill="none" stroke="black"/>
<path d="M468.664,624.276h 5.84987" fill="none" stroke="black"/>
<path d="M468.664,618.575h 5.84987" fill="none" stroke="black"/>
<path d="M468.664,612.874h 5.84987" fill="none" stroke="black"/>
<path d="M462.815,607.173h 11.6997" fill="none" stroke="black"/>
<path d="M468.664,601.472h 5.84987" fill="none" stroke="black"/>
<path d="M468.664,595.771h 5.84987" fill="none" stroke="black"/>
<path d="M468.664,590.07h 5.84987" fill="none" stroke="black"/>
<path d="M468.664,584.369h 5.84987" fill="none" stroke="black"/>
<path d="M462.815,578.668h 11.6997" fill="none" stroke="black"/>
<path d="M468.664,572.967h 5.84987" fill="none" stroke="black"/>
<path d="M468.664,567.266h 5.84987" fill="none" stroke="black"/>
<path d="M468.664,561.565h 5.84987" fill="none" stroke="black"/>
<path d="M468.664,555.864h 5.84987" fill="none" stroke="black"/>
<path d="M462.815,550.163h 11.6997" fill="none" stroke="black"/>
<path d="M468.664,544.461h 5.84987" fill="none" stroke="black"/>
<path d="M468.664,538.76h 5.84987" fill="none" stroke="black"/>
<path d="M468.664,533.059h 5.84987" fill="none" stroke="black"/>
<path d="M468.664,527.358h 5.84987" fill="none" stroke="black"/>
<path d="M462.815,521.657h 11.6997" fill="none" stroke="black"/>
<path d="M462.815,521.657h 11.6997" fill="none" stroke="black"/>
<path d="M468.664,515.956h 5.84987" fill="none" stroke="black"/>
<path d="M468.664,510.255h 5.84987" fill="none" stroke="black"/>
<path d="M119.977,525.078l 35.4538, 3.42063l 35.4538, 17.1032l 35.4538, 3.42063l 35.4538, 3.42063l 35.4538, 3.42063l 35.4538, -8.55159l 35.4538, -1.71032l 35.4538, 3.26217e-06l 35.4538, 1.14021" fill="none" stroke="black"/>
<g fill="#ff0000">
<polygon points=" 119.977, 521.021 124.034, 529.135 115.92, 529.135"/>
<polygon points=" 155.43, 524.442 159.487, 532.555 151.374, 532.555"/>
<polygon points=" 190.884, 541.545 194.941, 549.659 186.827, 549.659"/>
<polygon points=" 226.338, 544.965 230.395, 553.079 222.281, 553.079"/>
<polygon points=" 261.792, 548.386 265.849, 556.5 257.735, 556.5"/>
<polygon points=" 297.246, 551.807 301.302, 559.92 293.189, 559.92"/>
<polygon points=" 332.699, 543.255 336.756, 551.369 328.642, 551.369"/>
<polygon points=" 368.153, 541.545 372.21, 549.659 364.096, 549.659"/>
<polygon points=" 403.607, 541.545 407.664, 549.659 399.55, 549.659"/>
<polygon points=" 439.061, 542.685 443.118, 550.799 435.004, 550.799"/>
</g>
<path d="M119.977,619.145l 35.4538, 23.3744l 35.4538, -3.99074l 35.4538, -14.2527l 35.4538, -10.2619l 35.4538, 5.13099l 35.4538, 2.28043l 35.4538, -3.2306l 35.4538, 0.17276l 35.4538, -0.362795" fill="none" stroke="black"/>
<g fill="#0000ff">
<rect x="115.92" y="615.088" width="8.11385" height="8.11385"/>
<rect x="151.374" y="638.463" width="8.11385" height="8.11385"/>
<rect x="186.827" y="634.472" width="8.11385" height="8.11385"/>
<rect x="222.281" y="620.219" width="8.11385" height="8.11385"/>
<rect x="257.735" y="609.957" width="8.11385" height="8.11385"/>
<rect x="293.189" y="615.088" width="8.11385" height="8.11385"/>
<rect x="328.642" y="617.369" width="8.11385" height="8.11385"/>
<rect x="364.096" y="614.138" width="8.11385" height="8.11385"/>
<rect x="399.55" y="614.311" width="8.11385" height="8.11385"/>
<rect x="435.004" y="613.948" width="8.11385" height="8.11385"/>
</g>
<path d="M119.977,668.745l 35.4538, 6.84128l 35.4538, -3.7627l 35.4538, -2.58991l 35.4538, -1.00176l 35.4538, 1.25671l 35.4538, -1.45625l 35.4538, -1.39237l 35.4538, -1.47852l 35.4538, -0.432006" fill="none" stroke="black"/>
<g fill="#ff00ff">
<circle cx="119.977" cy="668.745" r="4.05692"/>
<circle cx="155.43" cy="675.586" r="4.05692"/>
<circle cx="190.884" cy="671.823" r="4.05692"/>
<circle cx="226.338" cy="669.233" r="4.05692"/>
<circle cx="261.792" cy="668.232" r="4.05692"/>
<circle cx="297.246" cy="669.488" r="4.05692"/>
<circle cx="332.699" cy="668.032" r="4.05692"/>
<circle cx="368.153" cy="666.64" r="4.05692"/>
<circle cx="403.607" cy="665.161" r="4.05692"/>
<circle cx="439.061" cy="664.729" r="4.05692"/>
</g>
<rect x="425.148" y="510.255" width="49.366" height="48.4951" fill="white"/>
<path d="M430.22,558.75v 3.38077h 47.6756v -46.8047h -3.38077v 43.424z" fill="black"/>
<path d="M425.148,558.75v -48.4951h 49.366v 48.4951h -49.366z" fill="none" stroke="black"/>
<text xml:space="preserve" x="437.465" y="522.329" fill="black" font-size="11.0931" font-family="Helvetica" font-weight="bold" font-style="oblique"> q98
</text>
<path d="M427,518.338h 8.63905" fill="none" stroke="black"/>
<g fill="#ff0000">
<polygon points=" 431.319, 514.281 435.376, 522.395 427.262, 522.395"/>
</g>
<text xml:space="preserve" x="437.465" y="538.388" fill="black" font-size="11.0931" font-family="Helvetica" font-weight="bold" font-style="oblique"> q90
</text>
<path d="M427,534.503h 8.63905" fill="none" stroke="black"/>
<g fill="#0000ff">
<rect x="427.262" y="530.446" width="8.11385" height="8.11385"/>
</g>
<text xml:space="preserve" x="437.465" y="554.446" fill="black" font-size="11.0931" font-family="Helvetica" font-weight="bold" font-style="oblique"> q70
</text>
<path d="M427,550.668h 8.63905" fill="none" stroke="black"/>
<g fill="#ff00ff">
<circle cx="431.319" cy="550.668" r="4.05692"/>
</g></svg>
