<?xml version="1.0" standalone="no"?>
<svg width="567.429" height="299.15" viewBox="0 0 567.429 299.15" xmlns="http://www.w3.org/2000/svg" shape-rendering="crispEdges">
<title>
./old_svg_ref/labels1.svg
</title>
<desc>
Creator: ROOT Version 6.33.01
CreationDate: Wed Jul 10 09:58:01 2024</desc>
<defs>
</defs>
<rect x="0.5" y="0" width="566.929" height="298.65" fill="white"/>
<rect x="91.2087" y="14.9325" width="447.874" height="238.92" fill="white"/>
<rect x="91.2087" y="14.9325" width="447.874" height="238.92" fill="none" stroke="black"/>
<path d="M91.2087,253.853h 447.874" fill="none" stroke="black"/>
<path d="M91.2087,14.9325v 238.92" fill="none" stroke="black" stroke-dasharray=" 1, 2"/>
<path d="M113.602,14.9325v 238.92" fill="none" stroke="black" stroke-dasharray=" 1, 2"/>
<path d="M135.996,14.9325v 238.92" fill="none" stroke="black" stroke-dasharray=" 1, 2"/>
<path d="M158.39,14.9325v 238.92" fill="none" stroke="black" stroke-dasharray=" 1, 2"/>
<path d="M180.783,14.9325v 238.92" fill="none" stroke="black" stroke-dasharray=" 1, 2"/>
<path d="M203.177,14.9325v 238.92" fill="none" stroke="black" stroke-dasharray=" 1, 2"/>
<path d="M225.571,14.9325v 238.92" fill="none" stroke="black" stroke-dasharray=" 1, 2"/>
<path d="M247.965,14.9325v 238.92" fill="none" stroke="black" stroke-dasharray=" 1, 2"/>
<path d="M270.358,14.9325v 238.92" fill="none" stroke="black" stroke-dasharray=" 1, 2"/>
<path d="M292.752,14.9325v 238.92" fill="none" stroke="black" stroke-dasharray=" 1, 2"/>
<path d="M315.146,14.9325v 238.92" fill="none" stroke="black" stroke-dasharray=" 1, 2"/>
<path d="M337.539,14.9325v 238.92" fill="none" stroke="black" stroke-dasharray=" 1, 2"/>
<path d="M359.933,14.9325v 238.92" fill="none" stroke="black" stroke-dasharray=" 1, 2"/>
<path d="M382.327,14.9325v 238.92" fill="none" stroke="black" stroke-dasharray=" 1, 2"/>
<path d="M404.72,14.9325v 238.92" fill="none" stroke="black" stroke-dasharray=" 1, 2"/>
<path d="M427.114,14.9325v 238.92" fill="none" stroke="black" stroke-dasharray=" 1, 2"/>
<path d="M449.508,14.9325v 238.92" fill="none" stroke="black" stroke-dasharray=" 1, 2"/>
<path d="M471.902,14.9325v 238.92" fill="none" stroke="black" stroke-dasharray=" 1, 2"/>
<path d="M494.295,14.9325v 238.92" fill="none" stroke="black" stroke-dasharray=" 1, 2"/>
<path d="M516.689,14.9325v 238.92" fill="none" stroke="black" stroke-dasharray=" 1, 2"/>
<path d="M539.083,14.9325v 238.92" fill="none" stroke="black" stroke-dasharray=" 1, 2"/>
<path d="M91.2087,14.9325h 447.874" fill="none" stroke="black"/>
<path d="M91.2087,253.853v -238.92" fill="none" stroke="black"/>
<path d="M539.083,210.828h -447.874" fill="none" stroke="black" stroke-dasharray=" 1, 2"/>
<path d="M539.083,165.492h -447.874" fill="none" stroke="black" stroke-dasharray=" 1, 2"/>
<path d="M539.083,120.156h -447.874" fill="none" stroke="black" stroke-dasharray=" 1, 2"/>
<path d="M539.083,74.8195h -447.874" fill="none" stroke="black" stroke-dasharray=" 1, 2"/>
<path d="M539.083,29.4832h -447.874" fill="none" stroke="black" stroke-dasharray=" 1, 2"/>
<path d="M539.083,210.828h -447.874" fill="none" stroke="black" stroke-dasharray=" 1, 2"/>
<path d="M539.083,29.4832h -447.874" fill="none" stroke="black" stroke-dasharray=" 1, 2"/>
<path d="M539.083,253.853v -238.92" fill="none" stroke="black"/>
<path d="M91.2087,253.853v -10.8354h 22.3937v -8.6139h 22.3937v -17.6812h 22.3937v -23.1215h 22.3937v -20.8547h 22.3937v -22.2148h 22.3937v -50.7767h 22.3937v -15.4143h 22.3937v -43.9762h 22.3937v -5.44036h 22.3937v -8.6139h 22.3937v 16.3211h
 22.3937v 26.7484h 22.3937v 17.2278h 22.3937v 51.23h 22.3937v 25.3883h 22.3937v 37.1758h 22.3937v 15.8677h 22.3937v 12.6942h 22.3937v 11.7874h 22.3937v 13.1022z" fill="#7c99d1"/>
<path d="M91.2087,243.017h 22.3937v -8.6139h 22.3937v -17.6812h 22.3937v -23.1215h 22.3937v -20.8547h 22.3937v -22.2148h 22.3937v -50.7767h 22.3937v -15.4143h 22.3937v -43.9762h 22.3937v -5.44036h 22.3937v -8.6139h 22.3937v 16.3211h 22.3937v 26.7484h
 22.3937v 17.2278h 22.3937v 51.23h 22.3937v 25.3883h 22.3937v 37.1758h 22.3937v 15.8677h 22.3937v 12.6942h 22.3937v 11.7874h 22.3937" fill="none" stroke="black" stroke-width="2"/>
<path d="M91.2087,253.853h 447.874" fill="none" stroke="black"/>
<g transform="rotate(20,100.472,260.686)">
<text xml:space="preserve" x="100.472" y="260.686" fill="black" font-size="9.63294" font-family="Helvetica">Jean
</text>
</g>
<g transform="rotate(20,122.618,260.686)">
<text xml:space="preserve" x="122.618" y="260.686" fill="black" font-size="9.63294" font-family="Helvetica">Pierre
</text>
</g>
<g transform="rotate(20,145.396,260.686)">
<text xml:space="preserve" x="145.396" y="260.686" fill="black" font-size="9.63294" font-family="Helvetica">Marie
</text>
</g>
<g transform="rotate(20,167.542,261.319)">
<text xml:space="preserve" x="167.542" y="261.319" fill="black" font-size="9.63294" font-family="Helvetica">Odile
</text>
</g>
<g transform="rotate(20,190.32,261.319)">
<text xml:space="preserve" x="190.32" y="261.319" fill="black" font-size="9.63294" font-family="Helvetica">Sebastien
</text>
</g>
<g transform="rotate(20,212.466,260.686)">
<text xml:space="preserve" x="212.466" y="260.686" fill="black" font-size="9.63294" font-family="Helvetica">Fons
</text>
</g>
<g transform="rotate(20,234.611,260.686)">
<text xml:space="preserve" x="234.611" y="260.686" fill="black" font-size="9.63294" font-family="Helvetica">Rene
</text>
</g>
<g transform="rotate(20,257.39,260.686)">
<text xml:space="preserve" x="257.39" y="260.686" fill="black" font-size="9.63294" font-family="Helvetica">Nicolas
</text>
</g>
<g transform="rotate(20,279.535,260.686)">
<text xml:space="preserve" x="279.535" y="260.686" fill="black" font-size="9.63294" font-family="Helvetica">Xavier
</text>
</g>
<g transform="rotate(20,302.947,260.053)">
<text xml:space="preserve" x="302.947" y="260.053" fill="black" font-size="9.63294" font-family="Helvetica">Greg
</text>
</g>
<g transform="rotate(20,325.092,260.053)">
<text xml:space="preserve" x="325.092" y="260.053" fill="black" font-size="9.63294" font-family="Helvetica">Bjarne
</text>
</g>
<g transform="rotate(20,346.605,260.686)">
<text xml:space="preserve" x="346.605" y="260.686" fill="black" font-size="9.63294" font-family="Helvetica">Anton
</text>
</g>
<g transform="rotate(20,369.384,261.319)">
<text xml:space="preserve" x="369.384" y="261.319" fill="black" font-size="9.63294" font-family="Helvetica">Otto
</text>
</g>
<g transform="rotate(20,392.162,260.053)">
<text xml:space="preserve" x="392.162" y="260.053" fill="black" font-size="9.63294" font-family="Helvetica">Eddy
</text>
</g>
<g transform="rotate(20,414.308,260.686)">
<text xml:space="preserve" x="414.308" y="260.686" fill="black" font-size="9.63294" font-family="Helvetica">Peter
</text>
</g>
<g transform="rotate(20,436.453,260.686)">
<text xml:space="preserve" x="436.453" y="260.686" fill="black" font-size="9.63294" font-family="Helvetica">Pasha
</text>
</g>
<g transform="rotate(20,459.232,260.053)">
<text xml:space="preserve" x="459.232" y="260.053" fill="black" font-size="9.63294" font-family="Helvetica">Philippe
</text>
</g>
<g transform="rotate(20,481.377,261.319)">
<text xml:space="preserve" x="481.377" y="261.319" fill="black" font-size="9.63294" font-family="Helvetica">Suzanne
</text>
</g>
<g transform="rotate(20,503.523,260.686)">
<text xml:space="preserve" x="503.523" y="260.686" fill="black" font-size="9.63294" font-family="Helvetica">Jeff
</text>
</g>
<g transform="rotate(20,526.934,260.053)">
<text xml:space="preserve" x="526.934" y="260.053" fill="black" font-size="9.63294" font-family="Helvetica">Valery
</text>
</g>
<path d="M91.2087,246.775v 7.07801" fill="none" stroke="black"/>
<path d="M113.602,246.775v 7.07801" fill="none" stroke="black"/>
<path d="M135.996,246.775v 7.07801" fill="none" stroke="black"/>
<path d="M158.39,246.775v 7.07801" fill="none" stroke="black"/>
<path d="M180.783,246.775v 7.07801" fill="none" stroke="black"/>
<path d="M203.177,246.775v 7.07801" fill="none" stroke="black"/>
<path d="M225.571,246.775v 7.07801" fill="none" stroke="black"/>
<path d="M247.965,246.775v 7.07801" fill="none" stroke="black"/>
<path d="M270.358,246.775v 7.07801" fill="none" stroke="black"/>
<path d="M292.752,246.775v 7.07801" fill="none" stroke="black"/>
<path d="M315.146,246.775v 7.07801" fill="none" stroke="black"/>
<path d="M337.539,246.775v 7.07801" fill="none" stroke="black"/>
<path d="M359.933,246.775v 7.07801" fill="none" stroke="black"/>
<path d="M382.327,246.775v 7.07801" fill="none" stroke="black"/>
<path d="M404.72,246.775v 7.07801" fill="none" stroke="black"/>
<path d="M427.114,246.775v 7.07801" fill="none" stroke="black"/>
<path d="M449.508,246.775v 7.07801" fill="none" stroke="black"/>
<path d="M471.902,246.775v 7.07801" fill="none" stroke="black"/>
<path d="M494.295,246.775v 7.07801" fill="none" stroke="black"/>
<path d="M516.689,246.775v 7.07801" fill="none" stroke="black"/>
<path d="M539.083,246.775v 7.07801" fill="none" stroke="black"/>
<path d="M91.2087,14.9325h 447.874" fill="none" stroke="black"/>
<path d="M91.2087,22.0105v -7.07801" fill="none" stroke="black"/>
<path d="M113.602,22.0105v -7.07801" fill="none" stroke="black"/>
<path d="M135.996,22.0105v -7.07801" fill="none" stroke="black"/>
<path d="M158.39,22.0105v -7.07801" fill="none" stroke="black"/>
<path d="M180.783,22.0105v -7.07801" fill="none" stroke="black"/>
<path d="M203.177,22.0105v -7.07801" fill="none" stroke="black"/>
<path d="M225.571,22.0105v -7.07801" fill="none" stroke="black"/>
<path d="M247.965,22.0105v -7.07801" fill="none" stroke="black"/>
<path d="M270.358,22.0105v -7.07801" fill="none" stroke="black"/>
<path d="M292.752,22.0105v -7.07801" fill="none" stroke="black"/>
<path d="M315.146,22.0105v -7.07801" fill="none" stroke="black"/>
<path d="M337.539,22.0105v -7.07801" fill="none" stroke="black"/>
<path d="M359.933,22.0105v -7.07801" fill="none" stroke="black"/>
<path d="M382.327,22.0105v -7.07801" fill="none" stroke="black"/>
<path d="M404.72,22.0105v -7.07801" fill="none" stroke="black"/>
<path d="M427.114,22.0105v -7.07801" fill="none" stroke="black"/>
<path d="M449.508,22.0105v -7.07801" fill="none" stroke="black"/>
<path d="M471.902,22.0105v -7.07801" fill="none" stroke="black"/>
<path d="M494.295,22.0105v -7.07801" fill="none" stroke="black"/>
<path d="M516.689,22.0105v -7.07801" fill="none" stroke="black"/>
<path d="M539.083,22.0105v -7.07801" fill="none" stroke="black"/>
<path d="M91.2087,253.853v -238.92" fill="none" stroke="black"/>
<path d="M104.815,210.828h -13.6063" fill="none" stroke="black"/>
<path d="M98.0118,201.761h -6.80315" fill="none" stroke="black"/>
<path d="M98.0118,192.694h -6.80315" fill="none" stroke="black"/>
<path d="M98.0118,183.627h -6.80315" fill="none" stroke="black"/>
<path d="M98.0118,174.559h -6.80315" fill="none" stroke="black"/>
<path d="M104.815,165.492h -13.6063" fill="none" stroke="black"/>
<path d="M98.0118,156.425h -6.80315" fill="none" stroke="black"/>
<path d="M98.0118,147.358h -6.80315" fill="none" stroke="black"/>
<path d="M98.0118,138.29h -6.80315" fill="none" stroke="black"/>
<path d="M98.0118,129.223h -6.80315" fill="none" stroke="black"/>
<path d="M104.815,120.156h -13.6063" fill="none" stroke="black"/>
<path d="M98.0118,111.089h -6.80315" fill="none" stroke="black"/>
<path d="M98.0118,102.021h -6.80315" fill="none" stroke="black"/>
<path d="M98.0118,92.954h -6.80315" fill="none" stroke="black"/>
<path d="M98.0118,83.8868h -6.80315" fill="none" stroke="black"/>
<path d="M104.815,74.8195h -13.6063" fill="none" stroke="black"/>
<path d="M98.0118,65.7523h -6.80315" fill="none" stroke="black"/>
<path d="M98.0118,56.685h -6.80315" fill="none" stroke="black"/>
<path d="M98.0118,47.6177h -6.80315" fill="none" stroke="black"/>
<path d="M98.0118,38.5505h -6.80315" fill="none" stroke="black"/>
<path d="M104.815,29.4832h -13.6063" fill="none" stroke="black"/>
<path d="M104.815,210.828h -13.6063" fill="none" stroke="black"/>
<path d="M98.0118,219.896h -6.80315" fill="none" stroke="black"/>
<path d="M98.0118,228.963h -6.80315" fill="none" stroke="black"/>
<path d="M98.0118,238.03h -6.80315" fill="none" stroke="black"/>
<path d="M98.0118,247.098h -6.80315" fill="none" stroke="black"/>
<path d="M104.815,29.4832h -13.6063" fill="none" stroke="black"/>
<path d="M98.0118,20.4159h -6.80315" fill="none" stroke="black"/>
<text xml:space="preserve" x="65.6715" y="215.762" fill="black" font-size="14.1995" font-family="Helvetica">100
</text>
<text xml:space="preserve" x="65.6715" y="170.838" fill="black" font-size="14.1995" font-family="Helvetica">200
</text>
<text xml:space="preserve" x="65.6715" y="125.281" fill="black" font-size="14.1995" font-family="Helvetica">300
</text>
<text xml:space="preserve" x="65.6715" y="79.7244" fill="black" font-size="14.1995" font-family="Helvetica">400
</text>
<text xml:space="preserve" x="65.6715" y="34.8003" fill="black" font-size="14.1995" font-family="Helvetica">500
</text>
<path d="M539.083,253.853v -238.92" fill="none" stroke="black"/>
<path d="M525.476,210.828h 13.6063" fill="none" stroke="black"/>
<path d="M532.28,201.761h 6.80315" fill="none" stroke="black"/>
<path d="M532.28,192.694h 6.80315" fill="none" stroke="black"/>
<path d="M532.28,183.627h 6.80315" fill="none" stroke="black"/>
<path d="M532.28,174.559h 6.80315" fill="none" stroke="black"/>
<path d="M525.476,165.492h 13.6063" fill="none" stroke="black"/>
<path d="M532.28,156.425h 6.80315" fill="none" stroke="black"/>
<path d="M532.28,147.358h 6.80315" fill="none" stroke="black"/>
<path d="M532.28,138.29h 6.80315" fill="none" stroke="black"/>
<path d="M532.28,129.223h 6.80315" fill="none" stroke="black"/>
<path d="M525.476,120.156h 13.6063" fill="none" stroke="black"/>
<path d="M532.28,111.089h 6.80315" fill="none" stroke="black"/>
<path d="M532.28,102.021h 6.80315" fill="none" stroke="black"/>
<path d="M532.28,92.954h 6.80315" fill="none" stroke="black"/>
<path d="M532.28,83.8868h 6.80315" fill="none" stroke="black"/>
<path d="M525.476,74.8195h 13.6063" fill="none" stroke="black"/>
<path d="M532.28,65.7523h 6.80315" fill="none" stroke="black"/>
<path d="M532.28,56.685h 6.80315" fill="none" stroke="black"/>
<path d="M532.28,47.6177h 6.80315" fill="none" stroke="black"/>
<path d="M532.28,38.5505h 6.80315" fill="none" stroke="black"/>
<path d="M525.476,29.4832h 13.6063" fill="none" stroke="black"/>
<path d="M525.476,210.828h 13.6063" fill="none" stroke="black"/>
<path d="M532.28,219.896h 6.80315" fill="none" stroke="black"/>
<path d="M532.28,228.963h 6.80315" fill="none" stroke="black"/>
<path d="M532.28,238.03h 6.80315" fill="none" stroke="black"/>
<path d="M532.28,247.098h 6.80315" fill="none" stroke="black"/>
<path d="M525.476,29.4832h 13.6063" fill="none" stroke="black"/>
<path d="M532.28,20.4159h 6.80315" fill="none" stroke="black"/>
<rect x="340.657" y="5.973" width="215.433" height="83.622" fill="#e5e5e5"/>
<path d="M344.454,89.595v 2.53093h 214.168v -82.3566h -2.53093v 79.8256z" fill="black"/>
<path d="M340.657,89.595v -83.622h 215.433v 83.622h -215.433z" fill="none" stroke="black"/>
<text xml:space="preserve" x="351.667" y="19.6147" fill="black" font-size="11.3421" font-family="Helvetica">Use the axis Context Menu LabelsOption
</text>
<text xml:space="preserve" x="351.667" y="40.4949" fill="black" font-size="11.3421" font-family="Helvetica"> "a"   to sort by alphabetic order
</text>
<text xml:space="preserve" x="351.667" y="61.3751" fill="black" font-size="11.3421" font-family="Helvetica"> "&gt;"   to sort by decreasing values
</text>
<text xml:space="preserve" x="351.667" y="82.2553" fill="black" font-size="11.3421" font-family="Helvetica"> "&lt;"   to sort by increasing values
</text></svg>
