<?xml version="1.0" standalone="no"?>
<svg width="567.429" height="336.669" viewBox="0 0 567.429 336.669" xmlns="http://www.w3.org/2000/svg" shape-rendering="crispEdges">
<title>
./old_svg_ref/mathmoreIntegration.svg
</title>
<desc>
Creator: ROOT Version 6.33.01
CreationDate: Wed Jul 10 10:06:07 2024</desc>
<defs>
</defs>
<rect x="0.5" y="0" width="566.929" height="336.169" fill="white"/>
<rect x="6.16929" y="3.36169" width="272.126" height="329.446" fill="white"/>
<rect x="49.7094" y="19.834" width="214.98" height="260.262" fill="white"/>
<rect x="49.7094" y="19.834" width="214.98" height="260.262" fill="none" stroke="black"/>
<rect x="49.7094" y="19.834" width="214.98" height="260.262" fill="white"/>
<rect x="49.7094" y="19.834" width="214.98" height="260.262" fill="none" stroke="black"/>
<path d="M49.7094,279.648h 2.1498v -0.465847h 2.1498v -0.484386h 2.1498v -0.504026h 2.1498v -0.524855h 2.1498v -0.546967h 2.1498v -0.570466h 2.1498v -0.595467h 2.1498v -0.622097h 2.1498v -0.650495h 2.1498v -0.680816h 2.1498v -0.713229h 2.1498v
 -0.747925h 2.1498v -0.785112h 2.1498v -0.825024h 2.1498v -0.86792h 2.1498v -0.914088h 2.1498v -0.963852h 2.1498v -1.01757h 2.1498v -1.07564h 2.1498v -1.13853h 2.1498v -1.20672h 2.1498v -1.28079h 2.1498v -1.36136h 2.1498v -1.44915h 2.1498v -1.54494h
 2.1498v -1.64963h 2.1498v -1.76419h 2.1498v -1.88971h 2.1498v -2.0274h 2.1498v -2.17857h 2.1498v -2.34466h 2.1498v -2.52717h 2.1498v -2.7277h 2.1498v -2.94784h 2.1498v -3.18913h 2.1498v -3.45289h 2.1498v -3.7401h 2.1498v -4.05113h 2.1498v -4.3854h
 2.1498v -4.74099h 2.1498v -5.11415h 2.1498v -5.49881h 2.1498v -5.88613h 2.1498v -6.26427h 2.1498v -6.61854h 2.1498v -6.93211h 2.1498v -7.18747h 2.1498v -7.3684h 2.1498v -7.46232h 2.1498v -7.46232h 2.1498v -7.3684h 2.1498v -7.18747h 2.1498v -6.93211h
 2.1498v -6.61854h 2.1498v -6.26427h 2.1498v -5.88613h 2.1498v -5.49881h 2.1498v -5.11415h 2.1498v -4.74099h 2.1498v -4.3854h 2.1498v -4.05113h 2.1498v -3.7401h 2.1498v -3.45289h 2.1498v -3.18913h 2.1498v -2.94784h 2.1498v -2.7277h 2.1498v -2.52717h
 2.1498v -2.34466h 2.1498v -2.17857h 2.1498v -2.0274h 2.1498v -1.88971h 2.1498v -1.76419h 2.1498v -1.64963h 2.1498v -1.54494h 2.1498v -1.44915h 2.1498v -1.36136h 2.1498v -1.28079h 2.1498v -1.20672h 2.1498v -1.13853h 2.1498v -1.07564h 2.1498v
 -1.01757h 2.1498v -0.963852h 2.1498v -0.914088h 2.1498v -0.86792h 2.1498v -0.825024h 2.1498v -0.785112h 2.1498v -0.747925h 2.1498v -0.713229h 2.1498v -0.680816h 2.1498v -0.650495h 2.1498v -0.622097h 2.1498v -0.595467h 2.1498v -0.570466h 2.1498v
 -0.546967h 2.1498v -0.524855h 2.1498v -0.504026h 2.1498v -0.484386h 2.1498v -0.465847h 2.1498v -0.448331h 2.1498" fill="none" stroke="black" stroke-width="2"/>
<path d="M49.7094,280.096h 214.98" fill="none" stroke="black"/>
<path d="M49.7094,272.288v 7.80786" fill="none" stroke="black"/>
<path d="M55.0839,276.192v 3.90393" fill="none" stroke="black"/>
<path d="M60.4584,276.192v 3.90393" fill="none" stroke="black"/>
<path d="M65.8329,276.192v 3.90393" fill="none" stroke="black"/>
<path d="M71.2074,276.192v 3.90393" fill="none" stroke="black"/>
<path d="M76.5819,272.288v 7.80786" fill="none" stroke="black"/>
<path d="M81.9564,276.192v 3.90393" fill="none" stroke="black"/>
<path d="M87.3309,276.192v 3.90393" fill="none" stroke="black"/>
<path d="M92.7054,276.192v 3.90393" fill="none" stroke="black"/>
<path d="M98.0798,276.192v 3.90393" fill="none" stroke="black"/>
<path d="M103.454,272.288v 7.80786" fill="none" stroke="black"/>
<path d="M108.829,276.192v 3.90393" fill="none" stroke="black"/>
<path d="M114.203,276.192v 3.90393" fill="none" stroke="black"/>
<path d="M119.578,276.192v 3.90393" fill="none" stroke="black"/>
<path d="M124.952,276.192v 3.90393" fill="none" stroke="black"/>
<path d="M130.327,272.288v 7.80786" fill="none" stroke="black"/>
<path d="M135.701,276.192v 3.90393" fill="none" stroke="black"/>
<path d="M141.076,276.192v 3.90393" fill="none" stroke="black"/>
<path d="M146.45,276.192v 3.90393" fill="none" stroke="black"/>
<path d="M151.825,276.192v 3.90393" fill="none" stroke="black"/>
<path d="M157.199,272.288v 7.80786" fill="none" stroke="black"/>
<path d="M162.574,276.192v 3.90393" fill="none" stroke="black"/>
<path d="M167.948,276.192v 3.90393" fill="none" stroke="black"/>
<path d="M173.323,276.192v 3.90393" fill="none" stroke="black"/>
<path d="M178.697,276.192v 3.90393" fill="none" stroke="black"/>
<path d="M184.072,272.288v 7.80786" fill="none" stroke="black"/>
<path d="M189.446,276.192v 3.90393" fill="none" stroke="black"/>
<path d="M194.821,276.192v 3.90393" fill="none" stroke="black"/>
<path d="M200.195,276.192v 3.90393" fill="none" stroke="black"/>
<path d="M205.57,276.192v 3.90393" fill="none" stroke="black"/>
<path d="M210.944,272.288v 7.80786" fill="none" stroke="black"/>
<path d="M216.319,276.192v 3.90393" fill="none" stroke="black"/>
<path d="M221.693,276.192v 3.90393" fill="none" stroke="black"/>
<path d="M227.068,276.192v 3.90393" fill="none" stroke="black"/>
<path d="M232.442,276.192v 3.90393" fill="none" stroke="black"/>
<path d="M237.817,272.288v 7.80786" fill="none" stroke="black"/>
<path d="M243.191,276.192v 3.90393" fill="none" stroke="black"/>
<path d="M248.566,276.192v 3.90393" fill="none" stroke="black"/>
<path d="M253.94,276.192v 3.90393" fill="none" stroke="black"/>
<path d="M259.314,276.192v 3.90393" fill="none" stroke="black"/>
<path d="M264.689,272.288v 7.80786" fill="none" stroke="black"/>
<text xml:space="preserve" x="48.9311" y="294.86" fill="black" font-size="12.9828" font-family="Helvetica">2
</text>
<text xml:space="preserve" x="42.5211" y="294.86" fill="black" font-size="12.9828" font-family="Times">&#8722;
</text>
<text xml:space="preserve" x="71.01" y="294.86" fill="black" font-size="12.9828" font-family="Helvetica">1.5
</text>
<text xml:space="preserve" x="63.8878" y="294.86" fill="black" font-size="12.9828" font-family="Times">&#8722;
</text>
<text xml:space="preserve" x="104.484" y="294.86" fill="black" font-size="12.9828" font-family="Helvetica">1
</text>
<text xml:space="preserve" x="97.3623" y="294.86" fill="black" font-size="12.9828" font-family="Times">&#8722;
</text>
<text xml:space="preserve" x="124.427" y="294.86" fill="black" font-size="12.9828" font-family="Helvetica">0.5
</text>
<text xml:space="preserve" x="117.304" y="294.86" fill="black" font-size="12.9828" font-family="Times">&#8722;
</text>
<text xml:space="preserve" x="153.628" y="294.86" fill="black" font-size="12.9828" font-family="Helvetica">0
</text>
<text xml:space="preserve" x="174.995" y="294.86" fill="black" font-size="12.9828" font-family="Helvetica">0.5
</text>
<text xml:space="preserve" x="207.757" y="294.86" fill="black" font-size="12.9828" font-family="Helvetica">1
</text>
<text xml:space="preserve" x="228.411" y="294.86" fill="black" font-size="12.9828" font-family="Helvetica">1.5
</text>
<text xml:space="preserve" x="261.173" y="294.86" fill="black" font-size="12.9828" font-family="Helvetica">2
</text>
<path d="M49.7094,19.834h 214.98" fill="none" stroke="black"/>
<path d="M49.7094,27.6418v -7.80786" fill="none" stroke="black"/>
<path d="M55.0839,23.7379v -3.90393" fill="none" stroke="black"/>
<path d="M60.4584,23.7379v -3.90393" fill="none" stroke="black"/>
<path d="M65.8329,23.7379v -3.90393" fill="none" stroke="black"/>
<path d="M71.2074,23.7379v -3.90393" fill="none" stroke="black"/>
<path d="M76.5819,27.6418v -7.80786" fill="none" stroke="black"/>
<path d="M81.9564,23.7379v -3.90393" fill="none" stroke="black"/>
<path d="M87.3309,23.7379v -3.90393" fill="none" stroke="black"/>
<path d="M92.7054,23.7379v -3.90393" fill="none" stroke="black"/>
<path d="M98.0798,23.7379v -3.90393" fill="none" stroke="black"/>
<path d="M103.454,27.6418v -7.80786" fill="none" stroke="black"/>
<path d="M108.829,23.7379v -3.90393" fill="none" stroke="black"/>
<path d="M114.203,23.7379v -3.90393" fill="none" stroke="black"/>
<path d="M119.578,23.7379v -3.90393" fill="none" stroke="black"/>
<path d="M124.952,23.7379v -3.90393" fill="none" stroke="black"/>
<path d="M130.327,27.6418v -7.80786" fill="none" stroke="black"/>
<path d="M135.701,23.7379v -3.90393" fill="none" stroke="black"/>
<path d="M141.076,23.7379v -3.90393" fill="none" stroke="black"/>
<path d="M146.45,23.7379v -3.90393" fill="none" stroke="black"/>
<path d="M151.825,23.7379v -3.90393" fill="none" stroke="black"/>
<path d="M157.199,27.6418v -7.80786" fill="none" stroke="black"/>
<path d="M162.574,23.7379v -3.90393" fill="none" stroke="black"/>
<path d="M167.948,23.7379v -3.90393" fill="none" stroke="black"/>
<path d="M173.323,23.7379v -3.90393" fill="none" stroke="black"/>
<path d="M178.697,23.7379v -3.90393" fill="none" stroke="black"/>
<path d="M184.072,27.6418v -7.80786" fill="none" stroke="black"/>
<path d="M189.446,23.7379v -3.90393" fill="none" stroke="black"/>
<path d="M194.821,23.7379v -3.90393" fill="none" stroke="black"/>
<path d="M200.195,23.7379v -3.90393" fill="none" stroke="black"/>
<path d="M205.57,23.7379v -3.90393" fill="none" stroke="black"/>
<path d="M210.944,27.6418v -7.80786" fill="none" stroke="black"/>
<path d="M216.319,23.7379v -3.90393" fill="none" stroke="black"/>
<path d="M221.693,23.7379v -3.90393" fill="none" stroke="black"/>
<path d="M227.068,23.7379v -3.90393" fill="none" stroke="black"/>
<path d="M232.442,23.7379v -3.90393" fill="none" stroke="black"/>
<path d="M237.817,27.6418v -7.80786" fill="none" stroke="black"/>
<path d="M243.191,23.7379v -3.90393" fill="none" stroke="black"/>
<path d="M248.566,23.7379v -3.90393" fill="none" stroke="black"/>
<path d="M253.94,23.7379v -3.90393" fill="none" stroke="black"/>
<path d="M259.314,23.7379v -3.90393" fill="none" stroke="black"/>
<path d="M264.689,27.6418v -7.80786" fill="none" stroke="black"/>
<path d="M49.7094,280.096v -260.262" fill="none" stroke="black"/>
<path d="M56.1588,280.096h -6.44939" fill="none" stroke="black"/>
<path d="M52.9341,274.223h -3.22469" fill="none" stroke="black"/>
<path d="M52.9341,268.349h -3.22469" fill="none" stroke="black"/>
<path d="M52.9341,262.476h -3.22469" fill="none" stroke="black"/>
<path d="M52.9341,256.603h -3.22469" fill="none" stroke="black"/>
<path d="M56.1588,250.729h -6.44939" fill="none" stroke="black"/>
<path d="M52.9341,244.856h -3.22469" fill="none" stroke="black"/>
<path d="M52.9341,238.982h -3.22469" fill="none" stroke="black"/>
<path d="M52.9341,233.109h -3.22469" fill="none" stroke="black"/>
<path d="M52.9341,227.236h -3.22469" fill="none" stroke="black"/>
<path d="M56.1588,221.362h -6.44939" fill="none" stroke="black"/>
<path d="M52.9341,215.489h -3.22469" fill="none" stroke="black"/>
<path d="M52.9341,209.616h -3.22469" fill="none" stroke="black"/>
<path d="M52.9341,203.742h -3.22469" fill="none" stroke="black"/>
<path d="M52.9341,197.869h -3.22469" fill="none" stroke="black"/>
<path d="M56.1588,191.995h -6.44939" fill="none" stroke="black"/>
<path d="M52.9341,186.122h -3.22469" fill="none" stroke="black"/>
<path d="M52.9341,180.249h -3.22469" fill="none" stroke="black"/>
<path d="M52.9341,174.375h -3.22469" fill="none" stroke="black"/>
<path d="M52.9341,168.502h -3.22469" fill="none" stroke="black"/>
<path d="M56.1588,162.629h -6.44939" fill="none" stroke="black"/>
<path d="M52.9341,156.755h -3.22469" fill="none" stroke="black"/>
<path d="M52.9341,150.882h -3.22469" fill="none" stroke="black"/>
<path d="M52.9341,145.008h -3.22469" fill="none" stroke="black"/>
<path d="M52.9341,139.135h -3.22469" fill="none" stroke="black"/>
<path d="M56.1588,133.262h -6.44939" fill="none" stroke="black"/>
<path d="M52.9341,127.388h -3.22469" fill="none" stroke="black"/>
<path d="M52.9341,121.515h -3.22469" fill="none" stroke="black"/>
<path d="M52.9341,115.642h -3.22469" fill="none" stroke="black"/>
<path d="M52.9341,109.768h -3.22469" fill="none" stroke="black"/>
<path d="M56.1588,103.895h -6.44939" fill="none" stroke="black"/>
<path d="M52.9341,98.0215h -3.22469" fill="none" stroke="black"/>
<path d="M52.9341,92.1481h -3.22469" fill="none" stroke="black"/>
<path d="M52.9341,86.2747h -3.22469" fill="none" stroke="black"/>
<path d="M52.9341,80.4013h -3.22469" fill="none" stroke="black"/>
<path d="M56.1588,74.528h -6.44939" fill="none" stroke="black"/>
<path d="M52.9341,68.6546h -3.22469" fill="none" stroke="black"/>
<path d="M52.9341,62.7812h -3.22469" fill="none" stroke="black"/>
<path d="M52.9341,56.9078h -3.22469" fill="none" stroke="black"/>
<path d="M52.9341,51.0345h -3.22469" fill="none" stroke="black"/>
<path d="M56.1588,45.1611h -6.44939" fill="none" stroke="black"/>
<path d="M56.1588,45.1611h -6.44939" fill="none" stroke="black"/>
<path d="M52.9341,39.2877h -3.22469" fill="none" stroke="black"/>
<path d="M52.9341,33.4143h -3.22469" fill="none" stroke="black"/>
<path d="M52.9341,27.541h -3.22469" fill="none" stroke="black"/>
<path d="M52.9341,21.6676h -3.22469" fill="none" stroke="black"/>
<text xml:space="preserve" x="41.0967" y="284.889" fill="black" font-size="12.9828" font-family="Helvetica">0
</text>
<text xml:space="preserve" x="32.55" y="255.688" fill="black" font-size="12.9828" font-family="Helvetica">0.1
</text>
<text xml:space="preserve" x="30.4133" y="226.487" fill="black" font-size="12.9828" font-family="Helvetica">0.2
</text>
<text xml:space="preserve" x="30.4133" y="197.286" fill="black" font-size="12.9828" font-family="Helvetica">0.3
</text>
<text xml:space="preserve" x="30.4133" y="167.372" fill="black" font-size="12.9828" font-family="Helvetica">0.4
</text>
<text xml:space="preserve" x="30.4133" y="138.171" fill="black" font-size="12.9828" font-family="Helvetica">0.5
</text>
<text xml:space="preserve" x="30.4133" y="108.97" fill="black" font-size="12.9828" font-family="Helvetica">0.6
</text>
<text xml:space="preserve" x="30.4133" y="79.7689" fill="black" font-size="12.9828" font-family="Helvetica">0.7
</text>
<text xml:space="preserve" x="30.4133" y="49.8556" fill="black" font-size="12.9828" font-family="Helvetica">0.8
</text>
<path d="M264.689,280.096v -260.262" fill="none" stroke="black"/>
<path d="M258.24,280.096h 6.44939" fill="none" stroke="black"/>
<path d="M261.464,274.223h 3.22469" fill="none" stroke="black"/>
<path d="M261.464,268.349h 3.22469" fill="none" stroke="black"/>
<path d="M261.464,262.476h 3.22469" fill="none" stroke="black"/>
<path d="M261.464,256.603h 3.22469" fill="none" stroke="black"/>
<path d="M258.24,250.729h 6.44939" fill="none" stroke="black"/>
<path d="M261.464,244.856h 3.22469" fill="none" stroke="black"/>
<path d="M261.464,238.982h 3.22469" fill="none" stroke="black"/>
<path d="M261.464,233.109h 3.22469" fill="none" stroke="black"/>
<path d="M261.464,227.236h 3.22469" fill="none" stroke="black"/>
<path d="M258.24,221.362h 6.44939" fill="none" stroke="black"/>
<path d="M261.464,215.489h 3.22469" fill="none" stroke="black"/>
<path d="M261.464,209.616h 3.22469" fill="none" stroke="black"/>
<path d="M261.464,203.742h 3.22469" fill="none" stroke="black"/>
<path d="M261.464,197.869h 3.22469" fill="none" stroke="black"/>
<path d="M258.24,191.995h 6.44939" fill="none" stroke="black"/>
<path d="M261.464,186.122h 3.22469" fill="none" stroke="black"/>
<path d="M261.464,180.249h 3.22469" fill="none" stroke="black"/>
<path d="M261.464,174.375h 3.22469" fill="none" stroke="black"/>
<path d="M261.464,168.502h 3.22469" fill="none" stroke="black"/>
<path d="M258.24,162.629h 6.44939" fill="none" stroke="black"/>
<path d="M261.464,156.755h 3.22469" fill="none" stroke="black"/>
<path d="M261.464,150.882h 3.22469" fill="none" stroke="black"/>
<path d="M261.464,145.008h 3.22469" fill="none" stroke="black"/>
<path d="M261.464,139.135h 3.22469" fill="none" stroke="black"/>
<path d="M258.24,133.262h 6.44939" fill="none" stroke="black"/>
<path d="M261.464,127.388h 3.22469" fill="none" stroke="black"/>
<path d="M261.464,121.515h 3.22469" fill="none" stroke="black"/>
<path d="M261.464,115.642h 3.22469" fill="none" stroke="black"/>
<path d="M261.464,109.768h 3.22469" fill="none" stroke="black"/>
<path d="M258.24,103.895h 6.44939" fill="none" stroke="black"/>
<path d="M261.464,98.0215h 3.22469" fill="none" stroke="black"/>
<path d="M261.464,92.1481h 3.22469" fill="none" stroke="black"/>
<path d="M261.464,86.2747h 3.22469" fill="none" stroke="black"/>
<path d="M261.464,80.4013h 3.22469" fill="none" stroke="black"/>
<path d="M258.24,74.528h 6.44939" fill="none" stroke="black"/>
<path d="M261.464,68.6546h 3.22469" fill="none" stroke="black"/>
<path d="M261.464,62.7812h 3.22469" fill="none" stroke="black"/>
<path d="M261.464,56.9078h 3.22469" fill="none" stroke="black"/>
<path d="M261.464,51.0345h 3.22469" fill="none" stroke="black"/>
<path d="M258.24,45.1611h 6.44939" fill="none" stroke="black"/>
<path d="M258.24,45.1611h 6.44939" fill="none" stroke="black"/>
<path d="M261.464,39.2877h 3.22469" fill="none" stroke="black"/>
<path d="M261.464,33.4143h 3.22469" fill="none" stroke="black"/>
<path d="M261.464,27.541h 3.22469" fill="none" stroke="black"/>
<path d="M261.464,21.6676h 3.22469" fill="none" stroke="black"/>
<path d="M49.7094,279.648h 2.1498v -0.465847h 2.1498v -0.484386h 2.1498v -0.504026h 2.1498v -0.524855h 2.1498v -0.546967h 2.1498v -0.570466h 2.1498v -0.595467h 2.1498v -0.622097h 2.1498v -0.650495h 2.1498v -0.680816h 2.1498v -0.713229h 2.1498v
 -0.747925h 2.1498v -0.785112h 2.1498v -0.825024h 2.1498v -0.86792h 2.1498v -0.914088h 2.1498v -0.963852h 2.1498v -1.01757h 2.1498v -1.07564h 2.1498v -1.13853h 2.1498v -1.20672h 2.1498v -1.28079h 2.1498v -1.36136h 2.1498v -1.44915h 2.1498v -1.54494h
 2.1498v -1.64963h 2.1498v -1.76419h 2.1498v -1.88971h 2.1498v -2.0274h 2.1498v -2.17857h 2.1498v -2.34466h 2.1498v -2.52717h 2.1498v -2.7277h 2.1498v -2.94784h 2.1498v -3.18913h 2.1498v -3.45289h 2.1498v -3.7401h 2.1498v -4.05113h 2.1498v -4.3854h
 2.1498v -4.74099h 2.1498v -5.11415h 2.1498v -5.49881h 2.1498v -5.88613h 2.1498v -6.26427h 2.1498v -6.61854h 2.1498v -6.93211h 2.1498v -7.18747h 2.1498v -7.3684h 2.1498v -7.46232h 2.1498v -7.46232h 2.1498v -7.3684h 2.1498v -7.18747h 2.1498v -6.93211h
 2.1498v -6.61854h 2.1498v -6.26427h 2.1498v -5.88613h 2.1498v -5.49881h 2.1498v -5.11415h 2.1498v -4.74099h 2.1498v -4.3854h 2.1498v -4.05113h 2.1498v -3.7401h 2.1498v -3.45289h 2.1498v -3.18913h 2.1498v -2.94784h 2.1498v -2.7277h 2.1498v -2.52717h
 2.1498v -2.34466h 2.1498v -2.17857h 2.1498v -2.0274h 2.1498v -1.88971h 2.1498v -1.76419h 2.1498v -1.64963h 2.1498v -1.54494h 2.1498v -1.44915h 2.1498v -1.36136h 2.1498v -1.28079h 2.1498v -1.20672h 2.1498v -1.13853h 2.1498v -1.07564h 2.1498v
 -1.01757h 2.1498v -0.963852h 2.1498v -0.914088h 2.1498v -0.86792h 2.1498v -0.825024h 2.1498v -0.785112h 2.1498v -0.747925h 2.1498v -0.713229h 2.1498v -0.680816h 2.1498v -0.650495h 2.1498v -0.622097h 2.1498v -0.595467h 2.1498v -0.570466h 2.1498v
 -0.546967h 2.1498v -0.524855h 2.1498v -0.504026h 2.1498v -0.484386h 2.1498v -0.465847h 2.1498v -0.448331h 2.1498" fill="none" stroke="#0000ff" stroke-width="2" stroke-dasharray=" 3, 3"/>
<path d="M49.7094,279.648h 2.1498v -0.465847h 2.1498v -0.484386h 2.1498v -0.504026h 2.1498v -0.524855h 2.1498v -0.546967h 2.1498v -0.570466h 2.1498v -0.595467h 2.1498v -0.622097h 2.1498v -0.650495h 2.1498v -0.680816h 2.1498v -0.713229h 2.1498v
 -0.747925h 2.1498v -0.785112h 2.1498v -0.825024h 2.1498v -0.86792h 2.1498v -0.914088h 2.1498v -0.963852h 2.1498v -1.01757h 2.1498v -1.07564h 2.1498v -1.13853h 2.1498v -1.20672h 2.1498v -1.28079h 2.1498v -1.36136h 2.1498v -1.44915h 2.1498v -1.54494h
 2.1498v -1.64963h 2.1498v -1.76419h 2.1498v -1.88971h 2.1498v -2.0274h 2.1498v -2.17857h 2.1498v -2.34466h 2.1498v -2.52717h 2.1498v -2.7277h 2.1498v -2.94784h 2.1498v -3.18913h 2.1498v -3.45289h 2.1498v -3.7401h 2.1498v -4.05113h 2.1498v -4.3854h
 2.1498v -4.74099h 2.1498v -5.11415h 2.1498v -5.49881h 2.1498v -5.88613h 2.1498v -6.26427h 2.1498v -6.61854h 2.1498v -6.93211h 2.1498v -7.18747h 2.1498v -7.3684h 2.1498v -7.46232h 2.1498v -7.46232h 2.1498v -7.3684h 2.1498v -7.18747h 2.1498v -6.93211h
 2.1498v -6.61854h 2.1498v -6.26427h 2.1498v -5.88613h 2.1498v -5.49881h 2.1498v -5.11415h 2.1498v -4.74099h 2.1498v -4.3854h 2.1498v -4.05113h 2.1498v -3.7401h 2.1498v -3.45289h 2.1498v -3.18913h 2.1498v -2.94784h 2.1498v -2.7277h 2.1498v -2.52717h
 2.1498v -2.34466h 2.1498v -2.17857h 2.1498v -2.0274h 2.1498v -1.88971h 2.1498v -1.76419h 2.1498v -1.64963h 2.1498v -1.54494h 2.1498v -1.44915h 2.1498v -1.36136h 2.1498v -1.28079h 2.1498v -1.20672h 2.1498v -1.13853h 2.1498v -1.07564h 2.1498v
 -1.01757h 2.1498v -0.963852h 2.1498v -0.914088h 2.1498v -0.86792h 2.1498v -0.825024h 2.1498v -0.785112h 2.1498v -0.747925h 2.1498v -0.713229h 2.1498v -0.680816h 2.1498v -0.650495h 2.1498v -0.622097h 2.1498v -0.595467h 2.1498v -0.570466h 2.1498v
 -0.546967h 2.1498v -0.524855h 2.1498v -0.504026h 2.1498v -0.484386h 2.1498v -0.465847h 2.1498v -0.448331h 2.1498" fill="none" stroke="#ff0000" stroke-width="2" stroke-dasharray=" 1, 2"/>
<rect x="289.634" y="3.36169" width="272.126" height="329.446" fill="white"/>
<rect x="333.174" y="19.834" width="214.98" height="260.262" fill="white"/>
<rect x="333.174" y="19.834" width="214.98" height="260.262" fill="none" stroke="black"/>
<rect x="333.174" y="19.834" width="214.98" height="260.262" fill="white"/>
<rect x="333.174" y="19.834" width="214.98" height="260.262" fill="none" stroke="black"/>
<g fill="black">
<circle cx="334.249" cy="184.836" r="3.41867"/>
</g>
<g fill="black">
<circle cx="336.399" cy="182.783" r="3.41867"/>
</g>
<g fill="black">
<circle cx="338.548" cy="181.882" r="3.41867"/>
</g>
<g fill="black">
<circle cx="340.698" cy="181.482" r="3.41867"/>
</g>
<g fill="black">
<circle cx="342.848" cy="181.281" r="3.41867"/>
</g>
<g fill="black">
<circle cx="344.998" cy="185.687" r="3.41867"/>
</g>
<g fill="black">
<circle cx="347.148" cy="173.671" r="3.41867"/>
</g>
<g fill="black">
<circle cx="349.297" cy="175.674" r="3.41867"/>
</g>
<g fill="black">
<circle cx="351.447" cy="188.091" r="3.41867"/>
</g>
<g fill="black">
<circle cx="353.597" cy="187.29" r="3.41867"/>
</g>
<g fill="black">
<circle cx="355.747" cy="188.892" r="3.41867"/>
</g>
<g fill="black">
<circle cx="357.897" cy="180.08" r="3.41867"/>
</g>
<g fill="black">
<circle cx="360.046" cy="188.091" r="3.41867"/>
</g>
<g fill="black">
<circle cx="362.196" cy="186.488" r="3.41867"/>
</g>
<g fill="black">
<circle cx="364.346" cy="182.483" r="3.41867"/>
</g>
<g fill="black">
<circle cx="366.496" cy="177.676" r="3.41867"/>
</g>
<g fill="black">
<circle cx="368.646" cy="177.676" r="3.41867"/>
</g>
<g fill="black">
<circle cx="370.795" cy="188.892" r="3.41867"/>
</g>
<g fill="black">
<circle cx="372.945" cy="176.074" r="3.41867"/>
</g>
<g fill="black">
<circle cx="375.095" cy="187.29" r="3.41867"/>
</g>
<g fill="black">
<circle cx="377.245" cy="180.881" r="3.41867"/>
</g>
<path d="M379.395,178.929v -0.00544027" fill="none" stroke="#0000ff" stroke-width="2"/>
<path d="M379.395,173.225v -0.00544027" fill="none" stroke="#0000ff" stroke-width="2"/>
<g fill="black">
<circle cx="379.395" cy="176.074" r="3.41867"/>
</g>
<path d="M381.544,187.163v -0.229045" fill="none" stroke="#0000ff" stroke-width="2"/>
<path d="M381.544,181.236v -0.229045" fill="none" stroke="#0000ff" stroke-width="2"/>
<g fill="black">
<circle cx="381.544" cy="184.085" r="3.41867"/>
</g>
<path d="M383.694,177.788v -0.466716" fill="none" stroke="#0000ff" stroke-width="2"/>
<path d="M383.694,171.623v -0.466716" fill="none" stroke="#0000ff" stroke-width="2"/>
<g fill="black">
<circle cx="383.694" cy="174.472" r="3.41867"/>
</g>
<path d="M385.844,190.858v -0.719714" fill="none" stroke="#0000ff" stroke-width="2"/>
<path d="M385.844,184.441v -0.719714" fill="none" stroke="#0000ff" stroke-width="2"/>
<g fill="black">
<circle cx="385.844" cy="187.29" r="3.41867"/>
</g>
<path d="M387.994,178.31v -0.989436" fill="none" stroke="#0000ff" stroke-width="2"/>
<path d="M387.994,171.623v -0.989436" fill="none" stroke="#0000ff" stroke-width="2"/>
<g fill="black">
<circle cx="387.994" cy="174.472" r="3.41867"/>
</g>
<path d="M390.144,191.416v -1.27743" fill="none" stroke="#0000ff" stroke-width="2"/>
<path d="M390.144,184.441v -1.27743" fill="none" stroke="#0000ff" stroke-width="2"/>
<g fill="black">
<circle cx="390.144" cy="187.29" r="3.41867"/>
</g>
<path d="M392.293,178.906v -1.58543" fill="none" stroke="#0000ff" stroke-width="2"/>
<path d="M392.293,171.623v -1.58543" fill="none" stroke="#0000ff" stroke-width="2"/>
<g fill="black">
<circle cx="392.293" cy="174.472" r="3.41867"/>
</g>
<path d="M394.443,182.441v -1.91534" fill="none" stroke="#0000ff" stroke-width="2"/>
<path d="M394.443,174.828v -1.91534" fill="none" stroke="#0000ff" stroke-width="2"/>
<g fill="black">
<circle cx="394.443" cy="177.676" r="3.41867"/>
</g>
<path d="M396.593,185.999v -2.26929" fill="none" stroke="#0000ff" stroke-width="2"/>
<path d="M396.593,178.032v -2.26929" fill="none" stroke="#0000ff" stroke-width="2"/>
<g fill="black">
<circle cx="396.593" cy="180.881" r="3.41867"/>
</g>
<path d="M398.743,179.971v -2.64964" fill="none" stroke="#0000ff" stroke-width="2"/>
<path d="M398.743,171.623v -2.64964" fill="none" stroke="#0000ff" stroke-width="2"/>
<g fill="black">
<circle cx="398.743" cy="174.472" r="3.41867"/>
</g>
<path d="M400.893,183.584v -3.05898" fill="none" stroke="#0000ff" stroke-width="2"/>
<path d="M400.893,174.828v -3.05898" fill="none" stroke="#0000ff" stroke-width="2"/>
<g fill="black">
<circle cx="400.893" cy="177.676" r="3.41867"/>
</g>
<path d="M403.042,184.026v -3.50018" fill="none" stroke="#0000ff" stroke-width="2"/>
<path d="M403.042,174.828v -3.50018" fill="none" stroke="#0000ff" stroke-width="2"/>
<g fill="black">
<circle cx="403.042" cy="177.676" r="3.41867"/>
</g>
<path d="M405.192,181.297v -3.97639" fill="none" stroke="#0000ff" stroke-width="2"/>
<path d="M405.192,171.623v -3.97639" fill="none" stroke="#0000ff" stroke-width="2"/>
<g fill="black">
<circle cx="405.192" cy="174.472" r="3.41867"/>
</g>
<path d="M407.342,188.221v -4.49104" fill="none" stroke="#0000ff" stroke-width="2"/>
<path d="M407.342,178.032v -4.49104" fill="none" stroke="#0000ff" stroke-width="2"/>
<g fill="black">
<circle cx="407.342" cy="180.881" r="3.41867"/>
</g>
<path d="M409.492,195.186v -5.0478" fill="none" stroke="#0000ff" stroke-width="2"/>
<path d="M409.492,184.441v -5.0478" fill="none" stroke="#0000ff" stroke-width="2"/>
<g fill="black">
<circle cx="409.492" cy="187.29" r="3.41867"/>
</g>
<path d="M411.642,189.38v -5.65062" fill="none" stroke="#0000ff" stroke-width="2"/>
<path d="M411.642,178.032v -5.65062" fill="none" stroke="#0000ff" stroke-width="2"/>
<g fill="black">
<circle cx="411.642" cy="180.881" r="3.41867"/>
</g>
<path d="M413.791,183.625v -6.30358" fill="none" stroke="#0000ff" stroke-width="2"/>
<path d="M413.791,171.623v -6.30358" fill="none" stroke="#0000ff" stroke-width="2"/>
<g fill="black">
<circle cx="413.791" cy="174.472" r="3.41867"/>
</g>
<path d="M415.941,190.741v -7.01084" fill="none" stroke="#0000ff" stroke-width="2"/>
<path d="M415.941,178.032v -7.01084" fill="none" stroke="#0000ff" stroke-width="2"/>
<g fill="black">
<circle cx="415.941" cy="180.881" r="3.41867"/>
</g>
<path d="M418.091,191.506v -7.77646" fill="none" stroke="#0000ff" stroke-width="2"/>
<path d="M418.091,178.032v -7.77646" fill="none" stroke="#0000ff" stroke-width="2"/>
<g fill="black">
<circle cx="418.091" cy="180.881" r="3.41867"/>
</g>
<path d="M420.241,198.743v -8.60416" fill="none" stroke="#0000ff" stroke-width="2"/>
<path d="M420.241,184.441v -8.60416" fill="none" stroke="#0000ff" stroke-width="2"/>
<g fill="black">
<circle cx="420.241" cy="187.29" r="3.41867"/>
</g>
<path d="M422.391,199.635v -9.49701" fill="none" stroke="#0000ff" stroke-width="2"/>
<path d="M422.391,184.441v -9.49701" fill="none" stroke="#0000ff" stroke-width="2"/>
<g fill="black">
<circle cx="422.391" cy="187.29" r="3.41867"/>
</g>
<path d="M424.54,200.595v -10.457" fill="none" stroke="#0000ff" stroke-width="2"/>
<path d="M424.54,184.441v -10.457" fill="none" stroke="#0000ff" stroke-width="2"/>
<g fill="black">
<circle cx="424.54" cy="187.29" r="3.41867"/>
</g>
<path d="M426.69,188.806v -11.4846" fill="none" stroke="#0000ff" stroke-width="2"/>
<path d="M426.69,171.623v -11.4846" fill="none" stroke="#0000ff" stroke-width="2"/>
<g fill="black">
<circle cx="426.69" cy="174.472" r="3.41867"/>
</g>
<path d="M428.84,202.717v -12.5783" fill="none" stroke="#0000ff" stroke-width="2"/>
<path d="M428.84,184.441v -12.5783" fill="none" stroke="#0000ff" stroke-width="2"/>
<g fill="black">
<circle cx="428.84" cy="187.29" r="3.41867"/>
</g>
<path d="M430.99,191.055v -13.7338" fill="none" stroke="#0000ff" stroke-width="2"/>
<path d="M430.99,171.623v -13.7338" fill="none" stroke="#0000ff" stroke-width="2"/>
<g fill="black">
<circle cx="430.99" cy="174.472" r="3.41867"/>
</g>
<path d="M433.139,217.9v -14.944" fill="none" stroke="#0000ff" stroke-width="2"/>
<path d="M433.139,197.258v -14.944" fill="none" stroke="#0000ff" stroke-width="2"/>
<g fill="black">
<circle cx="433.139" cy="200.107" r="3.41867"/>
</g>
<path d="M435.289,219.155v -16.1988" fill="none" stroke="#0000ff" stroke-width="2"/>
<path d="M435.289,197.258v -16.1988" fill="none" stroke="#0000ff" stroke-width="2"/>
<g fill="black">
<circle cx="435.289" cy="200.107" r="3.41867"/>
</g>
<path d="M437.439,207.624v -17.4852" fill="none" stroke="#0000ff" stroke-width="2"/>
<path d="M437.439,184.441v -17.4852" fill="none" stroke="#0000ff" stroke-width="2"/>
<g fill="black">
<circle cx="437.439" cy="187.29" r="3.41867"/>
</g>
<path d="M439.589,208.926v -18.788" fill="none" stroke="#0000ff" stroke-width="2"/>
<path d="M439.589,184.441v -18.788" fill="none" stroke="#0000ff" stroke-width="2"/>
<g fill="black">
<circle cx="439.589" cy="187.29" r="3.41867"/>
</g>
<path d="M441.739,210.229v -20.0908" fill="none" stroke="#0000ff" stroke-width="2"/>
<path d="M441.739,184.441v -20.0908" fill="none" stroke="#0000ff" stroke-width="2"/>
<g fill="black">
<circle cx="441.739" cy="187.29" r="3.41867"/>
</g>
<path d="M443.888,185.881v -21.3772" fill="none" stroke="#0000ff" stroke-width="2"/>
<path d="M443.888,158.806v -21.3772" fill="none" stroke="#0000ff" stroke-width="2"/>
<g fill="black">
<circle cx="443.888" cy="161.655" r="3.41867"/>
</g>
<path d="M446.038,212.77v -22.632" fill="none" stroke="#0000ff" stroke-width="2"/>
<path d="M446.038,184.441v -22.632" fill="none" stroke="#0000ff" stroke-width="2"/>
<g fill="black">
<circle cx="446.038" cy="187.29" r="3.41867"/>
</g>
<path d="M448.188,226.798v -23.8423" fill="none" stroke="#0000ff" stroke-width="2"/>
<path d="M448.188,197.258v -23.8423" fill="none" stroke="#0000ff" stroke-width="2"/>
<g fill="black">
<circle cx="448.188" cy="200.107" r="3.41867"/>
</g>
<path d="M450.338,202.319v -24.9977" fill="none" stroke="#0000ff" stroke-width="2"/>
<path d="M450.338,171.623v -24.9977" fill="none" stroke="#0000ff" stroke-width="2"/>
<g fill="black">
<circle cx="450.338" cy="174.472" r="3.41867"/>
</g>
<path d="M452.488,203.412v -26.0914" fill="none" stroke="#0000ff" stroke-width="2"/>
<path d="M452.488,171.623v -26.0914" fill="none" stroke="#0000ff" stroke-width="2"/>
<g fill="black">
<circle cx="452.488" cy="174.472" r="3.41867"/>
</g>
<path d="M454.637,230.075v -27.119" fill="none" stroke="#0000ff" stroke-width="2"/>
<path d="M454.637,197.258v -27.119" fill="none" stroke="#0000ff" stroke-width="2"/>
<g fill="black">
<circle cx="454.637" cy="200.107" r="3.41867"/>
</g>
<path d="M456.787,231.035v -28.079" fill="none" stroke="#0000ff" stroke-width="2"/>
<path d="M456.787,197.258v -28.079" fill="none" stroke="#0000ff" stroke-width="2"/>
<g fill="black">
<circle cx="456.787" cy="200.107" r="3.41867"/>
</g>
<path d="M458.937,206.293v -28.9719" fill="none" stroke="#0000ff" stroke-width="2"/>
<path d="M458.937,171.623v -28.9719" fill="none" stroke="#0000ff" stroke-width="2"/>
<g fill="black">
<circle cx="458.937" cy="174.472" r="3.41867"/>
</g>
<path d="M461.087,207.121v -29.7996" fill="none" stroke="#0000ff" stroke-width="2"/>
<path d="M461.087,171.623v -29.7996" fill="none" stroke="#0000ff" stroke-width="2"/>
<g fill="black">
<circle cx="461.087" cy="174.472" r="3.41867"/>
</g>
<path d="M463.237,233.521v -30.5652" fill="none" stroke="#0000ff" stroke-width="2"/>
<path d="M463.237,197.258v -30.5652" fill="none" stroke="#0000ff" stroke-width="2"/>
<g fill="black">
<circle cx="463.237" cy="200.107" r="3.41867"/>
</g>
<path d="M465.386,182.959v -31.2724" fill="none" stroke="#0000ff" stroke-width="2"/>
<path d="M465.386,145.988v -31.2724" fill="none" stroke="#0000ff" stroke-width="2"/>
<g fill="black">
<circle cx="465.386" cy="148.837" r="3.41867"/>
</g>
<path d="M467.536,209.246v -31.9254" fill="none" stroke="#0000ff" stroke-width="2"/>
<path d="M467.536,171.623v -31.9254" fill="none" stroke="#0000ff" stroke-width="2"/>
<g fill="black">
<circle cx="467.536" cy="174.472" r="3.41867"/>
</g>
<path d="M469.686,209.849v -32.5282" fill="none" stroke="#0000ff" stroke-width="2"/>
<path d="M469.686,171.623v -32.5282" fill="none" stroke="#0000ff" stroke-width="2"/>
<g fill="black">
<circle cx="469.686" cy="174.472" r="3.41867"/>
</g>
<path d="M471.836,210.406v -33.085" fill="none" stroke="#0000ff" stroke-width="2"/>
<path d="M471.836,171.623v -33.085" fill="none" stroke="#0000ff" stroke-width="2"/>
<g fill="black">
<circle cx="471.836" cy="174.472" r="3.41867"/>
</g>
<path d="M473.986,185.286v -33.5996" fill="none" stroke="#0000ff" stroke-width="2"/>
<path d="M473.986,145.988v -33.5996" fill="none" stroke="#0000ff" stroke-width="2"/>
<g fill="black">
<circle cx="473.986" cy="148.837" r="3.41867"/>
</g>
<path d="M476.135,185.762v -34.0758" fill="none" stroke="#0000ff" stroke-width="2"/>
<path d="M476.135,145.988v -34.0758" fill="none" stroke="#0000ff" stroke-width="2"/>
<g fill="black">
<circle cx="476.135" cy="148.837" r="3.41867"/>
</g>
<path d="M478.285,211.838v -34.517" fill="none" stroke="#0000ff" stroke-width="2"/>
<path d="M478.285,171.623v -34.517" fill="none" stroke="#0000ff" stroke-width="2"/>
<g fill="black">
<circle cx="478.285" cy="174.472" r="3.41867"/>
</g>
<path d="M480.435,212.247v -34.9264" fill="none" stroke="#0000ff" stroke-width="2"/>
<path d="M480.435,171.623v -34.9264" fill="none" stroke="#0000ff" stroke-width="2"/>
<g fill="black">
<circle cx="480.435" cy="174.472" r="3.41867"/>
</g>
<path d="M482.585,212.628v -35.3067" fill="none" stroke="#0000ff" stroke-width="2"/>
<path d="M482.585,171.623v -35.3067" fill="none" stroke="#0000ff" stroke-width="2"/>
<g fill="black">
<circle cx="482.585" cy="174.472" r="3.41867"/>
</g>
<path d="M484.735,238.617v -35.6607" fill="none" stroke="#0000ff" stroke-width="2"/>
<path d="M484.735,197.258v -35.6607" fill="none" stroke="#0000ff" stroke-width="2"/>
<g fill="black">
<circle cx="484.735" cy="200.107" r="3.41867"/>
</g>
<path d="M486.884,264.581v -35.9906" fill="none" stroke="#0000ff" stroke-width="2"/>
<path d="M486.884,222.893v -35.9906" fill="none" stroke="#0000ff" stroke-width="2"/>
<g fill="black">
<circle cx="486.884" cy="225.742" r="3.41867"/>
</g>
<path d="M489.034,239.254v -36.2986" fill="none" stroke="#0000ff" stroke-width="2"/>
<path d="M489.034,197.258v -36.2986" fill="none" stroke="#0000ff" stroke-width="2"/>
<g fill="black">
<circle cx="489.034" cy="200.107" r="3.41867"/>
</g>
<path d="M491.184,239.542v -36.5866" fill="none" stroke="#0000ff" stroke-width="2"/>
<path d="M491.184,197.258v -36.5866" fill="none" stroke="#0000ff" stroke-width="2"/>
<g fill="black">
<circle cx="491.184" cy="200.107" r="3.41867"/>
</g>
<path d="M493.334,111.638v -36.8563" fill="none" stroke="#0000ff" stroke-width="2"/>
<path d="M493.334,69.0837v -36.8563" fill="none" stroke="#0000ff" stroke-width="2"/>
<g fill="black">
<circle cx="493.334" cy="71.9326" r="3.41867"/>
</g>
<path d="M495.484,240.065v -37.1093" fill="none" stroke="#0000ff" stroke-width="2"/>
<path d="M495.484,197.258v -37.1093" fill="none" stroke="#0000ff" stroke-width="2"/>
<g fill="black">
<circle cx="495.484" cy="200.107" r="3.41867"/>
</g>
<path d="M497.633,214.668v -37.347" fill="none" stroke="#0000ff" stroke-width="2"/>
<path d="M497.633,171.623v -37.347" fill="none" stroke="#0000ff" stroke-width="2"/>
<g fill="black">
<circle cx="497.633" cy="174.472" r="3.41867"/>
</g>
<path d="M499.783,240.526v -37.5706" fill="none" stroke="#0000ff" stroke-width="2"/>
<path d="M499.783,197.258v -37.5706" fill="none" stroke="#0000ff" stroke-width="2"/>
<g fill="black">
<circle cx="499.783" cy="200.107" r="3.41867"/>
</g>
<path d="M501.933,215.102v -37.7813" fill="none" stroke="#0000ff" stroke-width="2"/>
<path d="M501.933,171.623v -37.7813" fill="none" stroke="#0000ff" stroke-width="2"/>
<g fill="black">
<circle cx="501.933" cy="174.472" r="3.41867"/>
</g>
<path d="M504.083,215.301v -37.98" fill="none" stroke="#0000ff" stroke-width="2"/>
<path d="M504.083,171.623v -37.98" fill="none" stroke="#0000ff" stroke-width="2"/>
<g fill="black">
<circle cx="504.083" cy="174.472" r="3.41867"/>
</g>
<path d="M506.233,241.124v -38.1678" fill="none" stroke="#0000ff" stroke-width="2"/>
<path d="M506.233,197.258v -38.1678" fill="none" stroke="#0000ff" stroke-width="2"/>
<g fill="black">
<circle cx="506.233" cy="200.107" r="3.41867"/>
</g>
<path d="M508.382,241.301v -38.3455" fill="none" stroke="#0000ff" stroke-width="2"/>
<path d="M508.382,197.258v -38.3455" fill="none" stroke="#0000ff" stroke-width="2"/>
<g fill="black">
<circle cx="508.382" cy="200.107" r="3.41867"/>
</g>
<path d="M510.532,190.2v -38.5137" fill="none" stroke="#0000ff" stroke-width="2"/>
<path d="M510.532,145.988v -38.5137" fill="none" stroke="#0000ff" stroke-width="2"/>
<g fill="black">
<circle cx="510.532" cy="148.837" r="3.41867"/>
</g>
<path d="M512.682,215.994v -38.6733" fill="none" stroke="#0000ff" stroke-width="2"/>
<path d="M512.682,171.623v -38.6733" fill="none" stroke="#0000ff" stroke-width="2"/>
<g fill="black">
<circle cx="512.682" cy="174.472" r="3.41867"/>
</g>
<path d="M514.832,241.781v -38.8248" fill="none" stroke="#0000ff" stroke-width="2"/>
<path d="M514.832,197.258v -38.8248" fill="none" stroke="#0000ff" stroke-width="2"/>
<g fill="black">
<circle cx="514.832" cy="200.107" r="3.41867"/>
</g>
<path d="M516.982,216.29v -38.9689" fill="none" stroke="#0000ff" stroke-width="2"/>
<path d="M516.982,171.623v -38.9689" fill="none" stroke="#0000ff" stroke-width="2"/>
<g fill="black">
<circle cx="516.982" cy="174.472" r="3.41867"/>
</g>
<path d="M519.131,216.427v -39.1059" fill="none" stroke="#0000ff" stroke-width="2"/>
<path d="M519.131,171.623v -39.1059" fill="none" stroke="#0000ff" stroke-width="2"/>
<g fill="black">
<circle cx="519.131" cy="174.472" r="3.41867"/>
</g>
<path d="M521.281,216.557v -39.2365" fill="none" stroke="#0000ff" stroke-width="2"/>
<path d="M521.281,171.623v -39.2365" fill="none" stroke="#0000ff" stroke-width="2"/>
<g fill="black">
<circle cx="521.281" cy="174.472" r="3.41867"/>
</g>
<path d="M523.431,216.682v -39.361" fill="none" stroke="#0000ff" stroke-width="2"/>
<path d="M523.431,171.623v -39.361" fill="none" stroke="#0000ff" stroke-width="2"/>
<g fill="black">
<circle cx="523.431" cy="174.472" r="3.41867"/>
</g>
<path d="M525.581,216.801v -39.4799" fill="none" stroke="#0000ff" stroke-width="2"/>
<path d="M525.581,171.623v -39.4799" fill="none" stroke="#0000ff" stroke-width="2"/>
<g fill="black">
<circle cx="525.581" cy="174.472" r="3.41867"/>
</g>
<path d="M527.73,191.28v -39.5935" fill="none" stroke="#0000ff" stroke-width="2"/>
<path d="M527.73,145.988v -39.5935" fill="none" stroke="#0000ff" stroke-width="2"/>
<g fill="black">
<circle cx="527.73" cy="148.837" r="3.41867"/>
</g>
<path d="M529.88,268.293v -39.7021" fill="none" stroke="#0000ff" stroke-width="2"/>
<path d="M529.88,222.893v -39.7021" fill="none" stroke="#0000ff" stroke-width="2"/>
<g fill="black">
<circle cx="529.88" cy="225.742" r="3.41867"/>
</g>
<path d="M532.03,191.492v -39.806" fill="none" stroke="#0000ff" stroke-width="2"/>
<path d="M532.03,145.988v -39.806" fill="none" stroke="#0000ff" stroke-width="2"/>
<g fill="black">
<circle cx="532.03" cy="148.837" r="3.41867"/>
</g>
<path d="M534.18,217.227v -39.9056" fill="none" stroke="#0000ff" stroke-width="2"/>
<path d="M534.18,171.623v -39.9056" fill="none" stroke="#0000ff" stroke-width="2"/>
<g fill="black">
<circle cx="534.18" cy="174.472" r="3.41867"/>
</g>
<path d="M536.33,217.322v -40.0011" fill="none" stroke="#0000ff" stroke-width="2"/>
<path d="M536.33,171.623v -40.0011" fill="none" stroke="#0000ff" stroke-width="2"/>
<g fill="black">
<circle cx="536.33" cy="174.472" r="3.41867"/>
</g>
<path d="M538.479,217.414v -40.0927" fill="none" stroke="#0000ff" stroke-width="2"/>
<path d="M538.479,171.623v -40.0927" fill="none" stroke="#0000ff" stroke-width="2"/>
<g fill="black">
<circle cx="538.479" cy="174.472" r="3.41867"/>
</g>
<path d="M540.629,191.867v -40.1807" fill="none" stroke="#0000ff" stroke-width="2"/>
<path d="M540.629,145.988v -40.1807" fill="none" stroke="#0000ff" stroke-width="2"/>
<g fill="black">
<circle cx="540.629" cy="148.837" r="3.41867"/>
</g>
<path d="M542.779,217.586v -40.2653" fill="none" stroke="#0000ff" stroke-width="2"/>
<path d="M542.779,171.623v -40.2653" fill="none" stroke="#0000ff" stroke-width="2"/>
<g fill="black">
<circle cx="542.779" cy="174.472" r="3.41867"/>
</g>
<path d="M544.929,192.033v -40.3466" fill="none" stroke="#0000ff" stroke-width="2"/>
<path d="M544.929,145.988v -40.3466" fill="none" stroke="#0000ff" stroke-width="2"/>
<g fill="black">
<circle cx="544.929" cy="148.837" r="3.41867"/>
</g>
<path d="M547.079,243.381v -40.4249" fill="none" stroke="#0000ff" stroke-width="2"/>
<path d="M547.079,197.258v -40.4249" fill="none" stroke="#0000ff" stroke-width="2"/>
<g fill="black">
<circle cx="547.079" cy="200.107" r="3.41867"/>
</g>
<path d="M333.174,280.096h 214.98" fill="none" stroke="black"/>
<path d="M333.174,272.288v 7.80786" fill="none" stroke="black"/>
<path d="M338.548,276.192v 3.90393" fill="none" stroke="black"/>
<path d="M343.923,276.192v 3.90393" fill="none" stroke="black"/>
<path d="M349.297,276.192v 3.90393" fill="none" stroke="black"/>
<path d="M354.672,276.192v 3.90393" fill="none" stroke="black"/>
<path d="M360.046,272.288v 7.80786" fill="none" stroke="black"/>
<path d="M365.421,276.192v 3.90393" fill="none" stroke="black"/>
<path d="M370.795,276.192v 3.90393" fill="none" stroke="black"/>
<path d="M376.17,276.192v 3.90393" fill="none" stroke="black"/>
<path d="M381.544,276.192v 3.90393" fill="none" stroke="black"/>
<path d="M386.919,272.288v 7.80786" fill="none" stroke="black"/>
<path d="M392.293,276.192v 3.90393" fill="none" stroke="black"/>
<path d="M397.668,276.192v 3.90393" fill="none" stroke="black"/>
<path d="M403.042,276.192v 3.90393" fill="none" stroke="black"/>
<path d="M408.417,276.192v 3.90393" fill="none" stroke="black"/>
<path d="M413.791,272.288v 7.80786" fill="none" stroke="black"/>
<path d="M419.166,276.192v 3.90393" fill="none" stroke="black"/>
<path d="M424.54,276.192v 3.90393" fill="none" stroke="black"/>
<path d="M429.915,276.192v 3.90393" fill="none" stroke="black"/>
<path d="M435.289,276.192v 3.90393" fill="none" stroke="black"/>
<path d="M440.664,272.288v 7.80786" fill="none" stroke="black"/>
<path d="M446.038,276.192v 3.90393" fill="none" stroke="black"/>
<path d="M451.413,276.192v 3.90393" fill="none" stroke="black"/>
<path d="M456.787,276.192v 3.90393" fill="none" stroke="black"/>
<path d="M462.162,276.192v 3.90393" fill="none" stroke="black"/>
<path d="M467.536,272.288v 7.80786" fill="none" stroke="black"/>
<path d="M472.911,276.192v 3.90393" fill="none" stroke="black"/>
<path d="M478.285,276.192v 3.90393" fill="none" stroke="black"/>
<path d="M483.66,276.192v 3.90393" fill="none" stroke="black"/>
<path d="M489.034,276.192v 3.90393" fill="none" stroke="black"/>
<path d="M494.409,272.288v 7.80786" fill="none" stroke="black"/>
<path d="M499.783,276.192v 3.90393" fill="none" stroke="black"/>
<path d="M505.158,276.192v 3.90393" fill="none" stroke="black"/>
<path d="M510.532,276.192v 3.90393" fill="none" stroke="black"/>
<path d="M515.907,276.192v 3.90393" fill="none" stroke="black"/>
<path d="M521.281,272.288v 7.80786" fill="none" stroke="black"/>
<path d="M526.656,276.192v 3.90393" fill="none" stroke="black"/>
<path d="M532.03,276.192v 3.90393" fill="none" stroke="black"/>
<path d="M537.405,276.192v 3.90393" fill="none" stroke="black"/>
<path d="M542.779,276.192v 3.90393" fill="none" stroke="black"/>
<path d="M548.154,272.288v 7.80786" fill="none" stroke="black"/>
<text xml:space="preserve" x="332.396" y="294.86" fill="black" font-size="12.9828" font-family="Helvetica">2
</text>
<text xml:space="preserve" x="325.986" y="294.86" fill="black" font-size="12.9828" font-family="Times">&#8722;
</text>
<text xml:space="preserve" x="354.475" y="294.86" fill="black" font-size="12.9828" font-family="Helvetica">1.5
</text>
<text xml:space="preserve" x="347.352" y="294.86" fill="black" font-size="12.9828" font-family="Times">&#8722;
</text>
<text xml:space="preserve" x="387.949" y="294.86" fill="black" font-size="12.9828" font-family="Helvetica">1
</text>
<text xml:space="preserve" x="380.827" y="294.86" fill="black" font-size="12.9828" font-family="Times">&#8722;
</text>
<text xml:space="preserve" x="407.891" y="294.86" fill="black" font-size="12.9828" font-family="Helvetica">0.5
</text>
<text xml:space="preserve" x="400.769" y="294.86" fill="black" font-size="12.9828" font-family="Times">&#8722;
</text>
<text xml:space="preserve" x="437.092" y="294.86" fill="black" font-size="12.9828" font-family="Helvetica">0
</text>
<text xml:space="preserve" x="458.459" y="294.86" fill="black" font-size="12.9828" font-family="Helvetica">0.5
</text>
<text xml:space="preserve" x="491.221" y="294.86" fill="black" font-size="12.9828" font-family="Helvetica">1
</text>
<text xml:space="preserve" x="511.876" y="294.86" fill="black" font-size="12.9828" font-family="Helvetica">1.5
</text>
<text xml:space="preserve" x="544.638" y="294.86" fill="black" font-size="12.9828" font-family="Helvetica">2
</text>
<path d="M333.174,19.834h 214.98" fill="none" stroke="black"/>
<path d="M333.174,27.6418v -7.80786" fill="none" stroke="black"/>
<path d="M338.548,23.7379v -3.90393" fill="none" stroke="black"/>
<path d="M343.923,23.7379v -3.90393" fill="none" stroke="black"/>
<path d="M349.297,23.7379v -3.90393" fill="none" stroke="black"/>
<path d="M354.672,23.7379v -3.90393" fill="none" stroke="black"/>
<path d="M360.046,27.6418v -7.80786" fill="none" stroke="black"/>
<path d="M365.421,23.7379v -3.90393" fill="none" stroke="black"/>
<path d="M370.795,23.7379v -3.90393" fill="none" stroke="black"/>
<path d="M376.17,23.7379v -3.90393" fill="none" stroke="black"/>
<path d="M381.544,23.7379v -3.90393" fill="none" stroke="black"/>
<path d="M386.919,27.6418v -7.80786" fill="none" stroke="black"/>
<path d="M392.293,23.7379v -3.90393" fill="none" stroke="black"/>
<path d="M397.668,23.7379v -3.90393" fill="none" stroke="black"/>
<path d="M403.042,23.7379v -3.90393" fill="none" stroke="black"/>
<path d="M408.417,23.7379v -3.90393" fill="none" stroke="black"/>
<path d="M413.791,27.6418v -7.80786" fill="none" stroke="black"/>
<path d="M419.166,23.7379v -3.90393" fill="none" stroke="black"/>
<path d="M424.54,23.7379v -3.90393" fill="none" stroke="black"/>
<path d="M429.915,23.7379v -3.90393" fill="none" stroke="black"/>
<path d="M435.289,23.7379v -3.90393" fill="none" stroke="black"/>
<path d="M440.664,27.6418v -7.80786" fill="none" stroke="black"/>
<path d="M446.038,23.7379v -3.90393" fill="none" stroke="black"/>
<path d="M451.413,23.7379v -3.90393" fill="none" stroke="black"/>
<path d="M456.787,23.7379v -3.90393" fill="none" stroke="black"/>
<path d="M462.162,23.7379v -3.90393" fill="none" stroke="black"/>
<path d="M467.536,27.6418v -7.80786" fill="none" stroke="black"/>
<path d="M472.911,23.7379v -3.90393" fill="none" stroke="black"/>
<path d="M478.285,23.7379v -3.90393" fill="none" stroke="black"/>
<path d="M483.66,23.7379v -3.90393" fill="none" stroke="black"/>
<path d="M489.034,23.7379v -3.90393" fill="none" stroke="black"/>
<path d="M494.409,27.6418v -7.80786" fill="none" stroke="black"/>
<path d="M499.783,23.7379v -3.90393" fill="none" stroke="black"/>
<path d="M505.158,23.7379v -3.90393" fill="none" stroke="black"/>
<path d="M510.532,23.7379v -3.90393" fill="none" stroke="black"/>
<path d="M515.907,23.7379v -3.90393" fill="none" stroke="black"/>
<path d="M521.281,27.6418v -7.80786" fill="none" stroke="black"/>
<path d="M526.656,23.7379v -3.90393" fill="none" stroke="black"/>
<path d="M532.03,23.7379v -3.90393" fill="none" stroke="black"/>
<path d="M537.405,23.7379v -3.90393" fill="none" stroke="black"/>
<path d="M542.779,23.7379v -3.90393" fill="none" stroke="black"/>
<path d="M548.154,27.6418v -7.80786" fill="none" stroke="black"/>
<path d="M333.174,280.096v -260.262" fill="none" stroke="black"/>
<path d="M339.623,266.831h -6.44939" fill="none" stroke="black"/>
<path d="M336.399,255.287h -3.22469" fill="none" stroke="black"/>
<path d="M336.399,243.742h -3.22469" fill="none" stroke="black"/>
<path d="M336.399,232.197h -3.22469" fill="none" stroke="black"/>
<path d="M339.623,220.652h -6.44939" fill="none" stroke="black"/>
<path d="M336.399,209.107h -3.22469" fill="none" stroke="black"/>
<path d="M336.399,197.562h -3.22469" fill="none" stroke="black"/>
<path d="M336.399,186.017h -3.22469" fill="none" stroke="black"/>
<path d="M339.623,174.472h -6.44939" fill="none" stroke="black"/>
<path d="M336.399,162.927h -3.22469" fill="none" stroke="black"/>
<path d="M336.399,151.382h -3.22469" fill="none" stroke="black"/>
<path d="M336.399,139.837h -3.22469" fill="none" stroke="black"/>
<path d="M339.623,128.292h -6.44939" fill="none" stroke="black"/>
<path d="M336.399,116.747h -3.22469" fill="none" stroke="black"/>
<path d="M336.399,105.203h -3.22469" fill="none" stroke="black"/>
<path d="M336.399,93.6576h -3.22469" fill="none" stroke="black"/>
<path d="M339.623,82.1127h -6.44939" fill="none" stroke="black"/>
<path d="M336.399,70.5678h -3.22469" fill="none" stroke="black"/>
<path d="M336.399,59.0229h -3.22469" fill="none" stroke="black"/>
<path d="M336.399,47.478h -3.22469" fill="none" stroke="black"/>
<path d="M339.623,35.9331h -6.44939" fill="none" stroke="black"/>
<path d="M339.623,266.831h -6.44939" fill="none" stroke="black"/>
<path d="M336.399,278.376h -3.22469" fill="none" stroke="black"/>
<path d="M339.623,35.9331h -6.44939" fill="none" stroke="black"/>
<path d="M336.399,24.3881h -3.22469" fill="none" stroke="black"/>
<text xml:space="preserve" x="313.878" y="272.069" fill="black" font-size="12.9828" font-family="Helvetica">0.4
</text>
<text xml:space="preserve" x="306.756" y="272.069" fill="black" font-size="12.9828" font-family="Times">&#8722;
</text>
<text xml:space="preserve" x="313.878" y="225.775" fill="black" font-size="12.9828" font-family="Helvetica">0.2
</text>
<text xml:space="preserve" x="306.756" y="225.775" fill="black" font-size="12.9828" font-family="Times">&#8722;
</text>
<text xml:space="preserve" x="324.561" y="179.48" fill="black" font-size="12.9828" font-family="Helvetica">0
</text>
<text xml:space="preserve" x="313.878" y="133.186" fill="black" font-size="12.9828" font-family="Helvetica">0.2
</text>
<text xml:space="preserve" x="313.878" y="86.8912" fill="black" font-size="12.9828" font-family="Helvetica">0.4
</text>
<text xml:space="preserve" x="313.878" y="40.5967" fill="black" font-size="12.9828" font-family="Helvetica">0.6
</text>
<text xml:space="preserve" x="358.748" y="12.1078" fill="black" font-size="8.8219" font-family="Helvetica">15
</text>
<text xml:space="preserve" x="354.475" y="12.1078" fill="black" font-size="8.8219" font-family="Times">&#8722;
</text>
<text xml:space="preserve" x="340.23" y="18.5178" fill="black" font-size="12.9828" font-family="Helvetica">10
</text>
<text xml:space="preserve" x="333.108" y="18.5178" fill="black" font-size="12.9828" font-family="Times">&#0215;
</text>
<path d="M548.154,280.096v -260.262" fill="none" stroke="black"/>
<path d="M541.704,266.831h 6.44939" fill="none" stroke="black"/>
<path d="M544.929,255.287h 3.22469" fill="none" stroke="black"/>
<path d="M544.929,243.742h 3.22469" fill="none" stroke="black"/>
<path d="M544.929,232.197h 3.22469" fill="none" stroke="black"/>
<path d="M541.704,220.652h 6.44939" fill="none" stroke="black"/>
<path d="M544.929,209.107h 3.22469" fill="none" stroke="black"/>
<path d="M544.929,197.562h 3.22469" fill="none" stroke="black"/>
<path d="M544.929,186.017h 3.22469" fill="none" stroke="black"/>
<path d="M541.704,174.472h 6.44939" fill="none" stroke="black"/>
<path d="M544.929,162.927h 3.22469" fill="none" stroke="black"/>
<path d="M544.929,151.382h 3.22469" fill="none" stroke="black"/>
<path d="M544.929,139.837h 3.22469" fill="none" stroke="black"/>
<path d="M541.704,128.292h 6.44939" fill="none" stroke="black"/>
<path d="M544.929,116.747h 3.22469" fill="none" stroke="black"/>
<path d="M544.929,105.203h 3.22469" fill="none" stroke="black"/>
<path d="M544.929,93.6576h 3.22469" fill="none" stroke="black"/>
<path d="M541.704,82.1127h 6.44939" fill="none" stroke="black"/>
<path d="M544.929,70.5678h 3.22469" fill="none" stroke="black"/>
<path d="M544.929,59.0229h 3.22469" fill="none" stroke="black"/>
<path d="M544.929,47.478h 3.22469" fill="none" stroke="black"/>
<path d="M541.704,35.9331h 6.44939" fill="none" stroke="black"/>
<path d="M541.704,266.831h 6.44939" fill="none" stroke="black"/>
<path d="M544.929,278.376h 3.22469" fill="none" stroke="black"/>
<path d="M541.704,35.9331h 6.44939" fill="none" stroke="black"/>
<path d="M544.929,24.3881h 3.22469" fill="none" stroke="black"/>
<path d="M333.174,184.836h 2.1498v -2.05279h 2.1498v -0.901226h 2.1498v -0.400545h 2.1498v -0.200272h 2.1498v 4.40599h 2.1498v -12.0163h 2.1498v 2.00272h 2.1498v 12.4169h 2.1498v -0.80109h 2.1498v 1.60218h 2.1498v -8.81199h 2.1498v 8.0109h 2.1498v
 -1.60218h 2.1498v -4.00545h 2.1498v -4.80654h 4.29959v 11.2153h 2.1498v -12.8174h 2.1498v 11.2153h 2.1498v -6.40872h 2.1498v -4.80654h 2.1498v 8.0109h 2.1498v -9.61308h 2.1498v 12.8174h 2.1498v -12.8174h 2.1498v 12.8174h 2.1498v -12.8174h 2.1498v
 3.20436h 2.1498v 3.20436h 2.1498v -6.40872h 2.1498v 12.8174h 2.1498v -12.8174h 2.1498v 6.40872h 4.29959v 6.40872h 2.1498v -6.40872h 2.1498v -6.40872h 2.1498v 6.40872h 2.1498v 6.40872h 10.749v -12.8174h 4.29959v 25.6349h 2.1498v -25.6349h 6.44939v
 -12.8174h 2.1498v 12.8174h 2.1498v 12.8174h 2.1498v 12.8174h 2.1498v -25.6349h 6.44939v 25.6349h 6.44939v -51.2697h 4.29959v 25.6349h 6.44939v 25.6349h 2.1498v -25.6349h 10.749v 25.6349h 4.29959v -25.6349h 4.29959v 25.6349h 2.1498v -25.6349h 2.1498v
 25.6349h 2.1498v -25.6349h 4.29959v 25.6349h 4.29959v -25.6349h 4.29959v 25.6349h 2.1498v -51.2697h 2.1498v 25.6349h 4.29959v 25.6349h 2.1498v -51.2697h 4.29959v 51.2697h 2.1498v -51.2697h 2.1498v 51.2697h 2.1498v -51.2697h 2.1498v 51.2697h 2.1498v
 -25.6349h 6.44939v 51.2697h 2.1498" fill="none" stroke="#ff0000" stroke-width="2"/>
<rect x="319.568" y="39.6007" width="160.554" height="29.6501" fill="white"/>
<path d="M323.841,69.2508v 2.84889h 159.13v -28.2257h -2.84889v 25.3768z" fill="black"/>
<path d="M319.568,69.2508v -29.6501h 160.554v 29.6501h -160.554z" fill="none" stroke="black"/>
<text xml:space="preserve" x="359.46" y="50.5678" fill="black" font-size="7.59213" font-family="Helvetica" font-weight="bold">GSL integration - analytical 
</text>
<path d="M325.589,52.202h 28.097v -10.3775h -28.097z" fill="white"/>
<path d="M325.589,47.0132h 28.097" fill="none" stroke="#0000ff" stroke-width="2"/>
<g fill="black">
<circle cx="339.637" cy="47.0132" r="3.41867"/>
</g>
<text xml:space="preserve" x="359.46" y="65.5245" fill="black" font-size="7.59213" font-family="Helvetica" font-weight="bold">TF1::Integral  - analytical 
</text>
<path d="M325.589,67.0271h 28.097v -10.3775h -28.097z" fill="white"/>
<path d="M325.589,61.8383h 28.097" fill="none" stroke="#ff0000" stroke-width="2"/>
<g fill="black">
<circle cx="339.637" cy="61.8383" r="3.41867"/>
</g></svg>
