<?xml version="1.0" standalone="no"?>
<svg width="567.429" height="734.844" viewBox="0 0 567.429 734.844" xmlns="http://www.w3.org/2000/svg" shape-rendering="crispEdges">
<title>
./old_svg_ref/mathBeta.svg
</title>
<desc>
Creator: ROOT Version 6.33.01
CreationDate: Wed Jul 10 10:05:22 2024</desc>
<defs>
</defs>
<rect x="0.5" y="0" width="566.929" height="734.344" fill="white"/>
<rect x="6.16929" y="7.34344" width="555.591" height="352.485" fill="white"/>
<rect x="95.0638" y="24.9677" width="438.917" height="278.463" fill="white"/>
<rect x="95.0638" y="24.9677" width="438.917" height="278.463" fill="none" stroke="black"/>
<path d="M95.0638,303.431h 438.917" fill="none" stroke="black"/>
<path d="M95.0638,24.9677v 278.463" fill="none" stroke="black" stroke-dasharray=" 1, 2"/>
<path d="M138.955,24.9677v 278.463" fill="none" stroke="black" stroke-dasharray=" 1, 2"/>
<path d="M182.847,24.9677v 278.463" fill="none" stroke="black" stroke-dasharray=" 1, 2"/>
<path d="M226.739,24.9677v 278.463" fill="none" stroke="black" stroke-dasharray=" 1, 2"/>
<path d="M270.63,24.9677v 278.463" fill="none" stroke="black" stroke-dasharray=" 1, 2"/>
<path d="M314.522,24.9677v 278.463" fill="none" stroke="black" stroke-dasharray=" 1, 2"/>
<path d="M358.414,24.9677v 278.463" fill="none" stroke="black" stroke-dasharray=" 1, 2"/>
<path d="M402.305,24.9677v 278.463" fill="none" stroke="black" stroke-dasharray=" 1, 2"/>
<path d="M446.197,24.9677v 278.463" fill="none" stroke="black" stroke-dasharray=" 1, 2"/>
<path d="M490.089,24.9677v 278.463" fill="none" stroke="black" stroke-dasharray=" 1, 2"/>
<path d="M533.98,24.9677v 278.463" fill="none" stroke="black" stroke-dasharray=" 1, 2"/>
<path d="M95.0638,24.9677h 438.917" fill="none" stroke="black"/>
<path d="M95.0638,303.431v -278.463" fill="none" stroke="black"/>
<path d="M533.98,299.707h -438.917" fill="none" stroke="black" stroke-dasharray=" 1, 2"/>
<path d="M533.98,267.127h -438.917" fill="none" stroke="black" stroke-dasharray=" 1, 2"/>
<path d="M533.98,234.547h -438.917" fill="none" stroke="black" stroke-dasharray=" 1, 2"/>
<path d="M533.98,201.967h -438.917" fill="none" stroke="black" stroke-dasharray=" 1, 2"/>
<path d="M533.98,169.387h -438.917" fill="none" stroke="black" stroke-dasharray=" 1, 2"/>
<path d="M533.98,136.807h -438.917" fill="none" stroke="black" stroke-dasharray=" 1, 2"/>
<path d="M533.98,104.227h -438.917" fill="none" stroke="black" stroke-dasharray=" 1, 2"/>
<path d="M533.98,71.6469h -438.917" fill="none" stroke="black" stroke-dasharray=" 1, 2"/>
<path d="M533.98,39.067h -438.917" fill="none" stroke="black" stroke-dasharray=" 1, 2"/>
<path d="M533.98,299.707h -438.917" fill="none" stroke="black" stroke-dasharray=" 1, 2"/>
<path d="M533.98,39.067h -438.917" fill="none" stroke="black" stroke-dasharray=" 1, 2"/>
<path d="M533.98,303.431v -278.463" fill="none" stroke="black"/>
<path d="M97.2584,38.2279l 4.38917, 123.424l 4.38917, 37.7855l 4.38917, 19.9908l 4.38917, 12.8069l 4.38917, 9.07392l 4.38917, 6.84403l 4.38917, 5.38723l 4.38917, 4.37391l 4.38917, 3.63554l 4.38917, 3.07783l 4.38917, 2.64435l 4.38917, 2.29945l
 4.38917, 2.01964l 4.38917, 1.78884l 4.38917, 1.59575l 4.38917, 1.43221l 4.38917, 1.29216l 4.38917, 1.17109l 4.38917, 1.06549l 4.38917, 0.972678l 4.38917, 0.890513l 4.38917, 0.817297l 4.38917, 0.75166l 4.38917, 0.692486l 4.38917, 0.638857l 4.38917,
 0.590012l 4.38917, 0.545316l 4.38917, 0.504232l 4.38917, 0.466308l 4.38917, 0.431155l 4.38917, 0.398442l 4.38917, 0.367882l 4.38917, 0.339224l 4.38917, 0.31225l 4.38917, 0.28677l 4.38917, 0.262613l 4.38917, 0.239629l 4.38917, 0.217683l 4.38917,
 0.196655l 4.38917, 0.176436l 4.38917, 0.156924l 4.38917, 0.13803l 4.38917, 0.119669l 4.38917, 0.101763l 4.38917, 0.0842373l 4.38917, 0.0670239l 4.38917, 0.0500561l 4.38917, 0.0332705l 4.38917, 0.0166053" fill="none" stroke="#ff0000"/>
<path d="M312.327,290.802h 4.38917l 4.38917, -0.0166053l 4.38917, -0.0332705l 4.38917, -0.0500561l 4.38917, -0.0670239l 4.38917, -0.0842373l 4.38917, -0.101763l 4.38917, -0.119669l 4.38917, -0.13803l 4.38917, -0.156924l 4.38917, -0.176436l 4.38917,
 -0.196655l 4.38917, -0.217683l 4.38917, -0.239629l 4.38917, -0.262613l 4.38917, -0.28677l 4.38917, -0.31225l 4.38917, -0.339224l 4.38917, -0.367882l 4.38917, -0.398442l 4.38917, -0.431155l 4.38917, -0.466308l 4.38917, -0.504232l 4.38917, -0.545316l
 4.38917, -0.590012l 4.38917, -0.638857l 4.38917, -0.692486l 4.38917, -0.75166l 4.38917, -0.817297l 4.38917, -0.890513l 4.38917, -0.972678l 4.38917, -1.06549l 4.38917, -1.17109l 4.38917, -1.29216l 4.38917, -1.43221l 4.38917, -1.59575l 4.38917,
 -1.78884l 4.38917, -2.01964l 4.38917, -2.29945l 4.38917, -2.64435l 4.38917, -3.07783l 4.38917, -3.63554l 4.38917, -4.37391l 4.38917, -5.38723l 4.38917, -6.84403l 4.38917, -9.07392l 4.38917, -12.8069l 4.38917, -19.9908l 4.38917, -37.7855" fill="none"
 stroke="#ff0000"/>
<path d="M527.397,161.652l 4.38917, -123.424" fill="none" stroke="#ff0000"/>
<path d="M95.0638,303.431h 438.917" fill="none" stroke="black"/>
<path d="M95.0638,295.077v 8.3539" fill="none" stroke="black"/>
<path d="M103.842,299.254v 4.17695" fill="none" stroke="black"/>
<path d="M112.62,299.254v 4.17695" fill="none" stroke="black"/>
<path d="M121.399,299.254v 4.17695" fill="none" stroke="black"/>
<path d="M130.177,299.254v 4.17695" fill="none" stroke="black"/>
<path d="M138.955,295.077v 8.3539" fill="none" stroke="black"/>
<path d="M147.734,299.254v 4.17695" fill="none" stroke="black"/>
<path d="M156.512,299.254v 4.17695" fill="none" stroke="black"/>
<path d="M165.29,299.254v 4.17695" fill="none" stroke="black"/>
<path d="M174.069,299.254v 4.17695" fill="none" stroke="black"/>
<path d="M182.847,295.077v 8.3539" fill="none" stroke="black"/>
<path d="M191.625,299.254v 4.17695" fill="none" stroke="black"/>
<path d="M200.404,299.254v 4.17695" fill="none" stroke="black"/>
<path d="M209.182,299.254v 4.17695" fill="none" stroke="black"/>
<path d="M217.96,299.254v 4.17695" fill="none" stroke="black"/>
<path d="M226.739,295.077v 8.3539" fill="none" stroke="black"/>
<path d="M235.517,299.254v 4.17695" fill="none" stroke="black"/>
<path d="M244.295,299.254v 4.17695" fill="none" stroke="black"/>
<path d="M253.074,299.254v 4.17695" fill="none" stroke="black"/>
<path d="M261.852,299.254v 4.17695" fill="none" stroke="black"/>
<path d="M270.63,295.077v 8.3539" fill="none" stroke="black"/>
<path d="M279.409,299.254v 4.17695" fill="none" stroke="black"/>
<path d="M288.187,299.254v 4.17695" fill="none" stroke="black"/>
<path d="M296.965,299.254v 4.17695" fill="none" stroke="black"/>
<path d="M305.744,299.254v 4.17695" fill="none" stroke="black"/>
<path d="M314.522,295.077v 8.3539" fill="none" stroke="black"/>
<path d="M323.3,299.254v 4.17695" fill="none" stroke="black"/>
<path d="M332.079,299.254v 4.17695" fill="none" stroke="black"/>
<path d="M340.857,299.254v 4.17695" fill="none" stroke="black"/>
<path d="M349.635,299.254v 4.17695" fill="none" stroke="black"/>
<path d="M358.414,295.077v 8.3539" fill="none" stroke="black"/>
<path d="M367.192,299.254v 4.17695" fill="none" stroke="black"/>
<path d="M375.97,299.254v 4.17695" fill="none" stroke="black"/>
<path d="M384.749,299.254v 4.17695" fill="none" stroke="black"/>
<path d="M393.527,299.254v 4.17695" fill="none" stroke="black"/>
<path d="M402.305,295.077v 8.3539" fill="none" stroke="black"/>
<path d="M411.084,299.254v 4.17695" fill="none" stroke="black"/>
<path d="M419.862,299.254v 4.17695" fill="none" stroke="black"/>
<path d="M428.64,299.254v 4.17695" fill="none" stroke="black"/>
<path d="M437.419,299.254v 4.17695" fill="none" stroke="black"/>
<path d="M446.197,295.077v 8.3539" fill="none" stroke="black"/>
<path d="M454.975,299.254v 4.17695" fill="none" stroke="black"/>
<path d="M463.754,299.254v 4.17695" fill="none" stroke="black"/>
<path d="M472.532,299.254v 4.17695" fill="none" stroke="black"/>
<path d="M481.31,299.254v 4.17695" fill="none" stroke="black"/>
<path d="M490.089,295.077v 8.3539" fill="none" stroke="black"/>
<path d="M498.867,299.254v 4.17695" fill="none" stroke="black"/>
<path d="M507.645,299.254v 4.17695" fill="none" stroke="black"/>
<path d="M516.424,299.254v 4.17695" fill="none" stroke="black"/>
<path d="M525.202,299.254v 4.17695" fill="none" stroke="black"/>
<path d="M533.98,295.077v 8.3539" fill="none" stroke="black"/>
<text xml:space="preserve" x="89.915" y="319.611" fill="black" font-size="16.6691" font-family="Helvetica">0
</text>
<text xml:space="preserve" x="128.915" y="319.611" fill="black" font-size="16.6691" font-family="Helvetica">0.1
</text>
<text xml:space="preserve" x="171.72" y="319.611" fill="black" font-size="16.6691" font-family="Helvetica">0.2
</text>
<text xml:space="preserve" x="215.476" y="319.611" fill="black" font-size="16.6691" font-family="Helvetica">0.3
</text>
<text xml:space="preserve" x="259.233" y="319.611" fill="black" font-size="16.6691" font-family="Helvetica">0.4
</text>
<text xml:space="preserve" x="302.989" y="319.611" fill="black" font-size="16.6691" font-family="Helvetica">0.5
</text>
<text xml:space="preserve" x="346.745" y="319.611" fill="black" font-size="16.6691" font-family="Helvetica">0.6
</text>
<text xml:space="preserve" x="390.502" y="319.611" fill="black" font-size="16.6691" font-family="Helvetica">0.7
</text>
<text xml:space="preserve" x="435.209" y="319.611" fill="black" font-size="16.6691" font-family="Helvetica">0.8
</text>
<text xml:space="preserve" x="478.965" y="319.611" fill="black" font-size="16.6691" font-family="Helvetica">0.9
</text>
<text xml:space="preserve" x="531.283" y="319.611" fill="black" font-size="16.6691" font-family="Helvetica">1
</text>
<path d="M95.0638,24.9677h 438.917" fill="none" stroke="black"/>
<path d="M95.0638,33.3216v -8.3539" fill="none" stroke="black"/>
<path d="M103.842,29.1447v -4.17695" fill="none" stroke="black"/>
<path d="M112.62,29.1447v -4.17695" fill="none" stroke="black"/>
<path d="M121.399,29.1447v -4.17695" fill="none" stroke="black"/>
<path d="M130.177,29.1447v -4.17695" fill="none" stroke="black"/>
<path d="M138.955,33.3216v -8.3539" fill="none" stroke="black"/>
<path d="M147.734,29.1447v -4.17695" fill="none" stroke="black"/>
<path d="M156.512,29.1447v -4.17695" fill="none" stroke="black"/>
<path d="M165.29,29.1447v -4.17695" fill="none" stroke="black"/>
<path d="M174.069,29.1447v -4.17695" fill="none" stroke="black"/>
<path d="M182.847,33.3216v -8.3539" fill="none" stroke="black"/>
<path d="M191.625,29.1447v -4.17695" fill="none" stroke="black"/>
<path d="M200.404,29.1447v -4.17695" fill="none" stroke="black"/>
<path d="M209.182,29.1447v -4.17695" fill="none" stroke="black"/>
<path d="M217.96,29.1447v -4.17695" fill="none" stroke="black"/>
<path d="M226.739,33.3216v -8.3539" fill="none" stroke="black"/>
<path d="M235.517,29.1447v -4.17695" fill="none" stroke="black"/>
<path d="M244.295,29.1447v -4.17695" fill="none" stroke="black"/>
<path d="M253.074,29.1447v -4.17695" fill="none" stroke="black"/>
<path d="M261.852,29.1447v -4.17695" fill="none" stroke="black"/>
<path d="M270.63,33.3216v -8.3539" fill="none" stroke="black"/>
<path d="M279.409,29.1447v -4.17695" fill="none" stroke="black"/>
<path d="M288.187,29.1447v -4.17695" fill="none" stroke="black"/>
<path d="M296.965,29.1447v -4.17695" fill="none" stroke="black"/>
<path d="M305.744,29.1447v -4.17695" fill="none" stroke="black"/>
<path d="M314.522,33.3216v -8.3539" fill="none" stroke="black"/>
<path d="M323.3,29.1447v -4.17695" fill="none" stroke="black"/>
<path d="M332.079,29.1447v -4.17695" fill="none" stroke="black"/>
<path d="M340.857,29.1447v -4.17695" fill="none" stroke="black"/>
<path d="M349.635,29.1447v -4.17695" fill="none" stroke="black"/>
<path d="M358.414,33.3216v -8.3539" fill="none" stroke="black"/>
<path d="M367.192,29.1447v -4.17695" fill="none" stroke="black"/>
<path d="M375.97,29.1447v -4.17695" fill="none" stroke="black"/>
<path d="M384.749,29.1447v -4.17695" fill="none" stroke="black"/>
<path d="M393.527,29.1447v -4.17695" fill="none" stroke="black"/>
<path d="M402.305,33.3216v -8.3539" fill="none" stroke="black"/>
<path d="M411.084,29.1447v -4.17695" fill="none" stroke="black"/>
<path d="M419.862,29.1447v -4.17695" fill="none" stroke="black"/>
<path d="M428.64,29.1447v -4.17695" fill="none" stroke="black"/>
<path d="M437.419,29.1447v -4.17695" fill="none" stroke="black"/>
<path d="M446.197,33.3216v -8.3539" fill="none" stroke="black"/>
<path d="M454.975,29.1447v -4.17695" fill="none" stroke="black"/>
<path d="M463.754,29.1447v -4.17695" fill="none" stroke="black"/>
<path d="M472.532,29.1447v -4.17695" fill="none" stroke="black"/>
<path d="M481.31,29.1447v -4.17695" fill="none" stroke="black"/>
<path d="M490.089,33.3216v -8.3539" fill="none" stroke="black"/>
<path d="M498.867,29.1447v -4.17695" fill="none" stroke="black"/>
<path d="M507.645,29.1447v -4.17695" fill="none" stroke="black"/>
<path d="M516.424,29.1447v -4.17695" fill="none" stroke="black"/>
<path d="M525.202,29.1447v -4.17695" fill="none" stroke="black"/>
<path d="M533.98,33.3216v -8.3539" fill="none" stroke="black"/>
<path d="M95.0638,303.431v -278.463" fill="none" stroke="black"/>
<path d="M108.231,299.707h -13.1675" fill="none" stroke="black"/>
<path d="M101.648,293.191h -6.58375" fill="none" stroke="black"/>
<path d="M101.648,286.675h -6.58375" fill="none" stroke="black"/>
<path d="M101.648,280.159h -6.58375" fill="none" stroke="black"/>
<path d="M101.648,273.643h -6.58375" fill="none" stroke="black"/>
<path d="M108.231,267.127h -13.1675" fill="none" stroke="black"/>
<path d="M101.648,260.611h -6.58375" fill="none" stroke="black"/>
<path d="M101.648,254.095h -6.58375" fill="none" stroke="black"/>
<path d="M101.648,247.579h -6.58375" fill="none" stroke="black"/>
<path d="M101.648,241.063h -6.58375" fill="none" stroke="black"/>
<path d="M108.231,234.547h -13.1675" fill="none" stroke="black"/>
<path d="M101.648,228.031h -6.58375" fill="none" stroke="black"/>
<path d="M101.648,221.515h -6.58375" fill="none" stroke="black"/>
<path d="M101.648,214.999h -6.58375" fill="none" stroke="black"/>
<path d="M101.648,208.483h -6.58375" fill="none" stroke="black"/>
<path d="M108.231,201.967h -13.1675" fill="none" stroke="black"/>
<path d="M101.648,195.451h -6.58375" fill="none" stroke="black"/>
<path d="M101.648,188.935h -6.58375" fill="none" stroke="black"/>
<path d="M101.648,182.419h -6.58375" fill="none" stroke="black"/>
<path d="M101.648,175.903h -6.58375" fill="none" stroke="black"/>
<path d="M108.231,169.387h -13.1675" fill="none" stroke="black"/>
<path d="M101.648,162.871h -6.58375" fill="none" stroke="black"/>
<path d="M101.648,156.355h -6.58375" fill="none" stroke="black"/>
<path d="M101.648,149.839h -6.58375" fill="none" stroke="black"/>
<path d="M101.648,143.323h -6.58375" fill="none" stroke="black"/>
<path d="M108.231,136.807h -13.1675" fill="none" stroke="black"/>
<path d="M101.648,130.291h -6.58375" fill="none" stroke="black"/>
<path d="M101.648,123.775h -6.58375" fill="none" stroke="black"/>
<path d="M101.648,117.259h -6.58375" fill="none" stroke="black"/>
<path d="M101.648,110.743h -6.58375" fill="none" stroke="black"/>
<path d="M108.231,104.227h -13.1675" fill="none" stroke="black"/>
<path d="M101.648,97.7109h -6.58375" fill="none" stroke="black"/>
<path d="M101.648,91.1949h -6.58375" fill="none" stroke="black"/>
<path d="M101.648,84.6789h -6.58375" fill="none" stroke="black"/>
<path d="M101.648,78.1629h -6.58375" fill="none" stroke="black"/>
<path d="M108.231,71.6469h -13.1675" fill="none" stroke="black"/>
<path d="M101.648,65.131h -6.58375" fill="none" stroke="black"/>
<path d="M101.648,58.615h -6.58375" fill="none" stroke="black"/>
<path d="M101.648,52.099h -6.58375" fill="none" stroke="black"/>
<path d="M101.648,45.583h -6.58375" fill="none" stroke="black"/>
<path d="M108.231,39.067h -13.1675" fill="none" stroke="black"/>
<path d="M108.231,299.707h -13.1675" fill="none" stroke="black"/>
<path d="M108.231,39.067h -13.1675" fill="none" stroke="black"/>
<path d="M101.648,32.551h -6.58375" fill="none" stroke="black"/>
<path d="M101.648,26.035h -6.58375" fill="none" stroke="black"/>
<text xml:space="preserve" x="69.9393" y="306.294" fill="black" font-size="16.6691" font-family="Helvetica">0.5
</text>
<text xml:space="preserve" x="86.1101" y="273.952" fill="black" font-size="16.6691" font-family="Helvetica">1
</text>
<text xml:space="preserve" x="69.9393" y="241.611" fill="black" font-size="16.6691" font-family="Helvetica">1.5
</text>
<text xml:space="preserve" x="83.2564" y="208.318" fill="black" font-size="16.6691" font-family="Helvetica">2
</text>
<text xml:space="preserve" x="69.9393" y="175.976" fill="black" font-size="16.6691" font-family="Helvetica">2.5
</text>
<text xml:space="preserve" x="83.2564" y="143.635" fill="black" font-size="16.6691" font-family="Helvetica">3
</text>
<text xml:space="preserve" x="69.9393" y="111.293" fill="black" font-size="16.6691" font-family="Helvetica">3.5
</text>
<text xml:space="preserve" x="83.2564" y="78.0003" fill="black" font-size="16.6691" font-family="Helvetica">4
</text>
<text xml:space="preserve" x="69.9393" y="45.6587" fill="black" font-size="16.6691" font-family="Helvetica">4.5
</text>
<path d="M533.98,303.431v -278.463" fill="none" stroke="black"/>
<path d="M520.813,299.707h 13.1675" fill="none" stroke="black"/>
<path d="M527.397,293.191h 6.58375" fill="none" stroke="black"/>
<path d="M527.397,286.675h 6.58375" fill="none" stroke="black"/>
<path d="M527.397,280.159h 6.58375" fill="none" stroke="black"/>
<path d="M527.397,273.643h 6.58375" fill="none" stroke="black"/>
<path d="M520.813,267.127h 13.1675" fill="none" stroke="black"/>
<path d="M527.397,260.611h 6.58375" fill="none" stroke="black"/>
<path d="M527.397,254.095h 6.58375" fill="none" stroke="black"/>
<path d="M527.397,247.579h 6.58375" fill="none" stroke="black"/>
<path d="M527.397,241.063h 6.58375" fill="none" stroke="black"/>
<path d="M520.813,234.547h 13.1675" fill="none" stroke="black"/>
<path d="M527.397,228.031h 6.58375" fill="none" stroke="black"/>
<path d="M527.397,221.515h 6.58375" fill="none" stroke="black"/>
<path d="M527.397,214.999h 6.58375" fill="none" stroke="black"/>
<path d="M527.397,208.483h 6.58375" fill="none" stroke="black"/>
<path d="M520.813,201.967h 13.1675" fill="none" stroke="black"/>
<path d="M527.397,195.451h 6.58375" fill="none" stroke="black"/>
<path d="M527.397,188.935h 6.58375" fill="none" stroke="black"/>
<path d="M527.397,182.419h 6.58375" fill="none" stroke="black"/>
<path d="M527.397,175.903h 6.58375" fill="none" stroke="black"/>
<path d="M520.813,169.387h 13.1675" fill="none" stroke="black"/>
<path d="M527.397,162.871h 6.58375" fill="none" stroke="black"/>
<path d="M527.397,156.355h 6.58375" fill="none" stroke="black"/>
<path d="M527.397,149.839h 6.58375" fill="none" stroke="black"/>
<path d="M527.397,143.323h 6.58375" fill="none" stroke="black"/>
<path d="M520.813,136.807h 13.1675" fill="none" stroke="black"/>
<path d="M527.397,130.291h 6.58375" fill="none" stroke="black"/>
<path d="M527.397,123.775h 6.58375" fill="none" stroke="black"/>
<path d="M527.397,117.259h 6.58375" fill="none" stroke="black"/>
<path d="M527.397,110.743h 6.58375" fill="none" stroke="black"/>
<path d="M520.813,104.227h 13.1675" fill="none" stroke="black"/>
<path d="M527.397,97.7109h 6.58375" fill="none" stroke="black"/>
<path d="M527.397,91.1949h 6.58375" fill="none" stroke="black"/>
<path d="M527.397,84.6789h 6.58375" fill="none" stroke="black"/>
<path d="M527.397,78.1629h 6.58375" fill="none" stroke="black"/>
<path d="M520.813,71.6469h 13.1675" fill="none" stroke="black"/>
<path d="M527.397,65.131h 6.58375" fill="none" stroke="black"/>
<path d="M527.397,58.615h 6.58375" fill="none" stroke="black"/>
<path d="M527.397,52.099h 6.58375" fill="none" stroke="black"/>
<path d="M527.397,45.583h 6.58375" fill="none" stroke="black"/>
<path d="M520.813,39.067h 13.1675" fill="none" stroke="black"/>
<path d="M520.813,299.707h 13.1675" fill="none" stroke="black"/>
<path d="M520.813,39.067h 13.1675" fill="none" stroke="black"/>
<path d="M527.397,32.551h 6.58375" fill="none" stroke="black"/>
<path d="M527.397,26.035h 6.58375" fill="none" stroke="black"/>
<path d="M105.751,24.9677l 0.285581, 5.96531" fill="none" stroke="#00ff00"/>
<path d="M106.037,30.933l 4.38917, 49.2755l 4.38917, 32.0699l 4.38917, 23.0871l 4.38917, 17.6969l 4.38917, 14.16l 4.38917, 11.6896l 4.38917, 9.8823l 4.38917, 8.51205l 4.38917, 7.44325l 4.38917, 6.59006l 4.38917, 5.89576l 4.38917, 5.32153l 4.38917,
 4.83997l 4.38917, 4.43124l 4.38917, 4.08067l 4.38917, 3.77719l 4.38917, 3.51231l 4.38917, 3.2794l 4.38917, 3.07327l 4.38917, 2.88973l 4.38917, 2.72542l 4.38917, 2.5776l 4.38917, 2.44401l 4.38917, 2.32277l 4.38917, 2.21232l 4.38917, 2.11133l 4.38917,
 2.01869l 4.38917, 1.93346l 4.38917, 1.8548l 4.38917, 1.78203l 4.38917, 1.71452l 4.38917, 1.65175l 4.38917, 1.59326l 4.38917, 1.53864l 4.38917, 1.48754l 4.38917, 1.43963l 4.38917, 1.39465l 4.38917, 1.35233l 4.38917, 1.31246l 4.38917, 1.27484l
 4.38917, 1.23929l 4.38917, 1.20565l 4.38917, 1.17378l 4.38917, 1.14354l 4.38917, 1.11482l 4.38917, 1.08751l 4.38917, 1.06151l 4.38917, 1.03674" fill="none" stroke="#00ff00"/>
<path d="M316.717,298.246l 4.38917, 1.0131l 4.38917, 0.990532l 4.38917, 0.968962l 4.38917, 0.948328l 4.38917, 0.928572l 1.6212, 0.335989" fill="none" stroke="#00ff00"/>
<path d="M288.76,303.431l 1.6212, -0.335989" fill="none" stroke="#0000ff"/>
<path d="M290.382,303.095l 4.38917, -0.928572l 4.38917, -0.948328l 4.38917, -0.968962l 4.38917, -0.990532l 4.38917, -1.0131l 4.38917, -1.03674l 4.38917, -1.06151l 4.38917, -1.08751l 4.38917, -1.11482l 4.38917, -1.14354l 4.38917, -1.17378l 4.38917,
 -1.20565l 4.38917, -1.23929l 4.38917, -1.27484l 4.38917, -1.31246l 4.38917, -1.35233l 4.38917, -1.39465l 4.38917, -1.43963l 4.38917, -1.48754l 4.38917, -1.53864l 4.38917, -1.59326l 4.38917, -1.65175l 4.38917, -1.71452l 4.38917, -1.78203l 4.38917,
 -1.8548l 4.38917, -1.93346l 4.38917, -2.01869l 4.38917, -2.11133l 4.38917, -2.21232l 4.38917, -2.32277l 4.38917, -2.44401l 4.38917, -2.5776l 4.38917, -2.72542l 4.38917, -2.88973l 4.38917, -3.07327l 4.38917, -3.2794l 4.38917, -3.51231l 4.38917,
 -3.77719l 4.38917, -4.08067l 4.38917, -4.43124l 4.38917, -4.83997l 4.38917, -5.32153l 4.38917, -5.89576l 4.38917, -6.59006l 4.38917, -7.44325l 4.38917, -8.51205l 4.38917, -9.8823l 4.38917, -11.6896" fill="none" stroke="#0000ff"/>
<path d="M501.062,167.222l 4.38917, -14.16l 4.38917, -17.6969l 4.38917, -23.0871l 4.38917, -32.0699l 4.38917, -49.2755l 0.285581, -5.96531" fill="none" stroke="#0000ff"/>
<path d="M130.298,303.431l 2.07351, -1.55144" fill="none" stroke="#ff00ff"/>
<path d="M132.372,301.88l 4.38917, -3.20587l 4.38917, -3.12768l 4.38917, -3.04948l 4.38917, -2.97129l 4.38917, -2.8931l 4.38917, -2.81491l 4.38917, -2.73672l 4.38917, -2.65852l 4.38917, -2.58033l 4.38917, -2.50214l 4.38917, -2.42395l 4.38917,
 -2.34576l 4.38917, -2.26756l 4.38917, -2.18937l 4.38917, -2.11118l 4.38917, -2.03299l 4.38917, -1.9548l 4.38917, -1.87661l 4.38917, -1.79841l 4.38917, -1.72022l 4.38917, -1.64203l 4.38917, -1.56384l 4.38917, -1.48565l 4.38917, -1.40745l 4.38917,
 -1.32926l 4.38917, -1.25107l 4.38917, -1.17288l 4.38917, -1.09469l 4.38917, -1.01649l 4.38917, -0.938303l 4.38917, -0.860111l 4.38917, -0.781919l 4.38917, -0.703727l 4.38917, -0.625535l 4.38917, -0.547343l 4.38917, -0.469151l 4.38917, -0.390959l
 4.38917, -0.312768l 4.38917, -0.234576l 4.38917, -0.156384l 4.38917, -0.0781919h 4.38917l 4.38917, 0.0781919l 4.38917, 0.156384l 4.38917, 0.234576l 4.38917, 0.312768l 4.38917, 0.390959l 4.38917, 0.469151" fill="none" stroke="#ff00ff"/>
<path d="M343.052,236.199l 4.38917, 0.547343l 4.38917, 0.625535l 4.38917, 0.703727l 4.38917, 0.781919l 4.38917, 0.860111l 4.38917, 0.938303l 4.38917, 1.01649l 4.38917, 1.09469l 4.38917, 1.17288l 4.38917, 1.25107l 4.38917, 1.32926l 4.38917, 1.40745l
 4.38917, 1.48565l 4.38917, 1.56384l 4.38917, 1.64203l 4.38917, 1.72022l 4.38917, 1.79841l 4.38917, 1.87661l 4.38917, 1.9548l 4.38917, 2.03299l 4.38917, 2.11118l 4.38917, 2.18937l 4.38917, 2.26756l 4.38917, 2.34576l 4.38917, 2.42395l 4.38917,
 2.50214l 4.38917, 2.58033l 4.38917, 2.65852l 4.38917, 2.73672l 4.38917, 2.81491l 4.38917, 2.8931l 4.38917, 2.97129l 4.38917, 3.04948l 4.38917, 3.12768l 4.38917, 3.20587l 2.07351, 1.55144" fill="none" stroke="#ff00ff"/>
<rect x="283.965" y="42.592" width="166.677" height="70.4971" fill="white"/>
<path d="M289.672,113.089v 3.80489h 164.775v -68.5946h -3.80489v 64.7897z" fill="black"/>
<path d="M283.965,113.089v -70.4971h 166.677v 70.4971h -166.677z" fill="none" stroke="black"/>
<text xml:space="preserve" x="325.818" y="55.171" fill="black" font-size="14.4629" font-family="Helvetica" font-weight="bold">p=0.5  q=0.5
</text>
<path d="M290.215,51.4041h 29.1685" fill="none" stroke="#ff0000"/>
<text xml:space="preserve" x="325.818" y="73.2442" fill="black" font-size="14.4629" font-family="Helvetica" font-weight="bold">p=0.5  q=2
</text>
<path d="M290.215,69.0284h 29.1685" fill="none" stroke="#00ff00"/>
<text xml:space="preserve" x="325.818" y="90.3662" fill="black" font-size="14.4629" font-family="Helvetica" font-weight="bold">p=2    q=0.5
</text>
<path d="M290.215,86.6526h 29.1685" fill="none" stroke="#0000ff"/>
<text xml:space="preserve" x="325.818" y="108.439" fill="black" font-size="14.4629" font-family="Helvetica" font-weight="bold">p=2    q=2
</text>
<path d="M290.215,104.277h 29.1685" fill="none" stroke="#ff00ff"/>
<rect x="6.16929" y="374.516" width="555.591" height="352.485" fill="white"/>
<rect x="95.0638" y="392.14" width="438.917" height="278.463" fill="white"/>
<rect x="95.0638" y="392.14" width="438.917" height="278.463" fill="none" stroke="black"/>
<path d="M95.0638,670.603h 438.917" fill="none" stroke="black"/>
<path d="M95.0638,392.14v 278.463" fill="none" stroke="black" stroke-dasharray=" 1, 2"/>
<path d="M138.955,392.14v 278.463" fill="none" stroke="black" stroke-dasharray=" 1, 2"/>
<path d="M182.847,392.14v 278.463" fill="none" stroke="black" stroke-dasharray=" 1, 2"/>
<path d="M226.739,392.14v 278.463" fill="none" stroke="black" stroke-dasharray=" 1, 2"/>
<path d="M270.63,392.14v 278.463" fill="none" stroke="black" stroke-dasharray=" 1, 2"/>
<path d="M314.522,392.14v 278.463" fill="none" stroke="black" stroke-dasharray=" 1, 2"/>
<path d="M358.414,392.14v 278.463" fill="none" stroke="black" stroke-dasharray=" 1, 2"/>
<path d="M402.305,392.14v 278.463" fill="none" stroke="black" stroke-dasharray=" 1, 2"/>
<path d="M446.197,392.14v 278.463" fill="none" stroke="black" stroke-dasharray=" 1, 2"/>
<path d="M490.089,392.14v 278.463" fill="none" stroke="black" stroke-dasharray=" 1, 2"/>
<path d="M533.98,392.14v 278.463" fill="none" stroke="black" stroke-dasharray=" 1, 2"/>
<path d="M95.0638,392.14h 438.917" fill="none" stroke="black"/>
<path d="M95.0638,670.603v -278.463" fill="none" stroke="black"/>
<path d="M533.98,670.603h -438.917" fill="none" stroke="black" stroke-dasharray=" 1, 2"/>
<path d="M533.98,615.06h -438.917" fill="none" stroke="black" stroke-dasharray=" 1, 2"/>
<path d="M533.98,559.517h -438.917" fill="none" stroke="black" stroke-dasharray=" 1, 2"/>
<path d="M533.98,503.974h -438.917" fill="none" stroke="black" stroke-dasharray=" 1, 2"/>
<path d="M533.98,448.431h -438.917" fill="none" stroke="black" stroke-dasharray=" 1, 2"/>
<path d="M533.98,392.888h -438.917" fill="none" stroke="black" stroke-dasharray=" 1, 2"/>
<path d="M533.98,392.888h -438.917" fill="none" stroke="black" stroke-dasharray=" 1, 2"/>
<path d="M533.98,670.603v -278.463" fill="none" stroke="black"/>
<path d="M97.2584,658.091l 4.38917, -9.19585l 4.38917, -6.36432l 4.38917, -5.19993l 4.38917, -4.51976l 4.38917, -4.06098l 4.38917, -3.72541l 4.38917, -3.46677l 4.38917, -3.25996l 4.38917, -3.09006l 4.38917, -2.94752l 4.38917, -2.82594l 4.38917,
 -2.72086l 4.38917, -2.62901l 4.38917, -2.548l 4.38917, -2.476l 4.38917, -2.41156l 4.38917, -2.35358l 4.38917, -2.30115l 4.38917, -2.25354l 4.38917, -2.21014l 4.38917, -2.17047l 4.38917, -2.13411l 4.38917, -2.1007l 4.38917, -2.06994l 4.38917,
 -2.04159l 4.38917, -2.01542l 4.38917, -1.99124l 4.38917, -1.96888l 4.38917, -1.94821l 4.38917, -1.9291l 4.38917, -1.91142l 4.38917, -1.8951l 4.38917, -1.88004l 4.38917, -1.86616l 4.38917, -1.8534l 4.38917, -1.8417l 4.38917, -1.831l 4.38917,
 -1.82126l 4.38917, -1.81243l 4.38917, -1.80448l 4.38917, -1.79738l 4.38917, -1.7911l 4.38917, -1.78561l 4.38917, -1.78089l 4.38917, -1.77693l 4.38917, -1.77371l 4.38917, -1.77121l 4.38917, -1.76944l 4.38917, -1.76837" fill="none" stroke="#ff0000"/>
<path d="M312.327,532.63l 4.38917, -1.76802l 4.38917, -1.76837l 4.38917, -1.76944l 4.38917, -1.77121l 4.38917, -1.77371l 4.38917, -1.77693l 4.38917, -1.78089l 4.38917, -1.78561l 4.38917, -1.7911l 4.38917, -1.79738l 4.38917, -1.80448l 4.38917,
 -1.81243l 4.38917, -1.82126l 4.38917, -1.831l 4.38917, -1.8417l 4.38917, -1.8534l 4.38917, -1.86616l 4.38917, -1.88004l 4.38917, -1.8951l 4.38917, -1.91142l 4.38917, -1.9291l 4.38917, -1.94821l 4.38917, -1.96888l 4.38917, -1.99124l 4.38917,
 -2.01542l 4.38917, -2.04159l 4.38917, -2.06994l 4.38917, -2.1007l 4.38917, -2.13411l 4.38917, -2.17047l 4.38917, -2.21014l 4.38917, -2.25354l 4.38917, -2.30115l 4.38917, -2.35358l 4.38917, -2.41156l 4.38917, -2.476l 4.38917, -2.548l 4.38917,
 -2.62901l 4.38917, -2.72086l 4.38917, -2.82594l 4.38917, -2.94752l 4.38917, -3.09006l 4.38917, -3.25996l 4.38917, -3.46677l 4.38917, -3.72541l 4.38917, -4.06098l 4.38917, -4.51976l 4.38917, -5.19993l 4.38917, -6.36432" fill="none" stroke="#ff0000"/>
<path d="M527.397,414.596l 4.38917, -9.19585" fill="none" stroke="#ff0000"/>
<path d="M95.0638,670.603h 438.917" fill="none" stroke="black"/>
<path d="M95.0638,662.249v 8.3539" fill="none" stroke="black"/>
<path d="M103.842,666.426v 4.17695" fill="none" stroke="black"/>
<path d="M112.62,666.426v 4.17695" fill="none" stroke="black"/>
<path d="M121.399,666.426v 4.17695" fill="none" stroke="black"/>
<path d="M130.177,666.426v 4.17695" fill="none" stroke="black"/>
<path d="M138.955,662.249v 8.3539" fill="none" stroke="black"/>
<path d="M147.734,666.426v 4.17695" fill="none" stroke="black"/>
<path d="M156.512,666.426v 4.17695" fill="none" stroke="black"/>
<path d="M165.29,666.426v 4.17695" fill="none" stroke="black"/>
<path d="M174.069,666.426v 4.17695" fill="none" stroke="black"/>
<path d="M182.847,662.249v 8.3539" fill="none" stroke="black"/>
<path d="M191.625,666.426v 4.17695" fill="none" stroke="black"/>
<path d="M200.404,666.426v 4.17695" fill="none" stroke="black"/>
<path d="M209.182,666.426v 4.17695" fill="none" stroke="black"/>
<path d="M217.96,666.426v 4.17695" fill="none" stroke="black"/>
<path d="M226.739,662.249v 8.3539" fill="none" stroke="black"/>
<path d="M235.517,666.426v 4.17695" fill="none" stroke="black"/>
<path d="M244.295,666.426v 4.17695" fill="none" stroke="black"/>
<path d="M253.074,666.426v 4.17695" fill="none" stroke="black"/>
<path d="M261.852,666.426v 4.17695" fill="none" stroke="black"/>
<path d="M270.63,662.249v 8.3539" fill="none" stroke="black"/>
<path d="M279.409,666.426v 4.17695" fill="none" stroke="black"/>
<path d="M288.187,666.426v 4.17695" fill="none" stroke="black"/>
<path d="M296.965,666.426v 4.17695" fill="none" stroke="black"/>
<path d="M305.744,666.426v 4.17695" fill="none" stroke="black"/>
<path d="M314.522,662.249v 8.3539" fill="none" stroke="black"/>
<path d="M323.3,666.426v 4.17695" fill="none" stroke="black"/>
<path d="M332.079,666.426v 4.17695" fill="none" stroke="black"/>
<path d="M340.857,666.426v 4.17695" fill="none" stroke="black"/>
<path d="M349.635,666.426v 4.17695" fill="none" stroke="black"/>
<path d="M358.414,662.249v 8.3539" fill="none" stroke="black"/>
<path d="M367.192,666.426v 4.17695" fill="none" stroke="black"/>
<path d="M375.97,666.426v 4.17695" fill="none" stroke="black"/>
<path d="M384.749,666.426v 4.17695" fill="none" stroke="black"/>
<path d="M393.527,666.426v 4.17695" fill="none" stroke="black"/>
<path d="M402.305,662.249v 8.3539" fill="none" stroke="black"/>
<path d="M411.084,666.426v 4.17695" fill="none" stroke="black"/>
<path d="M419.862,666.426v 4.17695" fill="none" stroke="black"/>
<path d="M428.64,666.426v 4.17695" fill="none" stroke="black"/>
<path d="M437.419,666.426v 4.17695" fill="none" stroke="black"/>
<path d="M446.197,662.249v 8.3539" fill="none" stroke="black"/>
<path d="M454.975,666.426v 4.17695" fill="none" stroke="black"/>
<path d="M463.754,666.426v 4.17695" fill="none" stroke="black"/>
<path d="M472.532,666.426v 4.17695" fill="none" stroke="black"/>
<path d="M481.31,666.426v 4.17695" fill="none" stroke="black"/>
<path d="M490.089,662.249v 8.3539" fill="none" stroke="black"/>
<path d="M498.867,666.426v 4.17695" fill="none" stroke="black"/>
<path d="M507.645,666.426v 4.17695" fill="none" stroke="black"/>
<path d="M516.424,666.426v 4.17695" fill="none" stroke="black"/>
<path d="M525.202,666.426v 4.17695" fill="none" stroke="black"/>
<path d="M533.98,662.249v 8.3539" fill="none" stroke="black"/>
<text xml:space="preserve" x="89.915" y="686.783" fill="black" font-size="16.6691" font-family="Helvetica">0
</text>
<text xml:space="preserve" x="128.915" y="686.783" fill="black" font-size="16.6691" font-family="Helvetica">0.1
</text>
<text xml:space="preserve" x="171.72" y="686.783" fill="black" font-size="16.6691" font-family="Helvetica">0.2
</text>
<text xml:space="preserve" x="215.476" y="686.783" fill="black" font-size="16.6691" font-family="Helvetica">0.3
</text>
<text xml:space="preserve" x="259.233" y="686.783" fill="black" font-size="16.6691" font-family="Helvetica">0.4
</text>
<text xml:space="preserve" x="302.989" y="686.783" fill="black" font-size="16.6691" font-family="Helvetica">0.5
</text>
<text xml:space="preserve" x="346.745" y="686.783" fill="black" font-size="16.6691" font-family="Helvetica">0.6
</text>
<text xml:space="preserve" x="390.502" y="686.783" fill="black" font-size="16.6691" font-family="Helvetica">0.7
</text>
<text xml:space="preserve" x="435.209" y="686.783" fill="black" font-size="16.6691" font-family="Helvetica">0.8
</text>
<text xml:space="preserve" x="478.965" y="686.783" fill="black" font-size="16.6691" font-family="Helvetica">0.9
</text>
<text xml:space="preserve" x="531.283" y="686.783" fill="black" font-size="16.6691" font-family="Helvetica">1
</text>
<path d="M95.0638,392.14h 438.917" fill="none" stroke="black"/>
<path d="M95.0638,400.494v -8.3539" fill="none" stroke="black"/>
<path d="M103.842,396.317v -4.17695" fill="none" stroke="black"/>
<path d="M112.62,396.317v -4.17695" fill="none" stroke="black"/>
<path d="M121.399,396.317v -4.17695" fill="none" stroke="black"/>
<path d="M130.177,396.317v -4.17695" fill="none" stroke="black"/>
<path d="M138.955,400.494v -8.3539" fill="none" stroke="black"/>
<path d="M147.734,396.317v -4.17695" fill="none" stroke="black"/>
<path d="M156.512,396.317v -4.17695" fill="none" stroke="black"/>
<path d="M165.29,396.317v -4.17695" fill="none" stroke="black"/>
<path d="M174.069,396.317v -4.17695" fill="none" stroke="black"/>
<path d="M182.847,400.494v -8.3539" fill="none" stroke="black"/>
<path d="M191.625,396.317v -4.17695" fill="none" stroke="black"/>
<path d="M200.404,396.317v -4.17695" fill="none" stroke="black"/>
<path d="M209.182,396.317v -4.17695" fill="none" stroke="black"/>
<path d="M217.96,396.317v -4.17695" fill="none" stroke="black"/>
<path d="M226.739,400.494v -8.3539" fill="none" stroke="black"/>
<path d="M235.517,396.317v -4.17695" fill="none" stroke="black"/>
<path d="M244.295,396.317v -4.17695" fill="none" stroke="black"/>
<path d="M253.074,396.317v -4.17695" fill="none" stroke="black"/>
<path d="M261.852,396.317v -4.17695" fill="none" stroke="black"/>
<path d="M270.63,400.494v -8.3539" fill="none" stroke="black"/>
<path d="M279.409,396.317v -4.17695" fill="none" stroke="black"/>
<path d="M288.187,396.317v -4.17695" fill="none" stroke="black"/>
<path d="M296.965,396.317v -4.17695" fill="none" stroke="black"/>
<path d="M305.744,396.317v -4.17695" fill="none" stroke="black"/>
<path d="M314.522,400.494v -8.3539" fill="none" stroke="black"/>
<path d="M323.3,396.317v -4.17695" fill="none" stroke="black"/>
<path d="M332.079,396.317v -4.17695" fill="none" stroke="black"/>
<path d="M340.857,396.317v -4.17695" fill="none" stroke="black"/>
<path d="M349.635,396.317v -4.17695" fill="none" stroke="black"/>
<path d="M358.414,400.494v -8.3539" fill="none" stroke="black"/>
<path d="M367.192,396.317v -4.17695" fill="none" stroke="black"/>
<path d="M375.97,396.317v -4.17695" fill="none" stroke="black"/>
<path d="M384.749,396.317v -4.17695" fill="none" stroke="black"/>
<path d="M393.527,396.317v -4.17695" fill="none" stroke="black"/>
<path d="M402.305,400.494v -8.3539" fill="none" stroke="black"/>
<path d="M411.084,396.317v -4.17695" fill="none" stroke="black"/>
<path d="M419.862,396.317v -4.17695" fill="none" stroke="black"/>
<path d="M428.64,396.317v -4.17695" fill="none" stroke="black"/>
<path d="M437.419,396.317v -4.17695" fill="none" stroke="black"/>
<path d="M446.197,400.494v -8.3539" fill="none" stroke="black"/>
<path d="M454.975,396.317v -4.17695" fill="none" stroke="black"/>
<path d="M463.754,396.317v -4.17695" fill="none" stroke="black"/>
<path d="M472.532,396.317v -4.17695" fill="none" stroke="black"/>
<path d="M481.31,396.317v -4.17695" fill="none" stroke="black"/>
<path d="M490.089,400.494v -8.3539" fill="none" stroke="black"/>
<path d="M498.867,396.317v -4.17695" fill="none" stroke="black"/>
<path d="M507.645,396.317v -4.17695" fill="none" stroke="black"/>
<path d="M516.424,396.317v -4.17695" fill="none" stroke="black"/>
<path d="M525.202,396.317v -4.17695" fill="none" stroke="black"/>
<path d="M533.98,400.494v -8.3539" fill="none" stroke="black"/>
<path d="M95.0638,670.603v -278.463" fill="none" stroke="black"/>
<path d="M108.231,670.603h -13.1675" fill="none" stroke="black"/>
<path d="M101.648,656.718h -6.58375" fill="none" stroke="black"/>
<path d="M101.648,642.832h -6.58375" fill="none" stroke="black"/>
<path d="M101.648,628.946h -6.58375" fill="none" stroke="black"/>
<path d="M108.231,615.06h -13.1675" fill="none" stroke="black"/>
<path d="M101.648,601.175h -6.58375" fill="none" stroke="black"/>
<path d="M101.648,587.289h -6.58375" fill="none" stroke="black"/>
<path d="M101.648,573.403h -6.58375" fill="none" stroke="black"/>
<path d="M108.231,559.517h -13.1675" fill="none" stroke="black"/>
<path d="M101.648,545.631h -6.58375" fill="none" stroke="black"/>
<path d="M101.648,531.746h -6.58375" fill="none" stroke="black"/>
<path d="M101.648,517.86h -6.58375" fill="none" stroke="black"/>
<path d="M108.231,503.974h -13.1675" fill="none" stroke="black"/>
<path d="M101.648,490.088h -6.58375" fill="none" stroke="black"/>
<path d="M101.648,476.203h -6.58375" fill="none" stroke="black"/>
<path d="M101.648,462.317h -6.58375" fill="none" stroke="black"/>
<path d="M108.231,448.431h -13.1675" fill="none" stroke="black"/>
<path d="M101.648,434.545h -6.58375" fill="none" stroke="black"/>
<path d="M101.648,420.66h -6.58375" fill="none" stroke="black"/>
<path d="M101.648,406.774h -6.58375" fill="none" stroke="black"/>
<path d="M108.231,392.888h -13.1675" fill="none" stroke="black"/>
<path d="M108.231,392.888h -13.1675" fill="none" stroke="black"/>
<text xml:space="preserve" x="83.2564" y="677.271" fill="black" font-size="16.6691" font-family="Helvetica">0
</text>
<text xml:space="preserve" x="69.9393" y="622.1" fill="black" font-size="16.6691" font-family="Helvetica">0.2
</text>
<text xml:space="preserve" x="68.9881" y="565.978" fill="black" font-size="16.6691" font-family="Helvetica">0.4
</text>
<text xml:space="preserve" x="69.9393" y="510.807" fill="black" font-size="16.6691" font-family="Helvetica">0.6
</text>
<text xml:space="preserve" x="69.9393" y="454.685" fill="black" font-size="16.6691" font-family="Helvetica">0.8
</text>
<text xml:space="preserve" x="86.1101" y="399.514" fill="black" font-size="16.6691" font-family="Helvetica">1
</text>
<path d="M533.98,670.603v -278.463" fill="none" stroke="black"/>
<path d="M520.813,670.603h 13.1675" fill="none" stroke="black"/>
<path d="M527.397,656.718h 6.58375" fill="none" stroke="black"/>
<path d="M527.397,642.832h 6.58375" fill="none" stroke="black"/>
<path d="M527.397,628.946h 6.58375" fill="none" stroke="black"/>
<path d="M520.813,615.06h 13.1675" fill="none" stroke="black"/>
<path d="M527.397,601.175h 6.58375" fill="none" stroke="black"/>
<path d="M527.397,587.289h 6.58375" fill="none" stroke="black"/>
<path d="M527.397,573.403h 6.58375" fill="none" stroke="black"/>
<path d="M520.813,559.517h 13.1675" fill="none" stroke="black"/>
<path d="M527.397,545.631h 6.58375" fill="none" stroke="black"/>
<path d="M527.397,531.746h 6.58375" fill="none" stroke="black"/>
<path d="M527.397,517.86h 6.58375" fill="none" stroke="black"/>
<path d="M520.813,503.974h 13.1675" fill="none" stroke="black"/>
<path d="M527.397,490.088h 6.58375" fill="none" stroke="black"/>
<path d="M527.397,476.203h 6.58375" fill="none" stroke="black"/>
<path d="M527.397,462.317h 6.58375" fill="none" stroke="black"/>
<path d="M520.813,448.431h 13.1675" fill="none" stroke="black"/>
<path d="M527.397,434.545h 6.58375" fill="none" stroke="black"/>
<path d="M527.397,420.66h 6.58375" fill="none" stroke="black"/>
<path d="M527.397,406.774h 6.58375" fill="none" stroke="black"/>
<path d="M520.813,392.888h 13.1675" fill="none" stroke="black"/>
<path d="M520.813,392.888h 13.1675" fill="none" stroke="black"/>
<path d="M97.2584,641.196l 4.38917, -21.3574l 4.38917, -14.5526l 4.38917, -11.7074l 4.38917, -10.0185l 4.38917, -8.861l 4.38917, -8.00062l 4.38917, -7.32656l 4.38917, -6.77861l 4.38917, -6.32079l 4.38917, -5.93007l 4.38917, -5.59095l 4.38917,
 -5.29254l 4.38917, -5.02695l 4.38917, -4.78828l 4.38917, -4.57203l 4.38917, -4.37469l 4.38917, -4.19348l 4.38917, -4.02618l 4.38917, -3.87096l 4.38917, -3.72633l 4.38917, -3.59104l 4.38917, -3.46404l 4.38917, -3.34444l 4.38917, -3.23149l 4.38917,
 -3.12452l 4.38917, -3.02298l 4.38917, -2.92637l 4.38917, -2.83427l 4.38917, -2.74628l 4.38917, -2.66209l 4.38917, -2.58138l 4.38917, -2.5039l 4.38917, -2.4294l 4.38917, -2.35768l 4.38917, -2.28854l 4.38917, -2.22182l 4.38917, -2.15734l 4.38917,
 -2.09497l 4.38917, -2.03458l 4.38917, -1.97605l 4.38917, -1.91927l 4.38917, -1.86414l 4.38917, -1.81057l 4.38917, -1.75848l 4.38917, -1.70778l 4.38917, -1.6584l 4.38917, -1.61028l 4.38917, -1.56335l 4.38917, -1.51756" fill="none" stroke="#00ff00"/>
<path d="M312.327,425.877l 4.38917, -1.47285l 4.38917, -1.42917l 4.38917, -1.38648l 4.38917, -1.34472l 4.38917, -1.30387l 4.38917, -1.26387l 4.38917, -1.2247l 4.38917, -1.18632l 4.38917, -1.1487l 4.38917, -1.11181l 4.38917, -1.07561l 4.38917,
 -1.04009l 4.38917, -1.00522l 4.38917, -0.970965l 4.38917, -0.937313l 4.38917, -0.90424l 4.38917, -0.871724l 4.38917, -0.839748l 4.38917, -0.808291l 4.38917, -0.777337l 4.38917, -0.746869l 4.38917, -0.716872l 4.38917, -0.687329l 4.38917, -0.658226l
 4.38917, -0.62955l 4.38917, -0.601288l 4.38917, -0.573426l 4.38917, -0.545954l 4.38917, -0.518859l 4.38917, -0.49213l 4.38917, -0.465757l 4.38917, -0.43973l 4.38917, -0.414039l 4.38917, -0.388674l 4.38917, -0.363628l 4.38917, -0.33889l 4.38917,
 -0.314454l 4.38917, -0.29031l 4.38917, -0.266453l 4.38917, -0.242873l 4.38917, -0.219564l 4.38917, -0.19652l 4.38917, -0.173733l 4.38917, -0.151198l 4.38917, -0.128909l 4.38917, -0.106858l 4.38917, -0.0850421l 4.38917, -0.0634542l 4.38917,
 -0.0420893" fill="none" stroke="#00ff00"/>
<path d="M527.397,392.912l 4.38917, -0.0209425" fill="none" stroke="#00ff00"/>
<path d="M97.2584,670.603h 4.38917l 4.38917, -0.0656397l 4.38917, -0.0634542l 4.38917, -0.0850421l 4.38917, -0.106858l 4.38917, -0.128909l 4.38917, -0.151198l 4.38917, -0.173733l 4.38917, -0.19652l 4.38917, -0.219564l 4.38917, -0.242873l 4.38917,
 -0.266453l 4.38917, -0.29031l 4.38917, -0.314454l 4.38917, -0.33889l 4.38917, -0.363628l 4.38917, -0.388674l 4.38917, -0.414039l 4.38917, -0.43973l 4.38917, -0.465757l 4.38917, -0.49213l 4.38917, -0.518859l 4.38917, -0.545954l 4.38917, -0.573426l
 4.38917, -0.601288l 4.38917, -0.62955l 4.38917, -0.658226l 4.38917, -0.687329l 4.38917, -0.716872l 4.38917, -0.746869l 4.38917, -0.777337l 4.38917, -0.808291l 4.38917, -0.839748l 4.38917, -0.871724l 4.38917, -0.90424l 4.38917, -0.937313l 4.38917,
 -0.970965l 4.38917, -1.00522l 4.38917, -1.04009l 4.38917, -1.07561l 4.38917, -1.11181l 4.38917, -1.1487l 4.38917, -1.18632l 4.38917, -1.2247l 4.38917, -1.26387l 4.38917, -1.30387l 4.38917, -1.34472l 4.38917, -1.38648l 4.38917, -1.42917" fill="none"
 stroke="#0000ff"/>
<path d="M312.327,639.087l 4.38917, -1.47285l 4.38917, -1.51756l 4.38917, -1.56335l 4.38917, -1.61028l 4.38917, -1.6584l 4.38917, -1.70778l 4.38917, -1.75848l 4.38917, -1.81057l 4.38917, -1.86414l 4.38917, -1.91927l 4.38917, -1.97605l 4.38917,
 -2.03458l 4.38917, -2.09497l 4.38917, -2.15734l 4.38917, -2.22182l 4.38917, -2.28854l 4.38917, -2.35768l 4.38917, -2.4294l 4.38917, -2.5039l 4.38917, -2.58138l 4.38917, -2.66209l 4.38917, -2.74628l 4.38917, -2.83427l 4.38917, -2.92637l 4.38917,
 -3.02298l 4.38917, -3.12452l 4.38917, -3.23149l 4.38917, -3.34444l 4.38917, -3.46404l 4.38917, -3.59104l 4.38917, -3.72633l 4.38917, -3.87096l 4.38917, -4.02618l 4.38917, -4.19348l 4.38917, -4.37469l 4.38917, -4.57203l 4.38917, -4.78828l 4.38917,
 -5.02695l 4.38917, -5.29254l 4.38917, -5.59095l 4.38917, -5.93007l 4.38917, -6.32079l 4.38917, -6.77861l 4.38917, -7.32656l 4.38917, -8.00062l 4.38917, -8.861l 4.38917, -10.0185l 4.38917, -11.7074l 4.38917, -14.5526" fill="none" stroke="#0000ff"/>
<path d="M527.397,443.653l 4.38917, -21.3574" fill="none" stroke="#0000ff"/>
<path d="M97.2584,670.603l 4.38917, -0.185583l 4.38917, -0.326454l 4.38917, -0.484752l 4.38917, -0.639717l 4.38917, -0.79135l 4.38917, -0.93965l 4.38917, -1.08462l 4.38917, -1.22625l 4.38917, -1.36455l 4.38917, -1.49952l 4.38917, -1.63116l 4.38917,
 -1.75947l 4.38917, -1.88444l 4.38917, -2.00608l 4.38917, -2.12438l 4.38917, -2.23936l 4.38917, -2.351l 4.38917, -2.45931l 4.38917, -2.56428l 4.38917, -2.66593l 4.38917, -2.76424l 4.38917, -2.85922l 4.38917, -2.95086l 4.38917, -3.03918l 4.38917,
 -3.12416l 4.38917, -3.20581l 4.38917, -3.28412l 4.38917, -3.35911l 4.38917, -3.43076l 4.38917, -3.49907l 4.38917, -3.56406l 4.38917, -3.62571l 4.38917, -3.68403l 4.38917, -3.73902l 4.38917, -3.79067l 4.38917, -3.839l 4.38917, -3.88399l 4.38917,
 -3.92564l 4.38917, -3.96397l 4.38917, -3.99896l 4.38917, -4.03062l 4.38917, -4.05895l 4.38917, -4.08394l 4.38917, -4.1056l 4.38917, -4.12393l 4.38917, -4.13893l 4.38917, -4.15059l 4.38917, -4.15893l 4.38917, -4.16392" fill="none" stroke="#ff00ff"/>
<path d="M312.327,533.828l 4.38917, -4.16559l 4.38917, -4.16392l 4.38917, -4.15893l 4.38917, -4.15059l 4.38917, -4.13893l 4.38917, -4.12393l 4.38917, -4.1056l 4.38917, -4.08394l 4.38917, -4.05895l 4.38917, -4.03062l 4.38917, -3.99896l 4.38917,
 -3.96397l 4.38917, -3.92564l 4.38917, -3.88399l 4.38917, -3.839l 4.38917, -3.79067l 4.38917, -3.73902l 4.38917, -3.68403l 4.38917, -3.62571l 4.38917, -3.56406l 4.38917, -3.49907l 4.38917, -3.43076l 4.38917, -3.35911l 4.38917, -3.28412l 4.38917,
 -3.20581l 4.38917, -3.12416l 4.38917, -3.03918l 4.38917, -2.95086l 4.38917, -2.85922l 4.38917, -2.76424l 4.38917, -2.66593l 4.38917, -2.56428l 4.38917, -2.45931l 4.38917, -2.351l 4.38917, -2.23936l 4.38917, -2.12438l 4.38917, -2.00608l 4.38917,
 -1.88444l 4.38917, -1.75947l 4.38917, -1.63116l 4.38917, -1.49952l 4.38917, -1.36455l 4.38917, -1.22625l 4.38917, -1.08462l 4.38917, -0.93965l 4.38917, -0.79135l 4.38917, -0.639717l 4.38917, -0.484752l 4.38917, -0.326454" fill="none"
 stroke="#ff00ff"/>
<path d="M527.397,393.074l 4.38917, -0.164824" fill="none" stroke="#ff00ff"/>
<rect x="395.083" y="603.631" width="111.118" height="70.4971" fill="white"/>
<path d="M400.79,674.128v 3.80489h 109.216v -68.5946h -3.80489v 64.7897z" fill="black"/>
<path d="M395.083,674.128v -70.4971h 111.118v 70.4971h -111.118z" fill="none" stroke="black"/>
<text xml:space="preserve" x="422.843" y="616.393" fill="black" font-size="13.9431" font-family="Helvetica" font-weight="bold">p=0.5  q=0.5
</text>
<path d="M399.25,612.443h 19.4457" fill="none" stroke="#ff0000"/>
<text xml:space="preserve" x="422.843" y="634.466" fill="black" font-size="13.9431" font-family="Helvetica" font-weight="bold">p=0.5  q=2
</text>
<path d="M399.25,630.068h 19.4457" fill="none" stroke="#00ff00"/>
<text xml:space="preserve" x="422.843" y="651.588" fill="black" font-size="13.9431" font-family="Helvetica" font-weight="bold">p=2    q=0.5
</text>
<path d="M399.25,647.692h 19.4457" fill="none" stroke="#0000ff"/>
<text xml:space="preserve" x="422.843" y="669.661" fill="black" font-size="13.9431" font-family="Helvetica" font-weight="bold">p=2    q=2
</text>
<path d="M399.25,665.316h 19.4457" fill="none" stroke="#ff00ff"/></svg>
