<?xml version="1.0" standalone="no"?>
<svg width="567.429" height="734.844" viewBox="0 0 567.429 734.844" xmlns="http://www.w3.org/2000/svg" shape-rendering="crispEdges">
<title>
./old_svg_ref/normalDist.svg
</title>
<desc>
Creator: ROOT Version 6.33.01
CreationDate: Wed Jul 10 10:06:23 2024</desc>
<defs>
</defs>
<rect x="0.5" y="0" width="566.929" height="734.344" fill="white"/>
<rect x="6.16929" y="7.34344" width="555.591" height="230.095" fill="white"/>
<rect x="95.0638" y="18.8482" width="438.917" height="181.775" fill="white"/>
<rect x="95.0638" y="18.8482" width="438.917" height="181.775" fill="none" stroke="black"/>
<path d="M97.2584,200.623h 26.335l 4.38917, -0.0207331l 4.38917, -0.0108219l 4.38917, -0.0159927l 4.38917, -0.0233851l 4.38917, -0.0338336l 4.38917, -0.0484319l 4.38917, -0.0685922l 4.38917, -0.0961084l 4.38917, -0.133221l 4.38917, -0.18268l 4.38917,
 -0.247796l 4.38917, -0.332474l 4.38917, -0.441223l 4.38917, -0.579119l 4.38917, -0.751718l 4.38917, -0.964907l 4.38917, -1.22468l 4.38917, -1.53683l 4.38917, -1.90653l 4.38917, -2.33792l 4.38917, -2.83348l 4.38917, -3.39351l 4.38917, -4.01552l
 4.38917, -4.69363l 4.38917, -5.41813l 4.38917, -6.17513l 4.38917, -6.94641l 4.38917, -7.70957l 4.38917, -8.43842l 4.38917, -9.10371l 4.38917, -9.67419l 4.38917, -10.118l 4.38917, -10.4042l 4.38917, -10.5046l 4.38917, -10.3955l 4.38917, -10.0595l
 4.38917, -9.487l 4.38917, -8.67736l 4.38917, -7.63964l 4.38917, -6.39278l 4.38917, -4.96522l 4.38917, -3.39387l 4.38917, -1.72256" fill="none" stroke="#0000ff" stroke-width="3"/>
<path d="M312.327,27.5041h 4.38917l 4.38917, 1.72256l 4.38917, 3.39387l 4.38917, 4.96522l 4.38917, 6.39278l 4.38917, 7.63964l 4.38917, 8.67736l 4.38917, 9.487l 4.38917, 10.0595l 4.38917, 10.3955l 4.38917, 10.5046l 4.38917, 10.4042l 4.38917, 10.118l
 4.38917, 9.67419l 4.38917, 9.10371l 4.38917, 8.43842l 4.38917, 7.70957l 4.38917, 6.94641l 4.38917, 6.17513l 4.38917, 5.41813l 4.38917, 4.69363l 4.38917, 4.01552l 4.38917, 3.39351l 4.38917, 2.83348l 4.38917, 2.33792l 4.38917, 1.90653l 4.38917,
 1.53683l 4.38917, 1.22468l 4.38917, 0.964907l 4.38917, 0.751718l 4.38917, 0.579119l 4.38917, 0.441223l 4.38917, 0.332474l 4.38917, 0.247796l 4.38917, 0.18268l 4.38917, 0.133221l 4.38917, 0.0961084l 4.38917, 0.0685922l 4.38917, 0.0484319l 4.38917,
 0.0338336l 4.38917, 0.0233851l 4.38917, 0.0159927l 4.38917, 0.0108219l 4.38917, 0.0207331h 21.9458" fill="none" stroke="#0000ff" stroke-width="3"/>
<path d="M527.397,200.623h 4.38917" fill="none" stroke="#0000ff" stroke-width="3"/>
<path d="M95.0638,200.623h 438.917" fill="none" stroke="black"/>
<path d="M95.0638,195.17v 5.45324" fill="none" stroke="black"/>
<path d="M103.842,197.896v 2.72662" fill="none" stroke="black"/>
<path d="M112.62,197.896v 2.72662" fill="none" stroke="black"/>
<path d="M121.399,197.896v 2.72662" fill="none" stroke="black"/>
<path d="M130.177,197.896v 2.72662" fill="none" stroke="black"/>
<path d="M138.955,195.17v 5.45324" fill="none" stroke="black"/>
<path d="M147.734,197.896v 2.72662" fill="none" stroke="black"/>
<path d="M156.512,197.896v 2.72662" fill="none" stroke="black"/>
<path d="M165.29,197.896v 2.72662" fill="none" stroke="black"/>
<path d="M174.069,197.896v 2.72662" fill="none" stroke="black"/>
<path d="M182.847,195.17v 5.45324" fill="none" stroke="black"/>
<path d="M191.625,197.896v 2.72662" fill="none" stroke="black"/>
<path d="M200.404,197.896v 2.72662" fill="none" stroke="black"/>
<path d="M209.182,197.896v 2.72662" fill="none" stroke="black"/>
<path d="M217.96,197.896v 2.72662" fill="none" stroke="black"/>
<path d="M226.739,195.17v 5.45324" fill="none" stroke="black"/>
<path d="M235.517,197.896v 2.72662" fill="none" stroke="black"/>
<path d="M244.295,197.896v 2.72662" fill="none" stroke="black"/>
<path d="M253.074,197.896v 2.72662" fill="none" stroke="black"/>
<path d="M261.852,197.896v 2.72662" fill="none" stroke="black"/>
<path d="M270.63,195.17v 5.45324" fill="none" stroke="black"/>
<path d="M279.409,197.896v 2.72662" fill="none" stroke="black"/>
<path d="M288.187,197.896v 2.72662" fill="none" stroke="black"/>
<path d="M296.965,197.896v 2.72662" fill="none" stroke="black"/>
<path d="M305.744,197.896v 2.72662" fill="none" stroke="black"/>
<path d="M314.522,195.17v 5.45324" fill="none" stroke="black"/>
<path d="M323.3,197.896v 2.72662" fill="none" stroke="black"/>
<path d="M332.079,197.896v 2.72662" fill="none" stroke="black"/>
<path d="M340.857,197.896v 2.72662" fill="none" stroke="black"/>
<path d="M349.635,197.896v 2.72662" fill="none" stroke="black"/>
<path d="M358.414,195.17v 5.45324" fill="none" stroke="black"/>
<path d="M367.192,197.896v 2.72662" fill="none" stroke="black"/>
<path d="M375.97,197.896v 2.72662" fill="none" stroke="black"/>
<path d="M384.749,197.896v 2.72662" fill="none" stroke="black"/>
<path d="M393.527,197.896v 2.72662" fill="none" stroke="black"/>
<path d="M402.305,195.17v 5.45324" fill="none" stroke="black"/>
<path d="M411.084,197.896v 2.72662" fill="none" stroke="black"/>
<path d="M419.862,197.896v 2.72662" fill="none" stroke="black"/>
<path d="M428.64,197.896v 2.72662" fill="none" stroke="black"/>
<path d="M437.419,197.896v 2.72662" fill="none" stroke="black"/>
<path d="M446.197,195.17v 5.45324" fill="none" stroke="black"/>
<path d="M454.975,197.896v 2.72662" fill="none" stroke="black"/>
<path d="M463.754,197.896v 2.72662" fill="none" stroke="black"/>
<path d="M472.532,197.896v 2.72662" fill="none" stroke="black"/>
<path d="M481.31,197.896v 2.72662" fill="none" stroke="black"/>
<path d="M490.089,195.17v 5.45324" fill="none" stroke="black"/>
<path d="M498.867,197.896v 2.72662" fill="none" stroke="black"/>
<path d="M507.645,197.896v 2.72662" fill="none" stroke="black"/>
<path d="M516.424,197.896v 2.72662" fill="none" stroke="black"/>
<path d="M525.202,197.896v 2.72662" fill="none" stroke="black"/>
<path d="M533.98,195.17v 5.45324" fill="none" stroke="black"/>
<text xml:space="preserve" x="93.7199" y="213.074" fill="black" font-size="13.1658" font-family="Helvetica">5
</text>
<text xml:space="preserve" x="87.0613" y="213.074" fill="black" font-size="13.1658" font-family="Times">&#8722;
</text>
<text xml:space="preserve" x="138.427" y="213.074" fill="black" font-size="13.1658" font-family="Helvetica">4
</text>
<text xml:space="preserve" x="131.769" y="213.074" fill="black" font-size="13.1658" font-family="Times">&#8722;
</text>
<text xml:space="preserve" x="182.184" y="213.074" fill="black" font-size="13.1658" font-family="Helvetica">3
</text>
<text xml:space="preserve" x="175.525" y="213.074" fill="black" font-size="13.1658" font-family="Times">&#8722;
</text>
<text xml:space="preserve" x="225.94" y="213.074" fill="black" font-size="13.1658" font-family="Helvetica">2
</text>
<text xml:space="preserve" x="219.281" y="213.074" fill="black" font-size="13.1658" font-family="Times">&#8722;
</text>
<text xml:space="preserve" x="271.599" y="213.074" fill="black" font-size="13.1658" font-family="Helvetica">1
</text>
<text xml:space="preserve" x="263.989" y="213.074" fill="black" font-size="13.1658" font-family="Times">&#8722;
</text>
<text xml:space="preserve" x="310.599" y="213.074" fill="black" font-size="13.1658" font-family="Helvetica">0
</text>
<text xml:space="preserve" x="355.306" y="213.074" fill="black" font-size="13.1658" font-family="Helvetica">1
</text>
<text xml:space="preserve" x="398.111" y="213.074" fill="black" font-size="13.1658" font-family="Helvetica">2
</text>
<text xml:space="preserve" x="442.819" y="213.074" fill="black" font-size="13.1658" font-family="Helvetica">3
</text>
<text xml:space="preserve" x="486.575" y="213.074" fill="black" font-size="13.1658" font-family="Helvetica">4
</text>
<text xml:space="preserve" x="530.331" y="213.074" fill="black" font-size="13.1658" font-family="Helvetica">5
</text>
<text xml:space="preserve" x="526.527" y="219.733" fill="black" font-size="15.2767" font-family="Helvetica">x
</text>
<path d="M95.0638,18.8482h 438.917" fill="none" stroke="black"/>
<path d="M95.0638,24.3014v -5.45324" fill="none" stroke="black"/>
<path d="M103.842,21.5748v -2.72662" fill="none" stroke="black"/>
<path d="M112.62,21.5748v -2.72662" fill="none" stroke="black"/>
<path d="M121.399,21.5748v -2.72662" fill="none" stroke="black"/>
<path d="M130.177,21.5748v -2.72662" fill="none" stroke="black"/>
<path d="M138.955,24.3014v -5.45324" fill="none" stroke="black"/>
<path d="M147.734,21.5748v -2.72662" fill="none" stroke="black"/>
<path d="M156.512,21.5748v -2.72662" fill="none" stroke="black"/>
<path d="M165.29,21.5748v -2.72662" fill="none" stroke="black"/>
<path d="M174.069,21.5748v -2.72662" fill="none" stroke="black"/>
<path d="M182.847,24.3014v -5.45324" fill="none" stroke="black"/>
<path d="M191.625,21.5748v -2.72662" fill="none" stroke="black"/>
<path d="M200.404,21.5748v -2.72662" fill="none" stroke="black"/>
<path d="M209.182,21.5748v -2.72662" fill="none" stroke="black"/>
<path d="M217.96,21.5748v -2.72662" fill="none" stroke="black"/>
<path d="M226.739,24.3014v -5.45324" fill="none" stroke="black"/>
<path d="M235.517,21.5748v -2.72662" fill="none" stroke="black"/>
<path d="M244.295,21.5748v -2.72662" fill="none" stroke="black"/>
<path d="M253.074,21.5748v -2.72662" fill="none" stroke="black"/>
<path d="M261.852,21.5748v -2.72662" fill="none" stroke="black"/>
<path d="M270.63,24.3014v -5.45324" fill="none" stroke="black"/>
<path d="M279.409,21.5748v -2.72662" fill="none" stroke="black"/>
<path d="M288.187,21.5748v -2.72662" fill="none" stroke="black"/>
<path d="M296.965,21.5748v -2.72662" fill="none" stroke="black"/>
<path d="M305.744,21.5748v -2.72662" fill="none" stroke="black"/>
<path d="M314.522,24.3014v -5.45324" fill="none" stroke="black"/>
<path d="M323.3,21.5748v -2.72662" fill="none" stroke="black"/>
<path d="M332.079,21.5748v -2.72662" fill="none" stroke="black"/>
<path d="M340.857,21.5748v -2.72662" fill="none" stroke="black"/>
<path d="M349.635,21.5748v -2.72662" fill="none" stroke="black"/>
<path d="M358.414,24.3014v -5.45324" fill="none" stroke="black"/>
<path d="M367.192,21.5748v -2.72662" fill="none" stroke="black"/>
<path d="M375.97,21.5748v -2.72662" fill="none" stroke="black"/>
<path d="M384.749,21.5748v -2.72662" fill="none" stroke="black"/>
<path d="M393.527,21.5748v -2.72662" fill="none" stroke="black"/>
<path d="M402.305,24.3014v -5.45324" fill="none" stroke="black"/>
<path d="M411.084,21.5748v -2.72662" fill="none" stroke="black"/>
<path d="M419.862,21.5748v -2.72662" fill="none" stroke="black"/>
<path d="M428.64,21.5748v -2.72662" fill="none" stroke="black"/>
<path d="M437.419,21.5748v -2.72662" fill="none" stroke="black"/>
<path d="M446.197,24.3014v -5.45324" fill="none" stroke="black"/>
<path d="M454.975,21.5748v -2.72662" fill="none" stroke="black"/>
<path d="M463.754,21.5748v -2.72662" fill="none" stroke="black"/>
<path d="M472.532,21.5748v -2.72662" fill="none" stroke="black"/>
<path d="M481.31,21.5748v -2.72662" fill="none" stroke="black"/>
<path d="M490.089,24.3014v -5.45324" fill="none" stroke="black"/>
<path d="M498.867,21.5748v -2.72662" fill="none" stroke="black"/>
<path d="M507.645,21.5748v -2.72662" fill="none" stroke="black"/>
<path d="M516.424,21.5748v -2.72662" fill="none" stroke="black"/>
<path d="M525.202,21.5748v -2.72662" fill="none" stroke="black"/>
<path d="M533.98,24.3014v -5.45324" fill="none" stroke="black"/>
<path d="M95.0638,200.623v -181.775" fill="none" stroke="black"/>
<path d="M108.231,200.623h -13.1675" fill="none" stroke="black"/>
<path d="M101.648,196.278h -6.58375" fill="none" stroke="black"/>
<path d="M101.648,191.933h -6.58375" fill="none" stroke="black"/>
<path d="M101.648,187.588h -6.58375" fill="none" stroke="black"/>
<path d="M101.648,183.243h -6.58375" fill="none" stroke="black"/>
<path d="M108.231,178.899h -13.1675" fill="none" stroke="black"/>
<path d="M101.648,174.554h -6.58375" fill="none" stroke="black"/>
<path d="M101.648,170.209h -6.58375" fill="none" stroke="black"/>
<path d="M101.648,165.864h -6.58375" fill="none" stroke="black"/>
<path d="M101.648,161.519h -6.58375" fill="none" stroke="black"/>
<path d="M108.231,157.174h -13.1675" fill="none" stroke="black"/>
<path d="M101.648,152.829h -6.58375" fill="none" stroke="black"/>
<path d="M101.648,148.484h -6.58375" fill="none" stroke="black"/>
<path d="M101.648,144.14h -6.58375" fill="none" stroke="black"/>
<path d="M101.648,139.795h -6.58375" fill="none" stroke="black"/>
<path d="M108.231,135.45h -13.1675" fill="none" stroke="black"/>
<path d="M101.648,131.105h -6.58375" fill="none" stroke="black"/>
<path d="M101.648,126.76h -6.58375" fill="none" stroke="black"/>
<path d="M101.648,122.415h -6.58375" fill="none" stroke="black"/>
<path d="M101.648,118.07h -6.58375" fill="none" stroke="black"/>
<path d="M108.231,113.725h -13.1675" fill="none" stroke="black"/>
<path d="M101.648,109.381h -6.58375" fill="none" stroke="black"/>
<path d="M101.648,105.036h -6.58375" fill="none" stroke="black"/>
<path d="M101.648,100.691h -6.58375" fill="none" stroke="black"/>
<path d="M101.648,96.346h -6.58375" fill="none" stroke="black"/>
<path d="M108.231,92.0011h -13.1675" fill="none" stroke="black"/>
<path d="M101.648,87.6562h -6.58375" fill="none" stroke="black"/>
<path d="M101.648,83.3114h -6.58375" fill="none" stroke="black"/>
<path d="M101.648,78.9665h -6.58375" fill="none" stroke="black"/>
<path d="M101.648,74.6216h -6.58375" fill="none" stroke="black"/>
<path d="M108.231,70.2767h -13.1675" fill="none" stroke="black"/>
<path d="M101.648,65.9319h -6.58375" fill="none" stroke="black"/>
<path d="M101.648,61.587h -6.58375" fill="none" stroke="black"/>
<path d="M101.648,57.2421h -6.58375" fill="none" stroke="black"/>
<path d="M101.648,52.8972h -6.58375" fill="none" stroke="black"/>
<path d="M108.231,48.5524h -13.1675" fill="none" stroke="black"/>
<path d="M101.648,44.2075h -6.58375" fill="none" stroke="black"/>
<path d="M101.648,39.8626h -6.58375" fill="none" stroke="black"/>
<path d="M101.648,35.5178h -6.58375" fill="none" stroke="black"/>
<path d="M101.648,31.1729h -6.58375" fill="none" stroke="black"/>
<path d="M108.231,26.828h -13.1675" fill="none" stroke="black"/>
<path d="M108.231,26.828h -13.1675" fill="none" stroke="black"/>
<path d="M101.648,22.4831h -6.58375" fill="none" stroke="black"/>
<text xml:space="preserve" x="84.2077" y="205.464" fill="black" font-size="13.1658" font-family="Helvetica">0
</text>
<text xml:space="preserve" x="66.1344" y="183.586" fill="black" font-size="13.1658" font-family="Helvetica">0.05
</text>
<text xml:space="preserve" x="75.6466" y="161.708" fill="black" font-size="13.1658" font-family="Helvetica">0.1
</text>
<text xml:space="preserve" x="66.1344" y="139.83" fill="black" font-size="13.1658" font-family="Helvetica">0.15
</text>
<text xml:space="preserve" x="73.7442" y="118.903" fill="black" font-size="13.1658" font-family="Helvetica">0.2
</text>
<text xml:space="preserve" x="66.1344" y="97.0248" fill="black" font-size="13.1658" font-family="Helvetica">0.25
</text>
<text xml:space="preserve" x="73.7442" y="75.1466" fill="black" font-size="13.1658" font-family="Helvetica">0.3
</text>
<text xml:space="preserve" x="66.1344" y="53.2685" fill="black" font-size="13.1658" font-family="Helvetica">0.35
</text>
<text xml:space="preserve" x="73.7442" y="31.3904" fill="black" font-size="13.1658" font-family="Helvetica">0.4
</text>
<path d="M533.98,200.623v -181.775" fill="none" stroke="black"/>
<path d="M520.813,200.623h 13.1675" fill="none" stroke="black"/>
<path d="M527.397,196.278h 6.58375" fill="none" stroke="black"/>
<path d="M527.397,191.933h 6.58375" fill="none" stroke="black"/>
<path d="M527.397,187.588h 6.58375" fill="none" stroke="black"/>
<path d="M527.397,183.243h 6.58375" fill="none" stroke="black"/>
<path d="M520.813,178.899h 13.1675" fill="none" stroke="black"/>
<path d="M527.397,174.554h 6.58375" fill="none" stroke="black"/>
<path d="M527.397,170.209h 6.58375" fill="none" stroke="black"/>
<path d="M527.397,165.864h 6.58375" fill="none" stroke="black"/>
<path d="M527.397,161.519h 6.58375" fill="none" stroke="black"/>
<path d="M520.813,157.174h 13.1675" fill="none" stroke="black"/>
<path d="M527.397,152.829h 6.58375" fill="none" stroke="black"/>
<path d="M527.397,148.484h 6.58375" fill="none" stroke="black"/>
<path d="M527.397,144.14h 6.58375" fill="none" stroke="black"/>
<path d="M527.397,139.795h 6.58375" fill="none" stroke="black"/>
<path d="M520.813,135.45h 13.1675" fill="none" stroke="black"/>
<path d="M527.397,131.105h 6.58375" fill="none" stroke="black"/>
<path d="M527.397,126.76h 6.58375" fill="none" stroke="black"/>
<path d="M527.397,122.415h 6.58375" fill="none" stroke="black"/>
<path d="M527.397,118.07h 6.58375" fill="none" stroke="black"/>
<path d="M520.813,113.725h 13.1675" fill="none" stroke="black"/>
<path d="M527.397,109.381h 6.58375" fill="none" stroke="black"/>
<path d="M527.397,105.036h 6.58375" fill="none" stroke="black"/>
<path d="M527.397,100.691h 6.58375" fill="none" stroke="black"/>
<path d="M527.397,96.346h 6.58375" fill="none" stroke="black"/>
<path d="M520.813,92.0011h 13.1675" fill="none" stroke="black"/>
<path d="M527.397,87.6562h 6.58375" fill="none" stroke="black"/>
<path d="M527.397,83.3114h 6.58375" fill="none" stroke="black"/>
<path d="M527.397,78.9665h 6.58375" fill="none" stroke="black"/>
<path d="M527.397,74.6216h 6.58375" fill="none" stroke="black"/>
<path d="M520.813,70.2767h 13.1675" fill="none" stroke="black"/>
<path d="M527.397,65.9319h 6.58375" fill="none" stroke="black"/>
<path d="M527.397,61.587h 6.58375" fill="none" stroke="black"/>
<path d="M527.397,57.2421h 6.58375" fill="none" stroke="black"/>
<path d="M527.397,52.8972h 6.58375" fill="none" stroke="black"/>
<path d="M520.813,48.5524h 13.1675" fill="none" stroke="black"/>
<path d="M527.397,44.2075h 6.58375" fill="none" stroke="black"/>
<path d="M527.397,39.8626h 6.58375" fill="none" stroke="black"/>
<path d="M527.397,35.5178h 6.58375" fill="none" stroke="black"/>
<path d="M527.397,31.1729h 6.58375" fill="none" stroke="black"/>
<path d="M520.813,26.828h 13.1675" fill="none" stroke="black"/>
<path d="M520.813,26.828h 13.1675" fill="none" stroke="black"/>
<path d="M527.397,22.4831h 6.58375" fill="none" stroke="black"/>
<rect x="330.575" y="40.9025" width="167.415" height="58.0248" fill="white"/>
<path d="M336.282,98.9273v 3.80489h 165.513v -56.1223h -3.80489v 52.3175z" fill="black"/>
<path d="M330.575,98.9273v -58.0248h 167.415v 58.0248h -167.415z" fill="none" stroke="black"/>
<text xml:space="preserve" x="372.428" y="76.0979" fill="black" font-size="21.2931" font-family="Helvetica" font-weight="bold">normal_pdf
</text>
<path d="M336.853,69.9149h 29.2976" fill="none" stroke="#0000ff" stroke-width="3"/>
<rect x="6.16929" y="252.125" width="555.591" height="230.095" fill="white"/>
<rect x="95.0638" y="263.63" width="438.917" height="181.775" fill="white"/>
<rect x="95.0638" y="263.63" width="438.917" height="181.775" fill="none" stroke="black"/>
<path d="M97.2584,445.404h 52.67l 4.38917, -0.0226994l 4.38917, -0.010646l 4.38917, -0.0151787l 4.38917, -0.021426l 4.38917, -0.0299439l 4.38917, -0.0414321l 4.38917, -0.0567578l 4.38917, -0.0769795l 4.38917, -0.103368l 4.38917, -0.137422l 4.38917,
 -0.180879l 4.38917, -0.235711l 4.38917, -0.304112l 4.38917, -0.38846l 4.38917, -0.491271l 4.38917, -0.615115l 4.38917, -0.762521l 4.38917, -0.935854l 4.38917, -1.13717l 4.38917, -1.36805l 4.38917, -1.62945l 4.38917, -1.9215l 4.38917, -2.24336l
 4.38917, -2.5931l 4.38917, -2.96757l 4.38917, -3.36234l 4.38917, -3.77176l 4.38917, -4.18897l 4.38917, -4.60607l 4.38917, -5.01435l 4.38917, -5.40456l 4.38917, -5.76721l 4.38917, -6.09301l 4.38917, -6.37322l 4.38917, -6.60004l 4.38917, -6.76698l
 4.38917, -6.86916" fill="none" stroke="#ff0000" stroke-width="3"/>
<path d="M312.327,362.297l 4.38917, -6.90357l 4.38917, -6.86916l 4.38917, -6.76698l 4.38917, -6.60004l 4.38917, -6.37322l 4.38917, -6.09301l 4.38917, -5.76721l 4.38917, -5.40456l 4.38917, -5.01435l 4.38917, -4.60607l 4.38917, -4.18897l 4.38917,
 -3.77176l 4.38917, -3.36234l 4.38917, -2.96757l 4.38917, -2.5931l 4.38917, -2.24336l 4.38917, -1.9215l 4.38917, -1.62945l 4.38917, -1.36805l 4.38917, -1.13717l 4.38917, -0.935854l 4.38917, -0.762521l 4.38917, -0.615115l 4.38917, -0.491271l 4.38917,
 -0.38846l 4.38917, -0.304112l 4.38917, -0.235711l 4.38917, -0.180879l 4.38917, -0.137422l 4.38917, -0.103368l 4.38917, -0.0769795l 4.38917, -0.0567578l 4.38917, -0.0414321l 4.38917, -0.0299439l 4.38917, -0.021426l 4.38917, -0.0151787l 4.38917,
 -0.010646l 4.38917, -0.00739267l 4.38917, -0.00508249l 4.38917, -0.00345949l 4.38917, -0.00233135l 4.38917, -0.00155548l 4.38917, -0.0010275l 4.38917, -0.000671987l 4.38917, -0.00043511l 4.38917, -0.000278932l 4.38917, -0.000177035l 4.38917,
 -0.000111245l 4.38917, -6.92087e-05" fill="none" stroke="#ff0000" stroke-width="3"/>
<path d="M527.397,272.286l 4.38917, -4.26288e-05" fill="none" stroke="#ff0000" stroke-width="3"/>
<path d="M95.0638,445.404h 438.917" fill="none" stroke="black"/>
<path d="M95.0638,439.951v 5.45324" fill="none" stroke="black"/>
<path d="M103.842,442.678v 2.72662" fill="none" stroke="black"/>
<path d="M112.62,442.678v 2.72662" fill="none" stroke="black"/>
<path d="M121.399,442.678v 2.72662" fill="none" stroke="black"/>
<path d="M130.177,442.678v 2.72662" fill="none" stroke="black"/>
<path d="M138.955,439.951v 5.45324" fill="none" stroke="black"/>
<path d="M147.734,442.678v 2.72662" fill="none" stroke="black"/>
<path d="M156.512,442.678v 2.72662" fill="none" stroke="black"/>
<path d="M165.29,442.678v 2.72662" fill="none" stroke="black"/>
<path d="M174.069,442.678v 2.72662" fill="none" stroke="black"/>
<path d="M182.847,439.951v 5.45324" fill="none" stroke="black"/>
<path d="M191.625,442.678v 2.72662" fill="none" stroke="black"/>
<path d="M200.404,442.678v 2.72662" fill="none" stroke="black"/>
<path d="M209.182,442.678v 2.72662" fill="none" stroke="black"/>
<path d="M217.96,442.678v 2.72662" fill="none" stroke="black"/>
<path d="M226.739,439.951v 5.45324" fill="none" stroke="black"/>
<path d="M235.517,442.678v 2.72662" fill="none" stroke="black"/>
<path d="M244.295,442.678v 2.72662" fill="none" stroke="black"/>
<path d="M253.074,442.678v 2.72662" fill="none" stroke="black"/>
<path d="M261.852,442.678v 2.72662" fill="none" stroke="black"/>
<path d="M270.63,439.951v 5.45324" fill="none" stroke="black"/>
<path d="M279.409,442.678v 2.72662" fill="none" stroke="black"/>
<path d="M288.187,442.678v 2.72662" fill="none" stroke="black"/>
<path d="M296.965,442.678v 2.72662" fill="none" stroke="black"/>
<path d="M305.744,442.678v 2.72662" fill="none" stroke="black"/>
<path d="M314.522,439.951v 5.45324" fill="none" stroke="black"/>
<path d="M323.3,442.678v 2.72662" fill="none" stroke="black"/>
<path d="M332.079,442.678v 2.72662" fill="none" stroke="black"/>
<path d="M340.857,442.678v 2.72662" fill="none" stroke="black"/>
<path d="M349.635,442.678v 2.72662" fill="none" stroke="black"/>
<path d="M358.414,439.951v 5.45324" fill="none" stroke="black"/>
<path d="M367.192,442.678v 2.72662" fill="none" stroke="black"/>
<path d="M375.97,442.678v 2.72662" fill="none" stroke="black"/>
<path d="M384.749,442.678v 2.72662" fill="none" stroke="black"/>
<path d="M393.527,442.678v 2.72662" fill="none" stroke="black"/>
<path d="M402.305,439.951v 5.45324" fill="none" stroke="black"/>
<path d="M411.084,442.678v 2.72662" fill="none" stroke="black"/>
<path d="M419.862,442.678v 2.72662" fill="none" stroke="black"/>
<path d="M428.64,442.678v 2.72662" fill="none" stroke="black"/>
<path d="M437.419,442.678v 2.72662" fill="none" stroke="black"/>
<path d="M446.197,439.951v 5.45324" fill="none" stroke="black"/>
<path d="M454.975,442.678v 2.72662" fill="none" stroke="black"/>
<path d="M463.754,442.678v 2.72662" fill="none" stroke="black"/>
<path d="M472.532,442.678v 2.72662" fill="none" stroke="black"/>
<path d="M481.31,442.678v 2.72662" fill="none" stroke="black"/>
<path d="M490.089,439.951v 5.45324" fill="none" stroke="black"/>
<path d="M498.867,442.678v 2.72662" fill="none" stroke="black"/>
<path d="M507.645,442.678v 2.72662" fill="none" stroke="black"/>
<path d="M516.424,442.678v 2.72662" fill="none" stroke="black"/>
<path d="M525.202,442.678v 2.72662" fill="none" stroke="black"/>
<path d="M533.98,439.951v 5.45324" fill="none" stroke="black"/>
<text xml:space="preserve" x="93.7199" y="457.538" fill="black" font-size="13.1658" font-family="Helvetica">5
</text>
<text xml:space="preserve" x="87.0613" y="457.538" fill="black" font-size="13.1658" font-family="Times">&#8722;
</text>
<text xml:space="preserve" x="138.427" y="457.538" fill="black" font-size="13.1658" font-family="Helvetica">4
</text>
<text xml:space="preserve" x="131.769" y="457.538" fill="black" font-size="13.1658" font-family="Times">&#8722;
</text>
<text xml:space="preserve" x="182.184" y="457.538" fill="black" font-size="13.1658" font-family="Helvetica">3
</text>
<text xml:space="preserve" x="175.525" y="457.538" fill="black" font-size="13.1658" font-family="Times">&#8722;
</text>
<text xml:space="preserve" x="225.94" y="457.538" fill="black" font-size="13.1658" font-family="Helvetica">2
</text>
<text xml:space="preserve" x="219.281" y="457.538" fill="black" font-size="13.1658" font-family="Times">&#8722;
</text>
<text xml:space="preserve" x="271.599" y="457.538" fill="black" font-size="13.1658" font-family="Helvetica">1
</text>
<text xml:space="preserve" x="263.989" y="457.538" fill="black" font-size="13.1658" font-family="Times">&#8722;
</text>
<text xml:space="preserve" x="310.599" y="457.538" fill="black" font-size="13.1658" font-family="Helvetica">0
</text>
<text xml:space="preserve" x="355.306" y="457.538" fill="black" font-size="13.1658" font-family="Helvetica">1
</text>
<text xml:space="preserve" x="398.111" y="457.538" fill="black" font-size="13.1658" font-family="Helvetica">2
</text>
<text xml:space="preserve" x="442.819" y="457.538" fill="black" font-size="13.1658" font-family="Helvetica">3
</text>
<text xml:space="preserve" x="486.575" y="457.538" fill="black" font-size="13.1658" font-family="Helvetica">4
</text>
<text xml:space="preserve" x="530.331" y="457.538" fill="black" font-size="13.1658" font-family="Helvetica">5
</text>
<text xml:space="preserve" x="526.527" y="464.197" fill="black" font-size="15.2767" font-family="Helvetica">x
</text>
<path d="M95.0638,263.63h 438.917" fill="none" stroke="black"/>
<path d="M95.0638,269.083v -5.45324" fill="none" stroke="black"/>
<path d="M103.842,266.356v -2.72662" fill="none" stroke="black"/>
<path d="M112.62,266.356v -2.72662" fill="none" stroke="black"/>
<path d="M121.399,266.356v -2.72662" fill="none" stroke="black"/>
<path d="M130.177,266.356v -2.72662" fill="none" stroke="black"/>
<path d="M138.955,269.083v -5.45324" fill="none" stroke="black"/>
<path d="M147.734,266.356v -2.72662" fill="none" stroke="black"/>
<path d="M156.512,266.356v -2.72662" fill="none" stroke="black"/>
<path d="M165.29,266.356v -2.72662" fill="none" stroke="black"/>
<path d="M174.069,266.356v -2.72662" fill="none" stroke="black"/>
<path d="M182.847,269.083v -5.45324" fill="none" stroke="black"/>
<path d="M191.625,266.356v -2.72662" fill="none" stroke="black"/>
<path d="M200.404,266.356v -2.72662" fill="none" stroke="black"/>
<path d="M209.182,266.356v -2.72662" fill="none" stroke="black"/>
<path d="M217.96,266.356v -2.72662" fill="none" stroke="black"/>
<path d="M226.739,269.083v -5.45324" fill="none" stroke="black"/>
<path d="M235.517,266.356v -2.72662" fill="none" stroke="black"/>
<path d="M244.295,266.356v -2.72662" fill="none" stroke="black"/>
<path d="M253.074,266.356v -2.72662" fill="none" stroke="black"/>
<path d="M261.852,266.356v -2.72662" fill="none" stroke="black"/>
<path d="M270.63,269.083v -5.45324" fill="none" stroke="black"/>
<path d="M279.409,266.356v -2.72662" fill="none" stroke="black"/>
<path d="M288.187,266.356v -2.72662" fill="none" stroke="black"/>
<path d="M296.965,266.356v -2.72662" fill="none" stroke="black"/>
<path d="M305.744,266.356v -2.72662" fill="none" stroke="black"/>
<path d="M314.522,269.083v -5.45324" fill="none" stroke="black"/>
<path d="M323.3,266.356v -2.72662" fill="none" stroke="black"/>
<path d="M332.079,266.356v -2.72662" fill="none" stroke="black"/>
<path d="M340.857,266.356v -2.72662" fill="none" stroke="black"/>
<path d="M349.635,266.356v -2.72662" fill="none" stroke="black"/>
<path d="M358.414,269.083v -5.45324" fill="none" stroke="black"/>
<path d="M367.192,266.356v -2.72662" fill="none" stroke="black"/>
<path d="M375.97,266.356v -2.72662" fill="none" stroke="black"/>
<path d="M384.749,266.356v -2.72662" fill="none" stroke="black"/>
<path d="M393.527,266.356v -2.72662" fill="none" stroke="black"/>
<path d="M402.305,269.083v -5.45324" fill="none" stroke="black"/>
<path d="M411.084,266.356v -2.72662" fill="none" stroke="black"/>
<path d="M419.862,266.356v -2.72662" fill="none" stroke="black"/>
<path d="M428.64,266.356v -2.72662" fill="none" stroke="black"/>
<path d="M437.419,266.356v -2.72662" fill="none" stroke="black"/>
<path d="M446.197,269.083v -5.45324" fill="none" stroke="black"/>
<path d="M454.975,266.356v -2.72662" fill="none" stroke="black"/>
<path d="M463.754,266.356v -2.72662" fill="none" stroke="black"/>
<path d="M472.532,266.356v -2.72662" fill="none" stroke="black"/>
<path d="M481.31,266.356v -2.72662" fill="none" stroke="black"/>
<path d="M490.089,269.083v -5.45324" fill="none" stroke="black"/>
<path d="M498.867,266.356v -2.72662" fill="none" stroke="black"/>
<path d="M507.645,266.356v -2.72662" fill="none" stroke="black"/>
<path d="M516.424,266.356v -2.72662" fill="none" stroke="black"/>
<path d="M525.202,266.356v -2.72662" fill="none" stroke="black"/>
<path d="M533.98,269.083v -5.45324" fill="none" stroke="black"/>
<path d="M95.0638,445.404v -181.775" fill="none" stroke="black"/>
<path d="M108.231,445.404h -13.1675" fill="none" stroke="black"/>
<path d="M101.648,436.748h -6.58375" fill="none" stroke="black"/>
<path d="M101.648,428.092h -6.58375" fill="none" stroke="black"/>
<path d="M101.648,419.437h -6.58375" fill="none" stroke="black"/>
<path d="M108.231,410.781h -13.1675" fill="none" stroke="black"/>
<path d="M101.648,402.125h -6.58375" fill="none" stroke="black"/>
<path d="M101.648,393.469h -6.58375" fill="none" stroke="black"/>
<path d="M101.648,384.813h -6.58375" fill="none" stroke="black"/>
<path d="M108.231,376.157h -13.1675" fill="none" stroke="black"/>
<path d="M101.648,367.501h -6.58375" fill="none" stroke="black"/>
<path d="M101.648,358.845h -6.58375" fill="none" stroke="black"/>
<path d="M101.648,350.189h -6.58375" fill="none" stroke="black"/>
<path d="M108.231,341.533h -13.1675" fill="none" stroke="black"/>
<path d="M101.648,332.877h -6.58375" fill="none" stroke="black"/>
<path d="M101.648,324.221h -6.58375" fill="none" stroke="black"/>
<path d="M101.648,315.565h -6.58375" fill="none" stroke="black"/>
<path d="M108.231,306.909h -13.1675" fill="none" stroke="black"/>
<path d="M101.648,298.253h -6.58375" fill="none" stroke="black"/>
<path d="M101.648,289.597h -6.58375" fill="none" stroke="black"/>
<path d="M101.648,280.941h -6.58375" fill="none" stroke="black"/>
<path d="M108.231,272.286h -13.1675" fill="none" stroke="black"/>
<path d="M108.231,272.286h -13.1675" fill="none" stroke="black"/>
<text xml:space="preserve" x="84.2077" y="449.929" fill="black" font-size="13.1658" font-family="Helvetica">0
</text>
<text xml:space="preserve" x="73.7442" y="415.685" fill="black" font-size="13.1658" font-family="Helvetica">0.2
</text>
<text xml:space="preserve" x="73.7442" y="380.489" fill="black" font-size="13.1658" font-family="Helvetica">0.4
</text>
<text xml:space="preserve" x="73.7442" y="346.245" fill="black" font-size="13.1658" font-family="Helvetica">0.6
</text>
<text xml:space="preserve" x="73.7442" y="312.001" fill="black" font-size="13.1658" font-family="Helvetica">0.8
</text>
<text xml:space="preserve" x="87.0613" y="277.757" fill="black" font-size="13.1658" font-family="Helvetica">1
</text>
<g transform="rotate(-90,63.2807,272.05)">
<text xml:space="preserve" x="63.2807" y="272.05" fill="black" font-size="15.2767" font-family="Helvetica">p
</text>
</g>
<path d="M533.98,445.404v -181.775" fill="none" stroke="black"/>
<path d="M520.813,445.404h 13.1675" fill="none" stroke="black"/>
<path d="M527.397,436.748h 6.58375" fill="none" stroke="black"/>
<path d="M527.397,428.092h 6.58375" fill="none" stroke="black"/>
<path d="M527.397,419.437h 6.58375" fill="none" stroke="black"/>
<path d="M520.813,410.781h 13.1675" fill="none" stroke="black"/>
<path d="M527.397,402.125h 6.58375" fill="none" stroke="black"/>
<path d="M527.397,393.469h 6.58375" fill="none" stroke="black"/>
<path d="M527.397,384.813h 6.58375" fill="none" stroke="black"/>
<path d="M520.813,376.157h 13.1675" fill="none" stroke="black"/>
<path d="M527.397,367.501h 6.58375" fill="none" stroke="black"/>
<path d="M527.397,358.845h 6.58375" fill="none" stroke="black"/>
<path d="M527.397,350.189h 6.58375" fill="none" stroke="black"/>
<path d="M520.813,341.533h 13.1675" fill="none" stroke="black"/>
<path d="M527.397,332.877h 6.58375" fill="none" stroke="black"/>
<path d="M527.397,324.221h 6.58375" fill="none" stroke="black"/>
<path d="M527.397,315.565h 6.58375" fill="none" stroke="black"/>
<path d="M520.813,306.909h 13.1675" fill="none" stroke="black"/>
<path d="M527.397,298.253h 6.58375" fill="none" stroke="black"/>
<path d="M527.397,289.597h 6.58375" fill="none" stroke="black"/>
<path d="M527.397,280.941h 6.58375" fill="none" stroke="black"/>
<path d="M520.813,272.286h 13.1675" fill="none" stroke="black"/>
<path d="M520.813,272.286h 13.1675" fill="none" stroke="black"/>
<path d="M97.2584,272.286l 4.38917, 4.26288e-05l 4.38917, 6.92087e-05l 4.38917, 0.000111245l 4.38917, 0.000177035l 4.38917, 0.000278932l 4.38917, 0.00043511l 4.38917, 0.000671987l 4.38917, 0.0010275l 4.38917, 0.00155548l 4.38917, 0.00233135l 4.38917,
 0.00345949l 4.38917, 0.00508249l 4.38917, 0.00739267l 4.38917, 0.010646l 4.38917, 0.0151787l 4.38917, 0.021426l 4.38917, 0.0299439l 4.38917, 0.0414321l 4.38917, 0.0567578l 4.38917, 0.0769795l 4.38917, 0.103368l 4.38917, 0.137422l 4.38917, 0.180879l
 4.38917, 0.235711l 4.38917, 0.304112l 4.38917, 0.38846l 4.38917, 0.491271l 4.38917, 0.615115l 4.38917, 0.762521l 4.38917, 0.935854l 4.38917, 1.13717l 4.38917, 1.36805l 4.38917, 1.62945l 4.38917, 1.9215l 4.38917, 2.24336l 4.38917, 2.5931l 4.38917,
 2.96757l 4.38917, 3.36234l 4.38917, 3.77176l 4.38917, 4.18897l 4.38917, 4.60607l 4.38917, 5.01435l 4.38917, 5.40456l 4.38917, 5.76721l 4.38917, 6.09301l 4.38917, 6.37322l 4.38917, 6.60004l 4.38917, 6.76698l 4.38917, 6.86916" fill="none"
 stroke="#00ff00" stroke-width="3"/>
<path d="M312.327,355.393l 4.38917, 6.90357l 4.38917, 6.86916l 4.38917, 6.76698l 4.38917, 6.60004l 4.38917, 6.37322l 4.38917, 6.09301l 4.38917, 5.76721l 4.38917, 5.40456l 4.38917, 5.01435l 4.38917, 4.60607l 4.38917, 4.18897l 4.38917, 3.77176l
 4.38917, 3.36234l 4.38917, 2.96757l 4.38917, 2.5931l 4.38917, 2.24336l 4.38917, 1.9215l 4.38917, 1.62945l 4.38917, 1.36805l 4.38917, 1.13717l 4.38917, 0.935854l 4.38917, 0.762521l 4.38917, 0.615115l 4.38917, 0.491271l 4.38917, 0.38846l 4.38917,
 0.304112l 4.38917, 0.235711l 4.38917, 0.180879l 4.38917, 0.137422l 4.38917, 0.103368l 4.38917, 0.0769795l 4.38917, 0.0567578l 4.38917, 0.0414321l 4.38917, 0.0299439l 4.38917, 0.021426l 4.38917, 0.0151787l 4.38917, 0.010646l 4.38917, 0.0226994h
 48.2808" fill="none" stroke="#00ff00" stroke-width="3"/>
<path d="M527.397,445.404h 4.38917" fill="none" stroke="#00ff00" stroke-width="3"/>
<rect x="331.526" y="318.66" width="167.415" height="57.0734" fill="white"/>
<path d="M337.233,375.733v 3.80489h 165.513v -55.1709h -3.80489v 51.366z" fill="black"/>
<path d="M331.526,375.733v -57.0734h 167.415v 57.0734h -167.415z" fill="none" stroke="black"/>
<text xml:space="preserve" x="373.38" y="339.587" fill="black" font-size="17.5657" font-family="Helvetica" font-weight="bold">normal_cdf
</text>
<path d="M337.804,332.928h 29.2976" fill="none" stroke="#ff0000" stroke-width="3"/>
<text xml:space="preserve" x="373.38" y="368.123" fill="black" font-size="17.5657" font-family="Helvetica" font-weight="bold">normal_cdf_c
</text>
<path d="M337.804,361.465h 29.2976" fill="none" stroke="#00ff00" stroke-width="3"/>
<rect x="6.16929" y="496.906" width="555.591" height="230.095" fill="white"/>
<rect x="95.0638" y="508.411" width="438.917" height="181.775" fill="white"/>
<rect x="95.0638" y="508.411" width="438.917" height="181.775" fill="none" stroke="black"/>
<path d="M95.2832,681.942l 0.438917, -8.08682l 0.438917, -4.02612l 0.438917, -2.76058l 0.438917, -2.12425l 0.438917, -1.73756l 0.438917, -1.47636l 0.438917, -1.28748l 0.438917, -1.1442l 0.438917, -1.0316l 0.438917, -0.940652l 0.438917, -0.865576l
 0.438917, -0.802495l 0.438917, -0.748706l 0.438917, -0.702267l 0.438917, -0.661745l 0.438917, -0.626059l 0.438917, -0.594379l 0.438917, -0.566056l 0.438917, -0.540573l 0.438917, -0.517517l 0.438917, -0.496551l 0.438917, -0.477398l 0.438917,
 -0.459829l 0.438917, -0.443652l 0.438917, -0.428704l 0.438917, -0.414849l 0.438917, -0.401968l 0.438917, -0.38996l 0.438917, -0.378738l 0.438917, -0.368226l 0.438917, -0.358357l 0.438917, -0.349073l 0.438917, -0.340322l 0.438917, -0.332059l
 0.438917, -0.324243l 0.438917, -0.316839l 0.438917, -0.309814l 0.438917, -0.303139l 0.438917, -0.296788l 0.438917, -0.290738l 0.438917, -0.284967l 0.438917, -0.279456l 0.438917, -0.274188l 0.438917, -0.269147l 0.438917, -0.264317l 0.438917,
 -0.259686l 0.438917, -0.255242l 0.438917, -0.250973l 0.438917, -0.246868" fill="none" stroke="#ff0000" stroke-width="3"/>
<path d="M116.79,640.835l 0.438917, -0.242919l 0.438917, -0.239116l 0.438917, -0.235452l 0.438917, -0.231919l 0.438917, -0.228509l 0.438917, -0.225217l 0.438917, -0.222035l 0.438917, -0.21896l 0.438917, -0.215985l 0.438917, -0.213105l 0.438917,
 -0.210316l 0.438917, -0.207613l 0.438917, -0.204993l 0.438917, -0.202452l 0.438917, -0.199985l 0.438917, -0.197591l 0.438917, -0.195265l 0.438917, -0.193005l 0.438917, -0.190808l 0.438917, -0.188671l 0.438917, -0.186592l 0.438917, -0.184568l
 0.438917, -0.182598l 0.438917, -0.180679l 0.438917, -0.178808l 0.438917, -0.176985l 0.438917, -0.175208l 0.438917, -0.173474l 0.438917, -0.171783l 0.438917, -0.170132l 0.438917, -0.16852l 0.438917, -0.166946l 0.438917, -0.165408l 0.438917,
 -0.163906l 0.438917, -0.162437l 0.438917, -0.161001l 0.438917, -0.159597l 0.438917, -0.158224l 0.438917, -0.15688l 0.438917, -0.155565l 0.438917, -0.154277l 0.438917, -0.153017l 0.438917, -0.151782l 0.438917, -0.150573l 0.438917, -0.149388l
 0.438917, -0.148227l 0.438917, -0.147089l 0.438917, -0.145974l 0.438917, -0.14488" fill="none" stroke="#ff0000" stroke-width="3"/>
<path d="M138.297,631.827l 0.438917, -0.143807l 0.438917, -0.142754l 0.438917, -0.141722l 0.438917, -0.140708l 0.438917, -0.139714l 0.438917, -0.138737l 0.438917, -0.137779l 0.438917, -0.136838l 0.438917, -0.135913l 0.438917, -0.135005l 0.438917,
 -0.134113l 0.438917, -0.133236l 0.438917, -0.132374l 0.438917, -0.131527l 0.438917, -0.130695l 0.438917, -0.129876l 0.438917, -0.129072l 0.438917, -0.12828l 0.438917, -0.127501l 0.438917, -0.126735l 0.438917, -0.125982l 0.438917, -0.12524l 0.438917,
 -0.12451l 0.438917, -0.123792l 0.438917, -0.123085l 0.438917, -0.122389l 0.438917, -0.121703l 0.438917, -0.121028l 0.438917, -0.120364l 0.438917, -0.119709l 0.438917, -0.119064l 0.438917, -0.118429l 0.438917, -0.117803l 0.438917, -0.117186l
 0.438917, -0.116578l 0.438917, -0.115979l 0.438917, -0.115389l 0.438917, -0.114807l 0.438917, -0.114233l 0.438917, -0.113667l 0.438917, -0.113109l 0.438917, -0.112559l 0.438917, -0.112017l 0.438917, -0.111481l 0.438917, -0.110954l 0.438917,
 -0.110433l 0.438917, -0.109919l 0.438917, -0.109412l 0.438917, -0.108912" fill="none" stroke="#ff0000" stroke-width="3"/>
<path d="M159.804,625.74l 0.438917, -0.108418l 0.438917, -0.107931l 0.438917, -0.107451l 0.438917, -0.106976l 0.438917, -0.106508l 0.438917, -0.106045l 0.438917, -0.105589l 0.438917, -0.105138l 0.438917, -0.104693l 0.438917, -0.104253l 0.438917,
 -0.103819l 0.438917, -0.10339l 0.438917, -0.102967l 0.438917, -0.102549l 0.438917, -0.102135l 0.438917, -0.101727l 0.438917, -0.101324l 0.438917, -0.100925l 0.438917, -0.100532l 0.438917, -0.100143l 0.438917, -0.0997583l 0.438917, -0.0993784l
 0.438917, -0.0990029l 0.438917, -0.0986318l 0.438917, -0.0982649l 0.438917, -0.0979023l 0.438917, -0.0975438l 0.438917, -0.0971894l 0.438917, -0.096839l 0.438917, -0.0964926l 0.438917, -0.0961501l 0.438917, -0.0958114l 0.438917, -0.0954765l
 0.438917, -0.0951452l 0.438917, -0.0948177l 0.438917, -0.0944937l 0.438917, -0.0941733l 0.438917, -0.0938563l 0.438917, -0.0935428l 0.438917, -0.0932327l 0.438917, -0.0929259l 0.438917, -0.0926224l 0.438917, -0.0923221l 0.438917, -0.092025l
 0.438917, -0.0917311l 0.438917, -0.0914402l 0.438917, -0.0911524l 0.438917, -0.0908676l 0.438917, -0.0905858" fill="none" stroke="#ff0000" stroke-width="3"/>
<path d="M181.311,620.905l 0.438917, -0.0903069l 0.438917, -0.0900308l 0.438917, -0.0897576l 0.438917, -0.0894872l 0.438917, -0.0892196l 0.438917, -0.0889547l 0.438917, -0.0886924l 0.438917, -0.0884328l 0.438917, -0.0881758l 0.438917, -0.0879214l
 0.438917, -0.0876696l 0.438917, -0.0874202l 0.438917, -0.0871733l 0.438917, -0.0869289l 0.438917, -0.0866868l 0.438917, -0.0864472l 0.438917, -0.0862099l 0.438917, -0.0859749l 0.438917, -0.0857421l 0.438917, -0.0855117l 0.438917, -0.0852834l
 0.438917, -0.0850574l 0.438917, -0.0848335l 0.438917, -0.0846118l 0.438917, -0.0843922l 0.438917, -0.0841747l 0.438917, -0.0839592l 0.438917, -0.0837458l 0.438917, -0.0835344l 0.438917, -0.083325l 0.438917, -0.0831175l 0.438917, -0.082912l 0.438917,
 -0.0827084l 0.438917, -0.0825067l 0.438917, -0.0823069l 0.438917, -0.0821089l 0.438917, -0.0819128l 0.438917, -0.0817184l 0.438917, -0.0815259l 0.438917, -0.0813351l 0.438917, -0.081146l 0.438917, -0.0809587l 0.438917, -0.0807731l 0.438917,
 -0.0805892l 0.438917, -0.0804069l 0.438917, -0.0802263l 0.438917, -0.0800473l 0.438917, -0.0798699l 0.438917, -0.0796941" fill="none" stroke="#ff0000" stroke-width="3"/>
<path d="M202.818,616.759l 0.438917, -0.0795199l 0.438917, -0.0793472l 0.438917, -0.0791761l 0.438917, -0.0790065l 0.438917, -0.0788384l 0.438917, -0.0786718l 0.438917, -0.0785067l 0.438917, -0.0783431l 0.438917, -0.0781808l 0.438917, -0.0780201l
 0.438917, -0.0778607l 0.438917, -0.0777027l 0.438917, -0.0775461l 0.438917, -0.0773909l 0.438917, -0.077237l 0.438917, -0.0770845l 0.438917, -0.0769333l 0.438917, -0.0767834l 0.438917, -0.0766348l 0.438917, -0.0764876l 0.438917, -0.0763415l
 0.438917, -0.0761968l 0.438917, -0.0760533l 0.438917, -0.075911l 0.438917, -0.07577l 0.438917, -0.0756302l 0.438917, -0.0754915l 0.438917, -0.0753541l 0.438917, -0.0752178l 0.438917, -0.0750827l 0.438917, -0.0749488l 0.438917, -0.074816l 0.438917,
 -0.0746844l 0.438917, -0.0745538l 0.438917, -0.0744244l 0.438917, -0.0742961l 0.438917, -0.0741689l 0.438917, -0.0740428l 0.438917, -0.0739177l 0.438917, -0.0737937l 0.438917, -0.0736708l 0.438917, -0.0735489l 0.438917, -0.073428l 0.438917,
 -0.0733081l 0.438917, -0.0731893l 0.438917, -0.0730715l 0.438917, -0.0729547l 0.438917, -0.0728388l 0.438917, -0.072724" fill="none" stroke="#ff0000" stroke-width="3"/>
<path d="M224.325,613.04l 0.438917, -0.0726101l 0.438917, -0.0724972l 0.438917, -0.0723852l 0.438917, -0.0722742l 0.438917, -0.0721642l 0.438917, -0.072055l 0.438917, -0.0719468l 0.438917, -0.0718395l 0.438917, -0.0717331l 0.438917, -0.0716276l
 0.438917, -0.071523l 0.438917, -0.0714193l 0.438917, -0.0713165l 0.438917, -0.0712145l 0.438917, -0.0711134l 0.438917, -0.0710132l 0.438917, -0.0709138l 0.438917, -0.0708153l 0.438917, -0.0707176l 0.438917, -0.0706207l 0.438917, -0.0705247l
 0.438917, -0.0704294l 0.438917, -0.070335l 0.438917, -0.0702414l 0.438917, -0.0701486l 0.438917, -0.0700566l 0.438917, -0.0699653l 0.438917, -0.0698749l 0.438917, -0.0697852l 0.438917, -0.0696963l 0.438917, -0.0696082l 0.438917, -0.0695208l
 0.438917, -0.0694342l 0.438917, -0.0693483l 0.438917, -0.0692632l 0.438917, -0.0691788l 0.438917, -0.0690951l 0.438917, -0.0690121l 0.438917, -0.0689299l 0.438917, -0.0688484l 0.438917, -0.0687676l 0.438917, -0.0686875l 0.438917, -0.0686081l
 0.438917, -0.0685295l 0.438917, -0.0684515l 0.438917, -0.0683742l 0.438917, -0.0682975l 0.438917, -0.0682216l 0.438917, -0.0681463" fill="none" stroke="#ff0000" stroke-width="3"/>
<path d="M245.832,609.599l 0.438917, -0.0680717l 0.438917, -0.0679978l 0.438917, -0.0679245l 0.438917, -0.0678518l 0.438917, -0.0677799l 0.438917, -0.0677085l 0.438917, -0.0676379l 0.438917, -0.0675678l 0.438917, -0.0674984l 0.438917, -0.0674296l
 0.438917, -0.0673615l 0.438917, -0.067294l 0.438917, -0.0672271l 0.438917, -0.0671608l 0.438917, -0.0670951l 0.438917, -0.06703l 0.438917, -0.0669656l 0.438917, -0.0669017l 0.438917, -0.0668384l 0.438917, -0.0667757l 0.438917, -0.0667137l 0.438917,
 -0.0666522l 0.438917, -0.0665913l 0.438917, -0.0665309l 0.438917, -0.0664712l 0.438917, -0.066412l 0.438917, -0.0663534l 0.438917, -0.0662954l 0.438917, -0.0662379l 0.438917, -0.066181l 0.438917, -0.0661246l 0.438917, -0.0660689l 0.438917,
 -0.0660136l 0.438917, -0.0659589l 0.438917, -0.0659048l 0.438917, -0.0658512l 0.438917, -0.0657981l 0.438917, -0.0657456l 0.438917, -0.0656936l 0.438917, -0.0656422l 0.438917, -0.0655912l 0.438917, -0.0655408l 0.438917, -0.065491l 0.438917,
 -0.0654416l 0.438917, -0.0653928l 0.438917, -0.0653445l 0.438917, -0.0652967l 0.438917, -0.0652494l 0.438917, -0.0652026" fill="none" stroke="#ff0000" stroke-width="3"/>
<path d="M267.339,606.339l 0.438917, -0.0651564l 0.438917, -0.0651106l 0.438917, -0.0650654l 0.438917, -0.0650206l 0.438917, -0.0649764l 0.438917, -0.0649326l 0.438917, -0.0648894l 0.438917, -0.0648466l 0.438917, -0.0648043l 0.438917, -0.0647625l
 0.438917, -0.0647212l 0.438917, -0.0646804l 0.438917, -0.0646401l 0.438917, -0.0646002l 0.438917, -0.0645608l 0.438917, -0.0645219l 0.438917, -0.0644835l 0.438917, -0.0644455l 0.438917, -0.064408l 0.438917, -0.064371l 0.438917, -0.0643345l 0.438917,
 -0.0642984l 0.438917, -0.0642628l 0.438917, -0.0642276l 0.438917, -0.0641929l 0.438917, -0.0641587l 0.438917, -0.0641249l 0.438917, -0.0640915l 0.438917, -0.0640587l 0.438917, -0.0640262l 0.438917, -0.0639943l 0.438917, -0.0639627l 0.438917,
 -0.0639317l 0.438917, -0.063901l 0.438917, -0.0638708l 0.438917, -0.0638411l 0.438917, -0.0638118l 0.438917, -0.0637829l 0.438917, -0.0637545l 0.438917, -0.0637265l 0.438917, -0.063699l 0.438917, -0.0636719l 0.438917, -0.0636452l 0.438917,
 -0.063619l 0.438917, -0.0635931l 0.438917, -0.0635678l 0.438917, -0.0635428l 0.438917, -0.0635183l 0.438917, -0.0634942" fill="none" stroke="#ff0000" stroke-width="3"/>
<path d="M288.845,603.192l 0.438917, -0.0634705l 0.438917, -0.0634473l 0.438917, -0.0634244l 0.438917, -0.063402l 0.438917, -0.06338l 0.438917, -0.0633585l 0.438917, -0.0633373l 0.438917, -0.0633166l 0.438917, -0.0632963l 0.438917, -0.0632764l
 0.438917, -0.063257l 0.438917, -0.0632379l 0.438917, -0.0632193l 0.438917, -0.063201l 0.438917, -0.0631832l 0.438917, -0.0631658l 0.438917, -0.0631488l 0.438917, -0.0631322l 0.438917, -0.0631161l 0.438917, -0.0631003l 0.438917, -0.0630849l 0.438917,
 -0.06307l 0.438917, -0.0630554l 0.438917, -0.0630413l 0.438917, -0.0630276l 0.438917, -0.0630142l 0.438917, -0.0630013l 0.438917, -0.0629888l 0.438917, -0.0629767l 0.438917, -0.062965l 0.438917, -0.0629537l 0.438917, -0.0629428l 0.438917,
 -0.0629322l 0.438917, -0.0629221l 0.438917, -0.0629124l 0.438917, -0.0629031l 0.438917, -0.0628942l 0.438917, -0.0628857l 0.438917, -0.0628776l 0.438917, -0.0628699l 0.438917, -0.0628625l 0.438917, -0.0628556l 0.438917, -0.0628491l 0.438917,
 -0.062843l 0.438917, -0.0628372l 0.438917, -0.0628319l 0.438917, -0.062827l 0.438917, -0.0628224l 0.438917, -0.0628183" fill="none" stroke="#ff0000" stroke-width="3"/>
<path d="M310.352,600.101l 0.438917, -0.0628145l 0.438917, -0.0628112l 0.438917, -0.0628082l 0.438917, -0.0628056l 0.438917, -0.0628035l 0.438917, -0.0628017l 0.438917, -0.0628003l 0.438917, -0.0627993l 0.438917, -0.0627987l 0.438917, -0.0627985l
 0.438917, -0.0627987l 0.438917, -0.0627993l 0.438917, -0.0628003l 0.438917, -0.0628017l 0.438917, -0.0628035l 0.438917, -0.0628056l 0.438917, -0.0628082l 0.438917, -0.0628112l 0.438917, -0.0628145l 0.438917, -0.0628183l 0.438917, -0.0628224l
 0.438917, -0.062827l 0.438917, -0.0628319l 0.438917, -0.0628372l 0.438917, -0.062843l 0.438917, -0.0628491l 0.438917, -0.0628556l 0.438917, -0.0628625l 0.438917, -0.0628699l 0.438917, -0.0628776l 0.438917, -0.0628857l 0.438917, -0.0628942l 0.438917,
 -0.0629031l 0.438917, -0.0629124l 0.438917, -0.0629221l 0.438917, -0.0629322l 0.438917, -0.0629428l 0.438917, -0.0629537l 0.438917, -0.062965l 0.438917, -0.0629767l 0.438917, -0.0629888l 0.438917, -0.0630013l 0.438917, -0.0630142l 0.438917,
 -0.0630276l 0.438917, -0.0630413l 0.438917, -0.0630554l 0.438917, -0.06307l 0.438917, -0.0630849l 0.438917, -0.0631003" fill="none" stroke="#ff0000" stroke-width="3"/>
<path d="M331.859,597.02l 0.438917, -0.0631161l 0.438917, -0.0631322l 0.438917, -0.0631488l 0.438917, -0.0631658l 0.438917, -0.0631832l 0.438917, -0.063201l 0.438917, -0.0632193l 0.438917, -0.0632379l 0.438917, -0.063257l 0.438917, -0.0632764l
 0.438917, -0.0632963l 0.438917, -0.0633166l 0.438917, -0.0633373l 0.438917, -0.0633585l 0.438917, -0.06338l 0.438917, -0.063402l 0.438917, -0.0634244l 0.438917, -0.0634473l 0.438917, -0.0634705l 0.438917, -0.0634942l 0.438917, -0.0635183l 0.438917,
 -0.0635428l 0.438917, -0.0635678l 0.438917, -0.0635931l 0.438917, -0.063619l 0.438917, -0.0636452l 0.438917, -0.0636719l 0.438917, -0.063699l 0.438917, -0.0637265l 0.438917, -0.0637545l 0.438917, -0.0637829l 0.438917, -0.0638118l 0.438917,
 -0.0638411l 0.438917, -0.0638708l 0.438917, -0.063901l 0.438917, -0.0639317l 0.438917, -0.0639627l 0.438917, -0.0639943l 0.438917, -0.0640262l 0.438917, -0.0640587l 0.438917, -0.0640915l 0.438917, -0.0641249l 0.438917, -0.0641587l 0.438917,
 -0.0641929l 0.438917, -0.0642276l 0.438917, -0.0642628l 0.438917, -0.0642984l 0.438917, -0.0643345l 0.438917, -0.064371" fill="none" stroke="#ff0000" stroke-width="3"/>
<path d="M353.366,593.901l 0.438917, -0.064408l 0.438917, -0.0644455l 0.438917, -0.0644835l 0.438917, -0.0645219l 0.438917, -0.0645608l 0.438917, -0.0646002l 0.438917, -0.0646401l 0.438917, -0.0646804l 0.438917, -0.0647212l 0.438917, -0.0647625l
 0.438917, -0.0648043l 0.438917, -0.0648466l 0.438917, -0.0648894l 0.438917, -0.0649326l 0.438917, -0.0649764l 0.438917, -0.0650206l 0.438917, -0.0650654l 0.438917, -0.0651106l 0.438917, -0.0651564l 0.438917, -0.0652026l 0.438917, -0.0652494l
 0.438917, -0.0652967l 0.438917, -0.0653445l 0.438917, -0.0653928l 0.438917, -0.0654416l 0.438917, -0.065491l 0.438917, -0.0655408l 0.438917, -0.0655912l 0.438917, -0.0656422l 0.438917, -0.0656936l 0.438917, -0.0657456l 0.438917, -0.0657981l
 0.438917, -0.0658512l 0.438917, -0.0659048l 0.438917, -0.0659589l 0.438917, -0.0660136l 0.438917, -0.0660689l 0.438917, -0.0661246l 0.438917, -0.066181l 0.438917, -0.0662379l 0.438917, -0.0662954l 0.438917, -0.0663534l 0.438917, -0.066412l 0.438917,
 -0.0664712l 0.438917, -0.0665309l 0.438917, -0.0665913l 0.438917, -0.0666522l 0.438917, -0.0667137l 0.438917, -0.0667757" fill="none" stroke="#ff0000" stroke-width="3"/>
<path d="M374.873,590.691l 0.438917, -0.0668384l 0.438917, -0.0669017l 0.438917, -0.0669656l 0.438917, -0.06703l 0.438917, -0.0670951l 0.438917, -0.0671608l 0.438917, -0.0672271l 0.438917, -0.067294l 0.438917, -0.0673615l 0.438917, -0.0674296l
 0.438917, -0.0674984l 0.438917, -0.0675678l 0.438917, -0.0676379l 0.438917, -0.0677085l 0.438917, -0.0677799l 0.438917, -0.0678518l 0.438917, -0.0679245l 0.438917, -0.0679978l 0.438917, -0.0680717l 0.438917, -0.0681463l 0.438917, -0.0682216l
 0.438917, -0.0682975l 0.438917, -0.0683742l 0.438917, -0.0684515l 0.438917, -0.0685295l 0.438917, -0.0686081l 0.438917, -0.0686875l 0.438917, -0.0687676l 0.438917, -0.0688484l 0.438917, -0.0689299l 0.438917, -0.0690121l 0.438917, -0.0690951l
 0.438917, -0.0691788l 0.438917, -0.0692632l 0.438917, -0.0693483l 0.438917, -0.0694342l 0.438917, -0.0695208l 0.438917, -0.0696082l 0.438917, -0.0696963l 0.438917, -0.0697852l 0.438917, -0.0698749l 0.438917, -0.0699653l 0.438917, -0.0700566l
 0.438917, -0.0701486l 0.438917, -0.0702414l 0.438917, -0.070335l 0.438917, -0.0704294l 0.438917, -0.0705247l 0.438917, -0.0706207" fill="none" stroke="#ff0000" stroke-width="3"/>
<path d="M396.38,587.33l 0.438917, -0.0707176l 0.438917, -0.0708153l 0.438917, -0.0709138l 0.438917, -0.0710132l 0.438917, -0.0711134l 0.438917, -0.0712145l 0.438917, -0.0713165l 0.438917, -0.0714193l 0.438917, -0.071523l 0.438917, -0.0716276l
 0.438917, -0.0717331l 0.438917, -0.0718395l 0.438917, -0.0719468l 0.438917, -0.072055l 0.438917, -0.0721642l 0.438917, -0.0722742l 0.438917, -0.0723852l 0.438917, -0.0724972l 0.438917, -0.0726101l 0.438917, -0.072724l 0.438917, -0.0728388l 0.438917,
 -0.0729547l 0.438917, -0.0730715l 0.438917, -0.0731893l 0.438917, -0.0733081l 0.438917, -0.073428l 0.438917, -0.0735489l 0.438917, -0.0736708l 0.438917, -0.0737937l 0.438917, -0.0739177l 0.438917, -0.0740428l 0.438917, -0.0741689l 0.438917,
 -0.0742961l 0.438917, -0.0744244l 0.438917, -0.0745538l 0.438917, -0.0746844l 0.438917, -0.074816l 0.438917, -0.0749488l 0.438917, -0.0750827l 0.438917, -0.0752178l 0.438917, -0.0753541l 0.438917, -0.0754915l 0.438917, -0.0756302l 0.438917,
 -0.07577l 0.438917, -0.075911l 0.438917, -0.0760533l 0.438917, -0.0761968l 0.438917, -0.0763415l 0.438917, -0.0764876" fill="none" stroke="#ff0000" stroke-width="3"/>
<path d="M417.887,583.733l 0.438917, -0.0766348l 0.438917, -0.0767834l 0.438917, -0.0769333l 0.438917, -0.0770845l 0.438917, -0.077237l 0.438917, -0.0773909l 0.438917, -0.0775461l 0.438917, -0.0777027l 0.438917, -0.0778607l 0.438917, -0.0780201l
 0.438917, -0.0781808l 0.438917, -0.0783431l 0.438917, -0.0785067l 0.438917, -0.0786718l 0.438917, -0.0788384l 0.438917, -0.0790065l 0.438917, -0.0791761l 0.438917, -0.0793472l 0.438917, -0.0795199l 0.438917, -0.0796941l 0.438917, -0.0798699l
 0.438917, -0.0800473l 0.438917, -0.0802263l 0.438917, -0.0804069l 0.438917, -0.0805892l 0.438917, -0.0807731l 0.438917, -0.0809587l 0.438917, -0.081146l 0.438917, -0.0813351l 0.438917, -0.0815259l 0.438917, -0.0817184l 0.438917, -0.0819128l
 0.438917, -0.0821089l 0.438917, -0.0823069l 0.438917, -0.0825067l 0.438917, -0.0827084l 0.438917, -0.082912l 0.438917, -0.0831175l 0.438917, -0.083325l 0.438917, -0.0835344l 0.438917, -0.0837458l 0.438917, -0.0839592l 0.438917, -0.0841747l 0.438917,
 -0.0843922l 0.438917, -0.0846118l 0.438917, -0.0848335l 0.438917, -0.0850574l 0.438917, -0.0852834l 0.438917, -0.0855117" fill="none" stroke="#ff0000" stroke-width="3"/>
<path d="M439.394,579.776l 0.438917, -0.0857421l 0.438917, -0.0859749l 0.438917, -0.0862099l 0.438917, -0.0864472l 0.438917, -0.0866868l 0.438917, -0.0869289l 0.438917, -0.0871733l 0.438917, -0.0874202l 0.438917, -0.0876696l 0.438917, -0.0879214l
 0.438917, -0.0881758l 0.438917, -0.0884328l 0.438917, -0.0886924l 0.438917, -0.0889547l 0.438917, -0.0892196l 0.438917, -0.0894872l 0.438917, -0.0897576l 0.438917, -0.0900308l 0.438917, -0.0903069l 0.438917, -0.0905858l 0.438917, -0.0908676l
 0.438917, -0.0911524l 0.438917, -0.0914402l 0.438917, -0.0917311l 0.438917, -0.092025l 0.438917, -0.0923221l 0.438917, -0.0926224l 0.438917, -0.0929259l 0.438917, -0.0932327l 0.438917, -0.0935428l 0.438917, -0.0938563l 0.438917, -0.0941733l
 0.438917, -0.0944937l 0.438917, -0.0948177l 0.438917, -0.0951452l 0.438917, -0.0954765l 0.438917, -0.0958114l 0.438917, -0.0961501l 0.438917, -0.0964926l 0.438917, -0.096839l 0.438917, -0.0971894l 0.438917, -0.0975438l 0.438917, -0.0979023l
 0.438917, -0.0982649l 0.438917, -0.0986318l 0.438917, -0.0990029l 0.438917, -0.0993784l 0.438917, -0.0997583l 0.438917, -0.100143" fill="none" stroke="#ff0000" stroke-width="3"/>
<path d="M460.901,575.251l 0.438917, -0.100532l 0.438917, -0.100925l 0.438917, -0.101324l 0.438917, -0.101727l 0.438917, -0.102135l 0.438917, -0.102549l 0.438917, -0.102967l 0.438917, -0.10339l 0.438917, -0.103819l 0.438917, -0.104253l 0.438917,
 -0.104693l 0.438917, -0.105138l 0.438917, -0.105589l 0.438917, -0.106045l 0.438917, -0.106508l 0.438917, -0.106976l 0.438917, -0.107451l 0.438917, -0.107931l 0.438917, -0.108418l 0.438917, -0.108912l 0.438917, -0.109412l 0.438917, -0.109919l
 0.438917, -0.110433l 0.438917, -0.110954l 0.438917, -0.111481l 0.438917, -0.112017l 0.438917, -0.112559l 0.438917, -0.113109l 0.438917, -0.113667l 0.438917, -0.114233l 0.438917, -0.114807l 0.438917, -0.115389l 0.438917, -0.115979l 0.438917,
 -0.116578l 0.438917, -0.117186l 0.438917, -0.117803l 0.438917, -0.118429l 0.438917, -0.119064l 0.438917, -0.119709l 0.438917, -0.120364l 0.438917, -0.121028l 0.438917, -0.121703l 0.438917, -0.122389l 0.438917, -0.123085l 0.438917, -0.123792l
 0.438917, -0.12451l 0.438917, -0.12524l 0.438917, -0.125982l 0.438917, -0.126735" fill="none" stroke="#ff0000" stroke-width="3"/>
<path d="M482.408,569.752l 0.438917, -0.127501l 0.438917, -0.12828l 0.438917, -0.129072l 0.438917, -0.129876l 0.438917, -0.130695l 0.438917, -0.131527l 0.438917, -0.132374l 0.438917, -0.133236l 0.438917, -0.134113l 0.438917, -0.135005l 0.438917,
 -0.135913l 0.438917, -0.136838l 0.438917, -0.137779l 0.438917, -0.138737l 0.438917, -0.139714l 0.438917, -0.140708l 0.438917, -0.141722l 0.438917, -0.142754l 0.438917, -0.143807l 0.438917, -0.14488l 0.438917, -0.145974l 0.438917, -0.147089l
 0.438917, -0.148227l 0.438917, -0.149388l 0.438917, -0.150573l 0.438917, -0.151782l 0.438917, -0.153017l 0.438917, -0.154277l 0.438917, -0.155565l 0.438917, -0.15688l 0.438917, -0.158224l 0.438917, -0.159597l 0.438917, -0.161001l 0.438917,
 -0.162437l 0.438917, -0.163906l 0.438917, -0.165408l 0.438917, -0.166946l 0.438917, -0.16852l 0.438917, -0.170132l 0.438917, -0.171783l 0.438917, -0.173474l 0.438917, -0.175208l 0.438917, -0.176985l 0.438917, -0.178808l 0.438917, -0.180679l
 0.438917, -0.182598l 0.438917, -0.184568l 0.438917, -0.186592l 0.438917, -0.188671" fill="none" stroke="#ff0000" stroke-width="3"/>
<path d="M503.915,562.249l 0.438917, -0.190808l 0.438917, -0.193005l 0.438917, -0.195265l 0.438917, -0.197591l 0.438917, -0.199985l 0.438917, -0.202452l 0.438917, -0.204993l 0.438917, -0.207613l 0.438917, -0.210316l 0.438917, -0.213105l 0.438917,
 -0.215985l 0.438917, -0.21896l 0.438917, -0.222035l 0.438917, -0.225217l 0.438917, -0.228509l 0.438917, -0.231919l 0.438917, -0.235452l 0.438917, -0.239116l 0.438917, -0.242919l 0.438917, -0.246868l 0.438917, -0.250973l 0.438917, -0.255242l
 0.438917, -0.259686l 0.438917, -0.264317l 0.438917, -0.269147l 0.438917, -0.274188l 0.438917, -0.279456l 0.438917, -0.284967l 0.438917, -0.290738l 0.438917, -0.296788l 0.438917, -0.303139l 0.438917, -0.309814l 0.438917, -0.316839l 0.438917,
 -0.324243l 0.438917, -0.332059l 0.438917, -0.340322l 0.438917, -0.349073l 0.438917, -0.358357l 0.438917, -0.368226l 0.438917, -0.378738l 0.438917, -0.38996l 0.438917, -0.401968l 0.438917, -0.414849l 0.438917, -0.428704l 0.438917, -0.443652l
 0.438917, -0.459829l 0.438917, -0.477398l 0.438917, -0.496551l 0.438917, -0.517517" fill="none" stroke="#ff0000" stroke-width="3"/>
<path d="M525.421,547.791l 0.438917, -0.540573l 0.438917, -0.566056l 0.438917, -0.594379l 0.438917, -0.626059l 0.438917, -0.661745l 0.438917, -0.702267l 0.438917, -0.748706l 0.438917, -0.802495l 0.438917, -0.865576l 0.438917, -0.940652l 0.438917,
 -1.0316l 0.438917, -1.1442l 0.438917, -1.28748l 0.438917, -1.47636l 0.438917, -1.73756l 0.438917, -2.12425l 0.438917, -2.76058l 0.438917, -4.02612l 0.438917, -8.08682" fill="none" stroke="#ff0000" stroke-width="3"/>
<path d="M95.0638,690.186h 438.917" fill="none" stroke="black"/>
<path d="M95.0638,684.733v 5.45324" fill="none" stroke="black"/>
<path d="M103.842,687.459v 2.72662" fill="none" stroke="black"/>
<path d="M112.62,687.459v 2.72662" fill="none" stroke="black"/>
<path d="M121.399,687.459v 2.72662" fill="none" stroke="black"/>
<path d="M130.177,687.459v 2.72662" fill="none" stroke="black"/>
<path d="M138.955,684.733v 5.45324" fill="none" stroke="black"/>
<path d="M147.734,687.459v 2.72662" fill="none" stroke="black"/>
<path d="M156.512,687.459v 2.72662" fill="none" stroke="black"/>
<path d="M165.29,687.459v 2.72662" fill="none" stroke="black"/>
<path d="M174.069,687.459v 2.72662" fill="none" stroke="black"/>
<path d="M182.847,684.733v 5.45324" fill="none" stroke="black"/>
<path d="M191.625,687.459v 2.72662" fill="none" stroke="black"/>
<path d="M200.404,687.459v 2.72662" fill="none" stroke="black"/>
<path d="M209.182,687.459v 2.72662" fill="none" stroke="black"/>
<path d="M217.96,687.459v 2.72662" fill="none" stroke="black"/>
<path d="M226.739,684.733v 5.45324" fill="none" stroke="black"/>
<path d="M235.517,687.459v 2.72662" fill="none" stroke="black"/>
<path d="M244.295,687.459v 2.72662" fill="none" stroke="black"/>
<path d="M253.074,687.459v 2.72662" fill="none" stroke="black"/>
<path d="M261.852,687.459v 2.72662" fill="none" stroke="black"/>
<path d="M270.63,684.733v 5.45324" fill="none" stroke="black"/>
<path d="M279.409,687.459v 2.72662" fill="none" stroke="black"/>
<path d="M288.187,687.459v 2.72662" fill="none" stroke="black"/>
<path d="M296.965,687.459v 2.72662" fill="none" stroke="black"/>
<path d="M305.744,687.459v 2.72662" fill="none" stroke="black"/>
<path d="M314.522,684.733v 5.45324" fill="none" stroke="black"/>
<path d="M323.3,687.459v 2.72662" fill="none" stroke="black"/>
<path d="M332.079,687.459v 2.72662" fill="none" stroke="black"/>
<path d="M340.857,687.459v 2.72662" fill="none" stroke="black"/>
<path d="M349.635,687.459v 2.72662" fill="none" stroke="black"/>
<path d="M358.414,684.733v 5.45324" fill="none" stroke="black"/>
<path d="M367.192,687.459v 2.72662" fill="none" stroke="black"/>
<path d="M375.97,687.459v 2.72662" fill="none" stroke="black"/>
<path d="M384.749,687.459v 2.72662" fill="none" stroke="black"/>
<path d="M393.527,687.459v 2.72662" fill="none" stroke="black"/>
<path d="M402.305,684.733v 5.45324" fill="none" stroke="black"/>
<path d="M411.084,687.459v 2.72662" fill="none" stroke="black"/>
<path d="M419.862,687.459v 2.72662" fill="none" stroke="black"/>
<path d="M428.64,687.459v 2.72662" fill="none" stroke="black"/>
<path d="M437.419,687.459v 2.72662" fill="none" stroke="black"/>
<path d="M446.197,684.733v 5.45324" fill="none" stroke="black"/>
<path d="M454.975,687.459v 2.72662" fill="none" stroke="black"/>
<path d="M463.754,687.459v 2.72662" fill="none" stroke="black"/>
<path d="M472.532,687.459v 2.72662" fill="none" stroke="black"/>
<path d="M481.31,687.459v 2.72662" fill="none" stroke="black"/>
<path d="M490.089,684.733v 5.45324" fill="none" stroke="black"/>
<path d="M498.867,687.459v 2.72662" fill="none" stroke="black"/>
<path d="M507.645,687.459v 2.72662" fill="none" stroke="black"/>
<path d="M516.424,687.459v 2.72662" fill="none" stroke="black"/>
<path d="M525.202,687.459v 2.72662" fill="none" stroke="black"/>
<path d="M533.98,684.733v 5.45324" fill="none" stroke="black"/>
<text xml:space="preserve" x="90.8662" y="702.003" fill="black" font-size="13.1658" font-family="Helvetica">0
</text>
<text xml:space="preserve" x="130.818" y="702.003" fill="black" font-size="13.1658" font-family="Helvetica">0.1
</text>
<text xml:space="preserve" x="173.623" y="702.003" fill="black" font-size="13.1658" font-family="Helvetica">0.2
</text>
<text xml:space="preserve" x="217.379" y="702.003" fill="black" font-size="13.1658" font-family="Helvetica">0.3
</text>
<text xml:space="preserve" x="261.135" y="702.003" fill="black" font-size="13.1658" font-family="Helvetica">0.4
</text>
<text xml:space="preserve" x="304.891" y="702.003" fill="black" font-size="13.1658" font-family="Helvetica">0.5
</text>
<text xml:space="preserve" x="348.648" y="702.003" fill="black" font-size="13.1658" font-family="Helvetica">0.6
</text>
<text xml:space="preserve" x="392.404" y="702.003" fill="black" font-size="13.1658" font-family="Helvetica">0.7
</text>
<text xml:space="preserve" x="437.112" y="702.003" fill="black" font-size="13.1658" font-family="Helvetica">0.8
</text>
<text xml:space="preserve" x="480.868" y="702.003" fill="black" font-size="13.1658" font-family="Helvetica">0.9
</text>
<text xml:space="preserve" x="531.283" y="702.003" fill="black" font-size="13.1658" font-family="Helvetica">1
</text>
<text xml:space="preserve" x="525.575" y="706.759" fill="black" font-size="15.2767" font-family="Helvetica">p
</text>
<path d="M95.0638,508.411h 438.917" fill="none" stroke="black"/>
<path d="M95.0638,513.864v -5.45324" fill="none" stroke="black"/>
<path d="M103.842,511.138v -2.72662" fill="none" stroke="black"/>
<path d="M112.62,511.138v -2.72662" fill="none" stroke="black"/>
<path d="M121.399,511.138v -2.72662" fill="none" stroke="black"/>
<path d="M130.177,511.138v -2.72662" fill="none" stroke="black"/>
<path d="M138.955,513.864v -5.45324" fill="none" stroke="black"/>
<path d="M147.734,511.138v -2.72662" fill="none" stroke="black"/>
<path d="M156.512,511.138v -2.72662" fill="none" stroke="black"/>
<path d="M165.29,511.138v -2.72662" fill="none" stroke="black"/>
<path d="M174.069,511.138v -2.72662" fill="none" stroke="black"/>
<path d="M182.847,513.864v -5.45324" fill="none" stroke="black"/>
<path d="M191.625,511.138v -2.72662" fill="none" stroke="black"/>
<path d="M200.404,511.138v -2.72662" fill="none" stroke="black"/>
<path d="M209.182,511.138v -2.72662" fill="none" stroke="black"/>
<path d="M217.96,511.138v -2.72662" fill="none" stroke="black"/>
<path d="M226.739,513.864v -5.45324" fill="none" stroke="black"/>
<path d="M235.517,511.138v -2.72662" fill="none" stroke="black"/>
<path d="M244.295,511.138v -2.72662" fill="none" stroke="black"/>
<path d="M253.074,511.138v -2.72662" fill="none" stroke="black"/>
<path d="M261.852,511.138v -2.72662" fill="none" stroke="black"/>
<path d="M270.63,513.864v -5.45324" fill="none" stroke="black"/>
<path d="M279.409,511.138v -2.72662" fill="none" stroke="black"/>
<path d="M288.187,511.138v -2.72662" fill="none" stroke="black"/>
<path d="M296.965,511.138v -2.72662" fill="none" stroke="black"/>
<path d="M305.744,511.138v -2.72662" fill="none" stroke="black"/>
<path d="M314.522,513.864v -5.45324" fill="none" stroke="black"/>
<path d="M323.3,511.138v -2.72662" fill="none" stroke="black"/>
<path d="M332.079,511.138v -2.72662" fill="none" stroke="black"/>
<path d="M340.857,511.138v -2.72662" fill="none" stroke="black"/>
<path d="M349.635,511.138v -2.72662" fill="none" stroke="black"/>
<path d="M358.414,513.864v -5.45324" fill="none" stroke="black"/>
<path d="M367.192,511.138v -2.72662" fill="none" stroke="black"/>
<path d="M375.97,511.138v -2.72662" fill="none" stroke="black"/>
<path d="M384.749,511.138v -2.72662" fill="none" stroke="black"/>
<path d="M393.527,511.138v -2.72662" fill="none" stroke="black"/>
<path d="M402.305,513.864v -5.45324" fill="none" stroke="black"/>
<path d="M411.084,511.138v -2.72662" fill="none" stroke="black"/>
<path d="M419.862,511.138v -2.72662" fill="none" stroke="black"/>
<path d="M428.64,511.138v -2.72662" fill="none" stroke="black"/>
<path d="M437.419,511.138v -2.72662" fill="none" stroke="black"/>
<path d="M446.197,513.864v -5.45324" fill="none" stroke="black"/>
<path d="M454.975,511.138v -2.72662" fill="none" stroke="black"/>
<path d="M463.754,511.138v -2.72662" fill="none" stroke="black"/>
<path d="M472.532,511.138v -2.72662" fill="none" stroke="black"/>
<path d="M481.31,511.138v -2.72662" fill="none" stroke="black"/>
<path d="M490.089,513.864v -5.45324" fill="none" stroke="black"/>
<path d="M498.867,511.138v -2.72662" fill="none" stroke="black"/>
<path d="M507.645,511.138v -2.72662" fill="none" stroke="black"/>
<path d="M516.424,511.138v -2.72662" fill="none" stroke="black"/>
<path d="M525.202,511.138v -2.72662" fill="none" stroke="black"/>
<path d="M533.98,513.864v -5.45324" fill="none" stroke="black"/>
<path d="M95.0638,690.186v -181.775" fill="none" stroke="black"/>
<path d="M108.231,674.664h -13.1675" fill="none" stroke="black"/>
<path d="M101.648,669.653h -6.58375" fill="none" stroke="black"/>
<path d="M101.648,664.642h -6.58375" fill="none" stroke="black"/>
<path d="M101.648,659.632h -6.58375" fill="none" stroke="black"/>
<path d="M101.648,654.621h -6.58375" fill="none" stroke="black"/>
<path d="M108.231,649.611h -13.1675" fill="none" stroke="black"/>
<path d="M101.648,644.6h -6.58375" fill="none" stroke="black"/>
<path d="M101.648,639.589h -6.58375" fill="none" stroke="black"/>
<path d="M101.648,634.579h -6.58375" fill="none" stroke="black"/>
<path d="M101.648,629.568h -6.58375" fill="none" stroke="black"/>
<path d="M108.231,624.558h -13.1675" fill="none" stroke="black"/>
<path d="M101.648,619.547h -6.58375" fill="none" stroke="black"/>
<path d="M101.648,614.536h -6.58375" fill="none" stroke="black"/>
<path d="M101.648,609.526h -6.58375" fill="none" stroke="black"/>
<path d="M101.648,604.515h -6.58375" fill="none" stroke="black"/>
<path d="M108.231,599.505h -13.1675" fill="none" stroke="black"/>
<path d="M101.648,594.494h -6.58375" fill="none" stroke="black"/>
<path d="M101.648,589.483h -6.58375" fill="none" stroke="black"/>
<path d="M101.648,584.473h -6.58375" fill="none" stroke="black"/>
<path d="M101.648,579.462h -6.58375" fill="none" stroke="black"/>
<path d="M108.231,574.452h -13.1675" fill="none" stroke="black"/>
<path d="M101.648,569.441h -6.58375" fill="none" stroke="black"/>
<path d="M101.648,564.43h -6.58375" fill="none" stroke="black"/>
<path d="M101.648,559.42h -6.58375" fill="none" stroke="black"/>
<path d="M101.648,554.409h -6.58375" fill="none" stroke="black"/>
<path d="M108.231,549.399h -13.1675" fill="none" stroke="black"/>
<path d="M101.648,544.388h -6.58375" fill="none" stroke="black"/>
<path d="M101.648,539.377h -6.58375" fill="none" stroke="black"/>
<path d="M101.648,534.367h -6.58375" fill="none" stroke="black"/>
<path d="M101.648,529.356h -6.58375" fill="none" stroke="black"/>
<path d="M108.231,524.346h -13.1675" fill="none" stroke="black"/>
<path d="M108.231,674.664h -13.1675" fill="none" stroke="black"/>
<path d="M101.648,679.674h -6.58375" fill="none" stroke="black"/>
<path d="M101.648,684.685h -6.58375" fill="none" stroke="black"/>
<path d="M101.648,689.695h -6.58375" fill="none" stroke="black"/>
<path d="M108.231,524.346h -13.1675" fill="none" stroke="black"/>
<path d="M101.648,519.335h -6.58375" fill="none" stroke="black"/>
<path d="M101.648,514.324h -6.58375" fill="none" stroke="black"/>
<path d="M101.648,509.314h -6.58375" fill="none" stroke="black"/>
<text xml:space="preserve" x="84.2077" y="679.173" fill="black" font-size="13.1658" font-family="Helvetica">3
</text>
<text xml:space="preserve" x="76.5979" y="679.173" fill="black" font-size="13.1658" font-family="Times">&#8722;
</text>
<text xml:space="preserve" x="84.2077" y="655.393" fill="black" font-size="13.1658" font-family="Helvetica">2
</text>
<text xml:space="preserve" x="76.5979" y="655.393" fill="black" font-size="13.1658" font-family="Times">&#8722;
</text>
<text xml:space="preserve" x="87.0613" y="630.661" fill="black" font-size="13.1658" font-family="Helvetica">1
</text>
<text xml:space="preserve" x="79.4515" y="630.661" fill="black" font-size="13.1658" font-family="Times">&#8722;
</text>
<text xml:space="preserve" x="84.2077" y="604.027" fill="black" font-size="13.1658" font-family="Helvetica">0
</text>
<text xml:space="preserve" x="87.0613" y="580.246" fill="black" font-size="13.1658" font-family="Helvetica">1
</text>
<text xml:space="preserve" x="84.2077" y="555.514" fill="black" font-size="13.1658" font-family="Helvetica">2
</text>
<text xml:space="preserve" x="84.2077" y="528.88" fill="black" font-size="13.1658" font-family="Helvetica">3
</text>
<g transform="rotate(-90,65.1832,515.563)">
<text xml:space="preserve" x="65.1832" y="515.563" fill="black" font-size="15.2767" font-family="Helvetica">x
</text>
</g>
<path d="M533.98,690.186v -181.775" fill="none" stroke="black"/>
<path d="M520.813,674.664h 13.1675" fill="none" stroke="black"/>
<path d="M527.397,669.653h 6.58375" fill="none" stroke="black"/>
<path d="M527.397,664.642h 6.58375" fill="none" stroke="black"/>
<path d="M527.397,659.632h 6.58375" fill="none" stroke="black"/>
<path d="M527.397,654.621h 6.58375" fill="none" stroke="black"/>
<path d="M520.813,649.611h 13.1675" fill="none" stroke="black"/>
<path d="M527.397,644.6h 6.58375" fill="none" stroke="black"/>
<path d="M527.397,639.589h 6.58375" fill="none" stroke="black"/>
<path d="M527.397,634.579h 6.58375" fill="none" stroke="black"/>
<path d="M527.397,629.568h 6.58375" fill="none" stroke="black"/>
<path d="M520.813,624.558h 13.1675" fill="none" stroke="black"/>
<path d="M527.397,619.547h 6.58375" fill="none" stroke="black"/>
<path d="M527.397,614.536h 6.58375" fill="none" stroke="black"/>
<path d="M527.397,609.526h 6.58375" fill="none" stroke="black"/>
<path d="M527.397,604.515h 6.58375" fill="none" stroke="black"/>
<path d="M520.813,599.505h 13.1675" fill="none" stroke="black"/>
<path d="M527.397,594.494h 6.58375" fill="none" stroke="black"/>
<path d="M527.397,589.483h 6.58375" fill="none" stroke="black"/>
<path d="M527.397,584.473h 6.58375" fill="none" stroke="black"/>
<path d="M527.397,579.462h 6.58375" fill="none" stroke="black"/>
<path d="M520.813,574.452h 13.1675" fill="none" stroke="black"/>
<path d="M527.397,569.441h 6.58375" fill="none" stroke="black"/>
<path d="M527.397,564.43h 6.58375" fill="none" stroke="black"/>
<path d="M527.397,559.42h 6.58375" fill="none" stroke="black"/>
<path d="M527.397,554.409h 6.58375" fill="none" stroke="black"/>
<path d="M520.813,549.399h 13.1675" fill="none" stroke="black"/>
<path d="M527.397,544.388h 6.58375" fill="none" stroke="black"/>
<path d="M527.397,539.377h 6.58375" fill="none" stroke="black"/>
<path d="M527.397,534.367h 6.58375" fill="none" stroke="black"/>
<path d="M527.397,529.356h 6.58375" fill="none" stroke="black"/>
<path d="M520.813,524.346h 13.1675" fill="none" stroke="black"/>
<path d="M520.813,674.664h 13.1675" fill="none" stroke="black"/>
<path d="M527.397,679.674h 6.58375" fill="none" stroke="black"/>
<path d="M527.397,684.685h 6.58375" fill="none" stroke="black"/>
<path d="M527.397,689.695h 6.58375" fill="none" stroke="black"/>
<path d="M520.813,524.346h 13.1675" fill="none" stroke="black"/>
<path d="M527.397,519.335h 6.58375" fill="none" stroke="black"/>
<path d="M527.397,514.324h 6.58375" fill="none" stroke="black"/>
<path d="M527.397,509.314h 6.58375" fill="none" stroke="black"/>
<path d="M95.2832,517.067l 0.438917, 8.08682l 0.438917, 4.02612l 0.438917, 2.76058l 0.438917, 2.12425l 0.438917, 1.73756l 0.438917, 1.47636l 0.438917, 1.28748l 0.438917, 1.1442l 0.438917, 1.0316l 0.438917, 0.940652l 0.438917, 0.865576l 0.438917,
 0.802495l 0.438917, 0.748706l 0.438917, 0.702267l 0.438917, 0.661745l 0.438917, 0.626059l 0.438917, 0.594379l 0.438917, 0.566056l 0.438917, 0.540573l 0.438917, 0.517517l 0.438917, 0.496551l 0.438917, 0.477398l 0.438917, 0.459829l 0.438917, 0.443652l
 0.438917, 0.428704l 0.438917, 0.414849l 0.438917, 0.401968l 0.438917, 0.38996l 0.438917, 0.378738l 0.438917, 0.368226l 0.438917, 0.358357l 0.438917, 0.349073l 0.438917, 0.340322l 0.438917, 0.332059l 0.438917, 0.324243l 0.438917, 0.316839l 0.438917,
 0.309814l 0.438917, 0.303139l 0.438917, 0.296788l 0.438917, 0.290738l 0.438917, 0.284967l 0.438917, 0.279456l 0.438917, 0.274188l 0.438917, 0.269147l 0.438917, 0.264317l 0.438917, 0.259686l 0.438917, 0.255242l 0.438917, 0.250973l 0.438917, 0.246868"
 fill="none" stroke="#00ff00" stroke-width="3"/>
<path d="M116.79,558.174l 0.438917, 0.242919l 0.438917, 0.239116l 0.438917, 0.235452l 0.438917, 0.231919l 0.438917, 0.228509l 0.438917, 0.225217l 0.438917, 0.222035l 0.438917, 0.21896l 0.438917, 0.215985l 0.438917, 0.213105l 0.438917, 0.210316l
 0.438917, 0.207613l 0.438917, 0.204993l 0.438917, 0.202452l 0.438917, 0.199985l 0.438917, 0.197591l 0.438917, 0.195265l 0.438917, 0.193005l 0.438917, 0.190808l 0.438917, 0.188671l 0.438917, 0.186592l 0.438917, 0.184568l 0.438917, 0.182598l 0.438917,
 0.180679l 0.438917, 0.178808l 0.438917, 0.176985l 0.438917, 0.175208l 0.438917, 0.173474l 0.438917, 0.171783l 0.438917, 0.170132l 0.438917, 0.16852l 0.438917, 0.166946l 0.438917, 0.165408l 0.438917, 0.163906l 0.438917, 0.162437l 0.438917, 0.161001l
 0.438917, 0.159597l 0.438917, 0.158224l 0.438917, 0.15688l 0.438917, 0.155565l 0.438917, 0.154277l 0.438917, 0.153017l 0.438917, 0.151782l 0.438917, 0.150573l 0.438917, 0.149388l 0.438917, 0.148227l 0.438917, 0.147089l 0.438917, 0.145974l 0.438917,
 0.14488" fill="none" stroke="#00ff00" stroke-width="3"/>
<path d="M138.297,567.183l 0.438917, 0.143807l 0.438917, 0.142754l 0.438917, 0.141722l 0.438917, 0.140708l 0.438917, 0.139714l 0.438917, 0.138737l 0.438917, 0.137779l 0.438917, 0.136838l 0.438917, 0.135913l 0.438917, 0.135005l 0.438917, 0.134113l
 0.438917, 0.133236l 0.438917, 0.132374l 0.438917, 0.131527l 0.438917, 0.130695l 0.438917, 0.129876l 0.438917, 0.129072l 0.438917, 0.12828l 0.438917, 0.127501l 0.438917, 0.126735l 0.438917, 0.125982l 0.438917, 0.12524l 0.438917, 0.12451l 0.438917,
 0.123792l 0.438917, 0.123085l 0.438917, 0.122389l 0.438917, 0.121703l 0.438917, 0.121028l 0.438917, 0.120364l 0.438917, 0.119709l 0.438917, 0.119064l 0.438917, 0.118429l 0.438917, 0.117803l 0.438917, 0.117186l 0.438917, 0.116578l 0.438917, 0.115979l
 0.438917, 0.115389l 0.438917, 0.114807l 0.438917, 0.114233l 0.438917, 0.113667l 0.438917, 0.113109l 0.438917, 0.112559l 0.438917, 0.112017l 0.438917, 0.111481l 0.438917, 0.110954l 0.438917, 0.110433l 0.438917, 0.109919l 0.438917, 0.109412l 0.438917,
 0.108912" fill="none" stroke="#00ff00" stroke-width="3"/>
<path d="M159.804,573.269l 0.438917, 0.108418l 0.438917, 0.107931l 0.438917, 0.107451l 0.438917, 0.106976l 0.438917, 0.106508l 0.438917, 0.106045l 0.438917, 0.105589l 0.438917, 0.105138l 0.438917, 0.104693l 0.438917, 0.104253l 0.438917, 0.103819l
 0.438917, 0.10339l 0.438917, 0.102967l 0.438917, 0.102549l 0.438917, 0.102135l 0.438917, 0.101727l 0.438917, 0.101324l 0.438917, 0.100925l 0.438917, 0.100532l 0.438917, 0.100143l 0.438917, 0.0997583l 0.438917, 0.0993784l 0.438917, 0.0990029l
 0.438917, 0.0986318l 0.438917, 0.0982649l 0.438917, 0.0979023l 0.438917, 0.0975438l 0.438917, 0.0971894l 0.438917, 0.096839l 0.438917, 0.0964926l 0.438917, 0.0961501l 0.438917, 0.0958114l 0.438917, 0.0954765l 0.438917, 0.0951452l 0.438917,
 0.0948177l 0.438917, 0.0944937l 0.438917, 0.0941733l 0.438917, 0.0938563l 0.438917, 0.0935428l 0.438917, 0.0932327l 0.438917, 0.0929259l 0.438917, 0.0926224l 0.438917, 0.0923221l 0.438917, 0.092025l 0.438917, 0.0917311l 0.438917, 0.0914402l
 0.438917, 0.0911524l 0.438917, 0.0908676l 0.438917, 0.0905858" fill="none" stroke="#00ff00" stroke-width="3"/>
<path d="M181.311,578.105l 0.438917, 0.0903069l 0.438917, 0.0900308l 0.438917, 0.0897576l 0.438917, 0.0894872l 0.438917, 0.0892196l 0.438917, 0.0889547l 0.438917, 0.0886924l 0.438917, 0.0884328l 0.438917, 0.0881758l 0.438917, 0.0879214l 0.438917,
 0.0876696l 0.438917, 0.0874202l 0.438917, 0.0871733l 0.438917, 0.0869289l 0.438917, 0.0866868l 0.438917, 0.0864472l 0.438917, 0.0862099l 0.438917, 0.0859749l 0.438917, 0.0857421l 0.438917, 0.0855117l 0.438917, 0.0852834l 0.438917, 0.0850574l
 0.438917, 0.0848335l 0.438917, 0.0846118l 0.438917, 0.0843922l 0.438917, 0.0841747l 0.438917, 0.0839592l 0.438917, 0.0837458l 0.438917, 0.0835344l 0.438917, 0.083325l 0.438917, 0.0831175l 0.438917, 0.082912l 0.438917, 0.0827084l 0.438917, 0.0825067l
 0.438917, 0.0823069l 0.438917, 0.0821089l 0.438917, 0.0819128l 0.438917, 0.0817184l 0.438917, 0.0815259l 0.438917, 0.0813351l 0.438917, 0.081146l 0.438917, 0.0809587l 0.438917, 0.0807731l 0.438917, 0.0805892l 0.438917, 0.0804069l 0.438917,
 0.0802263l 0.438917, 0.0800473l 0.438917, 0.0798699l 0.438917, 0.0796941" fill="none" stroke="#00ff00" stroke-width="3"/>
<path d="M202.818,582.25l 0.438917, 0.0795199l 0.438917, 0.0793472l 0.438917, 0.0791761l 0.438917, 0.0790065l 0.438917, 0.0788384l 0.438917, 0.0786718l 0.438917, 0.0785067l 0.438917, 0.0783431l 0.438917, 0.0781808l 0.438917, 0.0780201l 0.438917,
 0.0778607l 0.438917, 0.0777027l 0.438917, 0.0775461l 0.438917, 0.0773909l 0.438917, 0.077237l 0.438917, 0.0770845l 0.438917, 0.0769333l 0.438917, 0.0767834l 0.438917, 0.0766348l 0.438917, 0.0764876l 0.438917, 0.0763415l 0.438917, 0.0761968l
 0.438917, 0.0760533l 0.438917, 0.075911l 0.438917, 0.07577l 0.438917, 0.0756302l 0.438917, 0.0754915l 0.438917, 0.0753541l 0.438917, 0.0752178l 0.438917, 0.0750827l 0.438917, 0.0749488l 0.438917, 0.074816l 0.438917, 0.0746844l 0.438917, 0.0745538l
 0.438917, 0.0744244l 0.438917, 0.0742961l 0.438917, 0.0741689l 0.438917, 0.0740428l 0.438917, 0.0739177l 0.438917, 0.0737937l 0.438917, 0.0736708l 0.438917, 0.0735489l 0.438917, 0.073428l 0.438917, 0.0733081l 0.438917, 0.0731893l 0.438917,
 0.0730715l 0.438917, 0.0729547l 0.438917, 0.0728388l 0.438917, 0.072724" fill="none" stroke="#00ff00" stroke-width="3"/>
<path d="M224.325,585.969l 0.438917, 0.0726101l 0.438917, 0.0724972l 0.438917, 0.0723852l 0.438917, 0.0722742l 0.438917, 0.0721642l 0.438917, 0.072055l 0.438917, 0.0719468l 0.438917, 0.0718395l 0.438917, 0.0717331l 0.438917, 0.0716276l 0.438917,
 0.071523l 0.438917, 0.0714193l 0.438917, 0.0713165l 0.438917, 0.0712145l 0.438917, 0.0711134l 0.438917, 0.0710132l 0.438917, 0.0709138l 0.438917, 0.0708153l 0.438917, 0.0707176l 0.438917, 0.0706207l 0.438917, 0.0705247l 0.438917, 0.0704294l
 0.438917, 0.070335l 0.438917, 0.0702414l 0.438917, 0.0701486l 0.438917, 0.0700566l 0.438917, 0.0699653l 0.438917, 0.0698749l 0.438917, 0.0697852l 0.438917, 0.0696963l 0.438917, 0.0696082l 0.438917, 0.0695208l 0.438917, 0.0694342l 0.438917,
 0.0693483l 0.438917, 0.0692632l 0.438917, 0.0691788l 0.438917, 0.0690951l 0.438917, 0.0690121l 0.438917, 0.0689299l 0.438917, 0.0688484l 0.438917, 0.0687676l 0.438917, 0.0686875l 0.438917, 0.0686081l 0.438917, 0.0685295l 0.438917, 0.0684515l
 0.438917, 0.0683742l 0.438917, 0.0682975l 0.438917, 0.0682216l 0.438917, 0.0681463" fill="none" stroke="#00ff00" stroke-width="3"/>
<path d="M245.832,589.41l 0.438917, 0.0680717l 0.438917, 0.0679978l 0.438917, 0.0679245l 0.438917, 0.0678518l 0.438917, 0.0677799l 0.438917, 0.0677085l 0.438917, 0.0676379l 0.438917, 0.0675678l 0.438917, 0.0674984l 0.438917, 0.0674296l 0.438917,
 0.0673615l 0.438917, 0.067294l 0.438917, 0.0672271l 0.438917, 0.0671608l 0.438917, 0.0670951l 0.438917, 0.06703l 0.438917, 0.0669656l 0.438917, 0.0669017l 0.438917, 0.0668384l 0.438917, 0.0667757l 0.438917, 0.0667137l 0.438917, 0.0666522l 0.438917,
 0.0665913l 0.438917, 0.0665309l 0.438917, 0.0664712l 0.438917, 0.066412l 0.438917, 0.0663534l 0.438917, 0.0662954l 0.438917, 0.0662379l 0.438917, 0.066181l 0.438917, 0.0661246l 0.438917, 0.0660689l 0.438917, 0.0660136l 0.438917, 0.0659589l 0.438917,
 0.0659048l 0.438917, 0.0658512l 0.438917, 0.0657981l 0.438917, 0.0657456l 0.438917, 0.0656936l 0.438917, 0.0656422l 0.438917, 0.0655912l 0.438917, 0.0655408l 0.438917, 0.065491l 0.438917, 0.0654416l 0.438917, 0.0653928l 0.438917, 0.0653445l
 0.438917, 0.0652967l 0.438917, 0.0652494l 0.438917, 0.0652026" fill="none" stroke="#00ff00" stroke-width="3"/>
<path d="M267.339,592.67l 0.438917, 0.0651564l 0.438917, 0.0651106l 0.438917, 0.0650654l 0.438917, 0.0650206l 0.438917, 0.0649764l 0.438917, 0.0649326l 0.438917, 0.0648894l 0.438917, 0.0648466l 0.438917, 0.0648043l 0.438917, 0.0647625l 0.438917,
 0.0647212l 0.438917, 0.0646804l 0.438917, 0.0646401l 0.438917, 0.0646002l 0.438917, 0.0645608l 0.438917, 0.0645219l 0.438917, 0.0644835l 0.438917, 0.0644455l 0.438917, 0.064408l 0.438917, 0.064371l 0.438917, 0.0643345l 0.438917, 0.0642984l 0.438917,
 0.0642628l 0.438917, 0.0642276l 0.438917, 0.0641929l 0.438917, 0.0641587l 0.438917, 0.0641249l 0.438917, 0.0640915l 0.438917, 0.0640587l 0.438917, 0.0640262l 0.438917, 0.0639943l 0.438917, 0.0639627l 0.438917, 0.0639317l 0.438917, 0.063901l
 0.438917, 0.0638708l 0.438917, 0.0638411l 0.438917, 0.0638118l 0.438917, 0.0637829l 0.438917, 0.0637545l 0.438917, 0.0637265l 0.438917, 0.063699l 0.438917, 0.0636719l 0.438917, 0.0636452l 0.438917, 0.063619l 0.438917, 0.0635931l 0.438917, 0.0635678l
 0.438917, 0.0635428l 0.438917, 0.0635183l 0.438917, 0.0634942" fill="none" stroke="#00ff00" stroke-width="3"/>
<path d="M288.845,595.818l 0.438917, 0.0634705l 0.438917, 0.0634473l 0.438917, 0.0634244l 0.438917, 0.063402l 0.438917, 0.06338l 0.438917, 0.0633585l 0.438917, 0.0633373l 0.438917, 0.0633166l 0.438917, 0.0632963l 0.438917, 0.0632764l 0.438917,
 0.063257l 0.438917, 0.0632379l 0.438917, 0.0632193l 0.438917, 0.063201l 0.438917, 0.0631832l 0.438917, 0.0631658l 0.438917, 0.0631488l 0.438917, 0.0631322l 0.438917, 0.0631161l 0.438917, 0.0631003l 0.438917, 0.0630849l 0.438917, 0.06307l 0.438917,
 0.0630554l 0.438917, 0.0630413l 0.438917, 0.0630276l 0.438917, 0.0630142l 0.438917, 0.0630013l 0.438917, 0.0629888l 0.438917, 0.0629767l 0.438917, 0.062965l 0.438917, 0.0629537l 0.438917, 0.0629428l 0.438917, 0.0629322l 0.438917, 0.0629221l
 0.438917, 0.0629124l 0.438917, 0.0629031l 0.438917, 0.0628942l 0.438917, 0.0628857l 0.438917, 0.0628776l 0.438917, 0.0628699l 0.438917, 0.0628625l 0.438917, 0.0628556l 0.438917, 0.0628491l 0.438917, 0.062843l 0.438917, 0.0628372l 0.438917,
 0.0628319l 0.438917, 0.062827l 0.438917, 0.0628224l 0.438917, 0.0628183" fill="none" stroke="#00ff00" stroke-width="3"/>
<path d="M310.352,598.908l 0.438917, 0.0628145l 0.438917, 0.0628112l 0.438917, 0.0628082l 0.438917, 0.0628056l 0.438917, 0.0628035l 0.438917, 0.0628017l 0.438917, 0.0628003l 0.438917, 0.0627993l 0.438917, 0.0627987l 0.438917, 0.0627985l 0.438917,
 0.0627987l 0.438917, 0.0627993l 0.438917, 0.0628003l 0.438917, 0.0628017l 0.438917, 0.0628035l 0.438917, 0.0628056l 0.438917, 0.0628082l 0.438917, 0.0628112l 0.438917, 0.0628145l 0.438917, 0.0628183l 0.438917, 0.0628224l 0.438917, 0.062827l
 0.438917, 0.0628319l 0.438917, 0.0628372l 0.438917, 0.062843l 0.438917, 0.0628491l 0.438917, 0.0628556l 0.438917, 0.0628625l 0.438917, 0.0628699l 0.438917, 0.0628776l 0.438917, 0.0628857l 0.438917, 0.0628942l 0.438917, 0.0629031l 0.438917,
 0.0629124l 0.438917, 0.0629221l 0.438917, 0.0629322l 0.438917, 0.0629428l 0.438917, 0.0629537l 0.438917, 0.062965l 0.438917, 0.0629767l 0.438917, 0.0629888l 0.438917, 0.0630013l 0.438917, 0.0630142l 0.438917, 0.0630276l 0.438917, 0.0630413l
 0.438917, 0.0630554l 0.438917, 0.06307l 0.438917, 0.0630849l 0.438917, 0.0631003" fill="none" stroke="#00ff00" stroke-width="3"/>
<path d="M331.859,601.989l 0.438917, 0.0631161l 0.438917, 0.0631322l 0.438917, 0.0631488l 0.438917, 0.0631658l 0.438917, 0.0631832l 0.438917, 0.063201l 0.438917, 0.0632193l 0.438917, 0.0632379l 0.438917, 0.063257l 0.438917, 0.0632764l 0.438917,
 0.0632963l 0.438917, 0.0633166l 0.438917, 0.0633373l 0.438917, 0.0633585l 0.438917, 0.06338l 0.438917, 0.063402l 0.438917, 0.0634244l 0.438917, 0.0634473l 0.438917, 0.0634705l 0.438917, 0.0634942l 0.438917, 0.0635183l 0.438917, 0.0635428l 0.438917,
 0.0635678l 0.438917, 0.0635931l 0.438917, 0.063619l 0.438917, 0.0636452l 0.438917, 0.0636719l 0.438917, 0.063699l 0.438917, 0.0637265l 0.438917, 0.0637545l 0.438917, 0.0637829l 0.438917, 0.0638118l 0.438917, 0.0638411l 0.438917, 0.0638708l 0.438917,
 0.063901l 0.438917, 0.0639317l 0.438917, 0.0639627l 0.438917, 0.0639943l 0.438917, 0.0640262l 0.438917, 0.0640587l 0.438917, 0.0640915l 0.438917, 0.0641249l 0.438917, 0.0641587l 0.438917, 0.0641929l 0.438917, 0.0642276l 0.438917, 0.0642628l
 0.438917, 0.0642984l 0.438917, 0.0643345l 0.438917, 0.064371" fill="none" stroke="#00ff00" stroke-width="3"/>
<path d="M353.366,605.109l 0.438917, 0.064408l 0.438917, 0.0644455l 0.438917, 0.0644835l 0.438917, 0.0645219l 0.438917, 0.0645608l 0.438917, 0.0646002l 0.438917, 0.0646401l 0.438917, 0.0646804l 0.438917, 0.0647212l 0.438917, 0.0647625l 0.438917,
 0.0648043l 0.438917, 0.0648466l 0.438917, 0.0648894l 0.438917, 0.0649326l 0.438917, 0.0649764l 0.438917, 0.0650206l 0.438917, 0.0650654l 0.438917, 0.0651106l 0.438917, 0.0651564l 0.438917, 0.0652026l 0.438917, 0.0652494l 0.438917, 0.0652967l
 0.438917, 0.0653445l 0.438917, 0.0653928l 0.438917, 0.0654416l 0.438917, 0.065491l 0.438917, 0.0655408l 0.438917, 0.0655912l 0.438917, 0.0656422l 0.438917, 0.0656936l 0.438917, 0.0657456l 0.438917, 0.0657981l 0.438917, 0.0658512l 0.438917,
 0.0659048l 0.438917, 0.0659589l 0.438917, 0.0660136l 0.438917, 0.0660689l 0.438917, 0.0661246l 0.438917, 0.066181l 0.438917, 0.0662379l 0.438917, 0.0662954l 0.438917, 0.0663534l 0.438917, 0.066412l 0.438917, 0.0664712l 0.438917, 0.0665309l 0.438917,
 0.0665913l 0.438917, 0.0666522l 0.438917, 0.0667137l 0.438917, 0.0667757" fill="none" stroke="#00ff00" stroke-width="3"/>
<path d="M374.873,608.318l 0.438917, 0.0668384l 0.438917, 0.0669017l 0.438917, 0.0669656l 0.438917, 0.06703l 0.438917, 0.0670951l 0.438917, 0.0671608l 0.438917, 0.0672271l 0.438917, 0.067294l 0.438917, 0.0673615l 0.438917, 0.0674296l 0.438917,
 0.0674984l 0.438917, 0.0675678l 0.438917, 0.0676379l 0.438917, 0.0677085l 0.438917, 0.0677799l 0.438917, 0.0678518l 0.438917, 0.0679245l 0.438917, 0.0679978l 0.438917, 0.0680717l 0.438917, 0.0681463l 0.438917, 0.0682216l 0.438917, 0.0682975l
 0.438917, 0.0683742l 0.438917, 0.0684515l 0.438917, 0.0685295l 0.438917, 0.0686081l 0.438917, 0.0686875l 0.438917, 0.0687676l 0.438917, 0.0688484l 0.438917, 0.0689299l 0.438917, 0.0690121l 0.438917, 0.0690951l 0.438917, 0.0691788l 0.438917,
 0.0692632l 0.438917, 0.0693483l 0.438917, 0.0694342l 0.438917, 0.0695208l 0.438917, 0.0696082l 0.438917, 0.0696963l 0.438917, 0.0697852l 0.438917, 0.0698749l 0.438917, 0.0699653l 0.438917, 0.0700566l 0.438917, 0.0701486l 0.438917, 0.0702414l
 0.438917, 0.070335l 0.438917, 0.0704294l 0.438917, 0.0705247l 0.438917, 0.0706207" fill="none" stroke="#00ff00" stroke-width="3"/>
<path d="M396.38,611.679l 0.438917, 0.0707176l 0.438917, 0.0708153l 0.438917, 0.0709138l 0.438917, 0.0710132l 0.438917, 0.0711134l 0.438917, 0.0712145l 0.438917, 0.0713165l 0.438917, 0.0714193l 0.438917, 0.071523l 0.438917, 0.0716276l 0.438917,
 0.0717331l 0.438917, 0.0718395l 0.438917, 0.0719468l 0.438917, 0.072055l 0.438917, 0.0721642l 0.438917, 0.0722742l 0.438917, 0.0723852l 0.438917, 0.0724972l 0.438917, 0.0726101l 0.438917, 0.072724l 0.438917, 0.0728388l 0.438917, 0.0729547l 0.438917,
 0.0730715l 0.438917, 0.0731893l 0.438917, 0.0733081l 0.438917, 0.073428l 0.438917, 0.0735489l 0.438917, 0.0736708l 0.438917, 0.0737937l 0.438917, 0.0739177l 0.438917, 0.0740428l 0.438917, 0.0741689l 0.438917, 0.0742961l 0.438917, 0.0744244l
 0.438917, 0.0745538l 0.438917, 0.0746844l 0.438917, 0.074816l 0.438917, 0.0749488l 0.438917, 0.0750827l 0.438917, 0.0752178l 0.438917, 0.0753541l 0.438917, 0.0754915l 0.438917, 0.0756302l 0.438917, 0.07577l 0.438917, 0.075911l 0.438917, 0.0760533l
 0.438917, 0.0761968l 0.438917, 0.0763415l 0.438917, 0.0764876" fill="none" stroke="#00ff00" stroke-width="3"/>
<path d="M417.887,615.276l 0.438917, 0.0766348l 0.438917, 0.0767834l 0.438917, 0.0769333l 0.438917, 0.0770845l 0.438917, 0.077237l 0.438917, 0.0773909l 0.438917, 0.0775461l 0.438917, 0.0777027l 0.438917, 0.0778607l 0.438917, 0.0780201l 0.438917,
 0.0781808l 0.438917, 0.0783431l 0.438917, 0.0785067l 0.438917, 0.0786718l 0.438917, 0.0788384l 0.438917, 0.0790065l 0.438917, 0.0791761l 0.438917, 0.0793472l 0.438917, 0.0795199l 0.438917, 0.0796941l 0.438917, 0.0798699l 0.438917, 0.0800473l
 0.438917, 0.0802263l 0.438917, 0.0804069l 0.438917, 0.0805892l 0.438917, 0.0807731l 0.438917, 0.0809587l 0.438917, 0.081146l 0.438917, 0.0813351l 0.438917, 0.0815259l 0.438917, 0.0817184l 0.438917, 0.0819128l 0.438917, 0.0821089l 0.438917,
 0.0823069l 0.438917, 0.0825067l 0.438917, 0.0827084l 0.438917, 0.082912l 0.438917, 0.0831175l 0.438917, 0.083325l 0.438917, 0.0835344l 0.438917, 0.0837458l 0.438917, 0.0839592l 0.438917, 0.0841747l 0.438917, 0.0843922l 0.438917, 0.0846118l 0.438917,
 0.0848335l 0.438917, 0.0850574l 0.438917, 0.0852834l 0.438917, 0.0855117" fill="none" stroke="#00ff00" stroke-width="3"/>
<path d="M439.394,619.233l 0.438917, 0.0857421l 0.438917, 0.0859749l 0.438917, 0.0862099l 0.438917, 0.0864472l 0.438917, 0.0866868l 0.438917, 0.0869289l 0.438917, 0.0871733l 0.438917, 0.0874202l 0.438917, 0.0876696l 0.438917, 0.0879214l 0.438917,
 0.0881758l 0.438917, 0.0884328l 0.438917, 0.0886924l 0.438917, 0.0889547l 0.438917, 0.0892196l 0.438917, 0.0894872l 0.438917, 0.0897576l 0.438917, 0.0900308l 0.438917, 0.0903069l 0.438917, 0.0905858l 0.438917, 0.0908676l 0.438917, 0.0911524l
 0.438917, 0.0914402l 0.438917, 0.0917311l 0.438917, 0.092025l 0.438917, 0.0923221l 0.438917, 0.0926224l 0.438917, 0.0929259l 0.438917, 0.0932327l 0.438917, 0.0935428l 0.438917, 0.0938563l 0.438917, 0.0941733l 0.438917, 0.0944937l 0.438917,
 0.0948177l 0.438917, 0.0951452l 0.438917, 0.0954765l 0.438917, 0.0958114l 0.438917, 0.0961501l 0.438917, 0.0964926l 0.438917, 0.096839l 0.438917, 0.0971894l 0.438917, 0.0975438l 0.438917, 0.0979023l 0.438917, 0.0982649l 0.438917, 0.0986318l
 0.438917, 0.0990029l 0.438917, 0.0993784l 0.438917, 0.0997583l 0.438917, 0.100143" fill="none" stroke="#00ff00" stroke-width="3"/>
<path d="M460.901,623.758l 0.438917, 0.100532l 0.438917, 0.100925l 0.438917, 0.101324l 0.438917, 0.101727l 0.438917, 0.102135l 0.438917, 0.102549l 0.438917, 0.102967l 0.438917, 0.10339l 0.438917, 0.103819l 0.438917, 0.104253l 0.438917, 0.104693l
 0.438917, 0.105138l 0.438917, 0.105589l 0.438917, 0.106045l 0.438917, 0.106508l 0.438917, 0.106976l 0.438917, 0.107451l 0.438917, 0.107931l 0.438917, 0.108418l 0.438917, 0.108912l 0.438917, 0.109412l 0.438917, 0.109919l 0.438917, 0.110433l 0.438917,
 0.110954l 0.438917, 0.111481l 0.438917, 0.112017l 0.438917, 0.112559l 0.438917, 0.113109l 0.438917, 0.113667l 0.438917, 0.114233l 0.438917, 0.114807l 0.438917, 0.115389l 0.438917, 0.115979l 0.438917, 0.116578l 0.438917, 0.117186l 0.438917, 0.117803l
 0.438917, 0.118429l 0.438917, 0.119064l 0.438917, 0.119709l 0.438917, 0.120364l 0.438917, 0.121028l 0.438917, 0.121703l 0.438917, 0.122389l 0.438917, 0.123085l 0.438917, 0.123792l 0.438917, 0.12451l 0.438917, 0.12524l 0.438917, 0.125982l 0.438917,
 0.126735" fill="none" stroke="#00ff00" stroke-width="3"/>
<path d="M482.408,629.257l 0.438917, 0.127501l 0.438917, 0.12828l 0.438917, 0.129072l 0.438917, 0.129876l 0.438917, 0.130695l 0.438917, 0.131527l 0.438917, 0.132374l 0.438917, 0.133236l 0.438917, 0.134113l 0.438917, 0.135005l 0.438917, 0.135913l
 0.438917, 0.136838l 0.438917, 0.137779l 0.438917, 0.138737l 0.438917, 0.139714l 0.438917, 0.140708l 0.438917, 0.141722l 0.438917, 0.142754l 0.438917, 0.143807l 0.438917, 0.14488l 0.438917, 0.145974l 0.438917, 0.147089l 0.438917, 0.148227l 0.438917,
 0.149388l 0.438917, 0.150573l 0.438917, 0.151782l 0.438917, 0.153017l 0.438917, 0.154277l 0.438917, 0.155565l 0.438917, 0.15688l 0.438917, 0.158224l 0.438917, 0.159597l 0.438917, 0.161001l 0.438917, 0.162437l 0.438917, 0.163906l 0.438917, 0.165408l
 0.438917, 0.166946l 0.438917, 0.16852l 0.438917, 0.170132l 0.438917, 0.171783l 0.438917, 0.173474l 0.438917, 0.175208l 0.438917, 0.176985l 0.438917, 0.178808l 0.438917, 0.180679l 0.438917, 0.182598l 0.438917, 0.184568l 0.438917, 0.186592l 0.438917,
 0.188671" fill="none" stroke="#00ff00" stroke-width="3"/>
<path d="M503.915,636.76l 0.438917, 0.190808l 0.438917, 0.193005l 0.438917, 0.195265l 0.438917, 0.197591l 0.438917, 0.199985l 0.438917, 0.202452l 0.438917, 0.204993l 0.438917, 0.207613l 0.438917, 0.210316l 0.438917, 0.213105l 0.438917, 0.215985l
 0.438917, 0.21896l 0.438917, 0.222035l 0.438917, 0.225217l 0.438917, 0.228509l 0.438917, 0.231919l 0.438917, 0.235452l 0.438917, 0.239116l 0.438917, 0.242919l 0.438917, 0.246868l 0.438917, 0.250973l 0.438917, 0.255242l 0.438917, 0.259686l 0.438917,
 0.264317l 0.438917, 0.269147l 0.438917, 0.274188l 0.438917, 0.279456l 0.438917, 0.284967l 0.438917, 0.290738l 0.438917, 0.296788l 0.438917, 0.303139l 0.438917, 0.309814l 0.438917, 0.316839l 0.438917, 0.324243l 0.438917, 0.332059l 0.438917, 0.340322l
 0.438917, 0.349073l 0.438917, 0.358357l 0.438917, 0.368226l 0.438917, 0.378738l 0.438917, 0.38996l 0.438917, 0.401968l 0.438917, 0.414849l 0.438917, 0.428704l 0.438917, 0.443652l 0.438917, 0.459829l 0.438917, 0.477398l 0.438917, 0.496551l 0.438917,
 0.517517" fill="none" stroke="#00ff00" stroke-width="3"/>
<path d="M525.421,651.219l 0.438917, 0.540573l 0.438917, 0.566056l 0.438917, 0.594379l 0.438917, 0.626059l 0.438917, 0.661745l 0.438917, 0.702267l 0.438917, 0.748706l 0.438917, 0.802495l 0.438917, 0.865576l 0.438917, 0.940652l 0.438917, 1.0316l
 0.438917, 1.1442l 0.438917, 1.28748l 0.438917, 1.47636l 0.438917, 1.73756l 0.438917, 2.12425l 0.438917, 2.76058l 0.438917, 4.02612l 0.438917, 8.08682" fill="none" stroke="#00ff00" stroke-width="3"/>
<rect x="181.233" y="524.124" width="211.172" height="57.0734" fill="white"/>
<path d="M186.94,581.197v 3.80489h 209.269v -55.1709h -3.80489v 51.366z" fill="black"/>
<path d="M181.233,581.197v -57.0734h 211.172v 57.0734h -211.172z" fill="none" stroke="black"/>
<text xml:space="preserve" x="234.501" y="545.051" fill="black" font-size="16.9368" font-family="Helvetica" font-weight="bold">normal_quantile
</text>
<path d="M189.151,538.392h 36.955" fill="none" stroke="#ff0000" stroke-width="3"/>
<text xml:space="preserve" x="234.501" y="573.588" fill="black" font-size="16.9368" font-family="Helvetica" font-weight="bold">normal_quantile_c
</text>
<path d="M189.151,566.929h 36.955" fill="none" stroke="#00ff00" stroke-width="3"/></svg>
