<?xml version="1.0" standalone="no"?>
<svg width="567.429" height="384.969" viewBox="0 0 567.429 384.969" xmlns="http://www.w3.org/2000/svg" shape-rendering="crispEdges">
<title>
/Users/adrianduesselberg/root-graphic-tests/build/old_svg_pro/ratioplot3_pro.svg
</title>
<desc>
Creator: ROOT Version 6.32.02
CreationDate: Mon Sep  2 14:35:49 2024</desc>
<defs>
</defs>
<rect x="0.5" y="0" width="566.929" height="384.469" fill="white"/>
<rect x="1.91732" y="0.961173" width="564.094" height="268.167" fill="white"/>
<rect x="58.3268" y="27.7779" width="451.276" height="227.942" fill="white"/>
<rect x="58.3268" y="27.7779" width="451.276" height="227.942" fill="none" stroke="black"/>
<path d="M58.3268,255.72h 27.0765v -123.981h 9.02551v 123.981h 27.0765v -123.981h 9.02551v 123.981h 9.02551v -123.981h 9.02551v -12.4406h 9.02551v -19.7179h 27.0765v -24.8812h 9.02551v -0.732674h 9.02551v -4.98294h 9.02551v -8.83898h 9.02551v
 -5.65508h 9.02551v -2.27494h 9.02551v -4.5106h 9.02551v -2.62369h 9.02551v 0.144162h 9.02551v -3.77189h 9.02551v -2.20498h 9.02551v 1.1791h 9.02551v 0.908955h 9.02551v -0.231591h 9.02551v 4.70892h 9.02551v 3.45269h 9.02551v 3.8246h 9.02551v 5.77179h
 9.02551v 3.02644h 9.02551v 3.64239h 9.02551v 5.77179h 9.02551v 7.58944h 9.02551v 5.481h 9.02551v 12.4406h 9.02551v 2.7667h 9.02551v 12.4406h 9.02551v 19.7179h 9.02551v 123.981h 9.02551v -136.421h 9.02551v 136.421h 18.051v -123.981h 9.02551v 123.981h
 36.102" fill="none" stroke="black" stroke-width="2"/>
<path d="M64.8426,255.72l 0.253341, -0.500892" fill="none" stroke="black" stroke-width="3"/>
<path d="M65.0959,255.219l 4.51276, -8.74053l 4.51276, -8.55869l 4.51276, -8.37684l 4.51276, -8.195l 4.51276, -8.01315l 4.51276, -7.83131l 4.51276, -7.64947l 4.51276, -7.46762l 4.51276, -7.28578l 4.51276, -7.10394l 4.51276, -6.92209l 4.51276,
 -6.74025l 4.51276, -6.55841l 4.51276, -6.37656l 4.51276, -6.19472l 4.51276, -6.01288l 4.51276, -5.83103l 4.51276, -5.64919l 4.51276, -5.46735l 4.51276, -5.2855l 4.51276, -5.10366l 4.51276, -4.92182l 4.51276, -4.73997l 4.51276, -4.55813l 4.51276,
 -4.37629l 4.51276, -4.19444l 4.51276, -4.0126l 4.51276, -3.83075l 4.51276, -3.64891l 4.51276, -3.46707l 4.51276, -3.28522l 4.51276, -3.10338l 4.51276, -2.92154l 4.51276, -2.73969l 4.51276, -2.55785l 4.51276, -2.37601l 4.51276, -2.19416l 4.51276,
 -2.01232l 4.51276, -1.83048l 4.51276, -1.64863l 4.51276, -1.46679l 4.51276, -1.28495l 4.51276, -1.1031l 4.51276, -0.921259l 4.51276, -0.739416l 4.51276, -0.557572l 4.51276, -0.375729l 4.51276, -0.193885" fill="none" stroke="black" stroke-width="3"/>
<path d="M281.708,40.7932l 4.51276, -0.0120416l 4.51276, 0.169802l 4.51276, 0.351645l 4.51276, 0.533489l 4.51276, 0.715332l 4.51276, 0.897176l 4.51276, 1.07902l 4.51276, 1.26086l 4.51276, 1.44271l 4.51276, 1.62455l 4.51276, 1.80639l 4.51276, 1.98824l
 4.51276, 2.17008l 4.51276, 2.35192l 4.51276, 2.53377l 4.51276, 2.71561l 4.51276, 2.89745l 4.51276, 3.0793l 4.51276, 3.26114l 4.51276, 3.44298l 4.51276, 3.62483l 4.51276, 3.80667l 4.51276, 3.98852l 4.51276, 4.17036l 4.51276, 4.3522l 4.51276, 4.53405l
 4.51276, 4.71589l 4.51276, 4.89773l 4.51276, 5.07958l 4.51276, 5.26142l 4.51276, 5.44326l 4.51276, 5.62511l 4.51276, 5.80695l 4.51276, 5.98879l 4.51276, 6.17064l 4.51276, 6.35248l 4.51276, 6.53432l 4.51276, 6.71617l 4.51276, 6.89801l 4.51276,
 7.07985l 4.51276, 7.2617l 4.51276, 7.44354l 4.51276, 7.62538l 4.51276, 7.80723l 4.51276, 7.98907l 4.51276, 8.17092l 4.51276, 8.35276l 4.51276, 8.5346l 4.51276, 8.71645" fill="none" stroke="black" stroke-width="3"/>
<rect x="1.91732" y="269.128" width="564.094" height="114.38" fill="white"/>
<rect x="58.3268" y="274.847" width="451.276" height="74.3467" fill="white"/>
<rect x="58.3268" y="274.847" width="451.276" height="74.3467" fill="none" stroke="black"/>
<path d="M89.9161,311.867l 36.102, -2.25095l 18.051, -4.80324l 9.02551, -1.00644l 9.02551, 0.933632l 9.02551, -3.35954l 9.02551, -4.15796l 9.02551, 5.00308l 9.02551, -2.31382l 9.02551, -0.608825l 9.02551, 1.16485l 9.02551, 0.382271l 9.02551,
 -0.557467l 9.02551, 0.163816l 9.02551, -0.453655l 9.02551, -1.32411l 9.02551, 0.403636l 9.02551, 0.319136l 9.02551, -0.332546l 9.02551, 0.295413l 9.02551, 1.05494l 9.02551, -0.410204l 9.02551, -0.0163265l 9.02551, -0.250174l 9.02551, -0.954938l
 9.02551, 0.249781l 9.02551, 0.448719l 9.02551, 0.237004l 9.02551, 0.203303l 9.02551, 1.42713l 9.02551, -0.191514l 9.02551, 2.82912l 9.02551, 0.630738l 9.02551, -0.554098l 18.051, 6.07567l 27.0765, 1.51561v 0.722588l -27.0765, 1.51561l -18.051,
 6.07567l -9.02551, -0.554098l -9.02551, 0.630738l -9.02551, 2.82912l -9.02551, -0.191514l -9.02551, 1.42713l -9.02551, 0.203303l -9.02551, 0.237004l -9.02551, 0.448719l -9.02551, 0.249781l -9.02551, -0.954938l -9.02551, -0.250174l -9.02551,
 -0.0163265l -9.02551, -0.410204l -9.02551, 1.05494l -9.02551, 0.295413l -9.02551, -0.332546l -9.02551, 0.319136l -9.02551, 0.403636l -9.02551, -1.32411l -9.02551, -0.453655l -9.02551, 0.163816l -9.02551, -0.557467l -9.02551, 0.382271l -9.02551,
 1.16485l -9.02551, -0.608825l -9.02551, -2.31382l -9.02551, 5.00308l -9.02551, -4.15796l -9.02551, -3.35954l -9.02551, 0.933632l -9.02551, -1.00644l -18.051, -4.80324l -36.102, -2.25095z" fill="#00ff00"/>
<path d="M89.9161,311.944l 36.102, -1.1255l 18.051, -2.40167l 9.02551, -0.50323l 9.02551, 0.466826l 9.02551, -1.6798l 9.02551, -2.07902l 9.02551, 2.50159l 9.02551, -1.15694l 9.02551, -0.304419l 9.02551, 0.582435l 9.02551, 0.191139l 9.02551,
 -0.278739l 9.02551, 0.0819095l 9.02551, -0.226832l 9.02551, -0.66207l 9.02551, 0.201822l 9.02551, 0.159571l 9.02551, -0.166277l 9.02551, 0.147709l 9.02551, 0.527483l 9.02551, -0.205106l 9.02551, -0.00816343l 9.02551, -0.12509l 9.02551, -0.477479l
 9.02551, 0.124893l 9.02551, 0.224364l 9.02551, 0.118504l 9.02551, 0.101653l 9.02551, 0.713581l 9.02551, -0.0957591l 9.02551, 1.41459l 9.02551, 0.315375l 9.02551, -0.277055l 18.051, 3.0379l 27.0765, 0.757821v 0.361301l -27.0765, 0.757821l -18.051,
 3.0379l -9.02551, -0.277055l -9.02551, 0.315375l -9.02551, 1.41459l -9.02551, -0.0957591l -9.02551, 0.713581l -9.02551, 0.101653l -9.02551, 0.118504l -9.02551, 0.224364l -9.02551, 0.124893l -9.02551, -0.477479l -9.02551, -0.12509l -9.02551,
 -0.00816343l -9.02551, -0.205106l -9.02551, 0.527483l -9.02551, 0.147709l -9.02551, -0.166277l -9.02551, 0.159571l -9.02551, 0.201822l -9.02551, -0.66207l -9.02551, -0.226832l -9.02551, 0.0819095l -9.02551, -0.278739l -9.02551, 0.191139l -9.02551,
 0.582435l -9.02551, -0.304419l -9.02551, -1.15694l -9.02551, 2.50159l -9.02551, -2.07902l -9.02551, -1.6798l -9.02551, 0.466826l -9.02551, -0.50323l -18.051, -2.40167l -36.102, -1.1255z" fill="#ffff00"/>
<path d="M89.9161,293.68l 36.102, 5.57924l 18.051, 16.4217l 9.02551, -1.01611l 9.02551, -18.6754l 9.02551, 20.5252l 9.02551, 31.4387l 9.02551, -63.2933l 9.02551, 28.1465l 9.02551, 10.0747l 9.02551, -20.101l 9.02551, -5.99005l 9.02551, 18.2631l
 9.02551, -8.68388l 9.02551, 3.08468l 9.02551, 28.6112l 9.02551, -28.158l 9.02551, -18.977l 9.02551, 15.669l 9.02551, 2.73289l 9.02551, -20.3128l 9.02551, 30.8421l 9.02551, 5.44827l 9.02551, 0.772341l 9.02551, 10.6591l 9.02551, -18.4269l 9.02551,
 -14.5354l 9.02551, -2.58741l 9.02551, 3.44472l 9.02551, -7.16046l 9.02551, 13.2603l 9.02551, -13.6584l 9.02551, 7.30826l 9.02551, 12.2399l 18.051, -26.5735l 27.0765, 3.99048" fill="none" stroke="black"/>
<path d="M58.3268,293.434h 451.276" fill="none" stroke="black" stroke-dasharray=" 3, 3"/>
<path d="M58.3268,312.021h 451.276" fill="none" stroke="black" stroke-dasharray=" 3, 3"/>
<path d="M58.3268,330.607h 451.276" fill="none" stroke="black" stroke-dasharray=" 3, 3"/>
<path d="M58.3268,255.355h 451.276" fill="none" stroke="black"/>
<path d="M58.3268,246.174v 9.18112" fill="none" stroke="black"/>
<path d="M67.3523,250.764v 4.59056" fill="none" stroke="black"/>
<path d="M76.3778,250.764v 4.59056" fill="none" stroke="black"/>
<path d="M85.4033,250.764v 4.59056" fill="none" stroke="black"/>
<path d="M94.4288,250.764v 4.59056" fill="none" stroke="black"/>
<path d="M103.454,246.174v 9.18112" fill="none" stroke="black"/>
<path d="M112.48,250.764v 4.59056" fill="none" stroke="black"/>
<path d="M121.505,250.764v 4.59056" fill="none" stroke="black"/>
<path d="M130.531,250.764v 4.59056" fill="none" stroke="black"/>
<path d="M139.556,250.764v 4.59056" fill="none" stroke="black"/>
<path d="M148.582,246.174v 9.18112" fill="none" stroke="black"/>
<path d="M157.607,250.764v 4.59056" fill="none" stroke="black"/>
<path d="M166.633,250.764v 4.59056" fill="none" stroke="black"/>
<path d="M175.658,250.764v 4.59056" fill="none" stroke="black"/>
<path d="M184.684,250.764v 4.59056" fill="none" stroke="black"/>
<path d="M193.709,246.174v 9.18112" fill="none" stroke="black"/>
<path d="M202.735,250.764v 4.59056" fill="none" stroke="black"/>
<path d="M211.76,250.764v 4.59056" fill="none" stroke="black"/>
<path d="M220.786,250.764v 4.59056" fill="none" stroke="black"/>
<path d="M229.811,250.764v 4.59056" fill="none" stroke="black"/>
<path d="M238.837,246.174v 9.18112" fill="none" stroke="black"/>
<path d="M247.863,250.764v 4.59056" fill="none" stroke="black"/>
<path d="M256.888,250.764v 4.59056" fill="none" stroke="black"/>
<path d="M265.914,250.764v 4.59056" fill="none" stroke="black"/>
<path d="M274.939,250.764v 4.59056" fill="none" stroke="black"/>
<path d="M283.965,246.174v 9.18112" fill="none" stroke="black"/>
<path d="M292.99,250.764v 4.59056" fill="none" stroke="black"/>
<path d="M302.016,250.764v 4.59056" fill="none" stroke="black"/>
<path d="M311.041,250.764v 4.59056" fill="none" stroke="black"/>
<path d="M320.067,250.764v 4.59056" fill="none" stroke="black"/>
<path d="M329.092,246.174v 9.18112" fill="none" stroke="black"/>
<path d="M338.118,250.764v 4.59056" fill="none" stroke="black"/>
<path d="M347.143,250.764v 4.59056" fill="none" stroke="black"/>
<path d="M356.169,250.764v 4.59056" fill="none" stroke="black"/>
<path d="M365.194,250.764v 4.59056" fill="none" stroke="black"/>
<path d="M374.22,246.174v 9.18112" fill="none" stroke="black"/>
<path d="M383.245,250.764v 4.59056" fill="none" stroke="black"/>
<path d="M392.271,250.764v 4.59056" fill="none" stroke="black"/>
<path d="M401.296,250.764v 4.59056" fill="none" stroke="black"/>
<path d="M410.322,250.764v 4.59056" fill="none" stroke="black"/>
<path d="M419.347,246.174v 9.18112" fill="none" stroke="black"/>
<path d="M428.373,250.764v 4.59056" fill="none" stroke="black"/>
<path d="M437.398,250.764v 4.59056" fill="none" stroke="black"/>
<path d="M446.424,250.764v 4.59056" fill="none" stroke="black"/>
<path d="M455.449,250.764v 4.59056" fill="none" stroke="black"/>
<path d="M464.475,246.174v 9.18112" fill="none" stroke="black"/>
<path d="M473.5,250.764v 4.59056" fill="none" stroke="black"/>
<path d="M482.526,250.764v 4.59056" fill="none" stroke="black"/>
<path d="M491.551,250.764v 4.59056" fill="none" stroke="black"/>
<path d="M500.577,250.764v 4.59056" fill="none" stroke="black"/>
<path d="M509.602,246.174v 9.18112" fill="none" stroke="black"/>
<path d="M58.3268,255.355v -227.615" fill="none" stroke="black"/>
<path d="M68.3959,255.355h -10.0691" fill="none" stroke="black"/>
<text xml:space="preserve" x="46.9295" y="254.955" fill="black" font-size="12.1987" font-family="Helvetica">3
</text>
<text xml:space="preserve" x="40.4131" y="254.955" fill="black" font-size="12.1987" font-family="Times">&#8722;
</text>
<text xml:space="preserve" x="20.8638" y="263.101" fill="black" font-size="18.048" font-family="Helvetica">10
</text>
<path d="M63.3613,242.932h -5.03454" fill="none" stroke="black"/>
<path d="M63.3613,235.665h -5.03454" fill="none" stroke="black"/>
<path d="M63.3613,230.509h -5.03454" fill="none" stroke="black"/>
<path d="M63.3613,226.51h -5.03454" fill="none" stroke="black"/>
<path d="M63.3613,223.242h -5.03454" fill="none" stroke="black"/>
<path d="M63.3613,220.48h -5.03454" fill="none" stroke="black"/>
<path d="M63.3613,218.086h -5.03454" fill="none" stroke="black"/>
<path d="M63.3613,215.975h -5.03454" fill="none" stroke="black"/>
<path d="M68.3959,214.087h -10.0691" fill="none" stroke="black"/>
<text xml:space="preserve" x="46.9295" y="215.042" fill="black" font-size="12.1987" font-family="Helvetica">2
</text>
<text xml:space="preserve" x="40.4131" y="215.042" fill="black" font-size="12.1987" font-family="Times">&#8722;
</text>
<text xml:space="preserve" x="20.8638" y="222.373" fill="black" font-size="18.048" font-family="Helvetica">10
</text>
<path d="M63.3613,201.664h -5.03454" fill="none" stroke="black"/>
<path d="M63.3613,194.398h -5.03454" fill="none" stroke="black"/>
<path d="M63.3613,189.242h -5.03454" fill="none" stroke="black"/>
<path d="M63.3613,185.242h -5.03454" fill="none" stroke="black"/>
<path d="M63.3613,181.975h -5.03454" fill="none" stroke="black"/>
<path d="M63.3613,179.212h -5.03454" fill="none" stroke="black"/>
<path d="M63.3613,176.819h -5.03454" fill="none" stroke="black"/>
<path d="M63.3613,174.708h -5.03454" fill="none" stroke="black"/>
<path d="M68.3959,172.82h -10.0691" fill="none" stroke="black"/>
<text xml:space="preserve" x="48.5586" y="173.5" fill="black" font-size="12.1987" font-family="Helvetica">1
</text>
<text xml:space="preserve" x="42.0422" y="173.5" fill="black" font-size="12.1987" font-family="Times">&#8722;
</text>
<text xml:space="preserve" x="22.4929" y="180.831" fill="black" font-size="18.048" font-family="Helvetica">10
</text>
<path d="M63.3613,160.397h -5.03454" fill="none" stroke="black"/>
<path d="M63.3613,153.13h -5.03454" fill="none" stroke="black"/>
<path d="M63.3613,147.974h -5.03454" fill="none" stroke="black"/>
<path d="M63.3613,143.975h -5.03454" fill="none" stroke="black"/>
<path d="M63.3613,140.707h -5.03454" fill="none" stroke="black"/>
<path d="M63.3613,137.944h -5.03454" fill="none" stroke="black"/>
<path d="M63.3613,135.551h -5.03454" fill="none" stroke="black"/>
<path d="M63.3613,133.44h -5.03454" fill="none" stroke="black"/>
<path d="M68.3959,131.552h -10.0691" fill="none" stroke="black"/>
<text xml:space="preserve" x="46.9295" y="139.289" fill="black" font-size="18.048" font-family="Helvetica">1
</text>
<path d="M63.3613,119.129h -5.03454" fill="none" stroke="black"/>
<path d="M63.3613,111.862h -5.03454" fill="none" stroke="black"/>
<path d="M63.3613,106.706h -5.03454" fill="none" stroke="black"/>
<path d="M63.3613,102.707h -5.03454" fill="none" stroke="black"/>
<path d="M63.3613,99.4396h -5.03454" fill="none" stroke="black"/>
<path d="M63.3613,96.6768h -5.03454" fill="none" stroke="black"/>
<path d="M63.3613,94.2836h -5.03454" fill="none" stroke="black"/>
<path d="M63.3613,92.1727h -5.03454" fill="none" stroke="black"/>
<path d="M68.3959,90.2844h -10.0691" fill="none" stroke="black"/>
<text xml:space="preserve" x="33.8967" y="96.9318" fill="black" font-size="18.048" font-family="Helvetica">10
</text>
<path d="M63.3613,77.8616h -5.03454" fill="none" stroke="black"/>
<path d="M63.3613,70.5948h -5.03454" fill="none" stroke="black"/>
<path d="M63.3613,65.4388h -5.03454" fill="none" stroke="black"/>
<path d="M63.3613,61.4396h -5.03454" fill="none" stroke="black"/>
<path d="M63.3613,58.172h -5.03454" fill="none" stroke="black"/>
<path d="M63.3613,55.4092h -5.03454" fill="none" stroke="black"/>
<path d="M63.3613,53.0161h -5.03454" fill="none" stroke="black"/>
<path d="M63.3613,50.9051h -5.03454" fill="none" stroke="black"/>
<path d="M68.3959,49.0168h -10.0691" fill="none" stroke="black"/>
<text xml:space="preserve" x="46.9295" y="49.6878" fill="black" font-size="12.1987" font-family="Helvetica">2
</text>
<text xml:space="preserve" x="27.3803" y="57.0187" fill="black" font-size="18.048" font-family="Helvetica">10
</text>
<path d="M63.3613,36.594h -5.03454" fill="none" stroke="black"/>
<path d="M63.3613,29.3272h -5.03454" fill="none" stroke="black"/>
<g transform="rotate(-90,-1.12911,36.6549)">
<text xml:space="preserve" x="-1.12911" y="36.6549" fill="black" font-size="18.048" font-family="Helvetica">y
</text>
</g>
<path d="M58.3268,349.079h 451.276" fill="none" stroke="black"/>
<path d="M58.3268,339.898v 9.18112" fill="none" stroke="black"/>
<path d="M67.3523,344.488v 4.59056" fill="none" stroke="black"/>
<path d="M76.3778,344.488v 4.59056" fill="none" stroke="black"/>
<path d="M85.4033,344.488v 4.59056" fill="none" stroke="black"/>
<path d="M94.4288,344.488v 4.59056" fill="none" stroke="black"/>
<path d="M103.454,339.898v 9.18112" fill="none" stroke="black"/>
<path d="M112.48,344.488v 4.59056" fill="none" stroke="black"/>
<path d="M121.505,344.488v 4.59056" fill="none" stroke="black"/>
<path d="M130.531,344.488v 4.59056" fill="none" stroke="black"/>
<path d="M139.556,344.488v 4.59056" fill="none" stroke="black"/>
<path d="M148.582,339.898v 9.18112" fill="none" stroke="black"/>
<path d="M157.607,344.488v 4.59056" fill="none" stroke="black"/>
<path d="M166.633,344.488v 4.59056" fill="none" stroke="black"/>
<path d="M175.658,344.488v 4.59056" fill="none" stroke="black"/>
<path d="M184.684,344.488v 4.59056" fill="none" stroke="black"/>
<path d="M193.709,339.898v 9.18112" fill="none" stroke="black"/>
<path d="M202.735,344.488v 4.59056" fill="none" stroke="black"/>
<path d="M211.76,344.488v 4.59056" fill="none" stroke="black"/>
<path d="M220.786,344.488v 4.59056" fill="none" stroke="black"/>
<path d="M229.811,344.488v 4.59056" fill="none" stroke="black"/>
<path d="M238.837,339.898v 9.18112" fill="none" stroke="black"/>
<path d="M247.863,344.488v 4.59056" fill="none" stroke="black"/>
<path d="M256.888,344.488v 4.59056" fill="none" stroke="black"/>
<path d="M265.914,344.488v 4.59056" fill="none" stroke="black"/>
<path d="M274.939,344.488v 4.59056" fill="none" stroke="black"/>
<path d="M283.965,339.898v 9.18112" fill="none" stroke="black"/>
<path d="M292.99,344.488v 4.59056" fill="none" stroke="black"/>
<path d="M302.016,344.488v 4.59056" fill="none" stroke="black"/>
<path d="M311.041,344.488v 4.59056" fill="none" stroke="black"/>
<path d="M320.067,344.488v 4.59056" fill="none" stroke="black"/>
<path d="M329.092,339.898v 9.18112" fill="none" stroke="black"/>
<path d="M338.118,344.488v 4.59056" fill="none" stroke="black"/>
<path d="M347.143,344.488v 4.59056" fill="none" stroke="black"/>
<path d="M356.169,344.488v 4.59056" fill="none" stroke="black"/>
<path d="M365.194,344.488v 4.59056" fill="none" stroke="black"/>
<path d="M374.22,339.898v 9.18112" fill="none" stroke="black"/>
<path d="M383.245,344.488v 4.59056" fill="none" stroke="black"/>
<path d="M392.271,344.488v 4.59056" fill="none" stroke="black"/>
<path d="M401.296,344.488v 4.59056" fill="none" stroke="black"/>
<path d="M410.322,344.488v 4.59056" fill="none" stroke="black"/>
<path d="M419.347,339.898v 9.18112" fill="none" stroke="black"/>
<path d="M428.373,344.488v 4.59056" fill="none" stroke="black"/>
<path d="M437.398,344.488v 4.59056" fill="none" stroke="black"/>
<path d="M446.424,344.488v 4.59056" fill="none" stroke="black"/>
<path d="M455.449,344.488v 4.59056" fill="none" stroke="black"/>
<path d="M464.475,339.898v 9.18112" fill="none" stroke="black"/>
<path d="M473.5,344.488v 4.59056" fill="none" stroke="black"/>
<path d="M482.526,344.488v 4.59056" fill="none" stroke="black"/>
<path d="M491.551,344.488v 4.59056" fill="none" stroke="black"/>
<path d="M500.577,344.488v 4.59056" fill="none" stroke="black"/>
<path d="M509.602,339.898v 9.18112" fill="none" stroke="black"/>
<text xml:space="preserve" x="57.5187" y="366.549" fill="black" font-size="18.048" font-family="Helvetica">5
</text>
<text xml:space="preserve" x="48.5586" y="366.549" fill="black" font-size="18.048" font-family="Times">&#8722;
</text>
<text xml:space="preserve" x="102.319" y="366.549" fill="black" font-size="18.048" font-family="Helvetica">4
</text>
<text xml:space="preserve" x="93.3591" y="366.549" fill="black" font-size="18.048" font-family="Times">&#8722;
</text>
<text xml:space="preserve" x="147.934" y="366.549" fill="black" font-size="18.048" font-family="Helvetica">3
</text>
<text xml:space="preserve" x="138.974" y="366.549" fill="black" font-size="18.048" font-family="Times">&#8722;
</text>
<text xml:space="preserve" x="192.735" y="366.549" fill="black" font-size="18.048" font-family="Helvetica">2
</text>
<text xml:space="preserve" x="183.775" y="366.549" fill="black" font-size="18.048" font-family="Times">&#8722;
</text>
<text xml:space="preserve" x="239.979" y="366.549" fill="black" font-size="18.048" font-family="Helvetica">1
</text>
<text xml:space="preserve" x="231.019" y="366.549" fill="black" font-size="18.048" font-family="Times">&#8722;
</text>
<text xml:space="preserve" x="279.077" y="366.549" fill="black" font-size="18.048" font-family="Helvetica">0
</text>
<text xml:space="preserve" x="325.507" y="366.549" fill="black" font-size="18.048" font-family="Helvetica">1
</text>
<text xml:space="preserve" x="369.493" y="366.549" fill="black" font-size="18.048" font-family="Helvetica">2
</text>
<text xml:space="preserve" x="414.293" y="366.549" fill="black" font-size="18.048" font-family="Helvetica">3
</text>
<text xml:space="preserve" x="459.908" y="366.549" fill="black" font-size="18.048" font-family="Helvetica">4
</text>
<text xml:space="preserve" x="504.709" y="366.549" fill="black" font-size="18.048" font-family="Helvetica">5
</text>
<text xml:space="preserve" x="500.636" y="397.502" fill="black" font-size="18.048" font-family="Helvetica">x
</text>
<path d="M58.3268,349.079v -74.5966" fill="none" stroke="black"/>
<path d="M68.3959,349.079h -10.0691" fill="none" stroke="black"/>
<path d="M63.3613,347.214h -5.03454" fill="none" stroke="black"/>
<path d="M63.3613,345.349h -5.03454" fill="none" stroke="black"/>
<path d="M63.3613,343.484h -5.03454" fill="none" stroke="black"/>
<path d="M63.3613,341.619h -5.03454" fill="none" stroke="black"/>
<path d="M68.3959,339.754h -10.0691" fill="none" stroke="black"/>
<path d="M63.3613,337.889h -5.03454" fill="none" stroke="black"/>
<path d="M63.3613,336.024h -5.03454" fill="none" stroke="black"/>
<path d="M63.3613,334.159h -5.03454" fill="none" stroke="black"/>
<path d="M63.3613,332.295h -5.03454" fill="none" stroke="black"/>
<path d="M68.3959,330.43h -10.0691" fill="none" stroke="black"/>
<path d="M63.3613,328.565h -5.03454" fill="none" stroke="black"/>
<path d="M63.3613,326.7h -5.03454" fill="none" stroke="black"/>
<path d="M63.3613,324.835h -5.03454" fill="none" stroke="black"/>
<path d="M63.3613,322.97h -5.03454" fill="none" stroke="black"/>
<path d="M68.3959,321.105h -10.0691" fill="none" stroke="black"/>
<path d="M63.3613,319.24h -5.03454" fill="none" stroke="black"/>
<path d="M63.3613,317.375h -5.03454" fill="none" stroke="black"/>
<path d="M63.3613,315.51h -5.03454" fill="none" stroke="black"/>
<path d="M63.3613,313.645h -5.03454" fill="none" stroke="black"/>
<path d="M68.3959,311.78h -10.0691" fill="none" stroke="black"/>
<path d="M63.3613,309.916h -5.03454" fill="none" stroke="black"/>
<path d="M63.3613,308.051h -5.03454" fill="none" stroke="black"/>
<path d="M63.3613,306.186h -5.03454" fill="none" stroke="black"/>
<path d="M63.3613,304.321h -5.03454" fill="none" stroke="black"/>
<path d="M68.3959,302.456h -10.0691" fill="none" stroke="black"/>
<path d="M63.3613,300.591h -5.03454" fill="none" stroke="black"/>
<path d="M63.3613,298.726h -5.03454" fill="none" stroke="black"/>
<path d="M63.3613,296.861h -5.03454" fill="none" stroke="black"/>
<path d="M63.3613,294.996h -5.03454" fill="none" stroke="black"/>
<path d="M68.3959,293.131h -10.0691" fill="none" stroke="black"/>
<path d="M63.3613,291.266h -5.03454" fill="none" stroke="black"/>
<path d="M63.3613,289.401h -5.03454" fill="none" stroke="black"/>
<path d="M63.3613,287.537h -5.03454" fill="none" stroke="black"/>
<path d="M63.3613,285.672h -5.03454" fill="none" stroke="black"/>
<path d="M68.3959,283.807h -10.0691" fill="none" stroke="black"/>
<path d="M63.3613,281.942h -5.03454" fill="none" stroke="black"/>
<path d="M63.3613,280.077h -5.03454" fill="none" stroke="black"/>
<path d="M63.3613,278.212h -5.03454" fill="none" stroke="black"/>
<path d="M63.3613,276.347h -5.03454" fill="none" stroke="black"/>
<path d="M68.3959,274.482h -10.0691" fill="none" stroke="black"/>
<text xml:space="preserve" x="46.115" y="356.774" fill="black" font-size="18.048" font-family="Helvetica">2
</text>
<text xml:space="preserve" x="36.3403" y="356.774" fill="black" font-size="18.048" font-family="Times">&#8722;
</text>
<text xml:space="preserve" x="31.453" y="346.185" fill="black" font-size="18.048" font-family="Helvetica">1.5
</text>
<text xml:space="preserve" x="21.6784" y="346.185" fill="black" font-size="18.048" font-family="Times">&#8722;
</text>
<text xml:space="preserve" x="49.3732" y="338.04" fill="black" font-size="18.048" font-family="Helvetica">1
</text>
<text xml:space="preserve" x="39.5986" y="338.04" fill="black" font-size="18.048" font-family="Times">&#8722;
</text>
<text xml:space="preserve" x="31.453" y="327.45" fill="black" font-size="18.048" font-family="Helvetica">0.5
</text>
<text xml:space="preserve" x="21.6784" y="327.45" fill="black" font-size="18.048" font-family="Times">&#8722;
</text>
<text xml:space="preserve" x="46.115" y="318.49" fill="black" font-size="18.048" font-family="Helvetica">0
</text>
<text xml:space="preserve" x="31.453" y="308.716" fill="black" font-size="18.048" font-family="Helvetica">0.5
</text>
<text xml:space="preserve" x="49.3732" y="300.57" fill="black" font-size="18.048" font-family="Helvetica">1
</text>
<text xml:space="preserve" x="31.453" y="289.981" fill="black" font-size="18.048" font-family="Helvetica">1.5
</text>
<text xml:space="preserve" x="46.115" y="281.835" fill="black" font-size="18.048" font-family="Helvetica">2
</text>
<path d="M58.3268,27.7395h 451.276" fill="none" stroke="black"/>
<path d="M58.3268,36.9206v -9.18112" fill="none" stroke="black"/>
<path d="M67.3523,32.33v -4.59056" fill="none" stroke="black"/>
<path d="M76.3778,32.33v -4.59056" fill="none" stroke="black"/>
<path d="M85.4033,32.33v -4.59056" fill="none" stroke="black"/>
<path d="M94.4288,32.33v -4.59056" fill="none" stroke="black"/>
<path d="M103.454,36.9206v -9.18112" fill="none" stroke="black"/>
<path d="M112.48,32.33v -4.59056" fill="none" stroke="black"/>
<path d="M121.505,32.33v -4.59056" fill="none" stroke="black"/>
<path d="M130.531,32.33v -4.59056" fill="none" stroke="black"/>
<path d="M139.556,32.33v -4.59056" fill="none" stroke="black"/>
<path d="M148.582,36.9206v -9.18112" fill="none" stroke="black"/>
<path d="M157.607,32.33v -4.59056" fill="none" stroke="black"/>
<path d="M166.633,32.33v -4.59056" fill="none" stroke="black"/>
<path d="M175.658,32.33v -4.59056" fill="none" stroke="black"/>
<path d="M184.684,32.33v -4.59056" fill="none" stroke="black"/>
<path d="M193.709,36.9206v -9.18112" fill="none" stroke="black"/>
<path d="M202.735,32.33v -4.59056" fill="none" stroke="black"/>
<path d="M211.76,32.33v -4.59056" fill="none" stroke="black"/>
<path d="M220.786,32.33v -4.59056" fill="none" stroke="black"/>
<path d="M229.811,32.33v -4.59056" fill="none" stroke="black"/>
<path d="M238.837,36.9206v -9.18112" fill="none" stroke="black"/>
<path d="M247.863,32.33v -4.59056" fill="none" stroke="black"/>
<path d="M256.888,32.33v -4.59056" fill="none" stroke="black"/>
<path d="M265.914,32.33v -4.59056" fill="none" stroke="black"/>
<path d="M274.939,32.33v -4.59056" fill="none" stroke="black"/>
<path d="M283.965,36.9206v -9.18112" fill="none" stroke="black"/>
<path d="M292.99,32.33v -4.59056" fill="none" stroke="black"/>
<path d="M302.016,32.33v -4.59056" fill="none" stroke="black"/>
<path d="M311.041,32.33v -4.59056" fill="none" stroke="black"/>
<path d="M320.067,32.33v -4.59056" fill="none" stroke="black"/>
<path d="M329.092,36.9206v -9.18112" fill="none" stroke="black"/>
<path d="M338.118,32.33v -4.59056" fill="none" stroke="black"/>
<path d="M347.143,32.33v -4.59056" fill="none" stroke="black"/>
<path d="M356.169,32.33v -4.59056" fill="none" stroke="black"/>
<path d="M365.194,32.33v -4.59056" fill="none" stroke="black"/>
<path d="M374.22,36.9206v -9.18112" fill="none" stroke="black"/>
<path d="M383.245,32.33v -4.59056" fill="none" stroke="black"/>
<path d="M392.271,32.33v -4.59056" fill="none" stroke="black"/>
<path d="M401.296,32.33v -4.59056" fill="none" stroke="black"/>
<path d="M410.322,32.33v -4.59056" fill="none" stroke="black"/>
<path d="M419.347,36.9206v -9.18112" fill="none" stroke="black"/>
<path d="M428.373,32.33v -4.59056" fill="none" stroke="black"/>
<path d="M437.398,32.33v -4.59056" fill="none" stroke="black"/>
<path d="M446.424,32.33v -4.59056" fill="none" stroke="black"/>
<path d="M455.449,32.33v -4.59056" fill="none" stroke="black"/>
<path d="M464.475,36.9206v -9.18112" fill="none" stroke="black"/>
<path d="M473.5,32.33v -4.59056" fill="none" stroke="black"/>
<path d="M482.526,32.33v -4.59056" fill="none" stroke="black"/>
<path d="M491.551,32.33v -4.59056" fill="none" stroke="black"/>
<path d="M500.577,32.33v -4.59056" fill="none" stroke="black"/>
<path d="M509.602,36.9206v -9.18112" fill="none" stroke="black"/>
<path d="M58.3268,274.482h 451.276" fill="none" stroke="black"/>
<path d="M58.3268,283.663v -9.18112" fill="none" stroke="black"/>
<path d="M67.3523,279.073v -4.59056" fill="none" stroke="black"/>
<path d="M76.3778,279.073v -4.59056" fill="none" stroke="black"/>
<path d="M85.4033,279.073v -4.59056" fill="none" stroke="black"/>
<path d="M94.4288,279.073v -4.59056" fill="none" stroke="black"/>
<path d="M103.454,283.663v -9.18112" fill="none" stroke="black"/>
<path d="M112.48,279.073v -4.59056" fill="none" stroke="black"/>
<path d="M121.505,279.073v -4.59056" fill="none" stroke="black"/>
<path d="M130.531,279.073v -4.59056" fill="none" stroke="black"/>
<path d="M139.556,279.073v -4.59056" fill="none" stroke="black"/>
<path d="M148.582,283.663v -9.18112" fill="none" stroke="black"/>
<path d="M157.607,279.073v -4.59056" fill="none" stroke="black"/>
<path d="M166.633,279.073v -4.59056" fill="none" stroke="black"/>
<path d="M175.658,279.073v -4.59056" fill="none" stroke="black"/>
<path d="M184.684,279.073v -4.59056" fill="none" stroke="black"/>
<path d="M193.709,283.663v -9.18112" fill="none" stroke="black"/>
<path d="M202.735,279.073v -4.59056" fill="none" stroke="black"/>
<path d="M211.76,279.073v -4.59056" fill="none" stroke="black"/>
<path d="M220.786,279.073v -4.59056" fill="none" stroke="black"/>
<path d="M229.811,279.073v -4.59056" fill="none" stroke="black"/>
<path d="M238.837,283.663v -9.18112" fill="none" stroke="black"/>
<path d="M247.863,279.073v -4.59056" fill="none" stroke="black"/>
<path d="M256.888,279.073v -4.59056" fill="none" stroke="black"/>
<path d="M265.914,279.073v -4.59056" fill="none" stroke="black"/>
<path d="M274.939,279.073v -4.59056" fill="none" stroke="black"/>
<path d="M283.965,283.663v -9.18112" fill="none" stroke="black"/>
<path d="M292.99,279.073v -4.59056" fill="none" stroke="black"/>
<path d="M302.016,279.073v -4.59056" fill="none" stroke="black"/>
<path d="M311.041,279.073v -4.59056" fill="none" stroke="black"/>
<path d="M320.067,279.073v -4.59056" fill="none" stroke="black"/>
<path d="M329.092,283.663v -9.18112" fill="none" stroke="black"/>
<path d="M338.118,279.073v -4.59056" fill="none" stroke="black"/>
<path d="M347.143,279.073v -4.59056" fill="none" stroke="black"/>
<path d="M356.169,279.073v -4.59056" fill="none" stroke="black"/>
<path d="M365.194,279.073v -4.59056" fill="none" stroke="black"/>
<path d="M374.22,283.663v -9.18112" fill="none" stroke="black"/>
<path d="M383.245,279.073v -4.59056" fill="none" stroke="black"/>
<path d="M392.271,279.073v -4.59056" fill="none" stroke="black"/>
<path d="M401.296,279.073v -4.59056" fill="none" stroke="black"/>
<path d="M410.322,279.073v -4.59056" fill="none" stroke="black"/>
<path d="M419.347,283.663v -9.18112" fill="none" stroke="black"/>
<path d="M428.373,279.073v -4.59056" fill="none" stroke="black"/>
<path d="M437.398,279.073v -4.59056" fill="none" stroke="black"/>
<path d="M446.424,279.073v -4.59056" fill="none" stroke="black"/>
<path d="M455.449,279.073v -4.59056" fill="none" stroke="black"/>
<path d="M464.475,283.663v -9.18112" fill="none" stroke="black"/>
<path d="M473.5,279.073v -4.59056" fill="none" stroke="black"/>
<path d="M482.526,279.073v -4.59056" fill="none" stroke="black"/>
<path d="M491.551,279.073v -4.59056" fill="none" stroke="black"/>
<path d="M500.577,279.073v -4.59056" fill="none" stroke="black"/>
<path d="M509.602,283.663v -9.18112" fill="none" stroke="black"/>
<path d="M509.602,255.355v -227.615" fill="none" stroke="black"/>
<path d="M499.533,255.355h 10.0691" fill="none" stroke="black"/>
<path d="M504.568,242.932h 5.03454" fill="none" stroke="black"/>
<path d="M504.568,235.665h 5.03454" fill="none" stroke="black"/>
<path d="M504.568,230.509h 5.03454" fill="none" stroke="black"/>
<path d="M504.568,226.51h 5.03454" fill="none" stroke="black"/>
<path d="M504.568,223.242h 5.03454" fill="none" stroke="black"/>
<path d="M504.568,220.48h 5.03454" fill="none" stroke="black"/>
<path d="M504.568,218.086h 5.03454" fill="none" stroke="black"/>
<path d="M504.568,215.975h 5.03454" fill="none" stroke="black"/>
<path d="M499.533,214.087h 10.0691" fill="none" stroke="black"/>
<path d="M504.568,201.664h 5.03454" fill="none" stroke="black"/>
<path d="M504.568,194.398h 5.03454" fill="none" stroke="black"/>
<path d="M504.568,189.242h 5.03454" fill="none" stroke="black"/>
<path d="M504.568,185.242h 5.03454" fill="none" stroke="black"/>
<path d="M504.568,181.975h 5.03454" fill="none" stroke="black"/>
<path d="M504.568,179.212h 5.03454" fill="none" stroke="black"/>
<path d="M504.568,176.819h 5.03454" fill="none" stroke="black"/>
<path d="M504.568,174.708h 5.03454" fill="none" stroke="black"/>
<path d="M499.533,172.82h 10.0691" fill="none" stroke="black"/>
<path d="M504.568,160.397h 5.03454" fill="none" stroke="black"/>
<path d="M504.568,153.13h 5.03454" fill="none" stroke="black"/>
<path d="M504.568,147.974h 5.03454" fill="none" stroke="black"/>
<path d="M504.568,143.975h 5.03454" fill="none" stroke="black"/>
<path d="M504.568,140.707h 5.03454" fill="none" stroke="black"/>
<path d="M504.568,137.944h 5.03454" fill="none" stroke="black"/>
<path d="M504.568,135.551h 5.03454" fill="none" stroke="black"/>
<path d="M504.568,133.44h 5.03454" fill="none" stroke="black"/>
<path d="M499.533,131.552h 10.0691" fill="none" stroke="black"/>
<path d="M504.568,119.129h 5.03454" fill="none" stroke="black"/>
<path d="M504.568,111.862h 5.03454" fill="none" stroke="black"/>
<path d="M504.568,106.706h 5.03454" fill="none" stroke="black"/>
<path d="M504.568,102.707h 5.03454" fill="none" stroke="black"/>
<path d="M504.568,99.4396h 5.03454" fill="none" stroke="black"/>
<path d="M504.568,96.6768h 5.03454" fill="none" stroke="black"/>
<path d="M504.568,94.2836h 5.03454" fill="none" stroke="black"/>
<path d="M504.568,92.1727h 5.03454" fill="none" stroke="black"/>
<path d="M499.533,90.2844h 10.0691" fill="none" stroke="black"/>
<path d="M504.568,77.8616h 5.03454" fill="none" stroke="black"/>
<path d="M504.568,70.5948h 5.03454" fill="none" stroke="black"/>
<path d="M504.568,65.4388h 5.03454" fill="none" stroke="black"/>
<path d="M504.568,61.4396h 5.03454" fill="none" stroke="black"/>
<path d="M504.568,58.172h 5.03454" fill="none" stroke="black"/>
<path d="M504.568,55.4092h 5.03454" fill="none" stroke="black"/>
<path d="M504.568,53.0161h 5.03454" fill="none" stroke="black"/>
<path d="M504.568,50.9051h 5.03454" fill="none" stroke="black"/>
<path d="M499.533,49.0168h 10.0691" fill="none" stroke="black"/>
<path d="M504.568,36.594h 5.03454" fill="none" stroke="black"/>
<path d="M504.568,29.3272h 5.03454" fill="none" stroke="black"/>
<path d="M509.602,349.079v -74.5966" fill="none" stroke="black"/>
<path d="M499.533,349.079h 10.0691" fill="none" stroke="black"/>
<path d="M504.568,347.214h 5.03454" fill="none" stroke="black"/>
<path d="M504.568,345.349h 5.03454" fill="none" stroke="black"/>
<path d="M504.568,343.484h 5.03454" fill="none" stroke="black"/>
<path d="M504.568,341.619h 5.03454" fill="none" stroke="black"/>
<path d="M499.533,339.754h 10.0691" fill="none" stroke="black"/>
<path d="M504.568,337.889h 5.03454" fill="none" stroke="black"/>
<path d="M504.568,336.024h 5.03454" fill="none" stroke="black"/>
<path d="M504.568,334.159h 5.03454" fill="none" stroke="black"/>
<path d="M504.568,332.295h 5.03454" fill="none" stroke="black"/>
<path d="M499.533,330.43h 10.0691" fill="none" stroke="black"/>
<path d="M504.568,328.565h 5.03454" fill="none" stroke="black"/>
<path d="M504.568,326.7h 5.03454" fill="none" stroke="black"/>
<path d="M504.568,324.835h 5.03454" fill="none" stroke="black"/>
<path d="M504.568,322.97h 5.03454" fill="none" stroke="black"/>
<path d="M499.533,321.105h 10.0691" fill="none" stroke="black"/>
<path d="M504.568,319.24h 5.03454" fill="none" stroke="black"/>
<path d="M504.568,317.375h 5.03454" fill="none" stroke="black"/>
<path d="M504.568,315.51h 5.03454" fill="none" stroke="black"/>
<path d="M504.568,313.645h 5.03454" fill="none" stroke="black"/>
<path d="M499.533,311.78h 10.0691" fill="none" stroke="black"/>
<path d="M504.568,309.916h 5.03454" fill="none" stroke="black"/>
<path d="M504.568,308.051h 5.03454" fill="none" stroke="black"/>
<path d="M504.568,306.186h 5.03454" fill="none" stroke="black"/>
<path d="M504.568,304.321h 5.03454" fill="none" stroke="black"/>
<path d="M499.533,302.456h 10.0691" fill="none" stroke="black"/>
<path d="M504.568,300.591h 5.03454" fill="none" stroke="black"/>
<path d="M504.568,298.726h 5.03454" fill="none" stroke="black"/>
<path d="M504.568,296.861h 5.03454" fill="none" stroke="black"/>
<path d="M504.568,294.996h 5.03454" fill="none" stroke="black"/>
<path d="M499.533,293.131h 10.0691" fill="none" stroke="black"/>
<path d="M504.568,291.266h 5.03454" fill="none" stroke="black"/>
<path d="M504.568,289.401h 5.03454" fill="none" stroke="black"/>
<path d="M504.568,287.537h 5.03454" fill="none" stroke="black"/>
<path d="M504.568,285.672h 5.03454" fill="none" stroke="black"/>
<path d="M499.533,283.807h 10.0691" fill="none" stroke="black"/>
<path d="M504.568,281.942h 5.03454" fill="none" stroke="black"/>
<path d="M504.568,280.077h 5.03454" fill="none" stroke="black"/>
<path d="M504.568,278.212h 5.03454" fill="none" stroke="black"/>
<path d="M504.568,276.347h 5.03454" fill="none" stroke="black"/>
<path d="M499.533,274.482h 10.0691" fill="none" stroke="black"/></svg>
