<?xml version="1.0" standalone="no"?>
<svg width="567.429" height="384.969" viewBox="0 0 567.429 384.969" xmlns="http://www.w3.org/2000/svg" shape-rendering="crispEdges">
<title>
./old_svg_ref/ratioplot6.svg
</title>
<desc>
Creator: ROOT Version 6.33.01
CreationDate: Wed Jul 10 10:02:55 2024</desc>
<defs>
</defs>
<rect x="0.5" y="0" width="566.929" height="384.469" fill="white"/>
<rect x="1.91732" y="0.961173" width="564.094" height="268.167" fill="white"/>
<rect x="92.1724" y="27.7779" width="445.635" height="241.351" fill="white"/>
<rect x="92.1724" y="27.7779" width="445.635" height="241.351" fill="none" stroke="black"/>
<path d="M118.911,268.029h 1.19813" fill="none" stroke="black" stroke-width="2"/>
<path d="M126.625,268.029h 1.19813" fill="none" stroke="black" stroke-width="2"/>
<g fill="black">
<circle cx="123.367" cy="268.029" r="3.90986"/>
</g>
<path d="M154.561,268.578h 1.19813" fill="none" stroke="black" stroke-width="2"/>
<path d="M162.276,268.578h 1.19813" fill="none" stroke="black" stroke-width="2"/>
<g fill="black">
<circle cx="159.018" cy="268.578" r="3.90986"/>
</g>
<path d="M172.387,265.829h 1.19813" fill="none" stroke="black" stroke-width="2"/>
<path d="M180.101,265.829h 1.19813" fill="none" stroke="black" stroke-width="2"/>
<g fill="black">
<circle cx="176.843" cy="265.829" r="3.90986"/>
</g>
<path d="M181.299,266.379h 1.19813" fill="none" stroke="black" stroke-width="2"/>
<path d="M189.014,266.379h 1.19813" fill="none" stroke="black" stroke-width="2"/>
<g fill="black">
<circle cx="185.756" cy="266.379" r="3.90986"/>
</g>
<path d="M190.212,259.229h 1.19813" fill="none" stroke="black" stroke-width="2"/>
<path d="M197.927,259.229h 1.19813" fill="none" stroke="black" stroke-width="2"/>
<g fill="black">
<circle cx="194.668" cy="259.229" r="3.90986"/>
</g>
<path d="M199.125,262.529h 1.19813" fill="none" stroke="black" stroke-width="2"/>
<path d="M206.839,262.529h 1.19813" fill="none" stroke="black" stroke-width="2"/>
<g fill="black">
<circle cx="203.581" cy="262.529" r="3.90986"/>
</g>
<path d="M208.037,255.929h 1.19813" fill="none" stroke="black" stroke-width="2"/>
<path d="M215.752,255.929h 1.19813" fill="none" stroke="black" stroke-width="2"/>
<g fill="black">
<circle cx="212.494" cy="255.929" r="3.90986"/>
</g>
<path d="M221.406,246.03v -0.591538" fill="none" stroke="black" stroke-width="2"/>
<path d="M221.406,238.922v -0.591538" fill="none" stroke="black" stroke-width="2"/>
<path d="M216.95,242.18h 1.19813" fill="none" stroke="black" stroke-width="2"/>
<path d="M224.665,242.18h 1.19813" fill="none" stroke="black" stroke-width="2"/>
<g fill="black">
<circle cx="221.406" cy="242.18" r="3.90986"/>
</g>
<path d="M230.319,239.361v -1.07221" fill="none" stroke="black" stroke-width="2"/>
<path d="M230.319,231.772v -1.07221" fill="none" stroke="black" stroke-width="2"/>
<path d="M225.863,235.031h 1.19813" fill="none" stroke="black" stroke-width="2"/>
<path d="M233.577,235.031h 1.19813" fill="none" stroke="black" stroke-width="2"/>
<g fill="black">
<circle cx="230.319" cy="235.031" r="3.90986"/>
</g>
<path d="M239.232,223.807v -2.01686" fill="none" stroke="black" stroke-width="2"/>
<path d="M239.232,215.273v -2.01686" fill="none" stroke="black" stroke-width="2"/>
<path d="M234.776,218.532h 1.19813" fill="none" stroke="black" stroke-width="2"/>
<path d="M242.49,218.532h 1.19813" fill="none" stroke="black" stroke-width="2"/>
<g fill="black">
<circle cx="239.232" cy="218.532" r="3.90986"/>
</g>
<path d="M248.145,203.904v -3.01235" fill="none" stroke="black" stroke-width="2"/>
<path d="M248.145,194.375v -3.01235" fill="none" stroke="black" stroke-width="2"/>
<path d="M243.688,197.633h 1.19813" fill="none" stroke="black" stroke-width="2"/>
<path d="M251.403,197.633h 1.19813" fill="none" stroke="black" stroke-width="2"/>
<g fill="black">
<circle cx="248.145" cy="197.633" r="3.90986"/>
</g>
<path d="M257.057,181.747v -3.9545" fill="none" stroke="black" stroke-width="2"/>
<path d="M257.057,171.276v -3.9545" fill="none" stroke="black" stroke-width="2"/>
<path d="M252.601,174.535h 1.19813" fill="none" stroke="black" stroke-width="2"/>
<path d="M260.315,174.535h 1.19813" fill="none" stroke="black" stroke-width="2"/>
<g fill="black">
<circle cx="257.057" cy="174.535" r="3.90986"/>
</g>
<path d="M265.97,150.445v -5.10052" fill="none" stroke="black" stroke-width="2"/>
<path d="M265.97,138.828v -5.10052" fill="none" stroke="black" stroke-width="2"/>
<path d="M261.514,142.087h 1.19813" fill="none" stroke="black" stroke-width="2"/>
<path d="M269.228,142.087h 1.19813" fill="none" stroke="black" stroke-width="2"/>
<g fill="black">
<circle cx="265.97" cy="142.087" r="3.90986"/>
</g>
<path d="M274.883,129.142v -5.79535" fill="none" stroke="black" stroke-width="2"/>
<path d="M274.883,116.83v -5.79535" fill="none" stroke="black" stroke-width="2"/>
<path d="M270.426,120.088h 1.19813" fill="none" stroke="black" stroke-width="2"/>
<path d="M278.141,120.088h 1.19813" fill="none" stroke="black" stroke-width="2"/>
<g fill="black">
<circle cx="274.883" cy="120.088" r="3.90986"/>
</g>
<path d="M283.795,117.937v -6.13958" fill="none" stroke="black" stroke-width="2"/>
<path d="M283.795,105.281v -6.13958" fill="none" stroke="black" stroke-width="2"/>
<path d="M279.339,108.539h 1.19813" fill="none" stroke="black" stroke-width="2"/>
<path d="M287.054,108.539h 1.19813" fill="none" stroke="black" stroke-width="2"/>
<g fill="black">
<circle cx="283.795" cy="108.539" r="3.90986"/>
</g>
<path d="M292.708,95.4912v -6.79276" fill="none" stroke="black" stroke-width="2"/>
<path d="M292.708,82.1821v -6.79276" fill="none" stroke="black" stroke-width="2"/>
<path d="M288.252,85.4403h 1.19813" fill="none" stroke="black" stroke-width="2"/>
<path d="M295.966,85.4403h 1.19813" fill="none" stroke="black" stroke-width="2"/>
<g fill="black">
<circle cx="292.708" cy="85.4403" r="3.90986"/>
</g>
<path d="M301.621,61.7505v -7.69975" fill="none" stroke="black" stroke-width="2"/>
<path d="M301.621,47.5343v -7.69975" fill="none" stroke="black" stroke-width="2"/>
<path d="M297.164,50.7925h 1.19813" fill="none" stroke="black" stroke-width="2"/>
<path d="M304.879,50.7925h 1.19813" fill="none" stroke="black" stroke-width="2"/>
<g fill="black">
<circle cx="301.621" cy="50.7925" r="3.90986"/>
</g>
<path d="M310.533,61.2143v -7.71354" fill="none" stroke="black" stroke-width="2"/>
<path d="M310.533,46.9843v -7.71354" fill="none" stroke="black" stroke-width="2"/>
<path d="M306.077,50.2425h 1.19813" fill="none" stroke="black" stroke-width="2"/>
<path d="M313.792,50.2425h 1.19813" fill="none" stroke="black" stroke-width="2"/>
<g fill="black">
<circle cx="310.533" cy="50.2425" r="3.90986"/>
</g>
<path d="M319.446,61.2143v -7.71354" fill="none" stroke="black" stroke-width="2"/>
<path d="M319.446,46.9843v -7.71354" fill="none" stroke="black" stroke-width="2"/>
<path d="M314.99,50.2425h 1.19813" fill="none" stroke="black" stroke-width="2"/>
<path d="M322.704,50.2425h 1.19813" fill="none" stroke="black" stroke-width="2"/>
<g fill="black">
<circle cx="319.446" cy="50.2425" r="3.90986"/>
</g>
<path d="M328.359,74.0775v -7.37759" fill="none" stroke="black" stroke-width="2"/>
<path d="M328.359,60.1835v -7.37759" fill="none" stroke="black" stroke-width="2"/>
<path d="M323.902,63.4417h 1.19813" fill="none" stroke="black" stroke-width="2"/>
<path d="M331.617,63.4417h 1.19813" fill="none" stroke="black" stroke-width="2"/>
<g fill="black">
<circle cx="328.359" cy="63.4417" r="3.90986"/>
</g>
<path d="M337.271,96.0261v -6.7777" fill="none" stroke="black" stroke-width="2"/>
<path d="M337.271,82.732v -6.7777" fill="none" stroke="black" stroke-width="2"/>
<path d="M332.815,85.9902h 1.19813" fill="none" stroke="black" stroke-width="2"/>
<path d="M340.53,85.9902h 1.19813" fill="none" stroke="black" stroke-width="2"/>
<g fill="black">
<circle cx="337.271" cy="85.9902" r="3.90986"/>
</g>
<path d="M346.184,110.46v -6.36224" fill="none" stroke="black" stroke-width="2"/>
<path d="M346.184,97.5811v -6.36224" fill="none" stroke="black" stroke-width="2"/>
<path d="M341.728,100.839h 1.19813" fill="none" stroke="black" stroke-width="2"/>
<path d="M349.442,100.839h 1.19813" fill="none" stroke="black" stroke-width="2"/>
<g fill="black">
<circle cx="346.184" cy="100.839" r="3.90986"/>
</g>
<path d="M355.097,129.142v -5.79535" fill="none" stroke="black" stroke-width="2"/>
<path d="M355.097,116.83v -5.79535" fill="none" stroke="black" stroke-width="2"/>
<path d="M350.641,120.088h 1.19813" fill="none" stroke="black" stroke-width="2"/>
<path d="M358.355,120.088h 1.19813" fill="none" stroke="black" stroke-width="2"/>
<g fill="black">
<circle cx="355.097" cy="120.088" r="3.90986"/>
</g>
<path d="M364.01,149.382v -5.13663" fill="none" stroke="black" stroke-width="2"/>
<path d="M364.01,137.728v -5.13663" fill="none" stroke="black" stroke-width="2"/>
<path d="M359.553,140.987h 1.19813" fill="none" stroke="black" stroke-width="2"/>
<path d="M367.268,140.987h 1.19813" fill="none" stroke="black" stroke-width="2"/>
<g fill="black">
<circle cx="364.01" cy="140.987" r="3.90986"/>
</g>
<path d="M372.922,187.562v -3.72005" fill="none" stroke="black" stroke-width="2"/>
<path d="M372.922,177.326v -3.72005" fill="none" stroke="black" stroke-width="2"/>
<path d="M368.466,180.584h 1.19813" fill="none" stroke="black" stroke-width="2"/>
<path d="M376.18,180.584h 1.19813" fill="none" stroke="black" stroke-width="2"/>
<g fill="black">
<circle cx="372.922" cy="180.584" r="3.90986"/>
</g>
<path d="M381.835,199.167v -3.22577" fill="none" stroke="black" stroke-width="2"/>
<path d="M381.835,189.425v -3.22577" fill="none" stroke="black" stroke-width="2"/>
<path d="M377.379,192.683h 1.19813" fill="none" stroke="black" stroke-width="2"/>
<path d="M385.093,192.683h 1.19813" fill="none" stroke="black" stroke-width="2"/>
<g fill="black">
<circle cx="381.835" cy="192.683" r="3.90986"/>
</g>
<path d="M390.748,220.676v -2.18616" fill="none" stroke="black" stroke-width="2"/>
<path d="M390.748,211.974v -2.18616" fill="none" stroke="black" stroke-width="2"/>
<path d="M386.291,215.232h 1.19813" fill="none" stroke="black" stroke-width="2"/>
<path d="M394.006,215.232h 1.19813" fill="none" stroke="black" stroke-width="2"/>
<g fill="black">
<circle cx="390.748" cy="215.232" r="3.90986"/>
</g>
<path d="M399.66,238.846v -1.10699" fill="none" stroke="black" stroke-width="2"/>
<path d="M399.66,231.222v -1.10699" fill="none" stroke="black" stroke-width="2"/>
<path d="M395.204,234.481h 1.19813" fill="none" stroke="black" stroke-width="2"/>
<path d="M402.919,234.481h 1.19813" fill="none" stroke="black" stroke-width="2"/>
<g fill="black">
<circle cx="399.66" cy="234.481" r="3.90986"/>
</g>
<path d="M408.573,249.086v -0.348145" fill="none" stroke="black" stroke-width="2"/>
<path d="M408.573,242.222v -0.348145" fill="none" stroke="black" stroke-width="2"/>
<path d="M404.117,245.48h 1.19813" fill="none" stroke="black" stroke-width="2"/>
<path d="M411.831,245.48h 1.19813" fill="none" stroke="black" stroke-width="2"/>
<g fill="black">
<circle cx="408.573" cy="245.48" r="3.90986"/>
</g>
<path d="M413.029,249.88h 1.19813" fill="none" stroke="black" stroke-width="2"/>
<path d="M420.744,249.88h 1.19813" fill="none" stroke="black" stroke-width="2"/>
<g fill="black">
<circle cx="417.486" cy="249.88" r="3.90986"/>
</g>
<path d="M421.942,256.479h 1.19813" fill="none" stroke="black" stroke-width="2"/>
<path d="M429.657,256.479h 1.19813" fill="none" stroke="black" stroke-width="2"/>
<g fill="black">
<circle cx="426.398" cy="256.479" r="3.90986"/>
</g>
<path d="M430.855,262.529h 1.19813" fill="none" stroke="black" stroke-width="2"/>
<path d="M438.569,262.529h 1.19813" fill="none" stroke="black" stroke-width="2"/>
<g fill="black">
<circle cx="435.311" cy="262.529" r="3.90986"/>
</g>
<path d="M439.767,264.179h 1.19813" fill="none" stroke="black" stroke-width="2"/>
<path d="M447.482,264.179h 1.19813" fill="none" stroke="black" stroke-width="2"/>
<g fill="black">
<circle cx="444.224" cy="264.179" r="3.90986"/>
</g>
<path d="M448.68,268.578h 1.19813" fill="none" stroke="black" stroke-width="2"/>
<path d="M456.395,268.578h 1.19813" fill="none" stroke="black" stroke-width="2"/>
<g fill="black">
<circle cx="453.137" cy="268.578" r="3.90986"/>
</g>
<path d="M466.506,267.479h 1.19813" fill="none" stroke="black" stroke-width="2"/>
<path d="M474.22,267.479h 1.19813" fill="none" stroke="black" stroke-width="2"/>
<g fill="black">
<circle cx="470.962" cy="267.479" r="3.90986"/>
</g>
<path d="M475.418,268.578h 1.19813" fill="none" stroke="black" stroke-width="2"/>
<path d="M483.133,268.578h 1.19813" fill="none" stroke="black" stroke-width="2"/>
<g fill="black">
<circle cx="479.875" cy="268.578" r="3.90986"/>
</g>
<path d="M493.244,268.578h 1.19813" fill="none" stroke="black" stroke-width="2"/>
<path d="M500.958,268.578h 1.19813" fill="none" stroke="black" stroke-width="2"/>
<g fill="black">
<circle cx="497.7" cy="268.578" r="3.90986"/>
</g>
<path d="M94.4006,269.128h 26.7381l 4.45635, -0.0265641l 4.45635, -0.0138007l 4.45635, -0.0203634l 4.45635, -0.0297324l 4.45635, -0.0429557l 4.45635, -0.0614063l 4.45635, -0.0868539l 4.45635, -0.121544l 4.45635, -0.168278l 4.45635, -0.230491l
 4.45635, -0.312313l 4.45635, -0.418614l 4.45635, -0.555007l 4.45635, -0.727809l 4.45635, -0.943931l 4.45635, -1.21069l 4.45635, -1.53553l 4.45635, -1.92564l 4.45635, -2.38747l 4.45635, -2.92612l 4.45635, -3.54471l 4.45635, -4.24363l 4.45635,
 -5.01979l 4.45635, -5.86596l 4.45635, -6.77012l 4.45635, -7.71512l 4.45635, -8.67844l 4.45635, -9.63233l 4.45635, -10.5444l 4.45635, -11.3783l 4.45635, -12.0954l 4.45635, -12.656l 4.45635, -13.0216l 4.45635, -13.157l 4.45635, -13.0327l 4.45635,
 -12.6264l 4.45635, -11.9259l 4.45635, -10.9296l 4.45635, -9.6484l 4.45635, -8.10501l 4.45635, -6.33413l 4.45635, -4.38105l 4.45635, -2.29975" fill="none" stroke="black" stroke-width="3"/>
<path d="M312.762,51.7777l 4.45635, -0.150422l 4.45635, 2.00337l 4.45635, 4.09785l 4.45635, 6.07217l 4.45635, 7.87133l 4.45635, 9.44871l 4.45635, 10.7681l 4.45635, 11.8049l 4.45635, 12.5467l 4.45635, 12.9934l 4.45635, 13.1559l 4.45635, 13.055l
 4.45635, 12.7193l 4.45635, 12.1836l 4.45635, 11.486l 4.45635, 10.6659l 4.45635, 9.76251l 4.45635, 8.8124l 4.45635, 7.84863l 4.45635, 6.89961l 4.45635, 5.98861l 4.45635, 5.13354l 4.45635, 4.34711l 4.45635, 3.63717l 4.45635, 3.00736l 4.45635, 2.45771l
 4.45635, 1.98547l 4.45635, 1.58574l 4.45635, 1.25224l 4.45635, 0.977842l 4.45635, 0.75512l 4.45635, 0.576716l 4.45635, 0.435651l 4.45635, 0.325517l 4.45635, 0.240598l 4.45635, 0.175921l 4.45635, 0.127254l 4.45635, 0.0910692l 4.45635, 0.064482l
 4.45635, 0.045174l 4.45635, 0.0313138l 4.45635, 0.021478l 4.45635, 0.0145774l 4.45635, 0.028173h 22.2817" fill="none" stroke="black" stroke-width="3"/>
<path d="M531.123,269.128h 4.45635" fill="none" stroke="black" stroke-width="3"/>
<rect x="1.91732" y="269.128" width="564.094" height="114.38" fill="white"/>
<rect x="92.1724" y="269.128" width="445.635" height="80.0657" fill="white"/>
<rect x="92.1724" y="269.128" width="445.635" height="80.0657" fill="none" stroke="black"/>
<path d="M96.6288,308.674l 8.91269, -0.236388l 8.91269, -0.326153l 8.91269, -0.437438l 8.91269, -0.569653l 8.91269, -0.71925l 8.91269, -0.878909l 8.91269, -1.03705l 8.91269, -1.17795l 8.91269, -1.28274l 8.91269, -1.33141l 8.91269, -1.30595l 8.91269,
 -1.19432l 8.91269, -0.994891l 8.91269, -0.72057l 8.91269, -0.401828l 8.91269, -0.0871873l 8.91269, 0.160902l 8.91269, 0.278731l 8.91269, 0.227302l 8.91269, 0.0275844l 8.91269, -0.224605l 8.91269, -0.400832l 8.91269, -0.415594l 8.91269, -0.265221l
 8.91269, -0.0132573l 8.91269, 0.243563l 8.91269, 0.40728l 8.91269, 0.410244l 8.91269, 0.248975l 8.91269, 0.00166609l 8.91269, -0.205167l 8.91269, -0.270855l 8.91269, -0.167688l 8.91269, 0.0696266l 8.91269, 0.378734l 8.91269, 0.696754l 8.91269,
 0.973966l 8.91269, 1.1785l 8.91269, 1.29615l 8.91269, 1.32751l 8.91269, 1.28391l 8.91269, 1.18297l 8.91269, 1.04457l 8.91269, 0.887686l 8.91269, 0.728255l 8.91269, 0.578141l 8.91269, 0.444944l 8.91269, 0.332453l 8.91269, 0.241446v 1.00108l -8.91269,
 0.241446l -8.91269, 0.332453l -8.91269, 0.444944l -8.91269, 0.578141l -8.91269, 0.728255l -8.91269, 0.887686l -8.91269, 1.04457l -8.91269, 1.18297l -8.91269, 1.28391l -8.91269, 1.32751l -8.91269, 1.29615l -8.91269, 1.1785l -8.91269, 0.973966l
 -8.91269, 0.696754l -8.91269, 0.378734l -8.91269, 0.0696266l -8.91269, -0.167688l -8.91269, -0.270855l -8.91269, -0.205167l -8.91269, 0.00166609l -8.91269, 0.248975l -8.91269, 0.410244l -8.91269, 0.40728l -8.91269, 0.243563l -8.91269, -0.0132573l
 -8.91269, -0.265221l -8.91269, -0.415594l -8.91269, -0.400832l -8.91269, -0.224605l -8.91269, 0.0275844l -8.91269, 0.227302l -8.91269, 0.278731l -8.91269, 0.160902l -8.91269, -0.0871873l -8.91269, -0.401828l -8.91269, -0.72057l -8.91269, -0.994891l
 -8.91269, -1.19432l -8.91269, -1.30595l -8.91269, -1.33141l -8.91269, -1.28274l -8.91269, -1.17795l -8.91269, -1.03705l -8.91269, -0.878909l -8.91269, -0.71925l -8.91269, -0.569653l -8.91269, -0.437438l -8.91269, -0.326153l -8.91269, -0.236388z"
 fill="#00ff00"/>
<path d="M96.6288,308.918l 8.91269, -0.118197l 8.91269, -0.16308l 8.91269, -0.218724l 8.91269, -0.284832l 8.91269, -0.359632l 8.91269, -0.439463l 8.91269, -0.518535l 8.91269, -0.588987l 8.91269, -0.641381l 8.91269, -0.665716l 8.91269, -0.652988l
 8.91269, -0.597175l 8.91269, -0.497456l 8.91269, -0.360292l 8.91269, -0.200918l 8.91269, -0.0435946l 8.91269, 0.0804528l 8.91269, 0.139369l 8.91269, 0.113653l 8.91269, 0.0137925l 8.91269, -0.112305l 8.91269, -0.20042l 8.91269, -0.207802l 8.91269,
 -0.132613l 8.91269, -0.0066288l 8.91269, 0.121784l 8.91269, 0.203644l 8.91269, 0.205126l 8.91269, 0.12449l 8.91269, 0.00083306l 8.91269, -0.102585l 8.91269, -0.13543l 8.91269, -0.0838459l 8.91269, 0.034814l 8.91269, 0.189371l 8.91269, 0.348384l
 8.91269, 0.486993l 8.91269, 0.589264l 8.91269, 0.648089l 8.91269, 0.66377l 8.91269, 0.64197l 8.91269, 0.591498l 8.91269, 0.522297l 8.91269, 0.443852l 8.91269, 0.364135l 8.91269, 0.289076l 8.91269, 0.222476l 8.91269, 0.16623l 8.91269, 0.120726v
 0.500551l -8.91269, 0.120726l -8.91269, 0.16623l -8.91269, 0.222476l -8.91269, 0.289076l -8.91269, 0.364135l -8.91269, 0.443852l -8.91269, 0.522297l -8.91269, 0.591498l -8.91269, 0.64197l -8.91269, 0.66377l -8.91269, 0.648089l -8.91269, 0.589264l
 -8.91269, 0.486993l -8.91269, 0.348384l -8.91269, 0.189371l -8.91269, 0.034814l -8.91269, -0.0838459l -8.91269, -0.13543l -8.91269, -0.102585l -8.91269, 0.00083306l -8.91269, 0.12449l -8.91269, 0.205126l -8.91269, 0.203644l -8.91269, 0.121784l
 -8.91269, -0.0066288l -8.91269, -0.132613l -8.91269, -0.207802l -8.91269, -0.20042l -8.91269, -0.112305l -8.91269, 0.0137925l -8.91269, 0.113653l -8.91269, 0.139369l -8.91269, 0.0804528l -8.91269, -0.0435946l -8.91269, -0.200918l -8.91269,
 -0.360292l -8.91269, -0.497456l -8.91269, -0.597175l -8.91269, -0.652988l -8.91269, -0.665716l -8.91269, -0.641381l -8.91269, -0.588987l -8.91269, -0.518535l -8.91269, -0.439463l -8.91269, -0.359632l -8.91269, -0.284832l -8.91269, -0.218724l
 -8.91269, -0.16308l -8.91269, -0.118197z" fill="#ffff00"/>
<path d="M93.3706,310.162h -1.19813" fill="none" stroke="black"/>
<path d="M99.887,310.162h 1.19813" fill="none" stroke="black"/>
<path d="M92.1724,310.162z" fill="none" stroke="black"/>
<path d="M101.085,310.162z" fill="none" stroke="black"/>
<path d="M96.6288,306.903v -6.75" fill="none" stroke="black"/>
<path d="M96.6288,313.42v 6.75" fill="none" stroke="black"/>
<path d="M96.6288,300.153z" fill="none" stroke="black"/>
<path d="M96.6288,320.17z" fill="none" stroke="black"/>
<path d="M102.283,310.775h -1.19813" fill="none" stroke="black"/>
<path d="M108.8,310.775h 1.19813" fill="none" stroke="black"/>
<path d="M101.085,310.775z" fill="none" stroke="black"/>
<path d="M109.998,310.775z" fill="none" stroke="black"/>
<path d="M105.541,307.517v -6.75" fill="none" stroke="black"/>
<path d="M105.541,314.033v 6.75" fill="none" stroke="black"/>
<path d="M105.541,300.767z" fill="none" stroke="black"/>
<path d="M105.541,320.783z" fill="none" stroke="black"/>
<path d="M111.196,311.713h -1.19813" fill="none" stroke="black"/>
<path d="M117.712,311.713h 1.19813" fill="none" stroke="black"/>
<path d="M109.998,311.713z" fill="none" stroke="black"/>
<path d="M118.911,311.713z" fill="none" stroke="black"/>
<path d="M114.454,308.454v -6.75" fill="none" stroke="black"/>
<path d="M114.454,314.971v 6.75" fill="none" stroke="black"/>
<path d="M114.454,301.704z" fill="none" stroke="black"/>
<path d="M114.454,321.721z" fill="none" stroke="black"/>
<path d="M129.021,315.171h -1.19813" fill="none" stroke="black"/>
<path d="M135.538,315.171h 1.19813" fill="none" stroke="black"/>
<path d="M127.823,315.171z" fill="none" stroke="black"/>
<path d="M136.736,315.171z" fill="none" stroke="black"/>
<path d="M132.28,311.913v -6.75" fill="none" stroke="black"/>
<path d="M132.28,318.429v 6.75" fill="none" stroke="black"/>
<path d="M132.28,305.163z" fill="none" stroke="black"/>
<path d="M132.28,325.179z" fill="none" stroke="black"/>
<path d="M137.934,318.113h -1.19813" fill="none" stroke="black"/>
<path d="M144.45,318.113h 1.19813" fill="none" stroke="black"/>
<path d="M136.736,318.113z" fill="none" stroke="black"/>
<path d="M145.649,318.113z" fill="none" stroke="black"/>
<path d="M141.192,314.855v -6.75" fill="none" stroke="black"/>
<path d="M141.192,321.371v 6.75" fill="none" stroke="black"/>
<path d="M141.192,308.105z" fill="none" stroke="black"/>
<path d="M141.192,328.121z" fill="none" stroke="black"/>
<path d="M146.847,322.233h -1.19813" fill="none" stroke="black"/>
<path d="M153.363,322.233h 1.19813" fill="none" stroke="black"/>
<path d="M145.649,322.233z" fill="none" stroke="black"/>
<path d="M154.561,322.233z" fill="none" stroke="black"/>
<path d="M150.105,318.975v -6.75" fill="none" stroke="black"/>
<path d="M150.105,325.491v 6.75" fill="none" stroke="black"/>
<path d="M150.105,312.225z" fill="none" stroke="black"/>
<path d="M150.105,332.241z" fill="none" stroke="black"/>
<path d="M155.759,306.462h -1.19813" fill="none" stroke="black"/>
<path d="M162.276,306.462h 1.19813" fill="none" stroke="black"/>
<path d="M154.561,306.462z" fill="none" stroke="black"/>
<path d="M163.474,306.462z" fill="none" stroke="black"/>
<path d="M159.018,303.204v -6.75" fill="none" stroke="black"/>
<path d="M159.018,309.72v 6.75" fill="none" stroke="black"/>
<path d="M159.018,296.454z" fill="none" stroke="black"/>
<path d="M159.018,316.47z" fill="none" stroke="black"/>
<path d="M164.672,335.421h -1.19813" fill="none" stroke="black"/>
<path d="M171.189,335.421h 1.19813" fill="none" stroke="black"/>
<path d="M163.474,335.421z" fill="none" stroke="black"/>
<path d="M172.387,335.421z" fill="none" stroke="black"/>
<path d="M167.93,332.162v -6.75" fill="none" stroke="black"/>
<path d="M167.93,338.679v 6.75" fill="none" stroke="black"/>
<path d="M167.93,325.412z" fill="none" stroke="black"/>
<path d="M167.93,345.429z" fill="none" stroke="black"/>
<path d="M173.585,278.739h -1.19813" fill="none" stroke="black"/>
<path d="M180.101,278.739h 1.19813" fill="none" stroke="black"/>
<path d="M172.387,278.739z" fill="none" stroke="black"/>
<path d="M181.299,278.739z" fill="none" stroke="black"/>
<path d="M176.843,275.48v -6.35201" fill="none" stroke="black"/>
<path d="M176.843,281.997v 6.75" fill="none" stroke="black"/>
<path d="M176.843,269.128z" fill="none" stroke="black"/>
<path d="M176.843,288.747z" fill="none" stroke="black"/>
<path d="M182.497,316.756h -1.19813" fill="none" stroke="black"/>
<path d="M189.014,316.756h 1.19813" fill="none" stroke="black"/>
<path d="M181.299,316.756z" fill="none" stroke="black"/>
<path d="M190.212,316.756z" fill="none" stroke="black"/>
<path d="M185.756,313.498v -6.75" fill="none" stroke="black"/>
<path d="M185.756,320.014v 6.75" fill="none" stroke="black"/>
<path d="M185.756,306.748z" fill="none" stroke="black"/>
<path d="M185.756,326.764z" fill="none" stroke="black"/>
<path d="M200.323,335.025h -1.19813" fill="none" stroke="black"/>
<path d="M206.839,335.025h 1.19813" fill="none" stroke="black"/>
<path d="M199.125,335.025z" fill="none" stroke="black"/>
<path d="M208.037,335.025z" fill="none" stroke="black"/>
<path d="M203.581,331.767v -6.75" fill="none" stroke="black"/>
<path d="M203.581,338.283v 6.75" fill="none" stroke="black"/>
<path d="M203.581,325.017z" fill="none" stroke="black"/>
<path d="M203.581,345.033z" fill="none" stroke="black"/>
<path d="M209.236,324.523h -1.19813" fill="none" stroke="black"/>
<path d="M215.752,324.523h 1.19813" fill="none" stroke="black"/>
<path d="M208.037,324.523z" fill="none" stroke="black"/>
<path d="M216.95,324.523z" fill="none" stroke="black"/>
<path d="M212.494,321.264v -6.75" fill="none" stroke="black"/>
<path d="M212.494,327.781v 6.75" fill="none" stroke="black"/>
<path d="M212.494,314.514z" fill="none" stroke="black"/>
<path d="M212.494,334.531z" fill="none" stroke="black"/>
<path d="M218.148,292.577h -1.19813" fill="none" stroke="black"/>
<path d="M224.665,292.577h 1.19813" fill="none" stroke="black"/>
<path d="M216.95,292.577z" fill="none" stroke="black"/>
<path d="M225.863,292.577z" fill="none" stroke="black"/>
<path d="M221.406,289.318v -6.75" fill="none" stroke="black"/>
<path d="M221.406,295.835v 6.75" fill="none" stroke="black"/>
<path d="M221.406,282.568z" fill="none" stroke="black"/>
<path d="M221.406,302.585z" fill="none" stroke="black"/>
<path d="M227.061,316.347h -1.19813" fill="none" stroke="black"/>
<path d="M233.577,316.347h 1.19813" fill="none" stroke="black"/>
<path d="M225.863,316.347z" fill="none" stroke="black"/>
<path d="M234.776,316.347z" fill="none" stroke="black"/>
<path d="M230.319,313.089v -6.75" fill="none" stroke="black"/>
<path d="M230.319,319.605v 6.75" fill="none" stroke="black"/>
<path d="M230.319,306.339z" fill="none" stroke="black"/>
<path d="M230.319,326.355z" fill="none" stroke="black"/>
<path d="M235.974,311.148h -1.19813" fill="none" stroke="black"/>
<path d="M242.49,311.148h 1.19813" fill="none" stroke="black"/>
<path d="M234.776,311.148z" fill="none" stroke="black"/>
<path d="M243.688,311.148z" fill="none" stroke="black"/>
<path d="M239.232,307.89v -6.75" fill="none" stroke="black"/>
<path d="M239.232,314.407v 6.75" fill="none" stroke="black"/>
<path d="M239.232,301.14z" fill="none" stroke="black"/>
<path d="M239.232,321.157z" fill="none" stroke="black"/>
<path d="M244.886,305.564h -1.19813" fill="none" stroke="black"/>
<path d="M251.403,305.564h 1.19813" fill="none" stroke="black"/>
<path d="M243.688,305.564z" fill="none" stroke="black"/>
<path d="M252.601,305.564z" fill="none" stroke="black"/>
<path d="M248.145,302.306v -6.75" fill="none" stroke="black"/>
<path d="M248.145,308.822v 6.75" fill="none" stroke="black"/>
<path d="M248.145,295.556z" fill="none" stroke="black"/>
<path d="M248.145,315.572z" fill="none" stroke="black"/>
<path d="M253.799,304.996h -1.19813" fill="none" stroke="black"/>
<path d="M260.315,304.996h 1.19813" fill="none" stroke="black"/>
<path d="M252.601,304.996z" fill="none" stroke="black"/>
<path d="M261.514,304.996z" fill="none" stroke="black"/>
<path d="M257.057,301.738v -6.75" fill="none" stroke="black"/>
<path d="M257.057,308.254v 6.75" fill="none" stroke="black"/>
<path d="M257.057,294.988z" fill="none" stroke="black"/>
<path d="M257.057,315.004z" fill="none" stroke="black"/>
<path d="M262.712,287.643h -1.19813" fill="none" stroke="black"/>
<path d="M269.228,287.643h 1.19813" fill="none" stroke="black"/>
<path d="M261.514,287.643z" fill="none" stroke="black"/>
<path d="M270.426,287.643z" fill="none" stroke="black"/>
<path d="M265.97,284.384v -6.75" fill="none" stroke="black"/>
<path d="M265.97,290.901v 6.75" fill="none" stroke="black"/>
<path d="M265.97,277.634z" fill="none" stroke="black"/>
<path d="M265.97,297.651z" fill="none" stroke="black"/>
<path d="M271.624,299.233h -1.19813" fill="none" stroke="black"/>
<path d="M278.141,299.233h 1.19813" fill="none" stroke="black"/>
<path d="M270.426,299.233z" fill="none" stroke="black"/>
<path d="M279.339,299.233z" fill="none" stroke="black"/>
<path d="M274.883,295.975v -6.75" fill="none" stroke="black"/>
<path d="M274.883,302.491v 6.75" fill="none" stroke="black"/>
<path d="M274.883,289.225z" fill="none" stroke="black"/>
<path d="M274.883,309.241z" fill="none" stroke="black"/>
<path d="M280.537,328.231h -1.19813" fill="none" stroke="black"/>
<path d="M287.054,328.231h 1.19813" fill="none" stroke="black"/>
<path d="M279.339,328.231z" fill="none" stroke="black"/>
<path d="M288.252,328.231z" fill="none" stroke="black"/>
<path d="M283.795,324.973v -6.75" fill="none" stroke="black"/>
<path d="M283.795,331.489v 6.75" fill="none" stroke="black"/>
<path d="M283.795,318.223z" fill="none" stroke="black"/>
<path d="M283.795,338.239z" fill="none" stroke="black"/>
<path d="M289.45,324.558h -1.19813" fill="none" stroke="black"/>
<path d="M295.966,324.558h 1.19813" fill="none" stroke="black"/>
<path d="M288.252,324.558z" fill="none" stroke="black"/>
<path d="M297.164,324.558z" fill="none" stroke="black"/>
<path d="M292.708,321.3v -6.75" fill="none" stroke="black"/>
<path d="M292.708,327.816v 6.75" fill="none" stroke="black"/>
<path d="M292.708,314.55z" fill="none" stroke="black"/>
<path d="M292.708,334.566z" fill="none" stroke="black"/>
<path d="M298.363,289.313h -1.19813" fill="none" stroke="black"/>
<path d="M304.879,289.313h 1.19813" fill="none" stroke="black"/>
<path d="M297.164,289.313z" fill="none" stroke="black"/>
<path d="M306.077,289.313z" fill="none" stroke="black"/>
<path d="M301.621,286.054v -6.75" fill="none" stroke="black"/>
<path d="M301.621,292.571v 6.75" fill="none" stroke="black"/>
<path d="M301.621,279.304z" fill="none" stroke="black"/>
<path d="M301.621,299.321z" fill="none" stroke="black"/>
<path d="M307.275,304.723h -1.19813" fill="none" stroke="black"/>
<path d="M313.792,304.723h 1.19813" fill="none" stroke="black"/>
<path d="M306.077,304.723z" fill="none" stroke="black"/>
<path d="M314.99,304.723z" fill="none" stroke="black"/>
<path d="M310.533,301.465v -6.75" fill="none" stroke="black"/>
<path d="M310.533,307.982v 6.75" fill="none" stroke="black"/>
<path d="M310.533,294.715z" fill="none" stroke="black"/>
<path d="M310.533,314.732z" fill="none" stroke="black"/>
<path d="M316.188,305.276h -1.19813" fill="none" stroke="black"/>
<path d="M322.704,305.276h 1.19813" fill="none" stroke="black"/>
<path d="M314.99,305.276z" fill="none" stroke="black"/>
<path d="M323.902,305.276z" fill="none" stroke="black"/>
<path d="M319.446,302.018v -6.75" fill="none" stroke="black"/>
<path d="M319.446,308.534v 6.75" fill="none" stroke="black"/>
<path d="M319.446,295.268z" fill="none" stroke="black"/>
<path d="M319.446,315.284z" fill="none" stroke="black"/>
<path d="M325.101,314.607h -1.19813" fill="none" stroke="black"/>
<path d="M331.617,314.607h 1.19813" fill="none" stroke="black"/>
<path d="M323.902,314.607z" fill="none" stroke="black"/>
<path d="M332.815,314.607z" fill="none" stroke="black"/>
<path d="M328.359,311.349v -6.75" fill="none" stroke="black"/>
<path d="M328.359,317.865v 6.75" fill="none" stroke="black"/>
<path d="M328.359,304.599z" fill="none" stroke="black"/>
<path d="M328.359,324.615z" fill="none" stroke="black"/>
<path d="M334.013,328.158h -1.19813" fill="none" stroke="black"/>
<path d="M340.53,328.158h 1.19813" fill="none" stroke="black"/>
<path d="M332.815,328.158z" fill="none" stroke="black"/>
<path d="M341.728,328.158z" fill="none" stroke="black"/>
<path d="M337.271,324.9v -6.75" fill="none" stroke="black"/>
<path d="M337.271,331.416v 6.75" fill="none" stroke="black"/>
<path d="M337.271,318.15z" fill="none" stroke="black"/>
<path d="M337.271,338.166z" fill="none" stroke="black"/>
<path d="M342.926,315.674h -1.19813" fill="none" stroke="black"/>
<path d="M349.442,315.674h 1.19813" fill="none" stroke="black"/>
<path d="M341.728,315.674z" fill="none" stroke="black"/>
<path d="M350.641,315.674z" fill="none" stroke="black"/>
<path d="M346.184,312.416v -6.75" fill="none" stroke="black"/>
<path d="M346.184,318.932v 6.75" fill="none" stroke="black"/>
<path d="M346.184,305.666z" fill="none" stroke="black"/>
<path d="M346.184,325.682z" fill="none" stroke="black"/>
<path d="M351.839,303.337h -1.19813" fill="none" stroke="black"/>
<path d="M358.355,303.337h 1.19813" fill="none" stroke="black"/>
<path d="M350.641,303.337z" fill="none" stroke="black"/>
<path d="M359.553,303.337z" fill="none" stroke="black"/>
<path d="M355.097,300.078v -6.75" fill="none" stroke="black"/>
<path d="M355.097,306.595v 6.75" fill="none" stroke="black"/>
<path d="M355.097,293.328z" fill="none" stroke="black"/>
<path d="M355.097,313.345z" fill="none" stroke="black"/>
<path d="M360.751,289.567h -1.19813" fill="none" stroke="black"/>
<path d="M367.268,289.567h 1.19813" fill="none" stroke="black"/>
<path d="M359.553,289.567z" fill="none" stroke="black"/>
<path d="M368.466,289.567z" fill="none" stroke="black"/>
<path d="M364.01,286.309v -6.75" fill="none" stroke="black"/>
<path d="M364.01,292.825v 6.75" fill="none" stroke="black"/>
<path d="M364.01,279.559z" fill="none" stroke="black"/>
<path d="M364.01,299.575z" fill="none" stroke="black"/>
<path d="M369.664,326.489h -1.19813" fill="none" stroke="black"/>
<path d="M376.18,326.489h 1.19813" fill="none" stroke="black"/>
<path d="M368.466,326.489z" fill="none" stroke="black"/>
<path d="M377.379,326.489z" fill="none" stroke="black"/>
<path d="M372.922,323.23v -6.75" fill="none" stroke="black"/>
<path d="M372.922,329.747v 6.75" fill="none" stroke="black"/>
<path d="M372.922,316.48z" fill="none" stroke="black"/>
<path d="M372.922,336.497z" fill="none" stroke="black"/>
<path d="M378.577,294.54h -1.19813" fill="none" stroke="black"/>
<path d="M385.093,294.54h 1.19813" fill="none" stroke="black"/>
<path d="M377.379,294.54z" fill="none" stroke="black"/>
<path d="M386.291,294.54z" fill="none" stroke="black"/>
<path d="M381.835,291.282v -6.75" fill="none" stroke="black"/>
<path d="M381.835,297.799v 6.75" fill="none" stroke="black"/>
<path d="M381.835,284.532z" fill="none" stroke="black"/>
<path d="M381.835,304.549z" fill="none" stroke="black"/>
<path d="M387.489,303.354h -1.19813" fill="none" stroke="black"/>
<path d="M394.006,303.354h 1.19813" fill="none" stroke="black"/>
<path d="M386.291,303.354z" fill="none" stroke="black"/>
<path d="M395.204,303.354z" fill="none" stroke="black"/>
<path d="M390.748,300.096v -6.75" fill="none" stroke="black"/>
<path d="M390.748,306.612v 6.75" fill="none" stroke="black"/>
<path d="M390.748,293.346z" fill="none" stroke="black"/>
<path d="M390.748,313.362z" fill="none" stroke="black"/>
<path d="M396.402,318.04h -1.19813" fill="none" stroke="black"/>
<path d="M402.919,318.04h 1.19813" fill="none" stroke="black"/>
<path d="M395.204,318.04z" fill="none" stroke="black"/>
<path d="M404.117,318.04z" fill="none" stroke="black"/>
<path d="M399.66,314.782v -6.75" fill="none" stroke="black"/>
<path d="M399.66,321.298v 6.75" fill="none" stroke="black"/>
<path d="M399.66,308.032z" fill="none" stroke="black"/>
<path d="M399.66,328.048z" fill="none" stroke="black"/>
<path d="M405.315,314.593h -1.19813" fill="none" stroke="black"/>
<path d="M411.831,314.593h 1.19813" fill="none" stroke="black"/>
<path d="M404.117,314.593z" fill="none" stroke="black"/>
<path d="M413.029,314.593z" fill="none" stroke="black"/>
<path d="M408.573,311.335v -6.75" fill="none" stroke="black"/>
<path d="M408.573,317.851v 6.75" fill="none" stroke="black"/>
<path d="M408.573,304.585z" fill="none" stroke="black"/>
<path d="M408.573,324.601z" fill="none" stroke="black"/>
<path d="M414.228,286.749h -1.19813" fill="none" stroke="black"/>
<path d="M420.744,286.749h 1.19813" fill="none" stroke="black"/>
<path d="M413.029,286.749z" fill="none" stroke="black"/>
<path d="M421.942,286.749z" fill="none" stroke="black"/>
<path d="M417.486,283.491v -6.75" fill="none" stroke="black"/>
<path d="M417.486,290.008v 6.75" fill="none" stroke="black"/>
<path d="M417.486,276.741z" fill="none" stroke="black"/>
<path d="M417.486,296.758z" fill="none" stroke="black"/>
<path d="M423.14,285.572h -1.19813" fill="none" stroke="black"/>
<path d="M429.657,285.572h 1.19813" fill="none" stroke="black"/>
<path d="M421.942,285.572z" fill="none" stroke="black"/>
<path d="M430.855,285.572z" fill="none" stroke="black"/>
<path d="M426.398,282.314v -6.75" fill="none" stroke="black"/>
<path d="M426.398,288.83v 6.75" fill="none" stroke="black"/>
<path d="M426.398,275.564z" fill="none" stroke="black"/>
<path d="M426.398,295.58z" fill="none" stroke="black"/>
<path d="M432.053,301.509h -1.19813" fill="none" stroke="black"/>
<path d="M438.569,301.509h 1.19813" fill="none" stroke="black"/>
<path d="M430.855,301.509z" fill="none" stroke="black"/>
<path d="M439.767,301.509z" fill="none" stroke="black"/>
<path d="M435.311,298.251v -6.75" fill="none" stroke="black"/>
<path d="M435.311,304.767v 6.75" fill="none" stroke="black"/>
<path d="M435.311,291.501z" fill="none" stroke="black"/>
<path d="M435.311,311.517z" fill="none" stroke="black"/>
<path d="M440.966,286.316h -1.19813" fill="none" stroke="black"/>
<path d="M447.482,286.316h 1.19813" fill="none" stroke="black"/>
<path d="M439.767,286.316z" fill="none" stroke="black"/>
<path d="M448.68,286.316z" fill="none" stroke="black"/>
<path d="M444.224,283.058v -6.75" fill="none" stroke="black"/>
<path d="M444.224,289.575v 6.75" fill="none" stroke="black"/>
<path d="M444.224,276.308z" fill="none" stroke="black"/>
<path d="M444.224,296.325z" fill="none" stroke="black"/>
<path d="M449.878,335.213h -1.19813" fill="none" stroke="black"/>
<path d="M456.395,335.213h 1.19813" fill="none" stroke="black"/>
<path d="M448.68,335.213z" fill="none" stroke="black"/>
<path d="M457.593,335.213z" fill="none" stroke="black"/>
<path d="M453.137,331.954v -6.75" fill="none" stroke="black"/>
<path d="M453.137,338.471v 6.75" fill="none" stroke="black"/>
<path d="M453.137,325.204z" fill="none" stroke="black"/>
<path d="M453.137,345.221z" fill="none" stroke="black"/>
<path d="M458.791,336.027h -1.19813" fill="none" stroke="black"/>
<path d="M465.307,336.027h 1.19813" fill="none" stroke="black"/>
<path d="M457.593,336.027z" fill="none" stroke="black"/>
<path d="M466.506,336.027z" fill="none" stroke="black"/>
<path d="M462.049,332.769v -6.75" fill="none" stroke="black"/>
<path d="M462.049,339.285v 6.75" fill="none" stroke="black"/>
<path d="M462.049,326.019z" fill="none" stroke="black"/>
<path d="M462.049,346.035z" fill="none" stroke="black"/>
<path d="M476.616,292.696h -1.19813" fill="none" stroke="black"/>
<path d="M483.133,292.696h 1.19813" fill="none" stroke="black"/>
<path d="M475.418,292.696z" fill="none" stroke="black"/>
<path d="M484.331,292.696z" fill="none" stroke="black"/>
<path d="M479.875,289.438v -6.75" fill="none" stroke="black"/>
<path d="M479.875,295.954v 6.75" fill="none" stroke="black"/>
<path d="M479.875,282.688z" fill="none" stroke="black"/>
<path d="M479.875,302.704z" fill="none" stroke="black"/>
<path d="M485.529,318.358h -1.19813" fill="none" stroke="black"/>
<path d="M492.046,318.358h 1.19813" fill="none" stroke="black"/>
<path d="M484.331,318.358z" fill="none" stroke="black"/>
<path d="M493.244,318.358z" fill="none" stroke="black"/>
<path d="M488.787,315.1v -6.75" fill="none" stroke="black"/>
<path d="M488.787,321.616v 6.75" fill="none" stroke="black"/>
<path d="M488.787,308.35z" fill="none" stroke="black"/>
<path d="M488.787,328.366z" fill="none" stroke="black"/>
<path d="M503.354,313.236h -1.19813" fill="none" stroke="black"/>
<path d="M509.871,313.236h 1.19813" fill="none" stroke="black"/>
<path d="M502.156,313.236z" fill="none" stroke="black"/>
<path d="M511.069,313.236z" fill="none" stroke="black"/>
<path d="M506.613,309.977v -6.75" fill="none" stroke="black"/>
<path d="M506.613,316.494v 6.75" fill="none" stroke="black"/>
<path d="M506.613,303.227z" fill="none" stroke="black"/>
<path d="M506.613,323.244z" fill="none" stroke="black"/>
<path d="M512.267,311.793h -1.19813" fill="none" stroke="black"/>
<path d="M518.784,311.793h 1.19813" fill="none" stroke="black"/>
<path d="M511.069,311.793z" fill="none" stroke="black"/>
<path d="M519.982,311.793z" fill="none" stroke="black"/>
<path d="M515.525,308.535v -6.75" fill="none" stroke="black"/>
<path d="M515.525,315.052v 6.75" fill="none" stroke="black"/>
<path d="M515.525,301.785z" fill="none" stroke="black"/>
<path d="M515.525,321.802z" fill="none" stroke="black"/>
<path d="M521.18,310.828h -1.19813" fill="none" stroke="black"/>
<path d="M527.696,310.828h 1.19813" fill="none" stroke="black"/>
<path d="M519.982,310.828z" fill="none" stroke="black"/>
<path d="M528.894,310.828z" fill="none" stroke="black"/>
<path d="M524.438,307.57v -6.75" fill="none" stroke="black"/>
<path d="M524.438,314.086v 6.75" fill="none" stroke="black"/>
<path d="M524.438,300.82z" fill="none" stroke="black"/>
<path d="M524.438,320.836z" fill="none" stroke="black"/>
<path d="M530.093,310.196h -1.19813" fill="none" stroke="black"/>
<path d="M536.609,310.196h 1.19813" fill="none" stroke="black"/>
<path d="M528.894,310.196z" fill="none" stroke="black"/>
<path d="M537.807,310.196z" fill="none" stroke="black"/>
<path d="M533.351,306.938v -6.75" fill="none" stroke="black"/>
<path d="M533.351,313.454v 6.75" fill="none" stroke="black"/>
<path d="M533.351,300.188z" fill="none" stroke="black"/>
<path d="M533.351,320.204z" fill="none" stroke="black"/>
<path d="M96.6288,310.162l 8.91269, 0.613207l 8.91269, 0.937818l 1.88627, -42.5843" fill="none" stroke="black"/>
<path d="M130.275,269.128l 2.00499, 46.0423" fill="none" stroke="black"/>
<path d="M132.28,315.171l 8.91269, 2.94223l 8.91269, 4.12012l 8.91269, -15.7708l 8.91269, 28.9583l 8.91269, -56.6819l 8.91269, 38.0174l 7.69438, -47.6276" fill="none" stroke="black"/>
<path d="M195.584,269.128l 7.99746, 65.8968" fill="none" stroke="black"/>
<path d="M203.581,335.025l 8.91269, -10.5027l 8.91269, -31.9459l 8.91269, 23.7704l 8.91269, -5.1986l 8.91269, -5.58416l 8.91269, -0.568433l 8.91269, -17.3533l 8.91269, 11.5905l 8.91269, 28.9979l 8.91269, -3.67289l 8.91269, -35.2455l 8.91269, 15.4107l
 8.91269, 0.552539l 8.91269, 9.3314l 8.91269, 13.551l 8.91269, -12.4843l 8.91269, -12.3372l 8.91269, -13.7696l 8.91269, 36.9215l 8.91269, -31.9483l 8.91269, 8.81349l 8.91269, 14.6861l 8.91269, -3.4467l 8.91269, -27.8439l 8.91269, -1.17722l 8.91269,
 15.9368l 8.91269, -15.1926l 8.91269, 48.8963l 8.91269, 0.814197l 8.47035, -66.8985" fill="none" stroke="black"/>
<path d="M472.112,269.128l 7.76208, 23.5678" fill="none" stroke="black"/>
<path d="M479.875,292.696l 8.91269, 25.6616l 6.46953, -49.2294" fill="none" stroke="black"/>
<path d="M500.343,269.128l 6.26993, 44.1071" fill="none" stroke="black"/>
<path d="M506.613,313.236l 8.91269, -1.44215l 8.91269, -0.965169l 8.91269, -0.632043" fill="none" stroke="black"/>
<path d="M92.1724,289.145h 445.635" fill="none" stroke="black" stroke-dasharray=" 3, 3"/>
<path d="M92.1724,309.161h 445.635" fill="none" stroke="black" stroke-dasharray=" 3, 3"/>
<path d="M92.1724,329.178h 445.635" fill="none" stroke="black" stroke-dasharray=" 3, 3"/>
<path d="M92.1724,268.744h 445.635" fill="none" stroke="black"/>
<path d="M92.1724,259.678v 9.06636" fill="none" stroke="black"/>
<path d="M101.085,264.211v 4.53318" fill="none" stroke="black"/>
<path d="M109.998,264.211v 4.53318" fill="none" stroke="black"/>
<path d="M118.911,264.211v 4.53318" fill="none" stroke="black"/>
<path d="M127.823,264.211v 4.53318" fill="none" stroke="black"/>
<path d="M136.736,259.678v 9.06636" fill="none" stroke="black"/>
<path d="M145.649,264.211v 4.53318" fill="none" stroke="black"/>
<path d="M154.561,264.211v 4.53318" fill="none" stroke="black"/>
<path d="M163.474,264.211v 4.53318" fill="none" stroke="black"/>
<path d="M172.387,264.211v 4.53318" fill="none" stroke="black"/>
<path d="M181.299,259.678v 9.06636" fill="none" stroke="black"/>
<path d="M190.212,264.211v 4.53318" fill="none" stroke="black"/>
<path d="M199.125,264.211v 4.53318" fill="none" stroke="black"/>
<path d="M208.037,264.211v 4.53318" fill="none" stroke="black"/>
<path d="M216.95,264.211v 4.53318" fill="none" stroke="black"/>
<path d="M225.863,259.678v 9.06636" fill="none" stroke="black"/>
<path d="M234.776,264.211v 4.53318" fill="none" stroke="black"/>
<path d="M243.688,264.211v 4.53318" fill="none" stroke="black"/>
<path d="M252.601,264.211v 4.53318" fill="none" stroke="black"/>
<path d="M261.514,264.211v 4.53318" fill="none" stroke="black"/>
<path d="M270.426,259.678v 9.06636" fill="none" stroke="black"/>
<path d="M279.339,264.211v 4.53318" fill="none" stroke="black"/>
<path d="M288.252,264.211v 4.53318" fill="none" stroke="black"/>
<path d="M297.164,264.211v 4.53318" fill="none" stroke="black"/>
<path d="M306.077,264.211v 4.53318" fill="none" stroke="black"/>
<path d="M314.99,259.678v 9.06636" fill="none" stroke="black"/>
<path d="M323.902,264.211v 4.53318" fill="none" stroke="black"/>
<path d="M332.815,264.211v 4.53318" fill="none" stroke="black"/>
<path d="M341.728,264.211v 4.53318" fill="none" stroke="black"/>
<path d="M350.641,264.211v 4.53318" fill="none" stroke="black"/>
<path d="M359.553,259.678v 9.06636" fill="none" stroke="black"/>
<path d="M368.466,264.211v 4.53318" fill="none" stroke="black"/>
<path d="M377.379,264.211v 4.53318" fill="none" stroke="black"/>
<path d="M386.291,264.211v 4.53318" fill="none" stroke="black"/>
<path d="M395.204,264.211v 4.53318" fill="none" stroke="black"/>
<path d="M404.117,259.678v 9.06636" fill="none" stroke="black"/>
<path d="M413.029,264.211v 4.53318" fill="none" stroke="black"/>
<path d="M421.942,264.211v 4.53318" fill="none" stroke="black"/>
<path d="M430.855,264.211v 4.53318" fill="none" stroke="black"/>
<path d="M439.767,264.211v 4.53318" fill="none" stroke="black"/>
<path d="M448.68,259.678v 9.06636" fill="none" stroke="black"/>
<path d="M457.593,264.211v 4.53318" fill="none" stroke="black"/>
<path d="M466.506,264.211v 4.53318" fill="none" stroke="black"/>
<path d="M475.418,264.211v 4.53318" fill="none" stroke="black"/>
<path d="M484.331,264.211v 4.53318" fill="none" stroke="black"/>
<path d="M493.244,259.678v 9.06636" fill="none" stroke="black"/>
<path d="M502.156,264.211v 4.53318" fill="none" stroke="black"/>
<path d="M511.069,264.211v 4.53318" fill="none" stroke="black"/>
<path d="M519.982,264.211v 4.53318" fill="none" stroke="black"/>
<path d="M528.894,264.211v 4.53318" fill="none" stroke="black"/>
<path d="M537.807,259.678v 9.06636" fill="none" stroke="black"/>
<path d="M92.1724,268.744v -241.005" fill="none" stroke="black"/>
<path d="M102.834,268.744h -10.6614" fill="none" stroke="black"/>
<path d="M97.5031,263.252h -5.33069" fill="none" stroke="black"/>
<path d="M97.5031,257.76h -5.33069" fill="none" stroke="black"/>
<path d="M97.5031,252.269h -5.33069" fill="none" stroke="black"/>
<path d="M97.5031,246.777h -5.33069" fill="none" stroke="black"/>
<path d="M102.834,241.285h -10.6614" fill="none" stroke="black"/>
<path d="M97.5031,235.793h -5.33069" fill="none" stroke="black"/>
<path d="M97.5031,230.302h -5.33069" fill="none" stroke="black"/>
<path d="M97.5031,224.81h -5.33069" fill="none" stroke="black"/>
<path d="M97.5031,219.318h -5.33069" fill="none" stroke="black"/>
<path d="M102.834,213.826h -10.6614" fill="none" stroke="black"/>
<path d="M97.5031,208.335h -5.33069" fill="none" stroke="black"/>
<path d="M97.5031,202.843h -5.33069" fill="none" stroke="black"/>
<path d="M97.5031,197.351h -5.33069" fill="none" stroke="black"/>
<path d="M97.5031,191.859h -5.33069" fill="none" stroke="black"/>
<path d="M102.834,186.368h -10.6614" fill="none" stroke="black"/>
<path d="M97.5031,180.876h -5.33069" fill="none" stroke="black"/>
<path d="M97.5031,175.384h -5.33069" fill="none" stroke="black"/>
<path d="M97.5031,169.892h -5.33069" fill="none" stroke="black"/>
<path d="M97.5031,164.4h -5.33069" fill="none" stroke="black"/>
<path d="M102.834,158.909h -10.6614" fill="none" stroke="black"/>
<path d="M97.5031,153.417h -5.33069" fill="none" stroke="black"/>
<path d="M97.5031,147.925h -5.33069" fill="none" stroke="black"/>
<path d="M97.5031,142.433h -5.33069" fill="none" stroke="black"/>
<path d="M97.5031,136.942h -5.33069" fill="none" stroke="black"/>
<path d="M102.834,131.45h -10.6614" fill="none" stroke="black"/>
<path d="M97.5031,125.958h -5.33069" fill="none" stroke="black"/>
<path d="M97.5031,120.466h -5.33069" fill="none" stroke="black"/>
<path d="M97.5031,114.975h -5.33069" fill="none" stroke="black"/>
<path d="M97.5031,109.483h -5.33069" fill="none" stroke="black"/>
<path d="M102.834,103.991h -10.6614" fill="none" stroke="black"/>
<path d="M97.5031,98.4994h -5.33069" fill="none" stroke="black"/>
<path d="M97.5031,93.0076h -5.33069" fill="none" stroke="black"/>
<path d="M97.5031,87.5159h -5.33069" fill="none" stroke="black"/>
<path d="M97.5031,82.0241h -5.33069" fill="none" stroke="black"/>
<path d="M102.834,76.5323h -10.6614" fill="none" stroke="black"/>
<path d="M97.5031,71.0406h -5.33069" fill="none" stroke="black"/>
<path d="M97.5031,65.5488h -5.33069" fill="none" stroke="black"/>
<path d="M97.5031,60.0571h -5.33069" fill="none" stroke="black"/>
<path d="M97.5031,54.5653h -5.33069" fill="none" stroke="black"/>
<path d="M102.834,49.0735h -10.6614" fill="none" stroke="black"/>
<path d="M102.834,49.0735h -10.6614" fill="none" stroke="black"/>
<path d="M97.5031,43.5818h -5.33069" fill="none" stroke="black"/>
<path d="M97.5031,38.09h -5.33069" fill="none" stroke="black"/>
<path d="M97.5031,32.5983h -5.33069" fill="none" stroke="black"/>
<text xml:space="preserve" x="79.5117" y="275.319" fill="black" font-size="18.048" font-family="Helvetica">0
</text>
<text xml:space="preserve" x="69.737" y="247.624" fill="black" font-size="18.048" font-family="Helvetica">50
</text>
<text xml:space="preserve" x="59.9624" y="220.744" fill="black" font-size="18.048" font-family="Helvetica">100
</text>
<text xml:space="preserve" x="59.9624" y="193.049" fill="black" font-size="18.048" font-family="Helvetica">150
</text>
<text xml:space="preserve" x="59.9624" y="165.354" fill="black" font-size="18.048" font-family="Helvetica">200
</text>
<text xml:space="preserve" x="59.9624" y="137.66" fill="black" font-size="18.048" font-family="Helvetica">250
</text>
<text xml:space="preserve" x="59.9624" y="110.779" fill="black" font-size="18.048" font-family="Helvetica">300
</text>
<text xml:space="preserve" x="59.9624" y="83.0844" fill="black" font-size="18.048" font-family="Helvetica">350
</text>
<text xml:space="preserve" x="59.9624" y="55.3896" fill="black" font-size="18.048" font-family="Helvetica">400
</text>
<g transform="rotate(-90,32.2676,36.6549)">
<text xml:space="preserve" x="32.2676" y="36.6549" fill="black" font-size="18.048" font-family="Helvetica">y
</text>
</g>
<path d="M92.1724,349.079h 445.635" fill="none" stroke="black"/>
<path d="M92.1724,340.012v 9.06636" fill="none" stroke="black"/>
<path d="M101.085,344.546v 4.53318" fill="none" stroke="black"/>
<path d="M109.998,344.546v 4.53318" fill="none" stroke="black"/>
<path d="M118.911,344.546v 4.53318" fill="none" stroke="black"/>
<path d="M127.823,344.546v 4.53318" fill="none" stroke="black"/>
<path d="M136.736,340.012v 9.06636" fill="none" stroke="black"/>
<path d="M145.649,344.546v 4.53318" fill="none" stroke="black"/>
<path d="M154.561,344.546v 4.53318" fill="none" stroke="black"/>
<path d="M163.474,344.546v 4.53318" fill="none" stroke="black"/>
<path d="M172.387,344.546v 4.53318" fill="none" stroke="black"/>
<path d="M181.299,340.012v 9.06636" fill="none" stroke="black"/>
<path d="M190.212,344.546v 4.53318" fill="none" stroke="black"/>
<path d="M199.125,344.546v 4.53318" fill="none" stroke="black"/>
<path d="M208.037,344.546v 4.53318" fill="none" stroke="black"/>
<path d="M216.95,344.546v 4.53318" fill="none" stroke="black"/>
<path d="M225.863,340.012v 9.06636" fill="none" stroke="black"/>
<path d="M234.776,344.546v 4.53318" fill="none" stroke="black"/>
<path d="M243.688,344.546v 4.53318" fill="none" stroke="black"/>
<path d="M252.601,344.546v 4.53318" fill="none" stroke="black"/>
<path d="M261.514,344.546v 4.53318" fill="none" stroke="black"/>
<path d="M270.426,340.012v 9.06636" fill="none" stroke="black"/>
<path d="M279.339,344.546v 4.53318" fill="none" stroke="black"/>
<path d="M288.252,344.546v 4.53318" fill="none" stroke="black"/>
<path d="M297.164,344.546v 4.53318" fill="none" stroke="black"/>
<path d="M306.077,344.546v 4.53318" fill="none" stroke="black"/>
<path d="M314.99,340.012v 9.06636" fill="none" stroke="black"/>
<path d="M323.902,344.546v 4.53318" fill="none" stroke="black"/>
<path d="M332.815,344.546v 4.53318" fill="none" stroke="black"/>
<path d="M341.728,344.546v 4.53318" fill="none" stroke="black"/>
<path d="M350.641,344.546v 4.53318" fill="none" stroke="black"/>
<path d="M359.553,340.012v 9.06636" fill="none" stroke="black"/>
<path d="M368.466,344.546v 4.53318" fill="none" stroke="black"/>
<path d="M377.379,344.546v 4.53318" fill="none" stroke="black"/>
<path d="M386.291,344.546v 4.53318" fill="none" stroke="black"/>
<path d="M395.204,344.546v 4.53318" fill="none" stroke="black"/>
<path d="M404.117,340.012v 9.06636" fill="none" stroke="black"/>
<path d="M413.029,344.546v 4.53318" fill="none" stroke="black"/>
<path d="M421.942,344.546v 4.53318" fill="none" stroke="black"/>
<path d="M430.855,344.546v 4.53318" fill="none" stroke="black"/>
<path d="M439.767,344.546v 4.53318" fill="none" stroke="black"/>
<path d="M448.68,340.012v 9.06636" fill="none" stroke="black"/>
<path d="M457.593,344.546v 4.53318" fill="none" stroke="black"/>
<path d="M466.506,344.546v 4.53318" fill="none" stroke="black"/>
<path d="M475.418,344.546v 4.53318" fill="none" stroke="black"/>
<path d="M484.331,344.546v 4.53318" fill="none" stroke="black"/>
<path d="M493.244,340.012v 9.06636" fill="none" stroke="black"/>
<path d="M502.156,344.546v 4.53318" fill="none" stroke="black"/>
<path d="M511.069,344.546v 4.53318" fill="none" stroke="black"/>
<path d="M519.982,344.546v 4.53318" fill="none" stroke="black"/>
<path d="M528.894,344.546v 4.53318" fill="none" stroke="black"/>
<path d="M537.807,340.012v 9.06636" fill="none" stroke="black"/>
<text xml:space="preserve" x="91.73" y="366.549" fill="black" font-size="18.048" font-family="Helvetica">5
</text>
<text xml:space="preserve" x="82.7699" y="366.549" fill="black" font-size="18.048" font-family="Times">&#8722;
</text>
<text xml:space="preserve" x="135.716" y="366.549" fill="black" font-size="18.048" font-family="Helvetica">4
</text>
<text xml:space="preserve" x="126.756" y="366.549" fill="black" font-size="18.048" font-family="Times">&#8722;
</text>
<text xml:space="preserve" x="180.516" y="366.549" fill="black" font-size="18.048" font-family="Helvetica">3
</text>
<text xml:space="preserve" x="171.556" y="366.549" fill="black" font-size="18.048" font-family="Times">&#8722;
</text>
<text xml:space="preserve" x="225.317" y="366.549" fill="black" font-size="18.048" font-family="Helvetica">2
</text>
<text xml:space="preserve" x="216.357" y="366.549" fill="black" font-size="18.048" font-family="Times">&#8722;
</text>
<text xml:space="preserve" x="270.932" y="366.549" fill="black" font-size="18.048" font-family="Helvetica">1
</text>
<text xml:space="preserve" x="261.972" y="366.549" fill="black" font-size="18.048" font-family="Times">&#8722;
</text>
<text xml:space="preserve" x="310.03" y="366.549" fill="black" font-size="18.048" font-family="Helvetica">0
</text>
<text xml:space="preserve" x="356.46" y="366.549" fill="black" font-size="18.048" font-family="Helvetica">1
</text>
<text xml:space="preserve" x="399.631" y="366.549" fill="black" font-size="18.048" font-family="Helvetica">2
</text>
<text xml:space="preserve" x="443.617" y="366.549" fill="black" font-size="18.048" font-family="Helvetica">3
</text>
<text xml:space="preserve" x="488.417" y="366.549" fill="black" font-size="18.048" font-family="Helvetica">4
</text>
<text xml:space="preserve" x="533.218" y="366.549" fill="black" font-size="18.048" font-family="Helvetica">5
</text>
<text xml:space="preserve" x="529.145" y="397.502" fill="black" font-size="18.048" font-family="Helvetica">x
</text>
<path d="M92.1724,349.079v -80.3348" fill="none" stroke="black"/>
<path d="M102.834,349.079h -10.6614" fill="none" stroke="black"/>
<path d="M97.5031,347.07h -5.33069" fill="none" stroke="black"/>
<path d="M97.5031,345.062h -5.33069" fill="none" stroke="black"/>
<path d="M97.5031,343.054h -5.33069" fill="none" stroke="black"/>
<path d="M97.5031,341.045h -5.33069" fill="none" stroke="black"/>
<path d="M102.834,339.037h -10.6614" fill="none" stroke="black"/>
<path d="M97.5031,337.029h -5.33069" fill="none" stroke="black"/>
<path d="M97.5031,335.02h -5.33069" fill="none" stroke="black"/>
<path d="M97.5031,333.012h -5.33069" fill="none" stroke="black"/>
<path d="M97.5031,331.003h -5.33069" fill="none" stroke="black"/>
<path d="M102.834,328.995h -10.6614" fill="none" stroke="black"/>
<path d="M97.5031,326.987h -5.33069" fill="none" stroke="black"/>
<path d="M97.5031,324.978h -5.33069" fill="none" stroke="black"/>
<path d="M97.5031,322.97h -5.33069" fill="none" stroke="black"/>
<path d="M97.5031,320.962h -5.33069" fill="none" stroke="black"/>
<path d="M102.834,318.953h -10.6614" fill="none" stroke="black"/>
<path d="M97.5031,316.945h -5.33069" fill="none" stroke="black"/>
<path d="M97.5031,314.936h -5.33069" fill="none" stroke="black"/>
<path d="M97.5031,312.928h -5.33069" fill="none" stroke="black"/>
<path d="M97.5031,310.92h -5.33069" fill="none" stroke="black"/>
<path d="M102.834,308.911h -10.6614" fill="none" stroke="black"/>
<path d="M97.5031,306.903h -5.33069" fill="none" stroke="black"/>
<path d="M97.5031,304.895h -5.33069" fill="none" stroke="black"/>
<path d="M97.5031,302.886h -5.33069" fill="none" stroke="black"/>
<path d="M97.5031,300.878h -5.33069" fill="none" stroke="black"/>
<path d="M102.834,298.87h -10.6614" fill="none" stroke="black"/>
<path d="M97.5031,296.861h -5.33069" fill="none" stroke="black"/>
<path d="M97.5031,294.853h -5.33069" fill="none" stroke="black"/>
<path d="M97.5031,292.844h -5.33069" fill="none" stroke="black"/>
<path d="M97.5031,290.836h -5.33069" fill="none" stroke="black"/>
<path d="M102.834,288.828h -10.6614" fill="none" stroke="black"/>
<path d="M97.5031,286.819h -5.33069" fill="none" stroke="black"/>
<path d="M97.5031,284.811h -5.33069" fill="none" stroke="black"/>
<path d="M97.5031,282.803h -5.33069" fill="none" stroke="black"/>
<path d="M97.5031,280.794h -5.33069" fill="none" stroke="black"/>
<path d="M102.834,278.786h -10.6614" fill="none" stroke="black"/>
<path d="M97.5031,276.777h -5.33069" fill="none" stroke="black"/>
<path d="M97.5031,274.769h -5.33069" fill="none" stroke="black"/>
<path d="M97.5031,272.761h -5.33069" fill="none" stroke="black"/>
<path d="M97.5031,270.752h -5.33069" fill="none" stroke="black"/>
<path d="M102.834,268.744h -10.6614" fill="none" stroke="black"/>
<text xml:space="preserve" x="79.5117" y="356.774" fill="black" font-size="18.048" font-family="Helvetica">2
</text>
<text xml:space="preserve" x="69.737" y="356.774" fill="black" font-size="18.048" font-family="Times">&#8722;
</text>
<text xml:space="preserve" x="64.8497" y="345.371" fill="black" font-size="18.048" font-family="Helvetica">1.5
</text>
<text xml:space="preserve" x="55.0751" y="345.371" fill="black" font-size="18.048" font-family="Times">&#8722;
</text>
<text xml:space="preserve" x="82.7699" y="336.411" fill="black" font-size="18.048" font-family="Helvetica">1
</text>
<text xml:space="preserve" x="72.9952" y="336.411" fill="black" font-size="18.048" font-family="Times">&#8722;
</text>
<text xml:space="preserve" x="64.8497" y="325.821" fill="black" font-size="18.048" font-family="Helvetica">0.5
</text>
<text xml:space="preserve" x="55.0751" y="325.821" fill="black" font-size="18.048" font-family="Times">&#8722;
</text>
<text xml:space="preserve" x="79.5117" y="315.232" fill="black" font-size="18.048" font-family="Helvetica">0
</text>
<text xml:space="preserve" x="64.8497" y="305.457" fill="black" font-size="18.048" font-family="Helvetica">0.5
</text>
<text xml:space="preserve" x="82.7699" y="296.497" fill="black" font-size="18.048" font-family="Helvetica">1
</text>
<text xml:space="preserve" x="64.8497" y="285.094" fill="black" font-size="18.048" font-family="Helvetica">1.5
</text>
<path d="M92.1724,27.7395h 445.635" fill="none" stroke="black"/>
<path d="M92.1724,36.8058v -9.06636" fill="none" stroke="black"/>
<path d="M101.085,32.2726v -4.53318" fill="none" stroke="black"/>
<path d="M109.998,32.2726v -4.53318" fill="none" stroke="black"/>
<path d="M118.911,32.2726v -4.53318" fill="none" stroke="black"/>
<path d="M127.823,32.2726v -4.53318" fill="none" stroke="black"/>
<path d="M136.736,36.8058v -9.06636" fill="none" stroke="black"/>
<path d="M145.649,32.2726v -4.53318" fill="none" stroke="black"/>
<path d="M154.561,32.2726v -4.53318" fill="none" stroke="black"/>
<path d="M163.474,32.2726v -4.53318" fill="none" stroke="black"/>
<path d="M172.387,32.2726v -4.53318" fill="none" stroke="black"/>
<path d="M181.299,36.8058v -9.06636" fill="none" stroke="black"/>
<path d="M190.212,32.2726v -4.53318" fill="none" stroke="black"/>
<path d="M199.125,32.2726v -4.53318" fill="none" stroke="black"/>
<path d="M208.037,32.2726v -4.53318" fill="none" stroke="black"/>
<path d="M216.95,32.2726v -4.53318" fill="none" stroke="black"/>
<path d="M225.863,36.8058v -9.06636" fill="none" stroke="black"/>
<path d="M234.776,32.2726v -4.53318" fill="none" stroke="black"/>
<path d="M243.688,32.2726v -4.53318" fill="none" stroke="black"/>
<path d="M252.601,32.2726v -4.53318" fill="none" stroke="black"/>
<path d="M261.514,32.2726v -4.53318" fill="none" stroke="black"/>
<path d="M270.426,36.8058v -9.06636" fill="none" stroke="black"/>
<path d="M279.339,32.2726v -4.53318" fill="none" stroke="black"/>
<path d="M288.252,32.2726v -4.53318" fill="none" stroke="black"/>
<path d="M297.164,32.2726v -4.53318" fill="none" stroke="black"/>
<path d="M306.077,32.2726v -4.53318" fill="none" stroke="black"/>
<path d="M314.99,36.8058v -9.06636" fill="none" stroke="black"/>
<path d="M323.902,32.2726v -4.53318" fill="none" stroke="black"/>
<path d="M332.815,32.2726v -4.53318" fill="none" stroke="black"/>
<path d="M341.728,32.2726v -4.53318" fill="none" stroke="black"/>
<path d="M350.641,32.2726v -4.53318" fill="none" stroke="black"/>
<path d="M359.553,36.8058v -9.06636" fill="none" stroke="black"/>
<path d="M368.466,32.2726v -4.53318" fill="none" stroke="black"/>
<path d="M377.379,32.2726v -4.53318" fill="none" stroke="black"/>
<path d="M386.291,32.2726v -4.53318" fill="none" stroke="black"/>
<path d="M395.204,32.2726v -4.53318" fill="none" stroke="black"/>
<path d="M404.117,36.8058v -9.06636" fill="none" stroke="black"/>
<path d="M413.029,32.2726v -4.53318" fill="none" stroke="black"/>
<path d="M421.942,32.2726v -4.53318" fill="none" stroke="black"/>
<path d="M430.855,32.2726v -4.53318" fill="none" stroke="black"/>
<path d="M439.767,32.2726v -4.53318" fill="none" stroke="black"/>
<path d="M448.68,36.8058v -9.06636" fill="none" stroke="black"/>
<path d="M457.593,32.2726v -4.53318" fill="none" stroke="black"/>
<path d="M466.506,32.2726v -4.53318" fill="none" stroke="black"/>
<path d="M475.418,32.2726v -4.53318" fill="none" stroke="black"/>
<path d="M484.331,32.2726v -4.53318" fill="none" stroke="black"/>
<path d="M493.244,36.8058v -9.06636" fill="none" stroke="black"/>
<path d="M502.156,32.2726v -4.53318" fill="none" stroke="black"/>
<path d="M511.069,32.2726v -4.53318" fill="none" stroke="black"/>
<path d="M519.982,32.2726v -4.53318" fill="none" stroke="black"/>
<path d="M528.894,32.2726v -4.53318" fill="none" stroke="black"/>
<path d="M537.807,36.8058v -9.06636" fill="none" stroke="black"/>
<path d="M92.1724,268.744h 445.635" fill="none" stroke="black"/>
<path d="M92.1724,277.81v -9.06636" fill="none" stroke="black"/>
<path d="M101.085,273.277v -4.53318" fill="none" stroke="black"/>
<path d="M109.998,273.277v -4.53318" fill="none" stroke="black"/>
<path d="M118.911,273.277v -4.53318" fill="none" stroke="black"/>
<path d="M127.823,273.277v -4.53318" fill="none" stroke="black"/>
<path d="M136.736,277.81v -9.06636" fill="none" stroke="black"/>
<path d="M145.649,273.277v -4.53318" fill="none" stroke="black"/>
<path d="M154.561,273.277v -4.53318" fill="none" stroke="black"/>
<path d="M163.474,273.277v -4.53318" fill="none" stroke="black"/>
<path d="M172.387,273.277v -4.53318" fill="none" stroke="black"/>
<path d="M181.299,277.81v -9.06636" fill="none" stroke="black"/>
<path d="M190.212,273.277v -4.53318" fill="none" stroke="black"/>
<path d="M199.125,273.277v -4.53318" fill="none" stroke="black"/>
<path d="M208.037,273.277v -4.53318" fill="none" stroke="black"/>
<path d="M216.95,273.277v -4.53318" fill="none" stroke="black"/>
<path d="M225.863,277.81v -9.06636" fill="none" stroke="black"/>
<path d="M234.776,273.277v -4.53318" fill="none" stroke="black"/>
<path d="M243.688,273.277v -4.53318" fill="none" stroke="black"/>
<path d="M252.601,273.277v -4.53318" fill="none" stroke="black"/>
<path d="M261.514,273.277v -4.53318" fill="none" stroke="black"/>
<path d="M270.426,277.81v -9.06636" fill="none" stroke="black"/>
<path d="M279.339,273.277v -4.53318" fill="none" stroke="black"/>
<path d="M288.252,273.277v -4.53318" fill="none" stroke="black"/>
<path d="M297.164,273.277v -4.53318" fill="none" stroke="black"/>
<path d="M306.077,273.277v -4.53318" fill="none" stroke="black"/>
<path d="M314.99,277.81v -9.06636" fill="none" stroke="black"/>
<path d="M323.902,273.277v -4.53318" fill="none" stroke="black"/>
<path d="M332.815,273.277v -4.53318" fill="none" stroke="black"/>
<path d="M341.728,273.277v -4.53318" fill="none" stroke="black"/>
<path d="M350.641,273.277v -4.53318" fill="none" stroke="black"/>
<path d="M359.553,277.81v -9.06636" fill="none" stroke="black"/>
<path d="M368.466,273.277v -4.53318" fill="none" stroke="black"/>
<path d="M377.379,273.277v -4.53318" fill="none" stroke="black"/>
<path d="M386.291,273.277v -4.53318" fill="none" stroke="black"/>
<path d="M395.204,273.277v -4.53318" fill="none" stroke="black"/>
<path d="M404.117,277.81v -9.06636" fill="none" stroke="black"/>
<path d="M413.029,273.277v -4.53318" fill="none" stroke="black"/>
<path d="M421.942,273.277v -4.53318" fill="none" stroke="black"/>
<path d="M430.855,273.277v -4.53318" fill="none" stroke="black"/>
<path d="M439.767,273.277v -4.53318" fill="none" stroke="black"/>
<path d="M448.68,277.81v -9.06636" fill="none" stroke="black"/>
<path d="M457.593,273.277v -4.53318" fill="none" stroke="black"/>
<path d="M466.506,273.277v -4.53318" fill="none" stroke="black"/>
<path d="M475.418,273.277v -4.53318" fill="none" stroke="black"/>
<path d="M484.331,273.277v -4.53318" fill="none" stroke="black"/>
<path d="M493.244,277.81v -9.06636" fill="none" stroke="black"/>
<path d="M502.156,273.277v -4.53318" fill="none" stroke="black"/>
<path d="M511.069,273.277v -4.53318" fill="none" stroke="black"/>
<path d="M519.982,273.277v -4.53318" fill="none" stroke="black"/>
<path d="M528.894,273.277v -4.53318" fill="none" stroke="black"/>
<path d="M537.807,277.81v -9.06636" fill="none" stroke="black"/>
<path d="M537.807,268.744v -241.005" fill="none" stroke="black"/>
<path d="M527.146,268.744h 10.6614" fill="none" stroke="black"/>
<path d="M532.476,263.252h 5.33069" fill="none" stroke="black"/>
<path d="M532.476,257.76h 5.33069" fill="none" stroke="black"/>
<path d="M532.476,252.269h 5.33069" fill="none" stroke="black"/>
<path d="M532.476,246.777h 5.33069" fill="none" stroke="black"/>
<path d="M527.146,241.285h 10.6614" fill="none" stroke="black"/>
<path d="M532.476,235.793h 5.33069" fill="none" stroke="black"/>
<path d="M532.476,230.302h 5.33069" fill="none" stroke="black"/>
<path d="M532.476,224.81h 5.33069" fill="none" stroke="black"/>
<path d="M532.476,219.318h 5.33069" fill="none" stroke="black"/>
<path d="M527.146,213.826h 10.6614" fill="none" stroke="black"/>
<path d="M532.476,208.335h 5.33069" fill="none" stroke="black"/>
<path d="M532.476,202.843h 5.33069" fill="none" stroke="black"/>
<path d="M532.476,197.351h 5.33069" fill="none" stroke="black"/>
<path d="M532.476,191.859h 5.33069" fill="none" stroke="black"/>
<path d="M527.146,186.368h 10.6614" fill="none" stroke="black"/>
<path d="M532.476,180.876h 5.33069" fill="none" stroke="black"/>
<path d="M532.476,175.384h 5.33069" fill="none" stroke="black"/>
<path d="M532.476,169.892h 5.33069" fill="none" stroke="black"/>
<path d="M532.476,164.4h 5.33069" fill="none" stroke="black"/>
<path d="M527.146,158.909h 10.6614" fill="none" stroke="black"/>
<path d="M532.476,153.417h 5.33069" fill="none" stroke="black"/>
<path d="M532.476,147.925h 5.33069" fill="none" stroke="black"/>
<path d="M532.476,142.433h 5.33069" fill="none" stroke="black"/>
<path d="M532.476,136.942h 5.33069" fill="none" stroke="black"/>
<path d="M527.146,131.45h 10.6614" fill="none" stroke="black"/>
<path d="M532.476,125.958h 5.33069" fill="none" stroke="black"/>
<path d="M532.476,120.466h 5.33069" fill="none" stroke="black"/>
<path d="M532.476,114.975h 5.33069" fill="none" stroke="black"/>
<path d="M532.476,109.483h 5.33069" fill="none" stroke="black"/>
<path d="M527.146,103.991h 10.6614" fill="none" stroke="black"/>
<path d="M532.476,98.4994h 5.33069" fill="none" stroke="black"/>
<path d="M532.476,93.0076h 5.33069" fill="none" stroke="black"/>
<path d="M532.476,87.5159h 5.33069" fill="none" stroke="black"/>
<path d="M532.476,82.0241h 5.33069" fill="none" stroke="black"/>
<path d="M527.146,76.5323h 10.6614" fill="none" stroke="black"/>
<path d="M532.476,71.0406h 5.33069" fill="none" stroke="black"/>
<path d="M532.476,65.5488h 5.33069" fill="none" stroke="black"/>
<path d="M532.476,60.0571h 5.33069" fill="none" stroke="black"/>
<path d="M532.476,54.5653h 5.33069" fill="none" stroke="black"/>
<path d="M527.146,49.0735h 10.6614" fill="none" stroke="black"/>
<path d="M527.146,49.0735h 10.6614" fill="none" stroke="black"/>
<path d="M532.476,43.5818h 5.33069" fill="none" stroke="black"/>
<path d="M532.476,38.09h 5.33069" fill="none" stroke="black"/>
<path d="M532.476,32.5983h 5.33069" fill="none" stroke="black"/>
<path d="M537.807,349.079v -80.3348" fill="none" stroke="black"/>
<path d="M527.146,349.079h 10.6614" fill="none" stroke="black"/>
<path d="M532.476,347.07h 5.33069" fill="none" stroke="black"/>
<path d="M532.476,345.062h 5.33069" fill="none" stroke="black"/>
<path d="M532.476,343.054h 5.33069" fill="none" stroke="black"/>
<path d="M532.476,341.045h 5.33069" fill="none" stroke="black"/>
<path d="M527.146,339.037h 10.6614" fill="none" stroke="black"/>
<path d="M532.476,337.029h 5.33069" fill="none" stroke="black"/>
<path d="M532.476,335.02h 5.33069" fill="none" stroke="black"/>
<path d="M532.476,333.012h 5.33069" fill="none" stroke="black"/>
<path d="M532.476,331.003h 5.33069" fill="none" stroke="black"/>
<path d="M527.146,328.995h 10.6614" fill="none" stroke="black"/>
<path d="M532.476,326.987h 5.33069" fill="none" stroke="black"/>
<path d="M532.476,324.978h 5.33069" fill="none" stroke="black"/>
<path d="M532.476,322.97h 5.33069" fill="none" stroke="black"/>
<path d="M532.476,320.962h 5.33069" fill="none" stroke="black"/>
<path d="M527.146,318.953h 10.6614" fill="none" stroke="black"/>
<path d="M532.476,316.945h 5.33069" fill="none" stroke="black"/>
<path d="M532.476,314.936h 5.33069" fill="none" stroke="black"/>
<path d="M532.476,312.928h 5.33069" fill="none" stroke="black"/>
<path d="M532.476,310.92h 5.33069" fill="none" stroke="black"/>
<path d="M527.146,308.911h 10.6614" fill="none" stroke="black"/>
<path d="M532.476,306.903h 5.33069" fill="none" stroke="black"/>
<path d="M532.476,304.895h 5.33069" fill="none" stroke="black"/>
<path d="M532.476,302.886h 5.33069" fill="none" stroke="black"/>
<path d="M532.476,300.878h 5.33069" fill="none" stroke="black"/>
<path d="M527.146,298.87h 10.6614" fill="none" stroke="black"/>
<path d="M532.476,296.861h 5.33069" fill="none" stroke="black"/>
<path d="M532.476,294.853h 5.33069" fill="none" stroke="black"/>
<path d="M532.476,292.844h 5.33069" fill="none" stroke="black"/>
<path d="M532.476,290.836h 5.33069" fill="none" stroke="black"/>
<path d="M527.146,288.828h 10.6614" fill="none" stroke="black"/>
<path d="M532.476,286.819h 5.33069" fill="none" stroke="black"/>
<path d="M532.476,284.811h 5.33069" fill="none" stroke="black"/>
<path d="M532.476,282.803h 5.33069" fill="none" stroke="black"/>
<path d="M532.476,280.794h 5.33069" fill="none" stroke="black"/>
<path d="M527.146,278.786h 10.6614" fill="none" stroke="black"/>
<path d="M532.476,276.777h 5.33069" fill="none" stroke="black"/>
<path d="M532.476,274.769h 5.33069" fill="none" stroke="black"/>
<path d="M532.476,272.761h 5.33069" fill="none" stroke="black"/>
<path d="M532.476,270.752h 5.33069" fill="none" stroke="black"/>
<path d="M527.146,268.744h 10.6614" fill="none" stroke="black"/></svg>
