<?xml version="1.0" standalone="no"?>
<svg width="567.429" height="550.336" viewBox="0 0 567.429 550.336" xmlns="http://www.w3.org/2000/svg" shape-rendering="crispEdges">
<title>
./old_svg_ref/ratioplotOld.svg
</title>
<desc>
Creator: ROOT Version 6.33/01
CreationDate: Fri Jun  7 14:28:04 2024</desc>
<defs>
</defs>
<rect x="0.5" y="0" width="566.929" height="549.836" fill="white"/>
<rect x="0.5" y="0" width="566.929" height="384.885" fill="white"/>
<rect x="57.1929" y="38.4885" width="453.543" height="346.397" fill="white"/>
<rect x="57.1929" y="38.4885" width="453.543" height="346.397" fill="none" stroke="black"/>
<path d="M57.1929,384.885h 453.543" fill="none" stroke="black"/>
<path d="M57.1929,38.4885v 346.397" fill="none" stroke="black" stroke-dasharray=" 1, 2"/>
<path d="M102.547,38.4885v 346.397" fill="none" stroke="black" stroke-dasharray=" 1, 2"/>
<path d="M147.902,38.4885v 346.397" fill="none" stroke="black" stroke-dasharray=" 1, 2"/>
<path d="M193.256,38.4885v 346.397" fill="none" stroke="black" stroke-dasharray=" 1, 2"/>
<path d="M238.61,38.4885v 346.397" fill="none" stroke="black" stroke-dasharray=" 1, 2"/>
<path d="M283.965,38.4885v 346.397" fill="none" stroke="black" stroke-dasharray=" 1, 2"/>
<path d="M329.319,38.4885v 346.397" fill="none" stroke="black" stroke-dasharray=" 1, 2"/>
<path d="M374.673,38.4885v 346.397" fill="none" stroke="black" stroke-dasharray=" 1, 2"/>
<path d="M420.028,38.4885v 346.397" fill="none" stroke="black" stroke-dasharray=" 1, 2"/>
<path d="M465.382,38.4885v 346.397" fill="none" stroke="black" stroke-dasharray=" 1, 2"/>
<path d="M510.736,38.4885v 346.397" fill="none" stroke="black" stroke-dasharray=" 1, 2"/>
<path d="M57.1929,384.885v -346.397" fill="none" stroke="black"/>
<path d="M57.1929,384.885h 31.748v -2.95876h 4.53543v 2.95876h 31.748v -1.47938h 4.53543v 1.47938h 9.07087v -2.95876h 4.53543v -2.95876h 4.53543v 2.95876h 4.53543v -1.47938h 4.53543v -11.835h 4.53543v 5.91751h 4.53543v 7.39689h 4.53543v -11.835h
 4.53543v 1.47938h 4.53543v -8.87627h 4.53543v -10.3557h 4.53543v -7.39689h 4.53543v -10.3557h 4.53543v 8.87627h 4.53543v -20.7113h 4.53543v -11.835h 4.53543v -13.3144h 4.53543v -17.7525h 4.53543v -13.3144h 4.53543v -17.7525h 4.53543v -26.6288h
 4.53543v -16.2732h 4.53543v -11.835h 4.53543v -19.2319h 4.53543v -4.43814h 4.53543v -2.95876h 4.53543v -25.1494h 4.53543v -8.87627h 4.53543v -45.8607h 4.53543v 7.39689h 9.07087v -8.87627h 4.53543v 39.9432h 4.53543v -71.0102h 4.53543v 45.8607h
 4.53543v 14.7938h 9.07087v 45.8607h 4.53543v -5.91751h 4.53543v 5.91751h 4.53543v 13.3144h 4.53543v 19.2319h 4.53543v 7.39689h 4.53543v 22.1907h 4.53543v 42.902h 4.53543v -1.47938h 4.53543v 29.5876h 4.53543v -25.1494h 4.53543v 35.5051h 4.53543v
 14.7938h 4.53543v 14.7938h 4.53543v 7.39689h 4.53543v 8.87627h 4.53543v 4.43814h 9.07087v 7.39689h 4.53543v 1.47938h 4.53543v 7.39689h 4.53543v 2.95876h 4.53543v 2.95876h 4.53543v -1.47938h 4.53543v 4.43814h 4.53543v 2.95876h 4.53543v 1.47938h
 13.6063v -2.95876h 4.53543v 1.47938h 4.53543v 1.47938h 4.53543v -1.47938h 4.53543v 1.47938h 9.07087v -1.47938h 4.53543v 1.47938h 40.8189" fill="none" stroke="#0000cc" stroke-width="2"/>
<path d="M57.1929,384.885h 453.543" fill="none" stroke="black"/>
<path d="M57.1929,375.648v 9.23724" fill="none" stroke="black"/>
<path d="M66.2638,380.266v 4.61862" fill="none" stroke="black"/>
<path d="M75.3346,380.266v 4.61862" fill="none" stroke="black"/>
<path d="M84.4055,380.266v 4.61862" fill="none" stroke="black"/>
<path d="M93.4764,380.266v 4.61862" fill="none" stroke="black"/>
<path d="M102.547,375.648v 9.23724" fill="none" stroke="black"/>
<path d="M111.618,380.266v 4.61862" fill="none" stroke="black"/>
<path d="M120.689,380.266v 4.61862" fill="none" stroke="black"/>
<path d="M129.76,380.266v 4.61862" fill="none" stroke="black"/>
<path d="M138.831,380.266v 4.61862" fill="none" stroke="black"/>
<path d="M147.902,375.648v 9.23724" fill="none" stroke="black"/>
<path d="M156.972,380.266v 4.61862" fill="none" stroke="black"/>
<path d="M166.043,380.266v 4.61862" fill="none" stroke="black"/>
<path d="M175.114,380.266v 4.61862" fill="none" stroke="black"/>
<path d="M184.185,380.266v 4.61862" fill="none" stroke="black"/>
<path d="M193.256,375.648v 9.23724" fill="none" stroke="black"/>
<path d="M202.327,380.266v 4.61862" fill="none" stroke="black"/>
<path d="M211.398,380.266v 4.61862" fill="none" stroke="black"/>
<path d="M220.469,380.266v 4.61862" fill="none" stroke="black"/>
<path d="M229.539,380.266v 4.61862" fill="none" stroke="black"/>
<path d="M238.61,375.648v 9.23724" fill="none" stroke="black"/>
<path d="M247.681,380.266v 4.61862" fill="none" stroke="black"/>
<path d="M256.752,380.266v 4.61862" fill="none" stroke="black"/>
<path d="M265.823,380.266v 4.61862" fill="none" stroke="black"/>
<path d="M274.894,380.266v 4.61862" fill="none" stroke="black"/>
<path d="M283.965,375.648v 9.23724" fill="none" stroke="black"/>
<path d="M293.035,380.266v 4.61862" fill="none" stroke="black"/>
<path d="M302.106,380.266v 4.61862" fill="none" stroke="black"/>
<path d="M311.177,380.266v 4.61862" fill="none" stroke="black"/>
<path d="M320.248,380.266v 4.61862" fill="none" stroke="black"/>
<path d="M329.319,375.648v 9.23724" fill="none" stroke="black"/>
<path d="M338.39,380.266v 4.61862" fill="none" stroke="black"/>
<path d="M347.461,380.266v 4.61862" fill="none" stroke="black"/>
<path d="M356.531,380.266v 4.61862" fill="none" stroke="black"/>
<path d="M365.602,380.266v 4.61862" fill="none" stroke="black"/>
<path d="M374.673,375.648v 9.23724" fill="none" stroke="black"/>
<path d="M383.744,380.266v 4.61862" fill="none" stroke="black"/>
<path d="M392.815,380.266v 4.61862" fill="none" stroke="black"/>
<path d="M401.886,380.266v 4.61862" fill="none" stroke="black"/>
<path d="M410.957,380.266v 4.61862" fill="none" stroke="black"/>
<path d="M420.028,375.648v 9.23724" fill="none" stroke="black"/>
<path d="M429.098,380.266v 4.61862" fill="none" stroke="black"/>
<path d="M438.169,380.266v 4.61862" fill="none" stroke="black"/>
<path d="M447.24,380.266v 4.61862" fill="none" stroke="black"/>
<path d="M456.311,380.266v 4.61862" fill="none" stroke="black"/>
<path d="M465.382,375.648v 9.23724" fill="none" stroke="black"/>
<path d="M474.453,380.266v 4.61862" fill="none" stroke="black"/>
<path d="M483.524,380.266v 4.61862" fill="none" stroke="black"/>
<path d="M492.594,380.266v 4.61862" fill="none" stroke="black"/>
<path d="M501.665,380.266v 4.61862" fill="none" stroke="black"/>
<path d="M510.736,375.648v 9.23724" fill="none" stroke="black"/>
<text xml:space="preserve" x="56.7656" y="397.42" fill="black" font-size="12.8587" font-family="Helvetica">5
</text>
<text xml:space="preserve" x="50.3556" y="397.42" fill="black" font-size="12.8587" font-family="Times">&#8722;
</text>
<text xml:space="preserve" x="101.636" y="397.42" fill="black" font-size="12.8587" font-family="Helvetica">4
</text>
<text xml:space="preserve" x="95.2256" y="397.42" fill="black" font-size="12.8587" font-family="Times">&#8722;
</text>
<text xml:space="preserve" x="147.218" y="397.42" fill="black" font-size="12.8587" font-family="Helvetica">3
</text>
<text xml:space="preserve" x="140.808" y="397.42" fill="black" font-size="12.8587" font-family="Times">&#8722;
</text>
<text xml:space="preserve" x="192.8" y="397.42" fill="black" font-size="12.8587" font-family="Helvetica">2
</text>
<text xml:space="preserve" x="186.39" y="397.42" fill="black" font-size="12.8587" font-family="Times">&#8722;
</text>
<text xml:space="preserve" x="239.095" y="397.42" fill="black" font-size="12.8587" font-family="Helvetica">1
</text>
<text xml:space="preserve" x="231.972" y="397.42" fill="black" font-size="12.8587" font-family="Times">&#8722;
</text>
<text xml:space="preserve" x="280.403" y="397.42" fill="black" font-size="12.8587" font-family="Helvetica">0
</text>
<text xml:space="preserve" x="326.698" y="397.42" fill="black" font-size="12.8587" font-family="Helvetica">1
</text>
<text xml:space="preserve" x="370.856" y="397.42" fill="black" font-size="12.8587" font-family="Helvetica">2
</text>
<text xml:space="preserve" x="416.438" y="397.42" fill="black" font-size="12.8587" font-family="Helvetica">3
</text>
<text xml:space="preserve" x="462.02" y="397.42" fill="black" font-size="12.8587" font-family="Helvetica">4
</text>
<text xml:space="preserve" x="506.89" y="397.42" fill="black" font-size="12.8587" font-family="Helvetica">5
</text>
<text xml:space="preserve" x="480.538" y="411.665" fill="black" font-size="12.8587" font-family="Helvetica">x title
</text>
<path d="M57.1929,384.885v -346.397" fill="none" stroke="black"/>
<path d="M72.5,384.885h -15.3071" fill="none" stroke="black"/>
<path d="M64.8465,377.488h -7.65354" fill="none" stroke="black"/>
<path d="M64.8465,370.091h -7.65354" fill="none" stroke="black"/>
<path d="M64.8465,362.694h -7.65354" fill="none" stroke="black"/>
<path d="M72.5,355.297h -15.3071" fill="none" stroke="black"/>
<path d="M64.8465,347.901h -7.65354" fill="none" stroke="black"/>
<path d="M64.8465,340.504h -7.65354" fill="none" stroke="black"/>
<path d="M64.8465,333.107h -7.65354" fill="none" stroke="black"/>
<path d="M72.5,325.71h -15.3071" fill="none" stroke="black"/>
<path d="M64.8465,318.313h -7.65354" fill="none" stroke="black"/>
<path d="M64.8465,310.916h -7.65354" fill="none" stroke="black"/>
<path d="M64.8465,303.519h -7.65354" fill="none" stroke="black"/>
<path d="M72.5,296.122h -15.3071" fill="none" stroke="black"/>
<path d="M64.8465,288.725h -7.65354" fill="none" stroke="black"/>
<path d="M64.8465,281.329h -7.65354" fill="none" stroke="black"/>
<path d="M64.8465,273.932h -7.65354" fill="none" stroke="black"/>
<path d="M72.5,266.535h -15.3071" fill="none" stroke="black"/>
<path d="M64.8465,259.138h -7.65354" fill="none" stroke="black"/>
<path d="M64.8465,251.741h -7.65354" fill="none" stroke="black"/>
<path d="M64.8465,244.344h -7.65354" fill="none" stroke="black"/>
<path d="M72.5,236.947h -15.3071" fill="none" stroke="black"/>
<path d="M64.8465,229.55h -7.65354" fill="none" stroke="black"/>
<path d="M64.8465,222.153h -7.65354" fill="none" stroke="black"/>
<path d="M64.8465,214.756h -7.65354" fill="none" stroke="black"/>
<path d="M72.5,207.36h -15.3071" fill="none" stroke="black"/>
<path d="M64.8465,199.963h -7.65354" fill="none" stroke="black"/>
<path d="M64.8465,192.566h -7.65354" fill="none" stroke="black"/>
<path d="M64.8465,185.169h -7.65354" fill="none" stroke="black"/>
<path d="M72.5,177.772h -15.3071" fill="none" stroke="black"/>
<path d="M64.8465,170.375h -7.65354" fill="none" stroke="black"/>
<path d="M64.8465,162.978h -7.65354" fill="none" stroke="black"/>
<path d="M64.8465,155.581h -7.65354" fill="none" stroke="black"/>
<path d="M72.5,148.184h -15.3071" fill="none" stroke="black"/>
<path d="M64.8465,140.788h -7.65354" fill="none" stroke="black"/>
<path d="M64.8465,133.391h -7.65354" fill="none" stroke="black"/>
<path d="M64.8465,125.994h -7.65354" fill="none" stroke="black"/>
<path d="M72.5,118.597h -15.3071" fill="none" stroke="black"/>
<path d="M64.8465,111.2h -7.65354" fill="none" stroke="black"/>
<path d="M64.8465,103.803h -7.65354" fill="none" stroke="black"/>
<path d="M64.8465,96.4062h -7.65354" fill="none" stroke="black"/>
<path d="M72.5,89.0093h -15.3071" fill="none" stroke="black"/>
<path d="M64.8465,81.6124h -7.65354" fill="none" stroke="black"/>
<path d="M64.8465,74.2155h -7.65354" fill="none" stroke="black"/>
<path d="M64.8465,66.8186h -7.65354" fill="none" stroke="black"/>
<path d="M72.5,59.4217h -15.3071" fill="none" stroke="black"/>
<path d="M72.5,59.4217h -15.3071" fill="none" stroke="black"/>
<path d="M64.8465,52.0248h -7.65354" fill="none" stroke="black"/>
<path d="M64.8465,44.6279h -7.65354" fill="none" stroke="black"/>
<text xml:space="preserve" x="46.0822" y="385.312" fill="black" font-size="10.3085" font-family="Helvetica"> 
</text>
<text xml:space="preserve" x="43.9456" y="358.96" fill="black" font-size="10.3085" font-family="Helvetica">20
</text>
<text xml:space="preserve" x="43.9456" y="329.047" fill="black" font-size="10.3085" font-family="Helvetica">40
</text>
<text xml:space="preserve" x="43.9456" y="299.846" fill="black" font-size="10.3085" font-family="Helvetica">60
</text>
<text xml:space="preserve" x="43.9456" y="269.932" fill="black" font-size="10.3085" font-family="Helvetica">80
</text>
<text xml:space="preserve" x="38.2478" y="240.731" fill="black" font-size="10.3085" font-family="Helvetica">100
</text>
<text xml:space="preserve" x="38.2478" y="210.818" fill="black" font-size="10.3085" font-family="Helvetica">120
</text>
<text xml:space="preserve" x="38.2478" y="181.617" fill="black" font-size="10.3085" font-family="Helvetica">140
</text>
<text xml:space="preserve" x="38.2478" y="151.703" fill="black" font-size="10.3085" font-family="Helvetica">160
</text>
<text xml:space="preserve" x="38.2478" y="122.502" fill="black" font-size="10.3085" font-family="Helvetica">180
</text>
<text xml:space="preserve" x="38.2478" y="92.5889" fill="black" font-size="10.3085" font-family="Helvetica">200
</text>
<text xml:space="preserve" x="38.2478" y="62.6756" fill="black" font-size="10.3085" font-family="Helvetica">220
</text>
<g transform="rotate(-90,25.4278,230.048)">
<text xml:space="preserve" x="25.4278" y="230.048" fill="black" font-size="13.578" font-family="Helvetica"> h1 and h2 gaussian histograms
</text>
</g>
<text xml:space="preserve" x="140.096" y="19.9422" fill="black" font-size="19.1615" font-family="Helvetica">Two gaussian plots and their ratio
</text>
<path d="M57.1929,384.885h 72.5669v -1.47938h 13.6063v 1.47938h 4.53543v -5.91751h 9.07087v 2.95876h 4.53543v -11.835h 4.53543v 7.39689h 4.53543v -7.39689h 4.53543v -2.95876h 4.53543v -5.91751h 4.53543v -16.2732h 4.53543v 8.87627h 4.53543v -23.6701h
 4.53543v 7.39689h 4.53543v -11.835h 4.53543v -4.43814h 4.53543v -23.6701h 4.53543v -5.91751h 4.53543v 2.95876h 4.53543v -53.2576h 4.53543v -14.7938h 4.53543v -1.47938h 4.53543v -22.1907h 4.53543v -25.1494h 4.53543v -16.2732h 4.53543v 1.47938h
 4.53543v -48.8195h 4.53543v -2.95876h 4.53543v -14.7938h 4.53543v -8.87627h 4.53543v 5.91751h 4.53543v -7.39689h 4.53543v -1.47938h 4.53543v -5.91751h 4.53543v 19.2319h 4.53543v -16.2732h 4.53543v -1.47938h 4.53543v 63.6133h 4.53543v 7.39689h
 4.53543v 23.6701h 4.53543v 31.067h 4.53543v 7.39689h 4.53543v 23.6701h 4.53543v -14.7938h 4.53543v 19.2319h 4.53543v 44.3814h 4.53543v -5.91751h 4.53543v 8.87627h 4.53543v 26.6288h 4.53543v -10.3557h 4.53543v 19.2319h 4.53543v 17.7525h 4.53543v
 1.47938h 4.53543v 8.87627h 4.53543v 20.7113h 4.53543v -13.3144h 4.53543v 14.7938h 4.53543v 1.47938h 4.53543v -7.39689h 4.53543v 8.87627h 4.53543v 5.91751h 4.53543v -4.43814h 4.53543v 2.95876h 4.53543v 2.95876h 4.53543v -2.95876h 4.53543v 1.47938h
 9.07087v 1.47938h 22.6772v -1.47938h 4.53543v 1.47938h 40.8189" fill="none" stroke="#ff0000" stroke-width="2"/>
<text xml:space="preserve" x="140.096" y="19.9422" fill="black" font-size="19.1615" font-family="Helvetica">Two gaussian plots and their ratio
</text>
<rect x="0.5" y="384.885" width="566.929" height="137.459" fill="white"/>
<rect x="57.1929" y="384.885" width="453.543" height="109.967" fill="white"/>
<rect x="57.1929" y="384.885" width="453.543" height="109.967" fill="none" stroke="black"/>
<path d="M57.1929,494.852h 453.543" fill="none" stroke="black"/>
<path d="M57.1929,384.885v 109.967" fill="none" stroke="black" stroke-dasharray=" 1, 2"/>
<path d="M102.547,384.885v 109.967" fill="none" stroke="black" stroke-dasharray=" 1, 2"/>
<path d="M147.902,384.885v 109.967" fill="none" stroke="black" stroke-dasharray=" 1, 2"/>
<path d="M193.256,384.885v 109.967" fill="none" stroke="black" stroke-dasharray=" 1, 2"/>
<path d="M238.61,384.885v 109.967" fill="none" stroke="black" stroke-dasharray=" 1, 2"/>
<path d="M283.965,384.885v 109.967" fill="none" stroke="black" stroke-dasharray=" 1, 2"/>
<path d="M329.319,384.885v 109.967" fill="none" stroke="black" stroke-dasharray=" 1, 2"/>
<path d="M374.673,384.885v 109.967" fill="none" stroke="black" stroke-dasharray=" 1, 2"/>
<path d="M420.028,384.885v 109.967" fill="none" stroke="black" stroke-dasharray=" 1, 2"/>
<path d="M465.382,384.885v 109.967" fill="none" stroke="black" stroke-dasharray=" 1, 2"/>
<path d="M510.736,384.885v 109.967" fill="none" stroke="black" stroke-dasharray=" 1, 2"/>
<path d="M57.1929,494.852v -109.967" fill="none" stroke="black"/>
<path d="M172.846,494.852v -37.1392" fill="none" stroke="black"/>
<path d="M172.846,452.015v -67.1302" fill="none" stroke="black"/>
<g fill="black">
<rect x="169.998" y="452.015" width="5.69778" height="5.69778"/>
</g>
<path d="M181.917,494.852v -24.6429" fill="none" stroke="black"/>
<path d="M181.917,464.512v -64.518" fill="none" stroke="black"/>
<g fill="black">
<rect x="179.068" y="464.512" width="5.69778" height="5.69778"/>
</g>
<path d="M186.453,494.852v -0.113186" fill="none" stroke="black"/>
<path d="M186.453,489.041v -43.9423" fill="none" stroke="black"/>
<g fill="black">
<rect x="183.604" y="489.041" width="5.69778" height="5.69778"/>
</g>
<path d="M190.988,472.534v -71.9463" fill="none" stroke="black"/>
<path d="M190.988,394.889v -10.0044" fill="none" stroke="black"/>
<g fill="black">
<rect x="188.139" y="394.889" width="5.69778" height="5.69778"/>
</g>
<path d="M195.524,494.852v -20.9278" fill="none" stroke="black"/>
<path d="M195.524,468.227v -40.7993" fill="none" stroke="black"/>
<g fill="black">
<rect x="192.675" y="468.227" width="5.69778" height="5.69778"/>
</g>
<path d="M200.059,494.852v -12.1466" fill="none" stroke="black"/>
<path d="M200.059,477.008v -42.4231" fill="none" stroke="black"/>
<g fill="black">
<rect x="197.21" y="477.008" width="5.69778" height="5.69778"/>
</g>
<path d="M204.594,491.248v -43.5323" fill="none" stroke="black"/>
<path d="M204.594,442.018v -43.5323" fill="none" stroke="black"/>
<g fill="black">
<rect x="201.746" y="442.018" width="5.69778" height="5.69778"/>
</g>
<path d="M209.13,470.669v -45.5042" fill="none" stroke="black"/>
<path d="M209.13,419.467v -34.5818" fill="none" stroke="black"/>
<g fill="black">
<rect x="206.281" y="419.467" width="5.69778" height="5.69778"/>
</g>
<path d="M213.665,491.676v -33.9631" fill="none" stroke="black"/>
<path d="M213.665,452.015v -33.9631" fill="none" stroke="black"/>
<g fill="black">
<rect x="210.816" y="452.015" width="5.69778" height="5.69778"/>
</g>
<path d="M218.201,468.475v -36.1517" fill="none" stroke="black"/>
<path d="M218.201,426.626v -36.1517" fill="none" stroke="black"/>
<g fill="black">
<rect x="215.352" y="426.626" width="5.69778" height="5.69778"/>
</g>
<path d="M222.736,437.159v -41.7229" fill="none" stroke="black"/>
<path d="M222.736,389.739v -4.85373" fill="none" stroke="black"/>
<g fill="black">
<rect x="219.887" y="389.739" width="5.69778" height="5.69778"/>
</g>
<path d="M227.272,492.768v -24.7485" fill="none" stroke="black"/>
<path d="M227.272,462.321v -24.7485" fill="none" stroke="black"/>
<g fill="black">
<rect x="224.423" y="462.321" width="5.69778" height="5.69778"/>
</g>
<path d="M231.807,477.168v -25.0605" fill="none" stroke="black"/>
<path d="M231.807,446.409v -25.0605" fill="none" stroke="black"/>
<g fill="black">
<rect x="228.958" y="446.409" width="5.69778" height="5.69778"/>
</g>
<path d="M236.343,460.451v -26.8046" fill="none" stroke="black"/>
<path d="M236.343,427.948v -26.8046" fill="none" stroke="black"/>
<g fill="black">
<rect x="233.494" y="427.948" width="5.69778" height="5.69778"/>
</g>
<path d="M240.878,471.537v -23.5775" fill="none" stroke="black"/>
<path d="M240.878,442.262v -23.5775" fill="none" stroke="black"/>
<g fill="black">
<rect x="238.029" y="442.262" width="5.69778" height="5.69778"/>
</g>
<path d="M245.413,476.161v -21.3044" fill="none" stroke="black"/>
<path d="M245.413,449.159v -21.3044" fill="none" stroke="black"/>
<g fill="black">
<rect x="242.564" y="449.159" width="5.69778" height="5.69778"/>
</g>
<path d="M249.949,485.132v -19.4747" fill="none" stroke="black"/>
<path d="M249.949,459.96v -19.4747" fill="none" stroke="black"/>
<g fill="black">
<rect x="247.1" y="459.96" width="5.69778" height="5.69778"/>
</g>
<path d="M254.484,481.603v -19.8916" fill="none" stroke="black"/>
<path d="M254.484,456.014v -19.8916" fill="none" stroke="black"/>
<g fill="black">
<rect x="251.635" y="456.014" width="5.69778" height="5.69778"/>
</g>
<path d="M259.02,494.852v -16.3803" fill="none" stroke="black"/>
<path d="M259.02,472.774v -16.4179" fill="none" stroke="black"/>
<g fill="black">
<rect x="256.171" y="472.774" width="5.69778" height="5.69778"/>
</g>
<path d="M263.555,490.596v -16.6712" fill="none" stroke="black"/>
<path d="M263.555,468.227v -16.6712" fill="none" stroke="black"/>
<g fill="black">
<rect x="260.706" y="468.227" width="5.69778" height="5.69778"/>
</g>
<path d="M268.091,469.428v -17.8665" fill="none" stroke="black"/>
<path d="M268.091,445.863v -17.8665" fill="none" stroke="black"/>
<g fill="black">
<rect x="265.242" y="445.863" width="5.69778" height="5.69778"/>
</g>
<path d="M272.626,479.41v -16.7229" fill="none" stroke="black"/>
<path d="M272.626,456.989v -16.7229" fill="none" stroke="black"/>
<g fill="black">
<rect x="269.777" y="456.989" width="5.69778" height="5.69778"/>
</g>
<path d="M277.161,475.948v -17.2201" fill="none" stroke="black"/>
<path d="M277.161,453.03v -17.2201" fill="none" stroke="black"/>
<g fill="black">
<rect x="274.313" y="453.03" width="5.69778" height="5.69778"/>
</g>
<path d="M281.697,474.759v -17.0459" fill="none" stroke="black"/>
<path d="M281.697,452.015v -17.0459" fill="none" stroke="black"/>
<g fill="black">
<rect x="278.848" y="452.015" width="5.69778" height="5.69778"/>
</g>
<path d="M286.232,494.852v -9.56119" fill="none" stroke="black"/>
<path d="M286.232,479.593v -14.9307" fill="none" stroke="black"/>
<g fill="black">
<rect x="283.383" y="479.593" width="5.69778" height="5.69778"/>
</g>
<path d="M290.768,460.199v -17.94" fill="none" stroke="black"/>
<path d="M290.768,436.561v -17.94" fill="none" stroke="black"/>
<g fill="black">
<rect x="287.919" y="436.561" width="5.69778" height="5.69778"/>
</g>
<path d="M295.303,477.069v -17.2949" fill="none" stroke="black"/>
<path d="M295.303,454.076v -17.2949" fill="none" stroke="black"/>
<g fill="black">
<rect x="292.454" y="454.076" width="5.69778" height="5.69778"/>
</g>
<path d="M299.839,494.852v -14.7068" fill="none" stroke="black"/>
<path d="M299.839,474.448v -15.2295" fill="none" stroke="black"/>
<g fill="black">
<rect x="296.99" y="474.448" width="5.69778" height="5.69778"/>
</g>
<path d="M304.374,494.852v -13.8452" fill="none" stroke="black"/>
<path d="M304.374,475.309v -15.1212" fill="none" stroke="black"/>
<g fill="black">
<rect x="301.525" y="475.309" width="5.69778" height="5.69778"/>
</g>
<path d="M308.909,490.504v -18.0716" fill="none" stroke="black"/>
<path d="M308.909,466.735v -18.0716" fill="none" stroke="black"/>
<g fill="black">
<rect x="306.061" y="466.735" width="5.69778" height="5.69778"/>
</g>
<path d="M313.445,480.835v -19.3256" fill="none" stroke="black"/>
<path d="M313.445,455.812v -19.3256" fill="none" stroke="black"/>
<g fill="black">
<rect x="310.596" y="455.812" width="5.69778" height="5.69778"/>
</g>
<path d="M317.98,467.046v -22.0048" fill="none" stroke="black"/>
<path d="M317.98,439.343v -22.0048" fill="none" stroke="black"/>
<g fill="black">
<rect x="315.131" y="439.343" width="5.69778" height="5.69778"/>
</g>
<path d="M322.516,449.194v -26.1809" fill="none" stroke="black"/>
<path d="M322.516,417.315v -26.1809" fill="none" stroke="black"/>
<g fill="black">
<rect x="319.667" y="417.315" width="5.69778" height="5.69778"/>
</g>
<path d="M327.051,460.908v -25.6017" fill="none" stroke="black"/>
<path d="M327.051,429.608v -25.6017" fill="none" stroke="black"/>
<g fill="black">
<rect x="324.202" y="429.608" width="5.69778" height="5.69778"/>
</g>
<path d="M331.587,440.201v -30.4734" fill="none" stroke="black"/>
<path d="M331.587,404.03v -19.1445" fill="none" stroke="black"/>
<g fill="black">
<rect x="328.738" y="404.03" width="5.69778" height="5.69778"/>
</g>
<path d="M336.122,483.458v -23.9272" fill="none" stroke="black"/>
<path d="M336.122,453.833v -23.9272" fill="none" stroke="black"/>
<g fill="black">
<rect x="333.273" y="453.833" width="5.69778" height="5.69778"/>
</g>
<path d="M340.657,494.852v -2.09808" fill="none" stroke="black"/>
<path d="M340.657,487.056v -22.0554" fill="none" stroke="black"/>
<g fill="black">
<rect x="337.809" y="487.056" width="5.69778" height="5.69778"/>
</g>
<path d="M345.193,453.003v -37.0684" fill="none" stroke="black"/>
<path d="M345.193,410.237v -25.3517" fill="none" stroke="black"/>
<g fill="black">
<rect x="342.344" y="410.237" width="5.69778" height="5.69778"/>
</g>
<path d="M349.728,494.852v -8.97857" fill="none" stroke="black"/>
<path d="M349.728,480.176v -27.1403" fill="none" stroke="black"/>
<g fill="black">
<rect x="346.879" y="480.176" width="5.69778" height="5.69778"/>
</g>
<path d="M354.264,455.171v -37.4456" fill="none" stroke="black"/>
<path d="M354.264,412.027v -27.1421" fill="none" stroke="black"/>
<g fill="black">
<rect x="351.415" y="412.027" width="5.69778" height="5.69778"/>
</g>
<path d="M358.799,470.912v -42.977" fill="none" stroke="black"/>
<path d="M358.799,422.237v -37.3519" fill="none" stroke="black"/>
<g fill="black">
<rect x="355.95" y="422.237" width="5.69778" height="5.69778"/>
</g>
<path d="M363.335,494.852v -0.113186" fill="none" stroke="black"/>
<path d="M363.335,489.041v -30.2375" fill="none" stroke="black"/>
<g fill="black">
<rect x="360.486" y="489.041" width="5.69778" height="5.69778"/>
</g>
<path d="M367.87,494.852v -3.00302" fill="none" stroke="black"/>
<path d="M367.87,486.151v -35.6098" fill="none" stroke="black"/>
<g fill="black">
<rect x="365.021" y="486.151" width="5.69778" height="5.69778"/>
</g>
<path d="M372.406,494.852v -37.1392" fill="none" stroke="black"/>
<path d="M372.406,452.015v -49.658" fill="none" stroke="black"/>
<g fill="black">
<rect x="369.557" y="452.015" width="5.69778" height="5.69778"/>
</g>
<path d="M376.941,494.852v -1.43555" fill="none" stroke="black"/>
<path d="M376.941,487.719v -43.3692" fill="none" stroke="black"/>
<g fill="black">
<rect x="374.092" y="487.719" width="5.69778" height="5.69778"/>
</g>
<path d="M381.476,494.852v -18.9628" fill="none" stroke="black"/>
<path d="M381.476,470.192v -53.3084" fill="none" stroke="black"/>
<g fill="black">
<rect x="378.627" y="470.192" width="5.69778" height="5.69778"/>
</g>
<path d="M390.547,494.852v -13.6168" fill="none" stroke="black"/>
<path d="M390.547,475.538v -59.6464" fill="none" stroke="black"/>
<g fill="black">
<rect x="387.698" y="475.538" width="5.69778" height="5.69778"/>
</g>
<path d="M408.689,494.852v -37.1392" fill="none" stroke="black"/>
<path d="M408.689,452.015v -67.1302" fill="none" stroke="black"/>
<g fill="black">
<rect x="405.84" y="452.015" width="5.69778" height="5.69778"/>
</g>
<path d="M467.65,494.852v -37.1392" fill="none" stroke="black"/>
<path d="M467.65,452.015v -67.1302" fill="none" stroke="black"/>
<g fill="black">
<rect x="464.801" y="452.015" width="5.69778" height="5.69778"/>
</g>
<path d="M57.1929,494.852h 453.543" fill="none" stroke="black"/>
<path d="M57.1929,491.553v 3.29901" fill="none" stroke="black"/>
<path d="M66.2638,493.203v 1.64951" fill="none" stroke="black"/>
<path d="M75.3346,493.203v 1.64951" fill="none" stroke="black"/>
<path d="M84.4055,493.203v 1.64951" fill="none" stroke="black"/>
<path d="M93.4764,493.203v 1.64951" fill="none" stroke="black"/>
<path d="M102.547,491.553v 3.29901" fill="none" stroke="black"/>
<path d="M111.618,493.203v 1.64951" fill="none" stroke="black"/>
<path d="M120.689,493.203v 1.64951" fill="none" stroke="black"/>
<path d="M129.76,493.203v 1.64951" fill="none" stroke="black"/>
<path d="M138.831,493.203v 1.64951" fill="none" stroke="black"/>
<path d="M147.902,491.553v 3.29901" fill="none" stroke="black"/>
<path d="M156.972,493.203v 1.64951" fill="none" stroke="black"/>
<path d="M166.043,493.203v 1.64951" fill="none" stroke="black"/>
<path d="M175.114,493.203v 1.64951" fill="none" stroke="black"/>
<path d="M184.185,493.203v 1.64951" fill="none" stroke="black"/>
<path d="M193.256,491.553v 3.29901" fill="none" stroke="black"/>
<path d="M202.327,493.203v 1.64951" fill="none" stroke="black"/>
<path d="M211.398,493.203v 1.64951" fill="none" stroke="black"/>
<path d="M220.469,493.203v 1.64951" fill="none" stroke="black"/>
<path d="M229.539,493.203v 1.64951" fill="none" stroke="black"/>
<path d="M238.61,491.553v 3.29901" fill="none" stroke="black"/>
<path d="M247.681,493.203v 1.64951" fill="none" stroke="black"/>
<path d="M256.752,493.203v 1.64951" fill="none" stroke="black"/>
<path d="M265.823,493.203v 1.64951" fill="none" stroke="black"/>
<path d="M274.894,493.203v 1.64951" fill="none" stroke="black"/>
<path d="M283.965,491.553v 3.29901" fill="none" stroke="black"/>
<path d="M293.035,493.203v 1.64951" fill="none" stroke="black"/>
<path d="M302.106,493.203v 1.64951" fill="none" stroke="black"/>
<path d="M311.177,493.203v 1.64951" fill="none" stroke="black"/>
<path d="M320.248,493.203v 1.64951" fill="none" stroke="black"/>
<path d="M329.319,491.553v 3.29901" fill="none" stroke="black"/>
<path d="M338.39,493.203v 1.64951" fill="none" stroke="black"/>
<path d="M347.461,493.203v 1.64951" fill="none" stroke="black"/>
<path d="M356.531,493.203v 1.64951" fill="none" stroke="black"/>
<path d="M365.602,493.203v 1.64951" fill="none" stroke="black"/>
<path d="M374.673,491.553v 3.29901" fill="none" stroke="black"/>
<path d="M383.744,493.203v 1.64951" fill="none" stroke="black"/>
<path d="M392.815,493.203v 1.64951" fill="none" stroke="black"/>
<path d="M401.886,493.203v 1.64951" fill="none" stroke="black"/>
<path d="M410.957,493.203v 1.64951" fill="none" stroke="black"/>
<path d="M420.028,491.553v 3.29901" fill="none" stroke="black"/>
<path d="M429.098,493.203v 1.64951" fill="none" stroke="black"/>
<path d="M438.169,493.203v 1.64951" fill="none" stroke="black"/>
<path d="M447.24,493.203v 1.64951" fill="none" stroke="black"/>
<path d="M456.311,493.203v 1.64951" fill="none" stroke="black"/>
<path d="M465.382,491.553v 3.29901" fill="none" stroke="black"/>
<path d="M474.453,493.203v 1.64951" fill="none" stroke="black"/>
<path d="M483.524,493.203v 1.64951" fill="none" stroke="black"/>
<path d="M492.594,493.203v 1.64951" fill="none" stroke="black"/>
<path d="M501.665,493.203v 1.64951" fill="none" stroke="black"/>
<path d="M510.736,491.553v 3.29901" fill="none" stroke="black"/>
<text xml:space="preserve" x="56.7656" y="504.254" fill="black" font-size="10.3012" font-family="Helvetica">5
</text>
<text xml:space="preserve" x="51.78" y="504.254" fill="black" font-size="10.3012" font-family="Times">&#8722;
</text>
<text xml:space="preserve" x="101.636" y="504.254" fill="black" font-size="10.3012" font-family="Helvetica">4
</text>
<text xml:space="preserve" x="96.65" y="504.254" fill="black" font-size="10.3012" font-family="Times">&#8722;
</text>
<text xml:space="preserve" x="147.218" y="504.254" fill="black" font-size="10.3012" font-family="Helvetica">3
</text>
<text xml:space="preserve" x="142.232" y="504.254" fill="black" font-size="10.3012" font-family="Times">&#8722;
</text>
<text xml:space="preserve" x="192.8" y="504.254" fill="black" font-size="10.3012" font-family="Helvetica">2
</text>
<text xml:space="preserve" x="187.815" y="504.254" fill="black" font-size="10.3012" font-family="Times">&#8722;
</text>
<text xml:space="preserve" x="239.095" y="504.254" fill="black" font-size="10.3012" font-family="Helvetica">1
</text>
<text xml:space="preserve" x="233.397" y="504.254" fill="black" font-size="10.3012" font-family="Times">&#8722;
</text>
<text xml:space="preserve" x="281.116" y="504.254" fill="black" font-size="10.3012" font-family="Helvetica">0
</text>
<text xml:space="preserve" x="327.41" y="504.254" fill="black" font-size="10.3012" font-family="Helvetica">1
</text>
<text xml:space="preserve" x="371.568" y="504.254" fill="black" font-size="10.3012" font-family="Helvetica">2
</text>
<text xml:space="preserve" x="417.15" y="504.254" fill="black" font-size="10.3012" font-family="Helvetica">3
</text>
<text xml:space="preserve" x="462.732" y="504.254" fill="black" font-size="10.3012" font-family="Helvetica">4
</text>
<text xml:space="preserve" x="507.602" y="504.254" fill="black" font-size="10.3012" font-family="Helvetica">5
</text>
<text xml:space="preserve" x="479.114" y="522.771" fill="black" font-size="13.5683" font-family="Helvetica">x title
</text>
<path d="M57.1929,494.852v -109.967" fill="none" stroke="black"/>
<path d="M70.7992,494.852h -13.6063" fill="none" stroke="black"/>
<path d="M63.9961,484.855h -6.80315" fill="none" stroke="black"/>
<path d="M63.9961,474.858h -6.80315" fill="none" stroke="black"/>
<path d="M63.9961,464.861h -6.80315" fill="none" stroke="black"/>
<path d="M70.7992,454.864h -13.6063" fill="none" stroke="black"/>
<path d="M63.9961,444.867h -6.80315" fill="none" stroke="black"/>
<path d="M63.9961,434.87h -6.80315" fill="none" stroke="black"/>
<path d="M63.9961,424.873h -6.80315" fill="none" stroke="black"/>
<path d="M70.7992,414.876h -13.6063" fill="none" stroke="black"/>
<path d="M70.7992,414.876h -13.6063" fill="none" stroke="black"/>
<path d="M63.9961,404.879h -6.80315" fill="none" stroke="black"/>
<path d="M63.9961,394.882h -6.80315" fill="none" stroke="black"/>
<text xml:space="preserve" x="46.0822" y="495.707" fill="black" font-size="10.3012" font-family="Helvetica"> 
</text>
<text xml:space="preserve" x="51.0678" y="459.384" fill="black" font-size="10.3012" font-family="Helvetica">1
</text>
<text xml:space="preserve" x="41.0967" y="419.499" fill="black" font-size="10.3012" font-family="Helvetica">1.2
</text>
<g transform="rotate(-90,26.8522,459.384)">
<text xml:space="preserve" x="26.8522" y="459.384" fill="black" font-size="13.5683" font-family="Helvetica">ratio h1/h2 
</text>
</g></svg>
