<?xml version="1.0" standalone="no"?>
<svg width="567.429" height="384.969" viewBox="0 0 567.429 384.969" xmlns="http://www.w3.org/2000/svg" shape-rendering="crispEdges">
<title>
./old_svg_ref/ratioplot5.svg
</title>
<desc>
Creator: ROOT Version 6.33.01
CreationDate: Wed Jul 10 10:02:48 2024</desc>
<defs>
</defs>
<rect x="0.5" y="0" width="566.929" height="384.469" fill="white"/>
<rect x="1.91732" y="0.961173" width="564.094" height="268.167" fill="white"/>
<rect x="92.1724" y="27.7779" width="445.635" height="227.942" fill="white"/>
<rect x="92.1724" y="27.7779" width="445.635" height="227.942" fill="none" stroke="black"/>
<path d="M92.1724,255.72h 26.7381v -1.25484h 8.91269v 1.25484h 26.7381v -1.25484h 8.91269v 1.25484h 8.91269v -1.25484h 8.91269v -1.25484h 8.91269v -5.01937h 26.7381v -22.5872h 8.91269v -1.25484h 8.91269v -10.0387h 8.91269v -26.3517h 8.91269v
 -25.0969h 8.91269v -12.5484h 8.91269v -30.1162h 8.91269v -21.3323h 8.91269v 1.25484h 8.91269v -36.3904h 8.91269v -25.0969h 8.91269v 13.8033h 8.91269v 10.0387h 8.91269v -2.50969h 8.91269v 45.1743h 8.91269v 26.3517h 8.91269v 23.842h 8.91269v 27.6065h
 8.91269v 11.2936h 8.91269v 11.2936h 8.91269v 13.8033h 8.91269v 12.5484h 8.91269v 6.27421h 8.91269v 8.7839h 8.91269v 1.25484h 8.91269v 3.76453h 8.91269v 2.50969h 8.91269v 1.25484h 8.91269v -2.50969h 8.91269v 2.50969h 17.8254v -1.25484h 8.91269v
 1.25484h 35.6508" fill="none" stroke="black" stroke-width="2"/>
<path d="M94.4006,255.72h 31.1944l 4.45635, -0.0315348l 4.45635, -0.0162717l 4.45635, -0.0239371l 4.45635, -0.0348374l 4.45635, -0.0501576l 4.45635, -0.0714385l 4.45635, -0.10065l 4.45635, -0.140271l 4.45635, -0.193362l 4.45635, -0.263635l 4.45635,
 -0.355501l 4.45635, -0.474089l 4.45635, -0.625219l 4.45635, -0.815318l 4.45635, -1.05126l 4.45635, -1.34013l 4.45635, -1.68886l 4.45635, -2.1038l 4.45635, -2.59017l 4.45635, -3.1514l 4.45635, -3.78848l 4.45635, -4.49923l 4.45635, -5.27758l 4.45635,
 -6.11301l 4.45635, -6.99008l 4.45635, -7.88825l 4.45635, -8.78192l 4.45635, -9.64085l 4.45635, -10.431l 4.45635, -11.1159l 4.45635, -11.6576l 4.45635, -12.0196l 4.45635, -12.1677l 4.45635, -12.0733l 4.45635, -11.7147l 4.45635, -11.0793l 4.45635,
 -10.1651l 4.45635, -8.98148l 4.45635, -7.5497l 4.45635, -5.90229l 4.45635, -4.08203l 4.45635, -2.14009" fill="none" stroke="black" stroke-width="3"/>
<path d="M312.762,56.539l 4.45635, -0.133679l 4.45635, 1.87678l 4.45635, 3.83064l 4.45635, 5.67012l 4.45635, 7.34308l 4.45635, 8.80552l 4.45635, 10.0235l 4.45635, 10.9741l 4.45635, 11.6466l 4.45635, 12.0414l 4.45635, 12.1697l 4.45635, 12.0521l
 4.45635, 11.7167l 4.45635, 11.1966l 4.45635, 10.5286l 4.45635, 9.75023l 4.45635, 8.89837l 4.45635, 8.00748l 4.45635, 7.10833l 4.45635, 6.22717l 4.45635, 5.38523l 4.45635, 4.59861l 4.45635, 3.87847l 4.45635, 3.23143l 4.45635, 2.66014l 4.45635,
 2.16402l 4.45635, 1.73989l 4.45635, 1.38273l 4.45635, 1.08633l 4.45635, 0.84378l 4.45635, 0.648011l 4.45635, 0.492101l 4.45635, 0.369552l 4.45635, 0.274457l 4.45635, 0.201593l 4.45635, 0.146455l 4.45635, 0.10524l 4.45635, 0.0748034l 4.45635,
 0.0525956l 4.45635, 0.0365829l 4.45635, 0.0251724l 4.45635, 0.0171357l 4.45635, 0.0333407h 26.7381" fill="none" stroke="black" stroke-width="3"/>
<path d="M531.123,255.72h 4.45635" fill="none" stroke="black" stroke-width="3"/>
<rect x="1.91732" y="269.128" width="564.094" height="114.38" fill="white"/>
<rect x="92.1724" y="274.847" width="445.635" height="74.3467" fill="white"/>
<rect x="92.1724" y="274.847" width="445.635" height="74.3467" fill="none" stroke="black"/>
<path d="M123.367,311.7l 35.6508, -4.71215l 17.8254, -10.0551l 8.91269, -2.10688l 8.91269, 1.95447l 8.91269, -7.03287l 8.91269, -8.70429l 8.91269, 10.4735l 8.91269, -4.84376l 8.91269, -1.27452l 8.91269, 2.43849l 8.91269, 0.800247l 8.91269, -1.167l
 8.91269, 0.342932l 8.91269, -0.949682l 8.91269, -2.7719l 8.91269, 0.844972l 8.91269, 0.668079l 8.91269, -0.696153l 8.91269, 0.618417l 8.91269, 2.20842l 8.91269, -0.858722l 8.91269, -0.034178l 8.91269, -0.523715l 8.91269, -1.99907l 8.91269, 0.522892l
 8.91269, 0.939349l 8.91269, 0.496144l 8.91269, 0.425594l 8.91269, 2.98756l 8.91269, -0.400917l 8.91269, 5.92249l 8.91269, 1.32039l 8.91269, -1.15995l 17.8254, 12.7188l 26.7381, 3.17278v 1.51267l -26.7381, 3.17278l -17.8254, 12.7188l -8.91269,
 -1.15995l -8.91269, 1.32039l -8.91269, 5.92249l -8.91269, -0.400917l -8.91269, 2.98756l -8.91269, 0.425594l -8.91269, 0.496144l -8.91269, 0.939349l -8.91269, 0.522892l -8.91269, -1.99907l -8.91269, -0.523715l -8.91269, -0.034178l -8.91269,
 -0.858722l -8.91269, 2.20842l -8.91269, 0.618417l -8.91269, -0.696153l -8.91269, 0.668079l -8.91269, 0.844972l -8.91269, -2.7719l -8.91269, -0.949682l -8.91269, 0.342932l -8.91269, -1.167l -8.91269, 0.800247l -8.91269, 2.43849l -8.91269, -1.27452l
 -8.91269, -4.84376l -8.91269, 10.4735l -8.91269, -8.70429l -8.91269, -7.03287l -8.91269, 1.95447l -8.91269, -2.10688l -17.8254, -10.0551l -35.6508, -4.71215z" fill="#ff0000"/>
<path d="M123.367,311.86l 35.6508, -2.35612l 17.8254, -5.02766l 8.91269, -1.05346l 8.91269, 0.977254l 8.91269, -3.5165l 8.91269, -4.35223l 8.91269, 5.23683l 8.91269, -2.42193l 8.91269, -0.637271l 8.91269, 1.21927l 8.91269, 0.400131l 8.91269,
 -0.583514l 8.91269, 0.17147l 8.91269, -0.474851l 8.91269, -1.38598l 8.91269, 0.422495l 8.91269, 0.334047l 8.91269, -0.348084l 8.91269, 0.309215l 8.91269, 1.10423l 8.91269, -0.42937l 8.91269, -0.0170893l 8.91269, -0.261863l 8.91269, -0.999555l
 8.91269, 0.261451l 8.91269, 0.469684l 8.91269, 0.248077l 8.91269, 0.212802l 8.91269, 1.49381l 8.91269, -0.200462l 8.91269, 2.96131l 8.91269, 0.660207l 8.91269, -0.579987l 17.8254, 6.35954l 26.7381, 1.58642v 0.756349l -26.7381, 1.58642l -17.8254,
 6.35954l -8.91269, -0.579987l -8.91269, 0.660207l -8.91269, 2.96131l -8.91269, -0.200462l -8.91269, 1.49381l -8.91269, 0.212802l -8.91269, 0.248077l -8.91269, 0.469684l -8.91269, 0.261451l -8.91269, -0.999555l -8.91269, -0.261863l -8.91269,
 -0.0170893l -8.91269, -0.42937l -8.91269, 1.10423l -8.91269, 0.309215l -8.91269, -0.348084l -8.91269, 0.334047l -8.91269, 0.422495l -8.91269, -1.38598l -8.91269, -0.474851l -8.91269, 0.17147l -8.91269, -0.583514l -8.91269, 0.400131l -8.91269,
 1.21927l -8.91269, -0.637271l -8.91269, -2.42193l -8.91269, 5.23683l -8.91269, -4.35223l -8.91269, -3.5165l -8.91269, 0.977254l -8.91269, -1.05346l -17.8254, -5.02766l -35.6508, -2.35612z" fill="#0000ff"/>
<path d="M127.097,274.847l 31.9206, 10.4575" fill="none" stroke="black"/>
<path d="M159.018,285.305l 17.8254, 34.3773l 8.91269, -2.12712l 8.91269, -39.0951l 8.91269, 42.9675l 3.76024, 27.7667" fill="none" stroke="black"/>
<path d="M215.053,349.194l 5.00104, -74.3467" fill="none" stroke="black"/>
<path d="M224.448,274.847l 5.87164, 38.8175" fill="none" stroke="black"/>
<path d="M230.319,313.665l 8.91269, 21.0904l 8.91269, -42.0795l 8.91269, -12.5396l 8.91269, 38.232l 8.91269, -18.1789l 8.91269, 6.45747l 6.3313, 42.5474" fill="none" stroke="black"/>
<path d="M295.331,349.194l 6.28975, -41.5987" fill="none" stroke="black"/>
<path d="M301.621,307.595l 7.34707, -32.748" fill="none" stroke="black"/>
<path d="M312.43,274.847l 7.01654, 25.8232" fill="none" stroke="black"/>
<path d="M319.446,300.671l 8.91269, 5.72104l 6.61161, -31.5442" fill="none" stroke="black"/>
<path d="M338.787,274.847l 7.39719, 53.5864" fill="none" stroke="black"/>
<path d="M346.184,328.434l 8.91269, 11.4054l 8.91269, 1.61682l 3.09079, 7.73807" fill="none" stroke="black"/>
<path d="M376.29,349.194l 5.54499, -23.9992" fill="none" stroke="black"/>
<path d="M381.835,325.195l 8.91269, -30.4285l 8.91269, -5.41649l 8.91269, 7.21118l 8.91269, -14.9897l 8.91269, 27.7592l 8.91269, -28.5925l 8.91269, 15.2991l 8.91269, 25.623l 15.0004, -46.8129" fill="none" stroke="black"/>
<path d="M92.1724,349.194z" fill="none" stroke="black" stroke-dasharray=" 3, 3"/>
<path d="M92.1724,312.021h 445.635" fill="none" stroke="black" stroke-dasharray=" 3, 3"/>
<path d="M92.1724,349.194z" fill="none" stroke="black" stroke-dasharray=" 3, 3"/>
<path d="M92.1724,255.355h 445.635" fill="none" stroke="black"/>
<path d="M92.1724,246.288v 9.06636" fill="none" stroke="black"/>
<path d="M101.085,250.822v 4.53318" fill="none" stroke="black"/>
<path d="M109.998,250.822v 4.53318" fill="none" stroke="black"/>
<path d="M118.911,250.822v 4.53318" fill="none" stroke="black"/>
<path d="M127.823,250.822v 4.53318" fill="none" stroke="black"/>
<path d="M136.736,246.288v 9.06636" fill="none" stroke="black"/>
<path d="M145.649,250.822v 4.53318" fill="none" stroke="black"/>
<path d="M154.561,250.822v 4.53318" fill="none" stroke="black"/>
<path d="M163.474,250.822v 4.53318" fill="none" stroke="black"/>
<path d="M172.387,250.822v 4.53318" fill="none" stroke="black"/>
<path d="M181.299,246.288v 9.06636" fill="none" stroke="black"/>
<path d="M190.212,250.822v 4.53318" fill="none" stroke="black"/>
<path d="M199.125,250.822v 4.53318" fill="none" stroke="black"/>
<path d="M208.037,250.822v 4.53318" fill="none" stroke="black"/>
<path d="M216.95,250.822v 4.53318" fill="none" stroke="black"/>
<path d="M225.863,246.288v 9.06636" fill="none" stroke="black"/>
<path d="M234.776,250.822v 4.53318" fill="none" stroke="black"/>
<path d="M243.688,250.822v 4.53318" fill="none" stroke="black"/>
<path d="M252.601,250.822v 4.53318" fill="none" stroke="black"/>
<path d="M261.514,250.822v 4.53318" fill="none" stroke="black"/>
<path d="M270.426,246.288v 9.06636" fill="none" stroke="black"/>
<path d="M279.339,250.822v 4.53318" fill="none" stroke="black"/>
<path d="M288.252,250.822v 4.53318" fill="none" stroke="black"/>
<path d="M297.164,250.822v 4.53318" fill="none" stroke="black"/>
<path d="M306.077,250.822v 4.53318" fill="none" stroke="black"/>
<path d="M314.99,246.288v 9.06636" fill="none" stroke="black"/>
<path d="M323.902,250.822v 4.53318" fill="none" stroke="black"/>
<path d="M332.815,250.822v 4.53318" fill="none" stroke="black"/>
<path d="M341.728,250.822v 4.53318" fill="none" stroke="black"/>
<path d="M350.641,250.822v 4.53318" fill="none" stroke="black"/>
<path d="M359.553,246.288v 9.06636" fill="none" stroke="black"/>
<path d="M368.466,250.822v 4.53318" fill="none" stroke="black"/>
<path d="M377.379,250.822v 4.53318" fill="none" stroke="black"/>
<path d="M386.291,250.822v 4.53318" fill="none" stroke="black"/>
<path d="M395.204,250.822v 4.53318" fill="none" stroke="black"/>
<path d="M404.117,246.288v 9.06636" fill="none" stroke="black"/>
<path d="M413.029,250.822v 4.53318" fill="none" stroke="black"/>
<path d="M421.942,250.822v 4.53318" fill="none" stroke="black"/>
<path d="M430.855,250.822v 4.53318" fill="none" stroke="black"/>
<path d="M439.767,250.822v 4.53318" fill="none" stroke="black"/>
<path d="M448.68,246.288v 9.06636" fill="none" stroke="black"/>
<path d="M457.593,250.822v 4.53318" fill="none" stroke="black"/>
<path d="M466.506,250.822v 4.53318" fill="none" stroke="black"/>
<path d="M475.418,250.822v 4.53318" fill="none" stroke="black"/>
<path d="M484.331,250.822v 4.53318" fill="none" stroke="black"/>
<path d="M493.244,246.288v 9.06636" fill="none" stroke="black"/>
<path d="M502.156,250.822v 4.53318" fill="none" stroke="black"/>
<path d="M511.069,250.822v 4.53318" fill="none" stroke="black"/>
<path d="M519.982,250.822v 4.53318" fill="none" stroke="black"/>
<path d="M528.894,250.822v 4.53318" fill="none" stroke="black"/>
<path d="M537.807,246.288v 9.06636" fill="none" stroke="black"/>
<path d="M92.1724,255.355v -227.615" fill="none" stroke="black"/>
<path d="M102.242,255.355h -10.0691" fill="none" stroke="black"/>
<path d="M97.207,249.09h -5.03454" fill="none" stroke="black"/>
<path d="M97.207,242.824h -5.03454" fill="none" stroke="black"/>
<path d="M97.207,236.559h -5.03454" fill="none" stroke="black"/>
<path d="M102.242,230.294h -10.0691" fill="none" stroke="black"/>
<path d="M97.207,224.029h -5.03454" fill="none" stroke="black"/>
<path d="M97.207,217.764h -5.03454" fill="none" stroke="black"/>
<path d="M97.207,211.498h -5.03454" fill="none" stroke="black"/>
<path d="M102.242,205.233h -10.0691" fill="none" stroke="black"/>
<path d="M97.207,198.968h -5.03454" fill="none" stroke="black"/>
<path d="M97.207,192.703h -5.03454" fill="none" stroke="black"/>
<path d="M97.207,186.437h -5.03454" fill="none" stroke="black"/>
<path d="M102.242,180.172h -10.0691" fill="none" stroke="black"/>
<path d="M97.207,173.907h -5.03454" fill="none" stroke="black"/>
<path d="M97.207,167.642h -5.03454" fill="none" stroke="black"/>
<path d="M97.207,161.377h -5.03454" fill="none" stroke="black"/>
<path d="M102.242,155.111h -10.0691" fill="none" stroke="black"/>
<path d="M97.207,148.846h -5.03454" fill="none" stroke="black"/>
<path d="M97.207,142.581h -5.03454" fill="none" stroke="black"/>
<path d="M97.207,136.316h -5.03454" fill="none" stroke="black"/>
<path d="M102.242,130.05h -10.0691" fill="none" stroke="black"/>
<path d="M97.207,123.785h -5.03454" fill="none" stroke="black"/>
<path d="M97.207,117.52h -5.03454" fill="none" stroke="black"/>
<path d="M97.207,111.255h -5.03454" fill="none" stroke="black"/>
<path d="M102.242,104.99h -10.0691" fill="none" stroke="black"/>
<path d="M97.207,98.7244h -5.03454" fill="none" stroke="black"/>
<path d="M97.207,92.4592h -5.03454" fill="none" stroke="black"/>
<path d="M97.207,86.1939h -5.03454" fill="none" stroke="black"/>
<path d="M102.242,79.9287h -10.0691" fill="none" stroke="black"/>
<path d="M97.207,73.6635h -5.03454" fill="none" stroke="black"/>
<path d="M97.207,67.3983h -5.03454" fill="none" stroke="black"/>
<path d="M97.207,61.1331h -5.03454" fill="none" stroke="black"/>
<path d="M102.242,54.8678h -10.0691" fill="none" stroke="black"/>
<path d="M97.207,48.6026h -5.03454" fill="none" stroke="black"/>
<path d="M97.207,42.3374h -5.03454" fill="none" stroke="black"/>
<path d="M97.207,36.0722h -5.03454" fill="none" stroke="black"/>
<path d="M102.242,29.807h -10.0691" fill="none" stroke="black"/>
<path d="M102.242,29.807h -10.0691" fill="none" stroke="black"/>
<text xml:space="preserve" x="79.5117" y="261.472" fill="black" font-size="18.048" font-family="Helvetica">0
</text>
<text xml:space="preserve" x="69.737" y="237.035" fill="black" font-size="18.048" font-family="Helvetica">20
</text>
<text xml:space="preserve" x="69.737" y="211.784" fill="black" font-size="18.048" font-family="Helvetica">40
</text>
<text xml:space="preserve" x="69.737" y="186.533" fill="black" font-size="18.048" font-family="Helvetica">60
</text>
<text xml:space="preserve" x="69.737" y="161.282" fill="black" font-size="18.048" font-family="Helvetica">80
</text>
<text xml:space="preserve" x="59.9624" y="136.845" fill="black" font-size="18.048" font-family="Helvetica">100
</text>
<text xml:space="preserve" x="59.9624" y="111.594" fill="black" font-size="18.048" font-family="Helvetica">120
</text>
<text xml:space="preserve" x="59.9624" y="86.3427" fill="black" font-size="18.048" font-family="Helvetica">140
</text>
<text xml:space="preserve" x="59.9624" y="61.0915" fill="black" font-size="18.048" font-family="Helvetica">160
</text>
<text xml:space="preserve" x="59.9624" y="36.6549" fill="black" font-size="18.048" font-family="Helvetica">180
</text>
<g transform="rotate(-90,32.2676,36.6549)">
<text xml:space="preserve" x="32.2676" y="36.6549" fill="black" font-size="18.048" font-family="Helvetica">y
</text>
</g>
<path d="M92.1724,349.079h 445.635" fill="none" stroke="black"/>
<path d="M92.1724,340.012v 9.06636" fill="none" stroke="black"/>
<path d="M101.085,344.546v 4.53318" fill="none" stroke="black"/>
<path d="M109.998,344.546v 4.53318" fill="none" stroke="black"/>
<path d="M118.911,344.546v 4.53318" fill="none" stroke="black"/>
<path d="M127.823,344.546v 4.53318" fill="none" stroke="black"/>
<path d="M136.736,340.012v 9.06636" fill="none" stroke="black"/>
<path d="M145.649,344.546v 4.53318" fill="none" stroke="black"/>
<path d="M154.561,344.546v 4.53318" fill="none" stroke="black"/>
<path d="M163.474,344.546v 4.53318" fill="none" stroke="black"/>
<path d="M172.387,344.546v 4.53318" fill="none" stroke="black"/>
<path d="M181.299,340.012v 9.06636" fill="none" stroke="black"/>
<path d="M190.212,344.546v 4.53318" fill="none" stroke="black"/>
<path d="M199.125,344.546v 4.53318" fill="none" stroke="black"/>
<path d="M208.037,344.546v 4.53318" fill="none" stroke="black"/>
<path d="M216.95,344.546v 4.53318" fill="none" stroke="black"/>
<path d="M225.863,340.012v 9.06636" fill="none" stroke="black"/>
<path d="M234.776,344.546v 4.53318" fill="none" stroke="black"/>
<path d="M243.688,344.546v 4.53318" fill="none" stroke="black"/>
<path d="M252.601,344.546v 4.53318" fill="none" stroke="black"/>
<path d="M261.514,344.546v 4.53318" fill="none" stroke="black"/>
<path d="M270.426,340.012v 9.06636" fill="none" stroke="black"/>
<path d="M279.339,344.546v 4.53318" fill="none" stroke="black"/>
<path d="M288.252,344.546v 4.53318" fill="none" stroke="black"/>
<path d="M297.164,344.546v 4.53318" fill="none" stroke="black"/>
<path d="M306.077,344.546v 4.53318" fill="none" stroke="black"/>
<path d="M314.99,340.012v 9.06636" fill="none" stroke="black"/>
<path d="M323.902,344.546v 4.53318" fill="none" stroke="black"/>
<path d="M332.815,344.546v 4.53318" fill="none" stroke="black"/>
<path d="M341.728,344.546v 4.53318" fill="none" stroke="black"/>
<path d="M350.641,344.546v 4.53318" fill="none" stroke="black"/>
<path d="M359.553,340.012v 9.06636" fill="none" stroke="black"/>
<path d="M368.466,344.546v 4.53318" fill="none" stroke="black"/>
<path d="M377.379,344.546v 4.53318" fill="none" stroke="black"/>
<path d="M386.291,344.546v 4.53318" fill="none" stroke="black"/>
<path d="M395.204,344.546v 4.53318" fill="none" stroke="black"/>
<path d="M404.117,340.012v 9.06636" fill="none" stroke="black"/>
<path d="M413.029,344.546v 4.53318" fill="none" stroke="black"/>
<path d="M421.942,344.546v 4.53318" fill="none" stroke="black"/>
<path d="M430.855,344.546v 4.53318" fill="none" stroke="black"/>
<path d="M439.767,344.546v 4.53318" fill="none" stroke="black"/>
<path d="M448.68,340.012v 9.06636" fill="none" stroke="black"/>
<path d="M457.593,344.546v 4.53318" fill="none" stroke="black"/>
<path d="M466.506,344.546v 4.53318" fill="none" stroke="black"/>
<path d="M475.418,344.546v 4.53318" fill="none" stroke="black"/>
<path d="M484.331,344.546v 4.53318" fill="none" stroke="black"/>
<path d="M493.244,340.012v 9.06636" fill="none" stroke="black"/>
<path d="M502.156,344.546v 4.53318" fill="none" stroke="black"/>
<path d="M511.069,344.546v 4.53318" fill="none" stroke="black"/>
<path d="M519.982,344.546v 4.53318" fill="none" stroke="black"/>
<path d="M528.894,344.546v 4.53318" fill="none" stroke="black"/>
<path d="M537.807,340.012v 9.06636" fill="none" stroke="black"/>
<text xml:space="preserve" x="91.73" y="366.549" fill="black" font-size="18.048" font-family="Helvetica">5
</text>
<text xml:space="preserve" x="82.7699" y="366.549" fill="black" font-size="18.048" font-family="Times">&#8722;
</text>
<text xml:space="preserve" x="135.716" y="366.549" fill="black" font-size="18.048" font-family="Helvetica">4
</text>
<text xml:space="preserve" x="126.756" y="366.549" fill="black" font-size="18.048" font-family="Times">&#8722;
</text>
<text xml:space="preserve" x="180.516" y="366.549" fill="black" font-size="18.048" font-family="Helvetica">3
</text>
<text xml:space="preserve" x="171.556" y="366.549" fill="black" font-size="18.048" font-family="Times">&#8722;
</text>
<text xml:space="preserve" x="225.317" y="366.549" fill="black" font-size="18.048" font-family="Helvetica">2
</text>
<text xml:space="preserve" x="216.357" y="366.549" fill="black" font-size="18.048" font-family="Times">&#8722;
</text>
<text xml:space="preserve" x="270.932" y="366.549" fill="black" font-size="18.048" font-family="Helvetica">1
</text>
<text xml:space="preserve" x="261.972" y="366.549" fill="black" font-size="18.048" font-family="Times">&#8722;
</text>
<text xml:space="preserve" x="310.03" y="366.549" fill="black" font-size="18.048" font-family="Helvetica">0
</text>
<text xml:space="preserve" x="356.46" y="366.549" fill="black" font-size="18.048" font-family="Helvetica">1
</text>
<text xml:space="preserve" x="399.631" y="366.549" fill="black" font-size="18.048" font-family="Helvetica">2
</text>
<text xml:space="preserve" x="443.617" y="366.549" fill="black" font-size="18.048" font-family="Helvetica">3
</text>
<text xml:space="preserve" x="488.417" y="366.549" fill="black" font-size="18.048" font-family="Helvetica">4
</text>
<text xml:space="preserve" x="533.218" y="366.549" fill="black" font-size="18.048" font-family="Helvetica">5
</text>
<text xml:space="preserve" x="529.145" y="397.502" fill="black" font-size="18.048" font-family="Helvetica">x
</text>
<path d="M92.1724,349.079v -74.5966" fill="none" stroke="black"/>
<path d="M102.242,343.013h -10.0691" fill="none" stroke="black"/>
<path d="M97.207,341.061h -5.03454" fill="none" stroke="black"/>
<path d="M97.207,339.109h -5.03454" fill="none" stroke="black"/>
<path d="M97.207,337.157h -5.03454" fill="none" stroke="black"/>
<path d="M102.242,335.205h -10.0691" fill="none" stroke="black"/>
<path d="M97.207,333.253h -5.03454" fill="none" stroke="black"/>
<path d="M97.207,331.301h -5.03454" fill="none" stroke="black"/>
<path d="M97.207,329.349h -5.03454" fill="none" stroke="black"/>
<path d="M102.242,327.397h -10.0691" fill="none" stroke="black"/>
<path d="M97.207,325.445h -5.03454" fill="none" stroke="black"/>
<path d="M97.207,323.493h -5.03454" fill="none" stroke="black"/>
<path d="M97.207,321.541h -5.03454" fill="none" stroke="black"/>
<path d="M102.242,319.589h -10.0691" fill="none" stroke="black"/>
<path d="M97.207,317.637h -5.03454" fill="none" stroke="black"/>
<path d="M97.207,315.684h -5.03454" fill="none" stroke="black"/>
<path d="M97.207,313.732h -5.03454" fill="none" stroke="black"/>
<path d="M102.242,311.78h -10.0691" fill="none" stroke="black"/>
<path d="M97.207,309.828h -5.03454" fill="none" stroke="black"/>
<path d="M97.207,307.876h -5.03454" fill="none" stroke="black"/>
<path d="M97.207,305.924h -5.03454" fill="none" stroke="black"/>
<path d="M102.242,303.972h -10.0691" fill="none" stroke="black"/>
<path d="M97.207,302.02h -5.03454" fill="none" stroke="black"/>
<path d="M97.207,300.068h -5.03454" fill="none" stroke="black"/>
<path d="M97.207,298.116h -5.03454" fill="none" stroke="black"/>
<path d="M102.242,296.164h -10.0691" fill="none" stroke="black"/>
<path d="M97.207,294.212h -5.03454" fill="none" stroke="black"/>
<path d="M97.207,292.26h -5.03454" fill="none" stroke="black"/>
<path d="M97.207,290.308h -5.03454" fill="none" stroke="black"/>
<path d="M102.242,288.356h -10.0691" fill="none" stroke="black"/>
<path d="M97.207,286.404h -5.03454" fill="none" stroke="black"/>
<path d="M97.207,284.452h -5.03454" fill="none" stroke="black"/>
<path d="M97.207,282.5h -5.03454" fill="none" stroke="black"/>
<path d="M102.242,280.548h -10.0691" fill="none" stroke="black"/>
<path d="M102.242,343.013h -10.0691" fill="none" stroke="black"/>
<path d="M97.207,344.965h -5.03454" fill="none" stroke="black"/>
<path d="M97.207,346.917h -5.03454" fill="none" stroke="black"/>
<path d="M97.207,348.869h -5.03454" fill="none" stroke="black"/>
<path d="M102.242,280.548h -10.0691" fill="none" stroke="black"/>
<path d="M97.207,278.596h -5.03454" fill="none" stroke="black"/>
<path d="M97.207,276.644h -5.03454" fill="none" stroke="black"/>
<path d="M97.207,274.692h -5.03454" fill="none" stroke="black"/>
<text xml:space="preserve" x="64.8497" y="349.443" fill="black" font-size="18.048" font-family="Helvetica">0.8
</text>
<text xml:space="preserve" x="55.0751" y="349.443" fill="black" font-size="18.048" font-family="Times">&#8722;
</text>
<text xml:space="preserve" x="64.8497" y="342.112" fill="black" font-size="18.048" font-family="Helvetica">0.6
</text>
<text xml:space="preserve" x="55.0751" y="342.112" fill="black" font-size="18.048" font-family="Times">&#8722;
</text>
<text xml:space="preserve" x="64.8497" y="333.967" fill="black" font-size="18.048" font-family="Helvetica">0.4
</text>
<text xml:space="preserve" x="55.0751" y="333.967" fill="black" font-size="18.048" font-family="Times">&#8722;
</text>
<text xml:space="preserve" x="64.8497" y="325.821" fill="black" font-size="18.048" font-family="Helvetica">0.2
</text>
<text xml:space="preserve" x="55.0751" y="325.821" fill="black" font-size="18.048" font-family="Times">&#8722;
</text>
<text xml:space="preserve" x="79.5117" y="318.49" fill="black" font-size="18.048" font-family="Helvetica">0
</text>
<text xml:space="preserve" x="64.8497" y="310.345" fill="black" font-size="18.048" font-family="Helvetica">0.2
</text>
<text xml:space="preserve" x="64.8497" y="303.014" fill="black" font-size="18.048" font-family="Helvetica">0.4
</text>
<text xml:space="preserve" x="64.8497" y="294.868" fill="black" font-size="18.048" font-family="Helvetica">0.6
</text>
<text xml:space="preserve" x="64.8497" y="286.723" fill="black" font-size="18.048" font-family="Helvetica">0.8
</text>
<path d="M92.1724,27.7395h 445.635" fill="none" stroke="black"/>
<path d="M92.1724,36.8058v -9.06636" fill="none" stroke="black"/>
<path d="M101.085,32.2726v -4.53318" fill="none" stroke="black"/>
<path d="M109.998,32.2726v -4.53318" fill="none" stroke="black"/>
<path d="M118.911,32.2726v -4.53318" fill="none" stroke="black"/>
<path d="M127.823,32.2726v -4.53318" fill="none" stroke="black"/>
<path d="M136.736,36.8058v -9.06636" fill="none" stroke="black"/>
<path d="M145.649,32.2726v -4.53318" fill="none" stroke="black"/>
<path d="M154.561,32.2726v -4.53318" fill="none" stroke="black"/>
<path d="M163.474,32.2726v -4.53318" fill="none" stroke="black"/>
<path d="M172.387,32.2726v -4.53318" fill="none" stroke="black"/>
<path d="M181.299,36.8058v -9.06636" fill="none" stroke="black"/>
<path d="M190.212,32.2726v -4.53318" fill="none" stroke="black"/>
<path d="M199.125,32.2726v -4.53318" fill="none" stroke="black"/>
<path d="M208.037,32.2726v -4.53318" fill="none" stroke="black"/>
<path d="M216.95,32.2726v -4.53318" fill="none" stroke="black"/>
<path d="M225.863,36.8058v -9.06636" fill="none" stroke="black"/>
<path d="M234.776,32.2726v -4.53318" fill="none" stroke="black"/>
<path d="M243.688,32.2726v -4.53318" fill="none" stroke="black"/>
<path d="M252.601,32.2726v -4.53318" fill="none" stroke="black"/>
<path d="M261.514,32.2726v -4.53318" fill="none" stroke="black"/>
<path d="M270.426,36.8058v -9.06636" fill="none" stroke="black"/>
<path d="M279.339,32.2726v -4.53318" fill="none" stroke="black"/>
<path d="M288.252,32.2726v -4.53318" fill="none" stroke="black"/>
<path d="M297.164,32.2726v -4.53318" fill="none" stroke="black"/>
<path d="M306.077,32.2726v -4.53318" fill="none" stroke="black"/>
<path d="M314.99,36.8058v -9.06636" fill="none" stroke="black"/>
<path d="M323.902,32.2726v -4.53318" fill="none" stroke="black"/>
<path d="M332.815,32.2726v -4.53318" fill="none" stroke="black"/>
<path d="M341.728,32.2726v -4.53318" fill="none" stroke="black"/>
<path d="M350.641,32.2726v -4.53318" fill="none" stroke="black"/>
<path d="M359.553,36.8058v -9.06636" fill="none" stroke="black"/>
<path d="M368.466,32.2726v -4.53318" fill="none" stroke="black"/>
<path d="M377.379,32.2726v -4.53318" fill="none" stroke="black"/>
<path d="M386.291,32.2726v -4.53318" fill="none" stroke="black"/>
<path d="M395.204,32.2726v -4.53318" fill="none" stroke="black"/>
<path d="M404.117,36.8058v -9.06636" fill="none" stroke="black"/>
<path d="M413.029,32.2726v -4.53318" fill="none" stroke="black"/>
<path d="M421.942,32.2726v -4.53318" fill="none" stroke="black"/>
<path d="M430.855,32.2726v -4.53318" fill="none" stroke="black"/>
<path d="M439.767,32.2726v -4.53318" fill="none" stroke="black"/>
<path d="M448.68,36.8058v -9.06636" fill="none" stroke="black"/>
<path d="M457.593,32.2726v -4.53318" fill="none" stroke="black"/>
<path d="M466.506,32.2726v -4.53318" fill="none" stroke="black"/>
<path d="M475.418,32.2726v -4.53318" fill="none" stroke="black"/>
<path d="M484.331,32.2726v -4.53318" fill="none" stroke="black"/>
<path d="M493.244,36.8058v -9.06636" fill="none" stroke="black"/>
<path d="M502.156,32.2726v -4.53318" fill="none" stroke="black"/>
<path d="M511.069,32.2726v -4.53318" fill="none" stroke="black"/>
<path d="M519.982,32.2726v -4.53318" fill="none" stroke="black"/>
<path d="M528.894,32.2726v -4.53318" fill="none" stroke="black"/>
<path d="M537.807,36.8058v -9.06636" fill="none" stroke="black"/>
<path d="M92.1724,274.482h 445.635" fill="none" stroke="black"/>
<path d="M92.1724,283.549v -9.06636" fill="none" stroke="black"/>
<path d="M101.085,279.015v -4.53318" fill="none" stroke="black"/>
<path d="M109.998,279.015v -4.53318" fill="none" stroke="black"/>
<path d="M118.911,279.015v -4.53318" fill="none" stroke="black"/>
<path d="M127.823,279.015v -4.53318" fill="none" stroke="black"/>
<path d="M136.736,283.549v -9.06636" fill="none" stroke="black"/>
<path d="M145.649,279.015v -4.53318" fill="none" stroke="black"/>
<path d="M154.561,279.015v -4.53318" fill="none" stroke="black"/>
<path d="M163.474,279.015v -4.53318" fill="none" stroke="black"/>
<path d="M172.387,279.015v -4.53318" fill="none" stroke="black"/>
<path d="M181.299,283.549v -9.06636" fill="none" stroke="black"/>
<path d="M190.212,279.015v -4.53318" fill="none" stroke="black"/>
<path d="M199.125,279.015v -4.53318" fill="none" stroke="black"/>
<path d="M208.037,279.015v -4.53318" fill="none" stroke="black"/>
<path d="M216.95,279.015v -4.53318" fill="none" stroke="black"/>
<path d="M225.863,283.549v -9.06636" fill="none" stroke="black"/>
<path d="M234.776,279.015v -4.53318" fill="none" stroke="black"/>
<path d="M243.688,279.015v -4.53318" fill="none" stroke="black"/>
<path d="M252.601,279.015v -4.53318" fill="none" stroke="black"/>
<path d="M261.514,279.015v -4.53318" fill="none" stroke="black"/>
<path d="M270.426,283.549v -9.06636" fill="none" stroke="black"/>
<path d="M279.339,279.015v -4.53318" fill="none" stroke="black"/>
<path d="M288.252,279.015v -4.53318" fill="none" stroke="black"/>
<path d="M297.164,279.015v -4.53318" fill="none" stroke="black"/>
<path d="M306.077,279.015v -4.53318" fill="none" stroke="black"/>
<path d="M314.99,283.549v -9.06636" fill="none" stroke="black"/>
<path d="M323.902,279.015v -4.53318" fill="none" stroke="black"/>
<path d="M332.815,279.015v -4.53318" fill="none" stroke="black"/>
<path d="M341.728,279.015v -4.53318" fill="none" stroke="black"/>
<path d="M350.641,279.015v -4.53318" fill="none" stroke="black"/>
<path d="M359.553,283.549v -9.06636" fill="none" stroke="black"/>
<path d="M368.466,279.015v -4.53318" fill="none" stroke="black"/>
<path d="M377.379,279.015v -4.53318" fill="none" stroke="black"/>
<path d="M386.291,279.015v -4.53318" fill="none" stroke="black"/>
<path d="M395.204,279.015v -4.53318" fill="none" stroke="black"/>
<path d="M404.117,283.549v -9.06636" fill="none" stroke="black"/>
<path d="M413.029,279.015v -4.53318" fill="none" stroke="black"/>
<path d="M421.942,279.015v -4.53318" fill="none" stroke="black"/>
<path d="M430.855,279.015v -4.53318" fill="none" stroke="black"/>
<path d="M439.767,279.015v -4.53318" fill="none" stroke="black"/>
<path d="M448.68,283.549v -9.06636" fill="none" stroke="black"/>
<path d="M457.593,279.015v -4.53318" fill="none" stroke="black"/>
<path d="M466.506,279.015v -4.53318" fill="none" stroke="black"/>
<path d="M475.418,279.015v -4.53318" fill="none" stroke="black"/>
<path d="M484.331,279.015v -4.53318" fill="none" stroke="black"/>
<path d="M493.244,283.549v -9.06636" fill="none" stroke="black"/>
<path d="M502.156,279.015v -4.53318" fill="none" stroke="black"/>
<path d="M511.069,279.015v -4.53318" fill="none" stroke="black"/>
<path d="M519.982,279.015v -4.53318" fill="none" stroke="black"/>
<path d="M528.894,279.015v -4.53318" fill="none" stroke="black"/>
<path d="M537.807,283.549v -9.06636" fill="none" stroke="black"/>
<path d="M537.807,255.355v -227.615" fill="none" stroke="black"/>
<path d="M527.738,255.355h 10.0691" fill="none" stroke="black"/>
<path d="M532.773,249.09h 5.03454" fill="none" stroke="black"/>
<path d="M532.773,242.824h 5.03454" fill="none" stroke="black"/>
<path d="M532.773,236.559h 5.03454" fill="none" stroke="black"/>
<path d="M527.738,230.294h 10.0691" fill="none" stroke="black"/>
<path d="M532.773,224.029h 5.03454" fill="none" stroke="black"/>
<path d="M532.773,217.764h 5.03454" fill="none" stroke="black"/>
<path d="M532.773,211.498h 5.03454" fill="none" stroke="black"/>
<path d="M527.738,205.233h 10.0691" fill="none" stroke="black"/>
<path d="M532.773,198.968h 5.03454" fill="none" stroke="black"/>
<path d="M532.773,192.703h 5.03454" fill="none" stroke="black"/>
<path d="M532.773,186.437h 5.03454" fill="none" stroke="black"/>
<path d="M527.738,180.172h 10.0691" fill="none" stroke="black"/>
<path d="M532.773,173.907h 5.03454" fill="none" stroke="black"/>
<path d="M532.773,167.642h 5.03454" fill="none" stroke="black"/>
<path d="M532.773,161.377h 5.03454" fill="none" stroke="black"/>
<path d="M527.738,155.111h 10.0691" fill="none" stroke="black"/>
<path d="M532.773,148.846h 5.03454" fill="none" stroke="black"/>
<path d="M532.773,142.581h 5.03454" fill="none" stroke="black"/>
<path d="M532.773,136.316h 5.03454" fill="none" stroke="black"/>
<path d="M527.738,130.05h 10.0691" fill="none" stroke="black"/>
<path d="M532.773,123.785h 5.03454" fill="none" stroke="black"/>
<path d="M532.773,117.52h 5.03454" fill="none" stroke="black"/>
<path d="M532.773,111.255h 5.03454" fill="none" stroke="black"/>
<path d="M527.738,104.99h 10.0691" fill="none" stroke="black"/>
<path d="M532.773,98.7244h 5.03454" fill="none" stroke="black"/>
<path d="M532.773,92.4592h 5.03454" fill="none" stroke="black"/>
<path d="M532.773,86.1939h 5.03454" fill="none" stroke="black"/>
<path d="M527.738,79.9287h 10.0691" fill="none" stroke="black"/>
<path d="M532.773,73.6635h 5.03454" fill="none" stroke="black"/>
<path d="M532.773,67.3983h 5.03454" fill="none" stroke="black"/>
<path d="M532.773,61.1331h 5.03454" fill="none" stroke="black"/>
<path d="M527.738,54.8678h 10.0691" fill="none" stroke="black"/>
<path d="M532.773,48.6026h 5.03454" fill="none" stroke="black"/>
<path d="M532.773,42.3374h 5.03454" fill="none" stroke="black"/>
<path d="M532.773,36.0722h 5.03454" fill="none" stroke="black"/>
<path d="M527.738,29.807h 10.0691" fill="none" stroke="black"/>
<path d="M527.738,29.807h 10.0691" fill="none" stroke="black"/>
<path d="M537.807,349.079v -74.5966" fill="none" stroke="black"/>
<path d="M527.738,343.013h 10.0691" fill="none" stroke="black"/>
<path d="M532.773,341.061h 5.03454" fill="none" stroke="black"/>
<path d="M532.773,339.109h 5.03454" fill="none" stroke="black"/>
<path d="M532.773,337.157h 5.03454" fill="none" stroke="black"/>
<path d="M527.738,335.205h 10.0691" fill="none" stroke="black"/>
<path d="M532.773,333.253h 5.03454" fill="none" stroke="black"/>
<path d="M532.773,331.301h 5.03454" fill="none" stroke="black"/>
<path d="M532.773,329.349h 5.03454" fill="none" stroke="black"/>
<path d="M527.738,327.397h 10.0691" fill="none" stroke="black"/>
<path d="M532.773,325.445h 5.03454" fill="none" stroke="black"/>
<path d="M532.773,323.493h 5.03454" fill="none" stroke="black"/>
<path d="M532.773,321.541h 5.03454" fill="none" stroke="black"/>
<path d="M527.738,319.589h 10.0691" fill="none" stroke="black"/>
<path d="M532.773,317.637h 5.03454" fill="none" stroke="black"/>
<path d="M532.773,315.684h 5.03454" fill="none" stroke="black"/>
<path d="M532.773,313.732h 5.03454" fill="none" stroke="black"/>
<path d="M527.738,311.78h 10.0691" fill="none" stroke="black"/>
<path d="M532.773,309.828h 5.03454" fill="none" stroke="black"/>
<path d="M532.773,307.876h 5.03454" fill="none" stroke="black"/>
<path d="M532.773,305.924h 5.03454" fill="none" stroke="black"/>
<path d="M527.738,303.972h 10.0691" fill="none" stroke="black"/>
<path d="M532.773,302.02h 5.03454" fill="none" stroke="black"/>
<path d="M532.773,300.068h 5.03454" fill="none" stroke="black"/>
<path d="M532.773,298.116h 5.03454" fill="none" stroke="black"/>
<path d="M527.738,296.164h 10.0691" fill="none" stroke="black"/>
<path d="M532.773,294.212h 5.03454" fill="none" stroke="black"/>
<path d="M532.773,292.26h 5.03454" fill="none" stroke="black"/>
<path d="M532.773,290.308h 5.03454" fill="none" stroke="black"/>
<path d="M527.738,288.356h 10.0691" fill="none" stroke="black"/>
<path d="M532.773,286.404h 5.03454" fill="none" stroke="black"/>
<path d="M532.773,284.452h 5.03454" fill="none" stroke="black"/>
<path d="M532.773,282.5h 5.03454" fill="none" stroke="black"/>
<path d="M527.738,280.548h 10.0691" fill="none" stroke="black"/>
<path d="M527.738,343.013h 10.0691" fill="none" stroke="black"/>
<path d="M532.773,344.965h 5.03454" fill="none" stroke="black"/>
<path d="M532.773,346.917h 5.03454" fill="none" stroke="black"/>
<path d="M532.773,348.869h 5.03454" fill="none" stroke="black"/>
<path d="M527.738,280.548h 10.0691" fill="none" stroke="black"/>
<path d="M532.773,278.596h 5.03454" fill="none" stroke="black"/>
<path d="M532.773,276.644h 5.03454" fill="none" stroke="black"/>
<path d="M532.773,274.692h 5.03454" fill="none" stroke="black"/></svg>
