<?xml version="1.0" standalone="no"?>
<svg width="567.429" height="384.969" viewBox="0 0 567.429 384.969" xmlns="http://www.w3.org/2000/svg" shape-rendering="crispEdges">
<title>
/Users/adrianduesselberg/root-graphic-tests/build/old_svg_pro/ratioplot6_pro.svg
</title>
<desc>
Creator: ROOT Version 6.32.02
CreationDate: Mon Sep  2 14:35:54 2024</desc>
<defs>
</defs>
<rect x="0.5" y="0" width="566.929" height="384.469" fill="white"/>
<rect x="1.91732" y="0.961173" width="564.094" height="268.167" fill="white"/>
<rect x="58.3268" y="27.7779" width="451.276" height="241.351" fill="white"/>
<rect x="58.3268" y="27.7779" width="451.276" height="241.351" fill="none" stroke="black"/>
<path d="M85.4033,268.029h 1.25454" fill="none" stroke="black" stroke-width="2"/>
<path d="M93.1743,268.029h 1.25454" fill="none" stroke="black" stroke-width="2"/>
<g fill="black">
<circle cx="89.9161" cy="268.029" r="3.90986"/>
</g>
<path d="M121.505,268.578h 1.25454" fill="none" stroke="black" stroke-width="2"/>
<path d="M129.276,268.578h 1.25454" fill="none" stroke="black" stroke-width="2"/>
<g fill="black">
<circle cx="126.018" cy="268.578" r="3.90986"/>
</g>
<path d="M139.556,265.829h 1.25454" fill="none" stroke="black" stroke-width="2"/>
<path d="M147.327,265.829h 1.25454" fill="none" stroke="black" stroke-width="2"/>
<g fill="black">
<circle cx="144.069" cy="265.829" r="3.90986"/>
</g>
<path d="M148.582,266.379h 1.25454" fill="none" stroke="black" stroke-width="2"/>
<path d="M156.353,266.379h 1.25454" fill="none" stroke="black" stroke-width="2"/>
<g fill="black">
<circle cx="153.095" cy="266.379" r="3.90986"/>
</g>
<path d="M157.607,259.229h 1.25454" fill="none" stroke="black" stroke-width="2"/>
<path d="M165.378,259.229h 1.25454" fill="none" stroke="black" stroke-width="2"/>
<g fill="black">
<circle cx="162.12" cy="259.229" r="3.90986"/>
</g>
<path d="M166.633,262.529h 1.25454" fill="none" stroke="black" stroke-width="2"/>
<path d="M174.404,262.529h 1.25454" fill="none" stroke="black" stroke-width="2"/>
<g fill="black">
<circle cx="171.146" cy="262.529" r="3.90986"/>
</g>
<path d="M175.658,255.929h 1.25454" fill="none" stroke="black" stroke-width="2"/>
<path d="M183.429,255.929h 1.25454" fill="none" stroke="black" stroke-width="2"/>
<g fill="black">
<circle cx="180.171" cy="255.929" r="3.90986"/>
</g>
<path d="M189.197,246.03v -0.591538" fill="none" stroke="black" stroke-width="2"/>
<path d="M189.197,238.922v -0.591538" fill="none" stroke="black" stroke-width="2"/>
<path d="M184.684,242.18h 1.25454" fill="none" stroke="black" stroke-width="2"/>
<path d="M192.455,242.18h 1.25454" fill="none" stroke="black" stroke-width="2"/>
<g fill="black">
<circle cx="189.197" cy="242.18" r="3.90986"/>
</g>
<path d="M198.222,239.361v -1.07221" fill="none" stroke="black" stroke-width="2"/>
<path d="M198.222,231.772v -1.07221" fill="none" stroke="black" stroke-width="2"/>
<path d="M193.709,235.031h 1.25454" fill="none" stroke="black" stroke-width="2"/>
<path d="M201.48,235.031h 1.25454" fill="none" stroke="black" stroke-width="2"/>
<g fill="black">
<circle cx="198.222" cy="235.031" r="3.90986"/>
</g>
<path d="M207.248,223.807v -2.01686" fill="none" stroke="black" stroke-width="2"/>
<path d="M207.248,215.273v -2.01686" fill="none" stroke="black" stroke-width="2"/>
<path d="M202.735,218.532h 1.25454" fill="none" stroke="black" stroke-width="2"/>
<path d="M210.506,218.532h 1.25454" fill="none" stroke="black" stroke-width="2"/>
<g fill="black">
<circle cx="207.248" cy="218.532" r="3.90986"/>
</g>
<path d="M216.273,203.904v -3.01235" fill="none" stroke="black" stroke-width="2"/>
<path d="M216.273,194.375v -3.01235" fill="none" stroke="black" stroke-width="2"/>
<path d="M211.76,197.633h 1.25454" fill="none" stroke="black" stroke-width="2"/>
<path d="M219.531,197.633h 1.25454" fill="none" stroke="black" stroke-width="2"/>
<g fill="black">
<circle cx="216.273" cy="197.633" r="3.90986"/>
</g>
<path d="M225.299,181.747v -3.9545" fill="none" stroke="black" stroke-width="2"/>
<path d="M225.299,171.276v -3.9545" fill="none" stroke="black" stroke-width="2"/>
<path d="M220.786,174.535h 1.25454" fill="none" stroke="black" stroke-width="2"/>
<path d="M228.557,174.535h 1.25454" fill="none" stroke="black" stroke-width="2"/>
<g fill="black">
<circle cx="225.299" cy="174.535" r="3.90986"/>
</g>
<path d="M234.324,150.445v -5.10052" fill="none" stroke="black" stroke-width="2"/>
<path d="M234.324,138.828v -5.10052" fill="none" stroke="black" stroke-width="2"/>
<path d="M229.811,142.087h 1.25454" fill="none" stroke="black" stroke-width="2"/>
<path d="M237.582,142.087h 1.25454" fill="none" stroke="black" stroke-width="2"/>
<g fill="black">
<circle cx="234.324" cy="142.087" r="3.90986"/>
</g>
<path d="M243.35,129.142v -5.79535" fill="none" stroke="black" stroke-width="2"/>
<path d="M243.35,116.83v -5.79535" fill="none" stroke="black" stroke-width="2"/>
<path d="M238.837,120.088h 1.25454" fill="none" stroke="black" stroke-width="2"/>
<path d="M246.608,120.088h 1.25454" fill="none" stroke="black" stroke-width="2"/>
<g fill="black">
<circle cx="243.35" cy="120.088" r="3.90986"/>
</g>
<path d="M252.375,117.937v -6.13958" fill="none" stroke="black" stroke-width="2"/>
<path d="M252.375,105.281v -6.13958" fill="none" stroke="black" stroke-width="2"/>
<path d="M247.863,108.539h 1.25454" fill="none" stroke="black" stroke-width="2"/>
<path d="M255.633,108.539h 1.25454" fill="none" stroke="black" stroke-width="2"/>
<g fill="black">
<circle cx="252.375" cy="108.539" r="3.90986"/>
</g>
<path d="M261.401,95.4912v -6.79276" fill="none" stroke="black" stroke-width="2"/>
<path d="M261.401,82.1821v -6.79276" fill="none" stroke="black" stroke-width="2"/>
<path d="M256.888,85.4403h 1.25454" fill="none" stroke="black" stroke-width="2"/>
<path d="M264.659,85.4403h 1.25454" fill="none" stroke="black" stroke-width="2"/>
<g fill="black">
<circle cx="261.401" cy="85.4403" r="3.90986"/>
</g>
<path d="M270.426,61.7505v -7.69975" fill="none" stroke="black" stroke-width="2"/>
<path d="M270.426,47.5343v -7.69975" fill="none" stroke="black" stroke-width="2"/>
<path d="M265.914,50.7925h 1.25454" fill="none" stroke="black" stroke-width="2"/>
<path d="M273.685,50.7925h 1.25454" fill="none" stroke="black" stroke-width="2"/>
<g fill="black">
<circle cx="270.426" cy="50.7925" r="3.90986"/>
</g>
<path d="M279.452,61.2143v -7.71354" fill="none" stroke="black" stroke-width="2"/>
<path d="M279.452,46.9843v -7.71354" fill="none" stroke="black" stroke-width="2"/>
<path d="M274.939,50.2425h 1.25454" fill="none" stroke="black" stroke-width="2"/>
<path d="M282.71,50.2425h 1.25454" fill="none" stroke="black" stroke-width="2"/>
<g fill="black">
<circle cx="279.452" cy="50.2425" r="3.90986"/>
</g>
<path d="M288.477,61.2143v -7.71354" fill="none" stroke="black" stroke-width="2"/>
<path d="M288.477,46.9843v -7.71354" fill="none" stroke="black" stroke-width="2"/>
<path d="M283.965,50.2425h 1.25454" fill="none" stroke="black" stroke-width="2"/>
<path d="M291.736,50.2425h 1.25454" fill="none" stroke="black" stroke-width="2"/>
<g fill="black">
<circle cx="288.477" cy="50.2425" r="3.90986"/>
</g>
<path d="M297.503,74.0775v -7.37759" fill="none" stroke="black" stroke-width="2"/>
<path d="M297.503,60.1835v -7.37759" fill="none" stroke="black" stroke-width="2"/>
<path d="M292.99,63.4417h 1.25454" fill="none" stroke="black" stroke-width="2"/>
<path d="M300.761,63.4417h 1.25454" fill="none" stroke="black" stroke-width="2"/>
<g fill="black">
<circle cx="297.503" cy="63.4417" r="3.90986"/>
</g>
<path d="M306.528,96.0261v -6.7777" fill="none" stroke="black" stroke-width="2"/>
<path d="M306.528,82.732v -6.7777" fill="none" stroke="black" stroke-width="2"/>
<path d="M302.016,85.9902h 1.25454" fill="none" stroke="black" stroke-width="2"/>
<path d="M309.787,85.9902h 1.25454" fill="none" stroke="black" stroke-width="2"/>
<g fill="black">
<circle cx="306.528" cy="85.9902" r="3.90986"/>
</g>
<path d="M315.554,110.46v -6.36224" fill="none" stroke="black" stroke-width="2"/>
<path d="M315.554,97.5811v -6.36224" fill="none" stroke="black" stroke-width="2"/>
<path d="M311.041,100.839h 1.25454" fill="none" stroke="black" stroke-width="2"/>
<path d="M318.812,100.839h 1.25454" fill="none" stroke="black" stroke-width="2"/>
<g fill="black">
<circle cx="315.554" cy="100.839" r="3.90986"/>
</g>
<path d="M324.579,129.142v -5.79535" fill="none" stroke="black" stroke-width="2"/>
<path d="M324.579,116.83v -5.79535" fill="none" stroke="black" stroke-width="2"/>
<path d="M320.067,120.088h 1.25454" fill="none" stroke="black" stroke-width="2"/>
<path d="M327.838,120.088h 1.25454" fill="none" stroke="black" stroke-width="2"/>
<g fill="black">
<circle cx="324.579" cy="120.088" r="3.90986"/>
</g>
<path d="M333.605,149.382v -5.13663" fill="none" stroke="black" stroke-width="2"/>
<path d="M333.605,137.728v -5.13663" fill="none" stroke="black" stroke-width="2"/>
<path d="M329.092,140.987h 1.25454" fill="none" stroke="black" stroke-width="2"/>
<path d="M336.863,140.987h 1.25454" fill="none" stroke="black" stroke-width="2"/>
<g fill="black">
<circle cx="333.605" cy="140.987" r="3.90986"/>
</g>
<path d="M342.63,187.562v -3.72005" fill="none" stroke="black" stroke-width="2"/>
<path d="M342.63,177.326v -3.72005" fill="none" stroke="black" stroke-width="2"/>
<path d="M338.118,180.584h 1.25454" fill="none" stroke="black" stroke-width="2"/>
<path d="M345.889,180.584h 1.25454" fill="none" stroke="black" stroke-width="2"/>
<g fill="black">
<circle cx="342.63" cy="180.584" r="3.90986"/>
</g>
<path d="M351.656,199.167v -3.22577" fill="none" stroke="black" stroke-width="2"/>
<path d="M351.656,189.425v -3.22577" fill="none" stroke="black" stroke-width="2"/>
<path d="M347.143,192.683h 1.25454" fill="none" stroke="black" stroke-width="2"/>
<path d="M354.914,192.683h 1.25454" fill="none" stroke="black" stroke-width="2"/>
<g fill="black">
<circle cx="351.656" cy="192.683" r="3.90986"/>
</g>
<path d="M360.681,220.676v -2.18616" fill="none" stroke="black" stroke-width="2"/>
<path d="M360.681,211.974v -2.18616" fill="none" stroke="black" stroke-width="2"/>
<path d="M356.169,215.232h 1.25454" fill="none" stroke="black" stroke-width="2"/>
<path d="M363.94,215.232h 1.25454" fill="none" stroke="black" stroke-width="2"/>
<g fill="black">
<circle cx="360.681" cy="215.232" r="3.90986"/>
</g>
<path d="M369.707,238.846v -1.10699" fill="none" stroke="black" stroke-width="2"/>
<path d="M369.707,231.222v -1.10699" fill="none" stroke="black" stroke-width="2"/>
<path d="M365.194,234.481h 1.25454" fill="none" stroke="black" stroke-width="2"/>
<path d="M372.965,234.481h 1.25454" fill="none" stroke="black" stroke-width="2"/>
<g fill="black">
<circle cx="369.707" cy="234.481" r="3.90986"/>
</g>
<path d="M378.732,249.086v -0.348145" fill="none" stroke="black" stroke-width="2"/>
<path d="M378.732,242.222v -0.348145" fill="none" stroke="black" stroke-width="2"/>
<path d="M374.22,245.48h 1.25454" fill="none" stroke="black" stroke-width="2"/>
<path d="M381.991,245.48h 1.25454" fill="none" stroke="black" stroke-width="2"/>
<g fill="black">
<circle cx="378.732" cy="245.48" r="3.90986"/>
</g>
<path d="M383.245,249.88h 1.25454" fill="none" stroke="black" stroke-width="2"/>
<path d="M391.016,249.88h 1.25454" fill="none" stroke="black" stroke-width="2"/>
<g fill="black">
<circle cx="387.758" cy="249.88" r="3.90986"/>
</g>
<path d="M392.271,256.479h 1.25454" fill="none" stroke="black" stroke-width="2"/>
<path d="M400.042,256.479h 1.25454" fill="none" stroke="black" stroke-width="2"/>
<g fill="black">
<circle cx="396.783" cy="256.479" r="3.90986"/>
</g>
<path d="M401.296,262.529h 1.25454" fill="none" stroke="black" stroke-width="2"/>
<path d="M409.067,262.529h 1.25454" fill="none" stroke="black" stroke-width="2"/>
<g fill="black">
<circle cx="405.809" cy="262.529" r="3.90986"/>
</g>
<path d="M410.322,264.179h 1.25454" fill="none" stroke="black" stroke-width="2"/>
<path d="M418.093,264.179h 1.25454" fill="none" stroke="black" stroke-width="2"/>
<g fill="black">
<circle cx="414.834" cy="264.179" r="3.90986"/>
</g>
<path d="M419.347,268.578h 1.25454" fill="none" stroke="black" stroke-width="2"/>
<path d="M427.118,268.578h 1.25454" fill="none" stroke="black" stroke-width="2"/>
<g fill="black">
<circle cx="423.86" cy="268.578" r="3.90986"/>
</g>
<path d="M437.398,267.479h 1.25454" fill="none" stroke="black" stroke-width="2"/>
<path d="M445.169,267.479h 1.25454" fill="none" stroke="black" stroke-width="2"/>
<g fill="black">
<circle cx="441.911" cy="267.479" r="3.90986"/>
</g>
<path d="M446.424,268.578h 1.25454" fill="none" stroke="black" stroke-width="2"/>
<path d="M454.195,268.578h 1.25454" fill="none" stroke="black" stroke-width="2"/>
<g fill="black">
<circle cx="450.937" cy="268.578" r="3.90986"/>
</g>
<path d="M464.475,268.578h 1.25454" fill="none" stroke="black" stroke-width="2"/>
<path d="M472.246,268.578h 1.25454" fill="none" stroke="black" stroke-width="2"/>
<g fill="black">
<circle cx="468.988" cy="268.578" r="3.90986"/>
</g>
<path d="M60.5832,269.128h 27.0765l 4.51276, -0.0265641l 4.51276, -0.0138007l 4.51276, -0.0203634l 4.51276, -0.0297324l 4.51276, -0.0429557l 4.51276, -0.0614063l 4.51276, -0.0868539l 4.51276, -0.121544l 4.51276, -0.168278l 4.51276, -0.230491l
 4.51276, -0.312313l 4.51276, -0.418614l 4.51276, -0.555007l 4.51276, -0.727809l 4.51276, -0.943931l 4.51276, -1.21069l 4.51276, -1.53553l 4.51276, -1.92564l 4.51276, -2.38747l 4.51276, -2.92612l 4.51276, -3.54471l 4.51276, -4.24363l 4.51276,
 -5.01979l 4.51276, -5.86596l 4.51276, -6.77012l 4.51276, -7.71512l 4.51276, -8.67844l 4.51276, -9.63233l 4.51276, -10.5444l 4.51276, -11.3783l 4.51276, -12.0954l 4.51276, -12.656l 4.51276, -13.0216l 4.51276, -13.157l 4.51276, -13.0327l 4.51276,
 -12.6264l 4.51276, -11.9259l 4.51276, -10.9296l 4.51276, -9.6484l 4.51276, -8.10501l 4.51276, -6.33413l 4.51276, -4.38105l 4.51276, -2.29975" fill="none" stroke="black" stroke-width="3"/>
<path d="M281.708,51.7777l 4.51276, -0.150422l 4.51276, 2.00337l 4.51276, 4.09785l 4.51276, 6.07217l 4.51276, 7.87133l 4.51276, 9.44871l 4.51276, 10.7681l 4.51276, 11.8049l 4.51276, 12.5467l 4.51276, 12.9934l 4.51276, 13.1559l 4.51276, 13.055l
 4.51276, 12.7193l 4.51276, 12.1836l 4.51276, 11.486l 4.51276, 10.6659l 4.51276, 9.76251l 4.51276, 8.8124l 4.51276, 7.84863l 4.51276, 6.89961l 4.51276, 5.98861l 4.51276, 5.13354l 4.51276, 4.34711l 4.51276, 3.63717l 4.51276, 3.00736l 4.51276, 2.45771l
 4.51276, 1.98547l 4.51276, 1.58574l 4.51276, 1.25224l 4.51276, 0.977842l 4.51276, 0.75512l 4.51276, 0.576716l 4.51276, 0.435651l 4.51276, 0.325517l 4.51276, 0.240598l 4.51276, 0.175921l 4.51276, 0.127254l 4.51276, 0.0910692l 4.51276, 0.064482l
 4.51276, 0.045174l 4.51276, 0.0313138l 4.51276, 0.021478l 4.51276, 0.0145774l 4.51276, 0.028173h 22.5638" fill="none" stroke="black" stroke-width="3"/>
<path d="M502.833,269.128h 4.51276" fill="none" stroke="black" stroke-width="3"/>
<rect x="1.91732" y="269.128" width="564.094" height="114.38" fill="white"/>
<rect x="58.3268" y="269.128" width="451.276" height="80.0657" fill="white"/>
<rect x="58.3268" y="269.128" width="451.276" height="80.0657" fill="none" stroke="black"/>
<path d="M62.8395,308.674l 9.02551, -0.236388l 9.02551, -0.326153l 9.02551, -0.437438l 9.02551, -0.569653l 9.02551, -0.71925l 9.02551, -0.878909l 9.02551, -1.03705l 9.02551, -1.17795l 9.02551, -1.28274l 9.02551, -1.33141l 9.02551, -1.30595l 9.02551,
 -1.19432l 9.02551, -0.994891l 9.02551, -0.72057l 9.02551, -0.401828l 9.02551, -0.0871873l 9.02551, 0.160902l 9.02551, 0.278731l 9.02551, 0.227302l 9.02551, 0.0275844l 9.02551, -0.224605l 9.02551, -0.400832l 9.02551, -0.415595l 9.02551, -0.265221l
 9.02551, -0.0132573l 9.02551, 0.243563l 9.02551, 0.40728l 9.02551, 0.410244l 9.02551, 0.248975l 9.02551, 0.00166609l 9.02551, -0.205167l 9.02551, -0.270855l 9.02551, -0.167688l 9.02551, 0.0696266l 9.02551, 0.378734l 9.02551, 0.696754l 9.02551,
 0.973966l 9.02551, 1.1785l 9.02551, 1.29615l 9.02551, 1.32751l 9.02551, 1.28391l 9.02551, 1.18297l 9.02551, 1.04457l 9.02551, 0.887686l 9.02551, 0.728255l 9.02551, 0.578141l 9.02551, 0.444944l 9.02551, 0.332453l 9.02551, 0.241446v 1.00108l -9.02551,
 0.241446l -9.02551, 0.332453l -9.02551, 0.444944l -9.02551, 0.578141l -9.02551, 0.728255l -9.02551, 0.887686l -9.02551, 1.04457l -9.02551, 1.18297l -9.02551, 1.28391l -9.02551, 1.32751l -9.02551, 1.29615l -9.02551, 1.1785l -9.02551, 0.973966l
 -9.02551, 0.696754l -9.02551, 0.378734l -9.02551, 0.0696266l -9.02551, -0.167688l -9.02551, -0.270855l -9.02551, -0.205167l -9.02551, 0.00166609l -9.02551, 0.248975l -9.02551, 0.410244l -9.02551, 0.40728l -9.02551, 0.243563l -9.02551, -0.0132573l
 -9.02551, -0.265221l -9.02551, -0.415595l -9.02551, -0.400832l -9.02551, -0.224605l -9.02551, 0.0275844l -9.02551, 0.227302l -9.02551, 0.278731l -9.02551, 0.160902l -9.02551, -0.0871873l -9.02551, -0.401828l -9.02551, -0.72057l -9.02551, -0.994891l
 -9.02551, -1.19432l -9.02551, -1.30595l -9.02551, -1.33141l -9.02551, -1.28274l -9.02551, -1.17795l -9.02551, -1.03705l -9.02551, -0.878909l -9.02551, -0.71925l -9.02551, -0.569653l -9.02551, -0.437438l -9.02551, -0.326153l -9.02551, -0.236388z"
 fill="#00ff00"/>
<path d="M62.8395,308.918l 9.02551, -0.118197l 9.02551, -0.16308l 9.02551, -0.218724l 9.02551, -0.284832l 9.02551, -0.359632l 9.02551, -0.439463l 9.02551, -0.518535l 9.02551, -0.588987l 9.02551, -0.641381l 9.02551, -0.665716l 9.02551, -0.652988l
 9.02551, -0.597175l 9.02551, -0.497456l 9.02551, -0.360292l 9.02551, -0.200918l 9.02551, -0.0435946l 9.02551, 0.0804528l 9.02551, 0.139369l 9.02551, 0.113653l 9.02551, 0.0137925l 9.02551, -0.112305l 9.02551, -0.20042l 9.02551, -0.207802l 9.02551,
 -0.132613l 9.02551, -0.00662878l 9.02551, 0.121784l 9.02551, 0.203644l 9.02551, 0.205126l 9.02551, 0.12449l 9.02551, 0.000833064l 9.02551, -0.102585l 9.02551, -0.13543l 9.02551, -0.0838459l 9.02551, 0.034814l 9.02551, 0.189371l 9.02551, 0.348384l
 9.02551, 0.486993l 9.02551, 0.589264l 9.02551, 0.648089l 9.02551, 0.66377l 9.02551, 0.64197l 9.02551, 0.591498l 9.02551, 0.522297l 9.02551, 0.443852l 9.02551, 0.364135l 9.02551, 0.289076l 9.02551, 0.222476l 9.02551, 0.16623l 9.02551, 0.120726v
 0.500551l -9.02551, 0.120726l -9.02551, 0.16623l -9.02551, 0.222476l -9.02551, 0.289076l -9.02551, 0.364135l -9.02551, 0.443852l -9.02551, 0.522297l -9.02551, 0.591498l -9.02551, 0.64197l -9.02551, 0.66377l -9.02551, 0.648089l -9.02551, 0.589264l
 -9.02551, 0.486993l -9.02551, 0.348384l -9.02551, 0.189371l -9.02551, 0.034814l -9.02551, -0.0838459l -9.02551, -0.13543l -9.02551, -0.102585l -9.02551, 0.000833064l -9.02551, 0.12449l -9.02551, 0.205126l -9.02551, 0.203644l -9.02551, 0.121784l
 -9.02551, -0.00662878l -9.02551, -0.132613l -9.02551, -0.207802l -9.02551, -0.20042l -9.02551, -0.112305l -9.02551, 0.0137925l -9.02551, 0.113653l -9.02551, 0.139369l -9.02551, 0.0804528l -9.02551, -0.0435946l -9.02551, -0.200918l -9.02551,
 -0.360292l -9.02551, -0.497456l -9.02551, -0.597175l -9.02551, -0.652988l -9.02551, -0.665716l -9.02551, -0.641381l -9.02551, -0.588987l -9.02551, -0.518535l -9.02551, -0.439463l -9.02551, -0.359632l -9.02551, -0.284832l -9.02551, -0.218724l
 -9.02551, -0.16308l -9.02551, -0.118197z" fill="#ffff00"/>
<path d="M59.5813,310.162h -1.25454" fill="none" stroke="black"/>
<path d="M66.0977,310.162h 1.25454" fill="none" stroke="black"/>
<path d="M58.3268,310.162z" fill="none" stroke="black"/>
<path d="M67.3523,310.162z" fill="none" stroke="black"/>
<path d="M62.8395,306.903v -6.75" fill="none" stroke="black"/>
<path d="M62.8395,313.42v 6.75" fill="none" stroke="black"/>
<path d="M62.8395,300.153z" fill="none" stroke="black"/>
<path d="M62.8395,320.17z" fill="none" stroke="black"/>
<path d="M68.6068,310.775h -1.25454" fill="none" stroke="black"/>
<path d="M75.1233,310.775h 1.25454" fill="none" stroke="black"/>
<path d="M67.3523,310.775z" fill="none" stroke="black"/>
<path d="M76.3778,310.775z" fill="none" stroke="black"/>
<path d="M71.865,307.517v -6.75" fill="none" stroke="black"/>
<path d="M71.865,314.033v 6.75" fill="none" stroke="black"/>
<path d="M71.865,300.767z" fill="none" stroke="black"/>
<path d="M71.865,320.783z" fill="none" stroke="black"/>
<path d="M77.6323,311.713h -1.25454" fill="none" stroke="black"/>
<path d="M84.1488,311.713h 1.25454" fill="none" stroke="black"/>
<path d="M76.3778,311.713z" fill="none" stroke="black"/>
<path d="M85.4033,311.713z" fill="none" stroke="black"/>
<path d="M80.8906,308.454v -6.75" fill="none" stroke="black"/>
<path d="M80.8906,314.971v 6.75" fill="none" stroke="black"/>
<path d="M80.8906,301.704z" fill="none" stroke="black"/>
<path d="M80.8906,321.721z" fill="none" stroke="black"/>
<path d="M95.6834,315.171h -1.25454" fill="none" stroke="black"/>
<path d="M102.2,315.171h 1.25454" fill="none" stroke="black"/>
<path d="M94.4288,315.171z" fill="none" stroke="black"/>
<path d="M103.454,315.171z" fill="none" stroke="black"/>
<path d="M98.9416,311.913v -6.75" fill="none" stroke="black"/>
<path d="M98.9416,318.429v 6.75" fill="none" stroke="black"/>
<path d="M98.9416,305.163z" fill="none" stroke="black"/>
<path d="M98.9416,325.179z" fill="none" stroke="black"/>
<path d="M104.709,318.113h -1.25454" fill="none" stroke="black"/>
<path d="M111.225,318.113h 1.25454" fill="none" stroke="black"/>
<path d="M103.454,318.113z" fill="none" stroke="black"/>
<path d="M112.48,318.113z" fill="none" stroke="black"/>
<path d="M107.967,314.855v -6.75" fill="none" stroke="black"/>
<path d="M107.967,321.371v 6.75" fill="none" stroke="black"/>
<path d="M107.967,308.105z" fill="none" stroke="black"/>
<path d="M107.967,328.121z" fill="none" stroke="black"/>
<path d="M113.734,322.233h -1.25454" fill="none" stroke="black"/>
<path d="M120.251,322.233h 1.25454" fill="none" stroke="black"/>
<path d="M112.48,322.233z" fill="none" stroke="black"/>
<path d="M121.505,322.233z" fill="none" stroke="black"/>
<path d="M116.993,318.975v -6.75" fill="none" stroke="black"/>
<path d="M116.993,325.491v 6.75" fill="none" stroke="black"/>
<path d="M116.993,312.225z" fill="none" stroke="black"/>
<path d="M116.993,332.241z" fill="none" stroke="black"/>
<path d="M122.76,306.462h -1.25454" fill="none" stroke="black"/>
<path d="M129.276,306.462h 1.25454" fill="none" stroke="black"/>
<path d="M121.505,306.462z" fill="none" stroke="black"/>
<path d="M130.531,306.462z" fill="none" stroke="black"/>
<path d="M126.018,303.204v -6.75" fill="none" stroke="black"/>
<path d="M126.018,309.72v 6.75" fill="none" stroke="black"/>
<path d="M126.018,296.454z" fill="none" stroke="black"/>
<path d="M126.018,316.47z" fill="none" stroke="black"/>
<path d="M131.785,335.421h -1.25454" fill="none" stroke="black"/>
<path d="M138.302,335.421h 1.25454" fill="none" stroke="black"/>
<path d="M130.531,335.421z" fill="none" stroke="black"/>
<path d="M139.556,335.421z" fill="none" stroke="black"/>
<path d="M135.044,332.162v -6.75" fill="none" stroke="black"/>
<path d="M135.044,338.679v 6.75" fill="none" stroke="black"/>
<path d="M135.044,325.412z" fill="none" stroke="black"/>
<path d="M135.044,345.429z" fill="none" stroke="black"/>
<path d="M140.811,278.739h -1.25454" fill="none" stroke="black"/>
<path d="M147.327,278.739h 1.25454" fill="none" stroke="black"/>
<path d="M139.556,278.739z" fill="none" stroke="black"/>
<path d="M148.582,278.739z" fill="none" stroke="black"/>
<path d="M144.069,275.48v -6.35201" fill="none" stroke="black"/>
<path d="M144.069,281.997v 6.75" fill="none" stroke="black"/>
<path d="M144.069,269.128z" fill="none" stroke="black"/>
<path d="M144.069,288.747z" fill="none" stroke="black"/>
<path d="M149.836,316.756h -1.25454" fill="none" stroke="black"/>
<path d="M156.353,316.756h 1.25454" fill="none" stroke="black"/>
<path d="M148.582,316.756z" fill="none" stroke="black"/>
<path d="M157.607,316.756z" fill="none" stroke="black"/>
<path d="M153.095,313.498v -6.75" fill="none" stroke="black"/>
<path d="M153.095,320.014v 6.75" fill="none" stroke="black"/>
<path d="M153.095,306.748z" fill="none" stroke="black"/>
<path d="M153.095,326.764z" fill="none" stroke="black"/>
<path d="M167.887,335.025h -1.25454" fill="none" stroke="black"/>
<path d="M174.404,335.025h 1.25454" fill="none" stroke="black"/>
<path d="M166.633,335.025z" fill="none" stroke="black"/>
<path d="M175.658,335.025z" fill="none" stroke="black"/>
<path d="M171.146,331.767v -6.75" fill="none" stroke="black"/>
<path d="M171.146,338.283v 6.75" fill="none" stroke="black"/>
<path d="M171.146,325.017z" fill="none" stroke="black"/>
<path d="M171.146,345.033z" fill="none" stroke="black"/>
<path d="M176.913,324.523h -1.25454" fill="none" stroke="black"/>
<path d="M183.429,324.523h 1.25454" fill="none" stroke="black"/>
<path d="M175.658,324.523z" fill="none" stroke="black"/>
<path d="M184.684,324.523z" fill="none" stroke="black"/>
<path d="M180.171,321.264v -6.75" fill="none" stroke="black"/>
<path d="M180.171,327.781v 6.75" fill="none" stroke="black"/>
<path d="M180.171,314.514z" fill="none" stroke="black"/>
<path d="M180.171,334.531z" fill="none" stroke="black"/>
<path d="M185.938,292.577h -1.25454" fill="none" stroke="black"/>
<path d="M192.455,292.577h 1.25454" fill="none" stroke="black"/>
<path d="M184.684,292.577z" fill="none" stroke="black"/>
<path d="M193.709,292.577z" fill="none" stroke="black"/>
<path d="M189.197,289.318v -6.75" fill="none" stroke="black"/>
<path d="M189.197,295.835v 6.75" fill="none" stroke="black"/>
<path d="M189.197,282.568z" fill="none" stroke="black"/>
<path d="M189.197,302.585z" fill="none" stroke="black"/>
<path d="M194.964,316.347h -1.25454" fill="none" stroke="black"/>
<path d="M201.48,316.347h 1.25454" fill="none" stroke="black"/>
<path d="M193.709,316.347z" fill="none" stroke="black"/>
<path d="M202.735,316.347z" fill="none" stroke="black"/>
<path d="M198.222,313.089v -6.75" fill="none" stroke="black"/>
<path d="M198.222,319.605v 6.75" fill="none" stroke="black"/>
<path d="M198.222,306.339z" fill="none" stroke="black"/>
<path d="M198.222,326.355z" fill="none" stroke="black"/>
<path d="M203.99,311.148h -1.25454" fill="none" stroke="black"/>
<path d="M210.506,311.148h 1.25454" fill="none" stroke="black"/>
<path d="M202.735,311.148z" fill="none" stroke="black"/>
<path d="M211.76,311.148z" fill="none" stroke="black"/>
<path d="M207.248,307.89v -6.75" fill="none" stroke="black"/>
<path d="M207.248,314.407v 6.75" fill="none" stroke="black"/>
<path d="M207.248,301.14z" fill="none" stroke="black"/>
<path d="M207.248,321.157z" fill="none" stroke="black"/>
<path d="M213.015,305.564h -1.25454" fill="none" stroke="black"/>
<path d="M219.531,305.564h 1.25454" fill="none" stroke="black"/>
<path d="M211.76,305.564z" fill="none" stroke="black"/>
<path d="M220.786,305.564z" fill="none" stroke="black"/>
<path d="M216.273,302.306v -6.75" fill="none" stroke="black"/>
<path d="M216.273,308.822v 6.75" fill="none" stroke="black"/>
<path d="M216.273,295.556z" fill="none" stroke="black"/>
<path d="M216.273,315.572z" fill="none" stroke="black"/>
<path d="M222.041,304.996h -1.25454" fill="none" stroke="black"/>
<path d="M228.557,304.996h 1.25454" fill="none" stroke="black"/>
<path d="M220.786,304.996z" fill="none" stroke="black"/>
<path d="M229.811,304.996z" fill="none" stroke="black"/>
<path d="M225.299,301.738v -6.75" fill="none" stroke="black"/>
<path d="M225.299,308.254v 6.75" fill="none" stroke="black"/>
<path d="M225.299,294.988z" fill="none" stroke="black"/>
<path d="M225.299,315.004z" fill="none" stroke="black"/>
<path d="M231.066,287.643h -1.25454" fill="none" stroke="black"/>
<path d="M237.582,287.643h 1.25454" fill="none" stroke="black"/>
<path d="M229.811,287.643z" fill="none" stroke="black"/>
<path d="M238.837,287.643z" fill="none" stroke="black"/>
<path d="M234.324,284.384v -6.75" fill="none" stroke="black"/>
<path d="M234.324,290.901v 6.75" fill="none" stroke="black"/>
<path d="M234.324,277.634z" fill="none" stroke="black"/>
<path d="M234.324,297.651z" fill="none" stroke="black"/>
<path d="M240.092,299.233h -1.25454" fill="none" stroke="black"/>
<path d="M246.608,299.233h 1.25454" fill="none" stroke="black"/>
<path d="M238.837,299.233z" fill="none" stroke="black"/>
<path d="M247.863,299.233z" fill="none" stroke="black"/>
<path d="M243.35,295.975v -6.75" fill="none" stroke="black"/>
<path d="M243.35,302.491v 6.75" fill="none" stroke="black"/>
<path d="M243.35,289.225z" fill="none" stroke="black"/>
<path d="M243.35,309.241z" fill="none" stroke="black"/>
<path d="M249.117,328.231h -1.25454" fill="none" stroke="black"/>
<path d="M255.633,328.231h 1.25454" fill="none" stroke="black"/>
<path d="M247.863,328.231z" fill="none" stroke="black"/>
<path d="M256.888,328.231z" fill="none" stroke="black"/>
<path d="M252.375,324.973v -6.75" fill="none" stroke="black"/>
<path d="M252.375,331.489v 6.75" fill="none" stroke="black"/>
<path d="M252.375,318.223z" fill="none" stroke="black"/>
<path d="M252.375,338.239z" fill="none" stroke="black"/>
<path d="M258.143,324.558h -1.25454" fill="none" stroke="black"/>
<path d="M264.659,324.558h 1.25454" fill="none" stroke="black"/>
<path d="M256.888,324.558z" fill="none" stroke="black"/>
<path d="M265.914,324.558z" fill="none" stroke="black"/>
<path d="M261.401,321.3v -6.75" fill="none" stroke="black"/>
<path d="M261.401,327.816v 6.75" fill="none" stroke="black"/>
<path d="M261.401,314.55z" fill="none" stroke="black"/>
<path d="M261.401,334.566z" fill="none" stroke="black"/>
<path d="M267.168,289.313h -1.25454" fill="none" stroke="black"/>
<path d="M273.685,289.313h 1.25454" fill="none" stroke="black"/>
<path d="M265.914,289.313z" fill="none" stroke="black"/>
<path d="M274.939,289.313z" fill="none" stroke="black"/>
<path d="M270.426,286.054v -6.75" fill="none" stroke="black"/>
<path d="M270.426,292.571v 6.75" fill="none" stroke="black"/>
<path d="M270.426,279.304z" fill="none" stroke="black"/>
<path d="M270.426,299.321z" fill="none" stroke="black"/>
<path d="M276.194,304.723h -1.25454" fill="none" stroke="black"/>
<path d="M282.71,304.723h 1.25454" fill="none" stroke="black"/>
<path d="M274.939,304.723z" fill="none" stroke="black"/>
<path d="M283.965,304.723z" fill="none" stroke="black"/>
<path d="M279.452,301.465v -6.75" fill="none" stroke="black"/>
<path d="M279.452,307.982v 6.75" fill="none" stroke="black"/>
<path d="M279.452,294.715z" fill="none" stroke="black"/>
<path d="M279.452,314.732z" fill="none" stroke="black"/>
<path d="M285.219,305.276h -1.25454" fill="none" stroke="black"/>
<path d="M291.736,305.276h 1.25454" fill="none" stroke="black"/>
<path d="M283.965,305.276z" fill="none" stroke="black"/>
<path d="M292.99,305.276z" fill="none" stroke="black"/>
<path d="M288.477,302.018v -6.75" fill="none" stroke="black"/>
<path d="M288.477,308.534v 6.75" fill="none" stroke="black"/>
<path d="M288.477,295.268z" fill="none" stroke="black"/>
<path d="M288.477,315.284z" fill="none" stroke="black"/>
<path d="M294.245,314.607h -1.25454" fill="none" stroke="black"/>
<path d="M300.761,314.607h 1.25454" fill="none" stroke="black"/>
<path d="M292.99,314.607z" fill="none" stroke="black"/>
<path d="M302.016,314.607z" fill="none" stroke="black"/>
<path d="M297.503,311.349v -6.75" fill="none" stroke="black"/>
<path d="M297.503,317.865v 6.75" fill="none" stroke="black"/>
<path d="M297.503,304.599z" fill="none" stroke="black"/>
<path d="M297.503,324.615z" fill="none" stroke="black"/>
<path d="M303.27,328.158h -1.25454" fill="none" stroke="black"/>
<path d="M309.787,328.158h 1.25454" fill="none" stroke="black"/>
<path d="M302.016,328.158z" fill="none" stroke="black"/>
<path d="M311.041,328.158z" fill="none" stroke="black"/>
<path d="M306.528,324.9v -6.75" fill="none" stroke="black"/>
<path d="M306.528,331.416v 6.75" fill="none" stroke="black"/>
<path d="M306.528,318.15z" fill="none" stroke="black"/>
<path d="M306.528,338.166z" fill="none" stroke="black"/>
<path d="M312.296,315.674h -1.25454" fill="none" stroke="black"/>
<path d="M318.812,315.674h 1.25454" fill="none" stroke="black"/>
<path d="M311.041,315.674z" fill="none" stroke="black"/>
<path d="M320.067,315.674z" fill="none" stroke="black"/>
<path d="M315.554,312.416v -6.75" fill="none" stroke="black"/>
<path d="M315.554,318.932v 6.75" fill="none" stroke="black"/>
<path d="M315.554,305.666z" fill="none" stroke="black"/>
<path d="M315.554,325.682z" fill="none" stroke="black"/>
<path d="M321.321,303.337h -1.25454" fill="none" stroke="black"/>
<path d="M327.838,303.337h 1.25454" fill="none" stroke="black"/>
<path d="M320.067,303.337z" fill="none" stroke="black"/>
<path d="M329.092,303.337z" fill="none" stroke="black"/>
<path d="M324.579,300.078v -6.75" fill="none" stroke="black"/>
<path d="M324.579,306.595v 6.75" fill="none" stroke="black"/>
<path d="M324.579,293.328z" fill="none" stroke="black"/>
<path d="M324.579,313.345z" fill="none" stroke="black"/>
<path d="M330.347,289.567h -1.25454" fill="none" stroke="black"/>
<path d="M336.863,289.567h 1.25454" fill="none" stroke="black"/>
<path d="M329.092,289.567z" fill="none" stroke="black"/>
<path d="M338.118,289.567z" fill="none" stroke="black"/>
<path d="M333.605,286.309v -6.75" fill="none" stroke="black"/>
<path d="M333.605,292.825v 6.75" fill="none" stroke="black"/>
<path d="M333.605,279.559z" fill="none" stroke="black"/>
<path d="M333.605,299.575z" fill="none" stroke="black"/>
<path d="M339.372,326.489h -1.25454" fill="none" stroke="black"/>
<path d="M345.889,326.489h 1.25454" fill="none" stroke="black"/>
<path d="M338.118,326.489z" fill="none" stroke="black"/>
<path d="M347.143,326.489z" fill="none" stroke="black"/>
<path d="M342.63,323.23v -6.75" fill="none" stroke="black"/>
<path d="M342.63,329.747v 6.75" fill="none" stroke="black"/>
<path d="M342.63,316.48z" fill="none" stroke="black"/>
<path d="M342.63,336.497z" fill="none" stroke="black"/>
<path d="M348.398,294.54h -1.25454" fill="none" stroke="black"/>
<path d="M354.914,294.54h 1.25454" fill="none" stroke="black"/>
<path d="M347.143,294.54z" fill="none" stroke="black"/>
<path d="M356.169,294.54z" fill="none" stroke="black"/>
<path d="M351.656,291.282v -6.75" fill="none" stroke="black"/>
<path d="M351.656,297.799v 6.75" fill="none" stroke="black"/>
<path d="M351.656,284.532z" fill="none" stroke="black"/>
<path d="M351.656,304.549z" fill="none" stroke="black"/>
<path d="M357.423,303.354h -1.25454" fill="none" stroke="black"/>
<path d="M363.94,303.354h 1.25454" fill="none" stroke="black"/>
<path d="M356.169,303.354z" fill="none" stroke="black"/>
<path d="M365.194,303.354z" fill="none" stroke="black"/>
<path d="M360.681,300.096v -6.75" fill="none" stroke="black"/>
<path d="M360.681,306.612v 6.75" fill="none" stroke="black"/>
<path d="M360.681,293.346z" fill="none" stroke="black"/>
<path d="M360.681,313.362z" fill="none" stroke="black"/>
<path d="M366.449,318.04h -1.25454" fill="none" stroke="black"/>
<path d="M372.965,318.04h 1.25454" fill="none" stroke="black"/>
<path d="M365.194,318.04z" fill="none" stroke="black"/>
<path d="M374.22,318.04z" fill="none" stroke="black"/>
<path d="M369.707,314.782v -6.75" fill="none" stroke="black"/>
<path d="M369.707,321.298v 6.75" fill="none" stroke="black"/>
<path d="M369.707,308.032z" fill="none" stroke="black"/>
<path d="M369.707,328.048z" fill="none" stroke="black"/>
<path d="M375.474,314.593h -1.25454" fill="none" stroke="black"/>
<path d="M381.991,314.593h 1.25454" fill="none" stroke="black"/>
<path d="M374.22,314.593z" fill="none" stroke="black"/>
<path d="M383.245,314.593z" fill="none" stroke="black"/>
<path d="M378.732,311.335v -6.75" fill="none" stroke="black"/>
<path d="M378.732,317.851v 6.75" fill="none" stroke="black"/>
<path d="M378.732,304.585z" fill="none" stroke="black"/>
<path d="M378.732,324.601z" fill="none" stroke="black"/>
<path d="M384.5,286.749h -1.25454" fill="none" stroke="black"/>
<path d="M391.016,286.749h 1.25454" fill="none" stroke="black"/>
<path d="M383.245,286.749z" fill="none" stroke="black"/>
<path d="M392.271,286.749z" fill="none" stroke="black"/>
<path d="M387.758,283.491v -6.75" fill="none" stroke="black"/>
<path d="M387.758,290.008v 6.75" fill="none" stroke="black"/>
<path d="M387.758,276.741z" fill="none" stroke="black"/>
<path d="M387.758,296.758z" fill="none" stroke="black"/>
<path d="M393.525,285.572h -1.25454" fill="none" stroke="black"/>
<path d="M400.042,285.572h 1.25454" fill="none" stroke="black"/>
<path d="M392.271,285.572z" fill="none" stroke="black"/>
<path d="M401.296,285.572z" fill="none" stroke="black"/>
<path d="M396.783,282.314v -6.75" fill="none" stroke="black"/>
<path d="M396.783,288.83v 6.75" fill="none" stroke="black"/>
<path d="M396.783,275.564z" fill="none" stroke="black"/>
<path d="M396.783,295.58z" fill="none" stroke="black"/>
<path d="M402.551,301.509h -1.25454" fill="none" stroke="black"/>
<path d="M409.067,301.509h 1.25454" fill="none" stroke="black"/>
<path d="M401.296,301.509z" fill="none" stroke="black"/>
<path d="M410.322,301.509z" fill="none" stroke="black"/>
<path d="M405.809,298.251v -6.75" fill="none" stroke="black"/>
<path d="M405.809,304.767v 6.75" fill="none" stroke="black"/>
<path d="M405.809,291.501z" fill="none" stroke="black"/>
<path d="M405.809,311.517z" fill="none" stroke="black"/>
<path d="M411.576,286.316h -1.25454" fill="none" stroke="black"/>
<path d="M418.093,286.316h 1.25454" fill="none" stroke="black"/>
<path d="M410.322,286.316z" fill="none" stroke="black"/>
<path d="M419.347,286.316z" fill="none" stroke="black"/>
<path d="M414.834,283.058v -6.75" fill="none" stroke="black"/>
<path d="M414.834,289.575v 6.75" fill="none" stroke="black"/>
<path d="M414.834,276.308z" fill="none" stroke="black"/>
<path d="M414.834,296.325z" fill="none" stroke="black"/>
<path d="M420.602,335.213h -1.25454" fill="none" stroke="black"/>
<path d="M427.118,335.213h 1.25454" fill="none" stroke="black"/>
<path d="M419.347,335.213z" fill="none" stroke="black"/>
<path d="M428.373,335.213z" fill="none" stroke="black"/>
<path d="M423.86,331.954v -6.75" fill="none" stroke="black"/>
<path d="M423.86,338.471v 6.75" fill="none" stroke="black"/>
<path d="M423.86,325.204z" fill="none" stroke="black"/>
<path d="M423.86,345.221z" fill="none" stroke="black"/>
<path d="M429.627,336.027h -1.25454" fill="none" stroke="black"/>
<path d="M436.144,336.027h 1.25454" fill="none" stroke="black"/>
<path d="M428.373,336.027z" fill="none" stroke="black"/>
<path d="M437.398,336.027z" fill="none" stroke="black"/>
<path d="M432.885,332.769v -6.75" fill="none" stroke="black"/>
<path d="M432.885,339.285v 6.75" fill="none" stroke="black"/>
<path d="M432.885,326.019z" fill="none" stroke="black"/>
<path d="M432.885,346.035z" fill="none" stroke="black"/>
<path d="M447.678,292.696h -1.25454" fill="none" stroke="black"/>
<path d="M454.195,292.696h 1.25454" fill="none" stroke="black"/>
<path d="M446.424,292.696z" fill="none" stroke="black"/>
<path d="M455.449,292.696z" fill="none" stroke="black"/>
<path d="M450.937,289.438v -6.75" fill="none" stroke="black"/>
<path d="M450.937,295.954v 6.75" fill="none" stroke="black"/>
<path d="M450.937,282.688z" fill="none" stroke="black"/>
<path d="M450.937,302.704z" fill="none" stroke="black"/>
<path d="M456.704,318.358h -1.25454" fill="none" stroke="black"/>
<path d="M463.22,318.358h 1.25454" fill="none" stroke="black"/>
<path d="M455.449,318.358z" fill="none" stroke="black"/>
<path d="M464.475,318.358z" fill="none" stroke="black"/>
<path d="M459.962,315.1v -6.75" fill="none" stroke="black"/>
<path d="M459.962,321.616v 6.75" fill="none" stroke="black"/>
<path d="M459.962,308.35z" fill="none" stroke="black"/>
<path d="M459.962,328.366z" fill="none" stroke="black"/>
<path d="M474.755,313.236h -1.25454" fill="none" stroke="black"/>
<path d="M481.271,313.236h 1.25454" fill="none" stroke="black"/>
<path d="M473.5,313.236z" fill="none" stroke="black"/>
<path d="M482.526,313.236z" fill="none" stroke="black"/>
<path d="M478.013,309.977v -6.75" fill="none" stroke="black"/>
<path d="M478.013,316.494v 6.75" fill="none" stroke="black"/>
<path d="M478.013,303.227z" fill="none" stroke="black"/>
<path d="M478.013,323.244z" fill="none" stroke="black"/>
<path d="M483.78,311.793h -1.25454" fill="none" stroke="black"/>
<path d="M490.297,311.793h 1.25454" fill="none" stroke="black"/>
<path d="M482.526,311.793z" fill="none" stroke="black"/>
<path d="M491.551,311.793z" fill="none" stroke="black"/>
<path d="M487.039,308.535v -6.75" fill="none" stroke="black"/>
<path d="M487.039,315.052v 6.75" fill="none" stroke="black"/>
<path d="M487.039,301.785z" fill="none" stroke="black"/>
<path d="M487.039,321.802z" fill="none" stroke="black"/>
<path d="M492.806,310.828h -1.25454" fill="none" stroke="black"/>
<path d="M499.322,310.828h 1.25454" fill="none" stroke="black"/>
<path d="M491.551,310.828z" fill="none" stroke="black"/>
<path d="M500.577,310.828z" fill="none" stroke="black"/>
<path d="M496.064,307.57v -6.75" fill="none" stroke="black"/>
<path d="M496.064,314.086v 6.75" fill="none" stroke="black"/>
<path d="M496.064,300.82z" fill="none" stroke="black"/>
<path d="M496.064,320.836z" fill="none" stroke="black"/>
<path d="M501.831,310.196h -1.25454" fill="none" stroke="black"/>
<path d="M508.348,310.196h 1.25454" fill="none" stroke="black"/>
<path d="M500.577,310.196z" fill="none" stroke="black"/>
<path d="M509.602,310.196z" fill="none" stroke="black"/>
<path d="M505.09,306.938v -6.75" fill="none" stroke="black"/>
<path d="M505.09,313.454v 6.75" fill="none" stroke="black"/>
<path d="M505.09,300.188z" fill="none" stroke="black"/>
<path d="M505.09,320.204z" fill="none" stroke="black"/>
<path d="M62.8395,310.162l 9.02551, 0.613207l 9.02551, 0.937818l 1.91015, -42.5843" fill="none" stroke="black"/>
<path d="M96.9112,269.128l 2.03037, 46.0423" fill="none" stroke="black"/>
<path d="M98.9416,315.171l 9.02551, 2.94223l 9.02551, 4.12012l 9.02551, -15.7708l 9.02551, 28.9583l 9.02551, -56.6819l 9.02551, 38.0174l 7.79178, -47.6276" fill="none" stroke="black"/>
<path d="M163.047,269.128l 8.09869, 65.8968" fill="none" stroke="black"/>
<path d="M171.146,335.025l 9.02551, -10.5027l 9.02551, -31.9459l 9.02551, 23.7704l 9.02551, -5.1986l 9.02551, -5.58416l 9.02551, -0.568433l 9.02551, -17.3533l 9.02551, 11.5905l 9.02551, 28.9979l 9.02551, -3.67289l 9.02551, -35.2455l 9.02551, 15.4107l
 9.02551, 0.552539l 9.02551, 9.3314l 9.02551, 13.551l 9.02551, -12.4843l 9.02551, -12.3372l 9.02551, -13.7696l 9.02551, 36.9215l 9.02551, -31.9483l 9.02551, 8.81349l 9.02551, 14.6861l 9.02551, -3.4467l 9.02551, -27.8439l 9.02551, -1.17722l 9.02551,
 15.9368l 9.02551, -15.1926l 9.02551, 48.8963l 9.02551, 0.814197l 8.57757, -66.8985" fill="none" stroke="black"/>
<path d="M443.076,269.128l 7.86033, 23.5678" fill="none" stroke="black"/>
<path d="M450.937,292.696l 9.02551, 25.6616l 6.55142, -49.2294" fill="none" stroke="black"/>
<path d="M471.664,269.128l 6.3493, 44.1071" fill="none" stroke="black"/>
<path d="M478.013,313.236l 9.02551, -1.44215l 9.02551, -0.965169l 9.02551, -0.632043" fill="none" stroke="black"/>
<path d="M58.3268,289.145h 451.276" fill="none" stroke="black" stroke-dasharray=" 3, 3"/>
<path d="M58.3268,309.161h 451.276" fill="none" stroke="black" stroke-dasharray=" 3, 3"/>
<path d="M58.3268,329.178h 451.276" fill="none" stroke="black" stroke-dasharray=" 3, 3"/>
<path d="M58.3268,268.744h 451.276" fill="none" stroke="black"/>
<path d="M58.3268,259.563v 9.18112" fill="none" stroke="black"/>
<path d="M67.3523,264.153v 4.59056" fill="none" stroke="black"/>
<path d="M76.3778,264.153v 4.59056" fill="none" stroke="black"/>
<path d="M85.4033,264.153v 4.59056" fill="none" stroke="black"/>
<path d="M94.4288,264.153v 4.59056" fill="none" stroke="black"/>
<path d="M103.454,259.563v 9.18112" fill="none" stroke="black"/>
<path d="M112.48,264.153v 4.59056" fill="none" stroke="black"/>
<path d="M121.505,264.153v 4.59056" fill="none" stroke="black"/>
<path d="M130.531,264.153v 4.59056" fill="none" stroke="black"/>
<path d="M139.556,264.153v 4.59056" fill="none" stroke="black"/>
<path d="M148.582,259.563v 9.18112" fill="none" stroke="black"/>
<path d="M157.607,264.153v 4.59056" fill="none" stroke="black"/>
<path d="M166.633,264.153v 4.59056" fill="none" stroke="black"/>
<path d="M175.658,264.153v 4.59056" fill="none" stroke="black"/>
<path d="M184.684,264.153v 4.59056" fill="none" stroke="black"/>
<path d="M193.709,259.563v 9.18112" fill="none" stroke="black"/>
<path d="M202.735,264.153v 4.59056" fill="none" stroke="black"/>
<path d="M211.76,264.153v 4.59056" fill="none" stroke="black"/>
<path d="M220.786,264.153v 4.59056" fill="none" stroke="black"/>
<path d="M229.811,264.153v 4.59056" fill="none" stroke="black"/>
<path d="M238.837,259.563v 9.18112" fill="none" stroke="black"/>
<path d="M247.863,264.153v 4.59056" fill="none" stroke="black"/>
<path d="M256.888,264.153v 4.59056" fill="none" stroke="black"/>
<path d="M265.914,264.153v 4.59056" fill="none" stroke="black"/>
<path d="M274.939,264.153v 4.59056" fill="none" stroke="black"/>
<path d="M283.965,259.563v 9.18112" fill="none" stroke="black"/>
<path d="M292.99,264.153v 4.59056" fill="none" stroke="black"/>
<path d="M302.016,264.153v 4.59056" fill="none" stroke="black"/>
<path d="M311.041,264.153v 4.59056" fill="none" stroke="black"/>
<path d="M320.067,264.153v 4.59056" fill="none" stroke="black"/>
<path d="M329.092,259.563v 9.18112" fill="none" stroke="black"/>
<path d="M338.118,264.153v 4.59056" fill="none" stroke="black"/>
<path d="M347.143,264.153v 4.59056" fill="none" stroke="black"/>
<path d="M356.169,264.153v 4.59056" fill="none" stroke="black"/>
<path d="M365.194,264.153v 4.59056" fill="none" stroke="black"/>
<path d="M374.22,259.563v 9.18112" fill="none" stroke="black"/>
<path d="M383.245,264.153v 4.59056" fill="none" stroke="black"/>
<path d="M392.271,264.153v 4.59056" fill="none" stroke="black"/>
<path d="M401.296,264.153v 4.59056" fill="none" stroke="black"/>
<path d="M410.322,264.153v 4.59056" fill="none" stroke="black"/>
<path d="M419.347,259.563v 9.18112" fill="none" stroke="black"/>
<path d="M428.373,264.153v 4.59056" fill="none" stroke="black"/>
<path d="M437.398,264.153v 4.59056" fill="none" stroke="black"/>
<path d="M446.424,264.153v 4.59056" fill="none" stroke="black"/>
<path d="M455.449,264.153v 4.59056" fill="none" stroke="black"/>
<path d="M464.475,259.563v 9.18112" fill="none" stroke="black"/>
<path d="M473.5,264.153v 4.59056" fill="none" stroke="black"/>
<path d="M482.526,264.153v 4.59056" fill="none" stroke="black"/>
<path d="M491.551,264.153v 4.59056" fill="none" stroke="black"/>
<path d="M500.577,264.153v 4.59056" fill="none" stroke="black"/>
<path d="M509.602,259.563v 9.18112" fill="none" stroke="black"/>
<path d="M58.3268,268.744v -241.005" fill="none" stroke="black"/>
<path d="M68.9882,268.744h -10.6614" fill="none" stroke="black"/>
<path d="M63.6575,263.252h -5.33069" fill="none" stroke="black"/>
<path d="M63.6575,257.76h -5.33069" fill="none" stroke="black"/>
<path d="M63.6575,252.269h -5.33069" fill="none" stroke="black"/>
<path d="M63.6575,246.777h -5.33069" fill="none" stroke="black"/>
<path d="M68.9882,241.285h -10.6614" fill="none" stroke="black"/>
<path d="M63.6575,235.793h -5.33069" fill="none" stroke="black"/>
<path d="M63.6575,230.302h -5.33069" fill="none" stroke="black"/>
<path d="M63.6575,224.81h -5.33069" fill="none" stroke="black"/>
<path d="M63.6575,219.318h -5.33069" fill="none" stroke="black"/>
<path d="M68.9882,213.826h -10.6614" fill="none" stroke="black"/>
<path d="M63.6575,208.335h -5.33069" fill="none" stroke="black"/>
<path d="M63.6575,202.843h -5.33069" fill="none" stroke="black"/>
<path d="M63.6575,197.351h -5.33069" fill="none" stroke="black"/>
<path d="M63.6575,191.859h -5.33069" fill="none" stroke="black"/>
<path d="M68.9882,186.368h -10.6614" fill="none" stroke="black"/>
<path d="M63.6575,180.876h -5.33069" fill="none" stroke="black"/>
<path d="M63.6575,175.384h -5.33069" fill="none" stroke="black"/>
<path d="M63.6575,169.892h -5.33069" fill="none" stroke="black"/>
<path d="M63.6575,164.4h -5.33069" fill="none" stroke="black"/>
<path d="M68.9882,158.909h -10.6614" fill="none" stroke="black"/>
<path d="M63.6575,153.417h -5.33069" fill="none" stroke="black"/>
<path d="M63.6575,147.925h -5.33069" fill="none" stroke="black"/>
<path d="M63.6575,142.433h -5.33069" fill="none" stroke="black"/>
<path d="M63.6575,136.942h -5.33069" fill="none" stroke="black"/>
<path d="M68.9882,131.45h -10.6614" fill="none" stroke="black"/>
<path d="M63.6575,125.958h -5.33069" fill="none" stroke="black"/>
<path d="M63.6575,120.466h -5.33069" fill="none" stroke="black"/>
<path d="M63.6575,114.975h -5.33069" fill="none" stroke="black"/>
<path d="M63.6575,109.483h -5.33069" fill="none" stroke="black"/>
<path d="M68.9882,103.991h -10.6614" fill="none" stroke="black"/>
<path d="M63.6575,98.4994h -5.33069" fill="none" stroke="black"/>
<path d="M63.6575,93.0076h -5.33069" fill="none" stroke="black"/>
<path d="M63.6575,87.5159h -5.33069" fill="none" stroke="black"/>
<path d="M63.6575,82.0241h -5.33069" fill="none" stroke="black"/>
<path d="M68.9882,76.5323h -10.6614" fill="none" stroke="black"/>
<path d="M63.6575,71.0406h -5.33069" fill="none" stroke="black"/>
<path d="M63.6575,65.5488h -5.33069" fill="none" stroke="black"/>
<path d="M63.6575,60.0571h -5.33069" fill="none" stroke="black"/>
<path d="M63.6575,54.5653h -5.33069" fill="none" stroke="black"/>
<path d="M68.9882,49.0735h -10.6614" fill="none" stroke="black"/>
<path d="M68.9882,49.0735h -10.6614" fill="none" stroke="black"/>
<path d="M63.6575,43.5818h -5.33069" fill="none" stroke="black"/>
<path d="M63.6575,38.09h -5.33069" fill="none" stroke="black"/>
<path d="M63.6575,32.5983h -5.33069" fill="none" stroke="black"/>
<text xml:space="preserve" x="46.115" y="275.319" fill="black" font-size="18.048" font-family="Helvetica">0
</text>
<text xml:space="preserve" x="36.3403" y="247.624" fill="black" font-size="18.048" font-family="Helvetica">50
</text>
<text xml:space="preserve" x="26.5657" y="220.744" fill="black" font-size="18.048" font-family="Helvetica">100
</text>
<text xml:space="preserve" x="26.5657" y="193.049" fill="black" font-size="18.048" font-family="Helvetica">150
</text>
<text xml:space="preserve" x="26.5657" y="165.354" fill="black" font-size="18.048" font-family="Helvetica">200
</text>
<text xml:space="preserve" x="26.5657" y="137.66" fill="black" font-size="18.048" font-family="Helvetica">250
</text>
<text xml:space="preserve" x="26.5657" y="110.779" fill="black" font-size="18.048" font-family="Helvetica">300
</text>
<text xml:space="preserve" x="26.5657" y="83.0844" fill="black" font-size="18.048" font-family="Helvetica">350
</text>
<text xml:space="preserve" x="26.5657" y="55.3896" fill="black" font-size="18.048" font-family="Helvetica">400
</text>
<g transform="rotate(-90,-1.12911,36.6549)">
<text xml:space="preserve" x="-1.12911" y="36.6549" fill="black" font-size="18.048" font-family="Helvetica">y
</text>
</g>
<path d="M58.3268,349.079h 451.276" fill="none" stroke="black"/>
<path d="M58.3268,339.898v 9.18112" fill="none" stroke="black"/>
<path d="M67.3523,344.488v 4.59056" fill="none" stroke="black"/>
<path d="M76.3778,344.488v 4.59056" fill="none" stroke="black"/>
<path d="M85.4033,344.488v 4.59056" fill="none" stroke="black"/>
<path d="M94.4288,344.488v 4.59056" fill="none" stroke="black"/>
<path d="M103.454,339.898v 9.18112" fill="none" stroke="black"/>
<path d="M112.48,344.488v 4.59056" fill="none" stroke="black"/>
<path d="M121.505,344.488v 4.59056" fill="none" stroke="black"/>
<path d="M130.531,344.488v 4.59056" fill="none" stroke="black"/>
<path d="M139.556,344.488v 4.59056" fill="none" stroke="black"/>
<path d="M148.582,339.898v 9.18112" fill="none" stroke="black"/>
<path d="M157.607,344.488v 4.59056" fill="none" stroke="black"/>
<path d="M166.633,344.488v 4.59056" fill="none" stroke="black"/>
<path d="M175.658,344.488v 4.59056" fill="none" stroke="black"/>
<path d="M184.684,344.488v 4.59056" fill="none" stroke="black"/>
<path d="M193.709,339.898v 9.18112" fill="none" stroke="black"/>
<path d="M202.735,344.488v 4.59056" fill="none" stroke="black"/>
<path d="M211.76,344.488v 4.59056" fill="none" stroke="black"/>
<path d="M220.786,344.488v 4.59056" fill="none" stroke="black"/>
<path d="M229.811,344.488v 4.59056" fill="none" stroke="black"/>
<path d="M238.837,339.898v 9.18112" fill="none" stroke="black"/>
<path d="M247.863,344.488v 4.59056" fill="none" stroke="black"/>
<path d="M256.888,344.488v 4.59056" fill="none" stroke="black"/>
<path d="M265.914,344.488v 4.59056" fill="none" stroke="black"/>
<path d="M274.939,344.488v 4.59056" fill="none" stroke="black"/>
<path d="M283.965,339.898v 9.18112" fill="none" stroke="black"/>
<path d="M292.99,344.488v 4.59056" fill="none" stroke="black"/>
<path d="M302.016,344.488v 4.59056" fill="none" stroke="black"/>
<path d="M311.041,344.488v 4.59056" fill="none" stroke="black"/>
<path d="M320.067,344.488v 4.59056" fill="none" stroke="black"/>
<path d="M329.092,339.898v 9.18112" fill="none" stroke="black"/>
<path d="M338.118,344.488v 4.59056" fill="none" stroke="black"/>
<path d="M347.143,344.488v 4.59056" fill="none" stroke="black"/>
<path d="M356.169,344.488v 4.59056" fill="none" stroke="black"/>
<path d="M365.194,344.488v 4.59056" fill="none" stroke="black"/>
<path d="M374.22,339.898v 9.18112" fill="none" stroke="black"/>
<path d="M383.245,344.488v 4.59056" fill="none" stroke="black"/>
<path d="M392.271,344.488v 4.59056" fill="none" stroke="black"/>
<path d="M401.296,344.488v 4.59056" fill="none" stroke="black"/>
<path d="M410.322,344.488v 4.59056" fill="none" stroke="black"/>
<path d="M419.347,339.898v 9.18112" fill="none" stroke="black"/>
<path d="M428.373,344.488v 4.59056" fill="none" stroke="black"/>
<path d="M437.398,344.488v 4.59056" fill="none" stroke="black"/>
<path d="M446.424,344.488v 4.59056" fill="none" stroke="black"/>
<path d="M455.449,344.488v 4.59056" fill="none" stroke="black"/>
<path d="M464.475,339.898v 9.18112" fill="none" stroke="black"/>
<path d="M473.5,344.488v 4.59056" fill="none" stroke="black"/>
<path d="M482.526,344.488v 4.59056" fill="none" stroke="black"/>
<path d="M491.551,344.488v 4.59056" fill="none" stroke="black"/>
<path d="M500.577,344.488v 4.59056" fill="none" stroke="black"/>
<path d="M509.602,339.898v 9.18112" fill="none" stroke="black"/>
<text xml:space="preserve" x="57.5187" y="366.549" fill="black" font-size="18.048" font-family="Helvetica">5
</text>
<text xml:space="preserve" x="48.5586" y="366.549" fill="black" font-size="18.048" font-family="Times">&#8722;
</text>
<text xml:space="preserve" x="102.319" y="366.549" fill="black" font-size="18.048" font-family="Helvetica">4
</text>
<text xml:space="preserve" x="93.3591" y="366.549" fill="black" font-size="18.048" font-family="Times">&#8722;
</text>
<text xml:space="preserve" x="147.934" y="366.549" fill="black" font-size="18.048" font-family="Helvetica">3
</text>
<text xml:space="preserve" x="138.974" y="366.549" fill="black" font-size="18.048" font-family="Times">&#8722;
</text>
<text xml:space="preserve" x="192.735" y="366.549" fill="black" font-size="18.048" font-family="Helvetica">2
</text>
<text xml:space="preserve" x="183.775" y="366.549" fill="black" font-size="18.048" font-family="Times">&#8722;
</text>
<text xml:space="preserve" x="239.979" y="366.549" fill="black" font-size="18.048" font-family="Helvetica">1
</text>
<text xml:space="preserve" x="231.019" y="366.549" fill="black" font-size="18.048" font-family="Times">&#8722;
</text>
<text xml:space="preserve" x="279.077" y="366.549" fill="black" font-size="18.048" font-family="Helvetica">0
</text>
<text xml:space="preserve" x="325.507" y="366.549" fill="black" font-size="18.048" font-family="Helvetica">1
</text>
<text xml:space="preserve" x="369.493" y="366.549" fill="black" font-size="18.048" font-family="Helvetica">2
</text>
<text xml:space="preserve" x="414.293" y="366.549" fill="black" font-size="18.048" font-family="Helvetica">3
</text>
<text xml:space="preserve" x="459.908" y="366.549" fill="black" font-size="18.048" font-family="Helvetica">4
</text>
<text xml:space="preserve" x="504.709" y="366.549" fill="black" font-size="18.048" font-family="Helvetica">5
</text>
<text xml:space="preserve" x="500.636" y="397.502" fill="black" font-size="18.048" font-family="Helvetica">x
</text>
<path d="M58.3268,349.079v -80.3348" fill="none" stroke="black"/>
<path d="M68.9882,349.079h -10.6614" fill="none" stroke="black"/>
<path d="M63.6575,347.07h -5.33069" fill="none" stroke="black"/>
<path d="M63.6575,345.062h -5.33069" fill="none" stroke="black"/>
<path d="M63.6575,343.054h -5.33069" fill="none" stroke="black"/>
<path d="M63.6575,341.045h -5.33069" fill="none" stroke="black"/>
<path d="M68.9882,339.037h -10.6614" fill="none" stroke="black"/>
<path d="M63.6575,337.029h -5.33069" fill="none" stroke="black"/>
<path d="M63.6575,335.02h -5.33069" fill="none" stroke="black"/>
<path d="M63.6575,333.012h -5.33069" fill="none" stroke="black"/>
<path d="M63.6575,331.003h -5.33069" fill="none" stroke="black"/>
<path d="M68.9882,328.995h -10.6614" fill="none" stroke="black"/>
<path d="M63.6575,326.987h -5.33069" fill="none" stroke="black"/>
<path d="M63.6575,324.978h -5.33069" fill="none" stroke="black"/>
<path d="M63.6575,322.97h -5.33069" fill="none" stroke="black"/>
<path d="M63.6575,320.962h -5.33069" fill="none" stroke="black"/>
<path d="M68.9882,318.953h -10.6614" fill="none" stroke="black"/>
<path d="M63.6575,316.945h -5.33069" fill="none" stroke="black"/>
<path d="M63.6575,314.936h -5.33069" fill="none" stroke="black"/>
<path d="M63.6575,312.928h -5.33069" fill="none" stroke="black"/>
<path d="M63.6575,310.92h -5.33069" fill="none" stroke="black"/>
<path d="M68.9882,308.911h -10.6614" fill="none" stroke="black"/>
<path d="M63.6575,306.903h -5.33069" fill="none" stroke="black"/>
<path d="M63.6575,304.895h -5.33069" fill="none" stroke="black"/>
<path d="M63.6575,302.886h -5.33069" fill="none" stroke="black"/>
<path d="M63.6575,300.878h -5.33069" fill="none" stroke="black"/>
<path d="M68.9882,298.87h -10.6614" fill="none" stroke="black"/>
<path d="M63.6575,296.861h -5.33069" fill="none" stroke="black"/>
<path d="M63.6575,294.853h -5.33069" fill="none" stroke="black"/>
<path d="M63.6575,292.844h -5.33069" fill="none" stroke="black"/>
<path d="M63.6575,290.836h -5.33069" fill="none" stroke="black"/>
<path d="M68.9882,288.828h -10.6614" fill="none" stroke="black"/>
<path d="M63.6575,286.819h -5.33069" fill="none" stroke="black"/>
<path d="M63.6575,284.811h -5.33069" fill="none" stroke="black"/>
<path d="M63.6575,282.803h -5.33069" fill="none" stroke="black"/>
<path d="M63.6575,280.794h -5.33069" fill="none" stroke="black"/>
<path d="M68.9882,278.786h -10.6614" fill="none" stroke="black"/>
<path d="M63.6575,276.777h -5.33069" fill="none" stroke="black"/>
<path d="M63.6575,274.769h -5.33069" fill="none" stroke="black"/>
<path d="M63.6575,272.761h -5.33069" fill="none" stroke="black"/>
<path d="M63.6575,270.752h -5.33069" fill="none" stroke="black"/>
<path d="M68.9882,268.744h -10.6614" fill="none" stroke="black"/>
<text xml:space="preserve" x="46.115" y="356.774" fill="black" font-size="18.048" font-family="Helvetica">2
</text>
<text xml:space="preserve" x="36.3403" y="356.774" fill="black" font-size="18.048" font-family="Times">&#8722;
</text>
<text xml:space="preserve" x="31.453" y="345.371" fill="black" font-size="18.048" font-family="Helvetica">1.5
</text>
<text xml:space="preserve" x="21.6784" y="345.371" fill="black" font-size="18.048" font-family="Times">&#8722;
</text>
<text xml:space="preserve" x="49.3732" y="336.411" fill="black" font-size="18.048" font-family="Helvetica">1
</text>
<text xml:space="preserve" x="39.5986" y="336.411" fill="black" font-size="18.048" font-family="Times">&#8722;
</text>
<text xml:space="preserve" x="31.453" y="325.821" fill="black" font-size="18.048" font-family="Helvetica">0.5
</text>
<text xml:space="preserve" x="21.6784" y="325.821" fill="black" font-size="18.048" font-family="Times">&#8722;
</text>
<text xml:space="preserve" x="46.115" y="315.232" fill="black" font-size="18.048" font-family="Helvetica">0
</text>
<text xml:space="preserve" x="31.453" y="305.457" fill="black" font-size="18.048" font-family="Helvetica">0.5
</text>
<text xml:space="preserve" x="49.3732" y="296.497" fill="black" font-size="18.048" font-family="Helvetica">1
</text>
<text xml:space="preserve" x="31.453" y="285.094" fill="black" font-size="18.048" font-family="Helvetica">1.5
</text>
<path d="M58.3268,27.7395h 451.276" fill="none" stroke="black"/>
<path d="M58.3268,36.9206v -9.18112" fill="none" stroke="black"/>
<path d="M67.3523,32.33v -4.59056" fill="none" stroke="black"/>
<path d="M76.3778,32.33v -4.59056" fill="none" stroke="black"/>
<path d="M85.4033,32.33v -4.59056" fill="none" stroke="black"/>
<path d="M94.4288,32.33v -4.59056" fill="none" stroke="black"/>
<path d="M103.454,36.9206v -9.18112" fill="none" stroke="black"/>
<path d="M112.48,32.33v -4.59056" fill="none" stroke="black"/>
<path d="M121.505,32.33v -4.59056" fill="none" stroke="black"/>
<path d="M130.531,32.33v -4.59056" fill="none" stroke="black"/>
<path d="M139.556,32.33v -4.59056" fill="none" stroke="black"/>
<path d="M148.582,36.9206v -9.18112" fill="none" stroke="black"/>
<path d="M157.607,32.33v -4.59056" fill="none" stroke="black"/>
<path d="M166.633,32.33v -4.59056" fill="none" stroke="black"/>
<path d="M175.658,32.33v -4.59056" fill="none" stroke="black"/>
<path d="M184.684,32.33v -4.59056" fill="none" stroke="black"/>
<path d="M193.709,36.9206v -9.18112" fill="none" stroke="black"/>
<path d="M202.735,32.33v -4.59056" fill="none" stroke="black"/>
<path d="M211.76,32.33v -4.59056" fill="none" stroke="black"/>
<path d="M220.786,32.33v -4.59056" fill="none" stroke="black"/>
<path d="M229.811,32.33v -4.59056" fill="none" stroke="black"/>
<path d="M238.837,36.9206v -9.18112" fill="none" stroke="black"/>
<path d="M247.863,32.33v -4.59056" fill="none" stroke="black"/>
<path d="M256.888,32.33v -4.59056" fill="none" stroke="black"/>
<path d="M265.914,32.33v -4.59056" fill="none" stroke="black"/>
<path d="M274.939,32.33v -4.59056" fill="none" stroke="black"/>
<path d="M283.965,36.9206v -9.18112" fill="none" stroke="black"/>
<path d="M292.99,32.33v -4.59056" fill="none" stroke="black"/>
<path d="M302.016,32.33v -4.59056" fill="none" stroke="black"/>
<path d="M311.041,32.33v -4.59056" fill="none" stroke="black"/>
<path d="M320.067,32.33v -4.59056" fill="none" stroke="black"/>
<path d="M329.092,36.9206v -9.18112" fill="none" stroke="black"/>
<path d="M338.118,32.33v -4.59056" fill="none" stroke="black"/>
<path d="M347.143,32.33v -4.59056" fill="none" stroke="black"/>
<path d="M356.169,32.33v -4.59056" fill="none" stroke="black"/>
<path d="M365.194,32.33v -4.59056" fill="none" stroke="black"/>
<path d="M374.22,36.9206v -9.18112" fill="none" stroke="black"/>
<path d="M383.245,32.33v -4.59056" fill="none" stroke="black"/>
<path d="M392.271,32.33v -4.59056" fill="none" stroke="black"/>
<path d="M401.296,32.33v -4.59056" fill="none" stroke="black"/>
<path d="M410.322,32.33v -4.59056" fill="none" stroke="black"/>
<path d="M419.347,36.9206v -9.18112" fill="none" stroke="black"/>
<path d="M428.373,32.33v -4.59056" fill="none" stroke="black"/>
<path d="M437.398,32.33v -4.59056" fill="none" stroke="black"/>
<path d="M446.424,32.33v -4.59056" fill="none" stroke="black"/>
<path d="M455.449,32.33v -4.59056" fill="none" stroke="black"/>
<path d="M464.475,36.9206v -9.18112" fill="none" stroke="black"/>
<path d="M473.5,32.33v -4.59056" fill="none" stroke="black"/>
<path d="M482.526,32.33v -4.59056" fill="none" stroke="black"/>
<path d="M491.551,32.33v -4.59056" fill="none" stroke="black"/>
<path d="M500.577,32.33v -4.59056" fill="none" stroke="black"/>
<path d="M509.602,36.9206v -9.18112" fill="none" stroke="black"/>
<path d="M58.3268,268.744h 451.276" fill="none" stroke="black"/>
<path d="M58.3268,277.925v -9.18112" fill="none" stroke="black"/>
<path d="M67.3523,273.335v -4.59056" fill="none" stroke="black"/>
<path d="M76.3778,273.335v -4.59056" fill="none" stroke="black"/>
<path d="M85.4033,273.335v -4.59056" fill="none" stroke="black"/>
<path d="M94.4288,273.335v -4.59056" fill="none" stroke="black"/>
<path d="M103.454,277.925v -9.18112" fill="none" stroke="black"/>
<path d="M112.48,273.335v -4.59056" fill="none" stroke="black"/>
<path d="M121.505,273.335v -4.59056" fill="none" stroke="black"/>
<path d="M130.531,273.335v -4.59056" fill="none" stroke="black"/>
<path d="M139.556,273.335v -4.59056" fill="none" stroke="black"/>
<path d="M148.582,277.925v -9.18112" fill="none" stroke="black"/>
<path d="M157.607,273.335v -4.59056" fill="none" stroke="black"/>
<path d="M166.633,273.335v -4.59056" fill="none" stroke="black"/>
<path d="M175.658,273.335v -4.59056" fill="none" stroke="black"/>
<path d="M184.684,273.335v -4.59056" fill="none" stroke="black"/>
<path d="M193.709,277.925v -9.18112" fill="none" stroke="black"/>
<path d="M202.735,273.335v -4.59056" fill="none" stroke="black"/>
<path d="M211.76,273.335v -4.59056" fill="none" stroke="black"/>
<path d="M220.786,273.335v -4.59056" fill="none" stroke="black"/>
<path d="M229.811,273.335v -4.59056" fill="none" stroke="black"/>
<path d="M238.837,277.925v -9.18112" fill="none" stroke="black"/>
<path d="M247.863,273.335v -4.59056" fill="none" stroke="black"/>
<path d="M256.888,273.335v -4.59056" fill="none" stroke="black"/>
<path d="M265.914,273.335v -4.59056" fill="none" stroke="black"/>
<path d="M274.939,273.335v -4.59056" fill="none" stroke="black"/>
<path d="M283.965,277.925v -9.18112" fill="none" stroke="black"/>
<path d="M292.99,273.335v -4.59056" fill="none" stroke="black"/>
<path d="M302.016,273.335v -4.59056" fill="none" stroke="black"/>
<path d="M311.041,273.335v -4.59056" fill="none" stroke="black"/>
<path d="M320.067,273.335v -4.59056" fill="none" stroke="black"/>
<path d="M329.092,277.925v -9.18112" fill="none" stroke="black"/>
<path d="M338.118,273.335v -4.59056" fill="none" stroke="black"/>
<path d="M347.143,273.335v -4.59056" fill="none" stroke="black"/>
<path d="M356.169,273.335v -4.59056" fill="none" stroke="black"/>
<path d="M365.194,273.335v -4.59056" fill="none" stroke="black"/>
<path d="M374.22,277.925v -9.18112" fill="none" stroke="black"/>
<path d="M383.245,273.335v -4.59056" fill="none" stroke="black"/>
<path d="M392.271,273.335v -4.59056" fill="none" stroke="black"/>
<path d="M401.296,273.335v -4.59056" fill="none" stroke="black"/>
<path d="M410.322,273.335v -4.59056" fill="none" stroke="black"/>
<path d="M419.347,277.925v -9.18112" fill="none" stroke="black"/>
<path d="M428.373,273.335v -4.59056" fill="none" stroke="black"/>
<path d="M437.398,273.335v -4.59056" fill="none" stroke="black"/>
<path d="M446.424,273.335v -4.59056" fill="none" stroke="black"/>
<path d="M455.449,273.335v -4.59056" fill="none" stroke="black"/>
<path d="M464.475,277.925v -9.18112" fill="none" stroke="black"/>
<path d="M473.5,273.335v -4.59056" fill="none" stroke="black"/>
<path d="M482.526,273.335v -4.59056" fill="none" stroke="black"/>
<path d="M491.551,273.335v -4.59056" fill="none" stroke="black"/>
<path d="M500.577,273.335v -4.59056" fill="none" stroke="black"/>
<path d="M509.602,277.925v -9.18112" fill="none" stroke="black"/>
<path d="M509.602,268.744v -241.005" fill="none" stroke="black"/>
<path d="M498.941,268.744h 10.6614" fill="none" stroke="black"/>
<path d="M504.272,263.252h 5.33069" fill="none" stroke="black"/>
<path d="M504.272,257.76h 5.33069" fill="none" stroke="black"/>
<path d="M504.272,252.269h 5.33069" fill="none" stroke="black"/>
<path d="M504.272,246.777h 5.33069" fill="none" stroke="black"/>
<path d="M498.941,241.285h 10.6614" fill="none" stroke="black"/>
<path d="M504.272,235.793h 5.33069" fill="none" stroke="black"/>
<path d="M504.272,230.302h 5.33069" fill="none" stroke="black"/>
<path d="M504.272,224.81h 5.33069" fill="none" stroke="black"/>
<path d="M504.272,219.318h 5.33069" fill="none" stroke="black"/>
<path d="M498.941,213.826h 10.6614" fill="none" stroke="black"/>
<path d="M504.272,208.335h 5.33069" fill="none" stroke="black"/>
<path d="M504.272,202.843h 5.33069" fill="none" stroke="black"/>
<path d="M504.272,197.351h 5.33069" fill="none" stroke="black"/>
<path d="M504.272,191.859h 5.33069" fill="none" stroke="black"/>
<path d="M498.941,186.368h 10.6614" fill="none" stroke="black"/>
<path d="M504.272,180.876h 5.33069" fill="none" stroke="black"/>
<path d="M504.272,175.384h 5.33069" fill="none" stroke="black"/>
<path d="M504.272,169.892h 5.33069" fill="none" stroke="black"/>
<path d="M504.272,164.4h 5.33069" fill="none" stroke="black"/>
<path d="M498.941,158.909h 10.6614" fill="none" stroke="black"/>
<path d="M504.272,153.417h 5.33069" fill="none" stroke="black"/>
<path d="M504.272,147.925h 5.33069" fill="none" stroke="black"/>
<path d="M504.272,142.433h 5.33069" fill="none" stroke="black"/>
<path d="M504.272,136.942h 5.33069" fill="none" stroke="black"/>
<path d="M498.941,131.45h 10.6614" fill="none" stroke="black"/>
<path d="M504.272,125.958h 5.33069" fill="none" stroke="black"/>
<path d="M504.272,120.466h 5.33069" fill="none" stroke="black"/>
<path d="M504.272,114.975h 5.33069" fill="none" stroke="black"/>
<path d="M504.272,109.483h 5.33069" fill="none" stroke="black"/>
<path d="M498.941,103.991h 10.6614" fill="none" stroke="black"/>
<path d="M504.272,98.4994h 5.33069" fill="none" stroke="black"/>
<path d="M504.272,93.0076h 5.33069" fill="none" stroke="black"/>
<path d="M504.272,87.5159h 5.33069" fill="none" stroke="black"/>
<path d="M504.272,82.0241h 5.33069" fill="none" stroke="black"/>
<path d="M498.941,76.5323h 10.6614" fill="none" stroke="black"/>
<path d="M504.272,71.0406h 5.33069" fill="none" stroke="black"/>
<path d="M504.272,65.5488h 5.33069" fill="none" stroke="black"/>
<path d="M504.272,60.0571h 5.33069" fill="none" stroke="black"/>
<path d="M504.272,54.5653h 5.33069" fill="none" stroke="black"/>
<path d="M498.941,49.0735h 10.6614" fill="none" stroke="black"/>
<path d="M498.941,49.0735h 10.6614" fill="none" stroke="black"/>
<path d="M504.272,43.5818h 5.33069" fill="none" stroke="black"/>
<path d="M504.272,38.09h 5.33069" fill="none" stroke="black"/>
<path d="M504.272,32.5983h 5.33069" fill="none" stroke="black"/>
<path d="M509.602,349.079v -80.3348" fill="none" stroke="black"/>
<path d="M498.941,349.079h 10.6614" fill="none" stroke="black"/>
<path d="M504.272,347.07h 5.33069" fill="none" stroke="black"/>
<path d="M504.272,345.062h 5.33069" fill="none" stroke="black"/>
<path d="M504.272,343.054h 5.33069" fill="none" stroke="black"/>
<path d="M504.272,341.045h 5.33069" fill="none" stroke="black"/>
<path d="M498.941,339.037h 10.6614" fill="none" stroke="black"/>
<path d="M504.272,337.029h 5.33069" fill="none" stroke="black"/>
<path d="M504.272,335.02h 5.33069" fill="none" stroke="black"/>
<path d="M504.272,333.012h 5.33069" fill="none" stroke="black"/>
<path d="M504.272,331.003h 5.33069" fill="none" stroke="black"/>
<path d="M498.941,328.995h 10.6614" fill="none" stroke="black"/>
<path d="M504.272,326.987h 5.33069" fill="none" stroke="black"/>
<path d="M504.272,324.978h 5.33069" fill="none" stroke="black"/>
<path d="M504.272,322.97h 5.33069" fill="none" stroke="black"/>
<path d="M504.272,320.962h 5.33069" fill="none" stroke="black"/>
<path d="M498.941,318.953h 10.6614" fill="none" stroke="black"/>
<path d="M504.272,316.945h 5.33069" fill="none" stroke="black"/>
<path d="M504.272,314.936h 5.33069" fill="none" stroke="black"/>
<path d="M504.272,312.928h 5.33069" fill="none" stroke="black"/>
<path d="M504.272,310.92h 5.33069" fill="none" stroke="black"/>
<path d="M498.941,308.911h 10.6614" fill="none" stroke="black"/>
<path d="M504.272,306.903h 5.33069" fill="none" stroke="black"/>
<path d="M504.272,304.895h 5.33069" fill="none" stroke="black"/>
<path d="M504.272,302.886h 5.33069" fill="none" stroke="black"/>
<path d="M504.272,300.878h 5.33069" fill="none" stroke="black"/>
<path d="M498.941,298.87h 10.6614" fill="none" stroke="black"/>
<path d="M504.272,296.861h 5.33069" fill="none" stroke="black"/>
<path d="M504.272,294.853h 5.33069" fill="none" stroke="black"/>
<path d="M504.272,292.844h 5.33069" fill="none" stroke="black"/>
<path d="M504.272,290.836h 5.33069" fill="none" stroke="black"/>
<path d="M498.941,288.828h 10.6614" fill="none" stroke="black"/>
<path d="M504.272,286.819h 5.33069" fill="none" stroke="black"/>
<path d="M504.272,284.811h 5.33069" fill="none" stroke="black"/>
<path d="M504.272,282.803h 5.33069" fill="none" stroke="black"/>
<path d="M504.272,280.794h 5.33069" fill="none" stroke="black"/>
<path d="M498.941,278.786h 10.6614" fill="none" stroke="black"/>
<path d="M504.272,276.777h 5.33069" fill="none" stroke="black"/>
<path d="M504.272,274.769h 5.33069" fill="none" stroke="black"/>
<path d="M504.272,272.761h 5.33069" fill="none" stroke="black"/>
<path d="M504.272,270.752h 5.33069" fill="none" stroke="black"/>
<path d="M498.941,268.744h 10.6614" fill="none" stroke="black"/></svg>
