<?xml version="1.0" standalone="no"?>
<svg width="567.429" height="550.336" viewBox="0 0 567.429 550.336" xmlns="http://www.w3.org/2000/svg" shape-rendering="crispEdges">
<title>
./old_svg_ref/ratioplotOld.svg
</title>
<desc>
Creator: ROOT Version 6.33.01
CreationDate: Wed Jul 10 10:03:03 2024</desc>
<defs>
</defs>
<rect x="0.5" y="0" width="566.929" height="549.836" fill="white"/>
<rect x="0.5" y="0" width="566.929" height="384.885" fill="white"/>
<rect x="91.2087" y="19.2443" width="447.874" height="365.641" fill="white"/>
<rect x="91.2087" y="19.2443" width="447.874" height="365.641" fill="none" stroke="black"/>
<path d="M91.2087,384.885h 447.874" fill="none" stroke="black"/>
<path d="M91.2087,19.2443v 365.641" fill="none" stroke="black" stroke-dasharray=" 1, 2"/>
<path d="M135.996,19.2443v 365.641" fill="none" stroke="black" stroke-dasharray=" 1, 2"/>
<path d="M180.783,19.2443v 365.641" fill="none" stroke="black" stroke-dasharray=" 1, 2"/>
<path d="M225.571,19.2443v 365.641" fill="none" stroke="black" stroke-dasharray=" 1, 2"/>
<path d="M270.358,19.2443v 365.641" fill="none" stroke="black" stroke-dasharray=" 1, 2"/>
<path d="M315.146,19.2443v 365.641" fill="none" stroke="black" stroke-dasharray=" 1, 2"/>
<path d="M359.933,19.2443v 365.641" fill="none" stroke="black" stroke-dasharray=" 1, 2"/>
<path d="M404.72,19.2443v 365.641" fill="none" stroke="black" stroke-dasharray=" 1, 2"/>
<path d="M449.508,19.2443v 365.641" fill="none" stroke="black" stroke-dasharray=" 1, 2"/>
<path d="M494.295,19.2443v 365.641" fill="none" stroke="black" stroke-dasharray=" 1, 2"/>
<path d="M539.083,19.2443v 365.641" fill="none" stroke="black" stroke-dasharray=" 1, 2"/>
<path d="M91.2087,19.2443h 447.874" fill="none" stroke="black"/>
<path d="M91.2087,384.885v -365.641" fill="none" stroke="black"/>
<path d="M539.083,384.885v -365.641" fill="none" stroke="black"/>
<path d="M91.2087,384.885h 31.3512v -3.12313h 4.47874v 3.12313h 31.3512v -1.56157h 4.47874v 1.56157h 8.95748v -3.12313h 4.47874v -3.12313h 4.47874v 3.12313h 4.47874v -1.56157h 4.47874v -12.4925h 4.47874v 6.24627h 4.47874v 7.80783h 4.47874v -12.4925h
 4.47874v 1.56157h 4.47874v -9.3694h 4.47874v -10.931h 4.47874v -7.80783h 4.47874v -10.931h 4.47874v 9.3694h 4.47874v -21.8619h 4.47874v -12.4925h 4.47874v -14.0541h 4.47874v -18.7388h 4.47874v -14.0541h 4.47874v -18.7388h 4.47874v -28.1082h 4.47874v
 -17.1772h 4.47874v -12.4925h 4.47874v -20.3004h 4.47874v -4.6847h 4.47874v -3.12313h 4.47874v -26.5466h 4.47874v -9.3694h 4.47874v -48.4086h 4.47874v 7.80783h 8.95748v -9.3694h 4.47874v 42.1623h 4.47874v -74.9552h 4.47874v 48.4086h 4.47874v 15.6157h
 8.95748v 48.4086h 4.47874v -6.24627h 4.47874v 6.24627h 4.47874v 14.0541h 4.47874v 20.3004h 4.47874v 7.80783h 4.47874v 23.4235h 4.47874v 45.2854h 4.47874v -1.56157h 4.47874v 31.2313h 4.47874v -26.5466h 4.47874v 37.4776h 4.47874v 15.6157h 4.47874v
 15.6157h 4.47874v 7.80783h 4.47874v 9.3694h 4.47874v 4.6847h 8.95748v 7.80783h 4.47874v 1.56157h 4.47874v 7.80783h 4.47874v 3.12313h 4.47874v 3.12313h 4.47874v -1.56157h 4.47874v 4.6847h 4.47874v 3.12313h 4.47874v 1.56157h 13.4362v -3.12313h
 4.47874v 1.56157h 4.47874v 1.56157h 4.47874v -1.56157h 4.47874v 1.56157h 8.95748v -1.56157h 4.47874v 1.56157h 40.3087" fill="none" stroke="#0000cc" stroke-width="2"/>
<path d="M91.2087,384.885h 447.874" fill="none" stroke="black"/>
<path d="M91.2087,375.763v 9.12178" fill="none" stroke="black"/>
<path d="M100.166,380.324v 4.56089" fill="none" stroke="black"/>
<path d="M109.124,380.324v 4.56089" fill="none" stroke="black"/>
<path d="M118.081,380.324v 4.56089" fill="none" stroke="black"/>
<path d="M127.039,380.324v 4.56089" fill="none" stroke="black"/>
<path d="M135.996,375.763v 9.12178" fill="none" stroke="black"/>
<path d="M144.954,380.324v 4.56089" fill="none" stroke="black"/>
<path d="M153.911,380.324v 4.56089" fill="none" stroke="black"/>
<path d="M162.868,380.324v 4.56089" fill="none" stroke="black"/>
<path d="M171.826,380.324v 4.56089" fill="none" stroke="black"/>
<path d="M180.783,375.763v 9.12178" fill="none" stroke="black"/>
<path d="M189.741,380.324v 4.56089" fill="none" stroke="black"/>
<path d="M198.698,380.324v 4.56089" fill="none" stroke="black"/>
<path d="M207.656,380.324v 4.56089" fill="none" stroke="black"/>
<path d="M216.613,380.324v 4.56089" fill="none" stroke="black"/>
<path d="M225.571,375.763v 9.12178" fill="none" stroke="black"/>
<path d="M234.528,380.324v 4.56089" fill="none" stroke="black"/>
<path d="M243.486,380.324v 4.56089" fill="none" stroke="black"/>
<path d="M252.443,380.324v 4.56089" fill="none" stroke="black"/>
<path d="M261.401,380.324v 4.56089" fill="none" stroke="black"/>
<path d="M270.358,375.763v 9.12178" fill="none" stroke="black"/>
<path d="M279.316,380.324v 4.56089" fill="none" stroke="black"/>
<path d="M288.273,380.324v 4.56089" fill="none" stroke="black"/>
<path d="M297.231,380.324v 4.56089" fill="none" stroke="black"/>
<path d="M306.188,380.324v 4.56089" fill="none" stroke="black"/>
<path d="M315.146,375.763v 9.12178" fill="none" stroke="black"/>
<path d="M324.103,380.324v 4.56089" fill="none" stroke="black"/>
<path d="M333.061,380.324v 4.56089" fill="none" stroke="black"/>
<path d="M342.018,380.324v 4.56089" fill="none" stroke="black"/>
<path d="M350.976,380.324v 4.56089" fill="none" stroke="black"/>
<path d="M359.933,375.763v 9.12178" fill="none" stroke="black"/>
<path d="M368.891,380.324v 4.56089" fill="none" stroke="black"/>
<path d="M377.848,380.324v 4.56089" fill="none" stroke="black"/>
<path d="M386.806,380.324v 4.56089" fill="none" stroke="black"/>
<path d="M395.763,380.324v 4.56089" fill="none" stroke="black"/>
<path d="M404.72,375.763v 9.12178" fill="none" stroke="black"/>
<path d="M413.678,380.324v 4.56089" fill="none" stroke="black"/>
<path d="M422.635,380.324v 4.56089" fill="none" stroke="black"/>
<path d="M431.593,380.324v 4.56089" fill="none" stroke="black"/>
<path d="M440.55,380.324v 4.56089" fill="none" stroke="black"/>
<path d="M449.508,375.763v 9.12178" fill="none" stroke="black"/>
<path d="M458.465,380.324v 4.56089" fill="none" stroke="black"/>
<path d="M467.423,380.324v 4.56089" fill="none" stroke="black"/>
<path d="M476.38,380.324v 4.56089" fill="none" stroke="black"/>
<path d="M485.338,380.324v 4.56089" fill="none" stroke="black"/>
<path d="M494.295,375.763v 9.12178" fill="none" stroke="black"/>
<path d="M503.253,380.324v 4.56089" fill="none" stroke="black"/>
<path d="M512.21,380.324v 4.56089" fill="none" stroke="black"/>
<path d="M521.168,380.324v 4.56089" fill="none" stroke="black"/>
<path d="M530.125,380.324v 4.56089" fill="none" stroke="black"/>
<path d="M539.083,375.763v 9.12178" fill="none" stroke="black"/>
<text xml:space="preserve" x="90.9523" y="402.406" fill="black" font-size="18.1553" font-family="Helvetica">5
</text>
<text xml:space="preserve" x="80.9811" y="402.406" fill="black" font-size="18.1553" font-family="Times">&#8722;
</text>
<text xml:space="preserve" x="135.822" y="402.406" fill="black" font-size="18.1553" font-family="Helvetica">4
</text>
<text xml:space="preserve" x="125.851" y="402.406" fill="black" font-size="18.1553" font-family="Times">&#8722;
</text>
<text xml:space="preserve" x="180.692" y="402.406" fill="black" font-size="18.1553" font-family="Helvetica">3
</text>
<text xml:space="preserve" x="170.721" y="402.406" fill="black" font-size="18.1553" font-family="Times">&#8722;
</text>
<text xml:space="preserve" x="225.562" y="402.406" fill="black" font-size="18.1553" font-family="Helvetica">2
</text>
<text xml:space="preserve" x="215.591" y="402.406" fill="black" font-size="18.1553" font-family="Times">&#8722;
</text>
<text xml:space="preserve" x="271.857" y="402.406" fill="black" font-size="18.1553" font-family="Helvetica">1
</text>
<text xml:space="preserve" x="261.886" y="402.406" fill="black" font-size="18.1553" font-family="Times">&#8722;
</text>
<text xml:space="preserve" x="310.317" y="402.406" fill="black" font-size="18.1553" font-family="Helvetica">0
</text>
<text xml:space="preserve" x="356.611" y="402.406" fill="black" font-size="18.1553" font-family="Helvetica">1
</text>
<text xml:space="preserve" x="400.057" y="402.406" fill="black" font-size="18.1553" font-family="Helvetica">2
</text>
<text xml:space="preserve" x="444.215" y="402.406" fill="black" font-size="18.1553" font-family="Helvetica">3
</text>
<text xml:space="preserve" x="489.085" y="402.406" fill="black" font-size="18.1553" font-family="Helvetica">4
</text>
<text xml:space="preserve" x="533.955" y="402.406" fill="black" font-size="18.1553" font-family="Helvetica">5
</text>
<text xml:space="preserve" x="497.631" y="435.168" fill="black" font-size="18.1553" font-family="Helvetica">x title
</text>
<path d="M91.2087,19.2443h 447.874" fill="none" stroke="black"/>
<path d="M91.2087,28.366v -9.12178" fill="none" stroke="black"/>
<path d="M100.166,23.8051v -4.56089" fill="none" stroke="black"/>
<path d="M109.124,23.8051v -4.56089" fill="none" stroke="black"/>
<path d="M118.081,23.8051v -4.56089" fill="none" stroke="black"/>
<path d="M127.039,23.8051v -4.56089" fill="none" stroke="black"/>
<path d="M135.996,28.366v -9.12178" fill="none" stroke="black"/>
<path d="M144.954,23.8051v -4.56089" fill="none" stroke="black"/>
<path d="M153.911,23.8051v -4.56089" fill="none" stroke="black"/>
<path d="M162.868,23.8051v -4.56089" fill="none" stroke="black"/>
<path d="M171.826,23.8051v -4.56089" fill="none" stroke="black"/>
<path d="M180.783,28.366v -9.12178" fill="none" stroke="black"/>
<path d="M189.741,23.8051v -4.56089" fill="none" stroke="black"/>
<path d="M198.698,23.8051v -4.56089" fill="none" stroke="black"/>
<path d="M207.656,23.8051v -4.56089" fill="none" stroke="black"/>
<path d="M216.613,23.8051v -4.56089" fill="none" stroke="black"/>
<path d="M225.571,28.366v -9.12178" fill="none" stroke="black"/>
<path d="M234.528,23.8051v -4.56089" fill="none" stroke="black"/>
<path d="M243.486,23.8051v -4.56089" fill="none" stroke="black"/>
<path d="M252.443,23.8051v -4.56089" fill="none" stroke="black"/>
<path d="M261.401,23.8051v -4.56089" fill="none" stroke="black"/>
<path d="M270.358,28.366v -9.12178" fill="none" stroke="black"/>
<path d="M279.316,23.8051v -4.56089" fill="none" stroke="black"/>
<path d="M288.273,23.8051v -4.56089" fill="none" stroke="black"/>
<path d="M297.231,23.8051v -4.56089" fill="none" stroke="black"/>
<path d="M306.188,23.8051v -4.56089" fill="none" stroke="black"/>
<path d="M315.146,28.366v -9.12178" fill="none" stroke="black"/>
<path d="M324.103,23.8051v -4.56089" fill="none" stroke="black"/>
<path d="M333.061,23.8051v -4.56089" fill="none" stroke="black"/>
<path d="M342.018,23.8051v -4.56089" fill="none" stroke="black"/>
<path d="M350.976,23.8051v -4.56089" fill="none" stroke="black"/>
<path d="M359.933,28.366v -9.12178" fill="none" stroke="black"/>
<path d="M368.891,23.8051v -4.56089" fill="none" stroke="black"/>
<path d="M377.848,23.8051v -4.56089" fill="none" stroke="black"/>
<path d="M386.806,23.8051v -4.56089" fill="none" stroke="black"/>
<path d="M395.763,23.8051v -4.56089" fill="none" stroke="black"/>
<path d="M404.72,28.366v -9.12178" fill="none" stroke="black"/>
<path d="M413.678,23.8051v -4.56089" fill="none" stroke="black"/>
<path d="M422.635,23.8051v -4.56089" fill="none" stroke="black"/>
<path d="M431.593,23.8051v -4.56089" fill="none" stroke="black"/>
<path d="M440.55,23.8051v -4.56089" fill="none" stroke="black"/>
<path d="M449.508,28.366v -9.12178" fill="none" stroke="black"/>
<path d="M458.465,23.8051v -4.56089" fill="none" stroke="black"/>
<path d="M467.423,23.8051v -4.56089" fill="none" stroke="black"/>
<path d="M476.38,23.8051v -4.56089" fill="none" stroke="black"/>
<path d="M485.338,23.8051v -4.56089" fill="none" stroke="black"/>
<path d="M494.295,28.366v -9.12178" fill="none" stroke="black"/>
<path d="M503.253,23.8051v -4.56089" fill="none" stroke="black"/>
<path d="M512.21,23.8051v -4.56089" fill="none" stroke="black"/>
<path d="M521.168,23.8051v -4.56089" fill="none" stroke="black"/>
<path d="M530.125,23.8051v -4.56089" fill="none" stroke="black"/>
<path d="M539.083,28.366v -9.12178" fill="none" stroke="black"/>
<path d="M91.2087,384.885v -365.641" fill="none" stroke="black"/>
<path d="M107.366,384.885h -16.1575" fill="none" stroke="black"/>
<path d="M99.2874,377.077h -8.07874" fill="none" stroke="black"/>
<path d="M99.2874,369.269h -8.07874" fill="none" stroke="black"/>
<path d="M99.2874,361.462h -8.07874" fill="none" stroke="black"/>
<path d="M107.366,353.654h -16.1575" fill="none" stroke="black"/>
<path d="M99.2874,345.846h -8.07874" fill="none" stroke="black"/>
<path d="M99.2874,338.038h -8.07874" fill="none" stroke="black"/>
<path d="M99.2874,330.23h -8.07874" fill="none" stroke="black"/>
<path d="M107.366,322.422h -16.1575" fill="none" stroke="black"/>
<path d="M99.2874,314.615h -8.07874" fill="none" stroke="black"/>
<path d="M99.2874,306.807h -8.07874" fill="none" stroke="black"/>
<path d="M99.2874,298.999h -8.07874" fill="none" stroke="black"/>
<path d="M107.366,291.191h -16.1575" fill="none" stroke="black"/>
<path d="M99.2874,283.383h -8.07874" fill="none" stroke="black"/>
<path d="M99.2874,275.575h -8.07874" fill="none" stroke="black"/>
<path d="M99.2874,267.768h -8.07874" fill="none" stroke="black"/>
<path d="M107.366,259.96h -16.1575" fill="none" stroke="black"/>
<path d="M99.2874,252.152h -8.07874" fill="none" stroke="black"/>
<path d="M99.2874,244.344h -8.07874" fill="none" stroke="black"/>
<path d="M99.2874,236.536h -8.07874" fill="none" stroke="black"/>
<path d="M107.366,228.728h -16.1575" fill="none" stroke="black"/>
<path d="M99.2874,220.921h -8.07874" fill="none" stroke="black"/>
<path d="M99.2874,213.113h -8.07874" fill="none" stroke="black"/>
<path d="M99.2874,205.305h -8.07874" fill="none" stroke="black"/>
<path d="M107.366,197.497h -16.1575" fill="none" stroke="black"/>
<path d="M99.2874,189.689h -8.07874" fill="none" stroke="black"/>
<path d="M99.2874,181.881h -8.07874" fill="none" stroke="black"/>
<path d="M99.2874,174.074h -8.07874" fill="none" stroke="black"/>
<path d="M107.366,166.266h -16.1575" fill="none" stroke="black"/>
<path d="M99.2874,158.458h -8.07874" fill="none" stroke="black"/>
<path d="M99.2874,150.65h -8.07874" fill="none" stroke="black"/>
<path d="M99.2874,142.842h -8.07874" fill="none" stroke="black"/>
<path d="M107.366,135.034h -16.1575" fill="none" stroke="black"/>
<path d="M99.2874,127.227h -8.07874" fill="none" stroke="black"/>
<path d="M99.2874,119.419h -8.07874" fill="none" stroke="black"/>
<path d="M99.2874,111.611h -8.07874" fill="none" stroke="black"/>
<path d="M107.366,103.803h -16.1575" fill="none" stroke="black"/>
<path d="M99.2874,95.9952h -8.07874" fill="none" stroke="black"/>
<path d="M99.2874,88.1874h -8.07874" fill="none" stroke="black"/>
<path d="M99.2874,80.3796h -8.07874" fill="none" stroke="black"/>
<path d="M107.366,72.5717h -16.1575" fill="none" stroke="black"/>
<path d="M99.2874,64.7639h -8.07874" fill="none" stroke="black"/>
<path d="M99.2874,56.9561h -8.07874" fill="none" stroke="black"/>
<path d="M99.2874,49.1483h -8.07874" fill="none" stroke="black"/>
<path d="M107.366,41.3404h -16.1575" fill="none" stroke="black"/>
<path d="M107.366,41.3404h -16.1575" fill="none" stroke="black"/>
<path d="M99.2874,33.5326h -8.07874" fill="none" stroke="black"/>
<path d="M99.2874,25.7248h -8.07874" fill="none" stroke="black"/>
<text xml:space="preserve" x="79.5567" y="385.312" fill="black" font-size="10.3085" font-family="Helvetica"> 
</text>
<text xml:space="preserve" x="77.42" y="357.536" fill="black" font-size="10.3085" font-family="Helvetica">20
</text>
<text xml:space="preserve" x="77.42" y="326.198" fill="black" font-size="10.3085" font-family="Helvetica">40
</text>
<text xml:space="preserve" x="77.42" y="294.86" fill="black" font-size="10.3085" font-family="Helvetica">60
</text>
<text xml:space="preserve" x="77.42" y="263.522" fill="black" font-size="10.3085" font-family="Helvetica">80
</text>
<text xml:space="preserve" x="71.7223" y="232.185" fill="black" font-size="10.3085" font-family="Helvetica">100
</text>
<text xml:space="preserve" x="71.7223" y="200.847" fill="black" font-size="10.3085" font-family="Helvetica">120
</text>
<text xml:space="preserve" x="71.7223" y="169.509" fill="black" font-size="10.3085" font-family="Helvetica">140
</text>
<text xml:space="preserve" x="71.7223" y="138.883" fill="black" font-size="10.3085" font-family="Helvetica">160
</text>
<text xml:space="preserve" x="71.7223" y="107.546" fill="black" font-size="10.3085" font-family="Helvetica">180
</text>
<text xml:space="preserve" x="71.7223" y="76.2078" fill="black" font-size="10.3085" font-family="Helvetica">200
</text>
<text xml:space="preserve" x="71.7223" y="44.87" fill="black" font-size="10.3085" font-family="Helvetica">220
</text>
<g transform="rotate(-90,59.6145,210.818)">
<text xml:space="preserve" x="59.6145" y="210.818" fill="black" font-size="13.578" font-family="Helvetica"> h1 and h2 gaussian histograms
</text>
</g>
<path d="M539.083,384.885v -365.641" fill="none" stroke="black"/>
<path d="M522.925,384.885h 16.1575" fill="none" stroke="black"/>
<path d="M531.004,377.077h 8.07874" fill="none" stroke="black"/>
<path d="M531.004,369.269h 8.07874" fill="none" stroke="black"/>
<path d="M531.004,361.462h 8.07874" fill="none" stroke="black"/>
<path d="M522.925,353.654h 16.1575" fill="none" stroke="black"/>
<path d="M531.004,345.846h 8.07874" fill="none" stroke="black"/>
<path d="M531.004,338.038h 8.07874" fill="none" stroke="black"/>
<path d="M531.004,330.23h 8.07874" fill="none" stroke="black"/>
<path d="M522.925,322.422h 16.1575" fill="none" stroke="black"/>
<path d="M531.004,314.615h 8.07874" fill="none" stroke="black"/>
<path d="M531.004,306.807h 8.07874" fill="none" stroke="black"/>
<path d="M531.004,298.999h 8.07874" fill="none" stroke="black"/>
<path d="M522.925,291.191h 16.1575" fill="none" stroke="black"/>
<path d="M531.004,283.383h 8.07874" fill="none" stroke="black"/>
<path d="M531.004,275.575h 8.07874" fill="none" stroke="black"/>
<path d="M531.004,267.768h 8.07874" fill="none" stroke="black"/>
<path d="M522.925,259.96h 16.1575" fill="none" stroke="black"/>
<path d="M531.004,252.152h 8.07874" fill="none" stroke="black"/>
<path d="M531.004,244.344h 8.07874" fill="none" stroke="black"/>
<path d="M531.004,236.536h 8.07874" fill="none" stroke="black"/>
<path d="M522.925,228.728h 16.1575" fill="none" stroke="black"/>
<path d="M531.004,220.921h 8.07874" fill="none" stroke="black"/>
<path d="M531.004,213.113h 8.07874" fill="none" stroke="black"/>
<path d="M531.004,205.305h 8.07874" fill="none" stroke="black"/>
<path d="M522.925,197.497h 16.1575" fill="none" stroke="black"/>
<path d="M531.004,189.689h 8.07874" fill="none" stroke="black"/>
<path d="M531.004,181.881h 8.07874" fill="none" stroke="black"/>
<path d="M531.004,174.074h 8.07874" fill="none" stroke="black"/>
<path d="M522.925,166.266h 16.1575" fill="none" stroke="black"/>
<path d="M531.004,158.458h 8.07874" fill="none" stroke="black"/>
<path d="M531.004,150.65h 8.07874" fill="none" stroke="black"/>
<path d="M531.004,142.842h 8.07874" fill="none" stroke="black"/>
<path d="M522.925,135.034h 16.1575" fill="none" stroke="black"/>
<path d="M531.004,127.227h 8.07874" fill="none" stroke="black"/>
<path d="M531.004,119.419h 8.07874" fill="none" stroke="black"/>
<path d="M531.004,111.611h 8.07874" fill="none" stroke="black"/>
<path d="M522.925,103.803h 16.1575" fill="none" stroke="black"/>
<path d="M531.004,95.9952h 8.07874" fill="none" stroke="black"/>
<path d="M531.004,88.1874h 8.07874" fill="none" stroke="black"/>
<path d="M531.004,80.3796h 8.07874" fill="none" stroke="black"/>
<path d="M522.925,72.5717h 16.1575" fill="none" stroke="black"/>
<path d="M531.004,64.7639h 8.07874" fill="none" stroke="black"/>
<path d="M531.004,56.9561h 8.07874" fill="none" stroke="black"/>
<path d="M531.004,49.1483h 8.07874" fill="none" stroke="black"/>
<path d="M522.925,41.3404h 16.1575" fill="none" stroke="black"/>
<path d="M522.925,41.3404h 16.1575" fill="none" stroke="black"/>
<path d="M531.004,33.5326h 8.07874" fill="none" stroke="black"/>
<path d="M531.004,25.7248h 8.07874" fill="none" stroke="black"/>
<path d="M91.2087,384.885h 71.6598v -1.56157h 13.4362v 1.56157h 4.47874v -6.24627h 8.95748v 3.12313h 4.47874v -12.4925h 4.47874v 7.80783h 4.47874v -7.80783h 4.47874v -3.12313h 4.47874v -6.24627h 4.47874v -17.1772h 4.47874v 9.3694h 4.47874v -24.9851h
 4.47874v 7.80783h 4.47874v -12.4925h 4.47874v -4.6847h 4.47874v -24.9851h 4.47874v -6.24627h 4.47874v 3.12313h 4.47874v -56.2164h 4.47874v -15.6157h 4.47874v -1.56157h 4.47874v -23.4235h 4.47874v -26.5466h 4.47874v -17.1772h 4.47874v 1.56157h
 4.47874v -51.5317h 4.47874v -3.12313h 4.47874v -15.6157h 4.47874v -9.3694h 4.47874v 6.24627h 4.47874v -7.80783h 4.47874v -1.56157h 4.47874v -6.24627h 4.47874v 20.3004h 4.47874v -17.1772h 4.47874v -1.56157h 4.47874v 67.1474h 4.47874v 7.80783h
 4.47874v 24.9851h 4.47874v 32.7929h 4.47874v 7.80783h 4.47874v 24.9851h 4.47874v -15.6157h 4.47874v 20.3004h 4.47874v 46.847h 4.47874v -6.24627h 4.47874v 9.3694h 4.47874v 28.1082h 4.47874v -10.931h 4.47874v 20.3004h 4.47874v 18.7388h 4.47874v
 1.56157h 4.47874v 9.3694h 4.47874v 21.8619h 4.47874v -14.0541h 4.47874v 15.6157h 4.47874v 1.56157h 4.47874v -7.80783h 4.47874v 9.3694h 4.47874v 6.24627h 4.47874v -4.6847h 4.47874v 3.12313h 4.47874v 3.12313h 4.47874v -3.12313h 4.47874v 1.56157h
 8.95748v 1.56157h 22.3937v -1.56157h 4.47874v 1.56157h 40.3087" fill="none" stroke="#ff0000" stroke-width="2"/>
<rect x="0.5" y="384.885" width="566.929" height="137.459" fill="white"/>
<rect x="91.2087" y="384.885" width="447.874" height="109.967" fill="white"/>
<rect x="91.2087" y="384.885" width="447.874" height="109.967" fill="none" stroke="black"/>
<path d="M91.2087,494.852h 447.874" fill="none" stroke="black"/>
<path d="M91.2087,384.885v 109.967" fill="none" stroke="black" stroke-dasharray=" 1, 2"/>
<path d="M135.996,384.885v 109.967" fill="none" stroke="black" stroke-dasharray=" 1, 2"/>
<path d="M180.783,384.885v 109.967" fill="none" stroke="black" stroke-dasharray=" 1, 2"/>
<path d="M225.571,384.885v 109.967" fill="none" stroke="black" stroke-dasharray=" 1, 2"/>
<path d="M270.358,384.885v 109.967" fill="none" stroke="black" stroke-dasharray=" 1, 2"/>
<path d="M315.146,384.885v 109.967" fill="none" stroke="black" stroke-dasharray=" 1, 2"/>
<path d="M359.933,384.885v 109.967" fill="none" stroke="black" stroke-dasharray=" 1, 2"/>
<path d="M404.72,384.885v 109.967" fill="none" stroke="black" stroke-dasharray=" 1, 2"/>
<path d="M449.508,384.885v 109.967" fill="none" stroke="black" stroke-dasharray=" 1, 2"/>
<path d="M494.295,384.885v 109.967" fill="none" stroke="black" stroke-dasharray=" 1, 2"/>
<path d="M539.083,384.885v 109.967" fill="none" stroke="black" stroke-dasharray=" 1, 2"/>
<path d="M91.2087,384.885h 447.874" fill="none" stroke="black"/>
<path d="M91.2087,494.852v -109.967" fill="none" stroke="black"/>
<path d="M539.083,494.852v -109.967" fill="none" stroke="black"/>
<path d="M205.417,494.852v -37.1392" fill="none" stroke="black" stroke-width="2"/>
<path d="M205.417,452.015v -67.1302" fill="none" stroke="black" stroke-width="2"/>
<g fill="black">
<rect x="201.998" y="451.445" width="6.83734" height="6.83734"/>
</g>
<path d="M214.374,494.852v -24.6429" fill="none" stroke="black" stroke-width="2"/>
<path d="M214.374,464.512v -64.518" fill="none" stroke="black" stroke-width="2"/>
<g fill="black">
<rect x="210.955" y="463.942" width="6.83734" height="6.83734"/>
</g>
<path d="M218.853,494.852v -0.113186" fill="none" stroke="black" stroke-width="2"/>
<path d="M218.853,489.041v -43.9423" fill="none" stroke="black" stroke-width="2"/>
<g fill="black">
<rect x="215.434" y="488.471" width="6.83734" height="6.83734"/>
</g>
<path d="M223.331,472.534v -71.9463" fill="none" stroke="black" stroke-width="2"/>
<path d="M223.331,394.889v -10.0044" fill="none" stroke="black" stroke-width="2"/>
<g fill="black">
<rect x="219.913" y="394.32" width="6.83734" height="6.83734"/>
</g>
<path d="M227.81,494.852v -20.9278" fill="none" stroke="black" stroke-width="2"/>
<path d="M227.81,468.227v -40.7993" fill="none" stroke="black" stroke-width="2"/>
<g fill="black">
<rect x="224.392" y="467.657" width="6.83734" height="6.83734"/>
</g>
<path d="M232.289,494.852v -12.1466" fill="none" stroke="black" stroke-width="2"/>
<path d="M232.289,477.008v -42.4231" fill="none" stroke="black" stroke-width="2"/>
<g fill="black">
<rect x="228.87" y="476.438" width="6.83734" height="6.83734"/>
</g>
<path d="M236.768,491.248v -43.5323" fill="none" stroke="black" stroke-width="2"/>
<path d="M236.768,442.018v -43.5323" fill="none" stroke="black" stroke-width="2"/>
<g fill="black">
<rect x="233.349" y="441.448" width="6.83734" height="6.83734"/>
</g>
<path d="M241.246,470.669v -45.5042" fill="none" stroke="black" stroke-width="2"/>
<path d="M241.246,419.467v -34.5818" fill="none" stroke="black" stroke-width="2"/>
<g fill="black">
<rect x="237.828" y="418.897" width="6.83734" height="6.83734"/>
</g>
<path d="M245.725,491.676v -33.9631" fill="none" stroke="black" stroke-width="2"/>
<path d="M245.725,452.015v -33.9631" fill="none" stroke="black" stroke-width="2"/>
<g fill="black">
<rect x="242.307" y="451.445" width="6.83734" height="6.83734"/>
</g>
<path d="M250.204,468.475v -36.1517" fill="none" stroke="black" stroke-width="2"/>
<path d="M250.204,426.626v -36.1517" fill="none" stroke="black" stroke-width="2"/>
<g fill="black">
<rect x="246.785" y="426.056" width="6.83734" height="6.83734"/>
</g>
<path d="M254.683,437.159v -41.7229" fill="none" stroke="black" stroke-width="2"/>
<path d="M254.683,389.739v -4.85373" fill="none" stroke="black" stroke-width="2"/>
<g fill="black">
<rect x="251.264" y="389.169" width="6.83734" height="6.83734"/>
</g>
<path d="M259.161,492.768v -24.7485" fill="none" stroke="black" stroke-width="2"/>
<path d="M259.161,462.321v -24.7485" fill="none" stroke="black" stroke-width="2"/>
<g fill="black">
<rect x="255.743" y="461.752" width="6.83734" height="6.83734"/>
</g>
<path d="M263.64,477.168v -25.0605" fill="none" stroke="black" stroke-width="2"/>
<path d="M263.64,446.409v -25.0605" fill="none" stroke="black" stroke-width="2"/>
<g fill="black">
<rect x="260.221" y="445.84" width="6.83734" height="6.83734"/>
</g>
<path d="M268.119,460.451v -26.8046" fill="none" stroke="black" stroke-width="2"/>
<path d="M268.119,427.948v -26.8046" fill="none" stroke="black" stroke-width="2"/>
<g fill="black">
<rect x="264.7" y="427.379" width="6.83734" height="6.83734"/>
</g>
<path d="M272.598,471.537v -23.5775" fill="none" stroke="black" stroke-width="2"/>
<path d="M272.598,442.262v -23.5775" fill="none" stroke="black" stroke-width="2"/>
<g fill="black">
<rect x="269.179" y="441.692" width="6.83734" height="6.83734"/>
</g>
<path d="M277.076,476.161v -21.3044" fill="none" stroke="black" stroke-width="2"/>
<path d="M277.076,449.159v -21.3044" fill="none" stroke="black" stroke-width="2"/>
<g fill="black">
<rect x="273.658" y="448.589" width="6.83734" height="6.83734"/>
</g>
<path d="M281.555,485.132v -19.4747" fill="none" stroke="black" stroke-width="2"/>
<path d="M281.555,459.96v -19.4747" fill="none" stroke="black" stroke-width="2"/>
<g fill="black">
<rect x="278.136" y="459.39" width="6.83734" height="6.83734"/>
</g>
<path d="M286.034,481.603v -19.8916" fill="none" stroke="black" stroke-width="2"/>
<path d="M286.034,456.014v -19.8916" fill="none" stroke="black" stroke-width="2"/>
<g fill="black">
<rect x="282.615" y="455.444" width="6.83734" height="6.83734"/>
</g>
<path d="M290.513,494.852v -16.3803" fill="none" stroke="black" stroke-width="2"/>
<path d="M290.513,472.774v -16.4179" fill="none" stroke="black" stroke-width="2"/>
<g fill="black">
<rect x="287.094" y="472.204" width="6.83734" height="6.83734"/>
</g>
<path d="M294.991,490.596v -16.6712" fill="none" stroke="black" stroke-width="2"/>
<path d="M294.991,468.227v -16.6712" fill="none" stroke="black" stroke-width="2"/>
<g fill="black">
<rect x="291.573" y="467.657" width="6.83734" height="6.83734"/>
</g>
<path d="M299.47,469.428v -17.8665" fill="none" stroke="black" stroke-width="2"/>
<path d="M299.47,445.863v -17.8665" fill="none" stroke="black" stroke-width="2"/>
<g fill="black">
<rect x="296.051" y="445.293" width="6.83734" height="6.83734"/>
</g>
<path d="M303.949,479.41v -16.7229" fill="none" stroke="black" stroke-width="2"/>
<path d="M303.949,456.989v -16.7229" fill="none" stroke="black" stroke-width="2"/>
<g fill="black">
<rect x="300.53" y="456.419" width="6.83734" height="6.83734"/>
</g>
<path d="M308.428,475.948v -17.2201" fill="none" stroke="black" stroke-width="2"/>
<path d="M308.428,453.03v -17.2201" fill="none" stroke="black" stroke-width="2"/>
<g fill="black">
<rect x="305.009" y="452.46" width="6.83734" height="6.83734"/>
</g>
<path d="M312.906,474.759v -17.0459" fill="none" stroke="black" stroke-width="2"/>
<path d="M312.906,452.015v -17.0459" fill="none" stroke="black" stroke-width="2"/>
<g fill="black">
<rect x="309.488" y="451.445" width="6.83734" height="6.83734"/>
</g>
<path d="M317.385,494.852v -9.56119" fill="none" stroke="black" stroke-width="2"/>
<path d="M317.385,479.593v -14.9307" fill="none" stroke="black" stroke-width="2"/>
<g fill="black">
<rect x="313.966" y="479.023" width="6.83734" height="6.83734"/>
</g>
<path d="M321.864,460.199v -17.94" fill="none" stroke="black" stroke-width="2"/>
<path d="M321.864,436.561v -17.94" fill="none" stroke="black" stroke-width="2"/>
<g fill="black">
<rect x="318.445" y="435.991" width="6.83734" height="6.83734"/>
</g>
<path d="M326.343,477.069v -17.2949" fill="none" stroke="black" stroke-width="2"/>
<path d="M326.343,454.076v -17.2949" fill="none" stroke="black" stroke-width="2"/>
<g fill="black">
<rect x="322.924" y="453.507" width="6.83734" height="6.83734"/>
</g>
<path d="M330.821,494.852v -14.7068" fill="none" stroke="black" stroke-width="2"/>
<path d="M330.821,474.448v -15.2295" fill="none" stroke="black" stroke-width="2"/>
<g fill="black">
<rect x="327.403" y="473.878" width="6.83734" height="6.83734"/>
</g>
<path d="M335.3,494.852v -13.8452" fill="none" stroke="black" stroke-width="2"/>
<path d="M335.3,475.309v -15.1212" fill="none" stroke="black" stroke-width="2"/>
<g fill="black">
<rect x="331.881" y="474.739" width="6.83734" height="6.83734"/>
</g>
<path d="M339.779,490.504v -18.0716" fill="none" stroke="black" stroke-width="2"/>
<path d="M339.779,466.735v -18.0716" fill="none" stroke="black" stroke-width="2"/>
<g fill="black">
<rect x="336.36" y="466.165" width="6.83734" height="6.83734"/>
</g>
<path d="M344.257,480.835v -19.3256" fill="none" stroke="black" stroke-width="2"/>
<path d="M344.257,455.812v -19.3256" fill="none" stroke="black" stroke-width="2"/>
<g fill="black">
<rect x="340.839" y="455.242" width="6.83734" height="6.83734"/>
</g>
<path d="M348.736,467.046v -22.0048" fill="none" stroke="black" stroke-width="2"/>
<path d="M348.736,439.343v -22.0048" fill="none" stroke="black" stroke-width="2"/>
<g fill="black">
<rect x="345.318" y="438.773" width="6.83734" height="6.83734"/>
</g>
<path d="M353.215,449.194v -26.1809" fill="none" stroke="black" stroke-width="2"/>
<path d="M353.215,417.315v -26.1809" fill="none" stroke="black" stroke-width="2"/>
<g fill="black">
<rect x="349.796" y="416.745" width="6.83734" height="6.83734"/>
</g>
<path d="M357.694,460.908v -25.6017" fill="none" stroke="black" stroke-width="2"/>
<path d="M357.694,429.608v -25.6017" fill="none" stroke="black" stroke-width="2"/>
<g fill="black">
<rect x="354.275" y="429.038" width="6.83734" height="6.83734"/>
</g>
<path d="M362.172,440.201v -30.4734" fill="none" stroke="black" stroke-width="2"/>
<path d="M362.172,404.03v -19.1445" fill="none" stroke="black" stroke-width="2"/>
<g fill="black">
<rect x="358.754" y="403.46" width="6.83734" height="6.83734"/>
</g>
<path d="M366.651,483.458v -23.9272" fill="none" stroke="black" stroke-width="2"/>
<path d="M366.651,453.833v -23.9272" fill="none" stroke="black" stroke-width="2"/>
<g fill="black">
<rect x="363.233" y="453.263" width="6.83734" height="6.83734"/>
</g>
<path d="M371.13,494.852v -2.09808" fill="none" stroke="black" stroke-width="2"/>
<path d="M371.13,487.056v -22.0554" fill="none" stroke="black" stroke-width="2"/>
<g fill="black">
<rect x="367.711" y="486.487" width="6.83734" height="6.83734"/>
</g>
<path d="M375.609,453.003v -37.0684" fill="none" stroke="black" stroke-width="2"/>
<path d="M375.609,410.237v -25.3517" fill="none" stroke="black" stroke-width="2"/>
<g fill="black">
<rect x="372.19" y="409.667" width="6.83734" height="6.83734"/>
</g>
<path d="M380.087,494.852v -8.97857" fill="none" stroke="black" stroke-width="2"/>
<path d="M380.087,480.176v -27.1403" fill="none" stroke="black" stroke-width="2"/>
<g fill="black">
<rect x="376.669" y="479.606" width="6.83734" height="6.83734"/>
</g>
<path d="M384.566,455.171v -37.4456" fill="none" stroke="black" stroke-width="2"/>
<path d="M384.566,412.027v -27.1421" fill="none" stroke="black" stroke-width="2"/>
<g fill="black">
<rect x="381.147" y="411.457" width="6.83734" height="6.83734"/>
</g>
<path d="M389.045,470.912v -42.977" fill="none" stroke="black" stroke-width="2"/>
<path d="M389.045,422.237v -37.3519" fill="none" stroke="black" stroke-width="2"/>
<g fill="black">
<rect x="385.626" y="421.667" width="6.83734" height="6.83734"/>
</g>
<path d="M393.524,494.852v -0.113186" fill="none" stroke="black" stroke-width="2"/>
<path d="M393.524,489.041v -30.2375" fill="none" stroke="black" stroke-width="2"/>
<g fill="black">
<rect x="390.105" y="488.471" width="6.83734" height="6.83734"/>
</g>
<path d="M398.002,494.852v -3.00302" fill="none" stroke="black" stroke-width="2"/>
<path d="M398.002,486.151v -35.6098" fill="none" stroke="black" stroke-width="2"/>
<g fill="black">
<rect x="394.584" y="485.582" width="6.83734" height="6.83734"/>
</g>
<path d="M402.481,494.852v -37.1392" fill="none" stroke="black" stroke-width="2"/>
<path d="M402.481,452.015v -49.658" fill="none" stroke="black" stroke-width="2"/>
<g fill="black">
<rect x="399.062" y="451.445" width="6.83734" height="6.83734"/>
</g>
<path d="M406.96,494.852v -1.43555" fill="none" stroke="black" stroke-width="2"/>
<path d="M406.96,487.719v -43.3692" fill="none" stroke="black" stroke-width="2"/>
<g fill="black">
<rect x="403.541" y="487.149" width="6.83734" height="6.83734"/>
</g>
<path d="M411.439,494.852v -18.9628" fill="none" stroke="black" stroke-width="2"/>
<path d="M411.439,470.192v -53.3084" fill="none" stroke="black" stroke-width="2"/>
<g fill="black">
<rect x="408.02" y="469.622" width="6.83734" height="6.83734"/>
</g>
<path d="M420.396,494.852v -13.6168" fill="none" stroke="black" stroke-width="2"/>
<path d="M420.396,475.538v -59.6464" fill="none" stroke="black" stroke-width="2"/>
<g fill="black">
<rect x="416.977" y="474.968" width="6.83734" height="6.83734"/>
</g>
<path d="M438.311,494.852v -37.1392" fill="none" stroke="black" stroke-width="2"/>
<path d="M438.311,452.015v -67.1302" fill="none" stroke="black" stroke-width="2"/>
<g fill="black">
<rect x="434.892" y="451.445" width="6.83734" height="6.83734"/>
</g>
<path d="M496.535,494.852v -37.1392" fill="none" stroke="black" stroke-width="2"/>
<path d="M496.535,452.015v -67.1302" fill="none" stroke="black" stroke-width="2"/>
<g fill="black">
<rect x="493.116" y="451.445" width="6.83734" height="6.83734"/>
</g>
<path d="M91.2087,494.852h 447.874" fill="none" stroke="black"/>
<path d="M91.2087,491.594v 3.25778" fill="none" stroke="black"/>
<path d="M100.166,493.223v 1.62889" fill="none" stroke="black"/>
<path d="M109.124,493.223v 1.62889" fill="none" stroke="black"/>
<path d="M118.081,493.223v 1.62889" fill="none" stroke="black"/>
<path d="M127.039,493.223v 1.62889" fill="none" stroke="black"/>
<path d="M135.996,491.594v 3.25778" fill="none" stroke="black"/>
<path d="M144.954,493.223v 1.62889" fill="none" stroke="black"/>
<path d="M153.911,493.223v 1.62889" fill="none" stroke="black"/>
<path d="M162.868,493.223v 1.62889" fill="none" stroke="black"/>
<path d="M171.826,493.223v 1.62889" fill="none" stroke="black"/>
<path d="M180.783,491.594v 3.25778" fill="none" stroke="black"/>
<path d="M189.741,493.223v 1.62889" fill="none" stroke="black"/>
<path d="M198.698,493.223v 1.62889" fill="none" stroke="black"/>
<path d="M207.656,493.223v 1.62889" fill="none" stroke="black"/>
<path d="M216.613,493.223v 1.62889" fill="none" stroke="black"/>
<path d="M225.571,491.594v 3.25778" fill="none" stroke="black"/>
<path d="M234.528,493.223v 1.62889" fill="none" stroke="black"/>
<path d="M243.486,493.223v 1.62889" fill="none" stroke="black"/>
<path d="M252.443,493.223v 1.62889" fill="none" stroke="black"/>
<path d="M261.401,493.223v 1.62889" fill="none" stroke="black"/>
<path d="M270.358,491.594v 3.25778" fill="none" stroke="black"/>
<path d="M279.316,493.223v 1.62889" fill="none" stroke="black"/>
<path d="M288.273,493.223v 1.62889" fill="none" stroke="black"/>
<path d="M297.231,493.223v 1.62889" fill="none" stroke="black"/>
<path d="M306.188,493.223v 1.62889" fill="none" stroke="black"/>
<path d="M315.146,491.594v 3.25778" fill="none" stroke="black"/>
<path d="M324.103,493.223v 1.62889" fill="none" stroke="black"/>
<path d="M333.061,493.223v 1.62889" fill="none" stroke="black"/>
<path d="M342.018,493.223v 1.62889" fill="none" stroke="black"/>
<path d="M350.976,493.223v 1.62889" fill="none" stroke="black"/>
<path d="M359.933,491.594v 3.25778" fill="none" stroke="black"/>
<path d="M368.891,493.223v 1.62889" fill="none" stroke="black"/>
<path d="M377.848,493.223v 1.62889" fill="none" stroke="black"/>
<path d="M386.806,493.223v 1.62889" fill="none" stroke="black"/>
<path d="M395.763,493.223v 1.62889" fill="none" stroke="black"/>
<path d="M404.72,491.594v 3.25778" fill="none" stroke="black"/>
<path d="M413.678,493.223v 1.62889" fill="none" stroke="black"/>
<path d="M422.635,493.223v 1.62889" fill="none" stroke="black"/>
<path d="M431.593,493.223v 1.62889" fill="none" stroke="black"/>
<path d="M440.55,493.223v 1.62889" fill="none" stroke="black"/>
<path d="M449.508,491.594v 3.25778" fill="none" stroke="black"/>
<path d="M458.465,493.223v 1.62889" fill="none" stroke="black"/>
<path d="M467.423,493.223v 1.62889" fill="none" stroke="black"/>
<path d="M476.38,493.223v 1.62889" fill="none" stroke="black"/>
<path d="M485.338,493.223v 1.62889" fill="none" stroke="black"/>
<path d="M494.295,491.594v 3.25778" fill="none" stroke="black"/>
<path d="M503.253,493.223v 1.62889" fill="none" stroke="black"/>
<path d="M512.21,493.223v 1.62889" fill="none" stroke="black"/>
<path d="M521.168,493.223v 1.62889" fill="none" stroke="black"/>
<path d="M530.125,493.223v 1.62889" fill="none" stroke="black"/>
<path d="M539.083,491.594v 3.25778" fill="none" stroke="black"/>
<text xml:space="preserve" x="90.24" y="504.254" fill="black" font-size="10.3012" font-family="Helvetica">5
</text>
<text xml:space="preserve" x="85.2545" y="504.254" fill="black" font-size="10.3012" font-family="Times">&#8722;
</text>
<text xml:space="preserve" x="135.11" y="504.254" fill="black" font-size="10.3012" font-family="Helvetica">4
</text>
<text xml:space="preserve" x="130.124" y="504.254" fill="black" font-size="10.3012" font-family="Times">&#8722;
</text>
<text xml:space="preserve" x="179.98" y="504.254" fill="black" font-size="10.3012" font-family="Helvetica">3
</text>
<text xml:space="preserve" x="174.995" y="504.254" fill="black" font-size="10.3012" font-family="Times">&#8722;
</text>
<text xml:space="preserve" x="224.85" y="504.254" fill="black" font-size="10.3012" font-family="Helvetica">2
</text>
<text xml:space="preserve" x="219.865" y="504.254" fill="black" font-size="10.3012" font-family="Times">&#8722;
</text>
<text xml:space="preserve" x="271.145" y="504.254" fill="black" font-size="10.3012" font-family="Helvetica">1
</text>
<text xml:space="preserve" x="265.447" y="504.254" fill="black" font-size="10.3012" font-family="Times">&#8722;
</text>
<text xml:space="preserve" x="312.453" y="504.254" fill="black" font-size="10.3012" font-family="Helvetica">0
</text>
<text xml:space="preserve" x="358.036" y="504.254" fill="black" font-size="10.3012" font-family="Helvetica">1
</text>
<text xml:space="preserve" x="402.194" y="504.254" fill="black" font-size="10.3012" font-family="Helvetica">2
</text>
<text xml:space="preserve" x="446.351" y="504.254" fill="black" font-size="10.3012" font-family="Helvetica">3
</text>
<text xml:space="preserve" x="491.221" y="504.254" fill="black" font-size="10.3012" font-family="Helvetica">4
</text>
<text xml:space="preserve" x="536.091" y="504.254" fill="black" font-size="10.3012" font-family="Helvetica">5
</text>
<text xml:space="preserve" x="507.602" y="522.771" fill="black" font-size="13.5683" font-family="Helvetica">x title
</text>
<path d="M91.2087,384.885h 447.874" fill="none" stroke="black"/>
<path d="M91.2087,388.143v -3.25778" fill="none" stroke="black"/>
<path d="M100.166,386.514v -1.62889" fill="none" stroke="black"/>
<path d="M109.124,386.514v -1.62889" fill="none" stroke="black"/>
<path d="M118.081,386.514v -1.62889" fill="none" stroke="black"/>
<path d="M127.039,386.514v -1.62889" fill="none" stroke="black"/>
<path d="M135.996,388.143v -3.25778" fill="none" stroke="black"/>
<path d="M144.954,386.514v -1.62889" fill="none" stroke="black"/>
<path d="M153.911,386.514v -1.62889" fill="none" stroke="black"/>
<path d="M162.868,386.514v -1.62889" fill="none" stroke="black"/>
<path d="M171.826,386.514v -1.62889" fill="none" stroke="black"/>
<path d="M180.783,388.143v -3.25778" fill="none" stroke="black"/>
<path d="M189.741,386.514v -1.62889" fill="none" stroke="black"/>
<path d="M198.698,386.514v -1.62889" fill="none" stroke="black"/>
<path d="M207.656,386.514v -1.62889" fill="none" stroke="black"/>
<path d="M216.613,386.514v -1.62889" fill="none" stroke="black"/>
<path d="M225.571,388.143v -3.25778" fill="none" stroke="black"/>
<path d="M234.528,386.514v -1.62889" fill="none" stroke="black"/>
<path d="M243.486,386.514v -1.62889" fill="none" stroke="black"/>
<path d="M252.443,386.514v -1.62889" fill="none" stroke="black"/>
<path d="M261.401,386.514v -1.62889" fill="none" stroke="black"/>
<path d="M270.358,388.143v -3.25778" fill="none" stroke="black"/>
<path d="M279.316,386.514v -1.62889" fill="none" stroke="black"/>
<path d="M288.273,386.514v -1.62889" fill="none" stroke="black"/>
<path d="M297.231,386.514v -1.62889" fill="none" stroke="black"/>
<path d="M306.188,386.514v -1.62889" fill="none" stroke="black"/>
<path d="M315.146,388.143v -3.25778" fill="none" stroke="black"/>
<path d="M324.103,386.514v -1.62889" fill="none" stroke="black"/>
<path d="M333.061,386.514v -1.62889" fill="none" stroke="black"/>
<path d="M342.018,386.514v -1.62889" fill="none" stroke="black"/>
<path d="M350.976,386.514v -1.62889" fill="none" stroke="black"/>
<path d="M359.933,388.143v -3.25778" fill="none" stroke="black"/>
<path d="M368.891,386.514v -1.62889" fill="none" stroke="black"/>
<path d="M377.848,386.514v -1.62889" fill="none" stroke="black"/>
<path d="M386.806,386.514v -1.62889" fill="none" stroke="black"/>
<path d="M395.763,386.514v -1.62889" fill="none" stroke="black"/>
<path d="M404.72,388.143v -3.25778" fill="none" stroke="black"/>
<path d="M413.678,386.514v -1.62889" fill="none" stroke="black"/>
<path d="M422.635,386.514v -1.62889" fill="none" stroke="black"/>
<path d="M431.593,386.514v -1.62889" fill="none" stroke="black"/>
<path d="M440.55,386.514v -1.62889" fill="none" stroke="black"/>
<path d="M449.508,388.143v -3.25778" fill="none" stroke="black"/>
<path d="M458.465,386.514v -1.62889" fill="none" stroke="black"/>
<path d="M467.423,386.514v -1.62889" fill="none" stroke="black"/>
<path d="M476.38,386.514v -1.62889" fill="none" stroke="black"/>
<path d="M485.338,386.514v -1.62889" fill="none" stroke="black"/>
<path d="M494.295,388.143v -3.25778" fill="none" stroke="black"/>
<path d="M503.253,386.514v -1.62889" fill="none" stroke="black"/>
<path d="M512.21,386.514v -1.62889" fill="none" stroke="black"/>
<path d="M521.168,386.514v -1.62889" fill="none" stroke="black"/>
<path d="M530.125,386.514v -1.62889" fill="none" stroke="black"/>
<path d="M539.083,388.143v -3.25778" fill="none" stroke="black"/>
<path d="M91.2087,494.852v -109.967" fill="none" stroke="black"/>
<path d="M104.815,494.852h -13.6063" fill="none" stroke="black"/>
<path d="M98.0118,484.855h -6.80315" fill="none" stroke="black"/>
<path d="M98.0118,474.858h -6.80315" fill="none" stroke="black"/>
<path d="M98.0118,464.861h -6.80315" fill="none" stroke="black"/>
<path d="M104.815,454.864h -13.6063" fill="none" stroke="black"/>
<path d="M98.0118,444.867h -6.80315" fill="none" stroke="black"/>
<path d="M98.0118,434.87h -6.80315" fill="none" stroke="black"/>
<path d="M98.0118,424.873h -6.80315" fill="none" stroke="black"/>
<path d="M104.815,414.876h -13.6063" fill="none" stroke="black"/>
<path d="M104.815,414.876h -13.6063" fill="none" stroke="black"/>
<path d="M98.0118,404.879h -6.80315" fill="none" stroke="black"/>
<path d="M98.0118,394.882h -6.80315" fill="none" stroke="black"/>
<text xml:space="preserve" x="79.5567" y="495.707" fill="black" font-size="10.3012" font-family="Helvetica"> 
</text>
<text xml:space="preserve" x="84.5423" y="459.384" fill="black" font-size="10.3012" font-family="Helvetica">1
</text>
<text xml:space="preserve" x="74.5711" y="419.499" fill="black" font-size="10.3012" font-family="Helvetica">1.2
</text>
<g transform="rotate(-90,61.0389,459.384)">
<text xml:space="preserve" x="61.0389" y="459.384" fill="black" font-size="13.5683" font-family="Helvetica">ratio h1/h2 
</text>
</g>
<path d="M539.083,494.852v -109.967" fill="none" stroke="black"/>
<path d="M525.476,494.852h 13.6063" fill="none" stroke="black"/>
<path d="M532.28,484.855h 6.80315" fill="none" stroke="black"/>
<path d="M532.28,474.858h 6.80315" fill="none" stroke="black"/>
<path d="M532.28,464.861h 6.80315" fill="none" stroke="black"/>
<path d="M525.476,454.864h 13.6063" fill="none" stroke="black"/>
<path d="M532.28,444.867h 6.80315" fill="none" stroke="black"/>
<path d="M532.28,434.87h 6.80315" fill="none" stroke="black"/>
<path d="M532.28,424.873h 6.80315" fill="none" stroke="black"/>
<path d="M525.476,414.876h 13.6063" fill="none" stroke="black"/>
<path d="M525.476,414.876h 13.6063" fill="none" stroke="black"/>
<path d="M532.28,404.879h 6.80315" fill="none" stroke="black"/>
<path d="M532.28,394.882h 6.80315" fill="none" stroke="black"/></svg>
