<?xml version="1.0" standalone="no"?>
<svg width="567.429" height="692.78" viewBox="0 0 567.429 692.78" xmlns="http://www.w3.org/2000/svg" shape-rendering="crispEdges">
<title>
./old_svg_ref/rebin.svg
</title>
<desc>
Creator: ROOT Version 6.33.01
CreationDate: Wed Jul 10 10:03:10 2024</desc>
<defs>
</defs>
<rect x="0.5" y="0" width="566.929" height="692.28" fill="white"/>
<rect x="6.16929" y="6.9228" width="555.591" height="216.914" fill="white"/>
<rect x="95.0638" y="17.7685" width="438.917" height="171.362" fill="white"/>
<rect x="95.0638" y="17.7685" width="438.917" height="171.362" fill="none" stroke="black"/>
<path d="M95.0638,184.331h 4.38917v 4.80007h 17.5567v -4.80007h 4.38917v 4.80007h 4.38917v -4.80007h 4.38917v 4.80007h 4.38917v -4.80007h 8.77833v -4.80007h 4.38917v 4.80007h 4.38917v -4.80007h 4.38917v 4.80007h 4.38917v -4.80007h 4.38917v -28.8004h
 4.38917v 24.0003h 4.38917v -14.4002h 4.38917v 9.60014h 8.77833v -9.60014h 4.38917v -4.80007h 4.38917v -9.60014h 4.38917v 33.6005h 4.38917v -52.8008h 4.38917v 24.0003h 4.38917v 4.80007h 4.38917v -52.8008h 4.38917v 52.8008h 4.38917v -57.6008h 4.38917v
 33.6005h 4.38917v -4.80007h 4.38917v 4.80007h 4.38917v 4.80007h 4.38917v -33.6005h 4.38917v 14.4002h 4.38917v -4.80007h 8.77833v -14.4002h 4.38917v -4.80007h 4.38917v -9.60014h 4.38917v -4.80007h 4.38917v 33.6005h 4.38917v -33.6005h 4.38917v
 -4.80007h 4.38917v 43.2006h 4.38917v -38.4005h 4.38917v -19.2003h 4.38917v -33.6005h 4.38917v 52.8008h 4.38917v 9.60014h 4.38917v -28.8004h 4.38917v 28.8004h 4.38917v 4.80007h 4.38917v -43.2006h 4.38917v 9.60014h 4.38917v -33.6005h 4.38917v 48.0007h
 4.38917v 9.60014h 4.38917v 4.80007h 4.38917v 9.60014h 4.38917v 4.80007h 4.38917v 48.0007h 4.38917v -52.8008h 4.38917v 14.4002h 4.38917v 24.0003h 4.38917v -19.2003h 4.38917v 4.80007h 4.38917v 14.4002h 8.77833v 9.60014h 4.38917v 19.2003h 4.38917v
 9.60014h 8.77833v -28.8004h 4.38917v 14.4002h 4.38917v -4.80007h 8.77833v -14.4002h 4.38917v 14.4002h 4.38917v 24.0003h 4.38917v 9.60014h 4.38917v -14.4002h 4.38917v -9.60014h 4.38917v 4.80007h 4.38917v 4.80007h 4.38917v 14.4002h 4.38917v -9.60014h
 8.77833v 9.60014h 4.38917v -4.80007h 8.77833v -9.60014h 4.38917v 14.4002h 13.1675v -4.80007h 4.38917v 4.80007h 4.38917v -14.4002h 4.38917" fill="none" stroke="black" stroke-width="2"/>
<path d="M95.0638,189.131h 438.917" fill="none" stroke="black"/>
<path d="M95.0638,183.99v 5.14087" fill="none" stroke="black"/>
<path d="M109.694,186.561v 2.57044" fill="none" stroke="black"/>
<path d="M124.325,186.561v 2.57044" fill="none" stroke="black"/>
<path d="M138.955,186.561v 2.57044" fill="none" stroke="black"/>
<path d="M153.586,186.561v 2.57044" fill="none" stroke="black"/>
<path d="M168.217,183.99v 5.14087" fill="none" stroke="black"/>
<path d="M182.847,186.561v 2.57044" fill="none" stroke="black"/>
<path d="M197.478,186.561v 2.57044" fill="none" stroke="black"/>
<path d="M212.108,186.561v 2.57044" fill="none" stroke="black"/>
<path d="M226.739,186.561v 2.57044" fill="none" stroke="black"/>
<path d="M241.369,183.99v 5.14087" fill="none" stroke="black"/>
<path d="M256,186.561v 2.57044" fill="none" stroke="black"/>
<path d="M270.63,186.561v 2.57044" fill="none" stroke="black"/>
<path d="M285.261,186.561v 2.57044" fill="none" stroke="black"/>
<path d="M299.891,186.561v 2.57044" fill="none" stroke="black"/>
<path d="M314.522,183.99v 5.14087" fill="none" stroke="black"/>
<path d="M329.153,186.561v 2.57044" fill="none" stroke="black"/>
<path d="M343.783,186.561v 2.57044" fill="none" stroke="black"/>
<path d="M358.414,186.561v 2.57044" fill="none" stroke="black"/>
<path d="M373.044,186.561v 2.57044" fill="none" stroke="black"/>
<path d="M387.675,183.99v 5.14087" fill="none" stroke="black"/>
<path d="M402.305,186.561v 2.57044" fill="none" stroke="black"/>
<path d="M416.936,186.561v 2.57044" fill="none" stroke="black"/>
<path d="M431.566,186.561v 2.57044" fill="none" stroke="black"/>
<path d="M446.197,186.561v 2.57044" fill="none" stroke="black"/>
<path d="M460.828,183.99v 5.14087" fill="none" stroke="black"/>
<path d="M475.458,186.561v 2.57044" fill="none" stroke="black"/>
<path d="M490.089,186.561v 2.57044" fill="none" stroke="black"/>
<path d="M504.719,186.561v 2.57044" fill="none" stroke="black"/>
<path d="M519.35,186.561v 2.57044" fill="none" stroke="black"/>
<path d="M533.98,183.99v 5.14087" fill="none" stroke="black"/>
<path d="M533.98,183.99v 5.14087" fill="none" stroke="black"/>
<text xml:space="preserve" x="94.5134" y="198.71" fill="black" font-size="10.4502" font-family="Helvetica">3
</text>
<text xml:space="preserve" x="89.5278" y="198.71" fill="black" font-size="10.4502" font-family="Times">&#8722;
</text>
<text xml:space="preserve" x="167.16" y="198.71" fill="black" font-size="10.4502" font-family="Helvetica">2
</text>
<text xml:space="preserve" x="162.175" y="198.71" fill="black" font-size="10.4502" font-family="Times">&#8722;
</text>
<text xml:space="preserve" x="241.943" y="198.71" fill="black" font-size="10.4502" font-family="Helvetica">1
</text>
<text xml:space="preserve" x="236.246" y="198.71" fill="black" font-size="10.4502" font-family="Times">&#8722;
</text>
<text xml:space="preserve" x="311.741" y="198.71" fill="black" font-size="10.4502" font-family="Helvetica">0
</text>
<text xml:space="preserve" x="385.812" y="198.71" fill="black" font-size="10.4502" font-family="Helvetica">1
</text>
<text xml:space="preserve" x="457.747" y="198.71" fill="black" font-size="10.4502" font-family="Helvetica">2
</text>
<text xml:space="preserve" x="531.106" y="198.71" fill="black" font-size="10.4502" font-family="Helvetica">3
</text>
<path d="M95.0638,17.7685h 438.917" fill="none" stroke="black"/>
<path d="M95.0638,22.9094v -5.14087" fill="none" stroke="black"/>
<path d="M109.694,20.339v -2.57044" fill="none" stroke="black"/>
<path d="M124.325,20.339v -2.57044" fill="none" stroke="black"/>
<path d="M138.955,20.339v -2.57044" fill="none" stroke="black"/>
<path d="M153.586,20.339v -2.57044" fill="none" stroke="black"/>
<path d="M168.217,22.9094v -5.14087" fill="none" stroke="black"/>
<path d="M182.847,20.339v -2.57044" fill="none" stroke="black"/>
<path d="M197.478,20.339v -2.57044" fill="none" stroke="black"/>
<path d="M212.108,20.339v -2.57044" fill="none" stroke="black"/>
<path d="M226.739,20.339v -2.57044" fill="none" stroke="black"/>
<path d="M241.369,22.9094v -5.14087" fill="none" stroke="black"/>
<path d="M256,20.339v -2.57044" fill="none" stroke="black"/>
<path d="M270.63,20.339v -2.57044" fill="none" stroke="black"/>
<path d="M285.261,20.339v -2.57044" fill="none" stroke="black"/>
<path d="M299.891,20.339v -2.57044" fill="none" stroke="black"/>
<path d="M314.522,22.9094v -5.14087" fill="none" stroke="black"/>
<path d="M329.153,20.339v -2.57044" fill="none" stroke="black"/>
<path d="M343.783,20.339v -2.57044" fill="none" stroke="black"/>
<path d="M358.414,20.339v -2.57044" fill="none" stroke="black"/>
<path d="M373.044,20.339v -2.57044" fill="none" stroke="black"/>
<path d="M387.675,22.9094v -5.14087" fill="none" stroke="black"/>
<path d="M402.305,20.339v -2.57044" fill="none" stroke="black"/>
<path d="M416.936,20.339v -2.57044" fill="none" stroke="black"/>
<path d="M431.566,20.339v -2.57044" fill="none" stroke="black"/>
<path d="M446.197,20.339v -2.57044" fill="none" stroke="black"/>
<path d="M460.828,22.9094v -5.14087" fill="none" stroke="black"/>
<path d="M475.458,20.339v -2.57044" fill="none" stroke="black"/>
<path d="M490.089,20.339v -2.57044" fill="none" stroke="black"/>
<path d="M504.719,20.339v -2.57044" fill="none" stroke="black"/>
<path d="M519.35,20.339v -2.57044" fill="none" stroke="black"/>
<path d="M533.98,22.9094v -5.14087" fill="none" stroke="black"/>
<path d="M533.98,22.9094v -5.14087" fill="none" stroke="black"/>
<path d="M95.0638,189.131v -171.362" fill="none" stroke="black"/>
<path d="M108.231,189.131h -13.1675" fill="none" stroke="black"/>
<path d="M101.648,184.331h -6.58375" fill="none" stroke="black"/>
<path d="M101.648,179.531h -6.58375" fill="none" stroke="black"/>
<path d="M101.648,174.731h -6.58375" fill="none" stroke="black"/>
<path d="M101.648,169.931h -6.58375" fill="none" stroke="black"/>
<path d="M108.231,165.131h -13.1675" fill="none" stroke="black"/>
<path d="M101.648,160.331h -6.58375" fill="none" stroke="black"/>
<path d="M101.648,155.53h -6.58375" fill="none" stroke="black"/>
<path d="M101.648,150.73h -6.58375" fill="none" stroke="black"/>
<path d="M101.648,145.93h -6.58375" fill="none" stroke="black"/>
<path d="M108.231,141.13h -13.1675" fill="none" stroke="black"/>
<path d="M101.648,136.33h -6.58375" fill="none" stroke="black"/>
<path d="M101.648,131.53h -6.58375" fill="none" stroke="black"/>
<path d="M101.648,126.73h -6.58375" fill="none" stroke="black"/>
<path d="M101.648,121.93h -6.58375" fill="none" stroke="black"/>
<path d="M108.231,117.13h -13.1675" fill="none" stroke="black"/>
<path d="M101.648,112.33h -6.58375" fill="none" stroke="black"/>
<path d="M101.648,107.53h -6.58375" fill="none" stroke="black"/>
<path d="M101.648,102.73h -6.58375" fill="none" stroke="black"/>
<path d="M101.648,97.9297h -6.58375" fill="none" stroke="black"/>
<path d="M108.231,93.1296h -13.1675" fill="none" stroke="black"/>
<path d="M101.648,88.3295h -6.58375" fill="none" stroke="black"/>
<path d="M101.648,83.5295h -6.58375" fill="none" stroke="black"/>
<path d="M101.648,78.7294h -6.58375" fill="none" stroke="black"/>
<path d="M101.648,73.9293h -6.58375" fill="none" stroke="black"/>
<path d="M108.231,69.1293h -13.1675" fill="none" stroke="black"/>
<path d="M101.648,64.3292h -6.58375" fill="none" stroke="black"/>
<path d="M101.648,59.5291h -6.58375" fill="none" stroke="black"/>
<path d="M101.648,54.7291h -6.58375" fill="none" stroke="black"/>
<path d="M101.648,49.929h -6.58375" fill="none" stroke="black"/>
<path d="M108.231,45.1289h -13.1675" fill="none" stroke="black"/>
<path d="M101.648,40.3288h -6.58375" fill="none" stroke="black"/>
<path d="M101.648,35.5288h -6.58375" fill="none" stroke="black"/>
<path d="M101.648,30.7287h -6.58375" fill="none" stroke="black"/>
<path d="M101.648,25.9286h -6.58375" fill="none" stroke="black"/>
<path d="M108.231,21.1286h -13.1675" fill="none" stroke="black"/>
<path d="M108.231,21.1286h -13.1675" fill="none" stroke="black"/>
<text xml:space="preserve" x="86.6789" y="193.012" fill="black" font-size="10.4502" font-family="Helvetica">0
</text>
<text xml:space="preserve" x="86.6789" y="168.797" fill="black" font-size="10.4502" font-family="Helvetica">5
</text>
<text xml:space="preserve" x="81.6934" y="144.581" fill="black" font-size="10.4502" font-family="Helvetica">10
</text>
<text xml:space="preserve" x="81.6934" y="120.366" fill="black" font-size="10.4502" font-family="Helvetica">15
</text>
<text xml:space="preserve" x="81.6934" y="96.8623" fill="black" font-size="10.4502" font-family="Helvetica">20
</text>
<text xml:space="preserve" x="81.6934" y="72.6467" fill="black" font-size="10.4502" font-family="Helvetica">25
</text>
<text xml:space="preserve" x="81.6934" y="48.4311" fill="black" font-size="10.4502" font-family="Helvetica">30
</text>
<text xml:space="preserve" x="81.6934" y="24.9278" fill="black" font-size="10.4502" font-family="Helvetica">35
</text>
<path d="M533.98,189.131v -171.362" fill="none" stroke="black"/>
<path d="M520.813,189.131h 13.1675" fill="none" stroke="black"/>
<path d="M527.397,184.331h 6.58375" fill="none" stroke="black"/>
<path d="M527.397,179.531h 6.58375" fill="none" stroke="black"/>
<path d="M527.397,174.731h 6.58375" fill="none" stroke="black"/>
<path d="M527.397,169.931h 6.58375" fill="none" stroke="black"/>
<path d="M520.813,165.131h 13.1675" fill="none" stroke="black"/>
<path d="M527.397,160.331h 6.58375" fill="none" stroke="black"/>
<path d="M527.397,155.53h 6.58375" fill="none" stroke="black"/>
<path d="M527.397,150.73h 6.58375" fill="none" stroke="black"/>
<path d="M527.397,145.93h 6.58375" fill="none" stroke="black"/>
<path d="M520.813,141.13h 13.1675" fill="none" stroke="black"/>
<path d="M527.397,136.33h 6.58375" fill="none" stroke="black"/>
<path d="M527.397,131.53h 6.58375" fill="none" stroke="black"/>
<path d="M527.397,126.73h 6.58375" fill="none" stroke="black"/>
<path d="M527.397,121.93h 6.58375" fill="none" stroke="black"/>
<path d="M520.813,117.13h 13.1675" fill="none" stroke="black"/>
<path d="M527.397,112.33h 6.58375" fill="none" stroke="black"/>
<path d="M527.397,107.53h 6.58375" fill="none" stroke="black"/>
<path d="M527.397,102.73h 6.58375" fill="none" stroke="black"/>
<path d="M527.397,97.9297h 6.58375" fill="none" stroke="black"/>
<path d="M520.813,93.1296h 13.1675" fill="none" stroke="black"/>
<path d="M527.397,88.3295h 6.58375" fill="none" stroke="black"/>
<path d="M527.397,83.5295h 6.58375" fill="none" stroke="black"/>
<path d="M527.397,78.7294h 6.58375" fill="none" stroke="black"/>
<path d="M527.397,73.9293h 6.58375" fill="none" stroke="black"/>
<path d="M520.813,69.1293h 13.1675" fill="none" stroke="black"/>
<path d="M527.397,64.3292h 6.58375" fill="none" stroke="black"/>
<path d="M527.397,59.5291h 6.58375" fill="none" stroke="black"/>
<path d="M527.397,54.7291h 6.58375" fill="none" stroke="black"/>
<path d="M527.397,49.929h 6.58375" fill="none" stroke="black"/>
<path d="M520.813,45.1289h 13.1675" fill="none" stroke="black"/>
<path d="M527.397,40.3288h 6.58375" fill="none" stroke="black"/>
<path d="M527.397,35.5288h 6.58375" fill="none" stroke="black"/>
<path d="M527.397,30.7287h 6.58375" fill="none" stroke="black"/>
<path d="M527.397,25.9286h 6.58375" fill="none" stroke="black"/>
<path d="M520.813,21.1286h 13.1675" fill="none" stroke="black"/>
<path d="M520.813,21.1286h 13.1675" fill="none" stroke="black"/>
<rect x="6.16929" y="237.683" width="555.591" height="216.914" fill="white"/>
<rect x="95.0638" y="248.529" width="438.917" height="171.362" fill="white"/>
<rect x="95.0638" y="248.529" width="438.917" height="171.362" fill="none" stroke="black"/>
<path d="M95.0638,367.09h 21.9458v 4.80007h 8.77833v -4.80007h 8.77833v 33.6005h 4.38917v -19.2003h 4.38917v 19.2003h 4.38917v -33.6005h 4.38917v 26.4004h 2.19458v 2.40003h 2.19458v -52.8008h 4.38917v 31.2004h 2.19458v 28.8004h 2.19458v 12.0002h
 1.09729v -14.4002h 0.548646v 16.8002h 0.548646v -14.4002h 0.548646v 4.80007h 0.548646v -2.40003h 0.548646v 9.60014h 0.548646v -24.0003h 1.46306v -4.80007h 1.46306v -9.60014h 1.46306v 26.4004h 0.731528v -12.0002h 0.731528v 12.0002h 0.731528v 7.2001h
 0.731528v -4.80007h 0.731528v 9.60014h 0.731528v -28.8004h 1.09729v 14.4002h 1.09729v -14.4002h 1.09729v 16.8002h 2.19458v -9.60014h 2.19458v -4.80007h 1.09729v 24.0003h 0.731528v -14.4002h 0.731528v -7.2001h 0.731528v 4.80007h 0.731528v -4.80007h
 0.731528v 2.40003h 0.731528v 2.40003h 0.627024v 9.60014h 0.627024v -12.0002h 0.627024v 14.4002h 0.627024v -14.4002h 0.627024v 16.8002h 0.627024v -2.40003h 0.627024v 4.80007h 0.487685v -16.8002h 0.487685v 7.2001h 0.97537v 2.40003h 0.487685v -7.2001h
 0.97537v 2.40003h 0.487685v -4.80007h 0.487685v -67.201h 2.19458v 2.40003h 2.19458v 79.2011h 0.337628v -2.40003h 0.337628v 2.40003h 0.675256v -2.40003h 0.337628v -14.4002h 0.337628v 9.60014h 0.337628v 2.40003h 0.337628v -2.40003h 0.337628v -4.80007h
 0.337628v 12.0002h 0.337628v -2.40003h 0.337628v -7.2001h 0.886274v -12.0002h 0.548646v 12.0002h 0.548646v -14.4002h 0.548646v 21.6003h 0.548646v -12.0002h 0.548646v 2.40003h 0.548646v 4.80007h 0.548646v -16.8002h 1.25405v -2.40003h 1.25405v
 12.0002h 0.627024v -4.80007h 0.627024v 7.2001h 0.627024v 16.8002h 0.243843v -2.40003h 0.243843v 4.80007h 0.243843v -2.40003h 0.487685v -16.8002h 0.243843v 9.60014h 0.243843v -2.40003h 0.243843v 7.2001h 0.243843v -12.0002h 0.243843v 7.2001h 0.243843v
 -4.80007h 0.243843v -9.60014h 0.243843v 12.0002h 0.243843v 4.80007h 0.487685v -7.2001h 0.243843v 12.0002h 0.243843v -24.0003h 0.627024v -19.2003h 0.627024v 14.4002h 0.627024v -4.80007h 0.627024v -14.4002h 1.25405v 19.2003h 0.627024v 9.60014h
 0.231009v 12.0002h 0.462017v -4.80007h 0.231009v 2.40003h 0.231009v 2.40003h 0.231009v 2.40003h 0.231009v -4.80007h 0.231009v 9.60014h 0.231009v -14.4002h 0.231009v 14.4002h 0.231009v -19.2003h 0.231009v 2.40003h 0.231009v 2.40003h 0.231009v 7.2001h
 0.231009v -4.80007h 0.231009v 2.40003h 0.231009v -4.80007h 0.462017v -14.4002h 0.365764v -2.40003h 0.365764v 16.8002h 0.365764v -26.4004h 0.365764v 19.2003h 0.365764v 14.4002h 0.365764v -19.2003h 0.731528v 2.40003h 0.365764v -9.60014h 0.365764v
 14.4002h 0.365764v -7.2001h 0.365764v 16.8002h 0.337628v -24.0003h 0.337628v 14.4002h 0.337628v -16.8002h 0.337628v 9.60014h 0.337628v 7.2001h 0.337628v 12.0002h 0.337628v -12.0002h 0.337628v 9.60014h 0.337628v -9.60014h 0.337628v 4.80007h 0.337628v
 -14.4002h 0.337628v 4.80007h 0.337628v -4.80007h 0.365764v 2.40003h 0.365764v 7.2001h 0.365764v -12.0002h 0.365764v 7.2001h 0.365764v 12.0002h 0.365764v -14.4002h 0.731528v 4.80007h 0.365764v -9.60014h 0.365764v 21.6003h 0.365764v -40.8006h
 0.365764v 19.2003h 0.399015v 2.40003h 0.399015v 14.4002h 0.399015v -14.4002h 0.399015v -9.60014h 0.399015v 4.80007h 0.399015v 9.60014h 0.399015v -19.2003h 0.399015v 2.40003h 0.399015v 2.40003h 0.399015v 21.6003h 0.399015v 7.2001h 0.243843v 2.40003h
 0.243843v -9.60014h 0.243843v -7.2001h 0.243843v 12.0002h 0.243843v -16.8002h 0.243843v 2.40003h 0.243843v -4.80007h 0.243843v 14.4002h 0.243843v -2.40003h 0.243843v 7.2001h 0.243843v -7.2001h 0.243843v -2.40003h 0.243843v 2.40003h 0.243843v
 -7.2001h 0.243843v 9.60014h 0.243843v -7.2001h 0.243843v 9.60014h 0.243843v -7.2001h 0.292611v 2.40003h 0.292611v 12.0002h 0.292611v -4.80007h 0.292611v 2.40003h 0.292611v -28.8004h 0.292611v 19.2003h 0.292611v -4.80007h 0.292611v 2.40003h 0.292611v
 -2.40003h 0.292611v 9.60014h 0.292611v -21.6003h 0.292611v 9.60014h 0.585222v 9.60014h 0.292611v 4.80007h 0.274323v -19.2003h 0.274323v 2.40003h 0.274323v 16.8002h 0.274323v -14.4002h 0.274323v 9.60014h 0.274323v 4.80007h 0.548646v 4.80007h
 0.274323v -19.2003h 0.274323v 9.60014h 0.274323v -9.60014h 0.274323v 4.80007h 0.274323v -4.80007h 0.548646v 4.80007h 0.274323v 12.0002h 0.274323v -21.6003h 0.274323v 7.2001h 0.274323v 7.2001h 0.274323v -7.2001h 0.274323v -9.60014h 0.274323v 7.2001h
 0.274323v -7.2001h 0.274323v 19.2003h 0.274323v 7.2001h 0.274323v -19.2003h 0.274323v -4.80007h 0.274323v 2.40003h 0.274323v 19.2003h 0.274323v -7.2001h 0.274323v 2.40003h 0.274323v -2.40003h 0.231009v 4.80007h 0.231009v 4.80007h 0.231009v -12.0002h
 0.231009v 2.40003h 0.231009v 4.80007h 0.231009v -16.8002h 0.231009v 12.0002h 0.231009v -7.2001h 0.693026v 4.80007h 0.231009v 2.40003h 0.231009v -2.40003h 0.231009v -9.60014h 0.231009v -21.6003h 0.231009v 36.0005h 0.231009v -2.40003h 0.231009v
 4.80007h 0.231009v -2.40003h 0.658375v -16.8002h 0.219458v 4.80007h 0.219458v 21.6003h 0.219458v -19.2003h 0.219458v 12.0002h 0.219458v -7.2001h 0.219458v -2.40003h 0.219458v 4.80007h 0.219458v -12.0002h 0.219458v 9.60014h 0.219458v 4.80007h
 0.219458v -9.60014h 0.219458v 4.80007h 0.219458v -2.40003h 0.438917v -7.2001h 0.219458v 19.2003h 0.418966v -26.4004h 0.199508v 21.6003h 0.199508v -4.80007h 0.199508v -2.40003h 0.199508v 2.40003h 0.399015v 9.60014h 0.199508v 9.60014h 0.199508v
 -31.2004h 0.199508v -4.80007h 0.199508v 12.0002h 0.199508v 12.0002h 0.199508v -9.60014h 0.199508v -9.60014h 0.199508v 14.4002h 0.199508v 4.80007h 0.199508v 4.80007h 0.199508v -9.60014h 0.199508v -2.40003h 0.199508v -2.40003h 0.199508v 12.0002h
 0.199508v -4.80007h 0.190833v -4.80007h 0.190833v 2.40003h 0.190833v -9.60014h 0.190833v 2.40003h 0.190833v 9.60014h 0.381667v 2.40003h 0.190833v -12.0002h 0.190833v 9.60014h 0.381667v 4.80007h 0.190833v -2.40003h 0.190833v -4.80007h 0.381667v
 2.40003h 0.5725v -7.2001h 0.190833v -4.80007h 0.190833v 12.0002h 0.190833v -7.2001h 0.190833v 7.2001h 0.190833v -14.4002h 0.274323v -7.2001h 0.274323v -14.4002h 0.274323v 31.2004h 0.274323v -19.2003h 0.274323v 24.0003h 0.274323v -33.6005h 0.274323v
 16.8002h 0.548646v -4.80007h 0.274323v 7.2001h 0.274323v -4.80007h 0.274323v -4.80007h 0.274323v 4.80007h 0.548646v 12.0002h 0.274323v 4.80007h 0.190833v -2.40003h 0.381667v 4.80007h 0.190833v -9.60014h 0.190833v 9.60014h 0.190833v -4.80007h
 0.190833v -2.40003h 0.190833v -2.40003h 0.190833v 7.2001h 0.381667v -12.0002h 0.190833v 12.0002h 0.190833v -7.2001h 0.190833v 12.0002h 0.190833v -12.0002h 0.190833v 14.4002h 0.381667v -7.2001h 0.190833v 2.40003h 0.190833v -9.60014h 0.190833v
 -4.80007h 0.190833v 4.80007h 0.190833v 14.4002h 0.182882v -9.60014h 0.182882v -4.80007h 0.182882v 24.0003h 0.182882v -19.2003h 0.182882v -7.2001h 0.182882v 4.80007h 0.182882v 4.80007h 0.182882v -9.60014h 0.182882v 9.60014h 0.365764v 2.40003h
 0.182882v 9.60014h 0.182882v -2.40003h 0.182882v -21.6003h 0.182882v 12.0002h 0.365764v -7.2001h 0.182882v 2.40003h 0.182882v -7.2001h 0.182882v -4.80007h 0.182882v 26.4004h 0.182882v -7.2001h 0.365764v -38.4005h 0.292611v 21.6003h 0.292611v
 24.0003h 0.292611v -38.4005h 0.292611v 7.2001h 0.292611v 2.40003h 0.292611v 7.2001h 0.292611v 2.40003h 0.292611v -19.2003h 0.292611v 7.2001h 0.292611v 4.80007h 0.585222v -4.80007h 0.292611v 9.60014h 0.292611v 4.80007h 0.292611v 4.80007h 0.190833v
 7.2001h 0.190833v -19.2003h 0.190833v 16.8002h 0.190833v -24.0003h 0.190833v 26.4004h 0.190833v 2.40003h 0.190833v 2.40003h 0.190833v -24.0003h 0.190833v 9.60014h 0.190833v -4.80007h 0.190833v 21.6003h 0.190833v -24.0003h 0.190833v -4.80007h
 0.190833v 21.6003h 0.381667v -9.60014h 0.190833v 4.80007h 0.190833v -9.60014h 0.190833v 2.40003h 0.190833v 12.0002h 0.190833v 2.40003h 0.190833v -19.2003h 0.190833v 19.2003h 0.162562v 2.40003h 0.162562v -16.8002h 0.162562v 4.80007h 0.162562v
 9.60014h 0.162562v -12.0002h 0.162562v 7.2001h 0.162562v 2.40003h 0.325123v 4.80007h 0.162562v -19.2003h 0.162562v 7.2001h 0.325123v 7.2001h 0.162562v -7.2001h 0.325123v 12.0002h 0.162562v -9.60014h 0.162562v 9.60014h 0.162562v 2.40003h 0.162562v
 -7.2001h 0.162562v -4.80007h 0.162562v 9.60014h 0.162562v -4.80007h 0.162562v -14.4002h 0.162562v 7.2001h 0.162562v 4.80007h 0.162562v 12.0002h 0.129093v -16.8002h 0.129093v 12.0002h 0.129093v -21.6003h 0.129093v 12.0002h 0.258186v 16.8002h
 0.129093v -19.2003h 0.129093v 9.60014h 0.129093v -14.4002h 0.129093v 12.0002h 0.129093v -4.80007h 0.129093v 7.2001h 0.258186v -16.8002h 0.129093v 19.2003h 0.129093v -19.2003h 0.129093v 12.0002h 0.129093v 7.2001h 0.129093v -7.2001h 0.258186v 7.2001h
 0.129093v -14.4002h 0.129093v 14.4002h 0.129093v -7.2001h 0.129093v 7.2001h 0.129093v -2.40003h 0.258186v 7.2001h 0.129093v -2.40003h 0.129093v -2.40003h 0.129093v -7.2001h 0.129093v 7.2001h 0.129093v -12.0002h 0.129093v -7.2001h 0.190833v 2.40003h
 0.190833v 2.40003h 0.190833v -2.40003h 0.5725v 2.40003h 0.190833v 7.2001h 0.190833v 2.40003h 0.190833v -19.2003h 0.190833v 2.40003h 0.381667v 19.2003h 0.190833v -12.0002h 0.190833v 7.2001h 0.190833v -4.80007h 0.381667v -7.2001h 0.190833v 12.0002h
 0.190833v -16.8002h 0.190833v 26.4004h 0.190833v -7.2001h 0.381667v -9.60014h 0.209008v 4.80007h 0.209008v -4.80007h 0.418016v 4.80007h 0.209008v 2.40003h 0.209008v -7.2001h 0.418016v -4.80007h 0.209008v -2.40003h 0.209008v 19.2003h 0.209008v
 -2.40003h 0.209008v -14.4002h 0.209008v 14.4002h 0.209008v -16.8002h 0.209008v 4.80007h 0.209008v 7.2001h 0.209008v -7.2001h 0.209008v 2.40003h 0.209008v -28.8004h 0.209008v 26.4004h 0.37157v 2.40003h 0.162562v 9.60014h 0.162562v 2.40003h 0.162562v
 -12.0002h 0.487685v 12.0002h 0.162562v -7.2001h 0.162562v -2.40003h 0.162562v -7.2001h 0.162562v 2.40003h 0.162562v -4.80007h 0.162562v 24.0003h 0.162562v -9.60014h 0.162562v 2.40003h 0.162562v 4.80007h 0.162562v -7.2001h 0.162562v -9.60014h
 0.325123v 9.60014h 0.162562v -19.2003h 0.325123v 19.2003h 0.162562v 2.40003h 0.162562v -2.40003h 0.162562v -4.80007h 0.37157v -4.80007h 0.209008v -16.8002h 0.209008v 26.4004h 0.209008v -14.4002h 0.209008v 7.2001h 0.209008v 4.80007h 0.209008v
 -7.2001h 0.209008v 4.80007h 0.209008v -9.60014h 0.209008v 7.2001h 0.209008v -7.2001h 0.209008v 14.4002h 0.209008v -9.60014h 0.209008v -2.40003h 0.209008v -4.80007h 0.209008v 7.2001h 0.836031v -2.40003h 0.428466v 16.8002h 0.438917v -12.0002h
 0.219458v -9.60014h 0.219458v -12.0002h 0.219458v 21.6003h 0.219458v -12.0002h 0.219458v -2.40003h 0.219458v 16.8002h 0.219458v 4.80007h 0.219458v -16.8002h 0.219458v 9.60014h 0.219458v 14.4002h 0.219458v -14.4002h 0.219458v -2.40003h 0.219458v
 14.4002h 0.219458v -4.80007h 0.219458v -9.60014h 0.219458v 7.2001h 0.219458v 4.80007h 0.151351v 2.40003h 0.151351v -2.40003h 0.151351v -19.2003h 0.151351v 16.8002h 0.151351v 4.80007h 0.151351v 9.60014h 0.151351v -12.0002h 0.151351v 2.40003h
 0.151351v -12.0002h 0.151351v -4.80007h 0.151351v 9.60014h 0.151351v 14.4002h 0.151351v -14.4002h 0.151351v 9.60014h 0.151351v -24.0003h 0.151351v 19.2003h 0.151351v 7.2001h 0.151351v 2.40003h 0.151351v -7.2001h 0.151351v -4.80007h 0.151351v
 -4.80007h 0.151351v -2.40003h 0.151351v 2.40003h 0.151351v 7.2001h 0.151351v -7.2001h 0.151351v 2.40003h 0.302701v 2.40003h 0.151351v 9.60014h 0.162562v -7.2001h 0.162562v 2.40003h 0.162562v -12.0002h 0.162562v 4.80007h 0.325123v 9.60014h 0.162562v
 -12.0002h 0.487685v 2.40003h 0.162562v -14.4002h 0.162562v 4.80007h 0.162562v 12.0002h 0.325123v 7.2001h 0.325123v -12.0002h 0.162562v -4.80007h 0.162562v 12.0002h 0.162562v 2.40003h 0.162562v 4.80007h 0.162562v -14.4002h 0.162562v -2.40003h
 0.162562v 12.0002h 0.162562v -12.0002h 0.162562v 12.0002h 0.162562v 7.2001h 0.129093v -16.8002h 0.129093v 4.80007h 0.129093v 2.40003h 0.129093v -7.2001h 0.129093v 16.8002h 0.129093v -2.40003h 0.129093v -12.0002h 0.129093v 4.80007h 0.129093v -7.2001h
 0.129093v 16.8002h 0.129093v -19.2003h 0.129093v 7.2001h 0.129093v 7.2001h 0.129093v -19.2003h 0.129093v 21.6003h 0.129093v -4.80007h 0.129093v 4.80007h 0.129093v -2.40003h 0.129093v -14.4002h 0.129093v 14.4002h 0.129093v 2.40003h 0.258186v
 -4.80007h 0.129093v -4.80007h 0.129093v 9.60014h 0.129093v -7.2001h 0.129093v -7.2001h 0.129093v 12.0002h 0.129093v 2.40003h 0.129093v -2.40003h 0.129093v -12.0002h 0.129093v 4.80007h 0.129093v -12.0002h 0.129093v 19.2003h 0.182882v -14.4002h
 0.182882v 21.6003h 0.182882v -14.4002h 0.365764v -7.2001h 0.182882v 4.80007h 0.182882v 9.60014h 0.182882v -7.2001h 0.182882v 4.80007h 0.182882v -4.80007h 0.182882v 7.2001h 0.182882v -21.6003h 0.182882v 14.4002h 0.182882v 2.40003h 0.182882v -16.8002h
 0.182882v 19.2003h 0.182882v -2.40003h 0.182882v -7.2001h 0.182882v 4.80007h 0.182882v 4.80007h 0.182882v -16.8002h 0.182882v 9.60014h 0.182882v -4.80007h 0.182882v 2.40003h 0.199508v 4.80007h 0.199508v 14.4002h 0.199508v -14.4002h 0.199508v
 -2.40003h 0.199508v 2.40003h 0.199508v 2.40003h 0.399015v 7.2001h 0.199508v -12.0002h 0.199508v -21.6003h 0.199508v 7.2001h 0.199508v -2.40003h 0.199508v 28.8004h 0.199508v 4.80007h 0.199508v -7.2001h 0.199508v -7.2001h 0.399015v -2.40003h 0.199508v
 2.40003h 0.199508v 2.40003h 0.199508v -2.40003h 0.199508v -4.80007h 0.209008v -14.4002h 0.209008v 16.8002h 0.209008v 2.40003h 0.209008v -2.40003h 0.209008v 4.80007h 0.209008v 2.40003h 0.209008v 2.40003h 0.209008v -9.60014h 0.209008v -2.40003h
 0.209008v 12.0002h 0.209008v -7.2001h 0.209008v -7.2001h 0.209008v 19.2003h 0.209008v -26.4004h 0.209008v 16.8002h 0.209008v -4.80007h 0.209008v -14.4002h 0.209008v 14.4002h 0.418016v 4.80007h 0.440017v -21.6003h 0.231009v 28.8004h 0.231009v
 2.40003h 0.231009v -28.8004h 0.231009v 12.0002h 0.231009v 2.40003h 0.231009v -12.0002h 0.231009v 16.8002h 0.231009v -7.2001h 0.231009v -12.0002h 0.231009v 9.60014h 0.231009v 4.80007h 0.693026v -2.40003h 0.231009v -2.40003h 0.231009v 9.60014h
 0.462017v 4.80007h 0.243843v -14.4002h 0.243843v -9.60014h 0.243843v 14.4002h 0.243843v -7.2001h 0.487685v 9.60014h 0.243843v -9.60014h 0.243843v 9.60014h 0.243843v 9.60014h 0.243843v -19.2003h 0.243843v -9.60014h 0.243843v 14.4002h 0.243843v
 2.40003h 0.243843v -19.2003h 0.243843v 14.4002h 0.243843v 4.80007h 0.243843v -4.80007h 0.243843v -21.6003h 0.548646v 7.2001h 0.548646v -9.60014h 0.548646v 16.8002h 0.548646v -14.4002h 0.548646v -14.4002h 0.548646v 9.60014h 0.548646v 12.0002h
 0.548646v 31.2004h 0.231009v -7.2001h 0.462017v -9.60014h 0.231009v 14.4002h 0.231009v -7.2001h 0.231009v -14.4002h 0.231009v 9.60014h 0.231009v 9.60014h 0.231009v -12.0002h 0.231009v 4.80007h 0.231009v -7.2001h 0.231009v 21.6003h 0.231009v
 -19.2003h 0.231009v 9.60014h 0.462017v -4.80007h 0.231009v 4.80007h 0.231009v -2.40003h 0.231009v 2.40003h 0.274323v 7.2001h 0.274323v -24.0003h 0.274323v 14.4002h 0.274323v -4.80007h 0.274323v -12.0002h 0.274323v 21.6003h 0.274323v -19.2003h
 0.274323v 14.4002h 0.274323v -2.40003h 0.274323v 7.2001h 0.274323v -9.60014h 0.274323v 7.2001h 0.274323v -16.8002h 0.274323v 9.60014h 0.274323v -4.80007h 0.274323v -7.2001h 0.79803v 7.2001h 0.399015v 12.0002h 0.399015v -12.0002h 0.79803v 9.60014h
 0.399015v -9.60014h 0.399015v 7.2001h 0.399015v -16.8002h 0.399015v 2.40003h 0.399015v 16.8002h 0.292611v 4.80007h 0.292611v 2.40003h 0.292611v -21.6003h 0.292611v 2.40003h 0.292611v 2.40003h 0.292611v 7.2001h 0.292611v 2.40003h 0.292611v -2.40003h
 0.585222v 4.80007h 0.585222v 4.80007h 0.292611v -16.8002h 0.898734v 19.2003h 0.313512v -9.60014h 0.313512v -9.60014h 0.313512v -7.2001h 0.313512v 21.6003h 0.313512v -24.0003h 0.313512v 12.0002h 0.313512v 12.0002h 0.313512v 2.40003h 0.313512v
 -12.0002h 0.313512v -7.2001h 0.313512v 4.80007h 0.313512v 12.0002h 0.313512v -24.0003h 0.399015v 7.2001h 0.399015v -4.80007h 0.399015v 12.0002h 1.19705v 4.80007h 0.399015v -14.4002h 0.399015v 9.60014h 0.79803v -14.4002h 0.399015v 14.4002h 0.399015v
 16.8002h 0.399015v -16.8002h 0.399015v 2.40003h 0.399015v 9.60014h 0.399015v 2.40003h 0.399015v -9.60014h 0.79803v -12.0002h 0.399015v 7.2001h 0.399015v -16.8002h 0.399015v 14.4002h 0.487685v -2.40003h 0.97537v 2.40003h 0.487685v -12.0002h 0.487685v
 16.8002h 0.487685v -4.80007h 0.487685v 12.0002h 0.487685v -4.80007h 0.487685v -36.0005h 0.877833v 12.0002h 0.877833v 2.40003h 0.877833v -2.40003h 0.877833v -9.60014h 0.877833v -21.6003h 1.46306v -9.60014h 1.46306v 19.2003h 1.46306v -2.40003h
 1.46306v -9.60014h 1.46306v -4.80007h 1.46306v 55.2008h 0.97537v 2.40003h 0.487685v 9.60014h 0.487685v -12.0002h 0.487685v 2.40003h 0.487685v 9.60014h 0.487685v -14.4002h 0.487685v 14.4002h 0.487685v -7.2001h 0.731528v -9.60014h 0.731528v -9.60014h
 0.731528v 12.0002h 0.731528v 7.2001h 0.731528v -4.80007h 0.731528v 7.2001h 0.627024v -9.60014h 0.627024v 19.2003h 0.627024v -4.80007h 0.627024v -7.2001h 0.627024v 4.80007h 0.627024v -7.2001h 0.627024v -2.40003h 0.627024v 4.80007h 0.627024v -2.40003h
 0.627024v 7.2001h 0.627024v -2.40003h 0.627024v 4.80007h 0.627024v -4.80007h 0.627024v 4.80007h 0.438917v 4.80007h 0.438917v -4.80007h 0.438917v 4.80007h 0.877833v -24.0003h 0.438917v 26.4004h 0.438917v -4.80007h 0.438917v -14.4002h 0.438917v
 24.0003h 0.438917v -7.2001h 0.627024v -9.60014h 0.627024v -7.2001h 0.627024v 12.0002h 0.627024v -4.80007h 0.627024v 7.2001h 0.627024v 2.40003h 0.627024v -26.4004h 2.19458v -127.202h 6.58375v 136.802h 2.92611v 7.2001h 1.46306v 7.2001h 0.877833v
 -2.40003h 0.877833v 7.2001h 0.877833v -7.2001h 0.877833v -2.40003h 0.877833v 2.40003h 1.09729v -9.60014h 1.09729v 14.4002h 1.09729v -4.80007h 2.56035v -7.2001h 1.46306v -55.2008h 5.85222v 52.8008h 2.19458v 9.60014h 2.19458v -4.80007h 2.19458v
 -26.4004h 6.58375v 26.4004h 4.38917v -26.4004h 4.38917v 40.8006h 1.46306v -2.40003h 1.46306v -43.2006h 14.6306v 36.0005h 8.77833v 12.0002h 1.46306v 2.40003h 1.46306v -4.80007h 1.46306" fill="none" stroke="black" stroke-width="2"/>
<path d="M95.0638,419.891h 438.917" fill="none" stroke="black"/>
<path d="M95.0638,414.75v 5.14087" fill="none" stroke="black"/>
<path d="M109.694,417.321v 2.57044" fill="none" stroke="black"/>
<path d="M124.325,417.321v 2.57044" fill="none" stroke="black"/>
<path d="M138.955,417.321v 2.57044" fill="none" stroke="black"/>
<path d="M153.586,417.321v 2.57044" fill="none" stroke="black"/>
<path d="M168.217,414.75v 5.14087" fill="none" stroke="black"/>
<path d="M182.847,417.321v 2.57044" fill="none" stroke="black"/>
<path d="M197.478,417.321v 2.57044" fill="none" stroke="black"/>
<path d="M212.108,417.321v 2.57044" fill="none" stroke="black"/>
<path d="M226.739,417.321v 2.57044" fill="none" stroke="black"/>
<path d="M241.369,414.75v 5.14087" fill="none" stroke="black"/>
<path d="M256,417.321v 2.57044" fill="none" stroke="black"/>
<path d="M270.63,417.321v 2.57044" fill="none" stroke="black"/>
<path d="M285.261,417.321v 2.57044" fill="none" stroke="black"/>
<path d="M299.891,417.321v 2.57044" fill="none" stroke="black"/>
<path d="M314.522,414.75v 5.14087" fill="none" stroke="black"/>
<path d="M329.153,417.321v 2.57044" fill="none" stroke="black"/>
<path d="M343.783,417.321v 2.57044" fill="none" stroke="black"/>
<path d="M358.414,417.321v 2.57044" fill="none" stroke="black"/>
<path d="M373.044,417.321v 2.57044" fill="none" stroke="black"/>
<path d="M387.675,414.75v 5.14087" fill="none" stroke="black"/>
<path d="M402.305,417.321v 2.57044" fill="none" stroke="black"/>
<path d="M416.936,417.321v 2.57044" fill="none" stroke="black"/>
<path d="M431.566,417.321v 2.57044" fill="none" stroke="black"/>
<path d="M446.197,417.321v 2.57044" fill="none" stroke="black"/>
<path d="M460.828,414.75v 5.14087" fill="none" stroke="black"/>
<path d="M475.458,417.321v 2.57044" fill="none" stroke="black"/>
<path d="M490.089,417.321v 2.57044" fill="none" stroke="black"/>
<path d="M504.719,417.321v 2.57044" fill="none" stroke="black"/>
<path d="M519.35,417.321v 2.57044" fill="none" stroke="black"/>
<path d="M533.98,414.75v 5.14087" fill="none" stroke="black"/>
<text xml:space="preserve" x="94.5134" y="429.47" fill="black" font-size="10.4502" font-family="Helvetica">3
</text>
<text xml:space="preserve" x="89.5278" y="429.47" fill="black" font-size="10.4502" font-family="Times">&#8722;
</text>
<text xml:space="preserve" x="167.16" y="429.47" fill="black" font-size="10.4502" font-family="Helvetica">2
</text>
<text xml:space="preserve" x="162.175" y="429.47" fill="black" font-size="10.4502" font-family="Times">&#8722;
</text>
<text xml:space="preserve" x="241.943" y="429.47" fill="black" font-size="10.4502" font-family="Helvetica">1
</text>
<text xml:space="preserve" x="236.246" y="429.47" fill="black" font-size="10.4502" font-family="Times">&#8722;
</text>
<text xml:space="preserve" x="311.741" y="429.47" fill="black" font-size="10.4502" font-family="Helvetica">0
</text>
<text xml:space="preserve" x="385.812" y="429.47" fill="black" font-size="10.4502" font-family="Helvetica">1
</text>
<text xml:space="preserve" x="457.747" y="429.47" fill="black" font-size="10.4502" font-family="Helvetica">2
</text>
<text xml:space="preserve" x="531.106" y="429.47" fill="black" font-size="10.4502" font-family="Helvetica">3
</text>
<path d="M95.0638,248.529h 438.917" fill="none" stroke="black"/>
<path d="M95.0638,253.669v -5.14087" fill="none" stroke="black"/>
<path d="M109.694,251.099v -2.57044" fill="none" stroke="black"/>
<path d="M124.325,251.099v -2.57044" fill="none" stroke="black"/>
<path d="M138.955,251.099v -2.57044" fill="none" stroke="black"/>
<path d="M153.586,251.099v -2.57044" fill="none" stroke="black"/>
<path d="M168.217,253.669v -5.14087" fill="none" stroke="black"/>
<path d="M182.847,251.099v -2.57044" fill="none" stroke="black"/>
<path d="M197.478,251.099v -2.57044" fill="none" stroke="black"/>
<path d="M212.108,251.099v -2.57044" fill="none" stroke="black"/>
<path d="M226.739,251.099v -2.57044" fill="none" stroke="black"/>
<path d="M241.369,253.669v -5.14087" fill="none" stroke="black"/>
<path d="M256,251.099v -2.57044" fill="none" stroke="black"/>
<path d="M270.63,251.099v -2.57044" fill="none" stroke="black"/>
<path d="M285.261,251.099v -2.57044" fill="none" stroke="black"/>
<path d="M299.891,251.099v -2.57044" fill="none" stroke="black"/>
<path d="M314.522,253.669v -5.14087" fill="none" stroke="black"/>
<path d="M329.153,251.099v -2.57044" fill="none" stroke="black"/>
<path d="M343.783,251.099v -2.57044" fill="none" stroke="black"/>
<path d="M358.414,251.099v -2.57044" fill="none" stroke="black"/>
<path d="M373.044,251.099v -2.57044" fill="none" stroke="black"/>
<path d="M387.675,253.669v -5.14087" fill="none" stroke="black"/>
<path d="M402.305,251.099v -2.57044" fill="none" stroke="black"/>
<path d="M416.936,251.099v -2.57044" fill="none" stroke="black"/>
<path d="M431.566,251.099v -2.57044" fill="none" stroke="black"/>
<path d="M446.197,251.099v -2.57044" fill="none" stroke="black"/>
<path d="M460.828,253.669v -5.14087" fill="none" stroke="black"/>
<path d="M475.458,251.099v -2.57044" fill="none" stroke="black"/>
<path d="M490.089,251.099v -2.57044" fill="none" stroke="black"/>
<path d="M504.719,251.099v -2.57044" fill="none" stroke="black"/>
<path d="M519.35,251.099v -2.57044" fill="none" stroke="black"/>
<path d="M533.98,253.669v -5.14087" fill="none" stroke="black"/>
<path d="M95.0638,419.891v -171.362" fill="none" stroke="black"/>
<path d="M108.231,419.891h -13.1675" fill="none" stroke="black"/>
<path d="M101.648,415.091h -6.58375" fill="none" stroke="black"/>
<path d="M101.648,410.291h -6.58375" fill="none" stroke="black"/>
<path d="M101.648,405.491h -6.58375" fill="none" stroke="black"/>
<path d="M101.648,400.691h -6.58375" fill="none" stroke="black"/>
<path d="M108.231,395.891h -13.1675" fill="none" stroke="black"/>
<path d="M101.648,391.091h -6.58375" fill="none" stroke="black"/>
<path d="M101.648,386.291h -6.58375" fill="none" stroke="black"/>
<path d="M101.648,381.491h -6.58375" fill="none" stroke="black"/>
<path d="M101.648,376.69h -6.58375" fill="none" stroke="black"/>
<path d="M108.231,371.89h -13.1675" fill="none" stroke="black"/>
<path d="M101.648,367.09h -6.58375" fill="none" stroke="black"/>
<path d="M101.648,362.29h -6.58375" fill="none" stroke="black"/>
<path d="M101.648,357.49h -6.58375" fill="none" stroke="black"/>
<path d="M101.648,352.69h -6.58375" fill="none" stroke="black"/>
<path d="M108.231,347.89h -13.1675" fill="none" stroke="black"/>
<path d="M101.648,343.09h -6.58375" fill="none" stroke="black"/>
<path d="M101.648,338.29h -6.58375" fill="none" stroke="black"/>
<path d="M101.648,333.49h -6.58375" fill="none" stroke="black"/>
<path d="M101.648,328.69h -6.58375" fill="none" stroke="black"/>
<path d="M108.231,323.89h -13.1675" fill="none" stroke="black"/>
<path d="M101.648,319.09h -6.58375" fill="none" stroke="black"/>
<path d="M101.648,314.29h -6.58375" fill="none" stroke="black"/>
<path d="M101.648,309.49h -6.58375" fill="none" stroke="black"/>
<path d="M101.648,304.689h -6.58375" fill="none" stroke="black"/>
<path d="M108.231,299.889h -13.1675" fill="none" stroke="black"/>
<path d="M101.648,295.089h -6.58375" fill="none" stroke="black"/>
<path d="M101.648,290.289h -6.58375" fill="none" stroke="black"/>
<path d="M101.648,285.489h -6.58375" fill="none" stroke="black"/>
<path d="M101.648,280.689h -6.58375" fill="none" stroke="black"/>
<path d="M108.231,275.889h -13.1675" fill="none" stroke="black"/>
<path d="M101.648,271.089h -6.58375" fill="none" stroke="black"/>
<path d="M101.648,266.289h -6.58375" fill="none" stroke="black"/>
<path d="M101.648,261.489h -6.58375" fill="none" stroke="black"/>
<path d="M101.648,256.689h -6.58375" fill="none" stroke="black"/>
<path d="M108.231,251.889h -13.1675" fill="none" stroke="black"/>
<path d="M108.231,251.889h -13.1675" fill="none" stroke="black"/>
<text xml:space="preserve" x="86.6789" y="423.772" fill="black" font-size="10.4502" font-family="Helvetica">0
</text>
<text xml:space="preserve" x="81.6934" y="399.557" fill="black" font-size="10.4502" font-family="Helvetica">10
</text>
<text xml:space="preserve" x="81.6934" y="375.341" fill="black" font-size="10.4502" font-family="Helvetica">20
</text>
<text xml:space="preserve" x="81.6934" y="351.126" fill="black" font-size="10.4502" font-family="Helvetica">30
</text>
<text xml:space="preserve" x="81.6934" y="327.622" fill="black" font-size="10.4502" font-family="Helvetica">40
</text>
<text xml:space="preserve" x="81.6934" y="303.407" fill="black" font-size="10.4502" font-family="Helvetica">50
</text>
<text xml:space="preserve" x="81.6934" y="279.191" fill="black" font-size="10.4502" font-family="Helvetica">60
</text>
<text xml:space="preserve" x="81.6934" y="255.688" fill="black" font-size="10.4502" font-family="Helvetica">70
</text>
<path d="M533.98,419.891v -171.362" fill="none" stroke="black"/>
<path d="M520.813,419.891h 13.1675" fill="none" stroke="black"/>
<path d="M527.397,415.091h 6.58375" fill="none" stroke="black"/>
<path d="M527.397,410.291h 6.58375" fill="none" stroke="black"/>
<path d="M527.397,405.491h 6.58375" fill="none" stroke="black"/>
<path d="M527.397,400.691h 6.58375" fill="none" stroke="black"/>
<path d="M520.813,395.891h 13.1675" fill="none" stroke="black"/>
<path d="M527.397,391.091h 6.58375" fill="none" stroke="black"/>
<path d="M527.397,386.291h 6.58375" fill="none" stroke="black"/>
<path d="M527.397,381.491h 6.58375" fill="none" stroke="black"/>
<path d="M527.397,376.69h 6.58375" fill="none" stroke="black"/>
<path d="M520.813,371.89h 13.1675" fill="none" stroke="black"/>
<path d="M527.397,367.09h 6.58375" fill="none" stroke="black"/>
<path d="M527.397,362.29h 6.58375" fill="none" stroke="black"/>
<path d="M527.397,357.49h 6.58375" fill="none" stroke="black"/>
<path d="M527.397,352.69h 6.58375" fill="none" stroke="black"/>
<path d="M520.813,347.89h 13.1675" fill="none" stroke="black"/>
<path d="M527.397,343.09h 6.58375" fill="none" stroke="black"/>
<path d="M527.397,338.29h 6.58375" fill="none" stroke="black"/>
<path d="M527.397,333.49h 6.58375" fill="none" stroke="black"/>
<path d="M527.397,328.69h 6.58375" fill="none" stroke="black"/>
<path d="M520.813,323.89h 13.1675" fill="none" stroke="black"/>
<path d="M527.397,319.09h 6.58375" fill="none" stroke="black"/>
<path d="M527.397,314.29h 6.58375" fill="none" stroke="black"/>
<path d="M527.397,309.49h 6.58375" fill="none" stroke="black"/>
<path d="M527.397,304.689h 6.58375" fill="none" stroke="black"/>
<path d="M520.813,299.889h 13.1675" fill="none" stroke="black"/>
<path d="M527.397,295.089h 6.58375" fill="none" stroke="black"/>
<path d="M527.397,290.289h 6.58375" fill="none" stroke="black"/>
<path d="M527.397,285.489h 6.58375" fill="none" stroke="black"/>
<path d="M527.397,280.689h 6.58375" fill="none" stroke="black"/>
<path d="M520.813,275.889h 13.1675" fill="none" stroke="black"/>
<path d="M527.397,271.089h 6.58375" fill="none" stroke="black"/>
<path d="M527.397,266.289h 6.58375" fill="none" stroke="black"/>
<path d="M527.397,261.489h 6.58375" fill="none" stroke="black"/>
<path d="M527.397,256.689h 6.58375" fill="none" stroke="black"/>
<path d="M520.813,251.889h 13.1675" fill="none" stroke="black"/>
<path d="M520.813,251.889h 13.1675" fill="none" stroke="black"/>
<rect x="6.16929" y="468.443" width="555.591" height="216.914" fill="white"/>
<rect x="95.0638" y="479.289" width="438.917" height="171.362" fill="white"/>
<rect x="95.0638" y="479.289" width="438.917" height="171.362" fill="none" stroke="black"/>
<path d="M95.0638,568.067h 30.7242v 23.5955h 13.1675v 11.7978h 6.58375v -11.7978h 6.58375v 17.6966h 4.38917v -58.9888h 6.58375v 82.5843h 2.74323v -1.96629h 1.09729v 3.93259h 1.09729v -5.89888h 1.09729v -5.89888h 2.0117v -35.3933h 2.92611v 25.5618h
 1.46306v 15.7303h 1.46306v 5.89888h 1.46306v -27.5281h 2.19458v 1.96629h 2.19458v 5.89888h 2.19458v -11.7978h 2.19458v 23.5955h 1.46306v -19.6629h 1.46306v -1.96629h 1.46306v 13.7641h 2.50809v 1.96629h 1.25405v 13.7641h 1.11471v -17.6966h 0.97537v
 7.86517h 0.97537v -9.83147h 1.95074v -112.079h 4.38917v 129.775h 0.675256v 1.96629h 0.675256v -15.7303h 0.675256v 5.89888h 0.675256v -5.89888h 0.675256v 13.7641h 0.675256v -13.7641h 0.886274v -9.83147h 1.09729v 3.93259h 2.19458v -3.93259h 1.17567v
 -15.7303h 1.25405v 7.86517h 1.25405v 7.86517h 1.25405v 31.4607h 0.487685v 3.93259h 0.487685v -15.7303h 1.46306v -1.96629h 0.487685v -9.83147h 0.487685v 17.6966h 0.487685v -1.96629h 0.487685v -45.2247h 1.25405v 3.93259h 1.25405v -27.5281h 1.25405v
 39.3259h 0.858032v 27.5281h 0.462017v -5.89888h 0.462017v 7.86517h 0.462017v 1.96629h 0.462017v -3.93259h 0.462017v -17.6966h 0.462017v 11.7978h 0.924035v -5.89888h 0.462017v -25.5618h 0.731528v 3.93259h 0.731528v 21.6292h 0.731528v -19.6629h
 0.731528v -3.93259h 0.731528v 9.83147h 0.731528v 1.96629h 0.675256v -9.83147h 0.675256v 7.86517h 0.675256v 15.7303h 0.675256v -1.96629h 0.675256v -11.7978h 0.675256v -7.86517h 0.703392v 5.89888h 0.731528v -7.86517h 0.731528v 13.7641h 0.731528v
 -7.86517h 0.731528v 5.89888h 0.731528v -33.427h 0.764779v 31.4607h 0.79803v -19.6629h 0.79803v 7.86517h 0.79803v -21.6292h 0.79803v 23.5955h 0.79803v 31.4607h 0.487685v -19.6629h 0.97537v -13.7641h 0.487685v 17.6966h 0.487685v 3.93259h 0.487685v
 -7.86517h 0.487685v -1.96629h 0.487685v 3.93259h 0.487685v -1.96629h 0.585222v 17.6966h 0.585222v -23.5955h 0.585222v 3.93259h 0.585222v -1.96629h 0.585222v -3.93259h 0.585222v -1.96629h 0.585222v 19.6629h 0.566934v -25.5618h 0.548646v 17.6966h
 0.548646v 7.86517h 0.548646v 7.86517h 0.548646v -19.6629h 0.548646v -3.93259h 0.548646v -3.93259h 0.548646v 17.6966h 0.548646v -19.6629h 0.548646v 11.7978h 0.548646v -15.7303h 0.548646v 9.83147h 0.548646v 11.7978h 0.548646v -21.6292h 0.548646v
 27.5281h 0.548646v -3.93259h 0.505332v 9.83147h 0.462017v -13.7641h 0.462017v -3.93259h 0.924035v -5.89888h 0.462017v 9.83147h 0.462017v -9.83147h 0.462017v -13.7641h 0.462017v 29.4944h 0.900934v -13.7641h 0.438917v 11.7978h 0.438917v -3.93259h
 0.438917v -3.93259h 0.438917v -3.93259h 0.438917v 9.83147h 0.438917v -7.86517h 0.877833v 3.93259h 0.438917v -5.89888h 0.399015v 9.83147h 0.399015v -5.89888h 0.399015v 9.83147h 0.399015v -1.96629h 0.399015v -23.5955h 0.399015v 21.6292h 0.399015v
 -11.7978h 0.399015v 23.5955h 0.399015v -13.7641h 0.399015v 3.93259h 0.399015v -1.96629h 0.381667v -7.86517h 0.381667v 3.93259h 0.381667v 9.83147h 0.381667v -9.83147h 0.381667v 11.7978h 0.381667v -3.93259h 0.381667v -1.96629h 0.381667v 1.96629h
 0.381667v -15.7303h 0.381667v 9.83147h 0.381667v -5.89888h 0.465156v -35.3933h 0.548646v 23.5955h 0.548646v -3.93259h 1.09729v -1.96629h 0.548646v -5.89888h 0.548646v 3.93259h 0.548646v 23.5955h 1.22849v 3.93259h 0.381667v -9.83147h 0.381667v
 9.83147h 0.381667v -9.83147h 0.381667v 7.86517h 0.381667v 1.96629h 0.381667v 5.89888h 0.381667v -9.83147h 0.381667v -11.7978h 0.381667v 19.6629h 0.365764v 3.93259h 0.365764v -17.6966h 0.365764v 5.89888h 0.365764v -3.93259h 0.365764v 9.83147h
 0.365764v 15.7303h 0.365764v -27.5281h 0.365764v 3.93259h 0.365764v -7.86517h 0.365764v 7.86517h 0.365764v 9.83147h 0.365764v -45.2247h 0.585222v 25.5618h 0.585222v -17.6966h 0.585222v 15.7303h 0.585222v -23.5955h 0.585222v 13.7641h 1.17044v
 19.6629h 0.865111v -7.86517h 0.381667v 25.5618h 0.381667v -13.7641h 0.381667v -7.86517h 0.381667v 11.7978h 0.381667v -9.83147h 0.381667v 9.83147h 0.381667v -7.86517h 0.381667v 5.89888h 0.381667v -1.96629h 0.381667v 17.6966h 0.325123v -21.6292h
 0.325123v 9.83147h 0.325123v 3.93259h 0.325123v 5.89888h 0.325123v -21.6292h 0.325123v 11.7978h 0.325123v -5.89888h 0.325123v 11.7978h 0.325123v 9.83147h 0.325123v -13.7641h 0.325123v 7.86517h 0.325123v -21.6292h 0.325123v 23.5955h 0.291655v
 -7.86517h 0.258186v -15.7303h 0.258186v 23.5955h 0.258186v -9.83147h 0.258186v -5.89888h 0.258186v 7.86517h 0.258186v -7.86517h 0.258186v 1.96629h 0.258186v 9.83147h 0.258186v -5.89888h 0.516372v 5.89888h 0.258186v 3.93259h 0.258186v 3.93259h
 0.516372v -7.86517h 0.258186v -19.6629h 0.701593v -1.96629h 0.381667v 1.96629h 0.381667v 15.7303h 0.381667v -27.5281h 0.381667v 17.6966h 0.381667v 1.96629h 0.381667v -1.96629h 0.381667v -1.96629h 0.381667v 3.93259h 0.381667v 9.83147h 0.381667v
 -11.7978h 0.418016v -3.93259h 0.418016v 9.83147h 0.418016v -9.83147h 0.418016v -9.83147h 0.418016v 27.5281h 0.418016v -13.7641h 0.418016v -11.7978h 0.418016v 9.83147h 0.418016v -25.5618h 0.418016v 19.6629h 0.37157v 11.7978h 0.325123v 1.96629h
 0.325123v -9.83147h 0.325123v 13.7641h 0.325123v -15.7303h 0.325123v -5.89888h 0.325123v 27.5281h 0.650247v -15.7303h 0.650247v -23.5955h 0.325123v 33.427h 0.325123v -5.89888h 0.325123v -7.86517h 0.418016v -9.83147h 0.418016v 3.93259h 0.418016v
 7.86517h 0.418016v -5.89888h 0.418016v -1.96629h 0.418016v 9.83147h 0.418016v -15.7303h 0.418016v 7.86517h 0.836031v -3.93259h 0.428466v 27.5281h 0.438917v -27.5281h 0.438917v -9.83147h 0.438917v -3.93259h 0.438917v 29.4944h 0.438917v -15.7303h
 0.438917v 19.6629h 0.438917v -3.93259h 0.438917v -3.93259h 0.438917v 7.86517h 0.370809v 5.89888h 0.302701v -19.6629h 0.302701v 29.4944h 0.302701v -9.83147h 0.302701v -21.6292h 0.302701v 23.5955h 0.302701v -3.93259h 0.302701v -15.7303h 0.302701v
 29.4944h 0.302701v -13.7641h 0.302701v -13.7641h 0.302701v 7.86517h 0.302701v -3.93259h 0.302701v 3.93259h 0.302701v 11.7978h 0.325123v -11.7978h 0.325123v -1.96629h 0.325123v 5.89888h 0.325123v -9.83147h 0.325123v -7.86517h 0.325123v 5.89888h
 0.325123v 15.7303h 0.325123v -3.93259h 0.325123v -7.86517h 0.325123v 17.6966h 0.325123v -21.6292h 0.325123v 7.86517h 0.325123v 15.7303h 0.291655v -17.6966h 0.258186v 1.96629h 0.258186v 19.6629h 0.258186v -17.6966h 0.258186v 5.89888h 0.258186v
 -11.7978h 0.258186v 1.96629h 0.258186v 15.7303h 0.258186v 1.96629h 0.258186v -13.7641h 0.258186v 15.7303h 0.258186v -11.7978h 0.258186v 5.89888h 0.258186v -7.86517h 0.258186v 11.7978h 0.258186v -17.6966h 0.570161v 9.83147h 0.365764v -5.89888h
 0.365764v -7.86517h 0.365764v 13.7641h 0.365764v -1.96629h 0.365764v -9.83147h 0.365764v 7.86517h 0.365764v -9.83147h 0.365764v 5.89888h 0.365764v 5.89888h 0.365764v -15.7303h 0.365764v 1.96629h 0.382389v 21.6292h 0.399015v -13.7641h 0.399015v
 3.93259h 0.399015v 7.86517h 0.399015v -31.4607h 0.399015v -7.86517h 0.399015v 49.1573h 0.399015v -13.7641h 0.399015v -7.86517h 0.399015v 3.93259h 0.399015v -5.89888h 0.408515v -13.7641h 0.418016v 15.7303h 0.418016v 7.86517h 0.418016v -1.96629h
 0.418016v -1.96629h 0.418016v -7.86517h 0.418016v 3.93259h 0.418016v 1.96629h 0.418016v -15.7303h 0.418016v 15.7303h 0.418016v -13.7641h 0.462017v 31.4607h 0.462017v -35.3933h 0.462017v 3.93259h 0.462017v 11.7978h 0.462017v -17.6966h 0.462017v
 15.7303h 0.462017v -1.96629h 0.462017v 1.96629h 0.462017v 11.7978h 0.474851v -27.5281h 0.487685v 9.83147h 0.487685v 1.96629h 0.97537v 7.86517h 0.487685v -19.6629h 0.97537v 11.7978h 0.487685v -21.6292h 0.792488v -13.7641h 1.09729v 7.86517h 1.09729v
 -27.5281h 1.09729v 53.0899h 0.779654v 13.7641h 0.462017v -3.93259h 0.462017v -11.7978h 0.462017v 11.7978h 0.462017v -7.86517h 0.462017v 9.83147h 0.462017v -5.89888h 0.462017v 3.93259h 0.462017v 1.96629h 0.462017v 7.86517h 0.548646v -21.6292h
 0.548646v -5.89888h 0.548646v 9.83147h 0.548646v 5.89888h 0.548646v 1.96629h 0.548646v -9.83147h 0.548646v -1.96629h 0.548646v -15.7303h 0.79803v 21.6292h 0.79803v -9.83147h 0.79803v 7.86517h 0.79803v -9.83147h 0.79803v 3.93259h 0.691626v 23.5955h
 0.585222v -31.4607h 0.585222v 11.7978h 0.585222v 7.86517h 0.585222v 1.96629h 0.585222v 7.86517h 0.585222v -23.5955h 0.585222v 15.7303h 0.627024v -7.86517h 0.627024v -1.96629h 0.627024v -11.7978h 0.627024v 31.4607h 0.627024v -23.5955h 0.627024v
 11.7978h 0.627024v -23.5955h 0.79803v 7.86517h 0.79803v 9.83147h 0.79803v -3.93259h 0.79803v 3.93259h 0.79803v -11.7978h 0.79803v 25.5618h 0.79803v -1.96629h 0.79803v 3.93259h 0.79803v -17.6966h 0.79803v -11.7978h 0.79803v 7.86517h 1.95074v
 -3.93259h 0.97537v 15.7303h 0.97537v -27.5281h 1.36552v -7.86517h 1.75567v -9.83147h 1.75567v -51.1236h 2.92611v 21.6292h 2.92611v -21.6292h 2.92611v 86.5169h 0.97537v 11.7978h 0.97537v -9.83147h 0.97537v 5.89888h 0.97537v 5.89888h 1.21921v
 -29.4944h 1.46306v 17.6966h 1.46306v 3.93259h 1.35855v 5.89888h 1.25405v 1.96629h 1.25405v -3.93259h 1.25405v -5.89888h 1.25405v 5.89888h 1.25405v 5.89888h 2.31999v 7.86517h 0.877833v 3.93259h 0.877833v -17.6966h 0.877833v 1.96629h 0.877833v
 21.6292h 1.06594v -27.5281h 1.25405v 9.83147h 1.25405v 9.83147h 1.25405v -145.506h 8.77833v 119.944h 2.92611v 17.6966h 2.34089v 7.86517h 1.75567v -7.86517h 1.75567v -5.89888h 2.19458v 11.7978h 2.19458v -9.83147h 2.92611v -53.0899h 8.0468v 55.0562h
 4.38917v -25.5618h 10.9729v 11.7978h 5.85222v -5.89888h 16.0936v 33.427h 10.2414v 9.83147h 2.92611" fill="none" stroke="black" stroke-width="2"/>
<path d="M95.0638,650.651h 438.917" fill="none" stroke="black"/>
<path d="M95.0638,645.51v 5.14087" fill="none" stroke="black"/>
<path d="M109.694,648.081v 2.57044" fill="none" stroke="black"/>
<path d="M124.325,648.081v 2.57044" fill="none" stroke="black"/>
<path d="M138.955,648.081v 2.57044" fill="none" stroke="black"/>
<path d="M153.586,648.081v 2.57044" fill="none" stroke="black"/>
<path d="M168.217,645.51v 5.14087" fill="none" stroke="black"/>
<path d="M182.847,648.081v 2.57044" fill="none" stroke="black"/>
<path d="M197.478,648.081v 2.57044" fill="none" stroke="black"/>
<path d="M212.108,648.081v 2.57044" fill="none" stroke="black"/>
<path d="M226.739,648.081v 2.57044" fill="none" stroke="black"/>
<path d="M241.369,645.51v 5.14087" fill="none" stroke="black"/>
<path d="M256,648.081v 2.57044" fill="none" stroke="black"/>
<path d="M270.63,648.081v 2.57044" fill="none" stroke="black"/>
<path d="M285.261,648.081v 2.57044" fill="none" stroke="black"/>
<path d="M299.891,648.081v 2.57044" fill="none" stroke="black"/>
<path d="M314.522,645.51v 5.14087" fill="none" stroke="black"/>
<path d="M329.153,648.081v 2.57044" fill="none" stroke="black"/>
<path d="M343.783,648.081v 2.57044" fill="none" stroke="black"/>
<path d="M358.414,648.081v 2.57044" fill="none" stroke="black"/>
<path d="M373.044,648.081v 2.57044" fill="none" stroke="black"/>
<path d="M387.675,645.51v 5.14087" fill="none" stroke="black"/>
<path d="M402.305,648.081v 2.57044" fill="none" stroke="black"/>
<path d="M416.936,648.081v 2.57044" fill="none" stroke="black"/>
<path d="M431.566,648.081v 2.57044" fill="none" stroke="black"/>
<path d="M446.197,648.081v 2.57044" fill="none" stroke="black"/>
<path d="M460.828,645.51v 5.14087" fill="none" stroke="black"/>
<path d="M475.458,648.081v 2.57044" fill="none" stroke="black"/>
<path d="M490.089,648.081v 2.57044" fill="none" stroke="black"/>
<path d="M504.719,648.081v 2.57044" fill="none" stroke="black"/>
<path d="M519.35,648.081v 2.57044" fill="none" stroke="black"/>
<path d="M533.98,645.51v 5.14087" fill="none" stroke="black"/>
<text xml:space="preserve" x="94.5134" y="660.23" fill="black" font-size="10.4502" font-family="Helvetica">3
</text>
<text xml:space="preserve" x="89.5278" y="660.23" fill="black" font-size="10.4502" font-family="Times">&#8722;
</text>
<text xml:space="preserve" x="167.16" y="660.23" fill="black" font-size="10.4502" font-family="Helvetica">2
</text>
<text xml:space="preserve" x="162.175" y="660.23" fill="black" font-size="10.4502" font-family="Times">&#8722;
</text>
<text xml:space="preserve" x="241.943" y="660.23" fill="black" font-size="10.4502" font-family="Helvetica">1
</text>
<text xml:space="preserve" x="236.246" y="660.23" fill="black" font-size="10.4502" font-family="Times">&#8722;
</text>
<text xml:space="preserve" x="311.741" y="660.23" fill="black" font-size="10.4502" font-family="Helvetica">0
</text>
<text xml:space="preserve" x="385.812" y="660.23" fill="black" font-size="10.4502" font-family="Helvetica">1
</text>
<text xml:space="preserve" x="457.747" y="660.23" fill="black" font-size="10.4502" font-family="Helvetica">2
</text>
<text xml:space="preserve" x="531.106" y="660.23" fill="black" font-size="10.4502" font-family="Helvetica">3
</text>
<path d="M95.0638,479.289h 438.917" fill="none" stroke="black"/>
<path d="M95.0638,484.43v -5.14087" fill="none" stroke="black"/>
<path d="M109.694,481.859v -2.57044" fill="none" stroke="black"/>
<path d="M124.325,481.859v -2.57044" fill="none" stroke="black"/>
<path d="M138.955,481.859v -2.57044" fill="none" stroke="black"/>
<path d="M153.586,481.859v -2.57044" fill="none" stroke="black"/>
<path d="M168.217,484.43v -5.14087" fill="none" stroke="black"/>
<path d="M182.847,481.859v -2.57044" fill="none" stroke="black"/>
<path d="M197.478,481.859v -2.57044" fill="none" stroke="black"/>
<path d="M212.108,481.859v -2.57044" fill="none" stroke="black"/>
<path d="M226.739,481.859v -2.57044" fill="none" stroke="black"/>
<path d="M241.369,484.43v -5.14087" fill="none" stroke="black"/>
<path d="M256,481.859v -2.57044" fill="none" stroke="black"/>
<path d="M270.63,481.859v -2.57044" fill="none" stroke="black"/>
<path d="M285.261,481.859v -2.57044" fill="none" stroke="black"/>
<path d="M299.891,481.859v -2.57044" fill="none" stroke="black"/>
<path d="M314.522,484.43v -5.14087" fill="none" stroke="black"/>
<path d="M329.153,481.859v -2.57044" fill="none" stroke="black"/>
<path d="M343.783,481.859v -2.57044" fill="none" stroke="black"/>
<path d="M358.414,481.859v -2.57044" fill="none" stroke="black"/>
<path d="M373.044,481.859v -2.57044" fill="none" stroke="black"/>
<path d="M387.675,484.43v -5.14087" fill="none" stroke="black"/>
<path d="M402.305,481.859v -2.57044" fill="none" stroke="black"/>
<path d="M416.936,481.859v -2.57044" fill="none" stroke="black"/>
<path d="M431.566,481.859v -2.57044" fill="none" stroke="black"/>
<path d="M446.197,481.859v -2.57044" fill="none" stroke="black"/>
<path d="M460.828,484.43v -5.14087" fill="none" stroke="black"/>
<path d="M475.458,481.859v -2.57044" fill="none" stroke="black"/>
<path d="M490.089,481.859v -2.57044" fill="none" stroke="black"/>
<path d="M504.719,481.859v -2.57044" fill="none" stroke="black"/>
<path d="M519.35,481.859v -2.57044" fill="none" stroke="black"/>
<path d="M533.98,484.43v -5.14087" fill="none" stroke="black"/>
<path d="M95.0638,650.651v -171.362" fill="none" stroke="black"/>
<path d="M108.231,650.651h -13.1675" fill="none" stroke="black"/>
<path d="M101.648,646.719h -6.58375" fill="none" stroke="black"/>
<path d="M101.648,642.786h -6.58375" fill="none" stroke="black"/>
<path d="M101.648,638.853h -6.58375" fill="none" stroke="black"/>
<path d="M101.648,634.921h -6.58375" fill="none" stroke="black"/>
<path d="M108.231,630.988h -13.1675" fill="none" stroke="black"/>
<path d="M101.648,627.056h -6.58375" fill="none" stroke="black"/>
<path d="M101.648,623.123h -6.58375" fill="none" stroke="black"/>
<path d="M101.648,619.19h -6.58375" fill="none" stroke="black"/>
<path d="M101.648,615.258h -6.58375" fill="none" stroke="black"/>
<path d="M108.231,611.325h -13.1675" fill="none" stroke="black"/>
<path d="M101.648,607.393h -6.58375" fill="none" stroke="black"/>
<path d="M101.648,603.46h -6.58375" fill="none" stroke="black"/>
<path d="M101.648,599.528h -6.58375" fill="none" stroke="black"/>
<path d="M101.648,595.595h -6.58375" fill="none" stroke="black"/>
<path d="M108.231,591.662h -13.1675" fill="none" stroke="black"/>
<path d="M101.648,587.73h -6.58375" fill="none" stroke="black"/>
<path d="M101.648,583.797h -6.58375" fill="none" stroke="black"/>
<path d="M101.648,579.865h -6.58375" fill="none" stroke="black"/>
<path d="M101.648,575.932h -6.58375" fill="none" stroke="black"/>
<path d="M108.231,571.999h -13.1675" fill="none" stroke="black"/>
<path d="M101.648,568.067h -6.58375" fill="none" stroke="black"/>
<path d="M101.648,564.134h -6.58375" fill="none" stroke="black"/>
<path d="M101.648,560.202h -6.58375" fill="none" stroke="black"/>
<path d="M101.648,556.269h -6.58375" fill="none" stroke="black"/>
<path d="M108.231,552.336h -13.1675" fill="none" stroke="black"/>
<path d="M101.648,548.404h -6.58375" fill="none" stroke="black"/>
<path d="M101.648,544.471h -6.58375" fill="none" stroke="black"/>
<path d="M101.648,540.539h -6.58375" fill="none" stroke="black"/>
<path d="M101.648,536.606h -6.58375" fill="none" stroke="black"/>
<path d="M108.231,532.674h -13.1675" fill="none" stroke="black"/>
<path d="M101.648,528.741h -6.58375" fill="none" stroke="black"/>
<path d="M101.648,524.808h -6.58375" fill="none" stroke="black"/>
<path d="M101.648,520.876h -6.58375" fill="none" stroke="black"/>
<path d="M101.648,516.943h -6.58375" fill="none" stroke="black"/>
<path d="M108.231,513.011h -13.1675" fill="none" stroke="black"/>
<path d="M101.648,509.078h -6.58375" fill="none" stroke="black"/>
<path d="M101.648,505.145h -6.58375" fill="none" stroke="black"/>
<path d="M101.648,501.213h -6.58375" fill="none" stroke="black"/>
<path d="M101.648,497.28h -6.58375" fill="none" stroke="black"/>
<path d="M108.231,493.348h -13.1675" fill="none" stroke="black"/>
<path d="M108.231,493.348h -13.1675" fill="none" stroke="black"/>
<path d="M101.648,489.415h -6.58375" fill="none" stroke="black"/>
<path d="M101.648,485.483h -6.58375" fill="none" stroke="black"/>
<path d="M101.648,481.55h -6.58375" fill="none" stroke="black"/>
<text xml:space="preserve" x="86.6789" y="654.532" fill="black" font-size="10.4502" font-family="Helvetica">0
</text>
<text xml:space="preserve" x="81.6934" y="634.59" fill="black" font-size="10.4502" font-family="Helvetica">10
</text>
<text xml:space="preserve" x="81.6934" y="614.648" fill="black" font-size="10.4502" font-family="Helvetica">20
</text>
<text xml:space="preserve" x="81.6934" y="595.418" fill="black" font-size="10.4502" font-family="Helvetica">30
</text>
<text xml:space="preserve" x="81.6934" y="575.476" fill="black" font-size="10.4502" font-family="Helvetica">40
</text>
<text xml:space="preserve" x="81.6934" y="556.246" fill="black" font-size="10.4502" font-family="Helvetica">50
</text>
<text xml:space="preserve" x="81.6934" y="536.304" fill="black" font-size="10.4502" font-family="Helvetica">60
</text>
<text xml:space="preserve" x="81.6934" y="516.361" fill="black" font-size="10.4502" font-family="Helvetica">70
</text>
<text xml:space="preserve" x="81.6934" y="497.131" fill="black" font-size="10.4502" font-family="Helvetica">80
</text>
<path d="M533.98,650.651v -171.362" fill="none" stroke="black"/>
<path d="M520.813,650.651h 13.1675" fill="none" stroke="black"/>
<path d="M527.397,646.719h 6.58375" fill="none" stroke="black"/>
<path d="M527.397,642.786h 6.58375" fill="none" stroke="black"/>
<path d="M527.397,638.853h 6.58375" fill="none" stroke="black"/>
<path d="M527.397,634.921h 6.58375" fill="none" stroke="black"/>
<path d="M520.813,630.988h 13.1675" fill="none" stroke="black"/>
<path d="M527.397,627.056h 6.58375" fill="none" stroke="black"/>
<path d="M527.397,623.123h 6.58375" fill="none" stroke="black"/>
<path d="M527.397,619.19h 6.58375" fill="none" stroke="black"/>
<path d="M527.397,615.258h 6.58375" fill="none" stroke="black"/>
<path d="M520.813,611.325h 13.1675" fill="none" stroke="black"/>
<path d="M527.397,607.393h 6.58375" fill="none" stroke="black"/>
<path d="M527.397,603.46h 6.58375" fill="none" stroke="black"/>
<path d="M527.397,599.528h 6.58375" fill="none" stroke="black"/>
<path d="M527.397,595.595h 6.58375" fill="none" stroke="black"/>
<path d="M520.813,591.662h 13.1675" fill="none" stroke="black"/>
<path d="M527.397,587.73h 6.58375" fill="none" stroke="black"/>
<path d="M527.397,583.797h 6.58375" fill="none" stroke="black"/>
<path d="M527.397,579.865h 6.58375" fill="none" stroke="black"/>
<path d="M527.397,575.932h 6.58375" fill="none" stroke="black"/>
<path d="M520.813,571.999h 13.1675" fill="none" stroke="black"/>
<path d="M527.397,568.067h 6.58375" fill="none" stroke="black"/>
<path d="M527.397,564.134h 6.58375" fill="none" stroke="black"/>
<path d="M527.397,560.202h 6.58375" fill="none" stroke="black"/>
<path d="M527.397,556.269h 6.58375" fill="none" stroke="black"/>
<path d="M520.813,552.336h 13.1675" fill="none" stroke="black"/>
<path d="M527.397,548.404h 6.58375" fill="none" stroke="black"/>
<path d="M527.397,544.471h 6.58375" fill="none" stroke="black"/>
<path d="M527.397,540.539h 6.58375" fill="none" stroke="black"/>
<path d="M527.397,536.606h 6.58375" fill="none" stroke="black"/>
<path d="M520.813,532.674h 13.1675" fill="none" stroke="black"/>
<path d="M527.397,528.741h 6.58375" fill="none" stroke="black"/>
<path d="M527.397,524.808h 6.58375" fill="none" stroke="black"/>
<path d="M527.397,520.876h 6.58375" fill="none" stroke="black"/>
<path d="M527.397,516.943h 6.58375" fill="none" stroke="black"/>
<path d="M520.813,513.011h 13.1675" fill="none" stroke="black"/>
<path d="M527.397,509.078h 6.58375" fill="none" stroke="black"/>
<path d="M527.397,505.145h 6.58375" fill="none" stroke="black"/>
<path d="M527.397,501.213h 6.58375" fill="none" stroke="black"/>
<path d="M527.397,497.28h 6.58375" fill="none" stroke="black"/>
<path d="M520.813,493.348h 13.1675" fill="none" stroke="black"/>
<path d="M520.813,493.348h 13.1675" fill="none" stroke="black"/>
<path d="M527.397,489.415h 6.58375" fill="none" stroke="black"/>
<path d="M527.397,485.483h 6.58375" fill="none" stroke="black"/>
<path d="M527.397,481.55h 6.58375" fill="none" stroke="black"/></svg>
