<?xml version="1.0" standalone="no"?>
<svg width="567.429" height="269.165" viewBox="0 0 567.429 269.165" xmlns="http://www.w3.org/2000/svg" shape-rendering="crispEdges">
<title>
./old_svg_ref/seism.svg
</title>
<desc>
Creator: ROOT Version 6.33/01
CreationDate: Thu Jun  6 13:49:35 2024</desc>
<defs>
</defs>
<rect x="0.5" y="0" width="566.929" height="268.665" fill="white"/>
<rect x="57.1929" y="26.8665" width="453.543" height="214.932" fill="white"/>
<rect x="57.1929" y="26.8665" width="453.543" height="214.932" fill="none" stroke="black"/>
<rect x="57.1929" y="26.8665" width="453.543" height="214.932" fill="white"/>
<rect x="57.1929" y="26.8665" width="453.543" height="214.932" fill="none" stroke="black"/>
<path d="M57.1929,241.799h 453.543" fill="none" stroke="black"/>
<path d="M61.7992,26.8665v 214.932" fill="none" stroke="black" stroke-dasharray=" 1, 2"/>
<path d="M114.949,26.8665v 214.932" fill="none" stroke="black" stroke-dasharray=" 1, 2"/>
<path d="M168.098,26.8665v 214.932" fill="none" stroke="black" stroke-dasharray=" 1, 2"/>
<path d="M221.248,26.8665v 214.932" fill="none" stroke="black" stroke-dasharray=" 1, 2"/>
<path d="M274.398,26.8665v 214.932" fill="none" stroke="black" stroke-dasharray=" 1, 2"/>
<path d="M327.547,26.8665v 214.932" fill="none" stroke="black" stroke-dasharray=" 1, 2"/>
<path d="M380.697,26.8665v 214.932" fill="none" stroke="black" stroke-dasharray=" 1, 2"/>
<path d="M433.846,26.8665v 214.932" fill="none" stroke="black" stroke-dasharray=" 1, 2"/>
<path d="M486.996,26.8665v 214.932" fill="none" stroke="black" stroke-dasharray=" 1, 2"/>
<path d="M61.7992,26.8665v 214.932" fill="none" stroke="black" stroke-dasharray=" 1, 2"/>
<path d="M486.996,26.8665v 214.932" fill="none" stroke="black" stroke-dasharray=" 1, 2"/>
<path d="M57.1929,241.799v -214.932" fill="none" stroke="black"/>
<path d="M510.736,241.799h -453.543" fill="none" stroke="black" stroke-dasharray=" 1, 2"/>
<path d="M510.736,231.052h -453.543" fill="none" stroke="black" stroke-dasharray=" 1, 2"/>
<path d="M510.736,220.305h -453.543" fill="none" stroke="black" stroke-dasharray=" 1, 2"/>
<path d="M510.736,209.559h -453.543" fill="none" stroke="black" stroke-dasharray=" 1, 2"/>
<path d="M510.736,198.812h -453.543" fill="none" stroke="black" stroke-dasharray=" 1, 2"/>
<path d="M510.736,188.066h -453.543" fill="none" stroke="black" stroke-dasharray=" 1, 2"/>
<path d="M510.736,177.319h -453.543" fill="none" stroke="black" stroke-dasharray=" 1, 2"/>
<path d="M510.736,166.572h -453.543" fill="none" stroke="black" stroke-dasharray=" 1, 2"/>
<path d="M510.736,155.826h -453.543" fill="none" stroke="black" stroke-dasharray=" 1, 2"/>
<path d="M510.736,145.079h -453.543" fill="none" stroke="black" stroke-dasharray=" 1, 2"/>
<path d="M510.736,134.333h -453.543" fill="none" stroke="black" stroke-dasharray=" 1, 2"/>
<path d="M510.736,123.586h -453.543" fill="none" stroke="black" stroke-dasharray=" 1, 2"/>
<path d="M510.736,112.839h -453.543" fill="none" stroke="black" stroke-dasharray=" 1, 2"/>
<path d="M510.736,102.093h -453.543" fill="none" stroke="black" stroke-dasharray=" 1, 2"/>
<path d="M510.736,91.3462h -453.543" fill="none" stroke="black" stroke-dasharray=" 1, 2"/>
<path d="M510.736,80.5996h -453.543" fill="none" stroke="black" stroke-dasharray=" 1, 2"/>
<path d="M510.736,69.853h -453.543" fill="none" stroke="black" stroke-dasharray=" 1, 2"/>
<path d="M510.736,59.1063h -453.543" fill="none" stroke="black" stroke-dasharray=" 1, 2"/>
<path d="M510.736,48.3597h -453.543" fill="none" stroke="black" stroke-dasharray=" 1, 2"/>
<path d="M510.736,37.6131h -453.543" fill="none" stroke="black" stroke-dasharray=" 1, 2"/>
<path d="M510.736,26.8665h -453.543" fill="none" stroke="black" stroke-dasharray=" 1, 2"/>
<path d="M57.1929,121.45h 0.177165v 18.4889h 0.177165v -15.6887h 0.177165v 10.4695h 0.177165v -11.0172h 0.177165v 11.3611h 0.177165v 10.8862h 0.177165v -10.6543h 0.177165v -1.06542h 0.177165v 5.39921h 0.177165v -23.2379h 0.177165v 30.6441h 0.177165v
 -12.0722h 0.177165v 17.982h 0.177165v -4.93482h 0.177165v 4.22506h 0.177165v -27.7997h 0.177165v 19.3881h 0.177165v -16.9678h 0.177165v 12.404h 0.177165v -31.5052h 0.177165v 42.5014h 0.177165v -30.9522h 0.177165v 20.8855h 0.177165v -4.11936h
 0.177165v 4.70531h 0.177165v -4.09063h 0.177165v -26.1368h 0.177165v 26.9159h 0.177165v -28.8831h 0.177165v 25.6894h 0.177165v 5.50637h 0.177165v -25.311h 0.177165v 18.6448h 0.177165v -18.4405h 0.177165v 3.97117h 0.177165v 17.449h 0.177165v 0.81124h
 0.177165v 1.21929h 0.177165v -2.26202h 0.177165v 13.4367h 0.177165v -15.1225h 0.177165v -0.125115h 0.177165v 1.20341h 0.177165v 16.1246h 0.177165v -39.5382h 0.177165v 26.781h 0.177165v -1.0975h 0.177165v 12.0312h 0.177165v 0.131699h 0.177165v
 10.5661h 0.177165v -43.1773h 0.177165v 10.9642h 0.177165v 2.47358h 0.177165v 0.676354h 0.177165v 17.2322h 0.177165v -6.36087h 0.177165v 2.43519h 0.177165v 23.1122h 0.177165v -17.5857h 0.177165v 0.345679h 0.177165v -12.9656h 0.177165v -26.2857h
 0.177165v 29.2645h 0.177165v 22.7961h 0.177165v -24.992h 0.177165v -26.8184h 0.177165v 34.3936h 0.177165v -14.7325h 0.177165v 8.05887h 0.177165v 4.47535h 0.177165v -4.23919h 0.177165v -1.10639h 0.177165v -2.24021h 0.177165v -12.6436h 0.177165v
 5.13212h 0.177165v 6.27092h 0.177165v -15.8641h 0.177165v 10.8297h 0.177165v 11.8363h 0.177165v -19.228h 0.177165v -5.90725h 0.177165v 5.31092h 0.177165v 24.1585h 0.177165v -15.121h 0.177165v 13.2898h 0.177165v -1.75172h 0.177165v 8.7914h 0.177165v
 -29.4671h 0.177165v 8.81284h 0.177165v 23.0614h 0.177165v -36.4873h 0.177165v 14.492h 0.177165v 5.14245h 0.177165v 1.98031h 0.177165v -9.02888h 0.177165v 10.5456h 0.177165v -25.2356h 0.177165v 19.975h 0.177165v -1.59435h 0.177165v -13.2995h
 0.177165v 2.48465h 0.177165v 29.9958h 0.177165v -22.0833h 0.177165v 7.97176h 0.177165v 3.88111h 0.177165v -31.7606h 0.177165v 23.4295h 0.177165v 1.63475h 0.177165v 4.9117h 0.177165v -16.9185h 0.177165v 32.374h 0.177165v 4.16877h 0.177165v -31.638h
 0.177165v 30.8012h 0.177165v -11.6946h 0.177165v -5.1226h 0.177165v -6.58289h 0.177165v 6.19013h 0.177165v -18.757h 0.177165v 39.6297h 0.177165v -26.1601h 0.177165v 7.09223h 0.177165v -5.48105h 0.177165v -14.4494h 0.177165v 30.5819h 0.177165v
 -36.4028h 0.177165v 20.9151h 0.177165v -19.0688h 0.177165v 9.61298h 0.177165v 5.05139h 0.177165v 11.464h 0.177165v 6.65984h 0.177165v -36.5598h 0.177165v 31.5925h 0.177165v -10.4303h 0.177165v 19.5657h 0.177165v -6.60493h 0.177165v -18.4629h
 0.177165v 8.13519h 0.177165v -20.1596h 0.177165v 18.6585h 0.177165v 2.21736h 0.177165v 25.8415h 0.177165v -28.7313h 0.177165v -32.3139h 0.177165v 32.96h 0.177165v -2.09019h 0.177165v -13.8025h 0.177165v 15.0756h 0.177165v 7.43839h 0.177165v
 -6.58792h 0.177165v -14.6312h 0.177165v 19.0341h 0.177165v -9.17987h 0.177165v -7.6289h 0.177165v 13.5711h 0.177165v -0.640396h 0.177165v 4.94525h 0.177165v -19.978h 0.177165v 14.6473h 0.177165v -14.5826h 0.177165v 7.25138h 0.177165v -7.51743h
 0.177165v -1.51499h 0.177165v -4.7865h 0.177165v 46.0672h 0.177165v -20.0565h 0.177165v -5.5755h 0.177165v -27.416h 0.177165v 6.46665h 0.177165v 23.7929h 0.177165v 12.2121h 0.177165v 6.66388h 0.177165v -51.3318h 0.177165v 18.3153h 0.177165v 8.79166h
 0.177165v 22.6353h 0.177165v -23.8202h 0.177165v 17.9727h 0.177165v -8.17972h 0.177165v -4.94336h 0.177165v 23.7128h 0.177165v -46.0054h 0.177165v 25.3534h 0.177165v 23.6272h 0.177165v -25.374h 0.177165v -9.95697h 0.177165v 6.99271h 0.177165v
 5.89527h 0.177165v -4.2364h 0.177165v 6.14878h 0.177165v 10.277h 0.177165v -34.2565h 0.177165v 22.9485h 0.177165v -3.4154h 0.177165v 2.28661h 0.177165v -37.3861h 0.177165v 21.978h 0.177165v 5.99468h 0.177165v 9.18866h 0.177165v 11.4143h 0.177165v
 2.97799h 0.177165v -19.6886h 0.177165v -9.28013h 0.177165v -6.78952h 0.177165v 13.3335h 0.177165v 30.5213h 0.177165v -38.6605h 0.177165v -5.79618h 0.177165v 14.5065h 0.177165v 12.835h 0.177165v -14.8134h 0.177165v -3.25933h 0.177165v 19.2345h
 0.177165v -6.04352h 0.177165v -9.77863h 0.177165v -2.04541h 0.177165v 18.9128h 0.177165v -17.9913h 0.177165v -2.02232h 0.177165v 10.7005h 0.177165v -19.4711h 0.177165v -2.94776h 0.177165v 10.9457h 0.177165v 18.4907h 0.177165v -11.0059h 0.177165v
 -2.98207h 0.177165v 20.8773h 0.177165v -16.0998h 0.177165v -7.50557h 0.177165v 0.334609h 0.177165v -22.1991h 0.177165v 23.608h 0.177165v -3.9231h 0.177165v -12.264h 0.177165v 7.40591h 0.177165v 20.8264h 0.177165v -8.29564h 0.177165v -6.35928h
 0.177165v 18.7087h 0.177165v -24.8218h 0.177165v 11.8823h 0.177165v -12.7963h 0.177165v 27.1542h 0.177165v -43.7259h 0.177165v 13.3583h 0.177165v 11.5973h 0.177165v -8.7486h 0.177165v -1.66347h 0.177165v 2.80134h 0.177165v 23.1487h 0.177165v
 -34.3717h 0.177165v -6.56199h 0.177165v 20.8204h 0.177165v -8.25258h 0.177165v 26.1687h 0.177165v -10.9466h 0.177165v -2.99078h 0.177165v 15.0604h 0.177165v -25.1639h 0.177165v 26.0664h 0.177165v -20.4203h 0.177165v 7.97068h 0.177165v -16.5231h
 0.177165v 1.44768h 0.177165v 41.5251h 0.177165v -20.9206h 0.177165v 8.15231h 0.177165v -19.6453h 0.177165v 10.155h 0.177165v 3.50195h 0.177165v -15.7556h 0.177165v 12.5583h 0.177165v -10.0741h 0.177165v 2.33265h 0.177165v -14.1947h 0.177165v
 0.561404h 0.177165v 9.37328h 0.177165v 7.05741h 0.177165v -16.793h 0.177165v 11.7807h 0.177165v 4.08976h 0.177165v 4.82119h 0.177165v -2.90668h 0.177165v -10.4993h 0.177165v 14.4691h 0.177165v -20.7501h 0.177165v 25.5639h 0.177165v 8.81123h
 0.177165v -19.083h 0.177165v -2.31749h 0.177165v -0.893363h 0.177165v 13.6547h 0.177165v -12.3069h 0.177165v -8.52857h 0.177165v -2.09624h 0.177165v 13.6288h 0.177165v 22.4599h 0.177165v -23.9451h 0.177165v -3.17463h 0.177165v -4.49246h 0.177165v
 4.90667h 0.177165v 23.3875h 0.177165v -14.7958h 0.177165v -5.46074h 0.177165v 5.3771h 0.177165v 26.4184h 0.177165v -61.4503h 0.177165v 21.651h 0.177165v 24.4967h 0.177165v -27.1157h 0.177165v 14.3226h 0.177165v -25.6631h 0.177165v 41.4732h 0.177165v
 -24.4642h 0.177165v 19.8772h 0.177165v -43.8715h 0.177165v 16.8909h 0.177165v -6.43222h 0.177165v 11.1757h 0.177165v -9.82749h 0.177165v 37.3739h 0.177165v -39.0457h 0.177165v 28.3566h 0.177165v 21.6884h 0.177165v -35.8728h 0.177165v 1.14932h
 0.177165v 8.54294h 0.177165v -14.8208h 0.177165v -12.5406h 0.177165v 13.4803h 0.177165v -3.98609h 0.177165v 31.4412h 0.177165v -21.9181h 0.177165v 16.6197h 0.177165v 15.6093h 0.177165v -24.4035h 0.177165v -9.53835h 0.177165v 26.9455h 0.177165v
 -35.597h 0.177165v 32.63h 0.177165v -19.7908h 0.177165v -14.3674h 0.177165v -19.2616h 0.177165v 26.7846h 0.177165v 12.5739h 0.177165v 12.131h 0.177165v -40.2854h 0.177165v 28.6561h 0.177165v -10.9853h 0.177165v -12.3038h 0.177165v 5.10202h 0.177165v
 6.59172h 0.177165v 10.4113h 0.177165v 7.02264h 0.177165v -7.19252h 0.177165v 2.49863h 0.177165v 8.84289h 0.177165v -20.5261h 0.177165v 6.32499h 0.177165v -1.24086h 0.177165v -3.82125h 0.177165v -2.53971h 0.177165v 6.05908h 0.177165v -29.7587h
 0.177165v 51.6104h 0.177165v -16.6849h 0.177165v 14.5483h 0.177165v -31.1373h 0.177165v 12.3744h 0.177165v 0.363423h 0.177165v -7.63343h 0.177165v 22.107h 0.177165v 3.77486h 0.177165v -45.8596h 0.177165v 40.6201h 0.177165v -14.3162h 0.177165v
 -15.2504h 0.177165v 50.003h 0.177165v -50.9034h 0.177165v 13.323h 0.177165v -5.88674h 0.177165v 5.91711h 0.177165v 41.5563h 0.177165v -38.9517h 0.177165v 14.0728h 0.177165v -17.6022h 0.177165v -4.0686h 0.177165v 16.5892h 0.177165v -6.77004h
 0.177165v -14.3688h 0.177165v 1.16414h 0.177165v 17.3572h 0.177165v 15.9323h 0.177165v -21.3912h 0.177165v -0.149023h 0.177165v 1.25207h 0.177165v 9.11226h 0.177165v -7.93992h 0.177165v -14.0781h 0.177165v 11.4251h 0.177165v -4.13187h 0.177165v
 -6.60403h 0.177165v 11.7564h 0.177165v 22.1219h 0.177165v -23.9921h 0.177165v 0.0186402h 0.177165v -4.70088h 0.177165v 14.8368h 0.177165v 1.05309h 0.177165v -9.41667h 0.177165v 0.129632h 0.177165v 10.7262h 0.177165v -17.7821h 0.177165v 28.1429h
 0.177165v -10.2359h 0.177165v -29.8041h 0.177165v 12.2838h 0.177165v 7.1006h 0.177165v -23.0954h 0.177165v 18.5179h 0.177165v 13.4739h 0.177165v -7.52777h 0.177165v 3.65186h 0.177165v -19.6878h 0.177165v 2.53357h 0.177165v 28.5093h 0.177165v
 -30.7087h 0.177165v 23.3986h 0.177165v -14.7136h 0.177165v 5.64002h 0.177165v 6.96811h 0.177165v -3.94698h 0.177165v 4.02505h 0.177165v -12.3519h 0.177165v 17.9493h 0.177165v 2.45053h 0.177165v -32.2688h 0.177165v 0.517692h 0.177165v -0.318656h
 0.177165v 21.8092h 0.177165v -6.60965h 0.177165v 16.0716h 0.177165v -24.7358h 0.177165v 13.2841h 0.177165v -19.8866h 0.177165v 22.1829h 0.177165v -2.67811h 0.177165v -0.251751h 0.177165v -4.24261h 0.177165v -22.55h 0.177165v -7.45769h 0.177165v
 24.4159h 0.177165v -10.0643h 0.177165v -10.4478h 0.177165v 36.4272h 0.177165v -23.0227h 0.177165v 2.96984h 0.177165v 10.0152h 0.177165v 16.3019h 0.177165v 33.3715h 0.177165v -36.7339h 0.177165v -9.03927h 0.177165v -4.57946h 0.177165v 6.29104h
 0.177165v -16.4724h 0.177165v 9.49753h 0.177165v -2.87964h 0.177165v -20.5691h 0.177165v 29.9044h 0.177165v -6.40523h 0.177165v 7.37604h 0.177165v 18.2087h 0.177165v -27.0772h 0.177165v 20.1727h 0.177165v -12.3735h 0.177165v -0.0110683h 0.177165v
 0.332225h 0.177165v -26.2258h 0.177165v 28.2683h 0.177165v -17.5216h 0.177165v -1.63016h 0.177165v -11.2214h 0.177165v 7.51231h 0.177165v 1.95482h 0.177165v 16.9107h 0.177165v 11.4034h 0.177165v -13.5488h 0.177165v 3.74188h 0.177165v -1.62731h
 0.177165v -13.0452h 0.177165v 29.3155h 0.177165v -28.361h 0.177165v 4.73456h 0.177165v 9.81543h 0.177165v -10.9336h 0.177165v 11.4879h 0.177165v 15.1366h 0.177165v -46.8365h 0.177165v 31.7157h 0.177165v -3.19441h 0.177165v 4.90687h 0.177165v
 -6.14238h 0.177165v -9.97419h 0.177165v 11.2375h 0.177165v -9.67284h 0.177165v 11.9985h 0.177165v 14.5865h 0.177165v 14.8157h 0.177165v -27.2896h 0.177165v 2.65744h 0.177165v -2.70836h 0.177165v -5.39639h 0.177165v 4.74821h 0.177165v -29.0642h
 0.177165v 14.8826h 0.177165v 9.23877h 0.177165v -7.4705h 0.177165v 5.58168h 0.177165v -1.43639h 0.177165v 9.58513h 0.177165v 3.39857h 0.177165v -15.9117h 0.177165v 32.5934h 0.177165v -40.4587h 0.177165v 22.7263h 0.177165v -26.2287h 0.177165v
 23.5554h 0.177165v -22.9492h 0.177165v 13.1554h 0.177165v -26.5755h 0.177165v 39.3602h 0.177165v -20.906h 0.177165v 2.70785h 0.177165v 11.0404h 0.177165v -36.3653h 0.177165v 15.8746h 0.177165v 17.5766h 0.177165v 2.79698h 0.177165v -20.4716h
 0.177165v 17.8876h 0.177165v 13.7995h 0.177165v -1.91391h 0.177165v -4.69955h 0.177165v -15.2889h 0.177165v -7.61819h 0.177165v 23.3385h 0.177165v 14.8666h 0.177165v -27.9112h 0.177165v 12.3861h 0.177165v -12.5166h 0.177165v -4.39828h 0.177165v
 12.2339h 0.177165v -24.7492h 0.177165v 42.9632h 0.177165v -22.147h 0.177165v 19.918h 0.177165v 9.45953h 0.177165v -34.7544h 0.177165v 0.591418h 0.177165v -9.31893h 0.177165v 26.6145h 0.177165v -24.5717h 0.177165v 22.2653h 0.177165v 1.45167h
 0.177165v -11.3087h 0.177165v 14.9143h 0.177165v 6.2267h 0.177165v -22.7711h 0.177165v 32.3009h 0.177165v -5.9394h 0.177165v -7.35024h 0.177165v -38.199h 0.177165v 38.17h 0.177165v -27.6126h 0.177165v 8.36602h 0.177165v -11.0169h 0.177165v -10.0765h
 0.177165v -0.631388h 0.177165v 28.8736h 0.177165v -9.61583h 0.177165v 17.8563h 0.177165v -4.934h 0.177165v -19.5092h 0.177165v 9.8103h 0.177165v 3.21947h 0.177165v 8.85268h 0.177165v -14.7778h 0.177165v 22.3402h 0.177165v -0.435389h 0.177165v
 -19.4729h 0.177165v -17.6025h 0.177165v 26.3617h 0.177165v -8.44836h 0.177165v -3.59756h 0.177165v -3.64785h 0.177165v 5.93419h 0.177165v -18.8975h 0.177165v 23.0689h 0.177165v -5.14831h 0.177165v 6.25595h 0.177165v 7.86025h 0.177165v 2.505h
 0.177165v -14.9961h 0.177165v -9.46799h 0.177165v 9.45267h 0.177165v 2.66264h 0.177165v -1.67397h 0.177165v -14.9475h 0.177165v 27.7652h 0.177165v 12.5087h 0.177165v -24.9886h 0.177165v 5.09426h 0.177165v -14.6319h 0.177165v 23.8309h 0.177165v
 -12.42h 0.177165v -13.4468h 0.177165v 21.3508h 0.177165v -9.7972h 0.177165v -9.88832h 0.177165v -27.0605h 0.177165v 45.7866h 0.177165v 14.9047h 0.177165v -18.1808h 0.177165v -2.19252h 0.177165v 11.5068h 0.177165v -15.6761h 0.177165v 3.53941h
 0.177165v -6.93003h 0.177165v 17.1721h 0.177165v 7.58497h 0.177165v -35.3204h 0.177165v 30.9338h 0.177165v -14.557h 0.177165v 0.684044h 0.177165v 2.50155h 0.177165v -15.3536h 0.177165v -5.96301h 0.177165v 30.9668h 0.177165v -12.3881h 0.177165v
 14.6639h 0.177165v -24.7034h 0.177165v 10.0016h 0.177165v -24.4918h 0.177165v 25.9079h 0.177165v -15.8587h 0.177165v 14.3189h 0.177165v 0.509903h 0.177165v -44.7598h 0.177165v 24.1057h 0.177165v 21.3311h 0.177165v 10.3554h 0.177165v -11.5485h
 0.177165v -5.96701h 0.177165v 23.0059h 0.177165v -39.7464h 0.177165v 27.7199h 0.177165v -16.2157h 0.177165v 37.8097h 0.177165v -30.3146h 0.177165v 5.46866h 0.177165v -29.7327h 0.177165v 24.9785h 0.177165v -20.7562h 0.177165v 24.2524h 0.177165v
 6.02681h 0.177165v -1.60518h 0.177165v -20.9349h 0.177165v 6.90401h 0.177165v 1.63593h 0.177165v -20.5602h 0.177165v 14.0643h 0.177165v 29.2994h 0.177165v -20.8366h 0.177165v -5.95879h 0.177165v 2.50695h 0.177165v -5.09924h 0.177165v 19.2499h
 0.177165v -14.2115h 0.177165v -6.80426h 0.177165v 4.78883h 0.177165v -19.2487h 0.177165v 23.5083h 0.177165v -10.718h 0.177165v 18.7527h 0.177165v -2.82364h 0.177165v 6.78118h 0.177165v -17.1866h 0.177165v 13.5541h 0.177165v -11.646h 0.177165v
 11.5519h 0.177165v -7.92727h 0.177165v -5.71912h 0.177165v 31.9769h 0.177165v -27.1196h 0.177165v -11.4393h 0.177165v 22.5892h 0.177165v -25.0083h 0.177165v 37.1335h 0.177165v -53.2485h 0.177165v -36.4309h 0.177165v -20.112h 0.177165v 4.57603h
 0.177165v -15.8686h 0.177165v -2.82611h 0.177165v 9.00712h 0.177165v -9.00712h 0.354331v 12.3515h 0.177165v 16.4406h 0.177165v 14.1328h 0.177165v 32.6857h 0.177165v 5.38334h 0.177165v 21.5357h 0.177165v 31.7276h 0.177165v -18.7362h 0.177165v
 33.5946h 0.177165v 44.8908h 0.177165v -11.0463h 0.177165v 24.4593h 0.177165v -11.8073h 0.177165v 12.3753h 0.177165v 6.94479h 0.177165v -17.1043h 0.177165v -12.4408h 0.177165v -33.1222h 0.177165v -30.9996h 0.177165v 10.7644h 0.177165v -24.0378h
 0.177165v -19.4146h 0.177165v -38.1789h 0.177165v -1.61301h 0.177165v 0.607744h 0.177165v -29.5648h 0.177165v 7.63421h 0.177165v -27.4625h 0.177165v 40.5685h 0.177165v 2.56058h 0.177165v -20.0271h 0.177165v 11.8611h 0.177165v -12.3819h 0.177165v
 48.592h 0.177165v 8.81635h 0.177165v 33.8979h 0.177165v 22.7144h 0.177165v -0.0178968h 0.177165v 23.3948h 0.177165v 13.8714h 0.177165v 15.9784h 0.177165v 25.1035h 0.177165v -21.9256h 0.177165v 4.62659h 0.177165v 7.26652h 0.177165v -18.1981h
 0.177165v -3.92346h 0.177165v -39.4496h 0.177165v -14.2845h 0.177165v -1.74336h 0.177165v -8.47867h 0.177165v -27.562h 0.177165v -20.0114h 0.177165v -27.2816h 0.177165v 5.25835h 0.177165v -35.7412h 0.177165v 1.98387h 0.177165v -2.27954h 0.177165v
 10.3916h 0.177165v 32.2155h 0.177165v -38.0525h 0.177165v 21.2493h 0.177165v 37.8123h 0.177165v -11.3367h 0.177165v 23.0015h 0.177165v 34.1243h 0.177165v 11.2899h 0.177165v 6.29722h 0.177165v 0.743559h 0.177165v 35.4704h 0.177165v 20.3838h 0.177165v
 -2.24753h 0.177165v 6.06128h 0.177165v -1.99233h 0.177165v 1.19538h 0.177165v -37.9007h 0.177165v -3.0278h 0.177165v 1.40583h 0.177165v -7.68433h 0.177165v -46.0707h 0.177165v -5.50554h 0.177165v -20.2313h 0.177165v -1.23183h 0.177165v -12.9411h
 0.177165v -8.86779h 0.177165v -13.816h 0.177165v -17.1088h 0.177165v 2.94497h 0.177165v -11.1159h 0.177165v 24.4586h 0.177165v -9.51636h 0.177165v 20.8551h 0.177165v 5.27876h 0.177165v 14.9752h 0.177165v 29.6274h 0.177165v -1.20073h 0.177165v
 28.4376h 0.177165v 27.1604h 0.177165v -24.0508h 0.177165v 38.038h 0.177165v 22.9417h 0.177165v -12.8129h 0.177165v -17.4345h 0.177165v 25.7996h 0.177165v 8.22755h 0.177165v -46.6763h 0.177165v 9.11146h 0.177165v 8.34582h 0.177165v -46.5317h
 0.177165v 5.41584h 0.177165v -18.1562h 0.177165v -6.32794h 0.177165v -34.1131h 0.177165v -2.02286h 0.177165v -32.6175h 0.177165v 20.3855h 0.177165v -33.5035h 0.177165v 22.8952h 0.177165v -6.4048h 0.177165v 13.6971h 0.177165v -17.7935h 0.177165v
 16.5923h 0.177165v 0.585344h 0.177165v 17.9024h 0.177165v -1.51029h 0.177165v 24.9829h 0.177165v 5.45178h 0.177165v 46.4037h 0.177165v -6.69098h 0.177165v 33.2477h 0.177165v -10.0918h 0.177165v 6.544h 0.177165v 5.78971h 0.177165v 12.296h 0.177165v
 -17.4474h 0.177165v -18.4363h 0.177165v -16.2022h 0.177165v -24.3558h 0.177165v 21.4899h 0.177165v 9.45595h 0.177165v -33.146h 0.177165v -1.09471h 0.177165v -14.7113h 0.177165v -50.5052h 0.177165v 9.05506h 0.177165v 2.43872h 0.177165v -10.804h
 0.177165v -2.80485h 0.177165v 21.8814h 0.177165v -19.293h 0.177165v -1.79537h 0.177165v 34.5999h 0.177165v -5.82319h 0.177165v 5.90736h 0.177165v 22.4431h 0.177165v 27.1513h 0.177165v -28.7722h 0.177165v 24.1349h 0.177165v 25.8272h 0.177165v
 6.01207h 0.177165v 9.99744h 0.177165v 12.0033h 0.177165v 6.49201h 0.177165v -35.5602h 0.177165v 14.6157h 0.177165v 2.81917h 0.177165v 4.96551h 0.177165v -56.1896h 0.177165v 9.63971h 0.177165v 26.296h 0.177165v -35.5957h 0.177165v -20.2789h 0.177165v
 -17.7483h 0.177165v -13.4845h 0.177165v -33.1091h 0.177165v 42.0489h 0.177165v -34.1127h 0.177165v 22.2877h 0.177165v -8.72783h 0.177165v 33.1233h 0.177165v -16.5516h 0.177165v 5.09735h 0.177165v 4.87996h 0.177165v 19.0241h 0.177165v 30.4609h
 0.177165v -3.58287h 0.177165v -9.91756h 0.177165v 1.74983h 0.177165v 32.6183h 0.177165v -4.58396h 0.177165v 2.628h 0.177165v 15.2473h 0.177165v -5.41637h 0.177165v 12.5643h 0.177165v 19.1598h 0.177165v -47.2263h 0.177165v 31.9394h 0.177165v
 -29.0248h 0.177165v -7.74671h 0.177165v -20.2569h 0.177165v -12.1998h 0.177165v 1.33444h 0.177165v -11.3255h 0.177165v -5.29752h 0.177165v -20.8025h 0.177165v -25.151h 0.177165v 29.5203h 0.177165v -5.81611h 0.177165v -28.1724h 0.177165v 34.1625h
 0.177165v -2.13033h 0.177165v 11.3718h 0.177165v 5.70447h 0.177165v 18.5109h 0.177165v -24.6869h 0.177165v 38.0993h 0.177165v -5.51443h 0.177165v 25.3878h 0.177165v -9.41666h 0.177165v 9.37066h 0.177165v -6.75559h 0.177165v 39.1049h 0.177165v
 -21.4494h 0.177165v 5.55447h 0.177165v 21.1825h 0.177165v -34.4448h 0.177165v 4.66472h 0.177165v -21.5953h 0.177165v -1.49628h 0.177165v -0.255813h 0.177165v -3.79835h 0.177165v -14.7973h 0.177165v -0.870861h 0.177165v -23.3469h 0.177165v 14.7486h
 0.177165v -37.8287h 0.177165v 22.6166h 0.177165v -1.33037h 0.177165v -3.3994h 0.177165v 5.85827h 0.177165v -21.1154h 0.177165v 20.6831h 0.177165v 7.36826h 0.177165v 13.9562h 0.177165v 6.15122h 0.177165v 9.61616h 0.177165v 14.0825h 0.177165v 1.02747h
 0.177165v 0.199016h 0.177165v -7.26511h 0.177165v 19.1833h 0.177165v 0.639018h 0.177165v 18.9513h 0.177165v -11.6989h 0.177165v -9.94808h 0.177165v 6.08536h 0.177165v -28.7349h 0.177165v 8.1275h 0.177165v 9.88912h 0.177165v -21.4392h 0.177165v
 -10.4399h 0.177165v -24.62h 0.177165v 7.66063h 0.177165v 14.7742h 0.177165v -24.0675h 0.177165v -19.9744h 0.177165v 18.0524h 0.177165v -7.71257h 0.177165v 5.46594h 0.177165v 18.378h 0.177165v -37.2317h 0.177165v 27.6655h 0.177165v 23.8146h 0.177165v
 -35.6292h 0.177165v 51.141h 0.177165v 18.9527h 0.177165v -8.09992h 0.177165v -10.8014h 0.177165v -5.22478h 0.177165v 32.9972h 0.177165v -7.59754h 0.177165v -14.1797h 0.177165v 41.2413h 0.177165v -28.672h 0.177165v -9.70087h 0.177165v 12.3921h
 0.177165v 2.7031h 0.177165v -2.10542h 0.177165v -32.6355h 0.177165v 18.4805h 0.177165v -30.4481h 0.177165v -13.0757h 0.177165v 12.2504h 0.177165v -35.5859h 0.177165v 29.392h 0.177165v -27.8653h 0.177165v -3.77998h 0.177165v 7.9252h 0.177165v
 -20.3698h 0.177165v 30.4647h 0.177165v 11.5129h 0.177165v -6.7915h 0.177165v -13.2712h 0.177165v 28.0419h 0.177165v -7.00113h 0.177165v 18.7554h 0.177165v -0.885343h 0.177165v 20.2858h 0.177165v -15.5405h 0.177165v 25.0805h 0.177165v 14.5329h
 0.177165v -11.1653h 0.177165v 7.63143h 0.177165v 6.30738h 0.177165v -16.1918h 0.177165v -4.09947h 0.177165v 2.88965h 0.177165v -13.9902h 0.177165v -14.7969h 0.177165v -1.35642h 0.177165v 12.8619h 0.177165v -11.2603h 0.177165v -6.03384h 0.177165v
 -8.43206h 0.177165v -14.7958h 0.177165v -14.3187h 0.177165v 27.7191h 0.177165v -9.15263h 0.177165v -10.9775h 0.177165v 18.4193h 0.177165v -7.69809h 0.177165v 3.88782h 0.177165v 12.136h 0.177165v -11.6627h 0.177165v 17.8538h 0.177165v 1.24017h
 0.177165v -5.35086h 0.177165v 2.16988h 0.177165v 15.0079h 0.177165v 14.549h 0.177165v 4.60078h 0.177165v 1.78955h 0.177165v -20.4606h 0.177165v 12.2605h 0.177165v -5.11562h 0.177165v 8.89931h 0.177165v -21.1444h 0.177165v 10.2306h 0.177165v 7.37394h
 0.177165v 4.19758h 0.177165v -36.5956h 0.177165v 0.880727h 0.177165v -2.58577h 0.177165v 6.23193h 0.177165v -45.6296h 0.177165v 42.0079h 0.177165v -13.7207h 0.177165v -7.95175h 0.177165v -12.5382h 0.177165v 10.6597h 0.177165v -0.048712h 0.177165v
 19.4242h 0.177165v -10.5761h 0.177165v -38.2271h 0.177165v 64.2028h 0.177165v -7.84241h 0.177165v 6.44475h 0.177165v 3.98696h 0.177165v 7.63814h 0.177165v 31.588h 0.177165v -28.7938h 0.177165v 16.2814h 0.177165v -4.30997h 0.177165v -4.8047h
 0.177165v 17.0504h 0.177165v -4.42019h 0.177165v -19.8436h 0.177165v 4.36089h 0.177165v -5.11652h 0.177165v -26.6787h 0.177165v 28.4603h 0.177165v 5.23275h 0.177165v -48.302h 0.177165v -19.011h 0.177165v 12.0214h 0.177165v 4.85954h 0.177165v
 -12.5658h 0.177165v 4.48131h 0.177165v -9.66987h 0.177165v 24.643h 0.177165v -4.12728h 0.177165v -9.83215h 0.177165v 21.1365h 0.177165v -6.6783h 0.177165v 21.7049h 0.177165v -12.136h 0.177165v 13.4173h 0.177165v -22.6151h 0.177165v 19.941h 0.177165v
 12.974h 0.177165v 8.29009h 0.177165v -8.54033h 0.177165v 26.2109h 0.177165v -12.7213h 0.177165v 3.45925h 0.177165v -19.4948h 0.177165v 12.8498h 0.177165v -23.8293h 0.177165v 36.4476h 0.177165v -35.1228h 0.177165v -11.0926h 0.177165v 1.55908h
 0.177165v 1.22922h 0.177165v 0.598283h 0.177165v -15.6363h 0.177165v 4.25774h 0.177165v -11.5747h 0.177165v 5.64112h 0.177165v 7.37605h 0.177165v -5.60568h 0.177165v 0.107507h 0.177165v 9.05698h 0.177165v -11.0037h 0.177165v 3.57885h 0.177165v
 14.979h 0.177165v 29.9915h 0.177165v -29.4625h 0.177165v -6.56039h 0.177165v 26.3624h 0.177165v -2.65197h 0.177165v 12.3647h 0.177165v -5.51276h 0.177165v -6.05536h 0.177165v 12.0153h 0.177165v 4.91304h 0.177165v -10.6443h 0.177165v 21.0817h
 0.177165v -28.2737h 0.177165v 0.138852h 0.177165v 0.616526h 0.177165v -8.57343h 0.177165v 17.1644h 0.177165v -10.5027h 0.177165v 2.82295h 0.177165v -52.8763h 0.177165v 39.7099h 0.177165v -16.7425h 0.177165v 19.5855h 0.177165v -53.2644h 0.177165v
 19.493h 0.177165v 23.3585h 0.177165v -10.0746h 0.177165v 12.3205h 0.177165v -20.0193h 0.177165v 37.9795h 0.177165v -11.4705h 0.177165v -2.44336h 0.177165v 18.2856h 0.177165v -24.7484h 0.177165v 13.3531h 0.177165v -3.94648h 0.177165v 11.8188h
 0.177165v -11.1234h 0.177165v 15.6141h 0.177165v 13.9497h 0.177165v -10.8261h 0.177165v -17.1532h 0.177165v 10.0905h 0.177165v -12.161h 0.177165v -15.8886h 0.177165v 20.7373h 0.177165v -2.4899h 0.177165v 3.70784h 0.177165v -26.7716h 0.177165v
 5.58025h 0.177165v -2.01h 0.177165v -24.7448h 0.177165v 26.6395h 0.177165v -32.5454h 0.177165v 22.6758h 0.177165v 18.2516h 0.177165v -5.65882h 0.177165v -9.44077h 0.177165v 5.59626h 0.177165v 11.9661h 0.177165v 3.77048h 0.177165v 12.4023h 0.177165v
 6.79413h 0.177165v -21.6851h 0.177165v 22.1787h 0.177165v 17.3739h 0.177165v -14.6488h 0.177165v -25.5493h 0.177165v 29.6053h 0.177165v -12.9411h 0.177165v 8.33513h 0.177165v -29.7443h 0.177165v 44.1596h 0.177165v -40.6868h 0.177165v 2.73755h
 0.177165v -5.81852h 0.177165v 8.61046h 0.177165v -53.1881h 0.177165v 58.0072h 0.177165v -15.1402h 0.177165v -6.75816h 0.177165v 3.11848h 0.177165v 14.0406h 0.177165v -20.0979h 0.177165v 14.6884h 0.177165v -24.2348h 0.177165v 10.6595h 0.177165v
 -3.86863h 0.177165v 1.63772h 0.177165v 34.7519h 0.177165v -5.47712h 0.177165v -17.8358h 0.177165v 11.6111h 0.177165v -21.6819h 0.177165v 36.6592h 0.177165v -23.2546h 0.177165v 25.034h 0.177165v -7.4839h 0.177165v 20.2443h 0.177165v 13.52h 0.177165v
 -19.6215h 0.177165v -5.46381h 0.177165v -28.217h 0.177165v 38.5571h 0.177165v -33.5201h 0.177165v 12.5079h 0.177165v 16.5927h 0.177165v -38.4265h 0.177165v 11.0108h 0.177165v -10.8788h 0.177165v 7.27898h 0.177165v -23.8908h 0.177165v -0.188243h
 0.177165v 4.54032h 0.177165v 8.87419h 0.177165v 21.3436h 0.177165v -29.9075h 0.177165v 1.77839h 0.177165v 7.57471h 0.177165v 6.71972h 0.177165v 7.64875h 0.177165v -14.51h 0.177165v 29.0459h 0.177165v -5.36615h 0.177165v 6.19405h 0.177165v -14.1364h
 0.177165v 23.409h 0.177165v 7.67008h 0.177165v -31.835h 0.177165v 10.3155h 0.177165v 2.60206h 0.177165v -5.6687h 0.177165v 21.7441h 0.177165v -32.5461h 0.177165v 16.9964h 0.177165v -21.8503h 0.177165v -3.84937h 0.177165v -8.97186h 0.177165v 17.0875h
 0.177165v -23.0134h 0.177165v 27.3855h 0.177165v -30.2875h 0.177165v 2.38213h 0.177165v 9.5381h 0.177165v 5.95168h 0.177165v -4.73305h 0.177165v 12.0467h 0.177165v -11.2981h 0.177165v -6.13665h 0.177165v 0.928208h 0.177165v 34.0514h 0.177165v
 -37.4248h 0.177165v 32.9714h 0.177165v -8.22367h 0.177165v 24.1183h 0.177165v -15.1098h 0.177165v 15.3617h 0.177165v -16.6342h 0.177165v -2.73175h 0.177165v -14.011h 0.177165v 0.18859h 0.177165v 19.0511h 0.177165v 21.3623h 0.177165v -19.2637h
 0.177165v -3.75575h 0.177165v -21.8949h 0.177165v 20.3614h 0.177165v -2.9599h 0.177165v -7.68731h 0.177165v -6.6916h 0.177165v -14.2134h 0.177165v -6.81103h 0.177165v 20.4053h 0.177165v 11.7013h 0.177165v -26.0117h 0.177165v -0.273986h 0.177165v
 -11.8782h 0.177165v 38.5323h 0.177165v -23.5677h 0.177165v 25.0029h 0.177165v -7.10792h 0.177165v 13.5196h 0.177165v -5.06127h 0.177165v -13.6045h 0.177165v 0.489481h 0.177165v 4.51379h 0.177165v 18.306h 0.177165v -6.59212h 0.177165v 6.32951h
 0.177165v -6.14666h 0.177165v 5.97162h 0.177165v -12.0516h 0.177165v -14.3583h 0.177165v 4.15717h 0.177165v -3.49922h 0.177165v -2.82611h 0.177165v 9.01904h 0.177165v 11.0836h 0.177165v -6.48227h 0.177165v -13.6805h 0.177165v -4.04047h 0.177165v
 9.07745h 0.177165v -6.58296h 0.177165v 12.4876h 0.177165v 3.29042h 0.177165v -0.13201h 0.177165v -1.01109h 0.177165v 16.7906h 0.177165v -23.986h 0.177165v 1.5947h 0.177165v 4.63333h 0.177165v -3.02956h 0.177165v 15.6655h 0.177165v -17.9555h
 0.177165v -2.44889h 0.177165v 28.6452h 0.177165v -19.8066h 0.177165v -4.2895h 0.177165v 16.0992h 0.177165v -0.808209h 0.177165v -11.4015h 0.177165v -5.65952h 0.177165v 14.4117h 0.177165v -0.470207h 0.177165v -11.007h 0.177165v 12.7436h 0.177165v
 -1.6239h 0.177165v -23.041h 0.177165v 13.0094h 0.177165v -2.7837h 0.177165v 9.52583h 0.177165v -1.23933h 0.177165v -24.2771h 0.177165v 0.909725h 0.177165v 14.9091h 0.177165v -37.7021h 0.177165v 37.7329h 0.177165v 1.81636h 0.177165v -12.1352h
 0.177165v 20.3825h 0.177165v -8.89885h 0.177165v 4.05475h 0.177165v 15.9622h 0.177165v -10.7179h 0.177165v -13.7639h 0.177165v 22.0483h 0.177165v -1.03819h 0.177165v -3.55201h 0.177165v 5.7089h 0.177165v -14.1601h 0.177165v 6.5564h 0.177165v
 -2.96943h 0.177165v 11.16h 0.177165v -23.4811h 0.177165v 13.5028h 0.177165v -21.9343h 0.177165v 20.1415h 0.177165v -11.6363h 0.177165v 7.702h 0.177165v -10.3128h 0.177165v -1.27757h 0.177165v 1.40058h 0.177165v 1.63367h 0.177165v -4.24825h 0.177165v
 -10.2398h 0.177165v 17.3825h 0.177165v 7.93595h 0.177165v -17.9274h 0.177165v 27.244h 0.177165v -4.06347h 0.177165v -3.1547h 0.177165v 8.79523h 0.177165v -14.8422h 0.177165v -1.55829h 0.177165v -13.4446h 0.177165v 15.5713h 0.177165v -3.23152h
 0.177165v 4.34844h 0.177165v -10.4487h 0.177165v 0.456315h 0.177165v 29.2035h 0.177165v -34.0892h 0.177165v 11.6133h 0.177165v 22.8234h 0.177165v -15.3975h 0.177165v -19.6381h 0.177165v 5.84303h 0.177165v -3.62849h 0.177165v -12.6683h 0.177165v
 22.6957h 0.177165v -35.0859h 0.177165v 16.8545h 0.177165v 21.6311h 0.177165v -7.50226h 0.177165v -9.82869h 0.177165v 18.1085h 0.177165v -23.0347h 0.177165v -16.1458h 0.177165v 28.7857h 0.177165v 16.9211h 0.177165v -4.60167h 0.177165v -17.4713h
 0.177165v 26.0568h 0.177165v -6.20502h 0.177165v 5.75449h 0.177165v -2.54258h 0.177165v -15.7164h 0.177165v 10.2103h 0.177165v -12.1898h 0.177165v 20.029h 0.177165v -14.5281h 0.177165v 20.9911h 0.177165v -5.10287h 0.177165v -29.579h 0.177165v
 7.55165h 0.177165v 29.0694h 0.177165v -3.37354h 0.177165v -6.1262h 0.177165v -36.2408h 0.177165v 8.28916h 0.177165v 20.7178h 0.177165v 6.33949h 0.177165v -27.6076h 0.177165v 16.3345h 0.177165v 10.1696h 0.177165v 3.72809h 0.177165v -27.4335h
 0.177165v 18.4251h 0.177165v 8.21851h 0.177165v -16.341h 0.177165v -5.55451h 0.177165v 27.3581h 0.177165v -10.5878h 0.177165v 1.29585h 0.177165v -0.421492h 0.177165v 10.0481h 0.177165v -16.4598h 0.177165v 2.59497h 0.177165v 14.6362h 0.177165v
 -25.8033h 0.177165v 31.6947h 0.177165v -18.0672h 0.177165v 5.4395h 0.177165v -8.07176h 0.177165v 22.4412h 0.177165v -45.0692h 0.177165v 6.86437h 0.177165v 29.9724h 0.177165v -24.9402h 0.177165v 1.32585h 0.177165v 15.0602h 0.177165v -19.2055h
 0.177165v 3.60558h 0.177165v -18.1712h 0.177165v 34.6881h 0.177165v -26.1098h 0.177165v 6.83569h 0.177165v 7.0296h 0.177165v 1.11771h 0.177165v -28.001h 0.177165v 21.1006h 0.177165v 14.3716h 0.177165v 10.3339h 0.177165v -16.5955h 0.177165v 2.88956h
 0.177165v -13.3074h 0.177165v 7.82121h 0.177165v 3.71701h 0.177165v 14.2746h 0.177165v -41.0923h 0.177165v 28.0788h 0.177165v 7.64229h 0.177165v -34.7996h 0.177165v 29.9702h 0.177165v -4.38204h 0.177165v -2.83555h 0.177165v -2.73773h 0.177165v
 21.326h 0.177165v -15.0819h 0.177165v -6.52893h 0.177165v 6.21384h 0.177165v 14.6737h 0.177165v -13.9309h 0.177165v -9.11209h 0.177165v -1.88607h 0.177165v 3.87925h 0.177165v -7.98971h 0.177165v 2.1558h 0.177165v 5.66369h 0.177165v -28.3089h
 0.177165v 14.7104h 0.177165v 16.0134h 0.177165v 22.7987h 0.177165v -25.76h 0.177165v -7.33456h 0.177165v 19.3736h 0.177165v -13.3401h 0.177165v 5.56626h 0.177165v 15.9164h 0.177165v -6.84677h 0.177165v -20.0665h 0.177165v 3.53621h 0.177165v 16.3041h
 0.177165v -3.15231h 0.177165v 19.5045h 0.177165v -3.62264h 0.177165v -18.046h 0.177165v -6.13284h 0.177165v 17.2228h 0.177165v -24.1894h 0.177165v 23.539h 0.177165v -27.4184h 0.177165v 3.5865h 0.177165v 25.6195h 0.177165v -36.852h 0.177165v
 -8.21688h 0.177165v 23.1039h 0.177165v -0.826998h 0.177165v 9.41936h 0.177165v 11.0352h 0.177165v -4.74786h 0.177165v -24.1305h 0.177165v 6.62598h 0.177165v 19.5107h 0.177165v 13.0505h 0.177165v -14.8108h 0.177165v -3.57926h 0.177165v -5.588h
 0.177165v -11.9229h 0.177165v 40.3845h 0.177165v -22.8191h 0.177165v 11.6837h 0.177165v -4.77807h 0.177165v 1.12224h 0.177165v -15.5586h 0.177165v -0.468236h 0.177165v 2.71241h 0.177165v -13.2715h 0.177165v -2.55087h 0.177165v 34.5766h 0.177165v
 -14.1707h 0.177165v -8.61557h 0.177165v 11.1034h 0.177165v 14.3644h 0.177165v -25.8018h 0.177165v -2.32496h 0.177165v 5.87479h 0.177165v -3.06798h 0.177165v 12.9014h 0.177165v -24.2283h 0.177165v 15.3432h 0.177165v 1.81084h 0.177165v -2.6091h
 0.177165v 0.676303h 0.177165v -7.33415h 0.177165v 9.97347h 0.177165v 24.7494h 0.177165v -22.793h 0.177165v 13.826h 0.177165v -30.0429h 0.177165v 20.3384h 0.177165v -16.2164h 0.177165v 5.37274h 0.177165v 3.67227h 0.177165v 2.45109h 0.177165v 3.39282h
 0.177165v -17.9415h 0.177165v -2.52711h 0.177165v 4.7566h 0.177165v 6.39126h 0.177165v 2.27837h 0.177165v -23.1563h 0.177165v 14.1075h 0.177165v 0.14238h 0.177165v -10.2274h 0.177165v 29.9768h 0.177165v -13.1882h 0.177165v -15.8809h 0.177165v
 15.7784h 0.177165v -1.81418h 0.177165v -17.7523h 0.177165v 48.5254h 0.177165v -18.6815h 0.177165v -2.87972h 0.177165v -3.88117h 0.177165v 15.3438h 0.177165v -23.2002h 0.177165v 10.326h 0.177165v 8.06612h 0.177165v -23.96h 0.177165v 6.05973h
 0.177165v 10.0269h 0.177165v -19.1689h 0.177165v 36.1597h 0.177165v -19.9708h 0.177165v 12.6835h 0.177165v 1.625h 0.177165v -35.5622h 0.177165v 5.15811h 0.177165v 11.0249h 0.177165v 3.59633h 0.177165v -3.80172h 0.177165v -16.9387h 0.177165v 22.7018h
 0.177165v 7.2278h 0.177165v 8.76171h 0.177165v -19.8161h 0.177165v -13.0123h 0.177165v 9.19652h 0.177165v 3.35719h 0.177165v -2.312h 0.177165v -0.471134h 0.177165v 19.6906h 0.177165v -13.8606h 0.177165v 3.28063h 0.177165v 25.7509h 0.177165v
 -13.3006h 0.177165v -21.5935h 0.177165v 3.48789h 0.177165v 13.4695h 0.177165v -12.0767h 0.177165v 14.4504h 0.177165v -27.4726h 0.177165v 14.8459h 0.177165v 12.9062h 0.177165v -27.6953h 0.177165v 23.3819h 0.177165v -16.9388h 0.177165v 7.45068h
 0.177165v 15.4465h 0.177165v -12.579h 0.177165v 25.8936h 0.177165v -19.5153h 0.177165v -18.3323h 0.177165v -18.6915h 0.177165v 42.0763h 0.177165v -0.560462h 0.177165v -13.5313h 0.177165v -7.69418h 0.177165v -2.60328h 0.177165v 25.2636h 0.177165v
 -18.0407h 0.177165v -1.12759h 0.177165v 17.1313h 0.177165v -4.7392h 0.177165v -13.6038h 0.177165v 13.3999h 0.177165v 12.5913h 0.177165v -14.6314h 0.177165v -1.3323h 0.177165v -10.1772h 0.177165v -5.25289h 0.177165v 7.19465h 0.177165v 4.34905h
 0.177165v 7.42726h 0.177165v -7.12287h 0.177165v -1.15h 0.177165v 19.6554h 0.177165v -24.573h 0.177165v -7.4901h 0.177165v 5.75293h 0.177165v 11.0937h 0.177165v -14.8254h 0.177165v -8.12076h 0.177165v 20.4184h 0.177165v 0.940094h 0.177165v -0.84551h
 0.177165v -23.2678h 0.177165v 45.5326h 0.177165v -2.05049h 0.177165v -32.238h 0.177165v 1.68826h 0.177165v 21.1483h 0.177165v 4.25879h 0.177165v -13.2843h 0.177165v 31.3592h 0.177165v -27.2884h 0.177165v -1.15514h 0.177165v 17.1153h 0.177165v
 -2.69099h 0.177165v -3.20254h 0.177165v -21.258h 0.177165v 10.5545h 0.177165v -2.98231h 0.177165v 1.47522h 0.177165v -4.9095h 0.177165v -15.0361h 0.177165v 34.3546h 0.177165v -7.105h 0.177165v -19.059h 0.177165v 2.71848h 0.177165v 0.138675h
 0.177165v 3.50349h 0.177165v -20.5593h 0.177165v 8.12506h 0.177165v 19.864h 0.177165v -11.4286h 0.177165v 15.1095h 0.177165v -11.0775h 0.177165v -3.53519h 0.177165v 20.8895h 0.177165v -35.2525h 0.177165v 25.8548h 0.177165v -13.3157h 0.177165v
 -5.35136h 0.177165v 20.3842h 0.177165v -5.40718h 0.177165v -9.93137h 0.177165v 2.1689h 0.177165v 5.36005h 0.177165v 8.48951h 0.177165v -27.5055h 0.177165v 9.10145h 0.177165v 9.70262h 0.177165v 11.5783h 0.177165v -10.6829h 0.177165v -6.44018h
 0.177165v -11.6867h 0.177165v 34.7004h 0.177165v -23.7151h 0.177165v 10.7947h 0.177165v -16.8936h 0.177165v 0.586433h 0.177165v 31.1407h 0.177165v -32.998h 0.177165v 6.57307h 0.177165v 5.0485h 0.177165v -6.80758h 0.177165v 24.9359h 0.177165v
 8.07963h 0.177165v -23.2777h 0.177165v 1.64637h 0.177165v -17.0759h 0.177165v 2.2247h 0.177165v 10.3407h 0.177165v 1.54327h 0.177165v -4.94531h 0.177165v -4.73377h 0.177165v -16.7572h 0.177165v 22.3746h 0.177165v -14.0507h 0.177165v 12.2268h
 0.177165v 3.33849h 0.177165v 4.10473h 0.177165v -8.80067h 0.177165v -8.73354h 0.177165v 19.4068h 0.177165v -5.72003h 0.177165v 2.6458h 0.177165v 6.05441h 0.177165v 5.15569h 0.177165v -28.4212h 0.177165v 28.5386h 0.177165v -15.2259h 0.177165v
 -3.78943h 0.177165v 18.7794h 0.177165v -25.7101h 0.177165v 30.3387h 0.177165v -27.35h 0.177165v 24.314h 0.177165v -23.266h 0.177165v 37.5578h 0.177165v -9.85711h 0.177165v -20.7546h 0.177165v 21.3492h 0.177165v -13.9542h 0.177165v 16.2487h 0.177165v
 -24.9245h 0.177165v 46.3241h 0.177165v -35.5521h 0.177165v -34.2687h 0.177165v 41.9549h 0.177165v -26.3645h 0.177165v 15.886h 0.177165v -12.8543h 0.177165v -0.422993h 0.177165v 17.637h 0.177165v 5.41961h 0.177165v -24.3804h 0.177165v 12.1726h
 0.177165v 4.91974h 0.177165v -8.22097h 0.177165v 14.6884h 0.177165v -17.3501h 0.177165v -5.32755h 0.177165v -0.199395h 0.177165v -16.2404h 0.177165v 46.8376h 0.177165v -12.9116h 0.177165v -22.8961h 0.177165v -9.64413h 0.177165v 60.583h 0.177165v
 -53.5931h 0.177165v 37.4662h 0.177165v -14.0384h 0.177165v -6.29354h 0.177165v 1.40004h 0.177165v 8.30653h 0.177165v 6.01293h 0.177165v -12.0584h 0.177165v 2.51793h 0.177165v -28.0557h 0.177165v 14.3065h 0.177165v 15.8477h 0.177165v -9.03425h
 0.177165v 13.9153h 0.177165v -14.6089h 0.177165v 2.72613h 0.177165v 8.36964h 0.177165v -11.5527h 0.177165v -1.68268h 0.177165v 1.75149h 0.177165v 5.43083h 0.177165v -15.1141h 0.177165v 11.9264h 0.177165v -3.5339h 0.177165v 5.53458h 0.177165v
 -5.22339h 0.177165v 23.8791h 0.177165v -29.1836h 0.177165v 27.6458h 0.177165v -43.7273h 0.177165v 11.9564h 0.177165v 28.9133h 0.177165v -13.7185h 0.177165v 22.9915h 0.177165v -7.71346h 0.177165v -7.85842h 0.177165v -8.88154h 0.177165v 11.751h
 0.177165v -21.1002h 0.177165v -0.445665h 0.177165v 12.3765h 0.177165v 12.5184h 0.177165v -15.7375h 0.177165v -1.56136h 0.177165v -5.18216h 0.177165v 18.346h 0.177165v -41.1421h 0.177165v 46.4767h 0.177165v -10.0337h 0.177165v -38.3758h 0.177165v
 34.406h 0.177165v -19.2179h 0.177165v 14.4299h 0.177165v 25.3017h 0.177165v -27.0305h 0.177165v 13.7668h 0.177165v -20.6985h 0.177165v 8.53695h 0.177165v -12.7549h 0.177165v -9.3617h 0.177165v 26.9167h 0.177165v 13.8211h 0.177165v -10.3848h
 0.177165v -3.25352h 0.177165v 5.63619h 0.177165v -10.8201h 0.177165v 6.82195h 0.177165v -4.23271h 0.177165v 2.56188h 0.177165v 3.71336h 0.177165v -13.2619h 0.177165v -0.133068h 0.177165v 5.74282h 0.177165v -19.0116h 0.177165v 28.4609h 0.177165v
 -3.74002h 0.177165v 7.89693h 0.177165v -23.0084h 0.177165v 19.9944h 0.177165v -18.0112h 0.177165v -3.9847h 0.177165v 28.5135h 0.177165v -15.4378h 0.177165v -11.4018h 0.177165v 32.7781h 0.177165v -20.6323h 0.177165v -8.79518h 0.177165v 11.0337h
 0.177165v -15.6245h 0.177165v 18.3637h 0.177165v -11.9369h 0.177165v 6.23472h 0.177165v 29.7979h 0.177165v -25.9164h 0.177165v -8.81088h 0.177165v 14.4848h 0.177165v -15.4147h 0.177165v 15.0513h 0.177165v 0.365069h 0.177165v 5.16177h 0.177165v
 -35.216h 0.177165v 1.09463h 0.177165v 28.5058h 0.177165v -13.6765h 0.177165v 4.3111h 0.177165v 17.4045h 0.177165v -19.9186h 0.177165v 7.41211h 0.177165v -39.5691h 0.177165v 40.3351h 0.177165v 0.363103h 0.177165v -11.6486h 0.177165v -0.787051h
 0.177165v 5.18482h 0.177165v -23.4486h 0.177165v 10.1475h 0.177165v 21.6034h 0.177165v 14.7164h 0.177165v -15.7865h 0.177165v -6.62872h 0.177165v 4.92226h 0.177165v -1.4285h 0.177165v -6.46612h 0.177165v -2.77972h 0.177165v -0.405663h 0.177165v
 18.518h 0.177165v -22.688h 0.177165v 13.7428h 0.177165v -10.7119h 0.177165v -5.17147h 0.177165v -26.879h 0.177165v 44.0139h 0.177165v -6.31469h 0.177165v 7.40993h 0.177165v 13.7774h 0.177165v -15.0036h 0.177165v 13.8089h 0.177165v -35.4556h
 0.177165v 2.59427h 0.177165v -10.8666h 0.177165v 33.1766h 0.177165v -4.05424h 0.177165v -3.83849h 0.177165v 4.40121h 0.177165v -38.2673h 0.177165v 33.3298h 0.177165v 14.4983h 0.177165v -8.53094h 0.177165v -22.6224h 0.177165v 41.2456h 0.177165v
 -6.49434h 0.177165v -21.999h 0.177165v 25.6988h 0.177165v -13.026h 0.177165v 1.05619h 0.177165v -9.9741h 0.177165v -17.2501h 0.177165v 16.4743h 0.177165v 40.1367h 0.177165v -48.9504h 0.177165v 15.9446h 0.177165v 6.31401h 0.177165v 10.1295h 0.177165v
 -39.1031h 0.177165v 21.809h 0.177165v -21.665h 0.177165v 27.6335h 0.177165v -5.25098h 0.177165v 16.5395h 0.177165v -9.89474h 0.177165v -30.6401h 0.177165v 47.2865h 0.177165v -44.0565h 0.177165v 39.5477h 0.177165v -16.9811h 0.177165v -7.68752h
 0.177165v -2.20338h 0.177165v 8.5224h 0.177165v 11.6824h 0.177165v -31.0441h 0.177165v 3.89565h 0.177165v 1.9577h 0.177165v 35.0558h 0.177165v -15.6096h 0.177165v -15.3004h 0.177165v -9.32286h 0.177165v -13.3945h 0.177165v 25.8471h 0.177165v 3.7004h
 0.177165v 14.165h 0.177165v -11.5458h 0.177165v -17.2068h 0.177165v 11.1124h 0.177165v -8.7354h 0.177165v -3.66591h 0.177165v 29.382h 0.177165v -17.9937h 0.177165v 2.15847h 0.177165v -15.2761h 0.177165v 10.1922h 0.177165v 10.9591h 0.177165v
 -8.20974h 0.177165v -11.5043h 0.177165v 18.2141h 0.177165v 3.32126h 0.177165v -30.054h 0.177165v 32.2852h 0.177165v -4.55373h 0.177165v 11.3532h 0.177165v -17.8421h 0.177165v 0.0565277h 0.177165v -1.30452h 0.177165v -2.218h 0.177165v -1.55097h
 0.177165v 14.3353h 0.177165v -12.6647h 0.177165v 0.464893h 0.177165v -11.7425h 0.177165v 22.0658h 0.177165v -16.9305h 0.177165v -2.73664h 0.177165v -7.42354h 0.177165v 16.3283h 0.177165v 32.1821h 0.177165v -14.9284h 0.177165v -9.6622h 0.177165v
 -3.95392h 0.177165v -11.2501h 0.177165v 7.28525h 0.177165v 2.2434h 0.177165v -7.61149h 0.177165v -3.10906h 0.177165v 5.90072h 0.177165v 0.888338h 0.177165v 7.93334h 0.177165v -11.2801h 0.177165v 3.20596h 0.177165v -10.5177h 0.177165v 34.7444h
 0.177165v -32.0939h 0.177165v 1.16662h 0.177165v 29.8176h 0.177165v 8.51717h 0.177165v -41.1618h 0.177165v 23.6913h 0.177165v -14.4339h 0.177165v -1.79106h 0.177165v 28.8933h 0.177165v -0.853655h 0.177165v 0.531686h 0.177165v -23.8765h 0.177165v
 -16.4598h 0.177165v -9.40194h 0.177165v 47.9282h 0.177165v -40.2887h 0.177165v 51.6993h 0.177165v -33.5657h 0.177165v -7.98086h 0.177165v 10.8604h 0.177165v -1.12941h 0.177165v 5.06113h 0.177165v -5.69305h 0.177165v -0.496458h 0.177165v -3.58793h
 0.177165v 7.36003h 0.177165v -2.52211h 0.177165v -1.72873h 0.177165v 14.8564h 0.177165v 8.87129h 0.177165v -18.5312h 0.177165v -1.00438h 0.177165v 20.8088h 0.177165v -40.8949h 0.177165v 23.1624h 0.177165v -20.5431h 0.177165v 9.02067h 0.177165v
 8.13996h 0.177165v -18.3204h 0.177165v 16.784h 0.177165v -1.64702h 0.177165v 40.7472h 0.177165v -29.6229h 0.177165v 3.01651h 0.177165v 20.5976h 0.177165v -17.5313h 0.177165v -1.49561h 0.177165v -5.41272h 0.177165v -16.8799h 0.177165v 1.92982h
 0.177165v -3.46619h 0.177165v -7.89232h 0.177165v 31.9559h 0.177165v -16.8302h 0.177165v -7.00256h 0.177165v 3.7462h 0.177165v 11.6981h 0.177165v 4.99781h 0.177165v -18.2509h 0.177165v -19.9671h 0.177165v 27.653h 0.177165v -2.07245h 0.177165v
 3.85312h 0.177165v -8.04019h 0.177165v 9.7255h 0.177165v 21.2783h 0.177165v -1.70243h 0.177165v -32.2625h 0.177165v 4.90381h 0.177165v 2.81682h 0.177165v 16.2803h 0.177165v -20.0883h 0.177165v 1.87837h 0.177165v 3.73032h 0.177165v -11.0798h
 0.177165v 16.4331h 0.177165v -4.80945h 0.177165v 0.846328h 0.177165v -27.1237h 0.177165v 15.9351h 0.177165v 20.0693h 0.177165v -24.4457h 0.177165v -10.9648h 0.177165v 3.84021h 0.177165v 13.2347h 0.177165v 0.617923h 0.177165v 20.1669h 0.177165v
 -0.786936h 0.177165v -11.8541h 0.177165v 1.4139h 0.177165v 34.5371h 0.177165v -55.2121h 0.177165v 10.9384h 0.177165v 12.4282h 0.177165v -1.25664h 0.177165v 1.03225h 0.177165v -5.58004h 0.177165v 0.842293h 0.177165v -7.79759h 0.177165v 2.42632h
 0.177165v 15.9359h 0.177165v 6.03832h 0.177165v -15.8899h 0.177165v -6.16634h 0.177165v 1.07512h 0.177165v -0.580127h 0.177165v 16.9953h 0.177165v -2.91157h 0.177165v 2.63109h 0.177165v -27.307h 0.177165v 44.0895h 0.177165v -11.3919h 0.177165v
 3.51365h 0.177165v -9.84927h 0.177165v 1.97964h 0.177165v -1.03291h 0.177165v -31.3178h 0.177165v 27.2155h 0.177165v -17.5538h 0.177165v 18.3227h 0.177165v 1.518h 0.177165v -18.7135h 0.177165v 9.99735h 0.177165v 7.53322h 0.177165v -2.50633h
 0.177165v 7.29857h 0.177165v -0.569018h 0.177165v 5.47513h 0.177165v -5.9245h 0.177165v -18.3294h 0.177165v 37.2582h 0.177165v -46.177h 0.177165v 12.7085h 0.177165v 9.50311h 0.177165v -0.830711h 0.177165v 8.36441h 0.177165v -12.4141h 0.177165v
 12.1372h 0.177165v -24.0957h 0.177165v -4.15168h 0.177165v 13.0933h 0.177165v 2.01269h 0.177165v -1.65626h 0.177165v -4.33753h 0.177165v 5.68698h 0.177165v -9.25139h 0.177165v 12.6992h 0.177165v -9.34846h 0.177165v 19.747h 0.177165v -5.02802h
 0.177165v 1.09233h 0.177165v -2.95424h 0.177165v 6.97231h 0.177165v -10.3741h 0.177165v 19.1451h 0.177165v -34.9058h 0.177165v 0.229603h 0.177165v 7.51702h 0.177165v -2.67738h 0.177165v 21.0177h 0.177165v -5.86571h 0.177165v -8.07665h 0.177165v
 8.66047h 0.177165v 1.17553h 0.177165v 6.52711h 0.177165v -9.21187h 0.177165v 2.98383h 0.177165v -22.1382h 0.177165v -18.7641h 0.177165v 63.4959h 0.177165v -41.5937h 0.177165v -12.2322h 0.177165v 37.0216h 0.177165v -27.3761h 0.177165v -2.93118h
 0.177165v 0.773566h 0.177165v 23.8236h 0.177165v -16.4986h 0.177165v -23.3068h 0.177165v 18.0241h 0.177165v 27.6472h 0.177165v 10.7677h 0.177165v -26.6557h 0.177165v 19.1771h 0.177165v -12.7119h 0.177165v -1.96567h 0.177165v -8.7824h 0.177165v
 7.30533h 0.177165v -2.39859h 0.177165v 19.1333h 0.177165v -25.6889h 0.177165v 8.66817h 0.177165v -6.74846h 0.177165v 6.3972h 0.177165v -0.358827h 0.177165v -21.2905h 0.177165v 27.3227h 0.177165v -19.7493h 0.177165v -0.786538h 0.177165v 29.6879h
 0.177165v -21.5281h 0.177165v -3.60595h 0.177165v 7.89138h 0.177165v -15.4483h 0.177165v 38.7932h 0.177165v -39.1269h 0.177165v 10.1212h 0.177165v -23.2662h 0.177165v 49.0986h 0.177165v -27.1763h 0.177165v 5.24022h 0.177165v -4.20219h 0.177165v
 -1.61371h 0.177165v -11.2841h 0.177165v 1.07226h 0.177165v 50.0005h 0.177165v -37.8573h 0.177165v 3.34794h 0.177165v 25.4988h 0.177165v -32.5081h 0.177165v 22.2959h 0.177165v -24.1265h 0.177165v 5.69083h 0.177165v -4.80736h 0.177165v 1.63706h
 0.177165v -0.550673h 0.177165v -6.47597h 0.177165v 15.983h 0.177165v 19.4248h 0.177165v -30.4023h 0.177165v -5.97204h 0.177165v -3.21801h 0.177165v 28.36h 0.177165v 12.395h 0.177165v -21.0467h 46.2402" fill="none" stroke="#ff0000"/>
<path d="M57.1929,241.799h 453.543" fill="none" stroke="black"/>
<path d="M61.7992,235.351v 6.44797" fill="none" stroke="black"/>
<path d="M72.4291,238.575v 3.22398" fill="none" stroke="black"/>
<path d="M83.0591,238.575v 3.22398" fill="none" stroke="black"/>
<path d="M93.689,238.575v 3.22398" fill="none" stroke="black"/>
<path d="M104.319,238.575v 3.22398" fill="none" stroke="black"/>
<path d="M114.949,235.351v 6.44797" fill="none" stroke="black"/>
<path d="M125.579,238.575v 3.22398" fill="none" stroke="black"/>
<path d="M136.209,238.575v 3.22398" fill="none" stroke="black"/>
<path d="M146.839,238.575v 3.22398" fill="none" stroke="black"/>
<path d="M157.469,238.575v 3.22398" fill="none" stroke="black"/>
<path d="M168.098,235.351v 6.44797" fill="none" stroke="black"/>
<path d="M178.728,238.575v 3.22398" fill="none" stroke="black"/>
<path d="M189.358,238.575v 3.22398" fill="none" stroke="black"/>
<path d="M199.988,238.575v 3.22398" fill="none" stroke="black"/>
<path d="M210.618,238.575v 3.22398" fill="none" stroke="black"/>
<path d="M221.248,235.351v 6.44797" fill="none" stroke="black"/>
<path d="M231.878,238.575v 3.22398" fill="none" stroke="black"/>
<path d="M242.508,238.575v 3.22398" fill="none" stroke="black"/>
<path d="M253.138,238.575v 3.22398" fill="none" stroke="black"/>
<path d="M263.768,238.575v 3.22398" fill="none" stroke="black"/>
<path d="M274.398,235.351v 6.44797" fill="none" stroke="black"/>
<path d="M285.028,238.575v 3.22398" fill="none" stroke="black"/>
<path d="M295.657,238.575v 3.22398" fill="none" stroke="black"/>
<path d="M306.287,238.575v 3.22398" fill="none" stroke="black"/>
<path d="M316.917,238.575v 3.22398" fill="none" stroke="black"/>
<path d="M327.547,235.351v 6.44797" fill="none" stroke="black"/>
<path d="M338.177,238.575v 3.22398" fill="none" stroke="black"/>
<path d="M348.807,238.575v 3.22398" fill="none" stroke="black"/>
<path d="M359.437,238.575v 3.22398" fill="none" stroke="black"/>
<path d="M370.067,238.575v 3.22398" fill="none" stroke="black"/>
<path d="M380.697,235.351v 6.44797" fill="none" stroke="black"/>
<path d="M391.327,238.575v 3.22398" fill="none" stroke="black"/>
<path d="M401.957,238.575v 3.22398" fill="none" stroke="black"/>
<path d="M412.587,238.575v 3.22398" fill="none" stroke="black"/>
<path d="M423.217,238.575v 3.22398" fill="none" stroke="black"/>
<path d="M433.846,235.351v 6.44797" fill="none" stroke="black"/>
<path d="M444.476,238.575v 3.22398" fill="none" stroke="black"/>
<path d="M455.106,238.575v 3.22398" fill="none" stroke="black"/>
<path d="M465.736,238.575v 3.22398" fill="none" stroke="black"/>
<path d="M476.366,238.575v 3.22398" fill="none" stroke="black"/>
<path d="M486.996,235.351v 6.44797" fill="none" stroke="black"/>
<path d="M61.7992,235.351v 6.44797" fill="none" stroke="black"/>
<path d="M486.996,235.351v 6.44797" fill="none" stroke="black"/>
<path d="M497.626,238.575v 3.22398" fill="none" stroke="black"/>
<path d="M508.256,238.575v 3.22398" fill="none" stroke="black"/>
<text xml:space="preserve" x="50.0209" y="250.451" fill="black" font-size="9.12686" font-family="Helvetica">13h50
</text>
<text xml:space="preserve" x="102.957" y="250.451" fill="black" font-size="9.12686" font-family="Helvetica">13h55
</text>
<text xml:space="preserve" x="155.893" y="250.451" fill="black" font-size="9.12686" font-family="Helvetica">14h00
</text>
<text xml:space="preserve" x="209.399" y="250.451" fill="black" font-size="9.12686" font-family="Helvetica">14h05
</text>
<text xml:space="preserve" x="262.335" y="250.451" fill="black" font-size="9.12686" font-family="Helvetica">14h10
</text>
<text xml:space="preserve" x="315.84" y="250.451" fill="black" font-size="9.12686" font-family="Helvetica">14h15
</text>
<text xml:space="preserve" x="368.776" y="250.451" fill="black" font-size="9.12686" font-family="Helvetica">14h20
</text>
<text xml:space="preserve" x="421.712" y="250.451" fill="black" font-size="9.12686" font-family="Helvetica">14h25
</text>
<text xml:space="preserve" x="475.218" y="250.451" fill="black" font-size="9.12686" font-family="Helvetica">14h30
</text>
<path d="M57.1929,241.799v -214.932" fill="none" stroke="black"/>
<path d="M70.7992,241.799h -13.6063" fill="none" stroke="black"/>
<path d="M63.9961,239.649h -6.80315" fill="none" stroke="black"/>
<path d="M63.9961,237.5h -6.80315" fill="none" stroke="black"/>
<path d="M63.9961,235.351h -6.80315" fill="none" stroke="black"/>
<path d="M63.9961,233.201h -6.80315" fill="none" stroke="black"/>
<path d="M70.7992,231.052h -13.6063" fill="none" stroke="black"/>
<path d="M63.9961,228.903h -6.80315" fill="none" stroke="black"/>
<path d="M63.9961,226.753h -6.80315" fill="none" stroke="black"/>
<path d="M63.9961,224.604h -6.80315" fill="none" stroke="black"/>
<path d="M63.9961,222.455h -6.80315" fill="none" stroke="black"/>
<path d="M70.7992,220.305h -13.6063" fill="none" stroke="black"/>
<path d="M63.9961,218.156h -6.80315" fill="none" stroke="black"/>
<path d="M63.9961,216.007h -6.80315" fill="none" stroke="black"/>
<path d="M63.9961,213.858h -6.80315" fill="none" stroke="black"/>
<path d="M63.9961,211.708h -6.80315" fill="none" stroke="black"/>
<path d="M70.7992,209.559h -13.6063" fill="none" stroke="black"/>
<path d="M63.9961,207.41h -6.80315" fill="none" stroke="black"/>
<path d="M63.9961,205.26h -6.80315" fill="none" stroke="black"/>
<path d="M63.9961,203.111h -6.80315" fill="none" stroke="black"/>
<path d="M63.9961,200.962h -6.80315" fill="none" stroke="black"/>
<path d="M70.7992,198.812h -13.6063" fill="none" stroke="black"/>
<path d="M63.9961,196.663h -6.80315" fill="none" stroke="black"/>
<path d="M63.9961,194.514h -6.80315" fill="none" stroke="black"/>
<path d="M63.9961,192.364h -6.80315" fill="none" stroke="black"/>
<path d="M63.9961,190.215h -6.80315" fill="none" stroke="black"/>
<path d="M70.7992,188.066h -13.6063" fill="none" stroke="black"/>
<path d="M63.9961,185.916h -6.80315" fill="none" stroke="black"/>
<path d="M63.9961,183.767h -6.80315" fill="none" stroke="black"/>
<path d="M63.9961,181.618h -6.80315" fill="none" stroke="black"/>
<path d="M63.9961,179.468h -6.80315" fill="none" stroke="black"/>
<path d="M70.7992,177.319h -13.6063" fill="none" stroke="black"/>
<path d="M63.9961,175.17h -6.80315" fill="none" stroke="black"/>
<path d="M63.9961,173.02h -6.80315" fill="none" stroke="black"/>
<path d="M63.9961,170.871h -6.80315" fill="none" stroke="black"/>
<path d="M63.9961,168.722h -6.80315" fill="none" stroke="black"/>
<path d="M70.7992,166.572h -13.6063" fill="none" stroke="black"/>
<path d="M63.9961,164.423h -6.80315" fill="none" stroke="black"/>
<path d="M63.9961,162.274h -6.80315" fill="none" stroke="black"/>
<path d="M63.9961,160.124h -6.80315" fill="none" stroke="black"/>
<path d="M63.9961,157.975h -6.80315" fill="none" stroke="black"/>
<path d="M70.7992,155.826h -13.6063" fill="none" stroke="black"/>
<path d="M63.9961,153.676h -6.80315" fill="none" stroke="black"/>
<path d="M63.9961,151.527h -6.80315" fill="none" stroke="black"/>
<path d="M63.9961,149.378h -6.80315" fill="none" stroke="black"/>
<path d="M63.9961,147.229h -6.80315" fill="none" stroke="black"/>
<path d="M70.7992,145.079h -13.6063" fill="none" stroke="black"/>
<path d="M63.9961,142.93h -6.80315" fill="none" stroke="black"/>
<path d="M63.9961,140.781h -6.80315" fill="none" stroke="black"/>
<path d="M63.9961,138.631h -6.80315" fill="none" stroke="black"/>
<path d="M63.9961,136.482h -6.80315" fill="none" stroke="black"/>
<path d="M70.7992,134.333h -13.6063" fill="none" stroke="black"/>
<path d="M63.9961,132.183h -6.80315" fill="none" stroke="black"/>
<path d="M63.9961,130.034h -6.80315" fill="none" stroke="black"/>
<path d="M63.9961,127.885h -6.80315" fill="none" stroke="black"/>
<path d="M63.9961,125.735h -6.80315" fill="none" stroke="black"/>
<path d="M70.7992,123.586h -13.6063" fill="none" stroke="black"/>
<path d="M63.9961,121.437h -6.80315" fill="none" stroke="black"/>
<path d="M63.9961,119.287h -6.80315" fill="none" stroke="black"/>
<path d="M63.9961,117.138h -6.80315" fill="none" stroke="black"/>
<path d="M63.9961,114.989h -6.80315" fill="none" stroke="black"/>
<path d="M70.7992,112.839h -13.6063" fill="none" stroke="black"/>
<path d="M63.9961,110.69h -6.80315" fill="none" stroke="black"/>
<path d="M63.9961,108.541h -6.80315" fill="none" stroke="black"/>
<path d="M63.9961,106.391h -6.80315" fill="none" stroke="black"/>
<path d="M63.9961,104.242h -6.80315" fill="none" stroke="black"/>
<path d="M70.7992,102.093h -13.6063" fill="none" stroke="black"/>
<path d="M63.9961,99.9435h -6.80315" fill="none" stroke="black"/>
<path d="M63.9961,97.7941h -6.80315" fill="none" stroke="black"/>
<path d="M63.9961,95.6448h -6.80315" fill="none" stroke="black"/>
<path d="M63.9961,93.4955h -6.80315" fill="none" stroke="black"/>
<path d="M70.7992,91.3462h -13.6063" fill="none" stroke="black"/>
<path d="M63.9961,89.1969h -6.80315" fill="none" stroke="black"/>
<path d="M63.9961,87.0475h -6.80315" fill="none" stroke="black"/>
<path d="M63.9961,84.8982h -6.80315" fill="none" stroke="black"/>
<path d="M63.9961,82.7489h -6.80315" fill="none" stroke="black"/>
<path d="M70.7992,80.5996h -13.6063" fill="none" stroke="black"/>
<path d="M63.9961,78.4502h -6.80315" fill="none" stroke="black"/>
<path d="M63.9961,76.3009h -6.80315" fill="none" stroke="black"/>
<path d="M63.9961,74.1516h -6.80315" fill="none" stroke="black"/>
<path d="M63.9961,72.0023h -6.80315" fill="none" stroke="black"/>
<path d="M70.7992,69.853h -13.6063" fill="none" stroke="black"/>
<path d="M63.9961,67.7036h -6.80315" fill="none" stroke="black"/>
<path d="M63.9961,65.5543h -6.80315" fill="none" stroke="black"/>
<path d="M63.9961,63.405h -6.80315" fill="none" stroke="black"/>
<path d="M63.9961,61.2557h -6.80315" fill="none" stroke="black"/>
<path d="M70.7992,59.1063h -13.6063" fill="none" stroke="black"/>
<path d="M63.9961,56.957h -6.80315" fill="none" stroke="black"/>
<path d="M63.9961,54.8077h -6.80315" fill="none" stroke="black"/>
<path d="M63.9961,52.6584h -6.80315" fill="none" stroke="black"/>
<path d="M63.9961,50.5091h -6.80315" fill="none" stroke="black"/>
<path d="M70.7992,48.3597h -13.6063" fill="none" stroke="black"/>
<path d="M63.9961,46.2104h -6.80315" fill="none" stroke="black"/>
<path d="M63.9961,44.0611h -6.80315" fill="none" stroke="black"/>
<path d="M63.9961,41.9118h -6.80315" fill="none" stroke="black"/>
<path d="M63.9961,39.7625h -6.80315" fill="none" stroke="black"/>
<path d="M70.7992,37.6131h -13.6063" fill="none" stroke="black"/>
<path d="M63.9961,35.4638h -6.80315" fill="none" stroke="black"/>
<path d="M63.9961,33.3145h -6.80315" fill="none" stroke="black"/>
<path d="M63.9961,31.1652h -6.80315" fill="none" stroke="black"/>
<path d="M63.9961,29.0158h -6.80315" fill="none" stroke="black"/>
<path d="M70.7992,26.8665h -13.6063" fill="none" stroke="black"/>
<text xml:space="preserve" x="35.7908" y="245.328" fill="black" font-size="9.12686" font-family="Helvetica">1000
</text>
<text xml:space="preserve" x="30.6679" y="245.328" fill="black" font-size="9.12686" font-family="Times">&#8722;
</text>
<text xml:space="preserve" x="40.3444" y="234.513" fill="black" font-size="9.12686" font-family="Helvetica">900
</text>
<text xml:space="preserve" x="35.2216" y="234.513" fill="black" font-size="9.12686" font-family="Times">&#8722;
</text>
<text xml:space="preserve" x="40.3444" y="223.698" fill="black" font-size="9.12686" font-family="Helvetica">800
</text>
<text xml:space="preserve" x="35.2216" y="223.698" fill="black" font-size="9.12686" font-family="Times">&#8722;
</text>
<text xml:space="preserve" x="40.3444" y="212.883" fill="black" font-size="9.12686" font-family="Helvetica">700
</text>
<text xml:space="preserve" x="35.2216" y="212.883" fill="black" font-size="9.12686" font-family="Times">&#8722;
</text>
<text xml:space="preserve" x="40.3444" y="202.068" fill="black" font-size="9.12686" font-family="Helvetica">600
</text>
<text xml:space="preserve" x="35.2216" y="202.068" fill="black" font-size="9.12686" font-family="Times">&#8722;
</text>
<text xml:space="preserve" x="40.3444" y="191.253" fill="black" font-size="9.12686" font-family="Helvetica">500
</text>
<text xml:space="preserve" x="35.2216" y="191.253" fill="black" font-size="9.12686" font-family="Times">&#8722;
</text>
<text xml:space="preserve" x="40.3444" y="181.008" fill="black" font-size="9.12686" font-family="Helvetica">400
</text>
<text xml:space="preserve" x="35.2216" y="181.008" fill="black" font-size="9.12686" font-family="Times">&#8722;
</text>
<text xml:space="preserve" x="40.3444" y="170.193" fill="black" font-size="9.12686" font-family="Helvetica">300
</text>
<text xml:space="preserve" x="35.2216" y="170.193" fill="black" font-size="9.12686" font-family="Times">&#8722;
</text>
<text xml:space="preserve" x="40.3444" y="159.378" fill="black" font-size="9.12686" font-family="Helvetica">200
</text>
<text xml:space="preserve" x="35.2216" y="159.378" fill="black" font-size="9.12686" font-family="Times">&#8722;
</text>
<text xml:space="preserve" x="40.3444" y="148.563" fill="black" font-size="9.12686" font-family="Helvetica">100
</text>
<text xml:space="preserve" x="35.2216" y="148.563" fill="black" font-size="9.12686" font-family="Times">&#8722;
</text>
<text xml:space="preserve" x="50.0209" y="137.748" fill="black" font-size="9.12686" font-family="Helvetica">0
</text>
<text xml:space="preserve" x="40.3444" y="126.933" fill="black" font-size="9.12686" font-family="Helvetica">100
</text>
<text xml:space="preserve" x="40.3444" y="116.118" fill="black" font-size="9.12686" font-family="Helvetica">200
</text>
<text xml:space="preserve" x="40.3444" y="105.303" fill="black" font-size="9.12686" font-family="Helvetica">300
</text>
<text xml:space="preserve" x="40.3444" y="94.4882" fill="black" font-size="9.12686" font-family="Helvetica">400
</text>
<text xml:space="preserve" x="40.3444" y="84.2425" fill="black" font-size="9.12686" font-family="Helvetica">500
</text>
<text xml:space="preserve" x="40.3444" y="73.4276" fill="black" font-size="9.12686" font-family="Helvetica">600
</text>
<text xml:space="preserve" x="40.3444" y="62.6127" fill="black" font-size="9.12686" font-family="Helvetica">700
</text>
<text xml:space="preserve" x="40.3444" y="51.7977" fill="black" font-size="9.12686" font-family="Helvetica">800
</text>
<text xml:space="preserve" x="40.3444" y="40.9828" fill="black" font-size="9.12686" font-family="Helvetica">900
</text>
<text xml:space="preserve" x="35.7908" y="30.1679" fill="black" font-size="9.12686" font-family="Helvetica">1000
</text>
<text xml:space="preserve" x="237.859" y="13.0917" fill="black" font-size="12.023" font-family="Helvetica">The ROOT seism
</text></svg>
