<?xml version="1.0" standalone="no"?>
<svg width="567.429" height="384.969" viewBox="0 0 567.429 384.969" xmlns="http://www.w3.org/2000/svg" shape-rendering="crispEdges">
<title>
./old_svg_ref/statsEditing.svg
</title>
<desc>
Creator: ROOT Version 6.33.01
CreationDate: Wed Jul 10 10:03:25 2024</desc>
<defs>
</defs>
<rect x="0.5" y="0" width="566.929" height="384.469" fill="white"/>
<rect x="91.2087" y="19.2235" width="447.874" height="303.731" fill="white"/>
<rect x="91.2087" y="19.2235" width="447.874" height="303.731" fill="none" stroke="black"/>
<rect x="91.2087" y="19.2235" width="447.874" height="303.731" fill="white"/>
<rect x="91.2087" y="19.2235" width="447.874" height="303.731" fill="none" stroke="black"/>
<path d="M91.2087,316.148h 4.47874v 6.80629h 8.95748v -13.6126h 4.47874v 13.6126h 4.47874v -10.2094h 4.47874v -6.80629h 4.47874v 6.80629h 4.47874v 6.80629h 4.47874v -13.6126h 4.47874v 3.40314h 4.47874v -6.80629h 4.47874v 10.2094h 4.47874v -6.80629h
 8.95748v -10.2094h 4.47874v -20.4189h 8.95748v -3.40314h 4.47874v 20.4189h 4.47874v -40.8377h 4.47874v 34.0314h 4.47874v -17.0157h 4.47874v -27.2252h 17.915v -10.2094h 4.47874v -34.0314h 4.47874v 17.0157h 4.47874v -17.0157h 4.47874v -13.6126h
 4.47874v 3.40314h 4.47874v -6.80629h 4.47874v -13.6126h 4.47874v -37.4346h 4.47874v 17.0157h 4.47874v 17.0157h 4.47874v -17.0157h 4.47874v -51.0472h 4.47874v 44.2409h 8.95748v -44.2409h 4.47874v -6.80629h 4.47874v -27.2252h 4.47874v -10.2094h
 4.47874v 68.0629h 4.47874v -40.8377h 4.47874v 3.40314h 4.47874v -47.644h 4.47874v 85.0786h 4.47874v -30.6283h 4.47874v -37.4346h 4.47874v 54.4503h 4.47874v -3.40314h 4.47874v -6.80629h 4.47874v -6.80629h 4.47874v -40.8377h 4.47874v 74.8692h 4.47874v
 3.40314h 4.47874v 13.6126h 4.47874v 3.40314h 4.47874v -47.644h 4.47874v 105.497h 4.47874v -78.2723h 4.47874v 30.6283h 4.47874v 30.6283h 4.47874v -13.6126h 4.47874v 37.4346h 4.47874v 6.80629h 4.47874v -10.2094h 4.47874v 23.822h 4.47874v 6.80629h
 4.47874v 6.80629h 4.47874v 17.0157h 4.47874v -27.2252h 4.47874v 6.80629h 4.47874v 10.2094h 4.47874v 23.822h 8.95748v 6.80629h 4.47874v 13.6126h 4.47874v -6.80629h 4.47874v 17.0157h 4.47874v -17.0157h 4.47874v 6.80629h 4.47874v 3.40314h 8.95748v
 13.6126h 4.47874v -6.80629h 4.47874v 13.6126h 4.47874v -3.40314h 4.47874v -6.80629h 4.47874v 6.80629h 4.47874v 3.40314h 4.47874v 3.40314h 4.47874v 3.40314h 4.47874v -3.40314h 4.47874v 3.40314h 4.47874v -10.2094h 4.47874" fill="none" stroke="black"
 stroke-width="2"/>
<path d="M91.2087,322.954h 447.874" fill="none" stroke="black"/>
<path d="M91.2087,313.842v 9.11192" fill="none" stroke="black"/>
<path d="M106.138,318.398v 4.55596" fill="none" stroke="black"/>
<path d="M121.067,318.398v 4.55596" fill="none" stroke="black"/>
<path d="M135.996,318.398v 4.55596" fill="none" stroke="black"/>
<path d="M150.925,318.398v 4.55596" fill="none" stroke="black"/>
<path d="M165.854,313.842v 9.11192" fill="none" stroke="black"/>
<path d="M180.783,318.398v 4.55596" fill="none" stroke="black"/>
<path d="M195.713,318.398v 4.55596" fill="none" stroke="black"/>
<path d="M210.642,318.398v 4.55596" fill="none" stroke="black"/>
<path d="M225.571,318.398v 4.55596" fill="none" stroke="black"/>
<path d="M240.5,313.842v 9.11192" fill="none" stroke="black"/>
<path d="M255.429,318.398v 4.55596" fill="none" stroke="black"/>
<path d="M270.358,318.398v 4.55596" fill="none" stroke="black"/>
<path d="M285.287,318.398v 4.55596" fill="none" stroke="black"/>
<path d="M300.217,318.398v 4.55596" fill="none" stroke="black"/>
<path d="M315.146,313.842v 9.11192" fill="none" stroke="black"/>
<path d="M330.075,318.398v 4.55596" fill="none" stroke="black"/>
<path d="M345.004,318.398v 4.55596" fill="none" stroke="black"/>
<path d="M359.933,318.398v 4.55596" fill="none" stroke="black"/>
<path d="M374.862,318.398v 4.55596" fill="none" stroke="black"/>
<path d="M389.791,313.842v 9.11192" fill="none" stroke="black"/>
<path d="M404.72,318.398v 4.55596" fill="none" stroke="black"/>
<path d="M419.65,318.398v 4.55596" fill="none" stroke="black"/>
<path d="M434.579,318.398v 4.55596" fill="none" stroke="black"/>
<path d="M449.508,318.398v 4.55596" fill="none" stroke="black"/>
<path d="M464.437,313.842v 9.11192" fill="none" stroke="black"/>
<path d="M479.366,318.398v 4.55596" fill="none" stroke="black"/>
<path d="M494.295,318.398v 4.55596" fill="none" stroke="black"/>
<path d="M509.224,318.398v 4.55596" fill="none" stroke="black"/>
<path d="M524.154,318.398v 4.55596" fill="none" stroke="black"/>
<path d="M539.083,313.842v 9.11192" fill="none" stroke="black"/>
<path d="M539.083,313.842v 9.11192" fill="none" stroke="black"/>
<text xml:space="preserve" x="90.1009" y="340.483" fill="black" font-size="18.1362" font-family="Helvetica">3
</text>
<text xml:space="preserve" x="81.1408" y="340.483" fill="black" font-size="18.1362" font-family="Times">&#8722;
</text>
<text xml:space="preserve" x="165.04" y="340.483" fill="black" font-size="18.1362" font-family="Helvetica">2
</text>
<text xml:space="preserve" x="156.08" y="340.483" fill="black" font-size="18.1362" font-family="Times">&#8722;
</text>
<text xml:space="preserve" x="241.608" y="340.483" fill="black" font-size="18.1362" font-family="Helvetica">1
</text>
<text xml:space="preserve" x="232.648" y="340.483" fill="black" font-size="18.1362" font-family="Times">&#8722;
</text>
<text xml:space="preserve" x="310.03" y="340.483" fill="black" font-size="18.1362" font-family="Helvetica">0
</text>
<text xml:space="preserve" x="386.598" y="340.483" fill="black" font-size="18.1362" font-family="Helvetica">1
</text>
<text xml:space="preserve" x="459.908" y="340.483" fill="black" font-size="18.1362" font-family="Helvetica">2
</text>
<text xml:space="preserve" x="534.032" y="340.483" fill="black" font-size="18.1362" font-family="Helvetica">3
</text>
<path d="M91.2087,19.2235h 447.874" fill="none" stroke="black"/>
<path d="M91.2087,28.3354v -9.11192" fill="none" stroke="black"/>
<path d="M106.138,23.7794v -4.55596" fill="none" stroke="black"/>
<path d="M121.067,23.7794v -4.55596" fill="none" stroke="black"/>
<path d="M135.996,23.7794v -4.55596" fill="none" stroke="black"/>
<path d="M150.925,23.7794v -4.55596" fill="none" stroke="black"/>
<path d="M165.854,28.3354v -9.11192" fill="none" stroke="black"/>
<path d="M180.783,23.7794v -4.55596" fill="none" stroke="black"/>
<path d="M195.713,23.7794v -4.55596" fill="none" stroke="black"/>
<path d="M210.642,23.7794v -4.55596" fill="none" stroke="black"/>
<path d="M225.571,23.7794v -4.55596" fill="none" stroke="black"/>
<path d="M240.5,28.3354v -9.11192" fill="none" stroke="black"/>
<path d="M255.429,23.7794v -4.55596" fill="none" stroke="black"/>
<path d="M270.358,23.7794v -4.55596" fill="none" stroke="black"/>
<path d="M285.287,23.7794v -4.55596" fill="none" stroke="black"/>
<path d="M300.217,23.7794v -4.55596" fill="none" stroke="black"/>
<path d="M315.146,28.3354v -9.11192" fill="none" stroke="black"/>
<path d="M330.075,23.7794v -4.55596" fill="none" stroke="black"/>
<path d="M345.004,23.7794v -4.55596" fill="none" stroke="black"/>
<path d="M359.933,23.7794v -4.55596" fill="none" stroke="black"/>
<path d="M374.862,23.7794v -4.55596" fill="none" stroke="black"/>
<path d="M389.791,28.3354v -9.11192" fill="none" stroke="black"/>
<path d="M404.72,23.7794v -4.55596" fill="none" stroke="black"/>
<path d="M419.65,23.7794v -4.55596" fill="none" stroke="black"/>
<path d="M434.579,23.7794v -4.55596" fill="none" stroke="black"/>
<path d="M449.508,23.7794v -4.55596" fill="none" stroke="black"/>
<path d="M464.437,28.3354v -9.11192" fill="none" stroke="black"/>
<path d="M479.366,23.7794v -4.55596" fill="none" stroke="black"/>
<path d="M494.295,23.7794v -4.55596" fill="none" stroke="black"/>
<path d="M509.224,23.7794v -4.55596" fill="none" stroke="black"/>
<path d="M524.154,23.7794v -4.55596" fill="none" stroke="black"/>
<path d="M539.083,28.3354v -9.11192" fill="none" stroke="black"/>
<path d="M539.083,28.3354v -9.11192" fill="none" stroke="black"/>
<path d="M91.2087,322.954v -303.731" fill="none" stroke="black"/>
<path d="M104.645,322.954h -13.4362" fill="none" stroke="black"/>
<path d="M97.9268,316.148h -6.71811" fill="none" stroke="black"/>
<path d="M97.9268,309.342h -6.71811" fill="none" stroke="black"/>
<path d="M97.9268,302.535h -6.71811" fill="none" stroke="black"/>
<path d="M97.9268,295.729h -6.71811" fill="none" stroke="black"/>
<path d="M104.645,288.923h -13.4362" fill="none" stroke="black"/>
<path d="M97.9268,282.116h -6.71811" fill="none" stroke="black"/>
<path d="M97.9268,275.31h -6.71811" fill="none" stroke="black"/>
<path d="M97.9268,268.504h -6.71811" fill="none" stroke="black"/>
<path d="M97.9268,261.698h -6.71811" fill="none" stroke="black"/>
<path d="M104.645,254.891h -13.4362" fill="none" stroke="black"/>
<path d="M97.9268,248.085h -6.71811" fill="none" stroke="black"/>
<path d="M97.9268,241.279h -6.71811" fill="none" stroke="black"/>
<path d="M97.9268,234.472h -6.71811" fill="none" stroke="black"/>
<path d="M97.9268,227.666h -6.71811" fill="none" stroke="black"/>
<path d="M104.645,220.86h -13.4362" fill="none" stroke="black"/>
<path d="M97.9268,214.053h -6.71811" fill="none" stroke="black"/>
<path d="M97.9268,207.247h -6.71811" fill="none" stroke="black"/>
<path d="M97.9268,200.441h -6.71811" fill="none" stroke="black"/>
<path d="M97.9268,193.635h -6.71811" fill="none" stroke="black"/>
<path d="M104.645,186.828h -13.4362" fill="none" stroke="black"/>
<path d="M97.9268,180.022h -6.71811" fill="none" stroke="black"/>
<path d="M97.9268,173.216h -6.71811" fill="none" stroke="black"/>
<path d="M97.9268,166.409h -6.71811" fill="none" stroke="black"/>
<path d="M97.9268,159.603h -6.71811" fill="none" stroke="black"/>
<path d="M104.645,152.797h -13.4362" fill="none" stroke="black"/>
<path d="M97.9268,145.991h -6.71811" fill="none" stroke="black"/>
<path d="M97.9268,139.184h -6.71811" fill="none" stroke="black"/>
<path d="M97.9268,132.378h -6.71811" fill="none" stroke="black"/>
<path d="M97.9268,125.572h -6.71811" fill="none" stroke="black"/>
<path d="M104.645,118.765h -13.4362" fill="none" stroke="black"/>
<path d="M97.9268,111.959h -6.71811" fill="none" stroke="black"/>
<path d="M97.9268,105.153h -6.71811" fill="none" stroke="black"/>
<path d="M97.9268,98.3466h -6.71811" fill="none" stroke="black"/>
<path d="M97.9268,91.5403h -6.71811" fill="none" stroke="black"/>
<path d="M104.645,84.734h -13.4362" fill="none" stroke="black"/>
<path d="M97.9268,77.9277h -6.71811" fill="none" stroke="black"/>
<path d="M97.9268,71.1214h -6.71811" fill="none" stroke="black"/>
<path d="M97.9268,64.3151h -6.71811" fill="none" stroke="black"/>
<path d="M97.9268,57.5088h -6.71811" fill="none" stroke="black"/>
<path d="M104.645,50.7025h -13.4362" fill="none" stroke="black"/>
<path d="M104.645,50.7025h -13.4362" fill="none" stroke="black"/>
<path d="M97.9268,43.8963h -6.71811" fill="none" stroke="black"/>
<path d="M97.9268,37.09h -6.71811" fill="none" stroke="black"/>
<path d="M97.9268,30.2837h -6.71811" fill="none" stroke="black"/>
<path d="M97.9268,23.4774h -6.71811" fill="none" stroke="black"/>
<text xml:space="preserve" x="78.6971" y="329.08" fill="black" font-size="18.1362" font-family="Helvetica">0
</text>
<text xml:space="preserve" x="68.9225" y="295.683" fill="black" font-size="18.1362" font-family="Helvetica">10
</text>
<text xml:space="preserve" x="68.9225" y="261.472" fill="black" font-size="18.1362" font-family="Helvetica">20
</text>
<text xml:space="preserve" x="68.9225" y="227.26" fill="black" font-size="18.1362" font-family="Helvetica">30
</text>
<text xml:space="preserve" x="68.9225" y="193.049" fill="black" font-size="18.1362" font-family="Helvetica">40
</text>
<text xml:space="preserve" x="68.9225" y="159.652" fill="black" font-size="18.1362" font-family="Helvetica">50
</text>
<text xml:space="preserve" x="68.9225" y="125.441" fill="black" font-size="18.1362" font-family="Helvetica">60
</text>
<text xml:space="preserve" x="68.9225" y="91.23" fill="black" font-size="18.1362" font-family="Helvetica">70
</text>
<text xml:space="preserve" x="68.9225" y="57.0187" fill="black" font-size="18.1362" font-family="Helvetica">80
</text>
<path d="M539.083,322.954v -303.731" fill="none" stroke="black"/>
<path d="M525.646,322.954h 13.4362" fill="none" stroke="black"/>
<path d="M532.365,316.148h 6.71811" fill="none" stroke="black"/>
<path d="M532.365,309.342h 6.71811" fill="none" stroke="black"/>
<path d="M532.365,302.535h 6.71811" fill="none" stroke="black"/>
<path d="M532.365,295.729h 6.71811" fill="none" stroke="black"/>
<path d="M525.646,288.923h 13.4362" fill="none" stroke="black"/>
<path d="M532.365,282.116h 6.71811" fill="none" stroke="black"/>
<path d="M532.365,275.31h 6.71811" fill="none" stroke="black"/>
<path d="M532.365,268.504h 6.71811" fill="none" stroke="black"/>
<path d="M532.365,261.698h 6.71811" fill="none" stroke="black"/>
<path d="M525.646,254.891h 13.4362" fill="none" stroke="black"/>
<path d="M532.365,248.085h 6.71811" fill="none" stroke="black"/>
<path d="M532.365,241.279h 6.71811" fill="none" stroke="black"/>
<path d="M532.365,234.472h 6.71811" fill="none" stroke="black"/>
<path d="M532.365,227.666h 6.71811" fill="none" stroke="black"/>
<path d="M525.646,220.86h 13.4362" fill="none" stroke="black"/>
<path d="M532.365,214.053h 6.71811" fill="none" stroke="black"/>
<path d="M532.365,207.247h 6.71811" fill="none" stroke="black"/>
<path d="M532.365,200.441h 6.71811" fill="none" stroke="black"/>
<path d="M532.365,193.635h 6.71811" fill="none" stroke="black"/>
<path d="M525.646,186.828h 13.4362" fill="none" stroke="black"/>
<path d="M532.365,180.022h 6.71811" fill="none" stroke="black"/>
<path d="M532.365,173.216h 6.71811" fill="none" stroke="black"/>
<path d="M532.365,166.409h 6.71811" fill="none" stroke="black"/>
<path d="M532.365,159.603h 6.71811" fill="none" stroke="black"/>
<path d="M525.646,152.797h 13.4362" fill="none" stroke="black"/>
<path d="M532.365,145.991h 6.71811" fill="none" stroke="black"/>
<path d="M532.365,139.184h 6.71811" fill="none" stroke="black"/>
<path d="M532.365,132.378h 6.71811" fill="none" stroke="black"/>
<path d="M532.365,125.572h 6.71811" fill="none" stroke="black"/>
<path d="M525.646,118.765h 13.4362" fill="none" stroke="black"/>
<path d="M532.365,111.959h 6.71811" fill="none" stroke="black"/>
<path d="M532.365,105.153h 6.71811" fill="none" stroke="black"/>
<path d="M532.365,98.3466h 6.71811" fill="none" stroke="black"/>
<path d="M532.365,91.5403h 6.71811" fill="none" stroke="black"/>
<path d="M525.646,84.734h 13.4362" fill="none" stroke="black"/>
<path d="M532.365,77.9277h 6.71811" fill="none" stroke="black"/>
<path d="M532.365,71.1214h 6.71811" fill="none" stroke="black"/>
<path d="M532.365,64.3151h 6.71811" fill="none" stroke="black"/>
<path d="M532.365,57.5088h 6.71811" fill="none" stroke="black"/>
<path d="M525.646,50.7025h 13.4362" fill="none" stroke="black"/>
<path d="M525.646,50.7025h 13.4362" fill="none" stroke="black"/>
<path d="M532.365,43.8963h 6.71811" fill="none" stroke="black"/>
<path d="M532.365,37.09h 6.71811" fill="none" stroke="black"/>
<path d="M532.365,30.2837h 6.71811" fill="none" stroke="black"/>
<path d="M532.365,23.4774h 6.71811" fill="none" stroke="black"/></svg>
