<?xml version="1.0" standalone="no"?>
<svg width="567.429" height="271.64" viewBox="0 0 567.429 271.64" xmlns="http://www.w3.org/2000/svg" shape-rendering="crispEdges">
<title>
/Users/adrianduesselberg/root-graphic-tests/build/old_svg_pro/th2polyHoneycomb_pro.svg
</title>
<desc>
Creator: ROOT Version 6.32.02
CreationDate: Mon Sep  2 14:36:11 2024</desc>
<defs>
</defs>
<rect x="0.5" y="0" width="566.929" height="271.14" fill="white"/>
<rect x="6.16929" y="2.7114" width="272.126" height="265.717" fill="white"/>
<rect x="49.7094" y="15.9973" width="214.98" height="209.917" fill="white"/>
<rect x="49.7094" y="15.9973" width="214.98" height="209.917" fill="none" stroke="black"/>
<path d="M49.7094,212.794v -26.2396l 21.498, -13.1198l 21.498, 13.1198v 26.2396l -21.498, 13.1198z" fill="#e1bf4a"/>
<path d="M92.7054,212.794v -26.2396l 21.498, -13.1198l 21.498, 13.1198v 26.2396l -21.498, 13.1198z" fill="#263da8"/>
<path d="M135.701,212.794v -26.2396l 21.498, -13.1198l 21.498, 13.1198v 26.2396l -21.498, 13.1198z" fill="#263da8"/>
<path d="M178.697,212.794v -26.2396l 21.498, -13.1198l 21.498, 13.1198v 26.2396l -21.498, 13.1198z" fill="#263da8"/>
<path d="M221.693,212.794v -26.2396l 21.498, -13.1198l 21.498, 13.1198v 26.2396l -21.498, 13.1198z" fill="#263da8"/>
<path d="M71.2074,173.435v -26.2396l 21.498, -13.1198l 21.498, 13.1198v 26.2396l -21.498, 13.1198z" fill="#263da8"/>
<path d="M114.203,173.435v -26.2396l 21.498, -13.1198l 21.498, 13.1198v 26.2396l -21.498, 13.1198z" fill="#263da8"/>
<path d="M157.199,173.435v -26.2396l 21.498, -13.1198l 21.498, 13.1198v 26.2396l -21.498, 13.1198z" fill="#263da8"/>
<path d="M200.195,173.435v -26.2396l 21.498, -13.1198l 21.498, 13.1198v 26.2396l -21.498, 13.1198z" fill="#263da8"/>
<path d="M49.7094,134.075v -26.2396l 21.498, -13.1198l 21.498, 13.1198v 26.2396l -21.498, 13.1198z" fill="#263da8"/>
<path d="M92.7054,134.075v -26.2396l 21.498, -13.1198l 21.498, 13.1198v 26.2396l -21.498, 13.1198z" fill="#263da8"/>
<path d="M135.701,134.075v -26.2396l 21.498, -13.1198l 21.498, 13.1198v 26.2396l -21.498, 13.1198z" fill="#52ba91"/>
<path d="M178.697,134.075v -26.2396l 21.498, -13.1198l 21.498, 13.1198v 26.2396l -21.498, 13.1198z" fill="#263da8"/>
<path d="M221.693,134.075v -26.2396l 21.498, -13.1198l 21.498, 13.1198v 26.2396l -21.498, 13.1198z" fill="#263da8"/>
<path d="M71.2074,94.716v -26.2396l 21.498, -13.1198l 21.498, 13.1198v 26.2396l -21.498, 13.1198z" fill="#263da8"/>
<path d="M114.203,94.716v -26.2396l 21.498, -13.1198l 21.498, 13.1198v 26.2396l -21.498, 13.1198z" fill="#263da8"/>
<path d="M157.199,94.716v -26.2396l 21.498, -13.1198l 21.498, 13.1198v 26.2396l -21.498, 13.1198z" fill="#f9f90e"/>
<path d="M200.195,94.716v -26.2396l 21.498, -13.1198l 21.498, 13.1198v 26.2396l -21.498, 13.1198z" fill="#263da8"/>
<path d="M49.7094,55.3566v -26.2396l 21.498, -13.1198l 21.498, 13.1198v 26.2396l -21.498, 13.1198z" fill="#263da8"/>
<path d="M92.7054,55.3566v -26.2396l 21.498, -13.1198l 21.498, 13.1198v 26.2396l -21.498, 13.1198z" fill="#263da8"/>
<path d="M135.701,55.3566v -26.2396l 21.498, -13.1198l 21.498, 13.1198v 26.2396l -21.498, 13.1198z" fill="#263da8"/>
<path d="M178.697,55.3566v -26.2396l 21.498, -13.1198l 21.498, 13.1198v 26.2396l -21.498, 13.1198z" fill="#263da8"/>
<path d="M221.693,55.3566v -26.2396l 21.498, -13.1198l 21.498, 13.1198v 26.2396l -21.498, 13.1198z" fill="#263da8"/>
<rect x="266.05" y="215.418" width="12.1096" height="10.4958" fill="#263da8"/>
<rect x="266.05" y="204.922" width="12.1096" height="10.4958" fill="#1652cc"/>
<rect x="266.05" y="194.426" width="12.1096" height="10.4958" fill="#1063db"/>
<rect x="266.05" y="183.931" width="12.1096" height="10.4958" fill="#1171d8"/>
<rect x="266.05" y="173.435" width="12.1096" height="10.4958" fill="#1380d5"/>
<rect x="266.05" y="162.939" width="12.1096" height="10.4958" fill="#0e8ed0"/>
<rect x="266.05" y="152.443" width="12.1096" height="10.4958" fill="#089dcc"/>
<rect x="266.05" y="141.947" width="12.1096" height="10.4958" fill="#0da7c2"/>
<rect x="266.05" y="131.451" width="12.1096" height="10.4958" fill="#1dafb3"/>
<rect x="266.05" y="120.956" width="12.1096" height="10.4958" fill="#2db7a3"/>
<rect x="266.05" y="110.46" width="12.1096" height="10.4958" fill="#52ba91"/>
<rect x="266.05" y="99.9639" width="12.1096" height="10.4958" fill="#73bd80"/>
<rect x="266.05" y="89.4681" width="12.1096" height="10.4958" fill="#94be71"/>
<rect x="266.05" y="78.9722" width="12.1096" height="10.4958" fill="#b2bc65"/>
<rect x="266.05" y="68.4764" width="12.1096" height="10.4958" fill="#d0ba59"/>
<rect x="266.05" y="57.9806" width="12.1096" height="10.4958" fill="#e1bf4a"/>
<rect x="266.05" y="47.4847" width="12.1096" height="10.4958" fill="#f4c53a"/>
<rect x="266.05" y="36.9889" width="12.1096" height="10.4958" fill="#fcd12b"/>
<rect x="266.05" y="26.4931" width="12.1096" height="10.4958" fill="#fae61c"/>
<rect x="266.05" y="15.9973" width="12.1096" height="10.4958" fill="#f9f90e"/>
<path d="M278.159,225.914v -209.917" fill="none" stroke="black"/>
<path d="M271.71,225.914h 6.44939" fill="none" stroke="black"/>
<path d="M271.71,204.922h 6.44939" fill="none" stroke="black"/>
<path d="M271.71,183.931h 6.44939" fill="none" stroke="black"/>
<path d="M271.71,162.939h 6.44939" fill="none" stroke="black"/>
<path d="M271.71,141.947h 6.44939" fill="none" stroke="black"/>
<path d="M271.71,120.956h 6.44939" fill="none" stroke="black"/>
<path d="M271.71,99.9639h 6.44939" fill="none" stroke="black"/>
<path d="M271.71,78.9722h 6.44939" fill="none" stroke="black"/>
<path d="M271.71,57.9806h 6.44939" fill="none" stroke="black"/>
<path d="M271.71,36.9889h 6.44939" fill="none" stroke="black"/>
<path d="M271.71,15.9973h 6.44939" fill="none" stroke="black"/>
<text xml:space="preserve" x="279.698" y="230.848" fill="black" font-size="12.6889" font-family="Helvetica">0
</text>
<text xml:space="preserve" x="279.698" y="209.517" fill="black" font-size="12.6889" font-family="Helvetica">2
</text>
<text xml:space="preserve" x="279.698" y="188.66" fill="black" font-size="12.6889" font-family="Helvetica">4
</text>
<text xml:space="preserve" x="279.698" y="167.803" fill="black" font-size="12.6889" font-family="Helvetica">6
</text>
<text xml:space="preserve" x="279.698" y="146.472" fill="black" font-size="12.6889" font-family="Helvetica">8
</text>
<text xml:space="preserve" x="279.698" y="125.616" fill="black" font-size="12.6889" font-family="Helvetica">10
</text>
<text xml:space="preserve" x="279.698" y="104.759" fill="black" font-size="12.6889" font-family="Helvetica">12
</text>
<text xml:space="preserve" x="279.698" y="83.9017" fill="black" font-size="12.6889" font-family="Helvetica">14
</text>
<text xml:space="preserve" x="279.698" y="62.5708" fill="black" font-size="12.6889" font-family="Helvetica">16
</text>
<text xml:space="preserve" x="279.698" y="41.7138" fill="black" font-size="12.6889" font-family="Helvetica">18
</text>
<text xml:space="preserve" x="279.698" y="20.8569" fill="black" font-size="12.6889" font-family="Helvetica">20
</text>
<path d="M49.7094,212.794v -26.2396l 21.498, -13.1198l 21.498, 13.1198v 26.2396l -21.498, 13.1198z" fill="none" stroke="#e1bf4a"/>
<path d="M49.7094,212.794v -26.2396l 21.498, -13.1198l 21.498, 13.1198v 26.2396l -21.498, 13.1198l -21.498, -13.1198z" fill="none" stroke="black"/>
<path d="M92.7054,212.794v -26.2396l 21.498, -13.1198l 21.498, 13.1198v 26.2396l -21.498, 13.1198z" fill="none" stroke="#263da8"/>
<path d="M92.7054,212.794v -26.2396l 21.498, -13.1198l 21.498, 13.1198v 26.2396l -21.498, 13.1198l -21.498, -13.1198z" fill="none" stroke="black"/>
<path d="M135.701,212.794v -26.2396l 21.498, -13.1198l 21.498, 13.1198v 26.2396l -21.498, 13.1198z" fill="none" stroke="#263da8"/>
<path d="M135.701,212.794v -26.2396l 21.498, -13.1198l 21.498, 13.1198v 26.2396l -21.498, 13.1198l -21.498, -13.1198z" fill="none" stroke="black"/>
<path d="M178.697,212.794v -26.2396l 21.498, -13.1198l 21.498, 13.1198v 26.2396l -21.498, 13.1198z" fill="none" stroke="#263da8"/>
<path d="M178.697,212.794v -26.2396l 21.498, -13.1198l 21.498, 13.1198v 26.2396l -21.498, 13.1198l -21.498, -13.1198z" fill="none" stroke="black"/>
<path d="M221.693,212.794v -26.2396l 21.498, -13.1198l 21.498, 13.1198v 26.2396l -21.498, 13.1198z" fill="none" stroke="#263da8"/>
<path d="M221.693,212.794v -26.2396l 21.498, -13.1198l 21.498, 13.1198v 26.2396l -21.498, 13.1198l -21.498, -13.1198z" fill="none" stroke="black"/>
<path d="M71.2074,173.435v -26.2396l 21.498, -13.1198l 21.498, 13.1198v 26.2396l -21.498, 13.1198z" fill="none" stroke="#263da8"/>
<path d="M71.2074,173.435v -26.2396l 21.498, -13.1198l 21.498, 13.1198v 26.2396l -21.498, 13.1198l -21.498, -13.1198z" fill="none" stroke="black"/>
<path d="M114.203,173.435v -26.2396l 21.498, -13.1198l 21.498, 13.1198v 26.2396l -21.498, 13.1198z" fill="none" stroke="#263da8"/>
<path d="M114.203,173.435v -26.2396l 21.498, -13.1198l 21.498, 13.1198v 26.2396l -21.498, 13.1198l -21.498, -13.1198z" fill="none" stroke="black"/>
<path d="M157.199,173.435v -26.2396l 21.498, -13.1198l 21.498, 13.1198v 26.2396l -21.498, 13.1198z" fill="none" stroke="#263da8"/>
<path d="M157.199,173.435v -26.2396l 21.498, -13.1198l 21.498, 13.1198v 26.2396l -21.498, 13.1198l -21.498, -13.1198z" fill="none" stroke="black"/>
<path d="M200.195,173.435v -26.2396l 21.498, -13.1198l 21.498, 13.1198v 26.2396l -21.498, 13.1198z" fill="none" stroke="#263da8"/>
<path d="M200.195,173.435v -26.2396l 21.498, -13.1198l 21.498, 13.1198v 26.2396l -21.498, 13.1198l -21.498, -13.1198z" fill="none" stroke="black"/>
<path d="M49.7094,134.075v -26.2396l 21.498, -13.1198l 21.498, 13.1198v 26.2396l -21.498, 13.1198z" fill="none" stroke="#263da8"/>
<path d="M49.7094,134.075v -26.2396l 21.498, -13.1198l 21.498, 13.1198v 26.2396l -21.498, 13.1198l -21.498, -13.1198z" fill="none" stroke="black"/>
<path d="M92.7054,134.075v -26.2396l 21.498, -13.1198l 21.498, 13.1198v 26.2396l -21.498, 13.1198z" fill="none" stroke="#263da8"/>
<path d="M92.7054,134.075v -26.2396l 21.498, -13.1198l 21.498, 13.1198v 26.2396l -21.498, 13.1198l -21.498, -13.1198z" fill="none" stroke="black"/>
<path d="M135.701,134.075v -26.2396l 21.498, -13.1198l 21.498, 13.1198v 26.2396l -21.498, 13.1198z" fill="none" stroke="#52ba91"/>
<path d="M135.701,134.075v -26.2396l 21.498, -13.1198l 21.498, 13.1198v 26.2396l -21.498, 13.1198l -21.498, -13.1198z" fill="none" stroke="black"/>
<path d="M178.697,134.075v -26.2396l 21.498, -13.1198l 21.498, 13.1198v 26.2396l -21.498, 13.1198z" fill="none" stroke="#263da8"/>
<path d="M178.697,134.075v -26.2396l 21.498, -13.1198l 21.498, 13.1198v 26.2396l -21.498, 13.1198l -21.498, -13.1198z" fill="none" stroke="black"/>
<path d="M221.693,134.075v -26.2396l 21.498, -13.1198l 21.498, 13.1198v 26.2396l -21.498, 13.1198z" fill="none" stroke="#263da8"/>
<path d="M221.693,134.075v -26.2396l 21.498, -13.1198l 21.498, 13.1198v 26.2396l -21.498, 13.1198l -21.498, -13.1198z" fill="none" stroke="black"/>
<path d="M71.2074,94.716v -26.2396l 21.498, -13.1198l 21.498, 13.1198v 26.2396l -21.498, 13.1198z" fill="none" stroke="#263da8"/>
<path d="M71.2074,94.716v -26.2396l 21.498, -13.1198l 21.498, 13.1198v 26.2396l -21.498, 13.1198l -21.498, -13.1198z" fill="none" stroke="black"/>
<path d="M114.203,94.716v -26.2396l 21.498, -13.1198l 21.498, 13.1198v 26.2396l -21.498, 13.1198z" fill="none" stroke="#263da8"/>
<path d="M114.203,94.716v -26.2396l 21.498, -13.1198l 21.498, 13.1198v 26.2396l -21.498, 13.1198l -21.498, -13.1198z" fill="none" stroke="black"/>
<path d="M157.199,94.716v -26.2396l 21.498, -13.1198l 21.498, 13.1198v 26.2396l -21.498, 13.1198z" fill="none" stroke="#f9f90e"/>
<path d="M157.199,94.716v -26.2396l 21.498, -13.1198l 21.498, 13.1198v 26.2396l -21.498, 13.1198l -21.498, -13.1198z" fill="none" stroke="black"/>
<path d="M200.195,94.716v -26.2396l 21.498, -13.1198l 21.498, 13.1198v 26.2396l -21.498, 13.1198z" fill="none" stroke="#263da8"/>
<path d="M200.195,94.716v -26.2396l 21.498, -13.1198l 21.498, 13.1198v 26.2396l -21.498, 13.1198l -21.498, -13.1198z" fill="none" stroke="black"/>
<path d="M49.7094,55.3566v -26.2396l 21.498, -13.1198l 21.498, 13.1198v 26.2396l -21.498, 13.1198z" fill="none" stroke="#263da8"/>
<path d="M49.7094,55.3566v -26.2396l 21.498, -13.1198l 21.498, 13.1198v 26.2396l -21.498, 13.1198l -21.498, -13.1198z" fill="none" stroke="black"/>
<path d="M92.7054,55.3566v -26.2396l 21.498, -13.1198l 21.498, 13.1198v 26.2396l -21.498, 13.1198z" fill="none" stroke="#263da8"/>
<path d="M92.7054,55.3566v -26.2396l 21.498, -13.1198l 21.498, 13.1198v 26.2396l -21.498, 13.1198l -21.498, -13.1198z" fill="none" stroke="black"/>
<path d="M135.701,55.3566v -26.2396l 21.498, -13.1198l 21.498, 13.1198v 26.2396l -21.498, 13.1198z" fill="none" stroke="#263da8"/>
<path d="M135.701,55.3566v -26.2396l 21.498, -13.1198l 21.498, 13.1198v 26.2396l -21.498, 13.1198l -21.498, -13.1198z" fill="none" stroke="black"/>
<path d="M178.697,55.3566v -26.2396l 21.498, -13.1198l 21.498, 13.1198v 26.2396l -21.498, 13.1198z" fill="none" stroke="#263da8"/>
<path d="M178.697,55.3566v -26.2396l 21.498, -13.1198l 21.498, 13.1198v 26.2396l -21.498, 13.1198l -21.498, -13.1198z" fill="none" stroke="black"/>
<path d="M221.693,55.3566v -26.2396l 21.498, -13.1198l 21.498, 13.1198v 26.2396l -21.498, 13.1198z" fill="none" stroke="#263da8"/>
<path d="M221.693,55.3566v -26.2396l 21.498, -13.1198l 21.498, 13.1198v 26.2396l -21.498, 13.1198l -21.498, -13.1198z" fill="none" stroke="black"/>
<path d="M49.7094,225.914h 214.98" fill="none" stroke="black"/>
<path d="M49.7094,219.616v 6.2975" fill="none" stroke="black"/>
<path d="M49.7094,15.9973v 209.917" fill="none" stroke="black" stroke-dasharray=" 1, 2"/>
<path d="M54.6742,222.765v 3.14875" fill="none" stroke="black"/>
<path d="M59.6389,222.765v 3.14875" fill="none" stroke="black"/>
<path d="M64.6037,222.765v 3.14875" fill="none" stroke="black"/>
<path d="M69.5684,222.765v 3.14875" fill="none" stroke="black"/>
<path d="M74.5331,219.616v 6.2975" fill="none" stroke="black"/>
<path d="M74.5331,15.9973v 209.917" fill="none" stroke="black" stroke-dasharray=" 1, 2"/>
<path d="M79.4979,222.765v 3.14875" fill="none" stroke="black"/>
<path d="M84.4626,222.765v 3.14875" fill="none" stroke="black"/>
<path d="M89.4274,222.765v 3.14875" fill="none" stroke="black"/>
<path d="M94.3921,222.765v 3.14875" fill="none" stroke="black"/>
<path d="M99.3568,219.616v 6.2975" fill="none" stroke="black"/>
<path d="M99.3568,15.9973v 209.917" fill="none" stroke="black" stroke-dasharray=" 1, 2"/>
<path d="M104.322,222.765v 3.14875" fill="none" stroke="black"/>
<path d="M109.286,222.765v 3.14875" fill="none" stroke="black"/>
<path d="M114.251,222.765v 3.14875" fill="none" stroke="black"/>
<path d="M119.216,222.765v 3.14875" fill="none" stroke="black"/>
<path d="M124.181,219.616v 6.2975" fill="none" stroke="black"/>
<path d="M124.181,15.9973v 209.917" fill="none" stroke="black" stroke-dasharray=" 1, 2"/>
<path d="M129.145,222.765v 3.14875" fill="none" stroke="black"/>
<path d="M134.11,222.765v 3.14875" fill="none" stroke="black"/>
<path d="M139.075,222.765v 3.14875" fill="none" stroke="black"/>
<path d="M144.04,222.765v 3.14875" fill="none" stroke="black"/>
<path d="M149.004,219.616v 6.2975" fill="none" stroke="black"/>
<path d="M149.004,15.9973v 209.917" fill="none" stroke="black" stroke-dasharray=" 1, 2"/>
<path d="M153.969,222.765v 3.14875" fill="none" stroke="black"/>
<path d="M158.934,222.765v 3.14875" fill="none" stroke="black"/>
<path d="M163.898,222.765v 3.14875" fill="none" stroke="black"/>
<path d="M168.863,222.765v 3.14875" fill="none" stroke="black"/>
<path d="M173.828,219.616v 6.2975" fill="none" stroke="black"/>
<path d="M173.828,15.9973v 209.917" fill="none" stroke="black" stroke-dasharray=" 1, 2"/>
<path d="M178.793,222.765v 3.14875" fill="none" stroke="black"/>
<path d="M183.757,222.765v 3.14875" fill="none" stroke="black"/>
<path d="M188.722,222.765v 3.14875" fill="none" stroke="black"/>
<path d="M193.687,222.765v 3.14875" fill="none" stroke="black"/>
<path d="M198.652,219.616v 6.2975" fill="none" stroke="black"/>
<path d="M198.652,15.9973v 209.917" fill="none" stroke="black" stroke-dasharray=" 1, 2"/>
<path d="M203.616,222.765v 3.14875" fill="none" stroke="black"/>
<path d="M208.581,222.765v 3.14875" fill="none" stroke="black"/>
<path d="M213.546,222.765v 3.14875" fill="none" stroke="black"/>
<path d="M218.511,222.765v 3.14875" fill="none" stroke="black"/>
<path d="M223.475,219.616v 6.2975" fill="none" stroke="black"/>
<path d="M223.475,15.9973v 209.917" fill="none" stroke="black" stroke-dasharray=" 1, 2"/>
<path d="M228.44,222.765v 3.14875" fill="none" stroke="black"/>
<path d="M233.405,222.765v 3.14875" fill="none" stroke="black"/>
<path d="M238.37,222.765v 3.14875" fill="none" stroke="black"/>
<path d="M243.334,222.765v 3.14875" fill="none" stroke="black"/>
<path d="M248.299,219.616v 6.2975" fill="none" stroke="black"/>
<path d="M248.299,15.9973v 209.917" fill="none" stroke="black" stroke-dasharray=" 1, 2"/>
<path d="M248.299,219.616v 6.2975" fill="none" stroke="black"/>
<path d="M248.299,15.9973v 209.917" fill="none" stroke="black" stroke-dasharray=" 1, 2"/>
<path d="M253.264,222.765v 3.14875" fill="none" stroke="black"/>
<path d="M258.229,222.765v 3.14875" fill="none" stroke="black"/>
<path d="M263.193,222.765v 3.14875" fill="none" stroke="black"/>
<text xml:space="preserve" x="46.48" y="237.959" fill="black" font-size="12.6889" font-family="Helvetica">0
</text>
<text xml:space="preserve" x="66.8629" y="237.959" fill="black" font-size="12.6889" font-family="Helvetica">0.1
</text>
<text xml:space="preserve" x="91.038" y="237.959" fill="black" font-size="12.6889" font-family="Helvetica">0.2
</text>
<text xml:space="preserve" x="115.687" y="237.959" fill="black" font-size="12.6889" font-family="Helvetica">0.3
</text>
<text xml:space="preserve" x="140.336" y="237.959" fill="black" font-size="12.6889" font-family="Helvetica">0.4
</text>
<text xml:space="preserve" x="165.459" y="237.959" fill="black" font-size="12.6889" font-family="Helvetica">0.5
</text>
<text xml:space="preserve" x="190.108" y="237.959" fill="black" font-size="12.6889" font-family="Helvetica">0.6
</text>
<text xml:space="preserve" x="214.757" y="237.959" fill="black" font-size="12.6889" font-family="Helvetica">0.7
</text>
<text xml:space="preserve" x="239.881" y="237.959" fill="black" font-size="12.6889" font-family="Helvetica">0.8
</text>
<path d="M49.7094,15.9973h 214.98" fill="none" stroke="black"/>
<path d="M49.7094,22.2948v -6.2975" fill="none" stroke="black"/>
<path d="M54.6742,19.146v -3.14875" fill="none" stroke="black"/>
<path d="M59.6389,19.146v -3.14875" fill="none" stroke="black"/>
<path d="M64.6037,19.146v -3.14875" fill="none" stroke="black"/>
<path d="M69.5684,19.146v -3.14875" fill="none" stroke="black"/>
<path d="M74.5331,22.2948v -6.2975" fill="none" stroke="black"/>
<path d="M79.4979,19.146v -3.14875" fill="none" stroke="black"/>
<path d="M84.4626,19.146v -3.14875" fill="none" stroke="black"/>
<path d="M89.4274,19.146v -3.14875" fill="none" stroke="black"/>
<path d="M94.3921,19.146v -3.14875" fill="none" stroke="black"/>
<path d="M99.3568,22.2948v -6.2975" fill="none" stroke="black"/>
<path d="M104.322,19.146v -3.14875" fill="none" stroke="black"/>
<path d="M109.286,19.146v -3.14875" fill="none" stroke="black"/>
<path d="M114.251,19.146v -3.14875" fill="none" stroke="black"/>
<path d="M119.216,19.146v -3.14875" fill="none" stroke="black"/>
<path d="M124.181,22.2948v -6.2975" fill="none" stroke="black"/>
<path d="M129.145,19.146v -3.14875" fill="none" stroke="black"/>
<path d="M134.11,19.146v -3.14875" fill="none" stroke="black"/>
<path d="M139.075,19.146v -3.14875" fill="none" stroke="black"/>
<path d="M144.04,19.146v -3.14875" fill="none" stroke="black"/>
<path d="M149.004,22.2948v -6.2975" fill="none" stroke="black"/>
<path d="M153.969,19.146v -3.14875" fill="none" stroke="black"/>
<path d="M158.934,19.146v -3.14875" fill="none" stroke="black"/>
<path d="M163.898,19.146v -3.14875" fill="none" stroke="black"/>
<path d="M168.863,19.146v -3.14875" fill="none" stroke="black"/>
<path d="M173.828,22.2948v -6.2975" fill="none" stroke="black"/>
<path d="M178.793,19.146v -3.14875" fill="none" stroke="black"/>
<path d="M183.757,19.146v -3.14875" fill="none" stroke="black"/>
<path d="M188.722,19.146v -3.14875" fill="none" stroke="black"/>
<path d="M193.687,19.146v -3.14875" fill="none" stroke="black"/>
<path d="M198.652,22.2948v -6.2975" fill="none" stroke="black"/>
<path d="M203.616,19.146v -3.14875" fill="none" stroke="black"/>
<path d="M208.581,19.146v -3.14875" fill="none" stroke="black"/>
<path d="M213.546,19.146v -3.14875" fill="none" stroke="black"/>
<path d="M218.511,19.146v -3.14875" fill="none" stroke="black"/>
<path d="M223.475,22.2948v -6.2975" fill="none" stroke="black"/>
<path d="M228.44,19.146v -3.14875" fill="none" stroke="black"/>
<path d="M233.405,19.146v -3.14875" fill="none" stroke="black"/>
<path d="M238.37,19.146v -3.14875" fill="none" stroke="black"/>
<path d="M243.334,19.146v -3.14875" fill="none" stroke="black"/>
<path d="M248.299,22.2948v -6.2975" fill="none" stroke="black"/>
<path d="M248.299,22.2948v -6.2975" fill="none" stroke="black"/>
<path d="M253.264,19.146v -3.14875" fill="none" stroke="black"/>
<path d="M258.229,19.146v -3.14875" fill="none" stroke="black"/>
<path d="M263.193,19.146v -3.14875" fill="none" stroke="black"/>
<path d="M49.7094,225.914v -209.917" fill="none" stroke="black"/>
<path d="M56.1588,225.914h -6.44939" fill="none" stroke="black"/>
<path d="M264.689,225.914h -214.98" fill="none" stroke="black" stroke-dasharray=" 1, 2"/>
<path d="M52.9341,220.666h -3.22469" fill="none" stroke="black"/>
<path d="M52.9341,215.418h -3.22469" fill="none" stroke="black"/>
<path d="M52.9341,210.17h -3.22469" fill="none" stroke="black"/>
<path d="M52.9341,204.922h -3.22469" fill="none" stroke="black"/>
<path d="M56.1588,199.674h -6.44939" fill="none" stroke="black"/>
<path d="M264.689,199.674h -214.98" fill="none" stroke="black" stroke-dasharray=" 1, 2"/>
<path d="M52.9341,194.426h -3.22469" fill="none" stroke="black"/>
<path d="M52.9341,189.178h -3.22469" fill="none" stroke="black"/>
<path d="M52.9341,183.931h -3.22469" fill="none" stroke="black"/>
<path d="M52.9341,178.683h -3.22469" fill="none" stroke="black"/>
<path d="M56.1588,173.435h -6.44939" fill="none" stroke="black"/>
<path d="M264.689,173.435h -214.98" fill="none" stroke="black" stroke-dasharray=" 1, 2"/>
<path d="M52.9341,168.187h -3.22469" fill="none" stroke="black"/>
<path d="M52.9341,162.939h -3.22469" fill="none" stroke="black"/>
<path d="M52.9341,157.691h -3.22469" fill="none" stroke="black"/>
<path d="M52.9341,152.443h -3.22469" fill="none" stroke="black"/>
<path d="M56.1588,147.195h -6.44939" fill="none" stroke="black"/>
<path d="M264.689,147.195h -214.98" fill="none" stroke="black" stroke-dasharray=" 1, 2"/>
<path d="M52.9341,141.947h -3.22469" fill="none" stroke="black"/>
<path d="M52.9341,136.699h -3.22469" fill="none" stroke="black"/>
<path d="M52.9341,131.451h -3.22469" fill="none" stroke="black"/>
<path d="M52.9341,126.203h -3.22469" fill="none" stroke="black"/>
<path d="M56.1588,120.956h -6.44939" fill="none" stroke="black"/>
<path d="M264.689,120.956h -214.98" fill="none" stroke="black" stroke-dasharray=" 1, 2"/>
<path d="M52.9341,115.708h -3.22469" fill="none" stroke="black"/>
<path d="M52.9341,110.46h -3.22469" fill="none" stroke="black"/>
<path d="M52.9341,105.212h -3.22469" fill="none" stroke="black"/>
<path d="M52.9341,99.9639h -3.22469" fill="none" stroke="black"/>
<path d="M56.1588,94.716h -6.44939" fill="none" stroke="black"/>
<path d="M264.689,94.716h -214.98" fill="none" stroke="black" stroke-dasharray=" 1, 2"/>
<path d="M52.9341,89.4681h -3.22469" fill="none" stroke="black"/>
<path d="M52.9341,84.2202h -3.22469" fill="none" stroke="black"/>
<path d="M52.9341,78.9722h -3.22469" fill="none" stroke="black"/>
<path d="M52.9341,73.7243h -3.22469" fill="none" stroke="black"/>
<path d="M56.1588,68.4764h -6.44939" fill="none" stroke="black"/>
<path d="M264.689,68.4764h -214.98" fill="none" stroke="black" stroke-dasharray=" 1, 2"/>
<path d="M52.9341,63.2285h -3.22469" fill="none" stroke="black"/>
<path d="M52.9341,57.9806h -3.22469" fill="none" stroke="black"/>
<path d="M52.9341,52.7327h -3.22469" fill="none" stroke="black"/>
<path d="M52.9341,47.4847h -3.22469" fill="none" stroke="black"/>
<path d="M56.1588,42.2368h -6.44939" fill="none" stroke="black"/>
<path d="M264.689,42.2368h -214.98" fill="none" stroke="black" stroke-dasharray=" 1, 2"/>
<path d="M52.9341,36.9889h -3.22469" fill="none" stroke="black"/>
<path d="M52.9341,31.741h -3.22469" fill="none" stroke="black"/>
<path d="M52.9341,26.4931h -3.22469" fill="none" stroke="black"/>
<path d="M52.9341,21.2452h -3.22469" fill="none" stroke="black"/>
<path d="M56.1588,15.9973h -6.44939" fill="none" stroke="black"/>
<path d="M264.689,15.9973h -214.98" fill="none" stroke="black" stroke-dasharray=" 1, 2"/>
<text xml:space="preserve" x="41.7398" y="230.848" fill="black" font-size="12.6889" font-family="Helvetica">0
</text>
<text xml:space="preserve" x="33.6815" y="204.303" fill="black" font-size="12.6889" font-family="Helvetica">0.1
</text>
<text xml:space="preserve" x="31.7854" y="178.232" fill="black" font-size="12.6889" font-family="Helvetica">0.2
</text>
<text xml:space="preserve" x="31.7854" y="152.161" fill="black" font-size="12.6889" font-family="Helvetica">0.3
</text>
<text xml:space="preserve" x="31.3114" y="125.616" fill="black" font-size="12.6889" font-family="Helvetica">0.4
</text>
<text xml:space="preserve" x="31.3114" y="99.5444" fill="black" font-size="12.6889" font-family="Helvetica">0.5
</text>
<text xml:space="preserve" x="31.3114" y="72.9992" fill="black" font-size="12.6889" font-family="Helvetica">0.6
</text>
<text xml:space="preserve" x="31.3114" y="46.9281" fill="black" font-size="12.6889" font-family="Helvetica">0.7
</text>
<text xml:space="preserve" x="31.3114" y="20.8569" fill="black" font-size="12.6889" font-family="Helvetica">0.8
</text>
<path d="M264.689,225.914v -209.917" fill="none" stroke="black"/>
<path d="M258.24,225.914h 6.44939" fill="none" stroke="black"/>
<path d="M261.464,220.666h 3.22469" fill="none" stroke="black"/>
<path d="M261.464,215.418h 3.22469" fill="none" stroke="black"/>
<path d="M261.464,210.17h 3.22469" fill="none" stroke="black"/>
<path d="M261.464,204.922h 3.22469" fill="none" stroke="black"/>
<path d="M258.24,199.674h 6.44939" fill="none" stroke="black"/>
<path d="M261.464,194.426h 3.22469" fill="none" stroke="black"/>
<path d="M261.464,189.178h 3.22469" fill="none" stroke="black"/>
<path d="M261.464,183.931h 3.22469" fill="none" stroke="black"/>
<path d="M261.464,178.683h 3.22469" fill="none" stroke="black"/>
<path d="M258.24,173.435h 6.44939" fill="none" stroke="black"/>
<path d="M261.464,168.187h 3.22469" fill="none" stroke="black"/>
<path d="M261.464,162.939h 3.22469" fill="none" stroke="black"/>
<path d="M261.464,157.691h 3.22469" fill="none" stroke="black"/>
<path d="M261.464,152.443h 3.22469" fill="none" stroke="black"/>
<path d="M258.24,147.195h 6.44939" fill="none" stroke="black"/>
<path d="M261.464,141.947h 3.22469" fill="none" stroke="black"/>
<path d="M261.464,136.699h 3.22469" fill="none" stroke="black"/>
<path d="M261.464,131.451h 3.22469" fill="none" stroke="black"/>
<path d="M261.464,126.203h 3.22469" fill="none" stroke="black"/>
<path d="M258.24,120.956h 6.44939" fill="none" stroke="black"/>
<path d="M261.464,115.708h 3.22469" fill="none" stroke="black"/>
<path d="M261.464,110.46h 3.22469" fill="none" stroke="black"/>
<path d="M261.464,105.212h 3.22469" fill="none" stroke="black"/>
<path d="M261.464,99.9639h 3.22469" fill="none" stroke="black"/>
<path d="M258.24,94.716h 6.44939" fill="none" stroke="black"/>
<path d="M261.464,89.4681h 3.22469" fill="none" stroke="black"/>
<path d="M261.464,84.2202h 3.22469" fill="none" stroke="black"/>
<path d="M261.464,78.9722h 3.22469" fill="none" stroke="black"/>
<path d="M261.464,73.7243h 3.22469" fill="none" stroke="black"/>
<path d="M258.24,68.4764h 6.44939" fill="none" stroke="black"/>
<path d="M261.464,63.2285h 3.22469" fill="none" stroke="black"/>
<path d="M261.464,57.9806h 3.22469" fill="none" stroke="black"/>
<path d="M261.464,52.7327h 3.22469" fill="none" stroke="black"/>
<path d="M261.464,47.4847h 3.22469" fill="none" stroke="black"/>
<path d="M258.24,42.2368h 6.44939" fill="none" stroke="black"/>
<path d="M261.464,36.9889h 3.22469" fill="none" stroke="black"/>
<path d="M261.464,31.741h 3.22469" fill="none" stroke="black"/>
<path d="M261.464,26.4931h 3.22469" fill="none" stroke="black"/>
<path d="M261.464,21.2452h 3.22469" fill="none" stroke="black"/>
<path d="M258.24,15.9973h 6.44939" fill="none" stroke="black"/>
<rect x="289.634" y="2.7114" width="272.126" height="265.717" fill="white"/>
<rect x="333.174" y="15.9973" width="214.98" height="209.917" fill="white"/>
<rect x="333.174" y="15.9973" width="214.98" height="209.917" fill="none" stroke="black"/>
<path d="M333.174,204.922l 13.4362, -20.9917h 26.8724l 13.4362, 20.9917l -13.4362, 20.9917h -26.8724z" fill="#e1bf4a"/>
<path d="M333.174,162.939l 13.4362, -20.9917h 26.8724l 13.4362, 20.9917l -13.4362, 20.9917h -26.8724z" fill="#263da8"/>
<path d="M333.174,120.956l 13.4362, -20.9917h 26.8724l 13.4362, 20.9917l -13.4362, 20.9917h -26.8724z" fill="#263da8"/>
<path d="M333.174,78.9722l 13.4362, -20.9917h 26.8724l 13.4362, 20.9917l -13.4362, 20.9917h -26.8724z" fill="#263da8"/>
<path d="M333.174,36.9889l 13.4362, -20.9917h 26.8724l 13.4362, 20.9917l -13.4362, 20.9917h -26.8724z" fill="#263da8"/>
<path d="M373.483,183.931l 13.4362, -20.9917h 26.8724l 13.4362, 20.9917l -13.4362, 20.9917h -26.8724z" fill="#263da8"/>
<path d="M373.483,141.947l 13.4362, -20.9917h 26.8724l 13.4362, 20.9917l -13.4362, 20.9917h -26.8724z" fill="#263da8"/>
<path d="M373.483,99.9639l 13.4362, -20.9917h 26.8724l 13.4362, 20.9917l -13.4362, 20.9917h -26.8724z" fill="#263da8"/>
<path d="M373.483,57.9806l 13.4362, -20.9917h 26.8724l 13.4362, 20.9917l -13.4362, 20.9917h -26.8724z" fill="#263da8"/>
<path d="M413.791,204.922l 13.4362, -20.9917h 26.8724l 13.4362, 20.9917l -13.4362, 20.9917h -26.8724z" fill="#263da8"/>
<path d="M413.791,162.939l 13.4362, -20.9917h 26.8724l 13.4362, 20.9917l -13.4362, 20.9917h -26.8724z" fill="#263da8"/>
<path d="M413.791,120.956l 13.4362, -20.9917h 26.8724l 13.4362, 20.9917l -13.4362, 20.9917h -26.8724z" fill="#52ba91"/>
<path d="M413.791,78.9722l 13.4362, -20.9917h 26.8724l 13.4362, 20.9917l -13.4362, 20.9917h -26.8724z" fill="#263da8"/>
<path d="M413.791,36.9889l 13.4362, -20.9917h 26.8724l 13.4362, 20.9917l -13.4362, 20.9917h -26.8724z" fill="#263da8"/>
<path d="M454.1,183.931l 13.4362, -20.9917h 26.8724l 13.4362, 20.9917l -13.4362, 20.9917h -26.8724z" fill="#263da8"/>
<path d="M454.1,141.947l 13.4362, -20.9917h 26.8724l 13.4362, 20.9917l -13.4362, 20.9917h -26.8724z" fill="#263da8"/>
<path d="M454.1,99.9639l 13.4362, -20.9917h 26.8724l 13.4362, 20.9917l -13.4362, 20.9917h -26.8724z" fill="#f9f90e"/>
<path d="M454.1,57.9806l 13.4362, -20.9917h 26.8724l 13.4362, 20.9917l -13.4362, 20.9917h -26.8724z" fill="#263da8"/>
<path d="M494.409,204.922l 13.4362, -20.9917h 26.8724l 13.4362, 20.9917l -13.4362, 20.9917h -26.8724z" fill="#263da8"/>
<path d="M494.409,162.939l 13.4362, -20.9917h 26.8724l 13.4362, 20.9917l -13.4362, 20.9917h -26.8724z" fill="#263da8"/>
<path d="M494.409,120.956l 13.4362, -20.9917h 26.8724l 13.4362, 20.9917l -13.4362, 20.9917h -26.8724z" fill="#263da8"/>
<path d="M494.409,78.9722l 13.4362, -20.9917h 26.8724l 13.4362, 20.9917l -13.4362, 20.9917h -26.8724z" fill="#263da8"/>
<path d="M494.409,36.9889l 13.4362, -20.9917h 26.8724l 13.4362, 20.9917l -13.4362, 20.9917h -26.8724z" fill="#263da8"/>
<rect x="549.514" y="215.418" width="12.1096" height="10.4958" fill="#263da8"/>
<rect x="549.514" y="204.922" width="12.1096" height="10.4958" fill="#1652cc"/>
<rect x="549.514" y="194.426" width="12.1096" height="10.4958" fill="#1063db"/>
<rect x="549.514" y="183.931" width="12.1096" height="10.4958" fill="#1171d8"/>
<rect x="549.514" y="173.435" width="12.1096" height="10.4958" fill="#1380d5"/>
<rect x="549.514" y="162.939" width="12.1096" height="10.4958" fill="#0e8ed0"/>
<rect x="549.514" y="152.443" width="12.1096" height="10.4958" fill="#089dcc"/>
<rect x="549.514" y="141.947" width="12.1096" height="10.4958" fill="#0da7c2"/>
<rect x="549.514" y="131.451" width="12.1096" height="10.4958" fill="#1dafb3"/>
<rect x="549.514" y="120.956" width="12.1096" height="10.4958" fill="#2db7a3"/>
<rect x="549.514" y="110.46" width="12.1096" height="10.4958" fill="#52ba91"/>
<rect x="549.514" y="99.9639" width="12.1096" height="10.4958" fill="#73bd80"/>
<rect x="549.514" y="89.4681" width="12.1096" height="10.4958" fill="#94be71"/>
<rect x="549.514" y="78.9722" width="12.1096" height="10.4958" fill="#b2bc65"/>
<rect x="549.514" y="68.4764" width="12.1096" height="10.4958" fill="#d0ba59"/>
<rect x="549.514" y="57.9806" width="12.1096" height="10.4958" fill="#e1bf4a"/>
<rect x="549.514" y="47.4847" width="12.1096" height="10.4958" fill="#f4c53a"/>
<rect x="549.514" y="36.9889" width="12.1096" height="10.4958" fill="#fcd12b"/>
<rect x="549.514" y="26.4931" width="12.1096" height="10.4958" fill="#fae61c"/>
<rect x="549.514" y="15.9973" width="12.1096" height="10.4958" fill="#f9f90e"/>
<path d="M561.624,225.914v -209.917" fill="none" stroke="black"/>
<path d="M555.174,225.914h 6.44939" fill="none" stroke="black"/>
<path d="M555.174,204.922h 6.44939" fill="none" stroke="black"/>
<path d="M555.174,183.931h 6.44939" fill="none" stroke="black"/>
<path d="M555.174,162.939h 6.44939" fill="none" stroke="black"/>
<path d="M555.174,141.947h 6.44939" fill="none" stroke="black"/>
<path d="M555.174,120.956h 6.44939" fill="none" stroke="black"/>
<path d="M555.174,99.9639h 6.44939" fill="none" stroke="black"/>
<path d="M555.174,78.9722h 6.44939" fill="none" stroke="black"/>
<path d="M555.174,57.9806h 6.44939" fill="none" stroke="black"/>
<path d="M555.174,36.9889h 6.44939" fill="none" stroke="black"/>
<path d="M555.174,15.9973h 6.44939" fill="none" stroke="black"/>
<text xml:space="preserve" x="563.163" y="230.848" fill="black" font-size="12.6889" font-family="Helvetica">0
</text>
<text xml:space="preserve" x="563.163" y="209.517" fill="black" font-size="12.6889" font-family="Helvetica">2
</text>
<text xml:space="preserve" x="563.163" y="188.66" fill="black" font-size="12.6889" font-family="Helvetica">4
</text>
<text xml:space="preserve" x="563.163" y="167.803" fill="black" font-size="12.6889" font-family="Helvetica">6
</text>
<text xml:space="preserve" x="563.163" y="146.472" fill="black" font-size="12.6889" font-family="Helvetica">8
</text>
<text xml:space="preserve" x="563.163" y="125.616" fill="black" font-size="12.6889" font-family="Helvetica">10
</text>
<text xml:space="preserve" x="563.163" y="104.759" fill="black" font-size="12.6889" font-family="Helvetica">12
</text>
<text xml:space="preserve" x="563.163" y="83.9017" fill="black" font-size="12.6889" font-family="Helvetica">14
</text>
<text xml:space="preserve" x="563.163" y="62.5708" fill="black" font-size="12.6889" font-family="Helvetica">16
</text>
<text xml:space="preserve" x="563.163" y="41.7138" fill="black" font-size="12.6889" font-family="Helvetica">18
</text>
<text xml:space="preserve" x="563.163" y="20.8569" fill="black" font-size="12.6889" font-family="Helvetica">20
</text>
<path d="M333.174,204.922l 13.4362, -20.9917h 26.8724l 13.4362, 20.9917l -13.4362, 20.9917h -26.8724z" fill="none" stroke="#e1bf4a"/>
<path d="M333.174,204.922l 13.4362, -20.9917h 26.8724l 13.4362, 20.9917l -13.4362, 20.9917h -26.8724l -13.4362, -20.9917z" fill="none" stroke="black"/>
<path d="M333.174,162.939l 13.4362, -20.9917h 26.8724l 13.4362, 20.9917l -13.4362, 20.9917h -26.8724z" fill="none" stroke="#263da8"/>
<path d="M333.174,162.939l 13.4362, -20.9917h 26.8724l 13.4362, 20.9917l -13.4362, 20.9917h -26.8724l -13.4362, -20.9917z" fill="none" stroke="black"/>
<path d="M333.174,120.956l 13.4362, -20.9917h 26.8724l 13.4362, 20.9917l -13.4362, 20.9917h -26.8724z" fill="none" stroke="#263da8"/>
<path d="M333.174,120.956l 13.4362, -20.9917h 26.8724l 13.4362, 20.9917l -13.4362, 20.9917h -26.8724l -13.4362, -20.9917z" fill="none" stroke="black"/>
<path d="M333.174,78.9722l 13.4362, -20.9917h 26.8724l 13.4362, 20.9917l -13.4362, 20.9917h -26.8724z" fill="none" stroke="#263da8"/>
<path d="M333.174,78.9722l 13.4362, -20.9917h 26.8724l 13.4362, 20.9917l -13.4362, 20.9917h -26.8724l -13.4362, -20.9917z" fill="none" stroke="black"/>
<path d="M333.174,36.9889l 13.4362, -20.9917h 26.8724l 13.4362, 20.9917l -13.4362, 20.9917h -26.8724z" fill="none" stroke="#263da8"/>
<path d="M333.174,36.9889l 13.4362, -20.9917h 26.8724l 13.4362, 20.9917l -13.4362, 20.9917h -26.8724l -13.4362, -20.9917z" fill="none" stroke="black"/>
<path d="M373.483,183.931l 13.4362, -20.9917h 26.8724l 13.4362, 20.9917l -13.4362, 20.9917h -26.8724z" fill="none" stroke="#263da8"/>
<path d="M373.483,183.931l 13.4362, -20.9917h 26.8724l 13.4362, 20.9917l -13.4362, 20.9917h -26.8724l -13.4362, -20.9917z" fill="none" stroke="black"/>
<path d="M373.483,141.947l 13.4362, -20.9917h 26.8724l 13.4362, 20.9917l -13.4362, 20.9917h -26.8724z" fill="none" stroke="#263da8"/>
<path d="M373.483,141.947l 13.4362, -20.9917h 26.8724l 13.4362, 20.9917l -13.4362, 20.9917h -26.8724l -13.4362, -20.9917z" fill="none" stroke="black"/>
<path d="M373.483,99.9639l 13.4362, -20.9917h 26.8724l 13.4362, 20.9917l -13.4362, 20.9917h -26.8724z" fill="none" stroke="#263da8"/>
<path d="M373.483,99.9639l 13.4362, -20.9917h 26.8724l 13.4362, 20.9917l -13.4362, 20.9917h -26.8724l -13.4362, -20.9917z" fill="none" stroke="black"/>
<path d="M373.483,57.9806l 13.4362, -20.9917h 26.8724l 13.4362, 20.9917l -13.4362, 20.9917h -26.8724z" fill="none" stroke="#263da8"/>
<path d="M373.483,57.9806l 13.4362, -20.9917h 26.8724l 13.4362, 20.9917l -13.4362, 20.9917h -26.8724l -13.4362, -20.9917z" fill="none" stroke="black"/>
<path d="M413.791,204.922l 13.4362, -20.9917h 26.8724l 13.4362, 20.9917l -13.4362, 20.9917h -26.8724z" fill="none" stroke="#263da8"/>
<path d="M413.791,204.922l 13.4362, -20.9917h 26.8724l 13.4362, 20.9917l -13.4362, 20.9917h -26.8724l -13.4362, -20.9917z" fill="none" stroke="black"/>
<path d="M413.791,162.939l 13.4362, -20.9917h 26.8724l 13.4362, 20.9917l -13.4362, 20.9917h -26.8724z" fill="none" stroke="#263da8"/>
<path d="M413.791,162.939l 13.4362, -20.9917h 26.8724l 13.4362, 20.9917l -13.4362, 20.9917h -26.8724l -13.4362, -20.9917z" fill="none" stroke="black"/>
<path d="M413.791,120.956l 13.4362, -20.9917h 26.8724l 13.4362, 20.9917l -13.4362, 20.9917h -26.8724z" fill="none" stroke="#52ba91"/>
<path d="M413.791,120.956l 13.4362, -20.9917h 26.8724l 13.4362, 20.9917l -13.4362, 20.9917h -26.8724l -13.4362, -20.9917z" fill="none" stroke="black"/>
<path d="M413.791,78.9722l 13.4362, -20.9917h 26.8724l 13.4362, 20.9917l -13.4362, 20.9917h -26.8724z" fill="none" stroke="#263da8"/>
<path d="M413.791,78.9722l 13.4362, -20.9917h 26.8724l 13.4362, 20.9917l -13.4362, 20.9917h -26.8724l -13.4362, -20.9917z" fill="none" stroke="black"/>
<path d="M413.791,36.9889l 13.4362, -20.9917h 26.8724l 13.4362, 20.9917l -13.4362, 20.9917h -26.8724z" fill="none" stroke="#263da8"/>
<path d="M413.791,36.9889l 13.4362, -20.9917h 26.8724l 13.4362, 20.9917l -13.4362, 20.9917h -26.8724l -13.4362, -20.9917z" fill="none" stroke="black"/>
<path d="M454.1,183.931l 13.4362, -20.9917h 26.8724l 13.4362, 20.9917l -13.4362, 20.9917h -26.8724z" fill="none" stroke="#263da8"/>
<path d="M454.1,183.931l 13.4362, -20.9917h 26.8724l 13.4362, 20.9917l -13.4362, 20.9917h -26.8724l -13.4362, -20.9917z" fill="none" stroke="black"/>
<path d="M454.1,141.947l 13.4362, -20.9917h 26.8724l 13.4362, 20.9917l -13.4362, 20.9917h -26.8724z" fill="none" stroke="#263da8"/>
<path d="M454.1,141.947l 13.4362, -20.9917h 26.8724l 13.4362, 20.9917l -13.4362, 20.9917h -26.8724l -13.4362, -20.9917z" fill="none" stroke="black"/>
<path d="M454.1,99.9639l 13.4362, -20.9917h 26.8724l 13.4362, 20.9917l -13.4362, 20.9917h -26.8724z" fill="none" stroke="#f9f90e"/>
<path d="M454.1,99.9639l 13.4362, -20.9917h 26.8724l 13.4362, 20.9917l -13.4362, 20.9917h -26.8724l -13.4362, -20.9917z" fill="none" stroke="black"/>
<path d="M454.1,57.9806l 13.4362, -20.9917h 26.8724l 13.4362, 20.9917l -13.4362, 20.9917h -26.8724z" fill="none" stroke="#263da8"/>
<path d="M454.1,57.9806l 13.4362, -20.9917h 26.8724l 13.4362, 20.9917l -13.4362, 20.9917h -26.8724l -13.4362, -20.9917z" fill="none" stroke="black"/>
<path d="M494.409,204.922l 13.4362, -20.9917h 26.8724l 13.4362, 20.9917l -13.4362, 20.9917h -26.8724z" fill="none" stroke="#263da8"/>
<path d="M494.409,204.922l 13.4362, -20.9917h 26.8724l 13.4362, 20.9917l -13.4362, 20.9917h -26.8724l -13.4362, -20.9917z" fill="none" stroke="black"/>
<path d="M494.409,162.939l 13.4362, -20.9917h 26.8724l 13.4362, 20.9917l -13.4362, 20.9917h -26.8724z" fill="none" stroke="#263da8"/>
<path d="M494.409,162.939l 13.4362, -20.9917h 26.8724l 13.4362, 20.9917l -13.4362, 20.9917h -26.8724l -13.4362, -20.9917z" fill="none" stroke="black"/>
<path d="M494.409,120.956l 13.4362, -20.9917h 26.8724l 13.4362, 20.9917l -13.4362, 20.9917h -26.8724z" fill="none" stroke="#263da8"/>
<path d="M494.409,120.956l 13.4362, -20.9917h 26.8724l 13.4362, 20.9917l -13.4362, 20.9917h -26.8724l -13.4362, -20.9917z" fill="none" stroke="black"/>
<path d="M494.409,78.9722l 13.4362, -20.9917h 26.8724l 13.4362, 20.9917l -13.4362, 20.9917h -26.8724z" fill="none" stroke="#263da8"/>
<path d="M494.409,78.9722l 13.4362, -20.9917h 26.8724l 13.4362, 20.9917l -13.4362, 20.9917h -26.8724l -13.4362, -20.9917z" fill="none" stroke="black"/>
<path d="M494.409,36.9889l 13.4362, -20.9917h 26.8724l 13.4362, 20.9917l -13.4362, 20.9917h -26.8724z" fill="none" stroke="#263da8"/>
<path d="M494.409,36.9889l 13.4362, -20.9917h 26.8724l 13.4362, 20.9917l -13.4362, 20.9917h -26.8724l -13.4362, -20.9917z" fill="none" stroke="black"/>
<path d="M333.174,225.914h 214.98" fill="none" stroke="black"/>
<path d="M333.174,219.616v 6.2975" fill="none" stroke="black"/>
<path d="M333.174,15.9973v 209.917" fill="none" stroke="black" stroke-dasharray=" 1, 2"/>
<path d="M338.548,222.765v 3.14875" fill="none" stroke="black"/>
<path d="M343.923,222.765v 3.14875" fill="none" stroke="black"/>
<path d="M349.297,222.765v 3.14875" fill="none" stroke="black"/>
<path d="M354.672,222.765v 3.14875" fill="none" stroke="black"/>
<path d="M360.046,219.616v 6.2975" fill="none" stroke="black"/>
<path d="M360.046,15.9973v 209.917" fill="none" stroke="black" stroke-dasharray=" 1, 2"/>
<path d="M365.421,222.765v 3.14875" fill="none" stroke="black"/>
<path d="M370.795,222.765v 3.14875" fill="none" stroke="black"/>
<path d="M376.17,222.765v 3.14875" fill="none" stroke="black"/>
<path d="M381.544,222.765v 3.14875" fill="none" stroke="black"/>
<path d="M386.919,219.616v 6.2975" fill="none" stroke="black"/>
<path d="M386.919,15.9973v 209.917" fill="none" stroke="black" stroke-dasharray=" 1, 2"/>
<path d="M392.293,222.765v 3.14875" fill="none" stroke="black"/>
<path d="M397.668,222.765v 3.14875" fill="none" stroke="black"/>
<path d="M403.042,222.765v 3.14875" fill="none" stroke="black"/>
<path d="M408.417,222.765v 3.14875" fill="none" stroke="black"/>
<path d="M413.791,219.616v 6.2975" fill="none" stroke="black"/>
<path d="M413.791,15.9973v 209.917" fill="none" stroke="black" stroke-dasharray=" 1, 2"/>
<path d="M419.166,222.765v 3.14875" fill="none" stroke="black"/>
<path d="M424.54,222.765v 3.14875" fill="none" stroke="black"/>
<path d="M429.915,222.765v 3.14875" fill="none" stroke="black"/>
<path d="M435.289,222.765v 3.14875" fill="none" stroke="black"/>
<path d="M440.664,219.616v 6.2975" fill="none" stroke="black"/>
<path d="M440.664,15.9973v 209.917" fill="none" stroke="black" stroke-dasharray=" 1, 2"/>
<path d="M446.038,222.765v 3.14875" fill="none" stroke="black"/>
<path d="M451.413,222.765v 3.14875" fill="none" stroke="black"/>
<path d="M456.787,222.765v 3.14875" fill="none" stroke="black"/>
<path d="M462.162,222.765v 3.14875" fill="none" stroke="black"/>
<path d="M467.536,219.616v 6.2975" fill="none" stroke="black"/>
<path d="M467.536,15.9973v 209.917" fill="none" stroke="black" stroke-dasharray=" 1, 2"/>
<path d="M472.911,222.765v 3.14875" fill="none" stroke="black"/>
<path d="M478.285,222.765v 3.14875" fill="none" stroke="black"/>
<path d="M483.66,222.765v 3.14875" fill="none" stroke="black"/>
<path d="M489.034,222.765v 3.14875" fill="none" stroke="black"/>
<path d="M494.409,219.616v 6.2975" fill="none" stroke="black"/>
<path d="M494.409,15.9973v 209.917" fill="none" stroke="black" stroke-dasharray=" 1, 2"/>
<path d="M499.783,222.765v 3.14875" fill="none" stroke="black"/>
<path d="M505.158,222.765v 3.14875" fill="none" stroke="black"/>
<path d="M510.532,222.765v 3.14875" fill="none" stroke="black"/>
<path d="M515.907,222.765v 3.14875" fill="none" stroke="black"/>
<path d="M521.281,219.616v 6.2975" fill="none" stroke="black"/>
<path d="M521.281,15.9973v 209.917" fill="none" stroke="black" stroke-dasharray=" 1, 2"/>
<path d="M526.656,222.765v 3.14875" fill="none" stroke="black"/>
<path d="M532.03,222.765v 3.14875" fill="none" stroke="black"/>
<path d="M537.405,222.765v 3.14875" fill="none" stroke="black"/>
<path d="M542.779,222.765v 3.14875" fill="none" stroke="black"/>
<path d="M548.154,219.616v 6.2975" fill="none" stroke="black"/>
<path d="M548.154,15.9973v 209.917" fill="none" stroke="black" stroke-dasharray=" 1, 2"/>
<path d="M548.154,219.616v 6.2975" fill="none" stroke="black"/>
<path d="M548.154,15.9973v 209.917" fill="none" stroke="black" stroke-dasharray=" 1, 2"/>
<text xml:space="preserve" x="329.945" y="237.959" fill="black" font-size="12.6889" font-family="Helvetica">0
</text>
<text xml:space="preserve" x="352.698" y="237.959" fill="black" font-size="12.6889" font-family="Helvetica">0.1
</text>
<text xml:space="preserve" x="378.295" y="237.959" fill="black" font-size="12.6889" font-family="Helvetica">0.2
</text>
<text xml:space="preserve" x="405.314" y="237.959" fill="black" font-size="12.6889" font-family="Helvetica">0.3
</text>
<text xml:space="preserve" x="432.333" y="237.959" fill="black" font-size="12.6889" font-family="Helvetica">0.4
</text>
<text xml:space="preserve" x="458.878" y="237.959" fill="black" font-size="12.6889" font-family="Helvetica">0.5
</text>
<text xml:space="preserve" x="485.898" y="237.959" fill="black" font-size="12.6889" font-family="Helvetica">0.6
</text>
<text xml:space="preserve" x="512.917" y="237.959" fill="black" font-size="12.6889" font-family="Helvetica">0.7
</text>
<text xml:space="preserve" x="539.462" y="237.959" fill="black" font-size="12.6889" font-family="Helvetica">0.8
</text>
<path d="M333.174,15.9973h 214.98" fill="none" stroke="black"/>
<path d="M333.174,22.2948v -6.2975" fill="none" stroke="black"/>
<path d="M338.548,19.146v -3.14875" fill="none" stroke="black"/>
<path d="M343.923,19.146v -3.14875" fill="none" stroke="black"/>
<path d="M349.297,19.146v -3.14875" fill="none" stroke="black"/>
<path d="M354.672,19.146v -3.14875" fill="none" stroke="black"/>
<path d="M360.046,22.2948v -6.2975" fill="none" stroke="black"/>
<path d="M365.421,19.146v -3.14875" fill="none" stroke="black"/>
<path d="M370.795,19.146v -3.14875" fill="none" stroke="black"/>
<path d="M376.17,19.146v -3.14875" fill="none" stroke="black"/>
<path d="M381.544,19.146v -3.14875" fill="none" stroke="black"/>
<path d="M386.919,22.2948v -6.2975" fill="none" stroke="black"/>
<path d="M392.293,19.146v -3.14875" fill="none" stroke="black"/>
<path d="M397.668,19.146v -3.14875" fill="none" stroke="black"/>
<path d="M403.042,19.146v -3.14875" fill="none" stroke="black"/>
<path d="M408.417,19.146v -3.14875" fill="none" stroke="black"/>
<path d="M413.791,22.2948v -6.2975" fill="none" stroke="black"/>
<path d="M419.166,19.146v -3.14875" fill="none" stroke="black"/>
<path d="M424.54,19.146v -3.14875" fill="none" stroke="black"/>
<path d="M429.915,19.146v -3.14875" fill="none" stroke="black"/>
<path d="M435.289,19.146v -3.14875" fill="none" stroke="black"/>
<path d="M440.664,22.2948v -6.2975" fill="none" stroke="black"/>
<path d="M446.038,19.146v -3.14875" fill="none" stroke="black"/>
<path d="M451.413,19.146v -3.14875" fill="none" stroke="black"/>
<path d="M456.787,19.146v -3.14875" fill="none" stroke="black"/>
<path d="M462.162,19.146v -3.14875" fill="none" stroke="black"/>
<path d="M467.536,22.2948v -6.2975" fill="none" stroke="black"/>
<path d="M472.911,19.146v -3.14875" fill="none" stroke="black"/>
<path d="M478.285,19.146v -3.14875" fill="none" stroke="black"/>
<path d="M483.66,19.146v -3.14875" fill="none" stroke="black"/>
<path d="M489.034,19.146v -3.14875" fill="none" stroke="black"/>
<path d="M494.409,22.2948v -6.2975" fill="none" stroke="black"/>
<path d="M499.783,19.146v -3.14875" fill="none" stroke="black"/>
<path d="M505.158,19.146v -3.14875" fill="none" stroke="black"/>
<path d="M510.532,19.146v -3.14875" fill="none" stroke="black"/>
<path d="M515.907,19.146v -3.14875" fill="none" stroke="black"/>
<path d="M521.281,22.2948v -6.2975" fill="none" stroke="black"/>
<path d="M526.656,19.146v -3.14875" fill="none" stroke="black"/>
<path d="M532.03,19.146v -3.14875" fill="none" stroke="black"/>
<path d="M537.405,19.146v -3.14875" fill="none" stroke="black"/>
<path d="M542.779,19.146v -3.14875" fill="none" stroke="black"/>
<path d="M548.154,22.2948v -6.2975" fill="none" stroke="black"/>
<path d="M548.154,22.2948v -6.2975" fill="none" stroke="black"/>
<path d="M333.174,225.914v -209.917" fill="none" stroke="black"/>
<path d="M339.623,225.914h -6.44939" fill="none" stroke="black"/>
<path d="M548.154,225.914h -214.98" fill="none" stroke="black" stroke-dasharray=" 1, 2"/>
<path d="M336.399,221.066h -3.22469" fill="none" stroke="black"/>
<path d="M336.399,216.218h -3.22469" fill="none" stroke="black"/>
<path d="M336.399,211.37h -3.22469" fill="none" stroke="black"/>
<path d="M336.399,206.523h -3.22469" fill="none" stroke="black"/>
<path d="M339.623,201.675h -6.44939" fill="none" stroke="black"/>
<path d="M548.154,201.675h -214.98" fill="none" stroke="black" stroke-dasharray=" 1, 2"/>
<path d="M336.399,196.827h -3.22469" fill="none" stroke="black"/>
<path d="M336.399,191.979h -3.22469" fill="none" stroke="black"/>
<path d="M336.399,187.131h -3.22469" fill="none" stroke="black"/>
<path d="M336.399,182.284h -3.22469" fill="none" stroke="black"/>
<path d="M339.623,177.436h -6.44939" fill="none" stroke="black"/>
<path d="M548.154,177.436h -214.98" fill="none" stroke="black" stroke-dasharray=" 1, 2"/>
<path d="M336.399,172.588h -3.22469" fill="none" stroke="black"/>
<path d="M336.399,167.74h -3.22469" fill="none" stroke="black"/>
<path d="M336.399,162.892h -3.22469" fill="none" stroke="black"/>
<path d="M336.399,158.044h -3.22469" fill="none" stroke="black"/>
<path d="M339.623,153.197h -6.44939" fill="none" stroke="black"/>
<path d="M548.154,153.197h -214.98" fill="none" stroke="black" stroke-dasharray=" 1, 2"/>
<path d="M336.399,148.349h -3.22469" fill="none" stroke="black"/>
<path d="M336.399,143.501h -3.22469" fill="none" stroke="black"/>
<path d="M336.399,138.653h -3.22469" fill="none" stroke="black"/>
<path d="M336.399,133.805h -3.22469" fill="none" stroke="black"/>
<path d="M339.623,128.958h -6.44939" fill="none" stroke="black"/>
<path d="M548.154,128.958h -214.98" fill="none" stroke="black" stroke-dasharray=" 1, 2"/>
<path d="M336.399,124.11h -3.22469" fill="none" stroke="black"/>
<path d="M336.399,119.262h -3.22469" fill="none" stroke="black"/>
<path d="M336.399,114.414h -3.22469" fill="none" stroke="black"/>
<path d="M336.399,109.566h -3.22469" fill="none" stroke="black"/>
<path d="M339.623,104.718h -6.44939" fill="none" stroke="black"/>
<path d="M548.154,104.718h -214.98" fill="none" stroke="black" stroke-dasharray=" 1, 2"/>
<path d="M336.399,99.8706h -3.22469" fill="none" stroke="black"/>
<path d="M336.399,95.0228h -3.22469" fill="none" stroke="black"/>
<path d="M336.399,90.175h -3.22469" fill="none" stroke="black"/>
<path d="M336.399,85.3272h -3.22469" fill="none" stroke="black"/>
<path d="M339.623,80.4794h -6.44939" fill="none" stroke="black"/>
<path d="M548.154,80.4794h -214.98" fill="none" stroke="black" stroke-dasharray=" 1, 2"/>
<path d="M336.399,75.6316h -3.22469" fill="none" stroke="black"/>
<path d="M336.399,70.7837h -3.22469" fill="none" stroke="black"/>
<path d="M336.399,65.9359h -3.22469" fill="none" stroke="black"/>
<path d="M336.399,61.0881h -3.22469" fill="none" stroke="black"/>
<path d="M339.623,56.2403h -6.44939" fill="none" stroke="black"/>
<path d="M548.154,56.2403h -214.98" fill="none" stroke="black" stroke-dasharray=" 1, 2"/>
<path d="M336.399,51.3925h -3.22469" fill="none" stroke="black"/>
<path d="M336.399,46.5447h -3.22469" fill="none" stroke="black"/>
<path d="M336.399,41.6968h -3.22469" fill="none" stroke="black"/>
<path d="M336.399,36.849h -3.22469" fill="none" stroke="black"/>
<path d="M339.623,32.0012h -6.44939" fill="none" stroke="black"/>
<path d="M548.154,32.0012h -214.98" fill="none" stroke="black" stroke-dasharray=" 1, 2"/>
<path d="M339.623,32.0012h -6.44939" fill="none" stroke="black"/>
<path d="M548.154,32.0012h -214.98" fill="none" stroke="black" stroke-dasharray=" 1, 2"/>
<path d="M336.399,27.1534h -3.22469" fill="none" stroke="black"/>
<path d="M336.399,22.3056h -3.22469" fill="none" stroke="black"/>
<path d="M336.399,17.4578h -3.22469" fill="none" stroke="black"/>
<text xml:space="preserve" x="325.204" y="230.848" fill="black" font-size="12.6889" font-family="Helvetica">0
</text>
<text xml:space="preserve" x="317.146" y="206.199" fill="black" font-size="12.6889" font-family="Helvetica">0.1
</text>
<text xml:space="preserve" x="315.25" y="182.024" fill="black" font-size="12.6889" font-family="Helvetica">0.2
</text>
<text xml:space="preserve" x="315.25" y="157.849" fill="black" font-size="12.6889" font-family="Helvetica">0.3
</text>
<text xml:space="preserve" x="314.776" y="133.674" fill="black" font-size="12.6889" font-family="Helvetica">0.4
</text>
<text xml:space="preserve" x="314.776" y="109.499" fill="black" font-size="12.6889" font-family="Helvetica">0.5
</text>
<text xml:space="preserve" x="314.776" y="85.3238" fill="black" font-size="12.6889" font-family="Helvetica">0.6
</text>
<text xml:space="preserve" x="314.776" y="61.1487" fill="black" font-size="12.6889" font-family="Helvetica">0.7
</text>
<text xml:space="preserve" x="314.776" y="36.9736" fill="black" font-size="12.6889" font-family="Helvetica">0.8
</text>
<path d="M548.154,225.914v -209.917" fill="none" stroke="black"/>
<path d="M541.704,225.914h 6.44939" fill="none" stroke="black"/>
<path d="M544.929,221.066h 3.22469" fill="none" stroke="black"/>
<path d="M544.929,216.218h 3.22469" fill="none" stroke="black"/>
<path d="M544.929,211.37h 3.22469" fill="none" stroke="black"/>
<path d="M544.929,206.523h 3.22469" fill="none" stroke="black"/>
<path d="M541.704,201.675h 6.44939" fill="none" stroke="black"/>
<path d="M544.929,196.827h 3.22469" fill="none" stroke="black"/>
<path d="M544.929,191.979h 3.22469" fill="none" stroke="black"/>
<path d="M544.929,187.131h 3.22469" fill="none" stroke="black"/>
<path d="M544.929,182.284h 3.22469" fill="none" stroke="black"/>
<path d="M541.704,177.436h 6.44939" fill="none" stroke="black"/>
<path d="M544.929,172.588h 3.22469" fill="none" stroke="black"/>
<path d="M544.929,167.74h 3.22469" fill="none" stroke="black"/>
<path d="M544.929,162.892h 3.22469" fill="none" stroke="black"/>
<path d="M544.929,158.044h 3.22469" fill="none" stroke="black"/>
<path d="M541.704,153.197h 6.44939" fill="none" stroke="black"/>
<path d="M544.929,148.349h 3.22469" fill="none" stroke="black"/>
<path d="M544.929,143.501h 3.22469" fill="none" stroke="black"/>
<path d="M544.929,138.653h 3.22469" fill="none" stroke="black"/>
<path d="M544.929,133.805h 3.22469" fill="none" stroke="black"/>
<path d="M541.704,128.958h 6.44939" fill="none" stroke="black"/>
<path d="M544.929,124.11h 3.22469" fill="none" stroke="black"/>
<path d="M544.929,119.262h 3.22469" fill="none" stroke="black"/>
<path d="M544.929,114.414h 3.22469" fill="none" stroke="black"/>
<path d="M544.929,109.566h 3.22469" fill="none" stroke="black"/>
<path d="M541.704,104.718h 6.44939" fill="none" stroke="black"/>
<path d="M544.929,99.8706h 3.22469" fill="none" stroke="black"/>
<path d="M544.929,95.0228h 3.22469" fill="none" stroke="black"/>
<path d="M544.929,90.175h 3.22469" fill="none" stroke="black"/>
<path d="M544.929,85.3272h 3.22469" fill="none" stroke="black"/>
<path d="M541.704,80.4794h 6.44939" fill="none" stroke="black"/>
<path d="M544.929,75.6316h 3.22469" fill="none" stroke="black"/>
<path d="M544.929,70.7837h 3.22469" fill="none" stroke="black"/>
<path d="M544.929,65.9359h 3.22469" fill="none" stroke="black"/>
<path d="M544.929,61.0881h 3.22469" fill="none" stroke="black"/>
<path d="M541.704,56.2403h 6.44939" fill="none" stroke="black"/>
<path d="M544.929,51.3925h 3.22469" fill="none" stroke="black"/>
<path d="M544.929,46.5447h 3.22469" fill="none" stroke="black"/>
<path d="M544.929,41.6968h 3.22469" fill="none" stroke="black"/>
<path d="M544.929,36.849h 3.22469" fill="none" stroke="black"/>
<path d="M541.704,32.0012h 6.44939" fill="none" stroke="black"/>
<path d="M541.704,32.0012h 6.44939" fill="none" stroke="black"/>
<path d="M544.929,27.1534h 3.22469" fill="none" stroke="black"/>
<path d="M544.929,22.3056h 3.22469" fill="none" stroke="black"/>
<path d="M544.929,17.4578h 3.22469" fill="none" stroke="black"/></svg>
