<?xml version="1.0" standalone="no"?>
<svg width="567.429" height="349.717" viewBox="0 0 567.429 349.717" xmlns="http://www.w3.org/2000/svg" shape-rendering="crispEdges">
<title>
./old_svg_ref/th2polyEurope.svg
</title>
<desc>
Creator: ROOT Version 6.33.01
CreationDate: Wed Jul 10 10:03:51 2024</desc>
<defs>
</defs>
<rect x="0.5" y="0" width="566.929" height="349.217" fill="white"/>
<rect x="91.2087" y="17.4608" width="449.575" height="275.881" fill="white"/>
<rect x="91.2087" y="17.4608" width="449.575" height="275.881" fill="none" stroke="black"/>
<path d="M97.4528,293.342v -129.18" fill="none" stroke="#cc3333" stroke-width="2"/>
<path d="M97.4528,159.778v -129.18" fill="none" stroke="#cc3333" stroke-width="2"/>
<path d="M91.2087,161.97h 4.05236" fill="none" stroke="#cc3333" stroke-width="2"/>
<path d="M99.6445,161.97h 4.05236" fill="none" stroke="#cc3333" stroke-width="2"/>
<g fill="#0000ff">
<circle cx="97.4528" cy="161.97" r="2.33785"/>
</g>
<path d="M109.941,293.342v -119.226" fill="none" stroke="#cc3333" stroke-width="2"/>
<path d="M109.941,169.733v -119.226" fill="none" stroke="#cc3333" stroke-width="2"/>
<path d="M103.697,171.924h 4.05236" fill="none" stroke="#cc3333" stroke-width="2"/>
<path d="M112.133,171.924h 4.05236" fill="none" stroke="#cc3333" stroke-width="2"/>
<g fill="#0000ff">
<circle cx="109.941" cy="171.924" r="2.33785"/>
</g>
<path d="M122.429,293.342v -105.869" fill="none" stroke="#cc3333" stroke-width="2"/>
<path d="M122.429,183.089v -105.869" fill="none" stroke="#cc3333" stroke-width="2"/>
<path d="M116.185,185.281h 4.05236" fill="none" stroke="#cc3333" stroke-width="2"/>
<path d="M124.621,185.281h 4.05236" fill="none" stroke="#cc3333" stroke-width="2"/>
<g fill="#0000ff">
<circle cx="122.429" cy="185.281" r="2.33785"/>
</g>
<path d="M134.917,293.342v -83.5486" fill="none" stroke="#cc3333" stroke-width="2"/>
<path d="M134.917,205.41v -83.5486" fill="none" stroke="#cc3333" stroke-width="2"/>
<path d="M128.673,207.602h 4.05236" fill="none" stroke="#cc3333" stroke-width="2"/>
<path d="M137.109,207.602h 4.05236" fill="none" stroke="#cc3333" stroke-width="2"/>
<g fill="#0000ff">
<circle cx="134.917" cy="207.602" r="2.33785"/>
</g>
<path d="M147.406,293.342v -79.0155" fill="none" stroke="#cc3333" stroke-width="2"/>
<path d="M147.406,209.943v -79.0155" fill="none" stroke="#cc3333" stroke-width="2"/>
<path d="M141.161,212.135h 4.05236" fill="none" stroke="#cc3333" stroke-width="2"/>
<path d="M149.597,212.135h 4.05236" fill="none" stroke="#cc3333" stroke-width="2"/>
<g fill="#0000ff">
<circle cx="147.406" cy="212.135" r="2.33785"/>
</g>
<path d="M159.894,293.342v -75.6713" fill="none" stroke="#cc3333" stroke-width="2"/>
<path d="M159.894,213.287v -75.6713" fill="none" stroke="#cc3333" stroke-width="2"/>
<path d="M153.65,215.479h 4.05236" fill="none" stroke="#cc3333" stroke-width="2"/>
<path d="M162.085,215.479h 4.05236" fill="none" stroke="#cc3333" stroke-width="2"/>
<g fill="#0000ff">
<circle cx="159.894" cy="215.479" r="2.33785"/>
</g>
<path d="M172.382,293.342v -72.9011" fill="none" stroke="#cc3333" stroke-width="2"/>
<path d="M172.382,216.057v -72.9011" fill="none" stroke="#cc3333" stroke-width="2"/>
<path d="M166.138,218.249h 4.05236" fill="none" stroke="#cc3333" stroke-width="2"/>
<path d="M174.574,218.249h 4.05236" fill="none" stroke="#cc3333" stroke-width="2"/>
<g fill="#0000ff">
<circle cx="172.382" cy="218.249" r="2.33785"/>
</g>
<path d="M184.87,293.342v -70.1502" fill="none" stroke="#cc3333" stroke-width="2"/>
<path d="M184.87,218.808v -70.1502" fill="none" stroke="#cc3333" stroke-width="2"/>
<path d="M178.626,221h 4.05236" fill="none" stroke="#cc3333" stroke-width="2"/>
<path d="M187.062,221h 4.05236" fill="none" stroke="#cc3333" stroke-width="2"/>
<g fill="#0000ff">
<circle cx="184.87" cy="221" r="2.33785"/>
</g>
<path d="M197.358,293.342v -59.153" fill="none" stroke="#cc3333" stroke-width="2"/>
<path d="M197.358,229.806v -59.153" fill="none" stroke="#cc3333" stroke-width="2"/>
<path d="M191.114,231.997h 4.05236" fill="none" stroke="#cc3333" stroke-width="2"/>
<path d="M199.55,231.997h 4.05236" fill="none" stroke="#cc3333" stroke-width="2"/>
<g fill="#0000ff">
<circle cx="197.358" cy="231.997" r="2.33785"/>
</g>
<path d="M209.846,293.342v -56.603" fill="none" stroke="#cc3333" stroke-width="2"/>
<path d="M209.846,232.356v -56.603" fill="none" stroke="#cc3333" stroke-width="2"/>
<path d="M203.602,234.547h 4.05236" fill="none" stroke="#cc3333" stroke-width="2"/>
<path d="M212.038,234.547h 4.05236" fill="none" stroke="#cc3333" stroke-width="2"/>
<g fill="#0000ff">
<circle cx="209.846" cy="234.547" r="2.33785"/>
</g>
<path d="M222.335,293.342v -54.8451" fill="none" stroke="#cc3333" stroke-width="2"/>
<path d="M222.335,234.113v -54.8451" fill="none" stroke="#cc3333" stroke-width="2"/>
<path d="M216.091,236.305h 4.05236" fill="none" stroke="#cc3333" stroke-width="2"/>
<path d="M224.526,236.305h 4.05236" fill="none" stroke="#cc3333" stroke-width="2"/>
<g fill="#0000ff">
<circle cx="222.335" cy="236.305" r="2.33785"/>
</g>
<path d="M234.823,293.342v -47.6644" fill="none" stroke="#cc3333" stroke-width="2"/>
<path d="M234.823,241.294v -47.6644" fill="none" stroke="#cc3333" stroke-width="2"/>
<path d="M228.579,243.486h 4.05236" fill="none" stroke="#cc3333" stroke-width="2"/>
<path d="M237.015,243.486h 4.05236" fill="none" stroke="#cc3333" stroke-width="2"/>
<g fill="#0000ff">
<circle cx="234.823" cy="243.486" r="2.33785"/>
</g>
<path d="M247.311,293.342v -29.4943" fill="none" stroke="#cc3333" stroke-width="2"/>
<path d="M247.311,259.464v -29.4943" fill="none" stroke="#cc3333" stroke-width="2"/>
<path d="M241.067,261.656h 4.05236" fill="none" stroke="#cc3333" stroke-width="2"/>
<path d="M249.503,261.656h 4.05236" fill="none" stroke="#cc3333" stroke-width="2"/>
<g fill="#0000ff">
<circle cx="247.311" cy="261.656" r="2.33785"/>
</g>
<path d="M259.799,293.342v -28.4787" fill="none" stroke="#cc3333" stroke-width="2"/>
<path d="M259.799,260.48v -28.4787" fill="none" stroke="#cc3333" stroke-width="2"/>
<path d="M253.555,262.672h 4.05236" fill="none" stroke="#cc3333" stroke-width="2"/>
<path d="M261.991,262.672h 4.05236" fill="none" stroke="#cc3333" stroke-width="2"/>
<g fill="#0000ff">
<circle cx="259.799" cy="262.672" r="2.33785"/>
</g>
<path d="M272.287,293.342v -24.4439" fill="none" stroke="#cc3333" stroke-width="2"/>
<path d="M272.287,264.515v -24.4439" fill="none" stroke="#cc3333" stroke-width="2"/>
<path d="M266.043,266.706h 4.05236" fill="none" stroke="#cc3333" stroke-width="2"/>
<path d="M274.479,266.706h 4.05236" fill="none" stroke="#cc3333" stroke-width="2"/>
<g fill="#0000ff">
<circle cx="272.287" cy="266.706" r="2.33785"/>
</g>
<path d="M284.776,293.342v -22.5442" fill="none" stroke="#cc3333" stroke-width="2"/>
<path d="M284.776,266.414v -22.5442" fill="none" stroke="#cc3333" stroke-width="2"/>
<path d="M278.531,268.606h 4.05236" fill="none" stroke="#cc3333" stroke-width="2"/>
<path d="M286.967,268.606h 4.05236" fill="none" stroke="#cc3333" stroke-width="2"/>
<g fill="#0000ff">
<circle cx="284.776" cy="268.606" r="2.33785"/>
</g>
<path d="M297.264,293.342v -20.1499" fill="none" stroke="#cc3333" stroke-width="2"/>
<path d="M297.264,268.809v -20.1499" fill="none" stroke="#cc3333" stroke-width="2"/>
<path d="M291.02,271h 4.05236" fill="none" stroke="#cc3333" stroke-width="2"/>
<path d="M299.456,271h 4.05236" fill="none" stroke="#cc3333" stroke-width="2"/>
<g fill="#0000ff">
<circle cx="297.264" cy="271" r="2.33785"/>
</g>
<path d="M309.752,293.342v -19.2402" fill="none" stroke="#cc3333" stroke-width="2"/>
<path d="M309.752,269.718v -19.2402" fill="none" stroke="#cc3333" stroke-width="2"/>
<path d="M303.508,271.91h 4.05236" fill="none" stroke="#cc3333" stroke-width="2"/>
<path d="M311.944,271.91h 4.05236" fill="none" stroke="#cc3333" stroke-width="2"/>
<g fill="#0000ff">
<circle cx="309.752" cy="271.91" r="2.33785"/>
</g>
<path d="M322.24,293.342v -17.9501" fill="none" stroke="#cc3333" stroke-width="2"/>
<path d="M322.24,271.008v -17.9501" fill="none" stroke="#cc3333" stroke-width="2"/>
<path d="M315.996,273.2h 4.05236" fill="none" stroke="#cc3333" stroke-width="2"/>
<path d="M324.432,273.2h 4.05236" fill="none" stroke="#cc3333" stroke-width="2"/>
<g fill="#0000ff">
<circle cx="322.24" cy="273.2" r="2.33785"/>
</g>
<path d="M334.728,293.342v -14.6864" fill="none" stroke="#cc3333" stroke-width="2"/>
<path d="M334.728,274.272v -14.6864" fill="none" stroke="#cc3333" stroke-width="2"/>
<path d="M328.484,276.464h 4.05236" fill="none" stroke="#cc3333" stroke-width="2"/>
<path d="M336.92,276.464h 4.05236" fill="none" stroke="#cc3333" stroke-width="2"/>
<g fill="#0000ff">
<circle cx="334.728" cy="276.464" r="2.33785"/>
</g>
<path d="M347.217,293.342v -13.4664" fill="none" stroke="#cc3333" stroke-width="2"/>
<path d="M347.217,275.492v -13.4664" fill="none" stroke="#cc3333" stroke-width="2"/>
<path d="M340.972,277.684h 4.05236" fill="none" stroke="#cc3333" stroke-width="2"/>
<path d="M349.408,277.684h 4.05236" fill="none" stroke="#cc3333" stroke-width="2"/>
<g fill="#0000ff">
<circle cx="347.217" cy="277.684" r="2.33785"/>
</g>
<path d="M359.705,293.342v -13.3196" fill="none" stroke="#cc3333" stroke-width="2"/>
<path d="M359.705,275.639v -13.3196" fill="none" stroke="#cc3333" stroke-width="2"/>
<path d="M353.461,277.831h 4.05236" fill="none" stroke="#cc3333" stroke-width="2"/>
<path d="M361.896,277.831h 4.05236" fill="none" stroke="#cc3333" stroke-width="2"/>
<g fill="#0000ff">
<circle cx="359.705" cy="277.831" r="2.33785"/>
</g>
<path d="M372.193,293.342v -8.66951" fill="none" stroke="#cc3333" stroke-width="2"/>
<path d="M372.193,280.289v -8.66951" fill="none" stroke="#cc3333" stroke-width="2"/>
<path d="M365.949,282.481h 4.05236" fill="none" stroke="#cc3333" stroke-width="2"/>
<path d="M374.385,282.481h 4.05236" fill="none" stroke="#cc3333" stroke-width="2"/>
<g fill="#0000ff">
<circle cx="372.193" cy="282.481" r="2.33785"/>
</g>
<path d="M384.681,293.342v -8.1575" fill="none" stroke="#cc3333" stroke-width="2"/>
<path d="M384.681,280.801v -8.1575" fill="none" stroke="#cc3333" stroke-width="2"/>
<path d="M378.437,282.993h 4.05236" fill="none" stroke="#cc3333" stroke-width="2"/>
<path d="M386.873,282.993h 4.05236" fill="none" stroke="#cc3333" stroke-width="2"/>
<g fill="#0000ff">
<circle cx="384.681" cy="282.993" r="2.33785"/>
</g>
<path d="M397.169,293.342v -7.78094" fill="none" stroke="#cc3333" stroke-width="2"/>
<path d="M397.169,281.178v -7.78094" fill="none" stroke="#cc3333" stroke-width="2"/>
<path d="M390.925,283.369h 4.05236" fill="none" stroke="#cc3333" stroke-width="2"/>
<path d="M399.361,283.369h 4.05236" fill="none" stroke="#cc3333" stroke-width="2"/>
<g fill="#0000ff">
<circle cx="397.169" cy="283.369" r="2.33785"/>
</g>
<path d="M409.657,293.342v -7.72426" fill="none" stroke="#cc3333" stroke-width="2"/>
<path d="M409.657,281.234v -7.72426" fill="none" stroke="#cc3333" stroke-width="2"/>
<path d="M403.413,283.426h 4.05236" fill="none" stroke="#cc3333" stroke-width="2"/>
<path d="M411.849,283.426h 4.05236" fill="none" stroke="#cc3333" stroke-width="2"/>
<g fill="#0000ff">
<circle cx="409.657" cy="283.426" r="2.33785"/>
</g>
<path d="M422.146,293.342v -5.93583" fill="none" stroke="#cc3333" stroke-width="2"/>
<path d="M422.146,283.023v -5.93583" fill="none" stroke="#cc3333" stroke-width="2"/>
<path d="M415.902,285.214h 4.05236" fill="none" stroke="#cc3333" stroke-width="2"/>
<path d="M424.337,285.214h 4.05236" fill="none" stroke="#cc3333" stroke-width="2"/>
<g fill="#0000ff">
<circle cx="422.146" cy="285.214" r="2.33785"/>
</g>
<path d="M434.634,293.342v -5.13972" fill="none" stroke="#cc3333" stroke-width="2"/>
<path d="M434.634,283.819v -5.13972" fill="none" stroke="#cc3333" stroke-width="2"/>
<path d="M428.39,286.011h 4.05236" fill="none" stroke="#cc3333" stroke-width="2"/>
<path d="M436.826,286.011h 4.05236" fill="none" stroke="#cc3333" stroke-width="2"/>
<g fill="#0000ff">
<circle cx="434.634" cy="286.011" r="2.33785"/>
</g>
<path d="M447.122,293.342v -4.71224" fill="none" stroke="#cc3333" stroke-width="2"/>
<path d="M447.122,284.246v -4.71224" fill="none" stroke="#cc3333" stroke-width="2"/>
<path d="M440.878,286.438h 4.05236" fill="none" stroke="#cc3333" stroke-width="2"/>
<path d="M449.314,286.438h 4.05236" fill="none" stroke="#cc3333" stroke-width="2"/>
<g fill="#0000ff">
<circle cx="447.122" cy="286.438" r="2.33785"/>
</g>
<path d="M459.61,293.342v -0.0296973" fill="none" stroke="#cc3333" stroke-width="2"/>
<path d="M459.61,288.929v -0.0296973" fill="none" stroke="#cc3333" stroke-width="2"/>
<path d="M453.366,291.121h 4.05236" fill="none" stroke="#cc3333" stroke-width="2"/>
<path d="M461.802,291.121h 4.05236" fill="none" stroke="#cc3333" stroke-width="2"/>
<g fill="#0000ff">
<circle cx="459.61" cy="291.121" r="2.33785"/>
</g>
<path d="M465.854,292.721h 4.05236" fill="none" stroke="#cc3333" stroke-width="2"/>
<path d="M474.29,292.721h 4.05236" fill="none" stroke="#cc3333" stroke-width="2"/>
<g fill="#0000ff">
<circle cx="472.098" cy="292.721" r="2.33785"/>
</g>
<path d="M478.343,293.23h 4.05236" fill="none" stroke="#cc3333" stroke-width="2"/>
<path d="M486.778,293.23h 4.05236" fill="none" stroke="#cc3333" stroke-width="2"/>
<g fill="#0000ff">
<circle cx="484.587" cy="293.23" r="2.33785"/>
</g>
<path d="M490.831,293.266h 4.05236" fill="none" stroke="#cc3333" stroke-width="2"/>
<path d="M499.267,293.266h 4.05236" fill="none" stroke="#cc3333" stroke-width="2"/>
<g fill="#0000ff">
<circle cx="497.075" cy="293.266" r="2.33785"/>
</g>
<path d="M503.319,293.304h 4.05236" fill="none" stroke="#cc3333" stroke-width="2"/>
<path d="M511.755,293.304h 4.05236" fill="none" stroke="#cc3333" stroke-width="2"/>
<g fill="#0000ff">
<circle cx="509.563" cy="293.304" r="2.33785"/>
</g>
<path d="M515.807,293.327h 4.05236" fill="none" stroke="#cc3333" stroke-width="2"/>
<path d="M524.243,293.327h 4.05236" fill="none" stroke="#cc3333" stroke-width="2"/>
<g fill="#0000ff">
<circle cx="522.051" cy="293.327" r="2.33785"/>
</g>
<path d="M528.295,293.342h 4.05236" fill="none" stroke="#cc3333" stroke-width="2"/>
<path d="M536.731,293.342h 4.05236" fill="none" stroke="#cc3333" stroke-width="2"/>
<g fill="#0000ff">
<circle cx="534.539" cy="293.342" r="2.33785"/>
</g>
<path d="M91.2087,293.342h 449.575" fill="none" stroke="black"/>
<g transform="rotate(20,96.2058,299.537)">
<text xml:space="preserve" x="96.2058" y="299.537" fill="black" font-size="6.90758" font-family="Helvetica">france
</text>
</g>
<g transform="rotate(20,108.626,299.537)">
<text xml:space="preserve" x="108.626" y="299.537" fill="black" font-size="6.90758" font-family="Helvetica">spain
</text>
</g>
<g transform="rotate(20,121.046,299.537)">
<text xml:space="preserve" x="121.046" y="299.537" fill="black" font-size="6.90758" font-family="Helvetica">sweden
</text>
</g>
<g transform="rotate(20,134.196,298.807)">
<text xml:space="preserve" x="134.196" y="298.807" fill="black" font-size="6.90758" font-family="Helvetica">germany
</text>
</g>
<g transform="rotate(20,145.885,299.537)">
<text xml:space="preserve" x="145.885" y="299.537" fill="black" font-size="6.90758" font-family="Helvetica">finland
</text>
</g>
<g transform="rotate(20,159.036,298.807)">
<text xml:space="preserve" x="159.036" y="298.807" fill="black" font-size="6.90758" font-family="Helvetica">norway
</text>
</g>
<g transform="rotate(20,170.725,299.537)">
<text xml:space="preserve" x="170.725" y="299.537" fill="black" font-size="6.90758" font-family="Helvetica">poland
</text>
</g>
<g transform="rotate(20,183.145,299.537)">
<text xml:space="preserve" x="183.145" y="299.537" fill="black" font-size="6.90758" font-family="Helvetica">italy
</text>
</g>
<g transform="rotate(20,195.565,299.537)">
<text xml:space="preserve" x="195.565" y="299.537" fill="black" font-size="6.90758" font-family="Helvetica">yugoslavia
</text>
</g>
<g transform="rotate(20,208.715,299.537)">
<text xml:space="preserve" x="208.715" y="299.537" fill="black" font-size="6.90758" font-family="Helvetica">united_kingdom
</text>
</g>
<g transform="rotate(20,221.135,299.537)">
<text xml:space="preserve" x="221.135" y="299.537" fill="black" font-size="6.90758" font-family="Helvetica">romania
</text>
</g>
<g transform="rotate(20,233.555,299.537)">
<text xml:space="preserve" x="233.555" y="299.537" fill="black" font-size="6.90758" font-family="Helvetica">belarus
</text>
</g>
<g transform="rotate(20,246.705,298.807)">
<text xml:space="preserve" x="246.705" y="298.807" fill="black" font-size="6.90758" font-family="Helvetica">greece
</text>
</g>
<g transform="rotate(20,258.394,299.537)">
<text xml:space="preserve" x="258.394" y="299.537" fill="black" font-size="6.90758" font-family="Helvetica">czechoslovakia
</text>
</g>
<g transform="rotate(20,270.814,299.537)">
<text xml:space="preserve" x="270.814" y="299.537" fill="black" font-size="6.90758" font-family="Helvetica">bulgaria
</text>
</g>
<g transform="rotate(20,283.234,299.537)">
<text xml:space="preserve" x="283.234" y="299.537" fill="black" font-size="6.90758" font-family="Helvetica">iceland
</text>
</g>
<g transform="rotate(20,295.654,299.537)">
<text xml:space="preserve" x="295.654" y="299.537" fill="black" font-size="6.90758" font-family="Helvetica">hungary
</text>
</g>
<g transform="rotate(20,308.074,299.537)">
<text xml:space="preserve" x="308.074" y="299.537" fill="black" font-size="6.90758" font-family="Helvetica">portugal
</text>
</g>
<g transform="rotate(20,320.493,299.537)">
<text xml:space="preserve" x="320.493" y="299.537" fill="black" font-size="6.90758" font-family="Helvetica">austria
</text>
</g>
<g transform="rotate(20,332.913,299.537)">
<text xml:space="preserve" x="332.913" y="299.537" fill="black" font-size="6.90758" font-family="Helvetica">ireland
</text>
</g>
<g transform="rotate(20,346.064,299.537)">
<text xml:space="preserve" x="346.064" y="299.537" fill="black" font-size="6.90758" font-family="Helvetica">lithuania
</text>
</g>
<g transform="rotate(20,358.484,299.537)">
<text xml:space="preserve" x="358.484" y="299.537" fill="black" font-size="6.90758" font-family="Helvetica">latvia
</text>
</g>
<g transform="rotate(20,370.903,299.537)">
<text xml:space="preserve" x="370.903" y="299.537" fill="black" font-size="6.90758" font-family="Helvetica">estonia
</text>
</g>
<g transform="rotate(20,383.323,299.537)">
<text xml:space="preserve" x="383.323" y="299.537" fill="black" font-size="6.90758" font-family="Helvetica">denmark
</text>
</g>
<g transform="rotate(20,395.743,299.537)">
<text xml:space="preserve" x="395.743" y="299.537" fill="black" font-size="6.90758" font-family="Helvetica">netherlands
</text>
</g>
<g transform="rotate(20,408.163,299.537)">
<text xml:space="preserve" x="408.163" y="299.537" fill="black" font-size="6.90758" font-family="Helvetica">switzerland
</text>
</g>
<g transform="rotate(20,420.583,299.537)">
<text xml:space="preserve" x="420.583" y="299.537" fill="black" font-size="6.90758" font-family="Helvetica">moldova
</text>
</g>
<g transform="rotate(20,433.003,299.537)">
<text xml:space="preserve" x="433.003" y="299.537" fill="black" font-size="6.90758" font-family="Helvetica">belgium
</text>
</g>
<g transform="rotate(20,445.422,299.537)">
<text xml:space="preserve" x="445.422" y="299.537" fill="black" font-size="6.90758" font-family="Helvetica">albania
</text>
</g>
<g transform="rotate(20,458.573,298.807)">
<text xml:space="preserve" x="458.573" y="298.807" fill="black" font-size="6.90758" font-family="Helvetica">cyprus
</text>
</g>
<g transform="rotate(20,470.993,299.537)">
<text xml:space="preserve" x="470.993" y="299.537" fill="black" font-size="6.90758" font-family="Helvetica">luxembourg
</text>
</g>
<g transform="rotate(20,483.413,299.537)">
<text xml:space="preserve" x="483.413" y="299.537" fill="black" font-size="6.90758" font-family="Helvetica">andorra
</text>
</g>
<g transform="rotate(20,495.832,299.537)">
<text xml:space="preserve" x="495.832" y="299.537" fill="black" font-size="6.90758" font-family="Helvetica">malta
</text>
</g>
<g transform="rotate(20,508.252,299.537)">
<text xml:space="preserve" x="508.252" y="299.537" fill="black" font-size="6.90758" font-family="Helvetica">liechtenstein
</text>
</g>
<g transform="rotate(20,520.672,299.537)">
<text xml:space="preserve" x="520.672" y="299.537" fill="black" font-size="6.90758" font-family="Helvetica">san_marino
</text>
</g>
<g transform="rotate(20,533.092,298.807)">
<text xml:space="preserve" x="533.092" y="298.807" fill="black" font-size="6.90758" font-family="Helvetica">monaco
</text>
</g>
<path d="M91.2087,285.034v 8.30786" fill="none" stroke="black"/>
<path d="M103.697,285.034v 8.30786" fill="none" stroke="black"/>
<path d="M116.185,285.034v 8.30786" fill="none" stroke="black"/>
<path d="M128.673,285.034v 8.30786" fill="none" stroke="black"/>
<path d="M141.161,285.034v 8.30786" fill="none" stroke="black"/>
<path d="M153.65,285.034v 8.30786" fill="none" stroke="black"/>
<path d="M166.138,285.034v 8.30786" fill="none" stroke="black"/>
<path d="M178.626,285.034v 8.30786" fill="none" stroke="black"/>
<path d="M191.114,285.034v 8.30786" fill="none" stroke="black"/>
<path d="M203.602,285.034v 8.30786" fill="none" stroke="black"/>
<path d="M216.091,285.034v 8.30786" fill="none" stroke="black"/>
<path d="M228.579,285.034v 8.30786" fill="none" stroke="black"/>
<path d="M241.067,285.034v 8.30786" fill="none" stroke="black"/>
<path d="M253.555,285.034v 8.30786" fill="none" stroke="black"/>
<path d="M266.043,285.034v 8.30786" fill="none" stroke="black"/>
<path d="M278.531,285.034v 8.30786" fill="none" stroke="black"/>
<path d="M291.02,285.034v 8.30786" fill="none" stroke="black"/>
<path d="M303.508,285.034v 8.30786" fill="none" stroke="black"/>
<path d="M315.996,285.034v 8.30786" fill="none" stroke="black"/>
<path d="M328.484,285.034v 8.30786" fill="none" stroke="black"/>
<path d="M340.972,285.034v 8.30786" fill="none" stroke="black"/>
<path d="M353.461,285.034v 8.30786" fill="none" stroke="black"/>
<path d="M365.949,285.034v 8.30786" fill="none" stroke="black"/>
<path d="M378.437,285.034v 8.30786" fill="none" stroke="black"/>
<path d="M390.925,285.034v 8.30786" fill="none" stroke="black"/>
<path d="M403.413,285.034v 8.30786" fill="none" stroke="black"/>
<path d="M415.902,285.034v 8.30786" fill="none" stroke="black"/>
<path d="M428.39,285.034v 8.30786" fill="none" stroke="black"/>
<path d="M440.878,285.034v 8.30786" fill="none" stroke="black"/>
<path d="M453.366,285.034v 8.30786" fill="none" stroke="black"/>
<path d="M465.854,285.034v 8.30786" fill="none" stroke="black"/>
<path d="M478.343,285.034v 8.30786" fill="none" stroke="black"/>
<path d="M490.831,285.034v 8.30786" fill="none" stroke="black"/>
<path d="M503.319,285.034v 8.30786" fill="none" stroke="black"/>
<path d="M515.807,285.034v 8.30786" fill="none" stroke="black"/>
<path d="M528.295,285.034v 8.30786" fill="none" stroke="black"/>
<path d="M540.783,285.034v 8.30786" fill="none" stroke="black"/>
<path d="M91.2087,17.4608h 449.575" fill="none" stroke="black"/>
<path d="M91.2087,25.7687v -8.30786" fill="none" stroke="black"/>
<path d="M103.697,25.7687v -8.30786" fill="none" stroke="black"/>
<path d="M116.185,25.7687v -8.30786" fill="none" stroke="black"/>
<path d="M128.673,25.7687v -8.30786" fill="none" stroke="black"/>
<path d="M141.161,25.7687v -8.30786" fill="none" stroke="black"/>
<path d="M153.65,25.7687v -8.30786" fill="none" stroke="black"/>
<path d="M166.138,25.7687v -8.30786" fill="none" stroke="black"/>
<path d="M178.626,25.7687v -8.30786" fill="none" stroke="black"/>
<path d="M191.114,25.7687v -8.30786" fill="none" stroke="black"/>
<path d="M203.602,25.7687v -8.30786" fill="none" stroke="black"/>
<path d="M216.091,25.7687v -8.30786" fill="none" stroke="black"/>
<path d="M228.579,25.7687v -8.30786" fill="none" stroke="black"/>
<path d="M241.067,25.7687v -8.30786" fill="none" stroke="black"/>
<path d="M253.555,25.7687v -8.30786" fill="none" stroke="black"/>
<path d="M266.043,25.7687v -8.30786" fill="none" stroke="black"/>
<path d="M278.531,25.7687v -8.30786" fill="none" stroke="black"/>
<path d="M291.02,25.7687v -8.30786" fill="none" stroke="black"/>
<path d="M303.508,25.7687v -8.30786" fill="none" stroke="black"/>
<path d="M315.996,25.7687v -8.30786" fill="none" stroke="black"/>
<path d="M328.484,25.7687v -8.30786" fill="none" stroke="black"/>
<path d="M340.972,25.7687v -8.30786" fill="none" stroke="black"/>
<path d="M353.461,25.7687v -8.30786" fill="none" stroke="black"/>
<path d="M365.949,25.7687v -8.30786" fill="none" stroke="black"/>
<path d="M378.437,25.7687v -8.30786" fill="none" stroke="black"/>
<path d="M390.925,25.7687v -8.30786" fill="none" stroke="black"/>
<path d="M403.413,25.7687v -8.30786" fill="none" stroke="black"/>
<path d="M415.902,25.7687v -8.30786" fill="none" stroke="black"/>
<path d="M428.39,25.7687v -8.30786" fill="none" stroke="black"/>
<path d="M440.878,25.7687v -8.30786" fill="none" stroke="black"/>
<path d="M453.366,25.7687v -8.30786" fill="none" stroke="black"/>
<path d="M465.854,25.7687v -8.30786" fill="none" stroke="black"/>
<path d="M478.343,25.7687v -8.30786" fill="none" stroke="black"/>
<path d="M490.831,25.7687v -8.30786" fill="none" stroke="black"/>
<path d="M503.319,25.7687v -8.30786" fill="none" stroke="black"/>
<path d="M515.807,25.7687v -8.30786" fill="none" stroke="black"/>
<path d="M528.295,25.7687v -8.30786" fill="none" stroke="black"/>
<path d="M540.783,25.7687v -8.30786" fill="none" stroke="black"/>
<path d="M91.2087,293.342v -275.881" fill="none" stroke="black"/>
<path d="M104.645,293.342h -13.4362" fill="none" stroke="black"/>
<path d="M97.9268,281.334h -6.71811" fill="none" stroke="black"/>
<path d="M97.9268,269.327h -6.71811" fill="none" stroke="black"/>
<path d="M97.9268,257.319h -6.71811" fill="none" stroke="black"/>
<path d="M104.645,245.311h -13.4362" fill="none" stroke="black"/>
<path d="M97.9268,233.303h -6.71811" fill="none" stroke="black"/>
<path d="M97.9268,221.296h -6.71811" fill="none" stroke="black"/>
<path d="M97.9268,209.288h -6.71811" fill="none" stroke="black"/>
<path d="M104.645,197.28h -13.4362" fill="none" stroke="black"/>
<path d="M97.9268,185.272h -6.71811" fill="none" stroke="black"/>
<path d="M97.9268,173.264h -6.71811" fill="none" stroke="black"/>
<path d="M97.9268,161.257h -6.71811" fill="none" stroke="black"/>
<path d="M104.645,149.249h -13.4362" fill="none" stroke="black"/>
<path d="M97.9268,137.241h -6.71811" fill="none" stroke="black"/>
<path d="M97.9268,125.234h -6.71811" fill="none" stroke="black"/>
<path d="M97.9268,113.226h -6.71811" fill="none" stroke="black"/>
<path d="M104.645,101.218h -13.4362" fill="none" stroke="black"/>
<path d="M97.9268,89.2103h -6.71811" fill="none" stroke="black"/>
<path d="M97.9268,77.2025h -6.71811" fill="none" stroke="black"/>
<path d="M97.9268,65.1948h -6.71811" fill="none" stroke="black"/>
<path d="M104.645,53.187h -13.4362" fill="none" stroke="black"/>
<path d="M104.645,53.187h -13.4362" fill="none" stroke="black"/>
<path d="M97.9268,41.1793h -6.71811" fill="none" stroke="black"/>
<path d="M97.9268,29.1715h -6.71811" fill="none" stroke="black"/>
<text xml:space="preserve" x="79.4025" y="299.537" fill="black" font-size="16.5191" font-family="Helvetica">0
</text>
<text xml:space="preserve" x="61.8686" y="251.319" fill="black" font-size="16.5191" font-family="Helvetica">200
</text>
<text xml:space="preserve" x="61.8686" y="203.101" fill="black" font-size="16.5191" font-family="Helvetica">400
</text>
<text xml:space="preserve" x="61.8686" y="154.883" fill="black" font-size="16.5191" font-family="Helvetica">600
</text>
<text xml:space="preserve" x="61.8686" y="107.395" fill="black" font-size="16.5191" font-family="Helvetica">800
</text>
<text xml:space="preserve" x="53.1017" y="59.1769" fill="black" font-size="16.5191" font-family="Helvetica">1000
</text>
<text xml:space="preserve" x="117.393" y="8.03637" fill="black" font-size="11.1794" font-family="Helvetica">3
</text>
<text xml:space="preserve" x="99.8587" y="16.0727" fill="black" font-size="16.5191" font-family="Helvetica">10
</text>
<text xml:space="preserve" x="91.0918" y="16.0727" fill="black" font-size="16.5191" font-family="Times">&#0215;
</text>
<path d="M540.783,293.342v -275.881" fill="none" stroke="black"/>
<path d="M527.347,293.342h 13.4362" fill="none" stroke="black"/>
<path d="M534.065,281.334h 6.71811" fill="none" stroke="black"/>
<path d="M534.065,269.327h 6.71811" fill="none" stroke="black"/>
<path d="M534.065,257.319h 6.71811" fill="none" stroke="black"/>
<path d="M527.347,245.311h 13.4362" fill="none" stroke="black"/>
<path d="M534.065,233.303h 6.71811" fill="none" stroke="black"/>
<path d="M534.065,221.296h 6.71811" fill="none" stroke="black"/>
<path d="M534.065,209.288h 6.71811" fill="none" stroke="black"/>
<path d="M527.347,197.28h 13.4362" fill="none" stroke="black"/>
<path d="M534.065,185.272h 6.71811" fill="none" stroke="black"/>
<path d="M534.065,173.264h 6.71811" fill="none" stroke="black"/>
<path d="M534.065,161.257h 6.71811" fill="none" stroke="black"/>
<path d="M527.347,149.249h 13.4362" fill="none" stroke="black"/>
<path d="M534.065,137.241h 6.71811" fill="none" stroke="black"/>
<path d="M534.065,125.234h 6.71811" fill="none" stroke="black"/>
<path d="M534.065,113.226h 6.71811" fill="none" stroke="black"/>
<path d="M527.347,101.218h 13.4362" fill="none" stroke="black"/>
<path d="M534.065,89.2103h 6.71811" fill="none" stroke="black"/>
<path d="M534.065,77.2025h 6.71811" fill="none" stroke="black"/>
<path d="M534.065,65.1948h 6.71811" fill="none" stroke="black"/>
<path d="M527.347,53.187h 13.4362" fill="none" stroke="black"/>
<path d="M527.347,53.187h 13.4362" fill="none" stroke="black"/>
<path d="M534.065,41.1793h 6.71811" fill="none" stroke="black"/>
<path d="M534.065,29.1715h 6.71811" fill="none" stroke="black"/>
<path d="M97.4528,170.331v -6.16928" fill="none" stroke="black" stroke-width="2"/>
<path d="M97.4528,159.778v -6.16928" fill="none" stroke="black" stroke-width="2"/>
<path d="M91.2087,161.97h 4.05236" fill="none" stroke="black" stroke-width="2"/>
<path d="M99.6445,161.97h 4.05236" fill="none" stroke="black" stroke-width="2"/>
<g fill="black">
<circle cx="97.4528" cy="161.97" r="2.33785"/>
</g>
<path d="M109.941,176.482v -5.73236" fill="none" stroke="black" stroke-width="2"/>
<path d="M109.941,166.367v -5.73236" fill="none" stroke="black" stroke-width="2"/>
<path d="M103.697,168.558h 4.05236" fill="none" stroke="black" stroke-width="2"/>
<path d="M112.133,168.558h 4.05236" fill="none" stroke="black" stroke-width="2"/>
<g fill="black">
<circle cx="109.941" cy="168.558" r="2.33785"/>
</g>
<path d="M122.429,188.211v -4.75952" fill="none" stroke="black" stroke-width="2"/>
<path d="M122.429,179.068v -4.75952" fill="none" stroke="black" stroke-width="2"/>
<path d="M116.185,181.259h 4.05236" fill="none" stroke="black" stroke-width="2"/>
<path d="M124.621,181.259h 4.05236" fill="none" stroke="black" stroke-width="2"/>
<g fill="black">
<circle cx="122.429" cy="181.259" r="2.33785"/>
</g>
<path d="M134.917,213.95v -4.66729" fill="none" stroke="black" stroke-width="2"/>
<path d="M134.917,204.899v -4.66729" fill="none" stroke="black" stroke-width="2"/>
<path d="M128.673,207.091h 4.05236" fill="none" stroke="black" stroke-width="2"/>
<path d="M137.109,207.091h 4.05236" fill="none" stroke="black" stroke-width="2"/>
<g fill="black">
<circle cx="134.917" cy="207.091" r="2.33785"/>
</g>
<path d="M147.406,215.856v -4.29981" fill="none" stroke="black" stroke-width="2"/>
<path d="M147.406,207.172v -4.29981" fill="none" stroke="black" stroke-width="2"/>
<path d="M141.161,209.364h 4.05236" fill="none" stroke="black" stroke-width="2"/>
<path d="M149.597,209.364h 4.05236" fill="none" stroke="black" stroke-width="2"/>
<g fill="black">
<circle cx="147.406" cy="209.364" r="2.33785"/>
</g>
<path d="M159.894,224.627v -4.31331" fill="none" stroke="black" stroke-width="2"/>
<path d="M159.894,215.93v -4.31331" fill="none" stroke="black" stroke-width="2"/>
<path d="M153.65,218.122h 4.05236" fill="none" stroke="black" stroke-width="2"/>
<path d="M162.085,218.122h 4.05236" fill="none" stroke="black" stroke-width="2"/>
<g fill="black">
<circle cx="159.894" cy="218.122" r="2.33785"/>
</g>
<path d="M172.382,224.278v -4.27776" fill="none" stroke="black" stroke-width="2"/>
<path d="M172.382,215.617v -4.27776" fill="none" stroke="black" stroke-width="2"/>
<path d="M166.138,217.808h 4.05236" fill="none" stroke="black" stroke-width="2"/>
<path d="M174.574,217.808h 4.05236" fill="none" stroke="black" stroke-width="2"/>
<g fill="black">
<circle cx="172.382" cy="217.808" r="2.33785"/>
</g>
<path d="M184.87,224.531v -3.70719" fill="none" stroke="black" stroke-width="2"/>
<path d="M184.87,216.44v -3.70719" fill="none" stroke="black" stroke-width="2"/>
<path d="M178.626,218.632h 4.05236" fill="none" stroke="black" stroke-width="2"/>
<path d="M187.062,218.632h 4.05236" fill="none" stroke="black" stroke-width="2"/>
<g fill="black">
<circle cx="184.87" cy="218.632" r="2.33785"/>
</g>
<path d="M197.358,236.976v -3.55543" fill="none" stroke="black" stroke-width="2"/>
<path d="M197.358,229.037v -3.55543" fill="none" stroke="black" stroke-width="2"/>
<path d="M191.114,231.229h 4.05236" fill="none" stroke="black" stroke-width="2"/>
<path d="M199.55,231.229h 4.05236" fill="none" stroke="black" stroke-width="2"/>
<g fill="black">
<circle cx="197.358" cy="231.229" r="2.33785"/>
</g>
<path d="M209.846,240.083v -3.50774" fill="none" stroke="black" stroke-width="2"/>
<path d="M209.846,232.192v -3.50774" fill="none" stroke="black" stroke-width="2"/>
<path d="M203.602,234.384h 4.05236" fill="none" stroke="black" stroke-width="2"/>
<path d="M212.038,234.384h 4.05236" fill="none" stroke="black" stroke-width="2"/>
<g fill="black">
<circle cx="209.846" cy="234.384" r="2.33785"/>
</g>
<path d="M222.335,240.529v -2.97931" fill="none" stroke="black" stroke-width="2"/>
<path d="M222.335,233.166v -2.97931" fill="none" stroke="black" stroke-width="2"/>
<path d="M216.091,235.358h 4.05236" fill="none" stroke="black" stroke-width="2"/>
<path d="M224.526,235.358h 4.05236" fill="none" stroke="black" stroke-width="2"/>
<g fill="black">
<circle cx="222.335" cy="235.358" r="2.33785"/>
</g>
<path d="M234.823,249.937v -2.13354" fill="none" stroke="black" stroke-width="2"/>
<path d="M234.823,243.42v -2.13354" fill="none" stroke="black" stroke-width="2"/>
<path d="M228.579,245.611h 4.05236" fill="none" stroke="black" stroke-width="2"/>
<path d="M237.015,245.611h 4.05236" fill="none" stroke="black" stroke-width="2"/>
<g fill="black">
<circle cx="234.823" cy="245.611" r="2.33785"/>
</g>
<path d="M247.311,264.076v -1.93598" fill="none" stroke="black" stroke-width="2"/>
<path d="M247.311,257.756v -1.93598" fill="none" stroke="black" stroke-width="2"/>
<path d="M241.067,259.948h 4.05236" fill="none" stroke="black" stroke-width="2"/>
<path d="M249.503,259.948h 4.05236" fill="none" stroke="black" stroke-width="2"/>
<g fill="black">
<circle cx="247.311" cy="259.948" r="2.33785"/>
</g>
<path d="M259.799,266.861v -1.74006" fill="none" stroke="black" stroke-width="2"/>
<path d="M259.799,260.737v -1.74006" fill="none" stroke="black" stroke-width="2"/>
<path d="M253.555,262.929h 4.05236" fill="none" stroke="black" stroke-width="2"/>
<path d="M261.991,262.929h 4.05236" fill="none" stroke="black" stroke-width="2"/>
<g fill="black">
<circle cx="259.799" cy="262.929" r="2.33785"/>
</g>
<path d="M272.287,269.567v -1.62772" fill="none" stroke="black" stroke-width="2"/>
<path d="M272.287,263.556v -1.62772" fill="none" stroke="black" stroke-width="2"/>
<path d="M266.043,265.748h 4.05236" fill="none" stroke="black" stroke-width="2"/>
<path d="M274.479,265.748h 4.05236" fill="none" stroke="black" stroke-width="2"/>
<g fill="black">
<circle cx="272.287" cy="265.748" r="2.33785"/>
</g>
<path d="M284.776,270.818v -1.32478" fill="none" stroke="black" stroke-width="2"/>
<path d="M284.776,265.11v -1.32478" fill="none" stroke="black" stroke-width="2"/>
<path d="M278.531,267.302h 4.05236" fill="none" stroke="black" stroke-width="2"/>
<path d="M286.967,267.302h 4.05236" fill="none" stroke="black" stroke-width="2"/>
<g fill="black">
<circle cx="284.776" cy="267.302" r="2.33785"/>
</g>
<path d="M297.264,274.743v -1.28296" fill="none" stroke="black" stroke-width="2"/>
<path d="M297.264,269.077v -1.28296" fill="none" stroke="black" stroke-width="2"/>
<path d="M291.02,271.269h 4.05236" fill="none" stroke="black" stroke-width="2"/>
<path d="M299.456,271.269h 4.05236" fill="none" stroke="black" stroke-width="2"/>
<g fill="black">
<circle cx="297.264" cy="271.269" r="2.33785"/>
</g>
<path d="M309.752,275.198v -1.21592" fill="none" stroke="black" stroke-width="2"/>
<path d="M309.752,269.599v -1.21592" fill="none" stroke="black" stroke-width="2"/>
<path d="M303.508,271.791h 4.05236" fill="none" stroke="black" stroke-width="2"/>
<path d="M311.944,271.791h 4.05236" fill="none" stroke="black" stroke-width="2"/>
<g fill="black">
<circle cx="309.752" cy="271.791" r="2.33785"/>
</g>
<path d="M322.24,275.722v -0.915705" fill="none" stroke="black" stroke-width="2"/>
<path d="M322.24,270.423v -0.915705" fill="none" stroke="black" stroke-width="2"/>
<path d="M315.996,272.614h 4.05236" fill="none" stroke="black" stroke-width="2"/>
<path d="M324.432,272.614h 4.05236" fill="none" stroke="black" stroke-width="2"/>
<g fill="black">
<circle cx="322.24" cy="272.614" r="2.33785"/>
</g>
<path d="M334.728,279.041v -0.74365" fill="none" stroke="black" stroke-width="2"/>
<path d="M334.728,273.914v -0.74365" fill="none" stroke="black" stroke-width="2"/>
<path d="M328.484,276.106h 4.05236" fill="none" stroke="black" stroke-width="2"/>
<path d="M336.92,276.106h 4.05236" fill="none" stroke="black" stroke-width="2"/>
<g fill="black">
<circle cx="334.728" cy="276.106" r="2.33785"/>
</g>
<path d="M347.217,280.895v -0.741435" fill="none" stroke="black" stroke-width="2"/>
<path d="M347.217,275.77v -0.741435" fill="none" stroke="black" stroke-width="2"/>
<path d="M340.972,277.962h 4.05236" fill="none" stroke="black" stroke-width="2"/>
<path d="M349.408,277.962h 4.05236" fill="none" stroke="black" stroke-width="2"/>
<g fill="black">
<circle cx="347.217" cy="277.962" r="2.33785"/>
</g>
<path d="M359.705,280.458v -0.28106" fill="none" stroke="black" stroke-width="2"/>
<path d="M359.705,275.793v -0.28106" fill="none" stroke="black" stroke-width="2"/>
<path d="M353.461,277.985h 4.05236" fill="none" stroke="black" stroke-width="2"/>
<path d="M361.896,277.985h 4.05236" fill="none" stroke="black" stroke-width="2"/>
<g fill="black">
<circle cx="359.705" cy="277.985" r="2.33785"/>
</g>
<path d="M372.193,284.872v -0.253312" fill="none" stroke="black" stroke-width="2"/>
<path d="M372.193,280.235v -0.253312" fill="none" stroke="black" stroke-width="2"/>
<path d="M365.949,282.427h 4.05236" fill="none" stroke="black" stroke-width="2"/>
<path d="M374.385,282.427h 4.05236" fill="none" stroke="black" stroke-width="2"/>
<g fill="black">
<circle cx="372.193" cy="282.427" r="2.33785"/>
</g>
<path d="M384.681,284.931v -0.0682445" fill="none" stroke="black" stroke-width="2"/>
<path d="M384.681,280.479v -0.0682445" fill="none" stroke="black" stroke-width="2"/>
<path d="M378.437,282.671h 4.05236" fill="none" stroke="black" stroke-width="2"/>
<path d="M386.873,282.671h 4.05236" fill="none" stroke="black" stroke-width="2"/>
<g fill="black">
<circle cx="384.681" cy="282.671" r="2.33785"/>
</g>
<path d="M397.169,286.641v -0.223901" fill="none" stroke="black" stroke-width="2"/>
<path d="M397.169,282.033v -0.223901" fill="none" stroke="black" stroke-width="2"/>
<path d="M390.925,284.225h 4.05236" fill="none" stroke="black" stroke-width="2"/>
<path d="M399.361,284.225h 4.05236" fill="none" stroke="black" stroke-width="2"/>
<g fill="black">
<circle cx="397.169" cy="284.225" r="2.33785"/>
</g>
<path d="M409.657,285.131v -0.0129372" fill="none" stroke="black" stroke-width="2"/>
<path d="M409.657,280.734v -0.0129372" fill="none" stroke="black" stroke-width="2"/>
<path d="M403.413,282.926h 4.05236" fill="none" stroke="black" stroke-width="2"/>
<path d="M411.849,282.926h 4.05236" fill="none" stroke="black" stroke-width="2"/>
<g fill="black">
<circle cx="409.657" cy="282.926" r="2.33785"/>
</g>
<path d="M415.902,284.666h 4.05236" fill="none" stroke="black" stroke-width="2"/>
<path d="M424.337,284.666h 4.05236" fill="none" stroke="black" stroke-width="2"/>
<g fill="black">
<circle cx="422.146" cy="284.666" r="2.33785"/>
</g>
<path d="M428.39,285.745h 4.05236" fill="none" stroke="black" stroke-width="2"/>
<path d="M436.826,285.745h 4.05236" fill="none" stroke="black" stroke-width="2"/>
<g fill="black">
<circle cx="434.634" cy="285.745" r="2.33785"/>
</g>
<path d="M440.878,286.151h 4.05236" fill="none" stroke="black" stroke-width="2"/>
<path d="M449.314,286.151h 4.05236" fill="none" stroke="black" stroke-width="2"/>
<g fill="black">
<circle cx="447.122" cy="286.151" r="2.33785"/>
</g>
<path d="M453.366,290.953h 4.05236" fill="none" stroke="black" stroke-width="2"/>
<path d="M461.802,290.953h 4.05236" fill="none" stroke="black" stroke-width="2"/>
<g fill="black">
<circle cx="459.61" cy="290.953" r="2.33785"/>
</g>
<path d="M465.854,292.6h 4.05236" fill="none" stroke="black" stroke-width="2"/>
<path d="M474.29,292.6h 4.05236" fill="none" stroke="black" stroke-width="2"/>
<g fill="black">
<circle cx="472.098" cy="292.6" r="2.33785"/>
</g>
<path d="M478.343,293.203h 4.05236" fill="none" stroke="black" stroke-width="2"/>
<path d="M486.778,293.203h 4.05236" fill="none" stroke="black" stroke-width="2"/>
<g fill="black">
<circle cx="484.587" cy="293.203" r="2.33785"/>
</g>
<path d="M490.831,293.307h 4.05236" fill="none" stroke="black" stroke-width="2"/>
<path d="M499.267,293.307h 4.05236" fill="none" stroke="black" stroke-width="2"/>
<g fill="black">
<circle cx="497.075" cy="293.307" r="2.33785"/>
</g>
<path d="M503.319,293.319h 4.05236" fill="none" stroke="black" stroke-width="2"/>
<path d="M511.755,293.319h 4.05236" fill="none" stroke="black" stroke-width="2"/>
<g fill="black">
<circle cx="509.563" cy="293.319" r="2.33785"/>
</g>
<rect x="283.965" y="69.8433" width="238.11" height="45.3982" fill="white"/>
<path d="M288.348,115.242v 2.92232h 236.649v -43.937h -2.92232v 41.0147z" fill="black"/>
<path d="M283.965,115.242v -45.3982h 238.11v 45.3982h -238.11z" fill="none" stroke="black"/>
<text xml:space="preserve" x="508.983" y="84.0166" fill="black" font-size="8.50956" font-family="Helvetica">)
</text>
<text xml:space="preserve" x="506.061" y="80.3637" fill="black" font-size="5.8397" font-family="Helvetica">2
</text>
<text xml:space="preserve" x="343.141" y="84.0166" fill="black" font-size="8.50956" font-family="Helvetica">Real countries surfaces from Wikipedia (in km
</text>
<path d="M292.894,81.1929h 41.6693" fill="none" stroke="#cc3333" stroke-width="2"/>
<g fill="#0000ff">
<circle cx="313.728" cy="81.1929" r="2.33785"/>
</g>
<text xml:space="preserve" x="343.141" y="106.665" fill="black" font-size="8.50956" font-family="Helvetica">Countries surfaces from TH2Poly (with errors)
</text>
<path d="M292.894,103.892h 41.6693" fill="none" stroke="black" stroke-width="2"/>
<g fill="black">
<circle cx="313.728" cy="103.892" r="2.33785"/>
</g>
<rect x="283.965" y="69.8433" width="238.11" height="45.3982" fill="white"/>
<path d="M288.348,115.242v 2.92232h 236.649v -43.937h -2.92232v 41.0147z" fill="black"/>
<path d="M283.965,115.242v -45.3982h 238.11v 45.3982h -238.11z" fill="none" stroke="black"/>
<text xml:space="preserve" x="508.983" y="84.0166" fill="black" font-size="8.50956" font-family="Helvetica">)
</text>
<text xml:space="preserve" x="506.061" y="80.3637" fill="black" font-size="5.8397" font-family="Helvetica">2
</text>
<text xml:space="preserve" x="343.141" y="84.0166" fill="black" font-size="8.50956" font-family="Helvetica">Real countries surfaces from Wikipedia (in km
</text>
<path d="M292.894,81.1929h 41.6693" fill="none" stroke="#cc3333" stroke-width="2"/>
<g fill="#0000ff">
<circle cx="313.728" cy="81.1929" r="2.33785"/>
</g>
<text xml:space="preserve" x="343.141" y="106.665" fill="black" font-size="8.50956" font-family="Helvetica">Countries surfaces from TH2Poly (with errors)
</text>
<path d="M292.894,103.892h 41.6693" fill="none" stroke="black" stroke-width="2"/>
<g fill="black">
<circle cx="313.728" cy="103.892" r="2.33785"/>
</g></svg>
