<?xml version="1.0" standalone="no"?>
<svg width="567.429" height="271.64" viewBox="0 0 567.429 271.64" xmlns="http://www.w3.org/2000/svg" shape-rendering="crispEdges">
<title>
./old_svg_ref/th2polyHoneycomb.svg
</title>
<desc>
Creator: ROOT Version 6.33/01
CreationDate: Fri Jun  7 14:55:41 2024</desc>
<defs>
</defs>
<rect x="0.5" y="0" width="566.929" height="271.14" fill="white"/>
<rect x="6.16929" y="2.7114" width="272.126" height="265.717" fill="white"/>
<rect x="33.3819" y="29.2831" width="217.701" height="212.574" fill="white"/>
<rect x="33.3819" y="29.2831" width="217.701" height="212.574" fill="none" stroke="black"/>
<path d="M33.3819,228.571v -26.5717l 21.7701, -13.2859l 21.7701, 13.2859v 26.5717l -21.7701, 13.2859z" fill="#e1bf4a"/>
<path d="M76.9221,228.571v -26.5717l 21.7701, -13.2859l 21.7701, 13.2859v 26.5717l -21.7701, 13.2859z" fill="#263da8"/>
<path d="M120.462,228.571v -26.5717l 21.7701, -13.2859l 21.7701, 13.2859v 26.5717l -21.7701, 13.2859z" fill="#263da8"/>
<path d="M164.002,228.571v -26.5717l 21.7701, -13.2859l 21.7701, 13.2859v 26.5717l -21.7701, 13.2859z" fill="#263da8"/>
<path d="M207.543,228.571v -26.5717l 21.7701, -13.2859l 21.7701, 13.2859v 26.5717l -21.7701, 13.2859z" fill="#263da8"/>
<path d="M55.152,188.713v -26.5717l 21.7701, -13.2859l 21.7701, 13.2859v 26.5717l -21.7701, 13.2859z" fill="#263da8"/>
<path d="M98.6921,188.713v -26.5717l 21.7701, -13.2859l 21.7701, 13.2859v 26.5717l -21.7701, 13.2859z" fill="#263da8"/>
<path d="M142.232,188.713v -26.5717l 21.7701, -13.2859l 21.7701, 13.2859v 26.5717l -21.7701, 13.2859z" fill="#263da8"/>
<path d="M185.772,188.713v -26.5717l 21.7701, -13.2859l 21.7701, 13.2859v 26.5717l -21.7701, 13.2859z" fill="#263da8"/>
<path d="M33.3819,148.856v -26.5717l 21.7701, -13.2859l 21.7701, 13.2859v 26.5717l -21.7701, 13.2859z" fill="#263da8"/>
<path d="M76.9221,148.856v -26.5717l 21.7701, -13.2859l 21.7701, 13.2859v 26.5717l -21.7701, 13.2859z" fill="#263da8"/>
<path d="M120.462,148.856v -26.5717l 21.7701, -13.2859l 21.7701, 13.2859v 26.5717l -21.7701, 13.2859z" fill="#52ba91"/>
<path d="M164.002,148.856v -26.5717l 21.7701, -13.2859l 21.7701, 13.2859v 26.5717l -21.7701, 13.2859z" fill="#263da8"/>
<path d="M207.543,148.856v -26.5717l 21.7701, -13.2859l 21.7701, 13.2859v 26.5717l -21.7701, 13.2859z" fill="#263da8"/>
<path d="M55.152,108.998v -26.5717l 21.7701, -13.2859l 21.7701, 13.2859v 26.5717l -21.7701, 13.2859z" fill="#263da8"/>
<path d="M98.6921,108.998v -26.5717l 21.7701, -13.2859l 21.7701, 13.2859v 26.5717l -21.7701, 13.2859z" fill="#263da8"/>
<path d="M142.232,108.998v -26.5717l 21.7701, -13.2859l 21.7701, 13.2859v 26.5717l -21.7701, 13.2859z" fill="#f9f90e"/>
<path d="M185.772,108.998v -26.5717l 21.7701, -13.2859l 21.7701, 13.2859v 26.5717l -21.7701, 13.2859z" fill="#263da8"/>
<path d="M33.3819,69.1407v -26.5717l 21.7701, -13.2859l 21.7701, 13.2859v 26.5717l -21.7701, 13.2859z" fill="#263da8"/>
<path d="M76.9221,69.1407v -26.5717l 21.7701, -13.2859l 21.7701, 13.2859v 26.5717l -21.7701, 13.2859z" fill="#263da8"/>
<path d="M120.462,69.1407v -26.5717l 21.7701, -13.2859l 21.7701, 13.2859v 26.5717l -21.7701, 13.2859z" fill="#263da8"/>
<path d="M164.002,69.1407v -26.5717l 21.7701, -13.2859l 21.7701, 13.2859v 26.5717l -21.7701, 13.2859z" fill="#263da8"/>
<path d="M207.543,69.1407v -26.5717l 21.7701, -13.2859l 21.7701, 13.2859v 26.5717l -21.7701, 13.2859z" fill="#263da8"/>
<rect x="252.443" y="231.228" width="12.2457" height="10.6287" fill="#263da8"/>
<rect x="252.443" y="220.6" width="12.2457" height="10.6287" fill="#1652cc"/>
<rect x="252.443" y="209.971" width="12.2457" height="10.6287" fill="#1063db"/>
<rect x="252.443" y="199.342" width="12.2457" height="10.6287" fill="#1171d8"/>
<rect x="252.443" y="188.713" width="12.2457" height="10.6287" fill="#1380d5"/>
<rect x="252.443" y="178.085" width="12.2457" height="10.6287" fill="#0e8ed0"/>
<rect x="252.443" y="167.456" width="12.2457" height="10.6287" fill="#089dcc"/>
<rect x="252.443" y="156.827" width="12.2457" height="10.6287" fill="#0da7c2"/>
<rect x="252.443" y="146.199" width="12.2457" height="10.6287" fill="#1dafb3"/>
<rect x="252.443" y="135.57" width="12.2457" height="10.6287" fill="#2db7a3"/>
<rect x="252.443" y="124.941" width="12.2457" height="10.6287" fill="#52ba91"/>
<rect x="252.443" y="114.313" width="12.2457" height="10.6287" fill="#73bd80"/>
<rect x="252.443" y="103.684" width="12.2457" height="10.6287" fill="#94be71"/>
<rect x="252.443" y="93.0553" width="12.2457" height="10.6287" fill="#b2bc65"/>
<rect x="252.443" y="82.4266" width="12.2457" height="10.6287" fill="#d0ba59"/>
<rect x="252.443" y="71.7979" width="12.2457" height="10.6287" fill="#e1bf4a"/>
<rect x="252.443" y="61.1692" width="12.2457" height="10.6287" fill="#f4c53a"/>
<rect x="252.443" y="50.5405" width="12.2457" height="10.6287" fill="#fcd12b"/>
<rect x="252.443" y="39.9118" width="12.2457" height="10.6287" fill="#fae61c"/>
<rect x="252.443" y="29.2831" width="12.2457" height="10.6287" fill="#f9f90e"/>
<path d="M264.689,241.857v -212.574" fill="none" stroke="black"/>
<path d="M258.158,241.857h 6.53102" fill="none" stroke="black"/>
<path d="M258.158,220.6h 6.53102" fill="none" stroke="black"/>
<path d="M258.158,199.342h 6.53102" fill="none" stroke="black"/>
<path d="M258.158,178.085h 6.53102" fill="none" stroke="black"/>
<path d="M258.158,156.827h 6.53102" fill="none" stroke="black"/>
<path d="M258.158,135.57h 6.53102" fill="none" stroke="black"/>
<path d="M258.158,114.313h 6.53102" fill="none" stroke="black"/>
<path d="M258.158,93.0553h 6.53102" fill="none" stroke="black"/>
<path d="M258.158,71.7979h 6.53102" fill="none" stroke="black"/>
<path d="M258.158,50.5405h 6.53102" fill="none" stroke="black"/>
<path d="M258.158,29.2831h 6.53102" fill="none" stroke="black"/>
<text xml:space="preserve" x="265.952" y="245.069" fill="black" font-size="9.0322" font-family="Helvetica">0
</text>
<text xml:space="preserve" x="265.952" y="223.738" fill="black" font-size="9.0322" font-family="Helvetica">2
</text>
<text xml:space="preserve" x="265.952" y="202.881" fill="black" font-size="9.0322" font-family="Helvetica">4
</text>
<text xml:space="preserve" x="265.952" y="181.55" fill="black" font-size="9.0322" font-family="Helvetica">6
</text>
<text xml:space="preserve" x="265.952" y="160.219" fill="black" font-size="9.0322" font-family="Helvetica">8
</text>
<text xml:space="preserve" x="265.952" y="138.888" fill="black" font-size="9.0322" font-family="Helvetica">10
</text>
<text xml:space="preserve" x="265.952" y="117.557" fill="black" font-size="9.0322" font-family="Helvetica">12
</text>
<text xml:space="preserve" x="265.952" y="96.2263" fill="black" font-size="9.0322" font-family="Helvetica">14
</text>
<text xml:space="preserve" x="265.952" y="74.8953" fill="black" font-size="9.0322" font-family="Helvetica">16
</text>
<text xml:space="preserve" x="265.952" y="54.0384" fill="black" font-size="9.0322" font-family="Helvetica">18
</text>
<text xml:space="preserve" x="265.952" y="32.7074" fill="black" font-size="9.0322" font-family="Helvetica">20
</text>
<path d="M33.3819,228.571v -26.5717l 21.7701, -13.2859l 21.7701, 13.2859v 26.5717l -21.7701, 13.2859z" fill="none" stroke="#e1bf4a"/>
<path d="M33.3819,228.571v -26.5717l 21.7701, -13.2859l 21.7701, 13.2859v 26.5717l -21.7701, 13.2859l -21.7701, -13.2859z" fill="none" stroke="black"/>
<path d="M76.9221,228.571v -26.5717l 21.7701, -13.2859l 21.7701, 13.2859v 26.5717l -21.7701, 13.2859z" fill="none" stroke="#263da8"/>
<path d="M76.9221,228.571v -26.5717l 21.7701, -13.2859l 21.7701, 13.2859v 26.5717l -21.7701, 13.2859l -21.7701, -13.2859z" fill="none" stroke="black"/>
<path d="M120.462,228.571v -26.5717l 21.7701, -13.2859l 21.7701, 13.2859v 26.5717l -21.7701, 13.2859z" fill="none" stroke="#263da8"/>
<path d="M120.462,228.571v -26.5717l 21.7701, -13.2859l 21.7701, 13.2859v 26.5717l -21.7701, 13.2859l -21.7701, -13.2859z" fill="none" stroke="black"/>
<path d="M164.002,228.571v -26.5717l 21.7701, -13.2859l 21.7701, 13.2859v 26.5717l -21.7701, 13.2859z" fill="none" stroke="#263da8"/>
<path d="M164.002,228.571v -26.5717l 21.7701, -13.2859l 21.7701, 13.2859v 26.5717l -21.7701, 13.2859l -21.7701, -13.2859z" fill="none" stroke="black"/>
<path d="M207.543,228.571v -26.5717l 21.7701, -13.2859l 21.7701, 13.2859v 26.5717l -21.7701, 13.2859z" fill="none" stroke="#263da8"/>
<path d="M207.543,228.571v -26.5717l 21.7701, -13.2859l 21.7701, 13.2859v 26.5717l -21.7701, 13.2859l -21.7701, -13.2859z" fill="none" stroke="black"/>
<path d="M55.152,188.713v -26.5717l 21.7701, -13.2859l 21.7701, 13.2859v 26.5717l -21.7701, 13.2859z" fill="none" stroke="#263da8"/>
<path d="M55.152,188.713v -26.5717l 21.7701, -13.2859l 21.7701, 13.2859v 26.5717l -21.7701, 13.2859l -21.7701, -13.2859z" fill="none" stroke="black"/>
<path d="M98.6921,188.713v -26.5717l 21.7701, -13.2859l 21.7701, 13.2859v 26.5717l -21.7701, 13.2859z" fill="none" stroke="#263da8"/>
<path d="M98.6921,188.713v -26.5717l 21.7701, -13.2859l 21.7701, 13.2859v 26.5717l -21.7701, 13.2859l -21.7701, -13.2859z" fill="none" stroke="black"/>
<path d="M142.232,188.713v -26.5717l 21.7701, -13.2859l 21.7701, 13.2859v 26.5717l -21.7701, 13.2859z" fill="none" stroke="#263da8"/>
<path d="M142.232,188.713v -26.5717l 21.7701, -13.2859l 21.7701, 13.2859v 26.5717l -21.7701, 13.2859l -21.7701, -13.2859z" fill="none" stroke="black"/>
<path d="M185.772,188.713v -26.5717l 21.7701, -13.2859l 21.7701, 13.2859v 26.5717l -21.7701, 13.2859z" fill="none" stroke="#263da8"/>
<path d="M185.772,188.713v -26.5717l 21.7701, -13.2859l 21.7701, 13.2859v 26.5717l -21.7701, 13.2859l -21.7701, -13.2859z" fill="none" stroke="black"/>
<path d="M33.3819,148.856v -26.5717l 21.7701, -13.2859l 21.7701, 13.2859v 26.5717l -21.7701, 13.2859z" fill="none" stroke="#263da8"/>
<path d="M33.3819,148.856v -26.5717l 21.7701, -13.2859l 21.7701, 13.2859v 26.5717l -21.7701, 13.2859l -21.7701, -13.2859z" fill="none" stroke="black"/>
<path d="M76.9221,148.856v -26.5717l 21.7701, -13.2859l 21.7701, 13.2859v 26.5717l -21.7701, 13.2859z" fill="none" stroke="#263da8"/>
<path d="M76.9221,148.856v -26.5717l 21.7701, -13.2859l 21.7701, 13.2859v 26.5717l -21.7701, 13.2859l -21.7701, -13.2859z" fill="none" stroke="black"/>
<path d="M120.462,148.856v -26.5717l 21.7701, -13.2859l 21.7701, 13.2859v 26.5717l -21.7701, 13.2859z" fill="none" stroke="#52ba91"/>
<path d="M120.462,148.856v -26.5717l 21.7701, -13.2859l 21.7701, 13.2859v 26.5717l -21.7701, 13.2859l -21.7701, -13.2859z" fill="none" stroke="black"/>
<path d="M164.002,148.856v -26.5717l 21.7701, -13.2859l 21.7701, 13.2859v 26.5717l -21.7701, 13.2859z" fill="none" stroke="#263da8"/>
<path d="M164.002,148.856v -26.5717l 21.7701, -13.2859l 21.7701, 13.2859v 26.5717l -21.7701, 13.2859l -21.7701, -13.2859z" fill="none" stroke="black"/>
<path d="M207.543,148.856v -26.5717l 21.7701, -13.2859l 21.7701, 13.2859v 26.5717l -21.7701, 13.2859z" fill="none" stroke="#263da8"/>
<path d="M207.543,148.856v -26.5717l 21.7701, -13.2859l 21.7701, 13.2859v 26.5717l -21.7701, 13.2859l -21.7701, -13.2859z" fill="none" stroke="black"/>
<path d="M55.152,108.998v -26.5717l 21.7701, -13.2859l 21.7701, 13.2859v 26.5717l -21.7701, 13.2859z" fill="none" stroke="#263da8"/>
<path d="M55.152,108.998v -26.5717l 21.7701, -13.2859l 21.7701, 13.2859v 26.5717l -21.7701, 13.2859l -21.7701, -13.2859z" fill="none" stroke="black"/>
<path d="M98.6921,108.998v -26.5717l 21.7701, -13.2859l 21.7701, 13.2859v 26.5717l -21.7701, 13.2859z" fill="none" stroke="#263da8"/>
<path d="M98.6921,108.998v -26.5717l 21.7701, -13.2859l 21.7701, 13.2859v 26.5717l -21.7701, 13.2859l -21.7701, -13.2859z" fill="none" stroke="black"/>
<path d="M142.232,108.998v -26.5717l 21.7701, -13.2859l 21.7701, 13.2859v 26.5717l -21.7701, 13.2859z" fill="none" stroke="#f9f90e"/>
<path d="M142.232,108.998v -26.5717l 21.7701, -13.2859l 21.7701, 13.2859v 26.5717l -21.7701, 13.2859l -21.7701, -13.2859z" fill="none" stroke="black"/>
<path d="M185.772,108.998v -26.5717l 21.7701, -13.2859l 21.7701, 13.2859v 26.5717l -21.7701, 13.2859z" fill="none" stroke="#263da8"/>
<path d="M185.772,108.998v -26.5717l 21.7701, -13.2859l 21.7701, 13.2859v 26.5717l -21.7701, 13.2859l -21.7701, -13.2859z" fill="none" stroke="black"/>
<path d="M33.3819,69.1407v -26.5717l 21.7701, -13.2859l 21.7701, 13.2859v 26.5717l -21.7701, 13.2859z" fill="none" stroke="#263da8"/>
<path d="M33.3819,69.1407v -26.5717l 21.7701, -13.2859l 21.7701, 13.2859v 26.5717l -21.7701, 13.2859l -21.7701, -13.2859z" fill="none" stroke="black"/>
<path d="M76.9221,69.1407v -26.5717l 21.7701, -13.2859l 21.7701, 13.2859v 26.5717l -21.7701, 13.2859z" fill="none" stroke="#263da8"/>
<path d="M76.9221,69.1407v -26.5717l 21.7701, -13.2859l 21.7701, 13.2859v 26.5717l -21.7701, 13.2859l -21.7701, -13.2859z" fill="none" stroke="black"/>
<path d="M120.462,69.1407v -26.5717l 21.7701, -13.2859l 21.7701, 13.2859v 26.5717l -21.7701, 13.2859z" fill="none" stroke="#263da8"/>
<path d="M120.462,69.1407v -26.5717l 21.7701, -13.2859l 21.7701, 13.2859v 26.5717l -21.7701, 13.2859l -21.7701, -13.2859z" fill="none" stroke="black"/>
<path d="M164.002,69.1407v -26.5717l 21.7701, -13.2859l 21.7701, 13.2859v 26.5717l -21.7701, 13.2859z" fill="none" stroke="#263da8"/>
<path d="M164.002,69.1407v -26.5717l 21.7701, -13.2859l 21.7701, 13.2859v 26.5717l -21.7701, 13.2859l -21.7701, -13.2859z" fill="none" stroke="black"/>
<path d="M207.543,69.1407v -26.5717l 21.7701, -13.2859l 21.7701, 13.2859v 26.5717l -21.7701, 13.2859z" fill="none" stroke="#263da8"/>
<path d="M207.543,69.1407v -26.5717l 21.7701, -13.2859l 21.7701, 13.2859v 26.5717l -21.7701, 13.2859l -21.7701, -13.2859z" fill="none" stroke="black"/>
<text xml:space="preserve" x="90.564" y="16.1167" fill="black" font-size="13.3638" font-family="Helvetica">Option V (default)
</text>
<path d="M33.3819,241.857h 217.701" fill="none" stroke="black"/>
<path d="M33.3819,235.48v 6.37721" fill="none" stroke="black"/>
<path d="M33.3819,29.2831v 212.574" fill="none" stroke="black" stroke-dasharray=" 1, 2"/>
<path d="M38.4095,238.668v 3.18861" fill="none" stroke="black"/>
<path d="M43.4371,238.668v 3.18861" fill="none" stroke="black"/>
<path d="M48.4646,238.668v 3.18861" fill="none" stroke="black"/>
<path d="M53.4922,238.668v 3.18861" fill="none" stroke="black"/>
<path d="M58.5198,235.48v 6.37721" fill="none" stroke="black"/>
<path d="M58.5198,29.2831v 212.574" fill="none" stroke="black" stroke-dasharray=" 1, 2"/>
<path d="M63.5474,238.668v 3.18861" fill="none" stroke="black"/>
<path d="M68.575,238.668v 3.18861" fill="none" stroke="black"/>
<path d="M73.6026,238.668v 3.18861" fill="none" stroke="black"/>
<path d="M78.6301,238.668v 3.18861" fill="none" stroke="black"/>
<path d="M83.6577,235.48v 6.37721" fill="none" stroke="black"/>
<path d="M83.6577,29.2831v 212.574" fill="none" stroke="black" stroke-dasharray=" 1, 2"/>
<path d="M88.6853,238.668v 3.18861" fill="none" stroke="black"/>
<path d="M93.7129,238.668v 3.18861" fill="none" stroke="black"/>
<path d="M98.7405,238.668v 3.18861" fill="none" stroke="black"/>
<path d="M103.768,238.668v 3.18861" fill="none" stroke="black"/>
<path d="M108.796,235.48v 6.37721" fill="none" stroke="black"/>
<path d="M108.796,29.2831v 212.574" fill="none" stroke="black" stroke-dasharray=" 1, 2"/>
<path d="M113.823,238.668v 3.18861" fill="none" stroke="black"/>
<path d="M118.851,238.668v 3.18861" fill="none" stroke="black"/>
<path d="M123.878,238.668v 3.18861" fill="none" stroke="black"/>
<path d="M128.906,238.668v 3.18861" fill="none" stroke="black"/>
<path d="M133.934,235.48v 6.37721" fill="none" stroke="black"/>
<path d="M133.934,29.2831v 212.574" fill="none" stroke="black" stroke-dasharray=" 1, 2"/>
<path d="M138.961,238.668v 3.18861" fill="none" stroke="black"/>
<path d="M143.989,238.668v 3.18861" fill="none" stroke="black"/>
<path d="M149.016,238.668v 3.18861" fill="none" stroke="black"/>
<path d="M154.044,238.668v 3.18861" fill="none" stroke="black"/>
<path d="M159.072,235.48v 6.37721" fill="none" stroke="black"/>
<path d="M159.072,29.2831v 212.574" fill="none" stroke="black" stroke-dasharray=" 1, 2"/>
<path d="M164.099,238.668v 3.18861" fill="none" stroke="black"/>
<path d="M169.127,238.668v 3.18861" fill="none" stroke="black"/>
<path d="M174.154,238.668v 3.18861" fill="none" stroke="black"/>
<path d="M179.182,238.668v 3.18861" fill="none" stroke="black"/>
<path d="M184.209,235.48v 6.37721" fill="none" stroke="black"/>
<path d="M184.209,29.2831v 212.574" fill="none" stroke="black" stroke-dasharray=" 1, 2"/>
<path d="M189.237,238.668v 3.18861" fill="none" stroke="black"/>
<path d="M194.265,238.668v 3.18861" fill="none" stroke="black"/>
<path d="M199.292,238.668v 3.18861" fill="none" stroke="black"/>
<path d="M204.32,238.668v 3.18861" fill="none" stroke="black"/>
<path d="M209.347,235.48v 6.37721" fill="none" stroke="black"/>
<path d="M209.347,29.2831v 212.574" fill="none" stroke="black" stroke-dasharray=" 1, 2"/>
<path d="M214.375,238.668v 3.18861" fill="none" stroke="black"/>
<path d="M219.403,238.668v 3.18861" fill="none" stroke="black"/>
<path d="M224.43,238.668v 3.18861" fill="none" stroke="black"/>
<path d="M229.458,238.668v 3.18861" fill="none" stroke="black"/>
<path d="M234.485,235.48v 6.37721" fill="none" stroke="black"/>
<path d="M234.485,29.2831v 212.574" fill="none" stroke="black" stroke-dasharray=" 1, 2"/>
<path d="M234.485,235.48v 6.37721" fill="none" stroke="black"/>
<path d="M234.485,29.2831v 212.574" fill="none" stroke="black" stroke-dasharray=" 1, 2"/>
<path d="M239.513,238.668v 3.18861" fill="none" stroke="black"/>
<path d="M244.54,238.668v 3.18861" fill="none" stroke="black"/>
<path d="M249.568,238.668v 3.18861" fill="none" stroke="black"/>
<text xml:space="preserve" x="30.8373" y="250.757" fill="black" font-size="9.0322" font-family="Helvetica">0
</text>
<text xml:space="preserve" x="53.1163" y="250.757" fill="black" font-size="9.0322" font-family="Helvetica">0.1
</text>
<text xml:space="preserve" x="77.2914" y="250.757" fill="black" font-size="9.0322" font-family="Helvetica">0.2
</text>
<text xml:space="preserve" x="102.415" y="250.757" fill="black" font-size="9.0322" font-family="Helvetica">0.3
</text>
<text xml:space="preserve" x="127.538" y="250.757" fill="black" font-size="9.0322" font-family="Helvetica">0.4
</text>
<text xml:space="preserve" x="153.135" y="250.757" fill="black" font-size="9.0322" font-family="Helvetica">0.5
</text>
<text xml:space="preserve" x="178.258" y="250.757" fill="black" font-size="9.0322" font-family="Helvetica">0.6
</text>
<text xml:space="preserve" x="203.381" y="250.757" fill="black" font-size="9.0322" font-family="Helvetica">0.7
</text>
<text xml:space="preserve" x="228.504" y="250.757" fill="black" font-size="9.0322" font-family="Helvetica">0.8
</text>
<path d="M33.3819,241.857v -212.574" fill="none" stroke="black"/>
<path d="M39.9129,241.857h -6.53102" fill="none" stroke="black"/>
<path d="M251.083,241.857h -217.701" fill="none" stroke="black" stroke-dasharray=" 1, 2"/>
<path d="M36.6474,236.543h -3.26551" fill="none" stroke="black"/>
<path d="M36.6474,231.228h -3.26551" fill="none" stroke="black"/>
<path d="M36.6474,225.914h -3.26551" fill="none" stroke="black"/>
<path d="M36.6474,220.6h -3.26551" fill="none" stroke="black"/>
<path d="M39.9129,215.285h -6.53102" fill="none" stroke="black"/>
<path d="M251.083,215.285h -217.701" fill="none" stroke="black" stroke-dasharray=" 1, 2"/>
<path d="M36.6474,209.971h -3.26551" fill="none" stroke="black"/>
<path d="M36.6474,204.656h -3.26551" fill="none" stroke="black"/>
<path d="M36.6474,199.342h -3.26551" fill="none" stroke="black"/>
<path d="M36.6474,194.028h -3.26551" fill="none" stroke="black"/>
<path d="M39.9129,188.713h -6.53102" fill="none" stroke="black"/>
<path d="M251.083,188.713h -217.701" fill="none" stroke="black" stroke-dasharray=" 1, 2"/>
<path d="M36.6474,183.399h -3.26551" fill="none" stroke="black"/>
<path d="M36.6474,178.085h -3.26551" fill="none" stroke="black"/>
<path d="M36.6474,172.77h -3.26551" fill="none" stroke="black"/>
<path d="M36.6474,167.456h -3.26551" fill="none" stroke="black"/>
<path d="M39.9129,162.142h -6.53102" fill="none" stroke="black"/>
<path d="M251.083,162.142h -217.701" fill="none" stroke="black" stroke-dasharray=" 1, 2"/>
<path d="M36.6474,156.827h -3.26551" fill="none" stroke="black"/>
<path d="M36.6474,151.513h -3.26551" fill="none" stroke="black"/>
<path d="M36.6474,146.199h -3.26551" fill="none" stroke="black"/>
<path d="M36.6474,140.884h -3.26551" fill="none" stroke="black"/>
<path d="M39.9129,135.57h -6.53102" fill="none" stroke="black"/>
<path d="M251.083,135.57h -217.701" fill="none" stroke="black" stroke-dasharray=" 1, 2"/>
<path d="M36.6474,130.256h -3.26551" fill="none" stroke="black"/>
<path d="M36.6474,124.941h -3.26551" fill="none" stroke="black"/>
<path d="M36.6474,119.627h -3.26551" fill="none" stroke="black"/>
<path d="M36.6474,114.313h -3.26551" fill="none" stroke="black"/>
<path d="M39.9129,108.998h -6.53102" fill="none" stroke="black"/>
<path d="M251.083,108.998h -217.701" fill="none" stroke="black" stroke-dasharray=" 1, 2"/>
<path d="M36.6474,103.684h -3.26551" fill="none" stroke="black"/>
<path d="M36.6474,98.3696h -3.26551" fill="none" stroke="black"/>
<path d="M36.6474,93.0553h -3.26551" fill="none" stroke="black"/>
<path d="M36.6474,87.7409h -3.26551" fill="none" stroke="black"/>
<path d="M39.9129,82.4266h -6.53102" fill="none" stroke="black"/>
<path d="M251.083,82.4266h -217.701" fill="none" stroke="black" stroke-dasharray=" 1, 2"/>
<path d="M36.6474,77.1122h -3.26551" fill="none" stroke="black"/>
<path d="M36.6474,71.7979h -3.26551" fill="none" stroke="black"/>
<path d="M36.6474,66.4835h -3.26551" fill="none" stroke="black"/>
<path d="M36.6474,61.1692h -3.26551" fill="none" stroke="black"/>
<path d="M39.9129,55.8548h -6.53102" fill="none" stroke="black"/>
<path d="M251.083,55.8548h -217.701" fill="none" stroke="black" stroke-dasharray=" 1, 2"/>
<path d="M36.6474,50.5405h -3.26551" fill="none" stroke="black"/>
<path d="M36.6474,45.2262h -3.26551" fill="none" stroke="black"/>
<path d="M36.6474,39.9118h -3.26551" fill="none" stroke="black"/>
<path d="M36.6474,34.5975h -3.26551" fill="none" stroke="black"/>
<path d="M39.9129,29.2831h -6.53102" fill="none" stroke="black"/>
<path d="M251.083,29.2831h -217.701" fill="none" stroke="black" stroke-dasharray=" 1, 2"/>
<text xml:space="preserve" x="27.0452" y="245.069" fill="black" font-size="9.0322" font-family="Helvetica">0
</text>
<text xml:space="preserve" x="21.3569" y="218.524" fill="black" font-size="9.0322" font-family="Helvetica">0.1
</text>
<text xml:space="preserve" x="19.9349" y="191.979" fill="black" font-size="9.0322" font-family="Helvetica">0.2
</text>
<text xml:space="preserve" x="19.9349" y="165.433" fill="black" font-size="9.0322" font-family="Helvetica">0.3
</text>
<text xml:space="preserve" x="19.9349" y="138.888" fill="black" font-size="9.0322" font-family="Helvetica">0.4
</text>
<text xml:space="preserve" x="19.9349" y="112.343" fill="black" font-size="9.0322" font-family="Helvetica">0.5
</text>
<text xml:space="preserve" x="19.9349" y="85.7978" fill="black" font-size="9.0322" font-family="Helvetica">0.6
</text>
<text xml:space="preserve" x="19.9349" y="59.2526" fill="black" font-size="9.0322" font-family="Helvetica">0.7
</text>
<text xml:space="preserve" x="19.9349" y="32.7074" fill="black" font-size="9.0322" font-family="Helvetica">0.8
</text>
<text xml:space="preserve" x="90.564" y="16.1167" fill="black" font-size="13.3638" font-family="Helvetica">Option V (default)
</text>
<rect x="289.634" y="2.7114" width="272.126" height="265.717" fill="white"/>
<rect x="316.846" y="29.2831" width="217.701" height="212.574" fill="white"/>
<rect x="316.846" y="29.2831" width="217.701" height="212.574" fill="none" stroke="black"/>
<path d="M316.846,220.6l 13.6063, -21.2574h 27.2126l 13.6063, 21.2574l -13.6063, 21.2574h -27.2126z" fill="#e1bf4a"/>
<path d="M316.846,178.085l 13.6063, -21.2574h 27.2126l 13.6063, 21.2574l -13.6063, 21.2574h -27.2126z" fill="#263da8"/>
<path d="M316.846,135.57l 13.6063, -21.2574h 27.2126l 13.6063, 21.2574l -13.6063, 21.2574h -27.2126z" fill="#263da8"/>
<path d="M316.846,93.0553l 13.6063, -21.2574h 27.2126l 13.6063, 21.2574l -13.6063, 21.2574h -27.2126z" fill="#263da8"/>
<path d="M316.846,50.5405l 13.6063, -21.2574h 27.2126l 13.6063, 21.2574l -13.6063, 21.2574h -27.2126z" fill="#263da8"/>
<path d="M357.665,199.342l 13.6063, -21.2574h 27.2126l 13.6063, 21.2574l -13.6063, 21.2574h -27.2126z" fill="#263da8"/>
<path d="M357.665,156.827l 13.6063, -21.2574h 27.2126l 13.6063, 21.2574l -13.6063, 21.2574h -27.2126z" fill="#263da8"/>
<path d="M357.665,114.313l 13.6063, -21.2574h 27.2126l 13.6063, 21.2574l -13.6063, 21.2574h -27.2126z" fill="#263da8"/>
<path d="M357.665,71.7979l 13.6063, -21.2574h 27.2126l 13.6063, 21.2574l -13.6063, 21.2574h -27.2126z" fill="#263da8"/>
<path d="M398.484,220.6l 13.6063, -21.2574h 27.2126l 13.6063, 21.2574l -13.6063, 21.2574h -27.2126z" fill="#263da8"/>
<path d="M398.484,178.085l 13.6063, -21.2574h 27.2126l 13.6063, 21.2574l -13.6063, 21.2574h -27.2126z" fill="#263da8"/>
<path d="M398.484,135.57l 13.6063, -21.2574h 27.2126l 13.6063, 21.2574l -13.6063, 21.2574h -27.2126z" fill="#52ba91"/>
<path d="M398.484,93.0553l 13.6063, -21.2574h 27.2126l 13.6063, 21.2574l -13.6063, 21.2574h -27.2126z" fill="#263da8"/>
<path d="M398.484,50.5405l 13.6063, -21.2574h 27.2126l 13.6063, 21.2574l -13.6063, 21.2574h -27.2126z" fill="#263da8"/>
<path d="M439.303,199.342l 13.6063, -21.2574h 27.2126l 13.6063, 21.2574l -13.6063, 21.2574h -27.2126z" fill="#263da8"/>
<path d="M439.303,156.827l 13.6063, -21.2574h 27.2126l 13.6063, 21.2574l -13.6063, 21.2574h -27.2126z" fill="#263da8"/>
<path d="M439.303,114.313l 13.6063, -21.2574h 27.2126l 13.6063, 21.2574l -13.6063, 21.2574h -27.2126z" fill="#f9f90e"/>
<path d="M439.303,71.7979l 13.6063, -21.2574h 27.2126l 13.6063, 21.2574l -13.6063, 21.2574h -27.2126z" fill="#263da8"/>
<path d="M480.122,220.6l 13.6063, -21.2574h 27.2126l 13.6063, 21.2574l -13.6063, 21.2574h -27.2126z" fill="#263da8"/>
<path d="M480.122,178.085l 13.6063, -21.2574h 27.2126l 13.6063, 21.2574l -13.6063, 21.2574h -27.2126z" fill="#263da8"/>
<path d="M480.122,135.57l 13.6063, -21.2574h 27.2126l 13.6063, 21.2574l -13.6063, 21.2574h -27.2126z" fill="#263da8"/>
<path d="M480.122,93.0553l 13.6063, -21.2574h 27.2126l 13.6063, 21.2574l -13.6063, 21.2574h -27.2126z" fill="#263da8"/>
<path d="M480.122,50.5405l 13.6063, -21.2574h 27.2126l 13.6063, 21.2574l -13.6063, 21.2574h -27.2126z" fill="#263da8"/>
<rect x="535.908" y="231.228" width="12.2457" height="10.6287" fill="#263da8"/>
<rect x="535.908" y="220.6" width="12.2457" height="10.6287" fill="#1652cc"/>
<rect x="535.908" y="209.971" width="12.2457" height="10.6287" fill="#1063db"/>
<rect x="535.908" y="199.342" width="12.2457" height="10.6287" fill="#1171d8"/>
<rect x="535.908" y="188.713" width="12.2457" height="10.6287" fill="#1380d5"/>
<rect x="535.908" y="178.085" width="12.2457" height="10.6287" fill="#0e8ed0"/>
<rect x="535.908" y="167.456" width="12.2457" height="10.6287" fill="#089dcc"/>
<rect x="535.908" y="156.827" width="12.2457" height="10.6287" fill="#0da7c2"/>
<rect x="535.908" y="146.199" width="12.2457" height="10.6287" fill="#1dafb3"/>
<rect x="535.908" y="135.57" width="12.2457" height="10.6287" fill="#2db7a3"/>
<rect x="535.908" y="124.941" width="12.2457" height="10.6287" fill="#52ba91"/>
<rect x="535.908" y="114.313" width="12.2457" height="10.6287" fill="#73bd80"/>
<rect x="535.908" y="103.684" width="12.2457" height="10.6287" fill="#94be71"/>
<rect x="535.908" y="93.0553" width="12.2457" height="10.6287" fill="#b2bc65"/>
<rect x="535.908" y="82.4266" width="12.2457" height="10.6287" fill="#d0ba59"/>
<rect x="535.908" y="71.7979" width="12.2457" height="10.6287" fill="#e1bf4a"/>
<rect x="535.908" y="61.1692" width="12.2457" height="10.6287" fill="#f4c53a"/>
<rect x="535.908" y="50.5405" width="12.2457" height="10.6287" fill="#fcd12b"/>
<rect x="535.908" y="39.9118" width="12.2457" height="10.6287" fill="#fae61c"/>
<rect x="535.908" y="29.2831" width="12.2457" height="10.6287" fill="#f9f90e"/>
<path d="M548.154,241.857v -212.574" fill="none" stroke="black"/>
<path d="M541.622,241.857h 6.53102" fill="none" stroke="black"/>
<path d="M541.622,220.6h 6.53102" fill="none" stroke="black"/>
<path d="M541.622,199.342h 6.53102" fill="none" stroke="black"/>
<path d="M541.622,178.085h 6.53102" fill="none" stroke="black"/>
<path d="M541.622,156.827h 6.53102" fill="none" stroke="black"/>
<path d="M541.622,135.57h 6.53102" fill="none" stroke="black"/>
<path d="M541.622,114.313h 6.53102" fill="none" stroke="black"/>
<path d="M541.622,93.0553h 6.53102" fill="none" stroke="black"/>
<path d="M541.622,71.7979h 6.53102" fill="none" stroke="black"/>
<path d="M541.622,50.5405h 6.53102" fill="none" stroke="black"/>
<path d="M541.622,29.2831h 6.53102" fill="none" stroke="black"/>
<path d="M541.622,29.2831h 6.53102" fill="none" stroke="black"/>
<text xml:space="preserve" x="549.416" y="245.069" fill="black" font-size="9.0322" font-family="Helvetica">0
</text>
<text xml:space="preserve" x="549.416" y="223.738" fill="black" font-size="9.0322" font-family="Helvetica">2
</text>
<text xml:space="preserve" x="549.416" y="202.881" fill="black" font-size="9.0322" font-family="Helvetica">4
</text>
<text xml:space="preserve" x="549.416" y="181.55" fill="black" font-size="9.0322" font-family="Helvetica">6
</text>
<text xml:space="preserve" x="549.416" y="160.219" fill="black" font-size="9.0322" font-family="Helvetica">8
</text>
<text xml:space="preserve" x="549.416" y="138.888" fill="black" font-size="9.0322" font-family="Helvetica">10
</text>
<text xml:space="preserve" x="549.416" y="117.557" fill="black" font-size="9.0322" font-family="Helvetica">12
</text>
<text xml:space="preserve" x="549.416" y="96.2263" fill="black" font-size="9.0322" font-family="Helvetica">14
</text>
<text xml:space="preserve" x="549.416" y="74.8953" fill="black" font-size="9.0322" font-family="Helvetica">16
</text>
<text xml:space="preserve" x="549.416" y="54.0384" fill="black" font-size="9.0322" font-family="Helvetica">18
</text>
<text xml:space="preserve" x="549.416" y="32.7074" fill="black" font-size="9.0322" font-family="Helvetica">20
</text>
<path d="M316.846,220.6l 13.6063, -21.2574h 27.2126l 13.6063, 21.2574l -13.6063, 21.2574h -27.2126z" fill="none" stroke="#e1bf4a"/>
<path d="M316.846,220.6l 13.6063, -21.2574h 27.2126l 13.6063, 21.2574l -13.6063, 21.2574h -27.2126l -13.6063, -21.2574z" fill="none" stroke="black"/>
<path d="M316.846,178.085l 13.6063, -21.2574h 27.2126l 13.6063, 21.2574l -13.6063, 21.2574h -27.2126z" fill="none" stroke="#263da8"/>
<path d="M316.846,178.085l 13.6063, -21.2574h 27.2126l 13.6063, 21.2574l -13.6063, 21.2574h -27.2126l -13.6063, -21.2574z" fill="none" stroke="black"/>
<path d="M316.846,135.57l 13.6063, -21.2574h 27.2126l 13.6063, 21.2574l -13.6063, 21.2574h -27.2126z" fill="none" stroke="#263da8"/>
<path d="M316.846,135.57l 13.6063, -21.2574h 27.2126l 13.6063, 21.2574l -13.6063, 21.2574h -27.2126l -13.6063, -21.2574z" fill="none" stroke="black"/>
<path d="M316.846,93.0553l 13.6063, -21.2574h 27.2126l 13.6063, 21.2574l -13.6063, 21.2574h -27.2126z" fill="none" stroke="#263da8"/>
<path d="M316.846,93.0553l 13.6063, -21.2574h 27.2126l 13.6063, 21.2574l -13.6063, 21.2574h -27.2126l -13.6063, -21.2574z" fill="none" stroke="black"/>
<path d="M316.846,50.5405l 13.6063, -21.2574h 27.2126l 13.6063, 21.2574l -13.6063, 21.2574h -27.2126z" fill="none" stroke="#263da8"/>
<path d="M316.846,50.5405l 13.6063, -21.2574h 27.2126l 13.6063, 21.2574l -13.6063, 21.2574h -27.2126l -13.6063, -21.2574z" fill="none" stroke="black"/>
<path d="M357.665,199.342l 13.6063, -21.2574h 27.2126l 13.6063, 21.2574l -13.6063, 21.2574h -27.2126z" fill="none" stroke="#263da8"/>
<path d="M357.665,199.342l 13.6063, -21.2574h 27.2126l 13.6063, 21.2574l -13.6063, 21.2574h -27.2126l -13.6063, -21.2574z" fill="none" stroke="black"/>
<path d="M357.665,156.827l 13.6063, -21.2574h 27.2126l 13.6063, 21.2574l -13.6063, 21.2574h -27.2126z" fill="none" stroke="#263da8"/>
<path d="M357.665,156.827l 13.6063, -21.2574h 27.2126l 13.6063, 21.2574l -13.6063, 21.2574h -27.2126l -13.6063, -21.2574z" fill="none" stroke="black"/>
<path d="M357.665,114.313l 13.6063, -21.2574h 27.2126l 13.6063, 21.2574l -13.6063, 21.2574h -27.2126z" fill="none" stroke="#263da8"/>
<path d="M357.665,114.313l 13.6063, -21.2574h 27.2126l 13.6063, 21.2574l -13.6063, 21.2574h -27.2126l -13.6063, -21.2574z" fill="none" stroke="black"/>
<path d="M357.665,71.7979l 13.6063, -21.2574h 27.2126l 13.6063, 21.2574l -13.6063, 21.2574h -27.2126z" fill="none" stroke="#263da8"/>
<path d="M357.665,71.7979l 13.6063, -21.2574h 27.2126l 13.6063, 21.2574l -13.6063, 21.2574h -27.2126l -13.6063, -21.2574z" fill="none" stroke="black"/>
<path d="M398.484,220.6l 13.6063, -21.2574h 27.2126l 13.6063, 21.2574l -13.6063, 21.2574h -27.2126z" fill="none" stroke="#263da8"/>
<path d="M398.484,220.6l 13.6063, -21.2574h 27.2126l 13.6063, 21.2574l -13.6063, 21.2574h -27.2126l -13.6063, -21.2574z" fill="none" stroke="black"/>
<path d="M398.484,178.085l 13.6063, -21.2574h 27.2126l 13.6063, 21.2574l -13.6063, 21.2574h -27.2126z" fill="none" stroke="#263da8"/>
<path d="M398.484,178.085l 13.6063, -21.2574h 27.2126l 13.6063, 21.2574l -13.6063, 21.2574h -27.2126l -13.6063, -21.2574z" fill="none" stroke="black"/>
<path d="M398.484,135.57l 13.6063, -21.2574h 27.2126l 13.6063, 21.2574l -13.6063, 21.2574h -27.2126z" fill="none" stroke="#52ba91"/>
<path d="M398.484,135.57l 13.6063, -21.2574h 27.2126l 13.6063, 21.2574l -13.6063, 21.2574h -27.2126l -13.6063, -21.2574z" fill="none" stroke="black"/>
<path d="M398.484,93.0553l 13.6063, -21.2574h 27.2126l 13.6063, 21.2574l -13.6063, 21.2574h -27.2126z" fill="none" stroke="#263da8"/>
<path d="M398.484,93.0553l 13.6063, -21.2574h 27.2126l 13.6063, 21.2574l -13.6063, 21.2574h -27.2126l -13.6063, -21.2574z" fill="none" stroke="black"/>
<path d="M398.484,50.5405l 13.6063, -21.2574h 27.2126l 13.6063, 21.2574l -13.6063, 21.2574h -27.2126z" fill="none" stroke="#263da8"/>
<path d="M398.484,50.5405l 13.6063, -21.2574h 27.2126l 13.6063, 21.2574l -13.6063, 21.2574h -27.2126l -13.6063, -21.2574z" fill="none" stroke="black"/>
<path d="M439.303,199.342l 13.6063, -21.2574h 27.2126l 13.6063, 21.2574l -13.6063, 21.2574h -27.2126z" fill="none" stroke="#263da8"/>
<path d="M439.303,199.342l 13.6063, -21.2574h 27.2126l 13.6063, 21.2574l -13.6063, 21.2574h -27.2126l -13.6063, -21.2574z" fill="none" stroke="black"/>
<path d="M439.303,156.827l 13.6063, -21.2574h 27.2126l 13.6063, 21.2574l -13.6063, 21.2574h -27.2126z" fill="none" stroke="#263da8"/>
<path d="M439.303,156.827l 13.6063, -21.2574h 27.2126l 13.6063, 21.2574l -13.6063, 21.2574h -27.2126l -13.6063, -21.2574z" fill="none" stroke="black"/>
<path d="M439.303,114.313l 13.6063, -21.2574h 27.2126l 13.6063, 21.2574l -13.6063, 21.2574h -27.2126z" fill="none" stroke="#f9f90e"/>
<path d="M439.303,114.313l 13.6063, -21.2574h 27.2126l 13.6063, 21.2574l -13.6063, 21.2574h -27.2126l -13.6063, -21.2574z" fill="none" stroke="black"/>
<path d="M439.303,71.7979l 13.6063, -21.2574h 27.2126l 13.6063, 21.2574l -13.6063, 21.2574h -27.2126z" fill="none" stroke="#263da8"/>
<path d="M439.303,71.7979l 13.6063, -21.2574h 27.2126l 13.6063, 21.2574l -13.6063, 21.2574h -27.2126l -13.6063, -21.2574z" fill="none" stroke="black"/>
<path d="M480.122,220.6l 13.6063, -21.2574h 27.2126l 13.6063, 21.2574l -13.6063, 21.2574h -27.2126z" fill="none" stroke="#263da8"/>
<path d="M480.122,220.6l 13.6063, -21.2574h 27.2126l 13.6063, 21.2574l -13.6063, 21.2574h -27.2126l -13.6063, -21.2574z" fill="none" stroke="black"/>
<path d="M480.122,178.085l 13.6063, -21.2574h 27.2126l 13.6063, 21.2574l -13.6063, 21.2574h -27.2126z" fill="none" stroke="#263da8"/>
<path d="M480.122,178.085l 13.6063, -21.2574h 27.2126l 13.6063, 21.2574l -13.6063, 21.2574h -27.2126l -13.6063, -21.2574z" fill="none" stroke="black"/>
<path d="M480.122,135.57l 13.6063, -21.2574h 27.2126l 13.6063, 21.2574l -13.6063, 21.2574h -27.2126z" fill="none" stroke="#263da8"/>
<path d="M480.122,135.57l 13.6063, -21.2574h 27.2126l 13.6063, 21.2574l -13.6063, 21.2574h -27.2126l -13.6063, -21.2574z" fill="none" stroke="black"/>
<path d="M480.122,93.0553l 13.6063, -21.2574h 27.2126l 13.6063, 21.2574l -13.6063, 21.2574h -27.2126z" fill="none" stroke="#263da8"/>
<path d="M480.122,93.0553l 13.6063, -21.2574h 27.2126l 13.6063, 21.2574l -13.6063, 21.2574h -27.2126l -13.6063, -21.2574z" fill="none" stroke="black"/>
<path d="M480.122,50.5405l 13.6063, -21.2574h 27.2126l 13.6063, 21.2574l -13.6063, 21.2574h -27.2126z" fill="none" stroke="#263da8"/>
<path d="M480.122,50.5405l 13.6063, -21.2574h 27.2126l 13.6063, 21.2574l -13.6063, 21.2574h -27.2126l -13.6063, -21.2574z" fill="none" stroke="black"/>
<text xml:space="preserve" x="399.626" y="16.1167" fill="black" font-size="13.3638" font-family="Helvetica">Option H
</text>
<path d="M316.846,241.857h 217.701" fill="none" stroke="black"/>
<path d="M316.846,235.48v 6.37721" fill="none" stroke="black"/>
<path d="M316.846,29.2831v 212.574" fill="none" stroke="black" stroke-dasharray=" 1, 2"/>
<path d="M322.289,238.668v 3.18861" fill="none" stroke="black"/>
<path d="M327.732,238.668v 3.18861" fill="none" stroke="black"/>
<path d="M333.174,238.668v 3.18861" fill="none" stroke="black"/>
<path d="M338.617,238.668v 3.18861" fill="none" stroke="black"/>
<path d="M344.059,235.48v 6.37721" fill="none" stroke="black"/>
<path d="M344.059,29.2831v 212.574" fill="none" stroke="black" stroke-dasharray=" 1, 2"/>
<path d="M349.502,238.668v 3.18861" fill="none" stroke="black"/>
<path d="M354.944,238.668v 3.18861" fill="none" stroke="black"/>
<path d="M360.387,238.668v 3.18861" fill="none" stroke="black"/>
<path d="M365.829,238.668v 3.18861" fill="none" stroke="black"/>
<path d="M371.272,235.48v 6.37721" fill="none" stroke="black"/>
<path d="M371.272,29.2831v 212.574" fill="none" stroke="black" stroke-dasharray=" 1, 2"/>
<path d="M376.714,238.668v 3.18861" fill="none" stroke="black"/>
<path d="M382.157,238.668v 3.18861" fill="none" stroke="black"/>
<path d="M387.599,238.668v 3.18861" fill="none" stroke="black"/>
<path d="M393.042,238.668v 3.18861" fill="none" stroke="black"/>
<path d="M398.484,235.48v 6.37721" fill="none" stroke="black"/>
<path d="M398.484,29.2831v 212.574" fill="none" stroke="black" stroke-dasharray=" 1, 2"/>
<path d="M403.927,238.668v 3.18861" fill="none" stroke="black"/>
<path d="M409.369,238.668v 3.18861" fill="none" stroke="black"/>
<path d="M414.812,238.668v 3.18861" fill="none" stroke="black"/>
<path d="M420.254,238.668v 3.18861" fill="none" stroke="black"/>
<path d="M425.697,235.48v 6.37721" fill="none" stroke="black"/>
<path d="M425.697,29.2831v 212.574" fill="none" stroke="black" stroke-dasharray=" 1, 2"/>
<path d="M431.139,238.668v 3.18861" fill="none" stroke="black"/>
<path d="M436.582,238.668v 3.18861" fill="none" stroke="black"/>
<path d="M442.024,238.668v 3.18861" fill="none" stroke="black"/>
<path d="M447.467,238.668v 3.18861" fill="none" stroke="black"/>
<path d="M452.909,235.48v 6.37721" fill="none" stroke="black"/>
<path d="M452.909,29.2831v 212.574" fill="none" stroke="black" stroke-dasharray=" 1, 2"/>
<path d="M458.352,238.668v 3.18861" fill="none" stroke="black"/>
<path d="M463.794,238.668v 3.18861" fill="none" stroke="black"/>
<path d="M469.237,238.668v 3.18861" fill="none" stroke="black"/>
<path d="M474.68,238.668v 3.18861" fill="none" stroke="black"/>
<path d="M480.122,235.48v 6.37721" fill="none" stroke="black"/>
<path d="M480.122,29.2831v 212.574" fill="none" stroke="black" stroke-dasharray=" 1, 2"/>
<path d="M485.565,238.668v 3.18861" fill="none" stroke="black"/>
<path d="M491.007,238.668v 3.18861" fill="none" stroke="black"/>
<path d="M496.45,238.668v 3.18861" fill="none" stroke="black"/>
<path d="M501.892,238.668v 3.18861" fill="none" stroke="black"/>
<path d="M507.335,235.48v 6.37721" fill="none" stroke="black"/>
<path d="M507.335,29.2831v 212.574" fill="none" stroke="black" stroke-dasharray=" 1, 2"/>
<path d="M512.777,238.668v 3.18861" fill="none" stroke="black"/>
<path d="M518.22,238.668v 3.18861" fill="none" stroke="black"/>
<path d="M523.662,238.668v 3.18861" fill="none" stroke="black"/>
<path d="M529.105,238.668v 3.18861" fill="none" stroke="black"/>
<path d="M534.547,235.48v 6.37721" fill="none" stroke="black"/>
<path d="M534.547,29.2831v 212.574" fill="none" stroke="black" stroke-dasharray=" 1, 2"/>
<path d="M534.547,235.48v 6.37721" fill="none" stroke="black"/>
<path d="M534.547,29.2831v 212.574" fill="none" stroke="black" stroke-dasharray=" 1, 2"/>
<text xml:space="preserve" x="314.302" y="250.757" fill="black" font-size="9.0322" font-family="Helvetica">0
</text>
<text xml:space="preserve" x="338.951" y="250.757" fill="black" font-size="9.0322" font-family="Helvetica">0.1
</text>
<text xml:space="preserve" x="365.022" y="250.757" fill="black" font-size="9.0322" font-family="Helvetica">0.2
</text>
<text xml:space="preserve" x="392.515" y="250.757" fill="black" font-size="9.0322" font-family="Helvetica">0.3
</text>
<text xml:space="preserve" x="419.535" y="250.757" fill="black" font-size="9.0322" font-family="Helvetica">0.4
</text>
<text xml:space="preserve" x="446.554" y="250.757" fill="black" font-size="9.0322" font-family="Helvetica">0.5
</text>
<text xml:space="preserve" x="474.047" y="250.757" fill="black" font-size="9.0322" font-family="Helvetica">0.6
</text>
<text xml:space="preserve" x="501.066" y="250.757" fill="black" font-size="9.0322" font-family="Helvetica">0.7
</text>
<text xml:space="preserve" x="528.559" y="250.757" fill="black" font-size="9.0322" font-family="Helvetica">0.8
</text>
<path d="M316.846,241.857v -212.574" fill="none" stroke="black"/>
<path d="M323.377,241.857h -6.53102" fill="none" stroke="black"/>
<path d="M534.547,241.857h -217.701" fill="none" stroke="black" stroke-dasharray=" 1, 2"/>
<path d="M320.112,236.948h -3.26551" fill="none" stroke="black"/>
<path d="M320.112,232.039h -3.26551" fill="none" stroke="black"/>
<path d="M320.112,227.129h -3.26551" fill="none" stroke="black"/>
<path d="M320.112,222.22h -3.26551" fill="none" stroke="black"/>
<path d="M323.377,217.311h -6.53102" fill="none" stroke="black"/>
<path d="M534.547,217.311h -217.701" fill="none" stroke="black" stroke-dasharray=" 1, 2"/>
<path d="M320.112,212.402h -3.26551" fill="none" stroke="black"/>
<path d="M320.112,207.493h -3.26551" fill="none" stroke="black"/>
<path d="M320.112,202.583h -3.26551" fill="none" stroke="black"/>
<path d="M320.112,197.674h -3.26551" fill="none" stroke="black"/>
<path d="M323.377,192.765h -6.53102" fill="none" stroke="black"/>
<path d="M534.547,192.765h -217.701" fill="none" stroke="black" stroke-dasharray=" 1, 2"/>
<path d="M320.112,187.856h -3.26551" fill="none" stroke="black"/>
<path d="M320.112,182.947h -3.26551" fill="none" stroke="black"/>
<path d="M320.112,178.038h -3.26551" fill="none" stroke="black"/>
<path d="M320.112,173.128h -3.26551" fill="none" stroke="black"/>
<path d="M323.377,168.219h -6.53102" fill="none" stroke="black"/>
<path d="M534.547,168.219h -217.701" fill="none" stroke="black" stroke-dasharray=" 1, 2"/>
<path d="M320.112,163.31h -3.26551" fill="none" stroke="black"/>
<path d="M320.112,158.401h -3.26551" fill="none" stroke="black"/>
<path d="M320.112,153.492h -3.26551" fill="none" stroke="black"/>
<path d="M320.112,148.582h -3.26551" fill="none" stroke="black"/>
<path d="M323.377,143.673h -6.53102" fill="none" stroke="black"/>
<path d="M534.547,143.673h -217.701" fill="none" stroke="black" stroke-dasharray=" 1, 2"/>
<path d="M320.112,138.764h -3.26551" fill="none" stroke="black"/>
<path d="M320.112,133.855h -3.26551" fill="none" stroke="black"/>
<path d="M320.112,128.946h -3.26551" fill="none" stroke="black"/>
<path d="M320.112,124.037h -3.26551" fill="none" stroke="black"/>
<path d="M323.377,119.127h -6.53102" fill="none" stroke="black"/>
<path d="M534.547,119.127h -217.701" fill="none" stroke="black" stroke-dasharray=" 1, 2"/>
<path d="M320.112,114.218h -3.26551" fill="none" stroke="black"/>
<path d="M320.112,109.309h -3.26551" fill="none" stroke="black"/>
<path d="M320.112,104.4h -3.26551" fill="none" stroke="black"/>
<path d="M320.112,99.4906h -3.26551" fill="none" stroke="black"/>
<path d="M323.377,94.5815h -6.53102" fill="none" stroke="black"/>
<path d="M534.547,94.5815h -217.701" fill="none" stroke="black" stroke-dasharray=" 1, 2"/>
<path d="M320.112,89.6723h -3.26551" fill="none" stroke="black"/>
<path d="M320.112,84.7631h -3.26551" fill="none" stroke="black"/>
<path d="M320.112,79.8539h -3.26551" fill="none" stroke="black"/>
<path d="M320.112,74.9447h -3.26551" fill="none" stroke="black"/>
<path d="M323.377,70.0356h -6.53102" fill="none" stroke="black"/>
<path d="M534.547,70.0356h -217.701" fill="none" stroke="black" stroke-dasharray=" 1, 2"/>
<path d="M320.112,65.1264h -3.26551" fill="none" stroke="black"/>
<path d="M320.112,60.2172h -3.26551" fill="none" stroke="black"/>
<path d="M320.112,55.308h -3.26551" fill="none" stroke="black"/>
<path d="M320.112,50.3988h -3.26551" fill="none" stroke="black"/>
<path d="M323.377,45.4897h -6.53102" fill="none" stroke="black"/>
<path d="M534.547,45.4897h -217.701" fill="none" stroke="black" stroke-dasharray=" 1, 2"/>
<path d="M323.377,45.4897h -6.53102" fill="none" stroke="black"/>
<path d="M534.547,45.4897h -217.701" fill="none" stroke="black" stroke-dasharray=" 1, 2"/>
<path d="M320.112,40.5805h -3.26551" fill="none" stroke="black"/>
<path d="M320.112,35.6713h -3.26551" fill="none" stroke="black"/>
<path d="M320.112,30.7621h -3.26551" fill="none" stroke="black"/>
<text xml:space="preserve" x="310.51" y="245.069" fill="black" font-size="9.0322" font-family="Helvetica">0
</text>
<text xml:space="preserve" x="304.822" y="220.42" fill="black" font-size="9.0322" font-family="Helvetica">0.1
</text>
<text xml:space="preserve" x="303.399" y="196.245" fill="black" font-size="9.0322" font-family="Helvetica">0.2
</text>
<text xml:space="preserve" x="303.399" y="171.596" fill="black" font-size="9.0322" font-family="Helvetica">0.3
</text>
<text xml:space="preserve" x="303.399" y="146.947" fill="black" font-size="9.0322" font-family="Helvetica">0.4
</text>
<text xml:space="preserve" x="303.399" y="122.297" fill="black" font-size="9.0322" font-family="Helvetica">0.5
</text>
<text xml:space="preserve" x="303.399" y="98.1223" fill="black" font-size="9.0322" font-family="Helvetica">0.6
</text>
<text xml:space="preserve" x="303.399" y="73.4733" fill="black" font-size="9.0322" font-family="Helvetica">0.7
</text>
<text xml:space="preserve" x="303.399" y="48.8242" fill="black" font-size="9.0322" font-family="Helvetica">0.8
</text>
<text xml:space="preserve" x="399.626" y="16.1167" fill="black" font-size="13.3638" font-family="Helvetica">Option H
</text></svg>
