<?xml version="1.0" standalone="no"?>
<svg width="567.429" height="384.969" viewBox="0 0 567.429 384.969" xmlns="http://www.w3.org/2000/svg" shape-rendering="crispEdges">
<title>
./old_svg_ref/timeonaxis2.svg
</title>
<desc>
Creator: ROOT Version 6.33.01
CreationDate: Wed Jul 10 09:58:44 2024</desc>
<defs>
</defs>
<rect x="0.5" y="0" width="566.929" height="384.469" fill="white"/>
<rect x="91.2087" y="19.2235" width="447.874" height="303.731" fill="white"/>
<rect x="91.2087" y="19.2235" width="447.874" height="303.731" fill="none" stroke="black"/>
<path d="M91.2087,322.954h 35.8299v -0.231599h 4.47874v 0.231599h 8.95748v -0.463198h 8.95748v 0.463198h 4.47874v -0.463198h 8.95748v -0.463198h 4.47874v -0.463198h 4.47874v -0.231599h 4.47874v -0.926396h 4.47874v -0.926396h 4.47874v -3.24239h
 4.47874v -0.694797h 4.47874v -0.926396h 8.95748v -5.09518h 4.47874v -1.38959h 4.47874v -8.33757h 4.47874v -3.93718h 4.47874v -3.70559h 4.47874v -11.1168h 4.47874v -6.02158h 4.47874v -10.422h 4.47874v -7.41117h 4.47874v -15.2855h 4.47874v -28.9499h
 4.47874v -2.08439h 4.47874v -16.4435h 4.47874v -20.1491h 4.47874v -11.1168h 4.47874v -23.1599h 4.47874v -1.158h 4.47874v -15.9803h 4.47874v -21.3071h 4.47874v -17.6015h 4.47874v -27.7919h 4.47874v 5.32678h 4.47874v -9.95876h 4.47874v 6.02158h
 4.47874v -5.32678h 4.47874v -18.5279h 4.47874v 25.0127h 4.47874v -7.41117h 4.47874v 5.78998h 4.47874v 18.2963h 4.47874v 22.4651h 4.47874v 1.62119h 4.47874v 12.9696h 4.47874v 2.08439h 4.47874v 28.7183h 4.47874v 22.0019h 4.47874v 14.8223h 4.47874v
 13.6643h 4.47874v 17.3699h 4.47874v 18.5279h 4.47874v 11.8116h 4.47874v 5.32678h 4.47874v 14.8223h 4.47874v 14.5907h 4.47874v 1.158h 4.47874v 15.2855h 4.47874v 6.25318h 4.47874v 2.08439h 4.47874v 4.86358h 4.47874v 2.54759h 4.47874v 6.94797h 4.47874v
 0.231599h 4.47874v 1.38959h 4.47874v 0.926396h 4.47874v 2.08439h 4.47874v -0.231599h 4.47874v 1.38959h 4.47874v 0.926396h 4.47874v 0.231599h 4.47874v 0.231599h 4.47874v 0.231599h 4.47874v -0.463198h 4.47874v 0.694797h 13.4362v -0.231599h 4.47874v
 0.231599h 40.3087" fill="none" stroke="black" stroke-width="2"/>
<path d="M91.2087,322.954h 447.874" fill="none" stroke="black"/>
<path d="M118.362,313.842v 9.11192" fill="none" stroke="black"/>
<path d="M145.505,318.398v 4.55596" fill="none" stroke="black"/>
<path d="M172.649,318.398v 4.55596" fill="none" stroke="black"/>
<path d="M199.793,313.842v 9.11192" fill="none" stroke="black"/>
<path d="M226.937,318.398v 4.55596" fill="none" stroke="black"/>
<path d="M254.081,318.398v 4.55596" fill="none" stroke="black"/>
<path d="M281.225,313.842v 9.11192" fill="none" stroke="black"/>
<path d="M308.369,318.398v 4.55596" fill="none" stroke="black"/>
<path d="M335.513,318.398v 4.55596" fill="none" stroke="black"/>
<path d="M362.656,313.842v 9.11192" fill="none" stroke="black"/>
<path d="M389.8,318.398v 4.55596" fill="none" stroke="black"/>
<path d="M416.944,318.398v 4.55596" fill="none" stroke="black"/>
<path d="M444.088,313.842v 9.11192" fill="none" stroke="black"/>
<path d="M471.232,318.398v 4.55596" fill="none" stroke="black"/>
<path d="M498.376,318.398v 4.55596" fill="none" stroke="black"/>
<path d="M525.52,313.842v 9.11192" fill="none" stroke="black"/>
<path d="M118.362,313.842v 9.11192" fill="none" stroke="black"/>
<path d="M91.2177,318.398v 4.55596" fill="none" stroke="black"/>
<path d="M525.52,313.842v 9.11192" fill="none" stroke="black"/>
<text xml:space="preserve" x="91.73" y="333.967" fill="black" font-size="11.0817" font-family="Helvetica">2002/10/03
</text>
<text xml:space="preserve" x="174" y="333.967" fill="black" font-size="11.0817" font-family="Helvetica">2002/11/01
</text>
<text xml:space="preserve" x="255.455" y="333.967" fill="black" font-size="11.0817" font-family="Helvetica">2002/12/01
</text>
<text xml:space="preserve" x="336.911" y="333.967" fill="black" font-size="11.0817" font-family="Helvetica">2002/12/31
</text>
<text xml:space="preserve" x="417.551" y="333.967" fill="black" font-size="11.0817" font-family="Helvetica">2003/01/30
</text>
<text xml:space="preserve" x="499.821" y="333.967" fill="black" font-size="11.0817" font-family="Helvetica">2003/03/01
</text>
<path d="M91.2087,19.2235h 447.874" fill="none" stroke="black"/>
<path d="M118.362,28.3354v -9.11192" fill="none" stroke="black"/>
<path d="M145.505,23.7794v -4.55596" fill="none" stroke="black"/>
<path d="M172.649,23.7794v -4.55596" fill="none" stroke="black"/>
<path d="M199.793,28.3354v -9.11192" fill="none" stroke="black"/>
<path d="M226.937,23.7794v -4.55596" fill="none" stroke="black"/>
<path d="M254.081,23.7794v -4.55596" fill="none" stroke="black"/>
<path d="M281.225,28.3354v -9.11192" fill="none" stroke="black"/>
<path d="M308.369,23.7794v -4.55596" fill="none" stroke="black"/>
<path d="M335.513,23.7794v -4.55596" fill="none" stroke="black"/>
<path d="M362.656,28.3354v -9.11192" fill="none" stroke="black"/>
<path d="M389.8,23.7794v -4.55596" fill="none" stroke="black"/>
<path d="M416.944,23.7794v -4.55596" fill="none" stroke="black"/>
<path d="M444.088,28.3354v -9.11192" fill="none" stroke="black"/>
<path d="M471.232,23.7794v -4.55596" fill="none" stroke="black"/>
<path d="M498.376,23.7794v -4.55596" fill="none" stroke="black"/>
<path d="M525.52,28.3354v -9.11192" fill="none" stroke="black"/>
<path d="M118.362,28.3354v -9.11192" fill="none" stroke="black"/>
<path d="M91.2177,23.7794v -4.55596" fill="none" stroke="black"/>
<path d="M525.52,28.3354v -9.11192" fill="none" stroke="black"/>
<path d="M91.2087,322.954v -303.731" fill="none" stroke="black"/>
<path d="M104.645,322.954h -13.4362" fill="none" stroke="black"/>
<path d="M97.9268,311.374h -6.71811" fill="none" stroke="black"/>
<path d="M97.9268,299.794h -6.71811" fill="none" stroke="black"/>
<path d="M97.9268,288.214h -6.71811" fill="none" stroke="black"/>
<path d="M104.645,276.634h -13.4362" fill="none" stroke="black"/>
<path d="M97.9268,265.054h -6.71811" fill="none" stroke="black"/>
<path d="M97.9268,253.474h -6.71811" fill="none" stroke="black"/>
<path d="M97.9268,241.894h -6.71811" fill="none" stroke="black"/>
<path d="M104.645,230.314h -13.4362" fill="none" stroke="black"/>
<path d="M97.9268,218.735h -6.71811" fill="none" stroke="black"/>
<path d="M97.9268,207.155h -6.71811" fill="none" stroke="black"/>
<path d="M97.9268,195.575h -6.71811" fill="none" stroke="black"/>
<path d="M104.645,183.995h -13.4362" fill="none" stroke="black"/>
<path d="M97.9268,172.415h -6.71811" fill="none" stroke="black"/>
<path d="M97.9268,160.835h -6.71811" fill="none" stroke="black"/>
<path d="M97.9268,149.255h -6.71811" fill="none" stroke="black"/>
<path d="M104.645,137.675h -13.4362" fill="none" stroke="black"/>
<path d="M97.9268,126.095h -6.71811" fill="none" stroke="black"/>
<path d="M97.9268,114.515h -6.71811" fill="none" stroke="black"/>
<path d="M97.9268,102.935h -6.71811" fill="none" stroke="black"/>
<path d="M104.645,91.355h -13.4362" fill="none" stroke="black"/>
<path d="M97.9268,79.775h -6.71811" fill="none" stroke="black"/>
<path d="M97.9268,68.1951h -6.71811" fill="none" stroke="black"/>
<path d="M97.9268,56.6151h -6.71811" fill="none" stroke="black"/>
<path d="M104.645,45.0352h -13.4362" fill="none" stroke="black"/>
<path d="M104.645,45.0352h -13.4362" fill="none" stroke="black"/>
<path d="M97.9268,33.4552h -6.71811" fill="none" stroke="black"/>
<path d="M97.9268,21.8753h -6.71811" fill="none" stroke="black"/>
<text xml:space="preserve" x="78.6971" y="329.08" fill="black" font-size="18.1362" font-family="Helvetica">0
</text>
<text xml:space="preserve" x="59.1478" y="283.465" fill="black" font-size="18.1362" font-family="Helvetica">200
</text>
<text xml:space="preserve" x="59.1478" y="237.035" fill="black" font-size="18.1362" font-family="Helvetica">400
</text>
<text xml:space="preserve" x="59.1478" y="190.605" fill="black" font-size="18.1362" font-family="Helvetica">600
</text>
<text xml:space="preserve" x="59.1478" y="144.176" fill="black" font-size="18.1362" font-family="Helvetica">800
</text>
<text xml:space="preserve" x="49.3732" y="97.7464" fill="black" font-size="18.1362" font-family="Helvetica">1000
</text>
<text xml:space="preserve" x="49.3732" y="51.3169" fill="black" font-size="18.1362" font-family="Helvetica">1200
</text>
<path d="M539.083,322.954v -303.731" fill="none" stroke="black"/>
<path d="M525.646,322.954h 13.4362" fill="none" stroke="black"/>
<path d="M532.365,311.374h 6.71811" fill="none" stroke="black"/>
<path d="M532.365,299.794h 6.71811" fill="none" stroke="black"/>
<path d="M532.365,288.214h 6.71811" fill="none" stroke="black"/>
<path d="M525.646,276.634h 13.4362" fill="none" stroke="black"/>
<path d="M532.365,265.054h 6.71811" fill="none" stroke="black"/>
<path d="M532.365,253.474h 6.71811" fill="none" stroke="black"/>
<path d="M532.365,241.894h 6.71811" fill="none" stroke="black"/>
<path d="M525.646,230.314h 13.4362" fill="none" stroke="black"/>
<path d="M532.365,218.735h 6.71811" fill="none" stroke="black"/>
<path d="M532.365,207.155h 6.71811" fill="none" stroke="black"/>
<path d="M532.365,195.575h 6.71811" fill="none" stroke="black"/>
<path d="M525.646,183.995h 13.4362" fill="none" stroke="black"/>
<path d="M532.365,172.415h 6.71811" fill="none" stroke="black"/>
<path d="M532.365,160.835h 6.71811" fill="none" stroke="black"/>
<path d="M532.365,149.255h 6.71811" fill="none" stroke="black"/>
<path d="M525.646,137.675h 13.4362" fill="none" stroke="black"/>
<path d="M532.365,126.095h 6.71811" fill="none" stroke="black"/>
<path d="M532.365,114.515h 6.71811" fill="none" stroke="black"/>
<path d="M532.365,102.935h 6.71811" fill="none" stroke="black"/>
<path d="M525.646,91.355h 13.4362" fill="none" stroke="black"/>
<path d="M532.365,79.775h 6.71811" fill="none" stroke="black"/>
<path d="M532.365,68.1951h 6.71811" fill="none" stroke="black"/>
<path d="M532.365,56.6151h 6.71811" fill="none" stroke="black"/>
<path d="M525.646,45.0352h 13.4362" fill="none" stroke="black"/>
<path d="M525.646,45.0352h 13.4362" fill="none" stroke="black"/>
<path d="M532.365,33.4552h 6.71811" fill="none" stroke="black"/>
<path d="M532.365,21.8753h 6.71811" fill="none" stroke="black"/></svg>
