<?xml version="1.0" standalone="no"?>
<svg width="567.429" height="354.355" viewBox="0 0 567.429 354.355" xmlns="http://www.w3.org/2000/svg" shape-rendering="crispEdges">
<title>
/Users/adrianduesselberg/root-graphic-tests/build/old_svg_pro/twoscales_pro.svg
</title>
<desc>
Creator: ROOT Version 6.32.02
CreationDate: Mon Sep  2 14:36:21 2024</desc>
<defs>
</defs>
<rect x="0.5" y="0" width="566.929" height="353.855" fill="white"/>
<rect x="91.2087" y="17.6928" width="447.874" height="279.546" fill="white"/>
<rect x="91.2087" y="17.6928" width="447.874" height="279.546" fill="none" stroke="black"/>
<rect x="91.2087" y="17.6928" width="447.874" height="279.546" fill="white"/>
<rect x="91.2087" y="17.6928" width="447.874" height="279.546" fill="none" stroke="black"/>
<path d="M91.2087,295.214h 4.47874v -1.0123h 4.47874v 2.02459h 4.47874v -4.04918h 8.95748v -2.02459h 4.47874v -5.06148h 4.47874v 8.09837h 4.47874v -6.07378h 4.47874v -5.06148h 4.47874v 4.04918h 4.47874v 2.02459h 4.47874v -6.07378h 4.47874v -15.1844h
 4.47874v 4.04918h 4.47874v -6.07378h 4.47874v -2.02459h 4.47874v -7.08607h 4.47874v 15.1844h 4.47874v -14.1721h 4.47874v -11.1353h 4.47874v -5.06148h 4.47874v -5.06148h 4.47874v -11.1353h 4.47874v -11.1353h 4.47874v 10.123h 4.47874v -26.3197h
 4.47874v 16.1967h 4.47874v -32.3935h 4.47874v 15.1844h 4.47874v -12.1476h 4.47874v -16.1967h 4.47874v -6.07378h 4.47874v -5.06148h 4.47874v -16.1967h 4.47874v -5.06148h 4.47874v -31.3812h 4.47874v 3.03689h 4.47874v 9.11066h 4.47874v -14.1721h
 4.47874v -1.0123h 4.47874v -10.123h 4.47874v -24.2951h 4.47874v -9.11066h 4.47874v -7.08607h 4.47874v 42.5164h 4.47874v -29.3566h 4.47874v 6.07378h 4.47874v -21.2582h 4.47874v 2.02459h 4.47874v -9.11066h 4.47874v -10.123h 4.47874v 50.6148h 4.47874v
 -19.2336h 4.47874v -6.07378h 4.47874v 8.09837h 4.47874v 22.2705h 4.47874v -9.11066h 4.47874v 4.04918h 4.47874v 14.1721h 4.47874v 8.09837h 8.95748v 11.1353h 8.95748v -6.07378h 4.47874v 17.209h 4.47874v 27.332h 4.47874v 1.0123h 4.47874v 8.09837h
 4.47874v 27.332h 4.47874v -40.4918h 4.47874v 40.4918h 4.47874v 15.1844h 4.47874v 7.08607h 4.47874v 5.06148h 4.47874v 18.2213h 4.47874v -3.03689h 4.47874v 12.1476h 4.47874v 2.02459h 4.47874v 18.2213h 4.47874v -22.2705h 4.47874v 17.209h 4.47874v
 7.08607h 4.47874v -10.123h 4.47874v 13.1598h 4.47874v -2.02459h 4.47874v 12.1476h 4.47874v -7.08607h 8.95748v 7.08607h 4.47874v 8.09837h 4.47874v -1.0123h 4.47874v -2.02459h 4.47874v -1.0123h 4.47874v 9.11066h 4.47874v 2.02459h 4.47874v -3.03689h
 4.47874v 1.0123h 4.47874v 1.0123h 4.47874v -1.0123h 4.47874" fill="none" stroke="black" stroke-width="2"/>
<path d="M91.2087,297.238h 447.874" fill="none" stroke="black"/>
<path d="M91.2087,288.852v 8.38636" fill="none" stroke="black"/>
<path d="M106.138,293.045v 4.19318" fill="none" stroke="black"/>
<path d="M121.067,293.045v 4.19318" fill="none" stroke="black"/>
<path d="M135.996,293.045v 4.19318" fill="none" stroke="black"/>
<path d="M150.925,293.045v 4.19318" fill="none" stroke="black"/>
<path d="M165.854,288.852v 8.38636" fill="none" stroke="black"/>
<path d="M180.783,293.045v 4.19318" fill="none" stroke="black"/>
<path d="M195.713,293.045v 4.19318" fill="none" stroke="black"/>
<path d="M210.642,293.045v 4.19318" fill="none" stroke="black"/>
<path d="M225.571,293.045v 4.19318" fill="none" stroke="black"/>
<path d="M240.5,288.852v 8.38636" fill="none" stroke="black"/>
<path d="M255.429,293.045v 4.19318" fill="none" stroke="black"/>
<path d="M270.358,293.045v 4.19318" fill="none" stroke="black"/>
<path d="M285.287,293.045v 4.19318" fill="none" stroke="black"/>
<path d="M300.217,293.045v 4.19318" fill="none" stroke="black"/>
<path d="M315.146,288.852v 8.38636" fill="none" stroke="black"/>
<path d="M330.075,293.045v 4.19318" fill="none" stroke="black"/>
<path d="M345.004,293.045v 4.19318" fill="none" stroke="black"/>
<path d="M359.933,293.045v 4.19318" fill="none" stroke="black"/>
<path d="M374.862,293.045v 4.19318" fill="none" stroke="black"/>
<path d="M389.791,288.852v 8.38636" fill="none" stroke="black"/>
<path d="M404.72,293.045v 4.19318" fill="none" stroke="black"/>
<path d="M419.65,293.045v 4.19318" fill="none" stroke="black"/>
<path d="M434.579,293.045v 4.19318" fill="none" stroke="black"/>
<path d="M449.508,293.045v 4.19318" fill="none" stroke="black"/>
<path d="M464.437,288.852v 8.38636" fill="none" stroke="black"/>
<path d="M479.366,293.045v 4.19318" fill="none" stroke="black"/>
<path d="M494.295,293.045v 4.19318" fill="none" stroke="black"/>
<path d="M509.224,293.045v 4.19318" fill="none" stroke="black"/>
<path d="M524.154,293.045v 4.19318" fill="none" stroke="black"/>
<path d="M539.083,288.852v 8.38636" fill="none" stroke="black"/>
<text xml:space="preserve" x="90.8662" y="312.952" fill="black" font-size="16.7319" font-family="Helvetica">3
</text>
<text xml:space="preserve" x="81.354" y="312.952" fill="black" font-size="16.7319" font-family="Times">&#8722;
</text>
<text xml:space="preserve" x="166.013" y="312.952" fill="black" font-size="16.7319" font-family="Helvetica">2
</text>
<text xml:space="preserve" x="156.501" y="312.952" fill="black" font-size="16.7319" font-family="Times">&#8722;
</text>
<text xml:space="preserve" x="241.16" y="312.952" fill="black" font-size="16.7319" font-family="Helvetica">1
</text>
<text xml:space="preserve" x="232.599" y="312.952" fill="black" font-size="16.7319" font-family="Times">&#8722;
</text>
<text xml:space="preserve" x="310.599" y="312.952" fill="black" font-size="16.7319" font-family="Helvetica">0
</text>
<text xml:space="preserve" x="386.697" y="312.952" fill="black" font-size="16.7319" font-family="Helvetica">1
</text>
<text xml:space="preserve" x="459.941" y="312.952" fill="black" font-size="16.7319" font-family="Helvetica">2
</text>
<text xml:space="preserve" x="534.136" y="312.952" fill="black" font-size="16.7319" font-family="Helvetica">3
</text>
<path d="M91.2087,17.6928h 447.874" fill="none" stroke="black"/>
<path d="M91.2087,26.0791v -8.38636" fill="none" stroke="black"/>
<path d="M106.138,21.8859v -4.19318" fill="none" stroke="black"/>
<path d="M121.067,21.8859v -4.19318" fill="none" stroke="black"/>
<path d="M135.996,21.8859v -4.19318" fill="none" stroke="black"/>
<path d="M150.925,21.8859v -4.19318" fill="none" stroke="black"/>
<path d="M165.854,26.0791v -8.38636" fill="none" stroke="black"/>
<path d="M180.783,21.8859v -4.19318" fill="none" stroke="black"/>
<path d="M195.713,21.8859v -4.19318" fill="none" stroke="black"/>
<path d="M210.642,21.8859v -4.19318" fill="none" stroke="black"/>
<path d="M225.571,21.8859v -4.19318" fill="none" stroke="black"/>
<path d="M240.5,26.0791v -8.38636" fill="none" stroke="black"/>
<path d="M255.429,21.8859v -4.19318" fill="none" stroke="black"/>
<path d="M270.358,21.8859v -4.19318" fill="none" stroke="black"/>
<path d="M285.287,21.8859v -4.19318" fill="none" stroke="black"/>
<path d="M300.217,21.8859v -4.19318" fill="none" stroke="black"/>
<path d="M315.146,26.0791v -8.38636" fill="none" stroke="black"/>
<path d="M330.075,21.8859v -4.19318" fill="none" stroke="black"/>
<path d="M345.004,21.8859v -4.19318" fill="none" stroke="black"/>
<path d="M359.933,21.8859v -4.19318" fill="none" stroke="black"/>
<path d="M374.862,21.8859v -4.19318" fill="none" stroke="black"/>
<path d="M389.791,26.0791v -8.38636" fill="none" stroke="black"/>
<path d="M404.72,21.8859v -4.19318" fill="none" stroke="black"/>
<path d="M419.65,21.8859v -4.19318" fill="none" stroke="black"/>
<path d="M434.579,21.8859v -4.19318" fill="none" stroke="black"/>
<path d="M449.508,21.8859v -4.19318" fill="none" stroke="black"/>
<path d="M464.437,26.0791v -8.38636" fill="none" stroke="black"/>
<path d="M479.366,21.8859v -4.19318" fill="none" stroke="black"/>
<path d="M494.295,21.8859v -4.19318" fill="none" stroke="black"/>
<path d="M509.224,21.8859v -4.19318" fill="none" stroke="black"/>
<path d="M524.154,21.8859v -4.19318" fill="none" stroke="black"/>
<path d="M539.083,26.0791v -8.38636" fill="none" stroke="black"/>
<path d="M91.2087,297.238v -279.546" fill="none" stroke="black"/>
<path d="M104.645,297.238h -13.4362" fill="none" stroke="black"/>
<path d="M97.9268,287.115h -6.71811" fill="none" stroke="black"/>
<path d="M97.9268,276.992h -6.71811" fill="none" stroke="black"/>
<path d="M97.9268,266.869h -6.71811" fill="none" stroke="black"/>
<path d="M97.9268,256.746h -6.71811" fill="none" stroke="black"/>
<path d="M104.645,246.623h -13.4362" fill="none" stroke="black"/>
<path d="M97.9268,236.501h -6.71811" fill="none" stroke="black"/>
<path d="M97.9268,226.378h -6.71811" fill="none" stroke="black"/>
<path d="M97.9268,216.255h -6.71811" fill="none" stroke="black"/>
<path d="M97.9268,206.132h -6.71811" fill="none" stroke="black"/>
<path d="M104.645,196.009h -13.4362" fill="none" stroke="black"/>
<path d="M97.9268,185.886h -6.71811" fill="none" stroke="black"/>
<path d="M97.9268,175.763h -6.71811" fill="none" stroke="black"/>
<path d="M97.9268,165.64h -6.71811" fill="none" stroke="black"/>
<path d="M97.9268,155.517h -6.71811" fill="none" stroke="black"/>
<path d="M104.645,145.394h -13.4362" fill="none" stroke="black"/>
<path d="M97.9268,135.271h -6.71811" fill="none" stroke="black"/>
<path d="M97.9268,125.148h -6.71811" fill="none" stroke="black"/>
<path d="M97.9268,115.025h -6.71811" fill="none" stroke="black"/>
<path d="M97.9268,104.902h -6.71811" fill="none" stroke="black"/>
<path d="M104.645,94.7791h -13.4362" fill="none" stroke="black"/>
<path d="M97.9268,84.6561h -6.71811" fill="none" stroke="black"/>
<path d="M97.9268,74.5332h -6.71811" fill="none" stroke="black"/>
<path d="M97.9268,64.4102h -6.71811" fill="none" stroke="black"/>
<path d="M97.9268,54.2873h -6.71811" fill="none" stroke="black"/>
<path d="M104.645,44.1643h -13.4362" fill="none" stroke="black"/>
<path d="M104.645,44.1643h -13.4362" fill="none" stroke="black"/>
<path d="M97.9268,34.0413h -6.71811" fill="none" stroke="black"/>
<path d="M97.9268,23.9184h -6.71811" fill="none" stroke="black"/>
<text xml:space="preserve" x="79.4515" y="303.44" fill="black" font-size="16.7319" font-family="Helvetica">0
</text>
<text xml:space="preserve" x="69.9393" y="253.025" fill="black" font-size="16.7319" font-family="Helvetica">50
</text>
<text xml:space="preserve" x="61.3783" y="202.611" fill="black" font-size="16.7319" font-family="Helvetica">100
</text>
<text xml:space="preserve" x="61.3783" y="152.196" fill="black" font-size="16.7319" font-family="Helvetica">150
</text>
<text xml:space="preserve" x="61.3783" y="101.781" fill="black" font-size="16.7319" font-family="Helvetica">200
</text>
<text xml:space="preserve" x="61.3783" y="50.4148" fill="black" font-size="16.7319" font-family="Helvetica">250
</text>
<path d="M539.083,297.238v -279.546" fill="none" stroke="black"/>
<path d="M525.646,297.238h 13.4362" fill="none" stroke="black"/>
<path d="M532.365,287.115h 6.71811" fill="none" stroke="black"/>
<path d="M532.365,276.992h 6.71811" fill="none" stroke="black"/>
<path d="M532.365,266.869h 6.71811" fill="none" stroke="black"/>
<path d="M532.365,256.746h 6.71811" fill="none" stroke="black"/>
<path d="M525.646,246.623h 13.4362" fill="none" stroke="black"/>
<path d="M532.365,236.501h 6.71811" fill="none" stroke="black"/>
<path d="M532.365,226.378h 6.71811" fill="none" stroke="black"/>
<path d="M532.365,216.255h 6.71811" fill="none" stroke="black"/>
<path d="M532.365,206.132h 6.71811" fill="none" stroke="black"/>
<path d="M525.646,196.009h 13.4362" fill="none" stroke="black"/>
<path d="M532.365,185.886h 6.71811" fill="none" stroke="black"/>
<path d="M532.365,175.763h 6.71811" fill="none" stroke="black"/>
<path d="M532.365,165.64h 6.71811" fill="none" stroke="black"/>
<path d="M532.365,155.517h 6.71811" fill="none" stroke="black"/>
<path d="M525.646,145.394h 13.4362" fill="none" stroke="black"/>
<path d="M532.365,135.271h 6.71811" fill="none" stroke="black"/>
<path d="M532.365,125.148h 6.71811" fill="none" stroke="black"/>
<path d="M532.365,115.025h 6.71811" fill="none" stroke="black"/>
<path d="M532.365,104.902h 6.71811" fill="none" stroke="black"/>
<path d="M525.646,94.7791h 13.4362" fill="none" stroke="black"/>
<path d="M532.365,84.6561h 6.71811" fill="none" stroke="black"/>
<path d="M532.365,74.5332h 6.71811" fill="none" stroke="black"/>
<path d="M532.365,64.4102h 6.71811" fill="none" stroke="black"/>
<path d="M532.365,54.2873h 6.71811" fill="none" stroke="black"/>
<path d="M525.646,44.1643h 13.4362" fill="none" stroke="black"/>
<path d="M525.646,44.1643h 13.4362" fill="none" stroke="black"/>
<path d="M532.365,34.0413h 6.71811" fill="none" stroke="black"/>
<path d="M532.365,23.9184h 6.71811" fill="none" stroke="black"/>
<g fill="black">
<circle cx="93.448" cy="297.187" r="4.56587"/>
</g>
<g fill="black">
<circle cx="97.9268" cy="297.111" r="4.56587"/>
</g>
<g fill="black">
<circle cx="102.406" cy="297.085" r="4.56587"/>
</g>
<g fill="black">
<circle cx="106.884" cy="296.958" r="4.56587"/>
</g>
<g fill="black">
<circle cx="111.363" cy="296.83" r="4.56587"/>
</g>
<g fill="black">
<circle cx="115.842" cy="296.652" r="4.56587"/>
</g>
<g fill="black">
<circle cx="120.32" cy="296.346" r="4.56587"/>
</g>
<g fill="black">
<circle cx="124.799" cy="296.244" r="4.56587"/>
</g>
<g fill="black">
<circle cx="129.278" cy="295.989" r="4.56587"/>
</g>
<g fill="black">
<circle cx="133.757" cy="295.607" r="4.56587"/>
</g>
<g fill="black">
<circle cx="138.235" cy="295.327" r="4.56587"/>
</g>
<g fill="black">
<circle cx="142.714" cy="295.097" r="4.56587"/>
</g>
<g fill="black">
<circle cx="147.193" cy="294.715" r="4.56587"/>
</g>
<g fill="black">
<circle cx="151.672" cy="293.95" r="4.56587"/>
</g>
<g fill="black">
<circle cx="156.15" cy="293.287" r="4.56587"/>
</g>
<g fill="black">
<circle cx="160.629" cy="292.472" r="4.56587"/>
</g>
<g fill="black">
<circle cx="165.108" cy="291.605" r="4.56587"/>
</g>
<g fill="black">
<circle cx="169.587" cy="290.56" r="4.56587"/>
</g>
<g fill="black">
<circle cx="174.065" cy="289.897" r="4.56587"/>
</g>
<g fill="black">
<circle cx="178.544" cy="288.878" r="4.56587"/>
</g>
<g fill="black">
<circle cx="183.023" cy="287.578" r="4.56587"/>
</g>
<g fill="black">
<circle cx="187.502" cy="286.15" r="4.56587"/>
</g>
<g fill="black">
<circle cx="191.98" cy="284.595" r="4.56587"/>
</g>
<g fill="black">
<circle cx="196.459" cy="282.76" r="4.56587"/>
</g>
<g fill="black">
<circle cx="200.938" cy="280.644" r="4.56587"/>
</g>
<g fill="black">
<circle cx="205.417" cy="278.784" r="4.56587"/>
</g>
<g fill="black">
<circle cx="209.895" cy="276.26" r="4.56587"/>
</g>
<g fill="black">
<circle cx="214.374" cy="274.145" r="4.56587"/>
</g>
<g fill="black">
<circle cx="218.853" cy="271.213" r="4.56587"/>
</g>
<g fill="black">
<circle cx="223.331" cy="268.664" r="4.56587"/>
</g>
<g fill="black">
<circle cx="227.81" cy="265.809" r="4.56587"/>
</g>
<g fill="black">
<circle cx="232.289" cy="262.547" r="4.56587"/>
</g>
<g fill="black">
<circle cx="236.768" cy="259.131" r="4.56587"/>
</g>
<g fill="black">
<circle cx="241.246" cy="255.588" r="4.56587"/>
</g>
<g fill="black">
<circle cx="245.725" cy="251.637" r="4.56587"/>
</g>
<g fill="black">
<circle cx="250.204" cy="247.559" r="4.56587"/>
</g>
<g fill="black">
<circle cx="254.683" cy="242.69" r="4.56587"/>
</g>
<g fill="black">
<circle cx="259.161" cy="237.898" r="4.56587"/>
</g>
<g fill="black">
<circle cx="263.64" cy="233.336" r="4.56587"/>
</g>
<g fill="black">
<circle cx="268.119" cy="228.416" r="4.56587"/>
</g>
<g fill="black">
<circle cx="272.598" cy="223.471" r="4.56587"/>
</g>
<g fill="black">
<circle cx="277.076" cy="218.271" r="4.56587"/>
</g>
<g fill="black">
<circle cx="281.555" cy="212.46" r="4.56587"/>
</g>
<g fill="black">
<circle cx="286.034" cy="206.418" r="4.56587"/>
</g>
<g fill="black">
<circle cx="290.513" cy="200.199" r="4.56587"/>
</g>
<g fill="black">
<circle cx="294.991" cy="195.05" r="4.56587"/>
</g>
<g fill="black">
<circle cx="299.47" cy="189.162" r="4.56587"/>
</g>
<g fill="black">
<circle cx="303.949" cy="183.427" r="4.56587"/>
</g>
<g fill="black">
<circle cx="308.428" cy="177.156" r="4.56587"/>
</g>
<g fill="black">
<circle cx="312.906" cy="170.937" r="4.56587"/>
</g>
<g fill="black">
<circle cx="317.385" cy="164.488" r="4.56587"/>
</g>
<g fill="black">
<circle cx="321.864" cy="157.784" r="4.56587"/>
</g>
<g fill="black">
<circle cx="326.343" cy="152.355" r="4.56587"/>
</g>
<g fill="black">
<circle cx="330.821" cy="146.441" r="4.56587"/>
</g>
<g fill="black">
<circle cx="335.3" cy="140.375" r="4.56587"/>
</g>
<g fill="black">
<circle cx="339.779" cy="134.512" r="4.56587"/>
</g>
<g fill="black">
<circle cx="344.257" cy="129.21" r="4.56587"/>
</g>
<g fill="black">
<circle cx="348.736" cy="123.679" r="4.56587"/>
</g>
<g fill="black">
<circle cx="353.215" cy="118.25" r="4.56587"/>
</g>
<g fill="black">
<circle cx="357.694" cy="113.177" r="4.56587"/>
</g>
<g fill="black">
<circle cx="362.172" cy="108.309" r="4.56587"/>
</g>
<g fill="black">
<circle cx="366.651" cy="103.44" r="4.56587"/>
</g>
<g fill="black">
<circle cx="371.13" cy="98.852" r="4.56587"/>
</g>
<g fill="black">
<circle cx="375.609" cy="94.2638" r="4.56587"/>
</g>
<g fill="black">
<circle cx="380.087" cy="89.5227" r="4.56587"/>
</g>
<g fill="black">
<circle cx="384.566" cy="85.215" r="4.56587"/>
</g>
<g fill="black">
<circle cx="389.045" cy="81.5954" r="4.56587"/>
</g>
<g fill="black">
<circle cx="393.524" cy="78.0014" r="4.56587"/>
</g>
<g fill="black">
<circle cx="398.002" cy="74.6112" r="4.56587"/>
</g>
<g fill="black">
<circle cx="402.481" cy="71.9093" r="4.56587"/>
</g>
<g fill="black">
<circle cx="406.96" cy="68.1878" r="4.56587"/>
</g>
<g fill="black">
<circle cx="411.439" cy="65.4859" r="4.56587"/>
</g>
<g fill="black">
<circle cx="415.917" cy="63.1664" r="4.56587"/>
</g>
<g fill="black">
<circle cx="420.396" cy="61.0252" r="4.56587"/>
</g>
<g fill="black">
<circle cx="424.875" cy="59.0116" r="4.56587"/>
</g>
<g fill="black">
<circle cx="429.354" cy="57.4567" r="4.56587"/>
</g>
<g fill="black">
<circle cx="433.832" cy="55.8253" r="4.56587"/>
</g>
<g fill="black">
<circle cx="438.311" cy="54.4999" r="4.56587"/>
</g>
<g fill="black">
<circle cx="442.79" cy="53.2254" r="4.56587"/>
</g>
<g fill="black">
<circle cx="447.268" cy="52.4097" r="4.56587"/>
</g>
<g fill="black">
<circle cx="451.747" cy="51.0333" r="4.56587"/>
</g>
<g fill="black">
<circle cx="456.226" cy="50.0902" r="4.56587"/>
</g>
<g fill="black">
<circle cx="460.705" cy="49.3255" r="4.56587"/>
</g>
<g fill="black">
<circle cx="465.183" cy="48.3059" r="4.56587"/>
</g>
<g fill="black">
<circle cx="469.662" cy="47.6176" r="4.56587"/>
</g>
<g fill="black">
<circle cx="474.141" cy="46.8784" r="4.56587"/>
</g>
<g fill="black">
<circle cx="478.62" cy="46.4451" r="4.56587"/>
</g>
<g fill="black">
<circle cx="483.098" cy="45.8334" r="4.56587"/>
</g>
<g fill="black">
<circle cx="487.577" cy="45.2216" r="4.56587"/>
</g>
<g fill="black">
<circle cx="492.056" cy="44.7883" r="4.56587"/>
</g>
<g fill="black">
<circle cx="496.535" cy="44.5589" r="4.56587"/>
</g>
<g fill="black">
<circle cx="501.013" cy="44.304" r="4.56587"/>
</g>
<g fill="black">
<circle cx="505.492" cy="43.9981" r="4.56587"/>
</g>
<g fill="black">
<circle cx="509.971" cy="43.6667" r="4.56587"/>
</g>
<g fill="black">
<circle cx="514.45" cy="43.5648" r="4.56587"/>
</g>
<g fill="black">
<circle cx="518.928" cy="43.5138" r="4.56587"/>
</g>
<g fill="black">
<circle cx="523.407" cy="43.3864" r="4.56587"/>
</g>
<g fill="black">
<circle cx="527.886" cy="43.2844" r="4.56587"/>
</g>
<g fill="black">
<circle cx="532.365" cy="43.2079" r="4.56587"/>
</g>
<g fill="black">
<circle cx="536.843" cy="43.106" r="4.56587"/>
</g>
<path d="M539.083,297.238v -279.546" fill="none" stroke="#ff0000"/>
<path d="M525.646,297.238h 13.4362" fill="none" stroke="#ff0000"/>
<path d="M532.365,284.493h 6.71811" fill="none" stroke="#ff0000"/>
<path d="M532.365,271.749h 6.71811" fill="none" stroke="#ff0000"/>
<path d="M532.365,259.004h 6.71811" fill="none" stroke="#ff0000"/>
<path d="M525.646,246.259h 13.4362" fill="none" stroke="#ff0000"/>
<path d="M532.365,233.514h 6.71811" fill="none" stroke="#ff0000"/>
<path d="M532.365,220.769h 6.71811" fill="none" stroke="#ff0000"/>
<path d="M532.365,208.024h 6.71811" fill="none" stroke="#ff0000"/>
<path d="M525.646,195.279h 13.4362" fill="none" stroke="#ff0000"/>
<path d="M532.365,182.535h 6.71811" fill="none" stroke="#ff0000"/>
<path d="M532.365,169.79h 6.71811" fill="none" stroke="#ff0000"/>
<path d="M532.365,157.045h 6.71811" fill="none" stroke="#ff0000"/>
<path d="M525.646,144.3h 13.4362" fill="none" stroke="#ff0000"/>
<path d="M532.365,131.555h 6.71811" fill="none" stroke="#ff0000"/>
<path d="M532.365,118.81h 6.71811" fill="none" stroke="#ff0000"/>
<path d="M532.365,106.066h 6.71811" fill="none" stroke="#ff0000"/>
<path d="M525.646,93.3207h 13.4362" fill="none" stroke="#ff0000"/>
<path d="M532.365,80.5758h 6.71811" fill="none" stroke="#ff0000"/>
<path d="M532.365,67.831h 6.71811" fill="none" stroke="#ff0000"/>
<path d="M532.365,55.0861h 6.71811" fill="none" stroke="#ff0000"/>
<path d="M525.646,42.3413h 13.4362" fill="none" stroke="#ff0000"/>
<path d="M525.646,42.3413h 13.4362" fill="none" stroke="#ff0000"/>
<path d="M532.365,29.5964h 6.71811" fill="none" stroke="#ff0000"/>
<text xml:space="preserve" x="541.746" y="302.489" fill="#ff0000" font-size="13.4855" font-family="Helvetica" font-weight="bold">0
</text>
<text xml:space="preserve" x="541.746" y="252.074" fill="#ff0000" font-size="13.4855" font-family="Helvetica" font-weight="bold">2000
</text>
<text xml:space="preserve" x="541.746" y="200.708" fill="#ff0000" font-size="13.4855" font-family="Helvetica" font-weight="bold">4000
</text>
<text xml:space="preserve" x="541.746" y="150.293" fill="#ff0000" font-size="13.4855" font-family="Helvetica" font-weight="bold">6000
</text>
<text xml:space="preserve" x="541.746" y="98.9272" fill="#ff0000" font-size="13.4855" font-family="Helvetica" font-weight="bold">8000
</text>
<text xml:space="preserve" x="541.746" y="48.5124" fill="#ff0000" font-size="13.4855" font-family="Helvetica" font-weight="bold">10000
</text></svg>
