<?xml version="1.0" standalone="no"?>
<svg width="567.429" height="384.969" viewBox="0 0 567.429 384.969" xmlns="http://www.w3.org/2000/svg" shape-rendering="crispEdges">
<title>
./old_svg_ref/xyplot.svg
</title>
<desc>
Creator: ROOT Version 6.33/01
CreationDate: Fri Jun  7 15:06:56 2024</desc>
<defs>
</defs>
<rect x="0.5" y="0" width="566.929" height="384.469" fill="white"/>
<rect x="57.1929" y="38.4469" width="453.543" height="307.575" fill="white"/>
<rect x="57.1929" y="38.4469" width="453.543" height="307.575" fill="none" stroke="white"/>
<rect x="57.1929" y="38.4469" width="453.543" height="307.575" fill="white"/>
<rect x="57.1929" y="38.4469" width="453.543" height="307.575" fill="none" stroke="white"/>
<path d="M57.1929,346.022h 453.543" fill="none" stroke="white"/>
<path d="M63.4921,346.022z" fill="none" stroke="white"/>
<path d="M79.2402,346.022z" fill="none" stroke="white"/>
<path d="M94.9882,346.022z" fill="none" stroke="white"/>
<path d="M110.736,346.022z" fill="none" stroke="white"/>
<path d="M126.484,346.022z" fill="none" stroke="white"/>
<path d="M142.232,346.022z" fill="none" stroke="white"/>
<path d="M157.98,346.022z" fill="none" stroke="white"/>
<path d="M173.728,346.022z" fill="none" stroke="white"/>
<path d="M189.476,346.022z" fill="none" stroke="white"/>
<path d="M205.224,346.022z" fill="none" stroke="white"/>
<path d="M220.972,346.022z" fill="none" stroke="white"/>
<path d="M236.72,346.022z" fill="none" stroke="white"/>
<path d="M252.469,346.022z" fill="none" stroke="white"/>
<path d="M268.217,346.022z" fill="none" stroke="white"/>
<path d="M283.965,346.022z" fill="none" stroke="white"/>
<path d="M299.713,346.022z" fill="none" stroke="white"/>
<path d="M315.461,346.022z" fill="none" stroke="white"/>
<path d="M331.209,346.022z" fill="none" stroke="white"/>
<path d="M346.957,346.022z" fill="none" stroke="white"/>
<path d="M362.705,346.022z" fill="none" stroke="white"/>
<path d="M378.453,346.022z" fill="none" stroke="white"/>
<path d="M394.201,346.022z" fill="none" stroke="white"/>
<path d="M409.949,346.022z" fill="none" stroke="white"/>
<path d="M425.697,346.022z" fill="none" stroke="white"/>
<path d="M441.445,346.022z" fill="none" stroke="white"/>
<path d="M457.193,346.022z" fill="none" stroke="white"/>
<path d="M472.941,346.022z" fill="none" stroke="white"/>
<path d="M488.689,346.022z" fill="none" stroke="white"/>
<path d="M504.437,346.022z" fill="none" stroke="white"/>
<path d="M63.4921,346.022z" fill="none" stroke="white"/>
<path d="M504.437,346.022z" fill="none" stroke="white"/>
<path d="M57.1929,346.022v -307.575" fill="none" stroke="white"/>
<path d="M57.1929,334.631z" fill="none" stroke="white"/>
<path d="M57.1929,320.391z" fill="none" stroke="white"/>
<path d="M57.1929,306.151z" fill="none" stroke="white"/>
<path d="M57.1929,291.912z" fill="none" stroke="white"/>
<path d="M57.1929,277.672z" fill="none" stroke="white"/>
<path d="M57.1929,263.433z" fill="none" stroke="white"/>
<path d="M57.1929,249.193z" fill="none" stroke="white"/>
<path d="M57.1929,234.953z" fill="none" stroke="white"/>
<path d="M57.1929,220.714z" fill="none" stroke="white"/>
<path d="M57.1929,206.474z" fill="none" stroke="white"/>
<path d="M57.1929,192.235z" fill="none" stroke="white"/>
<path d="M57.1929,177.995z" fill="none" stroke="white"/>
<path d="M57.1929,163.755z" fill="none" stroke="white"/>
<path d="M57.1929,149.516z" fill="none" stroke="white"/>
<path d="M57.1929,135.276z" fill="none" stroke="white"/>
<path d="M57.1929,121.037z" fill="none" stroke="white"/>
<path d="M57.1929,106.797z" fill="none" stroke="white"/>
<path d="M57.1929,92.5574z" fill="none" stroke="white"/>
<path d="M57.1929,78.3178z" fill="none" stroke="white"/>
<path d="M57.1929,64.0782z" fill="none" stroke="white"/>
<path d="M57.1929,49.8386z" fill="none" stroke="white"/>
<path d="M57.1929,334.631z" fill="none" stroke="white"/>
<path d="M57.1929,49.8386z" fill="none" stroke="white"/>
<path d="M346.957,334.631l 11.0328, -3.48385l 10.1161, -3.93619l 9.25763, -4.32951l 9.92244, -5.55999l 9.28365, -6.25444l 8.61079, -6.94985l 7.82788, -7.56783l 7.11569, -8.27884l 6.33802, -8.9739l 5.49173, -9.63664l 4.57919, -10.2515l 3.60668,
 -10.8051l 2.78809, -12.4703l 1.45174, -12.4131l 0.227824, -12.2978l -0.906075, -12.1332l -1.96823, -11.9237l -2.97306, -11.6707l -3.93148, -11.3732l -4.85122, -11.029l -5.73698, -10.6345l -6.59011, -10.1856l -7.40761, -9.6763l -8.18018, -9.09987l
 -8.89007, -8.44924l -9.5111, -7.72092l -10.0165, -6.92247l -11.5865, -6.71034l -10.4681, -5.03286l -11.2756, -4.4612l -11.515, -3.63528l -11.8819, -2.86692l -11.9087, -2.04664l -12.2615, -1.306l -8.78246, -0.465596l -13.768, -0.0366534l -13.6537,
 0.737612" fill="none" stroke="#ff0000"/>
<path d="M256.543,64.7792l -13.6142, 1.49601l -13.6431, 2.26464l -13.7144, 3.06414l -13.7724, 3.90161l -13.7278, 4.75902l -13.4774, 5.58676l -12.9645, 6.32334l -12.6381, 7.18824l -10.1595, 6.63609l -10.8496, 8.10648l -10.0344, 8.66993l -9.07804,
 9.12557l -7.6458, 8.9944l -6.2356, 8.62041l -5.11919, 8.62227l -3.66809, 8.17792l -2.33238, 7.77173l -1.09182, 7.40481l 0.0758677, 7.07679l 1.19412, 6.78554l 2.66602, 7.36342l 3.88236, 6.81006l 4.95079, 6.28817l 5.88605, 5.79604l 6.70174, 5.332l
 7.41038, 4.89439l 9.80923, 5.38796l 11.3603, 5.15191l 12.8994, 4.8293l 14.5223, 4.46322l 16.0839, 4.00714l 17.5233, 3.46363l 21.4154, 3.17402l 21.595, 2.18687l 21.5269, 1.27251l 21.2282, 0.422212l 20.7129, -0.36823" fill="none" stroke="#ff0000"/>
<path d="M304.221,265.829l 19.9968, -1.09961l 19.1015, -1.77079l 18.0549, -2.38027l 16.8903, -2.92752l 15.6431, -3.41382l 14.3478, -3.84264l 13.0356, -4.21965l 11.7319, -4.55246l 10.4555, -4.85012l 9.21751, -5.12248l 8.02075, -5.37902l 6.86015,
 -5.62693l 5.72386, -5.86822l 4.5979, -6.0969l 3.475, -6.30124l 2.52205, -7.0727l 1.13931, -6.30791l 0.142916, -7.11341l -1.03096, -7.40471l -2.4543, -8.25852l -3.50383, -7.83489l -5.24764, -8.86985" fill="none" stroke="#ff0000"/>
<g stroke="black" stroke-width="1" fill="none">
<line x1="343.698" y1="334.631" x2="350.215" y2="334.631"/><line x1="346.957" y1="331.372" x2="346.957" y2="337.889"/><line x1="344.653" y1="332.327" x2="349.26" y2="336.934"/><line x1="344.653" y1="336.934" x2="349.26" y2="332.327"/>
<line x1="280.706" y1="64.0782" x2="287.223" y2="64.0782"/><line x1="283.965" y1="60.82" x2="283.965" y2="67.3364"/><line x1="281.661" y1="61.7746" x2="286.268" y2="66.3818"/><line x1="281.661" y1="66.3818" x2="286.268" y2="61.7746"/>
<line x1="91.73" y1="149.516" x2="98.2464" y2="149.516"/><line x1="94.9882" y1="146.258" x2="94.9882" y2="152.774"/><line x1="92.6846" y1="147.212" x2="97.2917" y2="151.819"/><line x1="92.6846" y1="151.819" x2="97.2917" y2="147.212"/>
<line x1="469.683" y1="149.516" x2="476.199" y2="149.516"/><line x1="472.941" y1="146.258" x2="472.941" y2="152.774"/><line x1="470.637" y1="147.212" x2="475.245" y2="151.819"/><line x1="470.637" y1="151.819" x2="475.245" y2="147.212"/>
</g>
<text xml:space="preserve" x="253.826" y="18.7347" fill="black" font-size="18.7938" font-family="Helvetica">XY plot
</text>
<path d="M378.453,346.022v -307.575" fill="none" stroke="black"/>
<path d="M364.846,346.022h 13.6063" fill="none" stroke="black"/>
<path d="M364.846,294.76h 13.6063" fill="none" stroke="black"/>
<path d="M364.846,243.497h 13.6063" fill="none" stroke="black"/>
<path d="M364.846,192.235h 13.6063" fill="none" stroke="black"/>
<path d="M364.846,140.972h 13.6063" fill="none" stroke="black"/>
<path d="M364.846,89.7095h 13.6063" fill="none" stroke="black"/>
<path d="M364.846,38.4469h 13.6063" fill="none" stroke="black"/>
<text xml:space="preserve" x="388.227" y="351.887" fill="black" font-size="14.609" font-family="Helvetica" font-weight="bold">1080
</text>
<text xml:space="preserve" x="380.896" y="351.887" fill="black" font-size="14.609" font-family="Times">&#8722;
</text>
<text xml:space="preserve" x="388.227" y="300.57" fill="black" font-size="14.609" font-family="Helvetica" font-weight="bold">720
</text>
<text xml:space="preserve" x="380.896" y="300.57" fill="black" font-size="14.609" font-family="Times">&#8722;
</text>
<text xml:space="preserve" x="388.227" y="249.253" fill="black" font-size="14.609" font-family="Helvetica" font-weight="bold">360
</text>
<text xml:space="preserve" x="380.896" y="249.253" fill="black" font-size="14.609" font-family="Times">&#8722;
</text>
<text xml:space="preserve" x="380.896" y="146.62" fill="black" font-size="14.609" font-family="Helvetica" font-weight="bold">360
</text>
<text xml:space="preserve" x="380.896" y="95.3027" fill="black" font-size="14.609" font-family="Helvetica" font-weight="bold">720
</text>
<text xml:space="preserve" x="380.896" y="43.9859" fill="black" font-size="14.609" font-family="Helvetica" font-weight="bold">1080
</text>
<g transform="rotate(-90,362.976,69.237)">
<text xml:space="preserve" x="362.976" y="69.237" fill="black" font-size="11.0817" font-family="Helvetica" font-weight="bold">Y axis
</text>
</g>
<path d="M57.1929,192.235h 453.543" fill="none" stroke="black"/>
<path d="M63.4921,183.007v 9.22726" fill="none" stroke="black"/>
<path d="M79.2402,187.621v 4.61363" fill="none" stroke="black"/>
<path d="M94.9882,187.621v 4.61363" fill="none" stroke="black"/>
<path d="M110.736,187.621v 4.61363" fill="none" stroke="black"/>
<path d="M126.484,183.007v 9.22726" fill="none" stroke="black"/>
<path d="M142.232,187.621v 4.61363" fill="none" stroke="black"/>
<path d="M157.98,187.621v 4.61363" fill="none" stroke="black"/>
<path d="M173.728,187.621v 4.61363" fill="none" stroke="black"/>
<path d="M189.476,183.007v 9.22726" fill="none" stroke="black"/>
<path d="M205.224,187.621v 4.61363" fill="none" stroke="black"/>
<path d="M220.972,187.621v 4.61363" fill="none" stroke="black"/>
<path d="M236.72,187.621v 4.61363" fill="none" stroke="black"/>
<path d="M252.469,183.007v 9.22726" fill="none" stroke="black"/>
<path d="M268.217,187.621v 4.61363" fill="none" stroke="black"/>
<path d="M283.965,187.621v 4.61363" fill="none" stroke="black"/>
<path d="M299.713,187.621v 4.61363" fill="none" stroke="black"/>
<path d="M315.461,183.007v 9.22726" fill="none" stroke="black"/>
<path d="M331.209,187.621v 4.61363" fill="none" stroke="black"/>
<path d="M346.957,187.621v 4.61363" fill="none" stroke="black"/>
<path d="M362.705,187.621v 4.61363" fill="none" stroke="black"/>
<path d="M378.453,183.007v 9.22726" fill="none" stroke="black"/>
<path d="M394.201,187.621v 4.61363" fill="none" stroke="black"/>
<path d="M409.949,187.621v 4.61363" fill="none" stroke="black"/>
<path d="M425.697,187.621v 4.61363" fill="none" stroke="black"/>
<path d="M441.445,183.007v 9.22726" fill="none" stroke="black"/>
<path d="M457.193,187.621v 4.61363" fill="none" stroke="black"/>
<path d="M472.941,187.621v 4.61363" fill="none" stroke="black"/>
<path d="M488.689,187.621v 4.61363" fill="none" stroke="black"/>
<path d="M504.437,183.007v 9.22726" fill="none" stroke="black"/>
<path d="M63.4921,183.007v 9.22726" fill="none" stroke="black"/>
<path d="M504.437,183.007v 9.22726" fill="none" stroke="black"/>
<text xml:space="preserve" x="58.3333" y="206.082" fill="black" font-size="14.609" font-family="Helvetica" font-weight="bold">10
</text>
<text xml:space="preserve" x="51.0023" y="206.082" fill="black" font-size="14.609" font-family="Times">&#8722;
</text>
<text xml:space="preserve" x="125.941" y="206.082" fill="black" font-size="14.609" font-family="Helvetica" font-weight="bold">8
</text>
<text xml:space="preserve" x="118.61" y="206.082" fill="black" font-size="14.609" font-family="Times">&#8722;
</text>
<text xml:space="preserve" x="188.662" y="206.082" fill="black" font-size="14.609" font-family="Helvetica" font-weight="bold">6
</text>
<text xml:space="preserve" x="181.331" y="206.082" fill="black" font-size="14.609" font-family="Times">&#8722;
</text>
<text xml:space="preserve" x="251.382" y="206.082" fill="black" font-size="14.609" font-family="Helvetica" font-weight="bold">4
</text>
<text xml:space="preserve" x="244.051" y="206.082" fill="black" font-size="14.609" font-family="Times">&#8722;
</text>
<text xml:space="preserve" x="314.918" y="206.082" fill="black" font-size="14.609" font-family="Helvetica" font-weight="bold">2
</text>
<text xml:space="preserve" x="307.587" y="206.082" fill="black" font-size="14.609" font-family="Times">&#8722;
</text>
<text xml:space="preserve" x="374.38" y="206.082" fill="black" font-size="14.609" font-family="Helvetica" font-weight="bold">0
</text>
<text xml:space="preserve" x="437.101" y="206.082" fill="black" font-size="14.609" font-family="Helvetica" font-weight="bold">2
</text>
<text xml:space="preserve" x="500.636" y="206.082" fill="black" font-size="14.609" font-family="Helvetica" font-weight="bold">4
</text>
<text xml:space="preserve" x="479.457" y="220.744" fill="black" font-size="11.0817" font-family="Helvetica" font-weight="bold">X axis
</text></svg>
