<?xml version="1.0" standalone="no"?>
<svg width="567.429" height="384.969" viewBox="0 0 567.429 384.969" xmlns="http://www.w3.org/2000/svg" shape-rendering="crispEdges">
<title>
./old_svg_ref/xyplot.svg
</title>
<desc>
Creator: ROOT Version 6.33.01
CreationDate: Wed Jul 10 10:04:29 2024</desc>
<defs>
</defs>
<rect x="0.5" y="0" width="566.929" height="384.469" fill="white"/>
<rect x="91.2087" y="19.2235" width="447.874" height="303.731" fill="white"/>
<rect x="91.2087" y="19.2235" width="447.874" height="303.731" fill="none" stroke="white"/>
<rect x="91.2087" y="19.2235" width="447.874" height="303.731" fill="white"/>
<rect x="91.2087" y="19.2235" width="447.874" height="303.731" fill="none" stroke="white"/>
<path d="M91.2087,322.954h 447.874" fill="none" stroke="white"/>
<path d="M97.4291,322.954z" fill="none" stroke="white"/>
<path d="M112.98,322.954z" fill="none" stroke="white"/>
<path d="M128.531,322.954z" fill="none" stroke="white"/>
<path d="M144.083,322.954z" fill="none" stroke="white"/>
<path d="M159.634,322.954z" fill="none" stroke="white"/>
<path d="M175.185,322.954z" fill="none" stroke="white"/>
<path d="M190.736,322.954z" fill="none" stroke="white"/>
<path d="M206.287,322.954z" fill="none" stroke="white"/>
<path d="M221.839,322.954z" fill="none" stroke="white"/>
<path d="M237.39,322.954z" fill="none" stroke="white"/>
<path d="M252.941,322.954z" fill="none" stroke="white"/>
<path d="M268.492,322.954z" fill="none" stroke="white"/>
<path d="M284.043,322.954z" fill="none" stroke="white"/>
<path d="M299.594,322.954z" fill="none" stroke="white"/>
<path d="M315.146,322.954z" fill="none" stroke="white"/>
<path d="M330.697,322.954z" fill="none" stroke="white"/>
<path d="M346.248,322.954z" fill="none" stroke="white"/>
<path d="M361.799,322.954z" fill="none" stroke="white"/>
<path d="M377.35,322.954z" fill="none" stroke="white"/>
<path d="M392.902,322.954z" fill="none" stroke="white"/>
<path d="M408.453,322.954z" fill="none" stroke="white"/>
<path d="M424.004,322.954z" fill="none" stroke="white"/>
<path d="M439.555,322.954z" fill="none" stroke="white"/>
<path d="M455.106,322.954z" fill="none" stroke="white"/>
<path d="M470.657,322.954z" fill="none" stroke="white"/>
<path d="M486.209,322.954z" fill="none" stroke="white"/>
<path d="M501.76,322.954z" fill="none" stroke="white"/>
<path d="M517.311,322.954z" fill="none" stroke="white"/>
<path d="M532.862,322.954z" fill="none" stroke="white"/>
<path d="M97.4291,322.954z" fill="none" stroke="white"/>
<path d="M532.862,322.954z" fill="none" stroke="white"/>
<path d="M91.2087,19.2235h 447.874" fill="none" stroke="white"/>
<path d="M97.4291,19.2235z" fill="none" stroke="white"/>
<path d="M112.98,19.2235z" fill="none" stroke="white"/>
<path d="M128.531,19.2235z" fill="none" stroke="white"/>
<path d="M144.083,19.2235z" fill="none" stroke="white"/>
<path d="M159.634,19.2235z" fill="none" stroke="white"/>
<path d="M175.185,19.2235z" fill="none" stroke="white"/>
<path d="M190.736,19.2235z" fill="none" stroke="white"/>
<path d="M206.287,19.2235z" fill="none" stroke="white"/>
<path d="M221.839,19.2235z" fill="none" stroke="white"/>
<path d="M237.39,19.2235z" fill="none" stroke="white"/>
<path d="M252.941,19.2235z" fill="none" stroke="white"/>
<path d="M268.492,19.2235z" fill="none" stroke="white"/>
<path d="M284.043,19.2235z" fill="none" stroke="white"/>
<path d="M299.594,19.2235z" fill="none" stroke="white"/>
<path d="M315.146,19.2235z" fill="none" stroke="white"/>
<path d="M330.697,19.2235z" fill="none" stroke="white"/>
<path d="M346.248,19.2235z" fill="none" stroke="white"/>
<path d="M361.799,19.2235z" fill="none" stroke="white"/>
<path d="M377.35,19.2235z" fill="none" stroke="white"/>
<path d="M392.902,19.2235z" fill="none" stroke="white"/>
<path d="M408.453,19.2235z" fill="none" stroke="white"/>
<path d="M424.004,19.2235z" fill="none" stroke="white"/>
<path d="M439.555,19.2235z" fill="none" stroke="white"/>
<path d="M455.106,19.2235z" fill="none" stroke="white"/>
<path d="M470.657,19.2235z" fill="none" stroke="white"/>
<path d="M486.209,19.2235z" fill="none" stroke="white"/>
<path d="M501.76,19.2235z" fill="none" stroke="white"/>
<path d="M517.311,19.2235z" fill="none" stroke="white"/>
<path d="M532.862,19.2235z" fill="none" stroke="white"/>
<path d="M97.4291,19.2235z" fill="none" stroke="white"/>
<path d="M532.862,19.2235z" fill="none" stroke="white"/>
<path d="M91.2087,322.954v -303.731" fill="none" stroke="white"/>
<path d="M91.2087,311.705z" fill="none" stroke="white"/>
<path d="M91.2087,297.643z" fill="none" stroke="white"/>
<path d="M91.2087,283.582z" fill="none" stroke="white"/>
<path d="M91.2087,269.52z" fill="none" stroke="white"/>
<path d="M91.2087,255.458z" fill="none" stroke="white"/>
<path d="M91.2087,241.397z" fill="none" stroke="white"/>
<path d="M91.2087,227.335z" fill="none" stroke="white"/>
<path d="M91.2087,213.274z" fill="none" stroke="white"/>
<path d="M91.2087,199.212z" fill="none" stroke="white"/>
<path d="M91.2087,185.15z" fill="none" stroke="white"/>
<path d="M91.2087,171.089z" fill="none" stroke="white"/>
<path d="M91.2087,157.027z" fill="none" stroke="white"/>
<path d="M91.2087,142.966z" fill="none" stroke="white"/>
<path d="M91.2087,128.904z" fill="none" stroke="white"/>
<path d="M91.2087,114.842z" fill="none" stroke="white"/>
<path d="M91.2087,100.781z" fill="none" stroke="white"/>
<path d="M91.2087,86.7192z" fill="none" stroke="white"/>
<path d="M91.2087,72.6576z" fill="none" stroke="white"/>
<path d="M91.2087,58.596z" fill="none" stroke="white"/>
<path d="M91.2087,44.5343z" fill="none" stroke="white"/>
<path d="M91.2087,30.4727z" fill="none" stroke="white"/>
<path d="M91.2087,311.705z" fill="none" stroke="white"/>
<path d="M91.2087,30.4727z" fill="none" stroke="white"/>
<path d="M539.083,322.954v -303.731" fill="none" stroke="white"/>
<path d="M539.083,311.705z" fill="none" stroke="white"/>
<path d="M539.083,297.643z" fill="none" stroke="white"/>
<path d="M539.083,283.582z" fill="none" stroke="white"/>
<path d="M539.083,269.52z" fill="none" stroke="white"/>
<path d="M539.083,255.458z" fill="none" stroke="white"/>
<path d="M539.083,241.397z" fill="none" stroke="white"/>
<path d="M539.083,227.335z" fill="none" stroke="white"/>
<path d="M539.083,213.274z" fill="none" stroke="white"/>
<path d="M539.083,199.212z" fill="none" stroke="white"/>
<path d="M539.083,185.15z" fill="none" stroke="white"/>
<path d="M539.083,171.089z" fill="none" stroke="white"/>
<path d="M539.083,157.027z" fill="none" stroke="white"/>
<path d="M539.083,142.966z" fill="none" stroke="white"/>
<path d="M539.083,128.904z" fill="none" stroke="white"/>
<path d="M539.083,114.842z" fill="none" stroke="white"/>
<path d="M539.083,100.781z" fill="none" stroke="white"/>
<path d="M539.083,86.7192z" fill="none" stroke="white"/>
<path d="M539.083,72.6576z" fill="none" stroke="white"/>
<path d="M539.083,58.596z" fill="none" stroke="white"/>
<path d="M539.083,44.5343z" fill="none" stroke="white"/>
<path d="M539.083,30.4727z" fill="none" stroke="white"/>
<path d="M539.083,311.705z" fill="none" stroke="white"/>
<path d="M539.083,30.4727z" fill="none" stroke="white"/>
<path d="M377.35,311.705l 10.8949, -3.4403l 9.98963, -3.88698l 9.14191, -4.27539l 9.79841, -5.49049l 9.16761, -6.17626l 8.50316, -6.86297l 7.73003, -7.47323l 7.02675, -8.17535l 6.25879, -8.86173l 5.42308, -9.51618l 4.52195, -10.1234l 3.56159, -10.67l
 2.75323, -12.3145l 1.43359, -12.258l 0.224976, -12.1441l -0.894749, -11.9815l -1.94363, -11.7747l -2.9359, -11.5248l -3.88234, -11.231l -4.79058, -10.8911l -5.66527, -10.5016l -6.50774, -10.0582l -7.31502, -9.55534l -8.07792, -8.98613l -8.77894,
 -8.34363l -9.39221, -7.62441l -9.89127, -6.83594l -11.4416, -6.62646l -10.3373, -4.96995l -11.1347, -4.40544l -11.3711, -3.58984l -11.7333, -2.83109l -11.7598, -2.02106l -12.1083, -1.28968l -8.67268, -0.459776l -13.5959, -0.0361952l -13.483,
 0.728392" fill="none" stroke="#ff0000"/>
<path d="M288.067,45.2265l -13.444, 1.47731l -13.4725, 2.23633l -13.5429, 3.02584l -13.6002, 3.85284l -13.5562, 4.69953l -13.309, 5.51693l -12.8024, 6.2443l -12.4801, 7.09839l -10.0325, 6.55314l -10.714, 8.00515l -9.90893, 8.56156l -8.96457, 9.0115l
 -7.55023, 8.88197l -6.15766, 8.51266l -5.0552, 8.51449l -3.62224, 8.0757l -2.30323, 7.67459l -1.07817, 7.31225l 0.0749194, 6.98833l 1.17919, 6.70072l 2.63269, 7.27138l 3.83383, 6.72494l 4.88891, 6.20956l 5.81247, 5.72359l 6.61797, 5.26535l 7.31775,
 4.83321l 9.68661, 5.32061l 11.2183, 5.08751l 12.7381, 4.76894l 14.3407, 4.40743l 15.8829, 3.95705l 17.3043, 3.42033l 21.1477, 3.13435l 21.325, 2.15954l 21.2578, 1.25661l 20.9629, 0.416935l 20.454, -0.363628" fill="none" stroke="#ff0000"/>
<path d="M335.149,243.764l 19.7469, -1.08586l 18.8627, -1.74865l 17.8292, -2.35052l 16.6792, -2.89093l 15.4475, -3.37115l 14.1684, -3.79461l 12.8726, -4.16691l 11.5853, -4.49555l 10.3248, -4.7895l 9.10229, -5.05845l 7.9205, -5.31179l 6.77439,
 -5.5566l 5.65231, -5.79487l 4.54042, -6.02069l 3.43157, -6.22248l 2.49052, -6.9843l 1.12507, -6.22907l 0.141129, -7.02449l -1.01807, -7.31215l -2.42362, -8.15529l -3.46003, -7.73695l -5.18205, -8.75898" fill="none" stroke="#ff0000"/>
<g stroke="black" stroke-width="1" fill="none">
<line x1="373.441" y1="311.705" x2="381.26" y2="311.705"/><line x1="377.35" y1="307.795" x2="377.35" y2="315.615"/><line x1="374.586" y1="308.941" x2="380.115" y2="314.469"/><line x1="374.586" y1="314.469" x2="380.115" y2="308.941"/>
<line x1="311.236" y1="44.5343" x2="319.056" y2="44.5343"/><line x1="315.146" y1="40.6245" x2="315.146" y2="48.4442"/><line x1="312.381" y1="41.7701" x2="317.91" y2="47.2986"/><line x1="312.381" y1="47.2986" x2="317.91" y2="41.7701"/>
<line x1="124.622" y1="128.904" x2="132.441" y2="128.904"/><line x1="128.531" y1="124.994" x2="128.531" y2="132.814"/><line x1="125.767" y1="126.14" x2="131.296" y2="131.668"/><line x1="125.767" y1="131.668" x2="131.296" y2="126.14"/>
<line x1="497.85" y1="128.904" x2="505.67" y2="128.904"/><line x1="501.76" y1="124.994" x2="501.76" y2="132.814"/><line x1="498.996" y1="126.14" x2="504.524" y2="131.668"/><line x1="498.996" y1="131.668" x2="504.524" y2="126.14"/>
</g>
<path d="M408.453,322.954v -303.731" fill="none" stroke="black"/>
<path d="M395.017,322.954h 13.4362" fill="none" stroke="black"/>
<path d="M395.017,272.332h 13.4362" fill="none" stroke="black"/>
<path d="M395.017,221.711h 13.4362" fill="none" stroke="black"/>
<path d="M395.017,171.089h 13.4362" fill="none" stroke="black"/>
<path d="M395.017,120.467h 13.4362" fill="none" stroke="black"/>
<path d="M395.017,69.8452h 13.4362" fill="none" stroke="black"/>
<path d="M395.017,19.2235h 13.4362" fill="none" stroke="black"/>
<text xml:space="preserve" x="418.366" y="328.265" fill="black" font-size="14.609" font-family="Helvetica" font-weight="bold">1080
</text>
<text xml:space="preserve" x="411.035" y="328.265" fill="black" font-size="14.609" font-family="Times">&#8722;
</text>
<text xml:space="preserve" x="418.366" y="277.763" fill="black" font-size="14.609" font-family="Helvetica" font-weight="bold">720
</text>
<text xml:space="preserve" x="411.035" y="277.763" fill="black" font-size="14.609" font-family="Times">&#8722;
</text>
<text xml:space="preserve" x="418.366" y="227.26" fill="black" font-size="14.609" font-family="Helvetica" font-weight="bold">360
</text>
<text xml:space="preserve" x="411.035" y="227.26" fill="black" font-size="14.609" font-family="Times">&#8722;
</text>
<text xml:space="preserve" x="411.035" y="126.256" fill="black" font-size="14.609" font-family="Helvetica" font-weight="bold">360
</text>
<text xml:space="preserve" x="411.035" y="75.7535" fill="black" font-size="14.609" font-family="Helvetica" font-weight="bold">720
</text>
<text xml:space="preserve" x="411.035" y="25.2512" fill="black" font-size="14.609" font-family="Helvetica" font-weight="bold">1080
</text>
<g transform="rotate(-90,393.115,48.0586)">
<text xml:space="preserve" x="393.115" y="48.0586" fill="black" font-size="11.0817" font-family="Helvetica">Y axis
</text>
</g>
<path d="M91.2087,171.089h 447.874" fill="none" stroke="black"/>
<path d="M97.4291,161.977v 9.11192" fill="none" stroke="black"/>
<path d="M112.98,166.533v 4.55596" fill="none" stroke="black"/>
<path d="M128.531,166.533v 4.55596" fill="none" stroke="black"/>
<path d="M144.083,166.533v 4.55596" fill="none" stroke="black"/>
<path d="M159.634,161.977v 9.11192" fill="none" stroke="black"/>
<path d="M175.185,166.533v 4.55596" fill="none" stroke="black"/>
<path d="M190.736,166.533v 4.55596" fill="none" stroke="black"/>
<path d="M206.287,166.533v 4.55596" fill="none" stroke="black"/>
<path d="M221.839,161.977v 9.11192" fill="none" stroke="black"/>
<path d="M237.39,166.533v 4.55596" fill="none" stroke="black"/>
<path d="M252.941,166.533v 4.55596" fill="none" stroke="black"/>
<path d="M268.492,166.533v 4.55596" fill="none" stroke="black"/>
<path d="M284.043,161.977v 9.11192" fill="none" stroke="black"/>
<path d="M299.594,166.533v 4.55596" fill="none" stroke="black"/>
<path d="M315.146,166.533v 4.55596" fill="none" stroke="black"/>
<path d="M330.697,166.533v 4.55596" fill="none" stroke="black"/>
<path d="M346.248,161.977v 9.11192" fill="none" stroke="black"/>
<path d="M361.799,166.533v 4.55596" fill="none" stroke="black"/>
<path d="M377.35,166.533v 4.55596" fill="none" stroke="black"/>
<path d="M392.902,166.533v 4.55596" fill="none" stroke="black"/>
<path d="M408.453,161.977v 9.11192" fill="none" stroke="black"/>
<path d="M424.004,166.533v 4.55596" fill="none" stroke="black"/>
<path d="M439.555,166.533v 4.55596" fill="none" stroke="black"/>
<path d="M455.106,166.533v 4.55596" fill="none" stroke="black"/>
<path d="M470.657,161.977v 9.11192" fill="none" stroke="black"/>
<path d="M486.209,166.533v 4.55596" fill="none" stroke="black"/>
<path d="M501.76,166.533v 4.55596" fill="none" stroke="black"/>
<path d="M517.311,166.533v 4.55596" fill="none" stroke="black"/>
<path d="M532.862,161.977v 9.11192" fill="none" stroke="black"/>
<path d="M97.4291,161.977v 9.11192" fill="none" stroke="black"/>
<path d="M532.862,161.977v 9.11192" fill="none" stroke="black"/>
<text xml:space="preserve" x="92.5445" y="185.718" fill="black" font-size="14.609" font-family="Helvetica" font-weight="bold">10
</text>
<text xml:space="preserve" x="85.2135" y="185.718" fill="black" font-size="14.609" font-family="Times">&#8722;
</text>
<text xml:space="preserve" x="158.523" y="185.718" fill="black" font-size="14.609" font-family="Helvetica" font-weight="bold">8
</text>
<text xml:space="preserve" x="151.192" y="185.718" fill="black" font-size="14.609" font-family="Times">&#8722;
</text>
<text xml:space="preserve" x="221.244" y="185.718" fill="black" font-size="14.609" font-family="Helvetica" font-weight="bold">6
</text>
<text xml:space="preserve" x="213.913" y="185.718" fill="black" font-size="14.609" font-family="Times">&#8722;
</text>
<text xml:space="preserve" x="283.15" y="185.718" fill="black" font-size="14.609" font-family="Helvetica" font-weight="bold">4
</text>
<text xml:space="preserve" x="275.819" y="185.718" fill="black" font-size="14.609" font-family="Times">&#8722;
</text>
<text xml:space="preserve" x="345.056" y="185.718" fill="black" font-size="14.609" font-family="Helvetica" font-weight="bold">2
</text>
<text xml:space="preserve" x="337.725" y="185.718" fill="black" font-size="14.609" font-family="Times">&#8722;
</text>
<text xml:space="preserve" x="404.518" y="185.718" fill="black" font-size="14.609" font-family="Helvetica" font-weight="bold">0
</text>
<text xml:space="preserve" x="466.425" y="185.718" fill="black" font-size="14.609" font-family="Helvetica" font-weight="bold">2
</text>
<text xml:space="preserve" x="529.145" y="185.718" fill="black" font-size="14.609" font-family="Helvetica" font-weight="bold">4
</text>
<text xml:space="preserve" x="510.41" y="199.566" fill="black" font-size="11.0817" font-family="Helvetica">X axis
</text></svg>
