<?xml version="1.0" standalone="no"?>
<svg width="567.429" height="384.969" viewBox="0 0 567.429 384.969" xmlns="http://www.w3.org/2000/svg" shape-rendering="crispEdges">
<title>
./old_svg_pro/arrows_pro.svg
</title>
<desc>
Creator: ROOT Version 6.33/01
CreationDate: Wed May 29 17:16:57 2024</desc>
<defs>
</defs>
<rect x="0.5" y="0" width="566.929" height="384.469" fill="white"/>
<rect x="57.1929" y="19.2235" width="453.543" height="57.6704" fill="#ddba87"/>
<path d="M60.8584,76.8938v 2.44366h 452.321v -56.4485h -2.44366v 54.0049z" fill="black"/>
<path d="M57.1929,76.8938v -57.6704h 453.543v 57.6704h -453.543z" fill="none" stroke="black"/>
<text xml:space="preserve" x="80.3262" y="54.5751" fill="black" font-size="24.0473" font-family="Helvetica" font-weight="bold">Examples of various arrows formats
</text>
<path d="M57.1929,346.022v -230.682" fill="none" stroke="black"/>
<path d="M45.7368,135.183l 11.4561, -19.8425l 11.4561, 19.8425" fill="none" stroke="black"/>
<path d="M113.886,346.022v -210.839" fill="none" stroke="black" stroke-width="2"/>
<path d="M106.664,135.183l 7.22209, -19.8425l 7.22209, 19.8425z" fill="black"/>
<path d="M106.664,135.183l 7.22209, -19.8425l 7.22209, 19.8425h -14.4442z" fill="none" stroke="black" stroke-width="2"/>
<path d="M170.579,326.18v -190.996" fill="none" stroke="black" stroke-width="2"/>
<path d="M163.357,135.183l 7.22209, -19.8425l 7.22209, 19.8425z" fill="black"/>
<path d="M163.357,135.183l 7.22209, -19.8425l 7.22209, 19.8425h -14.4442z" fill="none" stroke="black" stroke-width="2"/>
<path d="M177.801,326.18l -7.22209, 19.8425l -7.22209, -19.8425z" fill="black"/>
<path d="M177.801,326.18l -7.22209, 19.8425l -7.22209, -19.8425h 14.4442z" fill="none" stroke="black" stroke-width="2"/>
<path d="M261.287,115.341l 179.523, 94.6912" fill="none" stroke="black" stroke-width="2"/>
<path d="M448.293,195.846l 17.0885, 27.1463l -32.0536, 1.22589z" fill="#ff0000"/>
<path d="M448.293,195.846l 17.0885, 27.1463l -32.0536, 1.22589l 14.9651, -28.3722z" fill="none" stroke="black" stroke-width="2"/>
<path d="M286.799,288.352h 192.756" fill="none" stroke="#0000ff" stroke-width="4"/>
<path d="M479.555,253.984l 59.5276, 34.3683l -59.5276, 34.3683z" fill="#ff0000"/>
<path d="M479.555,253.984l 59.5276, 34.3683l -59.5276, 34.3683v -68.7365z" fill="none" stroke="#0000ff" stroke-width="4"/>
<path d="M286.799,322.72l -59.5276, -34.3683l 59.5276, -34.3683z" fill="#ff0000"/>
<path d="M286.799,322.72l -59.5276, -34.3683l 59.5276, -34.3683v 68.7365z" fill="none" stroke="#0000ff" stroke-width="4"/></svg>
