<?xml version="1.0" standalone="no"?>
<svg width="567.429" height="384.969" viewBox="0 0 567.429 384.969" xmlns="http://www.w3.org/2000/svg" shape-rendering="crispEdges">
<title>
./old_svg_pro/basic3d_pro.svg
</title>
<desc>
Creator: ROOT Version 6.33/01
CreationDate: Thu Jun  6 16:11:26 2024</desc>
<defs>
</defs>
<rect x="0.5" y="0" width="566.929" height="384.469" fill="white"/>
<rect x="28.8465" y="69.2045" width="510.236" height="307.575" fill="#ce5e60"/>
<path d="M28.8465,376.78l 3, -3v -301h 504l 3, -3h -510v 307z" fill="#dc8c8e"/>
<path d="M28.8465,376.78l 3, -3h 504v -301l 3, -3v 307h -510z" fill="#a13033"/>
<path d="M257.008,291.761l 26.9564, -30.3221" fill="none" stroke="#ffff00" stroke-width="3"/>
<path d="M283.965,261.439l 63.7795, -49.5456" fill="none" stroke="#ffff00" stroke-width="3"/>
<path d="M347.744,211.893l -36.8231, -57.6704" fill="none" stroke="#ffff00" stroke-width="3"/>
<path d="M310.921,154.223l -53.9128, 60.6443" fill="none" stroke="#ffff00" stroke-width="3"/>
<path d="M193.229,341.307l 26.9564, -53.3903" fill="none" stroke="#ff0000" stroke-width="5"/>
<path d="M220.185,287.916l 63.7795, -87.9925" fill="none" stroke="#ff0000" stroke-width="5"/>
<path d="M283.965,199.924l -164.382, -12.4049" fill="none" stroke="#ff0000" stroke-width="5"/>
<path d="M119.582,187.519l 137.426, 142.689" fill="none" stroke="#ff0000" stroke-width="5"/>
<g stroke="#0000ff" stroke-width="1" fill="none">
<line x1="250.492" y1="291.761" x2="263.525" y2="291.761"/><line x1="257.008" y1="285.245" x2="257.008" y2="298.278"/>
</g>
<g stroke="#0000ff" stroke-width="1" fill="none">
<line x1="226.425" y1="262.629" x2="239.457" y2="262.629"/><line x1="232.941" y1="256.112" x2="232.941" y2="269.145"/>
</g>
<g stroke="#0000ff" stroke-width="1" fill="none">
<line x1="239.18" y1="275.788" x2="252.213" y2="275.788"/><line x1="245.697" y1="269.271" x2="245.697" y2="282.304"/>
</g>
<g stroke="#0000ff" stroke-width="1" fill="none">
<line x1="237.207" y1="181.295" x2="250.24" y2="181.295"/><line x1="243.724" y1="174.779" x2="243.724" y2="187.812"/>
</g>
<g stroke="#0000ff" stroke-width="1" fill="none">
<line x1="257.328" y1="221.367" x2="270.36" y2="221.367"/><line x1="263.844" y1="214.851" x2="263.844" y2="227.884"/>
</g>
<g stroke="#0000ff" stroke-width="1" fill="none">
<line x1="240.625" y1="203.769" x2="253.658" y2="203.769"/><line x1="247.141" y1="197.252" x2="247.141" y2="210.285"/>
</g>
<g stroke="#0000ff" stroke-width="1" fill="none">
<line x1="268.11" y1="247.685" x2="281.143" y2="247.685"/><line x1="274.627" y1="241.169" x2="274.627" y2="254.202"/>
</g>
<g stroke="#0000ff" stroke-width="1" fill="none">
<line x1="302.96" y1="257" x2="315.993" y2="257"/><line x1="309.476" y1="250.483" x2="309.476" y2="263.516"/>
</g>
<g stroke="#0000ff" stroke-width="1" fill="none">
<line x1="264.163" y1="189.42" x2="277.196" y2="189.42"/><line x1="270.68" y1="182.904" x2="270.68" y2="195.937"/>
</g>
<g stroke="#0000ff" stroke-width="1" fill="none">
<line x1="232.732" y1="87.2384" x2="245.764" y2="87.2384"/><line x1="239.248" y1="80.7219" x2="239.248" y2="93.7548"/>
</g>
<g stroke="#0000ff" stroke-width="1" fill="none">
<line x1="363.322" y1="223.428" x2="376.354" y2="223.428"/><line x1="369.838" y1="216.911" x2="369.838" y2="229.944"/>
</g>
<g stroke="#0000ff" stroke-width="1" fill="none">
<line x1="376.077" y1="221.208" x2="389.11" y2="221.208"/><line x1="382.594" y1="214.691" x2="382.594" y2="227.724"/>
</g>
<g fill="black">
<circle cx="373.256" cy="207.454" r="6.51643"/>
</g>
<g fill="black">
<circle cx="363.918" cy="147.564" r="6.51643"/>
</g>
<g fill="black">
<circle cx="317.757" cy="176.102" r="6.51643"/>
</g>
<g fill="black">
<circle cx="396.794" cy="193.105" r="6.51643"/>
</g>
<g fill="black">
<circle cx="387.456" cy="179.352" r="6.51643"/>
</g>
<g fill="black">
<circle cx="437.035" cy="173.287" r="6.51643"/>
</g>
<g fill="black">
<circle cx="412.968" cy="213.359" r="6.51643"/>
</g>
<g fill="black">
<circle cx="425.724" cy="134.245" r="6.51643"/>
</g>
<rect x="57.1929" y="11.5341" width="453.543" height="46.1363" fill="#b2a596"/>
<path d="M62.0802,57.6704v 3.25821h 451.914v -44.5072h -3.25821v 41.249z" fill="black"/>
<path d="M57.1929,57.6704v -46.1363h 453.543v 46.1363h -453.543z" fill="none" stroke="black"/>
<text xml:space="preserve" x="169.113" y="28.5094" fill="black" font-size="18.4889" font-family="Helvetica" font-weight="bold">Examples of 3-D primitives
</text>
<text xml:space="preserve" x="118.61" y="52.1314" fill="#0000ff" font-size="18.4889" font-family="Helvetica" font-weight="bold">Click anywhere on the picture to rotate
</text></svg>
