<?xml version="1.0" standalone="no"?>
<svg width="567.429" height="544.6" viewBox="0 0 567.429 544.6" xmlns="http://www.w3.org/2000/svg" shape-rendering="crispEdges">
<title>
./old_svg_pro/temp_BreitWigner_pro.svg
</title>
<desc>
Creator: ROOT Version 6.33.01
CreationDate: Wed Jul  3 13:19:34 2024</desc>
<defs>
</defs>
<rect x="0.5" y="0" width="566.929" height="544.1" fill="white"/>
<rect x="57.1929" y="10.882" width="498.898" height="478.808" fill="white"/>
<rect x="57.1929" y="10.882" width="498.898" height="478.808" fill="none" stroke="black"/>
<path d="M57.1929,489.69h 498.898" fill="none" stroke="black"/>
<path d="M57.1929,475.326v 14.3642" fill="none" stroke="black"/>
<path d="M76.3621,482.508v 7.18212" fill="none" stroke="black"/>
<path d="M95.5313,482.508v 7.18212" fill="none" stroke="black"/>
<path d="M114.701,482.508v 7.18212" fill="none" stroke="black"/>
<path d="M133.87,475.326v 14.3642" fill="none" stroke="black"/>
<path d="M153.039,482.508v 7.18212" fill="none" stroke="black"/>
<path d="M172.208,482.508v 7.18212" fill="none" stroke="black"/>
<path d="M191.377,482.508v 7.18212" fill="none" stroke="black"/>
<path d="M210.547,475.326v 14.3642" fill="none" stroke="black"/>
<path d="M229.716,482.508v 7.18212" fill="none" stroke="black"/>
<path d="M248.885,482.508v 7.18212" fill="none" stroke="black"/>
<path d="M268.054,482.508v 7.18212" fill="none" stroke="black"/>
<path d="M287.223,475.326v 14.3642" fill="none" stroke="black"/>
<path d="M306.393,482.508v 7.18212" fill="none" stroke="black"/>
<path d="M325.562,482.508v 7.18212" fill="none" stroke="black"/>
<path d="M344.731,482.508v 7.18212" fill="none" stroke="black"/>
<path d="M363.9,475.326v 14.3642" fill="none" stroke="black"/>
<path d="M383.069,482.508v 7.18212" fill="none" stroke="black"/>
<path d="M402.239,482.508v 7.18212" fill="none" stroke="black"/>
<path d="M421.408,482.508v 7.18212" fill="none" stroke="black"/>
<path d="M440.577,475.326v 14.3642" fill="none" stroke="black"/>
<path d="M459.746,482.508v 7.18212" fill="none" stroke="black"/>
<path d="M478.915,482.508v 7.18212" fill="none" stroke="black"/>
<path d="M498.085,482.508v 7.18212" fill="none" stroke="black"/>
<path d="M517.254,475.326v 14.3642" fill="none" stroke="black"/>
<path d="M517.254,475.326v 14.3642" fill="none" stroke="black"/>
<path d="M536.423,482.508v 7.18212" fill="none" stroke="black"/>
<path d="M555.592,482.508v 7.18212" fill="none" stroke="black"/>
<text xml:space="preserve" x="51.8661" y="509.856" fill="black" font-size="20.467" font-family="Helvetica">0
</text>
<text xml:space="preserve" x="111.793" y="509.856" fill="black" font-size="20.467" font-family="Helvetica">2000
</text>
<text xml:space="preserve" x="188.842" y="509.856" fill="black" font-size="20.467" font-family="Helvetica">4000
</text>
<text xml:space="preserve" x="264.94" y="509.856" fill="black" font-size="20.467" font-family="Helvetica">6000
</text>
<text xml:space="preserve" x="341.989" y="509.856" fill="black" font-size="20.467" font-family="Helvetica">8000
</text>
<text xml:space="preserve" x="413.331" y="509.856" fill="black" font-size="20.467" font-family="Helvetica">10000
</text>
<text xml:space="preserve" x="489.429" y="509.856" fill="black" font-size="20.467" font-family="Helvetica">12000
</text>
<text xml:space="preserve" x="486.575" y="529.831" fill="black" font-size="20.467" font-family="Helvetica">E [GeV]
</text>
<path d="M57.1929,10.882h 498.898" fill="none" stroke="black"/>
<path d="M57.1929,25.2462v -14.3642" fill="none" stroke="black"/>
<path d="M76.3621,18.0641v -7.18212" fill="none" stroke="black"/>
<path d="M95.5313,18.0641v -7.18212" fill="none" stroke="black"/>
<path d="M114.701,18.0641v -7.18212" fill="none" stroke="black"/>
<path d="M133.87,25.2462v -14.3642" fill="none" stroke="black"/>
<path d="M153.039,18.0641v -7.18212" fill="none" stroke="black"/>
<path d="M172.208,18.0641v -7.18212" fill="none" stroke="black"/>
<path d="M191.377,18.0641v -7.18212" fill="none" stroke="black"/>
<path d="M210.547,25.2462v -14.3642" fill="none" stroke="black"/>
<path d="M229.716,18.0641v -7.18212" fill="none" stroke="black"/>
<path d="M248.885,18.0641v -7.18212" fill="none" stroke="black"/>
<path d="M268.054,18.0641v -7.18212" fill="none" stroke="black"/>
<path d="M287.223,25.2462v -14.3642" fill="none" stroke="black"/>
<path d="M306.393,18.0641v -7.18212" fill="none" stroke="black"/>
<path d="M325.562,18.0641v -7.18212" fill="none" stroke="black"/>
<path d="M344.731,18.0641v -7.18212" fill="none" stroke="black"/>
<path d="M363.9,25.2462v -14.3642" fill="none" stroke="black"/>
<path d="M383.069,18.0641v -7.18212" fill="none" stroke="black"/>
<path d="M402.239,18.0641v -7.18212" fill="none" stroke="black"/>
<path d="M421.408,18.0641v -7.18212" fill="none" stroke="black"/>
<path d="M440.577,25.2462v -14.3642" fill="none" stroke="black"/>
<path d="M459.746,18.0641v -7.18212" fill="none" stroke="black"/>
<path d="M478.915,18.0641v -7.18212" fill="none" stroke="black"/>
<path d="M498.085,18.0641v -7.18212" fill="none" stroke="black"/>
<path d="M517.254,25.2462v -14.3642" fill="none" stroke="black"/>
<path d="M517.254,25.2462v -14.3642" fill="none" stroke="black"/>
<path d="M536.423,18.0641v -7.18212" fill="none" stroke="black"/>
<path d="M555.592,18.0641v -7.18212" fill="none" stroke="black"/>
<path d="M57.1929,489.69v -478.808" fill="none" stroke="black"/>
<path d="M64.6764,486.102h -7.48346" fill="none" stroke="black"/>
<path d="M64.6764,478.077h -7.48346" fill="none" stroke="black"/>
<path d="M64.6764,470.999h -7.48346" fill="none" stroke="black"/>
<path d="M72.1598,464.667h -14.9669" fill="none" stroke="black"/>
<text xml:space="preserve" x="44.2563" y="464.197" fill="black" font-size="13.8113" font-family="Helvetica">6
</text>
<text xml:space="preserve" x="37.5977" y="464.197" fill="black" font-size="13.8113" font-family="Times">&#8722;
</text>
<text xml:space="preserve" x="15.7196" y="473.709" fill="black" font-size="20.467" font-family="Helvetica">10
</text>
<path d="M64.6764,423.01h -7.48346" fill="none" stroke="black"/>
<path d="M64.6764,398.642h -7.48346" fill="none" stroke="black"/>
<path d="M64.6764,381.353h -7.48346" fill="none" stroke="black"/>
<path d="M64.6764,367.942h -7.48346" fill="none" stroke="black"/>
<path d="M64.6764,356.985h -7.48346" fill="none" stroke="black"/>
<path d="M64.6764,347.721h -7.48346" fill="none" stroke="black"/>
<path d="M64.6764,339.696h -7.48346" fill="none" stroke="black"/>
<path d="M64.6764,332.617h -7.48346" fill="none" stroke="black"/>
<path d="M72.1598,326.285h -14.9669" fill="none" stroke="black"/>
<text xml:space="preserve" x="44.2563" y="326.27" fill="black" font-size="13.8113" font-family="Helvetica">5
</text>
<text xml:space="preserve" x="37.5977" y="326.27" fill="black" font-size="13.8113" font-family="Times">&#8722;
</text>
<text xml:space="preserve" x="15.7196" y="335.782" fill="black" font-size="20.467" font-family="Helvetica">10
</text>
<path d="M64.6764,284.628h -7.48346" fill="none" stroke="black"/>
<path d="M64.6764,260.26h -7.48346" fill="none" stroke="black"/>
<path d="M64.6764,242.971h -7.48346" fill="none" stroke="black"/>
<path d="M64.6764,229.56h -7.48346" fill="none" stroke="black"/>
<path d="M64.6764,218.603h -7.48346" fill="none" stroke="black"/>
<path d="M64.6764,209.339h -7.48346" fill="none" stroke="black"/>
<path d="M64.6764,201.314h -7.48346" fill="none" stroke="black"/>
<path d="M64.6764,194.235h -7.48346" fill="none" stroke="black"/>
<path d="M72.1598,187.903h -14.9669" fill="none" stroke="black"/>
<text xml:space="preserve" x="44.2563" y="189.293" fill="black" font-size="13.8113" font-family="Helvetica">4
</text>
<text xml:space="preserve" x="37.5977" y="189.293" fill="black" font-size="13.8113" font-family="Times">&#8722;
</text>
<text xml:space="preserve" x="15.7196" y="197.854" fill="black" font-size="20.467" font-family="Helvetica">10
</text>
<path d="M64.6764,146.246h -7.48346" fill="none" stroke="black"/>
<path d="M64.6764,121.879h -7.48346" fill="none" stroke="black"/>
<path d="M64.6764,104.589h -7.48346" fill="none" stroke="black"/>
<path d="M64.6764,91.1788h -7.48346" fill="none" stroke="black"/>
<path d="M64.6764,80.2216h -7.48346" fill="none" stroke="black"/>
<path d="M64.6764,70.9574h -7.48346" fill="none" stroke="black"/>
<path d="M64.6764,62.9324h -7.48346" fill="none" stroke="black"/>
<path d="M64.6764,55.8538h -7.48346" fill="none" stroke="black"/>
<path d="M72.1598,49.5218h -14.9669" fill="none" stroke="black"/>
<text xml:space="preserve" x="44.2563" y="49.4636" fill="black" font-size="13.8113" font-family="Helvetica">3
</text>
<text xml:space="preserve" x="37.5977" y="49.4636" fill="black" font-size="13.8113" font-family="Times">&#8722;
</text>
<text xml:space="preserve" x="15.7196" y="58.9759" fill="black" font-size="20.467" font-family="Helvetica">10
</text>
<g transform="rotate(-90,17.622,71.3418)">
<text xml:space="preserve" x="17.622" y="71.3418" fill="black" font-size="20.467" font-family="Helvetica">Events
</text>
</g>
<path d="M556.091,489.69v -478.808" fill="none" stroke="black"/>
<path d="M548.607,486.102h 7.48346" fill="none" stroke="black"/>
<path d="M548.607,478.077h 7.48346" fill="none" stroke="black"/>
<path d="M548.607,470.999h 7.48346" fill="none" stroke="black"/>
<path d="M541.124,464.667h 14.9669" fill="none" stroke="black"/>
<path d="M548.607,423.01h 7.48346" fill="none" stroke="black"/>
<path d="M548.607,398.642h 7.48346" fill="none" stroke="black"/>
<path d="M548.607,381.353h 7.48346" fill="none" stroke="black"/>
<path d="M548.607,367.942h 7.48346" fill="none" stroke="black"/>
<path d="M548.607,356.985h 7.48346" fill="none" stroke="black"/>
<path d="M548.607,347.721h 7.48346" fill="none" stroke="black"/>
<path d="M548.607,339.696h 7.48346" fill="none" stroke="black"/>
<path d="M548.607,332.617h 7.48346" fill="none" stroke="black"/>
<path d="M541.124,326.285h 14.9669" fill="none" stroke="black"/>
<path d="M548.607,284.628h 7.48346" fill="none" stroke="black"/>
<path d="M548.607,260.26h 7.48346" fill="none" stroke="black"/>
<path d="M548.607,242.971h 7.48346" fill="none" stroke="black"/>
<path d="M548.607,229.56h 7.48346" fill="none" stroke="black"/>
<path d="M548.607,218.603h 7.48346" fill="none" stroke="black"/>
<path d="M548.607,209.339h 7.48346" fill="none" stroke="black"/>
<path d="M548.607,201.314h 7.48346" fill="none" stroke="black"/>
<path d="M548.607,194.235h 7.48346" fill="none" stroke="black"/>
<path d="M541.124,187.903h 14.9669" fill="none" stroke="black"/>
<path d="M548.607,146.246h 7.48346" fill="none" stroke="black"/>
<path d="M548.607,121.879h 7.48346" fill="none" stroke="black"/>
<path d="M548.607,104.589h 7.48346" fill="none" stroke="black"/>
<path d="M548.607,91.1788h 7.48346" fill="none" stroke="black"/>
<path d="M548.607,80.2216h 7.48346" fill="none" stroke="black"/>
<path d="M548.607,70.9574h 7.48346" fill="none" stroke="black"/>
<path d="M548.607,62.9324h 7.48346" fill="none" stroke="black"/>
<path d="M548.607,55.8538h 7.48346" fill="none" stroke="black"/>
<path d="M541.124,49.5218h 14.9669" fill="none" stroke="black"/>
<path d="M57.1929,406.376l 0.498399, -0.17277l 0.498399, -0.173017l 0.498399, -0.173265l 0.498399, -0.173514l 0.498399, -0.173763l 0.498399, -0.174013l 0.498399, -0.174264l 0.498399, -0.174516l 0.498399, -0.174768l 0.498399, -0.175021l 0.498399,
 -0.175275l 0.498399, -0.175529l 0.498399, -0.175784l 0.498399, -0.17604l 0.498399, -0.176297l 0.498399, -0.176555l 0.498399, -0.176813l 0.498399, -0.177072l 0.498399, -0.177331l 0.498399, -0.177592l 0.498399, -0.177853l 0.498399, -0.178115l
 0.498399, -0.178378l 0.498399, -0.178641l 0.498399, -0.178906l 0.498399, -0.179171l 0.498399, -0.179436l 0.498399, -0.179703l 0.498399, -0.179971l 0.498399, -0.180239l 0.498399, -0.180508l 0.498399, -0.180778l 0.498399, -0.181048l 0.498399,
 -0.18132l 0.498399, -0.181592l 0.498399, -0.181865l 0.498399, -0.182139l 0.498399, -0.182413l 0.498399, -0.182689l 0.498399, -0.182965l 0.498399, -0.183242l 0.498399, -0.18352l 0.498399, -0.183799l 0.498399, -0.184079l 0.498399, -0.18436l 0.498399,
 -0.184641l 0.498399, -0.184923l 0.498399, -0.185206l 0.498399, -0.18549l 0.498399, -0.185775l 0.498399, -0.186061l 0.498399, -0.186347l 0.498399, -0.186635l 0.498399, -0.186923l 0.498399, -0.187212l 0.498399, -0.187502l 0.498399, -0.187793l
 0.498399, -0.188085l 0.498399, -0.188378l 0.498399, -0.188672l 0.498399, -0.188966l 0.498399, -0.189262l 0.498399, -0.189558l 0.498399, -0.189856l 0.498399, -0.190154l 0.498399, -0.190453l 0.498399, -0.190753l 0.498399, -0.191055l 0.498399,
 -0.191357l 0.498399, -0.19166l 0.498399, -0.191964l 0.498399, -0.192269l 0.498399, -0.192574l 0.498399, -0.192881l 0.498399, -0.193189l 0.498399, -0.193498l 0.498399, -0.193808l 0.498399, -0.194118l 0.498399, -0.19443l 0.498399, -0.194743l 0.498399,
 -0.195057l 0.498399, -0.195372l 0.498399, -0.195687l 0.498399, -0.196004l 0.498399, -0.196322l 0.498399, -0.196641l 0.498399, -0.196961l 0.498399, -0.197281l 0.498399, -0.197603l 0.498399, -0.197926l 0.498399, -0.19825l 0.498399, -0.198576l
 0.498399, -0.198902l 0.498399, -0.199229l 0.498399, -0.199557l 0.498399, -0.199887l 0.498399, -0.200217l 0.498399, -0.200548l 0.498399, -0.200881l 0.498399, -0.201215l 0.498399, -0.20155l 0.498399, -0.201886l 0.498399, -0.202223l 0.498399,
 -0.202561l 0.498399, -0.2029l 0.498399, -0.20324l 0.498399, -0.203582l 0.498399, -0.203925l 0.498399, -0.204268l 0.498399, -0.204613l 0.498399, -0.204959l 0.498399, -0.205307l 0.498399, -0.205655l 0.498399, -0.206005l 0.498399, -0.206356l 0.498399,
 -0.206708l 0.498399, -0.207061l 0.498399, -0.207415l 0.498399, -0.207771l 0.498399, -0.208128l 0.498399, -0.208486l 0.498399, -0.208845l 0.498399, -0.209206l 0.498399, -0.209567l 0.498399, -0.20993l 0.498399, -0.210294l 0.498399, -0.21066l 0.498399,
 -0.211027l 0.498399, -0.211395l 0.498399, -0.211764l 0.498399, -0.212134l 0.498399, -0.212506l 0.498399, -0.212879l 0.498399, -0.213254l 0.498399, -0.21363l 0.498399, -0.214007l 0.498399, -0.214385l 0.498399, -0.214765l 0.498399, -0.215146l
 0.498399, -0.215528l 0.498399, -0.215912l 0.498399, -0.216297l 0.498399, -0.216683l 0.498399, -0.217071l 0.498399, -0.217461l 0.498399, -0.217851l 0.498399, -0.218243l 0.498399, -0.218636l 0.498399, -0.219031l 0.498399, -0.219427l 0.498399,
 -0.219825l 0.498399, -0.220224l 0.498399, -0.220625l 0.498399, -0.221027l 0.498399, -0.22143l 0.498399, -0.221835l 0.498399, -0.222241l 0.498399, -0.222649l 0.498399, -0.223058l 0.498399, -0.223469l 0.498399, -0.223881l 0.498399, -0.224295l
 0.498399, -0.22471l 0.498399, -0.225127l 0.498399, -0.225546l 0.498399, -0.225965l 0.498399, -0.226387l 0.498399, -0.22681l 0.498399, -0.227235l 0.498399, -0.227661l 0.498399, -0.228088l 0.498399, -0.228518l 0.498399, -0.228949l 0.498399, -0.229381l
 0.498399, -0.229815l 0.498399, -0.230251l 0.498399, -0.230689l 0.498399, -0.231128l 0.498399, -0.231569l 0.498399, -0.232011l 0.498399, -0.232455l 0.498399, -0.232901l 0.498399, -0.233348l 0.498399, -0.233797l 0.498399, -0.234248l 0.498399,
 -0.234701l 0.498399, -0.235155l 0.498399, -0.235611l 0.498399, -0.236069l 0.498399, -0.236529l 0.498399, -0.23699l 0.498399, -0.237453l 0.498399, -0.237918l 0.498399, -0.238385l 0.498399, -0.238854l 0.498399, -0.239324l 0.498399, -0.239796l
 0.498399, -0.24027l 0.498399, -0.240746l 0.498399, -0.241224l 0.498399, -0.241704l 0.498399, -0.242185l 0.498399, -0.242669l 0.498399, -0.243154l 0.498399, -0.243642l 0.498399, -0.244131l 0.498399, -0.244622l 0.498399, -0.245115l 0.498399, -0.24561l
 0.498399, -0.246107l 0.498399, -0.246606l 0.498399, -0.247107l 0.498399, -0.247611l 0.498399, -0.248116l 0.498399, -0.248623l 0.498399, -0.249132l 0.498399, -0.249643l 0.498399, -0.250157l 0.498399, -0.250672l 0.498399, -0.25119l 0.498399,
 -0.251709l 0.498399, -0.252231l 0.498399, -0.252755l 0.498399, -0.253281l 0.498399, -0.25381l 0.498399, -0.25434l 0.498399, -0.254873l 0.498399, -0.255407l 0.498399, -0.255945l 0.498399, -0.256484l 0.498399, -0.257025l 0.498399, -0.257569l 0.498399,
 -0.258115l 0.498399, -0.258664l 0.498399, -0.259214l 0.498399, -0.259767l 0.498399, -0.260323l 0.498399, -0.26088l 0.498399, -0.26144l 0.498399, -0.262003l 0.498399, -0.262567l 0.498399, -0.263135l 0.498399, -0.263704l 0.498399, -0.264276l 0.498399,
 -0.264851l 0.498399, -0.265428l 0.498399, -0.266007l 0.498399, -0.266589l 0.498399, -0.267174l 0.498399, -0.267761l 0.498399, -0.26835l 0.498399, -0.268942l 0.498399, -0.269537l 0.498399, -0.270135l 0.498399, -0.270734l 0.498399, -0.271337l
 0.498399, -0.271942l 0.498399, -0.27255l 0.498399, -0.273161l 0.498399, -0.273774l 0.498399, -0.27439l 0.498399, -0.275008l 0.498399, -0.27563l 0.498399, -0.276254l 0.498399, -0.276881l 0.498399, -0.277511l 0.498399, -0.278144l 0.498399, -0.278779l
 0.498399, -0.279418l 0.498399, -0.280059l 0.498399, -0.280703l 0.498399, -0.28135l 0.498399, -0.282l 0.498399, -0.282653l 0.498399, -0.283309l 0.498399, -0.283968l 0.498399, -0.28463l 0.498399, -0.285295l 0.498399, -0.285963l 0.498399, -0.286634l
 0.498399, -0.287309l 0.498399, -0.287986l 0.498399, -0.288666l 0.498399, -0.28935l 0.498399, -0.290037l 0.498399, -0.290727l 0.498399, -0.291421l 0.498399, -0.292117l 0.498399, -0.292817l 0.498399, -0.29352l 0.498399, -0.294227l 0.498399, -0.294937l
 0.498399, -0.29565l 0.498399, -0.296367l 0.498399, -0.297087l 0.498399, -0.29781l 0.498399, -0.298537l 0.498399, -0.299268l 0.498399, -0.300002l 0.498399, -0.300739l 0.498399, -0.30148l 0.498399, -0.302225l 0.498399, -0.302973l 0.498399, -0.303725l
 0.498399, -0.304481l 0.498399, -0.30524l 0.498399, -0.306003l 0.498399, -0.30677l 0.498399, -0.307541l 0.498399, -0.308315l 0.498399, -0.309093l 0.498399, -0.309875l 0.498399, -0.310661l 0.498399, -0.311451l 0.498399, -0.312245l 0.498399, -0.313043l
 0.498399, -0.313845l 0.498399, -0.314651l 0.498399, -0.315461l 0.498399, -0.316275l 0.498399, -0.317093l 0.498399, -0.317915l 0.498399, -0.318742l 0.498399, -0.319572l 0.498399, -0.320407l 0.498399, -0.321246l 0.498399, -0.32209l 0.498399,
 -0.322938l 0.498399, -0.32379l 0.498399, -0.324647l 0.498399, -0.325508l 0.498399, -0.326374l 0.498399, -0.327244l 0.498399, -0.328118l 0.498399, -0.328998l 0.498399, -0.329881l 0.498399, -0.33077l 0.498399, -0.331663l 0.498399, -0.332561l 0.498399,
 -0.333464l 0.498399, -0.334371l 0.498399, -0.335284l 0.498399, -0.336201l 0.498399, -0.337123l 0.498399, -0.33805l 0.498399, -0.338982l 0.498399, -0.339919l 0.498399, -0.340861l 0.498399, -0.341809l 0.498399, -0.342761l 0.498399, -0.343719l
 0.498399, -0.344682l 0.498399, -0.34565l 0.498399, -0.346623l 0.498399, -0.347602l 0.498399, -0.348586l 0.498399, -0.349576l 0.498399, -0.350571l 0.498399, -0.351572l 0.498399, -0.352578l 0.498399, -0.35359l 0.498399, -0.354607l 0.498399, -0.355631l
 0.498399, -0.35666l 0.498399, -0.357695l 0.498399, -0.358735l 0.498399, -0.359782l 0.498399, -0.360834l 0.498399, -0.361893l 0.498399, -0.362958l 0.498399, -0.364028l 0.498399, -0.365105l 0.498399, -0.366188l 0.498399, -0.367278l 0.498399,
 -0.368373l 0.498399, -0.369475l 0.498399, -0.370584l 0.498399, -0.371699l 0.498399, -0.37282l 0.498399, -0.373948l 0.498399, -0.375083l 0.498399, -0.376224l 0.498399, -0.377372l 0.498399, -0.378527l 0.498399, -0.379689l 0.498399, -0.380858l
 0.498399, -0.382034l 0.498399, -0.383216l 0.498399, -0.384406l 0.498399, -0.385603l 0.498399, -0.386808l 0.498399, -0.388019l 0.498399, -0.389238l 0.498399, -0.390465l 0.498399, -0.391699l 0.498399, -0.39294l 0.498399, -0.394189l 0.498399,
 -0.395446l 0.498399, -0.39671l 0.498399, -0.397983l 0.498399, -0.399263l 0.498399, -0.400551l 0.498399, -0.401848l 0.498399, -0.403152l 0.498399, -0.404465l 0.498399, -0.405786l 0.498399, -0.407115l 0.498399, -0.408452l 0.498399, -0.409799l
 0.498399, -0.411153l 0.498399, -0.412517l 0.498399, -0.413889l 0.498399, -0.41527l 0.498399, -0.416659l 0.498399, -0.418058l 0.498399, -0.419466l 0.498399, -0.420883l 0.498399, -0.422309l 0.498399, -0.423745l 0.498399, -0.425189l 0.498399,
 -0.426644l 0.498399, -0.428108l 0.498399, -0.429581l 0.498399, -0.431065l 0.498399, -0.432558l 0.498399, -0.434061l 0.498399, -0.435574l 0.498399, -0.437097l 0.498399, -0.438631l 0.498399, -0.440175l 0.498399, -0.441729l 0.498399, -0.443294l
 0.498399, -0.444869l 0.498399, -0.446456l 0.498399, -0.448052l 0.498399, -0.44966l 0.498399, -0.451279l 0.498399, -0.452909l 0.498399, -0.454551l 0.498399, -0.456204l 0.498399, -0.457868l 0.498399, -0.459544l 0.498399, -0.461231l 0.498399,
 -0.462931l 0.498399, -0.464642l 0.498399, -0.466365l 0.498399, -0.468101l 0.498399, -0.469849l 0.498399, -0.471609l 0.498399, -0.473382l 0.498399, -0.475167l 0.498399, -0.476965l 0.498399, -0.478777l 0.498399, -0.480601l 0.498399, -0.482438l
 0.498399, -0.484289l 0.498399, -0.486153l 0.498399, -0.488031l 0.498399, -0.489922l 0.498399, -0.491828l 0.498399, -0.493747l 0.498399, -0.495681l 0.498399, -0.497629l 0.498399, -0.499591l 0.498399, -0.501568l 0.498399, -0.50356l 0.498399,
 -0.505566l 0.498399, -0.507588l 0.498399, -0.509625l 0.498399, -0.511677l 0.498399, -0.513744l 0.498399, -0.515828l 0.498399, -0.517927l 0.498399, -0.520042l 0.498399, -0.522174l 0.498399, -0.524322l 0.498399, -0.526486l 0.498399, -0.528667l
 0.498399, -0.530865l 0.498399, -0.53308l 0.498399, -0.535312l 0.498399, -0.537561l 0.498399, -0.539828l 0.498399, -0.542113l 0.498399, -0.544416l 0.498399, -0.546737l 0.498399, -0.549077l 0.498399, -0.551435l 0.498399, -0.553811l 0.498399,
 -0.556207l 0.498399, -0.558622l 0.498399, -0.561056l 0.498399, -0.563509l 0.498399, -0.565983l 0.498399, -0.568476l 0.498399, -0.570989l 0.498399, -0.573523l 0.498399, -0.576078l 0.498399, -0.578653l 0.498399, -0.58125l 0.498399, -0.583867l
 0.498399, -0.586506l 0.498399, -0.589167l 0.498399, -0.59185l 0.498399, -0.594555l 0.498399, -0.597282l 0.498399, -0.600033l 0.498399, -0.602806l 0.498399, -0.605602l 0.498399, -0.608421l 0.498399, -0.611264l 0.498399, -0.614131l 0.498399,
 -0.617023l 0.498399, -0.619938l 0.498399, -0.622878l 0.498399, -0.625843l 0.498399, -0.628834l 0.498399, -0.631849l 0.498399, -0.634891l 0.498399, -0.637958l 0.498399, -0.641051l 0.498399, -0.644171l 0.498399, -0.647318l 0.498399, -0.650492l
 0.498399, -0.653693l 0.498399, -0.656921l 0.498399, -0.660178l 0.498399, -0.663462l 0.498399, -0.666775l 0.498399, -0.670117l 0.498399, -0.673487l 0.498399, -0.676887l 0.498399, -0.680316l 0.498399, -0.683775l 0.498399, -0.687265l 0.498399,
 -0.690784l 0.498399, -0.694334l 0.498399, -0.697915l 0.498399, -0.701527l 0.498399, -0.705171l 0.498399, -0.708846l 0.498399, -0.712554l 0.498399, -0.716293l 0.498399, -0.720065l 0.498399, -0.72387l 0.498399, -0.727708l 0.498399, -0.73158l 0.498399,
 -0.735485l 0.498399, -0.739423l 0.498399, -0.743396l 0.498399, -0.747403l 0.498399, -0.751445l 0.498399, -0.755522l 0.498399, -0.759633l 0.498399, -0.76378l 0.498399, -0.767962l 0.498399, -0.77218l 0.498399, -0.776433l 0.498399, -0.780723l 0.498399,
 -0.785048l 0.498399, -0.78941l 0.498399, -0.793808l 0.498399, -0.798243l 0.498399, -0.802714l 0.498399, -0.807222l 0.498399, -0.811767l 0.498399, -0.816349l 0.498399, -0.820967l 0.498399, -0.825622l 0.498399, -0.830314l 0.498399, -0.835043l
 0.498399, -0.839809l 0.498399, -0.844611l 0.498399, -0.849449l 0.498399, -0.854324l 0.498399, -0.859234l 0.498399, -0.864181l 0.498399, -0.869163l 0.498399, -0.87418l 0.498399, -0.879231l 0.498399, -0.884317l 0.498399, -0.889437l 0.498399, -0.89459l
 0.498399, -0.899776l 0.498399, -0.904993l 0.498399, -0.910242l 0.498399, -0.915521l 0.498399, -0.92083l 0.498399, -0.926167l 0.498399, -0.931531l 0.498399, -0.936922l 0.498399, -0.942338l 0.498399, -0.947777l 0.498399, -0.953239l 0.498399,
 -0.958721l 0.498399, -0.964222l 0.498399, -0.96974l 0.498399, -0.975273l 0.498399, -0.980819l 0.498399, -0.986375l 0.498399, -0.991939l 0.498399, -0.997509l 0.498399, -1.00308l 0.498399, -1.00865l 0.498399, -1.01422l 0.498399, -1.01978l 0.498399,
 -1.02533l 0.498399, -1.03087l 0.498399, -1.03639l 0.498399, -1.04188l 0.498399, -1.04735l 0.498399, -1.05278l 0.498399, -1.05817l 0.498399, -1.06352l 0.498399, -1.06882l 0.498399, -1.07406l 0.498399, -1.07924l 0.498399, -1.08435l 0.498399, -1.08938l
 0.498399, -1.09432l 0.498399, -1.09916l 0.498399, -1.10391l 0.498399, -1.10853l 0.498399, -1.11304l 0.498399, -1.1174l 0.498399, -1.12162l 0.498399, -1.12569l 0.498399, -1.12958l 0.498399, -1.13328l 0.498399, -1.13679l 0.498399, -1.14009l 0.498399,
 -1.14315l 0.498399, -1.14597l 0.498399, -1.14852l 0.498399, -1.1508l 0.498399, -1.15277l 0.498399, -1.15443l 0.498399, -1.15575l 0.498399, -1.1567l 0.498399, -1.15727l 0.498399, -1.15743l 0.498399, -1.15716l 0.498399, -1.15643l 0.498399, -1.15522l
 0.498399, -1.15349l 0.498399, -1.15123l 0.498399, -1.1484l 0.498399, -1.14497l 0.498399, -1.14091l 0.498399, -1.13618l 0.498399, -1.13077l 0.498399, -1.12463l 0.498399, -1.11773l 0.498399, -1.11003l 0.498399, -1.10151l 0.498399, -1.09213l 0.498399,
 -1.08185l 0.498399, -1.07064l 0.498399, -1.05847l 0.498399, -1.04529l 0.498399, -1.03109l 0.498399, -1.01583l 0.498399, -0.999474l 0.498399, -0.982l 0.498399, -0.963379l 0.498399, -0.943587l 0.498399, -0.922603l 0.498399, -0.900408l 0.498399,
 -0.876985l 0.498399, -0.852324l 0.498399, -0.826417l 0.498399, -0.799259l 0.498399, -0.770852l 0.498399, -0.741201l 0.498399, -0.710318l 0.498399, -0.67822l 0.498399, -0.644929l 0.498399, -0.610474l 0.498399, -0.574889l 0.498399, -0.538215l
 0.498399, -0.500499l 0.498399, -0.461794l 0.498399, -0.422159l 0.498399, -0.38166l 0.498399, -0.340366l 0.498399, -0.298353l 0.498399, -0.255703l 0.498399, -0.212501l 0.498399, -0.168836l 0.498399, -0.1248l 0.498399, -0.0804878l 0.498399,
 -0.0359975l 0.498399, 0.00857279l 0.498399, 0.053124l 0.498399, 0.0975573l 0.498399, 0.141775l 0.498399, 0.185679l 0.498399, 0.229177l 0.498399, 0.272177l 0.498399, 0.314592l 0.498399, 0.356337l 0.498399, 0.397334l 0.498399, 0.43751l 0.498399,
 0.476794l 0.498399, 0.515125l 0.498399, 0.552447l 0.498399, 0.588707l 0.498399, 0.623862l 0.498399, 0.657873l 0.498399, 0.690708l 0.498399, 0.722341l 0.498399, 0.752752l 0.498399, 0.781925l 0.498399, 0.809852l 0.498399, 0.836529l 0.498399, 0.861957l
 0.498399, 0.88614l 0.498399, 0.909089l 0.498399, 0.930816l 0.498399, 0.951339l 0.498399, 0.970678l 0.498399, 0.988855l 0.498399, 1.0059l 0.498399, 1.02183l 0.498399, 1.03668l 0.498399, 1.05048l 0.498399, 1.06326l 0.498399, 1.07506l 0.498399,
 1.08591l 0.498399, 1.09584l 0.498399, 1.10489l 0.498399, 1.11309l 0.498399, 1.12047l 0.498399, 1.12708l 0.498399, 1.13294l 0.498399, 1.13808l 0.498399, 1.14254l 0.498399, 1.14636l 0.498399, 1.14956l 0.498399, 1.15217l 0.498399, 1.15422l 0.498399,
 1.15574l 0.498399, 1.15677l 0.498399, 1.15732l 0.498399, 1.15742l 0.498399, 1.1571l 0.498399, 1.15638l 0.498399, 1.15528l 0.498399, 1.15383l 0.498399, 1.15205l 0.498399, 1.14996l 0.498399, 1.14757l 0.498399, 1.14491l 0.498399, 1.142l 0.498399,
 1.13884l 0.498399, 1.13547l 0.498399, 1.13188l 0.498399, 1.1281l 0.498399, 1.12414l 0.498399, 1.12002l 0.498399, 1.11574l 0.498399, 1.11132l 0.498399, 1.10677l 0.498399, 1.10209l 0.498399, 1.09731l 0.498399, 1.09243l 0.498399, 1.08745l 0.498399,
 1.08239l 0.498399, 1.07726l 0.498399, 1.07205l 0.498399, 1.06679l 0.498399, 1.06147l 0.498399, 1.0561l 0.498399, 1.05069l 0.498399, 1.04525l 0.498399, 1.03977l 0.498399, 1.03427l 0.498399, 1.02874l 0.498399, 1.0232l 0.498399, 1.01765l 0.498399,
 1.01208l 0.498399, 1.00651l 0.498399, 1.00094l 0.498399, 0.995367l 0.498399, 0.989798l 0.498399, 0.984237l 0.498399, 0.978684l 0.498399, 0.973143l 0.498399, 0.967616l 0.498399, 0.962104l 0.498399, 0.95661l 0.498399, 0.951136l 0.498399, 0.945683l
 0.498399, 0.940252l 0.498399, 0.934846l 0.498399, 0.929465l 0.498399, 0.924111l 0.498399, 0.918785l 0.498399, 0.913487l 0.498399, 0.90822l 0.498399, 0.902983l 0.498399, 0.897777l 0.498399, 0.892604l 0.498399, 0.887464l 0.498399, 0.882357l 0.498399,
 0.877284l 0.498399, 0.872246l 0.498399, 0.867242l 0.498399, 0.862274l 0.498399, 0.857341l 0.498399, 0.852445l 0.498399, 0.847584l 0.498399, 0.842759l 0.498399, 0.837972l 0.498399, 0.83322l 0.498399, 0.828506l 0.498399, 0.823828l 0.498399, 0.819187l
 0.498399, 0.814582l 0.498399, 0.810015l 0.498399, 0.805484l 0.498399, 0.80099l 0.498399, 0.796533l 0.498399, 0.792112l 0.498399, 0.787728l 0.498399, 0.78338l 0.498399, 0.779069l 0.498399, 0.774793l 0.498399, 0.770553l 0.498399, 0.766349l 0.498399,
 0.762181l 0.498399, 0.758048l 0.498399, 0.75395l 0.498399, 0.749887l 0.498399, 0.745858l 0.498399, 0.741864l 0.498399, 0.737904l 0.498399, 0.733979l 0.498399, 0.730087l 0.498399, 0.726228l 0.498399, 0.722403l 0.498399, 0.718611l 0.498399, 0.714851l
 0.498399, 0.711124l 0.498399, 0.707429l 0.498399, 0.703766l 0.498399, 0.700134l 0.498399, 0.696534l 0.498399, 0.692965l 0.498399, 0.689427l 0.498399, 0.685919l 0.498399, 0.682442l 0.498399, 0.678994l 0.498399, 0.675576l 0.498399, 0.672188l 0.498399,
 0.668828l 0.498399, 0.665498l 0.498399, 0.662196l 0.498399, 0.658922l 0.498399, 0.655676l 0.498399, 0.652458l 0.498399, 0.649268l 0.498399, 0.646105l 0.498399, 0.642968l 0.498399, 0.639858l 0.498399, 0.636775l 0.498399, 0.633718l 0.498399, 0.630686l
 0.498399, 0.627681l 0.498399, 0.6247l 0.498399, 0.621745l 0.498399, 0.618814l 0.498399, 0.615908l 0.498399, 0.613026l 0.498399, 0.610168l 0.498399, 0.607334l 0.498399, 0.604523l 0.498399, 0.601736l 0.498399, 0.598972l 0.498399, 0.596231l 0.498399,
 0.593512l 0.498399, 0.590816l 0.498399, 0.588141l 0.498399, 0.585489l 0.498399, 0.582858l 0.498399, 0.580248l 0.498399, 0.57766l 0.498399, 0.575093l 0.498399, 0.572546l 0.498399, 0.57002l 0.498399, 0.567515l 0.498399, 0.565029l 0.498399, 0.562563l
 0.498399, 0.560117l 0.498399, 0.557691l 0.498399, 0.555283l 0.498399, 0.552895l 0.498399, 0.550525l 0.498399, 0.548175l 0.498399, 0.545842l 0.498399, 0.543528l 0.498399, 0.541232l 0.498399, 0.538954l 0.498399, 0.536694l 0.498399, 0.534451l 0.498399,
 0.532226l 0.498399, 0.530017l 0.498399, 0.527826l 0.498399, 0.525651l 0.498399, 0.523494l 0.498399, 0.521352l 0.498399, 0.519227l 0.498399, 0.517118l 0.498399, 0.515025l 0.498399, 0.512947l 0.498399, 0.510886l 0.498399, 0.508839l 0.498399, 0.506808l
 0.498399, 0.504793l 0.498399, 0.502792l 0.498399, 0.500806l 0.498399, 0.498835l 0.498399, 0.496878l 0.498399, 0.494936l 0.498399, 0.493007l 0.498399, 0.491093l 0.498399, 0.489193l 0.498399, 0.487307l 0.498399, 0.485435l 0.498399, 0.483576l 0.498399,
 0.48173l 0.498399, 0.479898l 0.498399, 0.478078l 0.498399, 0.476272l 0.498399, 0.474479l 0.498399, 0.472698l 0.498399, 0.47093l 0.498399, 0.469175l 0.498399, 0.467432l 0.498399, 0.465701l 0.498399, 0.463982l 0.498399, 0.462276l 0.498399, 0.460581l
 0.498399, 0.458898l 0.498399, 0.457226l 0.498399, 0.455567l 0.498399, 0.453918l 0.498399, 0.452281l 0.498399, 0.450655l 0.498399, 0.449041l 0.498399, 0.447437l 0.498399, 0.445844l 0.498399, 0.444262l 0.498399, 0.442691l 0.498399, 0.44113l 0.498399,
 0.43958l 0.498399, 0.43804l 0.498399, 0.43651l 0.498399, 0.434991l 0.498399, 0.433482l 0.498399, 0.431982l 0.498399, 0.430493l 0.498399, 0.429013l 0.498399, 0.427543l 0.498399, 0.426083l 0.498399, 0.424633l 0.498399, 0.423191l 0.498399, 0.421759l
 0.498399, 0.420337l 0.498399, 0.418923l 0.498399, 0.417519l 0.498399, 0.416124l 0.498399, 0.414737l 0.498399, 0.41336l 0.498399, 0.411991l 0.498399, 0.410631l 0.498399, 0.40928l 0.498399, 0.407937l 0.498399, 0.406603l 0.498399, 0.405277l 0.498399,
 0.403959l 0.498399, 0.402649l 0.498399, 0.401348l 0.498399, 0.400055l 0.498399, 0.39877l 0.498399, 0.397493l 0.498399, 0.396223l 0.498399, 0.394962l 0.498399, 0.393708l 0.498399, 0.392462l 0.498399, 0.391223l 0.498399, 0.389992l 0.498399, 0.388769l
 0.498399, 0.387552l 0.498399, 0.386344l 0.498399, 0.385142l 0.498399, 0.383948l 0.498399, 0.382761l 0.498399, 0.381581" fill="none" stroke="black" stroke-width="2"/>
<path d="M57.1929,323.561l 0.498399, -0.000245263l 0.498399, -0.000735791l 0.498399, -0.00122633l 0.498399, -0.00171688l 0.498399, -0.00220745l 0.498399, -0.00269805l 0.498399, -0.00318868l 0.498399, -0.00367935l 0.498399, -0.00417006l 0.498399,
 -0.00466083l 0.498399, -0.00515165l 0.498399, -0.00564253l 0.498399, -0.00613348l 0.498399, -0.0066245l 0.498399, -0.0071156l 0.498399, -0.00760678l 0.498399, -0.00809806l 0.498399, -0.00858944l 0.498399, -0.00908091l 0.498399, -0.0095725l 0.498399,
 -0.0100642l 0.498399, -0.010556l 0.498399, -0.011048l 0.498399, -0.0115401l 0.498399, -0.0120323l 0.498399, -0.0125246l 0.498399, -0.0130171l 0.498399, -0.0135098l 0.498399, -0.0140027l 0.498399, -0.0144957l 0.498399, -0.0149888l 0.498399,
 -0.0154822l 0.498399, -0.0159757l 0.498399, -0.0164695l 0.498399, -0.0169634l 0.498399, -0.0174575l 0.498399, -0.0179519l 0.498399, -0.0184464l 0.498399, -0.0189412l 0.498399, -0.0194362l 0.498399, -0.0199315l 0.498399, -0.020427l 0.498399,
 -0.0209227l 0.498399, -0.0214187l 0.498399, -0.0219149l 0.498399, -0.0224114l 0.498399, -0.0229082l 0.498399, -0.0234053l 0.498399, -0.0239026l 0.498399, -0.0244002l 0.498399, -0.0248982l 0.498399, -0.0253964l 0.498399, -0.0258949l 0.498399,
 -0.0263938l 0.498399, -0.0268929l 0.498399, -0.0273924l 0.498399, -0.0278922l 0.498399, -0.0283924l 0.498399, -0.0288929l 0.498399, -0.0293938l 0.498399, -0.029895l 0.498399, -0.0303966l 0.498399, -0.0308985l 0.498399, -0.0314008l 0.498399,
 -0.0319036l 0.498399, -0.0324067l 0.498399, -0.0329101l 0.498399, -0.033414l 0.498399, -0.0339183l 0.498399, -0.0344231l 0.498399, -0.0349282l 0.498399, -0.0354338l 0.498399, -0.0359398l 0.498399, -0.0364462l 0.498399, -0.0369531l 0.498399,
 -0.0374604l 0.498399, -0.0379682l 0.498399, -0.0384765l 0.498399, -0.0389853l 0.498399, -0.0394945l 0.498399, -0.0400042l 0.498399, -0.0405144l 0.498399, -0.0410251l 0.498399, -0.0415363l 0.498399, -0.042048l 0.498399, -0.0425602l 0.498399,
 -0.043073l 0.498399, -0.0435863l 0.498399, -0.0441002l 0.498399, -0.0446145l 0.498399, -0.0451295l 0.498399, -0.045645l 0.498399, -0.046161l 0.498399, -0.0466777l 0.498399, -0.0471949l 0.498399, -0.0477127l 0.498399, -0.0482311l 0.498399,
 -0.0487501l 0.498399, -0.0492697l 0.498399, -0.04979l 0.498399, -0.0503108l 0.498399, -0.0508323l 0.498399, -0.0513544l 0.498399, -0.0518772l 0.498399, -0.0524006l 0.498399, -0.0529247l 0.498399, -0.0534495l 0.498399, -0.0539749l 0.498399,
 -0.054501l 0.498399, -0.0550278l 0.498399, -0.0555552l 0.498399, -0.0560834l 0.498399, -0.0566123l 0.498399, -0.0571419l 0.498399, -0.0576723l 0.498399, -0.0582033l 0.498399, -0.0587351l 0.498399, -0.0592677l 0.498399, -0.059801l 0.498399,
 -0.0603351l 0.498399, -0.0608699l 0.498399, -0.0614056l 0.498399, -0.061942l 0.498399, -0.0624792l 0.498399, -0.0630172l 0.498399, -0.063556l 0.498399, -0.0640956l 0.498399, -0.0646361l 0.498399, -0.0651774l 0.498399, -0.0657195l 0.498399,
 -0.0662625l 0.498399, -0.0668063l 0.498399, -0.067351l 0.498399, -0.0678966l 0.498399, -0.068443l 0.498399, -0.0689904l 0.498399, -0.0695386l 0.498399, -0.0700877l 0.498399, -0.0706378l 0.498399, -0.0711888l 0.498399, -0.0717407l 0.498399,
 -0.0722935l 0.498399, -0.0728474l 0.498399, -0.0734021l 0.498399, -0.0739578l 0.498399, -0.0745145l 0.498399, -0.0750722l 0.498399, -0.0756309l 0.498399, -0.0761905l 0.498399, -0.0767512l 0.498399, -0.0773129l 0.498399, -0.0778756l 0.498399,
 -0.0784394l 0.498399, -0.0790042l 0.498399, -0.07957l 0.498399, -0.0801369l 0.498399, -0.0807049l 0.498399, -0.081274l 0.498399, -0.0818441l 0.498399, -0.0824154l 0.498399, -0.0829877l 0.498399, -0.0835612l 0.498399, -0.0841358l 0.498399,
 -0.0847115l 0.498399, -0.0852884l 0.498399, -0.0858665l 0.498399, -0.0864457l 0.498399, -0.0870261l 0.498399, -0.0876076l 0.498399, -0.0881904l 0.498399, -0.0887743l 0.498399, -0.0893595l 0.498399, -0.0899459l 0.498399, -0.0905335l 0.498399,
 -0.0911224l 0.498399, -0.0917125l 0.498399, -0.0923039l 0.498399, -0.0928966l 0.498399, -0.0934905l 0.498399, -0.0940858l 0.498399, -0.0946823l 0.498399, -0.0952802l 0.498399, -0.0958794l 0.498399, -0.0964799l 0.498399, -0.0970818l 0.498399,
 -0.0976851l 0.498399, -0.0982897l 0.498399, -0.0988956l 0.498399, -0.099503l 0.498399, -0.100112l 0.498399, -0.100722l 0.498399, -0.101334l 0.498399, -0.101947l 0.498399, -0.102561l 0.498399, -0.103177l 0.498399, -0.103795l 0.498399, -0.104413l
 0.498399, -0.105034l 0.498399, -0.105656l 0.498399, -0.106279l 0.498399, -0.106904l 0.498399, -0.107531l 0.498399, -0.108159l 0.498399, -0.108788l 0.498399, -0.109419l 0.498399, -0.110052l 0.498399, -0.110687l 0.498399, -0.111323l 0.498399,
 -0.11196l 0.498399, -0.112599l 0.498399, -0.11324l 0.498399, -0.113883l 0.498399, -0.114527l 0.498399, -0.115173l 0.498399, -0.115821l 0.498399, -0.11647l 0.498399, -0.117121l 0.498399, -0.117774l 0.498399, -0.118429l 0.498399, -0.119085l 0.498399,
 -0.119743l 0.498399, -0.120403l 0.498399, -0.121065l 0.498399, -0.121728l 0.498399, -0.122394l 0.498399, -0.123061l 0.498399, -0.12373l 0.498399, -0.124401l 0.498399, -0.125074l 0.498399, -0.125749l 0.498399, -0.126425l 0.498399, -0.127104l
 0.498399, -0.127785l 0.498399, -0.128467l 0.498399, -0.129152l 0.498399, -0.129838l 0.498399, -0.130527l 0.498399, -0.131217l 0.498399, -0.13191l 0.498399, -0.132605l 0.498399, -0.133301l 0.498399, -0.134l 0.498399, -0.134701l 0.498399, -0.135404l
 0.498399, -0.13611l 0.498399, -0.136817l 0.498399, -0.137526l 0.498399, -0.138238l 0.498399, -0.138952l 0.498399, -0.139668l 0.498399, -0.140387l 0.498399, -0.141107l 0.498399, -0.14183l 0.498399, -0.142555l 0.498399, -0.143283l 0.498399, -0.144013l
 0.498399, -0.144745l 0.498399, -0.145479l 0.498399, -0.146216l 0.498399, -0.146956l 0.498399, -0.147697l 0.498399, -0.148441l 0.498399, -0.149188l 0.498399, -0.149937l 0.498399, -0.150689l 0.498399, -0.151443l 0.498399, -0.152199l 0.498399,
 -0.152958l 0.498399, -0.15372l 0.498399, -0.154484l 0.498399, -0.155251l 0.498399, -0.156021l 0.498399, -0.156793l 0.498399, -0.157568l 0.498399, -0.158345l 0.498399, -0.159125l 0.498399, -0.159908l 0.498399, -0.160694l 0.498399, -0.161482l
 0.498399, -0.162274l 0.498399, -0.163068l 0.498399, -0.163865l 0.498399, -0.164664l 0.498399, -0.165467l 0.498399, -0.166272l 0.498399, -0.167081l 0.498399, -0.167892l 0.498399, -0.168707l 0.498399, -0.169524l 0.498399, -0.170344l 0.498399,
 -0.171168l 0.498399, -0.171994l 0.498399, -0.172823l 0.498399, -0.173656l 0.498399, -0.174492l 0.498399, -0.175331l 0.498399, -0.176173l 0.498399, -0.177018l 0.498399, -0.177867l 0.498399, -0.178718l 0.498399, -0.179573l 0.498399, -0.180432l
 0.498399, -0.181294l 0.498399, -0.182159l 0.498399, -0.183027l 0.498399, -0.183899l 0.498399, -0.184774l 0.498399, -0.185653l 0.498399, -0.186535l 0.498399, -0.187421l 0.498399, -0.18831l 0.498399, -0.189203l 0.498399, -0.1901l 0.498399, -0.191l
 0.498399, -0.191903l 0.498399, -0.192811l 0.498399, -0.193722l 0.498399, -0.194637l 0.498399, -0.195556l 0.498399, -0.196478l 0.498399, -0.197405l 0.498399, -0.198335l 0.498399, -0.199269l 0.498399, -0.200207l 0.498399, -0.201149l 0.498399,
 -0.202095l 0.498399, -0.203046l 0.498399, -0.204l 0.498399, -0.204958l 0.498399, -0.20592l 0.498399, -0.206887l 0.498399, -0.207858l 0.498399, -0.208833l 0.498399, -0.209812l 0.498399, -0.210795l 0.498399, -0.211783l 0.498399, -0.212776l 0.498399,
 -0.213772l 0.498399, -0.214773l 0.498399, -0.215779l 0.498399, -0.216789l 0.498399, -0.217804l 0.498399, -0.218823l 0.498399, -0.219847l 0.498399, -0.220875l 0.498399, -0.221909l 0.498399, -0.222947l 0.498399, -0.223989l 0.498399, -0.225037l
 0.498399, -0.226089l 0.498399, -0.227147l 0.498399, -0.228209l 0.498399, -0.229277l 0.498399, -0.230349l 0.498399, -0.231426l 0.498399, -0.232509l 0.498399, -0.233597l 0.498399, -0.23469l 0.498399, -0.235788l 0.498399, -0.236891l 0.498399, -0.238l
 0.498399, -0.239114l 0.498399, -0.240234l 0.498399, -0.241359l 0.498399, -0.24249l 0.498399, -0.243626l 0.498399, -0.244768l 0.498399, -0.245915l 0.498399, -0.247068l 0.498399, -0.248227l 0.498399, -0.249392l 0.498399, -0.250563l 0.498399,
 -0.251739l 0.498399, -0.252922l 0.498399, -0.25411l 0.498399, -0.255305l 0.498399, -0.256506l 0.498399, -0.257713l 0.498399, -0.258926l 0.498399, -0.260145l 0.498399, -0.261371l 0.498399, -0.262604l 0.498399, -0.263842l 0.498399, -0.265087l
 0.498399, -0.266339l 0.498399, -0.267598l 0.498399, -0.268863l 0.498399, -0.270135l 0.498399, -0.271413l 0.498399, -0.272699l 0.498399, -0.273991l 0.498399, -0.275291l 0.498399, -0.276597l 0.498399, -0.277911l 0.498399, -0.279232l 0.498399,
 -0.28056l 0.498399, -0.281896l 0.498399, -0.283238l 0.498399, -0.284589l 0.498399, -0.285947l 0.498399, -0.287312l 0.498399, -0.288685l 0.498399, -0.290066l 0.498399, -0.291455l 0.498399, -0.292851l 0.498399, -0.294256l 0.498399, -0.295668l
 0.498399, -0.297089l 0.498399, -0.298517l 0.498399, -0.299955l 0.498399, -0.3014l 0.498399, -0.302854l 0.498399, -0.304316l 0.498399, -0.305787l 0.498399, -0.307266l 0.498399, -0.308754l 0.498399, -0.310251l 0.498399, -0.311757l 0.498399, -0.313272l
 0.498399, -0.314796l 0.498399, -0.316329l 0.498399, -0.317872l 0.498399, -0.319424l 0.498399, -0.320985l 0.498399, -0.322555l 0.498399, -0.324136l 0.498399, -0.325725l 0.498399, -0.327325l 0.498399, -0.328935l 0.498399, -0.330554l 0.498399,
 -0.332184l 0.498399, -0.333824l 0.498399, -0.335474l 0.498399, -0.337135l 0.498399, -0.338806l 0.498399, -0.340487l 0.498399, -0.34218l 0.498399, -0.343883l 0.498399, -0.345597l 0.498399, -0.347322l 0.498399, -0.349058l 0.498399, -0.350805l
 0.498399, -0.352564l 0.498399, -0.354334l 0.498399, -0.356116l 0.498399, -0.357909l 0.498399, -0.359714l 0.498399, -0.361531l 0.498399, -0.36336l 0.498399, -0.365202l 0.498399, -0.367055l 0.498399, -0.368921l 0.498399, -0.3708l 0.498399, -0.372691l
 0.498399, -0.374595l 0.498399, -0.376512l 0.498399, -0.378442l 0.498399, -0.380386l 0.498399, -0.382342l 0.498399, -0.384312l 0.498399, -0.386296l 0.498399, -0.388293l 0.498399, -0.390305l 0.498399, -0.39233l 0.498399, -0.394369l 0.498399,
 -0.396423l 0.498399, -0.398492l 0.498399, -0.400575l 0.498399, -0.402672l 0.498399, -0.404785l 0.498399, -0.406913l 0.498399, -0.409056l 0.498399, -0.411214l 0.498399, -0.413388l 0.498399, -0.415578l 0.498399, -0.417784l 0.498399, -0.420006l
 0.498399, -0.422244l 0.498399, -0.424498l 0.498399, -0.426769l 0.498399, -0.429057l 0.498399, -0.431361l 0.498399, -0.433683l 0.498399, -0.436022l 0.498399, -0.438379l 0.498399, -0.440753l 0.498399, -0.443146l 0.498399, -0.445556l 0.498399,
 -0.447985l 0.498399, -0.450432l 0.498399, -0.452897l 0.498399, -0.455382l 0.498399, -0.457885l 0.498399, -0.460408l 0.498399, -0.46295l 0.498399, -0.465512l 0.498399, -0.468094l 0.498399, -0.470696l 0.498399, -0.473318l 0.498399, -0.475961l
 0.498399, -0.478625l 0.498399, -0.481309l 0.498399, -0.484015l 0.498399, -0.486742l 0.498399, -0.489491l 0.498399, -0.492261l 0.498399, -0.495054l 0.498399, -0.497869l 0.498399, -0.500707l 0.498399, -0.503568l 0.498399, -0.506452l 0.498399,
 -0.509359l 0.498399, -0.512289l 0.498399, -0.515244l 0.498399, -0.518223l 0.498399, -0.521225l 0.498399, -0.524253l 0.498399, -0.527305l 0.498399, -0.530383l 0.498399, -0.533486l 0.498399, -0.536614l 0.498399, -0.539769l 0.498399, -0.542949l
 0.498399, -0.546157l 0.498399, -0.54939l 0.498399, -0.552651l 0.498399, -0.555939l 0.498399, -0.559255l 0.498399, -0.562599l 0.498399, -0.56597l 0.498399, -0.56937l 0.498399, -0.572799l 0.498399, -0.576256l 0.498399, -0.579743l 0.498399, -0.58326l
 0.498399, -0.586806l 0.498399, -0.590382l 0.498399, -0.593989l 0.498399, -0.597626l 0.498399, -0.601294l 0.498399, -0.604993l 0.498399, -0.608724l 0.498399, -0.612487l 0.498399, -0.616282l 0.498399, -0.620109l 0.498399, -0.623968l 0.498399,
 -0.627861l 0.498399, -0.631786l 0.498399, -0.635745l 0.498399, -0.639738l 0.498399, -0.643765l 0.498399, -0.647825l 0.498399, -0.65192l 0.498399, -0.65605l 0.498399, -0.660215l 0.498399, -0.664415l 0.498399, -0.66865l 0.498399, -0.67292l 0.498399,
 -0.677227l 0.498399, -0.681569l 0.498399, -0.685947l 0.498399, -0.690362l 0.498399, -0.694813l 0.498399, -0.6993l 0.498399, -0.703824l 0.498399, -0.708385l 0.498399, -0.712983l 0.498399, -0.717618l 0.498399, -0.722289l 0.498399, -0.726998l 0.498399,
 -0.731744l 0.498399, -0.736526l 0.498399, -0.741346l 0.498399, -0.746203l 0.498399, -0.751096l 0.498399, -0.756026l 0.498399, -0.760992l 0.498399, -0.765995l 0.498399, -0.771034l 0.498399, -0.776108l 0.498399, -0.781218l 0.498399, -0.786363l
 0.498399, -0.791542l 0.498399, -0.796756l 0.498399, -0.802003l 0.498399, -0.807283l 0.498399, -0.812595l 0.498399, -0.817939l 0.498399, -0.823313l 0.498399, -0.828717l 0.498399, -0.834151l 0.498399, -0.839612l 0.498399, -0.845099l 0.498399,
 -0.850612l 0.498399, -0.856149l 0.498399, -0.861709l 0.498399, -0.867289l 0.498399, -0.872889l 0.498399, -0.878506l 0.498399, -0.884138l 0.498399, -0.889784l 0.498399, -0.895441l 0.498399, -0.901106l 0.498399, -0.906778l 0.498399, -0.912452l
 0.498399, -0.918126l 0.498399, -0.923798l 0.498399, -0.929462l 0.498399, -0.935116l 0.498399, -0.940756l 0.498399, -0.946378l 0.498399, -0.951976l 0.498399, -0.957547l 0.498399, -0.963086l 0.498399, -0.968586l 0.498399, -0.974042l 0.498399,
 -0.979448l 0.498399, -0.984798l 0.498399, -0.990084l 0.498399, -0.9953l 0.498399, -1.00044l 0.498399, -1.00549l 0.498399, -1.01045l 0.498399, -1.0153l 0.498399, -1.02004l 0.498399, -1.02465l 0.498399, -1.02913l 0.498399, -1.03346l 0.498399,
 -1.03763l 0.498399, -1.04163l 0.498399, -1.04545l 0.498399, -1.04907l 0.498399, -1.05247l 0.498399, -1.05565l 0.498399, -1.05857l 0.498399, -1.06124l 0.498399, -1.06362l 0.498399, -1.06571l 0.498399, -1.06747l 0.498399, -1.06889l 0.498399, -1.06995l
 0.498399, -1.07062l 0.498399, -1.07088l 0.498399, -1.07071l 0.498399, -1.07008l 0.498399, -1.06896l 0.498399, -1.06733l 0.498399, -1.06516l 0.498399, -1.06241l 0.498399, -1.05907l 0.498399, -1.05509l 0.498399, -1.05044l 0.498399, -1.0451l 0.498399,
 -1.03903l 0.498399, -1.03219l 0.498399, -1.02455l 0.498399, -1.01608l 0.498399, -1.00675l 0.498399, -0.996507l 0.498399, -0.98533l 0.498399, -0.973181l 0.498399, -0.960028l 0.498399, -0.945836l 0.498399, -0.930575l 0.498399, -0.914214l 0.498399,
 -0.896724l 0.498399, -0.878078l 0.498399, -0.858252l 0.498399, -0.837223l 0.498399, -0.814973l 0.498399, -0.791486l 0.498399, -0.766749l 0.498399, -0.740755l 0.498399, -0.7135l 0.498399, -0.684986l 0.498399, -0.655217l 0.498399, -0.624207l 0.498399,
 -0.59197l 0.498399, -0.558532l 0.498399, -0.52392l 0.498399, -0.48817l 0.498399, -0.451322l 0.498399, -0.413426l 0.498399, -0.374534l 0.498399, -0.334706l 0.498399, -0.294009l 0.498399, -0.252514l 0.498399, -0.210298l 0.498399, -0.167443l 0.498399,
 -0.124035l 0.498399, -0.0801651l 0.498399, -0.0359265l 0.498399, 0.00858441l 0.498399, 0.0532693l 0.498399, 0.0980286l 0.498399, 0.142762l 0.498399, 0.18737l 0.498399, 0.231752l 0.498399, 0.275813l 0.498399, 0.319456l 0.498399, 0.362589l 0.498399,
 0.405125l 0.498399, 0.44698l 0.498399, 0.488073l 0.498399, 0.52833l 0.498399, 0.567684l 0.498399, 0.60607l 0.498399, 0.643432l 0.498399, 0.67972l 0.498399, 0.714889l 0.498399, 0.7489l 0.498399, 0.781723l 0.498399, 0.81333l 0.498399, 0.843703l
 0.498399, 0.872828l 0.498399, 0.900695l 0.498399, 0.927301l 0.498399, 0.952647l 0.498399, 0.97674l 0.498399, 0.99959l 0.498399, 1.02121l 0.498399, 1.04162l 0.498399, 1.06084l 0.498399, 1.07889l 0.498399, 1.09579l 0.498399, 1.11159l 0.498399, 1.1263l
 0.498399, 1.13995l 0.498399, 1.15259l 0.498399, 1.16424l 0.498399, 1.17493l 0.498399, 1.18471l 0.498399, 1.1936l 0.498399, 1.20164l 0.498399, 1.20886l 0.498399, 1.21531l 0.498399, 1.221l 0.498399, 1.22599l 0.498399, 1.23029l 0.498399, 1.23395l
 0.498399, 1.23699l 0.498399, 1.23944l 0.498399, 1.24134l 0.498399, 1.24271l 0.498399, 1.24358l 0.498399, 1.24398l 0.498399, 1.24394l 0.498399, 1.24347l 0.498399, 1.2426l 0.498399, 1.24136l 0.498399, 1.23977l 0.498399, 1.23785l 0.498399, 1.23562l
 0.498399, 1.2331l 0.498399, 1.23031l 0.498399, 1.22726l 0.498399, 1.22398l 0.498399, 1.22047l 0.498399, 1.21676l 0.498399, 1.21286l 0.498399, 1.20878l 0.498399, 1.20453l 0.498399, 1.20014l 0.498399, 1.1956l 0.498399, 1.19093l 0.498399, 1.18615l
 0.498399, 1.18125l 0.498399, 1.17626l 0.498399, 1.17118l 0.498399, 1.16601l 0.498399, 1.16077l 0.498399, 1.15546l 0.498399, 1.1501l 0.498399, 1.14468l 0.498399, 1.13921l 0.498399, 1.13371l 0.498399, 1.12817l 0.498399, 1.1226l 0.498399, 1.117l
 0.498399, 1.11138l 0.498399, 1.10575l 0.498399, 1.10011l 0.498399, 1.09445l 0.498399, 1.0888l 0.498399, 1.08314l 0.498399, 1.07748l 0.498399, 1.07183l 0.498399, 1.06618l 0.498399, 1.06055l 0.498399, 1.05493l 0.498399, 1.04932l 0.498399, 1.04373l
 0.498399, 1.03816l 0.498399, 1.0326l 0.498399, 1.02707l 0.498399, 1.02157l 0.498399, 1.01609l 0.498399, 1.01063l 0.498399, 1.0052l 0.498399, 0.999803l 0.498399, 0.994433l 0.498399, 0.989094l 0.498399, 0.983786l 0.498399, 0.97851l 0.498399, 0.973267l
 0.498399, 0.968057l 0.498399, 0.962881l 0.498399, 0.95774l 0.498399, 0.952634l 0.498399, 0.947563l 0.498399, 0.942528l 0.498399, 0.937529l 0.498399, 0.932566l 0.498399, 0.92764l 0.498399, 0.922751l 0.498399, 0.917898l 0.498399, 0.913083l 0.498399,
 0.908304l 0.498399, 0.903563l 0.498399, 0.898859l 0.498399, 0.894192l 0.498399, 0.889563l 0.498399, 0.88497l 0.498399, 0.880415l 0.498399, 0.875896l 0.498399, 0.871415l 0.498399, 0.86697l 0.498399, 0.862562l 0.498399, 0.858191l 0.498399, 0.853856l
 0.498399, 0.849557l 0.498399, 0.845294l 0.498399, 0.841067l 0.498399, 0.836875l 0.498399, 0.832719l 0.498399, 0.828598l 0.498399, 0.824512l 0.498399, 0.820461l 0.498399, 0.816444l 0.498399, 0.812461l 0.498399, 0.808512l 0.498399, 0.804597l 0.498399,
 0.800716l 0.498399, 0.796868l 0.498399, 0.793052l 0.498399, 0.789269l 0.498399, 0.785519l 0.498399, 0.781801l 0.498399, 0.778114l 0.498399, 0.774459l 0.498399, 0.770835l 0.498399, 0.767243l 0.498399, 0.763681l 0.498399, 0.760149l 0.498399, 0.756648l
 0.498399, 0.753176l 0.498399, 0.749734l 0.498399, 0.746321l 0.498399, 0.742937l 0.498399, 0.739582l 0.498399, 0.736256l 0.498399, 0.732957l 0.498399, 0.729686l 0.498399, 0.726443l 0.498399, 0.723228l 0.498399, 0.720039l 0.498399, 0.716877l 0.498399,
 0.713742l 0.498399, 0.710633l 0.498399, 0.70755l 0.498399, 0.704492l 0.498399, 0.70146l 0.498399, 0.698454l 0.498399, 0.695472l 0.498399, 0.692515l 0.498399, 0.689582l 0.498399, 0.686673l 0.498399, 0.683788l 0.498399, 0.680927l 0.498399, 0.67809l
 0.498399, 0.675275l 0.498399, 0.672484l 0.498399, 0.669715l 0.498399, 0.666968l 0.498399, 0.664244l 0.498399, 0.661542l 0.498399, 0.658861l 0.498399, 0.656202l 0.498399, 0.653564l 0.498399, 0.650948l 0.498399, 0.648352l 0.498399, 0.645776l 0.498399,
 0.643222l 0.498399, 0.640687l 0.498399, 0.638172l 0.498399, 0.635677l 0.498399, 0.633202l 0.498399, 0.630746l 0.498399, 0.628309l 0.498399, 0.625891l 0.498399, 0.623492l 0.498399, 0.621112l 0.498399, 0.618749l 0.498399, 0.616405l 0.498399, 0.614079l
 0.498399, 0.611771l 0.498399, 0.60948l 0.498399, 0.607207l 0.498399, 0.604951l 0.498399, 0.602712l 0.498399, 0.60049l 0.498399, 0.598285l 0.498399, 0.596096l 0.498399, 0.593924l 0.498399, 0.591767l 0.498399, 0.589627l 0.498399, 0.587503l 0.498399,
 0.585394l 0.498399, 0.583301l 0.498399, 0.581223l 0.498399, 0.579161l 0.498399, 0.577113l 0.498399, 0.57508l 0.498399, 0.573063l 0.498399, 0.571059l 0.498399, 0.569071l 0.498399, 0.567096l 0.498399, 0.565136l 0.498399, 0.56319l 0.498399, 0.561258l
 0.498399, 0.559339l 0.498399, 0.557434l 0.498399, 0.555543l 0.498399, 0.553664l 0.498399, 0.551799l 0.498399, 0.549948l 0.498399, 0.548109l 0.498399, 0.546283l 0.498399, 0.544469l 0.498399, 0.542668l 0.498399, 0.54088l 0.498399, 0.539104l 0.498399,
 0.53734l 0.498399, 0.535588l 0.498399, 0.533848l 0.498399, 0.53212l 0.498399, 0.530404l 0.498399, 0.528699l 0.498399, 0.527006l 0.498399, 0.525324l 0.498399, 0.523654l 0.498399, 0.521994l 0.498399, 0.520346l 0.498399, 0.518709l 0.498399, 0.517082l
 0.498399, 0.515467l 0.498399, 0.513862l 0.498399, 0.512267l 0.498399, 0.510683l 0.498399, 0.509109l 0.498399, 0.507546l 0.498399, 0.505992l 0.498399, 0.504449l 0.498399, 0.502916l 0.498399, 0.501392l 0.498399, 0.499879l 0.498399, 0.498375l 0.498399,
 0.496881l 0.498399, 0.495396l 0.498399, 0.49392l 0.498399, 0.492454l 0.498399, 0.490997l 0.498399, 0.48955l 0.498399, 0.488111l 0.498399, 0.486681l 0.498399, 0.485261l 0.498399, 0.483849l 0.498399, 0.482446l 0.498399, 0.481051l 0.498399, 0.479665l
 0.498399, 0.478288l 0.498399, 0.476919l 0.498399, 0.475559l 0.498399, 0.474207l 0.498399, 0.472863l 0.498399, 0.471527l 0.498399, 0.470199l 0.498399, 0.468879l 0.498399, 0.467567l 0.498399, 0.466263l 0.498399, 0.464967l 0.498399, 0.463679l 0.498399,
 0.462398l 0.498399, 0.461125l 0.498399, 0.459859l 0.498399, 0.458601l 0.498399, 0.45735l 0.498399, 0.456106l 0.498399, 0.45487" fill="none" stroke="#0000ff" stroke-width="2"/>
<text xml:space="preserve" x="399.063" y="46.6099" fill="black" font-size="20.467" font-family="Helvetica">NonRel BW
</text>
<path d="M363.831,40.8075h 28.7717" fill="none" stroke="black" stroke-width="2"/>
<text xml:space="preserve" x="399.063" y="74.1954" fill="black" font-size="20.467" font-family="Helvetica">Rel BW
</text>
<path d="M363.831,68.0125h 28.7717" fill="none" stroke="#0000ff" stroke-width="2"/>
<text xml:space="preserve" x="130.818" y="408.075" fill="black" font-size="20.467" font-family="Helvetica">Comparing BW
</text>
<text xml:space="preserve" x="130.818" y="428.051" fill="black" font-size="20.467" font-family="Helvetica">M = 9000 GeV
</text>
<text xml:space="preserve" x="143.184" y="448.026" fill="black" font-size="20.467" font-family="Helvetica"> = 1350 GeV
</text>
<text xml:space="preserve" x="130.818" y="448.026" fill="black" font-size="20.467" font-family="Times">&#0915;
</text>
<path d="M57.1929,489.69h 498.898" fill="none" stroke="black"/>
<path d="M57.1929,475.326v 14.3642" fill="none" stroke="black"/>
<path d="M76.3621,482.508v 7.18212" fill="none" stroke="black"/>
<path d="M95.5313,482.508v 7.18212" fill="none" stroke="black"/>
<path d="M114.701,482.508v 7.18212" fill="none" stroke="black"/>
<path d="M133.87,475.326v 14.3642" fill="none" stroke="black"/>
<path d="M153.039,482.508v 7.18212" fill="none" stroke="black"/>
<path d="M172.208,482.508v 7.18212" fill="none" stroke="black"/>
<path d="M191.377,482.508v 7.18212" fill="none" stroke="black"/>
<path d="M210.547,475.326v 14.3642" fill="none" stroke="black"/>
<path d="M229.716,482.508v 7.18212" fill="none" stroke="black"/>
<path d="M248.885,482.508v 7.18212" fill="none" stroke="black"/>
<path d="M268.054,482.508v 7.18212" fill="none" stroke="black"/>
<path d="M287.223,475.326v 14.3642" fill="none" stroke="black"/>
<path d="M306.393,482.508v 7.18212" fill="none" stroke="black"/>
<path d="M325.562,482.508v 7.18212" fill="none" stroke="black"/>
<path d="M344.731,482.508v 7.18212" fill="none" stroke="black"/>
<path d="M363.9,475.326v 14.3642" fill="none" stroke="black"/>
<path d="M383.069,482.508v 7.18212" fill="none" stroke="black"/>
<path d="M402.239,482.508v 7.18212" fill="none" stroke="black"/>
<path d="M421.408,482.508v 7.18212" fill="none" stroke="black"/>
<path d="M440.577,475.326v 14.3642" fill="none" stroke="black"/>
<path d="M459.746,482.508v 7.18212" fill="none" stroke="black"/>
<path d="M478.915,482.508v 7.18212" fill="none" stroke="black"/>
<path d="M498.085,482.508v 7.18212" fill="none" stroke="black"/>
<path d="M517.254,475.326v 14.3642" fill="none" stroke="black"/>
<path d="M517.254,475.326v 14.3642" fill="none" stroke="black"/>
<path d="M536.423,482.508v 7.18212" fill="none" stroke="black"/>
<path d="M555.592,482.508v 7.18212" fill="none" stroke="black"/>
<path d="M57.1929,10.882h 498.898" fill="none" stroke="black"/>
<path d="M57.1929,25.2462v -14.3642" fill="none" stroke="black"/>
<path d="M76.3621,18.0641v -7.18212" fill="none" stroke="black"/>
<path d="M95.5313,18.0641v -7.18212" fill="none" stroke="black"/>
<path d="M114.701,18.0641v -7.18212" fill="none" stroke="black"/>
<path d="M133.87,25.2462v -14.3642" fill="none" stroke="black"/>
<path d="M153.039,18.0641v -7.18212" fill="none" stroke="black"/>
<path d="M172.208,18.0641v -7.18212" fill="none" stroke="black"/>
<path d="M191.377,18.0641v -7.18212" fill="none" stroke="black"/>
<path d="M210.547,25.2462v -14.3642" fill="none" stroke="black"/>
<path d="M229.716,18.0641v -7.18212" fill="none" stroke="black"/>
<path d="M248.885,18.0641v -7.18212" fill="none" stroke="black"/>
<path d="M268.054,18.0641v -7.18212" fill="none" stroke="black"/>
<path d="M287.223,25.2462v -14.3642" fill="none" stroke="black"/>
<path d="M306.393,18.0641v -7.18212" fill="none" stroke="black"/>
<path d="M325.562,18.0641v -7.18212" fill="none" stroke="black"/>
<path d="M344.731,18.0641v -7.18212" fill="none" stroke="black"/>
<path d="M363.9,25.2462v -14.3642" fill="none" stroke="black"/>
<path d="M383.069,18.0641v -7.18212" fill="none" stroke="black"/>
<path d="M402.239,18.0641v -7.18212" fill="none" stroke="black"/>
<path d="M421.408,18.0641v -7.18212" fill="none" stroke="black"/>
<path d="M440.577,25.2462v -14.3642" fill="none" stroke="black"/>
<path d="M459.746,18.0641v -7.18212" fill="none" stroke="black"/>
<path d="M478.915,18.0641v -7.18212" fill="none" stroke="black"/>
<path d="M498.085,18.0641v -7.18212" fill="none" stroke="black"/>
<path d="M517.254,25.2462v -14.3642" fill="none" stroke="black"/>
<path d="M517.254,25.2462v -14.3642" fill="none" stroke="black"/>
<path d="M536.423,18.0641v -7.18212" fill="none" stroke="black"/>
<path d="M555.592,18.0641v -7.18212" fill="none" stroke="black"/>
<path d="M57.1929,489.69v -478.808" fill="none" stroke="black"/>
<path d="M64.6764,486.102h -7.48346" fill="none" stroke="black"/>
<path d="M64.6764,478.077h -7.48346" fill="none" stroke="black"/>
<path d="M64.6764,470.999h -7.48346" fill="none" stroke="black"/>
<path d="M72.1598,464.667h -14.9669" fill="none" stroke="black"/>
<path d="M64.6764,423.01h -7.48346" fill="none" stroke="black"/>
<path d="M64.6764,398.642h -7.48346" fill="none" stroke="black"/>
<path d="M64.6764,381.353h -7.48346" fill="none" stroke="black"/>
<path d="M64.6764,367.942h -7.48346" fill="none" stroke="black"/>
<path d="M64.6764,356.985h -7.48346" fill="none" stroke="black"/>
<path d="M64.6764,347.721h -7.48346" fill="none" stroke="black"/>
<path d="M64.6764,339.696h -7.48346" fill="none" stroke="black"/>
<path d="M64.6764,332.617h -7.48346" fill="none" stroke="black"/>
<path d="M72.1598,326.285h -14.9669" fill="none" stroke="black"/>
<path d="M64.6764,284.628h -7.48346" fill="none" stroke="black"/>
<path d="M64.6764,260.26h -7.48346" fill="none" stroke="black"/>
<path d="M64.6764,242.971h -7.48346" fill="none" stroke="black"/>
<path d="M64.6764,229.56h -7.48346" fill="none" stroke="black"/>
<path d="M64.6764,218.603h -7.48346" fill="none" stroke="black"/>
<path d="M64.6764,209.339h -7.48346" fill="none" stroke="black"/>
<path d="M64.6764,201.314h -7.48346" fill="none" stroke="black"/>
<path d="M64.6764,194.235h -7.48346" fill="none" stroke="black"/>
<path d="M72.1598,187.903h -14.9669" fill="none" stroke="black"/>
<path d="M64.6764,146.246h -7.48346" fill="none" stroke="black"/>
<path d="M64.6764,121.879h -7.48346" fill="none" stroke="black"/>
<path d="M64.6764,104.589h -7.48346" fill="none" stroke="black"/>
<path d="M64.6764,91.1788h -7.48346" fill="none" stroke="black"/>
<path d="M64.6764,80.2216h -7.48346" fill="none" stroke="black"/>
<path d="M64.6764,70.9574h -7.48346" fill="none" stroke="black"/>
<path d="M64.6764,62.9324h -7.48346" fill="none" stroke="black"/>
<path d="M64.6764,55.8538h -7.48346" fill="none" stroke="black"/>
<path d="M72.1598,49.5218h -14.9669" fill="none" stroke="black"/>
<path d="M556.091,489.69v -478.808" fill="none" stroke="black"/>
<path d="M548.607,486.102h 7.48346" fill="none" stroke="black"/>
<path d="M548.607,478.077h 7.48346" fill="none" stroke="black"/>
<path d="M548.607,470.999h 7.48346" fill="none" stroke="black"/>
<path d="M541.124,464.667h 14.9669" fill="none" stroke="black"/>
<path d="M548.607,423.01h 7.48346" fill="none" stroke="black"/>
<path d="M548.607,398.642h 7.48346" fill="none" stroke="black"/>
<path d="M548.607,381.353h 7.48346" fill="none" stroke="black"/>
<path d="M548.607,367.942h 7.48346" fill="none" stroke="black"/>
<path d="M548.607,356.985h 7.48346" fill="none" stroke="black"/>
<path d="M548.607,347.721h 7.48346" fill="none" stroke="black"/>
<path d="M548.607,339.696h 7.48346" fill="none" stroke="black"/>
<path d="M548.607,332.617h 7.48346" fill="none" stroke="black"/>
<path d="M541.124,326.285h 14.9669" fill="none" stroke="black"/>
<path d="M548.607,284.628h 7.48346" fill="none" stroke="black"/>
<path d="M548.607,260.26h 7.48346" fill="none" stroke="black"/>
<path d="M548.607,242.971h 7.48346" fill="none" stroke="black"/>
<path d="M548.607,229.56h 7.48346" fill="none" stroke="black"/>
<path d="M548.607,218.603h 7.48346" fill="none" stroke="black"/>
<path d="M548.607,209.339h 7.48346" fill="none" stroke="black"/>
<path d="M548.607,201.314h 7.48346" fill="none" stroke="black"/>
<path d="M548.607,194.235h 7.48346" fill="none" stroke="black"/>
<path d="M541.124,187.903h 14.9669" fill="none" stroke="black"/>
<path d="M548.607,146.246h 7.48346" fill="none" stroke="black"/>
<path d="M548.607,121.879h 7.48346" fill="none" stroke="black"/>
<path d="M548.607,104.589h 7.48346" fill="none" stroke="black"/>
<path d="M548.607,91.1788h 7.48346" fill="none" stroke="black"/>
<path d="M548.607,80.2216h 7.48346" fill="none" stroke="black"/>
<path d="M548.607,70.9574h 7.48346" fill="none" stroke="black"/>
<path d="M548.607,62.9324h 7.48346" fill="none" stroke="black"/>
<path d="M548.607,55.8538h 7.48346" fill="none" stroke="black"/>
<path d="M541.124,49.5218h 14.9669" fill="none" stroke="black"/></svg>
