<?xml version="1.0" standalone="no"?>
<svg width="567.429" height="354.355" viewBox="0 0 567.429 354.355" xmlns="http://www.w3.org/2000/svg" shape-rendering="crispEdges">
<title>
./old_svg_pro/exclusiongraph_pro.svg
</title>
<desc>
Creator: ROOT Version 6.33/01
CreationDate: Thu Jun  6 16:11:20 2024</desc>
<defs>
</defs>
<rect x="0.5" y="0" width="566.929" height="353.855" fill="white"/>
<rect x="57.1929" y="35.3855" width="453.543" height="283.084" fill="white"/>
<rect x="57.1929" y="35.3855" width="453.543" height="283.084" fill="none" stroke="black"/>
<path d="M57.1929,318.47h 453.543" fill="none" stroke="black"/>
<path d="M77.8085,35.3855v 283.084" fill="none" stroke="black" stroke-dasharray=" 1, 2"/>
<path d="M130.669,35.3855v 283.084" fill="none" stroke="black" stroke-dasharray=" 1, 2"/>
<path d="M183.53,35.3855v 283.084" fill="none" stroke="black" stroke-dasharray=" 1, 2"/>
<path d="M236.39,35.3855v 283.084" fill="none" stroke="black" stroke-dasharray=" 1, 2"/>
<path d="M289.251,35.3855v 283.084" fill="none" stroke="black" stroke-dasharray=" 1, 2"/>
<path d="M342.111,35.3855v 283.084" fill="none" stroke="black" stroke-dasharray=" 1, 2"/>
<path d="M394.972,35.3855v 283.084" fill="none" stroke="black" stroke-dasharray=" 1, 2"/>
<path d="M447.832,35.3855v 283.084" fill="none" stroke="black" stroke-dasharray=" 1, 2"/>
<path d="M500.693,35.3855v 283.084" fill="none" stroke="black" stroke-dasharray=" 1, 2"/>
<path d="M77.8085,35.3855v 283.084" fill="none" stroke="black" stroke-dasharray=" 1, 2"/>
<path d="M500.693,35.3855v 283.084" fill="none" stroke="black" stroke-dasharray=" 1, 2"/>
<path d="M57.1929,318.47v -283.084" fill="none" stroke="black"/>
<path d="M510.736,305.713h -453.543" fill="none" stroke="black" stroke-dasharray=" 1, 2"/>
<path d="M510.736,241.348h -453.543" fill="none" stroke="black" stroke-dasharray=" 1, 2"/>
<path d="M510.736,176.983h -453.543" fill="none" stroke="black" stroke-dasharray=" 1, 2"/>
<path d="M510.736,112.618h -453.543" fill="none" stroke="black" stroke-dasharray=" 1, 2"/>
<path d="M510.736,48.253h -453.543" fill="none" stroke="black" stroke-dasharray=" 1, 2"/>
<path d="M510.736,305.713h -453.543" fill="none" stroke="black" stroke-dasharray=" 1, 2"/>
<path d="M510.736,48.253h -453.543" fill="none" stroke="black" stroke-dasharray=" 1, 2"/>
<path d="M57.1929,318.47h 453.543" fill="none" stroke="black"/>
<path d="M77.8085,309.977v 8.49252" fill="none" stroke="black"/>
<path d="M88.3806,314.223v 4.24626" fill="none" stroke="black"/>
<path d="M98.9527,314.223v 4.24626" fill="none" stroke="black"/>
<path d="M109.525,314.223v 4.24626" fill="none" stroke="black"/>
<path d="M120.097,314.223v 4.24626" fill="none" stroke="black"/>
<path d="M130.669,309.977v 8.49252" fill="none" stroke="black"/>
<path d="M141.241,314.223v 4.24626" fill="none" stroke="black"/>
<path d="M151.813,314.223v 4.24626" fill="none" stroke="black"/>
<path d="M162.385,314.223v 4.24626" fill="none" stroke="black"/>
<path d="M172.957,314.223v 4.24626" fill="none" stroke="black"/>
<path d="M183.53,309.977v 8.49252" fill="none" stroke="black"/>
<path d="M194.102,314.223v 4.24626" fill="none" stroke="black"/>
<path d="M204.674,314.223v 4.24626" fill="none" stroke="black"/>
<path d="M215.246,314.223v 4.24626" fill="none" stroke="black"/>
<path d="M225.818,314.223v 4.24626" fill="none" stroke="black"/>
<path d="M236.39,309.977v 8.49252" fill="none" stroke="black"/>
<path d="M246.962,314.223v 4.24626" fill="none" stroke="black"/>
<path d="M257.534,314.223v 4.24626" fill="none" stroke="black"/>
<path d="M268.106,314.223v 4.24626" fill="none" stroke="black"/>
<path d="M278.679,314.223v 4.24626" fill="none" stroke="black"/>
<path d="M289.251,309.977v 8.49252" fill="none" stroke="black"/>
<path d="M299.823,314.223v 4.24626" fill="none" stroke="black"/>
<path d="M310.395,314.223v 4.24626" fill="none" stroke="black"/>
<path d="M320.967,314.223v 4.24626" fill="none" stroke="black"/>
<path d="M331.539,314.223v 4.24626" fill="none" stroke="black"/>
<path d="M342.111,309.977v 8.49252" fill="none" stroke="black"/>
<path d="M352.683,314.223v 4.24626" fill="none" stroke="black"/>
<path d="M363.255,314.223v 4.24626" fill="none" stroke="black"/>
<path d="M373.827,314.223v 4.24626" fill="none" stroke="black"/>
<path d="M384.4,314.223v 4.24626" fill="none" stroke="black"/>
<path d="M394.972,309.977v 8.49252" fill="none" stroke="black"/>
<path d="M405.544,314.223v 4.24626" fill="none" stroke="black"/>
<path d="M416.116,314.223v 4.24626" fill="none" stroke="black"/>
<path d="M426.688,314.223v 4.24626" fill="none" stroke="black"/>
<path d="M437.26,314.223v 4.24626" fill="none" stroke="black"/>
<path d="M447.832,309.977v 8.49252" fill="none" stroke="black"/>
<path d="M458.404,314.223v 4.24626" fill="none" stroke="black"/>
<path d="M468.976,314.223v 4.24626" fill="none" stroke="black"/>
<path d="M479.548,314.223v 4.24626" fill="none" stroke="black"/>
<path d="M490.121,314.223v 4.24626" fill="none" stroke="black"/>
<path d="M500.693,309.977v 8.49252" fill="none" stroke="black"/>
<path d="M77.8085,309.977v 8.49252" fill="none" stroke="black"/>
<path d="M67.2364,314.223v 4.24626" fill="none" stroke="black"/>
<path d="M500.693,309.977v 8.49252" fill="none" stroke="black"/>
<text xml:space="preserve" x="73.7442" y="330.074" fill="black" font-size="11.8623" font-family="Helvetica">0
</text>
<text xml:space="preserve" x="122.257" y="330.074" fill="black" font-size="11.8623" font-family="Helvetica">0.5
</text>
<text xml:space="preserve" x="180.281" y="330.074" fill="black" font-size="11.8623" font-family="Helvetica">1
</text>
<text xml:space="preserve" x="227.842" y="330.074" fill="black" font-size="11.8623" font-family="Helvetica">1.5
</text>
<text xml:space="preserve" x="285.867" y="330.074" fill="black" font-size="11.8623" font-family="Helvetica">2
</text>
<text xml:space="preserve" x="333.428" y="330.074" fill="black" font-size="11.8623" font-family="Helvetica">2.5
</text>
<text xml:space="preserve" x="391.453" y="330.074" fill="black" font-size="11.8623" font-family="Helvetica">3
</text>
<text xml:space="preserve" x="439.014" y="330.074" fill="black" font-size="11.8623" font-family="Helvetica">3.5
</text>
<text xml:space="preserve" x="497.039" y="330.074" fill="black" font-size="11.8623" font-family="Helvetica">4
</text>
<path d="M57.1929,318.47v -283.084" fill="none" stroke="black"/>
<path d="M70.7992,305.713h -13.6063" fill="none" stroke="black"/>
<path d="M63.9961,292.84h -6.80315" fill="none" stroke="black"/>
<path d="M63.9961,279.967h -6.80315" fill="none" stroke="black"/>
<path d="M63.9961,267.094h -6.80315" fill="none" stroke="black"/>
<path d="M63.9961,254.221h -6.80315" fill="none" stroke="black"/>
<path d="M70.7992,241.348h -13.6063" fill="none" stroke="black"/>
<path d="M63.9961,228.475h -6.80315" fill="none" stroke="black"/>
<path d="M63.9961,215.602h -6.80315" fill="none" stroke="black"/>
<path d="M63.9961,202.729h -6.80315" fill="none" stroke="black"/>
<path d="M63.9961,189.856h -6.80315" fill="none" stroke="black"/>
<path d="M70.7992,176.983h -13.6063" fill="none" stroke="black"/>
<path d="M63.9961,164.11h -6.80315" fill="none" stroke="black"/>
<path d="M63.9961,151.237h -6.80315" fill="none" stroke="black"/>
<path d="M63.9961,138.364h -6.80315" fill="none" stroke="black"/>
<path d="M63.9961,125.491h -6.80315" fill="none" stroke="black"/>
<path d="M70.7992,112.618h -13.6063" fill="none" stroke="black"/>
<path d="M63.9961,99.7451h -6.80315" fill="none" stroke="black"/>
<path d="M63.9961,86.872h -6.80315" fill="none" stroke="black"/>
<path d="M63.9961,73.999h -6.80315" fill="none" stroke="black"/>
<path d="M63.9961,61.126h -6.80315" fill="none" stroke="black"/>
<path d="M70.7992,48.253h -13.6063" fill="none" stroke="black"/>
<path d="M70.7992,305.713h -13.6063" fill="none" stroke="black"/>
<path d="M70.7992,48.253h -13.6063" fill="none" stroke="black"/>
<text xml:space="preserve" x="42.3538" y="310.099" fill="black" font-size="11.8623" font-family="Helvetica">10
</text>
<text xml:space="preserve" x="35.6953" y="310.099" fill="black" font-size="11.8623" font-family="Times">&#8722;
</text>
<text xml:space="preserve" x="48.0612" y="246.367" fill="black" font-size="11.8623" font-family="Helvetica">5
</text>
<text xml:space="preserve" x="41.4026" y="246.367" fill="black" font-size="11.8623" font-family="Times">&#8722;
</text>
<text xml:space="preserve" x="48.0612" y="181.684" fill="black" font-size="11.8623" font-family="Helvetica">0
</text>
<text xml:space="preserve" x="48.0612" y="117" fill="black" font-size="11.8623" font-family="Helvetica">5
</text>
<text xml:space="preserve" x="42.3538" y="53.2685" fill="black" font-size="11.8623" font-family="Helvetica">10
</text>
<text xml:space="preserve" x="215.476" y="18.0732" fill="black" font-size="18.3027" font-family="Helvetica">Exclusion graphs
</text>
<path d="M57.1929,160.024l 20.6156, 16.959l 10.5721, -12.8516l 10.5721, -12.7232l 10.5721, -12.4676l 10.5721, -12.0875l 10.5721, -11.5866l 9.02782, -9.41192l 1.54428, -1.55808l 8.41092, -8.2154l 2.16119, -2.02834l 7.91907, -7.13697l 2.65304,
 -2.27815l 7.52124, -6.14267l 3.05086, -2.34977l 7.19995, -5.21247l 3.37215, -2.27243l 6.94345, -4.33178l 3.62866, -2.0708l 6.74301, -3.48881l 3.82909, -1.76747l 6.59202, -2.67363l 3.98008, -1.38383l 6.48552, -1.87777l 4.08658, -0.940329l 6.42002,
 -1.09387l 4.15209, -0.456716l 6.39336, -0.315333l 4.17875, 0.0477524l 6.40476, 0.464026l 4.16735, 0.554075l 6.45477, 1.2504l 4.11733, 1.04321l 6.54505, 2.05033l 4.02705, 1.49587l 6.67857, 2.87103l 3.89354, 1.89233l 6.85974, 3.72077l 3.71237,
 2.21216l 7.09461, 4.60919l 3.47749, 2.43402l 7.39124, 5.54772l 3.18087, 2.5354l 7.76036, 6.55028l 2.81175, 2.49199l 8.21739, 7.63508l 2.35471, 2.27599l 8.788, 8.83065l 1.7841, 1.8502l 10.5721, 11.3439l 10.5721, 11.8936l 10.5721, 12.3245l 10.5721,
 12.6322l 10.5721, 12.8137l 10.5721, 12.8672l 10.5721, 12.7921l 10.5721, 12.5892l 32.5612, -27.344l -10.4647, -12.4608l -10.4265, -12.6164l -10.5609, -12.8536l -10.6948, -12.9621l -10.8342, -12.9445l -10.9852, -12.8047l -11.1548, -12.5471l -11.1591,
 -11.9758l -2.26769, -2.35203l -9.3161, -9.36034l -2.953, -2.85421l -8.89107, -8.25984l -3.56981, -3.16364l -8.60951, -7.2656l -4.13142, -3.29269l -8.45084, -6.34136l -4.42232, -3.0948h -174.097l -1.026, 0.691249l -8.29113, 6.00078l -4.03169,
 3.10475l -8.3982, 6.85747l -3.43786, 2.95183l -8.61736, 7.7651l -2.78346, 2.61228l -8.96113, 8.75181l -2.03194, 2.05013l -9.63436, 10.047l -11.2313, 12.3076l -11.0815, 12.6682l -10.9205, 12.8774l -9.19304, 11.063z" fill="white"/>
<path d="M77.8085,176.983l 10.5721, -12.8516l 10.5721, -12.7232l 10.5721, -12.4676l 10.5721, -12.0875l 10.5721, -11.5866l 9.02782, -9.41192l 1.54428, -1.55808l 8.41092, -8.2154l 2.16119, -2.02834l 7.91907, -7.13697l 2.65304, -2.27815l 7.52124,
 -6.14267l 3.05086, -2.34977l 7.19995, -5.21247l 3.37215, -2.27243l 6.94345, -4.33178l 3.62866, -2.0708l 6.74301, -3.48881l 3.82909, -1.76747l 6.59202, -2.67363l 3.98008, -1.38383l 6.48552, -1.87777l 4.08658, -0.940329l 6.42002, -1.09387l 4.15209,
 -0.456716l 6.39336, -0.315333l 4.17875, 0.0477524l 6.40476, 0.464026l 4.16735, 0.554075l 6.45477, 1.2504l 4.11733, 1.04321l 6.54505, 2.05033l 4.02705, 1.49587l 6.67857, 2.87103l 3.89354, 1.89233l 6.85974, 3.72077l 3.71237, 2.21216l 7.09461, 4.60919l
 3.47749, 2.43402l 7.39124, 5.54772l 3.18087, 2.5354l 7.76036, 6.55028l 2.81175, 2.49199l 8.21739, 7.63508l 2.35471, 2.27599l 8.788, 8.83065l 1.7841, 1.8502l 10.5721, 11.3439l 10.5721, 11.8936l 10.5721, 12.3245l 10.5721, 12.6322l 10.5721, 12.8137l
 10.5721, 12.8672l 10.5721, 12.7921l 10.5721, 12.5892" fill="none" stroke="#ff0000" stroke-width="4"/>
<path d="M77.8085,48.253l 8.25632, 0.392787l 2.31579, 0.250328l 8.28787, 1.40035l 2.28424, 0.522572l 8.37296, 2.41955l 2.19914, 0.763962l 8.50324, 3.45495l 2.06887, 0.957343l 8.6823, 4.51294l 1.8898, 1.08405l 8.91587, 5.60129l 1.65623, 1.12447l
 9.21309, 6.73065l 1.35901, 1.05669l 10.5721, 8.7711l 10.5721, 9.66722l 10.5721, 10.4668l 10.5721, 11.1617l 10.5721, 11.7451l 10.5721, 12.2112l 10.5721, 12.5553l 10.5721, 12.7739l 10.5721, 12.8649l 10.5721, 12.8273l 10.5721, 12.6616l 10.5721,
 12.3694l 10.5721, 11.9535l 10.5721, 11.4183l 10.5721, 10.7689l 10.5721, 10.012l 10.5721, 9.155l 10.5721, 8.20654l 9.03063, 6.19777l 1.54148, 0.978317l 8.77196, 5.12113l 1.80015, 0.952799l 8.57111, 4.07384l 2.001, 0.837245l 8.42115, 3.04715l 2.15095,
 0.65202l 8.3177, 2.03417l 2.2544, 0.416121l 8.25804, 1.02896l 2.31407, 0.147972l 8.24068, 0.0260502l 2.33142, -0.134232l 8.26503, -0.979811l 2.30708, -0.412407l 8.28721, -1.97933l 2.2849, -0.683013l 5.09075, 17.0302h -143.25l -3.51274, -2.7254l
 -12.6783, -10.9705l -12.2409, -11.586l -11.8784, -12.0948l -11.5758, -12.4988l -11.3193, -12.7958l -11.0968, -12.9815l -10.8978, -13.0507l -10.7134, -12.9983l -10.5352, -12.82l -10.3553, -12.5126l -10.1659, -12.0741l -9.95834, -11.5043l -9.72304,
 -10.8047l -9.4489, -9.97985l -9.12313, -9.0376l -8.7313, -7.99111l -8.83678, -7.31925l 0.0193895, 0.0160337l -7.73675, -5.65466l -0.0140801, -0.0101607l -7.09912, -4.46283l 0.116199, 0.065782l -6.4827, -3.37274l 0.334531, 0.153719l -5.61355,
 -2.2838l -5.07747, -1.46978l 0.863595, 0.196666l -4.47021, -0.756925l -6.03474, -0.263464z" fill="#5954d8"/>
<path d="M77.8085,48.253l 8.25632, 0.392787l 2.31579, 0.250328l 8.28787, 1.40035l 2.28424, 0.522572l 8.37296, 2.41955l 2.19914, 0.763962l 8.50324, 3.45495l 2.06887, 0.957343l 8.6823, 4.51294l 1.8898, 1.08405l 8.91587, 5.60129l 1.65623, 1.12447l
 9.21309, 6.73065l 1.35901, 1.05669l 10.5721, 8.7711l 10.5721, 9.66722l 10.5721, 10.4668l 10.5721, 11.1617l 10.5721, 11.7451l 10.5721, 12.2112l 10.5721, 12.5553l 10.5721, 12.7739l 10.5721, 12.8649l 10.5721, 12.8273l 10.5721, 12.6616l 10.5721,
 12.3694l 10.5721, 11.9535l 10.5721, 11.4183l 10.5721, 10.7689l 10.5721, 10.012l 10.5721, 9.155l 10.5721, 8.20654l 9.03063, 6.19777l 1.54148, 0.978317l 8.77196, 5.12113l 1.80015, 0.952799l 8.57111, 4.07384l 2.001, 0.837245l 8.42115, 3.04715l 2.15095,
 0.65202l 8.3177, 2.03417l 2.2544, 0.416121l 8.25804, 1.02896l 2.31407, 0.147972l 8.24068, 0.0260502l 2.33142, -0.134232l 8.26503, -0.979811l 2.30708, -0.412407l 8.28721, -1.97933l 2.2849, -0.683013" fill="none" stroke="#0000ff" stroke-width="2"/>
<path d="M130.669,202.729l 10.5721, -12.8516l 10.5721, -12.7232l 10.5721, -12.4676l 10.5721, -12.0875l 10.5721, -11.5866l 9.02782, -9.41192l 1.54428, -1.55808l 8.41092, -8.2154l 2.16119, -2.02834l 7.91907, -7.13697l 2.65304, -2.27815l 7.52124,
 -6.14267l 3.05086, -2.34977l 7.19995, -5.21247l 3.37215, -2.27243l 6.94345, -4.33178l 3.62866, -2.0708l 6.74301, -3.48881l 3.82909, -1.76747l 6.59202, -2.67363l 3.98008, -1.38383l 6.48552, -1.87777l 4.08658, -0.940329l 6.42002, -1.09387l 4.15209,
 -0.456716l 6.39336, -0.315333l 4.17875, 0.0477524l 6.40476, 0.464026l 4.16735, 0.554075l 6.45477, 1.2504l 4.11733, 1.04321l 6.54505, 2.05033l 4.02705, 1.49587l 6.67857, 2.87103l 3.89354, 1.89233l 6.85974, 3.72077l 3.71237, 2.21216l 7.09461, 4.60919l
 3.47749, 2.43402l 7.39124, 5.54772l 3.18087, 2.5354l 7.76036, 6.55028l 2.81175, 2.49199l 8.21739, 7.63508l 2.35471, 2.27599l 8.788, 8.83065l 1.7841, 1.8502l 10.5721, 11.3439l 10.5721, 11.8936l 10.5721, 12.3245l 10.5721, 12.6322l 10.5721, 12.8137l
 10.5721, 12.8672l 10.5721, 12.7921l 10.5721, 12.5892l -17.3659, 14.5835l -10.6294, -12.6577l -10.6498, -12.8858l -10.5781, -12.8745l -10.5067, -12.7346l -10.4323, -12.4656l -10.3518, -12.0684l -10.2614, -11.5451l -10.259, -11.0069l -1.52618,
 -1.58256l -8.50636, -8.54815l -2.03562, -1.96761l -7.8581, -7.30187l -2.40744, -2.13378l -7.30748, -6.16877l -2.6739, -2.13151l -6.82611, -5.12445l -2.84825, -1.9939l -6.3973, -4.1572l -2.94127, -1.75309l -6.01223, -3.26222l -2.96549, -1.44179l
 -5.67052, -2.43886l -2.93835, -1.092l -5.3816, -1.68693l -2.8838, -0.731109l -5.1639, -1.00112l -2.82973, -0.376457l -5.03934, -0.36545l -2.80021, -0.0319258l -5.02345, 0.247924l -2.80561, 0.30898l -5.11671, 0.872423l -2.8373, 0.653447l -5.30427,
 1.53669l -2.8717, 0.999116l -5.56377, 2.25766l -2.88023, 1.3301l -5.87527, 3.04092l -2.83755, 1.61984l -6.2273, 3.886l -2.7247, 1.8365l -6.61799, 4.79204l -2.52776, 1.94711l -7.05353, 5.76145l -2.23446, 1.91885l -7.54665, 6.80198l -1.82931, 1.71691l
 -8.11747, 7.92931l -1.2842, 1.29565l -8.70434, 9.07323l -10.2206, 11.2021l -10.3004, 11.7778l -10.3863, 12.2491l -10.4638, 12.5932l -10.5364, 12.8083z" fill="#ff0000"/>
<path d="M130.669,202.729l 10.5721, -12.8516l 10.5721, -12.7232l 10.5721, -12.4676l 10.5721, -12.0875l 10.5721, -11.5866l 9.02782, -9.41192l 1.54428, -1.55808l 8.41092, -8.2154l 2.16119, -2.02834l 7.91907, -7.13697l 2.65304, -2.27815l 7.52124,
 -6.14267l 3.05086, -2.34977l 7.19995, -5.21247l 3.37215, -2.27243l 6.94345, -4.33178l 3.62866, -2.0708l 6.74301, -3.48881l 3.82909, -1.76747l 6.59202, -2.67363l 3.98008, -1.38383l 6.48552, -1.87777l 4.08658, -0.940329l 6.42002, -1.09387l 4.15209,
 -0.456716l 6.39336, -0.315333l 4.17875, 0.0477524l 6.40476, 0.464026l 4.16735, 0.554075l 6.45477, 1.2504l 4.11733, 1.04321l 6.54505, 2.05033l 4.02705, 1.49587l 6.67857, 2.87103l 3.89354, 1.89233l 6.85974, 3.72077l 3.71237, 2.21216l 7.09461, 4.60919l
 3.47749, 2.43402l 7.39124, 5.54772l 3.18087, 2.5354l 7.76036, 6.55028l 2.81175, 2.49199l 8.21739, 7.63508l 2.35471, 2.27599l 8.788, 8.83065l 1.7841, 1.8502l 10.5721, 11.3439l 10.5721, 11.8936l 10.5721, 12.3245l 10.5721, 12.6322l 10.5721, 12.8137l
 10.5721, 12.8672l 10.5721, 12.7921l 10.5721, 12.5892" fill="none" stroke="#ffff00" stroke-width="2"/>
<text xml:space="preserve" x="215.476" y="18.0732" fill="black" font-size="18.3027" font-family="Helvetica">Exclusion graphs
</text></svg>
