<?xml version="1.0" standalone="no"?>
<svg width="567.429" height="407.891" viewBox="0 0 567.429 407.891" xmlns="http://www.w3.org/2000/svg" shape-rendering="crispEdges">
<title>
./old_svg_pro/temp_Fibonacci_pro.svg
</title>
<desc>
Creator: ROOT Version 6.33.01
CreationDate: Wed Jul  3 13:19:47 2024</desc>
<defs>
</defs>
<rect x="0.5" y="0" width="566.929" height="407.391" fill="white"/>
<rect x="57.1929" y="40.7391" width="453.543" height="325.913" fill="white"/>
<path d="M377.341,135.55v -5.92569h 13.3395v 5.92569h -13.3395z" fill="#263da8"/>
<path d="M390.681,129.624v 5.92569l 0.436457, -0.00317269l 0.435989, -0.00951467l 0.435055, -0.0158465l 0.433655, -0.0221613l 0.43179, -0.0284524l 0.429463, -0.034713l 0.426677, -0.0409365l 0.423433, -0.0471161l 0.419736, -0.0532452l 0.41559,
 -0.0593174l 0.410998, -0.065326l 0.405966, -0.0712647l 0.4005, -0.0771271l 0.394605, -0.0829068l 0.388287, -0.0885978l 0.381553, -0.094194l 0.374411, -0.0996892l 0.366868, -0.105078l 0.358932, -0.110354l 0.350612, -0.115512l 0.341916, -0.120546l
 0.332855, -0.125451l 0.323436, -0.130221l 0.313672, -0.134853l 0.303571, -0.13934l 0.293146, -0.143677l 0.282406, -0.147861l 0.271364, -0.151886l 0.260032, -0.155749l 0.248421, -0.159445l 0.236544, -0.162971l 0.224414, -0.166321l 0.212043,
 -0.169494l 0.199445, -0.172485l 0.186634, -0.175292l 0.173623, -0.177911l 0.160426, -0.180339l 0.147057, -0.182574l 0.133531, -0.184614l 0.119862, -0.186456l 0.106064, -0.188098l 0.0921533, -0.189539l 0.0781435, -0.190777l 0.06405, -0.19181l
 0.049888, -0.192639l 0.0356725, -0.193261l 0.0214188, -0.193676l 0.00714214, -0.193883z" fill="#263da8"/>
<path d="M377.341,129.624h 26.679l -0.0142843, -0.387766l -0.0428375, -0.387351l -0.0713449, -0.386521l -0.0997759, -0.385277l -0.1281, -0.383621l -0.156287, -0.381553l -0.184307, -0.379078l -0.212129, -0.376196l -0.239724, -0.372911l -0.267062,
 -0.369227l -0.294115, -0.365148l -0.320852, -0.360678l -0.347246, -0.355821l -0.373268, -0.350584l -0.398891, -0.344971l -0.424086, -0.338988l -0.448827, -0.332643l -0.473088, -0.325941l -0.496841, -0.318891l -0.520063, -0.311499l -0.542728,
 -0.303773l -0.564812, -0.295722l -0.586291, -0.287354l -0.607142, -0.278679l -0.627343, -0.269705l -0.646872, -0.260443l -0.665709, -0.250901l -0.683833, -0.241091l -0.701224, -0.231023l -0.717865, -0.220707l -0.733737, -0.210155l -0.748823,
 -0.199378l -0.763107, -0.188388l -0.776574, -0.177196l -0.78921, -0.165814l -0.801, -0.154254l -0.811933, -0.142529l -0.821996, -0.130652l -0.831179, -0.118635l -0.839472, -0.10649l -0.846866, -0.0942322l -0.853354, -0.0818729l -0.858927, -0.069426l
 -0.863581, -0.0569048l -0.86731, -0.0443226l -0.87011, -0.0316929l -0.871978, -0.0190293l -0.872913, -0.00634538z" fill="#263da8"/>
<path d="M377.341,135.55v -17.7771l -1.30937, 0.00951807l -1.30797, 0.028544l -1.30516, 0.0475394l -1.30096, 0.0664839l -1.29537, 0.0853571l -1.28839, 0.104139l -1.28003, 0.122809l -1.2703, 0.141348l -1.25921, 0.159736l -1.24677, 0.177952l -1.23299,
 0.195978l -1.2179, 0.213794l -1.2015, 0.231381l -1.18381, 0.248721l -1.16486, 0.265794l -1.14466, 0.282582l -1.12323, 0.299068l -1.1006, 0.315233l -1.0768, 0.331061l -1.05184, 0.346535l -1.02575, 0.361637l -0.998564, 0.376352l -0.970309, 0.390664l
 -0.941015, 0.404558l -0.910713, 0.418019l -0.879437, 0.431032l -0.847218, 0.443583l -0.814092, 0.455659l -0.780095, 0.467248l -0.745262, 0.478336l -0.709631, 0.488912l -0.673241, 0.498964l -0.636129, 0.508482l -0.598336, 0.517456l -0.559903,
 0.525875l -0.520869, 0.533732l -0.481279, 0.541017l -0.441172, 0.547722l -0.400594, 0.553841l -0.359586, 0.559367l -0.318193, 0.564294l -0.27646, 0.568616l -0.234431, 0.57233l -0.19215, 0.575431l -0.149664, 0.577916l -0.107017, 0.579782l -0.0642563,
 0.581027l -0.0214264, 0.58165z" fill="#1652cc"/>
<path d="M404.02,135.55h -66.6975l 0.0357107, 0.969416l 0.107094, 0.968378l 0.178362, 0.966303l 0.24944, 0.963193l 0.32025, 0.959052l 0.390718, 0.953884l 0.460767, 0.947694l 0.530322, 0.94049l 0.59931, 0.932278l 0.667656, 0.923068l 0.735287, 0.91287l
 0.802131, 0.901694l 0.868116, 0.889553l 0.933171, 0.876459l 0.997227, 0.862427l 1.06021, 0.847471l 1.12207, 0.831607l 1.18272, 0.814853l 1.2421, 0.797227l 1.30016, 0.778746l 1.35682, 0.759432l 1.41203, 0.739305l 1.46573, 0.718386l 1.51786, 0.696698l
 1.56836, 0.674263l 1.61718, 0.651107l 1.66427, 0.627254l 1.70958, 0.602728l 1.75306, 0.577558l 1.79466, 0.551769l 1.83434, 0.525389l 1.87206, 0.498446l 1.90777, 0.47097l 1.94144, 0.442989l 1.97302, 0.414534l 2.0025, 0.385635l 2.02983, 0.356324l
 2.05499, 0.32663l 2.07795, 0.296587l 2.09868, 0.266226l 2.11717, 0.23558l 2.13338, 0.204682l 2.14732, 0.173565l 2.15895, 0.142262l 2.16827, 0.110806l 2.17527, 0.0792323l 2.17995, 0.0475734l 2.18228, 0.0158634z" fill="#1063db"/>
<path d="M404.02,117.773v 47.4055l 3.49165, -0.0253815l 3.48791, -0.0761174l 3.48044, -0.126772l 3.46924, -0.17729l 3.45432, -0.227619l 3.43571, -0.277704l 3.41341, -0.327492l 3.38747, -0.376929l 3.35789, -0.425962l 3.32472, -0.474539l 3.28798,
 -0.522608l 3.24773, -0.570118l 3.204, -0.617017l 3.15684, -0.663255l 3.1063, -0.708783l 3.05243, -0.753552l 2.99529, -0.797514l 2.93495, -0.840622l 2.87146, -0.88283l 2.8049, -0.924092l 2.73533, -0.964365l 2.66284, -1.00361l 2.58749, -1.04177l
 2.50937, -1.07882l 2.42857, -1.11472l 2.34516, -1.14942l 2.25925, -1.18289l 2.17091, -1.21509l 2.08025, -1.24599l 1.98737, -1.27556l 1.89235, -1.30377l 1.79531, -1.33057l 1.69634, -1.35595l 1.59556, -1.37988l 1.49307, -1.40233l 1.38899, -1.42328l
 1.28341, -1.44271l 1.17646, -1.46059l 1.06825, -1.47691l 0.958896, -1.49164l 0.848516, -1.50478l 0.737227, -1.51631l 0.625148, -1.52621l 0.5124, -1.53448l 0.399104, -1.54111l 0.28538, -1.54608l 0.17135, -1.5494l 0.0571371, -1.55107z"
 fill="#1380d5"/>
<path d="M337.323,117.773h 173.414l -0.0928478, -2.52048l -0.278444, -2.51778l -0.463742, -2.51239l -0.648544, -2.5043l -0.832651, -2.49353l -1.01587, -2.4801l -1.19799, -2.464l -1.37884, -2.44527l -1.55821, -2.42392l -1.73591, -2.39998l -1.91175,
 -2.37346l -2.08554, -2.3444l -2.2571, -2.31284l -2.42624, -2.27879l -2.59279, -2.24231l -2.75656, -2.20342l -2.91738, -2.16218l -3.07507, -2.11862l -3.22947, -2.07279l -3.38041, -2.02474l -3.52773, -1.97452l -3.67128, -1.92219l -3.81089, -1.8678l
 -3.94642, -1.81141l -4.07773, -1.75308l -4.20467, -1.69288l -4.32711, -1.63086l -4.44491, -1.56709l -4.55796, -1.50165l -4.66612, -1.4346l -4.76929, -1.36601l -4.86735, -1.29596l -4.9602, -1.22452l -5.04773, -1.15177l -5.12986, -1.07779l -5.2065,
 -1.00265l -5.27756, -0.926441l -5.34297, -0.849238l -5.40266, -0.771126l -5.45657, -0.692188l -5.50463, -0.612509l -5.5468, -0.532174l -5.58302, -0.451269l -5.61327, -0.369881l -5.63751, -0.288097l -5.65571, -0.206004l -5.66786, -0.123691l -5.67393,
 -0.041245z" fill="#0da7c2"/>
<path d="M337.323,165.179v -124.44l -9.16559, 0.0666265l -9.15577, 0.199808l -9.13615, 0.332776l -9.10675, 0.465387l -9.0676, 0.5975l -9.01873, 0.728973l -8.96021, 0.859666l -8.8921, 0.989438l -8.81446, 1.11815l -8.72738, 1.24567l -8.63096, 1.37185l
 -8.52529, 1.49656l -8.4105, 1.61967l -8.2867, 1.74104l -8.15403, 1.86055l -8.01262, 1.97807l -7.86264, 2.09347l -7.70423, 2.20663l -7.53758, 2.31743l -7.36285, 2.42574l -7.18024, 2.53146l -6.98994, 2.63446l -6.79216, 2.73465l -6.5871, 2.83191l
 -6.37499, 2.92613l -6.15606, 3.01722l -5.93053, 3.10508l -5.69865, 3.18962l -5.46066, 3.27074l -5.21684, 3.34835l -4.96742, 3.42238l -4.71268, 3.49275l -4.4529, 3.55938l -4.18835, 3.62219l -3.91932, 3.68113l -3.64609, 3.73612l -3.36895, 3.78712l
 -3.08821, 3.83405l -2.80416, 3.87689l -2.5171, 3.91557l -2.22735, 3.95006l -1.93522, 3.98032l -1.64101, 4.00631l -1.34505, 4.02802l -1.04765, 4.04541l -0.749122, 4.05847l -0.449794, 4.06719l -0.149985, 4.07155z" fill="#94be71"/>
<path d="M510.736,165.179h -453.543l 0.242833, 6.59203l 0.728238, 6.58497l 1.21286, 6.57086l 1.69619, 6.54971l 2.1777, 6.52155l 2.65688, 6.48641l 3.13321, 6.44432l 3.60619, 6.39533l 4.07531, 6.33949l 4.54006, 6.27686l 4.99995, 6.20752l 5.45449,
 6.13152l 5.90319, 6.04896l 6.34556, 5.95992l 6.78114, 5.8645l 7.20946, 5.7628l 7.63006, 5.65493l 8.04249, 5.541l 8.4463, 5.42114l 8.84108, 5.29548l 9.22638, 5.16414l 9.6018, 5.02727l 9.96695, 4.88503l 10.3214, 4.73754l 10.6648, 4.58499l 10.9968,
 4.42753l 11.3171, 4.26532l 11.6252, 4.09855l 11.9208, 3.92739l 12.2037, 3.75203l 12.4735, 3.57264l 12.73, 3.38943l 12.9728, 3.20259l 13.2018, 3.01233l 13.4166, 2.81883l 13.617, 2.62232l 13.8029, 2.423l 13.9739, 2.22108l 14.13, 2.01679l 14.271,
 1.81034l 14.3967, 1.60195l 14.507, 1.39184l 14.6018, 1.18024l 14.6809, 0.967381l 14.7443, 0.753484l 14.7919, 0.53878l 14.8236, 0.323499l 14.8395, 0.107871z" fill="#f9f90e"/>
<text xml:space="preserve" x="381.539" y="136.035" fill="#993333" font-size="7.97507" font-family="Helvetica" font-weight="bold">1
</text>
<text xml:space="preserve" x="395.071" y="136.035" fill="#993333" font-size="7.97507" font-family="Helvetica" font-weight="bold">1
</text>
<text xml:space="preserve" x="388.661" y="127.488" fill="#993333" font-size="7.97507" font-family="Helvetica" font-weight="bold">2
</text>
<text xml:space="preserve" x="355.187" y="129.624" fill="#993333" font-size="7.97507" font-family="Helvetica" font-weight="bold">3
</text>
<text xml:space="preserve" x="368.719" y="153.128" fill="#993333" font-size="7.97507" font-family="Helvetica" font-weight="bold">5
</text>
<text xml:space="preserve" x="454.898" y="144.581" fill="#993333" font-size="7.97507" font-family="Helvetica" font-weight="bold">8
</text>
<text xml:space="preserve" x="419.999" y="81.9056" fill="#993333" font-size="7.97507" font-family="Helvetica" font-weight="bold">13
</text>
<text xml:space="preserve" x="192.8" y="106.833" fill="#993333" font-size="7.97507" font-family="Helvetica" font-weight="bold">21
</text>
<text xml:space="preserve" x="279.691" y="268.508" fill="#993333" font-size="7.97507" font-family="Helvetica" font-weight="bold">34
</text>
<path d="M377.341,135.55v -5.92569h 13.3395v 5.92569h -13.3395z" fill="none" stroke="#263da8"/>
<path d="M377.341,135.55v -5.92569h 13.3395v 5.92569h -13.3395z" fill="none" stroke="black"/>
<path d="M390.681,129.624v 5.92569l 0.436457, -0.00317269l 0.435989, -0.00951467l 0.435055, -0.0158465l 0.433655, -0.0221613l 0.43179, -0.0284524l 0.429463, -0.034713l 0.426677, -0.0409365l 0.423433, -0.0471161l 0.419736, -0.0532452l 0.41559,
 -0.0593174l 0.410998, -0.065326l 0.405966, -0.0712647l 0.4005, -0.0771271l 0.394605, -0.0829068l 0.388287, -0.0885978l 0.381553, -0.094194l 0.374411, -0.0996892l 0.366868, -0.105078l 0.358932, -0.110354l 0.350612, -0.115512l 0.341916, -0.120546l
 0.332855, -0.125451l 0.323436, -0.130221l 0.313672, -0.134853l 0.303571, -0.13934l 0.293146, -0.143677l 0.282406, -0.147861l 0.271364, -0.151886l 0.260032, -0.155749l 0.248421, -0.159445l 0.236544, -0.162971l 0.224414, -0.166321l 0.212043,
 -0.169494l 0.199445, -0.172485l 0.186634, -0.175292l 0.173623, -0.177911l 0.160426, -0.180339l 0.147057, -0.182574l 0.133531, -0.184614l 0.119862, -0.186456l 0.106064, -0.188098l 0.0921533, -0.189539l 0.0781435, -0.190777l 0.06405, -0.19181l
 0.049888, -0.192639l 0.0356725, -0.193261l 0.0214188, -0.193676l 0.00714214, -0.193883z" fill="none" stroke="#263da8"/>
<path d="M390.681,129.624v 5.92569l 0.436457, -0.00317269l 0.435989, -0.00951467l 0.435055, -0.0158465l 0.433655, -0.0221613l 0.43179, -0.0284524l 0.429463, -0.034713l 0.426677, -0.0409365l 0.423433, -0.0471161l 0.419736, -0.0532452l 0.41559,
 -0.0593174l 0.410998, -0.065326l 0.405966, -0.0712647l 0.4005, -0.0771271l 0.394605, -0.0829068l 0.388287, -0.0885978l 0.381553, -0.094194l 0.374411, -0.0996892l 0.366868, -0.105078l 0.358932, -0.110354l 0.350612, -0.115512l 0.341916, -0.120546l
 0.332855, -0.125451l 0.323436, -0.130221l 0.313672, -0.134853l 0.303571, -0.13934l 0.293146, -0.143677l 0.282406, -0.147861l 0.271364, -0.151886l 0.260032, -0.155749l 0.248421, -0.159445l 0.236544, -0.162971l 0.224414, -0.166321l 0.212043,
 -0.169494l 0.199445, -0.172485l 0.186634, -0.175292l 0.173623, -0.177911l 0.160426, -0.180339l 0.147057, -0.182574l 0.133531, -0.184614l 0.119862, -0.186456l 0.106064, -0.188098l 0.0921533, -0.189539l 0.0781435, -0.190777l 0.06405, -0.19181l
 0.049888, -0.192639l 0.0356725, -0.193261l 0.0214188, -0.193676l 0.00714214, -0.193883h -13.3395z" fill="none" stroke="black"/>
<path d="M377.341,129.624h 26.679l -0.0142843, -0.387766l -0.0428375, -0.387351l -0.0713449, -0.386521l -0.0997759, -0.385277l -0.1281, -0.383621l -0.156287, -0.381553l -0.184307, -0.379078l -0.212129, -0.376196l -0.239724, -0.372911l -0.267062,
 -0.369227l -0.294115, -0.365148l -0.320852, -0.360678l -0.347246, -0.355821l -0.373268, -0.350584l -0.398891, -0.344971l -0.424086, -0.338988l -0.448827, -0.332643l -0.473088, -0.325941l -0.496841, -0.318891l -0.520063, -0.311499l -0.542728,
 -0.303773l -0.564812, -0.295722l -0.586291, -0.287354l -0.607142, -0.278679l -0.627343, -0.269705l -0.646872, -0.260443l -0.665709, -0.250901l -0.683833, -0.241091l -0.701224, -0.231023l -0.717865, -0.220707l -0.733737, -0.210155l -0.748823,
 -0.199378l -0.763107, -0.188388l -0.776574, -0.177196l -0.78921, -0.165814l -0.801, -0.154254l -0.811933, -0.142529l -0.821996, -0.130652l -0.831179, -0.118635l -0.839472, -0.10649l -0.846866, -0.0942322l -0.853354, -0.0818729l -0.858927, -0.069426l
 -0.863581, -0.0569048l -0.86731, -0.0443226l -0.87011, -0.0316929l -0.871978, -0.0190293l -0.872913, -0.00634538z" fill="none" stroke="#263da8"/>
<path d="M377.341,129.624h 26.679l -0.0142843, -0.387766l -0.0428375, -0.387351l -0.0713449, -0.386521l -0.0997759, -0.385277l -0.1281, -0.383621l -0.156287, -0.381553l -0.184307, -0.379078l -0.212129, -0.376196l -0.239724, -0.372911l -0.267062,
 -0.369227l -0.294115, -0.365148l -0.320852, -0.360678l -0.347246, -0.355821l -0.373268, -0.350584l -0.398891, -0.344971l -0.424086, -0.338988l -0.448827, -0.332643l -0.473088, -0.325941l -0.496841, -0.318891l -0.520063, -0.311499l -0.542728,
 -0.303773l -0.564812, -0.295722l -0.586291, -0.287354l -0.607142, -0.278679l -0.627343, -0.269705l -0.646872, -0.260443l -0.665709, -0.250901l -0.683833, -0.241091l -0.701224, -0.231023l -0.717865, -0.220707l -0.733737, -0.210155l -0.748823,
 -0.199378l -0.763107, -0.188388l -0.776574, -0.177196l -0.78921, -0.165814l -0.801, -0.154254l -0.811933, -0.142529l -0.821996, -0.130652l -0.831179, -0.118635l -0.839472, -0.10649l -0.846866, -0.0942322l -0.853354, -0.0818729l -0.858927, -0.069426l
 -0.863581, -0.0569048l -0.86731, -0.0443226l -0.87011, -0.0316929l -0.871978, -0.0190293l -0.872913, -0.00634538v 11.8514z" fill="none" stroke="black"/>
<path d="M377.341,135.55v -17.7771l -1.30937, 0.00951807l -1.30797, 0.028544l -1.30516, 0.0475394l -1.30096, 0.0664839l -1.29537, 0.0853571l -1.28839, 0.104139l -1.28003, 0.122809l -1.2703, 0.141348l -1.25921, 0.159736l -1.24677, 0.177952l -1.23299,
 0.195978l -1.2179, 0.213794l -1.2015, 0.231381l -1.18381, 0.248721l -1.16486, 0.265794l -1.14466, 0.282582l -1.12323, 0.299068l -1.1006, 0.315233l -1.0768, 0.331061l -1.05184, 0.346535l -1.02575, 0.361637l -0.998564, 0.376352l -0.970309, 0.390664l
 -0.941015, 0.404558l -0.910713, 0.418019l -0.879437, 0.431032l -0.847218, 0.443583l -0.814092, 0.455659l -0.780095, 0.467248l -0.745262, 0.478336l -0.709631, 0.488912l -0.673241, 0.498964l -0.636129, 0.508482l -0.598336, 0.517456l -0.559903,
 0.525875l -0.520869, 0.533732l -0.481279, 0.541017l -0.441172, 0.547722l -0.400594, 0.553841l -0.359586, 0.559367l -0.318193, 0.564294l -0.27646, 0.568616l -0.234431, 0.57233l -0.19215, 0.575431l -0.149664, 0.577916l -0.107017, 0.579782l -0.0642563,
 0.581027l -0.0214264, 0.58165z" fill="none" stroke="#1652cc"/>
<path d="M377.341,135.55v -17.7771l -1.30937, 0.00951807l -1.30797, 0.028544l -1.30516, 0.0475394l -1.30096, 0.0664839l -1.29537, 0.0853571l -1.28839, 0.104139l -1.28003, 0.122809l -1.2703, 0.141348l -1.25921, 0.159736l -1.24677, 0.177952l -1.23299,
 0.195978l -1.2179, 0.213794l -1.2015, 0.231381l -1.18381, 0.248721l -1.16486, 0.265794l -1.14466, 0.282582l -1.12323, 0.299068l -1.1006, 0.315233l -1.0768, 0.331061l -1.05184, 0.346535l -1.02575, 0.361637l -0.998564, 0.376352l -0.970309, 0.390664l
 -0.941015, 0.404558l -0.910713, 0.418019l -0.879437, 0.431032l -0.847218, 0.443583l -0.814092, 0.455659l -0.780095, 0.467248l -0.745262, 0.478336l -0.709631, 0.488912l -0.673241, 0.498964l -0.636129, 0.508482l -0.598336, 0.517456l -0.559903,
 0.525875l -0.520869, 0.533732l -0.481279, 0.541017l -0.441172, 0.547722l -0.400594, 0.553841l -0.359586, 0.559367l -0.318193, 0.564294l -0.27646, 0.568616l -0.234431, 0.57233l -0.19215, 0.575431l -0.149664, 0.577916l -0.107017, 0.579782l -0.0642563,
 0.581027l -0.0214264, 0.58165h 40.0185z" fill="none" stroke="black"/>
<path d="M404.02,135.55h -66.6975l 0.0357107, 0.969416l 0.107094, 0.968378l 0.178362, 0.966303l 0.24944, 0.963193l 0.32025, 0.959052l 0.390718, 0.953884l 0.460767, 0.947694l 0.530322, 0.94049l 0.59931, 0.932278l 0.667656, 0.923068l 0.735287, 0.91287l
 0.802131, 0.901694l 0.868116, 0.889553l 0.933171, 0.876459l 0.997227, 0.862427l 1.06021, 0.847471l 1.12207, 0.831607l 1.18272, 0.814853l 1.2421, 0.797227l 1.30016, 0.778746l 1.35682, 0.759432l 1.41203, 0.739305l 1.46573, 0.718386l 1.51786, 0.696698l
 1.56836, 0.674263l 1.61718, 0.651107l 1.66427, 0.627254l 1.70958, 0.602728l 1.75306, 0.577558l 1.79466, 0.551769l 1.83434, 0.525389l 1.87206, 0.498446l 1.90777, 0.47097l 1.94144, 0.442989l 1.97302, 0.414534l 2.0025, 0.385635l 2.02983, 0.356324l
 2.05499, 0.32663l 2.07795, 0.296587l 2.09868, 0.266226l 2.11717, 0.23558l 2.13338, 0.204682l 2.14732, 0.173565l 2.15895, 0.142262l 2.16827, 0.110806l 2.17527, 0.0792323l 2.17995, 0.0475734l 2.18228, 0.0158634z" fill="none" stroke="#1063db"/>
<path d="M404.02,135.55h -66.6975l 0.0357107, 0.969416l 0.107094, 0.968378l 0.178362, 0.966303l 0.24944, 0.963193l 0.32025, 0.959052l 0.390718, 0.953884l 0.460767, 0.947694l 0.530322, 0.94049l 0.59931, 0.932278l 0.667656, 0.923068l 0.735287, 0.91287l
 0.802131, 0.901694l 0.868116, 0.889553l 0.933171, 0.876459l 0.997227, 0.862427l 1.06021, 0.847471l 1.12207, 0.831607l 1.18272, 0.814853l 1.2421, 0.797227l 1.30016, 0.778746l 1.35682, 0.759432l 1.41203, 0.739305l 1.46573, 0.718386l 1.51786, 0.696698l
 1.56836, 0.674263l 1.61718, 0.651107l 1.66427, 0.627254l 1.70958, 0.602728l 1.75306, 0.577558l 1.79466, 0.551769l 1.83434, 0.525389l 1.87206, 0.498446l 1.90777, 0.47097l 1.94144, 0.442989l 1.97302, 0.414534l 2.0025, 0.385635l 2.02983, 0.356324l
 2.05499, 0.32663l 2.07795, 0.296587l 2.09868, 0.266226l 2.11717, 0.23558l 2.13338, 0.204682l 2.14732, 0.173565l 2.15895, 0.142262l 2.16827, 0.110806l 2.17527, 0.0792323l 2.17995, 0.0475734l 2.18228, 0.0158634v -29.6285z" fill="none" stroke="black"/>
<path d="M404.02,117.773v 47.4055l 3.49165, -0.0253815l 3.48791, -0.0761174l 3.48044, -0.126772l 3.46924, -0.17729l 3.45432, -0.227619l 3.43571, -0.277704l 3.41341, -0.327492l 3.38747, -0.376929l 3.35789, -0.425962l 3.32472, -0.474539l 3.28798,
 -0.522608l 3.24773, -0.570118l 3.204, -0.617017l 3.15684, -0.663255l 3.1063, -0.708783l 3.05243, -0.753552l 2.99529, -0.797514l 2.93495, -0.840622l 2.87146, -0.88283l 2.8049, -0.924092l 2.73533, -0.964365l 2.66284, -1.00361l 2.58749, -1.04177l
 2.50937, -1.07882l 2.42857, -1.11472l 2.34516, -1.14942l 2.25925, -1.18289l 2.17091, -1.21509l 2.08025, -1.24599l 1.98737, -1.27556l 1.89235, -1.30377l 1.79531, -1.33057l 1.69634, -1.35595l 1.59556, -1.37988l 1.49307, -1.40233l 1.38899, -1.42328l
 1.28341, -1.44271l 1.17646, -1.46059l 1.06825, -1.47691l 0.958896, -1.49164l 0.848516, -1.50478l 0.737227, -1.51631l 0.625148, -1.52621l 0.5124, -1.53448l 0.399104, -1.54111l 0.28538, -1.54608l 0.17135, -1.5494l 0.0571371, -1.55107z" fill="none"
 stroke="#1380d5"/>
<path d="M404.02,117.773v 47.4055l 3.49165, -0.0253815l 3.48791, -0.0761174l 3.48044, -0.126772l 3.46924, -0.17729l 3.45432, -0.227619l 3.43571, -0.277704l 3.41341, -0.327492l 3.38747, -0.376929l 3.35789, -0.425962l 3.32472, -0.474539l 3.28798,
 -0.522608l 3.24773, -0.570118l 3.204, -0.617017l 3.15684, -0.663255l 3.1063, -0.708783l 3.05243, -0.753552l 2.99529, -0.797514l 2.93495, -0.840622l 2.87146, -0.88283l 2.8049, -0.924092l 2.73533, -0.964365l 2.66284, -1.00361l 2.58749, -1.04177l
 2.50937, -1.07882l 2.42857, -1.11472l 2.34516, -1.14942l 2.25925, -1.18289l 2.17091, -1.21509l 2.08025, -1.24599l 1.98737, -1.27556l 1.89235, -1.30377l 1.79531, -1.33057l 1.69634, -1.35595l 1.59556, -1.37988l 1.49307, -1.40233l 1.38899, -1.42328l
 1.28341, -1.44271l 1.17646, -1.46059l 1.06825, -1.47691l 0.958896, -1.49164l 0.848516, -1.50478l 0.737227, -1.51631l 0.625148, -1.52621l 0.5124, -1.53448l 0.399104, -1.54111l 0.28538, -1.54608l 0.17135, -1.5494l 0.0571371, -1.55107h -106.716z"
 fill="none" stroke="black"/>
<path d="M337.323,117.773h 173.414l -0.0928478, -2.52048l -0.278444, -2.51778l -0.463742, -2.51239l -0.648544, -2.5043l -0.832651, -2.49353l -1.01587, -2.4801l -1.19799, -2.464l -1.37884, -2.44527l -1.55821, -2.42392l -1.73591, -2.39998l -1.91175,
 -2.37346l -2.08554, -2.3444l -2.2571, -2.31284l -2.42624, -2.27879l -2.59279, -2.24231l -2.75656, -2.20342l -2.91738, -2.16218l -3.07507, -2.11862l -3.22947, -2.07279l -3.38041, -2.02474l -3.52773, -1.97452l -3.67128, -1.92219l -3.81089, -1.8678l
 -3.94642, -1.81141l -4.07773, -1.75308l -4.20467, -1.69288l -4.32711, -1.63086l -4.44491, -1.56709l -4.55796, -1.50165l -4.66612, -1.4346l -4.76929, -1.36601l -4.86735, -1.29596l -4.9602, -1.22452l -5.04773, -1.15177l -5.12986, -1.07779l -5.2065,
 -1.00265l -5.27756, -0.926441l -5.34297, -0.849238l -5.40266, -0.771126l -5.45657, -0.692188l -5.50463, -0.612509l -5.5468, -0.532174l -5.58302, -0.451269l -5.61327, -0.369881l -5.63751, -0.288097l -5.65571, -0.206004l -5.66786, -0.123691l -5.67393,
 -0.041245z" fill="none" stroke="#0da7c2"/>
<path d="M337.323,117.773h 173.414l -0.0928478, -2.52048l -0.278444, -2.51778l -0.463742, -2.51239l -0.648544, -2.5043l -0.832651, -2.49353l -1.01587, -2.4801l -1.19799, -2.464l -1.37884, -2.44527l -1.55821, -2.42392l -1.73591, -2.39998l -1.91175,
 -2.37346l -2.08554, -2.3444l -2.2571, -2.31284l -2.42624, -2.27879l -2.59279, -2.24231l -2.75656, -2.20342l -2.91738, -2.16218l -3.07507, -2.11862l -3.22947, -2.07279l -3.38041, -2.02474l -3.52773, -1.97452l -3.67128, -1.92219l -3.81089, -1.8678l
 -3.94642, -1.81141l -4.07773, -1.75308l -4.20467, -1.69288l -4.32711, -1.63086l -4.44491, -1.56709l -4.55796, -1.50165l -4.66612, -1.4346l -4.76929, -1.36601l -4.86735, -1.29596l -4.9602, -1.22452l -5.04773, -1.15177l -5.12986, -1.07779l -5.2065,
 -1.00265l -5.27756, -0.926441l -5.34297, -0.849238l -5.40266, -0.771126l -5.45657, -0.692188l -5.50463, -0.612509l -5.5468, -0.532174l -5.58302, -0.451269l -5.61327, -0.369881l -5.63751, -0.288097l -5.65571, -0.206004l -5.66786, -0.123691l -5.67393,
 -0.041245v 77.034z" fill="none" stroke="black"/>
<path d="M337.323,165.179v -124.44l -9.16559, 0.0666265l -9.15577, 0.199808l -9.13615, 0.332776l -9.10675, 0.465387l -9.0676, 0.5975l -9.01873, 0.728973l -8.96021, 0.859666l -8.8921, 0.989438l -8.81446, 1.11815l -8.72738, 1.24567l -8.63096, 1.37185l
 -8.52529, 1.49656l -8.4105, 1.61967l -8.2867, 1.74104l -8.15403, 1.86055l -8.01262, 1.97807l -7.86264, 2.09347l -7.70423, 2.20663l -7.53758, 2.31743l -7.36285, 2.42574l -7.18024, 2.53146l -6.98994, 2.63446l -6.79216, 2.73465l -6.5871, 2.83191l
 -6.37499, 2.92613l -6.15606, 3.01722l -5.93053, 3.10508l -5.69865, 3.18962l -5.46066, 3.27074l -5.21684, 3.34835l -4.96742, 3.42238l -4.71268, 3.49275l -4.4529, 3.55938l -4.18835, 3.62219l -3.91932, 3.68113l -3.64609, 3.73612l -3.36895, 3.78712l
 -3.08821, 3.83405l -2.80416, 3.87689l -2.5171, 3.91557l -2.22735, 3.95006l -1.93522, 3.98032l -1.64101, 4.00631l -1.34505, 4.02802l -1.04765, 4.04541l -0.749122, 4.05847l -0.449794, 4.06719l -0.149985, 4.07155z" fill="none" stroke="#94be71"/>
<path d="M337.323,165.179v -124.44l -9.16559, 0.0666265l -9.15577, 0.199808l -9.13615, 0.332776l -9.10675, 0.465387l -9.0676, 0.5975l -9.01873, 0.728973l -8.96021, 0.859666l -8.8921, 0.989438l -8.81446, 1.11815l -8.72738, 1.24567l -8.63096, 1.37185l
 -8.52529, 1.49656l -8.4105, 1.61967l -8.2867, 1.74104l -8.15403, 1.86055l -8.01262, 1.97807l -7.86264, 2.09347l -7.70423, 2.20663l -7.53758, 2.31743l -7.36285, 2.42574l -7.18024, 2.53146l -6.98994, 2.63446l -6.79216, 2.73465l -6.5871, 2.83191l
 -6.37499, 2.92613l -6.15606, 3.01722l -5.93053, 3.10508l -5.69865, 3.18962l -5.46066, 3.27074l -5.21684, 3.34835l -4.96742, 3.42238l -4.71268, 3.49275l -4.4529, 3.55938l -4.18835, 3.62219l -3.91932, 3.68113l -3.64609, 3.73612l -3.36895, 3.78712l
 -3.08821, 3.83405l -2.80416, 3.87689l -2.5171, 3.91557l -2.22735, 3.95006l -1.93522, 3.98032l -1.64101, 4.00631l -1.34505, 4.02802l -1.04765, 4.04541l -0.749122, 4.05847l -0.449794, 4.06719l -0.149985, 4.07155h 280.13z" fill="none" stroke="black"/>
<path d="M510.736,165.179h -453.543l 0.242833, 6.59203l 0.728238, 6.58497l 1.21286, 6.57086l 1.69619, 6.54971l 2.1777, 6.52155l 2.65688, 6.48641l 3.13321, 6.44432l 3.60619, 6.39533l 4.07531, 6.33949l 4.54006, 6.27686l 4.99995, 6.20752l 5.45449,
 6.13152l 5.90319, 6.04896l 6.34556, 5.95992l 6.78114, 5.8645l 7.20946, 5.7628l 7.63006, 5.65493l 8.04249, 5.541l 8.4463, 5.42114l 8.84108, 5.29548l 9.22638, 5.16414l 9.6018, 5.02727l 9.96695, 4.88503l 10.3214, 4.73754l 10.6648, 4.58499l 10.9968,
 4.42753l 11.3171, 4.26532l 11.6252, 4.09855l 11.9208, 3.92739l 12.2037, 3.75203l 12.4735, 3.57264l 12.73, 3.38943l 12.9728, 3.20259l 13.2018, 3.01233l 13.4166, 2.81883l 13.617, 2.62232l 13.8029, 2.423l 13.9739, 2.22108l 14.13, 2.01679l 14.271,
 1.81034l 14.3967, 1.60195l 14.507, 1.39184l 14.6018, 1.18024l 14.6809, 0.967381l 14.7443, 0.753484l 14.7919, 0.53878l 14.8236, 0.323499l 14.8395, 0.107871z" fill="none" stroke="#f9f90e"/>
<path d="M510.736,165.179h -453.543l 0.242833, 6.59203l 0.728238, 6.58497l 1.21286, 6.57086l 1.69619, 6.54971l 2.1777, 6.52155l 2.65688, 6.48641l 3.13321, 6.44432l 3.60619, 6.39533l 4.07531, 6.33949l 4.54006, 6.27686l 4.99995, 6.20752l 5.45449,
 6.13152l 5.90319, 6.04896l 6.34556, 5.95992l 6.78114, 5.8645l 7.20946, 5.7628l 7.63006, 5.65493l 8.04249, 5.541l 8.4463, 5.42114l 8.84108, 5.29548l 9.22638, 5.16414l 9.6018, 5.02727l 9.96695, 4.88503l 10.3214, 4.73754l 10.6648, 4.58499l 10.9968,
 4.42753l 11.3171, 4.26532l 11.6252, 4.09855l 11.9208, 3.92739l 12.2037, 3.75203l 12.4735, 3.57264l 12.73, 3.38943l 12.9728, 3.20259l 13.2018, 3.01233l 13.4166, 2.81883l 13.617, 2.62232l 13.8029, 2.423l 13.9739, 2.22108l 14.13, 2.01679l 14.271,
 1.81034l 14.3967, 1.60195l 14.507, 1.39184l 14.6018, 1.18024l 14.6809, 0.967381l 14.7443, 0.753484l 14.7919, 0.53878l 14.8236, 0.323499l 14.8395, 0.107871v -201.474z" fill="none" stroke="black"/>
<path d="M377.341,135.55v -5.92569h 13.3395v 5.92569h -13.3395z" fill="none" stroke="#263da8"/>
<path d="M377.341,135.55v -5.92569h 13.3395v 5.92569h -13.3395z" fill="none" stroke="black"/>
<path d="M390.681,129.624v 5.92569l 0.436457, -0.00317269l 0.435989, -0.00951467l 0.435055, -0.0158465l 0.433655, -0.0221613l 0.43179, -0.0284524l 0.429463, -0.034713l 0.426677, -0.0409365l 0.423433, -0.0471161l 0.419736, -0.0532452l 0.41559,
 -0.0593174l 0.410998, -0.065326l 0.405966, -0.0712647l 0.4005, -0.0771271l 0.394605, -0.0829068l 0.388287, -0.0885978l 0.381553, -0.094194l 0.374411, -0.0996892l 0.366868, -0.105078l 0.358932, -0.110354l 0.350612, -0.115512l 0.341916, -0.120546l
 0.332855, -0.125451l 0.323436, -0.130221l 0.313672, -0.134853l 0.303571, -0.13934l 0.293146, -0.143677l 0.282406, -0.147861l 0.271364, -0.151886l 0.260032, -0.155749l 0.248421, -0.159445l 0.236544, -0.162971l 0.224414, -0.166321l 0.212043,
 -0.169494l 0.199445, -0.172485l 0.186634, -0.175292l 0.173623, -0.177911l 0.160426, -0.180339l 0.147057, -0.182574l 0.133531, -0.184614l 0.119862, -0.186456l 0.106064, -0.188098l 0.0921533, -0.189539l 0.0781435, -0.190777l 0.06405, -0.19181l
 0.049888, -0.192639l 0.0356725, -0.193261l 0.0214188, -0.193676l 0.00714214, -0.193883z" fill="none" stroke="#263da8"/>
<path d="M390.681,129.624v 5.92569l 0.436457, -0.00317269l 0.435989, -0.00951467l 0.435055, -0.0158465l 0.433655, -0.0221613l 0.43179, -0.0284524l 0.429463, -0.034713l 0.426677, -0.0409365l 0.423433, -0.0471161l 0.419736, -0.0532452l 0.41559,
 -0.0593174l 0.410998, -0.065326l 0.405966, -0.0712647l 0.4005, -0.0771271l 0.394605, -0.0829068l 0.388287, -0.0885978l 0.381553, -0.094194l 0.374411, -0.0996892l 0.366868, -0.105078l 0.358932, -0.110354l 0.350612, -0.115512l 0.341916, -0.120546l
 0.332855, -0.125451l 0.323436, -0.130221l 0.313672, -0.134853l 0.303571, -0.13934l 0.293146, -0.143677l 0.282406, -0.147861l 0.271364, -0.151886l 0.260032, -0.155749l 0.248421, -0.159445l 0.236544, -0.162971l 0.224414, -0.166321l 0.212043,
 -0.169494l 0.199445, -0.172485l 0.186634, -0.175292l 0.173623, -0.177911l 0.160426, -0.180339l 0.147057, -0.182574l 0.133531, -0.184614l 0.119862, -0.186456l 0.106064, -0.188098l 0.0921533, -0.189539l 0.0781435, -0.190777l 0.06405, -0.19181l
 0.049888, -0.192639l 0.0356725, -0.193261l 0.0214188, -0.193676l 0.00714214, -0.193883h -13.3395z" fill="none" stroke="black"/>
<path d="M377.341,129.624h 26.679l -0.0142843, -0.387766l -0.0428375, -0.387351l -0.0713449, -0.386521l -0.0997759, -0.385277l -0.1281, -0.383621l -0.156287, -0.381553l -0.184307, -0.379078l -0.212129, -0.376196l -0.239724, -0.372911l -0.267062,
 -0.369227l -0.294115, -0.365148l -0.320852, -0.360678l -0.347246, -0.355821l -0.373268, -0.350584l -0.398891, -0.344971l -0.424086, -0.338988l -0.448827, -0.332643l -0.473088, -0.325941l -0.496841, -0.318891l -0.520063, -0.311499l -0.542728,
 -0.303773l -0.564812, -0.295722l -0.586291, -0.287354l -0.607142, -0.278679l -0.627343, -0.269705l -0.646872, -0.260443l -0.665709, -0.250901l -0.683833, -0.241091l -0.701224, -0.231023l -0.717865, -0.220707l -0.733737, -0.210155l -0.748823,
 -0.199378l -0.763107, -0.188388l -0.776574, -0.177196l -0.78921, -0.165814l -0.801, -0.154254l -0.811933, -0.142529l -0.821996, -0.130652l -0.831179, -0.118635l -0.839472, -0.10649l -0.846866, -0.0942322l -0.853354, -0.0818729l -0.858927, -0.069426l
 -0.863581, -0.0569048l -0.86731, -0.0443226l -0.87011, -0.0316929l -0.871978, -0.0190293l -0.872913, -0.00634538z" fill="none" stroke="#263da8"/>
<path d="M377.341,129.624h 26.679l -0.0142843, -0.387766l -0.0428375, -0.387351l -0.0713449, -0.386521l -0.0997759, -0.385277l -0.1281, -0.383621l -0.156287, -0.381553l -0.184307, -0.379078l -0.212129, -0.376196l -0.239724, -0.372911l -0.267062,
 -0.369227l -0.294115, -0.365148l -0.320852, -0.360678l -0.347246, -0.355821l -0.373268, -0.350584l -0.398891, -0.344971l -0.424086, -0.338988l -0.448827, -0.332643l -0.473088, -0.325941l -0.496841, -0.318891l -0.520063, -0.311499l -0.542728,
 -0.303773l -0.564812, -0.295722l -0.586291, -0.287354l -0.607142, -0.278679l -0.627343, -0.269705l -0.646872, -0.260443l -0.665709, -0.250901l -0.683833, -0.241091l -0.701224, -0.231023l -0.717865, -0.220707l -0.733737, -0.210155l -0.748823,
 -0.199378l -0.763107, -0.188388l -0.776574, -0.177196l -0.78921, -0.165814l -0.801, -0.154254l -0.811933, -0.142529l -0.821996, -0.130652l -0.831179, -0.118635l -0.839472, -0.10649l -0.846866, -0.0942322l -0.853354, -0.0818729l -0.858927, -0.069426l
 -0.863581, -0.0569048l -0.86731, -0.0443226l -0.87011, -0.0316929l -0.871978, -0.0190293l -0.872913, -0.00634538v 11.8514z" fill="none" stroke="black"/>
<path d="M377.341,135.55v -17.7771l -1.30937, 0.00951807l -1.30797, 0.028544l -1.30516, 0.0475394l -1.30096, 0.0664839l -1.29537, 0.0853571l -1.28839, 0.104139l -1.28003, 0.122809l -1.2703, 0.141348l -1.25921, 0.159736l -1.24677, 0.177952l -1.23299,
 0.195978l -1.2179, 0.213794l -1.2015, 0.231381l -1.18381, 0.248721l -1.16486, 0.265794l -1.14466, 0.282582l -1.12323, 0.299068l -1.1006, 0.315233l -1.0768, 0.331061l -1.05184, 0.346535l -1.02575, 0.361637l -0.998564, 0.376352l -0.970309, 0.390664l
 -0.941015, 0.404558l -0.910713, 0.418019l -0.879437, 0.431032l -0.847218, 0.443583l -0.814092, 0.455659l -0.780095, 0.467248l -0.745262, 0.478336l -0.709631, 0.488912l -0.673241, 0.498964l -0.636129, 0.508482l -0.598336, 0.517456l -0.559903,
 0.525875l -0.520869, 0.533732l -0.481279, 0.541017l -0.441172, 0.547722l -0.400594, 0.553841l -0.359586, 0.559367l -0.318193, 0.564294l -0.27646, 0.568616l -0.234431, 0.57233l -0.19215, 0.575431l -0.149664, 0.577916l -0.107017, 0.579782l -0.0642563,
 0.581027l -0.0214264, 0.58165z" fill="none" stroke="#1652cc"/>
<path d="M377.341,135.55v -17.7771l -1.30937, 0.00951807l -1.30797, 0.028544l -1.30516, 0.0475394l -1.30096, 0.0664839l -1.29537, 0.0853571l -1.28839, 0.104139l -1.28003, 0.122809l -1.2703, 0.141348l -1.25921, 0.159736l -1.24677, 0.177952l -1.23299,
 0.195978l -1.2179, 0.213794l -1.2015, 0.231381l -1.18381, 0.248721l -1.16486, 0.265794l -1.14466, 0.282582l -1.12323, 0.299068l -1.1006, 0.315233l -1.0768, 0.331061l -1.05184, 0.346535l -1.02575, 0.361637l -0.998564, 0.376352l -0.970309, 0.390664l
 -0.941015, 0.404558l -0.910713, 0.418019l -0.879437, 0.431032l -0.847218, 0.443583l -0.814092, 0.455659l -0.780095, 0.467248l -0.745262, 0.478336l -0.709631, 0.488912l -0.673241, 0.498964l -0.636129, 0.508482l -0.598336, 0.517456l -0.559903,
 0.525875l -0.520869, 0.533732l -0.481279, 0.541017l -0.441172, 0.547722l -0.400594, 0.553841l -0.359586, 0.559367l -0.318193, 0.564294l -0.27646, 0.568616l -0.234431, 0.57233l -0.19215, 0.575431l -0.149664, 0.577916l -0.107017, 0.579782l -0.0642563,
 0.581027l -0.0214264, 0.58165h 40.0185z" fill="none" stroke="black"/>
<path d="M404.02,135.55h -66.6975l 0.0357107, 0.969416l 0.107094, 0.968378l 0.178362, 0.966303l 0.24944, 0.963193l 0.32025, 0.959052l 0.390718, 0.953884l 0.460767, 0.947694l 0.530322, 0.94049l 0.59931, 0.932278l 0.667656, 0.923068l 0.735287, 0.91287l
 0.802131, 0.901694l 0.868116, 0.889553l 0.933171, 0.876459l 0.997227, 0.862427l 1.06021, 0.847471l 1.12207, 0.831607l 1.18272, 0.814853l 1.2421, 0.797227l 1.30016, 0.778746l 1.35682, 0.759432l 1.41203, 0.739305l 1.46573, 0.718386l 1.51786, 0.696698l
 1.56836, 0.674263l 1.61718, 0.651107l 1.66427, 0.627254l 1.70958, 0.602728l 1.75306, 0.577558l 1.79466, 0.551769l 1.83434, 0.525389l 1.87206, 0.498446l 1.90777, 0.47097l 1.94144, 0.442989l 1.97302, 0.414534l 2.0025, 0.385635l 2.02983, 0.356324l
 2.05499, 0.32663l 2.07795, 0.296587l 2.09868, 0.266226l 2.11717, 0.23558l 2.13338, 0.204682l 2.14732, 0.173565l 2.15895, 0.142262l 2.16827, 0.110806l 2.17527, 0.0792323l 2.17995, 0.0475734l 2.18228, 0.0158634z" fill="none" stroke="#1063db"/>
<path d="M404.02,135.55h -66.6975l 0.0357107, 0.969416l 0.107094, 0.968378l 0.178362, 0.966303l 0.24944, 0.963193l 0.32025, 0.959052l 0.390718, 0.953884l 0.460767, 0.947694l 0.530322, 0.94049l 0.59931, 0.932278l 0.667656, 0.923068l 0.735287, 0.91287l
 0.802131, 0.901694l 0.868116, 0.889553l 0.933171, 0.876459l 0.997227, 0.862427l 1.06021, 0.847471l 1.12207, 0.831607l 1.18272, 0.814853l 1.2421, 0.797227l 1.30016, 0.778746l 1.35682, 0.759432l 1.41203, 0.739305l 1.46573, 0.718386l 1.51786, 0.696698l
 1.56836, 0.674263l 1.61718, 0.651107l 1.66427, 0.627254l 1.70958, 0.602728l 1.75306, 0.577558l 1.79466, 0.551769l 1.83434, 0.525389l 1.87206, 0.498446l 1.90777, 0.47097l 1.94144, 0.442989l 1.97302, 0.414534l 2.0025, 0.385635l 2.02983, 0.356324l
 2.05499, 0.32663l 2.07795, 0.296587l 2.09868, 0.266226l 2.11717, 0.23558l 2.13338, 0.204682l 2.14732, 0.173565l 2.15895, 0.142262l 2.16827, 0.110806l 2.17527, 0.0792323l 2.17995, 0.0475734l 2.18228, 0.0158634v -29.6285z" fill="none" stroke="black"/>
<path d="M404.02,117.773v 47.4055l 3.49165, -0.0253815l 3.48791, -0.0761174l 3.48044, -0.126772l 3.46924, -0.17729l 3.45432, -0.227619l 3.43571, -0.277704l 3.41341, -0.327492l 3.38747, -0.376929l 3.35789, -0.425962l 3.32472, -0.474539l 3.28798,
 -0.522608l 3.24773, -0.570118l 3.204, -0.617017l 3.15684, -0.663255l 3.1063, -0.708783l 3.05243, -0.753552l 2.99529, -0.797514l 2.93495, -0.840622l 2.87146, -0.88283l 2.8049, -0.924092l 2.73533, -0.964365l 2.66284, -1.00361l 2.58749, -1.04177l
 2.50937, -1.07882l 2.42857, -1.11472l 2.34516, -1.14942l 2.25925, -1.18289l 2.17091, -1.21509l 2.08025, -1.24599l 1.98737, -1.27556l 1.89235, -1.30377l 1.79531, -1.33057l 1.69634, -1.35595l 1.59556, -1.37988l 1.49307, -1.40233l 1.38899, -1.42328l
 1.28341, -1.44271l 1.17646, -1.46059l 1.06825, -1.47691l 0.958896, -1.49164l 0.848516, -1.50478l 0.737227, -1.51631l 0.625148, -1.52621l 0.5124, -1.53448l 0.399104, -1.54111l 0.28538, -1.54608l 0.17135, -1.5494l 0.0571371, -1.55107z" fill="none"
 stroke="#1380d5"/>
<path d="M404.02,117.773v 47.4055l 3.49165, -0.0253815l 3.48791, -0.0761174l 3.48044, -0.126772l 3.46924, -0.17729l 3.45432, -0.227619l 3.43571, -0.277704l 3.41341, -0.327492l 3.38747, -0.376929l 3.35789, -0.425962l 3.32472, -0.474539l 3.28798,
 -0.522608l 3.24773, -0.570118l 3.204, -0.617017l 3.15684, -0.663255l 3.1063, -0.708783l 3.05243, -0.753552l 2.99529, -0.797514l 2.93495, -0.840622l 2.87146, -0.88283l 2.8049, -0.924092l 2.73533, -0.964365l 2.66284, -1.00361l 2.58749, -1.04177l
 2.50937, -1.07882l 2.42857, -1.11472l 2.34516, -1.14942l 2.25925, -1.18289l 2.17091, -1.21509l 2.08025, -1.24599l 1.98737, -1.27556l 1.89235, -1.30377l 1.79531, -1.33057l 1.69634, -1.35595l 1.59556, -1.37988l 1.49307, -1.40233l 1.38899, -1.42328l
 1.28341, -1.44271l 1.17646, -1.46059l 1.06825, -1.47691l 0.958896, -1.49164l 0.848516, -1.50478l 0.737227, -1.51631l 0.625148, -1.52621l 0.5124, -1.53448l 0.399104, -1.54111l 0.28538, -1.54608l 0.17135, -1.5494l 0.0571371, -1.55107h -106.716z"
 fill="none" stroke="black"/>
<path d="M337.323,117.773h 173.414l -0.0928478, -2.52048l -0.278444, -2.51778l -0.463742, -2.51239l -0.648544, -2.5043l -0.832651, -2.49353l -1.01587, -2.4801l -1.19799, -2.464l -1.37884, -2.44527l -1.55821, -2.42392l -1.73591, -2.39998l -1.91175,
 -2.37346l -2.08554, -2.3444l -2.2571, -2.31284l -2.42624, -2.27879l -2.59279, -2.24231l -2.75656, -2.20342l -2.91738, -2.16218l -3.07507, -2.11862l -3.22947, -2.07279l -3.38041, -2.02474l -3.52773, -1.97452l -3.67128, -1.92219l -3.81089, -1.8678l
 -3.94642, -1.81141l -4.07773, -1.75308l -4.20467, -1.69288l -4.32711, -1.63086l -4.44491, -1.56709l -4.55796, -1.50165l -4.66612, -1.4346l -4.76929, -1.36601l -4.86735, -1.29596l -4.9602, -1.22452l -5.04773, -1.15177l -5.12986, -1.07779l -5.2065,
 -1.00265l -5.27756, -0.926441l -5.34297, -0.849238l -5.40266, -0.771126l -5.45657, -0.692188l -5.50463, -0.612509l -5.5468, -0.532174l -5.58302, -0.451269l -5.61327, -0.369881l -5.63751, -0.288097l -5.65571, -0.206004l -5.66786, -0.123691l -5.67393,
 -0.041245z" fill="none" stroke="#0da7c2"/>
<path d="M337.323,117.773h 173.414l -0.0928478, -2.52048l -0.278444, -2.51778l -0.463742, -2.51239l -0.648544, -2.5043l -0.832651, -2.49353l -1.01587, -2.4801l -1.19799, -2.464l -1.37884, -2.44527l -1.55821, -2.42392l -1.73591, -2.39998l -1.91175,
 -2.37346l -2.08554, -2.3444l -2.2571, -2.31284l -2.42624, -2.27879l -2.59279, -2.24231l -2.75656, -2.20342l -2.91738, -2.16218l -3.07507, -2.11862l -3.22947, -2.07279l -3.38041, -2.02474l -3.52773, -1.97452l -3.67128, -1.92219l -3.81089, -1.8678l
 -3.94642, -1.81141l -4.07773, -1.75308l -4.20467, -1.69288l -4.32711, -1.63086l -4.44491, -1.56709l -4.55796, -1.50165l -4.66612, -1.4346l -4.76929, -1.36601l -4.86735, -1.29596l -4.9602, -1.22452l -5.04773, -1.15177l -5.12986, -1.07779l -5.2065,
 -1.00265l -5.27756, -0.926441l -5.34297, -0.849238l -5.40266, -0.771126l -5.45657, -0.692188l -5.50463, -0.612509l -5.5468, -0.532174l -5.58302, -0.451269l -5.61327, -0.369881l -5.63751, -0.288097l -5.65571, -0.206004l -5.66786, -0.123691l -5.67393,
 -0.041245v 77.034z" fill="none" stroke="black"/>
<path d="M337.323,165.179v -124.44l -9.16559, 0.0666265l -9.15577, 0.199808l -9.13615, 0.332776l -9.10675, 0.465387l -9.0676, 0.5975l -9.01873, 0.728973l -8.96021, 0.859666l -8.8921, 0.989438l -8.81446, 1.11815l -8.72738, 1.24567l -8.63096, 1.37185l
 -8.52529, 1.49656l -8.4105, 1.61967l -8.2867, 1.74104l -8.15403, 1.86055l -8.01262, 1.97807l -7.86264, 2.09347l -7.70423, 2.20663l -7.53758, 2.31743l -7.36285, 2.42574l -7.18024, 2.53146l -6.98994, 2.63446l -6.79216, 2.73465l -6.5871, 2.83191l
 -6.37499, 2.92613l -6.15606, 3.01722l -5.93053, 3.10508l -5.69865, 3.18962l -5.46066, 3.27074l -5.21684, 3.34835l -4.96742, 3.42238l -4.71268, 3.49275l -4.4529, 3.55938l -4.18835, 3.62219l -3.91932, 3.68113l -3.64609, 3.73612l -3.36895, 3.78712l
 -3.08821, 3.83405l -2.80416, 3.87689l -2.5171, 3.91557l -2.22735, 3.95006l -1.93522, 3.98032l -1.64101, 4.00631l -1.34505, 4.02802l -1.04765, 4.04541l -0.749122, 4.05847l -0.449794, 4.06719l -0.149985, 4.07155z" fill="none" stroke="#94be71"/>
<path d="M337.323,165.179v -124.44l -9.16559, 0.0666265l -9.15577, 0.199808l -9.13615, 0.332776l -9.10675, 0.465387l -9.0676, 0.5975l -9.01873, 0.728973l -8.96021, 0.859666l -8.8921, 0.989438l -8.81446, 1.11815l -8.72738, 1.24567l -8.63096, 1.37185l
 -8.52529, 1.49656l -8.4105, 1.61967l -8.2867, 1.74104l -8.15403, 1.86055l -8.01262, 1.97807l -7.86264, 2.09347l -7.70423, 2.20663l -7.53758, 2.31743l -7.36285, 2.42574l -7.18024, 2.53146l -6.98994, 2.63446l -6.79216, 2.73465l -6.5871, 2.83191l
 -6.37499, 2.92613l -6.15606, 3.01722l -5.93053, 3.10508l -5.69865, 3.18962l -5.46066, 3.27074l -5.21684, 3.34835l -4.96742, 3.42238l -4.71268, 3.49275l -4.4529, 3.55938l -4.18835, 3.62219l -3.91932, 3.68113l -3.64609, 3.73612l -3.36895, 3.78712l
 -3.08821, 3.83405l -2.80416, 3.87689l -2.5171, 3.91557l -2.22735, 3.95006l -1.93522, 3.98032l -1.64101, 4.00631l -1.34505, 4.02802l -1.04765, 4.04541l -0.749122, 4.05847l -0.449794, 4.06719l -0.149985, 4.07155h 280.13z" fill="none" stroke="black"/>
<path d="M510.736,165.179h -453.543l 0.242833, 6.59203l 0.728238, 6.58497l 1.21286, 6.57086l 1.69619, 6.54971l 2.1777, 6.52155l 2.65688, 6.48641l 3.13321, 6.44432l 3.60619, 6.39533l 4.07531, 6.33949l 4.54006, 6.27686l 4.99995, 6.20752l 5.45449,
 6.13152l 5.90319, 6.04896l 6.34556, 5.95992l 6.78114, 5.8645l 7.20946, 5.7628l 7.63006, 5.65493l 8.04249, 5.541l 8.4463, 5.42114l 8.84108, 5.29548l 9.22638, 5.16414l 9.6018, 5.02727l 9.96695, 4.88503l 10.3214, 4.73754l 10.6648, 4.58499l 10.9968,
 4.42753l 11.3171, 4.26532l 11.6252, 4.09855l 11.9208, 3.92739l 12.2037, 3.75203l 12.4735, 3.57264l 12.73, 3.38943l 12.9728, 3.20259l 13.2018, 3.01233l 13.4166, 2.81883l 13.617, 2.62232l 13.8029, 2.423l 13.9739, 2.22108l 14.13, 2.01679l 14.271,
 1.81034l 14.3967, 1.60195l 14.507, 1.39184l 14.6018, 1.18024l 14.6809, 0.967381l 14.7443, 0.753484l 14.7919, 0.53878l 14.8236, 0.323499l 14.8395, 0.107871z" fill="none" stroke="#f9f90e"/>
<path d="M510.736,165.179h -453.543l 0.242833, 6.59203l 0.728238, 6.58497l 1.21286, 6.57086l 1.69619, 6.54971l 2.1777, 6.52155l 2.65688, 6.48641l 3.13321, 6.44432l 3.60619, 6.39533l 4.07531, 6.33949l 4.54006, 6.27686l 4.99995, 6.20752l 5.45449,
 6.13152l 5.90319, 6.04896l 6.34556, 5.95992l 6.78114, 5.8645l 7.20946, 5.7628l 7.63006, 5.65493l 8.04249, 5.541l 8.4463, 5.42114l 8.84108, 5.29548l 9.22638, 5.16414l 9.6018, 5.02727l 9.96695, 4.88503l 10.3214, 4.73754l 10.6648, 4.58499l 10.9968,
 4.42753l 11.3171, 4.26532l 11.6252, 4.09855l 11.9208, 3.92739l 12.2037, 3.75203l 12.4735, 3.57264l 12.73, 3.38943l 12.9728, 3.20259l 13.2018, 3.01233l 13.4166, 2.81883l 13.617, 2.62232l 13.8029, 2.423l 13.9739, 2.22108l 14.13, 2.01679l 14.271,
 1.81034l 14.3967, 1.60195l 14.507, 1.39184l 14.6018, 1.18024l 14.6809, 0.967381l 14.7443, 0.753484l 14.7919, 0.53878l 14.8236, 0.323499l 14.8395, 0.107871v -201.474z" fill="none" stroke="black"/>
<text xml:space="preserve" x="166.448" y="20.6545" fill="black" font-size="17.973" font-family="Helvetica">The first 7 Fibonacci numbers
</text>
<text xml:space="preserve" x="166.448" y="20.6545" fill="black" font-size="17.973" font-family="Helvetica">The first 7 Fibonacci numbers
</text></svg>
