<?xml version="1.0" standalone="no"?>
<svg width="567.429" height="384.969" viewBox="0 0 567.429 384.969" xmlns="http://www.w3.org/2000/svg" shape-rendering="crispEdges">
<title>
./old_svg_pro/gerrors_pro.svg
</title>
<desc>
Creator: ROOT Version 6.33/01
CreationDate: Thu Jun  6 16:11:11 2024</desc>
<defs>
</defs>
<rect x="0.5" y="0" width="566.929" height="384.469" fill="white"/>
<rect x="57.1929" y="38.4469" width="453.543" height="307.575" fill="white"/>
<rect x="57.1929" y="38.4469" width="453.543" height="307.575" fill="none" stroke="black"/>
<rect x="57.1929" y="38.4469" width="453.543" height="307.575" fill="white"/>
<rect x="57.1929" y="38.4469" width="453.543" height="307.575" fill="none" stroke="black"/>
<path d="M57.1929,346.022h 453.543" fill="none" stroke="black"/>
<path d="M115.82,38.4469v 307.575" fill="none" stroke="black" stroke-dasharray=" 1, 2"/>
<path d="M175.34,38.4469v 307.575" fill="none" stroke="black" stroke-dasharray=" 1, 2"/>
<path d="M234.86,38.4469v 307.575" fill="none" stroke="black" stroke-dasharray=" 1, 2"/>
<path d="M294.381,38.4469v 307.575" fill="none" stroke="black" stroke-dasharray=" 1, 2"/>
<path d="M353.901,38.4469v 307.575" fill="none" stroke="black" stroke-dasharray=" 1, 2"/>
<path d="M413.421,38.4469v 307.575" fill="none" stroke="black" stroke-dasharray=" 1, 2"/>
<path d="M472.941,38.4469v 307.575" fill="none" stroke="black" stroke-dasharray=" 1, 2"/>
<path d="M115.82,38.4469v 307.575" fill="none" stroke="black" stroke-dasharray=" 1, 2"/>
<path d="M472.941,38.4469v 307.575" fill="none" stroke="black" stroke-dasharray=" 1, 2"/>
<path d="M57.1929,346.022v -307.575" fill="none" stroke="black"/>
<path d="M510.736,294.19h -453.543" fill="none" stroke="black" stroke-dasharray=" 1, 2"/>
<path d="M510.736,237.232h -453.543" fill="none" stroke="black" stroke-dasharray=" 1, 2"/>
<path d="M510.736,180.273h -453.543" fill="none" stroke="black" stroke-dasharray=" 1, 2"/>
<path d="M510.736,123.315h -453.543" fill="none" stroke="black" stroke-dasharray=" 1, 2"/>
<path d="M510.736,66.3565h -453.543" fill="none" stroke="black" stroke-dasharray=" 1, 2"/>
<path d="M510.736,294.19h -453.543" fill="none" stroke="black" stroke-dasharray=" 1, 2"/>
<path d="M510.736,66.3565h -453.543" fill="none" stroke="black" stroke-dasharray=" 1, 2"/>
<path d="M57.1929,346.022h 453.543" fill="none" stroke="black"/>
<path d="M115.82,336.795v 9.22726" fill="none" stroke="black"/>
<path d="M130.7,341.409v 4.61363" fill="none" stroke="black"/>
<path d="M145.58,341.409v 4.61363" fill="none" stroke="black"/>
<path d="M160.46,341.409v 4.61363" fill="none" stroke="black"/>
<path d="M175.34,336.795v 9.22726" fill="none" stroke="black"/>
<path d="M190.22,341.409v 4.61363" fill="none" stroke="black"/>
<path d="M205.1,341.409v 4.61363" fill="none" stroke="black"/>
<path d="M219.98,341.409v 4.61363" fill="none" stroke="black"/>
<path d="M234.86,336.795v 9.22726" fill="none" stroke="black"/>
<path d="M249.74,341.409v 4.61363" fill="none" stroke="black"/>
<path d="M264.621,341.409v 4.61363" fill="none" stroke="black"/>
<path d="M279.501,341.409v 4.61363" fill="none" stroke="black"/>
<path d="M294.381,336.795v 9.22726" fill="none" stroke="black"/>
<path d="M309.261,341.409v 4.61363" fill="none" stroke="black"/>
<path d="M324.141,341.409v 4.61363" fill="none" stroke="black"/>
<path d="M339.021,341.409v 4.61363" fill="none" stroke="black"/>
<path d="M353.901,336.795v 9.22726" fill="none" stroke="black"/>
<path d="M368.781,341.409v 4.61363" fill="none" stroke="black"/>
<path d="M383.661,341.409v 4.61363" fill="none" stroke="black"/>
<path d="M398.541,341.409v 4.61363" fill="none" stroke="black"/>
<path d="M413.421,336.795v 9.22726" fill="none" stroke="black"/>
<path d="M428.301,341.409v 4.61363" fill="none" stroke="black"/>
<path d="M443.181,341.409v 4.61363" fill="none" stroke="black"/>
<path d="M458.061,341.409v 4.61363" fill="none" stroke="black"/>
<path d="M472.941,336.795v 9.22726" fill="none" stroke="black"/>
<path d="M115.82,336.795v 9.22726" fill="none" stroke="black"/>
<path d="M100.94,341.409v 4.61363" fill="none" stroke="black"/>
<path d="M86.0602,341.409v 4.61363" fill="none" stroke="black"/>
<path d="M71.1801,341.409v 4.61363" fill="none" stroke="black"/>
<path d="M472.941,336.795v 9.22726" fill="none" stroke="black"/>
<path d="M487.821,341.409v 4.61363" fill="none" stroke="black"/>
<path d="M502.701,341.409v 4.61363" fill="none" stroke="black"/>
<text xml:space="preserve" x="110.465" y="358.403" fill="black" font-size="12.8453" font-family="Helvetica">0.2
</text>
<text xml:space="preserve" x="103.948" y="358.403" fill="black" font-size="12.8453" font-family="Times">&#8722;
</text>
<text xml:space="preserve" x="172.371" y="358.403" fill="black" font-size="12.8453" font-family="Helvetica">0
</text>
<text xml:space="preserve" x="226.131" y="358.403" fill="black" font-size="12.8453" font-family="Helvetica">0.2
</text>
<text xml:space="preserve" x="285.594" y="358.403" fill="black" font-size="12.8453" font-family="Helvetica">0.4
</text>
<text xml:space="preserve" x="345.056" y="358.403" fill="black" font-size="12.8453" font-family="Helvetica">0.6
</text>
<text xml:space="preserve" x="404.518" y="358.403" fill="black" font-size="12.8453" font-family="Helvetica">0.8
</text>
<text xml:space="preserve" x="470.497" y="358.403" fill="black" font-size="12.8453" font-family="Helvetica">1
</text>
<path d="M57.1929,346.022v -307.575" fill="none" stroke="black"/>
<path d="M70.7992,294.19h -13.6063" fill="none" stroke="black"/>
<path d="M63.9961,279.951h -6.80315" fill="none" stroke="black"/>
<path d="M63.9961,265.711h -6.80315" fill="none" stroke="black"/>
<path d="M63.9961,251.471h -6.80315" fill="none" stroke="black"/>
<path d="M70.7992,237.232h -13.6063" fill="none" stroke="black"/>
<path d="M63.9961,222.992h -6.80315" fill="none" stroke="black"/>
<path d="M63.9961,208.753h -6.80315" fill="none" stroke="black"/>
<path d="M63.9961,194.513h -6.80315" fill="none" stroke="black"/>
<path d="M70.7992,180.273h -13.6063" fill="none" stroke="black"/>
<path d="M63.9961,166.034h -6.80315" fill="none" stroke="black"/>
<path d="M63.9961,151.794h -6.80315" fill="none" stroke="black"/>
<path d="M63.9961,137.555h -6.80315" fill="none" stroke="black"/>
<path d="M70.7992,123.315h -13.6063" fill="none" stroke="black"/>
<path d="M63.9961,109.075h -6.80315" fill="none" stroke="black"/>
<path d="M63.9961,94.8357h -6.80315" fill="none" stroke="black"/>
<path d="M63.9961,80.5961h -6.80315" fill="none" stroke="black"/>
<path d="M70.7992,66.3565h -13.6063" fill="none" stroke="black"/>
<path d="M70.7992,294.19h -13.6063" fill="none" stroke="black"/>
<path d="M63.9961,308.43h -6.80315" fill="none" stroke="black"/>
<path d="M63.9961,322.669h -6.80315" fill="none" stroke="black"/>
<path d="M63.9961,336.909h -6.80315" fill="none" stroke="black"/>
<path d="M70.7992,66.3565h -13.6063" fill="none" stroke="black"/>
<path d="M63.9961,52.1169h -6.80315" fill="none" stroke="black"/>
<text xml:space="preserve" x="47.7441" y="298.941" fill="black" font-size="12.8453" font-family="Helvetica">2
</text>
<text xml:space="preserve" x="47.7441" y="241.922" fill="black" font-size="12.8453" font-family="Helvetica">4
</text>
<text xml:space="preserve" x="47.7441" y="184.904" fill="black" font-size="12.8453" font-family="Helvetica">6
</text>
<text xml:space="preserve" x="47.7441" y="127.885" fill="black" font-size="12.8453" font-family="Helvetica">8
</text>
<text xml:space="preserve" x="41.2277" y="70.8661" fill="black" font-size="12.8453" font-family="Helvetica">10
</text>
<path d="M109.868,322.669l 80.3522, -54.1105l 59.5201, -76.8938l 29.7601, -51.2626l 44.6401, -45.5667l 32.7361, -17.0875l 26.784, 25.6313l 44.6401, 68.3501l 11.904, 51.2626l 17.856, 99.6772" fill="none" stroke="black"/>
<g fill="#0000ff">
<rect x="106.61" y="319.411" width="6.51643" height="6.51643"/>
<rect x="186.962" y="265.301" width="6.51643" height="6.51643"/>
<rect x="246.482" y="188.407" width="6.51643" height="6.51643"/>
<rect x="276.242" y="137.144" width="6.51643" height="6.51643"/>
<rect x="320.882" y="91.5775" width="6.51643" height="6.51643"/>
<rect x="353.618" y="74.49" width="6.51643" height="6.51643"/>
<rect x="380.403" y="100.121" width="6.51643" height="6.51643"/>
<rect x="425.043" y="168.471" width="6.51643" height="6.51643"/>
<rect x="436.947" y="219.734" width="6.51643" height="6.51643"/>
<rect x="454.803" y="319.411" width="6.51643" height="6.51643"/>
</g>
<path d="M106.61,322.669h -11.6218" fill="none" stroke="black"/>
<path d="M113.126,322.669h 11.6218" fill="none" stroke="black"/>
<path d="M94.9882,324.298v -3.25821" fill="none" stroke="black"/>
<path d="M124.748,324.298v -3.25821" fill="none" stroke="black"/>
<path d="M109.868,319.411v -19.5251" fill="none" stroke="black"/>
<path d="M109.868,325.928v 19.5251" fill="none" stroke="black"/>
<path d="M108.239,299.886h 3.25821" fill="none" stroke="black"/>
<path d="M108.239,345.453h 3.25821" fill="none" stroke="black"/>
<path d="M186.962,268.559h -26.5018" fill="none" stroke="black"/>
<path d="M193.479,268.559h 26.5018" fill="none" stroke="black"/>
<path d="M160.46,270.188v -3.25821" fill="none" stroke="black"/>
<path d="M219.98,270.188v -3.25821" fill="none" stroke="black"/>
<path d="M190.22,265.301v -16.6772" fill="none" stroke="black"/>
<path d="M190.22,271.817v 16.6772" fill="none" stroke="black"/>
<path d="M188.591,248.623h 3.25821" fill="none" stroke="black"/>
<path d="M188.591,288.494h 3.25821" fill="none" stroke="black"/>
<path d="M246.482,191.665h -17.5738" fill="none" stroke="black"/>
<path d="M252.999,191.665h 17.5738" fill="none" stroke="black"/>
<path d="M228.908,193.294v -3.25821" fill="none" stroke="black"/>
<path d="M270.573,193.294v -3.25821" fill="none" stroke="black"/>
<path d="M249.74,188.407v -13.8293" fill="none" stroke="black"/>
<path d="M249.74,194.923v 13.8293" fill="none" stroke="black"/>
<path d="M248.111,174.577h 3.25821" fill="none" stroke="black"/>
<path d="M248.111,208.753h 3.25821" fill="none" stroke="black"/>
<path d="M276.242,140.402h -17.5738" fill="none" stroke="black"/>
<path d="M282.759,140.402h 17.5738" fill="none" stroke="black"/>
<path d="M258.669,142.032v -3.25821" fill="none" stroke="black"/>
<path d="M300.333,142.032v -3.25821" fill="none" stroke="black"/>
<path d="M279.501,137.144v -10.9814" fill="none" stroke="black"/>
<path d="M279.501,143.661v 10.9814" fill="none" stroke="black"/>
<path d="M277.871,126.163h 3.25821" fill="none" stroke="black"/>
<path d="M277.871,154.642h 3.25821" fill="none" stroke="black"/>
<path d="M320.882,94.8357h -8.64581" fill="none" stroke="black"/>
<path d="M327.399,94.8357h 8.64581" fill="none" stroke="black"/>
<path d="M312.237,96.4649v -3.25821" fill="none" stroke="black"/>
<path d="M336.045,96.4649v -3.25821" fill="none" stroke="black"/>
<path d="M324.141,91.5775v -8.13347" fill="none" stroke="black"/>
<path d="M324.141,98.094v 8.13347" fill="none" stroke="black"/>
<path d="M322.512,83.4441h 3.25821" fill="none" stroke="black"/>
<path d="M322.512,106.227h 3.25821" fill="none" stroke="black"/>
<path d="M353.618,77.7482h -11.6218" fill="none" stroke="black"/>
<path d="M360.135,77.7482h 11.6218" fill="none" stroke="black"/>
<path d="M341.997,79.3773v -3.25821" fill="none" stroke="black"/>
<path d="M371.757,79.3773v -3.25821" fill="none" stroke="black"/>
<path d="M356.877,74.49v -8.13347" fill="none" stroke="black"/>
<path d="M356.877,81.0064v 8.13347" fill="none" stroke="black"/>
<path d="M355.248,66.3565h 3.25821" fill="none" stroke="black"/>
<path d="M355.248,89.1399h 3.25821" fill="none" stroke="black"/>
<path d="M380.403,103.38h -14.5978" fill="none" stroke="black"/>
<path d="M386.919,103.38h 14.5978" fill="none" stroke="black"/>
<path d="M365.805,105.009v -3.25821" fill="none" stroke="black"/>
<path d="M401.517,105.009v -3.25821" fill="none" stroke="black"/>
<path d="M383.661,100.121v -10.9814" fill="none" stroke="black"/>
<path d="M383.661,106.638v 10.9814" fill="none" stroke="black"/>
<path d="M382.032,89.1399h 3.25821" fill="none" stroke="black"/>
<path d="M382.032,117.619h 3.25821" fill="none" stroke="black"/>
<path d="M425.043,171.73h -17.5738" fill="none" stroke="black"/>
<path d="M431.559,171.73h 17.5738" fill="none" stroke="black"/>
<path d="M407.469,173.359v -3.25821" fill="none" stroke="black"/>
<path d="M449.133,173.359v -3.25821" fill="none" stroke="black"/>
<path d="M428.301,168.471v -13.8293" fill="none" stroke="black"/>
<path d="M428.301,174.988v 13.8293" fill="none" stroke="black"/>
<path d="M426.672,154.642h 3.25821" fill="none" stroke="black"/>
<path d="M426.672,188.817h 3.25821" fill="none" stroke="black"/>
<path d="M436.947,222.992h -20.5498" fill="none" stroke="black"/>
<path d="M443.463,222.992h 20.5498" fill="none" stroke="black"/>
<path d="M416.397,224.621v -3.25821" fill="none" stroke="black"/>
<path d="M464.013,224.621v -3.25821" fill="none" stroke="black"/>
<path d="M440.205,219.734v -16.6772" fill="none" stroke="black"/>
<path d="M440.205,226.25v 16.6772" fill="none" stroke="black"/>
<path d="M438.576,203.057h 3.25821" fill="none" stroke="black"/>
<path d="M438.576,242.928h 3.25821" fill="none" stroke="black"/>
<path d="M454.803,322.669h -11.6218" fill="none" stroke="black"/>
<path d="M461.319,322.669h 11.6218" fill="none" stroke="black"/>
<path d="M443.181,324.298v -3.25821" fill="none" stroke="black"/>
<path d="M472.941,324.298v -3.25821" fill="none" stroke="black"/>
<path d="M458.061,319.411v -19.5251" fill="none" stroke="black"/>
<path d="M458.061,325.928v 19.5251" fill="none" stroke="black"/>
<path d="M456.432,299.886h 3.25821" fill="none" stroke="black"/>
<path d="M456.432,345.453h 3.25821" fill="none" stroke="black"/>
<text xml:space="preserve" x="187.847" y="19.5493" fill="black" font-size="18.7938" font-family="Helvetica">TGraphErrors Example
</text></svg>
