<?xml version="1.0" standalone="no"?>
<svg width="567.429" height="384.969" viewBox="0 0 567.429 384.969" xmlns="http://www.w3.org/2000/svg" shape-rendering="crispEdges">
<title>
./old_svg_pro/temp_graph_pro.svg
</title>
<desc>
Creator: ROOT Version 6.33.01
CreationDate: Wed Jul  3 13:20:00 2024</desc>
<defs>
</defs>
<rect x="0.5" y="0" width="566.929" height="384.469" fill="white"/>
<rect x="57.1929" y="38.4469" width="453.543" height="307.575" fill="white"/>
<rect x="57.1929" y="38.4469" width="453.543" height="307.575" fill="none" stroke="black"/>
<rect x="57.1929" y="38.4469" width="453.543" height="307.575" fill="white"/>
<rect x="57.1929" y="38.4469" width="453.543" height="307.575" fill="none" stroke="black"/>
<path d="M57.1929,346.022h 453.543" fill="none" stroke="black"/>
<path d="M57.1929,38.4469v 307.575" fill="none" stroke="black" stroke-dasharray=" 1, 2"/>
<path d="M100.594,38.4469v 307.575" fill="none" stroke="black" stroke-dasharray=" 1, 2"/>
<path d="M143.995,38.4469v 307.575" fill="none" stroke="black" stroke-dasharray=" 1, 2"/>
<path d="M187.397,38.4469v 307.575" fill="none" stroke="black" stroke-dasharray=" 1, 2"/>
<path d="M230.798,38.4469v 307.575" fill="none" stroke="black" stroke-dasharray=" 1, 2"/>
<path d="M274.199,38.4469v 307.575" fill="none" stroke="black" stroke-dasharray=" 1, 2"/>
<path d="M317.601,38.4469v 307.575" fill="none" stroke="black" stroke-dasharray=" 1, 2"/>
<path d="M361.002,38.4469v 307.575" fill="none" stroke="black" stroke-dasharray=" 1, 2"/>
<path d="M404.403,38.4469v 307.575" fill="none" stroke="black" stroke-dasharray=" 1, 2"/>
<path d="M447.804,38.4469v 307.575" fill="none" stroke="black" stroke-dasharray=" 1, 2"/>
<path d="M491.206,38.4469v 307.575" fill="none" stroke="black" stroke-dasharray=" 1, 2"/>
<path d="M491.206,38.4469v 307.575" fill="none" stroke="black" stroke-dasharray=" 1, 2"/>
<path d="M57.1929,346.022v -307.575" fill="none" stroke="black"/>
<path d="M510.736,319.965h -453.543" fill="none" stroke="black" stroke-dasharray=" 1, 2"/>
<path d="M510.736,287.962h -453.543" fill="none" stroke="black" stroke-dasharray=" 1, 2"/>
<path d="M510.736,255.959h -453.543" fill="none" stroke="black" stroke-dasharray=" 1, 2"/>
<path d="M510.736,223.956h -453.543" fill="none" stroke="black" stroke-dasharray=" 1, 2"/>
<path d="M510.736,191.953h -453.543" fill="none" stroke="black" stroke-dasharray=" 1, 2"/>
<path d="M510.736,159.951h -453.543" fill="none" stroke="black" stroke-dasharray=" 1, 2"/>
<path d="M510.736,127.948h -453.543" fill="none" stroke="black" stroke-dasharray=" 1, 2"/>
<path d="M510.736,95.9447h -453.543" fill="none" stroke="black" stroke-dasharray=" 1, 2"/>
<path d="M510.736,63.9417h -453.543" fill="none" stroke="black" stroke-dasharray=" 1, 2"/>
<path d="M510.736,319.965h -453.543" fill="none" stroke="black" stroke-dasharray=" 1, 2"/>
<path d="M510.736,63.9417h -453.543" fill="none" stroke="black" stroke-dasharray=" 1, 2"/>
<path d="M57.1929,346.022h 453.543" fill="none" stroke="black"/>
<path d="M57.1929,336.795v 9.22726" fill="none" stroke="black"/>
<path d="M68.0432,341.409v 4.61363" fill="none" stroke="black"/>
<path d="M78.8936,341.409v 4.61363" fill="none" stroke="black"/>
<path d="M89.7439,341.409v 4.61363" fill="none" stroke="black"/>
<path d="M100.594,336.795v 9.22726" fill="none" stroke="black"/>
<path d="M111.445,341.409v 4.61363" fill="none" stroke="black"/>
<path d="M122.295,341.409v 4.61363" fill="none" stroke="black"/>
<path d="M133.145,341.409v 4.61363" fill="none" stroke="black"/>
<path d="M143.995,336.795v 9.22726" fill="none" stroke="black"/>
<path d="M154.846,341.409v 4.61363" fill="none" stroke="black"/>
<path d="M165.696,341.409v 4.61363" fill="none" stroke="black"/>
<path d="M176.546,341.409v 4.61363" fill="none" stroke="black"/>
<path d="M187.397,336.795v 9.22726" fill="none" stroke="black"/>
<path d="M198.247,341.409v 4.61363" fill="none" stroke="black"/>
<path d="M209.097,341.409v 4.61363" fill="none" stroke="black"/>
<path d="M219.948,341.409v 4.61363" fill="none" stroke="black"/>
<path d="M230.798,336.795v 9.22726" fill="none" stroke="black"/>
<path d="M241.648,341.409v 4.61363" fill="none" stroke="black"/>
<path d="M252.499,341.409v 4.61363" fill="none" stroke="black"/>
<path d="M263.349,341.409v 4.61363" fill="none" stroke="black"/>
<path d="M274.199,336.795v 9.22726" fill="none" stroke="black"/>
<path d="M285.05,341.409v 4.61363" fill="none" stroke="black"/>
<path d="M295.9,341.409v 4.61363" fill="none" stroke="black"/>
<path d="M306.75,341.409v 4.61363" fill="none" stroke="black"/>
<path d="M317.601,336.795v 9.22726" fill="none" stroke="black"/>
<path d="M328.451,341.409v 4.61363" fill="none" stroke="black"/>
<path d="M339.301,341.409v 4.61363" fill="none" stroke="black"/>
<path d="M350.152,341.409v 4.61363" fill="none" stroke="black"/>
<path d="M361.002,336.795v 9.22726" fill="none" stroke="black"/>
<path d="M371.852,341.409v 4.61363" fill="none" stroke="black"/>
<path d="M382.702,341.409v 4.61363" fill="none" stroke="black"/>
<path d="M393.553,341.409v 4.61363" fill="none" stroke="black"/>
<path d="M404.403,336.795v 9.22726" fill="none" stroke="black"/>
<path d="M415.253,341.409v 4.61363" fill="none" stroke="black"/>
<path d="M426.104,341.409v 4.61363" fill="none" stroke="black"/>
<path d="M436.954,341.409v 4.61363" fill="none" stroke="black"/>
<path d="M447.804,336.795v 9.22726" fill="none" stroke="black"/>
<path d="M458.655,341.409v 4.61363" fill="none" stroke="black"/>
<path d="M469.505,341.409v 4.61363" fill="none" stroke="black"/>
<path d="M480.355,341.409v 4.61363" fill="none" stroke="black"/>
<path d="M491.206,336.795v 9.22726" fill="none" stroke="black"/>
<path d="M491.206,336.795v 9.22726" fill="none" stroke="black"/>
<path d="M502.056,341.409v 4.61363" fill="none" stroke="black"/>
<text xml:space="preserve" x="54.2605" y="358.403" fill="black" font-size="12.8453" font-family="Helvetica">0
</text>
<text xml:space="preserve" x="91.73" y="358.403" fill="black" font-size="12.8453" font-family="Helvetica">0.2
</text>
<text xml:space="preserve" x="134.901" y="358.403" fill="black" font-size="12.8453" font-family="Helvetica">0.4
</text>
<text xml:space="preserve" x="178.073" y="358.403" fill="black" font-size="12.8453" font-family="Helvetica">0.6
</text>
<text xml:space="preserve" x="222.059" y="358.403" fill="black" font-size="12.8453" font-family="Helvetica">0.8
</text>
<text xml:space="preserve" x="271.746" y="358.403" fill="black" font-size="12.8453" font-family="Helvetica">1
</text>
<text xml:space="preserve" x="308.401" y="358.403" fill="black" font-size="12.8453" font-family="Helvetica">1.2
</text>
<text xml:space="preserve" x="352.387" y="358.403" fill="black" font-size="12.8453" font-family="Helvetica">1.4
</text>
<text xml:space="preserve" x="395.558" y="358.403" fill="black" font-size="12.8453" font-family="Helvetica">1.6
</text>
<text xml:space="preserve" x="438.73" y="358.403" fill="black" font-size="12.8453" font-family="Helvetica">1.8
</text>
<text xml:space="preserve" x="487.603" y="358.403" fill="black" font-size="12.8453" font-family="Helvetica">2
</text>
<text xml:space="preserve" x="480.272" y="372.251" fill="black" font-size="12.8453" font-family="Helvetica">X title
</text>
<path d="M57.1929,346.022v -307.575" fill="none" stroke="black"/>
<path d="M70.7992,319.965h -13.6063" fill="none" stroke="black"/>
<path d="M63.9961,313.565h -6.80315" fill="none" stroke="black"/>
<path d="M63.9961,307.164h -6.80315" fill="none" stroke="black"/>
<path d="M63.9961,300.763h -6.80315" fill="none" stroke="black"/>
<path d="M63.9961,294.363h -6.80315" fill="none" stroke="black"/>
<path d="M70.7992,287.962h -13.6063" fill="none" stroke="black"/>
<path d="M63.9961,281.562h -6.80315" fill="none" stroke="black"/>
<path d="M63.9961,275.161h -6.80315" fill="none" stroke="black"/>
<path d="M63.9961,268.76h -6.80315" fill="none" stroke="black"/>
<path d="M63.9961,262.36h -6.80315" fill="none" stroke="black"/>
<path d="M70.7992,255.959h -13.6063" fill="none" stroke="black"/>
<path d="M63.9961,249.559h -6.80315" fill="none" stroke="black"/>
<path d="M63.9961,243.158h -6.80315" fill="none" stroke="black"/>
<path d="M63.9961,236.758h -6.80315" fill="none" stroke="black"/>
<path d="M63.9961,230.357h -6.80315" fill="none" stroke="black"/>
<path d="M70.7992,223.956h -13.6063" fill="none" stroke="black"/>
<path d="M63.9961,217.556h -6.80315" fill="none" stroke="black"/>
<path d="M63.9961,211.155h -6.80315" fill="none" stroke="black"/>
<path d="M63.9961,204.755h -6.80315" fill="none" stroke="black"/>
<path d="M63.9961,198.354h -6.80315" fill="none" stroke="black"/>
<path d="M70.7992,191.953h -13.6063" fill="none" stroke="black"/>
<path d="M63.9961,185.553h -6.80315" fill="none" stroke="black"/>
<path d="M63.9961,179.152h -6.80315" fill="none" stroke="black"/>
<path d="M63.9961,172.752h -6.80315" fill="none" stroke="black"/>
<path d="M63.9961,166.351h -6.80315" fill="none" stroke="black"/>
<path d="M70.7992,159.951h -13.6063" fill="none" stroke="black"/>
<path d="M63.9961,153.55h -6.80315" fill="none" stroke="black"/>
<path d="M63.9961,147.149h -6.80315" fill="none" stroke="black"/>
<path d="M63.9961,140.749h -6.80315" fill="none" stroke="black"/>
<path d="M63.9961,134.348h -6.80315" fill="none" stroke="black"/>
<path d="M70.7992,127.948h -13.6063" fill="none" stroke="black"/>
<path d="M63.9961,121.547h -6.80315" fill="none" stroke="black"/>
<path d="M63.9961,115.146h -6.80315" fill="none" stroke="black"/>
<path d="M63.9961,108.746h -6.80315" fill="none" stroke="black"/>
<path d="M63.9961,102.345h -6.80315" fill="none" stroke="black"/>
<path d="M70.7992,95.9447h -13.6063" fill="none" stroke="black"/>
<path d="M63.9961,89.5441h -6.80315" fill="none" stroke="black"/>
<path d="M63.9961,83.1435h -6.80315" fill="none" stroke="black"/>
<path d="M63.9961,76.7429h -6.80315" fill="none" stroke="black"/>
<path d="M63.9961,70.3423h -6.80315" fill="none" stroke="black"/>
<path d="M70.7992,63.9417h -13.6063" fill="none" stroke="black"/>
<path d="M70.7992,319.965h -13.6063" fill="none" stroke="black"/>
<path d="M63.9961,326.366h -6.80315" fill="none" stroke="black"/>
<path d="M63.9961,332.766h -6.80315" fill="none" stroke="black"/>
<path d="M63.9961,339.167h -6.80315" fill="none" stroke="black"/>
<path d="M63.9961,345.567h -6.80315" fill="none" stroke="black"/>
<path d="M70.7992,63.9417h -13.6063" fill="none" stroke="black"/>
<path d="M63.9961,57.5412h -6.80315" fill="none" stroke="black"/>
<path d="M63.9961,51.1406h -6.80315" fill="none" stroke="black"/>
<path d="M63.9961,44.74h -6.80315" fill="none" stroke="black"/>
<text xml:space="preserve" x="47.7441" y="325.007" fill="black" font-size="12.8453" font-family="Helvetica">2
</text>
<text xml:space="preserve" x="47.7441" y="293.239" fill="black" font-size="12.8453" font-family="Helvetica">3
</text>
<text xml:space="preserve" x="47.7441" y="260.657" fill="black" font-size="12.8453" font-family="Helvetica">4
</text>
<text xml:space="preserve" x="47.7441" y="228.889" fill="black" font-size="12.8453" font-family="Helvetica">5
</text>
<text xml:space="preserve" x="47.7441" y="197.122" fill="black" font-size="12.8453" font-family="Helvetica">6
</text>
<text xml:space="preserve" x="47.7441" y="164.54" fill="black" font-size="12.8453" font-family="Helvetica">7
</text>
<text xml:space="preserve" x="47.7441" y="132.772" fill="black" font-size="12.8453" font-family="Helvetica">8
</text>
<text xml:space="preserve" x="47.7441" y="101.005" fill="black" font-size="12.8453" font-family="Helvetica">9
</text>
<text xml:space="preserve" x="41.2277" y="68.4225" fill="black" font-size="12.8453" font-family="Helvetica">10
</text>
<g transform="rotate(-90,29.0094,68.4225)">
<text xml:space="preserve" x="29.0094" y="68.4225" fill="black" font-size="12.8453" font-family="Helvetica">Y title
</text>
</g>
<path d="M57.1929,320.391l 21.7006, -30.9951l 18.2616, -25.3678l 3.43907, -4.6824l 16.2472, -21.7036l 5.45349, -7.10136l 14.7283, -18.697l 6.97231, -8.57496l 13.5549, -16.1375l 8.14571, -9.32889l 12.6456, -13.9067l 9.05506, -9.49977l 11.9419,
 -11.9165l 9.75875, -9.19608l 11.3993, -10.0991l 10.3013, -8.50865l 10.9841, -8.40303l 10.7165, -7.51406l 10.6711, -6.78991l 11.0295, -6.27744l 10.4421, -5.23179l 11.2586, -4.85524l 10.284, -3.70831l 11.4167, -3.29762l 10.1882, -2.20443l 11.5125,
 -1.6504l 10.1495, -0.708518l 11.5511, 0.0433001l 10.1661, 0.789274l 11.5346, 1.74177l 10.239, 2.29864l 11.4617, 3.40338l 10.3722, 3.83053l 11.3285, 4.98549l 10.5729, 5.39878l 11.1278, 6.44316l 10.6868, 6.89997l 11.0138, 7.84955" fill="none"
 stroke="#ff0000" stroke-width="4"/>
<g fill="#0000ff">
<rect x="53.9347" y="317.133" width="6.51643" height="6.51643"/>
<rect x="75.6353" y="286.138" width="6.51643" height="6.51643"/>
<rect x="97.336" y="256.087" width="6.51643" height="6.51643"/>
<rect x="119.037" y="227.283" width="6.51643" height="6.51643"/>
<rect x="140.737" y="200.011" width="6.51643" height="6.51643"/>
<rect x="162.438" y="174.544" width="6.51643" height="6.51643"/>
<rect x="184.139" y="151.138" width="6.51643" height="6.51643"/>
<rect x="205.839" y="130.025" width="6.51643" height="6.51643"/>
<rect x="227.54" y="111.417" width="6.51643" height="6.51643"/>
<rect x="249.24" y="95.5004" width="6.51643" height="6.51643"/>
<rect x="270.941" y="82.433" width="6.51643" height="6.51643"/>
<rect x="292.642" y="72.346" width="6.51643" height="6.51643"/>
<rect x="314.342" y="65.34" width="6.51643" height="6.51643"/>
<rect x="336.043" y="61.4852" width="6.51643" height="6.51643"/>
<rect x="357.744" y="60.82" width="6.51643" height="6.51643"/>
<rect x="379.444" y="63.351" width="6.51643" height="6.51643"/>
<rect x="401.145" y="69.053" width="6.51643" height="6.51643"/>
<rect x="422.846" y="77.8691" width="6.51643" height="6.51643"/>
<rect x="444.546" y="89.711" width="6.51643" height="6.51643"/>
<rect x="466.247" y="104.461" width="6.51643" height="6.51643"/>
</g>
<text xml:space="preserve" x="222.873" y="18.7347" fill="black" font-size="18.7938" font-family="Helvetica">a simple graph
</text></svg>
