<?xml version="1.0" standalone="no"?>
<svg width="504.235" height="737.508" viewBox="0 0 504.235 737.508" xmlns="http://www.w3.org/2000/svg" shape-rendering="crispEdges">
<title>
./old_svg_pro/temp_h2_cut_pro.svg
</title>
<desc>
Creator: ROOT Version 6.33.01
CreationDate: Wed Jul  3 13:19:55 2024</desc>
<defs>
</defs>
<rect x="0.5" y="0" width="503.735" height="737.008" fill="white"/>
<rect x="50.8735" y="73.7008" width="402.988" height="589.606" fill="white"/>
<rect x="50.8735" y="73.7008" width="402.988" height="589.606" fill="none" stroke="black"/>
<rect x="232.218" y="412.724" width="10.0747" height="14.7402" fill="#d0ba59"/>
<rect x="242.293" y="412.724" width="10.0747" height="14.7402" fill="#e1bf4a"/>
<rect x="252.367" y="412.724" width="10.0747" height="14.7402" fill="#e1bf4a"/>
<rect x="262.442" y="412.724" width="10.0747" height="14.7402" fill="#b2bc65"/>
<rect x="222.143" y="397.984" width="10.0747" height="14.7402" fill="#e1bf4a"/>
<rect x="232.218" y="397.984" width="10.0747" height="14.7402" fill="#f4c53a"/>
<rect x="242.293" y="397.984" width="10.0747" height="14.7402" fill="#f4c53a"/>
<rect x="252.367" y="397.984" width="10.0747" height="14.7402" fill="#f4c53a"/>
<rect x="262.442" y="397.984" width="10.0747" height="14.7402" fill="#e1bf4a"/>
<rect x="272.517" y="397.984" width="10.0747" height="14.7402" fill="#d0ba59"/>
<rect x="222.143" y="383.244" width="10.0747" height="14.7402" fill="#f4c53a"/>
<rect x="232.218" y="383.244" width="10.0747" height="14.7402" fill="#f4c53a"/>
<rect x="242.293" y="383.244" width="10.0747" height="14.7402" fill="#fcd12b"/>
<rect x="252.367" y="383.244" width="10.0747" height="14.7402" fill="#fcd12b"/>
<rect x="262.442" y="383.244" width="10.0747" height="14.7402" fill="#fcd12b"/>
<rect x="272.517" y="383.244" width="10.0747" height="14.7402" fill="#f4c53a"/>
<rect x="212.069" y="368.504" width="10.0747" height="14.7402" fill="#d0ba59"/>
<rect x="222.143" y="368.504" width="10.0747" height="14.7402" fill="#f4c53a"/>
<rect x="232.218" y="368.504" width="10.0747" height="14.7402" fill="#fcd12b"/>
<rect x="242.293" y="368.504" width="10.0747" height="14.7402" fill="#fcd12b"/>
<rect x="252.367" y="368.504" width="10.0747" height="14.7402" fill="#f9f90e"/>
<rect x="262.442" y="368.504" width="10.0747" height="14.7402" fill="#fcd12b"/>
<rect x="272.517" y="368.504" width="10.0747" height="14.7402" fill="#d0ba59"/>
<rect x="282.591" y="368.504" width="10.0747" height="14.7402" fill="#e1bf4a"/>
<rect x="212.069" y="353.764" width="10.0747" height="14.7402" fill="#f4c53a"/>
<rect x="222.143" y="353.764" width="10.0747" height="14.7402" fill="#e1bf4a"/>
<rect x="232.218" y="353.764" width="10.0747" height="14.7402" fill="#fcd12b"/>
<rect x="242.293" y="353.764" width="10.0747" height="14.7402" fill="#f9f90e"/>
<rect x="252.367" y="353.764" width="10.0747" height="14.7402" fill="#f9f90e"/>
<rect x="262.442" y="353.764" width="10.0747" height="14.7402" fill="#fae61c"/>
<rect x="272.517" y="353.764" width="10.0747" height="14.7402" fill="#f4c53a"/>
<rect x="282.591" y="353.764" width="10.0747" height="14.7402" fill="#d0ba59"/>
<rect x="222.143" y="339.024" width="10.0747" height="14.7402" fill="#fcd12b"/>
<rect x="232.218" y="339.024" width="10.0747" height="14.7402" fill="#f4c53a"/>
<rect x="242.293" y="339.024" width="10.0747" height="14.7402" fill="#f4c53a"/>
<rect x="252.367" y="339.024" width="10.0747" height="14.7402" fill="#fcd12b"/>
<rect x="262.442" y="339.024" width="10.0747" height="14.7402" fill="#f4c53a"/>
<rect x="272.517" y="339.024" width="10.0747" height="14.7402" fill="#fcd12b"/>
<rect x="222.143" y="324.283" width="10.0747" height="14.7402" fill="#f4c53a"/>
<rect x="232.218" y="324.283" width="10.0747" height="14.7402" fill="#f4c53a"/>
<rect x="242.293" y="324.283" width="10.0747" height="14.7402" fill="#f4c53a"/>
<rect x="252.367" y="324.283" width="10.0747" height="14.7402" fill="#f4c53a"/>
<rect x="262.442" y="324.283" width="10.0747" height="14.7402" fill="#e1bf4a"/>
<rect x="272.517" y="324.283" width="10.0747" height="14.7402" fill="#d0ba59"/>
<rect x="232.218" y="309.543" width="10.0747" height="14.7402" fill="#d0ba59"/>
<rect x="242.293" y="309.543" width="10.0747" height="14.7402" fill="#e1bf4a"/>
<rect x="252.367" y="309.543" width="10.0747" height="14.7402" fill="#e1bf4a"/>
<rect x="262.442" y="309.543" width="10.0747" height="14.7402" fill="#b2bc65"/>
<text xml:space="preserve" x="161.932" y="29.5817" fill="black" font-size="22.1051" font-family="Helvetica">Histogram with cut
</text>
<path d="M50.8735,663.307h 402.988" fill="none" stroke="black"/>
<path d="M50.8735,645.619v 17.6882" fill="none" stroke="black"/>
<path d="M60.9482,654.463v 8.84409" fill="none" stroke="black"/>
<path d="M71.0229,654.463v 8.84409" fill="none" stroke="black"/>
<path d="M81.0976,654.463v 8.84409" fill="none" stroke="black"/>
<path d="M91.1722,645.619v 17.6882" fill="none" stroke="black"/>
<path d="M101.247,654.463v 8.84409" fill="none" stroke="black"/>
<path d="M111.322,654.463v 8.84409" fill="none" stroke="black"/>
<path d="M121.396,654.463v 8.84409" fill="none" stroke="black"/>
<path d="M131.471,645.619v 17.6882" fill="none" stroke="black"/>
<path d="M141.546,654.463v 8.84409" fill="none" stroke="black"/>
<path d="M151.62,654.463v 8.84409" fill="none" stroke="black"/>
<path d="M161.695,654.463v 8.84409" fill="none" stroke="black"/>
<path d="M171.77,645.619v 17.6882" fill="none" stroke="black"/>
<path d="M181.844,654.463v 8.84409" fill="none" stroke="black"/>
<path d="M191.919,654.463v 8.84409" fill="none" stroke="black"/>
<path d="M201.994,654.463v 8.84409" fill="none" stroke="black"/>
<path d="M212.069,645.619v 17.6882" fill="none" stroke="black"/>
<path d="M222.143,654.463v 8.84409" fill="none" stroke="black"/>
<path d="M232.218,654.463v 8.84409" fill="none" stroke="black"/>
<path d="M242.293,654.463v 8.84409" fill="none" stroke="black"/>
<path d="M252.367,645.619v 17.6882" fill="none" stroke="black"/>
<path d="M262.442,654.463v 8.84409" fill="none" stroke="black"/>
<path d="M272.517,654.463v 8.84409" fill="none" stroke="black"/>
<path d="M282.591,654.463v 8.84409" fill="none" stroke="black"/>
<path d="M292.666,645.619v 17.6882" fill="none" stroke="black"/>
<path d="M302.741,654.463v 8.84409" fill="none" stroke="black"/>
<path d="M312.816,654.463v 8.84409" fill="none" stroke="black"/>
<path d="M322.89,654.463v 8.84409" fill="none" stroke="black"/>
<path d="M332.965,645.619v 17.6882" fill="none" stroke="black"/>
<path d="M343.04,654.463v 8.84409" fill="none" stroke="black"/>
<path d="M353.114,654.463v 8.84409" fill="none" stroke="black"/>
<path d="M363.189,654.463v 8.84409" fill="none" stroke="black"/>
<path d="M373.264,645.619v 17.6882" fill="none" stroke="black"/>
<path d="M383.338,654.463v 8.84409" fill="none" stroke="black"/>
<path d="M393.413,654.463v 8.84409" fill="none" stroke="black"/>
<path d="M403.488,654.463v 8.84409" fill="none" stroke="black"/>
<path d="M413.562,645.619v 17.6882" fill="none" stroke="black"/>
<path d="M423.637,654.463v 8.84409" fill="none" stroke="black"/>
<path d="M433.712,654.463v 8.84409" fill="none" stroke="black"/>
<path d="M443.787,654.463v 8.84409" fill="none" stroke="black"/>
<path d="M453.861,645.619v 17.6882" fill="none" stroke="black"/>
<text xml:space="preserve" x="46.1404" y="687.987" fill="black" font-size="16.675" font-family="Helvetica">10
</text>
<text xml:space="preserve" x="37.6885" y="687.987" fill="black" font-size="16.675" font-family="Times">&#8722;
</text>
<text xml:space="preserve" x="90.9356" y="687.987" fill="black" font-size="16.675" font-family="Helvetica">8
</text>
<text xml:space="preserve" x="81.6385" y="687.987" fill="black" font-size="16.675" font-family="Times">&#8722;
</text>
<text xml:space="preserve" x="131.505" y="687.987" fill="black" font-size="16.675" font-family="Helvetica">6
</text>
<text xml:space="preserve" x="122.208" y="687.987" fill="black" font-size="16.675" font-family="Times">&#8722;
</text>
<text xml:space="preserve" x="172.074" y="687.987" fill="black" font-size="16.675" font-family="Helvetica">4
</text>
<text xml:space="preserve" x="162.777" y="687.987" fill="black" font-size="16.675" font-family="Times">&#8722;
</text>
<text xml:space="preserve" x="211.798" y="687.987" fill="black" font-size="16.675" font-family="Helvetica">2
</text>
<text xml:space="preserve" x="202.501" y="687.987" fill="black" font-size="16.675" font-family="Times">&#8722;
</text>
<text xml:space="preserve" x="248.141" y="687.987" fill="black" font-size="16.675" font-family="Helvetica">0
</text>
<text xml:space="preserve" x="288.711" y="687.987" fill="black" font-size="16.675" font-family="Helvetica">2
</text>
<text xml:space="preserve" x="328.435" y="687.987" fill="black" font-size="16.675" font-family="Helvetica">4
</text>
<text xml:space="preserve" x="369.004" y="687.987" fill="black" font-size="16.675" font-family="Helvetica">6
</text>
<text xml:space="preserve" x="409.573" y="687.987" fill="black" font-size="16.675" font-family="Helvetica">8
</text>
<text xml:space="preserve" x="444.226" y="687.987" fill="black" font-size="16.675" font-family="Helvetica">10
</text>
<path d="M50.8735,663.307v -589.606" fill="none" stroke="black"/>
<path d="M62.9631,663.307h -12.0896" fill="none" stroke="black"/>
<path d="M56.9183,648.567h -6.04482" fill="none" stroke="black"/>
<path d="M56.9183,633.827h -6.04482" fill="none" stroke="black"/>
<path d="M56.9183,619.087h -6.04482" fill="none" stroke="black"/>
<path d="M62.9631,604.346h -12.0896" fill="none" stroke="black"/>
<path d="M56.9183,589.606h -6.04482" fill="none" stroke="black"/>
<path d="M56.9183,574.866h -6.04482" fill="none" stroke="black"/>
<path d="M56.9183,560.126h -6.04482" fill="none" stroke="black"/>
<path d="M62.9631,545.386h -12.0896" fill="none" stroke="black"/>
<path d="M56.9183,530.646h -6.04482" fill="none" stroke="black"/>
<path d="M56.9183,515.905h -6.04482" fill="none" stroke="black"/>
<path d="M56.9183,501.165h -6.04482" fill="none" stroke="black"/>
<path d="M62.9631,486.425h -12.0896" fill="none" stroke="black"/>
<path d="M56.9183,471.685h -6.04482" fill="none" stroke="black"/>
<path d="M56.9183,456.945h -6.04482" fill="none" stroke="black"/>
<path d="M56.9183,442.205h -6.04482" fill="none" stroke="black"/>
<path d="M62.9631,427.465h -12.0896" fill="none" stroke="black"/>
<path d="M56.9183,412.724h -6.04482" fill="none" stroke="black"/>
<path d="M56.9183,397.984h -6.04482" fill="none" stroke="black"/>
<path d="M56.9183,383.244h -6.04482" fill="none" stroke="black"/>
<path d="M62.9631,368.504h -12.0896" fill="none" stroke="black"/>
<path d="M56.9183,353.764h -6.04482" fill="none" stroke="black"/>
<path d="M56.9183,339.024h -6.04482" fill="none" stroke="black"/>
<path d="M56.9183,324.283h -6.04482" fill="none" stroke="black"/>
<path d="M62.9631,309.543h -12.0896" fill="none" stroke="black"/>
<path d="M56.9183,294.803h -6.04482" fill="none" stroke="black"/>
<path d="M56.9183,280.063h -6.04482" fill="none" stroke="black"/>
<path d="M56.9183,265.323h -6.04482" fill="none" stroke="black"/>
<path d="M62.9631,250.583h -12.0896" fill="none" stroke="black"/>
<path d="M56.9183,235.842h -6.04482" fill="none" stroke="black"/>
<path d="M56.9183,221.102h -6.04482" fill="none" stroke="black"/>
<path d="M56.9183,206.362h -6.04482" fill="none" stroke="black"/>
<path d="M62.9631,191.622h -12.0896" fill="none" stroke="black"/>
<path d="M56.9183,176.882h -6.04482" fill="none" stroke="black"/>
<path d="M56.9183,162.142h -6.04482" fill="none" stroke="black"/>
<path d="M56.9183,147.402h -6.04482" fill="none" stroke="black"/>
<path d="M62.9631,132.661h -12.0896" fill="none" stroke="black"/>
<path d="M56.9183,117.921h -6.04482" fill="none" stroke="black"/>
<path d="M56.9183,103.181h -6.04482" fill="none" stroke="black"/>
<path d="M56.9183,88.4409h -6.04482" fill="none" stroke="black"/>
<path d="M62.9631,73.7008h -12.0896" fill="none" stroke="black"/>
<text xml:space="preserve" x="30.9269" y="669.392" fill="black" font-size="16.675" font-family="Helvetica">10
</text>
<text xml:space="preserve" x="21.6298" y="669.392" fill="black" font-size="16.675" font-family="Times">&#8722;
</text>
<text xml:space="preserve" x="40.224" y="610.229" fill="black" font-size="16.675" font-family="Helvetica">8
</text>
<text xml:space="preserve" x="30.9269" y="610.229" fill="black" font-size="16.675" font-family="Times">&#8722;
</text>
<text xml:space="preserve" x="40.224" y="551.065" fill="black" font-size="16.675" font-family="Helvetica">6
</text>
<text xml:space="preserve" x="30.9269" y="551.065" fill="black" font-size="16.675" font-family="Times">&#8722;
</text>
<text xml:space="preserve" x="40.224" y="493.592" fill="black" font-size="16.675" font-family="Helvetica">4
</text>
<text xml:space="preserve" x="30.9269" y="493.592" fill="black" font-size="16.675" font-family="Times">&#8722;
</text>
<text xml:space="preserve" x="40.224" y="434.429" fill="black" font-size="16.675" font-family="Helvetica">2
</text>
<text xml:space="preserve" x="30.9269" y="434.429" fill="black" font-size="16.675" font-family="Times">&#8722;
</text>
<text xml:space="preserve" x="40.224" y="374.42" fill="black" font-size="16.675" font-family="Helvetica">0
</text>
<text xml:space="preserve" x="40.224" y="316.102" fill="black" font-size="16.675" font-family="Helvetica">2
</text>
<text xml:space="preserve" x="40.224" y="256.939" fill="black" font-size="16.675" font-family="Helvetica">4
</text>
<text xml:space="preserve" x="40.224" y="197.775" fill="black" font-size="16.675" font-family="Helvetica">6
</text>
<text xml:space="preserve" x="40.224" y="138.612" fill="black" font-size="16.675" font-family="Helvetica">8
</text>
<text xml:space="preserve" x="30.9269" y="79.4481" fill="black" font-size="16.675" font-family="Helvetica">10
</text>
<rect x="393.413" y="47.9055" width="100.747" height="176.882" fill="white"/>
<path d="M393.413,224.787h 100.747" fill="none" stroke="black"/>
<path d="M494.16,224.787v -176.882" fill="none" stroke="black"/>
<path d="M494.16,47.9055h -100.747" fill="none" stroke="black"/>
<path d="M393.413,47.9055v 176.882" fill="none" stroke="black"/>
<text xml:space="preserve" x="429.858" y="69.3058" fill="black" font-size="17.5068" font-family="Helvetica">hist
</text>
<path d="M393.413,77.3858h 100.747" fill="none" stroke="black"/>
<text xml:space="preserve" x="398.586" y="96.3519" fill="black" font-size="9.91906" font-family="Helvetica">Entries 
</text>
<text xml:space="preserve" x="455.214" y="95.5067" fill="black" font-size="9.91906" font-family="Helvetica"> 100000
</text>
<text xml:space="preserve" x="398.586" y="125.934" fill="black" font-size="9.91906" font-family="Helvetica">Mean x 
</text>
<text xml:space="preserve" x="447.607" y="125.088" fill="black" font-size="9.91906" font-family="Helvetica"> 0.008578
</text>
<text xml:space="preserve" x="398.586" y="154.67" fill="black" font-size="9.91906" font-family="Helvetica">Mean y 
</text>
<text xml:space="preserve" x="450.142" y="154.67" fill="black" font-size="9.91906" font-family="Helvetica">0.009268
</text>
<text xml:space="preserve" x="444.226" y="154.67" fill="black" font-size="9.91906" font-family="Times">&#8722;
</text>
<text xml:space="preserve" x="436.619" y="154.67" fill="black" font-size="9.91906" font-family="Helvetica"> 
</text>
<text xml:space="preserve" x="398.586" y="185.097" fill="black" font-size="9.91906" font-family="Helvetica">Std Dev x 
</text>
<text xml:space="preserve" x="460.285" y="184.252" fill="black" font-size="9.91906" font-family="Helvetica">  2.976
</text>
<text xml:space="preserve" x="398.586" y="213.834" fill="black" font-size="9.91906" font-family="Helvetica">Std Dev y 
</text>
<text xml:space="preserve" x="462.82" y="213.834" fill="black" font-size="9.91906" font-family="Helvetica">   2.98
</text>
<path d="M272.517,309.543l 20.1494, 58.9606l -20.1494, 58.9606h -40.2988l -20.1494, -58.9606l 20.1494, -58.9606" fill="none" stroke="black"/>
<text xml:space="preserve" x="161.932" y="29.5817" fill="black" font-size="22.1051" font-family="Helvetica">Histogram with cut
</text></svg>
