<?xml version="1.0" standalone="no"?>
<svg width="567.429" height="384.969" viewBox="0 0 567.429 384.969" xmlns="http://www.w3.org/2000/svg" shape-rendering="crispEdges">
<title>
./old_svg_pro/temp_hlGraph1_pro.svg
</title>
<desc>
Creator: ROOT Version 6.33.01
CreationDate: Wed Jul  3 13:19:19 2024</desc>
<defs>
</defs>
<rect x="0.5" y="0" width="566.929" height="384.469" fill="white"/>
<rect x="57.1929" y="38.4469" width="453.543" height="307.575" fill="white"/>
<rect x="57.1929" y="38.4469" width="453.543" height="307.575" fill="none" stroke="black"/>
<path d="M57.1929,346.022h 453.543" fill="none" stroke="black"/>
<path d="M57.1929,336.795v 9.22726" fill="none" stroke="black"/>
<path d="M73.7185,341.409v 4.61363" fill="none" stroke="black"/>
<path d="M90.244,341.409v 4.61363" fill="none" stroke="black"/>
<path d="M106.77,341.409v 4.61363" fill="none" stroke="black"/>
<path d="M123.295,341.409v 4.61363" fill="none" stroke="black"/>
<path d="M139.821,336.795v 9.22726" fill="none" stroke="black"/>
<path d="M156.346,341.409v 4.61363" fill="none" stroke="black"/>
<path d="M172.872,341.409v 4.61363" fill="none" stroke="black"/>
<path d="M189.397,341.409v 4.61363" fill="none" stroke="black"/>
<path d="M205.923,341.409v 4.61363" fill="none" stroke="black"/>
<path d="M222.448,336.795v 9.22726" fill="none" stroke="black"/>
<path d="M238.974,341.409v 4.61363" fill="none" stroke="black"/>
<path d="M255.499,341.409v 4.61363" fill="none" stroke="black"/>
<path d="M272.025,341.409v 4.61363" fill="none" stroke="black"/>
<path d="M288.55,341.409v 4.61363" fill="none" stroke="black"/>
<path d="M305.076,336.795v 9.22726" fill="none" stroke="black"/>
<path d="M321.601,341.409v 4.61363" fill="none" stroke="black"/>
<path d="M338.127,341.409v 4.61363" fill="none" stroke="black"/>
<path d="M354.653,341.409v 4.61363" fill="none" stroke="black"/>
<path d="M371.178,341.409v 4.61363" fill="none" stroke="black"/>
<path d="M387.704,336.795v 9.22726" fill="none" stroke="black"/>
<path d="M404.229,341.409v 4.61363" fill="none" stroke="black"/>
<path d="M420.755,341.409v 4.61363" fill="none" stroke="black"/>
<path d="M437.28,341.409v 4.61363" fill="none" stroke="black"/>
<path d="M453.806,341.409v 4.61363" fill="none" stroke="black"/>
<path d="M470.331,336.795v 9.22726" fill="none" stroke="black"/>
<path d="M470.331,336.795v 9.22726" fill="none" stroke="black"/>
<path d="M486.857,341.409v 4.61363" fill="none" stroke="black"/>
<path d="M503.382,341.409v 4.61363" fill="none" stroke="black"/>
<text xml:space="preserve" x="54.2605" y="358.403" fill="black" font-size="12.8453" font-family="Helvetica">0
</text>
<text xml:space="preserve" x="129.199" y="358.403" fill="black" font-size="12.8453" font-family="Helvetica">100
</text>
<text xml:space="preserve" x="211.469" y="358.403" fill="black" font-size="12.8453" font-family="Helvetica">200
</text>
<text xml:space="preserve" x="294.554" y="358.403" fill="black" font-size="12.8453" font-family="Helvetica">300
</text>
<text xml:space="preserve" x="376.824" y="358.403" fill="black" font-size="12.8453" font-family="Helvetica">400
</text>
<text xml:space="preserve" x="459.908" y="358.403" fill="black" font-size="12.8453" font-family="Helvetica">500
</text>
<path d="M57.1929,346.022v -307.575" fill="none" stroke="black"/>
<path d="M70.7992,288.822h -13.6063" fill="none" stroke="black"/>
<path d="M63.9961,273.842h -6.80315" fill="none" stroke="black"/>
<path d="M63.9961,258.862h -6.80315" fill="none" stroke="black"/>
<path d="M63.9961,243.882h -6.80315" fill="none" stroke="black"/>
<path d="M70.7992,228.902h -13.6063" fill="none" stroke="black"/>
<path d="M63.9961,213.922h -6.80315" fill="none" stroke="black"/>
<path d="M63.9961,198.942h -6.80315" fill="none" stroke="black"/>
<path d="M63.9961,183.962h -6.80315" fill="none" stroke="black"/>
<path d="M70.7992,168.983h -13.6063" fill="none" stroke="black"/>
<path d="M63.9961,154.003h -6.80315" fill="none" stroke="black"/>
<path d="M63.9961,139.023h -6.80315" fill="none" stroke="black"/>
<path d="M63.9961,124.043h -6.80315" fill="none" stroke="black"/>
<path d="M70.7992,109.063h -13.6063" fill="none" stroke="black"/>
<path d="M63.9961,94.0833h -6.80315" fill="none" stroke="black"/>
<path d="M63.9961,79.1035h -6.80315" fill="none" stroke="black"/>
<path d="M63.9961,64.1236h -6.80315" fill="none" stroke="black"/>
<path d="M70.7992,49.1438h -13.6063" fill="none" stroke="black"/>
<path d="M70.7992,288.822h -13.6063" fill="none" stroke="black"/>
<path d="M63.9961,303.801h -6.80315" fill="none" stroke="black"/>
<path d="M63.9961,318.781h -6.80315" fill="none" stroke="black"/>
<path d="M63.9961,333.761h -6.80315" fill="none" stroke="black"/>
<path d="M70.7992,49.1438h -13.6063" fill="none" stroke="black"/>
<text xml:space="preserve" x="37.1549" y="294.054" fill="black" font-size="12.8453" font-family="Helvetica">0.2
</text>
<text xml:space="preserve" x="37.1549" y="233.777" fill="black" font-size="12.8453" font-family="Helvetica">0.4
</text>
<text xml:space="preserve" x="37.1549" y="173.5" fill="black" font-size="12.8453" font-family="Helvetica">0.6
</text>
<text xml:space="preserve" x="37.1549" y="114.037" fill="black" font-size="12.8453" font-family="Helvetica">0.8
</text>
<text xml:space="preserve" x="49.3732" y="53.7605" fill="black" font-size="12.8453" font-family="Helvetica">1
</text>
<text xml:space="preserve" x="257.899" y="19.5493" fill="black" font-size="18.7938" font-family="Helvetica">Graph
</text>
<g fill="black">
<circle cx="57.1929" cy="64.0782" r="0.0651643"/>
<circle cx="58.0192" cy="68.8597" r="0.0651643"/>
<circle cx="58.8455" cy="81.1644" r="0.0651643"/>
<circle cx="59.6717" cy="70.1005" r="0.0651643"/>
<circle cx="60.498" cy="69.6336" r="0.0651643"/>
<circle cx="61.3243" cy="92.2291" r="0.0651643"/>
<circle cx="62.1506" cy="93.9948" r="0.0651643"/>
<circle cx="62.9769" cy="106.156" r="0.0651643"/>
<circle cx="63.8031" cy="113.296" r="0.0651643"/>
<circle cx="64.6294" cy="122.408" r="0.0651643"/>
<circle cx="65.4557" cy="120.038" r="0.0651643"/>
<circle cx="66.282" cy="119.812" r="0.0651643"/>
<circle cx="67.1082" cy="121.715" r="0.0651643"/>
<circle cx="67.9345" cy="116.492" r="0.0651643"/>
<circle cx="68.7608" cy="117.807" r="0.0651643"/>
<circle cx="69.5871" cy="120.297" r="0.0651643"/>
<circle cx="70.4133" cy="130.834" r="0.0651643"/>
<circle cx="71.2396" cy="122.127" r="0.0651643"/>
<circle cx="72.0659" cy="126.022" r="0.0651643"/>
<circle cx="72.8922" cy="138.298" r="0.0651643"/>
<circle cx="73.7185" cy="138.792" r="0.0651643"/>
<circle cx="74.5447" cy="146.746" r="0.0651643"/>
<circle cx="75.371" cy="155.972" r="0.0651643"/>
<circle cx="76.1973" cy="161.083" r="0.0651643"/>
<circle cx="77.0236" cy="170.843" r="0.0651643"/>
<circle cx="77.8498" cy="178.324" r="0.0651643"/>
<circle cx="78.6761" cy="181.962" r="0.0651643"/>
<circle cx="79.5024" cy="187.51" r="0.0651643"/>
<circle cx="80.3287" cy="191.617" r="0.0651643"/>
<circle cx="81.1549" cy="186.398" r="0.0651643"/>
<circle cx="81.9812" cy="197.723" r="0.0651643"/>
<circle cx="82.8075" cy="191.426" r="0.0651643"/>
<circle cx="83.6338" cy="199.852" r="0.0651643"/>
<circle cx="84.4601" cy="206.218" r="0.0651643"/>
<circle cx="85.2863" cy="213.794" r="0.0651643"/>
<circle cx="86.1126" cy="216.529" r="0.0651643"/>
<circle cx="86.9389" cy="224.902" r="0.0651643"/>
<circle cx="87.7652" cy="226.25" r="0.0651643"/>
<circle cx="88.5914" cy="226.161" r="0.0651643"/>
<circle cx="89.4177" cy="229.372" r="0.0651643"/>
<circle cx="90.244" cy="230.539" r="0.0651643"/>
<circle cx="91.0703" cy="233.435" r="0.0651643"/>
<circle cx="91.8965" cy="238.263" r="0.0651643"/>
<circle cx="92.7228" cy="243.819" r="0.0651643"/>
<circle cx="93.5491" cy="243.947" r="0.0651643"/>
<circle cx="94.3754" cy="244.873" r="0.0651643"/>
<circle cx="95.2016" cy="246.785" r="0.0651643"/>
<circle cx="96.0279" cy="245.705" r="0.0651643"/>
<circle cx="96.8542" cy="250.664" r="0.0651643"/>
<circle cx="97.6805" cy="257.581" r="0.0651643"/>
<circle cx="98.5068" cy="257.155" r="0.0651643"/>
<circle cx="99.333" cy="259.827" r="0.0651643"/>
<circle cx="100.159" cy="260.502" r="0.0651643"/>
<circle cx="100.986" cy="265.068" r="0.0651643"/>
<circle cx="101.812" cy="262.431" r="0.0651643"/>
<circle cx="102.638" cy="265.234" r="0.0651643"/>
<circle cx="103.464" cy="265.182" r="0.0651643"/>
<circle cx="104.291" cy="266.787" r="0.0651643"/>
<circle cx="105.117" cy="265.826" r="0.0651643"/>
<circle cx="105.943" cy="268.871" r="0.0651643"/>
<circle cx="106.77" cy="266.25" r="0.0651643"/>
<circle cx="107.596" cy="268.462" r="0.0651643"/>
<circle cx="108.422" cy="271.076" r="0.0651643"/>
<circle cx="109.248" cy="273.597" r="0.0651643"/>
<circle cx="110.075" cy="274.702" r="0.0651643"/>
<circle cx="110.901" cy="275.024" r="0.0651643"/>
<circle cx="111.727" cy="275.449" r="0.0651643"/>
<circle cx="112.553" cy="279.101" r="0.0651643"/>
<circle cx="113.38" cy="282.275" r="0.0651643"/>
<circle cx="114.206" cy="279.487" r="0.0651643"/>
<circle cx="115.032" cy="281.255" r="0.0651643"/>
<circle cx="115.859" cy="282.594" r="0.0651643"/>
<circle cx="116.685" cy="280.897" r="0.0651643"/>
<circle cx="117.511" cy="285.907" r="0.0651643"/>
<circle cx="118.337" cy="288.703" r="0.0651643"/>
<circle cx="119.164" cy="289.162" r="0.0651643"/>
<circle cx="119.99" cy="290.31" r="0.0651643"/>
<circle cx="120.816" cy="289.848" r="0.0651643"/>
<circle cx="121.643" cy="290.722" r="0.0651643"/>
<circle cx="122.469" cy="291.906" r="0.0651643"/>
<circle cx="123.295" cy="295.514" r="0.0651643"/>
<circle cx="124.121" cy="299.544" r="0.0651643"/>
<circle cx="124.948" cy="298.809" r="0.0651643"/>
<circle cx="125.774" cy="299.27" r="0.0651643"/>
<circle cx="126.6" cy="300.574" r="0.0651643"/>
<circle cx="127.426" cy="300.71" r="0.0651643"/>
<circle cx="128.253" cy="300.347" r="0.0651643"/>
<circle cx="129.079" cy="301.341" r="0.0651643"/>
<circle cx="129.905" cy="303.469" r="0.0651643"/>
<circle cx="130.732" cy="304.594" r="0.0651643"/>
<circle cx="131.558" cy="304.787" r="0.0651643"/>
<circle cx="132.384" cy="305.165" r="0.0651643"/>
<circle cx="133.21" cy="306.264" r="0.0651643"/>
<circle cx="134.037" cy="305.487" r="0.0651643"/>
<circle cx="134.863" cy="304.713" r="0.0651643"/>
<circle cx="135.689" cy="305.215" r="0.0651643"/>
<circle cx="136.515" cy="304.081" r="0.0651643"/>
<circle cx="137.342" cy="305.27" r="0.0651643"/>
<circle cx="138.168" cy="303.126" r="0.0651643"/>
<circle cx="138.994" cy="301.682" r="0.0651643"/>
<circle cx="139.821" cy="303.858" r="0.0651643"/>
<circle cx="140.647" cy="305.165" r="0.0651643"/>
<circle cx="141.473" cy="304.466" r="0.0651643"/>
<circle cx="142.299" cy="306.132" r="0.0651643"/>
<circle cx="143.126" cy="306.587" r="0.0651643"/>
<circle cx="143.952" cy="306.412" r="0.0651643"/>
<circle cx="144.778" cy="306.144" r="0.0651643"/>
<circle cx="145.605" cy="306.103" r="0.0651643"/>
<circle cx="146.431" cy="307.528" r="0.0651643"/>
<circle cx="147.257" cy="307.37" r="0.0651643"/>
<circle cx="148.083" cy="308.093" r="0.0651643"/>
<circle cx="148.91" cy="308.141" r="0.0651643"/>
<circle cx="149.736" cy="309.394" r="0.0651643"/>
<circle cx="150.562" cy="310.161" r="0.0651643"/>
<circle cx="151.388" cy="309.629" r="0.0651643"/>
<circle cx="152.215" cy="310.81" r="0.0651643"/>
<circle cx="153.041" cy="312.649" r="0.0651643"/>
<circle cx="153.867" cy="311.871" r="0.0651643"/>
<circle cx="154.694" cy="312.317" r="0.0651643"/>
<circle cx="155.52" cy="312.767" r="0.0651643"/>
<circle cx="156.346" cy="313.089" r="0.0651643"/>
<circle cx="157.172" cy="313.088" r="0.0651643"/>
<circle cx="157.999" cy="312.504" r="0.0651643"/>
<circle cx="158.825" cy="313.218" r="0.0651643"/>
<circle cx="159.651" cy="313.306" r="0.0651643"/>
<circle cx="160.478" cy="314.246" r="0.0651643"/>
<circle cx="161.304" cy="313.957" r="0.0651643"/>
<circle cx="162.13" cy="314.928" r="0.0651643"/>
<circle cx="162.956" cy="314.385" r="0.0651643"/>
<circle cx="163.783" cy="313.745" r="0.0651643"/>
<circle cx="164.609" cy="313.461" r="0.0651643"/>
<circle cx="165.435" cy="314.204" r="0.0651643"/>
<circle cx="166.261" cy="313.736" r="0.0651643"/>
<circle cx="167.088" cy="313.933" r="0.0651643"/>
<circle cx="167.914" cy="314.142" r="0.0651643"/>
<circle cx="168.74" cy="314.408" r="0.0651643"/>
<circle cx="169.567" cy="314.582" r="0.0651643"/>
<circle cx="170.393" cy="316.447" r="0.0651643"/>
<circle cx="171.219" cy="315.802" r="0.0651643"/>
<circle cx="172.045" cy="314.943" r="0.0651643"/>
<circle cx="172.872" cy="315.099" r="0.0651643"/>
<circle cx="173.698" cy="315.788" r="0.0651643"/>
<circle cx="174.524" cy="315.385" r="0.0651643"/>
<circle cx="175.35" cy="315.093" r="0.0651643"/>
<circle cx="176.177" cy="314.168" r="0.0651643"/>
<circle cx="177.003" cy="314.924" r="0.0651643"/>
<circle cx="177.829" cy="314.245" r="0.0651643"/>
<circle cx="178.656" cy="314.079" r="0.0651643"/>
<circle cx="179.482" cy="314.043" r="0.0651643"/>
<circle cx="180.308" cy="315.341" r="0.0651643"/>
<circle cx="181.134" cy="316.155" r="0.0651643"/>
<circle cx="181.961" cy="316.246" r="0.0651643"/>
<circle cx="182.787" cy="317.692" r="0.0651643"/>
<circle cx="183.613" cy="317.839" r="0.0651643"/>
<circle cx="184.44" cy="316.876" r="0.0651643"/>
<circle cx="185.266" cy="316.653" r="0.0651643"/>
<circle cx="186.092" cy="316.993" r="0.0651643"/>
<circle cx="186.918" cy="316.413" r="0.0651643"/>
<circle cx="187.745" cy="315.773" r="0.0651643"/>
<circle cx="188.571" cy="316.646" r="0.0651643"/>
<circle cx="189.397" cy="317.808" r="0.0651643"/>
<circle cx="190.223" cy="318.103" r="0.0651643"/>
<circle cx="191.05" cy="318.154" r="0.0651643"/>
<circle cx="191.876" cy="317.343" r="0.0651643"/>
<circle cx="192.702" cy="317.253" r="0.0651643"/>
<circle cx="193.529" cy="316.708" r="0.0651643"/>
<circle cx="194.355" cy="316.2" r="0.0651643"/>
<circle cx="195.181" cy="315.859" r="0.0651643"/>
<circle cx="196.007" cy="315.091" r="0.0651643"/>
<circle cx="196.834" cy="314.271" r="0.0651643"/>
<circle cx="197.66" cy="314.898" r="0.0651643"/>
<circle cx="198.486" cy="315.277" r="0.0651643"/>
<circle cx="199.313" cy="314.555" r="0.0651643"/>
<circle cx="200.139" cy="314.422" r="0.0651643"/>
<circle cx="200.965" cy="313.616" r="0.0651643"/>
<circle cx="201.791" cy="314.334" r="0.0651643"/>
<circle cx="202.618" cy="313.229" r="0.0651643"/>
<circle cx="203.444" cy="314.9" r="0.0651643"/>
<circle cx="204.27" cy="314.097" r="0.0651643"/>
<circle cx="205.096" cy="314.727" r="0.0651643"/>
<circle cx="205.923" cy="314.535" r="0.0651643"/>
<circle cx="206.749" cy="316.702" r="0.0651643"/>
<circle cx="207.575" cy="316.394" r="0.0651643"/>
<circle cx="208.402" cy="315.577" r="0.0651643"/>
<circle cx="209.228" cy="315.212" r="0.0651643"/>
<circle cx="210.054" cy="316.705" r="0.0651643"/>
<circle cx="210.88" cy="316.999" r="0.0651643"/>
<circle cx="211.707" cy="317.186" r="0.0651643"/>
<circle cx="212.533" cy="317.805" r="0.0651643"/>
<circle cx="213.359" cy="318.426" r="0.0651643"/>
<circle cx="214.186" cy="318.169" r="0.0651643"/>
<circle cx="215.012" cy="317.573" r="0.0651643"/>
<circle cx="215.838" cy="318.916" r="0.0651643"/>
<circle cx="216.664" cy="319.667" r="0.0651643"/>
<circle cx="217.491" cy="320.391" r="0.0651643"/>
<circle cx="218.317" cy="320.226" r="0.0651643"/>
<circle cx="219.143" cy="318.838" r="0.0651643"/>
<circle cx="219.969" cy="318.555" r="0.0651643"/>
<circle cx="220.796" cy="318.421" r="0.0651643"/>
<circle cx="221.622" cy="318.214" r="0.0651643"/>
<circle cx="222.448" cy="319.886" r="0.0651643"/>
<circle cx="223.275" cy="318.249" r="0.0651643"/>
<circle cx="224.101" cy="318.494" r="0.0651643"/>
<circle cx="224.927" cy="317.575" r="0.0651643"/>
<circle cx="225.753" cy="317.331" r="0.0651643"/>
<circle cx="226.58" cy="317.421" r="0.0651643"/>
<circle cx="227.406" cy="317.367" r="0.0651643"/>
<circle cx="228.232" cy="315.782" r="0.0651643"/>
<circle cx="229.058" cy="316.049" r="0.0651643"/>
<circle cx="229.885" cy="314.735" r="0.0651643"/>
<circle cx="230.711" cy="315.896" r="0.0651643"/>
<circle cx="231.537" cy="315.835" r="0.0651643"/>
<circle cx="232.364" cy="315.97" r="0.0651643"/>
<circle cx="233.19" cy="315.877" r="0.0651643"/>
<circle cx="234.016" cy="316.037" r="0.0651643"/>
<circle cx="234.842" cy="315.082" r="0.0651643"/>
<circle cx="235.669" cy="315.459" r="0.0651643"/>
<circle cx="236.495" cy="316.886" r="0.0651643"/>
<circle cx="237.321" cy="317.103" r="0.0651643"/>
<circle cx="238.148" cy="317.531" r="0.0651643"/>
<circle cx="238.974" cy="316.71" r="0.0651643"/>
<circle cx="239.8" cy="316.863" r="0.0651643"/>
<circle cx="240.626" cy="315.716" r="0.0651643"/>
<circle cx="241.453" cy="315.221" r="0.0651643"/>
<circle cx="242.279" cy="315.346" r="0.0651643"/>
<circle cx="243.105" cy="314.461" r="0.0651643"/>
<circle cx="243.931" cy="313.488" r="0.0651643"/>
<circle cx="244.758" cy="314.222" r="0.0651643"/>
<circle cx="245.584" cy="313.712" r="0.0651643"/>
<circle cx="246.41" cy="314.284" r="0.0651643"/>
<circle cx="247.237" cy="313.735" r="0.0651643"/>
<circle cx="248.063" cy="312.578" r="0.0651643"/>
<circle cx="248.889" cy="313.005" r="0.0651643"/>
<circle cx="249.715" cy="312.756" r="0.0651643"/>
<circle cx="250.542" cy="313.27" r="0.0651643"/>
<circle cx="251.368" cy="314.161" r="0.0651643"/>
<circle cx="252.194" cy="313.673" r="0.0651643"/>
<circle cx="253.021" cy="315.084" r="0.0651643"/>
<circle cx="253.847" cy="316.184" r="0.0651643"/>
<circle cx="254.673" cy="315.415" r="0.0651643"/>
<circle cx="255.499" cy="314.676" r="0.0651643"/>
<circle cx="256.326" cy="315.484" r="0.0651643"/>
<circle cx="257.152" cy="315.677" r="0.0651643"/>
<circle cx="257.978" cy="316.162" r="0.0651643"/>
<circle cx="258.804" cy="316.17" r="0.0651643"/>
<circle cx="259.631" cy="316.839" r="0.0651643"/>
<circle cx="260.457" cy="317.018" r="0.0651643"/>
<circle cx="261.283" cy="316.513" r="0.0651643"/>
<circle cx="262.11" cy="316.337" r="0.0651643"/>
<circle cx="262.936" cy="316.599" r="0.0651643"/>
<circle cx="263.762" cy="316.467" r="0.0651643"/>
<circle cx="264.588" cy="316.639" r="0.0651643"/>
<circle cx="265.415" cy="315.672" r="0.0651643"/>
<circle cx="266.241" cy="315.11" r="0.0651643"/>
<circle cx="267.067" cy="314.028" r="0.0651643"/>
<circle cx="267.893" cy="314.07" r="0.0651643"/>
<circle cx="268.72" cy="313.971" r="0.0651643"/>
<circle cx="269.546" cy="314.673" r="0.0651643"/>
<circle cx="270.372" cy="314.181" r="0.0651643"/>
<circle cx="271.199" cy="313.732" r="0.0651643"/>
<circle cx="272.025" cy="315.252" r="0.0651643"/>
<circle cx="272.851" cy="316.48" r="0.0651643"/>
<circle cx="273.677" cy="317.001" r="0.0651643"/>
<circle cx="274.504" cy="316.553" r="0.0651643"/>
<circle cx="275.33" cy="316.037" r="0.0651643"/>
<circle cx="276.156" cy="315.539" r="0.0651643"/>
<circle cx="276.983" cy="316.493" r="0.0651643"/>
<circle cx="277.809" cy="316.376" r="0.0651643"/>
<circle cx="278.635" cy="316.715" r="0.0651643"/>
<circle cx="279.461" cy="315.493" r="0.0651643"/>
<circle cx="280.288" cy="314.647" r="0.0651643"/>
<circle cx="281.114" cy="315.245" r="0.0651643"/>
<circle cx="281.94" cy="315.722" r="0.0651643"/>
<circle cx="282.766" cy="315.211" r="0.0651643"/>
<circle cx="283.593" cy="316.601" r="0.0651643"/>
<circle cx="284.419" cy="316.905" r="0.0651643"/>
<circle cx="285.245" cy="317.731" r="0.0651643"/>
<circle cx="286.072" cy="317.022" r="0.0651643"/>
<circle cx="286.898" cy="316.805" r="0.0651643"/>
<circle cx="287.724" cy="317.136" r="0.0651643"/>
<circle cx="288.55" cy="316.174" r="0.0651643"/>
<circle cx="289.377" cy="315.262" r="0.0651643"/>
<circle cx="290.203" cy="314.403" r="0.0651643"/>
<circle cx="291.029" cy="313.984" r="0.0651643"/>
<circle cx="291.855" cy="313.667" r="0.0651643"/>
<circle cx="292.682" cy="315.744" r="0.0651643"/>
<circle cx="293.508" cy="315.153" r="0.0651643"/>
<circle cx="294.334" cy="315.017" r="0.0651643"/>
<circle cx="295.161" cy="315.982" r="0.0651643"/>
<circle cx="295.987" cy="316.181" r="0.0651643"/>
<circle cx="296.813" cy="316.138" r="0.0651643"/>
<circle cx="297.639" cy="316.811" r="0.0651643"/>
<circle cx="298.466" cy="316.721" r="0.0651643"/>
<circle cx="299.292" cy="317.014" r="0.0651643"/>
<circle cx="300.118" cy="316.223" r="0.0651643"/>
<circle cx="300.945" cy="314.6" r="0.0651643"/>
<circle cx="301.771" cy="313.985" r="0.0651643"/>
<circle cx="302.597" cy="312.216" r="0.0651643"/>
<circle cx="303.423" cy="313.101" r="0.0651643"/>
<circle cx="304.25" cy="313.18" r="0.0651643"/>
<circle cx="305.076" cy="312.035" r="0.0651643"/>
<circle cx="305.902" cy="311.427" r="0.0651643"/>
<circle cx="306.728" cy="311.328" r="0.0651643"/>
<circle cx="307.555" cy="312.672" r="0.0651643"/>
<circle cx="308.381" cy="312.886" r="0.0651643"/>
<circle cx="309.207" cy="312.312" r="0.0651643"/>
<circle cx="310.034" cy="312.509" r="0.0651643"/>
<circle cx="310.86" cy="312.964" r="0.0651643"/>
<circle cx="311.686" cy="313.316" r="0.0651643"/>
<circle cx="312.512" cy="313.673" r="0.0651643"/>
<circle cx="313.339" cy="313.392" r="0.0651643"/>
<circle cx="314.165" cy="314.042" r="0.0651643"/>
<circle cx="314.991" cy="313.185" r="0.0651643"/>
<circle cx="315.818" cy="314.215" r="0.0651643"/>
<circle cx="316.644" cy="314.71" r="0.0651643"/>
<circle cx="317.47" cy="314.722" r="0.0651643"/>
<circle cx="318.296" cy="313.445" r="0.0651643"/>
<circle cx="319.123" cy="313.835" r="0.0651643"/>
<circle cx="319.949" cy="313.512" r="0.0651643"/>
<circle cx="320.775" cy="314.863" r="0.0651643"/>
<circle cx="321.601" cy="315.449" r="0.0651643"/>
<circle cx="322.428" cy="315.323" r="0.0651643"/>
<circle cx="323.254" cy="315.936" r="0.0651643"/>
<circle cx="324.08" cy="315.08" r="0.0651643"/>
<circle cx="324.907" cy="314.858" r="0.0651643"/>
<circle cx="325.733" cy="313.147" r="0.0651643"/>
<circle cx="326.559" cy="312.964" r="0.0651643"/>
<circle cx="327.385" cy="313.904" r="0.0651643"/>
<circle cx="328.212" cy="313.542" r="0.0651643"/>
<circle cx="329.038" cy="314.489" r="0.0651643"/>
<circle cx="329.864" cy="312.371" r="0.0651643"/>
<circle cx="330.691" cy="313.105" r="0.0651643"/>
<circle cx="331.517" cy="312.635" r="0.0651643"/>
<circle cx="332.343" cy="311.682" r="0.0651643"/>
<circle cx="333.169" cy="311.42" r="0.0651643"/>
<circle cx="333.996" cy="312.077" r="0.0651643"/>
<circle cx="334.822" cy="312.122" r="0.0651643"/>
<circle cx="335.648" cy="312.054" r="0.0651643"/>
<circle cx="336.474" cy="311.3" r="0.0651643"/>
<circle cx="337.301" cy="311.422" r="0.0651643"/>
<circle cx="338.127" cy="311.894" r="0.0651643"/>
<circle cx="338.953" cy="312.581" r="0.0651643"/>
<circle cx="339.78" cy="312.542" r="0.0651643"/>
<circle cx="340.606" cy="313.276" r="0.0651643"/>
<circle cx="341.432" cy="314.398" r="0.0651643"/>
<circle cx="342.258" cy="316.231" r="0.0651643"/>
<circle cx="343.085" cy="316.433" r="0.0651643"/>
<circle cx="343.911" cy="316.421" r="0.0651643"/>
<circle cx="344.737" cy="316.341" r="0.0651643"/>
<circle cx="345.564" cy="315.389" r="0.0651643"/>
<circle cx="346.39" cy="314.683" r="0.0651643"/>
<circle cx="347.216" cy="314.615" r="0.0651643"/>
<circle cx="348.042" cy="314.241" r="0.0651643"/>
<circle cx="348.869" cy="313.562" r="0.0651643"/>
<circle cx="349.695" cy="313.117" r="0.0651643"/>
<circle cx="350.521" cy="312.562" r="0.0651643"/>
<circle cx="351.347" cy="313.144" r="0.0651643"/>
<circle cx="352.174" cy="312.138" r="0.0651643"/>
<circle cx="353" cy="311.119" r="0.0651643"/>
<circle cx="353.826" cy="310.877" r="0.0651643"/>
<circle cx="354.653" cy="311.055" r="0.0651643"/>
<circle cx="355.479" cy="310.292" r="0.0651643"/>
<circle cx="356.305" cy="310.664" r="0.0651643"/>
<circle cx="357.131" cy="311.907" r="0.0651643"/>
<circle cx="357.958" cy="311.886" r="0.0651643"/>
<circle cx="358.784" cy="312.975" r="0.0651643"/>
<circle cx="359.61" cy="312.473" r="0.0651643"/>
<circle cx="360.436" cy="313.598" r="0.0651643"/>
<circle cx="361.263" cy="314.313" r="0.0651643"/>
<circle cx="362.089" cy="314.263" r="0.0651643"/>
<circle cx="362.915" cy="316.764" r="0.0651643"/>
<circle cx="363.742" cy="315.9" r="0.0651643"/>
<circle cx="364.568" cy="315.072" r="0.0651643"/>
<circle cx="365.394" cy="314.101" r="0.0651643"/>
<circle cx="366.22" cy="313.193" r="0.0651643"/>
<circle cx="367.047" cy="314.78" r="0.0651643"/>
<circle cx="367.873" cy="314.311" r="0.0651643"/>
<circle cx="368.699" cy="313.817" r="0.0651643"/>
<circle cx="369.526" cy="313.153" r="0.0651643"/>
<circle cx="370.352" cy="313.652" r="0.0651643"/>
<circle cx="371.178" cy="313.488" r="0.0651643"/>
<circle cx="372.004" cy="312.152" r="0.0651643"/>
<circle cx="372.831" cy="311.915" r="0.0651643"/>
<circle cx="373.657" cy="311.609" r="0.0651643"/>
<circle cx="374.483" cy="312.053" r="0.0651643"/>
<circle cx="375.309" cy="310.328" r="0.0651643"/>
<circle cx="376.136" cy="311.732" r="0.0651643"/>
<circle cx="376.962" cy="310.669" r="0.0651643"/>
<circle cx="377.788" cy="309.345" r="0.0651643"/>
<circle cx="378.615" cy="309.726" r="0.0651643"/>
<circle cx="379.441" cy="310.528" r="0.0651643"/>
<circle cx="380.267" cy="309.572" r="0.0651643"/>
<circle cx="381.093" cy="311.095" r="0.0651643"/>
<circle cx="381.92" cy="311.503" r="0.0651643"/>
<circle cx="382.746" cy="312.674" r="0.0651643"/>
<circle cx="383.572" cy="313.064" r="0.0651643"/>
<circle cx="384.398" cy="312.58" r="0.0651643"/>
<circle cx="385.225" cy="311.611" r="0.0651643"/>
<circle cx="386.051" cy="311.93" r="0.0651643"/>
<circle cx="386.877" cy="311.422" r="0.0651643"/>
<circle cx="387.704" cy="311.877" r="0.0651643"/>
<circle cx="388.53" cy="311.448" r="0.0651643"/>
<circle cx="389.356" cy="312.174" r="0.0651643"/>
<circle cx="390.182" cy="310.763" r="0.0651643"/>
<circle cx="391.009" cy="311.891" r="0.0651643"/>
<circle cx="391.835" cy="311.717" r="0.0651643"/>
<circle cx="392.661" cy="312.859" r="0.0651643"/>
<circle cx="393.488" cy="313.721" r="0.0651643"/>
<circle cx="394.314" cy="313.763" r="0.0651643"/>
<circle cx="395.14" cy="313.924" r="0.0651643"/>
<circle cx="395.966" cy="314.302" r="0.0651643"/>
<circle cx="396.793" cy="314.896" r="0.0651643"/>
<circle cx="397.619" cy="316.033" r="0.0651643"/>
<circle cx="398.445" cy="316.074" r="0.0651643"/>
<circle cx="399.271" cy="316.676" r="0.0651643"/>
<circle cx="400.098" cy="317.183" r="0.0651643"/>
<circle cx="400.924" cy="318.784" r="0.0651643"/>
<circle cx="401.75" cy="318.353" r="0.0651643"/>
<circle cx="402.577" cy="319.448" r="0.0651643"/>
<circle cx="403.403" cy="319.564" r="0.0651643"/>
<circle cx="404.229" cy="319.017" r="0.0651643"/>
<circle cx="405.055" cy="318.437" r="0.0651643"/>
<circle cx="405.882" cy="316.642" r="0.0651643"/>
<circle cx="406.708" cy="315.906" r="0.0651643"/>
<circle cx="407.534" cy="317.067" r="0.0651643"/>
<circle cx="408.361" cy="316.852" r="0.0651643"/>
<circle cx="409.187" cy="316.89" r="0.0651643"/>
<circle cx="410.013" cy="316.878" r="0.0651643"/>
<circle cx="410.839" cy="317.356" r="0.0651643"/>
<circle cx="411.666" cy="317.013" r="0.0651643"/>
<circle cx="412.492" cy="317.081" r="0.0651643"/>
<circle cx="413.318" cy="315.713" r="0.0651643"/>
<circle cx="414.144" cy="315.82" r="0.0651643"/>
<circle cx="414.971" cy="316.1" r="0.0651643"/>
<circle cx="415.797" cy="316.363" r="0.0651643"/>
<circle cx="416.623" cy="314.553" r="0.0651643"/>
<circle cx="417.45" cy="314.732" r="0.0651643"/>
<circle cx="418.276" cy="313.804" r="0.0651643"/>
<circle cx="419.102" cy="312.184" r="0.0651643"/>
<circle cx="419.928" cy="311.594" r="0.0651643"/>
<circle cx="420.755" cy="309.662" r="0.0651643"/>
<circle cx="421.581" cy="309.623" r="0.0651643"/>
<circle cx="422.407" cy="309.456" r="0.0651643"/>
<circle cx="423.234" cy="307.855" r="0.0651643"/>
<circle cx="424.06" cy="307.6" r="0.0651643"/>
<circle cx="424.886" cy="308.531" r="0.0651643"/>
<circle cx="425.712" cy="309.389" r="0.0651643"/>
<circle cx="426.539" cy="308.167" r="0.0651643"/>
<circle cx="427.365" cy="307.747" r="0.0651643"/>
<circle cx="428.191" cy="308.374" r="0.0651643"/>
<circle cx="429.017" cy="307.23" r="0.0651643"/>
<circle cx="429.844" cy="307.683" r="0.0651643"/>
<circle cx="430.67" cy="306.715" r="0.0651643"/>
<circle cx="431.496" cy="306.459" r="0.0651643"/>
<circle cx="432.323" cy="306.476" r="0.0651643"/>
<circle cx="433.149" cy="308.308" r="0.0651643"/>
<circle cx="433.975" cy="307.303" r="0.0651643"/>
<circle cx="434.801" cy="307.594" r="0.0651643"/>
<circle cx="435.628" cy="307.173" r="0.0651643"/>
<circle cx="436.454" cy="306.131" r="0.0651643"/>
<circle cx="437.28" cy="306.711" r="0.0651643"/>
<circle cx="438.107" cy="306.715" r="0.0651643"/>
<circle cx="438.933" cy="307.414" r="0.0651643"/>
<circle cx="439.759" cy="309.159" r="0.0651643"/>
<circle cx="440.585" cy="309.522" r="0.0651643"/>
<circle cx="441.412" cy="310.633" r="0.0651643"/>
<circle cx="442.238" cy="311.06" r="0.0651643"/>
<circle cx="443.064" cy="310.364" r="0.0651643"/>
<circle cx="443.89" cy="310.042" r="0.0651643"/>
<circle cx="444.717" cy="309.911" r="0.0651643"/>
<circle cx="445.543" cy="309.261" r="0.0651643"/>
<circle cx="446.369" cy="309.785" r="0.0651643"/>
<circle cx="447.196" cy="310.753" r="0.0651643"/>
<circle cx="448.022" cy="312.697" r="0.0651643"/>
<circle cx="448.848" cy="312.705" r="0.0651643"/>
<circle cx="449.674" cy="311.107" r="0.0651643"/>
<circle cx="450.501" cy="313.574" r="0.0651643"/>
<circle cx="451.327" cy="314.081" r="0.0651643"/>
<circle cx="452.153" cy="313.51" r="0.0651643"/>
<circle cx="452.979" cy="313.091" r="0.0651643"/>
<circle cx="453.806" cy="313.122" r="0.0651643"/>
<circle cx="454.632" cy="313.525" r="0.0651643"/>
<circle cx="455.458" cy="313.719" r="0.0651643"/>
<circle cx="456.285" cy="315.13" r="0.0651643"/>
<circle cx="457.111" cy="314.628" r="0.0651643"/>
<circle cx="457.937" cy="313.545" r="0.0651643"/>
<circle cx="458.763" cy="313.178" r="0.0651643"/>
<circle cx="459.59" cy="311.684" r="0.0651643"/>
<circle cx="460.416" cy="312.527" r="0.0651643"/>
<circle cx="461.242" cy="313.863" r="0.0651643"/>
<circle cx="462.069" cy="314.688" r="0.0651643"/>
<circle cx="462.895" cy="315.671" r="0.0651643"/>
<circle cx="463.721" cy="315.783" r="0.0651643"/>
<circle cx="464.547" cy="315.989" r="0.0651643"/>
<circle cx="465.374" cy="315.648" r="0.0651643"/>
<circle cx="466.2" cy="316.006" r="0.0651643"/>
<circle cx="467.026" cy="315.843" r="0.0651643"/>
<circle cx="467.852" cy="316.853" r="0.0651643"/>
<circle cx="468.679" cy="317.285" r="0.0651643"/>
<circle cx="469.505" cy="316.987" r="0.0651643"/>
</g>
<rect x="170.579" y="0" width="396.85" height="230.682" fill="#ccccff"/>
<text xml:space="preserve" x="369.004" y="120.882" text-anchor="middle" fill="black" font-size="11.0817" font-family="Helvetica" font-weight="bold">please move the mouse over the graPad
</text>
<text xml:space="preserve" x="257.899" y="19.5493" fill="black" font-size="18.7938" font-family="Helvetica">Graph
</text></svg>
