<?xml version="1.0" standalone="no"?>
<svg width="567.429" height="639.722" viewBox="0 0 567.429 639.722" xmlns="http://www.w3.org/2000/svg" shape-rendering="crispEdges">
<title>
./old_svg_pro/latex_pro.svg
</title>
<desc>
Creator: ROOT Version 6.33/01
CreationDate: Wed Jun 26 10:44:45 2024</desc>
<defs>
</defs>
<rect x="0.5" y="0" width="566.929" height="639.222" fill="white"/>
<text xml:space="preserve" x="361.965" y="72.293" fill="black" font-size="21.3047" font-family="Helvetica" font-weight="bold">)dt
</text>
<text xml:space="preserve" x="354.355" y="63.732" fill="black" font-size="14.3698" font-family="Helvetica" font-weight="bold">2
</text>
<text xml:space="preserve" x="347.697" y="72.293" fill="black" font-size="21.3047" font-family="Helvetica" font-weight="bold">t
</text>
<text xml:space="preserve" x="336.282" y="84.6589" fill="black" font-size="21.3047" font-family="Helvetica" font-weight="bold">2
</text>
<text xml:space="preserve" x="336.282" y="62.7807" fill="black" font-size="21.3047" font-family="Times">&#0960;
</text>
<path d="M336.282,66.5856h 11.4147" fill="none" stroke="black" stroke-width="2"/>
<text xml:space="preserve" x="293.477" y="72.293" fill="black" font-size="21.3047" font-family="Helvetica" font-weight="bold">cos(
</text>
<text xml:space="preserve" x="283.013" y="98.9272" fill="black" font-size="14.3698" font-family="Helvetica" font-weight="bold">0
</text>
<text xml:space="preserve" x="282.062" y="37.0977" fill="black" font-size="14.3698" font-family="Helvetica" font-weight="bold">x
</text>
<text xml:space="preserve" x="279.208" y="82.7564" fill="black" font-size="48.3509" font-family="Times">&#8747;
</text>
<text xml:space="preserve" x="224.989" y="72.293" fill="black" font-size="21.3047" font-family="Helvetica" font-weight="bold">   
</text>
<text xml:space="preserve" x="210.72" y="85.6101" fill="black" font-size="21.3047" font-family="Helvetica" font-weight="bold">D
</text>
<text xml:space="preserve" x="198.354" y="85.6101" fill="black" font-size="21.3047" font-family="Times">&#0955;
</text>
<text xml:space="preserve" x="205.964" y="63.732" fill="black" font-size="21.3047" font-family="Helvetica" font-weight="bold">2
</text>
<path d="M198.354,66.5856h 26.6343" fill="none" stroke="black" stroke-width="2"/>
<path d="M185.989,48.5124l 4.75612, 38.0489" fill="none" stroke="black" stroke-width="2"/>
<path d="M190.745,86.5613l 5.70734, -43.7563" fill="none" stroke="black"/>
<path d="M196.452,42.805h 28.5367" fill="none" stroke="black"/>
<text xml:space="preserve" x="57.5734" y="72.293" fill="black" font-size="21.3047" font-family="Helvetica" font-weight="bold">1)   C(x) = d 
</text>
<text xml:space="preserve" x="361.965" y="204.513" fill="black" font-size="21.3047" font-family="Helvetica" font-weight="bold">)dt
</text>
<text xml:space="preserve" x="354.355" y="195.952" fill="black" font-size="14.3698" font-family="Helvetica" font-weight="bold">2
</text>
<text xml:space="preserve" x="347.697" y="204.513" fill="black" font-size="21.3047" font-family="Helvetica" font-weight="bold">t
</text>
<text xml:space="preserve" x="336.282" y="216.879" fill="black" font-size="21.3047" font-family="Helvetica" font-weight="bold">2
</text>
<text xml:space="preserve" x="336.282" y="195.001" fill="black" font-size="21.3047" font-family="Times">&#0960;
</text>
<path d="M336.282,198.806h 11.4147" fill="none" stroke="black" stroke-width="2"/>
<text xml:space="preserve" x="293.477" y="204.513" fill="black" font-size="21.3047" font-family="Helvetica" font-weight="bold">cos(
</text>
<text xml:space="preserve" x="282.062" y="169.318" fill="black" font-size="14.3698" font-family="Helvetica" font-weight="bold">x
</text>
<text xml:space="preserve" x="279.208" y="214.976" fill="black" font-size="48.3509" font-family="Times">&#8747;
</text>
<text xml:space="preserve" x="224.989" y="204.513" fill="black" font-size="21.3047" font-family="Helvetica" font-weight="bold">   
</text>
<text xml:space="preserve" x="210.72" y="217.83" fill="black" font-size="21.3047" font-family="Helvetica" font-weight="bold">D
</text>
<text xml:space="preserve" x="198.354" y="217.83" fill="black" font-size="21.3047" font-family="Times">&#0955;
</text>
<text xml:space="preserve" x="205.964" y="195.952" fill="black" font-size="21.3047" font-family="Helvetica" font-weight="bold">2
</text>
<path d="M198.354,198.806h 26.6343" fill="none" stroke="black" stroke-width="2"/>
<path d="M185.989,180.732l 4.75612, 38.0489" fill="none" stroke="black" stroke-width="2"/>
<path d="M190.745,218.781l 5.70734, -43.7563" fill="none" stroke="black"/>
<path d="M196.452,175.025h 28.5367" fill="none" stroke="black"/>
<text xml:space="preserve" x="57.5734" y="204.513" fill="black" font-size="21.3047" font-family="Helvetica" font-weight="bold">2)   C(x) = d 
</text>
<path d="M219.281,341.489v -0.951223l -0.951223, -0.951223v -1.90245l -0.951223, -0.951223v -1.90245l -0.951223, -1.90245v -1.90245l -0.951223, -0.951223v -7.60979l -0.951223, -0.951223v -2.85367l 0.951223, -0.951223v -7.60979l 0.951223, -0.951223v
 -1.90245l 0.951223, -1.90245v -1.90245l 0.951223, -0.951223v -1.90245l 0.951223, -0.951223v -0.951223" fill="none" stroke="black" stroke-width="2"/>
<path d="M439.965,298.684v 0.951223l 0.951223, 0.951223v 0.951223l 0.951223, 0.951223v 1.90245l 0.951223, 0.951223v 3.80489l 0.951223, 0.951223v 6.65856l 0.951223, 0.951223v 4.75612l -0.951223, 0.951223v 6.65856l -0.951223, 0.951223v 3.80489l
 -0.951223, 0.951223v 1.90245l -0.951223, 0.951223v 0.951223l -0.951223, 0.951223v 0.951223" fill="none" stroke="black" stroke-width="2"/>
<text xml:space="preserve" x="426.648" y="312.001" fill="black" font-size="14.3698" font-family="Helvetica" font-weight="bold">2
</text>
<text xml:space="preserve" x="364.819" y="326.27" fill="black" font-size="21.3047" font-family="Helvetica" font-weight="bold">+S(V)
</text>
<text xml:space="preserve" x="353.404" y="338.635" fill="black" font-size="21.3047" font-family="Helvetica" font-weight="bold">2
</text>
<text xml:space="preserve" x="354.355" y="317.709" fill="black" font-size="21.3047" font-family="Helvetica" font-weight="bold">1
</text>
<path d="M353.404,320.562h 11.4147" fill="none" stroke="black" stroke-width="2"/>
<path d="M347.697,302.489v 36.1465" fill="none" stroke="black" stroke-width="2"/>
<path d="M347.697,302.489h 5.70734" fill="none" stroke="black" stroke-width="2"/>
<path d="M347.697,338.635h 5.70734" fill="none" stroke="black" stroke-width="2"/>
<path d="M423.794,302.489v 36.1465" fill="none" stroke="black" stroke-width="2"/>
<path d="M423.794,302.489h -5.70734" fill="none" stroke="black" stroke-width="2"/>
<path d="M423.794,338.635h -5.70734" fill="none" stroke="black" stroke-width="2"/>
<text xml:space="preserve" x="333.428" y="326.27" fill="black" font-size="21.3047" font-family="Helvetica" font-weight="bold">+
</text>
<text xml:space="preserve" x="325.818" y="312.001" fill="black" font-size="14.3698" font-family="Helvetica" font-weight="bold">2
</text>
<text xml:space="preserve" x="244.964" y="326.27" fill="black" font-size="21.3047" font-family="Helvetica" font-weight="bold">+   C(V)
</text>
<text xml:space="preserve" x="233.55" y="338.635" fill="black" font-size="21.3047" font-family="Helvetica" font-weight="bold">2
</text>
<text xml:space="preserve" x="235.452" y="317.709" fill="black" font-size="21.3047" font-family="Helvetica" font-weight="bold">1
</text>
<path d="M233.55,320.562h 11.4147" fill="none" stroke="black" stroke-width="2"/>
<path d="M227.842,302.489v 36.1465" fill="none" stroke="black" stroke-width="2"/>
<path d="M227.842,302.489h 5.70734" fill="none" stroke="black" stroke-width="2"/>
<path d="M227.842,338.635h 5.70734" fill="none" stroke="black" stroke-width="2"/>
<path d="M322.965,302.489v 36.1465" fill="none" stroke="black" stroke-width="2"/>
<path d="M322.965,302.489h -5.70734" fill="none" stroke="black" stroke-width="2"/>
<path d="M322.965,338.635h -5.70734" fill="none" stroke="black" stroke-width="2"/>
<text xml:space="preserve" x="201.208" y="338.635" fill="black" font-size="21.3047" font-family="Helvetica" font-weight="bold">2
</text>
<text xml:space="preserve" x="202.159" y="317.709" fill="black" font-size="21.3047" font-family="Helvetica" font-weight="bold">1
</text>
<path d="M201.208,320.562h 11.4147" fill="none" stroke="black" stroke-width="2"/>
<text xml:space="preserve" x="166.013" y="326.27" fill="black" font-size="21.3047" font-family="Helvetica" font-weight="bold"> = 
</text>
<text xml:space="preserve" x="158.403" y="316.757" fill="black" font-size="14.3698" font-family="Helvetica" font-weight="bold">2
</text>
<text xml:space="preserve" x="57.5734" y="326.27" fill="black" font-size="21.3047" font-family="Helvetica" font-weight="bold">3)   R = |A|
</text>
<text xml:space="preserve" x="267.794" y="464.197" fill="black" font-size="21.3047" font-family="Helvetica" font-weight="bold">t+i
</text>
<text xml:space="preserve" x="277.306" y="442.319" fill="black" font-size="21.3047" font-family="Helvetica" font-weight="bold">i
</text>
<path d="M267.794,445.173h 23.7806" fill="none" stroke="black" stroke-width="2"/>
<path d="M262.086,426.148v 39.0002" fill="none" stroke="black" stroke-width="2"/>
<path d="M262.086,426.148h 5.70734" fill="none" stroke="black" stroke-width="2"/>
<path d="M262.086,465.148h 5.70734" fill="none" stroke="black" stroke-width="2"/>
<path d="M297.282,426.148v 39.0002" fill="none" stroke="black" stroke-width="2"/>
<path d="M297.282,426.148h -5.70734" fill="none" stroke="black" stroke-width="2"/>
<path d="M297.282,465.148h -5.70734" fill="none" stroke="black" stroke-width="2"/>
<text xml:space="preserve" x="189.793" y="450.88" fill="black" font-size="21.3047" font-family="Helvetica" font-weight="bold">A(i)cos
</text>
<text xml:space="preserve" x="170.769" y="427.099" fill="black" font-size="14.3698" font-family="Times">&#8734;
</text>
<text xml:space="preserve" x="179.33" y="473.709" fill="black" font-size="14.3698" font-family="Times">&#8734;
</text>
<text xml:space="preserve" x="162.208" y="473.709" fill="black" font-size="14.3698" font-family="Helvetica" font-weight="bold">i=-
</text>
<text xml:space="preserve" x="162.208" y="457.538" fill="black" font-size="37.9485" font-family="Times">&#8721;
</text>
<text xml:space="preserve" x="57.5734" y="450.88" fill="black" font-size="21.3047" font-family="Helvetica" font-weight="bold">4)   F(t) = 
</text>
<text xml:space="preserve" x="106.086" y="580.246" fill="black" font-size="21.3047" font-family="Helvetica" font-weight="bold">Li
</text>
<text xml:space="preserve" x="98.476" y="570.734" fill="black" font-size="14.3698" font-family="Helvetica" font-weight="bold">7
</text>
<text xml:space="preserve" x="98.476" y="590.71" fill="black" font-size="14.3698" font-family="Helvetica" font-weight="bold">3
</text>
<text xml:space="preserve" x="57.5734" y="580.246" fill="black" font-size="21.3047" font-family="Helvetica" font-weight="bold">5)    
</text></svg>
