<?xml version="1.0" standalone="no"?>
<svg width="567.429" height="449.477" viewBox="0 0 567.429 449.477" xmlns="http://www.w3.org/2000/svg" shape-rendering="crispEdges">
<title>
./old_svg_pro/markerwarning_pro.svg
</title>
<desc>
Creator: ROOT Version 6.33/01
CreationDate: Tue Jun  4 11:06:19 2024</desc>
<defs>
</defs>
<rect x="0.5" y="0" width="566.929" height="448.977" fill="#fefefe"/>
<rect x="40.185" y="0" width="527.244" height="179.591" fill="#fefefe"/>
<rect x="53.3661" y="0.897955" width="511.427" height="178.693" fill="#fefefe"/>
<rect x="53.3661" y="0.897955" width="511.427" height="178.693" fill="none" stroke="black"/>
<path d="M53.3661,179.591h 511.427" fill="none" stroke="#000099"/>
<path d="M53.3661,179.591h 511.427" fill="none" stroke="black"/>
<path d="M53.3661,174.365v 5.2261" fill="none" stroke="black"/>
<path d="M79.2612,176.978v 2.61305" fill="none" stroke="black"/>
<path d="M105.156,176.978v 2.61305" fill="none" stroke="black"/>
<path d="M131.051,176.978v 2.61305" fill="none" stroke="black"/>
<path d="M156.946,176.978v 2.61305" fill="none" stroke="black"/>
<path d="M182.841,174.365v 5.2261" fill="none" stroke="black"/>
<path d="M208.736,176.978v 2.61305" fill="none" stroke="black"/>
<path d="M234.631,176.978v 2.61305" fill="none" stroke="black"/>
<path d="M260.526,176.978v 2.61305" fill="none" stroke="black"/>
<path d="M286.421,176.978v 2.61305" fill="none" stroke="black"/>
<path d="M312.316,174.365v 5.2261" fill="none" stroke="black"/>
<path d="M338.211,176.978v 2.61305" fill="none" stroke="black"/>
<path d="M364.106,176.978v 2.61305" fill="none" stroke="black"/>
<path d="M390.001,176.978v 2.61305" fill="none" stroke="black"/>
<path d="M415.897,176.978v 2.61305" fill="none" stroke="black"/>
<path d="M441.792,174.365v 5.2261" fill="none" stroke="black"/>
<path d="M441.792,174.365v 5.2261" fill="none" stroke="black"/>
<path d="M467.687,176.978v 2.61305" fill="none" stroke="black"/>
<path d="M493.582,176.978v 2.61305" fill="none" stroke="black"/>
<path d="M519.477,176.978v 2.61305" fill="none" stroke="black"/>
<path d="M545.372,176.978v 2.61305" fill="none" stroke="black"/>
<text xml:space="preserve" x="51.8661" y="185.489" fill="black" font-size="6.26668" font-family="Helvetica">0
</text>
<text xml:space="preserve" x="178.379" y="185.489" fill="black" font-size="6.26668" font-family="Helvetica">100
</text>
<text xml:space="preserve" x="307.745" y="185.489" fill="black" font-size="6.26668" font-family="Helvetica">200
</text>
<text xml:space="preserve" x="437.112" y="185.489" fill="black" font-size="6.26668" font-family="Helvetica">300
</text>
<path d="M53.3661,179.591v -178.693" fill="none" stroke="black"/>
<path d="M69.1044,138.354h -15.7382" fill="none" stroke="black"/>
<path d="M61.2353,126.401h -7.86912" fill="none" stroke="black"/>
<path d="M61.2353,114.449h -7.86912" fill="none" stroke="black"/>
<path d="M61.2353,102.496h -7.86912" fill="none" stroke="black"/>
<path d="M61.2353,90.5433h -7.86912" fill="none" stroke="black"/>
<path d="M69.1044,78.5906h -15.7382" fill="none" stroke="black"/>
<path d="M61.2353,66.6379h -7.86912" fill="none" stroke="black"/>
<path d="M61.2353,54.6852h -7.86912" fill="none" stroke="black"/>
<path d="M61.2353,42.7324h -7.86912" fill="none" stroke="black"/>
<path d="M61.2353,30.7797h -7.86912" fill="none" stroke="black"/>
<path d="M69.1044,18.827h -15.7382" fill="none" stroke="black"/>
<path d="M69.1044,138.354h -15.7382" fill="none" stroke="black"/>
<path d="M61.2353,150.307h -7.86912" fill="none" stroke="black"/>
<path d="M61.2353,162.26h -7.86912" fill="none" stroke="black"/>
<path d="M61.2353,174.212h -7.86912" fill="none" stroke="black"/>
<path d="M69.1044,18.827h -15.7382" fill="none" stroke="black"/>
<path d="M61.2353,6.87432h -7.86912" fill="none" stroke="black"/>
<text xml:space="preserve" x="41.4026" y="144.586" fill="black" font-size="16.9762" font-family="Helvetica">2
</text>
<text xml:space="preserve" x="41.4026" y="85.6101" fill="black" font-size="16.9762" font-family="Helvetica">3
</text>
<text xml:space="preserve" x="41.4026" y="25.683" fill="black" font-size="16.9762" font-family="Helvetica">4
</text>
<path d="M511.787,48.649h -6.55312" fill="none" stroke="black"/>
<path d="M519.397,48.649h 6.55312" fill="none" stroke="black"/>
<path d="M505.234,50.5515v -3.80489" fill="none" stroke="black"/>
<path d="M525.95,50.5515v -3.80489" fill="none" stroke="black"/>
<path d="M515.592,41.0393v -11.395" fill="none" stroke="black"/>
<path d="M515.592,56.2588v 11.395" fill="none" stroke="black"/>
<path d="M513.69,29.6442h 3.80489" fill="none" stroke="black"/>
<path d="M513.69,67.6538h 3.80489" fill="none" stroke="black"/>
<path d="M445.755,62.1556h -10.4374" fill="none" stroke="black"/>
<path d="M453.365,62.1556h 10.4374" fill="none" stroke="black"/>
<path d="M435.318,64.0581v -3.80489" fill="none" stroke="black"/>
<path d="M463.802,64.0581v -3.80489" fill="none" stroke="black"/>
<path d="M449.56,54.5458v -10.9767" fill="none" stroke="black"/>
<path d="M449.56,69.7654v 10.9767" fill="none" stroke="black"/>
<path d="M447.658,43.5691h 3.80489" fill="none" stroke="black"/>
<path d="M447.658,80.7421h 3.80489" fill="none" stroke="black"/>
<path d="M359.007,69.3272h -9.14262" fill="none" stroke="black"/>
<path d="M366.617,69.3272h 9.14262" fill="none" stroke="black"/>
<path d="M349.864,71.2297v -3.80489" fill="none" stroke="black"/>
<path d="M375.759,71.2297v -3.80489" fill="none" stroke="black"/>
<path d="M362.812,61.7174v -10.6779" fill="none" stroke="black"/>
<path d="M362.812,76.937v 10.6779" fill="none" stroke="black"/>
<path d="M360.909,51.0396h 3.80489" fill="none" stroke="black"/>
<path d="M360.909,87.6149h 3.80489" fill="none" stroke="black"/>
<path d="M267.079,75.0048h -7.84787" fill="none" stroke="black"/>
<path d="M274.689,75.0048h 7.84787" fill="none" stroke="black"/>
<path d="M259.232,76.9072v -3.80489" fill="none" stroke="black"/>
<path d="M282.537,76.9072v -3.80489" fill="none" stroke="black"/>
<path d="M270.884,67.395v -11.4548" fill="none" stroke="black"/>
<path d="M270.884,82.6146v 11.4548" fill="none" stroke="black"/>
<path d="M268.982,55.9402h 3.80489" fill="none" stroke="black"/>
<path d="M268.982,94.0693h 3.80489" fill="none" stroke="black"/>
<path d="M197.163,75.4231h -7.84787" fill="none" stroke="black"/>
<path d="M204.773,75.4231h 7.84787" fill="none" stroke="black"/>
<path d="M189.315,77.3256v -3.80489" fill="none" stroke="black"/>
<path d="M212.621,77.3256v -3.80489" fill="none" stroke="black"/>
<path d="M200.968,67.8133v -14.5027" fill="none" stroke="black"/>
<path d="M200.968,83.0329v 14.5027" fill="none" stroke="black"/>
<path d="M199.065,53.3106h 3.80489" fill="none" stroke="black"/>
<path d="M199.065,97.5356h 3.80489" fill="none" stroke="black"/>
<path d="M144.078,77.7539h -6.55312" fill="none" stroke="black"/>
<path d="M151.688,77.7539h 6.55312" fill="none" stroke="black"/>
<path d="M137.525,79.6563v -3.80489" fill="none" stroke="black"/>
<path d="M158.241,79.6563v -3.80489" fill="none" stroke="black"/>
<path d="M147.883,70.1441v -18.0288" fill="none" stroke="black"/>
<path d="M147.883,85.3637v 18.0288" fill="none" stroke="black"/>
<path d="M145.981,52.1153h 3.80489" fill="none" stroke="black"/>
<path d="M145.981,103.392h 3.80489" fill="none" stroke="black"/>
<g fill="black">
<polygon points=" 515.592, 41.0393 523.202, 56.2588 507.983, 56.2588"/>
<polygon points=" 449.56, 54.5458 457.17, 69.7654 441.95, 69.7654"/>
<polygon points=" 362.812, 61.7174 370.422, 76.937 355.202, 76.937"/>
<polygon points=" 270.884, 67.395 278.494, 82.6146 263.275, 82.6146"/>
<polygon points=" 200.968, 67.8133 208.578, 83.0329 193.358, 83.0329"/>
<polygon points=" 147.883, 70.1441 155.493, 85.3637 140.273, 85.3637"/>
</g>
<path d="M507.126,25.401h -9.23066" fill="none" stroke="black"/>
<path d="M514.736,25.401h 9.23066" fill="none" stroke="black"/>
<path d="M497.896,27.3035v -3.80489" fill="none" stroke="black"/>
<path d="M523.967,27.3035v -3.80489" fill="none" stroke="black"/>
<path d="M510.931,17.7912v -6.43465" fill="none" stroke="black"/>
<path d="M510.931,33.0108v 6.43465" fill="none" stroke="black"/>
<path d="M509.029,11.3566h 3.80489" fill="none" stroke="black"/>
<path d="M509.029,39.4455h 3.80489" fill="none" stroke="black"/>
<path d="M438.246,34.7241h -7.85305" fill="none" stroke="black"/>
<path d="M445.855,34.7241h 7.85305" fill="none" stroke="black"/>
<path d="M430.393,36.6266v -3.80489" fill="none" stroke="black"/>
<path d="M453.708,36.6266v -3.80489" fill="none" stroke="black"/>
<path d="M442.05,27.1143v -5.3589" fill="none" stroke="black"/>
<path d="M442.05,42.3339v 5.3589" fill="none" stroke="black"/>
<path d="M440.148,21.7554h 3.80489" fill="none" stroke="black"/>
<path d="M440.148,47.6928h 3.80489" fill="none" stroke="black"/>
<path d="M378.816,43.2106h -6.66447" fill="none" stroke="black"/>
<path d="M386.426,43.2106h 6.66447" fill="none" stroke="black"/>
<path d="M372.152,45.113v -3.80489" fill="none" stroke="black"/>
<path d="M393.091,45.113v -3.80489" fill="none" stroke="black"/>
<path d="M382.621,35.6008v -4.94056" fill="none" stroke="black"/>
<path d="M382.621,50.8203v 4.94056" fill="none" stroke="black"/>
<path d="M380.719,30.6602h 3.80489" fill="none" stroke="black"/>
<path d="M380.719,55.7609h 3.80489" fill="none" stroke="black"/>
<path d="M328.192,51.5177h -5.65197" fill="none" stroke="black"/>
<path d="M335.802,51.5177h 5.65197" fill="none" stroke="black"/>
<path d="M322.54,53.4201v -3.80489" fill="none" stroke="black"/>
<path d="M341.453,53.4201v -3.80489" fill="none" stroke="black"/>
<path d="M331.997,43.9079v -4.7015" fill="none" stroke="black"/>
<path d="M331.997,59.1275v 4.7015" fill="none" stroke="black"/>
<path d="M330.094,39.2064h 3.80489" fill="none" stroke="black"/>
<path d="M330.094,63.829h 3.80489" fill="none" stroke="black"/>
<path d="M283.911,58.1514h -4.76636" fill="none" stroke="black"/>
<path d="M291.521,58.1514h 4.76636" fill="none" stroke="black"/>
<path d="M279.145,60.0539v -3.80489" fill="none" stroke="black"/>
<path d="M296.287,60.0539v -3.80489" fill="none" stroke="black"/>
<path d="M287.716,50.5417v -5.11985" fill="none" stroke="black"/>
<path d="M287.716,65.7612v 5.11985" fill="none" stroke="black"/>
<path d="M285.814,45.4218h 3.80489" fill="none" stroke="black"/>
<path d="M285.814,70.8811h 3.80489" fill="none" stroke="black"/>
<path d="M245.457,63.829h -3.99728" fill="none" stroke="black"/>
<path d="M253.067,63.829h 3.99728" fill="none" stroke="black"/>
<path d="M241.46,65.7314v -3.80489" fill="none" stroke="black"/>
<path d="M257.064,65.7314v -3.80489" fill="none" stroke="black"/>
<path d="M249.262,56.2192v -5.71748" fill="none" stroke="black"/>
<path d="M249.262,71.4388v 5.71748" fill="none" stroke="black"/>
<path d="M247.36,50.5017h 3.80489" fill="none" stroke="black"/>
<path d="M247.36,77.1562h 3.80489" fill="none" stroke="black"/>
<path d="M211.664,69.5663h -3.32142" fill="none" stroke="black"/>
<path d="M219.274,69.5663h 3.32142" fill="none" stroke="black"/>
<path d="M208.343,71.4687v -3.80489" fill="none" stroke="black"/>
<path d="M222.595,71.4687v -3.80489" fill="none" stroke="black"/>
<path d="M215.469,61.9565v -6.6737" fill="none" stroke="black"/>
<path d="M215.469,77.1761v 6.6737" fill="none" stroke="black"/>
<path d="M213.567,55.2828h 3.80489" fill="none" stroke="black"/>
<path d="M213.567,83.8498h 3.80489" fill="none" stroke="black"/>
<path d="M182.532,75.7817h -2.73878" fill="none" stroke="black"/>
<path d="M190.142,75.7817h 2.73878" fill="none" stroke="black"/>
<path d="M179.793,77.6841v -3.80489" fill="none" stroke="black"/>
<path d="M192.881,77.6841v -3.80489" fill="none" stroke="black"/>
<path d="M186.337,68.1719v -7.92874" fill="none" stroke="black"/>
<path d="M186.337,83.3915v 7.92874" fill="none" stroke="black"/>
<path d="M184.435,60.2432h 3.80489" fill="none" stroke="black"/>
<path d="M184.435,91.3202h 3.80489" fill="none" stroke="black"/>
<path d="M157.414,80.6823h -2.23642" fill="none" stroke="black"/>
<path d="M165.024,80.6823h 2.23642" fill="none" stroke="black"/>
<path d="M155.178,82.5847v -3.80489" fill="none" stroke="black"/>
<path d="M167.26,82.5847v -3.80489" fill="none" stroke="black"/>
<path d="M161.219,73.0725v -9.3033" fill="none" stroke="black"/>
<path d="M161.219,88.2921v 9.3033" fill="none" stroke="black"/>
<path d="M159.316,63.7692h 3.80489" fill="none" stroke="black"/>
<path d="M159.316,97.5954h 3.80489" fill="none" stroke="black"/>
<path d="M135.921,87.077h -1.80656" fill="none" stroke="black"/>
<path d="M143.531,87.077h 1.80656" fill="none" stroke="black"/>
<path d="M134.115,88.9794v -3.80489" fill="none" stroke="black"/>
<path d="M145.338,88.9794v -3.80489" fill="none" stroke="black"/>
<path d="M139.726,79.4672v -11.395" fill="none" stroke="black"/>
<path d="M139.726,94.6868v 11.395" fill="none" stroke="black"/>
<path d="M137.824,68.0722h 3.80489" fill="none" stroke="black"/>
<path d="M137.824,106.082h 3.80489" fill="none" stroke="black"/>
<path d="M117.536,96.4599h -1.43885" fill="none" stroke="black"/>
<path d="M125.145,96.4599h 1.43885" fill="none" stroke="black"/>
<path d="M116.097,98.3623v -3.80489" fill="none" stroke="black"/>
<path d="M126.584,98.3623v -3.80489" fill="none" stroke="black"/>
<path d="M121.341,88.8501v -13.666" fill="none" stroke="black"/>
<path d="M121.341,104.07v 13.666" fill="none" stroke="black"/>
<path d="M119.438,75.1841h 3.80489" fill="none" stroke="black"/>
<path d="M119.438,117.736h 3.80489" fill="none" stroke="black"/>
<path d="M101.61,102.556h -1.12034" fill="none" stroke="black"/>
<path d="M109.22,102.556h 1.12034" fill="none" stroke="black"/>
<path d="M100.49,104.458v -3.80489" fill="none" stroke="black"/>
<path d="M110.34,104.458v -3.80489" fill="none" stroke="black"/>
<path d="M105.415,94.946v -16.5944" fill="none" stroke="black"/>
<path d="M105.415,110.166v 16.5944" fill="none" stroke="black"/>
<path d="M103.513,78.3515h 3.80489" fill="none" stroke="black"/>
<path d="M103.513,126.76h 3.80489" fill="none" stroke="black"/>
<path d="M88.6627,109.309h -0.86139" fill="none" stroke="black"/>
<path d="M96.2725,109.309h 0.86139" fill="none" stroke="black"/>
<path d="M87.8013,111.211v -3.80489" fill="none" stroke="black"/>
<path d="M97.1339,111.211v -3.80489" fill="none" stroke="black"/>
<path d="M92.4676,101.699v -20.1803" fill="none" stroke="black"/>
<path d="M92.4676,116.919v 20.1803" fill="none" stroke="black"/>
<path d="M90.5652,81.519h 3.80489" fill="none" stroke="black"/>
<path d="M90.5652,137.099h 3.80489" fill="none" stroke="black"/>
<path d="M78.0458,118.752h -0.649051" fill="none" stroke="black"/>
<path d="M85.6556,118.752h 0.649051" fill="none" stroke="black"/>
<path d="M77.3967,120.654v -3.80489" fill="none" stroke="black"/>
<path d="M86.3046,120.654v -3.80489" fill="none" stroke="black"/>
<path d="M81.8507,111.142v -24.9613" fill="none" stroke="black"/>
<path d="M81.8507,126.361v 24.9613" fill="none" stroke="black"/>
<path d="M79.9482,86.1805h 3.80489" fill="none" stroke="black"/>
<path d="M79.9482,151.323h 3.80489" fill="none" stroke="black"/>
<g fill="black">
<polygon points=" 503.321, 17.7912 518.541, 17.7912 510.931, 33.0108"/>
<polygon points=" 434.441, 27.1143 449.66, 27.1143 442.05, 42.3339"/>
<polygon points=" 375.012, 35.6008 390.231, 35.6008 382.621, 50.8203"/>
<polygon points=" 324.387, 43.9079 339.606, 43.9079 331.997, 59.1275"/>
<polygon points=" 280.106, 50.5417 295.326, 50.5417 287.716, 65.7612"/>
<polygon points=" 241.652, 56.2192 256.872, 56.2192 249.262, 71.4388"/>
<polygon points=" 207.859, 61.9565 223.079, 61.9565 215.469, 77.1761"/>
<polygon points=" 178.727, 68.1719 193.947, 68.1719 186.337, 83.3915"/>
<polygon points=" 153.609, 73.0725 168.829, 73.0725 161.219, 88.2921"/>
<polygon points=" 132.116, 79.4672 147.336, 79.4672 139.726, 94.6868"/>
<polygon points=" 113.731, 88.8501 128.95, 88.8501 121.341, 104.07"/>
<polygon points=" 97.8054, 94.946 113.025, 94.946 105.415, 110.166"/>
<polygon points=" 84.8578, 101.699 100.077, 101.699 92.4676, 116.919"/>
<polygon points=" 74.2409, 111.142 89.4605, 111.142 81.8507, 126.361"/>
</g>
<rect x="40.185" y="179.591" width="527.244" height="260.407" fill="#fefefe"/>
<rect x="53.3661" y="180.893" width="511.427" height="180.983" fill="#fefefe"/>
<rect x="53.3661" y="180.893" width="511.427" height="180.983" fill="none" stroke="black"/>
<path d="M53.3661,361.876h 511.427" fill="none" stroke="#000099"/>
<path d="M53.3661,361.876h 511.427" fill="none" stroke="black"/>
<path d="M53.3661,354.298v 7.57784" fill="none" stroke="black"/>
<path d="M79.2612,358.087v 3.78892" fill="none" stroke="black"/>
<path d="M105.156,358.087v 3.78892" fill="none" stroke="black"/>
<path d="M131.051,358.087v 3.78892" fill="none" stroke="black"/>
<path d="M156.946,358.087v 3.78892" fill="none" stroke="black"/>
<path d="M182.841,354.298v 7.57784" fill="none" stroke="black"/>
<path d="M208.736,358.087v 3.78892" fill="none" stroke="black"/>
<path d="M234.631,358.087v 3.78892" fill="none" stroke="black"/>
<path d="M260.526,358.087v 3.78892" fill="none" stroke="black"/>
<path d="M286.421,358.087v 3.78892" fill="none" stroke="black"/>
<path d="M312.316,354.298v 7.57784" fill="none" stroke="black"/>
<path d="M338.211,358.087v 3.78892" fill="none" stroke="black"/>
<path d="M364.106,358.087v 3.78892" fill="none" stroke="black"/>
<path d="M390.001,358.087v 3.78892" fill="none" stroke="black"/>
<path d="M415.897,358.087v 3.78892" fill="none" stroke="black"/>
<path d="M441.792,354.298v 7.57784" fill="none" stroke="black"/>
<path d="M441.792,354.298v 7.57784" fill="none" stroke="black"/>
<path d="M467.687,358.087v 3.78892" fill="none" stroke="black"/>
<path d="M493.582,358.087v 3.78892" fill="none" stroke="black"/>
<path d="M519.477,358.087v 3.78892" fill="none" stroke="black"/>
<path d="M545.372,358.087v 3.78892" fill="none" stroke="black"/>
<text xml:space="preserve" x="49.0124" y="377.636" fill="black" font-size="17.2234" font-family="Helvetica">0
</text>
<text xml:space="preserve" x="168.867" y="377.636" fill="black" font-size="17.2234" font-family="Helvetica">100
</text>
<text xml:space="preserve" x="298.233" y="377.636" fill="black" font-size="17.2234" font-family="Helvetica">200
</text>
<text xml:space="preserve" x="427.599" y="377.636" fill="black" font-size="17.2234" font-family="Helvetica">300
</text>
<path d="M53.3661,361.876v -180.983" fill="none" stroke="black"/>
<path d="M64.3592,320.111h -10.993" fill="none" stroke="black"/>
<path d="M58.8627,308.005h -5.49652" fill="none" stroke="black"/>
<path d="M58.8627,295.899h -5.49652" fill="none" stroke="black"/>
<path d="M58.8627,283.793h -5.49652" fill="none" stroke="black"/>
<path d="M58.8627,271.687h -5.49652" fill="none" stroke="black"/>
<path d="M64.3592,259.581h -10.993" fill="none" stroke="black"/>
<path d="M58.8627,247.475h -5.49652" fill="none" stroke="black"/>
<path d="M58.8627,235.369h -5.49652" fill="none" stroke="black"/>
<path d="M58.8627,223.264h -5.49652" fill="none" stroke="black"/>
<path d="M58.8627,211.158h -5.49652" fill="none" stroke="black"/>
<path d="M64.3592,199.052h -10.993" fill="none" stroke="black"/>
<path d="M64.3592,320.111h -10.993" fill="none" stroke="black"/>
<path d="M58.8627,332.216h -5.49652" fill="none" stroke="black"/>
<path d="M58.8627,344.322h -5.49652" fill="none" stroke="black"/>
<path d="M58.8627,356.428h -5.49652" fill="none" stroke="black"/>
<path d="M64.3592,199.052h -10.993" fill="none" stroke="black"/>
<path d="M58.8627,186.946h -5.49652" fill="none" stroke="black"/>
<text xml:space="preserve" x="41.4026" y="327.221" fill="black" font-size="17.2234" font-family="Helvetica">2
</text>
<text xml:space="preserve" x="41.4026" y="266.343" fill="black" font-size="17.2234" font-family="Helvetica">3
</text>
<text xml:space="preserve" x="41.4026" y="205.464" fill="black" font-size="17.2234" font-family="Helvetica">4
</text>
<path d="M511.787,229.256h -6.55312" fill="none" stroke="black"/>
<path d="M519.397,229.256h 6.55312" fill="none" stroke="black"/>
<path d="M505.234,231.158v -3.80489" fill="none" stroke="black"/>
<path d="M525.95,231.158v -3.80489" fill="none" stroke="black"/>
<path d="M515.592,221.646v -11.6385" fill="none" stroke="black"/>
<path d="M515.592,236.866v 11.6385" fill="none" stroke="black"/>
<path d="M513.69,210.008h 3.80489" fill="none" stroke="black"/>
<path d="M513.69,248.504h 3.80489" fill="none" stroke="black"/>
<path d="M445.755,242.936h -10.4374" fill="none" stroke="black"/>
<path d="M453.365,242.936h 10.4374" fill="none" stroke="black"/>
<path d="M435.318,244.838v -3.80489" fill="none" stroke="black"/>
<path d="M463.802,244.838v -3.80489" fill="none" stroke="black"/>
<path d="M449.56,235.326v -11.2148" fill="none" stroke="black"/>
<path d="M449.56,250.545v 11.2148" fill="none" stroke="black"/>
<path d="M447.658,224.111h 3.80489" fill="none" stroke="black"/>
<path d="M447.658,261.76h 3.80489" fill="none" stroke="black"/>
<path d="M359.007,250.199h -9.14262" fill="none" stroke="black"/>
<path d="M366.617,250.199h 9.14262" fill="none" stroke="black"/>
<path d="M349.864,252.102v -3.80489" fill="none" stroke="black"/>
<path d="M375.759,252.102v -3.80489" fill="none" stroke="black"/>
<path d="M362.812,242.589v -10.9122" fill="none" stroke="black"/>
<path d="M362.812,257.809v 10.9122" fill="none" stroke="black"/>
<path d="M360.909,231.677h 3.80489" fill="none" stroke="black"/>
<path d="M360.909,268.721h 3.80489" fill="none" stroke="black"/>
<path d="M267.079,255.949h -7.84787" fill="none" stroke="black"/>
<path d="M274.689,255.949h 7.84787" fill="none" stroke="black"/>
<path d="M259.232,257.852v -3.80489" fill="none" stroke="black"/>
<path d="M282.537,257.852v -3.80489" fill="none" stroke="black"/>
<path d="M270.884,248.34v -11.6991" fill="none" stroke="black"/>
<path d="M270.884,263.559v 11.6991" fill="none" stroke="black"/>
<path d="M268.982,236.641h 3.80489" fill="none" stroke="black"/>
<path d="M268.982,275.258h 3.80489" fill="none" stroke="black"/>
<path d="M197.163,256.373h -7.84787" fill="none" stroke="black"/>
<path d="M204.773,256.373h 7.84787" fill="none" stroke="black"/>
<path d="M189.315,258.276v -3.80489" fill="none" stroke="black"/>
<path d="M212.621,258.276v -3.80489" fill="none" stroke="black"/>
<path d="M200.968,248.763v -14.7861" fill="none" stroke="black"/>
<path d="M200.968,263.983v 14.7861" fill="none" stroke="black"/>
<path d="M199.065,233.977h 3.80489" fill="none" stroke="black"/>
<path d="M199.065,278.769h 3.80489" fill="none" stroke="black"/>
<path d="M144.078,258.734h -6.55312" fill="none" stroke="black"/>
<path d="M151.688,258.734h 6.55312" fill="none" stroke="black"/>
<path d="M137.525,260.636v -3.80489" fill="none" stroke="black"/>
<path d="M158.241,260.636v -3.80489" fill="none" stroke="black"/>
<path d="M147.883,251.124v -18.3573" fill="none" stroke="black"/>
<path d="M147.883,266.344v 18.3573" fill="none" stroke="black"/>
<path d="M145.981,232.767h 3.80489" fill="none" stroke="black"/>
<path d="M145.981,284.701h 3.80489" fill="none" stroke="black"/>
<g fill="black">
<polygon points=" 507.983, 221.646 523.202, 221.646 515.592, 236.866"/>
<polygon points=" 441.95, 235.326 457.17, 235.326 449.56, 250.545"/>
<polygon points=" 355.202, 242.589 370.422, 242.589 362.812, 257.809"/>
<polygon points=" 263.275, 248.34 278.494, 248.34 270.884, 263.559"/>
<polygon points=" 193.358, 248.763 208.578, 248.763 200.968, 263.983"/>
<polygon points=" 140.273, 251.124 155.493, 251.124 147.883, 266.344"/>
</g>
<path d="M507.126,205.71h -9.23066" fill="none" stroke="black"/>
<path d="M514.736,205.71h 9.23066" fill="none" stroke="black"/>
<path d="M497.896,207.613v -3.80489" fill="none" stroke="black"/>
<path d="M523.967,207.613v -3.80489" fill="none" stroke="black"/>
<path d="M510.931,198.1v -6.61461" fill="none" stroke="black"/>
<path d="M510.931,213.32v 6.61461" fill="none" stroke="black"/>
<path d="M509.029,191.486h 3.80489" fill="none" stroke="black"/>
<path d="M509.029,219.934h 3.80489" fill="none" stroke="black"/>
<path d="M438.246,215.153h -7.85305" fill="none" stroke="black"/>
<path d="M445.855,215.153h 7.85305" fill="none" stroke="black"/>
<path d="M430.393,217.055v -3.80489" fill="none" stroke="black"/>
<path d="M453.708,217.055v -3.80489" fill="none" stroke="black"/>
<path d="M442.05,207.543v -5.52508" fill="none" stroke="black"/>
<path d="M442.05,222.762v 5.52508" fill="none" stroke="black"/>
<path d="M440.148,202.018h 3.80489" fill="none" stroke="black"/>
<path d="M440.148,228.288h 3.80489" fill="none" stroke="black"/>
<path d="M378.816,223.748h -6.66447" fill="none" stroke="black"/>
<path d="M386.426,223.748h 6.66447" fill="none" stroke="black"/>
<path d="M372.152,225.65v -3.80489" fill="none" stroke="black"/>
<path d="M393.091,225.65v -3.80489" fill="none" stroke="black"/>
<path d="M382.621,216.138v -5.10138" fill="none" stroke="black"/>
<path d="M382.621,231.358v 5.10138" fill="none" stroke="black"/>
<path d="M380.719,211.037h 3.80489" fill="none" stroke="black"/>
<path d="M380.719,236.459h 3.80489" fill="none" stroke="black"/>
<path d="M328.192,232.161h -5.65197" fill="none" stroke="black"/>
<path d="M335.802,232.161h 5.65197" fill="none" stroke="black"/>
<path d="M322.54,234.064v -3.80489" fill="none" stroke="black"/>
<path d="M341.453,234.064v -3.80489" fill="none" stroke="black"/>
<path d="M331.997,224.552v -4.85926" fill="none" stroke="black"/>
<path d="M331.997,239.771v 4.85926" fill="none" stroke="black"/>
<path d="M330.094,219.692h 3.80489" fill="none" stroke="black"/>
<path d="M330.094,244.63h 3.80489" fill="none" stroke="black"/>
<path d="M283.911,238.88h -4.76636" fill="none" stroke="black"/>
<path d="M291.521,238.88h 4.76636" fill="none" stroke="black"/>
<path d="M279.145,240.783v -3.80489" fill="none" stroke="black"/>
<path d="M296.287,240.783v -3.80489" fill="none" stroke="black"/>
<path d="M287.716,231.27v -5.28297" fill="none" stroke="black"/>
<path d="M287.716,246.49v 5.28297" fill="none" stroke="black"/>
<path d="M285.814,225.987h 3.80489" fill="none" stroke="black"/>
<path d="M285.814,251.773h 3.80489" fill="none" stroke="black"/>
<path d="M245.457,244.63h -3.99728" fill="none" stroke="black"/>
<path d="M253.067,244.63h 3.99728" fill="none" stroke="black"/>
<path d="M241.46,246.533v -3.80489" fill="none" stroke="black"/>
<path d="M257.064,246.533v -3.80489" fill="none" stroke="black"/>
<path d="M249.262,237.021v -5.88826" fill="none" stroke="black"/>
<path d="M249.262,252.24v 5.88826" fill="none" stroke="black"/>
<path d="M247.36,231.132h 3.80489" fill="none" stroke="black"/>
<path d="M247.36,258.128h 3.80489" fill="none" stroke="black"/>
<path d="M211.664,250.441h -3.32142" fill="none" stroke="black"/>
<path d="M219.274,250.441h 3.32142" fill="none" stroke="black"/>
<path d="M208.343,252.344v -3.80489" fill="none" stroke="black"/>
<path d="M222.595,252.344v -3.80489" fill="none" stroke="black"/>
<path d="M215.469,242.831v -6.85673" fill="none" stroke="black"/>
<path d="M215.469,258.051v 6.85673" fill="none" stroke="black"/>
<path d="M213.567,235.975h 3.80489" fill="none" stroke="black"/>
<path d="M213.567,264.908h 3.80489" fill="none" stroke="black"/>
<path d="M182.532,256.736h -2.73878" fill="none" stroke="black"/>
<path d="M190.142,256.736h 2.73878" fill="none" stroke="black"/>
<path d="M179.793,258.639v -3.80489" fill="none" stroke="black"/>
<path d="M192.881,258.639v -3.80489" fill="none" stroke="black"/>
<path d="M186.337,249.127v -8.12785" fill="none" stroke="black"/>
<path d="M186.337,264.346v 8.12785" fill="none" stroke="black"/>
<path d="M184.435,240.999h 3.80489" fill="none" stroke="black"/>
<path d="M184.435,272.474h 3.80489" fill="none" stroke="black"/>
<path d="M157.414,261.7h -2.23642" fill="none" stroke="black"/>
<path d="M165.024,261.7h 2.23642" fill="none" stroke="black"/>
<path d="M155.178,263.602v -3.80489" fill="none" stroke="black"/>
<path d="M167.26,263.602v -3.80489" fill="none" stroke="black"/>
<path d="M161.219,254.09v -9.52002" fill="none" stroke="black"/>
<path d="M161.219,269.31v 9.52002" fill="none" stroke="black"/>
<path d="M159.316,244.57h 3.80489" fill="none" stroke="black"/>
<path d="M159.316,278.83h 3.80489" fill="none" stroke="black"/>
<path d="M135.921,268.176h -1.80656" fill="none" stroke="black"/>
<path d="M143.531,268.176h 1.80656" fill="none" stroke="black"/>
<path d="M134.115,270.079v -3.80489" fill="none" stroke="black"/>
<path d="M145.338,270.079v -3.80489" fill="none" stroke="black"/>
<path d="M139.726,260.567v -11.6385" fill="none" stroke="black"/>
<path d="M139.726,275.786v 11.6385" fill="none" stroke="black"/>
<path d="M137.824,248.928h 3.80489" fill="none" stroke="black"/>
<path d="M137.824,287.425h 3.80489" fill="none" stroke="black"/>
<path d="M117.536,277.679h -1.43885" fill="none" stroke="black"/>
<path d="M125.145,277.679h 1.43885" fill="none" stroke="black"/>
<path d="M116.097,279.582v -3.80489" fill="none" stroke="black"/>
<path d="M126.584,279.582v -3.80489" fill="none" stroke="black"/>
<path d="M121.341,270.07v -13.9387" fill="none" stroke="black"/>
<path d="M121.341,285.289v 13.9387" fill="none" stroke="black"/>
<path d="M119.438,256.131h 3.80489" fill="none" stroke="black"/>
<path d="M119.438,299.228h 3.80489" fill="none" stroke="black"/>
<path d="M101.61,283.853h -1.12034" fill="none" stroke="black"/>
<path d="M109.22,283.853h 1.12034" fill="none" stroke="black"/>
<path d="M100.49,285.756v -3.80489" fill="none" stroke="black"/>
<path d="M110.34,285.756v -3.80489" fill="none" stroke="black"/>
<path d="M105.415,276.244v -16.9046" fill="none" stroke="black"/>
<path d="M105.415,291.463v 16.9046" fill="none" stroke="black"/>
<path d="M103.513,259.339h 3.80489" fill="none" stroke="black"/>
<path d="M103.513,308.368h 3.80489" fill="none" stroke="black"/>
<path d="M88.6627,290.693h -0.86139" fill="none" stroke="black"/>
<path d="M96.2725,290.693h 0.86139" fill="none" stroke="black"/>
<path d="M87.8013,292.596v -3.80489" fill="none" stroke="black"/>
<path d="M97.1339,292.596v -3.80489" fill="none" stroke="black"/>
<path d="M92.4676,283.083v -20.5364" fill="none" stroke="black"/>
<path d="M92.4676,298.303v 20.5364" fill="none" stroke="black"/>
<path d="M90.5652,262.547h 3.80489" fill="none" stroke="black"/>
<path d="M90.5652,318.839h 3.80489" fill="none" stroke="black"/>
<path d="M78.0458,300.257h -0.649051" fill="none" stroke="black"/>
<path d="M85.6556,300.257h 0.649051" fill="none" stroke="black"/>
<path d="M77.3967,302.159v -3.80489" fill="none" stroke="black"/>
<path d="M86.3046,302.159v -3.80489" fill="none" stroke="black"/>
<path d="M81.8507,292.647v -25.3787" fill="none" stroke="black"/>
<path d="M81.8507,307.867v 25.3787" fill="none" stroke="black"/>
<path d="M79.9482,267.268h 3.80489" fill="none" stroke="black"/>
<path d="M79.9482,333.245h 3.80489" fill="none" stroke="black"/>
<g fill="black">
<polygon points=" 510.931, 198.1 518.541, 213.32 503.321, 213.32"/>
<polygon points=" 442.05, 207.543 449.66, 222.762 434.441, 222.762"/>
<polygon points=" 382.621, 216.138 390.231, 231.358 375.012, 231.358"/>
<polygon points=" 331.997, 224.552 339.606, 239.771 324.387, 239.771"/>
<polygon points=" 287.716, 231.27 295.326, 246.49 280.106, 246.49"/>
<polygon points=" 249.262, 237.021 256.872, 252.24 241.652, 252.24"/>
<polygon points=" 215.469, 242.831 223.079, 258.051 207.859, 258.051"/>
<polygon points=" 186.337, 249.127 193.947, 264.346 178.727, 264.346"/>
<polygon points=" 161.219, 254.09 168.829, 269.31 153.609, 269.31"/>
<polygon points=" 139.726, 260.567 147.336, 275.786 132.116, 275.786"/>
<polygon points=" 121.341, 270.07 128.95, 285.289 113.731, 285.289"/>
<polygon points=" 105.415, 276.244 113.025, 291.463 97.8054, 291.463"/>
<polygon points=" 92.4676, 283.083 100.077, 298.303 84.8578, 298.303"/>
<polygon points=" 81.8507, 292.647 89.4605, 307.867 74.2409, 307.867"/>
</g>
<text xml:space="preserve" x="47.1099" y="405.221" fill="black" font-size="13.0425" font-family="Times" font-style="italic">Non-symmetric symbols should be used carefully in plotting.These two graphs show how misleading
</text>
<text xml:space="preserve" x="47.1099" y="416.636" fill="black" font-size="13.0425" font-family="Times" font-style="italic">a careless use of symbols can be. The two plots represent the same data sets but because of a bad
</text>
<text xml:space="preserve" x="47.1099" y="429.002" fill="black" font-size="13.0425" font-family="Times" font-style="italic">symbol choice, the two plots on the top appear further apart than for the bottom example.
</text></svg>
