<?xml version="1.0" standalone="no"?>
<svg width="567.429" height="336.669" viewBox="0 0 567.429 336.669" xmlns="http://www.w3.org/2000/svg" shape-rendering="crispEdges">
<title>
./old_svg_pro/temp_mathmoreIntegration_pro.svg
</title>
<desc>
Creator: ROOT Version 6.33.01
CreationDate: Wed Jul  3 13:19:09 2024</desc>
<defs>
</defs>
<rect x="0.5" y="0" width="566.929" height="336.169" fill="white"/>
<rect x="6.16929" y="3.36169" width="272.126" height="329.446" fill="white"/>
<rect x="33.3819" y="36.3063" width="217.701" height="263.557" fill="white"/>
<rect x="33.3819" y="36.3063" width="217.701" height="263.557" fill="none" stroke="black"/>
<rect x="33.3819" y="36.3063" width="217.701" height="263.557" fill="white"/>
<rect x="33.3819" y="36.3063" width="217.701" height="263.557" fill="none" stroke="black"/>
<path d="M33.3819,299.409h 2.17701v -0.471744h 2.17701v -0.490517h 2.17701v -0.510406h 2.17701v -0.531499h 2.17701v -0.55389h 2.17701v -0.577687h 2.17701v -0.603004h 2.17701v -0.629971h 2.17701v -0.658729h 2.17701v -0.689434h 2.17701v -0.722258h
 2.17701v -0.757392h 2.17701v -0.79505h 2.17701v -0.835467h 2.17701v -0.878906h 2.17701v -0.925659h 2.17701v -0.976052h 2.17701v -1.03045h 2.17701v -1.08926h 2.17701v -1.15294h 2.17701v -1.22199h 2.17701v -1.297h 2.17701v -1.37859h 2.17701v -1.46749h
 2.17701v -1.5645h 2.17701v -1.67051h 2.17701v -1.78652h 2.17701v -1.91363h 2.17701v -2.05306h 2.17701v -2.20615h 2.17701v -2.37434h 2.17701v -2.55916h 2.17701v -2.76223h 2.17701v -2.98516h 2.17701v -3.22949h 2.17701v -3.49659h 2.17701v -3.78745h
 2.17701v -4.10241h 2.17701v -4.44091h 2.17701v -4.801h 2.17701v -5.17889h 2.17701v -5.56842h 2.17701v -5.96064h 2.17701v -6.34357h 2.17701v -6.70232h 2.17701v -7.01986h 2.17701v -7.27845h 2.17701v -7.46167h 2.17701v -7.55678h 2.17701v -7.55678h
 2.17701v -7.46167h 2.17701v -7.27845h 2.17701v -7.01986h 2.17701v -6.70232h 2.17701v -6.34357h 2.17701v -5.96064h 2.17701v -5.56842h 2.17701v -5.17889h 2.17701v -4.801h 2.17701v -4.44091h 2.17701v -4.10241h 2.17701v -3.78745h 2.17701v -3.49659h
 2.17701v -3.22949h 2.17701v -2.98516h 2.17701v -2.76223h 2.17701v -2.55916h 2.17701v -2.37434h 2.17701v -2.20615h 2.17701v -2.05306h 2.17701v -1.91363h 2.17701v -1.78652h 2.17701v -1.67051h 2.17701v -1.5645h 2.17701v -1.46749h 2.17701v -1.37859h
 2.17701v -1.297h 2.17701v -1.22199h 2.17701v -1.15294h 2.17701v -1.08926h 2.17701v -1.03045h 2.17701v -0.976052h 2.17701v -0.925659h 2.17701v -0.878906h 2.17701v -0.835467h 2.17701v -0.79505h 2.17701v -0.757392h 2.17701v -0.722258h 2.17701v
 -0.689434h 2.17701v -0.658729h 2.17701v -0.629971h 2.17701v -0.603004h 2.17701v -0.577687h 2.17701v -0.55389h 2.17701v -0.531499h 2.17701v -0.510406h 2.17701v -0.490517h 2.17701v -0.471744h 2.17701v -0.454006h 2.17701" fill="none" stroke="black"/>
<path d="M33.3819,299.863h 217.701" fill="none" stroke="black"/>
<path d="M33.3819,291.956v 7.9067" fill="none" stroke="black"/>
<path d="M38.8244,295.909v 3.95335" fill="none" stroke="black"/>
<path d="M44.2669,295.909v 3.95335" fill="none" stroke="black"/>
<path d="M49.7094,295.909v 3.95335" fill="none" stroke="black"/>
<path d="M55.152,295.909v 3.95335" fill="none" stroke="black"/>
<path d="M60.5945,291.956v 7.9067" fill="none" stroke="black"/>
<path d="M66.037,295.909v 3.95335" fill="none" stroke="black"/>
<path d="M71.4795,295.909v 3.95335" fill="none" stroke="black"/>
<path d="M76.9221,295.909v 3.95335" fill="none" stroke="black"/>
<path d="M82.3646,295.909v 3.95335" fill="none" stroke="black"/>
<path d="M87.8071,291.956v 7.9067" fill="none" stroke="black"/>
<path d="M93.2496,295.909v 3.95335" fill="none" stroke="black"/>
<path d="M98.6921,295.909v 3.95335" fill="none" stroke="black"/>
<path d="M104.135,295.909v 3.95335" fill="none" stroke="black"/>
<path d="M109.577,295.909v 3.95335" fill="none" stroke="black"/>
<path d="M115.02,291.956v 7.9067" fill="none" stroke="black"/>
<path d="M120.462,295.909v 3.95335" fill="none" stroke="black"/>
<path d="M125.905,295.909v 3.95335" fill="none" stroke="black"/>
<path d="M131.347,295.909v 3.95335" fill="none" stroke="black"/>
<path d="M136.79,295.909v 3.95335" fill="none" stroke="black"/>
<path d="M142.232,291.956v 7.9067" fill="none" stroke="black"/>
<path d="M147.675,295.909v 3.95335" fill="none" stroke="black"/>
<path d="M153.117,295.909v 3.95335" fill="none" stroke="black"/>
<path d="M158.56,295.909v 3.95335" fill="none" stroke="black"/>
<path d="M164.002,295.909v 3.95335" fill="none" stroke="black"/>
<path d="M169.445,291.956v 7.9067" fill="none" stroke="black"/>
<path d="M174.887,295.909v 3.95335" fill="none" stroke="black"/>
<path d="M180.33,295.909v 3.95335" fill="none" stroke="black"/>
<path d="M185.772,295.909v 3.95335" fill="none" stroke="black"/>
<path d="M191.215,295.909v 3.95335" fill="none" stroke="black"/>
<path d="M196.657,291.956v 7.9067" fill="none" stroke="black"/>
<path d="M202.1,295.909v 3.95335" fill="none" stroke="black"/>
<path d="M207.543,295.909v 3.95335" fill="none" stroke="black"/>
<path d="M212.985,295.909v 3.95335" fill="none" stroke="black"/>
<path d="M218.428,295.909v 3.95335" fill="none" stroke="black"/>
<path d="M223.87,291.956v 7.9067" fill="none" stroke="black"/>
<path d="M229.313,295.909v 3.95335" fill="none" stroke="black"/>
<path d="M234.755,295.909v 3.95335" fill="none" stroke="black"/>
<path d="M240.198,295.909v 3.95335" fill="none" stroke="black"/>
<path d="M245.64,295.909v 3.95335" fill="none" stroke="black"/>
<path d="M251.083,291.956v 7.9067" fill="none" stroke="black"/>
<text xml:space="preserve" x="32.55" y="310.529" fill="black" font-size="9.23799" font-family="Helvetica">2
</text>
<text xml:space="preserve" x="28.2767" y="310.529" fill="black" font-size="9.23799" font-family="Times">&#8722;
</text>
<text xml:space="preserve" x="56.0534" y="310.529" fill="black" font-size="9.23799" font-family="Helvetica">1.5
</text>
<text xml:space="preserve" x="51.78" y="310.529" fill="black" font-size="9.23799" font-family="Times">&#8722;
</text>
<text xml:space="preserve" x="88.1034" y="310.529" fill="black" font-size="9.23799" font-family="Helvetica">1
</text>
<text xml:space="preserve" x="83.83" y="310.529" fill="black" font-size="9.23799" font-family="Times">&#8722;
</text>
<text xml:space="preserve" x="110.894" y="310.529" fill="black" font-size="9.23799" font-family="Helvetica">0.5
</text>
<text xml:space="preserve" x="106.621" y="310.529" fill="black" font-size="9.23799" font-family="Times">&#8722;
</text>
<text xml:space="preserve" x="139.383" y="310.529" fill="black" font-size="9.23799" font-family="Helvetica">0
</text>
<text xml:space="preserve" x="162.887" y="310.529" fill="black" font-size="9.23799" font-family="Helvetica">0.5
</text>
<text xml:space="preserve" x="194.225" y="310.529" fill="black" font-size="9.23799" font-family="Helvetica">1
</text>
<text xml:space="preserve" x="217.728" y="310.529" fill="black" font-size="9.23799" font-family="Helvetica">1.5
</text>
<text xml:space="preserve" x="248.353" y="310.529" fill="black" font-size="9.23799" font-family="Helvetica">2
</text>
<path d="M33.3819,299.863v -263.557" fill="none" stroke="black"/>
<path d="M39.9129,299.863h -6.53102" fill="none" stroke="black"/>
<path d="M36.6474,293.915h -3.26551" fill="none" stroke="black"/>
<path d="M36.6474,287.967h -3.26551" fill="none" stroke="black"/>
<path d="M36.6474,282.02h -3.26551" fill="none" stroke="black"/>
<path d="M36.6474,276.072h -3.26551" fill="none" stroke="black"/>
<path d="M39.9129,270.124h -6.53102" fill="none" stroke="black"/>
<path d="M36.6474,264.176h -3.26551" fill="none" stroke="black"/>
<path d="M36.6474,258.229h -3.26551" fill="none" stroke="black"/>
<path d="M36.6474,252.281h -3.26551" fill="none" stroke="black"/>
<path d="M36.6474,246.333h -3.26551" fill="none" stroke="black"/>
<path d="M39.9129,240.386h -6.53102" fill="none" stroke="black"/>
<path d="M36.6474,234.438h -3.26551" fill="none" stroke="black"/>
<path d="M36.6474,228.49h -3.26551" fill="none" stroke="black"/>
<path d="M36.6474,222.542h -3.26551" fill="none" stroke="black"/>
<path d="M36.6474,216.595h -3.26551" fill="none" stroke="black"/>
<path d="M39.9129,210.647h -6.53102" fill="none" stroke="black"/>
<path d="M36.6474,204.699h -3.26551" fill="none" stroke="black"/>
<path d="M36.6474,198.752h -3.26551" fill="none" stroke="black"/>
<path d="M36.6474,192.804h -3.26551" fill="none" stroke="black"/>
<path d="M36.6474,186.856h -3.26551" fill="none" stroke="black"/>
<path d="M39.9129,180.908h -6.53102" fill="none" stroke="black"/>
<path d="M36.6474,174.961h -3.26551" fill="none" stroke="black"/>
<path d="M36.6474,169.013h -3.26551" fill="none" stroke="black"/>
<path d="M36.6474,163.065h -3.26551" fill="none" stroke="black"/>
<path d="M36.6474,157.117h -3.26551" fill="none" stroke="black"/>
<path d="M39.9129,151.17h -6.53102" fill="none" stroke="black"/>
<path d="M36.6474,145.222h -3.26551" fill="none" stroke="black"/>
<path d="M36.6474,139.274h -3.26551" fill="none" stroke="black"/>
<path d="M36.6474,133.327h -3.26551" fill="none" stroke="black"/>
<path d="M36.6474,127.379h -3.26551" fill="none" stroke="black"/>
<path d="M39.9129,121.431h -6.53102" fill="none" stroke="black"/>
<path d="M36.6474,115.483h -3.26551" fill="none" stroke="black"/>
<path d="M36.6474,109.536h -3.26551" fill="none" stroke="black"/>
<path d="M36.6474,103.588h -3.26551" fill="none" stroke="black"/>
<path d="M36.6474,97.6403h -3.26551" fill="none" stroke="black"/>
<path d="M39.9129,91.6926h -6.53102" fill="none" stroke="black"/>
<path d="M36.6474,85.7449h -3.26551" fill="none" stroke="black"/>
<path d="M36.6474,79.7971h -3.26551" fill="none" stroke="black"/>
<path d="M36.6474,73.8494h -3.26551" fill="none" stroke="black"/>
<path d="M36.6474,67.9017h -3.26551" fill="none" stroke="black"/>
<path d="M39.9129,61.954h -6.53102" fill="none" stroke="black"/>
<path d="M39.9129,61.954h -6.53102" fill="none" stroke="black"/>
<path d="M36.6474,56.0062h -3.26551" fill="none" stroke="black"/>
<path d="M36.6474,50.0585h -3.26551" fill="none" stroke="black"/>
<path d="M36.6474,44.1108h -3.26551" fill="none" stroke="black"/>
<path d="M36.6474,38.1631h -3.26551" fill="none" stroke="black"/>
<text xml:space="preserve" x="26.8522" y="303.407" fill="black" font-size="9.23799" font-family="Helvetica">0
</text>
<text xml:space="preserve" x="21.1545" y="273.493" fill="black" font-size="9.23799" font-family="Helvetica">0.1
</text>
<text xml:space="preserve" x="19.73" y="244.292" fill="black" font-size="9.23799" font-family="Helvetica">0.2
</text>
<text xml:space="preserve" x="19.73" y="214.379" fill="black" font-size="9.23799" font-family="Helvetica">0.3
</text>
<text xml:space="preserve" x="19.73" y="184.466" fill="black" font-size="9.23799" font-family="Helvetica">0.4
</text>
<text xml:space="preserve" x="19.73" y="154.552" fill="black" font-size="9.23799" font-family="Helvetica">0.5
</text>
<text xml:space="preserve" x="19.73" y="124.639" fill="black" font-size="9.23799" font-family="Helvetica">0.6
</text>
<text xml:space="preserve" x="19.73" y="95.4378" fill="black" font-size="9.23799" font-family="Helvetica">0.7
</text>
<text xml:space="preserve" x="19.73" y="65.5245" fill="black" font-size="9.23799" font-family="Helvetica">0.8
</text>
<path d="M33.3819,299.409h 2.17701v -0.471744h 2.17701v -0.490517h 2.17701v -0.510406h 2.17701v -0.531499h 2.17701v -0.55389h 2.17701v -0.577687h 2.17701v -0.603004h 2.17701v -0.629971h 2.17701v -0.658729h 2.17701v -0.689434h 2.17701v -0.722258h
 2.17701v -0.757392h 2.17701v -0.79505h 2.17701v -0.835467h 2.17701v -0.878906h 2.17701v -0.925659h 2.17701v -0.976052h 2.17701v -1.03045h 2.17701v -1.08926h 2.17701v -1.15294h 2.17701v -1.22199h 2.17701v -1.297h 2.17701v -1.37859h 2.17701v -1.46749h
 2.17701v -1.5645h 2.17701v -1.67051h 2.17701v -1.78652h 2.17701v -1.91363h 2.17701v -2.05306h 2.17701v -2.20615h 2.17701v -2.37434h 2.17701v -2.55916h 2.17701v -2.76223h 2.17701v -2.98516h 2.17701v -3.22949h 2.17701v -3.49659h 2.17701v -3.78745h
 2.17701v -4.10241h 2.17701v -4.44091h 2.17701v -4.801h 2.17701v -5.17889h 2.17701v -5.56842h 2.17701v -5.96064h 2.17701v -6.34357h 2.17701v -6.70232h 2.17701v -7.01986h 2.17701v -7.27845h 2.17701v -7.46167h 2.17701v -7.55678h 2.17701v -7.55678h
 2.17701v -7.46167h 2.17701v -7.27845h 2.17701v -7.01986h 2.17701v -6.70232h 2.17701v -6.34357h 2.17701v -5.96064h 2.17701v -5.56842h 2.17701v -5.17889h 2.17701v -4.801h 2.17701v -4.44091h 2.17701v -4.10241h 2.17701v -3.78745h 2.17701v -3.49659h
 2.17701v -3.22949h 2.17701v -2.98516h 2.17701v -2.76223h 2.17701v -2.55916h 2.17701v -2.37434h 2.17701v -2.20615h 2.17701v -2.05306h 2.17701v -1.91363h 2.17701v -1.78652h 2.17701v -1.67051h 2.17701v -1.5645h 2.17701v -1.46749h 2.17701v -1.37859h
 2.17701v -1.297h 2.17701v -1.22199h 2.17701v -1.15294h 2.17701v -1.08926h 2.17701v -1.03045h 2.17701v -0.976052h 2.17701v -0.925659h 2.17701v -0.878906h 2.17701v -0.835467h 2.17701v -0.79505h 2.17701v -0.757392h 2.17701v -0.722258h 2.17701v
 -0.689434h 2.17701v -0.658729h 2.17701v -0.629971h 2.17701v -0.603004h 2.17701v -0.577687h 2.17701v -0.55389h 2.17701v -0.531499h 2.17701v -0.510406h 2.17701v -0.490517h 2.17701v -0.471744h 2.17701v -0.454006h 2.17701" fill="none" stroke="#0000ff"
 stroke-dasharray=" 3, 3"/>
<path d="M33.3819,299.409h 2.17701v -0.471744h 2.17701v -0.490517h 2.17701v -0.510406h 2.17701v -0.531499h 2.17701v -0.55389h 2.17701v -0.577687h 2.17701v -0.603004h 2.17701v -0.629971h 2.17701v -0.658729h 2.17701v -0.689434h 2.17701v -0.722258h
 2.17701v -0.757392h 2.17701v -0.79505h 2.17701v -0.835467h 2.17701v -0.878906h 2.17701v -0.925659h 2.17701v -0.976052h 2.17701v -1.03045h 2.17701v -1.08926h 2.17701v -1.15294h 2.17701v -1.22199h 2.17701v -1.297h 2.17701v -1.37859h 2.17701v -1.46749h
 2.17701v -1.5645h 2.17701v -1.67051h 2.17701v -1.78652h 2.17701v -1.91363h 2.17701v -2.05306h 2.17701v -2.20615h 2.17701v -2.37434h 2.17701v -2.55916h 2.17701v -2.76223h 2.17701v -2.98516h 2.17701v -3.22949h 2.17701v -3.49659h 2.17701v -3.78745h
 2.17701v -4.10241h 2.17701v -4.44091h 2.17701v -4.801h 2.17701v -5.17889h 2.17701v -5.56842h 2.17701v -5.96064h 2.17701v -6.34357h 2.17701v -6.70232h 2.17701v -7.01986h 2.17701v -7.27845h 2.17701v -7.46167h 2.17701v -7.55678h 2.17701v -7.55678h
 2.17701v -7.46167h 2.17701v -7.27845h 2.17701v -7.01986h 2.17701v -6.70232h 2.17701v -6.34357h 2.17701v -5.96064h 2.17701v -5.56842h 2.17701v -5.17889h 2.17701v -4.801h 2.17701v -4.44091h 2.17701v -4.10241h 2.17701v -3.78745h 2.17701v -3.49659h
 2.17701v -3.22949h 2.17701v -2.98516h 2.17701v -2.76223h 2.17701v -2.55916h 2.17701v -2.37434h 2.17701v -2.20615h 2.17701v -2.05306h 2.17701v -1.91363h 2.17701v -1.78652h 2.17701v -1.67051h 2.17701v -1.5645h 2.17701v -1.46749h 2.17701v -1.37859h
 2.17701v -1.297h 2.17701v -1.22199h 2.17701v -1.15294h 2.17701v -1.08926h 2.17701v -1.03045h 2.17701v -0.976052h 2.17701v -0.925659h 2.17701v -0.878906h 2.17701v -0.835467h 2.17701v -0.79505h 2.17701v -0.757392h 2.17701v -0.722258h 2.17701v
 -0.689434h 2.17701v -0.658729h 2.17701v -0.629971h 2.17701v -0.603004h 2.17701v -0.577687h 2.17701v -0.55389h 2.17701v -0.531499h 2.17701v -0.510406h 2.17701v -0.490517h 2.17701v -0.471744h 2.17701v -0.454006h 2.17701" fill="none" stroke="#ff0000"
 stroke-dasharray=" 1, 2"/>
<text xml:space="preserve" x="66.0245" y="17.8056" fill="black" font-size="12.1715" font-family="Helvetica">BreitWigner - the cumulative
</text>
<rect x="289.634" y="3.36169" width="272.126" height="329.446" fill="white"/>
<rect x="316.846" y="36.3063" width="217.701" height="263.557" fill="white"/>
<rect x="316.846" y="36.3063" width="217.701" height="263.557" fill="none" stroke="black"/>
<rect x="316.846" y="36.3063" width="217.701" height="263.557" fill="white"/>
<rect x="316.846" y="36.3063" width="217.701" height="263.557" fill="none" stroke="black"/>
<path d="M317.935,203.476v -0.0792619" fill="none" stroke="#0000ff"/>
<path d="M317.935,203.397v -0.0792619" fill="none" stroke="#0000ff"/>
<path d="M316.846,203.397h 1.0885" fill="none" stroke="#0000ff"/>
<path d="M317.935,203.397h 1.0885" fill="none" stroke="#0000ff"/>
<g stroke="black" stroke-width="1" fill="none">
<line x1="316.935" y1="203.397" x2="317.935" y2="203.397"/>
</g>
<path d="M320.112,201.48v -0.161621" fill="none" stroke="#0000ff"/>
<path d="M320.112,201.318v -0.161621" fill="none" stroke="#0000ff"/>
<path d="M319.023,201.318h 1.0885" fill="none" stroke="#0000ff"/>
<path d="M320.112,201.318h 1.0885" fill="none" stroke="#0000ff"/>
<g stroke="black" stroke-width="1" fill="none">
<line x1="319.112" y1="201.318" x2="320.112" y2="201.318"/>
</g>
<path d="M322.289,200.653v -0.247257" fill="none" stroke="#0000ff"/>
<path d="M322.289,200.406v -0.247257" fill="none" stroke="#0000ff"/>
<path d="M321.2,200.406h 1.0885" fill="none" stroke="#0000ff"/>
<path d="M322.289,200.406h 1.0885" fill="none" stroke="#0000ff"/>
<g stroke="black" stroke-width="1" fill="none">
<line x1="321.289" y1="200.406" x2="322.289" y2="200.406"/>
</g>
<path d="M324.466,200.336v -0.336366" fill="none" stroke="#0000ff"/>
<path d="M324.466,200v -0.336366" fill="none" stroke="#0000ff"/>
<path d="M323.377,200h 1.0885" fill="none" stroke="#0000ff"/>
<path d="M324.466,200h 1.0885" fill="none" stroke="#0000ff"/>
<g stroke="black" stroke-width="1" fill="none">
<line x1="323.466" y1="200" x2="324.466" y2="200"/>
</g>
<path d="M326.643,200.226v -0.429157" fill="none" stroke="#0000ff"/>
<path d="M326.643,199.797v -0.429157" fill="none" stroke="#0000ff"/>
<path d="M325.555,199.797h 1.0885" fill="none" stroke="#0000ff"/>
<path d="M326.643,199.797h 1.0885" fill="none" stroke="#0000ff"/>
<g stroke="black" stroke-width="1" fill="none">
<line x1="325.643" y1="199.797" x2="326.643" y2="199.797"/>
</g>
<path d="M328.82,204.785v -0.525857" fill="none" stroke="#0000ff"/>
<path d="M328.82,204.259v -0.525857" fill="none" stroke="#0000ff"/>
<path d="M327.732,204.259h 1.0885" fill="none" stroke="#0000ff"/>
<path d="M328.82,204.259h 1.0885" fill="none" stroke="#0000ff"/>
<g stroke="black" stroke-width="1" fill="none">
<line x1="327.82" y1="204.259" x2="328.82" y2="204.259"/>
</g>
<path d="M330.997,192.717v -0.626711" fill="none" stroke="#0000ff"/>
<path d="M330.997,192.091v -0.626711" fill="none" stroke="#0000ff"/>
<path d="M329.909,192.091h 1.0885" fill="none" stroke="#0000ff"/>
<path d="M330.997,192.091h 1.0885" fill="none" stroke="#0000ff"/>
<g stroke="black" stroke-width="1" fill="none">
<line x1="329.997" y1="192.091" x2="330.997" y2="192.091"/>
</g>
<path d="M333.174,194.851v -0.731986" fill="none" stroke="#0000ff"/>
<path d="M333.174,194.119v -0.731986" fill="none" stroke="#0000ff"/>
<path d="M332.086,194.119h 1.0885" fill="none" stroke="#0000ff"/>
<path d="M333.174,194.119h 1.0885" fill="none" stroke="#0000ff"/>
<g stroke="black" stroke-width="1" fill="none">
<line x1="332.174" y1="194.119" x2="333.174" y2="194.119"/>
</g>
<path d="M335.351,207.535v -0.841969" fill="none" stroke="#0000ff"/>
<path d="M335.351,206.693v -0.841969" fill="none" stroke="#0000ff"/>
<path d="M334.263,206.693h 1.0885" fill="none" stroke="#0000ff"/>
<path d="M335.351,206.693h 1.0885" fill="none" stroke="#0000ff"/>
<g stroke="black" stroke-width="1" fill="none">
<line x1="334.351" y1="206.693" x2="335.351" y2="206.693"/>
</g>
<path d="M337.528,206.838v -0.956972" fill="none" stroke="#0000ff"/>
<path d="M337.528,205.881v -0.956972" fill="none" stroke="#0000ff"/>
<path d="M336.44,205.881h 1.0885" fill="none" stroke="#0000ff"/>
<path d="M337.528,205.881h 1.0885" fill="none" stroke="#0000ff"/>
<g stroke="black" stroke-width="1" fill="none">
<line x1="336.528" y1="205.881" x2="337.528" y2="205.881"/>
</g>
<path d="M339.705,208.581v -1.07734" fill="none" stroke="#0000ff"/>
<path d="M339.705,207.504v -1.07734" fill="none" stroke="#0000ff"/>
<path d="M338.617,207.504h 1.0885" fill="none" stroke="#0000ff"/>
<path d="M339.705,207.504h 1.0885" fill="none" stroke="#0000ff"/>
<g stroke="black" stroke-width="1" fill="none">
<line x1="338.705" y1="207.504" x2="339.705" y2="207.504"/>
</g>
<path d="M341.882,199.784v -1.20343" fill="none" stroke="#0000ff"/>
<path d="M341.882,198.58v -1.20343" fill="none" stroke="#0000ff"/>
<path d="M340.794,198.58h 1.0885" fill="none" stroke="#0000ff"/>
<path d="M341.882,198.58h 1.0885" fill="none" stroke="#0000ff"/>
<g stroke="black" stroke-width="1" fill="none">
<line x1="340.882" y1="198.58" x2="341.882" y2="198.58"/>
</g>
<path d="M344.059,208.028v -1.33566" fill="none" stroke="#0000ff"/>
<path d="M344.059,206.693v -1.33566" fill="none" stroke="#0000ff"/>
<path d="M342.971,206.693h 1.0885" fill="none" stroke="#0000ff"/>
<path d="M344.059,206.693h 1.0885" fill="none" stroke="#0000ff"/>
<g stroke="black" stroke-width="1" fill="none">
<line x1="343.059" y1="206.693" x2="344.059" y2="206.693"/>
</g>
<path d="M346.236,206.545v -1.47446" fill="none" stroke="#0000ff"/>
<path d="M346.236,205.07v -1.47446" fill="none" stroke="#0000ff"/>
<path d="M345.148,205.07h 1.0885" fill="none" stroke="#0000ff"/>
<path d="M346.236,205.07h 1.0885" fill="none" stroke="#0000ff"/>
<g stroke="black" stroke-width="1" fill="none">
<line x1="345.236" y1="205.07" x2="346.236" y2="205.07"/>
</g>
<path d="M348.413,202.634v -1.62032" fill="none" stroke="#0000ff"/>
<path d="M348.413,201.014v -1.62032" fill="none" stroke="#0000ff"/>
<path d="M347.325,201.014h 1.0885" fill="none" stroke="#0000ff"/>
<path d="M348.413,201.014h 1.0885" fill="none" stroke="#0000ff"/>
<g stroke="black" stroke-width="1" fill="none">
<line x1="347.413" y1="201.014" x2="348.413" y2="201.014"/>
</g>
<path d="M350.59,197.92v -1.77376" fill="none" stroke="#0000ff"/>
<path d="M350.59,196.147v -1.77376" fill="none" stroke="#0000ff"/>
<path d="M349.502,196.147h 1.0885" fill="none" stroke="#0000ff"/>
<path d="M350.59,196.147h 1.0885" fill="none" stroke="#0000ff"/>
<g stroke="black" stroke-width="1" fill="none">
<line x1="349.59" y1="196.147" x2="350.59" y2="196.147"/>
</g>
<path d="M352.767,198.082v -1.93537" fill="none" stroke="#0000ff"/>
<path d="M352.767,196.147v -1.93537" fill="none" stroke="#0000ff"/>
<path d="M351.679,196.147h 1.0885" fill="none" stroke="#0000ff"/>
<path d="M352.767,196.147h 1.0885" fill="none" stroke="#0000ff"/>
<g stroke="black" stroke-width="1" fill="none">
<line x1="351.767" y1="196.147" x2="352.767" y2="196.147"/>
</g>
<path d="M354.944,209.61v -2.10577" fill="none" stroke="#0000ff"/>
<path d="M354.944,207.504v -2.10577" fill="none" stroke="#0000ff"/>
<path d="M353.856,207.504h 1.0885" fill="none" stroke="#0000ff"/>
<path d="M354.944,207.504h 1.0885" fill="none" stroke="#0000ff"/>
<g stroke="black" stroke-width="1" fill="none">
<line x1="353.944" y1="207.504" x2="354.944" y2="207.504"/>
</g>
<path d="M357.121,196.81v -2.28567" fill="none" stroke="#0000ff"/>
<path d="M357.121,194.524v -2.28567" fill="none" stroke="#0000ff"/>
<path d="M356.033,194.524h 1.0885" fill="none" stroke="#0000ff"/>
<path d="M357.121,194.524h 1.0885" fill="none" stroke="#0000ff"/>
<g stroke="black" stroke-width="1" fill="none">
<line x1="356.121" y1="194.524" x2="357.121" y2="194.524"/>
</g>
<path d="M359.298,208.357v -2.47584" fill="none" stroke="#0000ff"/>
<path d="M359.298,205.881v -2.47584" fill="none" stroke="#0000ff"/>
<path d="M358.21,205.881h 1.0885" fill="none" stroke="#0000ff"/>
<path d="M359.298,205.881h 1.0885" fill="none" stroke="#0000ff"/>
<g stroke="black" stroke-width="1" fill="none">
<line x1="358.298" y1="205.881" x2="359.298" y2="205.881"/>
</g>
<path d="M361.475,202.069v -2.67712" fill="none" stroke="#0000ff"/>
<path d="M361.475,199.392v -2.67712" fill="none" stroke="#0000ff"/>
<path d="M360.387,199.392h 1.0885" fill="none" stroke="#0000ff"/>
<path d="M361.475,199.392h 1.0885" fill="none" stroke="#0000ff"/>
<g stroke="black" stroke-width="1" fill="none">
<line x1="360.475" y1="199.392" x2="361.475" y2="199.392"/>
</g>
<path d="M363.652,197.415v -2.89046" fill="none" stroke="#0000ff"/>
<path d="M363.652,194.524v -2.89046" fill="none" stroke="#0000ff"/>
<path d="M362.564,194.524h 1.0885" fill="none" stroke="#0000ff"/>
<path d="M363.652,194.524h 1.0885" fill="none" stroke="#0000ff"/>
<g stroke="black" stroke-width="1" fill="none">
<line x1="362.652" y1="194.524" x2="363.652" y2="194.524"/>
</g>
<path d="M365.829,205.753v -3.1169" fill="none" stroke="#0000ff"/>
<path d="M365.829,202.637v -3.1169" fill="none" stroke="#0000ff"/>
<path d="M364.741,202.637h 1.0885" fill="none" stroke="#0000ff"/>
<path d="M365.829,202.637h 1.0885" fill="none" stroke="#0000ff"/>
<g stroke="black" stroke-width="1" fill="none">
<line x1="364.829" y1="202.637" x2="365.829" y2="202.637"/>
</g>
<path d="M368.006,196.259v -3.35758" fill="none" stroke="#0000ff"/>
<path d="M368.006,192.902v -3.35758" fill="none" stroke="#0000ff"/>
<path d="M366.918,192.902h 1.0885" fill="none" stroke="#0000ff"/>
<path d="M368.006,192.902h 1.0885" fill="none" stroke="#0000ff"/>
<g stroke="black" stroke-width="1" fill="none">
<line x1="367.006" y1="192.902" x2="368.006" y2="192.902"/>
</g>
<path d="M370.183,209.495v -3.61378" fill="none" stroke="#0000ff"/>
<path d="M370.183,205.881v -3.61378" fill="none" stroke="#0000ff"/>
<path d="M369.095,205.881h 1.0885" fill="none" stroke="#0000ff"/>
<path d="M370.183,205.881h 1.0885" fill="none" stroke="#0000ff"/>
<g stroke="black" stroke-width="1" fill="none">
<line x1="369.183" y1="205.881" x2="370.183" y2="205.881"/>
</g>
<path d="M372.36,196.789v -3.88691" fill="none" stroke="#0000ff"/>
<path d="M372.36,192.902v -3.88691" fill="none" stroke="#0000ff"/>
<path d="M371.272,192.902h 1.0885" fill="none" stroke="#0000ff"/>
<path d="M372.36,192.902h 1.0885" fill="none" stroke="#0000ff"/>
<g stroke="black" stroke-width="1" fill="none">
<line x1="371.36" y1="192.902" x2="372.36" y2="192.902"/>
</g>
<path d="M374.537,210.06v -4.17856" fill="none" stroke="#0000ff"/>
<path d="M374.537,205.881v -4.17856" fill="none" stroke="#0000ff"/>
<path d="M373.449,205.881h 1.0885" fill="none" stroke="#0000ff"/>
<path d="M374.537,205.881h 1.0885" fill="none" stroke="#0000ff"/>
<g stroke="black" stroke-width="1" fill="none">
<line x1="373.537" y1="205.881" x2="374.537" y2="205.881"/>
</g>
<path d="M376.714,197.392v -4.49045" fill="none" stroke="#0000ff"/>
<path d="M376.714,192.902v -4.49045" fill="none" stroke="#0000ff"/>
<path d="M375.626,192.902h 1.0885" fill="none" stroke="#0000ff"/>
<path d="M376.714,192.902h 1.0885" fill="none" stroke="#0000ff"/>
<g stroke="black" stroke-width="1" fill="none">
<line x1="375.714" y1="192.902" x2="376.714" y2="192.902"/>
</g>
<path d="M378.891,200.971v -4.82454" fill="none" stroke="#0000ff"/>
<path d="M378.891,196.147v -4.82454" fill="none" stroke="#0000ff"/>
<path d="M377.803,196.147h 1.0885" fill="none" stroke="#0000ff"/>
<path d="M378.891,196.147h 1.0885" fill="none" stroke="#0000ff"/>
<g stroke="black" stroke-width="1" fill="none">
<line x1="377.891" y1="196.147" x2="378.891" y2="196.147"/>
</g>
<path d="M381.068,204.575v -5.18297" fill="none" stroke="#0000ff"/>
<path d="M381.068,199.392v -5.18297" fill="none" stroke="#0000ff"/>
<path d="M379.98,199.392h 1.0885" fill="none" stroke="#0000ff"/>
<path d="M381.068,199.392h 1.0885" fill="none" stroke="#0000ff"/>
<g stroke="black" stroke-width="1" fill="none">
<line x1="380.068" y1="199.392" x2="381.068" y2="199.392"/>
</g>
<path d="M383.245,198.47v -5.56813" fill="none" stroke="#0000ff"/>
<path d="M383.245,192.902v -5.56813" fill="none" stroke="#0000ff"/>
<path d="M382.157,192.902h 1.0885" fill="none" stroke="#0000ff"/>
<path d="M383.245,192.902h 1.0885" fill="none" stroke="#0000ff"/>
<g stroke="black" stroke-width="1" fill="none">
<line x1="382.245" y1="192.902" x2="383.245" y2="192.902"/>
</g>
<path d="M385.422,202.129v -5.98265" fill="none" stroke="#0000ff"/>
<path d="M385.422,196.147v -5.98265" fill="none" stroke="#0000ff"/>
<path d="M384.334,196.147h 1.0885" fill="none" stroke="#0000ff"/>
<path d="M385.422,196.147h 1.0885" fill="none" stroke="#0000ff"/>
<g stroke="black" stroke-width="1" fill="none">
<line x1="384.422" y1="196.147" x2="385.422" y2="196.147"/>
</g>
<path d="M387.599,202.576v -6.42944" fill="none" stroke="#0000ff"/>
<path d="M387.599,196.147v -6.42944" fill="none" stroke="#0000ff"/>
<path d="M386.511,196.147h 1.0885" fill="none" stroke="#0000ff"/>
<path d="M387.599,196.147h 1.0885" fill="none" stroke="#0000ff"/>
<g stroke="black" stroke-width="1" fill="none">
<line x1="386.599" y1="196.147" x2="387.599" y2="196.147"/>
</g>
<path d="M389.776,199.813v -6.91168" fill="none" stroke="#0000ff"/>
<path d="M389.776,192.902v -6.91168" fill="none" stroke="#0000ff"/>
<path d="M388.688,192.902h 1.0885" fill="none" stroke="#0000ff"/>
<path d="M389.776,192.902h 1.0885" fill="none" stroke="#0000ff"/>
<g stroke="black" stroke-width="1" fill="none">
<line x1="388.776" y1="192.902" x2="389.776" y2="192.902"/>
</g>
<path d="M391.953,206.824v -7.43284" fill="none" stroke="#0000ff"/>
<path d="M391.953,199.392v -7.43284" fill="none" stroke="#0000ff"/>
<path d="M390.865,199.392h 1.0885" fill="none" stroke="#0000ff"/>
<path d="M391.953,199.392h 1.0885" fill="none" stroke="#0000ff"/>
<g stroke="black" stroke-width="1" fill="none">
<line x1="390.953" y1="199.392" x2="391.953" y2="199.392"/>
</g>
<path d="M394.13,213.878v -7.99665" fill="none" stroke="#0000ff"/>
<path d="M394.13,205.881v -7.99665" fill="none" stroke="#0000ff"/>
<path d="M393.042,205.881h 1.0885" fill="none" stroke="#0000ff"/>
<path d="M394.13,205.881h 1.0885" fill="none" stroke="#0000ff"/>
<g stroke="black" stroke-width="1" fill="none">
<line x1="393.13" y1="205.881" x2="394.13" y2="205.881"/>
</g>
<path d="M396.307,207.999v -8.6071" fill="none" stroke="#0000ff"/>
<path d="M396.307,199.392v -8.6071" fill="none" stroke="#0000ff"/>
<path d="M395.219,199.392h 1.0885" fill="none" stroke="#0000ff"/>
<path d="M396.307,199.392h 1.0885" fill="none" stroke="#0000ff"/>
<g stroke="black" stroke-width="1" fill="none">
<line x1="395.307" y1="199.392" x2="396.307" y2="199.392"/>
</g>
<path d="M398.484,202.17v -9.26833" fill="none" stroke="#0000ff"/>
<path d="M398.484,192.902v -9.26833" fill="none" stroke="#0000ff"/>
<path d="M397.396,192.902h 1.0885" fill="none" stroke="#0000ff"/>
<path d="M398.484,192.902h 1.0885" fill="none" stroke="#0000ff"/>
<g stroke="black" stroke-width="1" fill="none">
<line x1="397.484" y1="192.902" x2="398.484" y2="192.902"/>
</g>
<path d="M400.661,209.376v -9.98454" fill="none" stroke="#0000ff"/>
<path d="M400.661,199.392v -9.98454" fill="none" stroke="#0000ff"/>
<path d="M399.573,199.392h 1.0885" fill="none" stroke="#0000ff"/>
<path d="M400.661,199.392h 1.0885" fill="none" stroke="#0000ff"/>
<g stroke="black" stroke-width="1" fill="none">
<line x1="399.661" y1="199.392" x2="400.661" y2="199.392"/>
</g>
<path d="M402.838,210.151v -10.7599" fill="none" stroke="#0000ff"/>
<path d="M402.838,199.392v -10.7599" fill="none" stroke="#0000ff"/>
<path d="M401.75,199.392h 1.0885" fill="none" stroke="#0000ff"/>
<path d="M402.838,199.392h 1.0885" fill="none" stroke="#0000ff"/>
<g stroke="black" stroke-width="1" fill="none">
<line x1="401.838" y1="199.392" x2="402.838" y2="199.392"/>
</g>
<path d="M405.015,217.48v -11.598" fill="none" stroke="#0000ff"/>
<path d="M405.015,205.881v -11.598" fill="none" stroke="#0000ff"/>
<path d="M403.927,205.881h 1.0885" fill="none" stroke="#0000ff"/>
<path d="M405.015,205.881h 1.0885" fill="none" stroke="#0000ff"/>
<g stroke="black" stroke-width="1" fill="none">
<line x1="404.015" y1="205.881" x2="405.015" y2="205.881"/>
</g>
<path d="M407.192,218.384v -12.5022" fill="none" stroke="#0000ff"/>
<path d="M407.192,205.881v -12.5022" fill="none" stroke="#0000ff"/>
<path d="M406.104,205.881h 1.0885" fill="none" stroke="#0000ff"/>
<path d="M407.192,205.881h 1.0885" fill="none" stroke="#0000ff"/>
<g stroke="black" stroke-width="1" fill="none">
<line x1="406.192" y1="205.881" x2="407.192" y2="205.881"/>
</g>
<path d="M409.369,219.356v -13.4743" fill="none" stroke="#0000ff"/>
<path d="M409.369,205.881v -13.4743" fill="none" stroke="#0000ff"/>
<path d="M408.281,205.881h 1.0885" fill="none" stroke="#0000ff"/>
<path d="M409.369,205.881h 1.0885" fill="none" stroke="#0000ff"/>
<g stroke="black" stroke-width="1" fill="none">
<line x1="408.369" y1="205.881" x2="409.369" y2="205.881"/>
</g>
<path d="M411.546,207.417v -14.515" fill="none" stroke="#0000ff"/>
<path d="M411.546,192.902v -14.515" fill="none" stroke="#0000ff"/>
<path d="M410.458,192.902h 1.0885" fill="none" stroke="#0000ff"/>
<path d="M411.546,192.902h 1.0885" fill="none" stroke="#0000ff"/>
<g stroke="black" stroke-width="1" fill="none">
<line x1="410.546" y1="192.902" x2="411.546" y2="192.902"/>
</g>
<path d="M413.723,221.504v -15.6224" fill="none" stroke="#0000ff"/>
<path d="M413.723,205.881v -15.6224" fill="none" stroke="#0000ff"/>
<path d="M412.635,205.881h 1.0885" fill="none" stroke="#0000ff"/>
<path d="M413.723,205.881h 1.0885" fill="none" stroke="#0000ff"/>
<g stroke="black" stroke-width="1" fill="none">
<line x1="412.723" y1="205.881" x2="413.723" y2="205.881"/>
</g>
<path d="M415.9,209.694v -16.7926" fill="none" stroke="#0000ff"/>
<path d="M415.9,192.902v -16.7926" fill="none" stroke="#0000ff"/>
<path d="M414.812,192.902h 1.0885" fill="none" stroke="#0000ff"/>
<path d="M415.9,192.902h 1.0885" fill="none" stroke="#0000ff"/>
<g stroke="black" stroke-width="1" fill="none">
<line x1="414.9" y1="192.902" x2="415.9" y2="192.902"/>
</g>
<path d="M418.077,236.879v -18.0181" fill="none" stroke="#0000ff"/>
<path d="M418.077,218.861v -18.0181" fill="none" stroke="#0000ff"/>
<path d="M416.989,218.861h 1.0885" fill="none" stroke="#0000ff"/>
<path d="M418.077,218.861h 1.0885" fill="none" stroke="#0000ff"/>
<g stroke="black" stroke-width="1" fill="none">
<line x1="417.077" y1="218.861" x2="418.077" y2="218.861"/>
</g>
<path d="M420.254,238.15v -19.2888" fill="none" stroke="#0000ff"/>
<path d="M420.254,218.861v -19.2888" fill="none" stroke="#0000ff"/>
<path d="M419.166,218.861h 1.0885" fill="none" stroke="#0000ff"/>
<path d="M420.254,218.861h 1.0885" fill="none" stroke="#0000ff"/>
<g stroke="black" stroke-width="1" fill="none">
<line x1="419.254" y1="218.861" x2="420.254" y2="218.861"/>
</g>
<path d="M422.431,226.473v -20.5915" fill="none" stroke="#0000ff"/>
<path d="M422.431,205.881v -20.5915" fill="none" stroke="#0000ff"/>
<path d="M421.343,205.881h 1.0885" fill="none" stroke="#0000ff"/>
<path d="M422.431,205.881h 1.0885" fill="none" stroke="#0000ff"/>
<g stroke="black" stroke-width="1" fill="none">
<line x1="421.431" y1="205.881" x2="422.431" y2="205.881"/>
</g>
<path d="M424.608,227.792v -21.9108" fill="none" stroke="#0000ff"/>
<path d="M424.608,205.881v -21.9108" fill="none" stroke="#0000ff"/>
<path d="M423.52,205.881h 1.0885" fill="none" stroke="#0000ff"/>
<path d="M424.608,205.881h 1.0885" fill="none" stroke="#0000ff"/>
<g stroke="black" stroke-width="1" fill="none">
<line x1="423.608" y1="205.881" x2="424.608" y2="205.881"/>
</g>
<path d="M426.785,229.112v -23.2301" fill="none" stroke="#0000ff"/>
<path d="M426.785,205.881v -23.2301" fill="none" stroke="#0000ff"/>
<path d="M425.697,205.881h 1.0885" fill="none" stroke="#0000ff"/>
<path d="M426.785,205.881h 1.0885" fill="none" stroke="#0000ff"/>
<g stroke="black" stroke-width="1" fill="none">
<line x1="425.785" y1="205.881" x2="426.785" y2="205.881"/>
</g>
<path d="M428.962,204.455v -24.5328" fill="none" stroke="#0000ff"/>
<path d="M428.962,179.922v -24.5328" fill="none" stroke="#0000ff"/>
<path d="M427.874,179.922h 1.0885" fill="none" stroke="#0000ff"/>
<path d="M428.962,179.922h 1.0885" fill="none" stroke="#0000ff"/>
<g stroke="black" stroke-width="1" fill="none">
<line x1="427.962" y1="179.922" x2="428.962" y2="179.922"/>
</g>
<path d="M431.139,231.685v -25.8035" fill="none" stroke="#0000ff"/>
<path d="M431.139,205.881v -25.8035" fill="none" stroke="#0000ff"/>
<path d="M430.051,205.881h 1.0885" fill="none" stroke="#0000ff"/>
<path d="M431.139,205.881h 1.0885" fill="none" stroke="#0000ff"/>
<g stroke="black" stroke-width="1" fill="none">
<line x1="430.139" y1="205.881" x2="431.139" y2="205.881"/>
</g>
<path d="M433.316,245.89v -27.029" fill="none" stroke="#0000ff"/>
<path d="M433.316,218.861v -27.029" fill="none" stroke="#0000ff"/>
<path d="M432.228,218.861h 1.0885" fill="none" stroke="#0000ff"/>
<path d="M433.316,218.861h 1.0885" fill="none" stroke="#0000ff"/>
<g stroke="black" stroke-width="1" fill="none">
<line x1="432.316" y1="218.861" x2="433.316" y2="218.861"/>
</g>
<path d="M435.493,221.101v -28.1991" fill="none" stroke="#0000ff"/>
<path d="M435.493,192.902v -28.1991" fill="none" stroke="#0000ff"/>
<path d="M434.405,192.902h 1.0885" fill="none" stroke="#0000ff"/>
<path d="M435.493,192.902h 1.0885" fill="none" stroke="#0000ff"/>
<g stroke="black" stroke-width="1" fill="none">
<line x1="434.493" y1="192.902" x2="435.493" y2="192.902"/>
</g>
<path d="M437.67,222.208v -29.3066" fill="none" stroke="#0000ff"/>
<path d="M437.67,192.902v -29.3066" fill="none" stroke="#0000ff"/>
<path d="M436.582,192.902h 1.0885" fill="none" stroke="#0000ff"/>
<path d="M437.67,192.902h 1.0885" fill="none" stroke="#0000ff"/>
<g stroke="black" stroke-width="1" fill="none">
<line x1="436.67" y1="192.902" x2="437.67" y2="192.902"/>
</g>
<path d="M439.847,249.208v -30.3472" fill="none" stroke="#0000ff"/>
<path d="M439.847,218.861v -30.3472" fill="none" stroke="#0000ff"/>
<path d="M438.759,218.861h 1.0885" fill="none" stroke="#0000ff"/>
<path d="M439.847,218.861h 1.0885" fill="none" stroke="#0000ff"/>
<g stroke="black" stroke-width="1" fill="none">
<line x1="438.847" y1="218.861" x2="439.847" y2="218.861"/>
</g>
<path d="M442.024,250.181v -31.3194" fill="none" stroke="#0000ff"/>
<path d="M442.024,218.861v -31.3194" fill="none" stroke="#0000ff"/>
<path d="M440.936,218.861h 1.0885" fill="none" stroke="#0000ff"/>
<path d="M442.024,218.861h 1.0885" fill="none" stroke="#0000ff"/>
<g stroke="black" stroke-width="1" fill="none">
<line x1="441.024" y1="218.861" x2="442.024" y2="218.861"/>
</g>
<path d="M444.201,225.125v -32.2235" fill="none" stroke="#0000ff"/>
<path d="M444.201,192.902v -32.2235" fill="none" stroke="#0000ff"/>
<path d="M443.113,192.902h 1.0885" fill="none" stroke="#0000ff"/>
<path d="M444.201,192.902h 1.0885" fill="none" stroke="#0000ff"/>
<g stroke="black" stroke-width="1" fill="none">
<line x1="443.201" y1="192.902" x2="444.201" y2="192.902"/>
</g>
<path d="M446.378,225.964v -33.0617" fill="none" stroke="#0000ff"/>
<path d="M446.378,192.902v -33.0617" fill="none" stroke="#0000ff"/>
<path d="M445.29,192.902h 1.0885" fill="none" stroke="#0000ff"/>
<path d="M446.378,192.902h 1.0885" fill="none" stroke="#0000ff"/>
<g stroke="black" stroke-width="1" fill="none">
<line x1="445.378" y1="192.902" x2="446.378" y2="192.902"/>
</g>
<path d="M448.555,252.698v -33.837" fill="none" stroke="#0000ff"/>
<path d="M448.555,218.861v -33.837" fill="none" stroke="#0000ff"/>
<path d="M447.467,218.861h 1.0885" fill="none" stroke="#0000ff"/>
<path d="M448.555,218.861h 1.0885" fill="none" stroke="#0000ff"/>
<g stroke="black" stroke-width="1" fill="none">
<line x1="447.555" y1="218.861" x2="448.555" y2="218.861"/>
</g>
<path d="M450.732,201.496v -34.5532" fill="none" stroke="#0000ff"/>
<path d="M450.732,166.942v -34.5532" fill="none" stroke="#0000ff"/>
<path d="M449.644,166.942h 1.0885" fill="none" stroke="#0000ff"/>
<path d="M450.732,166.942h 1.0885" fill="none" stroke="#0000ff"/>
<g stroke="black" stroke-width="1" fill="none">
<line x1="449.732" y1="166.942" x2="450.732" y2="166.942"/>
</g>
<path d="M452.909,228.116v -35.2145" fill="none" stroke="#0000ff"/>
<path d="M452.909,192.902v -35.2145" fill="none" stroke="#0000ff"/>
<path d="M451.821,192.902h 1.0885" fill="none" stroke="#0000ff"/>
<path d="M452.909,192.902h 1.0885" fill="none" stroke="#0000ff"/>
<g stroke="black" stroke-width="1" fill="none">
<line x1="451.909" y1="192.902" x2="452.909" y2="192.902"/>
</g>
<path d="M455.086,228.727v -35.8249" fill="none" stroke="#0000ff"/>
<path d="M455.086,192.902v -35.8249" fill="none" stroke="#0000ff"/>
<path d="M453.998,192.902h 1.0885" fill="none" stroke="#0000ff"/>
<path d="M455.086,192.902h 1.0885" fill="none" stroke="#0000ff"/>
<g stroke="black" stroke-width="1" fill="none">
<line x1="454.086" y1="192.902" x2="455.086" y2="192.902"/>
</g>
<path d="M457.263,229.291v -36.3887" fill="none" stroke="#0000ff"/>
<path d="M457.263,192.902v -36.3887" fill="none" stroke="#0000ff"/>
<path d="M456.175,192.902h 1.0885" fill="none" stroke="#0000ff"/>
<path d="M457.263,192.902h 1.0885" fill="none" stroke="#0000ff"/>
<g stroke="black" stroke-width="1" fill="none">
<line x1="456.263" y1="192.902" x2="457.263" y2="192.902"/>
</g>
<path d="M459.44,203.852v -36.9099" fill="none" stroke="#0000ff"/>
<path d="M459.44,166.942v -36.9099" fill="none" stroke="#0000ff"/>
<path d="M458.352,166.942h 1.0885" fill="none" stroke="#0000ff"/>
<path d="M459.44,166.942h 1.0885" fill="none" stroke="#0000ff"/>
<g stroke="black" stroke-width="1" fill="none">
<line x1="458.44" y1="166.942" x2="459.44" y2="166.942"/>
</g>
<path d="M461.617,204.335v -37.3921" fill="none" stroke="#0000ff"/>
<path d="M461.617,166.942v -37.3921" fill="none" stroke="#0000ff"/>
<path d="M460.529,166.942h 1.0885" fill="none" stroke="#0000ff"/>
<path d="M461.617,166.942h 1.0885" fill="none" stroke="#0000ff"/>
<g stroke="black" stroke-width="1" fill="none">
<line x1="460.617" y1="166.942" x2="461.617" y2="166.942"/>
</g>
<path d="M463.794,230.741v -37.8389" fill="none" stroke="#0000ff"/>
<path d="M463.794,192.902v -37.8389" fill="none" stroke="#0000ff"/>
<path d="M462.706,192.902h 1.0885" fill="none" stroke="#0000ff"/>
<path d="M463.794,192.902h 1.0885" fill="none" stroke="#0000ff"/>
<g stroke="black" stroke-width="1" fill="none">
<line x1="462.794" y1="192.902" x2="463.794" y2="192.902"/>
</g>
<path d="M465.971,231.155v -38.2534" fill="none" stroke="#0000ff"/>
<path d="M465.971,192.902v -38.2534" fill="none" stroke="#0000ff"/>
<path d="M464.883,192.902h 1.0885" fill="none" stroke="#0000ff"/>
<path d="M465.971,192.902h 1.0885" fill="none" stroke="#0000ff"/>
<g stroke="black" stroke-width="1" fill="none">
<line x1="464.971" y1="192.902" x2="465.971" y2="192.902"/>
</g>
<path d="M468.148,231.54v -38.6386" fill="none" stroke="#0000ff"/>
<path d="M468.148,192.902v -38.6386" fill="none" stroke="#0000ff"/>
<path d="M467.06,192.902h 1.0885" fill="none" stroke="#0000ff"/>
<path d="M468.148,192.902h 1.0885" fill="none" stroke="#0000ff"/>
<g stroke="black" stroke-width="1" fill="none">
<line x1="467.148" y1="192.902" x2="468.148" y2="192.902"/>
</g>
<path d="M470.326,257.858v -38.997" fill="none" stroke="#0000ff"/>
<path d="M470.326,218.861v -38.997" fill="none" stroke="#0000ff"/>
<path d="M469.237,218.861h 1.0885" fill="none" stroke="#0000ff"/>
<path d="M470.326,218.861h 1.0885" fill="none" stroke="#0000ff"/>
<g stroke="black" stroke-width="1" fill="none">
<line x1="469.326" y1="218.861" x2="470.326" y2="218.861"/>
</g>
<path d="M472.503,284.152v -39.3311" fill="none" stroke="#0000ff"/>
<path d="M472.503,244.821v -39.3311" fill="none" stroke="#0000ff"/>
<path d="M471.414,244.821h 1.0885" fill="none" stroke="#0000ff"/>
<path d="M472.503,244.821h 1.0885" fill="none" stroke="#0000ff"/>
<g stroke="black" stroke-width="1" fill="none">
<line x1="471.503" y1="244.821" x2="472.503" y2="244.821"/>
</g>
<path d="M474.68,258.504v -39.643" fill="none" stroke="#0000ff"/>
<path d="M474.68,218.861v -39.643" fill="none" stroke="#0000ff"/>
<path d="M473.591,218.861h 1.0885" fill="none" stroke="#0000ff"/>
<path d="M474.68,218.861h 1.0885" fill="none" stroke="#0000ff"/>
<g stroke="black" stroke-width="1" fill="none">
<line x1="473.68" y1="218.861" x2="474.68" y2="218.861"/>
</g>
<path d="M476.857,258.796v -39.9347" fill="none" stroke="#0000ff"/>
<path d="M476.857,218.861v -39.9347" fill="none" stroke="#0000ff"/>
<path d="M475.768,218.861h 1.0885" fill="none" stroke="#0000ff"/>
<path d="M476.857,218.861h 1.0885" fill="none" stroke="#0000ff"/>
<g stroke="black" stroke-width="1" fill="none">
<line x1="475.857" y1="218.861" x2="476.857" y2="218.861"/>
</g>
<path d="M479.034,129.272v -40.2078" fill="none" stroke="#0000ff"/>
<path d="M479.034,89.0644v -40.2078" fill="none" stroke="#0000ff"/>
<path d="M477.945,89.0644h 1.0885" fill="none" stroke="#0000ff"/>
<path d="M479.034,89.0644h 1.0885" fill="none" stroke="#0000ff"/>
<g stroke="black" stroke-width="1" fill="none">
<line x1="478.034" y1="89.0644" x2="479.034" y2="89.0644"/>
</g>
<path d="M481.211,259.325v -40.464" fill="none" stroke="#0000ff"/>
<path d="M481.211,218.861v -40.464" fill="none" stroke="#0000ff"/>
<path d="M480.122,218.861h 1.0885" fill="none" stroke="#0000ff"/>
<path d="M481.211,218.861h 1.0885" fill="none" stroke="#0000ff"/>
<g stroke="black" stroke-width="1" fill="none">
<line x1="480.211" y1="218.861" x2="481.211" y2="218.861"/>
</g>
<path d="M483.388,233.606v -40.7047" fill="none" stroke="#0000ff"/>
<path d="M483.388,192.902v -40.7047" fill="none" stroke="#0000ff"/>
<path d="M482.299,192.902h 1.0885" fill="none" stroke="#0000ff"/>
<path d="M483.388,192.902h 1.0885" fill="none" stroke="#0000ff"/>
<g stroke="black" stroke-width="1" fill="none">
<line x1="482.388" y1="192.902" x2="483.388" y2="192.902"/>
</g>
<path d="M485.565,259.792v -40.9311" fill="none" stroke="#0000ff"/>
<path d="M485.565,218.861v -40.9311" fill="none" stroke="#0000ff"/>
<path d="M484.476,218.861h 1.0885" fill="none" stroke="#0000ff"/>
<path d="M485.565,218.861h 1.0885" fill="none" stroke="#0000ff"/>
<g stroke="black" stroke-width="1" fill="none">
<line x1="484.565" y1="218.861" x2="485.565" y2="218.861"/>
</g>
<path d="M487.742,234.046v -41.1444" fill="none" stroke="#0000ff"/>
<path d="M487.742,192.902v -41.1444" fill="none" stroke="#0000ff"/>
<path d="M486.653,192.902h 1.0885" fill="none" stroke="#0000ff"/>
<path d="M487.742,192.902h 1.0885" fill="none" stroke="#0000ff"/>
<g stroke="black" stroke-width="1" fill="none">
<line x1="486.742" y1="192.902" x2="487.742" y2="192.902"/>
</g>
<path d="M489.919,234.248v -41.3457" fill="none" stroke="#0000ff"/>
<path d="M489.919,192.902v -41.3457" fill="none" stroke="#0000ff"/>
<path d="M488.83,192.902h 1.0885" fill="none" stroke="#0000ff"/>
<path d="M489.919,192.902h 1.0885" fill="none" stroke="#0000ff"/>
<g stroke="black" stroke-width="1" fill="none">
<line x1="488.919" y1="192.902" x2="489.919" y2="192.902"/>
</g>
<path d="M492.096,260.397v -41.5359" fill="none" stroke="#0000ff"/>
<path d="M492.096,218.861v -41.5359" fill="none" stroke="#0000ff"/>
<path d="M491.007,218.861h 1.0885" fill="none" stroke="#0000ff"/>
<path d="M492.096,218.861h 1.0885" fill="none" stroke="#0000ff"/>
<g stroke="black" stroke-width="1" fill="none">
<line x1="491.096" y1="218.861" x2="492.096" y2="218.861"/>
</g>
<path d="M494.273,260.577v -41.7158" fill="none" stroke="#0000ff"/>
<path d="M494.273,218.861v -41.7158" fill="none" stroke="#0000ff"/>
<path d="M493.184,218.861h 1.0885" fill="none" stroke="#0000ff"/>
<path d="M494.273,218.861h 1.0885" fill="none" stroke="#0000ff"/>
<g stroke="black" stroke-width="1" fill="none">
<line x1="493.273" y1="218.861" x2="494.273" y2="218.861"/>
</g>
<path d="M496.45,208.829v -41.8862" fill="none" stroke="#0000ff"/>
<path d="M496.45,166.942v -41.8862" fill="none" stroke="#0000ff"/>
<path d="M495.361,166.942h 1.0885" fill="none" stroke="#0000ff"/>
<path d="M496.45,166.942h 1.0885" fill="none" stroke="#0000ff"/>
<g stroke="black" stroke-width="1" fill="none">
<line x1="495.45" y1="166.942" x2="496.45" y2="166.942"/>
</g>
<path d="M498.627,234.95v -42.0478" fill="none" stroke="#0000ff"/>
<path d="M498.627,192.902v -42.0478" fill="none" stroke="#0000ff"/>
<path d="M497.538,192.902h 1.0885" fill="none" stroke="#0000ff"/>
<path d="M498.627,192.902h 1.0885" fill="none" stroke="#0000ff"/>
<g stroke="black" stroke-width="1" fill="none">
<line x1="497.627" y1="192.902" x2="498.627" y2="192.902"/>
</g>
<path d="M500.804,261.062v -42.2012" fill="none" stroke="#0000ff"/>
<path d="M500.804,218.861v -42.2012" fill="none" stroke="#0000ff"/>
<path d="M499.715,218.861h 1.0885" fill="none" stroke="#0000ff"/>
<path d="M500.804,218.861h 1.0885" fill="none" stroke="#0000ff"/>
<g stroke="black" stroke-width="1" fill="none">
<line x1="499.804" y1="218.861" x2="500.804" y2="218.861"/>
</g>
<path d="M502.981,235.249v -42.3471" fill="none" stroke="#0000ff"/>
<path d="M502.981,192.902v -42.3471" fill="none" stroke="#0000ff"/>
<path d="M501.892,192.902h 1.0885" fill="none" stroke="#0000ff"/>
<path d="M502.981,192.902h 1.0885" fill="none" stroke="#0000ff"/>
<g stroke="black" stroke-width="1" fill="none">
<line x1="501.981" y1="192.902" x2="502.981" y2="192.902"/>
</g>
<path d="M505.158,235.388v -42.4859" fill="none" stroke="#0000ff"/>
<path d="M505.158,192.902v -42.4859" fill="none" stroke="#0000ff"/>
<path d="M504.069,192.902h 1.0885" fill="none" stroke="#0000ff"/>
<path d="M505.158,192.902h 1.0885" fill="none" stroke="#0000ff"/>
<g stroke="black" stroke-width="1" fill="none">
<line x1="504.158" y1="192.902" x2="505.158" y2="192.902"/>
</g>
<path d="M507.335,235.52v -42.6181" fill="none" stroke="#0000ff"/>
<path d="M507.335,192.902v -42.6181" fill="none" stroke="#0000ff"/>
<path d="M506.246,192.902h 1.0885" fill="none" stroke="#0000ff"/>
<path d="M507.335,192.902h 1.0885" fill="none" stroke="#0000ff"/>
<g stroke="black" stroke-width="1" fill="none">
<line x1="506.335" y1="192.902" x2="507.335" y2="192.902"/>
</g>
<path d="M509.512,235.646v -42.7442" fill="none" stroke="#0000ff"/>
<path d="M509.512,192.902v -42.7442" fill="none" stroke="#0000ff"/>
<path d="M508.423,192.902h 1.0885" fill="none" stroke="#0000ff"/>
<path d="M509.512,192.902h 1.0885" fill="none" stroke="#0000ff"/>
<g stroke="black" stroke-width="1" fill="none">
<line x1="508.512" y1="192.902" x2="509.512" y2="192.902"/>
</g>
<path d="M511.689,235.766v -42.8646" fill="none" stroke="#0000ff"/>
<path d="M511.689,192.902v -42.8646" fill="none" stroke="#0000ff"/>
<path d="M510.6,192.902h 1.0885" fill="none" stroke="#0000ff"/>
<path d="M511.689,192.902h 1.0885" fill="none" stroke="#0000ff"/>
<g stroke="black" stroke-width="1" fill="none">
<line x1="510.689" y1="192.902" x2="511.689" y2="192.902"/>
</g>
<path d="M513.866,209.922v -42.9796" fill="none" stroke="#0000ff"/>
<path d="M513.866,166.942v -42.9796" fill="none" stroke="#0000ff"/>
<path d="M512.777,166.942h 1.0885" fill="none" stroke="#0000ff"/>
<path d="M513.866,166.942h 1.0885" fill="none" stroke="#0000ff"/>
<g stroke="black" stroke-width="1" fill="none">
<line x1="512.866" y1="166.942" x2="513.866" y2="166.942"/>
</g>
<path d="M516.043,287.91v -43.0896" fill="none" stroke="#0000ff"/>
<path d="M516.043,244.821v -43.0896" fill="none" stroke="#0000ff"/>
<path d="M514.954,244.821h 1.0885" fill="none" stroke="#0000ff"/>
<path d="M516.043,244.821h 1.0885" fill="none" stroke="#0000ff"/>
<g stroke="black" stroke-width="1" fill="none">
<line x1="515.043" y1="244.821" x2="516.043" y2="244.821"/>
</g>
<path d="M518.22,210.137v -43.1949" fill="none" stroke="#0000ff"/>
<path d="M518.22,166.942v -43.1949" fill="none" stroke="#0000ff"/>
<path d="M517.131,166.942h 1.0885" fill="none" stroke="#0000ff"/>
<path d="M518.22,166.942h 1.0885" fill="none" stroke="#0000ff"/>
<g stroke="black" stroke-width="1" fill="none">
<line x1="517.22" y1="166.942" x2="518.22" y2="166.942"/>
</g>
<path d="M520.397,236.198v -43.2957" fill="none" stroke="#0000ff"/>
<path d="M520.397,192.902v -43.2957" fill="none" stroke="#0000ff"/>
<path d="M519.308,192.902h 1.0885" fill="none" stroke="#0000ff"/>
<path d="M520.397,192.902h 1.0885" fill="none" stroke="#0000ff"/>
<g stroke="black" stroke-width="1" fill="none">
<line x1="519.397" y1="192.902" x2="520.397" y2="192.902"/>
</g>
<path d="M522.574,236.294v -43.3924" fill="none" stroke="#0000ff"/>
<path d="M522.574,192.902v -43.3924" fill="none" stroke="#0000ff"/>
<path d="M521.485,192.902h 1.0885" fill="none" stroke="#0000ff"/>
<path d="M522.574,192.902h 1.0885" fill="none" stroke="#0000ff"/>
<g stroke="black" stroke-width="1" fill="none">
<line x1="521.574" y1="192.902" x2="522.574" y2="192.902"/>
</g>
<path d="M524.751,236.387v -43.4852" fill="none" stroke="#0000ff"/>
<path d="M524.751,192.902v -43.4852" fill="none" stroke="#0000ff"/>
<path d="M523.662,192.902h 1.0885" fill="none" stroke="#0000ff"/>
<path d="M524.751,192.902h 1.0885" fill="none" stroke="#0000ff"/>
<g stroke="black" stroke-width="1" fill="none">
<line x1="523.751" y1="192.902" x2="524.751" y2="192.902"/>
</g>
<path d="M526.928,210.517v -43.5743" fill="none" stroke="#0000ff"/>
<path d="M526.928,166.942v -43.5743" fill="none" stroke="#0000ff"/>
<path d="M525.839,166.942h 1.0885" fill="none" stroke="#0000ff"/>
<path d="M526.928,166.942h 1.0885" fill="none" stroke="#0000ff"/>
<g stroke="black" stroke-width="1" fill="none">
<line x1="525.928" y1="166.942" x2="526.928" y2="166.942"/>
</g>
<path d="M529.105,236.562v -43.6599" fill="none" stroke="#0000ff"/>
<path d="M529.105,192.902v -43.6599" fill="none" stroke="#0000ff"/>
<path d="M528.016,192.902h 1.0885" fill="none" stroke="#0000ff"/>
<path d="M529.105,192.902h 1.0885" fill="none" stroke="#0000ff"/>
<g stroke="black" stroke-width="1" fill="none">
<line x1="528.105" y1="192.902" x2="529.105" y2="192.902"/>
</g>
<path d="M531.282,210.685v -43.7423" fill="none" stroke="#0000ff"/>
<path d="M531.282,166.942v -43.7423" fill="none" stroke="#0000ff"/>
<path d="M530.193,166.942h 1.0885" fill="none" stroke="#0000ff"/>
<path d="M531.282,166.942h 1.0885" fill="none" stroke="#0000ff"/>
<g stroke="black" stroke-width="1" fill="none">
<line x1="530.282" y1="166.942" x2="531.282" y2="166.942"/>
</g>
<path d="M533.459,262.683v -43.8216" fill="none" stroke="#0000ff"/>
<path d="M533.459,218.861v -43.8216" fill="none" stroke="#0000ff"/>
<path d="M532.37,218.861h 1.0885" fill="none" stroke="#0000ff"/>
<path d="M533.459,218.861h 1.0885" fill="none" stroke="#0000ff"/>
<g stroke="black" stroke-width="1" fill="none">
<line x1="532.459" y1="218.861" x2="533.459" y2="218.861"/>
</g>
<path d="M316.846,299.863h 217.701" fill="none" stroke="black"/>
<path d="M316.846,291.956v 7.9067" fill="none" stroke="black"/>
<path d="M322.289,295.909v 3.95335" fill="none" stroke="black"/>
<path d="M327.732,295.909v 3.95335" fill="none" stroke="black"/>
<path d="M333.174,295.909v 3.95335" fill="none" stroke="black"/>
<path d="M338.617,295.909v 3.95335" fill="none" stroke="black"/>
<path d="M344.059,291.956v 7.9067" fill="none" stroke="black"/>
<path d="M349.502,295.909v 3.95335" fill="none" stroke="black"/>
<path d="M354.944,295.909v 3.95335" fill="none" stroke="black"/>
<path d="M360.387,295.909v 3.95335" fill="none" stroke="black"/>
<path d="M365.829,295.909v 3.95335" fill="none" stroke="black"/>
<path d="M371.272,291.956v 7.9067" fill="none" stroke="black"/>
<path d="M376.714,295.909v 3.95335" fill="none" stroke="black"/>
<path d="M382.157,295.909v 3.95335" fill="none" stroke="black"/>
<path d="M387.599,295.909v 3.95335" fill="none" stroke="black"/>
<path d="M393.042,295.909v 3.95335" fill="none" stroke="black"/>
<path d="M398.484,291.956v 7.9067" fill="none" stroke="black"/>
<path d="M403.927,295.909v 3.95335" fill="none" stroke="black"/>
<path d="M409.369,295.909v 3.95335" fill="none" stroke="black"/>
<path d="M414.812,295.909v 3.95335" fill="none" stroke="black"/>
<path d="M420.254,295.909v 3.95335" fill="none" stroke="black"/>
<path d="M425.697,291.956v 7.9067" fill="none" stroke="black"/>
<path d="M431.139,295.909v 3.95335" fill="none" stroke="black"/>
<path d="M436.582,295.909v 3.95335" fill="none" stroke="black"/>
<path d="M442.024,295.909v 3.95335" fill="none" stroke="black"/>
<path d="M447.467,295.909v 3.95335" fill="none" stroke="black"/>
<path d="M452.909,291.956v 7.9067" fill="none" stroke="black"/>
<path d="M458.352,295.909v 3.95335" fill="none" stroke="black"/>
<path d="M463.794,295.909v 3.95335" fill="none" stroke="black"/>
<path d="M469.237,295.909v 3.95335" fill="none" stroke="black"/>
<path d="M474.68,295.909v 3.95335" fill="none" stroke="black"/>
<path d="M480.122,291.956v 7.9067" fill="none" stroke="black"/>
<path d="M485.565,295.909v 3.95335" fill="none" stroke="black"/>
<path d="M491.007,295.909v 3.95335" fill="none" stroke="black"/>
<path d="M496.45,295.909v 3.95335" fill="none" stroke="black"/>
<path d="M501.892,295.909v 3.95335" fill="none" stroke="black"/>
<path d="M507.335,291.956v 7.9067" fill="none" stroke="black"/>
<path d="M512.777,295.909v 3.95335" fill="none" stroke="black"/>
<path d="M518.22,295.909v 3.95335" fill="none" stroke="black"/>
<path d="M523.662,295.909v 3.95335" fill="none" stroke="black"/>
<path d="M529.105,295.909v 3.95335" fill="none" stroke="black"/>
<path d="M534.547,291.956v 7.9067" fill="none" stroke="black"/>
<text xml:space="preserve" x="316.015" y="310.529" fill="black" font-size="9.23799" font-family="Helvetica">2
</text>
<text xml:space="preserve" x="311.741" y="310.529" fill="black" font-size="9.23799" font-family="Times">&#8722;
</text>
<text xml:space="preserve" x="339.518" y="310.529" fill="black" font-size="9.23799" font-family="Helvetica">1.5
</text>
<text xml:space="preserve" x="335.245" y="310.529" fill="black" font-size="9.23799" font-family="Times">&#8722;
</text>
<text xml:space="preserve" x="371.568" y="310.529" fill="black" font-size="9.23799" font-family="Helvetica">1
</text>
<text xml:space="preserve" x="367.295" y="310.529" fill="black" font-size="9.23799" font-family="Times">&#8722;
</text>
<text xml:space="preserve" x="394.359" y="310.529" fill="black" font-size="9.23799" font-family="Helvetica">0.5
</text>
<text xml:space="preserve" x="390.086" y="310.529" fill="black" font-size="9.23799" font-family="Times">&#8722;
</text>
<text xml:space="preserve" x="422.848" y="310.529" fill="black" font-size="9.23799" font-family="Helvetica">0
</text>
<text xml:space="preserve" x="446.351" y="310.529" fill="black" font-size="9.23799" font-family="Helvetica">0.5
</text>
<text xml:space="preserve" x="477.689" y="310.529" fill="black" font-size="9.23799" font-family="Helvetica">1
</text>
<text xml:space="preserve" x="501.192" y="310.529" fill="black" font-size="9.23799" font-family="Helvetica">1.5
</text>
<text xml:space="preserve" x="531.818" y="310.529" fill="black" font-size="9.23799" font-family="Helvetica">2
</text>
<path d="M316.846,299.863v -263.557" fill="none" stroke="black"/>
<path d="M323.377,286.43h -6.53102" fill="none" stroke="black"/>
<path d="M320.112,274.739h -3.26551" fill="none" stroke="black"/>
<path d="M320.112,263.048h -3.26551" fill="none" stroke="black"/>
<path d="M320.112,251.357h -3.26551" fill="none" stroke="black"/>
<path d="M323.377,239.666h -6.53102" fill="none" stroke="black"/>
<path d="M320.112,227.975h -3.26551" fill="none" stroke="black"/>
<path d="M320.112,216.284h -3.26551" fill="none" stroke="black"/>
<path d="M320.112,204.593h -3.26551" fill="none" stroke="black"/>
<path d="M323.377,192.902h -6.53102" fill="none" stroke="black"/>
<path d="M320.112,181.211h -3.26551" fill="none" stroke="black"/>
<path d="M320.112,169.52h -3.26551" fill="none" stroke="black"/>
<path d="M320.112,157.829h -3.26551" fill="none" stroke="black"/>
<path d="M323.377,146.138h -6.53102" fill="none" stroke="black"/>
<path d="M320.112,134.447h -3.26551" fill="none" stroke="black"/>
<path d="M320.112,122.755h -3.26551" fill="none" stroke="black"/>
<path d="M320.112,111.064h -3.26551" fill="none" stroke="black"/>
<path d="M323.377,99.3734h -6.53102" fill="none" stroke="black"/>
<path d="M320.112,87.6823h -3.26551" fill="none" stroke="black"/>
<path d="M320.112,75.9912h -3.26551" fill="none" stroke="black"/>
<path d="M320.112,64.3002h -3.26551" fill="none" stroke="black"/>
<path d="M323.377,52.6091h -6.53102" fill="none" stroke="black"/>
<path d="M323.377,286.43h -6.53102" fill="none" stroke="black"/>
<path d="M320.112,298.121h -3.26551" fill="none" stroke="black"/>
<path d="M323.377,52.6091h -6.53102" fill="none" stroke="black"/>
<path d="M320.112,40.9181h -3.26551" fill="none" stroke="black"/>
<text xml:space="preserve" x="303.195" y="289.875" fill="black" font-size="9.23799" font-family="Helvetica">0.4
</text>
<text xml:space="preserve" x="298.209" y="289.875" fill="black" font-size="9.23799" font-family="Times">&#8722;
</text>
<text xml:space="preserve" x="303.195" y="243.58" fill="black" font-size="9.23799" font-family="Helvetica">0.2
</text>
<text xml:space="preserve" x="298.209" y="243.58" fill="black" font-size="9.23799" font-family="Times">&#8722;
</text>
<text xml:space="preserve" x="310.317" y="196.573" fill="black" font-size="9.23799" font-family="Helvetica">0
</text>
<text xml:space="preserve" x="303.195" y="149.567" fill="black" font-size="9.23799" font-family="Helvetica">0.2
</text>
<text xml:space="preserve" x="303.195" y="103.272" fill="black" font-size="9.23799" font-family="Helvetica">0.4
</text>
<text xml:space="preserve" x="303.195" y="56.2656" fill="black" font-size="9.23799" font-family="Helvetica">0.6
</text>
<text xml:space="preserve" x="333.82" y="29.9133" fill="black" font-size="6.32533" font-family="Helvetica">15
</text>
<text xml:space="preserve" x="330.971" y="29.9133" fill="black" font-size="6.32533" font-family="Times">&#8722;
</text>
<text xml:space="preserve" x="321.712" y="34.8989" fill="black" font-size="9.23799" font-family="Helvetica">10
</text>
<text xml:space="preserve" x="316.727" y="34.8989" fill="black" font-size="9.23799" font-family="Times">&#0215;
</text>
<path d="M316.846,203.397h 2.17701v -2.07878h 2.17701v -0.912634h 2.17701v -0.405615h 2.17701v -0.202808h 2.17701v 4.46177h 2.17701v -12.1685h 2.17701v 2.02807h 2.17701v 12.5741h 2.17701v -0.81123h 2.17701v 1.62246h 2.17701v -8.92353h 2.17701v
 8.1123h 2.17701v -1.62246h 2.17701v -4.05615h 2.17701v -4.86738h 4.35402v 11.3572h 2.17701v -12.9797h 2.17701v 11.3572h 2.17701v -6.48984h 2.17701v -4.86738h 2.17701v 8.1123h 2.17701v -9.73476h 2.17701v 12.9797h 2.17701v -12.9797h 2.17701v 12.9797h
 2.17701v -12.9797h 2.17701v 3.24492h 2.17701v 3.24492h 2.17701v -6.48984h 2.17701v 12.9797h 2.17701v -12.9797h 2.17701v 6.48984h 4.35402v 6.48984h 2.17701v -6.48984h 2.17701v -6.48984h 2.17701v 6.48984h 2.17701v 6.48984h 10.885v -12.9797h 4.35402v
 25.9594h 2.17701v -25.9594h 6.53102v -12.9797h 2.17701v 12.9797h 2.17701v 12.9797h 2.17701v 12.9797h 2.17701v -25.9594h 6.53102v 25.9594h 6.53102v -51.9187h 4.35402v 25.9594h 6.53102v 25.9594h 2.17701v -25.9594h 10.885v 25.9594h 4.35402v -25.9594h
 4.35402v 25.9594h 2.17701v -25.9594h 2.17701v 25.9594h 2.17701v -25.9594h 4.35402v 25.9594h 4.35402v -25.9594h 4.35402v 25.9594h 2.17701v -51.9187h 2.17701v 25.9594h 4.35402v 25.9594h 2.17701v -51.9187h 4.35402v 51.9187h 2.17701v -51.9187h 2.17701v
 51.9187h 2.17701v -51.9187h 2.17701v 51.9187h 2.17701v -25.9594h 6.53102v 51.9187h 2.17701" fill="none" stroke="#ff0000"/>
<rect x="319.568" y="39.6007" width="160.554" height="29.6501" fill="white"/>
<path d="M319.568,69.2508h 160.554" fill="none" stroke="black"/>
<path d="M480.122,69.2508v -29.6501" fill="none" stroke="black"/>
<path d="M480.122,39.6007h -160.554" fill="none" stroke="black"/>
<path d="M319.568,39.6007v 29.6501" fill="none" stroke="black"/>
<text xml:space="preserve" x="359.46" y="50.5678" fill="black" font-size="8.10434" font-family="Helvetica">GSL integration - analytical 
</text>
<path d="M325.589,52.202h 28.097v -10.3775h -28.097z" fill="white"/>
<path d="M325.589,47.0132h 28.097" fill="none" stroke="#0000ff"/>
<g stroke="black" stroke-width="1" fill="none">
<line x1="338.637" y1="47.0132" x2="339.637" y2="47.0132"/>
</g>
<text xml:space="preserve" x="359.46" y="65.5245" fill="black" font-size="8.10434" font-family="Helvetica">TF1::Integral  - analytical 
</text>
<path d="M325.589,67.0271h 28.097v -10.3775h -28.097z" fill="white"/>
<path d="M325.589,61.8383h 28.097" fill="none" stroke="#ff0000"/>
<g stroke="black" stroke-width="1" fill="none">
<line x1="338.637" y1="61.8383" x2="339.637" y2="61.8383"/>
</g>
<text xml:space="preserve" x="397.92" y="19.23" fill="black" font-size="12.1715" font-family="Helvetica">Difference
</text></svg>
