<?xml version="1.0" standalone="no"?>
<svg width="567.429" height="734.844" viewBox="0 0 567.429 734.844" xmlns="http://www.w3.org/2000/svg" shape-rendering="crispEdges">
<title>
./old_svg_pro/temp_normalDist_pro.svg
</title>
<desc>
Creator: ROOT Version 6.33.01
CreationDate: Wed Jul  3 13:19:36 2024</desc>
<defs>
</defs>
<rect x="0.5" y="0" width="566.929" height="734.344" fill="white"/>
<rect x="6.16929" y="7.34344" width="555.591" height="230.095" fill="white"/>
<rect x="61.7283" y="30.3529" width="444.472" height="184.076" fill="white"/>
<rect x="61.7283" y="30.3529" width="444.472" height="184.076" fill="none" stroke="black"/>
<path d="M63.9507,214.429h 26.6683l 4.44472, -0.0209956l 4.44472, -0.0109589l 4.44472, -0.0161951l 4.44472, -0.0236811l 4.44472, -0.0342619l 4.44472, -0.049045l 4.44472, -0.0694604l 4.44472, -0.0973249l 4.44472, -0.134907l 4.44472, -0.184992l
 4.44472, -0.250932l 4.44472, -0.336683l 4.44472, -0.446808l 4.44472, -0.586449l 4.44472, -0.761233l 4.44472, -0.977121l 4.44472, -1.24018l 4.44472, -1.55628l 4.44472, -1.93067l 4.44472, -2.36751l 4.44472, -2.86935l 4.44472, -3.43647l 4.44472,
 -4.06635l 4.44472, -4.75304l 4.44472, -5.48671l 4.44472, -6.25329l 4.44472, -7.03434l 4.44472, -7.80716l 4.44472, -8.54524l 4.44472, -9.21894l 4.44472, -9.79665l 4.44472, -10.2461l 4.44472, -10.5359l 4.44472, -10.6375l 4.44472, -10.5271l 4.44472,
 -10.1868l 4.44472, -9.60709l 4.44472, -8.7872l 4.44472, -7.73634l 4.44472, -6.4737l 4.44472, -5.02807l 4.44472, -3.43683l 4.44472, -1.74437" fill="none" stroke="#0000ff" stroke-width="2"/>
<path d="M281.742,39.1184h 4.44472l 4.44472, 1.74437l 4.44472, 3.43683l 4.44472, 5.02807l 4.44472, 6.4737l 4.44472, 7.73634l 4.44472, 8.7872l 4.44472, 9.60709l 4.44472, 10.1868l 4.44472, 10.5271l 4.44472, 10.6375l 4.44472, 10.5359l 4.44472, 10.2461l
 4.44472, 9.79665l 4.44472, 9.21894l 4.44472, 8.54524l 4.44472, 7.80716l 4.44472, 7.03434l 4.44472, 6.25329l 4.44472, 5.48671l 4.44472, 4.75304l 4.44472, 4.06635l 4.44472, 3.43647l 4.44472, 2.86935l 4.44472, 2.36751l 4.44472, 1.93067l 4.44472,
 1.55628l 4.44472, 1.24018l 4.44472, 0.977121l 4.44472, 0.761233l 4.44472, 0.586449l 4.44472, 0.446808l 4.44472, 0.336683l 4.44472, 0.250932l 4.44472, 0.184992l 4.44472, 0.134907l 4.44472, 0.0973249l 4.44472, 0.0694604l 4.44472, 0.049045l 4.44472,
 0.0342619l 4.44472, 0.0236811l 4.44472, 0.0161951l 4.44472, 0.0109589l 4.44472, 0.0209956h 22.2236" fill="none" stroke="#0000ff" stroke-width="2"/>
<path d="M499.534,214.429h 4.44472" fill="none" stroke="#0000ff" stroke-width="2"/>
<path d="M61.7283,214.429h 444.472" fill="none" stroke="black"/>
<path d="M61.7283,208.906v 5.52227" fill="none" stroke="black"/>
<path d="M70.6178,211.667v 2.76114" fill="none" stroke="black"/>
<path d="M79.5072,211.667v 2.76114" fill="none" stroke="black"/>
<path d="M88.3967,211.667v 2.76114" fill="none" stroke="black"/>
<path d="M97.2861,211.667v 2.76114" fill="none" stroke="black"/>
<path d="M106.176,208.906v 5.52227" fill="none" stroke="black"/>
<path d="M115.065,211.667v 2.76114" fill="none" stroke="black"/>
<path d="M123.954,211.667v 2.76114" fill="none" stroke="black"/>
<path d="M132.844,211.667v 2.76114" fill="none" stroke="black"/>
<path d="M141.733,211.667v 2.76114" fill="none" stroke="black"/>
<path d="M150.623,208.906v 5.52227" fill="none" stroke="black"/>
<path d="M159.512,211.667v 2.76114" fill="none" stroke="black"/>
<path d="M168.402,211.667v 2.76114" fill="none" stroke="black"/>
<path d="M177.291,211.667v 2.76114" fill="none" stroke="black"/>
<path d="M186.181,211.667v 2.76114" fill="none" stroke="black"/>
<path d="M195.07,208.906v 5.52227" fill="none" stroke="black"/>
<path d="M203.96,211.667v 2.76114" fill="none" stroke="black"/>
<path d="M212.849,211.667v 2.76114" fill="none" stroke="black"/>
<path d="M221.738,211.667v 2.76114" fill="none" stroke="black"/>
<path d="M230.628,211.667v 2.76114" fill="none" stroke="black"/>
<path d="M239.517,208.906v 5.52227" fill="none" stroke="black"/>
<path d="M248.407,211.667v 2.76114" fill="none" stroke="black"/>
<path d="M257.296,211.667v 2.76114" fill="none" stroke="black"/>
<path d="M266.186,211.667v 2.76114" fill="none" stroke="black"/>
<path d="M275.075,211.667v 2.76114" fill="none" stroke="black"/>
<path d="M283.965,208.906v 5.52227" fill="none" stroke="black"/>
<path d="M292.854,211.667v 2.76114" fill="none" stroke="black"/>
<path d="M301.743,211.667v 2.76114" fill="none" stroke="black"/>
<path d="M310.633,211.667v 2.76114" fill="none" stroke="black"/>
<path d="M319.522,211.667v 2.76114" fill="none" stroke="black"/>
<path d="M328.412,208.906v 5.52227" fill="none" stroke="black"/>
<path d="M337.301,211.667v 2.76114" fill="none" stroke="black"/>
<path d="M346.191,211.667v 2.76114" fill="none" stroke="black"/>
<path d="M355.08,211.667v 2.76114" fill="none" stroke="black"/>
<path d="M363.97,211.667v 2.76114" fill="none" stroke="black"/>
<path d="M372.859,208.906v 5.52227" fill="none" stroke="black"/>
<path d="M381.749,211.667v 2.76114" fill="none" stroke="black"/>
<path d="M390.638,211.667v 2.76114" fill="none" stroke="black"/>
<path d="M399.527,211.667v 2.76114" fill="none" stroke="black"/>
<path d="M408.417,211.667v 2.76114" fill="none" stroke="black"/>
<path d="M417.306,208.906v 5.52227" fill="none" stroke="black"/>
<path d="M426.196,211.667v 2.76114" fill="none" stroke="black"/>
<path d="M435.085,211.667v 2.76114" fill="none" stroke="black"/>
<path d="M443.975,211.667v 2.76114" fill="none" stroke="black"/>
<path d="M452.864,211.667v 2.76114" fill="none" stroke="black"/>
<path d="M461.754,208.906v 5.52227" fill="none" stroke="black"/>
<path d="M470.643,211.667v 2.76114" fill="none" stroke="black"/>
<path d="M479.532,211.667v 2.76114" fill="none" stroke="black"/>
<path d="M488.422,211.667v 2.76114" fill="none" stroke="black"/>
<path d="M497.311,211.667v 2.76114" fill="none" stroke="black"/>
<path d="M506.201,208.906v 5.52227" fill="none" stroke="black"/>
<text xml:space="preserve" x="60.4271" y="226.391" fill="black" font-size="13.1658" font-family="Helvetica">5
</text>
<text xml:space="preserve" x="53.7685" y="226.391" fill="black" font-size="13.1658" font-family="Times">&#8722;
</text>
<text xml:space="preserve" x="105.135" y="226.391" fill="black" font-size="13.1658" font-family="Helvetica">4
</text>
<text xml:space="preserve" x="98.476" y="226.391" fill="black" font-size="13.1658" font-family="Times">&#8722;
</text>
<text xml:space="preserve" x="149.842" y="226.391" fill="black" font-size="13.1658" font-family="Helvetica">3
</text>
<text xml:space="preserve" x="143.184" y="226.391" fill="black" font-size="13.1658" font-family="Times">&#8722;
</text>
<text xml:space="preserve" x="194.55" y="226.391" fill="black" font-size="13.1658" font-family="Helvetica">2
</text>
<text xml:space="preserve" x="187.891" y="226.391" fill="black" font-size="13.1658" font-family="Times">&#8722;
</text>
<text xml:space="preserve" x="240.208" y="226.391" fill="black" font-size="13.1658" font-family="Helvetica">1
</text>
<text xml:space="preserve" x="232.599" y="226.391" fill="black" font-size="13.1658" font-family="Times">&#8722;
</text>
<text xml:space="preserve" x="280.16" y="226.391" fill="black" font-size="13.1658" font-family="Helvetica">0
</text>
<text xml:space="preserve" x="325.818" y="226.391" fill="black" font-size="13.1658" font-family="Helvetica">1
</text>
<text xml:space="preserve" x="368.623" y="226.391" fill="black" font-size="13.1658" font-family="Helvetica">2
</text>
<text xml:space="preserve" x="413.331" y="226.391" fill="black" font-size="13.1658" font-family="Helvetica">3
</text>
<text xml:space="preserve" x="458.038" y="226.391" fill="black" font-size="13.1658" font-family="Helvetica">4
</text>
<text xml:space="preserve" x="502.746" y="226.391" fill="black" font-size="13.1658" font-family="Helvetica">5
</text>
<text xml:space="preserve" x="498.941" y="233.05" fill="black" font-size="15.2767" font-family="Helvetica">x
</text>
<path d="M61.7283,214.429v -184.076" fill="none" stroke="black"/>
<path d="M75.0625,214.429h -13.3342" fill="none" stroke="black"/>
<path d="M68.3954,210.029h -6.66709" fill="none" stroke="black"/>
<path d="M68.3954,205.629h -6.66709" fill="none" stroke="black"/>
<path d="M68.3954,201.229h -6.66709" fill="none" stroke="black"/>
<path d="M68.3954,196.829h -6.66709" fill="none" stroke="black"/>
<path d="M75.0625,192.429h -13.3342" fill="none" stroke="black"/>
<path d="M68.3954,188.029h -6.66709" fill="none" stroke="black"/>
<path d="M68.3954,183.629h -6.66709" fill="none" stroke="black"/>
<path d="M68.3954,179.23h -6.66709" fill="none" stroke="black"/>
<path d="M68.3954,174.83h -6.66709" fill="none" stroke="black"/>
<path d="M75.0625,170.43h -13.3342" fill="none" stroke="black"/>
<path d="M68.3954,166.03h -6.66709" fill="none" stroke="black"/>
<path d="M68.3954,161.63h -6.66709" fill="none" stroke="black"/>
<path d="M68.3954,157.23h -6.66709" fill="none" stroke="black"/>
<path d="M68.3954,152.83h -6.66709" fill="none" stroke="black"/>
<path d="M75.0625,148.431h -13.3342" fill="none" stroke="black"/>
<path d="M68.3954,144.031h -6.66709" fill="none" stroke="black"/>
<path d="M68.3954,139.631h -6.66709" fill="none" stroke="black"/>
<path d="M68.3954,135.231h -6.66709" fill="none" stroke="black"/>
<path d="M68.3954,130.831h -6.66709" fill="none" stroke="black"/>
<path d="M75.0625,126.431h -13.3342" fill="none" stroke="black"/>
<path d="M68.3954,122.031h -6.66709" fill="none" stroke="black"/>
<path d="M68.3954,117.631h -6.66709" fill="none" stroke="black"/>
<path d="M68.3954,113.232h -6.66709" fill="none" stroke="black"/>
<path d="M68.3954,108.832h -6.66709" fill="none" stroke="black"/>
<path d="M75.0625,104.432h -13.3342" fill="none" stroke="black"/>
<path d="M68.3954,100.032h -6.66709" fill="none" stroke="black"/>
<path d="M68.3954,95.6321h -6.66709" fill="none" stroke="black"/>
<path d="M68.3954,91.2322h -6.66709" fill="none" stroke="black"/>
<path d="M68.3954,86.8323h -6.66709" fill="none" stroke="black"/>
<path d="M75.0625,82.4325h -13.3342" fill="none" stroke="black"/>
<path d="M68.3954,78.0326h -6.66709" fill="none" stroke="black"/>
<path d="M68.3954,73.6327h -6.66709" fill="none" stroke="black"/>
<path d="M68.3954,69.2328h -6.66709" fill="none" stroke="black"/>
<path d="M68.3954,64.833h -6.66709" fill="none" stroke="black"/>
<path d="M75.0625,60.4331h -13.3342" fill="none" stroke="black"/>
<path d="M68.3954,56.0332h -6.66709" fill="none" stroke="black"/>
<path d="M68.3954,51.6334h -6.66709" fill="none" stroke="black"/>
<path d="M68.3954,47.2335h -6.66709" fill="none" stroke="black"/>
<path d="M68.3954,42.8336h -6.66709" fill="none" stroke="black"/>
<path d="M75.0625,38.4338h -13.3342" fill="none" stroke="black"/>
<path d="M75.0625,38.4338h -13.3342" fill="none" stroke="black"/>
<path d="M68.3954,34.0339h -6.66709" fill="none" stroke="black"/>
<text xml:space="preserve" x="50.9148" y="218.781" fill="black" font-size="13.1658" font-family="Helvetica">0
</text>
<text xml:space="preserve" x="32.8416" y="196.903" fill="black" font-size="13.1658" font-family="Helvetica">0.05
</text>
<text xml:space="preserve" x="42.3538" y="175.025" fill="black" font-size="13.1658" font-family="Helvetica">0.1
</text>
<text xml:space="preserve" x="32.8416" y="153.147" fill="black" font-size="13.1658" font-family="Helvetica">0.15
</text>
<text xml:space="preserve" x="40.4514" y="131.269" fill="black" font-size="13.1658" font-family="Helvetica">0.2
</text>
<text xml:space="preserve" x="32.8416" y="109.391" fill="black" font-size="13.1658" font-family="Helvetica">0.25
</text>
<text xml:space="preserve" x="40.4514" y="87.5126" fill="black" font-size="13.1658" font-family="Helvetica">0.3
</text>
<text xml:space="preserve" x="32.8416" y="65.6344" fill="black" font-size="13.1658" font-family="Helvetica">0.35
</text>
<text xml:space="preserve" x="40.4514" y="42.8051" fill="black" font-size="13.1658" font-family="Helvetica">0.4
</text>
<rect x="330.575" y="40.9025" width="167.415" height="58.0248" fill="white"/>
<path d="M330.575,98.9273h 167.415" fill="none" stroke="black"/>
<path d="M497.99,98.9273v -58.0248" fill="none" stroke="black"/>
<path d="M497.99,40.9025h -167.415" fill="none" stroke="black"/>
<path d="M330.575,40.9025v 58.0248" fill="none" stroke="black"/>
<text xml:space="preserve" x="372.428" y="76.0979" fill="black" font-size="23.087" font-family="Helvetica">normal_pdf
</text>
<path d="M336.853,69.9149h 29.2976" fill="none" stroke="#0000ff" stroke-width="2"/>
<rect x="6.16929" y="252.125" width="555.591" height="230.095" fill="white"/>
<rect x="61.7283" y="275.134" width="444.472" height="184.076" fill="white"/>
<rect x="61.7283" y="275.134" width="444.472" height="184.076" fill="none" stroke="black"/>
<path d="M63.9507,459.21h 53.3367l 4.44472, -0.0229867l 4.44472, -0.0107808l 4.44472, -0.0153708l 4.44472, -0.0216972l 4.44472, -0.0303229l 4.44472, -0.0419565l 4.44472, -0.0574763l 4.44472, -0.0779539l 4.44472, -0.104676l 4.44472, -0.139162l
 4.44472, -0.183169l 4.44472, -0.238695l 4.44472, -0.307961l 4.44472, -0.393378l 4.44472, -0.49749l 4.44472, -0.622901l 4.44472, -0.772173l 4.44472, -0.9477l 4.44472, -1.15156l 4.44472, -1.38537l 4.44472, -1.65007l 4.44472, -1.94582l 4.44472,
 -2.27176l 4.44472, -2.62592l 4.44472, -3.00513l 4.44472, -3.4049l 4.44472, -3.81951l 4.44472, -4.24199l 4.44472, -4.66438l 4.44472, -5.07783l 4.44472, -5.47297l 4.44472, -5.84021l 4.44472, -6.17014l 4.44472, -6.45389l 4.44472, -6.68358l 4.44472,
 -6.85264l 4.44472, -6.95611" fill="none" stroke="#ff0000" stroke-width="2"/>
<path d="M281.742,375.05l 4.44472, -6.99095l 4.44472, -6.95611l 4.44472, -6.85264l 4.44472, -6.68358l 4.44472, -6.45389l 4.44472, -6.17014l 4.44472, -5.84021l 4.44472, -5.47297l 4.44472, -5.07783l 4.44472, -4.66438l 4.44472, -4.24199l 4.44472,
 -3.81951l 4.44472, -3.4049l 4.44472, -3.00513l 4.44472, -2.62592l 4.44472, -2.27176l 4.44472, -1.94582l 4.44472, -1.65007l 4.44472, -1.38537l 4.44472, -1.15156l 4.44472, -0.9477l 4.44472, -0.772173l 4.44472, -0.622901l 4.44472, -0.49749l 4.44472,
 -0.393378l 4.44472, -0.307961l 4.44472, -0.238695l 4.44472, -0.183169l 4.44472, -0.139162l 4.44472, -0.104676l 4.44472, -0.0779539l 4.44472, -0.0574763l 4.44472, -0.0419565l 4.44472, -0.0303229l 4.44472, -0.0216972l 4.44472, -0.0153708l 4.44472,
 -0.0107808l 4.44472, -0.00748625l 4.44472, -0.00514682l 4.44472, -0.00350328l 4.44472, -0.00236086l 4.44472, -0.00157517l 4.44472, -0.00104051l 4.44472, -0.000680493l 4.44472, -0.000440618l 4.44472, -0.000282463l 4.44472, -0.000179276l 4.44472,
 -0.000112653l 4.44472, -7.00848e-05" fill="none" stroke="#ff0000" stroke-width="2"/>
<path d="M499.534,283.9l 4.44472, -4.31684e-05" fill="none" stroke="#ff0000" stroke-width="2"/>
<path d="M61.7283,459.21h 444.472" fill="none" stroke="black"/>
<path d="M61.7283,453.688v 5.52227" fill="none" stroke="black"/>
<path d="M70.6178,456.449v 2.76114" fill="none" stroke="black"/>
<path d="M79.5072,456.449v 2.76114" fill="none" stroke="black"/>
<path d="M88.3967,456.449v 2.76114" fill="none" stroke="black"/>
<path d="M97.2861,456.449v 2.76114" fill="none" stroke="black"/>
<path d="M106.176,453.688v 5.52227" fill="none" stroke="black"/>
<path d="M115.065,456.449v 2.76114" fill="none" stroke="black"/>
<path d="M123.954,456.449v 2.76114" fill="none" stroke="black"/>
<path d="M132.844,456.449v 2.76114" fill="none" stroke="black"/>
<path d="M141.733,456.449v 2.76114" fill="none" stroke="black"/>
<path d="M150.623,453.688v 5.52227" fill="none" stroke="black"/>
<path d="M159.512,456.449v 2.76114" fill="none" stroke="black"/>
<path d="M168.402,456.449v 2.76114" fill="none" stroke="black"/>
<path d="M177.291,456.449v 2.76114" fill="none" stroke="black"/>
<path d="M186.181,456.449v 2.76114" fill="none" stroke="black"/>
<path d="M195.07,453.688v 5.52227" fill="none" stroke="black"/>
<path d="M203.96,456.449v 2.76114" fill="none" stroke="black"/>
<path d="M212.849,456.449v 2.76114" fill="none" stroke="black"/>
<path d="M221.738,456.449v 2.76114" fill="none" stroke="black"/>
<path d="M230.628,456.449v 2.76114" fill="none" stroke="black"/>
<path d="M239.517,453.688v 5.52227" fill="none" stroke="black"/>
<path d="M248.407,456.449v 2.76114" fill="none" stroke="black"/>
<path d="M257.296,456.449v 2.76114" fill="none" stroke="black"/>
<path d="M266.186,456.449v 2.76114" fill="none" stroke="black"/>
<path d="M275.075,456.449v 2.76114" fill="none" stroke="black"/>
<path d="M283.965,453.688v 5.52227" fill="none" stroke="black"/>
<path d="M292.854,456.449v 2.76114" fill="none" stroke="black"/>
<path d="M301.743,456.449v 2.76114" fill="none" stroke="black"/>
<path d="M310.633,456.449v 2.76114" fill="none" stroke="black"/>
<path d="M319.522,456.449v 2.76114" fill="none" stroke="black"/>
<path d="M328.412,453.688v 5.52227" fill="none" stroke="black"/>
<path d="M337.301,456.449v 2.76114" fill="none" stroke="black"/>
<path d="M346.191,456.449v 2.76114" fill="none" stroke="black"/>
<path d="M355.08,456.449v 2.76114" fill="none" stroke="black"/>
<path d="M363.97,456.449v 2.76114" fill="none" stroke="black"/>
<path d="M372.859,453.688v 5.52227" fill="none" stroke="black"/>
<path d="M381.749,456.449v 2.76114" fill="none" stroke="black"/>
<path d="M390.638,456.449v 2.76114" fill="none" stroke="black"/>
<path d="M399.527,456.449v 2.76114" fill="none" stroke="black"/>
<path d="M408.417,456.449v 2.76114" fill="none" stroke="black"/>
<path d="M417.306,453.688v 5.52227" fill="none" stroke="black"/>
<path d="M426.196,456.449v 2.76114" fill="none" stroke="black"/>
<path d="M435.085,456.449v 2.76114" fill="none" stroke="black"/>
<path d="M443.975,456.449v 2.76114" fill="none" stroke="black"/>
<path d="M452.864,456.449v 2.76114" fill="none" stroke="black"/>
<path d="M461.754,453.688v 5.52227" fill="none" stroke="black"/>
<path d="M470.643,456.449v 2.76114" fill="none" stroke="black"/>
<path d="M479.532,456.449v 2.76114" fill="none" stroke="black"/>
<path d="M488.422,456.449v 2.76114" fill="none" stroke="black"/>
<path d="M497.311,456.449v 2.76114" fill="none" stroke="black"/>
<path d="M506.201,453.688v 5.52227" fill="none" stroke="black"/>
<text xml:space="preserve" x="60.4271" y="471.807" fill="black" font-size="13.1658" font-family="Helvetica">5
</text>
<text xml:space="preserve" x="53.7685" y="471.807" fill="black" font-size="13.1658" font-family="Times">&#8722;
</text>
<text xml:space="preserve" x="105.135" y="471.807" fill="black" font-size="13.1658" font-family="Helvetica">4
</text>
<text xml:space="preserve" x="98.476" y="471.807" fill="black" font-size="13.1658" font-family="Times">&#8722;
</text>
<text xml:space="preserve" x="149.842" y="471.807" fill="black" font-size="13.1658" font-family="Helvetica">3
</text>
<text xml:space="preserve" x="143.184" y="471.807" fill="black" font-size="13.1658" font-family="Times">&#8722;
</text>
<text xml:space="preserve" x="194.55" y="471.807" fill="black" font-size="13.1658" font-family="Helvetica">2
</text>
<text xml:space="preserve" x="187.891" y="471.807" fill="black" font-size="13.1658" font-family="Times">&#8722;
</text>
<text xml:space="preserve" x="240.208" y="471.807" fill="black" font-size="13.1658" font-family="Helvetica">1
</text>
<text xml:space="preserve" x="232.599" y="471.807" fill="black" font-size="13.1658" font-family="Times">&#8722;
</text>
<text xml:space="preserve" x="280.16" y="471.807" fill="black" font-size="13.1658" font-family="Helvetica">0
</text>
<text xml:space="preserve" x="325.818" y="471.807" fill="black" font-size="13.1658" font-family="Helvetica">1
</text>
<text xml:space="preserve" x="368.623" y="471.807" fill="black" font-size="13.1658" font-family="Helvetica">2
</text>
<text xml:space="preserve" x="413.331" y="471.807" fill="black" font-size="13.1658" font-family="Helvetica">3
</text>
<text xml:space="preserve" x="458.038" y="471.807" fill="black" font-size="13.1658" font-family="Helvetica">4
</text>
<text xml:space="preserve" x="502.746" y="471.807" fill="black" font-size="13.1658" font-family="Helvetica">5
</text>
<text xml:space="preserve" x="498.941" y="478.465" fill="black" font-size="15.2767" font-family="Helvetica">x
</text>
<path d="M61.7283,459.21v -184.076" fill="none" stroke="black"/>
<path d="M75.0625,459.21h -13.3342" fill="none" stroke="black"/>
<path d="M68.3954,450.445h -6.66709" fill="none" stroke="black"/>
<path d="M68.3954,441.679h -6.66709" fill="none" stroke="black"/>
<path d="M68.3954,432.914h -6.66709" fill="none" stroke="black"/>
<path d="M75.0625,424.148h -13.3342" fill="none" stroke="black"/>
<path d="M68.3954,415.383h -6.66709" fill="none" stroke="black"/>
<path d="M68.3954,406.617h -6.66709" fill="none" stroke="black"/>
<path d="M68.3954,397.851h -6.66709" fill="none" stroke="black"/>
<path d="M75.0625,389.086h -13.3342" fill="none" stroke="black"/>
<path d="M68.3954,380.32h -6.66709" fill="none" stroke="black"/>
<path d="M68.3954,371.555h -6.66709" fill="none" stroke="black"/>
<path d="M68.3954,362.789h -6.66709" fill="none" stroke="black"/>
<path d="M75.0625,354.024h -13.3342" fill="none" stroke="black"/>
<path d="M68.3954,345.258h -6.66709" fill="none" stroke="black"/>
<path d="M68.3954,336.493h -6.66709" fill="none" stroke="black"/>
<path d="M68.3954,327.727h -6.66709" fill="none" stroke="black"/>
<path d="M75.0625,318.962h -13.3342" fill="none" stroke="black"/>
<path d="M68.3954,310.196h -6.66709" fill="none" stroke="black"/>
<path d="M68.3954,301.431h -6.66709" fill="none" stroke="black"/>
<path d="M68.3954,292.665h -6.66709" fill="none" stroke="black"/>
<path d="M75.0625,283.9h -13.3342" fill="none" stroke="black"/>
<path d="M75.0625,283.9h -13.3342" fill="none" stroke="black"/>
<text xml:space="preserve" x="50.9148" y="464.197" fill="black" font-size="13.1658" font-family="Helvetica">0
</text>
<text xml:space="preserve" x="40.4514" y="429.002" fill="black" font-size="13.1658" font-family="Helvetica">0.2
</text>
<text xml:space="preserve" x="40.4514" y="393.806" fill="black" font-size="13.1658" font-family="Helvetica">0.4
</text>
<text xml:space="preserve" x="40.4514" y="358.611" fill="black" font-size="13.1658" font-family="Helvetica">0.6
</text>
<text xml:space="preserve" x="40.4514" y="323.416" fill="black" font-size="13.1658" font-family="Helvetica">0.8
</text>
<text xml:space="preserve" x="53.7685" y="289.172" fill="black" font-size="13.1658" font-family="Helvetica">1
</text>
<g transform="rotate(-90,29.9879,283.465)">
<text xml:space="preserve" x="29.9879" y="283.465" fill="black" font-size="15.2767" font-family="Helvetica">p
</text>
</g>
<path d="M63.9507,283.9l 4.44472, 4.31684e-05l 4.44472, 7.00848e-05l 4.44472, 0.000112653l 4.44472, 0.000179276l 4.44472, 0.000282463l 4.44472, 0.000440618l 4.44472, 0.000680493l 4.44472, 0.00104051l 4.44472, 0.00157517l 4.44472, 0.00236086l 4.44472,
 0.00350328l 4.44472, 0.00514682l 4.44472, 0.00748625l 4.44472, 0.0107808l 4.44472, 0.0153708l 4.44472, 0.0216972l 4.44472, 0.0303229l 4.44472, 0.0419565l 4.44472, 0.0574763l 4.44472, 0.0779539l 4.44472, 0.104676l 4.44472, 0.139162l 4.44472,
 0.183169l 4.44472, 0.238695l 4.44472, 0.307961l 4.44472, 0.393378l 4.44472, 0.49749l 4.44472, 0.622901l 4.44472, 0.772173l 4.44472, 0.9477l 4.44472, 1.15156l 4.44472, 1.38537l 4.44472, 1.65007l 4.44472, 1.94582l 4.44472, 2.27176l 4.44472, 2.62592l
 4.44472, 3.00513l 4.44472, 3.4049l 4.44472, 3.81951l 4.44472, 4.24199l 4.44472, 4.66438l 4.44472, 5.07783l 4.44472, 5.47297l 4.44472, 5.84021l 4.44472, 6.17014l 4.44472, 6.45389l 4.44472, 6.68358l 4.44472, 6.85264l 4.44472, 6.95611" fill="none"
 stroke="#00ff00" stroke-width="2"/>
<path d="M281.742,368.059l 4.44472, 6.99095l 4.44472, 6.95611l 4.44472, 6.85264l 4.44472, 6.68358l 4.44472, 6.45389l 4.44472, 6.17014l 4.44472, 5.84021l 4.44472, 5.47297l 4.44472, 5.07783l 4.44472, 4.66438l 4.44472, 4.24199l 4.44472, 3.81951l
 4.44472, 3.4049l 4.44472, 3.00513l 4.44472, 2.62592l 4.44472, 2.27176l 4.44472, 1.94582l 4.44472, 1.65007l 4.44472, 1.38537l 4.44472, 1.15156l 4.44472, 0.9477l 4.44472, 0.772173l 4.44472, 0.622901l 4.44472, 0.49749l 4.44472, 0.393378l 4.44472,
 0.307961l 4.44472, 0.238695l 4.44472, 0.183169l 4.44472, 0.139162l 4.44472, 0.104676l 4.44472, 0.0779539l 4.44472, 0.0574763l 4.44472, 0.0419565l 4.44472, 0.0303229l 4.44472, 0.0216972l 4.44472, 0.0153708l 4.44472, 0.0107808l 4.44472, 0.0229867h
 48.892" fill="none" stroke="#00ff00" stroke-width="2"/>
<path d="M499.534,459.21h 4.44472" fill="none" stroke="#00ff00" stroke-width="2"/>
<rect x="331.526" y="318.66" width="167.415" height="57.0734" fill="white"/>
<path d="M331.526,375.733h 167.415" fill="none" stroke="black"/>
<path d="M498.941,375.733v -57.0734" fill="none" stroke="black"/>
<path d="M498.941,318.66h -167.415" fill="none" stroke="black"/>
<path d="M331.526,318.66v 57.0734" fill="none" stroke="black"/>
<text xml:space="preserve" x="373.38" y="339.587" fill="black" font-size="18.931" font-family="Helvetica">normal_cdf
</text>
<path d="M337.804,332.928h 29.2976" fill="none" stroke="#ff0000" stroke-width="2"/>
<text xml:space="preserve" x="373.38" y="368.123" fill="black" font-size="18.931" font-family="Helvetica">normal_cdf_c
</text>
<path d="M337.804,361.465h 29.2976" fill="none" stroke="#00ff00" stroke-width="2"/>
<rect x="6.16929" y="496.906" width="555.591" height="230.095" fill="white"/>
<rect x="61.7283" y="519.916" width="444.472" height="184.076" fill="white"/>
<rect x="61.7283" y="519.916" width="444.472" height="184.076" fill="none" stroke="black"/>
<path d="M61.9506,695.643l 0.444472, -8.18919l 0.444472, -4.07708l 0.444472, -2.79552l 0.444472, -2.15113l 0.444472, -1.75955l 0.444472, -1.49505l 0.444472, -1.30378l 0.444472, -1.15869l 0.444472, -1.04466l 0.444472, -0.952559l 0.444472, -0.876533l
 0.444472, -0.812653l 0.444472, -0.758184l 0.444472, -0.711157l 0.444472, -0.670122l 0.444472, -0.633984l 0.444472, -0.601903l 0.444472, -0.573221l 0.444472, -0.547415l 0.444472, -0.524067l 0.444472, -0.502836l 0.444472, -0.483441l 0.444472,
 -0.46565l 0.444472, -0.449268l 0.444472, -0.434131l 0.444472, -0.4201l 0.444472, -0.407056l 0.444472, -0.394896l 0.444472, -0.383532l 0.444472, -0.372887l 0.444472, -0.362893l 0.444472, -0.353491l 0.444472, -0.34463l 0.444472, -0.336262l 0.444472,
 -0.328348l 0.444472, -0.32085l 0.444472, -0.313736l 0.444472, -0.306976l 0.444472, -0.300545l 0.444472, -0.294418l 0.444472, -0.288574l 0.444472, -0.282994l 0.444472, -0.277659l 0.444472, -0.272554l 0.444472, -0.267663l 0.444472, -0.262973l
 0.444472, -0.258473l 0.444472, -0.254149l 0.444472, -0.249993" fill="none" stroke="#ff0000" stroke-width="2"/>
<path d="M83.7297,654.016l 0.444472, -0.245994l 0.444472, -0.242143l 0.444472, -0.238433l 0.444472, -0.234854l 0.444472, -0.231402l 0.444472, -0.228067l 0.444472, -0.224846l 0.444472, -0.221731l 0.444472, -0.218719l 0.444472, -0.215802l 0.444472,
 -0.212978l 0.444472, -0.210241l 0.444472, -0.207588l 0.444472, -0.205014l 0.444472, -0.202517l 0.444472, -0.200092l 0.444472, -0.197737l 0.444472, -0.195448l 0.444472, -0.193223l 0.444472, -0.191059l 0.444472, -0.188954l 0.444472, -0.186905l
 0.444472, -0.184909l 0.444472, -0.182966l 0.444472, -0.181072l 0.444472, -0.179226l 0.444472, -0.177426l 0.444472, -0.17567l 0.444472, -0.173957l 0.444472, -0.172285l 0.444472, -0.170653l 0.444472, -0.169059l 0.444472, -0.167502l 0.444472, -0.16598l
 0.444472, -0.164493l 0.444472, -0.163039l 0.444472, -0.161617l 0.444472, -0.160226l 0.444472, -0.158866l 0.444472, -0.157534l 0.444472, -0.15623l 0.444472, -0.154954l 0.444472, -0.153704l 0.444472, -0.152479l 0.444472, -0.151279l 0.444472,
 -0.150104l 0.444472, -0.148951l 0.444472, -0.147821l 0.444472, -0.146714" fill="none" stroke="#ff0000" stroke-width="2"/>
<path d="M105.509,644.894l 0.444472, -0.145627l 0.444472, -0.144561l 0.444472, -0.143516l 0.444472, -0.142489l 0.444472, -0.141482l 0.444472, -0.140494l 0.444472, -0.139523l 0.444472, -0.13857l 0.444472, -0.137633l 0.444472, -0.136714l 0.444472,
 -0.13581l 0.444472, -0.134923l 0.444472, -0.13405l 0.444472, -0.133192l 0.444472, -0.132349l 0.444472, -0.13152l 0.444472, -0.130705l 0.444472, -0.129904l 0.444472, -0.129115l 0.444472, -0.12834l 0.444472, -0.127576l 0.444472, -0.126825l 0.444472,
 -0.126086l 0.444472, -0.125359l 0.444472, -0.124643l 0.444472, -0.123938l 0.444472, -0.123244l 0.444472, -0.12256l 0.444472, -0.121887l 0.444472, -0.121224l 0.444472, -0.120571l 0.444472, -0.119928l 0.444472, -0.119294l 0.444472, -0.11867l 0.444472,
 -0.118054l 0.444472, -0.117447l 0.444472, -0.11685l 0.444472, -0.11626l 0.444472, -0.115679l 0.444472, -0.115106l 0.444472, -0.114541l 0.444472, -0.113984l 0.444472, -0.113435l 0.444472, -0.112893l 0.444472, -0.112358l 0.444472, -0.111831l 0.444472,
 -0.11131l 0.444472, -0.110797l 0.444472, -0.110291" fill="none" stroke="#ff0000" stroke-width="2"/>
<path d="M127.288,638.73l 0.444472, -0.109791l 0.444472, -0.109298l 0.444472, -0.108811l 0.444472, -0.10833l 0.444472, -0.107856l 0.444472, -0.107387l 0.444472, -0.106925l 0.444472, -0.106469l 0.444472, -0.106018l 0.444472, -0.105573l 0.444472,
 -0.105133l 0.444472, -0.104699l 0.444472, -0.10427l 0.444472, -0.103847l 0.444472, -0.103428l 0.444472, -0.103015l 0.444472, -0.102606l 0.444472, -0.102203l 0.444472, -0.101804l 0.444472, -0.10141l 0.444472, -0.101021l 0.444472, -0.100636l 0.444472,
 -0.100256l 0.444472, -0.0998803l 0.444472, -0.0995088l 0.444472, -0.0991416l 0.444472, -0.0987785l 0.444472, -0.0984197l 0.444472, -0.0980649l 0.444472, -0.0977141l 0.444472, -0.0973672l 0.444472, -0.0970242l 0.444472, -0.096685l 0.444472,
 -0.0963496l 0.444472, -0.0960179l 0.444472, -0.0956898l 0.444472, -0.0953653l 0.444472, -0.0950444l 0.444472, -0.0947269l 0.444472, -0.0944129l 0.444472, -0.0941022l 0.444472, -0.0937948l 0.444472, -0.0934908l 0.444472, -0.0931899l 0.444472,
 -0.0928923l 0.444472, -0.0925977l 0.444472, -0.0923063l 0.444472, -0.0920179l 0.444472, -0.0917324" fill="none" stroke="#ff0000" stroke-width="2"/>
<path d="M149.067,633.833l 0.444472, -0.09145l 0.444472, -0.0911705l 0.444472, -0.0908938l 0.444472, -0.09062l 0.444472, -0.090349l 0.444472, -0.0900807l 0.444472, -0.0898151l 0.444472, -0.0895522l 0.444472, -0.089292l 0.444472, -0.0890344l 0.444472,
 -0.0887793l 0.444472, -0.0885268l 0.444472, -0.0882768l 0.444472, -0.0880292l 0.444472, -0.0877841l 0.444472, -0.0875414l 0.444472, -0.0873011l 0.444472, -0.0870631l 0.444472, -0.0868275l 0.444472, -0.0865941l 0.444472, -0.086363l 0.444472,
 -0.0861341l 0.444472, -0.0859074l 0.444472, -0.0856828l 0.444472, -0.0854604l 0.444472, -0.0852402l 0.444472, -0.085022l 0.444472, -0.0848059l 0.444472, -0.0845918l 0.444472, -0.0843797l 0.444472, -0.0841696l 0.444472, -0.0839615l 0.444472,
 -0.0837554l 0.444472, -0.0835511l 0.444472, -0.0833488l 0.444472, -0.0831483l 0.444472, -0.0829496l 0.444472, -0.0827528l 0.444472, -0.0825578l 0.444472, -0.0823646l 0.444472, -0.0821732l 0.444472, -0.0819835l 0.444472, -0.0817955l 0.444472,
 -0.0816093l 0.444472, -0.0814247l 0.444472, -0.0812418l 0.444472, -0.0810605l 0.444472, -0.0808809l 0.444472, -0.0807029" fill="none" stroke="#ff0000" stroke-width="2"/>
<path d="M170.846,629.635l 0.444472, -0.0805265l 0.444472, -0.0803516l 0.444472, -0.0801783l 0.444472, -0.0800066l 0.444472, -0.0798364l 0.444472, -0.0796677l 0.444472, -0.0795005l 0.444472, -0.0793347l 0.444472, -0.0791705l 0.444472, -0.0790076l
 0.444472, -0.0788463l 0.444472, -0.0786863l 0.444472, -0.0785277l 0.444472, -0.0783705l 0.444472, -0.0782147l 0.444472, -0.0780603l 0.444472, -0.0779071l 0.444472, -0.0777554l 0.444472, -0.0776049l 0.444472, -0.0774557l 0.444472, -0.0773079l
 0.444472, -0.0771613l 0.444472, -0.077016l 0.444472, -0.0768719l 0.444472, -0.0767291l 0.444472, -0.0765875l 0.444472, -0.0764471l 0.444472, -0.0763079l 0.444472, -0.07617l 0.444472, -0.0760332l 0.444472, -0.0758975l 0.444472, -0.0757631l 0.444472,
 -0.0756297l 0.444472, -0.0754976l 0.444472, -0.0753665l 0.444472, -0.0752366l 0.444472, -0.0751077l 0.444472, -0.07498l 0.444472, -0.0748534l 0.444472, -0.0747278l 0.444472, -0.0746033l 0.444472, -0.0744798l 0.444472, -0.0743575l 0.444472,
 -0.0742361l 0.444472, -0.0741158l 0.444472, -0.0739964l 0.444472, -0.0738781l 0.444472, -0.0737609l 0.444472, -0.0736445" fill="none" stroke="#ff0000" stroke-width="2"/>
<path d="M192.625,625.87l 0.444472, -0.0735292l 0.444472, -0.0734149l 0.444472, -0.0733015l 0.444472, -0.0731891l 0.444472, -0.0730776l 0.444472, -0.0729671l 0.444472, -0.0728575l 0.444472, -0.0727489l 0.444472, -0.0726411l 0.444472, -0.0725343l
 0.444472, -0.0724284l 0.444472, -0.0723234l 0.444472, -0.0722192l 0.444472, -0.072116l 0.444472, -0.0720136l 0.444472, -0.0719121l 0.444472, -0.0718115l 0.444472, -0.0717117l 0.444472, -0.0716127l 0.444472, -0.0715146l 0.444472, -0.0714174l
 0.444472, -0.0713209l 0.444472, -0.0712253l 0.444472, -0.0711305l 0.444472, -0.0710365l 0.444472, -0.0709434l 0.444472, -0.070851l 0.444472, -0.0707594l 0.444472, -0.0706686l 0.444472, -0.0705785l 0.444472, -0.0704893l 0.444472, -0.0704008l
 0.444472, -0.0703131l 0.444472, -0.0702261l 0.444472, -0.0701399l 0.444472, -0.0700544l 0.444472, -0.0699697l 0.444472, -0.0698857l 0.444472, -0.0698024l 0.444472, -0.0697199l 0.444472, -0.0696381l 0.444472, -0.069557l 0.444472, -0.0694766l
 0.444472, -0.0693969l 0.444472, -0.0693179l 0.444472, -0.0692396l 0.444472, -0.069162l 0.444472, -0.0690851l 0.444472, -0.0690089" fill="none" stroke="#ff0000" stroke-width="2"/>
<path d="M214.405,622.385l 0.444472, -0.0689334l 0.444472, -0.0688585l 0.444472, -0.0687843l 0.444472, -0.0687107l 0.444472, -0.0686378l 0.444472, -0.0685656l 0.444472, -0.068494l 0.444472, -0.0684231l 0.444472, -0.0683528l 0.444472, -0.0682832l
 0.444472, -0.0682142l 0.444472, -0.0681458l 0.444472, -0.068078l 0.444472, -0.0680109l 0.444472, -0.0679444l 0.444472, -0.0678785l 0.444472, -0.0678132l 0.444472, -0.0677485l 0.444472, -0.0676845l 0.444472, -0.067621l 0.444472, -0.0675581l 0.444472,
 -0.0674959l 0.444472, -0.0674342l 0.444472, -0.0673731l 0.444472, -0.0673126l 0.444472, -0.0672527l 0.444472, -0.0671933l 0.444472, -0.0671346l 0.444472, -0.0670764l 0.444472, -0.0670187l 0.444472, -0.0669617l 0.444472, -0.0669052l 0.444472,
 -0.0668492l 0.444472, -0.0667938l 0.444472, -0.066739l 0.444472, -0.0666847l 0.444472, -0.066631l 0.444472, -0.0665778l 0.444472, -0.0665252l 0.444472, -0.0664731l 0.444472, -0.0664215l 0.444472, -0.0663705l 0.444472, -0.06632l 0.444472, -0.06627l
 0.444472, -0.0662206l 0.444472, -0.0661716l 0.444472, -0.0661232l 0.444472, -0.0660754l 0.444472, -0.066028" fill="none" stroke="#ff0000" stroke-width="2"/>
<path d="M236.184,619.084l 0.444472, -0.0659811l 0.444472, -0.0659348l 0.444472, -0.065889l 0.444472, -0.0658437l 0.444472, -0.0657989l 0.444472, -0.0657545l 0.444472, -0.0657107l 0.444472, -0.0656674l 0.444472, -0.0656246l 0.444472, -0.0655823l
 0.444472, -0.0655405l 0.444472, -0.0654991l 0.444472, -0.0654583l 0.444472, -0.0654179l 0.444472, -0.065378l 0.444472, -0.0653386l 0.444472, -0.0652997l 0.444472, -0.0652613l 0.444472, -0.0652233l 0.444472, -0.0651858l 0.444472, -0.0651488l
 0.444472, -0.0651123l 0.444472, -0.0650762l 0.444472, -0.0650406l 0.444472, -0.0650055l 0.444472, -0.0649708l 0.444472, -0.0649366l 0.444472, -0.0649028l 0.444472, -0.0648695l 0.444472, -0.0648367l 0.444472, -0.0648043l 0.444472, -0.0647724l
 0.444472, -0.0647409l 0.444472, -0.0647099l 0.444472, -0.0646793l 0.444472, -0.0646492l 0.444472, -0.0646195l 0.444472, -0.0645903l 0.444472, -0.0645615l 0.444472, -0.0645332l 0.444472, -0.0645053l 0.444472, -0.0644778l 0.444472, -0.0644508l
 0.444472, -0.0644243l 0.444472, -0.0643981l 0.444472, -0.0643724l 0.444472, -0.0643471l 0.444472, -0.0643223l 0.444472, -0.0642979" fill="none" stroke="#ff0000" stroke-width="2"/>
<path d="M257.963,615.896l 0.444472, -0.0642739l 0.444472, -0.0642504l 0.444472, -0.0642273l 0.444472, -0.0642046l 0.444472, -0.0641823l 0.444472, -0.0641605l 0.444472, -0.0641391l 0.444472, -0.0641181l 0.444472, -0.0640975l 0.444472, -0.0640774l
 0.444472, -0.0640577l 0.444472, -0.0640384l 0.444472, -0.0640195l 0.444472, -0.064001l 0.444472, -0.063983l 0.444472, -0.0639654l 0.444472, -0.0639482l 0.444472, -0.0639314l 0.444472, -0.063915l 0.444472, -0.063899l 0.444472, -0.0638835l 0.444472,
 -0.0638683l 0.444472, -0.0638536l 0.444472, -0.0638393l 0.444472, -0.0638254l 0.444472, -0.0638119l 0.444472, -0.0637988l 0.444472, -0.0637861l 0.444472, -0.0637739l 0.444472, -0.063762l 0.444472, -0.0637505l 0.444472, -0.0637395l 0.444472,
 -0.0637288l 0.444472, -0.0637186l 0.444472, -0.0637088l 0.444472, -0.0636993l 0.444472, -0.0636903l 0.444472, -0.0636817l 0.444472, -0.0636735l 0.444472, -0.0636657l 0.444472, -0.0636583l 0.444472, -0.0636513l 0.444472, -0.0636446l 0.444472,
 -0.0636384l 0.444472, -0.0636326l 0.444472, -0.0636272l 0.444472, -0.0636222l 0.444472, -0.0636176l 0.444472, -0.0636134" fill="none" stroke="#ff0000" stroke-width="2"/>
<path d="M279.742,612.767l 0.444472, -0.0636096l 0.444472, -0.0636062l 0.444472, -0.0636032l 0.444472, -0.0636007l 0.444472, -0.0635985l 0.444472, -0.0635967l 0.444472, -0.0635953l 0.444472, -0.0635943l 0.444472, -0.0635937l 0.444472, -0.0635935l
 0.444472, -0.0635937l 0.444472, -0.0635943l 0.444472, -0.0635953l 0.444472, -0.0635967l 0.444472, -0.0635985l 0.444472, -0.0636007l 0.444472, -0.0636032l 0.444472, -0.0636062l 0.444472, -0.0636096l 0.444472, -0.0636134l 0.444472, -0.0636176l
 0.444472, -0.0636222l 0.444472, -0.0636272l 0.444472, -0.0636326l 0.444472, -0.0636384l 0.444472, -0.0636446l 0.444472, -0.0636513l 0.444472, -0.0636583l 0.444472, -0.0636657l 0.444472, -0.0636735l 0.444472, -0.0636817l 0.444472, -0.0636903l
 0.444472, -0.0636993l 0.444472, -0.0637088l 0.444472, -0.0637186l 0.444472, -0.0637288l 0.444472, -0.0637395l 0.444472, -0.0637505l 0.444472, -0.063762l 0.444472, -0.0637739l 0.444472, -0.0637861l 0.444472, -0.0637988l 0.444472, -0.0638119l
 0.444472, -0.0638254l 0.444472, -0.0638393l 0.444472, -0.0638536l 0.444472, -0.0638683l 0.444472, -0.0638835l 0.444472, -0.063899" fill="none" stroke="#ff0000" stroke-width="2"/>
<path d="M301.521,609.646l 0.444472, -0.063915l 0.444472, -0.0639314l 0.444472, -0.0639482l 0.444472, -0.0639654l 0.444472, -0.063983l 0.444472, -0.064001l 0.444472, -0.0640195l 0.444472, -0.0640384l 0.444472, -0.0640577l 0.444472, -0.0640774l
 0.444472, -0.0640975l 0.444472, -0.0641181l 0.444472, -0.0641391l 0.444472, -0.0641605l 0.444472, -0.0641823l 0.444472, -0.0642046l 0.444472, -0.0642273l 0.444472, -0.0642504l 0.444472, -0.0642739l 0.444472, -0.0642979l 0.444472, -0.0643223l
 0.444472, -0.0643471l 0.444472, -0.0643724l 0.444472, -0.0643981l 0.444472, -0.0644243l 0.444472, -0.0644508l 0.444472, -0.0644778l 0.444472, -0.0645053l 0.444472, -0.0645332l 0.444472, -0.0645615l 0.444472, -0.0645903l 0.444472, -0.0646195l
 0.444472, -0.0646492l 0.444472, -0.0646793l 0.444472, -0.0647099l 0.444472, -0.0647409l 0.444472, -0.0647724l 0.444472, -0.0648043l 0.444472, -0.0648367l 0.444472, -0.0648695l 0.444472, -0.0649028l 0.444472, -0.0649366l 0.444472, -0.0649708l
 0.444472, -0.0650055l 0.444472, -0.0650406l 0.444472, -0.0650762l 0.444472, -0.0651123l 0.444472, -0.0651488l 0.444472, -0.0651858" fill="none" stroke="#ff0000" stroke-width="2"/>
<path d="M323.3,606.487l 0.444472, -0.0652233l 0.444472, -0.0652613l 0.444472, -0.0652997l 0.444472, -0.0653386l 0.444472, -0.065378l 0.444472, -0.0654179l 0.444472, -0.0654583l 0.444472, -0.0654991l 0.444472, -0.0655405l 0.444472, -0.0655823l
 0.444472, -0.0656246l 0.444472, -0.0656674l 0.444472, -0.0657107l 0.444472, -0.0657545l 0.444472, -0.0657989l 0.444472, -0.0658437l 0.444472, -0.065889l 0.444472, -0.0659348l 0.444472, -0.0659811l 0.444472, -0.066028l 0.444472, -0.0660754l 0.444472,
 -0.0661232l 0.444472, -0.0661716l 0.444472, -0.0662206l 0.444472, -0.06627l 0.444472, -0.06632l 0.444472, -0.0663705l 0.444472, -0.0664215l 0.444472, -0.0664731l 0.444472, -0.0665252l 0.444472, -0.0665778l 0.444472, -0.066631l 0.444472, -0.0666847l
 0.444472, -0.066739l 0.444472, -0.0667938l 0.444472, -0.0668492l 0.444472, -0.0669052l 0.444472, -0.0669617l 0.444472, -0.0670187l 0.444472, -0.0670764l 0.444472, -0.0671346l 0.444472, -0.0671933l 0.444472, -0.0672527l 0.444472, -0.0673126l
 0.444472, -0.0673731l 0.444472, -0.0674342l 0.444472, -0.0674959l 0.444472, -0.0675581l 0.444472, -0.067621" fill="none" stroke="#ff0000" stroke-width="2"/>
<path d="M345.08,603.238l 0.444472, -0.0676845l 0.444472, -0.0677485l 0.444472, -0.0678132l 0.444472, -0.0678785l 0.444472, -0.0679444l 0.444472, -0.0680109l 0.444472, -0.068078l 0.444472, -0.0681458l 0.444472, -0.0682142l 0.444472, -0.0682832l
 0.444472, -0.0683528l 0.444472, -0.0684231l 0.444472, -0.068494l 0.444472, -0.0685656l 0.444472, -0.0686378l 0.444472, -0.0687107l 0.444472, -0.0687843l 0.444472, -0.0688585l 0.444472, -0.0689334l 0.444472, -0.0690089l 0.444472, -0.0690851l
 0.444472, -0.069162l 0.444472, -0.0692396l 0.444472, -0.0693179l 0.444472, -0.0693969l 0.444472, -0.0694766l 0.444472, -0.069557l 0.444472, -0.0696381l 0.444472, -0.0697199l 0.444472, -0.0698024l 0.444472, -0.0698857l 0.444472, -0.0699697l 0.444472,
 -0.0700544l 0.444472, -0.0701399l 0.444472, -0.0702261l 0.444472, -0.0703131l 0.444472, -0.0704008l 0.444472, -0.0704893l 0.444472, -0.0705785l 0.444472, -0.0706686l 0.444472, -0.0707594l 0.444472, -0.070851l 0.444472, -0.0709434l 0.444472,
 -0.0710365l 0.444472, -0.0711305l 0.444472, -0.0712253l 0.444472, -0.0713209l 0.444472, -0.0714174l 0.444472, -0.0715146" fill="none" stroke="#ff0000" stroke-width="2"/>
<path d="M366.859,599.834l 0.444472, -0.0716127l 0.444472, -0.0717117l 0.444472, -0.0718115l 0.444472, -0.0719121l 0.444472, -0.0720136l 0.444472, -0.072116l 0.444472, -0.0722192l 0.444472, -0.0723234l 0.444472, -0.0724284l 0.444472, -0.0725343l
 0.444472, -0.0726411l 0.444472, -0.0727489l 0.444472, -0.0728575l 0.444472, -0.0729671l 0.444472, -0.0730776l 0.444472, -0.0731891l 0.444472, -0.0733015l 0.444472, -0.0734149l 0.444472, -0.0735292l 0.444472, -0.0736445l 0.444472, -0.0737609l
 0.444472, -0.0738781l 0.444472, -0.0739964l 0.444472, -0.0741158l 0.444472, -0.0742361l 0.444472, -0.0743575l 0.444472, -0.0744798l 0.444472, -0.0746033l 0.444472, -0.0747278l 0.444472, -0.0748534l 0.444472, -0.07498l 0.444472, -0.0751077l 0.444472,
 -0.0752366l 0.444472, -0.0753665l 0.444472, -0.0754976l 0.444472, -0.0756297l 0.444472, -0.0757631l 0.444472, -0.0758975l 0.444472, -0.0760332l 0.444472, -0.07617l 0.444472, -0.0763079l 0.444472, -0.0764471l 0.444472, -0.0765875l 0.444472,
 -0.0767291l 0.444472, -0.0768719l 0.444472, -0.077016l 0.444472, -0.0771613l 0.444472, -0.0773079l 0.444472, -0.0774557" fill="none" stroke="#ff0000" stroke-width="2"/>
<path d="M388.638,596.191l 0.444472, -0.0776049l 0.444472, -0.0777554l 0.444472, -0.0779071l 0.444472, -0.0780603l 0.444472, -0.0782147l 0.444472, -0.0783705l 0.444472, -0.0785277l 0.444472, -0.0786863l 0.444472, -0.0788463l 0.444472, -0.0790076l
 0.444472, -0.0791705l 0.444472, -0.0793347l 0.444472, -0.0795005l 0.444472, -0.0796677l 0.444472, -0.0798364l 0.444472, -0.0800066l 0.444472, -0.0801783l 0.444472, -0.0803516l 0.444472, -0.0805265l 0.444472, -0.0807029l 0.444472, -0.0808809l
 0.444472, -0.0810605l 0.444472, -0.0812418l 0.444472, -0.0814247l 0.444472, -0.0816093l 0.444472, -0.0817955l 0.444472, -0.0819835l 0.444472, -0.0821732l 0.444472, -0.0823646l 0.444472, -0.0825578l 0.444472, -0.0827528l 0.444472, -0.0829496l
 0.444472, -0.0831483l 0.444472, -0.0833488l 0.444472, -0.0835511l 0.444472, -0.0837554l 0.444472, -0.0839615l 0.444472, -0.0841696l 0.444472, -0.0843797l 0.444472, -0.0845918l 0.444472, -0.0848059l 0.444472, -0.085022l 0.444472, -0.0852402l
 0.444472, -0.0854604l 0.444472, -0.0856828l 0.444472, -0.0859074l 0.444472, -0.0861341l 0.444472, -0.086363l 0.444472, -0.0865941" fill="none" stroke="#ff0000" stroke-width="2"/>
<path d="M410.417,592.184l 0.444472, -0.0868275l 0.444472, -0.0870631l 0.444472, -0.0873011l 0.444472, -0.0875414l 0.444472, -0.0877841l 0.444472, -0.0880292l 0.444472, -0.0882768l 0.444472, -0.0885268l 0.444472, -0.0887793l 0.444472, -0.0890344l
 0.444472, -0.089292l 0.444472, -0.0895522l 0.444472, -0.0898151l 0.444472, -0.0900807l 0.444472, -0.090349l 0.444472, -0.09062l 0.444472, -0.0908938l 0.444472, -0.0911705l 0.444472, -0.09145l 0.444472, -0.0917324l 0.444472, -0.0920179l 0.444472,
 -0.0923063l 0.444472, -0.0925977l 0.444472, -0.0928923l 0.444472, -0.0931899l 0.444472, -0.0934908l 0.444472, -0.0937948l 0.444472, -0.0941022l 0.444472, -0.0944129l 0.444472, -0.0947269l 0.444472, -0.0950444l 0.444472, -0.0953653l 0.444472,
 -0.0956898l 0.444472, -0.0960179l 0.444472, -0.0963496l 0.444472, -0.096685l 0.444472, -0.0970242l 0.444472, -0.0973672l 0.444472, -0.0977141l 0.444472, -0.0980649l 0.444472, -0.0984197l 0.444472, -0.0987785l 0.444472, -0.0991416l 0.444472,
 -0.0995088l 0.444472, -0.0998803l 0.444472, -0.100256l 0.444472, -0.100636l 0.444472, -0.101021l 0.444472, -0.10141" fill="none" stroke="#ff0000" stroke-width="2"/>
<path d="M432.196,587.602l 0.444472, -0.101804l 0.444472, -0.102203l 0.444472, -0.102606l 0.444472, -0.103015l 0.444472, -0.103428l 0.444472, -0.103847l 0.444472, -0.10427l 0.444472, -0.104699l 0.444472, -0.105133l 0.444472, -0.105573l 0.444472,
 -0.106018l 0.444472, -0.106469l 0.444472, -0.106925l 0.444472, -0.107387l 0.444472, -0.107856l 0.444472, -0.10833l 0.444472, -0.108811l 0.444472, -0.109298l 0.444472, -0.109791l 0.444472, -0.110291l 0.444472, -0.110797l 0.444472, -0.11131l 0.444472,
 -0.111831l 0.444472, -0.112358l 0.444472, -0.112893l 0.444472, -0.113435l 0.444472, -0.113984l 0.444472, -0.114541l 0.444472, -0.115106l 0.444472, -0.115679l 0.444472, -0.11626l 0.444472, -0.11685l 0.444472, -0.117447l 0.444472, -0.118054l 0.444472,
 -0.11867l 0.444472, -0.119294l 0.444472, -0.119928l 0.444472, -0.120571l 0.444472, -0.121224l 0.444472, -0.121887l 0.444472, -0.12256l 0.444472, -0.123244l 0.444472, -0.123938l 0.444472, -0.124643l 0.444472, -0.125359l 0.444472, -0.126086l 0.444472,
 -0.126825l 0.444472, -0.127576l 0.444472, -0.12834" fill="none" stroke="#ff0000" stroke-width="2"/>
<path d="M453.975,582.033l 0.444472, -0.129115l 0.444472, -0.129904l 0.444472, -0.130705l 0.444472, -0.13152l 0.444472, -0.132349l 0.444472, -0.133192l 0.444472, -0.13405l 0.444472, -0.134923l 0.444472, -0.13581l 0.444472, -0.136714l 0.444472,
 -0.137633l 0.444472, -0.13857l 0.444472, -0.139523l 0.444472, -0.140494l 0.444472, -0.141482l 0.444472, -0.142489l 0.444472, -0.143516l 0.444472, -0.144561l 0.444472, -0.145627l 0.444472, -0.146714l 0.444472, -0.147821l 0.444472, -0.148951l
 0.444472, -0.150104l 0.444472, -0.151279l 0.444472, -0.152479l 0.444472, -0.153704l 0.444472, -0.154954l 0.444472, -0.15623l 0.444472, -0.157534l 0.444472, -0.158866l 0.444472, -0.160226l 0.444472, -0.161617l 0.444472, -0.163039l 0.444472,
 -0.164493l 0.444472, -0.16598l 0.444472, -0.167502l 0.444472, -0.169059l 0.444472, -0.170653l 0.444472, -0.172285l 0.444472, -0.173957l 0.444472, -0.17567l 0.444472, -0.177426l 0.444472, -0.179226l 0.444472, -0.181072l 0.444472, -0.182966l 0.444472,
 -0.184909l 0.444472, -0.186905l 0.444472, -0.188954l 0.444472, -0.191059" fill="none" stroke="#ff0000" stroke-width="2"/>
<path d="M475.754,574.436l 0.444472, -0.193223l 0.444472, -0.195448l 0.444472, -0.197737l 0.444472, -0.200092l 0.444472, -0.202517l 0.444472, -0.205014l 0.444472, -0.207588l 0.444472, -0.210241l 0.444472, -0.212978l 0.444472, -0.215802l 0.444472,
 -0.218719l 0.444472, -0.221731l 0.444472, -0.224846l 0.444472, -0.228067l 0.444472, -0.231402l 0.444472, -0.234854l 0.444472, -0.238433l 0.444472, -0.242143l 0.444472, -0.245994l 0.444472, -0.249993l 0.444472, -0.254149l 0.444472, -0.258473l
 0.444472, -0.262973l 0.444472, -0.267663l 0.444472, -0.272554l 0.444472, -0.277659l 0.444472, -0.282994l 0.444472, -0.288574l 0.444472, -0.294418l 0.444472, -0.300545l 0.444472, -0.306976l 0.444472, -0.313736l 0.444472, -0.32085l 0.444472,
 -0.328348l 0.444472, -0.336262l 0.444472, -0.34463l 0.444472, -0.353491l 0.444472, -0.362893l 0.444472, -0.372887l 0.444472, -0.383532l 0.444472, -0.394896l 0.444472, -0.407056l 0.444472, -0.4201l 0.444472, -0.434131l 0.444472, -0.449268l 0.444472,
 -0.46565l 0.444472, -0.483441l 0.444472, -0.502836l 0.444472, -0.524067" fill="none" stroke="#ff0000" stroke-width="2"/>
<path d="M497.534,559.794l 0.444472, -0.547415l 0.444472, -0.573221l 0.444472, -0.601903l 0.444472, -0.633984l 0.444472, -0.670122l 0.444472, -0.711157l 0.444472, -0.758184l 0.444472, -0.812653l 0.444472, -0.876533l 0.444472, -0.952559l 0.444472,
 -1.04466l 0.444472, -1.15869l 0.444472, -1.30378l 0.444472, -1.49505l 0.444472, -1.75955l 0.444472, -2.15113l 0.444472, -2.79552l 0.444472, -4.07708l 0.444472, -8.18919" fill="none" stroke="#ff0000" stroke-width="2"/>
<path d="M61.7283,703.992h 444.472" fill="none" stroke="black"/>
<path d="M61.7283,698.469v 5.52227" fill="none" stroke="black"/>
<path d="M70.6178,701.23v 2.76114" fill="none" stroke="black"/>
<path d="M79.5072,701.23v 2.76114" fill="none" stroke="black"/>
<path d="M88.3967,701.23v 2.76114" fill="none" stroke="black"/>
<path d="M97.2861,701.23v 2.76114" fill="none" stroke="black"/>
<path d="M106.176,698.469v 5.52227" fill="none" stroke="black"/>
<path d="M115.065,701.23v 2.76114" fill="none" stroke="black"/>
<path d="M123.954,701.23v 2.76114" fill="none" stroke="black"/>
<path d="M132.844,701.23v 2.76114" fill="none" stroke="black"/>
<path d="M141.733,701.23v 2.76114" fill="none" stroke="black"/>
<path d="M150.623,698.469v 5.52227" fill="none" stroke="black"/>
<path d="M159.512,701.23v 2.76114" fill="none" stroke="black"/>
<path d="M168.402,701.23v 2.76114" fill="none" stroke="black"/>
<path d="M177.291,701.23v 2.76114" fill="none" stroke="black"/>
<path d="M186.181,701.23v 2.76114" fill="none" stroke="black"/>
<path d="M195.07,698.469v 5.52227" fill="none" stroke="black"/>
<path d="M203.96,701.23v 2.76114" fill="none" stroke="black"/>
<path d="M212.849,701.23v 2.76114" fill="none" stroke="black"/>
<path d="M221.738,701.23v 2.76114" fill="none" stroke="black"/>
<path d="M230.628,701.23v 2.76114" fill="none" stroke="black"/>
<path d="M239.517,698.469v 5.52227" fill="none" stroke="black"/>
<path d="M248.407,701.23v 2.76114" fill="none" stroke="black"/>
<path d="M257.296,701.23v 2.76114" fill="none" stroke="black"/>
<path d="M266.186,701.23v 2.76114" fill="none" stroke="black"/>
<path d="M275.075,701.23v 2.76114" fill="none" stroke="black"/>
<path d="M283.965,698.469v 5.52227" fill="none" stroke="black"/>
<path d="M292.854,701.23v 2.76114" fill="none" stroke="black"/>
<path d="M301.743,701.23v 2.76114" fill="none" stroke="black"/>
<path d="M310.633,701.23v 2.76114" fill="none" stroke="black"/>
<path d="M319.522,701.23v 2.76114" fill="none" stroke="black"/>
<path d="M328.412,698.469v 5.52227" fill="none" stroke="black"/>
<path d="M337.301,701.23v 2.76114" fill="none" stroke="black"/>
<path d="M346.191,701.23v 2.76114" fill="none" stroke="black"/>
<path d="M355.08,701.23v 2.76114" fill="none" stroke="black"/>
<path d="M363.97,701.23v 2.76114" fill="none" stroke="black"/>
<path d="M372.859,698.469v 5.52227" fill="none" stroke="black"/>
<path d="M381.749,701.23v 2.76114" fill="none" stroke="black"/>
<path d="M390.638,701.23v 2.76114" fill="none" stroke="black"/>
<path d="M399.527,701.23v 2.76114" fill="none" stroke="black"/>
<path d="M408.417,701.23v 2.76114" fill="none" stroke="black"/>
<path d="M417.306,698.469v 5.52227" fill="none" stroke="black"/>
<path d="M426.196,701.23v 2.76114" fill="none" stroke="black"/>
<path d="M435.085,701.23v 2.76114" fill="none" stroke="black"/>
<path d="M443.975,701.23v 2.76114" fill="none" stroke="black"/>
<path d="M452.864,701.23v 2.76114" fill="none" stroke="black"/>
<path d="M461.754,698.469v 5.52227" fill="none" stroke="black"/>
<path d="M470.643,701.23v 2.76114" fill="none" stroke="black"/>
<path d="M479.532,701.23v 2.76114" fill="none" stroke="black"/>
<path d="M488.422,701.23v 2.76114" fill="none" stroke="black"/>
<path d="M497.311,701.23v 2.76114" fill="none" stroke="black"/>
<path d="M506.201,698.469v 5.52227" fill="none" stroke="black"/>
<text xml:space="preserve" x="57.5734" y="716.271" fill="black" font-size="13.1658" font-family="Helvetica">0
</text>
<text xml:space="preserve" x="97.5248" y="716.271" fill="black" font-size="13.1658" font-family="Helvetica">0.1
</text>
<text xml:space="preserve" x="141.281" y="716.271" fill="black" font-size="13.1658" font-family="Helvetica">0.2
</text>
<text xml:space="preserve" x="185.989" y="716.271" fill="black" font-size="13.1658" font-family="Helvetica">0.3
</text>
<text xml:space="preserve" x="229.745" y="716.271" fill="black" font-size="13.1658" font-family="Helvetica">0.4
</text>
<text xml:space="preserve" x="274.452" y="716.271" fill="black" font-size="13.1658" font-family="Helvetica">0.5
</text>
<text xml:space="preserve" x="319.16" y="716.271" fill="black" font-size="13.1658" font-family="Helvetica">0.6
</text>
<text xml:space="preserve" x="362.916" y="716.271" fill="black" font-size="13.1658" font-family="Helvetica">0.7
</text>
<text xml:space="preserve" x="407.624" y="716.271" fill="black" font-size="13.1658" font-family="Helvetica">0.8
</text>
<text xml:space="preserve" x="452.331" y="716.271" fill="black" font-size="13.1658" font-family="Helvetica">0.9
</text>
<text xml:space="preserve" x="503.697" y="716.271" fill="black" font-size="13.1658" font-family="Helvetica">1
</text>
<text xml:space="preserve" x="497.99" y="721.027" fill="black" font-size="15.2767" font-family="Helvetica">p
</text>
<path d="M61.7283,703.992v -184.076" fill="none" stroke="black"/>
<path d="M75.0625,688.273h -13.3342" fill="none" stroke="black"/>
<path d="M68.3954,683.199h -6.66709" fill="none" stroke="black"/>
<path d="M68.3954,678.125h -6.66709" fill="none" stroke="black"/>
<path d="M68.3954,673.051h -6.66709" fill="none" stroke="black"/>
<path d="M68.3954,667.977h -6.66709" fill="none" stroke="black"/>
<path d="M75.0625,662.903h -13.3342" fill="none" stroke="black"/>
<path d="M68.3954,657.829h -6.66709" fill="none" stroke="black"/>
<path d="M68.3954,652.755h -6.66709" fill="none" stroke="black"/>
<path d="M68.3954,647.681h -6.66709" fill="none" stroke="black"/>
<path d="M68.3954,642.607h -6.66709" fill="none" stroke="black"/>
<path d="M75.0625,637.533h -13.3342" fill="none" stroke="black"/>
<path d="M68.3954,632.458h -6.66709" fill="none" stroke="black"/>
<path d="M68.3954,627.384h -6.66709" fill="none" stroke="black"/>
<path d="M68.3954,622.31h -6.66709" fill="none" stroke="black"/>
<path d="M68.3954,617.236h -6.66709" fill="none" stroke="black"/>
<path d="M75.0625,612.162h -13.3342" fill="none" stroke="black"/>
<path d="M68.3954,607.088h -6.66709" fill="none" stroke="black"/>
<path d="M68.3954,602.014h -6.66709" fill="none" stroke="black"/>
<path d="M68.3954,596.94h -6.66709" fill="none" stroke="black"/>
<path d="M68.3954,591.866h -6.66709" fill="none" stroke="black"/>
<path d="M75.0625,586.792h -13.3342" fill="none" stroke="black"/>
<path d="M68.3954,581.718h -6.66709" fill="none" stroke="black"/>
<path d="M68.3954,576.644h -6.66709" fill="none" stroke="black"/>
<path d="M68.3954,571.57h -6.66709" fill="none" stroke="black"/>
<path d="M68.3954,566.496h -6.66709" fill="none" stroke="black"/>
<path d="M75.0625,561.422h -13.3342" fill="none" stroke="black"/>
<path d="M68.3954,556.348h -6.66709" fill="none" stroke="black"/>
<path d="M68.3954,551.274h -6.66709" fill="none" stroke="black"/>
<path d="M68.3954,546.2h -6.66709" fill="none" stroke="black"/>
<path d="M68.3954,541.126h -6.66709" fill="none" stroke="black"/>
<path d="M75.0625,536.052h -13.3342" fill="none" stroke="black"/>
<path d="M75.0625,688.273h -13.3342" fill="none" stroke="black"/>
<path d="M68.3954,693.347h -6.66709" fill="none" stroke="black"/>
<path d="M68.3954,698.421h -6.66709" fill="none" stroke="black"/>
<path d="M68.3954,703.495h -6.66709" fill="none" stroke="black"/>
<path d="M75.0625,536.052h -13.3342" fill="none" stroke="black"/>
<path d="M68.3954,530.978h -6.66709" fill="none" stroke="black"/>
<path d="M68.3954,525.904h -6.66709" fill="none" stroke="black"/>
<path d="M68.3954,520.83h -6.66709" fill="none" stroke="black"/>
<text xml:space="preserve" x="50.9148" y="693.442" fill="black" font-size="13.1658" font-family="Helvetica">3
</text>
<text xml:space="preserve" x="43.3051" y="693.442" fill="black" font-size="13.1658" font-family="Times">&#8722;
</text>
<text xml:space="preserve" x="50.9148" y="668.71" fill="black" font-size="13.1658" font-family="Helvetica">2
</text>
<text xml:space="preserve" x="43.3051" y="668.71" fill="black" font-size="13.1658" font-family="Times">&#8722;
</text>
<text xml:space="preserve" x="53.7685" y="643.027" fill="black" font-size="13.1658" font-family="Helvetica">1
</text>
<text xml:space="preserve" x="46.1587" y="643.027" fill="black" font-size="13.1658" font-family="Times">&#8722;
</text>
<text xml:space="preserve" x="50.9148" y="617.344" fill="black" font-size="13.1658" font-family="Helvetica">0
</text>
<text xml:space="preserve" x="53.7685" y="592.612" fill="black" font-size="13.1658" font-family="Helvetica">1
</text>
<text xml:space="preserve" x="50.9148" y="566.929" fill="black" font-size="13.1658" font-family="Helvetica">2
</text>
<text xml:space="preserve" x="50.9148" y="541.246" fill="black" font-size="13.1658" font-family="Helvetica">3
</text>
<g transform="rotate(-90,31.8904,527.929)">
<text xml:space="preserve" x="31.8904" y="527.929" fill="black" font-size="15.2767" font-family="Helvetica">x
</text>
</g>
<path d="M61.9506,528.681l 0.444472, 8.18919l 0.444472, 4.07708l 0.444472, 2.79552l 0.444472, 2.15113l 0.444472, 1.75955l 0.444472, 1.49505l 0.444472, 1.30378l 0.444472, 1.15869l 0.444472, 1.04466l 0.444472, 0.952559l 0.444472, 0.876533l 0.444472,
 0.812653l 0.444472, 0.758184l 0.444472, 0.711157l 0.444472, 0.670122l 0.444472, 0.633984l 0.444472, 0.601903l 0.444472, 0.573221l 0.444472, 0.547415l 0.444472, 0.524067l 0.444472, 0.502836l 0.444472, 0.483441l 0.444472, 0.46565l 0.444472, 0.449268l
 0.444472, 0.434131l 0.444472, 0.4201l 0.444472, 0.407056l 0.444472, 0.394896l 0.444472, 0.383532l 0.444472, 0.372887l 0.444472, 0.362893l 0.444472, 0.353491l 0.444472, 0.34463l 0.444472, 0.336262l 0.444472, 0.328348l 0.444472, 0.32085l 0.444472,
 0.313736l 0.444472, 0.306976l 0.444472, 0.300545l 0.444472, 0.294418l 0.444472, 0.288574l 0.444472, 0.282994l 0.444472, 0.277659l 0.444472, 0.272554l 0.444472, 0.267663l 0.444472, 0.262973l 0.444472, 0.258473l 0.444472, 0.254149l 0.444472, 0.249993"
 fill="none" stroke="#00ff00" stroke-width="2"/>
<path d="M83.7297,570.309l 0.444472, 0.245994l 0.444472, 0.242143l 0.444472, 0.238433l 0.444472, 0.234854l 0.444472, 0.231402l 0.444472, 0.228067l 0.444472, 0.224846l 0.444472, 0.221731l 0.444472, 0.218719l 0.444472, 0.215802l 0.444472, 0.212978l
 0.444472, 0.210241l 0.444472, 0.207588l 0.444472, 0.205014l 0.444472, 0.202517l 0.444472, 0.200092l 0.444472, 0.197737l 0.444472, 0.195448l 0.444472, 0.193223l 0.444472, 0.191059l 0.444472, 0.188954l 0.444472, 0.186905l 0.444472, 0.184909l 0.444472,
 0.182966l 0.444472, 0.181072l 0.444472, 0.179226l 0.444472, 0.177426l 0.444472, 0.17567l 0.444472, 0.173957l 0.444472, 0.172285l 0.444472, 0.170653l 0.444472, 0.169059l 0.444472, 0.167502l 0.444472, 0.16598l 0.444472, 0.164493l 0.444472, 0.163039l
 0.444472, 0.161617l 0.444472, 0.160226l 0.444472, 0.158866l 0.444472, 0.157534l 0.444472, 0.15623l 0.444472, 0.154954l 0.444472, 0.153704l 0.444472, 0.152479l 0.444472, 0.151279l 0.444472, 0.150104l 0.444472, 0.148951l 0.444472, 0.147821l 0.444472,
 0.146714" fill="none" stroke="#00ff00" stroke-width="2"/>
<path d="M105.509,579.431l 0.444472, 0.145627l 0.444472, 0.144561l 0.444472, 0.143516l 0.444472, 0.142489l 0.444472, 0.141482l 0.444472, 0.140494l 0.444472, 0.139523l 0.444472, 0.13857l 0.444472, 0.137633l 0.444472, 0.136714l 0.444472, 0.13581l
 0.444472, 0.134923l 0.444472, 0.13405l 0.444472, 0.133192l 0.444472, 0.132349l 0.444472, 0.13152l 0.444472, 0.130705l 0.444472, 0.129904l 0.444472, 0.129115l 0.444472, 0.12834l 0.444472, 0.127576l 0.444472, 0.126825l 0.444472, 0.126086l 0.444472,
 0.125359l 0.444472, 0.124643l 0.444472, 0.123938l 0.444472, 0.123244l 0.444472, 0.12256l 0.444472, 0.121887l 0.444472, 0.121224l 0.444472, 0.120571l 0.444472, 0.119928l 0.444472, 0.119294l 0.444472, 0.11867l 0.444472, 0.118054l 0.444472, 0.117447l
 0.444472, 0.11685l 0.444472, 0.11626l 0.444472, 0.115679l 0.444472, 0.115106l 0.444472, 0.114541l 0.444472, 0.113984l 0.444472, 0.113435l 0.444472, 0.112893l 0.444472, 0.112358l 0.444472, 0.111831l 0.444472, 0.11131l 0.444472, 0.110797l 0.444472,
 0.110291" fill="none" stroke="#00ff00" stroke-width="2"/>
<path d="M127.288,585.594l 0.444472, 0.109791l 0.444472, 0.109298l 0.444472, 0.108811l 0.444472, 0.10833l 0.444472, 0.107856l 0.444472, 0.107387l 0.444472, 0.106925l 0.444472, 0.106469l 0.444472, 0.106018l 0.444472, 0.105573l 0.444472, 0.105133l
 0.444472, 0.104699l 0.444472, 0.10427l 0.444472, 0.103847l 0.444472, 0.103428l 0.444472, 0.103015l 0.444472, 0.102606l 0.444472, 0.102203l 0.444472, 0.101804l 0.444472, 0.10141l 0.444472, 0.101021l 0.444472, 0.100636l 0.444472, 0.100256l 0.444472,
 0.0998803l 0.444472, 0.0995088l 0.444472, 0.0991416l 0.444472, 0.0987785l 0.444472, 0.0984197l 0.444472, 0.0980649l 0.444472, 0.0977141l 0.444472, 0.0973672l 0.444472, 0.0970242l 0.444472, 0.096685l 0.444472, 0.0963496l 0.444472, 0.0960179l
 0.444472, 0.0956898l 0.444472, 0.0953653l 0.444472, 0.0950444l 0.444472, 0.0947269l 0.444472, 0.0944129l 0.444472, 0.0941022l 0.444472, 0.0937948l 0.444472, 0.0934908l 0.444472, 0.0931899l 0.444472, 0.0928923l 0.444472, 0.0925977l 0.444472,
 0.0923063l 0.444472, 0.0920179l 0.444472, 0.0917324" fill="none" stroke="#00ff00" stroke-width="2"/>
<path d="M149.067,590.492l 0.444472, 0.09145l 0.444472, 0.0911705l 0.444472, 0.0908938l 0.444472, 0.09062l 0.444472, 0.090349l 0.444472, 0.0900807l 0.444472, 0.0898151l 0.444472, 0.0895522l 0.444472, 0.089292l 0.444472, 0.0890344l 0.444472,
 0.0887793l 0.444472, 0.0885268l 0.444472, 0.0882768l 0.444472, 0.0880292l 0.444472, 0.0877841l 0.444472, 0.0875414l 0.444472, 0.0873011l 0.444472, 0.0870631l 0.444472, 0.0868275l 0.444472, 0.0865941l 0.444472, 0.086363l 0.444472, 0.0861341l
 0.444472, 0.0859074l 0.444472, 0.0856828l 0.444472, 0.0854604l 0.444472, 0.0852402l 0.444472, 0.085022l 0.444472, 0.0848059l 0.444472, 0.0845918l 0.444472, 0.0843797l 0.444472, 0.0841696l 0.444472, 0.0839615l 0.444472, 0.0837554l 0.444472,
 0.0835511l 0.444472, 0.0833488l 0.444472, 0.0831483l 0.444472, 0.0829496l 0.444472, 0.0827528l 0.444472, 0.0825578l 0.444472, 0.0823646l 0.444472, 0.0821732l 0.444472, 0.0819835l 0.444472, 0.0817955l 0.444472, 0.0816093l 0.444472, 0.0814247l
 0.444472, 0.0812418l 0.444472, 0.0810605l 0.444472, 0.0808809l 0.444472, 0.0807029" fill="none" stroke="#00ff00" stroke-width="2"/>
<path d="M170.846,594.69l 0.444472, 0.0805265l 0.444472, 0.0803516l 0.444472, 0.0801783l 0.444472, 0.0800066l 0.444472, 0.0798364l 0.444472, 0.0796677l 0.444472, 0.0795005l 0.444472, 0.0793347l 0.444472, 0.0791705l 0.444472, 0.0790076l 0.444472,
 0.0788463l 0.444472, 0.0786863l 0.444472, 0.0785277l 0.444472, 0.0783705l 0.444472, 0.0782147l 0.444472, 0.0780603l 0.444472, 0.0779071l 0.444472, 0.0777554l 0.444472, 0.0776049l 0.444472, 0.0774557l 0.444472, 0.0773079l 0.444472, 0.0771613l
 0.444472, 0.077016l 0.444472, 0.0768719l 0.444472, 0.0767291l 0.444472, 0.0765875l 0.444472, 0.0764471l 0.444472, 0.0763079l 0.444472, 0.07617l 0.444472, 0.0760332l 0.444472, 0.0758975l 0.444472, 0.0757631l 0.444472, 0.0756297l 0.444472, 0.0754976l
 0.444472, 0.0753665l 0.444472, 0.0752366l 0.444472, 0.0751077l 0.444472, 0.07498l 0.444472, 0.0748534l 0.444472, 0.0747278l 0.444472, 0.0746033l 0.444472, 0.0744798l 0.444472, 0.0743575l 0.444472, 0.0742361l 0.444472, 0.0741158l 0.444472, 0.0739964l
 0.444472, 0.0738781l 0.444472, 0.0737609l 0.444472, 0.0736445" fill="none" stroke="#00ff00" stroke-width="2"/>
<path d="M192.625,598.455l 0.444472, 0.0735292l 0.444472, 0.0734149l 0.444472, 0.0733015l 0.444472, 0.0731891l 0.444472, 0.0730776l 0.444472, 0.0729671l 0.444472, 0.0728575l 0.444472, 0.0727489l 0.444472, 0.0726411l 0.444472, 0.0725343l 0.444472,
 0.0724284l 0.444472, 0.0723234l 0.444472, 0.0722192l 0.444472, 0.072116l 0.444472, 0.0720136l 0.444472, 0.0719121l 0.444472, 0.0718115l 0.444472, 0.0717117l 0.444472, 0.0716127l 0.444472, 0.0715146l 0.444472, 0.0714174l 0.444472, 0.0713209l
 0.444472, 0.0712253l 0.444472, 0.0711305l 0.444472, 0.0710365l 0.444472, 0.0709434l 0.444472, 0.070851l 0.444472, 0.0707594l 0.444472, 0.0706686l 0.444472, 0.0705785l 0.444472, 0.0704893l 0.444472, 0.0704008l 0.444472, 0.0703131l 0.444472,
 0.0702261l 0.444472, 0.0701399l 0.444472, 0.0700544l 0.444472, 0.0699697l 0.444472, 0.0698857l 0.444472, 0.0698024l 0.444472, 0.0697199l 0.444472, 0.0696381l 0.444472, 0.069557l 0.444472, 0.0694766l 0.444472, 0.0693969l 0.444472, 0.0693179l
 0.444472, 0.0692396l 0.444472, 0.069162l 0.444472, 0.0690851l 0.444472, 0.0690089" fill="none" stroke="#00ff00" stroke-width="2"/>
<path d="M214.405,601.94l 0.444472, 0.0689334l 0.444472, 0.0688585l 0.444472, 0.0687843l 0.444472, 0.0687107l 0.444472, 0.0686378l 0.444472, 0.0685656l 0.444472, 0.068494l 0.444472, 0.0684231l 0.444472, 0.0683528l 0.444472, 0.0682832l 0.444472,
 0.0682142l 0.444472, 0.0681458l 0.444472, 0.068078l 0.444472, 0.0680109l 0.444472, 0.0679444l 0.444472, 0.0678785l 0.444472, 0.0678132l 0.444472, 0.0677485l 0.444472, 0.0676845l 0.444472, 0.067621l 0.444472, 0.0675581l 0.444472, 0.0674959l 0.444472,
 0.0674342l 0.444472, 0.0673731l 0.444472, 0.0673126l 0.444472, 0.0672527l 0.444472, 0.0671933l 0.444472, 0.0671346l 0.444472, 0.0670764l 0.444472, 0.0670187l 0.444472, 0.0669617l 0.444472, 0.0669052l 0.444472, 0.0668492l 0.444472, 0.0667938l
 0.444472, 0.066739l 0.444472, 0.0666847l 0.444472, 0.066631l 0.444472, 0.0665778l 0.444472, 0.0665252l 0.444472, 0.0664731l 0.444472, 0.0664215l 0.444472, 0.0663705l 0.444472, 0.06632l 0.444472, 0.06627l 0.444472, 0.0662206l 0.444472, 0.0661716l
 0.444472, 0.0661232l 0.444472, 0.0660754l 0.444472, 0.066028" fill="none" stroke="#00ff00" stroke-width="2"/>
<path d="M236.184,605.241l 0.444472, 0.0659811l 0.444472, 0.0659348l 0.444472, 0.065889l 0.444472, 0.0658437l 0.444472, 0.0657989l 0.444472, 0.0657545l 0.444472, 0.0657107l 0.444472, 0.0656674l 0.444472, 0.0656246l 0.444472, 0.0655823l 0.444472,
 0.0655405l 0.444472, 0.0654991l 0.444472, 0.0654583l 0.444472, 0.0654179l 0.444472, 0.065378l 0.444472, 0.0653386l 0.444472, 0.0652997l 0.444472, 0.0652613l 0.444472, 0.0652233l 0.444472, 0.0651858l 0.444472, 0.0651488l 0.444472, 0.0651123l
 0.444472, 0.0650762l 0.444472, 0.0650406l 0.444472, 0.0650055l 0.444472, 0.0649708l 0.444472, 0.0649366l 0.444472, 0.0649028l 0.444472, 0.0648695l 0.444472, 0.0648367l 0.444472, 0.0648043l 0.444472, 0.0647724l 0.444472, 0.0647409l 0.444472,
 0.0647099l 0.444472, 0.0646793l 0.444472, 0.0646492l 0.444472, 0.0646195l 0.444472, 0.0645903l 0.444472, 0.0645615l 0.444472, 0.0645332l 0.444472, 0.0645053l 0.444472, 0.0644778l 0.444472, 0.0644508l 0.444472, 0.0644243l 0.444472, 0.0643981l
 0.444472, 0.0643724l 0.444472, 0.0643471l 0.444472, 0.0643223l 0.444472, 0.0642979" fill="none" stroke="#00ff00" stroke-width="2"/>
<path d="M257.963,608.429l 0.444472, 0.0642739l 0.444472, 0.0642504l 0.444472, 0.0642273l 0.444472, 0.0642046l 0.444472, 0.0641823l 0.444472, 0.0641605l 0.444472, 0.0641391l 0.444472, 0.0641181l 0.444472, 0.0640975l 0.444472, 0.0640774l 0.444472,
 0.0640577l 0.444472, 0.0640384l 0.444472, 0.0640195l 0.444472, 0.064001l 0.444472, 0.063983l 0.444472, 0.0639654l 0.444472, 0.0639482l 0.444472, 0.0639314l 0.444472, 0.063915l 0.444472, 0.063899l 0.444472, 0.0638835l 0.444472, 0.0638683l 0.444472,
 0.0638536l 0.444472, 0.0638393l 0.444472, 0.0638254l 0.444472, 0.0638119l 0.444472, 0.0637988l 0.444472, 0.0637861l 0.444472, 0.0637739l 0.444472, 0.063762l 0.444472, 0.0637505l 0.444472, 0.0637395l 0.444472, 0.0637288l 0.444472, 0.0637186l
 0.444472, 0.0637088l 0.444472, 0.0636993l 0.444472, 0.0636903l 0.444472, 0.0636817l 0.444472, 0.0636735l 0.444472, 0.0636657l 0.444472, 0.0636583l 0.444472, 0.0636513l 0.444472, 0.0636446l 0.444472, 0.0636384l 0.444472, 0.0636326l 0.444472,
 0.0636272l 0.444472, 0.0636222l 0.444472, 0.0636176l 0.444472, 0.0636134" fill="none" stroke="#00ff00" stroke-width="2"/>
<path d="M279.742,611.558l 0.444472, 0.0636096l 0.444472, 0.0636062l 0.444472, 0.0636032l 0.444472, 0.0636007l 0.444472, 0.0635985l 0.444472, 0.0635967l 0.444472, 0.0635953l 0.444472, 0.0635943l 0.444472, 0.0635937l 0.444472, 0.0635935l 0.444472,
 0.0635937l 0.444472, 0.0635943l 0.444472, 0.0635953l 0.444472, 0.0635967l 0.444472, 0.0635985l 0.444472, 0.0636007l 0.444472, 0.0636032l 0.444472, 0.0636062l 0.444472, 0.0636096l 0.444472, 0.0636134l 0.444472, 0.0636176l 0.444472, 0.0636222l
 0.444472, 0.0636272l 0.444472, 0.0636326l 0.444472, 0.0636384l 0.444472, 0.0636446l 0.444472, 0.0636513l 0.444472, 0.0636583l 0.444472, 0.0636657l 0.444472, 0.0636735l 0.444472, 0.0636817l 0.444472, 0.0636903l 0.444472, 0.0636993l 0.444472,
 0.0637088l 0.444472, 0.0637186l 0.444472, 0.0637288l 0.444472, 0.0637395l 0.444472, 0.0637505l 0.444472, 0.063762l 0.444472, 0.0637739l 0.444472, 0.0637861l 0.444472, 0.0637988l 0.444472, 0.0638119l 0.444472, 0.0638254l 0.444472, 0.0638393l
 0.444472, 0.0638536l 0.444472, 0.0638683l 0.444472, 0.0638835l 0.444472, 0.063899" fill="none" stroke="#00ff00" stroke-width="2"/>
<path d="M301.521,614.678l 0.444472, 0.063915l 0.444472, 0.0639314l 0.444472, 0.0639482l 0.444472, 0.0639654l 0.444472, 0.063983l 0.444472, 0.064001l 0.444472, 0.0640195l 0.444472, 0.0640384l 0.444472, 0.0640577l 0.444472, 0.0640774l 0.444472,
 0.0640975l 0.444472, 0.0641181l 0.444472, 0.0641391l 0.444472, 0.0641605l 0.444472, 0.0641823l 0.444472, 0.0642046l 0.444472, 0.0642273l 0.444472, 0.0642504l 0.444472, 0.0642739l 0.444472, 0.0642979l 0.444472, 0.0643223l 0.444472, 0.0643471l
 0.444472, 0.0643724l 0.444472, 0.0643981l 0.444472, 0.0644243l 0.444472, 0.0644508l 0.444472, 0.0644778l 0.444472, 0.0645053l 0.444472, 0.0645332l 0.444472, 0.0645615l 0.444472, 0.0645903l 0.444472, 0.0646195l 0.444472, 0.0646492l 0.444472,
 0.0646793l 0.444472, 0.0647099l 0.444472, 0.0647409l 0.444472, 0.0647724l 0.444472, 0.0648043l 0.444472, 0.0648367l 0.444472, 0.0648695l 0.444472, 0.0649028l 0.444472, 0.0649366l 0.444472, 0.0649708l 0.444472, 0.0650055l 0.444472, 0.0650406l
 0.444472, 0.0650762l 0.444472, 0.0651123l 0.444472, 0.0651488l 0.444472, 0.0651858" fill="none" stroke="#00ff00" stroke-width="2"/>
<path d="M323.3,617.837l 0.444472, 0.0652233l 0.444472, 0.0652613l 0.444472, 0.0652997l 0.444472, 0.0653386l 0.444472, 0.065378l 0.444472, 0.0654179l 0.444472, 0.0654583l 0.444472, 0.0654991l 0.444472, 0.0655405l 0.444472, 0.0655823l 0.444472,
 0.0656246l 0.444472, 0.0656674l 0.444472, 0.0657107l 0.444472, 0.0657545l 0.444472, 0.0657989l 0.444472, 0.0658437l 0.444472, 0.065889l 0.444472, 0.0659348l 0.444472, 0.0659811l 0.444472, 0.066028l 0.444472, 0.0660754l 0.444472, 0.0661232l 0.444472,
 0.0661716l 0.444472, 0.0662206l 0.444472, 0.06627l 0.444472, 0.06632l 0.444472, 0.0663705l 0.444472, 0.0664215l 0.444472, 0.0664731l 0.444472, 0.0665252l 0.444472, 0.0665778l 0.444472, 0.066631l 0.444472, 0.0666847l 0.444472, 0.066739l 0.444472,
 0.0667938l 0.444472, 0.0668492l 0.444472, 0.0669052l 0.444472, 0.0669617l 0.444472, 0.0670187l 0.444472, 0.0670764l 0.444472, 0.0671346l 0.444472, 0.0671933l 0.444472, 0.0672527l 0.444472, 0.0673126l 0.444472, 0.0673731l 0.444472, 0.0674342l
 0.444472, 0.0674959l 0.444472, 0.0675581l 0.444472, 0.067621" fill="none" stroke="#00ff00" stroke-width="2"/>
<path d="M345.08,621.087l 0.444472, 0.0676845l 0.444472, 0.0677485l 0.444472, 0.0678132l 0.444472, 0.0678785l 0.444472, 0.0679444l 0.444472, 0.0680109l 0.444472, 0.068078l 0.444472, 0.0681458l 0.444472, 0.0682142l 0.444472, 0.0682832l 0.444472,
 0.0683528l 0.444472, 0.0684231l 0.444472, 0.068494l 0.444472, 0.0685656l 0.444472, 0.0686378l 0.444472, 0.0687107l 0.444472, 0.0687843l 0.444472, 0.0688585l 0.444472, 0.0689334l 0.444472, 0.0690089l 0.444472, 0.0690851l 0.444472, 0.069162l 0.444472,
 0.0692396l 0.444472, 0.0693179l 0.444472, 0.0693969l 0.444472, 0.0694766l 0.444472, 0.069557l 0.444472, 0.0696381l 0.444472, 0.0697199l 0.444472, 0.0698024l 0.444472, 0.0698857l 0.444472, 0.0699697l 0.444472, 0.0700544l 0.444472, 0.0701399l
 0.444472, 0.0702261l 0.444472, 0.0703131l 0.444472, 0.0704008l 0.444472, 0.0704893l 0.444472, 0.0705785l 0.444472, 0.0706686l 0.444472, 0.0707594l 0.444472, 0.070851l 0.444472, 0.0709434l 0.444472, 0.0710365l 0.444472, 0.0711305l 0.444472,
 0.0712253l 0.444472, 0.0713209l 0.444472, 0.0714174l 0.444472, 0.0715146" fill="none" stroke="#00ff00" stroke-width="2"/>
<path d="M366.859,624.491l 0.444472, 0.0716127l 0.444472, 0.0717117l 0.444472, 0.0718115l 0.444472, 0.0719121l 0.444472, 0.0720136l 0.444472, 0.072116l 0.444472, 0.0722192l 0.444472, 0.0723234l 0.444472, 0.0724284l 0.444472, 0.0725343l 0.444472,
 0.0726411l 0.444472, 0.0727489l 0.444472, 0.0728575l 0.444472, 0.0729671l 0.444472, 0.0730776l 0.444472, 0.0731891l 0.444472, 0.0733015l 0.444472, 0.0734149l 0.444472, 0.0735292l 0.444472, 0.0736445l 0.444472, 0.0737609l 0.444472, 0.0738781l
 0.444472, 0.0739964l 0.444472, 0.0741158l 0.444472, 0.0742361l 0.444472, 0.0743575l 0.444472, 0.0744798l 0.444472, 0.0746033l 0.444472, 0.0747278l 0.444472, 0.0748534l 0.444472, 0.07498l 0.444472, 0.0751077l 0.444472, 0.0752366l 0.444472, 0.0753665l
 0.444472, 0.0754976l 0.444472, 0.0756297l 0.444472, 0.0757631l 0.444472, 0.0758975l 0.444472, 0.0760332l 0.444472, 0.07617l 0.444472, 0.0763079l 0.444472, 0.0764471l 0.444472, 0.0765875l 0.444472, 0.0767291l 0.444472, 0.0768719l 0.444472, 0.077016l
 0.444472, 0.0771613l 0.444472, 0.0773079l 0.444472, 0.0774557" fill="none" stroke="#00ff00" stroke-width="2"/>
<path d="M388.638,628.134l 0.444472, 0.0776049l 0.444472, 0.0777554l 0.444472, 0.0779071l 0.444472, 0.0780603l 0.444472, 0.0782147l 0.444472, 0.0783705l 0.444472, 0.0785277l 0.444472, 0.0786863l 0.444472, 0.0788463l 0.444472, 0.0790076l 0.444472,
 0.0791705l 0.444472, 0.0793347l 0.444472, 0.0795005l 0.444472, 0.0796677l 0.444472, 0.0798364l 0.444472, 0.0800066l 0.444472, 0.0801783l 0.444472, 0.0803516l 0.444472, 0.0805265l 0.444472, 0.0807029l 0.444472, 0.0808809l 0.444472, 0.0810605l
 0.444472, 0.0812418l 0.444472, 0.0814247l 0.444472, 0.0816093l 0.444472, 0.0817955l 0.444472, 0.0819835l 0.444472, 0.0821732l 0.444472, 0.0823646l 0.444472, 0.0825578l 0.444472, 0.0827528l 0.444472, 0.0829496l 0.444472, 0.0831483l 0.444472,
 0.0833488l 0.444472, 0.0835511l 0.444472, 0.0837554l 0.444472, 0.0839615l 0.444472, 0.0841696l 0.444472, 0.0843797l 0.444472, 0.0845918l 0.444472, 0.0848059l 0.444472, 0.085022l 0.444472, 0.0852402l 0.444472, 0.0854604l 0.444472, 0.0856828l
 0.444472, 0.0859074l 0.444472, 0.0861341l 0.444472, 0.086363l 0.444472, 0.0865941" fill="none" stroke="#00ff00" stroke-width="2"/>
<path d="M410.417,632.141l 0.444472, 0.0868275l 0.444472, 0.0870631l 0.444472, 0.0873011l 0.444472, 0.0875414l 0.444472, 0.0877841l 0.444472, 0.0880292l 0.444472, 0.0882768l 0.444472, 0.0885268l 0.444472, 0.0887793l 0.444472, 0.0890344l 0.444472,
 0.089292l 0.444472, 0.0895522l 0.444472, 0.0898151l 0.444472, 0.0900807l 0.444472, 0.090349l 0.444472, 0.09062l 0.444472, 0.0908938l 0.444472, 0.0911705l 0.444472, 0.09145l 0.444472, 0.0917324l 0.444472, 0.0920179l 0.444472, 0.0923063l 0.444472,
 0.0925977l 0.444472, 0.0928923l 0.444472, 0.0931899l 0.444472, 0.0934908l 0.444472, 0.0937948l 0.444472, 0.0941022l 0.444472, 0.0944129l 0.444472, 0.0947269l 0.444472, 0.0950444l 0.444472, 0.0953653l 0.444472, 0.0956898l 0.444472, 0.0960179l
 0.444472, 0.0963496l 0.444472, 0.096685l 0.444472, 0.0970242l 0.444472, 0.0973672l 0.444472, 0.0977141l 0.444472, 0.0980649l 0.444472, 0.0984197l 0.444472, 0.0987785l 0.444472, 0.0991416l 0.444472, 0.0995088l 0.444472, 0.0998803l 0.444472, 0.100256l
 0.444472, 0.100636l 0.444472, 0.101021l 0.444472, 0.10141" fill="none" stroke="#00ff00" stroke-width="2"/>
<path d="M432.196,636.723l 0.444472, 0.101804l 0.444472, 0.102203l 0.444472, 0.102606l 0.444472, 0.103015l 0.444472, 0.103428l 0.444472, 0.103847l 0.444472, 0.10427l 0.444472, 0.104699l 0.444472, 0.105133l 0.444472, 0.105573l 0.444472, 0.106018l
 0.444472, 0.106469l 0.444472, 0.106925l 0.444472, 0.107387l 0.444472, 0.107856l 0.444472, 0.10833l 0.444472, 0.108811l 0.444472, 0.109298l 0.444472, 0.109791l 0.444472, 0.110291l 0.444472, 0.110797l 0.444472, 0.11131l 0.444472, 0.111831l 0.444472,
 0.112358l 0.444472, 0.112893l 0.444472, 0.113435l 0.444472, 0.113984l 0.444472, 0.114541l 0.444472, 0.115106l 0.444472, 0.115679l 0.444472, 0.11626l 0.444472, 0.11685l 0.444472, 0.117447l 0.444472, 0.118054l 0.444472, 0.11867l 0.444472, 0.119294l
 0.444472, 0.119928l 0.444472, 0.120571l 0.444472, 0.121224l 0.444472, 0.121887l 0.444472, 0.12256l 0.444472, 0.123244l 0.444472, 0.123938l 0.444472, 0.124643l 0.444472, 0.125359l 0.444472, 0.126086l 0.444472, 0.126825l 0.444472, 0.127576l 0.444472,
 0.12834" fill="none" stroke="#00ff00" stroke-width="2"/>
<path d="M453.975,642.291l 0.444472, 0.129115l 0.444472, 0.129904l 0.444472, 0.130705l 0.444472, 0.13152l 0.444472, 0.132349l 0.444472, 0.133192l 0.444472, 0.13405l 0.444472, 0.134923l 0.444472, 0.13581l 0.444472, 0.136714l 0.444472, 0.137633l
 0.444472, 0.13857l 0.444472, 0.139523l 0.444472, 0.140494l 0.444472, 0.141482l 0.444472, 0.142489l 0.444472, 0.143516l 0.444472, 0.144561l 0.444472, 0.145627l 0.444472, 0.146714l 0.444472, 0.147821l 0.444472, 0.148951l 0.444472, 0.150104l 0.444472,
 0.151279l 0.444472, 0.152479l 0.444472, 0.153704l 0.444472, 0.154954l 0.444472, 0.15623l 0.444472, 0.157534l 0.444472, 0.158866l 0.444472, 0.160226l 0.444472, 0.161617l 0.444472, 0.163039l 0.444472, 0.164493l 0.444472, 0.16598l 0.444472, 0.167502l
 0.444472, 0.169059l 0.444472, 0.170653l 0.444472, 0.172285l 0.444472, 0.173957l 0.444472, 0.17567l 0.444472, 0.177426l 0.444472, 0.179226l 0.444472, 0.181072l 0.444472, 0.182966l 0.444472, 0.184909l 0.444472, 0.186905l 0.444472, 0.188954l 0.444472,
 0.191059" fill="none" stroke="#00ff00" stroke-width="2"/>
<path d="M475.754,649.889l 0.444472, 0.193223l 0.444472, 0.195448l 0.444472, 0.197737l 0.444472, 0.200092l 0.444472, 0.202517l 0.444472, 0.205014l 0.444472, 0.207588l 0.444472, 0.210241l 0.444472, 0.212978l 0.444472, 0.215802l 0.444472, 0.218719l
 0.444472, 0.221731l 0.444472, 0.224846l 0.444472, 0.228067l 0.444472, 0.231402l 0.444472, 0.234854l 0.444472, 0.238433l 0.444472, 0.242143l 0.444472, 0.245994l 0.444472, 0.249993l 0.444472, 0.254149l 0.444472, 0.258473l 0.444472, 0.262973l 0.444472,
 0.267663l 0.444472, 0.272554l 0.444472, 0.277659l 0.444472, 0.282994l 0.444472, 0.288574l 0.444472, 0.294418l 0.444472, 0.300545l 0.444472, 0.306976l 0.444472, 0.313736l 0.444472, 0.32085l 0.444472, 0.328348l 0.444472, 0.336262l 0.444472, 0.34463l
 0.444472, 0.353491l 0.444472, 0.362893l 0.444472, 0.372887l 0.444472, 0.383532l 0.444472, 0.394896l 0.444472, 0.407056l 0.444472, 0.4201l 0.444472, 0.434131l 0.444472, 0.449268l 0.444472, 0.46565l 0.444472, 0.483441l 0.444472, 0.502836l 0.444472,
 0.524067" fill="none" stroke="#00ff00" stroke-width="2"/>
<path d="M497.534,664.531l 0.444472, 0.547415l 0.444472, 0.573221l 0.444472, 0.601903l 0.444472, 0.633984l 0.444472, 0.670122l 0.444472, 0.711157l 0.444472, 0.758184l 0.444472, 0.812653l 0.444472, 0.876533l 0.444472, 0.952559l 0.444472, 1.04466l
 0.444472, 1.15869l 0.444472, 1.30378l 0.444472, 1.49505l 0.444472, 1.75955l 0.444472, 2.15113l 0.444472, 2.79552l 0.444472, 4.07708l 0.444472, 8.18919" fill="none" stroke="#00ff00" stroke-width="2"/>
<rect x="181.233" y="524.124" width="211.172" height="57.0734" fill="white"/>
<path d="M181.233,581.197h 211.172" fill="none" stroke="black"/>
<path d="M392.404,581.197v -57.0734" fill="none" stroke="black"/>
<path d="M392.404,524.124h -211.172" fill="none" stroke="black"/>
<path d="M181.233,524.124v 57.0734" fill="none" stroke="black"/>
<text xml:space="preserve" x="234.501" y="545.051" fill="black" font-size="18.3066" font-family="Helvetica">normal_quantile
</text>
<path d="M189.151,538.392h 36.955" fill="none" stroke="#ff0000" stroke-width="2"/>
<text xml:space="preserve" x="234.501" y="573.588" fill="black" font-size="18.3066" font-family="Helvetica">normal_quantile_c
</text>
<path d="M189.151,566.929h 36.955" fill="none" stroke="#00ff00" stroke-width="2"/></svg>
