<?xml version="1.0" standalone="no"?>
<svg width="567.429" height="692.78" viewBox="0 0 567.429 692.78" xmlns="http://www.w3.org/2000/svg" shape-rendering="crispEdges">
<title>
./old_svg_pro/temp_rebin_pro.svg
</title>
<desc>
Creator: ROOT Version 6.33.01
CreationDate: Wed Jul  3 13:19:17 2024</desc>
<defs>
</defs>
<rect x="0.5" y="0" width="566.929" height="692.28" fill="white"/>
<rect x="6.16929" y="6.9228" width="555.591" height="216.914" fill="white"/>
<rect x="61.7283" y="28.6143" width="444.472" height="173.532" fill="white"/>
<rect x="61.7283" y="28.6143" width="444.472" height="173.532" fill="none" stroke="black"/>
<path d="M61.7283,197.285h 4.44472v 4.86083h 17.7789v -4.86083h 4.44472v 4.86083h 4.44472v -4.86083h 4.44472v 4.86083h 4.44472v -4.86083h 8.88945v -4.86083h 4.44472v 4.86083h 4.44472v -4.86083h 4.44472v 4.86083h 4.44472v -4.86083h 4.44472v -29.165h
 4.44472v 24.3041h 4.44472v -14.5825h 4.44472v 9.72166h 8.88945v -9.72166h 4.44472v -4.86083h 4.44472v -9.72166h 4.44472v 34.0258h 4.44472v -53.4691h 4.44472v 24.3041h 4.44472v 4.86083h 4.44472v -53.4691h 4.44472v 53.4691h 4.44472v -58.3299h 4.44472v
 34.0258h 4.44472v -4.86083h 4.44472v 4.86083h 4.44472v 4.86083h 4.44472v -34.0258h 4.44472v 14.5825h 4.44472v -4.86083h 8.88945v -14.5825h 4.44472v -4.86083h 4.44472v -9.72166h 4.44472v -4.86083h 4.44472v 34.0258h 4.44472v -34.0258h 4.44472v
 -4.86083h 4.44472v 43.7475h 4.44472v -38.8866h 4.44472v -19.4433h 4.44472v -34.0258h 4.44472v 53.4691h 4.44472v 9.72166h 4.44472v -29.165h 4.44472v 29.165h 4.44472v 4.86083h 4.44472v -43.7475h 4.44472v 9.72166h 4.44472v -34.0258h 4.44472v 48.6083h
 4.44472v 9.72166h 4.44472v 4.86083h 4.44472v 9.72166h 4.44472v 4.86083h 4.44472v 48.6083h 4.44472v -53.4691h 4.44472v 14.5825h 4.44472v 24.3041h 4.44472v -19.4433h 4.44472v 4.86083h 4.44472v 14.5825h 8.88945v 9.72166h 4.44472v 19.4433h 4.44472v
 9.72166h 8.88945v -29.165h 4.44472v 14.5825h 4.44472v -4.86083h 8.88945v -14.5825h 4.44472v 14.5825h 4.44472v 24.3041h 4.44472v 9.72166h 4.44472v -14.5825h 4.44472v -9.72166h 4.44472v 4.86083h 4.44472v 4.86083h 4.44472v 14.5825h 4.44472v -9.72166h
 8.88945v 9.72166h 4.44472v -4.86083h 8.88945v -9.72166h 4.44472v 14.5825h 13.3342v -4.86083h 4.44472v 4.86083h 4.44472v -14.5825h 4.44472" fill="none" stroke="#000099"/>
<path d="M61.7283,202.146h 444.472" fill="none" stroke="black"/>
<path d="M61.7283,196.94v 5.20595" fill="none" stroke="black"/>
<path d="M76.5441,199.543v 2.60297" fill="none" stroke="black"/>
<path d="M91.3598,199.543v 2.60297" fill="none" stroke="black"/>
<path d="M106.176,199.543v 2.60297" fill="none" stroke="black"/>
<path d="M120.991,199.543v 2.60297" fill="none" stroke="black"/>
<path d="M135.807,196.94v 5.20595" fill="none" stroke="black"/>
<path d="M150.623,199.543v 2.60297" fill="none" stroke="black"/>
<path d="M165.439,199.543v 2.60297" fill="none" stroke="black"/>
<path d="M180.254,199.543v 2.60297" fill="none" stroke="black"/>
<path d="M195.07,199.543v 2.60297" fill="none" stroke="black"/>
<path d="M209.886,196.94v 5.20595" fill="none" stroke="black"/>
<path d="M224.702,199.543v 2.60297" fill="none" stroke="black"/>
<path d="M239.517,199.543v 2.60297" fill="none" stroke="black"/>
<path d="M254.333,199.543v 2.60297" fill="none" stroke="black"/>
<path d="M269.149,199.543v 2.60297" fill="none" stroke="black"/>
<path d="M283.965,196.94v 5.20595" fill="none" stroke="black"/>
<path d="M298.78,199.543v 2.60297" fill="none" stroke="black"/>
<path d="M313.596,199.543v 2.60297" fill="none" stroke="black"/>
<path d="M328.412,199.543v 2.60297" fill="none" stroke="black"/>
<path d="M343.228,199.543v 2.60297" fill="none" stroke="black"/>
<path d="M358.043,196.94v 5.20595" fill="none" stroke="black"/>
<path d="M372.859,199.543v 2.60297" fill="none" stroke="black"/>
<path d="M387.675,199.543v 2.60297" fill="none" stroke="black"/>
<path d="M402.491,199.543v 2.60297" fill="none" stroke="black"/>
<path d="M417.306,199.543v 2.60297" fill="none" stroke="black"/>
<path d="M432.122,196.94v 5.20595" fill="none" stroke="black"/>
<path d="M446.938,199.543v 2.60297" fill="none" stroke="black"/>
<path d="M461.754,199.543v 2.60297" fill="none" stroke="black"/>
<path d="M476.569,199.543v 2.60297" fill="none" stroke="black"/>
<path d="M491.385,199.543v 2.60297" fill="none" stroke="black"/>
<path d="M506.201,196.94v 5.20595" fill="none" stroke="black"/>
<text xml:space="preserve" x="61.0389" y="209.393" fill="black" font-size="7.46514" font-family="Helvetica">3
</text>
<text xml:space="preserve" x="57.4778" y="209.393" fill="black" font-size="7.46514" font-family="Times">&#8722;
</text>
<text xml:space="preserve" x="135.11" y="209.393" fill="black" font-size="7.46514" font-family="Helvetica">2
</text>
<text xml:space="preserve" x="131.549" y="209.393" fill="black" font-size="7.46514" font-family="Times">&#8722;
</text>
<text xml:space="preserve" x="209.893" y="209.393" fill="black" font-size="7.46514" font-family="Helvetica">1
</text>
<text xml:space="preserve" x="206.332" y="209.393" fill="black" font-size="7.46514" font-family="Times">&#8722;
</text>
<text xml:space="preserve" x="281.828" y="209.393" fill="black" font-size="7.46514" font-family="Helvetica">0
</text>
<text xml:space="preserve" x="356.611" y="209.393" fill="black" font-size="7.46514" font-family="Helvetica">1
</text>
<text xml:space="preserve" x="429.97" y="209.393" fill="black" font-size="7.46514" font-family="Helvetica">2
</text>
<text xml:space="preserve" x="504.041" y="209.393" fill="black" font-size="7.46514" font-family="Helvetica">3
</text>
<path d="M61.7283,202.146v -173.532" fill="none" stroke="black"/>
<path d="M75.0625,202.146h -13.3342" fill="none" stroke="black"/>
<path d="M68.3954,197.285h -6.66709" fill="none" stroke="black"/>
<path d="M68.3954,192.424h -6.66709" fill="none" stroke="black"/>
<path d="M68.3954,187.563h -6.66709" fill="none" stroke="black"/>
<path d="M68.3954,182.703h -6.66709" fill="none" stroke="black"/>
<path d="M75.0625,177.842h -13.3342" fill="none" stroke="black"/>
<path d="M68.3954,172.981h -6.66709" fill="none" stroke="black"/>
<path d="M68.3954,168.12h -6.66709" fill="none" stroke="black"/>
<path d="M68.3954,163.259h -6.66709" fill="none" stroke="black"/>
<path d="M68.3954,158.398h -6.66709" fill="none" stroke="black"/>
<path d="M75.0625,153.538h -13.3342" fill="none" stroke="black"/>
<path d="M68.3954,148.677h -6.66709" fill="none" stroke="black"/>
<path d="M68.3954,143.816h -6.66709" fill="none" stroke="black"/>
<path d="M68.3954,138.955h -6.66709" fill="none" stroke="black"/>
<path d="M68.3954,134.094h -6.66709" fill="none" stroke="black"/>
<path d="M75.0625,129.233h -13.3342" fill="none" stroke="black"/>
<path d="M68.3954,124.373h -6.66709" fill="none" stroke="black"/>
<path d="M68.3954,119.512h -6.66709" fill="none" stroke="black"/>
<path d="M68.3954,114.651h -6.66709" fill="none" stroke="black"/>
<path d="M68.3954,109.79h -6.66709" fill="none" stroke="black"/>
<path d="M75.0625,104.929h -13.3342" fill="none" stroke="black"/>
<path d="M68.3954,100.068h -6.66709" fill="none" stroke="black"/>
<path d="M68.3954,95.2076h -6.66709" fill="none" stroke="black"/>
<path d="M68.3954,90.3468h -6.66709" fill="none" stroke="black"/>
<path d="M68.3954,85.4859h -6.66709" fill="none" stroke="black"/>
<path d="M75.0625,80.6251h -13.3342" fill="none" stroke="black"/>
<path d="M68.3954,75.7643h -6.66709" fill="none" stroke="black"/>
<path d="M68.3954,70.9035h -6.66709" fill="none" stroke="black"/>
<path d="M68.3954,66.0426h -6.66709" fill="none" stroke="black"/>
<path d="M68.3954,61.1818h -6.66709" fill="none" stroke="black"/>
<path d="M75.0625,56.321h -13.3342" fill="none" stroke="black"/>
<path d="M68.3954,51.4601h -6.66709" fill="none" stroke="black"/>
<path d="M68.3954,46.5993h -6.66709" fill="none" stroke="black"/>
<path d="M68.3954,41.7385h -6.66709" fill="none" stroke="black"/>
<path d="M68.3954,36.8777h -6.66709" fill="none" stroke="black"/>
<path d="M75.0625,32.0168h -13.3342" fill="none" stroke="black"/>
<path d="M75.0625,32.0168h -13.3342" fill="none" stroke="black"/>
<text xml:space="preserve" x="54.6289" y="205.12" fill="black" font-size="7.46514" font-family="Helvetica">0
</text>
<text xml:space="preserve" x="54.6289" y="180.905" fill="black" font-size="7.46514" font-family="Helvetica">5
</text>
<text xml:space="preserve" x="51.0678" y="156.689" fill="black" font-size="7.46514" font-family="Helvetica">10
</text>
<text xml:space="preserve" x="51.0678" y="131.761" fill="black" font-size="7.46514" font-family="Helvetica">15
</text>
<text xml:space="preserve" x="51.0678" y="107.546" fill="black" font-size="7.46514" font-family="Helvetica">20
</text>
<text xml:space="preserve" x="51.0678" y="83.33" fill="black" font-size="7.46514" font-family="Helvetica">25
</text>
<text xml:space="preserve" x="51.0678" y="59.1145" fill="black" font-size="7.46514" font-family="Helvetica">30
</text>
<text xml:space="preserve" x="51.0678" y="34.8989" fill="black" font-size="7.46514" font-family="Helvetica">35
</text>
<text xml:space="preserve" x="264.735" y="17.8056" fill="black" font-size="9.80344" font-family="Helvetica">test rebin
</text>
<rect x="439.53" y="21.0222" width="111.118" height="34.7063" fill="white"/>
<path d="M439.53,55.7286h 111.118" fill="none" stroke="black"/>
<path d="M550.648,55.7286v -34.7063" fill="none" stroke="black"/>
<path d="M550.648,21.0222h -111.118" fill="none" stroke="black"/>
<path d="M439.53,21.0222v 34.7063" fill="none" stroke="black"/>
<text xml:space="preserve" x="492.646" y="29.2011" fill="black" font-size="7.82335" font-family="Helvetica">h
</text>
<path d="M439.53,29.6988h 111.118" fill="none" stroke="black"/>
<text xml:space="preserve" x="444.927" y="37.0356" fill="black" font-size="7.82335" font-family="Helvetica">Entries 
</text>
<text xml:space="preserve" x="527.545" y="37.0356" fill="black" font-size="7.82335" font-family="Helvetica"> 1000
</text>
<text xml:space="preserve" x="444.927" y="45.5822" fill="black" font-size="7.82335" font-family="Helvetica">Mean  
</text>
<text xml:space="preserve" x="513.3" y="45.5822" fill="black" font-size="7.82335" font-family="Helvetica"> 0.009204
</text>
<text xml:space="preserve" x="444.927" y="54.1289" fill="black" font-size="7.82335" font-family="Helvetica">Std Dev   
</text>
<text xml:space="preserve" x="522.559" y="54.1289" fill="black" font-size="7.82335" font-family="Helvetica"> 0.9861
</text>
<text xml:space="preserve" x="264.735" y="17.8056" fill="black" font-size="9.80344" font-family="Helvetica">test rebin
</text>
<rect x="6.16929" y="237.683" width="555.591" height="216.914" fill="white"/>
<rect x="61.7283" y="259.374" width="444.472" height="173.532" fill="white"/>
<rect x="61.7283" y="259.374" width="444.472" height="173.532" fill="none" stroke="black"/>
<path d="M61.7283,379.437h 22.2236v 4.86083h 8.88945v -4.86083h 8.88945v 34.0258h 4.44472v -19.4433h 4.44472v 19.4433h 4.44472v -34.0258h 4.44472v 26.7346h 2.22236v 2.43041h 2.22236v -53.4691h 4.44472v 31.5954h 2.22236v 29.165h 2.22236v 12.1521h
 1.11118v -14.5825h 0.555591v 17.0129h 0.555591v -14.5825h 0.555591v 4.86083h 0.555591v -2.43041h 0.555591v 9.72166h 0.555591v -24.3041h 1.48157v -4.86083h 1.48157v -9.72166h 1.48157v 26.7346h 0.740787v -12.1521h 0.740787v 12.1521h 0.740787v 7.29124h
 0.740787v -4.86083h 0.740787v 9.72166h 0.740787v -29.165h 1.11118v 14.5825h 1.11118v -14.5825h 1.11118v 17.0129h 2.22236v -9.72166h 2.22236v -4.86083h 1.11118v 24.3041h 0.740787v -14.5825h 0.740787v -7.29124h 0.740787v 4.86083h 0.740787v -4.86083h
 0.740787v 2.43041h 0.740787v 2.43041h 0.634961v 9.72166h 0.634961v -12.1521h 0.634961v 14.5825h 0.634961v -14.5825h 0.634961v 17.0129h 0.634961v -2.43041h 0.634961v 4.86083h 0.493858v -17.0129h 0.493858v 7.29124h 0.987716v 2.43041h 0.493858v
 -7.29124h 0.987716v 2.43041h 0.493858v -4.86083h 0.493858v -68.0516h 2.22236v 2.43041h 2.22236v 80.2037h 0.341902v -2.43041h 0.341902v 2.43041h 0.683804v -2.43041h 0.341902v -14.5825h 0.341902v 9.72166h 0.341902v 2.43041h 0.341902v -2.43041h
 0.341902v -4.86083h 0.341902v 12.1521h 0.341902v -2.43041h 0.341902v -7.29124h 0.897492v -12.1521h 0.555591v 12.1521h 0.555591v -14.5825h 0.555591v 21.8737h 0.555591v -12.1521h 0.555591v 2.43041h 0.555591v 4.86083h 0.555591v -17.0129h 1.26992v
 -2.43041h 1.26992v 12.1521h 0.634961v -4.86083h 0.634961v 7.29124h 0.634961v 17.0129h 0.246929v -2.43041h 0.246929v 4.86083h 0.246929v -2.43041h 0.493858v -17.0129h 0.246929v 9.72166h 0.246929v -2.43041h 0.246929v 7.29124h 0.246929v -12.1521h
 0.246929v 7.29124h 0.246929v -4.86083h 0.246929v -9.72166h 0.246929v 12.1521h 0.246929v 4.86083h 0.493858v -7.29124h 0.246929v 12.1521h 0.246929v -24.3041h 0.634961v -19.4433h 0.634961v 14.5825h 0.634961v -4.86083h 0.634961v -14.5825h 1.26992v
 19.4433h 0.634961v 9.72166h 0.233933v 12.1521h 0.467866v -4.86083h 0.233933v 2.43041h 0.233933v 2.43041h 0.233933v 2.43041h 0.233933v -4.86083h 0.233933v 9.72166h 0.233933v -14.5825h 0.233933v 14.5825h 0.233933v -19.4433h 0.233933v 2.43041h
 0.233933v 2.43041h 0.233933v 7.29124h 0.233933v -4.86083h 0.233933v 2.43041h 0.233933v -4.86083h 0.467866v -14.5825h 0.370394v -2.43041h 0.370394v 17.0129h 0.370394v -26.7346h 0.370394v 19.4433h 0.370394v 14.5825h 0.370394v -19.4433h 0.740787v
 2.43041h 0.370394v -9.72166h 0.370394v 14.5825h 0.370394v -7.29124h 0.370394v 17.0129h 0.341902v -24.3041h 0.341902v 14.5825h 0.341902v -17.0129h 0.341902v 9.72166h 0.341902v 7.29124h 0.341902v 12.1521h 0.341902v -12.1521h 0.341902v 9.72166h
 0.341902v -9.72166h 0.341902v 4.86083h 0.341902v -14.5825h 0.341902v 4.86083h 0.341902v -4.86083h 0.370394v 2.43041h 0.370394v 7.29124h 0.370394v -12.1521h 0.370394v 7.29124h 0.370394v 12.1521h 0.370394v -14.5825h 0.740787v 4.86083h 0.370394v
 -9.72166h 0.370394v 21.8737h 0.370394v -41.317h 0.370394v 19.4433h 0.404066v 2.43041h 0.404066v 14.5825h 0.404066v -14.5825h 0.404066v -9.72166h 0.404066v 4.86083h 0.404066v 9.72166h 0.404066v -19.4433h 0.404066v 2.43041h 0.404066v 2.43041h
 0.404066v 21.8737h 0.404066v 7.29124h 0.246929v 2.43041h 0.246929v -9.72166h 0.246929v -7.29124h 0.246929v 12.1521h 0.246929v -17.0129h 0.246929v 2.43041h 0.246929v -4.86083h 0.246929v 14.5825h 0.246929v -2.43041h 0.246929v 7.29124h 0.246929v
 -7.29124h 0.246929v -2.43041h 0.246929v 2.43041h 0.246929v -7.29124h 0.246929v 9.72166h 0.246929v -7.29124h 0.246929v 9.72166h 0.246929v -7.29124h 0.296315v 2.43041h 0.296315v 12.1521h 0.296315v -4.86083h 0.296315v 2.43041h 0.296315v -29.165h
 0.296315v 19.4433h 0.296315v -4.86083h 0.296315v 2.43041h 0.296315v -2.43041h 0.296315v 9.72166h 0.296315v -21.8737h 0.296315v 9.72166h 0.59263v 9.72166h 0.296315v 4.86083h 0.277795v -19.4433h 0.277795v 2.43041h 0.277795v 17.0129h 0.277795v
 -14.5825h 0.277795v 9.72166h 0.277795v 4.86083h 0.555591v 4.86083h 0.277795v -19.4433h 0.277795v 9.72166h 0.277795v -9.72166h 0.277795v 4.86083h 0.277795v -4.86083h 0.555591v 4.86083h 0.277795v 12.1521h 0.277795v -21.8737h 0.277795v 7.29124h
 0.277795v 7.29124h 0.277795v -7.29124h 0.277795v -9.72166h 0.277795v 7.29124h 0.277795v -7.29124h 0.277795v 19.4433h 0.277795v 7.29124h 0.277795v -19.4433h 0.277795v -4.86083h 0.277795v 2.43041h 0.277795v 19.4433h 0.277795v -7.29124h 0.277795v
 2.43041h 0.277795v -2.43041h 0.233933v 4.86083h 0.233933v 4.86083h 0.233933v -12.1521h 0.233933v 2.43041h 0.233933v 4.86083h 0.233933v -17.0129h 0.233933v 12.1521h 0.233933v -7.29124h 0.701799v 4.86083h 0.233933v 2.43041h 0.233933v -2.43041h
 0.233933v -9.72166h 0.233933v -21.8737h 0.233933v 36.4562h 0.233933v -2.43041h 0.233933v 4.86083h 0.233933v -2.43041h 0.666709v -17.0129h 0.222236v 4.86083h 0.222236v 21.8737h 0.222236v -19.4433h 0.222236v 12.1521h 0.222236v -7.29124h 0.222236v
 -2.43041h 0.222236v 4.86083h 0.222236v -12.1521h 0.222236v 9.72166h 0.222236v 4.86083h 0.222236v -9.72166h 0.222236v 4.86083h 0.222236v -2.43041h 0.444472v -7.29124h 0.222236v 19.4433h 0.424269v -26.7346h 0.202033v 21.8737h 0.202033v -4.86083h
 0.202033v -2.43041h 0.202033v 2.43041h 0.404066v 9.72166h 0.202033v 9.72166h 0.202033v -31.5954h 0.202033v -4.86083h 0.202033v 12.1521h 0.202033v 12.1521h 0.202033v -9.72166h 0.202033v -9.72166h 0.202033v 14.5825h 0.202033v 4.86083h 0.202033v
 4.86083h 0.202033v -9.72166h 0.202033v -2.43041h 0.202033v -2.43041h 0.202033v 12.1521h 0.202033v -4.86083h 0.193249v -4.86083h 0.193249v 2.43041h 0.193249v -9.72166h 0.193249v 2.43041h 0.193249v 9.72166h 0.386498v 2.43041h 0.193249v -12.1521h
 0.193249v 9.72166h 0.386498v 4.86083h 0.193249v -2.43041h 0.193249v -4.86083h 0.386498v 2.43041h 0.579747v -7.29124h 0.193249v -4.86083h 0.193249v 12.1521h 0.193249v -7.29124h 0.193249v 7.29124h 0.193249v -14.5825h 0.277795v -7.29124h 0.277795v
 -14.5825h 0.277795v 31.5954h 0.277795v -19.4433h 0.277795v 24.3041h 0.277795v -34.0258h 0.277795v 17.0129h 0.555591v -4.86083h 0.277795v 7.29124h 0.277795v -4.86083h 0.277795v -4.86083h 0.277795v 4.86083h 0.555591v 12.1521h 0.277795v 4.86083h
 0.193249v -2.43041h 0.386498v 4.86083h 0.193249v -9.72166h 0.193249v 9.72166h 0.193249v -4.86083h 0.193249v -2.43041h 0.193249v -2.43041h 0.193249v 7.29124h 0.386498v -12.1521h 0.193249v 12.1521h 0.193249v -7.29124h 0.193249v 12.1521h 0.193249v
 -12.1521h 0.193249v 14.5825h 0.386498v -7.29124h 0.193249v 2.43041h 0.193249v -9.72166h 0.193249v -4.86083h 0.193249v 4.86083h 0.193249v 14.5825h 0.185197v -9.72166h 0.185197v -4.86083h 0.185197v 24.3041h 0.185197v -19.4433h 0.185197v -7.29124h
 0.185197v 4.86083h 0.185197v 4.86083h 0.185197v -9.72166h 0.185197v 9.72166h 0.370394v 2.43041h 0.185197v 9.72166h 0.185197v -2.43041h 0.185197v -21.8737h 0.185197v 12.1521h 0.370394v -7.29124h 0.185197v 2.43041h 0.185197v -7.29124h 0.185197v
 -4.86083h 0.185197v 26.7346h 0.185197v -7.29124h 0.370394v -38.8866h 0.296315v 21.8737h 0.296315v 24.3041h 0.296315v -38.8866h 0.296315v 7.29124h 0.296315v 2.43041h 0.296315v 7.29124h 0.296315v 2.43041h 0.296315v -19.4433h 0.296315v 7.29124h
 0.296315v 4.86083h 0.59263v -4.86083h 0.296315v 9.72166h 0.296315v 4.86083h 0.296315v 4.86083h 0.193249v 7.29124h 0.193249v -19.4433h 0.193249v 17.0129h 0.193249v -24.3041h 0.193249v 26.7346h 0.193249v 2.43041h 0.193249v 2.43041h 0.193249v -24.3041h
 0.193249v 9.72166h 0.193249v -4.86083h 0.193249v 21.8737h 0.193249v -24.3041h 0.193249v -4.86083h 0.193249v 21.8737h 0.386498v -9.72166h 0.193249v 4.86083h 0.193249v -9.72166h 0.193249v 2.43041h 0.193249v 12.1521h 0.193249v 2.43041h 0.193249v
 -19.4433h 0.193249v 19.4433h 0.164619v 2.43041h 0.164619v -17.0129h 0.164619v 4.86083h 0.164619v 9.72166h 0.164619v -12.1521h 0.164619v 7.29124h 0.164619v 2.43041h 0.329239v 4.86083h 0.164619v -19.4433h 0.164619v 7.29124h 0.329239v 7.29124h
 0.164619v -7.29124h 0.329239v 12.1521h 0.164619v -9.72166h 0.164619v 9.72166h 0.164619v 2.43041h 0.164619v -7.29124h 0.164619v -4.86083h 0.164619v 9.72166h 0.164619v -4.86083h 0.164619v -14.5825h 0.164619v 7.29124h 0.164619v 4.86083h 0.164619v
 12.1521h 0.130727v -17.0129h 0.130727v 12.1521h 0.130727v -21.8737h 0.130727v 12.1521h 0.261454v 17.0129h 0.130727v -19.4433h 0.130727v 9.72166h 0.130727v -14.5825h 0.130727v 12.1521h 0.130727v -4.86083h 0.130727v 7.29124h 0.261454v -17.0129h
 0.130727v 19.4433h 0.130727v -19.4433h 0.130727v 12.1521h 0.130727v 7.29124h 0.130727v -7.29124h 0.261454v 7.29124h 0.130727v -14.5825h 0.130727v 14.5825h 0.130727v -7.29124h 0.130727v 7.29124h 0.130727v -2.43041h 0.261454v 7.29124h 0.130727v
 -2.43041h 0.130727v -2.43041h 0.130727v -7.29124h 0.130727v 7.29124h 0.130727v -12.1521h 0.130727v -7.29124h 0.193249v 2.43041h 0.193249v 2.43041h 0.193249v -2.43041h 0.579747v 2.43041h 0.193249v 7.29124h 0.193249v 2.43041h 0.193249v -19.4433h
 0.193249v 2.43041h 0.386498v 19.4433h 0.193249v -12.1521h 0.193249v 7.29124h 0.193249v -4.86083h 0.386498v -7.29124h 0.193249v 12.1521h 0.193249v -17.0129h 0.193249v 26.7346h 0.193249v -7.29124h 0.386498v -9.72166h 0.211654v 4.86083h 0.211654v
 -4.86083h 0.423307v 4.86083h 0.211654v 2.43041h 0.211654v -7.29124h 0.423307v -4.86083h 0.211654v -2.43041h 0.211654v 19.4433h 0.211654v -2.43041h 0.211654v -14.5825h 0.211654v 14.5825h 0.211654v -17.0129h 0.211654v 4.86083h 0.211654v 7.29124h
 0.211654v -7.29124h 0.211654v 2.43041h 0.211654v -29.165h 0.211654v 26.7346h 0.376273v 2.43041h 0.164619v 9.72166h 0.164619v 2.43041h 0.164619v -12.1521h 0.493858v 12.1521h 0.164619v -7.29124h 0.164619v -2.43041h 0.164619v -7.29124h 0.164619v
 2.43041h 0.164619v -4.86083h 0.164619v 24.3041h 0.164619v -9.72166h 0.164619v 2.43041h 0.164619v 4.86083h 0.164619v -7.29124h 0.164619v -9.72166h 0.329239v 9.72166h 0.164619v -19.4433h 0.329239v 19.4433h 0.164619v 2.43041h 0.164619v -2.43041h
 0.164619v -4.86083h 0.376273v -4.86083h 0.211654v -17.0129h 0.211654v 26.7346h 0.211654v -14.5825h 0.211654v 7.29124h 0.211654v 4.86083h 0.211654v -7.29124h 0.211654v 4.86083h 0.211654v -9.72166h 0.211654v 7.29124h 0.211654v -7.29124h 0.211654v
 14.5825h 0.211654v -9.72166h 0.211654v -2.43041h 0.211654v -4.86083h 0.211654v 7.29124h 0.846614v -2.43041h 0.43389v 17.0129h 0.444472v -12.1521h 0.222236v -9.72166h 0.222236v -12.1521h 0.222236v 21.8737h 0.222236v -12.1521h 0.222236v -2.43041h
 0.222236v 17.0129h 0.222236v 4.86083h 0.222236v -17.0129h 0.222236v 9.72166h 0.222236v 14.5825h 0.222236v -14.5825h 0.222236v -2.43041h 0.222236v 14.5825h 0.222236v -4.86083h 0.222236v -9.72166h 0.222236v 7.29124h 0.222236v 4.86083h 0.153266v
 2.43041h 0.153266v -2.43041h 0.153266v -19.4433h 0.153266v 17.0129h 0.153266v 4.86083h 0.153266v 9.72166h 0.153266v -12.1521h 0.153266v 2.43041h 0.153266v -12.1521h 0.153266v -4.86083h 0.153266v 9.72166h 0.153266v 14.5825h 0.153266v -14.5825h
 0.153266v 9.72166h 0.153266v -24.3041h 0.153266v 19.4433h 0.153266v 7.29124h 0.153266v 2.43041h 0.153266v -7.29124h 0.153266v -4.86083h 0.153266v -4.86083h 0.153266v -2.43041h 0.153266v 2.43041h 0.153266v 7.29124h 0.153266v -7.29124h 0.153266v
 2.43041h 0.306533v 2.43041h 0.153266v 9.72166h 0.164619v -7.29124h 0.164619v 2.43041h 0.164619v -12.1521h 0.164619v 4.86083h 0.329239v 9.72166h 0.164619v -12.1521h 0.493858v 2.43041h 0.164619v -14.5825h 0.164619v 4.86083h 0.164619v 12.1521h
 0.329239v 7.29124h 0.329239v -12.1521h 0.164619v -4.86083h 0.164619v 12.1521h 0.164619v 2.43041h 0.164619v 4.86083h 0.164619v -14.5825h 0.164619v -2.43041h 0.164619v 12.1521h 0.164619v -12.1521h 0.164619v 12.1521h 0.164619v 7.29124h 0.130727v
 -17.0129h 0.130727v 4.86083h 0.130727v 2.43041h 0.130727v -7.29124h 0.130727v 17.0129h 0.130727v -2.43041h 0.130727v -12.1521h 0.130727v 4.86083h 0.130727v -7.29124h 0.130727v 17.0129h 0.130727v -19.4433h 0.130727v 7.29124h 0.130727v 7.29124h
 0.130727v -19.4433h 0.130727v 21.8737h 0.130727v -4.86083h 0.130727v 4.86083h 0.130727v -2.43041h 0.130727v -14.5825h 0.130727v 14.5825h 0.130727v 2.43041h 0.261454v -4.86083h 0.130727v -4.86083h 0.130727v 9.72166h 0.130727v -7.29124h 0.130727v
 -7.29124h 0.130727v 12.1521h 0.130727v 2.43041h 0.130727v -2.43041h 0.130727v -12.1521h 0.130727v 4.86083h 0.130727v -12.1521h 0.130727v 19.4433h 0.185197v -14.5825h 0.185197v 21.8737h 0.185197v -14.5825h 0.370394v -7.29124h 0.185197v 4.86083h
 0.185197v 9.72166h 0.185197v -7.29124h 0.185197v 4.86083h 0.185197v -4.86083h 0.185197v 7.29124h 0.185197v -21.8737h 0.185197v 14.5825h 0.185197v 2.43041h 0.185197v -17.0129h 0.185197v 19.4433h 0.185197v -2.43041h 0.185197v -7.29124h 0.185197v
 4.86083h 0.185197v 4.86083h 0.185197v -17.0129h 0.185197v 9.72166h 0.185197v -4.86083h 0.185197v 2.43041h 0.202033v 4.86083h 0.202033v 14.5825h 0.202033v -14.5825h 0.202033v -2.43041h 0.202033v 2.43041h 0.202033v 2.43041h 0.404066v 7.29124h
 0.202033v -12.1521h 0.202033v -21.8737h 0.202033v 7.29124h 0.202033v -2.43041h 0.202033v 29.165h 0.202033v 4.86083h 0.202033v -7.29124h 0.202033v -7.29124h 0.404066v -2.43041h 0.202033v 2.43041h 0.202033v 2.43041h 0.202033v -2.43041h 0.202033v
 -4.86083h 0.211654v -14.5825h 0.211654v 17.0129h 0.211654v 2.43041h 0.211654v -2.43041h 0.211654v 4.86083h 0.211654v 2.43041h 0.211654v 2.43041h 0.211654v -9.72166h 0.211654v -2.43041h 0.211654v 12.1521h 0.211654v -7.29124h 0.211654v -7.29124h
 0.211654v 19.4433h 0.211654v -26.7346h 0.211654v 17.0129h 0.211654v -4.86083h 0.211654v -14.5825h 0.211654v 14.5825h 0.423307v 4.86083h 0.445586v -21.8737h 0.233933v 29.165h 0.233933v 2.43041h 0.233933v -29.165h 0.233933v 12.1521h 0.233933v 2.43041h
 0.233933v -12.1521h 0.233933v 17.0129h 0.233933v -7.29124h 0.233933v -12.1521h 0.233933v 9.72166h 0.233933v 4.86083h 0.701799v -2.43041h 0.233933v -2.43041h 0.233933v 9.72166h 0.467866v 4.86083h 0.246929v -14.5825h 0.246929v -9.72166h 0.246929v
 14.5825h 0.246929v -7.29124h 0.493858v 9.72166h 0.246929v -9.72166h 0.246929v 9.72166h 0.246929v 9.72166h 0.246929v -19.4433h 0.246929v -9.72166h 0.246929v 14.5825h 0.246929v 2.43041h 0.246929v -19.4433h 0.246929v 14.5825h 0.246929v 4.86083h
 0.246929v -4.86083h 0.246929v -21.8737h 0.555591v 7.29124h 0.555591v -9.72166h 0.555591v 17.0129h 0.555591v -14.5825h 0.555591v -14.5825h 0.555591v 9.72166h 0.555591v 12.1521h 0.555591v 31.5954h 0.233933v -7.29124h 0.467866v -9.72166h 0.233933v
 14.5825h 0.233933v -7.29124h 0.233933v -14.5825h 0.233933v 9.72166h 0.233933v 9.72166h 0.233933v -12.1521h 0.233933v 4.86083h 0.233933v -7.29124h 0.233933v 21.8737h 0.233933v -19.4433h 0.233933v 9.72166h 0.467866v -4.86083h 0.233933v 4.86083h
 0.233933v -2.43041h 0.233933v 2.43041h 0.277795v 7.29124h 0.277795v -24.3041h 0.277795v 14.5825h 0.277795v -4.86083h 0.277795v -12.1521h 0.277795v 21.8737h 0.277795v -19.4433h 0.277795v 14.5825h 0.277795v -2.43041h 0.277795v 7.29124h 0.277795v
 -9.72166h 0.277795v 7.29124h 0.277795v -17.0129h 0.277795v 9.72166h 0.277795v -4.86083h 0.277795v -7.29124h 0.808132v 7.29124h 0.404066v 12.1521h 0.404066v -12.1521h 0.808132v 9.72166h 0.404066v -9.72166h 0.404066v 7.29124h 0.404066v -17.0129h
 0.404066v 2.43041h 0.404066v 17.0129h 0.296315v 4.86083h 0.296315v 2.43041h 0.296315v -21.8737h 0.296315v 2.43041h 0.296315v 2.43041h 0.296315v 7.29124h 0.296315v 2.43041h 0.296315v -2.43041h 0.59263v 4.86083h 0.59263v 4.86083h 0.296315v -17.0129h
 0.91011v 19.4433h 0.31748v -9.72166h 0.31748v -9.72166h 0.31748v -7.29124h 0.31748v 21.8737h 0.31748v -24.3041h 0.31748v 12.1521h 0.31748v 12.1521h 0.31748v 2.43041h 0.31748v -12.1521h 0.31748v -7.29124h 0.31748v 4.86083h 0.31748v 12.1521h 0.31748v
 -24.3041h 0.404066v 7.29124h 0.404066v -4.86083h 0.404066v 12.1521h 1.2122v 4.86083h 0.404066v -14.5825h 0.404066v 9.72166h 0.808132v -14.5825h 0.404066v 14.5825h 0.404066v 17.0129h 0.404066v -17.0129h 0.404066v 2.43041h 0.404066v 9.72166h 0.404066v
 2.43041h 0.404066v -9.72166h 0.808132v -12.1521h 0.404066v 7.29124h 0.404066v -17.0129h 0.404066v 14.5825h 0.493858v -2.43041h 0.987716v 2.43041h 0.493858v -12.1521h 0.493858v 17.0129h 0.493858v -4.86083h 0.493858v 12.1521h 0.493858v -4.86083h
 0.493858v -36.4562h 0.888945v 12.1521h 0.888945v 2.43041h 0.888945v -2.43041h 0.888945v -9.72166h 0.888945v -21.8737h 1.48157v -9.72166h 1.48157v 19.4433h 1.48157v -2.43041h 1.48157v -9.72166h 1.48157v -4.86083h 1.48157v 55.8995h 0.987716v 2.43041h
 0.493858v 9.72166h 0.493858v -12.1521h 0.493858v 2.43041h 0.493858v 9.72166h 0.493858v -14.5825h 0.493858v 14.5825h 0.493858v -7.29124h 0.740787v -9.72166h 0.740787v -9.72166h 0.740787v 12.1521h 0.740787v 7.29124h 0.740787v -4.86083h 0.740787v
 7.29124h 0.634961v -9.72166h 0.634961v 19.4433h 0.634961v -4.86083h 0.634961v -7.29124h 0.634961v 4.86083h 0.634961v -7.29124h 0.634961v -2.43041h 0.634961v 4.86083h 0.634961v -2.43041h 0.634961v 7.29124h 0.634961v -2.43041h 0.634961v 4.86083h
 0.634961v -4.86083h 0.634961v 4.86083h 0.444472v 4.86083h 0.444472v -4.86083h 0.444472v 4.86083h 0.888945v -24.3041h 0.444472v 26.7346h 0.444472v -4.86083h 0.444472v -14.5825h 0.444472v 24.3041h 0.444472v -7.29124h 0.634961v -9.72166h 0.634961v
 -7.29124h 0.634961v 12.1521h 0.634961v -4.86083h 0.634961v 7.29124h 0.634961v 2.43041h 0.634961v -26.7346h 2.22236v -128.812h 6.66709v 138.534h 2.96315v 7.29124h 1.48157v 7.29124h 0.888945v -2.43041h 0.888945v 7.29124h 0.888945v -7.29124h 0.888945v
 -2.43041h 0.888945v 2.43041h 1.11118v -9.72166h 1.11118v 14.5825h 1.11118v -4.86083h 2.59276v -7.29124h 1.48157v -55.8995h 5.9263v 53.4691h 2.22236v 9.72166h 2.22236v -4.86083h 2.22236v -26.7346h 6.66709v 26.7346h 4.44472v -26.7346h 4.44472v 41.317h
 1.48157v -2.43041h 1.48157v -43.7475h 14.8157v 36.4562h 8.88945v 12.1521h 1.48157v 2.43041h 1.48157v -4.86083h 1.48157" fill="none" stroke="#000099"/>
<path d="M61.7283,432.906h 444.472" fill="none" stroke="black"/>
<path d="M61.7283,427.7v 5.20595" fill="none" stroke="black"/>
<path d="M76.5441,430.303v 2.60297" fill="none" stroke="black"/>
<path d="M91.3598,430.303v 2.60297" fill="none" stroke="black"/>
<path d="M106.176,430.303v 2.60297" fill="none" stroke="black"/>
<path d="M120.991,430.303v 2.60297" fill="none" stroke="black"/>
<path d="M135.807,427.7v 5.20595" fill="none" stroke="black"/>
<path d="M150.623,430.303v 2.60297" fill="none" stroke="black"/>
<path d="M165.439,430.303v 2.60297" fill="none" stroke="black"/>
<path d="M180.254,430.303v 2.60297" fill="none" stroke="black"/>
<path d="M195.07,430.303v 2.60297" fill="none" stroke="black"/>
<path d="M209.886,427.7v 5.20595" fill="none" stroke="black"/>
<path d="M224.702,430.303v 2.60297" fill="none" stroke="black"/>
<path d="M239.517,430.303v 2.60297" fill="none" stroke="black"/>
<path d="M254.333,430.303v 2.60297" fill="none" stroke="black"/>
<path d="M269.149,430.303v 2.60297" fill="none" stroke="black"/>
<path d="M283.965,427.7v 5.20595" fill="none" stroke="black"/>
<path d="M298.78,430.303v 2.60297" fill="none" stroke="black"/>
<path d="M313.596,430.303v 2.60297" fill="none" stroke="black"/>
<path d="M328.412,430.303v 2.60297" fill="none" stroke="black"/>
<path d="M343.228,430.303v 2.60297" fill="none" stroke="black"/>
<path d="M358.043,427.7v 5.20595" fill="none" stroke="black"/>
<path d="M372.859,430.303v 2.60297" fill="none" stroke="black"/>
<path d="M387.675,430.303v 2.60297" fill="none" stroke="black"/>
<path d="M402.491,430.303v 2.60297" fill="none" stroke="black"/>
<path d="M417.306,430.303v 2.60297" fill="none" stroke="black"/>
<path d="M432.122,427.7v 5.20595" fill="none" stroke="black"/>
<path d="M446.938,430.303v 2.60297" fill="none" stroke="black"/>
<path d="M461.754,430.303v 2.60297" fill="none" stroke="black"/>
<path d="M476.569,430.303v 2.60297" fill="none" stroke="black"/>
<path d="M491.385,430.303v 2.60297" fill="none" stroke="black"/>
<path d="M506.201,427.7v 5.20595" fill="none" stroke="black"/>
<text xml:space="preserve" x="61.0389" y="440.154" fill="black" font-size="7.46514" font-family="Helvetica">3
</text>
<text xml:space="preserve" x="57.4778" y="440.154" fill="black" font-size="7.46514" font-family="Times">&#8722;
</text>
<text xml:space="preserve" x="135.11" y="440.154" fill="black" font-size="7.46514" font-family="Helvetica">2
</text>
<text xml:space="preserve" x="131.549" y="440.154" fill="black" font-size="7.46514" font-family="Times">&#8722;
</text>
<text xml:space="preserve" x="209.893" y="440.154" fill="black" font-size="7.46514" font-family="Helvetica">1
</text>
<text xml:space="preserve" x="206.332" y="440.154" fill="black" font-size="7.46514" font-family="Times">&#8722;
</text>
<text xml:space="preserve" x="281.828" y="440.154" fill="black" font-size="7.46514" font-family="Helvetica">0
</text>
<text xml:space="preserve" x="356.611" y="440.154" fill="black" font-size="7.46514" font-family="Helvetica">1
</text>
<text xml:space="preserve" x="429.97" y="440.154" fill="black" font-size="7.46514" font-family="Helvetica">2
</text>
<text xml:space="preserve" x="504.041" y="440.154" fill="black" font-size="7.46514" font-family="Helvetica">3
</text>
<path d="M61.7283,432.906v -173.532" fill="none" stroke="black"/>
<path d="M75.0625,432.906h -13.3342" fill="none" stroke="black"/>
<path d="M68.3954,428.045h -6.66709" fill="none" stroke="black"/>
<path d="M68.3954,423.184h -6.66709" fill="none" stroke="black"/>
<path d="M68.3954,418.323h -6.66709" fill="none" stroke="black"/>
<path d="M68.3954,413.463h -6.66709" fill="none" stroke="black"/>
<path d="M75.0625,408.602h -13.3342" fill="none" stroke="black"/>
<path d="M68.3954,403.741h -6.66709" fill="none" stroke="black"/>
<path d="M68.3954,398.88h -6.66709" fill="none" stroke="black"/>
<path d="M68.3954,394.019h -6.66709" fill="none" stroke="black"/>
<path d="M68.3954,389.158h -6.66709" fill="none" stroke="black"/>
<path d="M75.0625,384.298h -13.3342" fill="none" stroke="black"/>
<path d="M68.3954,379.437h -6.66709" fill="none" stroke="black"/>
<path d="M68.3954,374.576h -6.66709" fill="none" stroke="black"/>
<path d="M68.3954,369.715h -6.66709" fill="none" stroke="black"/>
<path d="M68.3954,364.854h -6.66709" fill="none" stroke="black"/>
<path d="M75.0625,359.993h -13.3342" fill="none" stroke="black"/>
<path d="M68.3954,355.133h -6.66709" fill="none" stroke="black"/>
<path d="M68.3954,350.272h -6.66709" fill="none" stroke="black"/>
<path d="M68.3954,345.411h -6.66709" fill="none" stroke="black"/>
<path d="M68.3954,340.55h -6.66709" fill="none" stroke="black"/>
<path d="M75.0625,335.689h -13.3342" fill="none" stroke="black"/>
<path d="M68.3954,330.829h -6.66709" fill="none" stroke="black"/>
<path d="M68.3954,325.968h -6.66709" fill="none" stroke="black"/>
<path d="M68.3954,321.107h -6.66709" fill="none" stroke="black"/>
<path d="M68.3954,316.246h -6.66709" fill="none" stroke="black"/>
<path d="M75.0625,311.385h -13.3342" fill="none" stroke="black"/>
<path d="M68.3954,306.524h -6.66709" fill="none" stroke="black"/>
<path d="M68.3954,301.664h -6.66709" fill="none" stroke="black"/>
<path d="M68.3954,296.803h -6.66709" fill="none" stroke="black"/>
<path d="M68.3954,291.942h -6.66709" fill="none" stroke="black"/>
<path d="M75.0625,287.081h -13.3342" fill="none" stroke="black"/>
<path d="M68.3954,282.22h -6.66709" fill="none" stroke="black"/>
<path d="M68.3954,277.359h -6.66709" fill="none" stroke="black"/>
<path d="M68.3954,272.499h -6.66709" fill="none" stroke="black"/>
<path d="M68.3954,267.638h -6.66709" fill="none" stroke="black"/>
<path d="M75.0625,262.777h -13.3342" fill="none" stroke="black"/>
<path d="M75.0625,262.777h -13.3342" fill="none" stroke="black"/>
<text xml:space="preserve" x="54.6289" y="435.88" fill="black" font-size="7.46514" font-family="Helvetica">0
</text>
<text xml:space="preserve" x="51.0678" y="411.665" fill="black" font-size="7.46514" font-family="Helvetica">10
</text>
<text xml:space="preserve" x="51.0678" y="387.449" fill="black" font-size="7.46514" font-family="Helvetica">20
</text>
<text xml:space="preserve" x="51.0678" y="362.521" fill="black" font-size="7.46514" font-family="Helvetica">30
</text>
<text xml:space="preserve" x="51.0678" y="338.306" fill="black" font-size="7.46514" font-family="Helvetica">40
</text>
<text xml:space="preserve" x="51.0678" y="314.09" fill="black" font-size="7.46514" font-family="Helvetica">50
</text>
<text xml:space="preserve" x="51.0678" y="289.875" fill="black" font-size="7.46514" font-family="Helvetica">60
</text>
<text xml:space="preserve" x="51.0678" y="265.659" fill="black" font-size="7.46514" font-family="Helvetica">70
</text>
<text xml:space="preserve" x="266.159" y="248.566" fill="black" font-size="9.80344" font-family="Helvetica">rebinned
</text>
<rect x="439.53" y="251.782" width="111.118" height="34.7063" fill="white"/>
<path d="M439.53,286.489h 111.118" fill="none" stroke="black"/>
<path d="M550.648,286.489v -34.7063" fill="none" stroke="black"/>
<path d="M550.648,251.782h -111.118" fill="none" stroke="black"/>
<path d="M439.53,251.782v 34.7063" fill="none" stroke="black"/>
<text xml:space="preserve" x="486.236" y="259.249" fill="black" font-size="7.82335" font-family="Helvetica">hnew
</text>
<path d="M439.53,260.459h 111.118" fill="none" stroke="black"/>
<text xml:space="preserve" x="444.927" y="267.796" fill="black" font-size="7.82335" font-family="Helvetica">Entries 
</text>
<text xml:space="preserve" x="523.271" y="267.796" fill="black" font-size="7.82335" font-family="Helvetica"> 10000
</text>
<text xml:space="preserve" x="444.927" y="276.342" fill="black" font-size="7.82335" font-family="Helvetica">Mean  
</text>
<text xml:space="preserve" x="514.725" y="276.342" fill="black" font-size="7.82335" font-family="Helvetica"> 0.005001
</text>
<text xml:space="preserve" x="444.927" y="284.889" fill="black" font-size="7.82335" font-family="Helvetica">Std Dev   
</text>
<text xml:space="preserve" x="523.271" y="284.889" fill="black" font-size="7.82335" font-family="Helvetica">  0.993
</text>
<text xml:space="preserve" x="266.159" y="248.566" fill="black" font-size="9.80344" font-family="Helvetica">rebinned
</text>
<rect x="6.16929" y="468.443" width="555.591" height="216.914" fill="white"/>
<rect x="61.7283" y="490.134" width="444.472" height="173.532" fill="white"/>
<rect x="61.7283" y="490.134" width="444.472" height="173.532" fill="none" stroke="black"/>
<path d="M61.7283,580.036h 31.1131v 23.8942h 13.3342v 11.9471h 6.66709v -11.9471h 6.66709v 17.9206h 4.44472v -59.7355h 6.66709v 83.6297h 2.77795v -1.99118h 1.11118v 3.98237h 1.11118v -5.97355h 1.11118v -5.97355h 2.03717v -35.8413h 2.96315v 25.8854h
 1.48157v 15.9295h 1.48157v 5.97355h 1.48157v -27.8766h 2.22236v 1.99118h 2.22236v 5.97355h 2.22236v -11.9471h 2.22236v 23.8942h 1.48157v -19.9118h 1.48157v -1.99118h 1.48157v 13.9383h 2.53984v 1.99118h 1.26992v 13.9383h 1.12882v -17.9206h 0.987716v
 7.96473h 0.987716v -9.95591h 1.97543v -113.497h 4.44472v 131.418h 0.683804v 1.99118h 0.683804v -15.9295h 0.683804v 5.97355h 0.683804v -5.97355h 0.683804v 13.9383h 0.683804v -13.9383h 0.897492v -9.95591h 1.11118v 3.98237h 2.22236v -3.98237h 1.19055v
 -15.9295h 1.26992v 7.96473h 1.26992v 7.96473h 1.26992v 31.8589h 0.493858v 3.98237h 0.493858v -15.9295h 1.48157v -1.99118h 0.493858v -9.95591h 0.493858v 17.9206h 0.493858v -1.99118h 0.493858v -45.7972h 1.26992v 3.98237h 1.26992v -27.8766h 1.26992v
 39.8237h 0.868894v 27.8766h 0.467866v -5.97355h 0.467866v 7.96473h 0.467866v 1.99118h 0.467866v -3.98237h 0.467866v -17.9206h 0.467866v 11.9471h 0.935731v -5.97355h 0.467866v -25.8854h 0.740787v 3.98237h 0.740787v 21.903h 0.740787v -19.9118h
 0.740787v -3.98237h 0.740787v 9.95591h 0.740787v 1.99118h 0.683804v -9.95591h 0.683804v 7.96473h 0.683804v 15.9295h 0.683804v -1.99118h 0.683804v -11.9471h 0.683804v -7.96473h 0.712296v 5.97355h 0.740787v -7.96473h 0.740787v 13.9383h 0.740787v
 -7.96473h 0.740787v 5.97355h 0.740787v -33.8501h 0.77446v 31.8589h 0.808132v -19.9118h 0.808132v 7.96473h 0.808132v -21.903h 0.808132v 23.8942h 0.808132v 31.8589h 0.493858v -19.9118h 0.987716v -13.9383h 0.493858v 17.9206h 0.493858v 3.98237h
 0.493858v -7.96473h 0.493858v -1.99118h 0.493858v 3.98237h 0.493858v -1.99118h 0.59263v 17.9206h 0.59263v -23.8942h 0.59263v 3.98237h 0.59263v -1.99118h 0.59263v -3.98237h 0.59263v -1.99118h 0.59263v 19.9118h 0.57411v -25.8854h 0.555591v 17.9206h
 0.555591v 7.96473h 0.555591v 7.96473h 0.555591v -19.9118h 0.555591v -3.98237h 0.555591v -3.98237h 0.555591v 17.9206h 0.555591v -19.9118h 0.555591v 11.9471h 0.555591v -15.9295h 0.555591v 9.95591h 0.555591v 11.9471h 0.555591v -21.903h 0.555591v
 27.8766h 0.555591v -3.98237h 0.511728v 9.95591h 0.467866v -13.9383h 0.467866v -3.98237h 0.935731v -5.97355h 0.467866v 9.95591h 0.467866v -9.95591h 0.467866v -13.9383h 0.467866v 29.8677h 0.912338v -13.9383h 0.444472v 11.9471h 0.444472v -3.98237h
 0.444472v -3.98237h 0.444472v -3.98237h 0.444472v 9.95591h 0.444472v -7.96473h 0.888945v 3.98237h 0.444472v -5.97355h 0.404066v 9.95591h 0.404066v -5.97355h 0.404066v 9.95591h 0.404066v -1.99118h 0.404066v -23.8942h 0.404066v 21.903h 0.404066v
 -11.9471h 0.404066v 23.8942h 0.404066v -13.9383h 0.404066v 3.98237h 0.404066v -1.99118h 0.386498v -7.96473h 0.386498v 3.98237h 0.386498v 9.95591h 0.386498v -9.95591h 0.386498v 11.9471h 0.386498v -3.98237h 0.386498v -1.99118h 0.386498v 1.99118h
 0.386498v -15.9295h 0.386498v 9.95591h 0.386498v -5.97355h 0.471044v -35.8413h 0.555591v 23.8942h 0.555591v -3.98237h 1.11118v -1.99118h 0.555591v -5.97355h 0.555591v 3.98237h 0.555591v 23.8942h 1.24404v 3.98237h 0.386498v -9.95591h 0.386498v
 9.95591h 0.386498v -9.95591h 0.386498v 7.96473h 0.386498v 1.99118h 0.386498v 5.97355h 0.386498v -9.95591h 0.386498v -11.9471h 0.386498v 19.9118h 0.370394v 3.98237h 0.370394v -17.9206h 0.370394v 5.97355h 0.370394v -3.98237h 0.370394v 9.95591h
 0.370394v 15.9295h 0.370394v -27.8766h 0.370394v 3.98237h 0.370394v -7.96473h 0.370394v 7.96473h 0.370394v 9.95591h 0.370394v -45.7972h 0.59263v 25.8854h 0.59263v -17.9206h 0.59263v 15.9295h 0.59263v -23.8942h 0.59263v 13.9383h 1.18526v 19.9118h
 0.876062v -7.96473h 0.386498v 25.8854h 0.386498v -13.9383h 0.386498v -7.96473h 0.386498v 11.9471h 0.386498v -9.95591h 0.386498v 9.95591h 0.386498v -7.96473h 0.386498v 5.97355h 0.386498v -1.99118h 0.386498v 17.9206h 0.329239v -21.903h 0.329239v
 9.95591h 0.329239v 3.98237h 0.329239v 5.97355h 0.329239v -21.903h 0.329239v 11.9471h 0.329239v -5.97355h 0.329239v 11.9471h 0.329239v 9.95591h 0.329239v -13.9383h 0.329239v 7.96473h 0.329239v -21.903h 0.329239v 23.8942h 0.295347v -7.96473h 0.261454v
 -15.9295h 0.261454v 23.8942h 0.261454v -9.95591h 0.261454v -5.97355h 0.261454v 7.96473h 0.261454v -7.96473h 0.261454v 1.99118h 0.261454v 9.95591h 0.261454v -5.97355h 0.522909v 5.97355h 0.261454v 3.98237h 0.261454v 3.98237h 0.522909v -7.96473h
 0.261454v -19.9118h 0.710474v -1.99118h 0.386498v 1.99118h 0.386498v 15.9295h 0.386498v -27.8766h 0.386498v 17.9206h 0.386498v 1.99118h 0.386498v -1.99118h 0.386498v -1.99118h 0.386498v 3.98237h 0.386498v 9.95591h 0.386498v -11.9471h 0.423307v
 -3.98237h 0.423307v 9.95591h 0.423307v -9.95591h 0.423307v -9.95591h 0.423307v 27.8766h 0.423307v -13.9383h 0.423307v -11.9471h 0.423307v 9.95591h 0.423307v -25.8854h 0.423307v 19.9118h 0.376273v 11.9471h 0.329239v 1.99118h 0.329239v -9.95591h
 0.329239v 13.9383h 0.329239v -15.9295h 0.329239v -5.97355h 0.329239v 27.8766h 0.658478v -15.9295h 0.658478v -23.8942h 0.329239v 33.8501h 0.329239v -5.97355h 0.329239v -7.96473h 0.423307v -9.95591h 0.423307v 3.98237h 0.423307v 7.96473h 0.423307v
 -5.97355h 0.423307v -1.99118h 0.423307v 9.95591h 0.423307v -15.9295h 0.423307v 7.96473h 0.846614v -3.98237h 0.43389v 27.8766h 0.444472v -27.8766h 0.444472v -9.95591h 0.444472v -3.98237h 0.444472v 29.8677h 0.444472v -15.9295h 0.444472v 19.9118h
 0.444472v -3.98237h 0.444472v -3.98237h 0.444472v 7.96473h 0.375503v 5.97355h 0.306533v -19.9118h 0.306533v 29.8677h 0.306533v -9.95591h 0.306533v -21.903h 0.306533v 23.8942h 0.306533v -3.98237h 0.306533v -15.9295h 0.306533v 29.8677h 0.306533v
 -13.9383h 0.306533v -13.9383h 0.306533v 7.96473h 0.306533v -3.98237h 0.306533v 3.98237h 0.306533v 11.9471h 0.329239v -11.9471h 0.329239v -1.99118h 0.329239v 5.97355h 0.329239v -9.95591h 0.329239v -7.96473h 0.329239v 5.97355h 0.329239v 15.9295h
 0.329239v -3.98237h 0.329239v -7.96473h 0.329239v 17.9206h 0.329239v -21.903h 0.329239v 7.96473h 0.329239v 15.9295h 0.295347v -17.9206h 0.261454v 1.99118h 0.261454v 19.9118h 0.261454v -17.9206h 0.261454v 5.97355h 0.261454v -11.9471h 0.261454v
 1.99118h 0.261454v 15.9295h 0.261454v 1.99118h 0.261454v -13.9383h 0.261454v 15.9295h 0.261454v -11.9471h 0.261454v 5.97355h 0.261454v -7.96473h 0.261454v 11.9471h 0.261454v -17.9206h 0.577378v 9.95591h 0.370394v -5.97355h 0.370394v -7.96473h
 0.370394v 13.9383h 0.370394v -1.99118h 0.370394v -9.95591h 0.370394v 7.96473h 0.370394v -9.95591h 0.370394v 5.97355h 0.370394v 5.97355h 0.370394v -15.9295h 0.370394v 1.99118h 0.38723v 21.903h 0.404066v -13.9383h 0.404066v 3.98237h 0.404066v 7.96473h
 0.404066v -31.8589h 0.404066v -7.96473h 0.404066v 49.7796h 0.404066v -13.9383h 0.404066v -7.96473h 0.404066v 3.98237h 0.404066v -5.97355h 0.413686v -13.9383h 0.423307v 15.9295h 0.423307v 7.96473h 0.423307v -1.99118h 0.423307v -1.99118h 0.423307v
 -7.96473h 0.423307v 3.98237h 0.423307v 1.99118h 0.423307v -15.9295h 0.423307v 15.9295h 0.423307v -13.9383h 0.467866v 31.8589h 0.467866v -35.8413h 0.467866v 3.98237h 0.467866v 11.9471h 0.467866v -17.9206h 0.467866v 15.9295h 0.467866v -1.99118h
 0.467866v 1.99118h 0.467866v 11.9471h 0.480862v -27.8766h 0.493858v 9.95591h 0.493858v 1.99118h 0.987716v 7.96473h 0.493858v -19.9118h 0.987716v 11.9471h 0.493858v -21.903h 0.80252v -13.9383h 1.11118v 7.96473h 1.11118v -27.8766h 1.11118v 53.7619h
 0.789523v 13.9383h 0.467866v -3.98237h 0.467866v -11.9471h 0.467866v 11.9471h 0.467866v -7.96473h 0.467866v 9.95591h 0.467866v -5.97355h 0.467866v 3.98237h 0.467866v 1.99118h 0.467866v 7.96473h 0.555591v -21.903h 0.555591v -5.97355h 0.555591v
 9.95591h 0.555591v 5.97355h 0.555591v 1.99118h 0.555591v -9.95591h 0.555591v -1.99118h 0.555591v -15.9295h 0.808132v 21.903h 0.808132v -9.95591h 0.808132v 7.96473h 0.808132v -9.95591h 0.808132v 3.98237h 0.700381v 23.8942h 0.59263v -31.8589h 0.59263v
 11.9471h 0.59263v 7.96473h 0.59263v 1.99118h 0.59263v 7.96473h 0.59263v -23.8942h 0.59263v 15.9295h 0.634961v -7.96473h 0.634961v -1.99118h 0.634961v -11.9471h 0.634961v 31.8589h 0.634961v -23.8942h 0.634961v 11.9471h 0.634961v -23.8942h 0.808132v
 7.96473h 0.808132v 9.95591h 0.808132v -3.98237h 0.808132v 3.98237h 0.808132v -11.9471h 0.808132v 25.8854h 0.808132v -1.99118h 0.808132v 3.98237h 0.808132v -17.9206h 0.808132v -11.9471h 0.808132v 7.96473h 1.97543v -3.98237h 0.987716v 15.9295h
 0.987716v -27.8766h 1.3828v -7.96473h 1.77789v -9.95591h 1.77789v -51.7708h 2.96315v 21.903h 2.96315v -21.903h 2.96315v 87.612h 0.987716v 11.9471h 0.987716v -9.95591h 0.987716v 5.97355h 0.987716v 5.97355h 1.23465v -29.8677h 1.48157v 17.9206h
 1.48157v 3.98237h 1.37575v 5.97355h 1.26992v 1.99118h 1.26992v -3.98237h 1.26992v -5.97355h 1.26992v 5.97355h 1.26992v 5.97355h 2.34935v 7.96473h 0.888945v 3.98237h 0.888945v -17.9206h 0.888945v 1.99118h 0.888945v 21.903h 1.07943v -27.8766h 1.26992v
 9.95591h 1.26992v 9.95591h 1.26992v -147.348h 8.88945v 121.462h 2.96315v 17.9206h 2.37052v 7.96473h 1.77789v -7.96473h 1.77789v -5.97355h 2.22236v 11.9471h 2.22236v -9.95591h 2.96315v -53.7619h 8.14866v 55.7531h 4.44472v -25.8854h 11.1118v 11.9471h
 5.9263v -5.97355h 16.2973v 33.8501h 10.371v 9.95591h 2.96315" fill="none" stroke="#000099"/>
<path d="M61.7283,663.666h 444.472" fill="none" stroke="black"/>
<path d="M61.7283,658.46v 5.20595" fill="none" stroke="black"/>
<path d="M76.5441,661.063v 2.60297" fill="none" stroke="black"/>
<path d="M91.3598,661.063v 2.60297" fill="none" stroke="black"/>
<path d="M106.176,661.063v 2.60297" fill="none" stroke="black"/>
<path d="M120.991,661.063v 2.60297" fill="none" stroke="black"/>
<path d="M135.807,658.46v 5.20595" fill="none" stroke="black"/>
<path d="M150.623,661.063v 2.60297" fill="none" stroke="black"/>
<path d="M165.439,661.063v 2.60297" fill="none" stroke="black"/>
<path d="M180.254,661.063v 2.60297" fill="none" stroke="black"/>
<path d="M195.07,661.063v 2.60297" fill="none" stroke="black"/>
<path d="M209.886,658.46v 5.20595" fill="none" stroke="black"/>
<path d="M224.702,661.063v 2.60297" fill="none" stroke="black"/>
<path d="M239.517,661.063v 2.60297" fill="none" stroke="black"/>
<path d="M254.333,661.063v 2.60297" fill="none" stroke="black"/>
<path d="M269.149,661.063v 2.60297" fill="none" stroke="black"/>
<path d="M283.965,658.46v 5.20595" fill="none" stroke="black"/>
<path d="M298.78,661.063v 2.60297" fill="none" stroke="black"/>
<path d="M313.596,661.063v 2.60297" fill="none" stroke="black"/>
<path d="M328.412,661.063v 2.60297" fill="none" stroke="black"/>
<path d="M343.228,661.063v 2.60297" fill="none" stroke="black"/>
<path d="M358.043,658.46v 5.20595" fill="none" stroke="black"/>
<path d="M372.859,661.063v 2.60297" fill="none" stroke="black"/>
<path d="M387.675,661.063v 2.60297" fill="none" stroke="black"/>
<path d="M402.491,661.063v 2.60297" fill="none" stroke="black"/>
<path d="M417.306,661.063v 2.60297" fill="none" stroke="black"/>
<path d="M432.122,658.46v 5.20595" fill="none" stroke="black"/>
<path d="M446.938,661.063v 2.60297" fill="none" stroke="black"/>
<path d="M461.754,661.063v 2.60297" fill="none" stroke="black"/>
<path d="M476.569,661.063v 2.60297" fill="none" stroke="black"/>
<path d="M491.385,661.063v 2.60297" fill="none" stroke="black"/>
<path d="M506.201,658.46v 5.20595" fill="none" stroke="black"/>
<text xml:space="preserve" x="61.0389" y="670.914" fill="black" font-size="7.46514" font-family="Helvetica">3
</text>
<text xml:space="preserve" x="57.4778" y="670.914" fill="black" font-size="7.46514" font-family="Times">&#8722;
</text>
<text xml:space="preserve" x="135.11" y="670.914" fill="black" font-size="7.46514" font-family="Helvetica">2
</text>
<text xml:space="preserve" x="131.549" y="670.914" fill="black" font-size="7.46514" font-family="Times">&#8722;
</text>
<text xml:space="preserve" x="209.893" y="670.914" fill="black" font-size="7.46514" font-family="Helvetica">1
</text>
<text xml:space="preserve" x="206.332" y="670.914" fill="black" font-size="7.46514" font-family="Times">&#8722;
</text>
<text xml:space="preserve" x="281.828" y="670.914" fill="black" font-size="7.46514" font-family="Helvetica">0
</text>
<text xml:space="preserve" x="356.611" y="670.914" fill="black" font-size="7.46514" font-family="Helvetica">1
</text>
<text xml:space="preserve" x="429.97" y="670.914" fill="black" font-size="7.46514" font-family="Helvetica">2
</text>
<text xml:space="preserve" x="504.041" y="670.914" fill="black" font-size="7.46514" font-family="Helvetica">3
</text>
<path d="M61.7283,663.666v -173.532" fill="none" stroke="black"/>
<path d="M75.0625,663.666h -13.3342" fill="none" stroke="black"/>
<path d="M68.3954,659.684h -6.66709" fill="none" stroke="black"/>
<path d="M68.3954,655.701h -6.66709" fill="none" stroke="black"/>
<path d="M68.3954,651.719h -6.66709" fill="none" stroke="black"/>
<path d="M68.3954,647.737h -6.66709" fill="none" stroke="black"/>
<path d="M75.0625,643.754h -13.3342" fill="none" stroke="black"/>
<path d="M68.3954,639.772h -6.66709" fill="none" stroke="black"/>
<path d="M68.3954,635.789h -6.66709" fill="none" stroke="black"/>
<path d="M68.3954,631.807h -6.66709" fill="none" stroke="black"/>
<path d="M68.3954,627.825h -6.66709" fill="none" stroke="black"/>
<path d="M75.0625,623.842h -13.3342" fill="none" stroke="black"/>
<path d="M68.3954,619.86h -6.66709" fill="none" stroke="black"/>
<path d="M68.3954,615.878h -6.66709" fill="none" stroke="black"/>
<path d="M68.3954,611.895h -6.66709" fill="none" stroke="black"/>
<path d="M68.3954,607.913h -6.66709" fill="none" stroke="black"/>
<path d="M75.0625,603.931h -13.3342" fill="none" stroke="black"/>
<path d="M68.3954,599.948h -6.66709" fill="none" stroke="black"/>
<path d="M68.3954,595.966h -6.66709" fill="none" stroke="black"/>
<path d="M68.3954,591.983h -6.66709" fill="none" stroke="black"/>
<path d="M68.3954,588.001h -6.66709" fill="none" stroke="black"/>
<path d="M75.0625,584.019h -13.3342" fill="none" stroke="black"/>
<path d="M68.3954,580.036h -6.66709" fill="none" stroke="black"/>
<path d="M68.3954,576.054h -6.66709" fill="none" stroke="black"/>
<path d="M68.3954,572.072h -6.66709" fill="none" stroke="black"/>
<path d="M68.3954,568.089h -6.66709" fill="none" stroke="black"/>
<path d="M75.0625,564.107h -13.3342" fill="none" stroke="black"/>
<path d="M68.3954,560.125h -6.66709" fill="none" stroke="black"/>
<path d="M68.3954,556.142h -6.66709" fill="none" stroke="black"/>
<path d="M68.3954,552.16h -6.66709" fill="none" stroke="black"/>
<path d="M68.3954,548.177h -6.66709" fill="none" stroke="black"/>
<path d="M75.0625,544.195h -13.3342" fill="none" stroke="black"/>
<path d="M68.3954,540.213h -6.66709" fill="none" stroke="black"/>
<path d="M68.3954,536.23h -6.66709" fill="none" stroke="black"/>
<path d="M68.3954,532.248h -6.66709" fill="none" stroke="black"/>
<path d="M68.3954,528.266h -6.66709" fill="none" stroke="black"/>
<path d="M75.0625,524.283h -13.3342" fill="none" stroke="black"/>
<path d="M68.3954,520.301h -6.66709" fill="none" stroke="black"/>
<path d="M68.3954,516.318h -6.66709" fill="none" stroke="black"/>
<path d="M68.3954,512.336h -6.66709" fill="none" stroke="black"/>
<path d="M68.3954,508.354h -6.66709" fill="none" stroke="black"/>
<path d="M75.0625,504.371h -13.3342" fill="none" stroke="black"/>
<path d="M75.0625,504.371h -13.3342" fill="none" stroke="black"/>
<path d="M68.3954,500.389h -6.66709" fill="none" stroke="black"/>
<path d="M68.3954,496.407h -6.66709" fill="none" stroke="black"/>
<path d="M68.3954,492.424h -6.66709" fill="none" stroke="black"/>
<text xml:space="preserve" x="54.6289" y="666.64" fill="black" font-size="7.46514" font-family="Helvetica">0
</text>
<text xml:space="preserve" x="51.0678" y="646.698" fill="black" font-size="7.46514" font-family="Helvetica">10
</text>
<text xml:space="preserve" x="51.0678" y="626.756" fill="black" font-size="7.46514" font-family="Helvetica">20
</text>
<text xml:space="preserve" x="51.0678" y="606.814" fill="black" font-size="7.46514" font-family="Helvetica">30
</text>
<text xml:space="preserve" x="51.0678" y="586.871" fill="black" font-size="7.46514" font-family="Helvetica">40
</text>
<text xml:space="preserve" x="51.0678" y="566.929" fill="black" font-size="7.46514" font-family="Helvetica">50
</text>
<text xml:space="preserve" x="51.0678" y="546.987" fill="black" font-size="7.46514" font-family="Helvetica">60
</text>
<text xml:space="preserve" x="51.0678" y="527.045" fill="black" font-size="7.46514" font-family="Helvetica">70
</text>
<text xml:space="preserve" x="51.0678" y="507.102" fill="black" font-size="7.46514" font-family="Helvetica">80
</text>
<text xml:space="preserve" x="266.159" y="479.326" fill="black" font-size="9.80344" font-family="Helvetica">rebinned
</text>
<rect x="439.53" y="482.542" width="111.118" height="34.7063" fill="white"/>
<path d="M439.53,517.249h 111.118" fill="none" stroke="black"/>
<path d="M550.648,517.249v -34.7063" fill="none" stroke="black"/>
<path d="M550.648,482.542h -111.118" fill="none" stroke="black"/>
<path d="M439.53,482.542v 34.7063" fill="none" stroke="black"/>
<text xml:space="preserve" x="484.099" y="490.009" fill="black" font-size="7.82335" font-family="Helvetica">hnew2
</text>
<path d="M439.53,491.219h 111.118" fill="none" stroke="black"/>
<text xml:space="preserve" x="444.927" y="498.556" fill="black" font-size="7.82335" font-family="Helvetica">Entries 
</text>
<text xml:space="preserve" x="523.271" y="498.556" fill="black" font-size="7.82335" font-family="Helvetica"> 10000
</text>
<text xml:space="preserve" x="444.927" y="507.102" fill="black" font-size="7.82335" font-family="Helvetica">Mean  
</text>
<text xml:space="preserve" x="514.725" y="507.102" fill="black" font-size="7.82335" font-family="Helvetica"> 0.005001
</text>
<text xml:space="preserve" x="444.927" y="515.649" fill="black" font-size="7.82335" font-family="Helvetica">Std Dev   
</text>
<text xml:space="preserve" x="523.271" y="515.649" fill="black" font-size="7.82335" font-family="Helvetica">  0.993
</text>
<text xml:space="preserve" x="266.159" y="479.326" fill="black" font-size="9.80344" font-family="Helvetica">rebinned
</text></svg>
