<?xml version="1.0" standalone="no"?>
<svg width="567.429" height="384.969" viewBox="0 0 567.429 384.969" xmlns="http://www.w3.org/2000/svg" shape-rendering="crispEdges">
<title>
./old_svg_pro/temp_transpad_pro.svg
</title>
<desc>
Creator: ROOT Version 6.33.01
CreationDate: Wed Jul  3 13:19:35 2024</desc>
<defs>
</defs>
<rect x="0.5" y="0" width="566.929" height="384.469" fill="white"/>
<rect x="0.5" y="0" width="566.929" height="384.469" fill="white"/>
<rect x="57.1929" y="38.4469" width="453.543" height="307.575" fill="white"/>
<rect x="57.1929" y="38.4469" width="453.543" height="307.575" fill="none" stroke="black"/>
<rect x="57.1929" y="38.4469" width="453.543" height="307.575" fill="white"/>
<rect x="57.1929" y="38.4469" width="453.543" height="307.575" fill="none" stroke="black"/>
<path d="M57.1929,346.022h 31.748v -5.52696h 18.1417v -11.0539h 4.53543v 11.0539h 4.53543v -11.0539h 4.53543v 5.52696h 4.53543v -16.5809h 4.53543v -5.52696h 4.53543v -11.0539h 4.53543v 16.5809h 4.53543v -27.6348h 4.53543v -88.4314h 4.53543v 44.2157h
 4.53543v -27.6348h 9.07087v -33.1618h 4.53543v 5.52696h 4.53543v -27.6348h 4.53543v -49.7426h 4.53543v -49.7426h 4.53543v 77.3774h 4.53543v -55.2696h 4.53543v -33.1618h 4.53543v 82.9044h 4.53543v -77.3774h 4.53543v 5.52696h 4.53543v 27.6348h
 4.53543v -38.6887h 4.53543v 82.9044h 4.53543v 55.2696h 4.53543v -38.6887h 4.53543v -16.5809h 4.53543v 88.4314h 4.53543v -38.6887h 4.53543v 27.6348h 4.53543v 49.7426h 4.53543v -16.5809h 4.53543v 27.6348h 4.53543v -5.52696h 4.53543v 22.1078h 4.53543v
 16.5809h 4.53543v 27.6348h 4.53543v -16.5809h 4.53543v 27.6348h 9.07087v -11.0539h 9.07087v 5.52696h 4.53543v 5.52696h 195.024" fill="none" stroke="#000099"/>
<rect x="227.272" y="24.9905" width="113.386" height="61.5151" fill="white"/>
<path d="M227.272,86.5056h 113.386" fill="none" stroke="black"/>
<path d="M340.657,86.5056v -61.5151" fill="none" stroke="black"/>
<path d="M340.657,24.9905h -113.386" fill="none" stroke="black"/>
<path d="M227.272,24.9905v 61.5151" fill="none" stroke="black"/>
<text xml:space="preserve" x="277.448" y="38.284" fill="black" font-size="13.4802" font-family="Helvetica">h1
</text>
<path d="M227.272,40.3693h 113.386" fill="none" stroke="black"/>
<text xml:space="preserve" x="232.648" y="52.1314" fill="black" font-size="9.5843" font-family="Helvetica">Entries 
</text>
<text xml:space="preserve" x="313.288" y="51.3169" fill="black" font-size="9.5843" font-family="Helvetica"> 1000
</text>
<text xml:space="preserve" x="232.648" y="67.6079" fill="black" font-size="9.5843" font-family="Helvetica">Mean  
</text>
<text xml:space="preserve" x="314.103" y="66.7934" fill="black" font-size="9.5843" font-family="Helvetica">1.021
</text>
<text xml:space="preserve" x="308.401" y="66.7934" fill="black" font-size="9.5843" font-family="Times">&#8722;
</text>
<text xml:space="preserve" x="301.07" y="66.7934" fill="black" font-size="9.5843" font-family="Helvetica"> 
</text>
<text xml:space="preserve" x="232.648" y="83.0844" fill="black" font-size="9.5843" font-family="Helvetica">Std Dev   
</text>
<text xml:space="preserve" x="305.143" y="82.2699" fill="black" font-size="9.5843" font-family="Helvetica"> 0.4857
</text>
<path d="M57.1929,346.022h 453.543" fill="none" stroke="black"/>
<path d="M57.1929,336.795v 9.22726" fill="none" stroke="black"/>
<path d="M72.311,341.409v 4.61363" fill="none" stroke="black"/>
<path d="M87.4291,341.409v 4.61363" fill="none" stroke="black"/>
<path d="M102.547,341.409v 4.61363" fill="none" stroke="black"/>
<path d="M117.665,341.409v 4.61363" fill="none" stroke="black"/>
<path d="M132.783,336.795v 9.22726" fill="none" stroke="black"/>
<path d="M147.902,341.409v 4.61363" fill="none" stroke="black"/>
<path d="M163.02,341.409v 4.61363" fill="none" stroke="black"/>
<path d="M178.138,341.409v 4.61363" fill="none" stroke="black"/>
<path d="M193.256,341.409v 4.61363" fill="none" stroke="black"/>
<path d="M208.374,336.795v 9.22726" fill="none" stroke="black"/>
<path d="M223.492,341.409v 4.61363" fill="none" stroke="black"/>
<path d="M238.61,341.409v 4.61363" fill="none" stroke="black"/>
<path d="M253.728,341.409v 4.61363" fill="none" stroke="black"/>
<path d="M268.846,341.409v 4.61363" fill="none" stroke="black"/>
<path d="M283.965,336.795v 9.22726" fill="none" stroke="black"/>
<path d="M299.083,341.409v 4.61363" fill="none" stroke="black"/>
<path d="M314.201,341.409v 4.61363" fill="none" stroke="black"/>
<path d="M329.319,341.409v 4.61363" fill="none" stroke="black"/>
<path d="M344.437,341.409v 4.61363" fill="none" stroke="black"/>
<path d="M359.555,336.795v 9.22726" fill="none" stroke="black"/>
<path d="M374.673,341.409v 4.61363" fill="none" stroke="black"/>
<path d="M389.791,341.409v 4.61363" fill="none" stroke="black"/>
<path d="M404.909,341.409v 4.61363" fill="none" stroke="black"/>
<path d="M420.028,341.409v 4.61363" fill="none" stroke="black"/>
<path d="M435.146,336.795v 9.22726" fill="none" stroke="black"/>
<path d="M450.264,341.409v 4.61363" fill="none" stroke="black"/>
<path d="M465.382,341.409v 4.61363" fill="none" stroke="black"/>
<path d="M480.5,341.409v 4.61363" fill="none" stroke="black"/>
<path d="M495.618,341.409v 4.61363" fill="none" stroke="black"/>
<path d="M510.736,336.795v 9.22726" fill="none" stroke="black"/>
<text xml:space="preserve" x="57.5187" y="358.403" fill="black" font-size="12.8453" font-family="Helvetica">3
</text>
<text xml:space="preserve" x="50.1878" y="358.403" fill="black" font-size="12.8453" font-family="Times">&#8722;
</text>
<text xml:space="preserve" x="132.458" y="358.403" fill="black" font-size="12.8453" font-family="Helvetica">2
</text>
<text xml:space="preserve" x="125.127" y="358.403" fill="black" font-size="12.8453" font-family="Times">&#8722;
</text>
<text xml:space="preserve" x="209.026" y="358.403" fill="black" font-size="12.8453" font-family="Helvetica">1
</text>
<text xml:space="preserve" x="201.695" y="358.403" fill="black" font-size="12.8453" font-family="Times">&#8722;
</text>
<text xml:space="preserve" x="280.706" y="358.403" fill="black" font-size="12.8453" font-family="Helvetica">0
</text>
<text xml:space="preserve" x="357.274" y="358.403" fill="black" font-size="12.8453" font-family="Helvetica">1
</text>
<text xml:space="preserve" x="432.213" y="358.403" fill="black" font-size="12.8453" font-family="Helvetica">2
</text>
<text xml:space="preserve" x="507.152" y="358.403" fill="black" font-size="12.8453" font-family="Helvetica">3
</text>
<path d="M57.1929,346.022v -307.575" fill="none" stroke="black"/>
<path d="M70.7992,346.022h -13.6063" fill="none" stroke="black"/>
<path d="M63.9961,334.968h -6.80315" fill="none" stroke="black"/>
<path d="M63.9961,323.914h -6.80315" fill="none" stroke="black"/>
<path d="M63.9961,312.861h -6.80315" fill="none" stroke="black"/>
<path d="M63.9961,301.807h -6.80315" fill="none" stroke="black"/>
<path d="M70.7992,290.753h -13.6063" fill="none" stroke="black"/>
<path d="M63.9961,279.699h -6.80315" fill="none" stroke="black"/>
<path d="M63.9961,268.645h -6.80315" fill="none" stroke="black"/>
<path d="M63.9961,257.591h -6.80315" fill="none" stroke="black"/>
<path d="M63.9961,246.537h -6.80315" fill="none" stroke="black"/>
<path d="M70.7992,235.483h -13.6063" fill="none" stroke="black"/>
<path d="M63.9961,224.429h -6.80315" fill="none" stroke="black"/>
<path d="M63.9961,213.375h -6.80315" fill="none" stroke="black"/>
<path d="M63.9961,202.321h -6.80315" fill="none" stroke="black"/>
<path d="M63.9961,191.267h -6.80315" fill="none" stroke="black"/>
<path d="M70.7992,180.213h -13.6063" fill="none" stroke="black"/>
<path d="M63.9961,169.16h -6.80315" fill="none" stroke="black"/>
<path d="M63.9961,158.106h -6.80315" fill="none" stroke="black"/>
<path d="M63.9961,147.052h -6.80315" fill="none" stroke="black"/>
<path d="M63.9961,135.998h -6.80315" fill="none" stroke="black"/>
<path d="M70.7992,124.944h -13.6063" fill="none" stroke="black"/>
<path d="M63.9961,113.89h -6.80315" fill="none" stroke="black"/>
<path d="M63.9961,102.836h -6.80315" fill="none" stroke="black"/>
<path d="M63.9961,91.7821h -6.80315" fill="none" stroke="black"/>
<path d="M63.9961,80.7282h -6.80315" fill="none" stroke="black"/>
<path d="M70.7992,69.6742h -13.6063" fill="none" stroke="black"/>
<path d="M70.7992,69.6742h -13.6063" fill="none" stroke="black"/>
<path d="M63.9961,58.6203h -6.80315" fill="none" stroke="black"/>
<path d="M63.9961,47.5664h -6.80315" fill="none" stroke="black"/>
<text xml:space="preserve" x="47.7441" y="351.072" fill="black" font-size="12.8453" font-family="Helvetica">0
</text>
<text xml:space="preserve" x="41.2277" y="295.683" fill="black" font-size="12.8453" font-family="Helvetica">10
</text>
<text xml:space="preserve" x="41.2277" y="240.293" fill="black" font-size="12.8453" font-family="Helvetica">20
</text>
<text xml:space="preserve" x="41.2277" y="184.904" fill="black" font-size="12.8453" font-family="Helvetica">30
</text>
<text xml:space="preserve" x="41.2277" y="129.514" fill="black" font-size="12.8453" font-family="Helvetica">40
</text>
<text xml:space="preserve" x="41.2277" y="74.9389" fill="black" font-size="12.8453" font-family="Helvetica">50
</text>
<rect x="227.272" y="24.9905" width="113.386" height="61.5151" fill="white"/>
<path d="M227.272,86.5056h 113.386" fill="none" stroke="black"/>
<path d="M340.657,86.5056v -61.5151" fill="none" stroke="black"/>
<path d="M340.657,24.9905h -113.386" fill="none" stroke="black"/>
<path d="M227.272,24.9905v 61.5151" fill="none" stroke="black"/>
<text xml:space="preserve" x="277.448" y="38.284" fill="black" font-size="13.4802" font-family="Helvetica">h1
</text>
<path d="M227.272,40.3693h 113.386" fill="none" stroke="black"/>
<text xml:space="preserve" x="232.648" y="52.1314" fill="black" font-size="9.5843" font-family="Helvetica">Entries 
</text>
<text xml:space="preserve" x="313.288" y="51.3169" fill="black" font-size="9.5843" font-family="Helvetica"> 1000
</text>
<text xml:space="preserve" x="232.648" y="67.6079" fill="black" font-size="9.5843" font-family="Helvetica">Mean  
</text>
<text xml:space="preserve" x="314.103" y="66.7934" fill="black" font-size="9.5843" font-family="Helvetica">1.021
</text>
<text xml:space="preserve" x="308.401" y="66.7934" fill="black" font-size="9.5843" font-family="Times">&#8722;
</text>
<text xml:space="preserve" x="301.07" y="66.7934" fill="black" font-size="9.5843" font-family="Helvetica"> 
</text>
<text xml:space="preserve" x="232.648" y="83.0844" fill="black" font-size="9.5843" font-family="Helvetica">Std Dev   
</text>
<text xml:space="preserve" x="305.143" y="82.2699" fill="black" font-size="9.5843" font-family="Helvetica"> 0.4857
</text>
<text xml:space="preserve" x="275.819" y="19.5493" fill="black" font-size="16.9898" font-family="Helvetica">h1
</text>
<path d="M57.1929,338.487h 4.53543v 0.922726h 4.53543v -3.84469h 4.53543v 0.307575h 4.53543v -2.76818h 4.53543v 1.99924h 4.53543v -4.92121h 4.53543v -1.38409h 4.53543v 1.38409h 4.53543v -1.84545h 4.53543v -2.61439h 4.53543v -1.84545h 4.53543v
 0.768938h 4.53543v -3.22954h 4.53543v -2.15303h 4.53543v -3.53712h 4.53543v -1.99924h 4.53543v -6.30529h 4.53543v 2.4606h 4.53543v -7.5356h 4.53543v 5.07499h 4.53543v -5.22878h 4.53543v -1.99924h 4.53543v -15.0712h 4.53543v -1.38409h 4.53543v
 -3.6909h 4.53543v -0.768938h 4.53543v -0.461363h 4.53543v -10.15h 4.53543v -0.768938h 4.53543v -10.9189h 4.53543v -2.61439h 4.53543v -9.07347h 4.53543v -5.84393h 4.53543v -0.615151h 4.53543v 2.30682h 4.53543v -19.2235h 4.53543v -2.92197h 4.53543v
 -2.61439h 4.53543v -8.30453h 4.53543v -0.768938h 4.53543v -4.76742h 4.53543v -12.9182h 4.53543v 5.38257h 4.53543v -26.9128h 4.53543v 13.5333h 4.53543v -22.1454h 4.53543v 2.61439h 4.53543v 13.9947h 4.53543v -23.0681h 4.53543v -5.99772h 4.53543v
 -8.91968h 4.53543v 1.07651h 4.53543v -13.2257h 4.53543v -1.07651h 4.53543v -3.84469h 4.53543v 8.15075h 4.53543v -17.8394h 4.53543v -0.615151h 4.53543v -0.615151h 4.53543v 0.153788h 4.53543v 4.30605h 4.53543v -10.6113h 4.53543v 0.922726h 4.53543v
 0.153788h 4.53543v -11.5341h 4.53543v 11.3803h 4.53543v 7.5356h 4.53543v -2.15303h 4.53543v -4.30605h 4.53543v -5.84393h 4.53543v -1.69166h 4.53543v 7.68938h 4.53543v 7.84317h 4.53543v -15.5326h 4.53543v 18.7621h 4.53543v 9.38105h 4.53543v
 -0.307575h 4.53543v 2.61439h 4.53543v 1.07651h 4.53543v 9.38105h 4.53543v -12.303h 4.53543v 22.2992h 4.53543v 0.922726h 4.53543v 6.30529h 4.53543v 2.30682h 4.53543v 6.61287h 4.53543v 9.68862h 4.53543v 3.84469h 4.53543v 6.76666h 4.53543v 5.99772h
 4.53543v -1.84545h 4.53543v 15.3788h 4.53543v 1.53788h 4.53543v 3.6909h 4.53543v 9.07347h 4.53543v -0.153788h 4.53543v 6.92044h 4.53543v 14.1485h 4.53543v 9.38105h 4.53543" fill="none" stroke="#ff0000"/>
<rect x="369.004" y="24.9905" width="113.386" height="61.5151" fill="white"/>
<path d="M369.004,86.5056h 113.386" fill="none" stroke="black"/>
<path d="M482.39,86.5056v -61.5151" fill="none" stroke="black"/>
<path d="M482.39,24.9905h -113.386" fill="none" stroke="black"/>
<path d="M369.004,24.9905v 61.5151" fill="none" stroke="black"/>
<text xml:space="preserve" x="418.366" y="38.284" fill="#ff0000" font-size="13.4802" font-family="Helvetica">h2
</text>
<path d="M369.004,40.3693h 113.386" fill="none" stroke="black"/>
<text xml:space="preserve" x="374.38" y="52.1314" fill="#ff0000" font-size="10.0756" font-family="Helvetica">Entries 
</text>
<text xml:space="preserve" x="441.988" y="52.1314" fill="#ff0000" font-size="10.0756" font-family="Helvetica"> 100000
</text>
<text xml:space="preserve" x="374.38" y="67.6079" fill="#ff0000" font-size="10.0756" font-family="Helvetica">Mean  
</text>
<text xml:space="preserve" x="444.432" y="67.6079" fill="#ff0000" font-size="10.0756" font-family="Helvetica"> 0.7477
</text>
<text xml:space="preserve" x="374.38" y="83.0844" fill="#ff0000" font-size="10.0756" font-family="Helvetica">Std Dev   
</text>
<text xml:space="preserve" x="446.875" y="83.0844" fill="#ff0000" font-size="10.0756" font-family="Helvetica">  1.253
</text>
<rect x="369.004" y="24.9905" width="113.386" height="61.5151" fill="white"/>
<path d="M369.004,86.5056h 113.386" fill="none" stroke="black"/>
<path d="M482.39,86.5056v -61.5151" fill="none" stroke="black"/>
<path d="M482.39,24.9905h -113.386" fill="none" stroke="black"/>
<path d="M369.004,24.9905v 61.5151" fill="none" stroke="black"/>
<text xml:space="preserve" x="418.366" y="38.284" fill="#ff0000" font-size="13.4802" font-family="Helvetica">h2
</text>
<path d="M369.004,40.3693h 113.386" fill="none" stroke="black"/>
<text xml:space="preserve" x="374.38" y="52.1314" fill="#ff0000" font-size="10.0756" font-family="Helvetica">Entries 
</text>
<text xml:space="preserve" x="441.988" y="52.1314" fill="#ff0000" font-size="10.0756" font-family="Helvetica"> 100000
</text>
<text xml:space="preserve" x="374.38" y="67.6079" fill="#ff0000" font-size="10.0756" font-family="Helvetica">Mean  
</text>
<text xml:space="preserve" x="444.432" y="67.6079" fill="#ff0000" font-size="10.0756" font-family="Helvetica"> 0.7477
</text>
<text xml:space="preserve" x="374.38" y="83.0844" fill="#ff0000" font-size="10.0756" font-family="Helvetica">Std Dev   
</text>
<text xml:space="preserve" x="446.875" y="83.0844" fill="#ff0000" font-size="10.0756" font-family="Helvetica">  1.253
</text>
<path d="M510.736,346.022v -307.575" fill="none" stroke="black"/>
<path d="M497.13,346.022h 13.6063" fill="none" stroke="black"/>
<path d="M507.335,344.484h 3.40157" fill="none" stroke="black"/>
<path d="M507.335,342.947h 3.40157" fill="none" stroke="black"/>
<path d="M507.335,341.409h 3.40157" fill="none" stroke="black"/>
<path d="M507.335,339.871h 3.40157" fill="none" stroke="black"/>
<path d="M503.933,338.333h 6.80315" fill="none" stroke="black"/>
<path d="M507.335,336.795h 3.40157" fill="none" stroke="black"/>
<path d="M507.335,335.257h 3.40157" fill="none" stroke="black"/>
<path d="M507.335,333.719h 3.40157" fill="none" stroke="black"/>
<path d="M507.335,332.181h 3.40157" fill="none" stroke="black"/>
<path d="M503.933,330.643h 6.80315" fill="none" stroke="black"/>
<path d="M507.335,329.106h 3.40157" fill="none" stroke="black"/>
<path d="M507.335,327.568h 3.40157" fill="none" stroke="black"/>
<path d="M507.335,326.03h 3.40157" fill="none" stroke="black"/>
<path d="M507.335,324.492h 3.40157" fill="none" stroke="black"/>
<path d="M503.933,322.954h 6.80315" fill="none" stroke="black"/>
<path d="M507.335,321.416h 3.40157" fill="none" stroke="black"/>
<path d="M507.335,319.878h 3.40157" fill="none" stroke="black"/>
<path d="M507.335,318.34h 3.40157" fill="none" stroke="black"/>
<path d="M507.335,316.803h 3.40157" fill="none" stroke="black"/>
<path d="M497.13,315.265h 13.6063" fill="none" stroke="black"/>
<path d="M507.335,313.727h 3.40157" fill="none" stroke="black"/>
<path d="M507.335,312.189h 3.40157" fill="none" stroke="black"/>
<path d="M507.335,310.651h 3.40157" fill="none" stroke="black"/>
<path d="M507.335,309.113h 3.40157" fill="none" stroke="black"/>
<path d="M503.933,307.575h 6.80315" fill="none" stroke="black"/>
<path d="M507.335,306.037h 3.40157" fill="none" stroke="black"/>
<path d="M507.335,304.5h 3.40157" fill="none" stroke="black"/>
<path d="M507.335,302.962h 3.40157" fill="none" stroke="black"/>
<path d="M507.335,301.424h 3.40157" fill="none" stroke="black"/>
<path d="M503.933,299.886h 6.80315" fill="none" stroke="black"/>
<path d="M507.335,298.348h 3.40157" fill="none" stroke="black"/>
<path d="M507.335,296.81h 3.40157" fill="none" stroke="black"/>
<path d="M507.335,295.272h 3.40157" fill="none" stroke="black"/>
<path d="M507.335,293.734h 3.40157" fill="none" stroke="black"/>
<path d="M503.933,292.197h 6.80315" fill="none" stroke="black"/>
<path d="M507.335,290.659h 3.40157" fill="none" stroke="black"/>
<path d="M507.335,289.121h 3.40157" fill="none" stroke="black"/>
<path d="M507.335,287.583h 3.40157" fill="none" stroke="black"/>
<path d="M507.335,286.045h 3.40157" fill="none" stroke="black"/>
<path d="M497.13,284.507h 13.6063" fill="none" stroke="black"/>
<path d="M507.335,282.969h 3.40157" fill="none" stroke="black"/>
<path d="M507.335,281.431h 3.40157" fill="none" stroke="black"/>
<path d="M507.335,279.894h 3.40157" fill="none" stroke="black"/>
<path d="M507.335,278.356h 3.40157" fill="none" stroke="black"/>
<path d="M503.933,276.818h 6.80315" fill="none" stroke="black"/>
<path d="M507.335,275.28h 3.40157" fill="none" stroke="black"/>
<path d="M507.335,273.742h 3.40157" fill="none" stroke="black"/>
<path d="M507.335,272.204h 3.40157" fill="none" stroke="black"/>
<path d="M507.335,270.666h 3.40157" fill="none" stroke="black"/>
<path d="M503.933,269.128h 6.80315" fill="none" stroke="black"/>
<path d="M507.335,267.591h 3.40157" fill="none" stroke="black"/>
<path d="M507.335,266.053h 3.40157" fill="none" stroke="black"/>
<path d="M507.335,264.515h 3.40157" fill="none" stroke="black"/>
<path d="M507.335,262.977h 3.40157" fill="none" stroke="black"/>
<path d="M503.933,261.439h 6.80315" fill="none" stroke="black"/>
<path d="M507.335,259.901h 3.40157" fill="none" stroke="black"/>
<path d="M507.335,258.363h 3.40157" fill="none" stroke="black"/>
<path d="M507.335,256.825h 3.40157" fill="none" stroke="black"/>
<path d="M507.335,255.288h 3.40157" fill="none" stroke="black"/>
<path d="M497.13,253.75h 13.6063" fill="none" stroke="black"/>
<path d="M507.335,252.212h 3.40157" fill="none" stroke="black"/>
<path d="M507.335,250.674h 3.40157" fill="none" stroke="black"/>
<path d="M507.335,249.136h 3.40157" fill="none" stroke="black"/>
<path d="M507.335,247.598h 3.40157" fill="none" stroke="black"/>
<path d="M503.933,246.06h 6.80315" fill="none" stroke="black"/>
<path d="M507.335,244.522h 3.40157" fill="none" stroke="black"/>
<path d="M507.335,242.985h 3.40157" fill="none" stroke="black"/>
<path d="M507.335,241.447h 3.40157" fill="none" stroke="black"/>
<path d="M507.335,239.909h 3.40157" fill="none" stroke="black"/>
<path d="M503.933,238.371h 6.80315" fill="none" stroke="black"/>
<path d="M507.335,236.833h 3.40157" fill="none" stroke="black"/>
<path d="M507.335,235.295h 3.40157" fill="none" stroke="black"/>
<path d="M507.335,233.757h 3.40157" fill="none" stroke="black"/>
<path d="M507.335,232.219h 3.40157" fill="none" stroke="black"/>
<path d="M503.933,230.682h 6.80315" fill="none" stroke="black"/>
<path d="M507.335,229.144h 3.40157" fill="none" stroke="black"/>
<path d="M507.335,227.606h 3.40157" fill="none" stroke="black"/>
<path d="M507.335,226.068h 3.40157" fill="none" stroke="black"/>
<path d="M507.335,224.53h 3.40157" fill="none" stroke="black"/>
<path d="M497.13,222.992h 13.6063" fill="none" stroke="black"/>
<path d="M507.335,221.454h 3.40157" fill="none" stroke="black"/>
<path d="M507.335,219.916h 3.40157" fill="none" stroke="black"/>
<path d="M507.335,218.378h 3.40157" fill="none" stroke="black"/>
<path d="M507.335,216.841h 3.40157" fill="none" stroke="black"/>
<path d="M503.933,215.303h 6.80315" fill="none" stroke="black"/>
<path d="M507.335,213.765h 3.40157" fill="none" stroke="black"/>
<path d="M507.335,212.227h 3.40157" fill="none" stroke="black"/>
<path d="M507.335,210.689h 3.40157" fill="none" stroke="black"/>
<path d="M507.335,209.151h 3.40157" fill="none" stroke="black"/>
<path d="M503.933,207.613h 6.80315" fill="none" stroke="black"/>
<path d="M507.335,206.075h 3.40157" fill="none" stroke="black"/>
<path d="M507.335,204.538h 3.40157" fill="none" stroke="black"/>
<path d="M507.335,203h 3.40157" fill="none" stroke="black"/>
<path d="M507.335,201.462h 3.40157" fill="none" stroke="black"/>
<path d="M503.933,199.924h 6.80315" fill="none" stroke="black"/>
<path d="M507.335,198.386h 3.40157" fill="none" stroke="black"/>
<path d="M507.335,196.848h 3.40157" fill="none" stroke="black"/>
<path d="M507.335,195.31h 3.40157" fill="none" stroke="black"/>
<path d="M507.335,193.772h 3.40157" fill="none" stroke="black"/>
<path d="M497.13,192.235h 13.6063" fill="none" stroke="black"/>
<path d="M507.335,190.697h 3.40157" fill="none" stroke="black"/>
<path d="M507.335,189.159h 3.40157" fill="none" stroke="black"/>
<path d="M507.335,187.621h 3.40157" fill="none" stroke="black"/>
<path d="M507.335,186.083h 3.40157" fill="none" stroke="black"/>
<path d="M503.933,184.545h 6.80315" fill="none" stroke="black"/>
<path d="M507.335,183.007h 3.40157" fill="none" stroke="black"/>
<path d="M507.335,181.469h 3.40157" fill="none" stroke="black"/>
<path d="M507.335,179.932h 3.40157" fill="none" stroke="black"/>
<path d="M507.335,178.394h 3.40157" fill="none" stroke="black"/>
<path d="M503.933,176.856h 6.80315" fill="none" stroke="black"/>
<path d="M507.335,175.318h 3.40157" fill="none" stroke="black"/>
<path d="M507.335,173.78h 3.40157" fill="none" stroke="black"/>
<path d="M507.335,172.242h 3.40157" fill="none" stroke="black"/>
<path d="M507.335,170.704h 3.40157" fill="none" stroke="black"/>
<path d="M503.933,169.166h 6.80315" fill="none" stroke="black"/>
<path d="M507.335,167.629h 3.40157" fill="none" stroke="black"/>
<path d="M507.335,166.091h 3.40157" fill="none" stroke="black"/>
<path d="M507.335,164.553h 3.40157" fill="none" stroke="black"/>
<path d="M507.335,163.015h 3.40157" fill="none" stroke="black"/>
<path d="M497.13,161.477h 13.6063" fill="none" stroke="black"/>
<path d="M507.335,159.939h 3.40157" fill="none" stroke="black"/>
<path d="M507.335,158.401h 3.40157" fill="none" stroke="black"/>
<path d="M507.335,156.863h 3.40157" fill="none" stroke="black"/>
<path d="M507.335,155.326h 3.40157" fill="none" stroke="black"/>
<path d="M503.933,153.788h 6.80315" fill="none" stroke="black"/>
<path d="M507.335,152.25h 3.40157" fill="none" stroke="black"/>
<path d="M507.335,150.712h 3.40157" fill="none" stroke="black"/>
<path d="M507.335,149.174h 3.40157" fill="none" stroke="black"/>
<path d="M507.335,147.636h 3.40157" fill="none" stroke="black"/>
<path d="M503.933,146.098h 6.80315" fill="none" stroke="black"/>
<path d="M507.335,144.56h 3.40157" fill="none" stroke="black"/>
<path d="M507.335,143.023h 3.40157" fill="none" stroke="black"/>
<path d="M507.335,141.485h 3.40157" fill="none" stroke="black"/>
<path d="M507.335,139.947h 3.40157" fill="none" stroke="black"/>
<path d="M503.933,138.409h 6.80315" fill="none" stroke="black"/>
<path d="M507.335,136.871h 3.40157" fill="none" stroke="black"/>
<path d="M507.335,135.333h 3.40157" fill="none" stroke="black"/>
<path d="M507.335,133.795h 3.40157" fill="none" stroke="black"/>
<path d="M507.335,132.257h 3.40157" fill="none" stroke="black"/>
<path d="M497.13,130.72h 13.6063" fill="none" stroke="black"/>
<path d="M507.335,129.182h 3.40157" fill="none" stroke="black"/>
<path d="M507.335,127.644h 3.40157" fill="none" stroke="black"/>
<path d="M507.335,126.106h 3.40157" fill="none" stroke="black"/>
<path d="M507.335,124.568h 3.40157" fill="none" stroke="black"/>
<path d="M503.933,123.03h 6.80315" fill="none" stroke="black"/>
<path d="M507.335,121.492h 3.40157" fill="none" stroke="black"/>
<path d="M507.335,119.954h 3.40157" fill="none" stroke="black"/>
<path d="M507.335,118.417h 3.40157" fill="none" stroke="black"/>
<path d="M507.335,116.879h 3.40157" fill="none" stroke="black"/>
<path d="M503.933,115.341h 6.80315" fill="none" stroke="black"/>
<path d="M507.335,113.803h 3.40157" fill="none" stroke="black"/>
<path d="M507.335,112.265h 3.40157" fill="none" stroke="black"/>
<path d="M507.335,110.727h 3.40157" fill="none" stroke="black"/>
<path d="M507.335,109.189h 3.40157" fill="none" stroke="black"/>
<path d="M503.933,107.651h 6.80315" fill="none" stroke="black"/>
<path d="M507.335,106.113h 3.40157" fill="none" stroke="black"/>
<path d="M507.335,104.576h 3.40157" fill="none" stroke="black"/>
<path d="M507.335,103.038h 3.40157" fill="none" stroke="black"/>
<path d="M507.335,101.5h 3.40157" fill="none" stroke="black"/>
<path d="M497.13,99.962h 13.6063" fill="none" stroke="black"/>
<path d="M507.335,98.4241h 3.40157" fill="none" stroke="black"/>
<path d="M507.335,96.8862h 3.40157" fill="none" stroke="black"/>
<path d="M507.335,95.3484h 3.40157" fill="none" stroke="black"/>
<path d="M507.335,93.8105h 3.40157" fill="none" stroke="black"/>
<path d="M503.933,92.2726h 6.80315" fill="none" stroke="black"/>
<path d="M507.335,90.7347h 3.40157" fill="none" stroke="black"/>
<path d="M507.335,89.1968h 3.40157" fill="none" stroke="black"/>
<path d="M507.335,87.659h 3.40157" fill="none" stroke="black"/>
<path d="M507.335,86.1211h 3.40157" fill="none" stroke="black"/>
<path d="M503.933,84.5832h 6.80315" fill="none" stroke="black"/>
<path d="M507.335,83.0453h 3.40157" fill="none" stroke="black"/>
<path d="M507.335,81.5075h 3.40157" fill="none" stroke="black"/>
<path d="M507.335,79.9696h 3.40157" fill="none" stroke="black"/>
<path d="M507.335,78.4317h 3.40157" fill="none" stroke="black"/>
<path d="M503.933,76.8938h 6.80315" fill="none" stroke="black"/>
<path d="M507.335,75.356h 3.40157" fill="none" stroke="black"/>
<path d="M507.335,73.8181h 3.40157" fill="none" stroke="black"/>
<path d="M507.335,72.2802h 3.40157" fill="none" stroke="black"/>
<path d="M507.335,70.7423h 3.40157" fill="none" stroke="black"/>
<path d="M497.13,69.2045h 13.6063" fill="none" stroke="black"/>
<path d="M507.335,67.6666h 3.40157" fill="none" stroke="black"/>
<path d="M507.335,66.1287h 3.40157" fill="none" stroke="black"/>
<path d="M507.335,64.5908h 3.40157" fill="none" stroke="black"/>
<path d="M507.335,63.0529h 3.40157" fill="none" stroke="black"/>
<path d="M503.933,61.5151h 6.80315" fill="none" stroke="black"/>
<path d="M507.335,59.9772h 3.40157" fill="none" stroke="black"/>
<path d="M507.335,58.4393h 3.40157" fill="none" stroke="black"/>
<path d="M507.335,56.9014h 3.40157" fill="none" stroke="black"/>
<path d="M507.335,55.3636h 3.40157" fill="none" stroke="black"/>
<path d="M503.933,53.8257h 6.80315" fill="none" stroke="black"/>
<path d="M507.335,52.2878h 3.40157" fill="none" stroke="black"/>
<path d="M507.335,50.7499h 3.40157" fill="none" stroke="black"/>
<path d="M507.335,49.2121h 3.40157" fill="none" stroke="black"/>
<path d="M507.335,47.6742h 3.40157" fill="none" stroke="black"/>
<path d="M503.933,46.1363h 6.80315" fill="none" stroke="black"/>
<path d="M507.335,44.5984h 3.40157" fill="none" stroke="black"/>
<path d="M507.335,43.0605h 3.40157" fill="none" stroke="black"/>
<path d="M507.335,41.5227h 3.40157" fill="none" stroke="black"/>
<path d="M507.335,39.9848h 3.40157" fill="none" stroke="black"/>
<path d="M497.13,38.4469h 13.6063" fill="none" stroke="black"/>
<text xml:space="preserve" x="513.669" y="351.887" fill="#ff0000" font-size="14.609" font-family="Helvetica" font-weight="bold">0
</text>
<text xml:space="preserve" x="513.669" y="320.934" fill="#ff0000" font-size="14.609" font-family="Helvetica" font-weight="bold">200
</text>
<text xml:space="preserve" x="513.669" y="289.981" fill="#ff0000" font-size="14.609" font-family="Helvetica" font-weight="bold">400
</text>
<text xml:space="preserve" x="513.669" y="259.843" fill="#ff0000" font-size="14.609" font-family="Helvetica" font-weight="bold">600
</text>
<text xml:space="preserve" x="513.669" y="228.889" fill="#ff0000" font-size="14.609" font-family="Helvetica" font-weight="bold">800
</text>
<text xml:space="preserve" x="513.669" y="197.936" fill="#ff0000" font-size="14.609" font-family="Helvetica" font-weight="bold">1000
</text>
<text xml:space="preserve" x="513.669" y="166.983" fill="#ff0000" font-size="14.609" font-family="Helvetica" font-weight="bold">1200
</text>
<text xml:space="preserve" x="513.669" y="136.03" fill="#ff0000" font-size="14.609" font-family="Helvetica" font-weight="bold">1400
</text>
<text xml:space="preserve" x="513.669" y="105.892" fill="#ff0000" font-size="14.609" font-family="Helvetica" font-weight="bold">1600
</text>
<text xml:space="preserve" x="513.669" y="74.9389" fill="#ff0000" font-size="14.609" font-family="Helvetica" font-weight="bold">1800
</text>
<text xml:space="preserve" x="513.669" y="43.9859" fill="#ff0000" font-size="14.609" font-family="Helvetica" font-weight="bold">2000
</text></svg>
