<?xml version="1.0" standalone="no"?>
<svg width="567.429" height="406.962" viewBox="0 0 567.429 406.962" xmlns="http://www.w3.org/2000/svg" shape-rendering="crispEdges">
<title>
./old_svg_pro/transparency_pro.svg
</title>
<desc>
Creator: ROOT Version 6.33/01
CreationDate: Wed Jun  5 14:56:48 2024</desc>
<defs>
</defs>
<rect x="0.5" y="0" width="566.929" height="406.462" fill="white"/>
<text xml:space="preserve" x="86.0281" y="359.218" fill="black" font-size="19.1451" font-family="Helvetica" font-weight="bold">This text is opaque and this line is transparent
</text>
<path d="M309.143,342.497l 140.556, -163.1" fill="none" stroke="black" stroke-width="4"/>
<path d="M445.672,175.926l 16.981, -11.5602l -8.92591, 18.5019z" fill="black"/>
<path d="M445.672,175.926l 16.981, -11.5602l -8.92591, 18.5019l -8.05513, -6.94174z" fill="none" stroke="black" stroke-width="4"/>
<path d="M294.523,128.74l 158.383, -76.1104l 25.1788, 157.889l -100.715, -55.8683l 15.4322, 95.5429l -124.27, -86.6364l 162.444, -55.8683l -154.322, -50.2005l 140.514, 181.37l -22.7422, 48.5811" fill="none" stroke="#ce5e60" fill-opacity="0.10"
 stroke-opacity="0.10" stroke-width="7"/>
<path d="M205.017,94.2136l -0.342261, -3.27172l -1.02338, -3.23921l -1.69433, -3.1745l -2.34844, -3.07824l -2.97922, -2.95139l -3.58038, -2.79521l -4.14596, -2.61124l -4.67033, -2.40133l -5.14829, -2.16755l -5.57509, -1.91223l -5.94647, -1.6379l
 -6.25876, -1.34729l -6.50884, -1.0433l -6.69424, -0.728933l -6.8131, -0.407325l -6.86426, -0.0816679l -6.84719, 0.244801l -6.76208, 0.568836l -6.60976, 0.887218l -6.39174, 1.19678l -6.11021, 1.49445l -5.76795, 1.77727l -5.36836, 2.04243l -4.91542,
 2.28728l -4.41363, 2.50941l -3.86798, 2.70659l -3.28388, 2.87687l -2.66715, 3.01857l -2.0239, 3.13026l -1.36055, 3.21085l -0.683672, 3.25952v 3.2758l 0.683672, 3.25952l 1.36055, 3.21085l 2.0239, 3.13026l 2.66715, 3.01857l 3.28388, 2.87687l 3.86798,
 2.70659l 4.41363, 2.50941l 4.91542, 2.28728l 5.36836, 2.04243l 5.76795, 1.77727l 6.11021, 1.49445l 6.39174, 1.19678l 6.60976, 0.887218l 6.76208, 0.568836l 6.84719, 0.244801l 6.86426, -0.0816679l 6.8131, -0.407325l 6.69424, -0.728933l 6.50884,
 -1.0433l 6.25876, -1.34729l 5.94647, -1.6379l 5.57509, -1.91223l 5.14829, -2.16755l 4.67033, -2.40133l 4.14596, -2.61124l 3.58038, -2.79521l 2.97922, -2.95139l 2.34844, -3.07824l 1.69433, -3.1745l 1.02338, -3.23921z" fill="#84c1a3"/>
<path d="M205.017,94.2136l -0.342261, -3.27172l -1.02338, -3.23921l -1.69433, -3.1745l -2.34844, -3.07824l -2.97922, -2.95139l -3.58038, -2.79521l -4.14596, -2.61124l -4.67033, -2.40133l -5.14829, -2.16755l -5.57509, -1.91223l -5.94647, -1.6379l
 -6.25876, -1.34729l -6.50884, -1.0433l -6.69424, -0.728933l -6.8131, -0.407325l -6.86426, -0.0816679l -6.84719, 0.244801l -6.76208, 0.568836l -6.60976, 0.887218l -6.39174, 1.19678l -6.11021, 1.49445l -5.76795, 1.77727l -5.36836, 2.04243l -4.91542,
 2.28728l -4.41363, 2.50941l -3.86798, 2.70659l -3.28388, 2.87687l -2.66715, 3.01857l -2.0239, 3.13026l -1.36055, 3.21085l -0.683672, 3.25952v 3.2758l 0.683672, 3.25952l 1.36055, 3.21085l 2.0239, 3.13026l 2.66715, 3.01857l 3.28388, 2.87687l 3.86798,
 2.70659l 4.41363, 2.50941l 4.91542, 2.28728l 5.36836, 2.04243l 5.76795, 1.77727l 6.11021, 1.49445l 6.39174, 1.19678l 6.60976, 0.887218l 6.76208, 0.568836l 6.84719, 0.244801l 6.86426, -0.0816679l 6.8131, -0.407325l 6.69424, -0.728933l 6.50884,
 -1.0433l 6.25876, -1.34729l 5.94647, -1.6379l 5.57509, -1.91223l 5.14829, -2.16755l 4.67033, -2.40133l 4.14596, -2.61124l 3.58038, -2.79521l 2.97922, -2.95139l 2.34844, -3.07824l 1.69433, -3.1745l 1.02338, -3.23921l 0.342261, -3.27172z" fill="none"
 stroke="#9200ff" stroke-width="3"/>
<path d="M263.659,135.202l -0.189592, -4.43486l -0.567766, -4.4112l -0.94291, -4.364l -1.31302, -4.29352l -1.67613, -4.20013l -2.0303, -4.08433l -2.37363, -3.94674l -2.7043, -3.78809l -3.02054, -3.60923l -3.32066, -3.41112l -3.60307, -3.1948l
 -3.86625, -2.96144l -4.1088, -2.71228l -4.32943, -2.44865l -4.52697, -2.17195l -4.70035, -1.88366l -4.84865, -1.58533l -4.97108, -1.27853l -5.06699, -0.964916l -5.13586, -0.646152l -5.17733, -0.32394h -5.19118l -5.17733, 0.32394l -5.13586, 0.646152l
 -5.06699, 0.964916l -4.97108, 1.27853l -4.84865, 1.58533l -4.70035, 1.88366l -4.52697, 2.17195l -4.32943, 2.44865l -4.1088, 2.71228l -3.86625, 2.96144l -3.60307, 3.1948l -3.32066, 3.41112l -3.02054, 3.60923l -2.7043, 3.78809l -2.37363, 3.94674l
 -2.0303, 4.08433l -1.67613, 4.20013l -1.31302, 4.29352l -0.94291, 4.364l -0.567766, 4.4112l -0.189592, 4.43486l 0.189592, 4.43486l 0.567766, 4.4112l 0.94291, 4.364l 1.31302, 4.29352l 1.67613, 4.20013l 2.0303, 4.08433l 2.37363, 3.94674l 2.7043,
 3.78809l 3.02054, 3.60923l 3.32066, 3.41112l 3.60307, 3.1948l 3.86625, 2.96144l 4.1088, 2.71228l 4.32943, 2.44865l 4.52697, 2.17195l 4.70035, 1.88366l 4.84865, 1.58533l 4.97108, 1.27853l 5.06699, 0.964916l 5.13586, 0.646152l 5.17733, 0.32394h
 5.19118l 5.17733, -0.32394l 5.13586, -0.646152l 5.06699, -0.964916l 4.97108, -1.27853l 4.84865, -1.58533l 4.70035, -1.88366l 4.52697, -2.17195l 4.32943, -2.44865l 4.1088, -2.71228l 3.86625, -2.96144l 3.60307, -3.1948l 3.32066, -3.41112l 3.02054,
 -3.60923l 2.7043, -3.78809l 2.37363, -3.94674l 2.0303, -4.08433l 1.67613, -4.20013l 1.31302, -4.29352l 0.94291, -4.364l 0.567766, -4.4112z" fill="#5954d8" fill-opacity="0.57" stroke-opacity="0.57"/>
<path d="M263.659,135.202l -0.189592, -4.43486l -0.567766, -4.4112l -0.94291, -4.364l -1.31302, -4.29352l -1.67613, -4.20013l -2.0303, -4.08433l -2.37363, -3.94674l -2.7043, -3.78809l -3.02054, -3.60923l -3.32066, -3.41112l -3.60307, -3.1948l
 -3.86625, -2.96144l -4.1088, -2.71228l -4.32943, -2.44865l -4.52697, -2.17195l -4.70035, -1.88366l -4.84865, -1.58533l -4.97108, -1.27853l -5.06699, -0.964916l -5.13586, -0.646152l -5.17733, -0.32394h -5.19118l -5.17733, 0.32394l -5.13586, 0.646152l
 -5.06699, 0.964916l -4.97108, 1.27853l -4.84865, 1.58533l -4.70035, 1.88366l -4.52697, 2.17195l -4.32943, 2.44865l -4.1088, 2.71228l -3.86625, 2.96144l -3.60307, 3.1948l -3.32066, 3.41112l -3.02054, 3.60923l -2.7043, 3.78809l -2.37363, 3.94674l
 -2.0303, 4.08433l -1.67613, 4.20013l -1.31302, 4.29352l -0.94291, 4.364l -0.567766, 4.4112l -0.189592, 4.43486l 0.189592, 4.43486l 0.567766, 4.4112l 0.94291, 4.364l 1.31302, 4.29352l 1.67613, 4.20013l 2.0303, 4.08433l 2.37363, 3.94674l 2.7043,
 3.78809l 3.02054, 3.60923l 3.32066, 3.41112l 3.60307, 3.1948l 3.86625, 2.96144l 4.1088, 2.71228l 4.32943, 2.44865l 4.52697, 2.17195l 4.70035, 1.88366l 4.84865, 1.58533l 4.97108, 1.27853l 5.06699, 0.964916l 5.13586, 0.646152l 5.17733, 0.32394h
 5.19118l 5.17733, -0.32394l 5.13586, -0.646152l 5.06699, -0.964916l 4.97108, -1.27853l 4.84865, -1.58533l 4.70035, -1.88366l 4.52697, -2.17195l 4.32943, -2.44865l 4.1088, -2.71228l 3.86625, -2.96144l 3.60307, -3.1948l 3.32066, -3.41112l 3.02054,
 -3.60923l 2.7043, -3.78809l 2.37363, -3.94674l 2.0303, -4.08433l 1.67613, -4.20013l 1.31302, -4.29352l 0.94291, -4.364l 0.567766, -4.4112l 0.189592, -4.43486z" fill="none" stroke="#59d354" fill-opacity="0.46" stroke-opacity="0.46" stroke-width="3"/>
<g transform="rotate(-26,79.5117,306.272)">
<text xml:space="preserve" x="79.5117" y="306.272" fill="#5954d8" fill-opacity="0.48" stroke-opacity="0.48" font-size="47.1126" font-family="Helvetica" font-weight="bold">This text is transparent
</text>
</g>
<g fill="#ff0000" fill-opacity="0.30" stroke-opacity="0.30">
<circle cx="71.1631" cy="41.294" r="5.53896"/>
</g>
<g fill="#ff0000" fill-opacity="0.20" stroke-opacity="0.20">
<circle cx="113.398" cy="85.017" r="5.53896"/>
</g>
<g fill="#ff0000">
<circle cx="195.433" cy="159.508" r="5.53896"/>
</g></svg>
