<?xml version="1.0" standalone="no"?>
<svg width="567.429" height="255.163" viewBox="0 0 567.429 255.163" xmlns="http://www.w3.org/2000/svg" shape-rendering="crispEdges">
<title>
./old_svg_pro/temp_ZoomHistogram_pro.svg
</title>
<desc>
Creator: ROOT Version 6.33.01
CreationDate: Wed Jul  3 13:19:33 2024</desc>
<defs>
</defs>
<rect x="0.5" y="0" width="566.929" height="254.663" fill="white"/>
<rect x="6.16929" y="2.54663" width="272.126" height="249.57" fill="white"/>
<rect x="33.3819" y="27.5036" width="217.701" height="199.656" fill="white"/>
<rect x="33.3819" y="27.5036" width="217.701" height="199.656" fill="none" stroke="black"/>
<path d="M33.3819,227.16h 52.2482v -27.1641h 2.17701v 27.1641h 4.35402v -27.1641h 2.17701v 27.1641h 2.17701v -27.1641h 2.17701v 27.1641h 10.885v -54.3282h 4.35402v -54.3282h 2.17701v 27.1641h 2.17701v 27.1641h 6.53102v -54.3282h 2.17701v 81.4923h
 2.17701v -27.1641h 2.17701v -135.82h 2.17701v 27.1641h 2.17701v 27.1641h 2.17701v -54.3282h 4.35402v 27.1641h 2.17701v 162.985h 2.17701v -135.82h 2.17701v 54.3282h 2.17701v 27.1641h 2.17701v 27.1641h 2.17701v 27.1641h 2.17701v -54.3282h 4.35402v
 -54.3282h 2.17701v 108.656h 2.17701v -54.3282h 2.17701v 27.1641h 2.17701v -81.4923h 2.17701v 108.656h 2.17701v -81.4923h 2.17701v 81.4923h 2.17701v -54.3282h 4.35402v 27.1641h 4.35402v 27.1641h 63.1332" fill="none" stroke="#000099"/>
<path d="M33.3819,227.16h 217.701" fill="none" stroke="black"/>
<path d="M33.3819,221.17v 5.98968" fill="none" stroke="black"/>
<path d="M37.7359,224.165v 2.99484" fill="none" stroke="black"/>
<path d="M42.0899,224.165v 2.99484" fill="none" stroke="black"/>
<path d="M46.4439,224.165v 2.99484" fill="none" stroke="black"/>
<path d="M50.798,224.165v 2.99484" fill="none" stroke="black"/>
<path d="M55.152,221.17v 5.98968" fill="none" stroke="black"/>
<path d="M59.506,224.165v 2.99484" fill="none" stroke="black"/>
<path d="M63.86,224.165v 2.99484" fill="none" stroke="black"/>
<path d="M68.214,224.165v 2.99484" fill="none" stroke="black"/>
<path d="M72.568,224.165v 2.99484" fill="none" stroke="black"/>
<path d="M76.9221,221.17v 5.98968" fill="none" stroke="black"/>
<path d="M81.2761,224.165v 2.99484" fill="none" stroke="black"/>
<path d="M85.6301,224.165v 2.99484" fill="none" stroke="black"/>
<path d="M89.9841,224.165v 2.99484" fill="none" stroke="black"/>
<path d="M94.3381,224.165v 2.99484" fill="none" stroke="black"/>
<path d="M98.6921,221.17v 5.98968" fill="none" stroke="black"/>
<path d="M103.046,224.165v 2.99484" fill="none" stroke="black"/>
<path d="M107.4,224.165v 2.99484" fill="none" stroke="black"/>
<path d="M111.754,224.165v 2.99484" fill="none" stroke="black"/>
<path d="M116.108,224.165v 2.99484" fill="none" stroke="black"/>
<path d="M120.462,221.17v 5.98968" fill="none" stroke="black"/>
<path d="M124.816,224.165v 2.99484" fill="none" stroke="black"/>
<path d="M129.17,224.165v 2.99484" fill="none" stroke="black"/>
<path d="M133.524,224.165v 2.99484" fill="none" stroke="black"/>
<path d="M137.878,224.165v 2.99484" fill="none" stroke="black"/>
<path d="M142.232,221.17v 5.98968" fill="none" stroke="black"/>
<path d="M146.586,224.165v 2.99484" fill="none" stroke="black"/>
<path d="M150.94,224.165v 2.99484" fill="none" stroke="black"/>
<path d="M155.294,224.165v 2.99484" fill="none" stroke="black"/>
<path d="M159.648,224.165v 2.99484" fill="none" stroke="black"/>
<path d="M164.002,221.17v 5.98968" fill="none" stroke="black"/>
<path d="M168.356,224.165v 2.99484" fill="none" stroke="black"/>
<path d="M172.71,224.165v 2.99484" fill="none" stroke="black"/>
<path d="M177.064,224.165v 2.99484" fill="none" stroke="black"/>
<path d="M181.418,224.165v 2.99484" fill="none" stroke="black"/>
<path d="M185.772,221.17v 5.98968" fill="none" stroke="black"/>
<path d="M190.126,224.165v 2.99484" fill="none" stroke="black"/>
<path d="M194.48,224.165v 2.99484" fill="none" stroke="black"/>
<path d="M198.834,224.165v 2.99484" fill="none" stroke="black"/>
<path d="M203.189,224.165v 2.99484" fill="none" stroke="black"/>
<path d="M207.543,221.17v 5.98968" fill="none" stroke="black"/>
<path d="M211.897,224.165v 2.99484" fill="none" stroke="black"/>
<path d="M216.251,224.165v 2.99484" fill="none" stroke="black"/>
<path d="M220.605,224.165v 2.99484" fill="none" stroke="black"/>
<path d="M224.959,224.165v 2.99484" fill="none" stroke="black"/>
<path d="M229.313,221.17v 5.98968" fill="none" stroke="black"/>
<path d="M233.667,224.165v 2.99484" fill="none" stroke="black"/>
<path d="M238.021,224.165v 2.99484" fill="none" stroke="black"/>
<path d="M242.375,224.165v 2.99484" fill="none" stroke="black"/>
<path d="M246.729,224.165v 2.99484" fill="none" stroke="black"/>
<path d="M251.083,221.17v 5.98968" fill="none" stroke="black"/>
<text xml:space="preserve" x="31.196" y="235.336" fill="black" font-size="8.51372" font-family="Helvetica">0
</text>
<text xml:space="preserve" x="50.5232" y="235.336" fill="black" font-size="8.51372" font-family="Helvetica">10
</text>
<text xml:space="preserve" x="72.503" y="235.336" fill="black" font-size="8.51372" font-family="Helvetica">20
</text>
<text xml:space="preserve" x="94.1039" y="235.336" fill="black" font-size="8.51372" font-family="Helvetica">30
</text>
<text xml:space="preserve" x="116.084" y="235.336" fill="black" font-size="8.51372" font-family="Helvetica">40
</text>
<text xml:space="preserve" x="137.685" y="235.336" fill="black" font-size="8.51372" font-family="Helvetica">50
</text>
<text xml:space="preserve" x="159.286" y="235.336" fill="black" font-size="8.51372" font-family="Helvetica">60
</text>
<text xml:space="preserve" x="181.266" y="235.336" fill="black" font-size="8.51372" font-family="Helvetica">70
</text>
<text xml:space="preserve" x="202.866" y="235.336" fill="black" font-size="8.51372" font-family="Helvetica">80
</text>
<text xml:space="preserve" x="224.846" y="235.336" fill="black" font-size="8.51372" font-family="Helvetica">90
</text>
<text xml:space="preserve" x="244.173" y="235.336" fill="black" font-size="8.51372" font-family="Helvetica">100
</text>
<path d="M33.3819,227.16v -199.656" fill="none" stroke="black"/>
<path d="M39.9129,227.16h -6.53102" fill="none" stroke="black"/>
<path d="M36.6474,221.727h -3.26551" fill="none" stroke="black"/>
<path d="M36.6474,216.294h -3.26551" fill="none" stroke="black"/>
<path d="M36.6474,210.861h -3.26551" fill="none" stroke="black"/>
<path d="M36.6474,205.428h -3.26551" fill="none" stroke="black"/>
<path d="M39.9129,199.996h -6.53102" fill="none" stroke="black"/>
<path d="M36.6474,194.563h -3.26551" fill="none" stroke="black"/>
<path d="M36.6474,189.13h -3.26551" fill="none" stroke="black"/>
<path d="M36.6474,183.697h -3.26551" fill="none" stroke="black"/>
<path d="M36.6474,178.264h -3.26551" fill="none" stroke="black"/>
<path d="M39.9129,172.832h -6.53102" fill="none" stroke="black"/>
<path d="M36.6474,167.399h -3.26551" fill="none" stroke="black"/>
<path d="M36.6474,161.966h -3.26551" fill="none" stroke="black"/>
<path d="M36.6474,156.533h -3.26551" fill="none" stroke="black"/>
<path d="M36.6474,151.1h -3.26551" fill="none" stroke="black"/>
<path d="M39.9129,145.667h -6.53102" fill="none" stroke="black"/>
<path d="M36.6474,140.235h -3.26551" fill="none" stroke="black"/>
<path d="M36.6474,134.802h -3.26551" fill="none" stroke="black"/>
<path d="M36.6474,129.369h -3.26551" fill="none" stroke="black"/>
<path d="M36.6474,123.936h -3.26551" fill="none" stroke="black"/>
<path d="M39.9129,118.503h -6.53102" fill="none" stroke="black"/>
<path d="M36.6474,113.071h -3.26551" fill="none" stroke="black"/>
<path d="M36.6474,107.638h -3.26551" fill="none" stroke="black"/>
<path d="M36.6474,102.205h -3.26551" fill="none" stroke="black"/>
<path d="M36.6474,96.7721h -3.26551" fill="none" stroke="black"/>
<path d="M39.9129,91.3393h -6.53102" fill="none" stroke="black"/>
<path d="M36.6474,85.9064h -3.26551" fill="none" stroke="black"/>
<path d="M36.6474,80.4736h -3.26551" fill="none" stroke="black"/>
<path d="M36.6474,75.0408h -3.26551" fill="none" stroke="black"/>
<path d="M36.6474,69.608h -3.26551" fill="none" stroke="black"/>
<path d="M39.9129,64.1752h -6.53102" fill="none" stroke="black"/>
<path d="M36.6474,58.7423h -3.26551" fill="none" stroke="black"/>
<path d="M36.6474,53.3095h -3.26551" fill="none" stroke="black"/>
<path d="M36.6474,47.8767h -3.26551" fill="none" stroke="black"/>
<path d="M36.6474,42.4439h -3.26551" fill="none" stroke="black"/>
<path d="M39.9129,37.0111h -6.53102" fill="none" stroke="black"/>
<path d="M39.9129,37.0111h -6.53102" fill="none" stroke="black"/>
<path d="M36.6474,31.5783h -3.26551" fill="none" stroke="black"/>
<text xml:space="preserve" x="27.4064" y="230.031" fill="black" font-size="8.51372" font-family="Helvetica">0
</text>
<text xml:space="preserve" x="28.9222" y="203.503" fill="black" font-size="8.51372" font-family="Helvetica">1
</text>
<text xml:space="preserve" x="27.4064" y="176.218" fill="black" font-size="8.51372" font-family="Helvetica">2
</text>
<text xml:space="preserve" x="27.4064" y="148.554" fill="black" font-size="8.51372" font-family="Helvetica">3
</text>
<text xml:space="preserve" x="27.4064" y="122.026" fill="black" font-size="8.51372" font-family="Helvetica">4
</text>
<text xml:space="preserve" x="27.4064" y="94.3619" fill="black" font-size="8.51372" font-family="Helvetica">5
</text>
<text xml:space="preserve" x="27.4064" y="67.0765" fill="black" font-size="8.51372" font-family="Helvetica">6
</text>
<text xml:space="preserve" x="27.4064" y="40.5491" fill="black" font-size="8.51372" font-family="Helvetica">7
</text>
<text xml:space="preserve" x="93.725" y="14.7796" fill="black" font-size="12.5573" font-family="Helvetica">Normal Histogram
</text>
<rect x="218.428" y="18.7687" width="54.4252" height="39.9312" fill="white"/>
<path d="M218.428,58.6999h 54.4252" fill="none" stroke="black"/>
<path d="M272.853,58.6999v -39.9312" fill="none" stroke="black"/>
<path d="M272.853,18.7687h -54.4252" fill="none" stroke="black"/>
<path d="M218.428,18.7687v 39.9312" fill="none" stroke="black"/>
<text xml:space="preserve" x="221.436" y="25.7695" fill="black" font-size="6.4784" font-family="Helvetica">Normal Histogram
</text>
<path d="M218.428,28.7515h 54.4252" fill="none" stroke="black"/>
<text xml:space="preserve" x="221.057" y="35.6226" fill="black" font-size="4.72984" font-family="Helvetica">Entries 
</text>
<text xml:space="preserve" x="261.985" y="35.2436" fill="black" font-size="4.72984" font-family="Helvetica"> 100
</text>
<text xml:space="preserve" x="221.057" y="45.4756" fill="black" font-size="4.72984" font-family="Helvetica">Mean  
</text>
<text xml:space="preserve" x="257.058" y="45.0966" fill="black" font-size="4.72984" font-family="Helvetica">  49.65
</text>
<text xml:space="preserve" x="221.057" y="55.7076" fill="black" font-size="4.72984" font-family="Helvetica">Std Dev   
</text>
<text xml:space="preserve" x="258.195" y="55.3286" fill="black" font-size="4.72984" font-family="Helvetica">   9.66
</text>
<text xml:space="preserve" x="93.725" y="14.7796" fill="black" font-size="12.5573" font-family="Helvetica">Normal Histogram
</text>
<rect x="289.634" y="2.54663" width="272.126" height="249.57" fill="white"/>
<rect x="316.846" y="27.5036" width="217.701" height="199.656" fill="white"/>
<rect x="316.846" y="27.5036" width="217.701" height="199.656" fill="none" stroke="black"/>
<path d="M316.846,37.0111h 4.35402v 190.149h 4.35402v -158.457h 4.35402v 63.3829h 4.35402v 31.6914h 4.35402v 31.6914h 4.35402v 31.6914h 4.35402v -63.3829h 8.70803v -63.3829h 4.35402v 126.766h 4.35402v -63.3829h 4.35402v 31.6914h 4.35402v -95.0743h
 4.35402v 126.766h 4.35402v -95.0743h 4.35402v 95.0743h 4.35402v -63.3829h 8.70803v 31.6914h 8.70803v 31.6914h 126.266" fill="none" stroke="#000099"/>
<path d="M316.846,227.16h 217.701" fill="none" stroke="black"/>
<path d="M316.846,221.17v 5.98968" fill="none" stroke="black"/>
<path d="M321.2,224.165v 2.99484" fill="none" stroke="black"/>
<path d="M325.555,224.165v 2.99484" fill="none" stroke="black"/>
<path d="M329.909,224.165v 2.99484" fill="none" stroke="black"/>
<path d="M334.263,224.165v 2.99484" fill="none" stroke="black"/>
<path d="M338.617,221.17v 5.98968" fill="none" stroke="black"/>
<path d="M342.971,224.165v 2.99484" fill="none" stroke="black"/>
<path d="M347.325,224.165v 2.99484" fill="none" stroke="black"/>
<path d="M351.679,224.165v 2.99484" fill="none" stroke="black"/>
<path d="M356.033,224.165v 2.99484" fill="none" stroke="black"/>
<path d="M360.387,221.17v 5.98968" fill="none" stroke="black"/>
<path d="M364.741,224.165v 2.99484" fill="none" stroke="black"/>
<path d="M369.095,224.165v 2.99484" fill="none" stroke="black"/>
<path d="M373.449,224.165v 2.99484" fill="none" stroke="black"/>
<path d="M377.803,224.165v 2.99484" fill="none" stroke="black"/>
<path d="M382.157,221.17v 5.98968" fill="none" stroke="black"/>
<path d="M386.511,224.165v 2.99484" fill="none" stroke="black"/>
<path d="M390.865,224.165v 2.99484" fill="none" stroke="black"/>
<path d="M395.219,224.165v 2.99484" fill="none" stroke="black"/>
<path d="M399.573,224.165v 2.99484" fill="none" stroke="black"/>
<path d="M403.927,221.17v 5.98968" fill="none" stroke="black"/>
<path d="M408.281,224.165v 2.99484" fill="none" stroke="black"/>
<path d="M412.635,224.165v 2.99484" fill="none" stroke="black"/>
<path d="M416.989,224.165v 2.99484" fill="none" stroke="black"/>
<path d="M421.343,224.165v 2.99484" fill="none" stroke="black"/>
<path d="M425.697,221.17v 5.98968" fill="none" stroke="black"/>
<path d="M430.051,224.165v 2.99484" fill="none" stroke="black"/>
<path d="M434.405,224.165v 2.99484" fill="none" stroke="black"/>
<path d="M438.759,224.165v 2.99484" fill="none" stroke="black"/>
<path d="M443.113,224.165v 2.99484" fill="none" stroke="black"/>
<path d="M447.467,221.17v 5.98968" fill="none" stroke="black"/>
<path d="M451.821,224.165v 2.99484" fill="none" stroke="black"/>
<path d="M456.175,224.165v 2.99484" fill="none" stroke="black"/>
<path d="M460.529,224.165v 2.99484" fill="none" stroke="black"/>
<path d="M464.883,224.165v 2.99484" fill="none" stroke="black"/>
<path d="M469.237,221.17v 5.98968" fill="none" stroke="black"/>
<path d="M473.591,224.165v 2.99484" fill="none" stroke="black"/>
<path d="M477.945,224.165v 2.99484" fill="none" stroke="black"/>
<path d="M482.299,224.165v 2.99484" fill="none" stroke="black"/>
<path d="M486.653,224.165v 2.99484" fill="none" stroke="black"/>
<path d="M491.007,221.17v 5.98968" fill="none" stroke="black"/>
<path d="M495.361,224.165v 2.99484" fill="none" stroke="black"/>
<path d="M499.715,224.165v 2.99484" fill="none" stroke="black"/>
<path d="M504.069,224.165v 2.99484" fill="none" stroke="black"/>
<path d="M508.423,224.165v 2.99484" fill="none" stroke="black"/>
<path d="M512.777,221.17v 5.98968" fill="none" stroke="black"/>
<path d="M517.131,224.165v 2.99484" fill="none" stroke="black"/>
<path d="M521.485,224.165v 2.99484" fill="none" stroke="black"/>
<path d="M525.839,224.165v 2.99484" fill="none" stroke="black"/>
<path d="M530.193,224.165v 2.99484" fill="none" stroke="black"/>
<path d="M534.547,221.17v 5.98968" fill="none" stroke="black"/>
<text xml:space="preserve" x="312.387" y="235.336" fill="black" font-size="8.51372" font-family="Helvetica">50
</text>
<text xml:space="preserve" x="333.988" y="235.336" fill="black" font-size="8.51372" font-family="Helvetica">55
</text>
<text xml:space="preserve" x="355.968" y="235.336" fill="black" font-size="8.51372" font-family="Helvetica">60
</text>
<text xml:space="preserve" x="377.569" y="235.336" fill="black" font-size="8.51372" font-family="Helvetica">65
</text>
<text xml:space="preserve" x="399.548" y="235.336" fill="black" font-size="8.51372" font-family="Helvetica">70
</text>
<text xml:space="preserve" x="421.149" y="235.336" fill="black" font-size="8.51372" font-family="Helvetica">75
</text>
<text xml:space="preserve" x="442.75" y="235.336" fill="black" font-size="8.51372" font-family="Helvetica">80
</text>
<text xml:space="preserve" x="464.73" y="235.336" fill="black" font-size="8.51372" font-family="Helvetica">85
</text>
<text xml:space="preserve" x="486.331" y="235.336" fill="black" font-size="8.51372" font-family="Helvetica">90
</text>
<text xml:space="preserve" x="508.311" y="235.336" fill="black" font-size="8.51372" font-family="Helvetica">95
</text>
<text xml:space="preserve" x="527.638" y="235.336" fill="black" font-size="8.51372" font-family="Helvetica">100
</text>
<path d="M316.846,227.16v -199.656" fill="none" stroke="black"/>
<path d="M323.377,227.16h -6.53102" fill="none" stroke="black"/>
<path d="M320.112,220.821h -3.26551" fill="none" stroke="black"/>
<path d="M320.112,214.483h -3.26551" fill="none" stroke="black"/>
<path d="M320.112,208.145h -3.26551" fill="none" stroke="black"/>
<path d="M320.112,201.807h -3.26551" fill="none" stroke="black"/>
<path d="M323.377,195.468h -6.53102" fill="none" stroke="black"/>
<path d="M320.112,189.13h -3.26551" fill="none" stroke="black"/>
<path d="M320.112,182.792h -3.26551" fill="none" stroke="black"/>
<path d="M320.112,176.453h -3.26551" fill="none" stroke="black"/>
<path d="M320.112,170.115h -3.26551" fill="none" stroke="black"/>
<path d="M323.377,163.777h -6.53102" fill="none" stroke="black"/>
<path d="M320.112,157.439h -3.26551" fill="none" stroke="black"/>
<path d="M320.112,151.1h -3.26551" fill="none" stroke="black"/>
<path d="M320.112,144.762h -3.26551" fill="none" stroke="black"/>
<path d="M320.112,138.424h -3.26551" fill="none" stroke="black"/>
<path d="M323.377,132.085h -6.53102" fill="none" stroke="black"/>
<path d="M320.112,125.747h -3.26551" fill="none" stroke="black"/>
<path d="M320.112,119.409h -3.26551" fill="none" stroke="black"/>
<path d="M320.112,113.071h -3.26551" fill="none" stroke="black"/>
<path d="M320.112,106.732h -3.26551" fill="none" stroke="black"/>
<path d="M323.377,100.394h -6.53102" fill="none" stroke="black"/>
<path d="M320.112,94.0557h -3.26551" fill="none" stroke="black"/>
<path d="M320.112,87.7174h -3.26551" fill="none" stroke="black"/>
<path d="M320.112,81.3791h -3.26551" fill="none" stroke="black"/>
<path d="M320.112,75.0408h -3.26551" fill="none" stroke="black"/>
<path d="M323.377,68.7025h -6.53102" fill="none" stroke="black"/>
<path d="M320.112,62.3642h -3.26551" fill="none" stroke="black"/>
<path d="M320.112,56.0259h -3.26551" fill="none" stroke="black"/>
<path d="M320.112,49.6877h -3.26551" fill="none" stroke="black"/>
<path d="M320.112,43.3494h -3.26551" fill="none" stroke="black"/>
<path d="M323.377,37.0111h -6.53102" fill="none" stroke="black"/>
<path d="M323.377,37.0111h -6.53102" fill="none" stroke="black"/>
<path d="M320.112,30.6728h -3.26551" fill="none" stroke="black"/>
<text xml:space="preserve" x="310.871" y="230.031" fill="black" font-size="8.51372" font-family="Helvetica">0
</text>
<text xml:space="preserve" x="312.387" y="198.956" fill="black" font-size="8.51372" font-family="Helvetica">1
</text>
<text xml:space="preserve" x="310.871" y="167.123" fill="black" font-size="8.51372" font-family="Helvetica">2
</text>
<text xml:space="preserve" x="310.871" y="135.29" fill="black" font-size="8.51372" font-family="Helvetica">3
</text>
<text xml:space="preserve" x="310.871" y="103.836" fill="black" font-size="8.51372" font-family="Helvetica">4
</text>
<text xml:space="preserve" x="310.871" y="71.6241" fill="black" font-size="8.51372" font-family="Helvetica">5
</text>
<text xml:space="preserve" x="310.871" y="40.1701" fill="black" font-size="8.51372" font-family="Helvetica">6
</text>
<text xml:space="preserve" x="367.715" y="14.7796" fill="black" font-size="12.5573" font-family="Helvetica">Zoomed-in Histogram
</text>
<rect x="501.892" y="18.7687" width="54.4252" height="39.9312" fill="white"/>
<path d="M501.892,58.6999h 54.4252" fill="none" stroke="black"/>
<path d="M556.317,58.6999v -39.9312" fill="none" stroke="black"/>
<path d="M556.317,18.7687h -54.4252" fill="none" stroke="black"/>
<path d="M501.892,18.7687v 39.9312" fill="none" stroke="black"/>
<text xml:space="preserve" x="518.543" y="26.5274" fill="black" font-size="8.92585" font-family="Helvetica">zoom
</text>
<path d="M501.892,28.7515h 54.4252" fill="none" stroke="black"/>
<text xml:space="preserve" x="504.521" y="35.6226" fill="black" font-size="4.72984" font-family="Helvetica">Entries 
</text>
<text xml:space="preserve" x="545.449" y="35.2436" fill="black" font-size="4.72984" font-family="Helvetica"> 100
</text>
<text xml:space="preserve" x="504.521" y="45.4756" fill="black" font-size="4.72984" font-family="Helvetica">Mean  
</text>
<text xml:space="preserve" x="540.523" y="45.0966" fill="black" font-size="4.72984" font-family="Helvetica">  58.74
</text>
<text xml:space="preserve" x="504.521" y="55.7076" fill="black" font-size="4.72984" font-family="Helvetica">Std Dev   
</text>
<text xml:space="preserve" x="541.66" y="55.3286" fill="black" font-size="4.72984" font-family="Helvetica">   6.23
</text>
<text xml:space="preserve" x="367.715" y="14.7796" fill="black" font-size="12.5573" font-family="Helvetica">Zoomed-in Histogram
</text></svg>
