<svg xmlns="http://www.w3.org/2000/svg" viewBox="0 0 1200 800" preserveAspectRatio="none" width="1200" height="800"><defs><pattern id="pat_3008_2" patternUnits="userSpaceOnUse" width="10" height="10"><path d="M0,3v-3h3ZM7,0h3v3ZM0,7v3h3ZM7,10h3v-3ZM5,2l3,3l-3,3l-3,-3Z" style="fill: #ff0000;"></path><path d="M0,3l5,5M3,10l5,-5M10,7l-5,-5M7,0l-5,5" style="stroke: #ff0000; stroke-width: 1;"></path></pattern></defs><path d="M0,0H1200V800H0Z" style="fill: #ffffff;"></path><g><g transform="translate(120,40)" font-family="Arial" font-size="44" space="preserve" font-weight="bold"><path d="M960,3h3v120h-960v-3h957z" style="fill: #000000; stroke: #000000; stroke-width: 1px;"></path><path d="M0,0H960V120H0Z" style="fill: #ddba87; stroke: #000000; stroke-width: 1;"></path><text fill="#000000" text-anchor="middle" dy=".4em" transform="translate(480,60)">Examples of various arrows formats</text></g><g><path d="M120,720L120,240M144,282l-24,-42l-24,42" style="stroke: #000000; stroke-width: 1; fill: none;"></path></g><g><path d="M240,720L240,285M256,285l-16,-45l-16,45z" style="stroke: #000000; stroke-width: 2; fill: #000000;"></path></g><g><path d="M360,675L360,285M344,675l16,45l16,-45zM376,285l-16,-45l-16,45z" style="stroke: #000000; stroke-width: 2; fill: #000000;"></path></g><g><path d="M552,240L932,437M917,467l67,-3l-36,-56z" style="stroke: #000000; stroke-width: 2; fill: #ff0000;"></path></g><g><path d="M605,600L1015,600M605,528l-125,72l125,72zM1015,672l125,-72l-125,-72z" style="stroke: #0000ff; stroke-width: 4; fill: url(#pat_3008_2);"></path></g></g></svg>