<svg xmlns="http://www.w3.org/2000/svg" viewBox="0 0 1200 800" preserveAspectRatio="none" width="1200" height="800"><path d="M0,0H1200V800H0Z" style="fill: #ffffff;"></path><g><g transform="translate(192,40)"><path d="M0,0H948V632H0Z" style="fill: #ffffff; stroke: #000000; stroke-width: 1;"></path><svg x="0" y="0" overflow="hidden" width="948" height="632" viewBox="0 0 948 632"><g><g transform="translate(25,29)"><path d="M-14,2H14V-2H-14Z" style="fill: #ffff00;"></path></g><g transform="translate(52,110)"><path d="M-14,2H14V-1H-14Z" style="fill: #ffff00;"></path></g><g transform="translate(80,161)"><path d="M-14,3H14V-2H-14Z" style="fill: #ffff00;"></path></g><g transform="translate(107,200)"><path d="M-14,3H14V-2H-14Z" style="fill: #ffff00;"></path></g><g transform="translate(135,233)"><path d="M-14,3H14V-2H-14Z" style="fill: #ffff00;"></path></g><g transform="translate(163,258)"><path d="M-14,3H14V-2H-14Z" style="fill: #ffff00;"></path></g><g transform="translate(190,282)"><path d="M-14,3H14V-3H-14Z" style="fill: #ffff00;"></path></g><g transform="translate(218,303)"><path d="M-14,3H14V-3H-14Z" style="fill: #ffff00;"></path></g><g transform="translate(245,322)"><path d="M-14,3H14V-3H-14Z" style="fill: #ffff00;"></path></g><g transform="translate(273,339)"><path d="M-14,4H14V-4H-14Z" style="fill: #ffff00;"></path></g><g transform="translate(300,356)"><path d="M-14,4H14V-4H-14Z" style="fill: #ffff00;"></path></g><g transform="translate(328,371)"><path d="M-14,4H14V-4H-14Z" style="fill: #ffff00;"></path></g><g transform="translate(356,386)"><path d="M-14,4H14V-4H-14Z" style="fill: #ffff00;"></path></g><g transform="translate(383,400)"><path d="M-14,4H14V-4H-14Z" style="fill: #ffff00;"></path></g><g transform="translate(411,413)"><path d="M-14,4H14V-5H-14Z" style="fill: #ffff00;"></path></g><g transform="translate(438,423)"><path d="M-14,4H14V-5H-14Z" style="fill: #ffff00;"></path></g><g transform="translate(466,438)"><path d="M-14,4H14V-5H-14Z" style="fill: #ffff00;"></path></g><g transform="translate(493,447)"><path d="M-14,5H14V-5H-14Z" style="fill: #ffff00;"></path></g><g transform="translate(521,460)"><path d="M-14,5H14V-5H-14Z" style="fill: #ffff00;"></path></g><g transform="translate(548,473)"><path d="M-14,4H14V-5H-14Z" style="fill: #ffff00;"></path></g><g transform="translate(576,483)"><path d="M-14,5H14V-6H-14Z" style="fill: #ffff00;"></path></g><g transform="translate(604,490)"><path d="M-14,5H14V-6H-14Z" style="fill: #ffff00;"></path></g><g transform="translate(631,508)"><path d="M-14,5H14V-6H-14Z" style="fill: #ffff00;"></path></g><g transform="translate(659,515)"><path d="M-14,5H14V-6H-14Z" style="fill: #ffff00;"></path></g><g transform="translate(686,527)"><path d="M-14,5H14V-7H-14Z" style="fill: #ffff00;"></path></g><g transform="translate(714,535)"><path d="M-14,5H14V-6H-14Z" style="fill: #ffff00;"></path></g><g transform="translate(741,547)"><path d="M-14,5H14V-7H-14Z" style="fill: #ffff00;"></path></g><g transform="translate(769,555)"><path d="M-14,6H14V-7H-14Z" style="fill: #ffff00;"></path></g><g transform="translate(796,569)"><path d="M-14,5H14V-7H-14Z" style="fill: #ffff00;"></path></g><g transform="translate(824,579)"><path d="M-14,5H14V-7H-14Z" style="fill: #ffff00;"></path></g><g transform="translate(852,588)"><path d="M-14,6H14V-8H-14Z" style="fill: #ffff00;"></path></g><g transform="translate(879,598)"><path d="M-14,6H14V-8H-14Z" style="fill: #ffff00;"></path></g><g transform="translate(907,609)"><path d="M-14,6H14V-8H-14Z" style="fill: #ffff00;"></path></g><g transform="translate(934,624)"><path d="M-14,6H14V-9H-14Z" style="fill: #ffff00;"></path></g></g><g><g transform="translate(25,29)"><path d="M-14,2H14V-2H-14Z" style="fill: #ffff00;"></path></g><g transform="translate(52,110)"><path d="M-14,2H14V-1H-14Z" style="fill: #ffff00;"></path></g><g transform="translate(80,161)"><path d="M-14,2H14V-2H-14Z" style="fill: #ffff00;"></path></g><g transform="translate(107,200)"><path d="M-14,2H14V-1H-14Z" style="fill: #ffff00;"></path></g><g transform="translate(135,233)"><path d="M-14,2H14V-1H-14Z" style="fill: #ffff00;"></path></g><g transform="translate(163,258)"><path d="M-14,3H14V-2H-14Z" style="fill: #ffff00;"></path></g><g transform="translate(190,282)"><path d="M-14,3H14V-2H-14Z" style="fill: #ffff00;"></path></g><g transform="translate(218,303)"><path d="M-14,3H14V-2H-14Z" style="fill: #ffff00;"></path></g><g transform="translate(245,322)"><path d="M-14,3H14V-2H-14Z" style="fill: #ffff00;"></path></g><g transform="translate(273,339)"><path d="M-14,3H14V-2H-14Z" style="fill: #ffff00;"></path></g><g transform="translate(300,356)"><path d="M-14,3H14V-1H-14Z" style="fill: #ffff00;"></path></g><g transform="translate(328,371)"><path d="M-14,3H14V-1H-14Z" style="fill: #ffff00;"></path></g><g transform="translate(356,386)"><path d="M-14,3H14V-2H-14Z" style="fill: #ffff00;"></path></g><g transform="translate(383,400)"><path d="M-14,3H14V-2H-14Z" style="fill: #ffff00;"></path></g><g transform="translate(411,413)"><path d="M-14,3H14V-1H-14Z" style="fill: #ffff00;"></path></g><g transform="translate(438,423)"><path d="M-14,3H14V-2H-14Z" style="fill: #ffff00;"></path></g><g transform="translate(466,438)"><path d="M-14,3H14V-1H-14Z" style="fill: #ffff00;"></path></g><g transform="translate(493,447)"><path d="M-14,3H14V-2H-14Z" style="fill: #ffff00;"></path></g><g transform="translate(521,460)"><path d="M-14,3H14V-2H-14Z" style="fill: #ffff00;"></path></g><g transform="translate(548,473)"><path d="M-14,3H14V-1H-14Z" style="fill: #ffff00;"></path></g><g transform="translate(576,483)"><path d="M-14,3H14V-1H-14Z" style="fill: #ffff00;"></path></g><g transform="translate(604,490)"><path d="M-14,4H14V-3H-14Z" style="fill: #ffff00;"></path></g><g transform="translate(631,508)"><path d="M-14,2H14V0H-14Z" style="fill: #ffff00;"></path></g><g transform="translate(659,515)"><path d="M-14,3H14V-2H-14Z" style="fill: #ffff00;"></path></g><g transform="translate(686,527)"><path d="M-14,3H14V-1H-14Z" style="fill: #ffff00;"></path></g><g transform="translate(714,535)"><path d="M-14,3H14V-2H-14Z" style="fill: #ffff00;"></path></g><g transform="translate(741,547)"><path d="M-14,3H14V-2H-14Z" style="fill: #ffff00;"></path></g><g transform="translate(769,555)"><path d="M-14,4H14V-3H-14Z" style="fill: #ffff00;"></path></g><g transform="translate(796,569)"><path d="M-14,3H14V-1H-14Z" style="fill: #ffff00;"></path></g><g transform="translate(824,579)"><path d="M-14,3H14V-1H-14Z" style="fill: #ffff00;"></path></g><g transform="translate(852,588)"><path d="M-14,3H14V-2H-14Z" style="fill: #ffff00;"></path></g><g transform="translate(879,598)"><path d="M-14,4H14V-2H-14Z" style="fill: #ffff00;"></path></g><g transform="translate(907,609)"><path d="M-14,4H14V-3H-14Z" style="fill: #ffff00;"></path></g><g transform="translate(934,624)"><path d="M-14,3H14V-1H-14Z" style="fill: #ffff00;"></path></g></g><g><g transform="translate(25,29)"><path style="stroke: #000000; stroke-width: 3; fill: none;" d="M0,0H-13M0,0H13"></path></g><g transform="translate(52,110)"><path style="stroke: #000000; stroke-width: 3; fill: none;" d="M0,0H-13M0,0H13"></path></g><g transform="translate(80,161)"><path style="stroke: #000000; stroke-width: 3; fill: none;" d="M0,0H-13M0,0H13"></path></g><g transform="translate(107,200)"><path style="stroke: #000000; stroke-width: 3; fill: none;" d="M0,0H-13M0,0H13"></path></g><g transform="translate(135,233)"><path style="stroke: #000000; stroke-width: 3; fill: none;" d="M0,0H-13M0,0H13"></path></g><g transform="translate(163,258)"><path style="stroke: #000000; stroke-width: 3; fill: none;" d="M0,0H-13M0,0H13"></path></g><g transform="translate(190,282)"><path style="stroke: #000000; stroke-width: 3; fill: none;" d="M0,0H-13M0,0H13"></path></g><g transform="translate(218,303)"><path style="stroke: #000000; stroke-width: 3; fill: none;" d="M0,0H-13M0,0H13"></path></g><g transform="translate(245,322)"><path style="stroke: #000000; stroke-width: 3; fill: none;" d="M0,0H-13M0,0H13"></path></g><g transform="translate(273,339)"><path style="stroke: #000000; stroke-width: 3; fill: none;" d="M0,0H-13M0,0H13"></path></g><g transform="translate(300,356)"><path style="stroke: #000000; stroke-width: 3; fill: none;" d="M0,0H-13M0,0H13"></path></g><g transform="translate(328,371)"><path style="stroke: #000000; stroke-width: 3; fill: none;" d="M0,0H-13M0,0H13"></path></g><g transform="translate(356,386)"><path style="stroke: #000000; stroke-width: 3; fill: none;" d="M0,0H-13M0,0H13"></path></g><g transform="translate(383,400)"><path style="stroke: #000000; stroke-width: 3; fill: none;" d="M0,0H-13M0,0H13"></path></g><g transform="translate(411,413)"><path style="stroke: #000000; stroke-width: 3; fill: none;" d="M0,0H-13M0,0H13"></path></g><g transform="translate(438,423)"><path style="stroke: #000000; stroke-width: 3; fill: none;" d="M0,0H-13M0,0H13"></path></g><g transform="translate(466,438)"><path style="stroke: #000000; stroke-width: 3; fill: none;" d="M0,0H-13M0,0H13"></path></g><g transform="translate(493,447)"><path style="stroke: #000000; stroke-width: 3; fill: none;" d="M0,0H-13M0,0H13"></path></g><g transform="translate(521,460)"><path style="stroke: #000000; stroke-width: 3; fill: none;" d="M0,0H-13M0,0H13"></path></g><g transform="translate(548,473)"><path style="stroke: #000000; stroke-width: 3; fill: none;" d="M0,0H-13M0,0H13"></path></g><g transform="translate(576,483)"><path style="stroke: #000000; stroke-width: 3; fill: none;" d="M0,0H-13M0,0H13"></path></g><g transform="translate(604,490)"><path style="stroke: #000000; stroke-width: 3; fill: none;" d="M0,0H-13M0,0H13"></path></g><g transform="translate(631,508)"><path style="stroke: #000000; stroke-width: 3; fill: none;" d="M0,0H-13M0,0H13"></path></g><g transform="translate(659,515)"><path style="stroke: #000000; stroke-width: 3; fill: none;" d="M0,0H-13M0,0H13"></path></g><g transform="translate(686,527)"><path style="stroke: #000000; stroke-width: 3; fill: none;" d="M0,0H-13M0,0H13"></path></g><g transform="translate(714,535)"><path style="stroke: #000000; stroke-width: 3; fill: none;" d="M0,0H-13M0,0H13"></path></g><g transform="translate(741,547)"><path style="stroke: #000000; stroke-width: 3; fill: none;" d="M0,0H-13M0,0H13"></path></g><g transform="translate(769,555)"><path style="stroke: #000000; stroke-width: 3; fill: none;" d="M0,0H-13M0,0H13"></path></g><g transform="translate(796,569)"><path style="stroke: #000000; stroke-width: 3; fill: none;" d="M0,0H-13M0,0H13"></path></g><g transform="translate(824,579)"><path style="stroke: #000000; stroke-width: 3; fill: none;" d="M0,0H-13M0,0H13"></path></g><g transform="translate(852,588)"><path style="stroke: #000000; stroke-width: 3; fill: none;" d="M0,0H-13M0,0H13"></path></g><g transform="translate(879,598)"><path style="stroke: #000000; stroke-width: 3; fill: none;" d="M0,0H-13M0,0H13"></path></g><g transform="translate(907,609)"><path style="stroke: #000000; stroke-width: 3; fill: none;" d="M0,0H-13M0,0H13"></path></g><g transform="translate(934,624)"><path style="stroke: #000000; stroke-width: 3; fill: none;" d="M0,0H-13M0,0H13"></path></g></g><g><g transform="translate(25,32)"><path style="stroke: #000000; stroke-width: 1; fill: none;" d="M0,0m1,0h-2M0,0m1,0h-2"></path></g><g transform="translate(52,113)"><path style="stroke: #000000; stroke-width: 1; fill: none;" d="M0,0m1,0h-2M0,0m1,0h-2"></path></g><g transform="translate(80,156)"><path style="stroke: #000000; stroke-width: 1; fill: none;" d="M0,0m1,0h-2M0,0m1,0h-2"></path></g><g transform="translate(107,200)"><path style="stroke: #000000; stroke-width: 1; fill: none;" d="M0,0m1,0h-2M0,0m1,0h-2"></path></g><g transform="translate(135,230)"><path style="stroke: #000000; stroke-width: 1; fill: none;" d="M0,0m1,0h-2M0,0m1,0h-2"></path></g><g transform="translate(163,260)"><path style="stroke: #000000; stroke-width: 1; fill: none;" d="M0,0m1,0h-2M0,0m1,0h-2"></path></g><g transform="translate(190,282)"><path style="stroke: #000000; stroke-width: 1; fill: none;" d="M0,0m1,0h-2M0,0m1,0h-2"></path></g><g transform="translate(218,303)"><path style="stroke: #000000; stroke-width: 1; fill: none;" d="M0,0m1,0h-2M0,0m1,0h-2"></path></g><g transform="translate(245,325)"><path style="stroke: #000000; stroke-width: 1; fill: none;" d="M0,0m1,0h-2M0,0m1,0h-2"></path></g><g transform="translate(273,344)"><path style="stroke: #000000; stroke-width: 1; fill: none;" d="M0,0V1m1,0h-2M0,0V-1m1,0h-2"></path></g><g transform="translate(300,360)"><path style="stroke: #000000; stroke-width: 1; fill: none;" d="M0,0V1m1,0h-2M0,0V-1m1,0h-2"></path></g><g transform="translate(328,371)"><path style="stroke: #000000; stroke-width: 1; fill: none;" d="M0,0V1m1,0h-2M0,0V-1m1,0h-2"></path></g><g transform="translate(356,384)"><path style="stroke: #000000; stroke-width: 1; fill: none;" d="M0,0V1m1,0h-2M0,0V-1m1,0h-2"></path></g><g transform="translate(383,399)"><path style="stroke: #000000; stroke-width: 1; fill: none;" d="M0,0V2m1,0h-2M0,0V-2m1,0h-2"></path></g><g transform="translate(411,415)"><path style="stroke: #000000; stroke-width: 1; fill: none;" d="M0,0V2m1,0h-2M0,0V-2m1,0h-2"></path></g><g transform="translate(438,428)"><path style="stroke: #000000; stroke-width: 1; fill: none;" d="M0,0V3m1,0h-2M0,0V-3m1,0h-2"></path></g><g transform="translate(466,435)"><path style="stroke: #000000; stroke-width: 1; fill: none;" d="M0,0V4m1,0h-2M0,0V-3m1,0h-2"></path></g><g transform="translate(493,445)"><path style="stroke: #000000; stroke-width: 1; fill: none;" d="M0,0V4m1,0h-2M0,0V-4m1,0h-2"></path></g><g transform="translate(521,457)"><path style="stroke: #000000; stroke-width: 1; fill: none;" d="M0,0V5m1,0h-2M0,0V-5m1,0h-2"></path></g><g transform="translate(548,475)"><path style="stroke: #000000; stroke-width: 1; fill: none;" d="M0,0V8m1,0h-2M0,0V-6m1,0h-2"></path></g><g transform="translate(576,483)"><path style="stroke: #000000; stroke-width: 1; fill: none;" d="M0,0V10m1,0h-2M0,0V-7m1,0h-2"></path></g><g transform="translate(604,491)"><path style="stroke: #000000; stroke-width: 1; fill: none;" d="M0,0V12m1,0h-2M0,0V-8m1,0h-2"></path></g><g transform="translate(631,501)"><path style="stroke: #000000; stroke-width: 1; fill: none;" d="M0,0V15m1,0h-2M0,0V-9m1,0h-2"></path></g><g transform="translate(659,501)"><path style="stroke: #000000; stroke-width: 1; fill: none;" d="M0,0V15m1,0h-2M0,0V-10m1,0h-2"></path></g><g transform="translate(686,513)"><path style="stroke: #000000; stroke-width: 1; fill: none;" d="M0,0V20m1,0h-2M0,0V-11m1,0h-2"></path></g><g transform="translate(714,517)"><path style="stroke: #000000; stroke-width: 1; fill: none;" d="M0,0V23m1,0h-2M0,0V-12m1,0h-2"></path></g><g transform="translate(741,519)"><path style="stroke: #000000; stroke-width: 1; fill: none;" d="M0,0V24m1,0h-2M0,0V-12m1,0h-2"></path></g><g transform="translate(769,525)"><path style="stroke: #000000; stroke-width: 1; fill: none;" d="M0,0V30m1,0h-2M0,0V-14m1,0h-2"></path></g><g transform="translate(796,521)"><path style="stroke: #000000; stroke-width: 1; fill: none;" d="M0,0V26m1,0h-2M0,0V-13m1,0h-2"></path></g><g transform="translate(824,523)"><path style="stroke: #000000; stroke-width: 1; fill: none;" d="M0,0V28m1,0h-2M0,0V-13m1,0h-2"></path></g><g transform="translate(852,520)"><path style="stroke: #000000; stroke-width: 1; fill: none;" d="M0,0V25m1,0h-2M0,0V-13m1,0h-2"></path></g><g transform="translate(879,524)"><path style="stroke: #000000; stroke-width: 1; fill: none;" d="M0,0V29m1,0h-2M0,0V-13m1,0h-2"></path></g><g transform="translate(907,514)"><path style="stroke: #000000; stroke-width: 1; fill: none;" d="M0,0V21m1,0h-2M0,0V-12m1,0h-2"></path></g><g transform="translate(934,517)"><path style="stroke: #000000; stroke-width: 1; fill: none;" d="M0,0V23m1,0h-2M0,0V-12m1,0h-2"></path></g><path d="M21,32a4,4,0,1,0,8,0a4,4,0,1,0,-8,0zM48,113a4,4,0,1,0,8,0a4,4,0,1,0,-8,0zM76,156a4,4,0,1,0,8,0a4,4,0,1,0,-8,0zM103,200a4,4,0,1,0,8,0a4,4,0,1,0,-8,0zM131,230a4,4,0,1,0,8,0a4,4,0,1,0,-8,0zM159,260a4,4,0,1,0,8,0a4,4,0,1,0,-8,0zM186,282a4,4,0,1,0,8,0a4,4,0,1,0,-8,0zM214,303a4,4,0,1,0,8,0a4,4,0,1,0,-8,0zM241,325a4,4,0,1,0,8,0a4,4,0,1,0,-8,0zM269,344a4,4,0,1,0,8,0a4,4,0,1,0,-8,0zM296,360a4,4,0,1,0,8,0a4,4,0,1,0,-8,0zM324,371a4,4,0,1,0,8,0a4,4,0,1,0,-8,0zM352,384a4,4,0,1,0,8,0a4,4,0,1,0,-8,0zM379,399a4,4,0,1,0,8,0a4,4,0,1,0,-8,0zM407,415a4,4,0,1,0,8,0a4,4,0,1,0,-8,0zM434,428a4,4,0,1,0,8,0a4,4,0,1,0,-8,0zM462,435a4,4,0,1,0,8,0a4,4,0,1,0,-8,0zM489,445a4,4,0,1,0,8,0a4,4,0,1,0,-8,0zM517,457a4,4,0,1,0,8,0a4,4,0,1,0,-8,0zM544,475a4,4,0,1,0,8,0a4,4,0,1,0,-8,0zM572,483a4,4,0,1,0,8,0a4,4,0,1,0,-8,0zM600,491a4,4,0,1,0,8,0a4,4,0,1,0,-8,0zM627,501a4,4,0,1,0,8,0a4,4,0,1,0,-8,0zM655,501a4,4,0,1,0,8,0a4,4,0,1,0,-8,0zM682,513a4,4,0,1,0,8,0a4,4,0,1,0,-8,0zM710,517a4,4,0,1,0,8,0a4,4,0,1,0,-8,0zM737,519a4,4,0,1,0,8,0a4,4,0,1,0,-8,0zM765,525a4,4,0,1,0,8,0a4,4,0,1,0,-8,0zM792,521a4,4,0,1,0,8,0a4,4,0,1,0,-8,0zM820,523a4,4,0,1,0,8,0a4,4,0,1,0,-8,0zM848,520a4,4,0,1,0,8,0a4,4,0,1,0,-8,0zM875,524a4,4,0,1,0,8,0a4,4,0,1,0,-8,0zM903,514a4,4,0,1,0,8,0a4,4,0,1,0,-8,0zM930,517a4,4,0,1,0,8,0a4,4,0,1,0,-8,0z" style="stroke: #000000; fill: #000000;"></path></g></svg><g><g transform="translate(0,632)"><path d="M0,0h948M0,-632h948M11,-12V0M39,-12V0M66,-12V0M94,-12V0M121,-24V0M149,-12V0M176,-12V0M204,-12V0M231,-12V0M259,-24V0M287,-12V0M314,-12V0M342,-12V0M369,-12V0M397,-24V0M424,-12V0M452,-12V0M480,-12V0M507,-12V0M535,-24V0M562,-12V0M590,-12V0M617,-12V0M645,-12V0M672,-24V0M700,-12V0M728,-12V0M755,-12V0M783,-12V0M810,-24V0M838,-12V0M865,-12V0M893,-12V0M920,-12V0M948,-24V0M11,-620V-632M39,-620V-632M66,-620V-632M94,-620V-632M121,-608V-632M149,-620V-632M176,-620V-632M204,-620V-632M231,-620V-632M259,-608V-632M287,-620V-632M314,-620V-632M342,-620V-632M369,-620V-632M397,-608V-632M424,-620V-632M452,-620V-632M480,-620V-632M507,-620V-632M535,-608V-632M562,-620V-632M590,-620V-632M617,-620V-632M645,-620V-632M672,-608V-632M700,-620V-632M728,-620V-632M755,-620V-632M783,-620V-632M810,-608V-632M838,-620V-632M865,-620V-632M893,-620V-632M920,-620V-632M948,-608V-632" style="stroke: #000000; stroke-width: 1;"></path><g font-family="Arial" font-size="40" space="preserve" fill="#000000" text-anchor="middle"><text dy=".8em" transform="translate(121,4)">500</text><text dy=".8em" transform="translate(259,4)">1000</text><text dy=".8em" transform="translate(397,4)">1500</text><text dy=".8em" transform="translate(535,4)">2000</text><text dy=".8em" transform="translate(672,4)">2500</text><text dy=".8em" transform="translate(810,4)">3000</text><text dy=".8em" transform="translate(948,4)">3500</text></g><g font-family="Arial" font-size="40" space="preserve" transform="translate(948,90)"><g transform="translate(-208,12)"><text fill="#000000" font-size="40">E</text><text fill="#000000" font-size="24" transform="translate(26,8)">T,jet</text><text fill="#000000" font-size="40" x="106">[GeV]</text></g></g></g><g><path d="M0,0v632M948,0v632M36,632H0M18,614H0M18,603H0M18,595H0M18,589H0M18,584H0M18,580H0M18,577H0M18,573H0M36,571H0M18,552H0M18,541H0M18,534H0M18,528H0M18,523H0M18,519H0M18,515H0M18,512H0M36,509H0M18,491H0M18,480H0M18,472H0M18,466H0M18,462H0M18,457H0M18,454H0M18,451H0M36,448H0M18,429H0M18,419H0M18,411H0M18,405H0M18,400H0M18,396H0M18,393H0M18,389H0M36,387H0M18,368H0M18,357H0M18,350H0M18,344H0M18,339H0M18,335H0M18,331H0M18,328H0M36,325H0M18,307H0M18,296H0M18,288H0M18,282H0M18,277H0M18,273H0M18,270H0M18,267H0M36,264H0M18,245H0M18,235H0M18,227H0M18,221H0M18,216H0M18,212H0M18,208H0M18,205H0M36,203H0M18,184H0M18,173H0M18,166H0M18,160H0M18,155H0M18,151H0M18,147H0M18,144H0M36,141H0M18,123H0M18,112H0M18,104H0M18,98H0M18,93H0M18,89H0M18,86H0M18,83H0M36,80H0M18,61H0M18,51H0M18,43H0M18,37H0M18,32H0M18,28H0M18,24H0M18,21H0M36,18H0M18,0H0M912,632H948M930,614H948M930,603H948M930,595H948M930,589H948M930,584H948M930,580H948M930,577H948M930,573H948M912,571H948M930,552H948M930,541H948M930,534H948M930,528H948M930,523H948M930,519H948M930,515H948M930,512H948M912,509H948M930,491H948M930,480H948M930,472H948M930,466H948M930,462H948M930,457H948M930,454H948M930,451H948M912,448H948M930,429H948M930,419H948M930,411H948M930,405H948M930,400H948M930,396H948M930,393H948M930,389H948M912,387H948M930,368H948M930,357H948M930,350H948M930,344H948M930,339H948M930,335H948M930,331H948M930,328H948M912,325H948M930,307H948M930,296H948M930,288H948M930,282H948M930,277H948M930,273H948M930,270H948M930,267H948M912,264H948M930,245H948M930,235H948M930,227H948M930,221H948M930,216H948M930,212H948M930,208H948M930,205H948M912,203H948M930,184H948M930,173H948M930,166H948M930,160H948M930,155H948M930,151H948M930,147H948M930,144H948M912,141H948M930,123H948M930,112H948M930,104H948M930,98H948M930,93H948M930,89H948M930,86H948M930,83H948M912,80H948M930,61H948M930,51H948M930,43H948M930,37H948M930,32H948M930,28H948M930,24H948M930,21H948M912,18H948M930,0H948" style="stroke: #000000; stroke-width: 1;"></path><g font-family="Arial" font-size="40" space="preserve"><g transform="translate(-70,649)"><text fill="#000000" font-size="40">10</text><text fill="#000000" font-size="24" transform="translate(43,-21)">-3</text></g><g transform="translate(-70,588)"><text fill="#000000" font-size="40">10</text><text fill="#000000" font-size="24" transform="translate(43,-21)">-2</text></g><g transform="translate(-69,526)"><text fill="#000000" font-size="40">10</text><text fill="#000000" font-size="24" transform="translate(43,-21)">-1</text></g><text fill="#000000" text-anchor="end" dy=".4em" transform="translate(-6,448)">1</text><text fill="#000000" text-anchor="end" dy=".4em" transform="translate(-6,387)">10</text><g transform="translate(-62,342)"><text fill="#000000" font-size="40">10</text><text fill="#000000" font-size="24" transform="translate(43,-21)">2</text></g><g transform="translate(-62,281)"><text fill="#000000" font-size="40">10</text><text fill="#000000" font-size="24" transform="translate(43,-21)">3</text></g><g transform="translate(-62,220)"><text fill="#000000" font-size="40">10</text><text fill="#000000" font-size="24" transform="translate(43,-21)">4</text></g><g transform="translate(-62,158)"><text fill="#000000" font-size="40">10</text><text fill="#000000" font-size="24" transform="translate(43,-21)">5</text></g><g transform="translate(-62,97)"><text fill="#000000" font-size="40">10</text><text fill="#000000" font-size="24" transform="translate(43,-21)">6</text></g><g transform="translate(-62,35)"><text fill="#000000" font-size="40">10</text><text fill="#000000" font-size="24" transform="translate(43,-21)">7</text></g></g><g font-family="Arial" font-size="40" space="preserve" transform="translate(-134)"><g transform="rotate(270) translate(-347,12)"><text fill="#000000" font-size="40">dσ</text><text fill="#000000" font-size="24" transform="translate(47,8)">jet</text><text fill="#000000" font-size="40" x="74">/dE</text><text fill="#000000" font-size="24" transform="translate(134,8)">T,jet</text><text fill="#000000" font-size="40" x="198">[fb/GeV]</text></g></g></g></g></g><g font-family="Arial" font-size="36" space="preserve"><g transform="translate(360,120)"><g><path style="stroke: #000000; stroke-width: 3; fill: none;" d="M0,-13h4l4,15l4,-36h27v4"></path><text fill="#000000" font-size="36" transform="translate(17)">s</text></g><text fill="#000000" font-size="36" x="44">= 14 TeV</text></g></g><g font-family="Arial" font-size="36" space="preserve"><g transform="translate(684,120)"><text fill="#000000" font-size="36">|η</text><text fill="#000000" font-size="22" transform="translate(31,7)">jet</text><text fill="#000000" font-size="36" x="55">|&lt;0.5</text></g></g><g transform="translate(540,160)" font-family="Arial" font-size="46" space="preserve"><path d="M0,0H420V120H0Z" style="fill: #ffffff;"></path><path d="M53,10V54M52,10h2M52,54h2" style="stroke: #000000; stroke-width: 1;"></path><path d="M49,32a4,4,0,1,0,8,0a4,4,0,1,0,-8,0z" style="stroke: #000000; fill: #000000;"></path><text fill="#000000" text-anchor="start" dy=".4em" transform="translate(105,32)">Data 2009</text><path d="M13,66v45h79v-45z" style="fill: #ffff00;"></path><path d="M13,88H92" style="stroke: #000000; stroke-width: 3;"></path><text fill="#000000" text-anchor="start" dy=".4em" transform="translate(105,88)">NLO QCD</text></g></g></svg>