<svg xmlns="http://www.w3.org/2000/svg" viewBox="0 0 1200 800" preserveAspectRatio="none" width="1200" height="800"><path d="M0,0H1200V800H0Z" style="fill: #cccccc;"></path><g><svg viewBox="0 0 576 384" preserveAspectRatio="none" x="12" y="8" width="576" height="384"><path d="M0,0H576V384H0Z" style="fill: #cccccc;"></path><g><g transform="translate(58,38)"><path d="M0,0H461V307H0Z" style="fill: #f2f2f2; stroke: #000000; stroke-width: 1;"></path><g><g transform="translate(0,307)"><path d="M0,0h461M0,-12V0M9,-6V0M18,-6V0M28,-6V0M37,-6V0M46,-12V0M55,-6V0M65,-6V0M74,-6V0M83,-6V0M92,-12V0M101,-6V0M111,-6V0M120,-6V0M129,-6V0M138,-12V0M148,-6V0M157,-6V0M166,-6V0M175,-6V0M184,-12V0M194,-6V0M203,-6V0M212,-6V0M221,-6V0M231,-12V0M240,-6V0M249,-6V0M258,-6V0M267,-6V0M277,-12V0M286,-6V0M295,-6V0M304,-6V0M313,-6V0M323,-12V0M332,-6V0M341,-6V0M350,-6V0M360,-6V0M369,-12V0M378,-6V0M387,-6V0M396,-6V0M406,-6V0M415,-12V0M424,-6V0M433,-6V0M443,-6V0M452,-6V0M461,-12V0" style="stroke: #000000; stroke-width: 1;"></path><g font-family="Arial" font-size="13" space="preserve" fill="#000000" text-anchor="middle"><text dy=".8em" transform="translate(0,3)">0</text><text dy=".8em" transform="translate(46,3)">1</text><text dy=".8em" transform="translate(92,3)">2</text><text dy=".8em" transform="translate(138,3)">3</text><text dy=".8em" transform="translate(184,3)">4</text><text dy=".8em" transform="translate(231,3)">5</text><text dy=".8em" transform="translate(277,3)">6</text><text dy=".8em" transform="translate(323,3)">7</text><text dy=".8em" transform="translate(369,3)">8</text><text dy=".8em" transform="translate(415,3)">9</text><text dy=".8em" transform="translate(461,3)">10</text></g></g><g><path d="M0,0v307M17,307H0M9,301H0M9,295H0M9,289H0M9,284H0M17,278H0M9,272H0M9,266H0M9,260H0M9,254H0M17,249H0M9,243H0M9,237H0M9,231H0M9,225H0M17,219H0M9,213H0M9,208H0M9,202H0M9,196H0M17,190H0M9,184H0M9,178H0M9,173H0M9,167H0M17,161H0M9,155H0M9,149H0M9,143H0M9,137H0M17,132H0M9,126H0M9,120H0M9,114H0M9,108H0M17,102H0M9,96H0M9,91H0M9,85H0M9,79H0M17,73H0M9,67H0M9,61H0M9,56H0M9,50H0M17,44H0M9,38H0M9,32H0M9,26H0M9,20H0M17,15H0M9,9H0M9,3H0" style="stroke: #000000; stroke-width: 1;"></path><g font-family="Arial" font-size="13" space="preserve" fill="#000000" text-anchor="end"><text dy=".4em" transform="translate(-3,307)">0</text><text dy=".4em" transform="translate(-3,278)">0.1</text><text dy=".4em" transform="translate(-3,249)">0.2</text><text dy=".4em" transform="translate(-3,219)">0.3</text><text dy=".4em" transform="translate(-3,190)">0.4</text><text dy=".4em" transform="translate(-3,161)">0.5</text><text dy=".4em" transform="translate(-3,132)">0.6</text><text dy=".4em" transform="translate(-3,102)">0.7</text><text dy=".4em" transform="translate(-3,73)">0.8</text><text dy=".4em" transform="translate(-3,44)">0.9</text><text dy=".4em" transform="translate(-3,15)">1</text></g></g><path d="M0,0v307M46,0v307M92,0v307M138,0v307M184,0v307M231,0v307M277,0v307M323,0v307M369,0v307M415,0v307M461,0v307" style="stroke: #000000; stroke-width: 1; stroke-dasharray: 1,2;"></path><path d="M0,307h461M0,278h461M0,249h461M0,219h461M0,190h461M0,161h461M0,132h461M0,102h461M0,73h461M0,44h461M0,15h461" style="stroke: #000000; stroke-width: 1; stroke-dasharray: 1,2;"></path></g></g><g transform="translate(432,42)" font-family="Arial" font-size="11" space="preserve"><path d="M0,0H81V73H0Z" style="fill: #ffffff; stroke: #000000; stroke-width: 1;"></path><path d="M2,9H18" style="stroke: #000000; stroke-width: 3;"></path><text fill="#000000" text-anchor="start" dy=".4em" transform="translate(20,9)"> J_0(x)</text><path d="M2,23H18" style="stroke: #ff0000; stroke-width: 3;"></path><text fill="#000000" text-anchor="start" dy=".4em" transform="translate(20,23)"> J_1(x)</text><path d="M2,37H18" style="stroke: #00ff00; stroke-width: 3;"></path><text fill="#000000" text-anchor="start" dy=".4em" transform="translate(20,37)"> J_2(x)</text><path d="M2,50H18" style="stroke: #0000ff; stroke-width: 3;"></path><text fill="#000000" text-anchor="start" dy=".4em" transform="translate(20,50)"> J_3(x)</text><path d="M2,64H18" style="stroke: #ffff00; stroke-width: 3;"></path><text fill="#000000" text-anchor="start" dy=".4em" transform="translate(20,64)"> J_4(x)</text></g><g font-family="Times New Roman" font-size="26" space="preserve" font-weight="bold"><path d="M288,3h3v38h-288v-3h285z" style="fill: #000000; stroke: #000000; stroke-width: 1px;"></path><path d="M0,0H288V38H0Z" style="fill: #ffffff; stroke: #000000; stroke-width: 1;"></path><text fill="#000000" text-anchor="middle" dy=".4em" transform="translate(144,19)">Bessel J functions</text></g></g></svg><svg viewBox="0 0 576 384" preserveAspectRatio="none" x="612" y="8" width="576" height="384"><path d="M0,0H576V384H0Z" style="fill: #cccccc;"></path><g><g transform="translate(58,38)"><path d="M0,0H461V307H0Z" style="fill: #f2f2f2; stroke: #000000; stroke-width: 1;"></path><g><g transform="translate(0,307)"><path d="M0,0h461M0,-12V0M9,-6V0M18,-6V0M28,-6V0M37,-6V0M46,-12V0M55,-6V0M65,-6V0M74,-6V0M83,-6V0M92,-12V0M101,-6V0M111,-6V0M120,-6V0M129,-6V0M138,-12V0M148,-6V0M157,-6V0M166,-6V0M175,-6V0M184,-12V0M194,-6V0M203,-6V0M212,-6V0M221,-6V0M231,-12V0M240,-6V0M249,-6V0M258,-6V0M267,-6V0M277,-12V0M286,-6V0M295,-6V0M304,-6V0M313,-6V0M323,-12V0M332,-6V0M341,-6V0M350,-6V0M360,-6V0M369,-12V0M378,-6V0M387,-6V0M396,-6V0M406,-6V0M415,-12V0M424,-6V0M433,-6V0M443,-6V0M452,-6V0M461,-12V0" style="stroke: #000000; stroke-width: 1;"></path><g font-family="Arial" font-size="13" space="preserve" fill="#000000" text-anchor="middle"><text dy=".8em" transform="translate(0,3)">0</text><text dy=".8em" transform="translate(46,3)">1</text><text dy=".8em" transform="translate(92,3)">2</text><text dy=".8em" transform="translate(138,3)">3</text><text dy=".8em" transform="translate(184,3)">4</text><text dy=".8em" transform="translate(231,3)">5</text><text dy=".8em" transform="translate(277,3)">6</text><text dy=".8em" transform="translate(323,3)">7</text><text dy=".8em" transform="translate(369,3)">8</text><text dy=".8em" transform="translate(415,3)">9</text><text dy=".8em" transform="translate(461,3)">10</text></g></g><g><path d="M0,0v307M17,307H0M9,301H0M9,295H0M9,289H0M9,284H0M17,278H0M9,272H0M9,266H0M9,260H0M9,254H0M17,249H0M9,243H0M9,237H0M9,231H0M9,225H0M17,219H0M9,213H0M9,208H0M9,202H0M9,196H0M17,190H0M9,184H0M9,178H0M9,173H0M9,167H0M17,161H0M9,155H0M9,149H0M9,143H0M9,137H0M17,132H0M9,126H0M9,120H0M9,114H0M9,108H0M17,102H0M9,96H0M9,91H0M9,85H0M9,79H0M17,73H0M9,67H0M9,61H0M9,56H0M9,50H0M17,44H0M9,38H0M9,32H0M9,26H0M9,20H0M17,15H0M9,9H0M9,3H0" style="stroke: #000000; stroke-width: 1;"></path><g font-family="Arial" font-size="13" space="preserve" fill="#000000" text-anchor="end"><text dy=".4em" transform="translate(-3,307)">0</text><text dy=".4em" transform="translate(-3,278)">0.1</text><text dy=".4em" transform="translate(-3,249)">0.2</text><text dy=".4em" transform="translate(-3,219)">0.3</text><text dy=".4em" transform="translate(-3,190)">0.4</text><text dy=".4em" transform="translate(-3,161)">0.5</text><text dy=".4em" transform="translate(-3,132)">0.6</text><text dy=".4em" transform="translate(-3,102)">0.7</text><text dy=".4em" transform="translate(-3,73)">0.8</text><text dy=".4em" transform="translate(-3,44)">0.9</text><text dy=".4em" transform="translate(-3,15)">1</text></g></g><path d="M0,0v307M46,0v307M92,0v307M138,0v307M184,0v307M231,0v307M277,0v307M323,0v307M369,0v307M415,0v307M461,0v307" style="stroke: #000000; stroke-width: 1; stroke-dasharray: 1,2;"></path><path d="M0,307h461M0,278h461M0,249h461M0,219h461M0,190h461M0,161h461M0,132h461M0,102h461M0,73h461M0,44h461M0,15h461" style="stroke: #000000; stroke-width: 1; stroke-dasharray: 1,2;"></path></g></g><g transform="translate(58,2)" font-family="Arial" font-size="19" space="preserve"><text fill="#000000" text-anchor="middle" dy=".8em" transform="translate(231)">Bessel K functions</text></g><g transform="translate(432,42)" font-family="Arial" font-size="11" space="preserve"><path d="M0,0H81V73H0Z" style="fill: #ffffff; stroke: #000000; stroke-width: 1;"></path><path d="M2,9H18" style="stroke: #000000; stroke-width: 3;"></path><text fill="#000000" text-anchor="start" dy=".4em" transform="translate(20,9)"> K_0(x)</text><path d="M2,23H18" style="stroke: #ff0000; stroke-width: 3;"></path><text fill="#000000" text-anchor="start" dy=".4em" transform="translate(20,23)"> K_1(x)</text><path d="M2,37H18" style="stroke: #00ff00; stroke-width: 3;"></path><text fill="#000000" text-anchor="start" dy=".4em" transform="translate(20,37)"> K_2(x)</text><path d="M2,50H18" style="stroke: #0000ff; stroke-width: 3;"></path><text fill="#000000" text-anchor="start" dy=".4em" transform="translate(20,50)"> K_3(x)</text><path d="M2,64H18" style="stroke: #ffff00; stroke-width: 3;"></path><text fill="#000000" text-anchor="start" dy=".4em" transform="translate(20,64)"> K_4(x)</text></g><g font-family="Times New Roman" font-size="26" space="preserve" font-weight="bold"><path d="M288,3h3v38h-288v-3h285z" style="fill: #000000; stroke: #000000; stroke-width: 1px;"></path><path d="M0,0H288V38H0Z" style="fill: #ffffff; stroke: #000000; stroke-width: 1;"></path><text fill="#000000" text-anchor="middle" dy=".4em" transform="translate(144,19)">Bessel K functions</text></g></g></svg><svg viewBox="0 0 576 384" preserveAspectRatio="none" x="12" y="408" width="576" height="384"><path d="M0,0H576V384H0Z" style="fill: #cccccc;"></path><g><g transform="translate(58,38)"><path d="M0,0H461V307H0Z" style="fill: #f2f2f2; stroke: #000000; stroke-width: 1;"></path><g><g transform="translate(0,307)"><path d="M0,0h461M0,-12V0M9,-6V0M18,-6V0M28,-6V0M37,-6V0M46,-12V0M55,-6V0M65,-6V0M74,-6V0M83,-6V0M92,-12V0M101,-6V0M111,-6V0M120,-6V0M129,-6V0M138,-12V0M148,-6V0M157,-6V0M166,-6V0M175,-6V0M184,-12V0M194,-6V0M203,-6V0M212,-6V0M221,-6V0M231,-12V0M240,-6V0M249,-6V0M258,-6V0M267,-6V0M277,-12V0M286,-6V0M295,-6V0M304,-6V0M313,-6V0M323,-12V0M332,-6V0M341,-6V0M350,-6V0M360,-6V0M369,-12V0M378,-6V0M387,-6V0M396,-6V0M406,-6V0M415,-12V0M424,-6V0M433,-6V0M443,-6V0M452,-6V0M461,-12V0" style="stroke: #000000; stroke-width: 1;"></path><g font-family="Arial" font-size="13" space="preserve" fill="#000000" text-anchor="middle"><text dy=".8em" transform="translate(0,3)">0</text><text dy=".8em" transform="translate(46,3)">1</text><text dy=".8em" transform="translate(92,3)">2</text><text dy=".8em" transform="translate(138,3)">3</text><text dy=".8em" transform="translate(184,3)">4</text><text dy=".8em" transform="translate(231,3)">5</text><text dy=".8em" transform="translate(277,3)">6</text><text dy=".8em" transform="translate(323,3)">7</text><text dy=".8em" transform="translate(369,3)">8</text><text dy=".8em" transform="translate(415,3)">9</text><text dy=".8em" transform="translate(461,3)">10</text></g></g><g><path d="M0,0v307M17,307H0M9,301H0M9,295H0M9,289H0M9,284H0M17,278H0M9,272H0M9,266H0M9,260H0M9,254H0M17,249H0M9,243H0M9,237H0M9,231H0M9,225H0M17,219H0M9,213H0M9,208H0M9,202H0M9,196H0M17,190H0M9,184H0M9,178H0M9,173H0M9,167H0M17,161H0M9,155H0M9,149H0M9,143H0M9,137H0M17,132H0M9,126H0M9,120H0M9,114H0M9,108H0M17,102H0M9,96H0M9,91H0M9,85H0M9,79H0M17,73H0M9,67H0M9,61H0M9,56H0M9,50H0M17,44H0M9,38H0M9,32H0M9,26H0M9,20H0M17,15H0M9,9H0M9,3H0" style="stroke: #000000; stroke-width: 1;"></path><g font-family="Arial" font-size="13" space="preserve" fill="#000000" text-anchor="end"><text dy=".4em" transform="translate(-3,307)">0</text><text dy=".4em" transform="translate(-3,278)">0.1</text><text dy=".4em" transform="translate(-3,249)">0.2</text><text dy=".4em" transform="translate(-3,219)">0.3</text><text dy=".4em" transform="translate(-3,190)">0.4</text><text dy=".4em" transform="translate(-3,161)">0.5</text><text dy=".4em" transform="translate(-3,132)">0.6</text><text dy=".4em" transform="translate(-3,102)">0.7</text><text dy=".4em" transform="translate(-3,73)">0.8</text><text dy=".4em" transform="translate(-3,44)">0.9</text><text dy=".4em" transform="translate(-3,15)">1</text></g></g><path d="M0,0v307M46,0v307M92,0v307M138,0v307M184,0v307M231,0v307M277,0v307M323,0v307M369,0v307M415,0v307M461,0v307" style="stroke: #000000; stroke-width: 1; stroke-dasharray: 1,2;"></path><path d="M0,307h461M0,278h461M0,249h461M0,219h461M0,190h461M0,161h461M0,132h461M0,102h461M0,73h461M0,44h461M0,15h461" style="stroke: #000000; stroke-width: 1; stroke-dasharray: 1,2;"></path></g></g><g transform="translate(58,2)" font-family="Arial" font-size="19" space="preserve"><text fill="#000000" text-anchor="middle" dy=".8em" transform="translate(231)">Bessel I functions</text></g><g transform="translate(432,42)" font-family="Arial" font-size="11" space="preserve"><path d="M0,0H81V73H0Z" style="fill: #ffffff; stroke: #000000; stroke-width: 1;"></path><path d="M2,9H18" style="stroke: #000000; stroke-width: 3;"></path><text fill="#000000" text-anchor="start" dy=".4em" transform="translate(20,9)"> I_0</text><path d="M2,23H18" style="stroke: #ff0000; stroke-width: 3;"></path><text fill="#000000" text-anchor="start" dy=".4em" transform="translate(20,23)"> I_1(x)</text><path d="M2,37H18" style="stroke: #00ff00; stroke-width: 3;"></path><text fill="#000000" text-anchor="start" dy=".4em" transform="translate(20,37)"> I_2(x)</text><path d="M2,50H18" style="stroke: #0000ff; stroke-width: 3;"></path><text fill="#000000" text-anchor="start" dy=".4em" transform="translate(20,50)"> I_3(x)</text><path d="M2,64H18" style="stroke: #ffff00; stroke-width: 3;"></path><text fill="#000000" text-anchor="start" dy=".4em" transform="translate(20,64)"> I_4(x)</text></g><g font-family="Times New Roman" font-size="26" space="preserve" font-weight="bold"><path d="M288,3h3v38h-288v-3h285z" style="fill: #000000; stroke: #000000; stroke-width: 1px;"></path><path d="M0,0H288V38H0Z" style="fill: #ffffff; stroke: #000000; stroke-width: 1;"></path><text fill="#000000" text-anchor="middle" dy=".4em" transform="translate(144,19)">Bessel I functions</text></g></g></svg><svg viewBox="0 0 576 384" preserveAspectRatio="none" x="612" y="408" width="576" height="384"><path d="M0,0H576V384H0Z" style="fill: #cccccc;"></path><g><g transform="translate(58,38)"><path d="M0,0H461V307H0Z" style="fill: #f2f2f2; stroke: #000000; stroke-width: 1;"></path><g><g transform="translate(0,307)"><path d="M0,0h461M0,-12V0M9,-6V0M18,-6V0M28,-6V0M37,-6V0M46,-12V0M55,-6V0M65,-6V0M74,-6V0M83,-6V0M92,-12V0M101,-6V0M111,-6V0M120,-6V0M129,-6V0M138,-12V0M148,-6V0M157,-6V0M166,-6V0M175,-6V0M184,-12V0M194,-6V0M203,-6V0M212,-6V0M221,-6V0M231,-12V0M240,-6V0M249,-6V0M258,-6V0M267,-6V0M277,-12V0M286,-6V0M295,-6V0M304,-6V0M313,-6V0M323,-12V0M332,-6V0M341,-6V0M350,-6V0M360,-6V0M369,-12V0M378,-6V0M387,-6V0M396,-6V0M406,-6V0M415,-12V0M424,-6V0M433,-6V0M443,-6V0M452,-6V0M461,-12V0" style="stroke: #000000; stroke-width: 1;"></path><g font-family="Arial" font-size="13" space="preserve" fill="#000000" text-anchor="middle"><text dy=".8em" transform="translate(0,3)">0</text><text dy=".8em" transform="translate(46,3)">1</text><text dy=".8em" transform="translate(92,3)">2</text><text dy=".8em" transform="translate(138,3)">3</text><text dy=".8em" transform="translate(184,3)">4</text><text dy=".8em" transform="translate(231,3)">5</text><text dy=".8em" transform="translate(277,3)">6</text><text dy=".8em" transform="translate(323,3)">7</text><text dy=".8em" transform="translate(369,3)">8</text><text dy=".8em" transform="translate(415,3)">9</text><text dy=".8em" transform="translate(461,3)">10</text></g></g><g><path d="M0,0v307M17,307H0M9,301H0M9,295H0M9,289H0M9,284H0M17,278H0M9,272H0M9,266H0M9,260H0M9,254H0M17,249H0M9,243H0M9,237H0M9,231H0M9,225H0M17,219H0M9,213H0M9,208H0M9,202H0M9,196H0M17,190H0M9,184H0M9,178H0M9,173H0M9,167H0M17,161H0M9,155H0M9,149H0M9,143H0M9,137H0M17,132H0M9,126H0M9,120H0M9,114H0M9,108H0M17,102H0M9,96H0M9,91H0M9,85H0M9,79H0M17,73H0M9,67H0M9,61H0M9,56H0M9,50H0M17,44H0M9,38H0M9,32H0M9,26H0M9,20H0M17,15H0M9,9H0M9,3H0" style="stroke: #000000; stroke-width: 1;"></path><g font-family="Arial" font-size="13" space="preserve" fill="#000000" text-anchor="end"><text dy=".4em" transform="translate(-3,307)">0</text><text dy=".4em" transform="translate(-3,278)">0.1</text><text dy=".4em" transform="translate(-3,249)">0.2</text><text dy=".4em" transform="translate(-3,219)">0.3</text><text dy=".4em" transform="translate(-3,190)">0.4</text><text dy=".4em" transform="translate(-3,161)">0.5</text><text dy=".4em" transform="translate(-3,132)">0.6</text><text dy=".4em" transform="translate(-3,102)">0.7</text><text dy=".4em" transform="translate(-3,73)">0.8</text><text dy=".4em" transform="translate(-3,44)">0.9</text><text dy=".4em" transform="translate(-3,15)">1</text></g></g><path d="M0,0v307M46,0v307M92,0v307M138,0v307M184,0v307M231,0v307M277,0v307M323,0v307M369,0v307M415,0v307M461,0v307" style="stroke: #000000; stroke-width: 1; stroke-dasharray: 1,2;"></path><path d="M0,307h461M0,278h461M0,249h461M0,219h461M0,190h461M0,161h461M0,132h461M0,102h461M0,73h461M0,44h461M0,15h461" style="stroke: #000000; stroke-width: 1; stroke-dasharray: 1,2;"></path></g></g><g transform="translate(58,2)" font-family="Arial" font-size="19" space="preserve"><text fill="#000000" text-anchor="middle" dy=".8em" transform="translate(231)">Bessel j functions</text></g><g transform="translate(432,42)" font-family="Arial" font-size="11" space="preserve"><path d="M0,0H81V73H0Z" style="fill: #ffffff; stroke: #000000; stroke-width: 1;"></path><path d="M2,9H18" style="stroke: #000000; stroke-width: 3;"></path><text fill="#000000" text-anchor="start" dy=".4em" transform="translate(20,9)"> j_0(x)</text><path d="M2,23H18" style="stroke: #ff0000; stroke-width: 3;"></path><text fill="#000000" text-anchor="start" dy=".4em" transform="translate(20,23)"> j_1(x)</text><path d="M2,37H18" style="stroke: #00ff00; stroke-width: 3;"></path><text fill="#000000" text-anchor="start" dy=".4em" transform="translate(20,37)"> j_2(x)</text><path d="M2,50H18" style="stroke: #0000ff; stroke-width: 3;"></path><text fill="#000000" text-anchor="start" dy=".4em" transform="translate(20,50)"> j_3(x)</text><path d="M2,64H18" style="stroke: #ffff00; stroke-width: 3;"></path><text fill="#000000" text-anchor="start" dy=".4em" transform="translate(20,64)"> j_4(x)</text></g><g font-family="Times New Roman" font-size="26" space="preserve" font-weight="bold"><path d="M288,3h3v38h-288v-3h285z" style="fill: #000000; stroke: #000000; stroke-width: 1px;"></path><path d="M0,0H288V38H0Z" style="fill: #ffffff; stroke: #000000; stroke-width: 1;"></path><text fill="#000000" text-anchor="middle" dy=".4em" transform="translate(144,19)">Bessel j functions</text></g></g></svg></g></svg>