<svg xmlns="http://www.w3.org/2000/svg" viewBox="0 0 1200 800" preserveAspectRatio="none" width="1200" height="800"><path d="M0,0H1200V800H0Z" style="fill: #ffffff;"></path><g><g transform="translate(192,16)"><path d="M0,0H984V656H0Z" style="fill: #ffffff; stroke: #000000; stroke-width: 1;"></path><svg x="0" y="0" overflow="hidden" width="984" height="656" viewBox="0 0 984 656"><g><path d="M0,656l983,-656" style="fill: none;"></path></g><g><path d="M0,542h1l1,-1h3l1,-1h3l1,-1h4l1,-1h3l1,-1h3l1,-1h3l1,-1h2l1,-1h3l1,-1h3l1,-1h3l1,-1h3l1,-1h3l1,-1h3l1,-1h3l1,-1h2l1,-1h3l1,-1h3l1,-1h3l1,-1h3l1,-1h2l1,-1h3l1,-1h3v-1h3l1,-1h2l1,-1h3l1,-1h3l1,-1h2l1,-1h3l1,-1h2l1,-1h3l1,-1h2l1,-1h3l1,-1h2l1,-1h3l1,-1h2l1,-1h3l1,-1h2l1,-1h2l1,-1h2l1,-1h2l1,-1h2l1,-1h3l1,-1h2l1,-1h2l1,-1h2l1,-1h2l1,-1h3l1,-1h2l1,-1h2l1,-1h2l1,-1h2l1,-1h2l1,-1h2l1,-1h2l1,-1h2l1,-1h2l1,-1h2l1,-1h1l1,-1h2l1,-1h2l1,-1h2l1,-1h2l1,-1h2l1,-1h2l1,-1h2l1,-1h2l1,-1h2l1,-1h1l1,-1h2l1,-1h2l1,-1h2l1,-1h1l1,-1h2l1,-1h2l1,-1h2l1,-1h1l1,-1h2l1,-1h2v-1h1l1,-1h2l1,-1h1l1,-1h2l1,-1h2l1,-1h1l1,-1h2l1,-1h1l1,-1h2l1,-1h1l1,-1h2l1,-1h1l1,-1h2l1,-1h1l1,-1h1l1,-1h2l1,-1h1l1,-1h2l1,-1h1l1,-1h1l1,-1h2l1,-1h1l1,-1h1l1,-1h2v-1h1l1,-1h1l1,-1h1l1,-1h2l1,-1h1l1,-1h1l1,-1h1l1,-1h1l1,-1h2l1,-1h1l1,-1h1l1,-1h1l1,-1h1l1,-1h1l1,-1h1l1,-1h1l1,-1h2l1,-1h1l1,-1h1l1,-1h1l1,-1h1l1,-1h1l1,-1h1l1,-1h1l1,-1h1l1,-1h1l1,-1h1l1,-1h1v-1l1,-1h1l1,-1h1l1,-1h1l1,-1h1l1,-1h1l1,-1h1l1,-1h1l1,-1h1l1,-1l1,-1h1l1,-1h1l1,-1h1l1,-1h1l1,-1l1,-1h1l1,-1h1l1,-1h1l1,-1l1,-1h1l1,-1h1l1,-1h1l1,-1l1,-1h1l1,-1h1l1,-1l1,-1h1l1,-1h1l1,-1l1,-1h1l1,-1l1,-1h1l1,-1h1l1,-1v-1h1l1,-1l1,-1h1l1,-1h1l1,-1l1,-1h1l1,-1l1,-1h1l1,-1l1,-1h1l1,-1l1,-1h1l1,-1l1,-1h1l1,-1l1,-1l1,-1h1l1,-1l1,-1h1l1,-1l1,-1h1l1,-1l1,-1l1,-1h1l1,-1l1,-1h1l1,-1l1,-1l1,-1h1l1,-1l1,-1l1,-1h1l1,-1l1,-1l1,-1h1l1,-1l1,-1l1,-1l1,-1h1l1,-1l1,-1l1,-1v-1h1l1,-1l1,-1l1,-1l1,-1h1l1,-1l1,-1l1,-1l1,-1l1,-1h1l1,-1l1,-1l1,-1l1,-1l1,-1l1,-1h1l1,-1l1,-1l1,-1l1,-1l1,-1l1,-1l1,-1l1,-1l1,-1h1l1,-1l1,-1l1,-1l1,-1l1,-1l1,-1l1,-1l1,-1l1,-1l1,-1l1,-1l1,-1l1,-1l1,-1l1,-1l1,-1l1,-1l1,-1l1,-1l1,-1l1,-1l1,-1l1,-1l1,-1l1,-1l1,-1l1,-1l1,-1l1,-1v-1l1,-1l1,-2l1,-1l1,-1l1,-1l1,-1l1,-1l1,-1l1,-1l1,-1l1,-2l1,-1l1,-1l1,-1l1,-1l1,-1l1,-2l1,-1l1,-1l1,-1l1,-1l1,-2l1,-1l1,-1l1,-1l1,-2l1,-1l1,-1l1,-1l1,-2l1,-1l1,-1l1,-1l1,-2l1,-1l1,-1l1,-2l1,-1l1,-1l1,-2l1,-1l1,-2l1,-1l1,-1l1,-2l1,-1l1,-1l1,-2l1,-1l1,-2l1,-1l1,-2l1,-1l1,-1l1,-2l1,-1l1,-2l1,-1v-2l1,-1l1,-2l1,-1l1,-2l1,-1l1,-2l1,-2l1,-1l1,-2l1,-1l1,-2l1,-1l1,-2l1,-1l1,-2l1,-2l1,-1l1,-2l1,-1l1,-2l1,-1l1,-2l1,-2l1,-1l1,-2l1,-1l1,-2l1,-2l1,-1l1,-2l1,-1l1,-2l1,-1l1,-2l1,-1l1,-2l1,-1l1,-2l1,-1l1,-2l1,-1l1,-2l1,-1l1,-1l1,-2l1,-1l1,-1l1,-2l1,-1l1,-1l1,-1l1,-1l1,-1l1,-2l1,-1h1l1,-1l1,-1v-1l1,-1l1,-1h1l1,-1l1,-1h1l1,-1h2l1,-1h8l1,1h2l1,1h1l1,1h1l1,1l1,1h1l1,1l1,1l1,1l1,1l1,1l1,1l1,1l1,1l1,1l1,1l1,2l1,1l1,1l1,1l1,2l1,1l1,2l1,1l1,1l1,2l1,1l1,2l1,1l1,2l1,1l1,2l1,1l1,2l1,1l1,2v1l1,2l1,2l1,1l1,2l1,1l1,2l1,2l1,1l1,2l1,1l1,2l1,1l1,2l1,2l1,1l1,2l1,1l1,2l1,1l1,2l1,2l1,1l1,2l1,1l1,2l1,1l1,2l1,1l1,2l1,1l1,2l1,1l1,2l1,1l1,2l1,1l1,1l1,2l1,1l1,2l1,1l1,1l1,2l1,1l1,2l1,1l1,1l1,2l1,1l1,1l1,2l1,1l1,1l1,2l1,1l1,1l1,2v1l1,1l1,1l1,2l1,1l1,1l1,1l1,2l1,1l1,1l1,1l1,1l1,2l1,1l1,1l1,1l1,1l1,2l1,1l1,1l1,1l1,1l1,1l1,1l1,2l1,1l1,1l1,1l1,1l1,1l1,1l1,1l1,1l1,1l1,1l1,1l1,1l1,1l1,1l1,2l1,1l1,1l1,1l1,1l1,1l1,1l1,1l1,1l1,1l1,1h1l1,1l1,1l1,1l1,1l1,1l1,1l1,1l1,1v1l1,1l1,1l1,1l1,1l1,1h1l1,1l1,1l1,1l1,1l1,1l1,1l1,1h1l1,1l1,1l1,1l1,1l1,1l1,1h1l1,1l1,1l1,1l1,1l1,1h1l1,1l1,1l1,1l1,1h1l1,1l1,1l1,1h1l1,1l1,1l1,1l1,1h1l1,1l1,1l1,1h1l1,1l1,1l1,1h1l1,1l1,1l1,1h1l1,1l1,1h1l1,1l1,1v1h1l1,1l1,1h1l1,1l1,1h1l1,1l1,1h1l1,1l1,1l1,1h1l1,1l1,1h1l1,1h1l1,1l1,1h1l1,1l1,1h1l1,1l1,1h1l1,1l1,1h1l1,1h1l1,1l1,1h1l1,1l1,1h1l1,1h1l1,1l1,1h1l1,1h1l1,1l1,1h1l1,1h1l1,1h1l1,1l1,1h1l1,1h1v1h1l1,1l1,1h1l1,1h1l1,1h1l1,1l1,1h1l1,1h1l1,1h1l1,1h1l1,1h1l1,1h1l1,1l1,1h1l1,1h1l1,1" style="stroke: #000000; stroke-width: 2; fill: none;"></path></g><g><path d="M0,428h50l1,-1h22l1,-1h16l1,-1h14l1,-1h11l1,-1h11l1,-1h9l1,-1h8l1,-1h8l1,-1h8l1,-1h7l1,-1h6l1,-1h7l1,-1h6l1,-1h5l1,-1h5l1,-1h5l1,-1h5l1,-1h5l1,-1h5l1,-1h4l1,-1h5l1,-1h4l1,-1h4l1,-1h4l1,-1h3l1,-1h4l1,-1h3l1,-1h4l1,-1h3l1,-1h3l1,-1h4l1,-1h3l1,-1h3l1,-1h3l1,-1h3l1,-1h3l1,-1h2l1,-1h3l1,-1h2l1,-1h2l1,-1h3l1,-1h2l1,-1h3l1,-1h2l1,-1h2l1,-1h3l1,-1h2l1,-1h2l1,-1h2l1,-1h2l1,-1h2l1,-1h2l1,-1h2l1,-1h2l1,-1h2l1,-1h2l1,-1h2v-1h1l1,-1h2l1,-1h2l1,-1h1l1,-1h2l1,-1h2l1,-1h1l1,-1h2l1,-1h1l1,-1h2l1,-1h1l1,-1h1l1,-1h2l1,-1h1l1,-1h1l1,-1h2l1,-1h1l1,-1h1l1,-1h2l1,-1h1l1,-1h1l1,-1h1l1,-1h1l1,-1h1l1,-1h1v-1h1l1,-1h2l1,-1h1l1,-1h1l1,-1h1l1,-1l1,-1h1l1,-1h1l1,-1h1l1,-1h1l1,-1h1l1,-1h1l1,-1h1l1,-1h1l1,-1l1,-1h1l1,-1h1l1,-1h1l1,-1l1,-1h1l1,-1h1l1,-1l1,-1h1l1,-1h1l1,-1l1,-1h1l1,-1h1l1,-1l1,-1h1l1,-1l1,-1h1l1,-1h1l1,-1v-1h1l1,-1l1,-1h1l1,-1l1,-1h1l1,-1l1,-1l1,-1h1l1,-1l1,-1h1l1,-1l1,-1l1,-1h1l1,-1l1,-1h1l1,-1l1,-1l1,-1h1l1,-1l1,-1l1,-1l1,-1h1l1,-1l1,-1l1,-1h1l1,-1l1,-1l1,-1l1,-1l1,-1h1l1,-1l1,-1l1,-1l1,-1l1,-1h1l1,-1l1,-1l1,-1l1,-1l1,-1l1,-1l1,-1l1,-1h1l1,-1l1,-1l1,-1v-1l1,-1l1,-1l1,-1l1,-1l1,-1l1,-1l1,-1l1,-1l1,-1l1,-1l1,-1l1,-1l1,-1l1,-1l1,-1l1,-1l1,-1l1,-1l1,-1l1,-1l1,-1l1,-1l1,-1l1,-1l1,-2l1,-1l1,-1l1,-1l1,-1l1,-1l1,-1l1,-1l1,-2l1,-1l1,-1l1,-1l1,-1l1,-2l1,-1l1,-1l1,-1l1,-1l1,-2l1,-1l1,-1l1,-1l1,-2l1,-1l1,-1l1,-1l1,-2l1,-1l1,-1l1,-2l1,-1l1,-1l1,-2l1,-1v-1l1,-2l1,-1l1,-2l1,-1l1,-1l1,-2l1,-1l1,-2l1,-1l1,-1l1,-2l1,-1l1,-2l1,-1l1,-2l1,-1l1,-1l1,-2l1,-1l1,-2l1,-1l1,-2l1,-1l1,-2l1,-1l1,-2l1,-1l1,-2l1,-1l1,-1l1,-2l1,-1l1,-2l1,-1l1,-2l1,-1l1,-1l1,-2l1,-1l1,-2l1,-1l1,-1l1,-2l1,-1l1,-1l1,-1l1,-2l1,-1l1,-1l1,-1l1,-1l1,-1l1,-1l1,-1l1,-1l1,-1l1,-1l1,-1v-1l1,-1h1l1,-1l1,-1h1l1,-1h1l1,-1h2l1,-1h6l1,1h2l1,1h2l1,1l1,1h1l1,1l1,1l1,1h1l1,1l1,1l1,1l1,2l1,1l1,1l1,1l1,1l1,1l1,2l1,1l1,1l1,2l1,1l1,2l1,1l1,2l1,1l1,2l1,1l1,2l1,2l1,1l1,2l1,1l1,2l1,2l1,1v2l1,2l1,1l1,2l1,2l1,2l1,1l1,2l1,2l1,1l1,2l1,2l1,1l1,2l1,2l1,2l1,1l1,2l1,2l1,1l1,2l1,2l1,1l1,2l1,2l1,1l1,2l1,2l1,1l1,2l1,1l1,2l1,2l1,1l1,2l1,1l1,2l1,2l1,1l1,2l1,1l1,2l1,1l1,2l1,1l1,2l1,1l1,2l1,1l1,2l1,1l1,2l1,1l1,2l1,1l1,1l1,2l1,1v2l1,1l1,2l1,1l1,1l1,2l1,1l1,1l1,2l1,1l1,1l1,2l1,1l1,1l1,2l1,1l1,1l1,2l1,1l1,1l1,1l1,2l1,1l1,1l1,1l1,2l1,1l1,1l1,1l1,1l1,2l1,1l1,1l1,1l1,1l1,2l1,1l1,1l1,1l1,1l1,1l1,1l1,2l1,1l1,1l1,1l1,1l1,1l1,1l1,1l1,1l1,1l1,2l1,1l1,1l1,1l1,1l1,1l1,1v1l1,1l1,1l1,1l1,1l1,1l1,1l1,1l1,1l1,1l1,1l1,1l1,1l1,1l1,1l1,1l1,1l1,1l1,1l1,1l1,1l1,1l1,1l1,1l1,1l1,1h1l1,1l1,1l1,1l1,1l1,1l1,1l1,1l1,1l1,1l1,1h1l1,1l1,1l1,1l1,1l1,1l1,1l1,1h1l1,1l1,1l1,1l1,1l1,1h1l1,1l1,1l1,1l1,1l1,1h1l1,1v1l1,1l1,1l1,1h1l1,1l1,1l1,1l1,1h1l1,1l1,1l1,1h1l1,1l1,1l1,1l1,1h1l1,1l1,1l1,1h1l1,1l1,1l1,1h1l1,1l1,1l1,1h1l1,1l1,1l1,1h1l1,1l1,1h1l1,1l1,1l1,1h1l1,1l1,1h1l1,1l1,1h1l1,1l1,1l1,1h1l1,1l1,1h1l1,1l1,1h1l1,1v1h1l1,1l1,1h1l1,1l1,1h1l1,1l1,1h1l1,1l1,1h1l1,1l1,1h1l1,1h1l1,1l1,1h1l1,1l1,1h1l1,1l1,1h1" style="stroke: #0000ff; stroke-width: 2; fill: none;"></path></g></svg><g><g transform="translate(0,656)"><path d="M0,0h984M0,-656h984M0,-20V0M38,-10V0M76,-10V0M113,-10V0M151,-20V0M189,-10V0M227,-10V0M265,-10V0M302,-20V0M340,-10V0M378,-10V0M416,-10V0M454,-20V0M492,-10V0M529,-10V0M567,-10V0M605,-20V0M643,-10V0M681,-10V0M718,-10V0M756,-20V0M794,-10V0M832,-10V0M870,-10V0M907,-20V0M945,-10V0M983,-10V0M0,-636V-656M38,-646V-656M76,-646V-656M113,-646V-656M151,-636V-656M189,-646V-656M227,-646V-656M265,-646V-656M302,-636V-656M340,-646V-656M378,-646V-656M416,-646V-656M454,-636V-656M492,-646V-656M529,-646V-656M567,-646V-656M605,-636V-656M643,-646V-656M681,-646V-656M718,-646V-656M756,-636V-656M794,-646V-656M832,-646V-656M870,-646V-656M907,-636V-656M945,-646V-656M983,-646V-656" style="stroke: #000000; stroke-width: 1;"></path><g font-family="Arial" font-size="32" space="preserve" fill="#000000" text-anchor="middle"><text dy=".8em" transform="translate(0,5)">0</text><text dy=".8em" transform="translate(151,5)">2000</text><text dy=".8em" transform="translate(302,5)">4000</text><text dy=".8em" transform="translate(454,5)">6000</text><text dy=".8em" transform="translate(605,5)">8000</text><text dy=".8em" transform="translate(756,5)">10000</text><text dy=".8em" transform="translate(907,5)">12000</text></g><g font-family="Arial" font-size="32" space="preserve" transform="translate(984,51)"><text fill="#000000" text-anchor="end" dy=".4em">E [GeV]</text></g></g><g><path d="M0,0v656M984,0v656M15,651H0M15,640H0M15,630H0M30,622H0M15,565H0M15,531H0M15,508H0M15,489H0M15,474H0M15,461H0M15,450H0M15,441H0M30,432H0M15,375H0M15,342H0M15,318H0M15,300H0M15,285H0M15,272H0M15,261H0M15,251H0M30,243H0M15,185H0M15,152H0M15,128H0M15,110H0M15,95H0M15,82H0M15,71H0M15,62H0M30,53H0M969,651H984M969,640H984M969,630H984M954,622H984M969,565H984M969,531H984M969,508H984M969,489H984M969,474H984M969,461H984M969,450H984M969,441H984M954,432H984M969,375H984M969,342H984M969,318H984M969,300H984M969,285H984M969,272H984M969,261H984M969,251H984M954,243H984M969,185H984M969,152H984M969,128H984M969,110H984M969,95H984M969,82H984M969,71H984M969,62H984M954,53H984" style="stroke: #000000; stroke-width: 1;"></path><g font-family="Arial" font-size="32" space="preserve"><g transform="translate(-58,636)"><text fill="#000000" font-size="32">10</text><text fill="#000000" font-size="19" transform="translate(35,-17)">-6</text></g><g transform="translate(-58,446)"><text fill="#000000" font-size="32">10</text><text fill="#000000" font-size="19" transform="translate(35,-17)">-5</text></g><g transform="translate(-58,257)"><text fill="#000000" font-size="32">10</text><text fill="#000000" font-size="19" transform="translate(35,-17)">-4</text></g><g transform="translate(-58,67)"><text fill="#000000" font-size="32">10</text><text fill="#000000" font-size="19" transform="translate(35,-17)">-3</text></g></g><g font-family="Arial" font-size="32" space="preserve" transform="translate(-100)"><text fill="#000000" text-anchor="end" dy=".4em" transform="rotate(270)">Events</text></g></g></g></g><g transform="translate(-480,4)" style="display: none;"><path d="M984,2h2v8h-984v-2h982z" style="fill: #000000; stroke: #000000; stroke-width: 1px;"></path><path d="M0,0H984V8H0Z" style="fill: #f2f2f2; stroke: #000000; stroke-width: 1;"></path></g><g transform="translate(756,40)" font-family="Arial" font-size="32" space="preserve" font-weight="bold"><path d="M10,21H77" style="stroke: #000000; stroke-width: 2;"></path><text fill="#000000" text-anchor="start" dy=".4em" transform="translate(87,21)">NonRel BW</text><path d="M10,59H77" style="stroke: #0000ff; stroke-width: 2;"></path><text fill="#000000" text-anchor="start" dy=".4em" transform="translate(87,59)">Rel BW</text></g><g font-family="Arial" font-size="29" space="preserve"><text fill="#000000" text-anchor="start" transform="translate(276,600)">Comparing BW</text></g><g font-family="Arial" font-size="29" space="preserve"><text fill="#000000" text-anchor="start" transform="translate(276,630)">M = 9000 GeV</text></g><g font-family="Arial" font-size="29" space="preserve"><g transform="translate(276,659)"><text fill="#000000" font-size="29">Γ = 1350 GeV</text></g></g></g></svg>