<svg xmlns="http://www.w3.org/2000/svg" viewBox="0 0 1200 800" preserveAspectRatio="none" width="1200" height="800"><path d="M0,0H1200V800H0Z" style="fill: #ffffff;"></path><g><svg viewBox="0 0 576 384" preserveAspectRatio="none" x="12" y="8" width="576" height="384"><path d="M0,0H576V384H0Z" style="fill: #ffffff;"></path><g><g transform="translate(58,38)"><path d="M0,0H461V307H0Z" style="fill: #ffffff; stroke: #000000; stroke-width: 1;"></path><svg x="0" y="0" overflow="hidden" width="461" height="307" viewBox="0 0 461 307"><g><path d="M34,97v85h1v-85zM57,127v38h1v-38zM80,137v32h1v-32zM103,132v42h1v-42zM126,134v40h1v-40zM148,133v41h3v-41zM169,134v41h7v-41zM190,133v41h11v-41zM211,133v41h16v-41zM235,133v41h15v-41zM260,133v41h11v-41zM285,133v41h7v-41zM310,134v40h3v-40zM334,132v44h1v-44zM357,132v43h1v-43zM380,132v41h1v-41zM403,136v46h1v-46zM426,101v109h1v-109zM449,200v2h1v-2z" style="stroke: #000099; stroke-width: 1; fill: none;"></path><path d="M34,170h1M34,95h1M34,184h1M35,97v-2M35,182v2M57,155h1M57,98h1M57,187h1M58,127v-29M58,165v22M80,150h1M80,92h1M80,215h1M81,137v-45M81,169v46M103,154h1M103,71h1M103,239h1M104,132v-61M104,174v65M126,155h1M126,71h1M126,236h1M127,134v-63M127,174v62M148,154h3M148,64h3M148,236h3M150,133v-69M150,174v62M169,154h7M169,68h7M169,236h7M173,134v-66M173,175v61M190,153h11M190,64h11M190,236h11M196,133v-69M196,174v62M211,153h16M211,68h16M211,236h16M219,133v-65M219,174v62M235,153h15M235,64h15M235,239h15M243,133v-69M243,174v65M260,154h11M260,64h11M260,239h11M266,133v-69M266,174v65M285,154h7M285,68h7M285,236h7M289,133v-65M289,174v62M310,154h3M310,68h3M310,236h3M312,134v-66M312,174v62M334,153h1M334,61h1M334,243h1M335,132v-71M335,176v67M357,154h1M357,68h1M357,239h1M358,132v-64M358,175v64M380,150h1M380,86h1M380,221h1M381,132v-46M381,173v48M403,161h1M403,101h1M403,212h1M404,136v-35M404,182v30M426,118h1M426,98h1M426,212h1M427,101v-3M427,210v2M449,201h1M449,200h1M449,203h1M450,200M450,202v1" style="stroke: #000099; stroke-width: 1; fill: none;"></path><path d="M34,150h1M57,148h1M80,154h1M103,153h1M126,155h1M148,154h3M169,154h7M190,153h11M211,154h16M235,153h15M260,153h11M285,154h7M310,154h3M334,153h1M357,154h1M380,152h1M403,158h1M426,143h1M449,201h1" style="stroke: #000099; stroke-width: 1; stroke-dasharray: 3,3; fill: none;"></path><path d="M77,225l8,8m0,-8l-8,8M77,222l8,8m0,-8l-8,8M77,219l8,8m0,-8l-8,8M77,216l8,8m0,-8l-8,8M77,215l8,8m0,-8l-8,8M77,216l8,8m0,-8l-8,8M77,62l8,8m0,-8l-8,8M100,240l8,8m0,-8l-8,8M100,47l8,8m0,-8l-8,8M100,44l8,8m0,-8l-8,8M123,237l8,8m0,-8l-8,8M123,235l8,8m0,-8l-8,8M123,234l8,8m0,-8l-8,8M123,62l8,8m0,-8l-8,8M123,56l8,8m0,-8l-8,8M123,41l8,8m0,-8l-8,8M123,25l8,8m0,-8l-8,8M146,262l8,8m0,-8l-8,8M146,258l8,8m0,-8l-8,8M146,253l8,8m0,-8l-8,8M146,252l8,8m0,-8l-8,8M146,253l8,8m0,-8l-8,8M146,246l8,8m0,-8l-8,8M146,243l8,8m0,-8l-8,8M146,240l8,8m0,-8l-8,8M146,241l8,8m0,-8l-8,8M146,239l8,8m0,-8l-8,8M146,236l8,8m0,-8l-8,8M146,237l8,8m0,-8l-8,8M146,238l8,8m0,-8l-8,8M146,236l8,8m0,-8l-8,8M146,236l8,8m0,-8l-8,8M146,238l8,8m0,-8l-8,8M146,235l8,8m0,-8l-8,8M146,234l8,8m0,-8l-8,8M146,233l8,8m0,-8l-8,8M146,234l8,8m0,-8l-8,8M146,234l8,8m0,-8l-8,8M146,235l8,8m0,-8l-8,8M146,235l8,8m0,-8l-8,8M146,57l8,8m0,-8l-8,8M146,60l8,8m0,-8l-8,8M146,60l8,8m0,-8l-8,8M146,57l8,8m0,-8l-8,8M146,57l8,8m0,-8l-8,8M146,55l8,8m0,-8l-8,8M146,53l8,8m0,-8l-8,8M146,52l8,8m0,-8l-8,8M146,47l8,8m0,-8l-8,8M146,44l8,8m0,-8l-8,8M169,265l8,8m0,-8l-8,8M169,264l8,8m0,-8l-8,8M169,255l8,8m0,-8l-8,8M169,253l8,8m0,-8l-8,8M169,252l8,8m0,-8l-8,8M169,254l8,8m0,-8l-8,8M169,249l8,8m0,-8l-8,8M169,249l8,8m0,-8l-8,8M169,246l8,8m0,-8l-8,8M169,248l8,8m0,-8l-8,8M169,245l8,8m0,-8l-8,8M169,245l8,8m0,-8l-8,8M169,243l8,8m0,-8l-8,8M169,241l8,8m0,-8l-8,8M169,241l8,8m0,-8l-8,8M169,240l8,8m0,-8l-8,8M169,239l8,8m0,-8l-8,8M169,240l8,8m0,-8l-8,8M169,240l8,8m0,-8l-8,8M169,238l8,8m0,-8l-8,8M169,238l8,8m0,-8l-8,8M169,235l8,8m0,-8l-8,8M169,238l8,8m0,-8l-8,8M169,235l8,8m0,-8l-8,8M169,235l8,8m0,-8l-8,8M169,235l8,8m0,-8l-8,8M169,233l8,8m0,-8l-8,8M169,234l8,8m0,-8l-8,8M169,233l8,8m0,-8l-8,8M169,233l8,8m0,-8l-8,8M169,235l8,8m0,-8l-8,8M169,233l8,8m0,-8l-8,8M169,235l8,8m0,-8l-8,8M169,235l8,8m0,-8l-8,8M169,235l8,8m0,-8l-8,8M169,234l8,8m0,-8l-8,8M169,234l8,8m0,-8l-8,8M169,234l8,8m0,-8l-8,8M169,63l8,8m0,-8l-8,8M169,63l8,8m0,-8l-8,8M169,63l8,8m0,-8l-8,8M169,61l8,8m0,-8l-8,8M169,61l8,8m0,-8l-8,8M169,59l8,8m0,-8l-8,8M169,58l8,8m0,-8l-8,8M169,60l8,8m0,-8l-8,8M169,60l8,8m0,-8l-8,8M169,57l8,8m0,-8l-8,8M169,57l8,8m0,-8l-8,8M169,57l8,8m0,-8l-8,8M169,57l8,8m0,-8l-8,8M169,54l8,8m0,-8l-8,8M169,51l8,8m0,-8l-8,8M169,50l8,8m0,-8l-8,8M169,45l8,8m0,-8l-8,8M169,48l8,8m0,-8l-8,8M169,44l8,8m0,-8l-8,8M169,41l8,8m0,-8l-8,8M169,28l8,8m0,-8l-8,8M192,274l8,8m0,-8l-8,8M192,268l8,8m0,-8l-8,8M192,265l8,8m0,-8l-8,8M192,258l8,8m0,-8l-8,8M192,256l8,8m0,-8l-8,8M192,255l8,8m0,-8l-8,8M192,253l8,8m0,-8l-8,8M192,252l8,8m0,-8l-8,8M192,254l8,8m0,-8l-8,8M192,252l8,8m0,-8l-8,8M192,252l8,8m0,-8l-8,8M192,252l8,8m0,-8l-8,8M192,249l8,8m0,-8l-8,8M192,248l8,8m0,-8l-8,8M192,245l8,8m0,-8l-8,8M192,245l8,8m0,-8l-8,8M192,244l8,8m0,-8l-8,8M192,244l8,8m0,-8l-8,8M192,243l8,8m0,-8l-8,8M192,242l8,8m0,-8l-8,8M192,243l8,8m0,-8l-8,8M192,243l8,8m0,-8l-8,8M192,244l8,8m0,-8l-8,8M192,244l8,8m0,-8l-8,8M192,239l8,8m0,-8l-8,8M192,241l8,8m0,-8l-8,8M192,241l8,8m0,-8l-8,8M192,241l8,8m0,-8l-8,8M192,241l8,8m0,-8l-8,8M192,239l8,8m0,-8l-8,8M192,240l8,8m0,-8l-8,8M192,239l8,8m0,-8l-8,8M192,239l8,8m0,-8l-8,8M192,241l8,8m0,-8l-8,8M192,236l8,8m0,-8l-8,8M192,238l8,8m0,-8l-8,8M192,238l8,8m0,-8l-8,8M192,238l8,8m0,-8l-8,8M192,237l8,8m0,-8l-8,8M192,237l8,8m0,-8l-8,8M192,234l8,8m0,-8l-8,8M192,235l8,8m0,-8l-8,8M192,235l8,8m0,-8l-8,8M192,234l8,8m0,-8l-8,8M192,233l8,8m0,-8l-8,8M192,233l8,8m0,-8l-8,8M192,234l8,8m0,-8l-8,8M192,233l8,8m0,-8l-8,8M192,235l8,8m0,-8l-8,8M192,235l8,8m0,-8l-8,8M192,235l8,8m0,-8l-8,8M192,60l8,8m0,-8l-8,8M192,60l8,8m0,-8l-8,8M192,60l8,8m0,-8l-8,8M192,60l8,8m0,-8l-8,8M192,58l8,8m0,-8l-8,8M192,58l8,8m0,-8l-8,8M192,60l8,8m0,-8l-8,8M192,58l8,8m0,-8l-8,8M192,57l8,8m0,-8l-8,8M192,56l8,8m0,-8l-8,8M192,56l8,8m0,-8l-8,8M192,53l8,8m0,-8l-8,8M192,51l8,8m0,-8l-8,8M192,51l8,8m0,-8l-8,8M192,48l8,8m0,-8l-8,8M192,50l8,8m0,-8l-8,8M192,51l8,8m0,-8l-8,8M192,46l8,8m0,-8l-8,8M192,48l8,8m0,-8l-8,8M192,48l8,8m0,-8l-8,8M192,42l8,8m0,-8l-8,8M192,44l8,8m0,-8l-8,8M192,38l8,8m0,-8l-8,8M192,38l8,8m0,-8l-8,8M192,28l8,8m0,-8l-8,8M215,259l8,8m0,-8l-8,8M215,258l8,8m0,-8l-8,8M215,255l8,8m0,-8l-8,8M215,250l8,8m0,-8l-8,8M215,249l8,8m0,-8l-8,8M215,251l8,8m0,-8l-8,8M215,249l8,8m0,-8l-8,8M215,249l8,8m0,-8l-8,8M215,249l8,8m0,-8l-8,8M215,251l8,8m0,-8l-8,8M215,245l8,8m0,-8l-8,8M215,245l8,8m0,-8l-8,8M215,247l8,8m0,-8l-8,8M215,247l8,8m0,-8l-8,8M215,246l8,8m0,-8l-8,8M215,242l8,8m0,-8l-8,8M215,243l8,8m0,-8l-8,8M215,243l8,8m0,-8l-8,8M215,244l8,8m0,-8l-8,8M215,241l8,8m0,-8l-8,8M215,239l8,8m0,-8l-8,8M215,241l8,8m0,-8l-8,8M215,241l8,8m0,-8l-8,8M215,241l8,8m0,-8l-8,8M215,238l8,8m0,-8l-8,8M215,236l8,8m0,-8l-8,8M215,237l8,8m0,-8l-8,8M215,236l8,8m0,-8l-8,8M215,236l8,8m0,-8l-8,8M215,238l8,8m0,-8l-8,8M215,236l8,8m0,-8l-8,8M215,238l8,8m0,-8l-8,8M215,238l8,8m0,-8l-8,8M215,238l8,8m0,-8l-8,8M215,237l8,8m0,-8l-8,8M215,237l8,8m0,-8l-8,8M215,237l8,8m0,-8l-8,8M215,238l8,8m0,-8l-8,8M215,238l8,8m0,-8l-8,8M215,234l8,8m0,-8l-8,8M215,233l8,8m0,-8l-8,8M215,233l8,8m0,-8l-8,8M215,234l8,8m0,-8l-8,8M215,233l8,8m0,-8l-8,8M215,235l8,8m0,-8l-8,8M215,235l8,8m0,-8l-8,8M215,235l8,8m0,-8l-8,8M215,235l8,8m0,-8l-8,8M215,235l8,8m0,-8l-8,8M215,235l8,8m0,-8l-8,8M215,235l8,8m0,-8l-8,8M215,233l8,8m0,-8l-8,8M215,233l8,8m0,-8l-8,8M215,235l8,8m0,-8l-8,8M215,233l8,8m0,-8l-8,8M215,235l8,8m0,-8l-8,8M215,234l8,8m0,-8l-8,8M215,62l8,8m0,-8l-8,8M215,63l8,8m0,-8l-8,8M215,63l8,8m0,-8l-8,8M215,61l8,8m0,-8l-8,8M215,62l8,8m0,-8l-8,8M215,63l8,8m0,-8l-8,8M215,61l8,8m0,-8l-8,8M215,63l8,8m0,-8l-8,8M215,63l8,8m0,-8l-8,8M215,61l8,8m0,-8l-8,8M215,63l8,8m0,-8l-8,8M215,63l8,8m0,-8l-8,8M215,63l8,8m0,-8l-8,8M215,61l8,8m0,-8l-8,8M215,61l8,8m0,-8l-8,8M215,62l8,8m0,-8l-8,8M215,59l8,8m0,-8l-8,8M215,60l8,8m0,-8l-8,8M215,60l8,8m0,-8l-8,8M215,59l8,8m0,-8l-8,8M215,59l8,8m0,-8l-8,8M215,60l8,8m0,-8l-8,8M215,58l8,8m0,-8l-8,8M215,58l8,8m0,-8l-8,8M215,57l8,8m0,-8l-8,8M215,56l8,8m0,-8l-8,8M215,56l8,8m0,-8l-8,8M215,55l8,8m0,-8l-8,8M215,56l8,8m0,-8l-8,8M215,55l8,8m0,-8l-8,8M215,57l8,8m0,-8l-8,8M215,56l8,8m0,-8l-8,8M215,52l8,8m0,-8l-8,8M215,52l8,8m0,-8l-8,8M215,52l8,8m0,-8l-8,8M215,50l8,8m0,-8l-8,8M215,49l8,8m0,-8l-8,8M215,50l8,8m0,-8l-8,8M215,51l8,8m0,-8l-8,8M215,51l8,8m0,-8l-8,8M215,48l8,8m0,-8l-8,8M215,51l8,8m0,-8l-8,8M215,47l8,8m0,-8l-8,8M215,47l8,8m0,-8l-8,8M215,46l8,8m0,-8l-8,8M215,47l8,8m0,-8l-8,8M215,48l8,8m0,-8l-8,8M215,48l8,8m0,-8l-8,8M215,46l8,8m0,-8l-8,8M215,42l8,8m0,-8l-8,8M215,43l8,8m0,-8l-8,8M215,41l8,8m0,-8l-8,8M215,40l8,8m0,-8l-8,8M215,42l8,8m0,-8l-8,8M215,41l8,8m0,-8l-8,8M215,37l8,8m0,-8l-8,8M215,13l8,8m0,-8l-8,8M239,265l8,8m0,-8l-8,8M239,264l8,8m0,-8l-8,8M239,262l8,8m0,-8l-8,8M239,259l8,8m0,-8l-8,8M239,258l8,8m0,-8l-8,8M239,257l8,8m0,-8l-8,8M239,255l8,8m0,-8l-8,8M239,252l8,8m0,-8l-8,8M239,252l8,8m0,-8l-8,8M239,254l8,8m0,-8l-8,8M239,251l8,8m0,-8l-8,8M239,251l8,8m0,-8l-8,8M239,250l8,8m0,-8l-8,8M239,250l8,8m0,-8l-8,8M239,249l8,8m0,-8l-8,8M239,248l8,8m0,-8l-8,8M239,249l8,8m0,-8l-8,8M239,243l8,8m0,-8l-8,8M239,244l8,8m0,-8l-8,8M239,244l8,8m0,-8l-8,8M239,242l8,8m0,-8l-8,8M239,244l8,8m0,-8l-8,8M239,244l8,8m0,-8l-8,8M239,244l8,8m0,-8l-8,8M239,244l8,8m0,-8l-8,8M239,242l8,8m0,-8l-8,8M239,240l8,8m0,-8l-8,8M239,239l8,8m0,-8l-8,8M239,239l8,8m0,-8l-8,8M239,241l8,8m0,-8l-8,8M239,240l8,8m0,-8l-8,8M239,238l8,8m0,-8l-8,8M239,238l8,8m0,-8l-8,8M239,238l8,8m0,-8l-8,8M239,237l8,8m0,-8l-8,8M239,237l8,8m0,-8l-8,8M239,237l8,8m0,-8l-8,8M239,238l8,8m0,-8l-8,8M239,238l8,8m0,-8l-8,8M239,238l8,8m0,-8l-8,8M239,236l8,8m0,-8l-8,8M239,236l8,8m0,-8l-8,8M239,237l8,8m0,-8l-8,8M239,58l8,8m0,-8l-8,8M239,60l8,8m0,-8l-8,8M239,60l8,8m0,-8l-8,8M239,60l8,8m0,-8l-8,8M239,60l8,8m0,-8l-8,8M239,60l8,8m0,-8l-8,8M239,60l8,8m0,-8l-8,8M239,60l8,8m0,-8l-8,8M239,58l8,8m0,-8l-8,8M239,58l8,8m0,-8l-8,8M239,60l8,8m0,-8l-8,8M239,58l8,8m0,-8l-8,8M239,57l8,8m0,-8l-8,8M239,56l8,8m0,-8l-8,8M239,56l8,8m0,-8l-8,8M239,57l8,8m0,-8l-8,8M239,57l8,8m0,-8l-8,8M239,55l8,8m0,-8l-8,8M239,56l8,8m0,-8l-8,8M239,57l8,8m0,-8l-8,8M239,52l8,8m0,-8l-8,8M239,54l8,8m0,-8l-8,8M239,54l8,8m0,-8l-8,8M239,48l8,8m0,-8l-8,8M239,50l8,8m0,-8l-8,8M239,51l8,8m0,-8l-8,8M239,50l8,8m0,-8l-8,8M239,49l8,8m0,-8l-8,8M239,45l8,8m0,-8l-8,8M239,47l8,8m0,-8l-8,8M239,47l8,8m0,-8l-8,8M239,48l8,8m0,-8l-8,8M239,48l8,8m0,-8l-8,8M239,44l8,8m0,-8l-8,8M239,41l8,8m0,-8l-8,8M239,37l8,8m0,-8l-8,8M239,35l8,8m0,-8l-8,8M239,35l8,8m0,-8l-8,8M262,265l8,8m0,-8l-8,8M262,262l8,8m0,-8l-8,8M262,259l8,8m0,-8l-8,8M262,258l8,8m0,-8l-8,8M262,255l8,8m0,-8l-8,8M262,253l8,8m0,-8l-8,8M262,252l8,8m0,-8l-8,8M262,254l8,8m0,-8l-8,8M262,249l8,8m0,-8l-8,8M262,249l8,8m0,-8l-8,8M262,249l8,8m0,-8l-8,8M262,248l8,8m0,-8l-8,8M262,245l8,8m0,-8l-8,8M262,245l8,8m0,-8l-8,8M262,247l8,8m0,-8l-8,8M262,247l8,8m0,-8l-8,8M262,243l8,8m0,-8l-8,8M262,242l8,8m0,-8l-8,8M262,243l8,8m0,-8l-8,8M262,240l8,8m0,-8l-8,8M262,241l8,8m0,-8l-8,8M262,241l8,8m0,-8l-8,8M262,239l8,8m0,-8l-8,8M262,241l8,8m0,-8l-8,8M262,241l8,8m0,-8l-8,8M262,238l8,8m0,-8l-8,8M262,238l8,8m0,-8l-8,8M262,236l8,8m0,-8l-8,8M262,237l8,8m0,-8l-8,8M262,236l8,8m0,-8l-8,8M262,236l8,8m0,-8l-8,8M262,238l8,8m0,-8l-8,8M262,58l8,8m0,-8l-8,8M262,60l8,8m0,-8l-8,8M262,60l8,8m0,-8l-8,8M262,60l8,8m0,-8l-8,8M262,59l8,8m0,-8l-8,8M262,59l8,8m0,-8l-8,8M262,59l8,8m0,-8l-8,8M262,60l8,8m0,-8l-8,8M262,60l8,8m0,-8l-8,8M262,59l8,8m0,-8l-8,8M262,58l8,8m0,-8l-8,8M262,58l8,8m0,-8l-8,8M262,59l8,8m0,-8l-8,8M262,55l8,8m0,-8l-8,8M262,57l8,8m0,-8l-8,8M262,57l8,8m0,-8l-8,8M262,57l8,8m0,-8l-8,8M262,54l8,8m0,-8l-8,8M262,53l8,8m0,-8l-8,8M262,51l8,8m0,-8l-8,8M262,51l8,8m0,-8l-8,8M262,48l8,8m0,-8l-8,8M262,48l8,8m0,-8l-8,8M262,51l8,8m0,-8l-8,8M262,49l8,8m0,-8l-8,8M262,47l8,8m0,-8l-8,8M262,47l8,8m0,-8l-8,8M262,43l8,8m0,-8l-8,8M262,45l8,8m0,-8l-8,8M262,41l8,8m0,-8l-8,8M262,37l8,8m0,-8l-8,8M285,259l8,8m0,-8l-8,8M285,258l8,8m0,-8l-8,8M285,256l8,8m0,-8l-8,8M285,255l8,8m0,-8l-8,8M285,252l8,8m0,-8l-8,8M285,251l8,8m0,-8l-8,8M285,249l8,8m0,-8l-8,8M285,249l8,8m0,-8l-8,8M285,249l8,8m0,-8l-8,8M285,248l8,8m0,-8l-8,8M285,245l8,8m0,-8l-8,8M285,245l8,8m0,-8l-8,8M285,244l8,8m0,-8l-8,8M285,244l8,8m0,-8l-8,8M285,243l8,8m0,-8l-8,8M285,242l8,8m0,-8l-8,8M285,240l8,8m0,-8l-8,8M285,240l8,8m0,-8l-8,8M285,241l8,8m0,-8l-8,8M285,238l8,8m0,-8l-8,8M285,235l8,8m0,-8l-8,8M285,238l8,8m0,-8l-8,8M285,238l8,8m0,-8l-8,8M285,238l8,8m0,-8l-8,8M285,238l8,8m0,-8l-8,8M285,236l8,8m0,-8l-8,8M285,234l8,8m0,-8l-8,8M285,233l8,8m0,-8l-8,8M285,233l8,8m0,-8l-8,8M285,235l8,8m0,-8l-8,8M285,233l8,8m0,-8l-8,8M285,235l8,8m0,-8l-8,8M285,63l8,8m0,-8l-8,8M285,63l8,8m0,-8l-8,8M285,62l8,8m0,-8l-8,8M285,62l8,8m0,-8l-8,8M285,59l8,8m0,-8l-8,8M285,60l8,8m0,-8l-8,8M285,60l8,8m0,-8l-8,8M285,59l8,8m0,-8l-8,8M285,58l8,8m0,-8l-8,8M285,58l8,8m0,-8l-8,8M285,59l8,8m0,-8l-8,8M285,58l8,8m0,-8l-8,8M285,57l8,8m0,-8l-8,8M285,57l8,8m0,-8l-8,8M285,57l8,8m0,-8l-8,8M285,57l8,8m0,-8l-8,8M285,57l8,8m0,-8l-8,8M285,54l8,8m0,-8l-8,8M285,54l8,8m0,-8l-8,8M285,50l8,8m0,-8l-8,8M285,42l8,8m0,-8l-8,8M285,42l8,8m0,-8l-8,8M285,41l8,8m0,-8l-8,8M308,252l8,8m0,-8l-8,8M308,250l8,8m0,-8l-8,8M308,249l8,8m0,-8l-8,8M308,243l8,8m0,-8l-8,8M308,241l8,8m0,-8l-8,8M308,240l8,8m0,-8l-8,8M308,241l8,8m0,-8l-8,8M308,239l8,8m0,-8l-8,8M308,236l8,8m0,-8l-8,8M308,237l8,8m0,-8l-8,8M308,235l8,8m0,-8l-8,8M308,233l8,8m0,-8l-8,8M308,233l8,8m0,-8l-8,8M308,235l8,8m0,-8l-8,8M308,235l8,8m0,-8l-8,8M308,62l8,8m0,-8l-8,8M308,61l8,8m0,-8l-8,8M308,59l8,8m0,-8l-8,8M308,59l8,8m0,-8l-8,8M308,60l8,8m0,-8l-8,8M308,60l8,8m0,-8l-8,8M308,54l8,8m0,-8l-8,8M308,57l8,8m0,-8l-8,8M308,54l8,8m0,-8l-8,8M308,54l8,8m0,-8l-8,8M308,54l8,8m0,-8l-8,8M308,50l8,8m0,-8l-8,8M308,31l8,8m0,-8l-8,8M331,246l8,8m0,-8l-8,8M331,243l8,8m0,-8l-8,8M331,56l8,8m0,-8l-8,8M331,53l8,8m0,-8l-8,8M354,246l8,8m0,-8l-8,8" style="stroke: #000099; fill: none;"></path></g></svg><g><g transform="translate(0,307)"><path d="M0,0h461M0,-12V0M9,-6V0M18,-6V0M28,-6V0M37,-6V0M46,-12V0M55,-6V0M65,-6V0M74,-6V0M83,-6V0M92,-12V0M101,-6V0M111,-6V0M120,-6V0M129,-6V0M138,-12V0M148,-6V0M157,-6V0M166,-6V0M175,-6V0M184,-12V0M194,-6V0M203,-6V0M212,-6V0M221,-6V0M231,-12V0M240,-6V0M249,-6V0M258,-6V0M267,-6V0M277,-12V0M286,-6V0M295,-6V0M304,-6V0M313,-6V0M323,-12V0M332,-6V0M341,-6V0M350,-6V0M360,-6V0M369,-12V0M378,-6V0M387,-6V0M396,-6V0M406,-6V0M415,-12V0M424,-6V0M433,-6V0M443,-6V0M452,-6V0M461,-12V0" style="stroke: #000000; stroke-width: 1;"></path><g font-family="Arial" font-size="13" space="preserve" fill="#000000" text-anchor="middle"><text dy=".8em" transform="translate(0,3)">-5</text><text dy=".8em" transform="translate(46,3)">-4</text><text dy=".8em" transform="translate(92,3)">-3</text><text dy=".8em" transform="translate(138,3)">-2</text><text dy=".8em" transform="translate(184,3)">-1</text><text dy=".8em" transform="translate(231,3)">0</text><text dy=".8em" transform="translate(277,3)">1</text><text dy=".8em" transform="translate(323,3)">2</text><text dy=".8em" transform="translate(369,3)">3</text><text dy=".8em" transform="translate(415,3)">4</text><text dy=".8em" transform="translate(461,3)">5</text></g></g><g><path d="M0,0v307M17,307H0M9,301H0M9,295H0M9,289H0M9,282H0M17,276H0M9,270H0M9,264H0M9,258H0M9,252H0M17,246H0M9,239H0M9,233H0M9,227H0M9,221H0M17,215H0M9,209H0M9,203H0M9,196H0M9,190H0M17,184H0M9,178H0M9,172H0M9,166H0M9,160H0M17,154H0M9,147H0M9,141H0M9,135H0M9,129H0M17,123H0M9,117H0M9,111H0M9,104H0M9,98H0M17,92H0M9,86H0M9,80H0M9,74H0M9,68H0M17,61H0M9,55H0M9,49H0M9,43H0M9,37H0M17,31H0M9,25H0M9,18H0M9,12H0M9,6H0M17,0H0" style="stroke: #000000; stroke-width: 1;"></path><g font-family="Arial" font-size="13" space="preserve" fill="#000000" text-anchor="end"><text dy=".4em" transform="translate(-3,307)">-5</text><text dy=".4em" transform="translate(-3,276)">-4</text><text dy=".4em" transform="translate(-3,246)">-3</text><text dy=".4em" transform="translate(-3,215)">-2</text><text dy=".4em" transform="translate(-3,184)">-1</text><text dy=".4em" transform="translate(-3,154)">0</text><text dy=".4em" transform="translate(-3,123)">1</text><text dy=".4em" transform="translate(-3,92)">2</text><text dy=".4em" transform="translate(-3,61)">3</text><text dy=".4em" transform="translate(-3,31)">4</text><text dy=".4em" transform="translate(-3)">5</text></g></g></g></g><g transform="translate(58,2)" font-family="Arial" font-size="19" space="preserve"><text fill="#000000" text-anchor="middle" dy=".8em" transform="translate(231)">CandleX scaled</text></g><g transform="translate(449,25)" font-family="Arial" font-size="10" space="preserve" fill="#000000"><path d="M0,0H115V92H0Z" style="fill: #ffffff; stroke: #000000; stroke-width: 1;"></path><text text-anchor="middle" dy=".4em" transform="translate(58,8)">h1_copy</text><text text-anchor="start" dy=".4em" transform="translate(6,23)">Entries </text><text text-anchor="end" dy=".4em" transform="translate(109,23)"> 100000</text><text text-anchor="start" dy=".4em" transform="translate(6,38)">Mean x </text><text text-anchor="end" dy=".4em" transform="translate(109,38)"> 0.002674</text><text text-anchor="start" dy=".4em" transform="translate(6,54)">Mean y </text><text text-anchor="end" dy=".4em" transform="translate(109,54)"> -0.003226</text><text text-anchor="start" dy=".4em" transform="translate(6,69)">Std Dev x </text><text text-anchor="end" dy=".4em" transform="translate(109,69)"> 0.9970</text><text text-anchor="start" dy=".4em" transform="translate(6,84)">Std Dev y </text><text text-anchor="end" dy=".4em" transform="translate(109,84)"> 0.9989</text><path d="M0,15h115" style="stroke: #000000; stroke-width: 1;"></path></g></g></svg><svg viewBox="0 0 576 384" preserveAspectRatio="none" x="612" y="8" width="576" height="384"><path d="M0,0H576V384H0Z" style="fill: #ffffff;"></path><g><g transform="translate(58,38)"><path d="M0,0H461V307H0Z" style="fill: #ffffff; stroke: #000000; stroke-width: 1;"></path><svg x="0" y="0" overflow="hidden" width="461" height="307" viewBox="0 0 461 307"><g><path d="M202,284h-3h3zM258,268h-62v1h62zM267,253h-66v1h66zM260,238h-65h65zM264,222h-68v1h68zM261,206h-63v3h63zM262,190h-61v4h61zM262,173h-63v7h63zM262,157h-62v9h62zM261,141h-61v10h61zM261,127h-62v7h62zM262,112h-62v6h62zM262,98h-63v3h63zM263,84h-63v1h63zM262,69h-63h63zM258,53h-59v1h59zM250,38h-52v1h52zM228,23h-110h110z" style="stroke: #000099; stroke-width: 1; fill: none;"></path><path d="M201,284M203,284M198,284M202,284h1M199,284h-1M237,268v1M286,268v1M138,268v1M258,269h28M196,269h-58M233,253v1M364,253v1M138,253v1M267,254h97M201,254h-63M231,238M360,238M97,238M260,238h100M195,238h-98M230,222v1M373,222v1M97,222v1M264,223h109M196,223h-99M229,206v3M364,206v3M106,206v3M261,208h103M198,208h-92M231,190v4M360,190v4M106,190v4M262,192h98M201,192h-95M231,173v7M364,173v7M101,173v7M262,177h102M199,177h-98M231,157v9M364,157v9M106,157v9M262,162h102M200,162h-94M230,141v10M360,141v10M106,141v10M261,146h99M200,146h-94M230,127v7M360,127v7M106,127v7M261,131h99M199,131h-93M231,112v6M360,112v6M106,112v6M262,115h98M200,115h-94M231,98v3M364,98v3M101,98v3M262,100h102M199,100h-98M232,84v1M364,84v1M106,84v1M263,85h101M200,85h-94M231,69M355,69M106,69M262,69h93M199,69h-93M229,53v1M327,53v1M106,53v1M258,54h69M199,54h-93M219,38v1M313,38v1M134,38v1M250,39h63M198,39h-64M173,23M231,23M115,23M228,23h3M118,23h-3" style="stroke: #000099; stroke-width: 1; fill: none;"></path><path d="M201,284M225,268v1M234,253v1M229,238M230,222v1M230,206v3M231,190v4M231,173v7M231,157v9M230,141v10M230,127v7M231,112v6M231,98v3M231,84v1M232,69M228,53v1M225,38v1M173,23" style="stroke: #000099; stroke-width: 1; stroke-dasharray: 3,3; fill: none;"></path><path d="M91,234l8,8m0,-8l-8,8M66,219l8,8m0,-8l-8,8M68,219l8,8m0,-8l-8,8M77,219l8,8m0,-8l-8,8M81,219l8,8m0,-8l-8,8M85,219l8,8m0,-8l-8,8M87,219l8,8m0,-8l-8,8M376,219l8,8m0,-8l-8,8M381,219l8,8m0,-8l-8,8M67,204l8,8m0,-8l-8,8M72,204l8,8m0,-8l-8,8M81,204l8,8m0,-8l-8,8M89,204l8,8m0,-8l-8,8M91,204l8,8m0,-8l-8,8M95,204l8,8m0,-8l-8,8M362,204l8,8m0,-8l-8,8M363,204l8,8m0,-8l-8,8M361,204l8,8m0,-8l-8,8M368,204l8,8m0,-8l-8,8M368,204l8,8m0,-8l-8,8M386,204l8,8m0,-8l-8,8M399,204l8,8m0,-8l-8,8M404,204l8,8m0,-8l-8,8M422,204l8,8m0,-8l-8,8M441,204l8,8m0,-8l-8,8M54,188l8,8m0,-8l-8,8M63,188l8,8m0,-8l-8,8M66,188l8,8m0,-8l-8,8M68,188l8,8m0,-8l-8,8M72,188l8,8m0,-8l-8,8M80,188l8,8m0,-8l-8,8M82,188l8,8m0,-8l-8,8M84,188l8,8m0,-8l-8,8M87,188l8,8m0,-8l-8,8M92,188l8,8m0,-8l-8,8M90,188l8,8m0,-8l-8,8M88,188l8,8m0,-8l-8,8M92,188l8,8m0,-8l-8,8M93,188l8,8m0,-8l-8,8M89,188l8,8m0,-8l-8,8M89,188l8,8m0,-8l-8,8M96,188l8,8m0,-8l-8,8M96,188l8,8m0,-8l-8,8M95,188l8,8m0,-8l-8,8M95,188l8,8m0,-8l-8,8M94,188l8,8m0,-8l-8,8M94,188l8,8m0,-8l-8,8M102,188l8,8m0,-8l-8,8M98,188l8,8m0,-8l-8,8M98,188l8,8m0,-8l-8,8M99,188l8,8m0,-8l-8,8M98,188l8,8m0,-8l-8,8M359,188l8,8m0,-8l-8,8M357,188l8,8m0,-8l-8,8M359,188l8,8m0,-8l-8,8M359,188l8,8m0,-8l-8,8M356,188l8,8m0,-8l-8,8M363,188l8,8m0,-8l-8,8M360,188l8,8m0,-8l-8,8M360,188l8,8m0,-8l-8,8M365,188l8,8m0,-8l-8,8M367,188l8,8m0,-8l-8,8M367,188l8,8m0,-8l-8,8M371,188l8,8m0,-8l-8,8M370,188l8,8m0,-8l-8,8M371,188l8,8m0,-8l-8,8M371,188l8,8m0,-8l-8,8M376,188l8,8m0,-8l-8,8M392,188l8,8m0,-8l-8,8M392,188l8,8m0,-8l-8,8M26,173l8,8m0,-8l-8,8M40,173l8,8m0,-8l-8,8M49,173l8,8m0,-8l-8,8M63,173l8,8m0,-8l-8,8M71,173l8,8m0,-8l-8,8M72,173l8,8m0,-8l-8,8M76,173l8,8m0,-8l-8,8M77,173l8,8m0,-8l-8,8M75,173l8,8m0,-8l-8,8M82,173l8,8m0,-8l-8,8M82,173l8,8m0,-8l-8,8M81,173l8,8m0,-8l-8,8M79,173l8,8m0,-8l-8,8M83,173l8,8m0,-8l-8,8M83,173l8,8m0,-8l-8,8M80,173l8,8m0,-8l-8,8M84,173l8,8m0,-8l-8,8M86,173l8,8m0,-8l-8,8M92,173l8,8m0,-8l-8,8M90,173l8,8m0,-8l-8,8M90,173l8,8m0,-8l-8,8M89,173l8,8m0,-8l-8,8M89,173l8,8m0,-8l-8,8M93,173l8,8m0,-8l-8,8M89,173l8,8m0,-8l-8,8M93,173l8,8m0,-8l-8,8M94,173l8,8m0,-8l-8,8M93,173l8,8m0,-8l-8,8M96,173l8,8m0,-8l-8,8M94,173l8,8m0,-8l-8,8M96,173l8,8m0,-8l-8,8M97,173l8,8m0,-8l-8,8M94,173l8,8m0,-8l-8,8M96,173l8,8m0,-8l-8,8M93,173l8,8m0,-8l-8,8M93,173l8,8m0,-8l-8,8M93,173l8,8m0,-8l-8,8M95,173l8,8m0,-8l-8,8M95,173l8,8m0,-8l-8,8M95,173l8,8m0,-8l-8,8M93,173l8,8m0,-8l-8,8M362,173l8,8m0,-8l-8,8M362,173l8,8m0,-8l-8,8M364,173l8,8m0,-8l-8,8M364,173l8,8m0,-8l-8,8M362,173l8,8m0,-8l-8,8M363,173l8,8m0,-8l-8,8M365,173l8,8m0,-8l-8,8M365,173l8,8m0,-8l-8,8M365,173l8,8m0,-8l-8,8M365,173l8,8m0,-8l-8,8M366,173l8,8m0,-8l-8,8M365,173l8,8m0,-8l-8,8M366,173l8,8m0,-8l-8,8M374,173l8,8m0,-8l-8,8M374,173l8,8m0,-8l-8,8M370,173l8,8m0,-8l-8,8M373,173l8,8m0,-8l-8,8M371,173l8,8m0,-8l-8,8M381,173l8,8m0,-8l-8,8M381,173l8,8m0,-8l-8,8M379,173l8,8m0,-8l-8,8M388,173l8,8m0,-8l-8,8M392,173l8,8m0,-8l-8,8M399,173l8,8m0,-8l-8,8M404,173l8,8m0,-8l-8,8M402,173l8,8m0,-8l-8,8M49,158l8,8m0,-8l-8,8M57,158l8,8m0,-8l-8,8M59,158l8,8m0,-8l-8,8M62,158l8,8m0,-8l-8,8M63,158l8,8m0,-8l-8,8M67,158l8,8m0,-8l-8,8M70,158l8,8m0,-8l-8,8M73,158l8,8m0,-8l-8,8M78,158l8,8m0,-8l-8,8M77,158l8,8m0,-8l-8,8M74,158l8,8m0,-8l-8,8M78,158l8,8m0,-8l-8,8M79,158l8,8m0,-8l-8,8M75,158l8,8m0,-8l-8,8M81,158l8,8m0,-8l-8,8M84,158l8,8m0,-8l-8,8M86,158l8,8m0,-8l-8,8M87,158l8,8m0,-8l-8,8M86,158l8,8m0,-8l-8,8M85,158l8,8m0,-8l-8,8M84,158l8,8m0,-8l-8,8M85,158l8,8m0,-8l-8,8M88,158l8,8m0,-8l-8,8M84,158l8,8m0,-8l-8,8M84,158l8,8m0,-8l-8,8M85,158l8,8m0,-8l-8,8M84,158l8,8m0,-8l-8,8M92,158l8,8m0,-8l-8,8M90,158l8,8m0,-8l-8,8M92,158l8,8m0,-8l-8,8M92,158l8,8m0,-8l-8,8M89,158l8,8m0,-8l-8,8M91,158l8,8m0,-8l-8,8M88,158l8,8m0,-8l-8,8M89,158l8,8m0,-8l-8,8M88,158l8,8m0,-8l-8,8M91,158l8,8m0,-8l-8,8M91,158l8,8m0,-8l-8,8M90,158l8,8m0,-8l-8,8M88,158l8,8m0,-8l-8,8M94,158l8,8m0,-8l-8,8M94,158l8,8m0,-8l-8,8M97,158l8,8m0,-8l-8,8M97,158l8,8m0,-8l-8,8M95,158l8,8m0,-8l-8,8M96,158l8,8m0,-8l-8,8M98,158l8,8m0,-8l-8,8M97,158l8,8m0,-8l-8,8M98,158l8,8m0,-8l-8,8M98,158l8,8m0,-8l-8,8M99,158l8,8m0,-8l-8,8M98,158l8,8m0,-8l-8,8M98,158l8,8m0,-8l-8,8M102,158l8,8m0,-8l-8,8M102,158l8,8m0,-8l-8,8M98,158l8,8m0,-8l-8,8M101,158l8,8m0,-8l-8,8M99,158l8,8m0,-8l-8,8M100,158l8,8m0,-8l-8,8M100,158l8,8m0,-8l-8,8M98,158l8,8m0,-8l-8,8M98,158l8,8m0,-8l-8,8M364,158l8,8m0,-8l-8,8M362,158l8,8m0,-8l-8,8M360,158l8,8m0,-8l-8,8M364,158l8,8m0,-8l-8,8M361,158l8,8m0,-8l-8,8M361,158l8,8m0,-8l-8,8M365,158l8,8m0,-8l-8,8M366,158l8,8m0,-8l-8,8M366,158l8,8m0,-8l-8,8M366,158l8,8m0,-8l-8,8M369,158l8,8m0,-8l-8,8M369,158l8,8m0,-8l-8,8M367,158l8,8m0,-8l-8,8M367,158l8,8m0,-8l-8,8M366,158l8,8m0,-8l-8,8M366,158l8,8m0,-8l-8,8M371,158l8,8m0,-8l-8,8M371,158l8,8m0,-8l-8,8M370,158l8,8m0,-8l-8,8M373,158l8,8m0,-8l-8,8M372,158l8,8m0,-8l-8,8M374,158l8,8m0,-8l-8,8M376,158l8,8m0,-8l-8,8M381,158l8,8m0,-8l-8,8M385,158l8,8m0,-8l-8,8M387,158l8,8m0,-8l-8,8M395,158l8,8m0,-8l-8,8M399,158l8,8m0,-8l-8,8M63,142l8,8m0,-8l-8,8M66,142l8,8m0,-8l-8,8M68,142l8,8m0,-8l-8,8M67,142l8,8m0,-8l-8,8M68,142l8,8m0,-8l-8,8M70,142l8,8m0,-8l-8,8M73,142l8,8m0,-8l-8,8M73,142l8,8m0,-8l-8,8M77,142l8,8m0,-8l-8,8M74,142l8,8m0,-8l-8,8M78,142l8,8m0,-8l-8,8M79,142l8,8m0,-8l-8,8M75,142l8,8m0,-8l-8,8M75,142l8,8m0,-8l-8,8M77,142l8,8m0,-8l-8,8M78,142l8,8m0,-8l-8,8M81,142l8,8m0,-8l-8,8M81,142l8,8m0,-8l-8,8M80,142l8,8m0,-8l-8,8M80,142l8,8m0,-8l-8,8M84,142l8,8m0,-8l-8,8M79,142l8,8m0,-8l-8,8M80,142l8,8m0,-8l-8,8M80,142l8,8m0,-8l-8,8M84,142l8,8m0,-8l-8,8M87,142l8,8m0,-8l-8,8M85,142l8,8m0,-8l-8,8M87,142l8,8m0,-8l-8,8M87,142l8,8m0,-8l-8,8M84,142l8,8m0,-8l-8,8M87,142l8,8m0,-8l-8,8M84,142l8,8m0,-8l-8,8M84,142l8,8m0,-8l-8,8M84,142l8,8m0,-8l-8,8M86,142l8,8m0,-8l-8,8M86,142l8,8m0,-8l-8,8M85,142l8,8m0,-8l-8,8M84,142l8,8m0,-8l-8,8M90,142l8,8m0,-8l-8,8M90,142l8,8m0,-8l-8,8M92,142l8,8m0,-8l-8,8M92,142l8,8m0,-8l-8,8M90,142l8,8m0,-8l-8,8M91,142l8,8m0,-8l-8,8M89,142l8,8m0,-8l-8,8M88,142l8,8m0,-8l-8,8M89,142l8,8m0,-8l-8,8M93,142l8,8m0,-8l-8,8M94,142l8,8m0,-8l-8,8M93,142l8,8m0,-8l-8,8M94,142l8,8m0,-8l-8,8M97,142l8,8m0,-8l-8,8M97,142l8,8m0,-8l-8,8M94,142l8,8m0,-8l-8,8M97,142l8,8m0,-8l-8,8M94,142l8,8m0,-8l-8,8M95,142l8,8m0,-8l-8,8M96,142l8,8m0,-8l-8,8M93,142l8,8m0,-8l-8,8M98,142l8,8m0,-8l-8,8M102,142l8,8m0,-8l-8,8M99,142l8,8m0,-8l-8,8M98,142l8,8m0,-8l-8,8M101,142l8,8m0,-8l-8,8M98,142l8,8m0,-8l-8,8M98,142l8,8m0,-8l-8,8M102,142l8,8m0,-8l-8,8M99,142l8,8m0,-8l-8,8M98,142l8,8m0,-8l-8,8M99,142l8,8m0,-8l-8,8M101,142l8,8m0,-8l-8,8M102,142l8,8m0,-8l-8,8M99,142l8,8m0,-8l-8,8M100,142l8,8m0,-8l-8,8M98,142l8,8m0,-8l-8,8M98,142l8,8m0,-8l-8,8M99,142l8,8m0,-8l-8,8M99,142l8,8m0,-8l-8,8M356,142l8,8m0,-8l-8,8M360,142l8,8m0,-8l-8,8M359,142l8,8m0,-8l-8,8M356,142l8,8m0,-8l-8,8M358,142l8,8m0,-8l-8,8M357,142l8,8m0,-8l-8,8M359,142l8,8m0,-8l-8,8M358,142l8,8m0,-8l-8,8M360,142l8,8m0,-8l-8,8M356,142l8,8m0,-8l-8,8M358,142l8,8m0,-8l-8,8M359,142l8,8m0,-8l-8,8M359,142l8,8m0,-8l-8,8M363,142l8,8m0,-8l-8,8M362,142l8,8m0,-8l-8,8M364,142l8,8m0,-8l-8,8M362,142l8,8m0,-8l-8,8M360,142l8,8m0,-8l-8,8M361,142l8,8m0,-8l-8,8M369,142l8,8m0,-8l-8,8M366,142l8,8m0,-8l-8,8M366,142l8,8m0,-8l-8,8M367,142l8,8m0,-8l-8,8M368,142l8,8m0,-8l-8,8M367,142l8,8m0,-8l-8,8M366,142l8,8m0,-8l-8,8M365,142l8,8m0,-8l-8,8M372,142l8,8m0,-8l-8,8M374,142l8,8m0,-8l-8,8M372,142l8,8m0,-8l-8,8M376,142l8,8m0,-8l-8,8M377,142l8,8m0,-8l-8,8M374,142l8,8m0,-8l-8,8M376,142l8,8m0,-8l-8,8M374,142l8,8m0,-8l-8,8M379,142l8,8m0,-8l-8,8M382,142l8,8m0,-8l-8,8M380,142l8,8m0,-8l-8,8M379,142l8,8m0,-8l-8,8M383,142l8,8m0,-8l-8,8M386,142l8,8m0,-8l-8,8M387,142l8,8m0,-8l-8,8M395,142l8,8m0,-8l-8,8M397,142l8,8m0,-8l-8,8M398,142l8,8m0,-8l-8,8M402,142l8,8m0,-8l-8,8M57,127l8,8m0,-8l-8,8M59,127l8,8m0,-8l-8,8M62,127l8,8m0,-8l-8,8M63,127l8,8m0,-8l-8,8M66,127l8,8m0,-8l-8,8M68,127l8,8m0,-8l-8,8M69,127l8,8m0,-8l-8,8M72,127l8,8m0,-8l-8,8M70,127l8,8m0,-8l-8,8M77,127l8,8m0,-8l-8,8M83,127l8,8m0,-8l-8,8M83,127l8,8m0,-8l-8,8M80,127l8,8m0,-8l-8,8M80,127l8,8m0,-8l-8,8M86,127l8,8m0,-8l-8,8M87,127l8,8m0,-8l-8,8M86,127l8,8m0,-8l-8,8M85,127l8,8m0,-8l-8,8M84,127l8,8m0,-8l-8,8M85,127l8,8m0,-8l-8,8M88,127l8,8m0,-8l-8,8M84,127l8,8m0,-8l-8,8M89,127l8,8m0,-8l-8,8M89,127l8,8m0,-8l-8,8M89,127l8,8m0,-8l-8,8M92,127l8,8m0,-8l-8,8M90,127l8,8m0,-8l-8,8M92,127l8,8m0,-8l-8,8M92,127l8,8m0,-8l-8,8M89,127l8,8m0,-8l-8,8M91,127l8,8m0,-8l-8,8M88,127l8,8m0,-8l-8,8M89,127l8,8m0,-8l-8,8M88,127l8,8m0,-8l-8,8M95,127l8,8m0,-8l-8,8M95,127l8,8m0,-8l-8,8M95,127l8,8m0,-8l-8,8M93,127l8,8m0,-8l-8,8M94,127l8,8m0,-8l-8,8M94,127l8,8m0,-8l-8,8M97,127l8,8m0,-8l-8,8M101,127l8,8m0,-8l-8,8M99,127l8,8m0,-8l-8,8M101,127l8,8m0,-8l-8,8M98,127l8,8m0,-8l-8,8M97,127l8,8m0,-8l-8,8M98,127l8,8m0,-8l-8,8M98,127l8,8m0,-8l-8,8M99,127l8,8m0,-8l-8,8M98,127l8,8m0,-8l-8,8M98,127l8,8m0,-8l-8,8M102,127l8,8m0,-8l-8,8M102,127l8,8m0,-8l-8,8M98,127l8,8m0,-8l-8,8M101,127l8,8m0,-8l-8,8M99,127l8,8m0,-8l-8,8M100,127l8,8m0,-8l-8,8M358,127l8,8m0,-8l-8,8M356,127l8,8m0,-8l-8,8M356,127l8,8m0,-8l-8,8M360,127l8,8m0,-8l-8,8M358,127l8,8m0,-8l-8,8M356,127l8,8m0,-8l-8,8M359,127l8,8m0,-8l-8,8M361,127l8,8m0,-8l-8,8M361,127l8,8m0,-8l-8,8M365,127l8,8m0,-8l-8,8M362,127l8,8m0,-8l-8,8M361,127l8,8m0,-8l-8,8M362,127l8,8m0,-8l-8,8M369,127l8,8m0,-8l-8,8M369,127l8,8m0,-8l-8,8M367,127l8,8m0,-8l-8,8M367,127l8,8m0,-8l-8,8M366,127l8,8m0,-8l-8,8M366,127l8,8m0,-8l-8,8M367,127l8,8m0,-8l-8,8M371,127l8,8m0,-8l-8,8M370,127l8,8m0,-8l-8,8M378,127l8,8m0,-8l-8,8M377,127l8,8m0,-8l-8,8M379,127l8,8m0,-8l-8,8M381,127l8,8m0,-8l-8,8M386,127l8,8m0,-8l-8,8M389,127l8,8m0,-8l-8,8M391,127l8,8m0,-8l-8,8M395,127l8,8m0,-8l-8,8M399,127l8,8m0,-8l-8,8M44,111l8,8m0,-8l-8,8M63,111l8,8m0,-8l-8,8M71,111l8,8m0,-8l-8,8M72,111l8,8m0,-8l-8,8M71,111l8,8m0,-8l-8,8M81,111l8,8m0,-8l-8,8M87,111l8,8m0,-8l-8,8M84,111l8,8m0,-8l-8,8M87,111l8,8m0,-8l-8,8M92,111l8,8m0,-8l-8,8M90,111l8,8m0,-8l-8,8M88,111l8,8m0,-8l-8,8M92,111l8,8m0,-8l-8,8M93,111l8,8m0,-8l-8,8M93,111l8,8m0,-8l-8,8M94,111l8,8m0,-8l-8,8M96,111l8,8m0,-8l-8,8M96,111l8,8m0,-8l-8,8M100,111l8,8m0,-8l-8,8M99,111l8,8m0,-8l-8,8M98,111l8,8m0,-8l-8,8M99,111l8,8m0,-8l-8,8M102,111l8,8m0,-8l-8,8M98,111l8,8m0,-8l-8,8M98,111l8,8m0,-8l-8,8M99,111l8,8m0,-8l-8,8M98,111l8,8m0,-8l-8,8M359,111l8,8m0,-8l-8,8M357,111l8,8m0,-8l-8,8M359,111l8,8m0,-8l-8,8M359,111l8,8m0,-8l-8,8M356,111l8,8m0,-8l-8,8M359,111l8,8m0,-8l-8,8M360,111l8,8m0,-8l-8,8M360,111l8,8m0,-8l-8,8M360,111l8,8m0,-8l-8,8M363,111l8,8m0,-8l-8,8M363,111l8,8m0,-8l-8,8M362,111l8,8m0,-8l-8,8M360,111l8,8m0,-8l-8,8M362,111l8,8m0,-8l-8,8M366,111l8,8m0,-8l-8,8M369,111l8,8m0,-8l-8,8M369,111l8,8m0,-8l-8,8M367,111l8,8m0,-8l-8,8M368,111l8,8m0,-8l-8,8M365,111l8,8m0,-8l-8,8M369,111l8,8m0,-8l-8,8M370,111l8,8m0,-8l-8,8M374,111l8,8m0,-8l-8,8M375,111l8,8m0,-8l-8,8M379,111l8,8m0,-8l-8,8M379,111l8,8m0,-8l-8,8M387,111l8,8m0,-8l-8,8M387,111l8,8m0,-8l-8,8M390,111l8,8m0,-8l-8,8M413,111l8,8m0,-8l-8,8M40,96l8,8m0,-8l-8,8M58,96l8,8m0,-8l-8,8M77,96l8,8m0,-8l-8,8M81,96l8,8m0,-8l-8,8M85,96l8,8m0,-8l-8,8M86,96l8,8m0,-8l-8,8M85,96l8,8m0,-8l-8,8M91,96l8,8m0,-8l-8,8M89,96l8,8m0,-8l-8,8M92,96l8,8m0,-8l-8,8M92,96l8,8m0,-8l-8,8M95,96l8,8m0,-8l-8,8M93,96l8,8m0,-8l-8,8M97,96l8,8m0,-8l-8,8M365,96l8,8m0,-8l-8,8M361,96l8,8m0,-8l-8,8M361,96l8,8m0,-8l-8,8M367,96l8,8m0,-8l-8,8M377,96l8,8m0,-8l-8,8M378,96l8,8m0,-8l-8,8M386,96l8,8m0,-8l-8,8M399,96l8,8m0,-8l-8,8M427,96l8,8m0,-8l-8,8M91,81l8,8m0,-8l-8,8M95,81l8,8m0,-8l-8,8M98,81l8,8m0,-8l-8,8M100,81l8,8m0,-8l-8,8M362,81l8,8m0,-8l-8,8M372,81l8,8m0,-8l-8,8M86,65l8,8m0,-8l-8,8" style="stroke: #000099; fill: none;"></path></g></svg><g><g transform="translate(0,307)"><path d="M0,0h461M0,-12V0M9,-6V0M18,-6V0M28,-6V0M37,-6V0M46,-12V0M55,-6V0M65,-6V0M74,-6V0M83,-6V0M92,-12V0M101,-6V0M111,-6V0M120,-6V0M129,-6V0M138,-12V0M148,-6V0M157,-6V0M166,-6V0M175,-6V0M184,-12V0M194,-6V0M203,-6V0M212,-6V0M221,-6V0M231,-12V0M240,-6V0M249,-6V0M258,-6V0M267,-6V0M277,-12V0M286,-6V0M295,-6V0M304,-6V0M313,-6V0M323,-12V0M332,-6V0M341,-6V0M350,-6V0M360,-6V0M369,-12V0M378,-6V0M387,-6V0M396,-6V0M406,-6V0M415,-12V0M424,-6V0M433,-6V0M443,-6V0M452,-6V0M461,-12V0" style="stroke: #000000; stroke-width: 1;"></path><g font-family="Arial" font-size="13" space="preserve" fill="#000000" text-anchor="middle"><text dy=".8em" transform="translate(0,3)">-5</text><text dy=".8em" transform="translate(46,3)">-4</text><text dy=".8em" transform="translate(92,3)">-3</text><text dy=".8em" transform="translate(138,3)">-2</text><text dy=".8em" transform="translate(184,3)">-1</text><text dy=".8em" transform="translate(231,3)">0</text><text dy=".8em" transform="translate(277,3)">1</text><text dy=".8em" transform="translate(323,3)">2</text><text dy=".8em" transform="translate(369,3)">3</text><text dy=".8em" transform="translate(415,3)">4</text><text dy=".8em" transform="translate(461,3)">5</text></g></g><g><path d="M0,0v307M17,307H0M9,301H0M9,295H0M9,289H0M9,282H0M17,276H0M9,270H0M9,264H0M9,258H0M9,252H0M17,246H0M9,239H0M9,233H0M9,227H0M9,221H0M17,215H0M9,209H0M9,203H0M9,196H0M9,190H0M17,184H0M9,178H0M9,172H0M9,166H0M9,160H0M17,154H0M9,147H0M9,141H0M9,135H0M9,129H0M17,123H0M9,117H0M9,111H0M9,104H0M9,98H0M17,92H0M9,86H0M9,80H0M9,74H0M9,68H0M17,61H0M9,55H0M9,49H0M9,43H0M9,37H0M17,31H0M9,25H0M9,18H0M9,12H0M9,6H0M17,0H0" style="stroke: #000000; stroke-width: 1;"></path><g font-family="Arial" font-size="13" space="preserve" fill="#000000" text-anchor="end"><text dy=".4em" transform="translate(-3,307)">-5</text><text dy=".4em" transform="translate(-3,276)">-4</text><text dy=".4em" transform="translate(-3,246)">-3</text><text dy=".4em" transform="translate(-3,215)">-2</text><text dy=".4em" transform="translate(-3,184)">-1</text><text dy=".4em" transform="translate(-3,154)">0</text><text dy=".4em" transform="translate(-3,123)">1</text><text dy=".4em" transform="translate(-3,92)">2</text><text dy=".4em" transform="translate(-3,61)">3</text><text dy=".4em" transform="translate(-3,31)">4</text><text dy=".4em" transform="translate(-3)">5</text></g></g></g></g><g transform="translate(58,2)" font-family="Arial" font-size="19" space="preserve"><text fill="#000000" text-anchor="middle" dy=".8em" transform="translate(231)">CandleY scaled</text></g><g transform="translate(449,25)" font-family="Arial" font-size="10" space="preserve" fill="#000000"><path d="M0,0H115V92H0Z" style="fill: #ffffff; stroke: #000000; stroke-width: 1;"></path><text text-anchor="middle" dy=".4em" transform="translate(58,8)">h3_copy</text><text text-anchor="start" dy=".4em" transform="translate(6,23)">Entries </text><text text-anchor="end" dy=".4em" transform="translate(109,23)"> 100000</text><text text-anchor="start" dy=".4em" transform="translate(6,38)">Mean x </text><text text-anchor="end" dy=".4em" transform="translate(109,38)"> 0.002674</text><text text-anchor="start" dy=".4em" transform="translate(6,54)">Mean y </text><text text-anchor="end" dy=".4em" transform="translate(109,54)"> -0.003226</text><text text-anchor="start" dy=".4em" transform="translate(6,69)">Std Dev x </text><text text-anchor="end" dy=".4em" transform="translate(109,69)"> 0.9970</text><text text-anchor="start" dy=".4em" transform="translate(6,84)">Std Dev y </text><text text-anchor="end" dy=".4em" transform="translate(109,84)"> 0.9989</text><path d="M0,15h115" style="stroke: #000000; stroke-width: 1;"></path></g></g></svg><svg viewBox="0 0 576 384" preserveAspectRatio="none" x="12" y="408" width="576" height="384"><path d="M0,0H576V384H0Z" style="fill: #ffffff;"></path><g><g transform="translate(58,38)"><path d="M0,0H461V307H0Z" style="fill: #ffffff; stroke: #000000; stroke-width: 1;"></path><svg x="0" y="0" overflow="hidden" width="461" height="307" viewBox="0 0 461 307"><g><path d="M35,307v-307M58,307v-307M81,307v-307M104,307v-307M127,307v-307M150,307v-307M173,307v-307M196,307v-307M219,307v-307M243,307v-307M266,307v-307M289,307v-307M312,307v-307M335,307v-307M358,307v-307M381,307v-307M404,307v-307M427,307v-307M450,307v-307" style="stroke: #666666;"></path><path d="M35,184h9v-3h-9v-9h9v-3h-9v-71h9v-3h-18v3h9v71h-9v3h9v9h-9v3h9M58,187h9v-3h-9v-3h5v-6h-5v-9h5v-6h4v-3h-4v-3h-5v-7h5v-3h-5v-9h5v-12h-5v-3h5v-6h-5v-13h5v-3h-10v3h5v13h-5v6h5v3h-5v12h5v9h-5v3h5v7h-5v3h-4v3h4v6h5v9h-5v6h5v3h-9v3h9M81,230h1v-9h2v-3h-3v-3h2v-3h-2v-6h1v-3h-1v-3h5v-4h-5v-3h1v-9h-1v-3h5v-3h-3v-3h3v-6h3v-3h-3v-3h1v-3h-3v-6h6v-4h-1v-3h1v-3h-1v-6h-5v-3h-1v-3h3v-3h-2v-3h4v-3h-6v-3h2v-3h-3v-3h1v-3h1v-4h-2v-3h3v-3h-2v-3h-1v-3h1v-3h-1v-24h1v-4h-2v4h1v24h-1v3h1v3h-1v3h-2v3h3v3h-2v4h1v3h1v3h-3v3h2v3h-6v3h4v3h-2v3h3v3h-1v3h-5v6h-1v3h1v3h-1v4h6v6h-3v3h1v3h-3v3h3v6h3v3h-3v3h5v3h-1v9h1v3h-5v4h5v3h-1v3h1v6h-2v3h2v3h-3v3h2v9h1M104,246v-13h1v-3h-1v-12h2v-3h-1v-3h-1v-3h1v-3h2v-3h-2v-3h2v-4h1v-6h-1v-3h1v-3h-1v-3h5v-3h-1v-3h-1v-3h3v-3h-1v-3h-2v-3h1v-3h2v-3h-2v-3h2v-4h-1v-3h-1v-3h-3v-3h5v-3h-3v-3h-1v-3h1v-3h-1v-6h-2v-6h2v-3h-1v-3h-1v-10h-1v-3h-1v-12h-1v-3h1v-6h-1v-31v31h-1v6h1v3h-1v12h-1v3h-1v10h-1v3h-1v3h2v6h-2v6h-1v3h1v3h-1v3h-3v3h5v3h-3v3h-1v3h-1v4h2v3h-2v3h2v3h1v3h-2v3h-1v3h3v3h-1v3h-1v3h5v3h-1v3h1v3h-1v6h1v4h2v3h-2v3h2v3h1v3h-1v3h-1v3h2v12h-1v3h1v13M127,243v-19h1v-6h1v-3h-1v-6h1v-6h1v-16h1v-3h1v-3h3v-3h-2v-3h1v-6h2v-3h-1v-6h-1v-3h2v-13h-2v-3h-2v-3h1v-3h1v-3h-1v-3h-1v-6h-1v-3h-1v-6h-1v-3h-1v-4h2v-3h-1v-6h-1v-3h1v-3h-1v-6h-1v-3h1v-3h-1v-52v52h-1v3h1v3h-1v6h-1v3h1v3h-1v6h-1v3h2v4h-1v3h-1v6h-1v3h-1v6h-1v3h-1v3h1v3h1v3h-2v3h-2v13h2v3h-1v6h-1v3h2v6h1v3h-2v3h3v3h1v3h1v16h1v6h1v6h-1v3h1v6h1v19M150,267v-40h1v-15h1v-9h1v-10h1v-9h1v-3h1v-6h1v-6h1v-9h1v-3h-1v-7h1v-3h-1v-9h-1v-6h-1v-9h-1v-3h-1v-6h-1v-10h-1v-6h-1v-18h-1v-34v34h-1v18h-1v6h-1v10h-1v6h-1v3h-1v9h-1v6h-1v9h-1v3h1v7h-1v3h1v9h1v6h1v6h1v3h1v9h1v10h1v9h1v15h1v40M173,270v-40h1v-18h1v-9h1v-7h1v-12h2v-6h1v-12h2v-19h-1v-12h-1v-3h-1v-6h-1v-9h-1v-6h-2v-13h-1v-18h-1v-49v49h-1v18h-1v13h-2v6h-1v9h-1v6h-1v3h-1v12h-1v19h2v12h1v6h2v12h1v7h1v9h1v18h1v40M196,279v-52h1v-15h1v-6h1v-3h-1v-3h1v-7h1v-6h1v-3h1v-6h1v-6h1v-6h1v-3h-1v-3h1v-16h-1v-9h-1v-6h-1v-6h-1v-9h-1v-3h-1v-4h-1v-9h-1v-18h-1v-49v49h-1v18h-1v9h-1v4h-1v3h-1v9h-1v6h-1v6h-1v9h-1v16h1v3h-1v3h1v6h1v6h1v6h1v3h1v6h1v7h1v3h-1v3h1v6h1v15h1v52M219,264v-37h1v-12h1v-9h1v-10h1v-6h1v-6h1v-6h1v-3h1v-6h1v-9h1v-3h-1v-3h1v-4h-1v-15h-2v-9h-1v-6h-1v-6h-1v-3h-1v-7h-1v-9h-1v-15h-1v-65v65h-1v15h-1v9h-1v7h-1v3h-1v6h-1v6h-1v9h-2v15h-1v4h1v3h-1v3h1v9h1v6h1v3h1v6h1v6h1v6h1v10h1v9h1v12h1v37M243,270v-46h1v-12h1v-12h1v-7h1v-6h1v-6h1v-3h1v-12h1v-6h1v-3h-1v-3h1v-7h-1v-6h-1v-6h-1v-12h-1v-3h-1v-6h-1v-7h-1v-9h-1v-18h-1v-43v43h-1v18h-1v9h-1v7h-1v6h-1v3h-1v12h-1v6h-1v6h-1v7h1v3h-1v3h1v6h1v12h1v3h1v6h1v6h1v7h1v12h1v12h1v46M266,270v-46h1v-15h1v-3h1v-13h1v-6h1v-6h1v-3h1v-3h1v-3h-1v-3h1v-3h1v-16h-1v-12h-1v-3h-1v-12h-1v-6h-1v-10h-1v-3h-1v-9h-1v-15h-1v-40v40h-1v15h-1v9h-1v3h-1v10h-1v6h-1v12h-1v3h-1v12h-1v16h1v3h1v3h-1v3h1v3h1v3h1v6h1v6h1v13h1v3h1v15h1v46M289,264v-40h1v-15h1v-3h1v-13h1v-6h1v-9h2v-6h1v-3h1v-25h-1v-9h-1v-3h1v-3h-2v-3h-1v-6h-1v-9h-1v-4h-1v-9h-1v-12h-1v-3h1v-3h-1v-37v37h-1v3h1v3h-1v12h-1v9h-1v4h-1v9h-1v6h-1v3h-2v3h1v3h-1v9h-1v25h1v3h1v6h2v9h1v6h1v13h1v3h1v15h1v40M312,258v-34h1v-15h1v-9h2v-10h-1v-3h1v-3h1v-6h2v-9h1v-3h1v-3h-1v-3h1v-3h-1v-3h-1v-4h1v-6h1v-3h-2v-6h1v-3h-3v-3h1v-3h-2v-15h-1v-4h-1v-9h-1v-18h-1v-46v46h-1v18h-1v9h-1v4h-1v15h-2v3h1v3h-3v3h1v6h-2v3h1v6h1v4h-1v3h-1v3h1v3h-1v3h1v3h1v9h2v6h1v3h1v3h-1v10h2v9h1v15h1v34M335,252v-9h1v-4h-1v-6h1v-3h-1v-3h1v-12h1v-3h-1v-3h2v-13h1v-12h3v-9h-1v-3h-1v-3h4v-9h-2v-3h2v-7h-1v-3h1v-6h-1v-3h-2v-3h3v-3h-2v-6h-1v-3h-1v-6h-2v-3h1v-3h-1v-4h1v-3h-1v-3h-1v-3h-1v-15h-1v-6h1v-3h-1v-19v19h-1v3h1v6h-1v15h-1v3h-1v3h-1v3h1v4h-1v3h1v3h-2v6h-1v3h-1v6h-2v3h3v3h-2v3h-1v6h1v3h-1v7h2v3h-2v9h4v3h-1v3h-1v9h3v12h1v13h2v3h-1v3h1v12h1v3h-1v3h1v6h-1v4h1v9M358,252v-19h1v-12h-1v-3h1v-3h1v-3h-2v-3h3v-3h-1v-10h1v-3h1v-6h2v-3h-1v-3h1v-6h2v-6h1v-3h-3v-3h1v-6h2v-3h-1v-4h1v-3h-2v-3h1v-6h-2v-6h-1v-3h1v-3h1v-3h-2v-3h-2v-6h1v-3h1v-4h-2v-3h-1v-6h-1v-3h1v-3h-1v-3h1v-3h-2v-18v18h-2v3h1v3h-1v3h1v3h-1v6h-1v3h-2v4h1v3h1v6h-2v3h-2v3h1v3h1v3h-1v6h-2v6h1v3h-2v3h1v4h-1v3h2v6h1v3h-3v3h1v6h2v6h1v3h-1v3h2v6h1v3h1v10h-1v3h3v3h-2v3h1v3h1v3h-1v12h1v19M381,221h3v-3h-3v-6h1v-6h-1v-3h1v-7h1v-6h-1v-3h1v-3h-1v-3h3v-9h-2v-3h1v-3h-1v-3h1v-3h1v-3h3v-3h-3v-4h1v-3h4v-3h-6v-3h-1v-6h3v-3h-3v-3h2v-3h-3v-3h2v-3h1v-3h-2v-3h1v-3h-1v-4h-1v-9h-1v-3h1v-3h-1v-3h1v-3h-2v3h1v3h-1v3h1v3h-1v9h-1v4h-1v3h1v3h-2v3h1v3h2v3h-3v3h2v3h-3v3h3v6h-1v3h-6v3h4v3h1v4h-3v3h3v3h1v3h1v3h-1v3h1v3h-2v9h3v3h-1v3h1v3h-1v6h1v7h1v3h-1v6h1v6h-3v3h3M404,212h5v-3h-5v-6h5v-3h-5v-4h5v-6h-5v-6h9v-3h-4v-3h-5v-3h5v-6h-5v-3h5v-6h-5v-10h5v-6h-5v-3h9v-3h-4v-3h-5v-3h5v-3h-5v-3h9v-3h-9v-6h5v-3h-5v-10h5v-3h-10v3h5v10h-5v3h5v6h-9v3h9v3h-5v3h5v3h-5v3h-4v3h9v3h-5v6h5v10h-5v6h5v3h-5v6h5v3h-5v3h-4v3h9v6h-5v6h5v4h-5v3h5v6h-5v3h5M427,212h9v-3h-9v-89h9v-3h-9v-16h9v-3h-18v3h9v16h-9v3h9v89h-9v3h9M450,203h9v-3h-18v3h9" style="stroke: #0000ff; fill: none;"></path><path d="M35,97v-2M35,182v2M58,127v-29M58,165v22M81,137v-73M81,169v61M104,132v-86M104,174v72M127,134v-106M127,174v69M150,133v-87M150,174v93M173,134v-103M173,175v95M196,133v-102M196,174v105M219,133v-118M219,174v90M243,133v-96M243,174v96M266,133v-93M266,174v96M289,133v-90M289,174v90M312,134v-100M312,174v84M335,132v-77M335,176v76M358,132v-64M358,175v77M381,132v-46M381,173v48M404,136v-35M404,182v30M427,101v-3M427,210v2M450,200M450,202v1" style="stroke: #0000ff; stroke-width: 1; fill: none;"></path><path d="M31,150a4,4,0,1,0,8,0a4,4,0,1,0,-8,0zM54,148a4,4,0,1,0,8,0a4,4,0,1,0,-8,0zM77,154a4,4,0,1,0,8,0a4,4,0,1,0,-8,0zM100,153a4,4,0,1,0,8,0a4,4,0,1,0,-8,0zM123,155a4,4,0,1,0,8,0a4,4,0,1,0,-8,0zM146,154a4,4,0,1,0,8,0a4,4,0,1,0,-8,0zM169,154a4,4,0,1,0,8,0a4,4,0,1,0,-8,0zM192,153a4,4,0,1,0,8,0a4,4,0,1,0,-8,0zM215,154a4,4,0,1,0,8,0a4,4,0,1,0,-8,0zM239,153a4,4,0,1,0,8,0a4,4,0,1,0,-8,0zM262,153a4,4,0,1,0,8,0a4,4,0,1,0,-8,0zM285,154a4,4,0,1,0,8,0a4,4,0,1,0,-8,0zM308,154a4,4,0,1,0,8,0a4,4,0,1,0,-8,0zM331,153a4,4,0,1,0,8,0a4,4,0,1,0,-8,0zM354,154a4,4,0,1,0,8,0a4,4,0,1,0,-8,0zM377,152a4,4,0,1,0,8,0a4,4,0,1,0,-8,0zM400,158a4,4,0,1,0,8,0a4,4,0,1,0,-8,0zM423,143a4,4,0,1,0,8,0a4,4,0,1,0,-8,0zM446,201a4,4,0,1,0,8,0a4,4,0,1,0,-8,0z" style="stroke: #0000ff; fill: none;"></path></g></svg><g><g transform="translate(0,307)"><path d="M0,0h461M0,-12V0M9,-6V0M18,-6V0M28,-6V0M37,-6V0M46,-12V0M55,-6V0M65,-6V0M74,-6V0M83,-6V0M92,-12V0M101,-6V0M111,-6V0M120,-6V0M129,-6V0M138,-12V0M148,-6V0M157,-6V0M166,-6V0M175,-6V0M184,-12V0M194,-6V0M203,-6V0M212,-6V0M221,-6V0M231,-12V0M240,-6V0M249,-6V0M258,-6V0M267,-6V0M277,-12V0M286,-6V0M295,-6V0M304,-6V0M313,-6V0M323,-12V0M332,-6V0M341,-6V0M350,-6V0M360,-6V0M369,-12V0M378,-6V0M387,-6V0M396,-6V0M406,-6V0M415,-12V0M424,-6V0M433,-6V0M443,-6V0M452,-6V0M461,-12V0" style="stroke: #000000; stroke-width: 1;"></path><g font-family="Arial" font-size="13" space="preserve" fill="#000000" text-anchor="middle"><text dy=".8em" transform="translate(0,3)">-5</text><text dy=".8em" transform="translate(46,3)">-4</text><text dy=".8em" transform="translate(92,3)">-3</text><text dy=".8em" transform="translate(138,3)">-2</text><text dy=".8em" transform="translate(184,3)">-1</text><text dy=".8em" transform="translate(231,3)">0</text><text dy=".8em" transform="translate(277,3)">1</text><text dy=".8em" transform="translate(323,3)">2</text><text dy=".8em" transform="translate(369,3)">3</text><text dy=".8em" transform="translate(415,3)">4</text><text dy=".8em" transform="translate(461,3)">5</text></g></g><g><path d="M0,0v307M17,307H0M9,301H0M9,295H0M9,289H0M9,282H0M17,276H0M9,270H0M9,264H0M9,258H0M9,252H0M17,246H0M9,239H0M9,233H0M9,227H0M9,221H0M17,215H0M9,209H0M9,203H0M9,196H0M9,190H0M17,184H0M9,178H0M9,172H0M9,166H0M9,160H0M17,154H0M9,147H0M9,141H0M9,135H0M9,129H0M17,123H0M9,117H0M9,111H0M9,104H0M9,98H0M17,92H0M9,86H0M9,80H0M9,74H0M9,68H0M17,61H0M9,55H0M9,49H0M9,43H0M9,37H0M17,31H0M9,25H0M9,18H0M9,12H0M9,6H0M17,0H0" style="stroke: #000000; stroke-width: 1;"></path><g font-family="Arial" font-size="13" space="preserve" fill="#000000" text-anchor="end"><text dy=".4em" transform="translate(-3,307)">-5</text><text dy=".4em" transform="translate(-3,276)">-4</text><text dy=".4em" transform="translate(-3,246)">-3</text><text dy=".4em" transform="translate(-3,215)">-2</text><text dy=".4em" transform="translate(-3,184)">-1</text><text dy=".4em" transform="translate(-3,154)">0</text><text dy=".4em" transform="translate(-3,123)">1</text><text dy=".4em" transform="translate(-3,92)">2</text><text dy=".4em" transform="translate(-3,61)">3</text><text dy=".4em" transform="translate(-3,31)">4</text><text dy=".4em" transform="translate(-3)">5</text></g></g></g></g><g transform="translate(58,2)" font-family="Arial" font-size="19" space="preserve"><text fill="#000000" text-anchor="middle" dy=".8em" transform="translate(231)">ViolinX unscaled</text></g><g transform="translate(449,25)" font-family="Arial" font-size="10" space="preserve" fill="#000000"><path d="M0,0H115V92H0Z" style="fill: #ffffff; stroke: #000000; stroke-width: 1;"></path><text text-anchor="middle" dy=".4em" transform="translate(58,8)">h1_copy</text><text text-anchor="start" dy=".4em" transform="translate(6,23)">Entries </text><text text-anchor="end" dy=".4em" transform="translate(109,23)"> 100000</text><text text-anchor="start" dy=".4em" transform="translate(6,38)">Mean x </text><text text-anchor="end" dy=".4em" transform="translate(109,38)"> 0.002674</text><text text-anchor="start" dy=".4em" transform="translate(6,54)">Mean y </text><text text-anchor="end" dy=".4em" transform="translate(109,54)"> -0.003226</text><text text-anchor="start" dy=".4em" transform="translate(6,69)">Std Dev x </text><text text-anchor="end" dy=".4em" transform="translate(109,69)"> 0.9970</text><text text-anchor="start" dy=".4em" transform="translate(6,84)">Std Dev y </text><text text-anchor="end" dy=".4em" transform="translate(109,84)"> 0.9989</text><path d="M0,15h115" style="stroke: #000000; stroke-width: 1;"></path></g></g></svg><svg viewBox="0 0 576 384" preserveAspectRatio="none" x="612" y="408" width="576" height="384"><path d="M0,0H576V384H0Z" style="fill: #ffffff;"></path><g><g transform="translate(58,38)"><path d="M0,0H461V307H0Z" style="fill: #ffffff; stroke: #000000; stroke-width: 1;"></path><svg x="0" y="0" overflow="hidden" width="461" height="307" viewBox="0 0 461 307"><g><path d="M0,284h461M0,269h461M0,254h461M0,238h461M0,223h461M0,208h461M0,192h461M0,177h461M0,162h461M0,146h461M0,131h461M0,115h461M0,100h461M0,85h461M0,69h461M0,54h461M0,39h461M0,23h461" style="stroke: #666666;"></path><path d="M198,284v-6h5v12h-5v-6M138,269v-3h10v3h13v-3h5v3h5v-3h4v3h14v-3h5v3h4v-3h9v3h10v-3h9v3h9v-6h5v3h4v3h5v-6h5v3h9v3h4v-3h19v6h-19v-3h-4v3h-9v3h-5v-6h-5v3h-4v3h-5v-6h-9v3h-9v-3h-10v3h-9v-3h-4v3h-5v-3h-14v3h-4v-3h-5v3h-5v-3h-13v3h-10v-3M138,254v-1h5v1h9v-1h5v-2h4v1h5v1h5v1h4v-5h5v3h4v-1h10v1h4v-2h5v-2h4v4h5v-3h5v2h18v2h5v-3h4v-2h5v3h9v1h5v-1h4v1h5v-1h5v-1h4v2h5v-1h4v1h10v2h4v-3h5v2h4v1h14v-2h5v2h28v-1h4v2h-4v-1h-28v2h-5v-2h-14v1h-4v2h-5v-3h-4v2h-10v1h-4v-1h-5v2h-4v-1h-5v-1h-5v1h-4v-1h-5v1h-9v3h-5v-2h-4v-3h-5v2h-18v2h-5v-3h-5v4h-4v-2h-5v-2h-4v1h-10v-1h-4v3h-5v-5h-4v1h-5v1h-5v1h-4v-2h-5v-1h-9v1h-5v-1M92,238h42v-1h18v-1h5v1h4v-1h5v1h5v-1h4v-2h5v1h4v-1h5v1h5v-1h4v3h5v-4h14v1h4v1h5v-1h5v-1h4v-1h5v2h4v-2h5v3h5v-2h4v2h5v-2h4v3h5v-1h5v1h23v1h13v1h5v-2h5v1h9v1h9v-1h5v1h14h-14v1h-5v-1h-9v1h-9v1h-5v-2h-5v1h-13v1h-23v1h-5v-1h-5v3h-4v-2h-5v2h-4v-2h-5v3h-5v-2h-4v2h-5v-1h-4v-1h-5v-1h-5v1h-4v1h-14v-4h-5v3h-4v-1h-5v1h-5v-1h-4v1h-5v-2h-4v-1h-5v1h-5v-1h-4v1h-5v-1h-18v-1h-42M69,223h60v-1h19v-1h18v-1h14v-2h4v1h14v-2h5v2h4v-2h5v2h5v-1h18v-1h9v1h5v1h5v-1h4v1h5v-1h9v1h5v1h13v1h14v1h5v-1h4v1h19v1h9v-1h5v1h41h-41v1h-5v-1h-9v1h-19v1h-4v-1h-5v1h-14v1h-13v1h-5v1h-9v-1h-5v1h-14v1h-9v-1h-18v-1h-5v2h-5v-2h-4v2h-5v-2h-14v1h-4v-2h-14v-1h-18v-1h-19v-1h-60M69,208h55v-1h33v-1h14v-1h13v-1h10v-1h4v1h5v-1h4v-1h5v1h5v-1h4v1h10v-1h4v1h23v1h9v1h5v-1h5v1h9v1h18v1h28v1h5v-1h4v1h106h-106v1h-4v-1h-5v1h-28v1h-18v1h-9v1h-5v-1h-5v1h-9v1h-23v1h-4v-1h-10v1h-4v-1h-5v1h-5v-1h-4v-1h-5v1h-4v-1h-10v-1h-13v-1h-14v-1h-33v-1h-55M55,192h74v-1h28v-1h9v-1h5v1h4v-1h9v-1h10v-1h9v-1h51v1h13v1h14v1h14v1h9v1h28v1h64h-64v1h-28v1h-9v1h-14v1h-14v1h-13v1h-51v-1h-9v-1h-10v-1h-9v-1h-4v1h-5v-1h-9v-1h-28v-1h-74M28,177h96v-1h28v-1h19v-1h9v-1h14v-1h27v-1h28v1h14v1h18v1h9v1h14v1h28v1h78h-78v1h-28v1h-14v1h-9v1h-18v1h-14v1h-28v-1h-27v-1h-14v-1h-9v-1h-19v-1h-28v-1h-96M51,162h78v-1h28v-1h14v-1h13v-1h14v-1h19v-1h27v1h19v1h18v1h5v1h23v1h23v1h74h-74v1h-23v1h-23v1h-5v1h-18v1h-19v1h-27v-1h-19v-1h-14v-1h-13v-1h-14v-1h-28v-1h-78M65,146h64v-1h23v-1h19v-1h9v-1h14v-1h4v-1h5v1h4v-1h42v1h14v1h14v1h13v1h19v1h23v1h74h-74v1h-23v1h-19v1h-13v1h-14v1h-14v1h-42v-1h-4v1h-5v-1h-4v-1h-14v-1h-9v-1h-19v-1h-23v-1h-64M60,131h69v-1h28v-1h14v-1h13v-1h10v-1h18v-1h23v1h5v-1h9v1h9v1h23v1h9v1h14v1h33v1h69h-69v1h-33v1h-14v1h-9v1h-23v1h-9v1h-9v-1h-5v1h-23v-1h-18v-1h-10v-1h-13v-1h-14v-1h-28v-1h-69M46,115h88v-1h23v-1h18v-1h9v-1h10v-1h18v-1h23v1h5v-1h9v1h14v1h14v1h13v1h14v1h28v1h88h-88v1h-28v1h-14v1h-13v1h-14v1h-14v1h-9v-1h-5v1h-23v-1h-18v-1h-10v-1h-9v-1h-18v-1h-23v-1h-88M41,100h88v-1h32v-1h10v-1h18v-1h14v-1h4v1h5v-1h19v-1h9v1h14v-1h4v1h5v1h14v1h13v1h14v1h23v1h5v-1h9v1h92h-92v1h-9v-1h-5v1h-23v1h-14v1h-13v1h-14v1h-5v1h-4v-1h-14v1h-9v-1h-19v-1h-5v1h-4v-1h-14v-1h-18v-1h-10v-1h-32v-1h-88M92,85h28v-1h4v1h10v-1h14v-1h13v-1h5v1h5v-1h13v-1h5v1h5v-1h4v-1h9v1h5v-1h14v-1h14v1h18v1h5v-1h9v2h5v1h4v-2h5v1h4v1h10v1h27v1h5v-1h5v1h41h-41v1h-5v-1h-5v1h-27v1h-10v1h-4v1h-5v-2h-4v1h-5v2h-9v-1h-5v1h-18v1h-14v-1h-14v-1h-5v1h-9v-1h-4v-1h-5v1h-5v-1h-13v-1h-5v1h-5v-1h-13v-1h-14v-1h-10v1h-4v-1h-28M88,69h36v-1h5v1h9v-1h14v-1h5v1h4v-1h10v-1h13v-1h5v1h5v-2h4v2h5v-2h14v1h4v-1h10v-1h9v1h4v1h5v-2h5v3h4v-2h5v2h14v1h4v-2h5v1h4v2h5v-1h5v1h4v-1h5v1h41v1h5h-5v1h-41v1h-5v-1h-4v1h-5v-1h-5v2h-4v1h-5v-2h-4v1h-14v2h-5v-2h-4v3h-5v-2h-5v1h-4v1h-9v-1h-10v-1h-4v1h-14v-2h-5v2h-4v-2h-5v1h-5v-1h-13v-1h-10v-1h-4v1h-5v-1h-14v-1h-9v1h-5v-1h-36M106,54v-1h9v1h14v-1h5v1h4v-1h10v-1h4v-1h5v3h4v-2h10v1h4v-2h5v1h14v-2h4v2h5v-1h4v-3h5v1h9v3h5v-3h5v1h9v1h4v1h5v-3h5v1h9v2h4v1h5v-2h5v1h9v2h4v-3h10v1h4v1h5v1h4v-1h5v-1h9v4h-9v-1h-5v-1h-4v1h-5v1h-4v1h-10v-3h-4v2h-9v1h-5v-2h-5v1h-4v2h-9v1h-5v-3h-5v1h-4v1h-9v1h-5v-3h-5v3h-9v1h-5v-3h-4v-1h-5v2h-4v-2h-14v1h-5v-2h-4v1h-10v-2h-4v3h-5v-1h-4v-1h-10v-1h-4v1h-5v-1h-14v1h-9v-1M134,39v-2h4v2h42v-4h4v4h10v-4h4v2h5v2h4v-2h10v-4h4v6h14v-6h5v6h9v-2h5v2h18v-4h5v4h4v-2h5v2h23v-2h4v4h-4v-2h-23v2h-5v-2h-4v4h-5v-4h-18v2h-5v-2h-9v6h-5v-6h-14v6h-4v-4h-10v-2h-4v2h-5v2h-4v-4h-10v4h-4v-4h-42v2h-4v-2M115,23v-6h5v6h106v-6h5v12h-5v-6h-106v6h-5v-6" style="stroke: #0000ff; fill: none;"></path><path d="M202,284h1M199,284h-1M258,269h28M196,269h-58M267,254h97M201,254h-63M260,238h100M195,238h-103M264,223h123M196,223h-127M261,208h186M198,208h-129M262,192h134M201,192h-146M262,177h148M199,177h-171M262,162h144M200,162h-149M261,146h145M200,146h-135M261,131h145M199,131h-139M262,115h158M200,115h-154M262,100h171M199,100h-158M263,85h115M200,85h-108M262,69h93M199,69h-111M258,54h69M199,54h-93M250,39h63M198,39h-64M228,23h3M118,23h-3" style="stroke: #0000ff; stroke-width: 1; fill: none;"></path><path d="M197,284a4,4,0,1,0,8,0a4,4,0,1,0,-8,0zM221,269a4,4,0,1,0,8,0a4,4,0,1,0,-8,0zM230,254a4,4,0,1,0,8,0a4,4,0,1,0,-8,0zM225,238a4,4,0,1,0,8,0a4,4,0,1,0,-8,0zM226,223a4,4,0,1,0,8,0a4,4,0,1,0,-8,0zM226,208a4,4,0,1,0,8,0a4,4,0,1,0,-8,0zM227,192a4,4,0,1,0,8,0a4,4,0,1,0,-8,0zM227,177a4,4,0,1,0,8,0a4,4,0,1,0,-8,0zM227,162a4,4,0,1,0,8,0a4,4,0,1,0,-8,0zM226,146a4,4,0,1,0,8,0a4,4,0,1,0,-8,0zM226,131a4,4,0,1,0,8,0a4,4,0,1,0,-8,0zM227,115a4,4,0,1,0,8,0a4,4,0,1,0,-8,0zM227,100a4,4,0,1,0,8,0a4,4,0,1,0,-8,0zM227,85a4,4,0,1,0,8,0a4,4,0,1,0,-8,0zM228,69a4,4,0,1,0,8,0a4,4,0,1,0,-8,0zM224,54a4,4,0,1,0,8,0a4,4,0,1,0,-8,0zM221,39a4,4,0,1,0,8,0a4,4,0,1,0,-8,0zM169,23a4,4,0,1,0,8,0a4,4,0,1,0,-8,0z" style="stroke: #0000ff; fill: none;"></path></g></svg><g><g transform="translate(0,307)"><path d="M0,0h461M0,-12V0M9,-6V0M18,-6V0M28,-6V0M37,-6V0M46,-12V0M55,-6V0M65,-6V0M74,-6V0M83,-6V0M92,-12V0M101,-6V0M111,-6V0M120,-6V0M129,-6V0M138,-12V0M148,-6V0M157,-6V0M166,-6V0M175,-6V0M184,-12V0M194,-6V0M203,-6V0M212,-6V0M221,-6V0M231,-12V0M240,-6V0M249,-6V0M258,-6V0M267,-6V0M277,-12V0M286,-6V0M295,-6V0M304,-6V0M313,-6V0M323,-12V0M332,-6V0M341,-6V0M350,-6V0M360,-6V0M369,-12V0M378,-6V0M387,-6V0M396,-6V0M406,-6V0M415,-12V0M424,-6V0M433,-6V0M443,-6V0M452,-6V0M461,-12V0" style="stroke: #000000; stroke-width: 1;"></path><g font-family="Arial" font-size="13" space="preserve" fill="#000000" text-anchor="middle"><text dy=".8em" transform="translate(0,3)">-5</text><text dy=".8em" transform="translate(46,3)">-4</text><text dy=".8em" transform="translate(92,3)">-3</text><text dy=".8em" transform="translate(138,3)">-2</text><text dy=".8em" transform="translate(184,3)">-1</text><text dy=".8em" transform="translate(231,3)">0</text><text dy=".8em" transform="translate(277,3)">1</text><text dy=".8em" transform="translate(323,3)">2</text><text dy=".8em" transform="translate(369,3)">3</text><text dy=".8em" transform="translate(415,3)">4</text><text dy=".8em" transform="translate(461,3)">5</text></g></g><g><path d="M0,0v307M17,307H0M9,301H0M9,295H0M9,289H0M9,282H0M17,276H0M9,270H0M9,264H0M9,258H0M9,252H0M17,246H0M9,239H0M9,233H0M9,227H0M9,221H0M17,215H0M9,209H0M9,203H0M9,196H0M9,190H0M17,184H0M9,178H0M9,172H0M9,166H0M9,160H0M17,154H0M9,147H0M9,141H0M9,135H0M9,129H0M17,123H0M9,117H0M9,111H0M9,104H0M9,98H0M17,92H0M9,86H0M9,80H0M9,74H0M9,68H0M17,61H0M9,55H0M9,49H0M9,43H0M9,37H0M17,31H0M9,25H0M9,18H0M9,12H0M9,6H0M17,0H0" style="stroke: #000000; stroke-width: 1;"></path><g font-family="Arial" font-size="13" space="preserve" fill="#000000" text-anchor="end"><text dy=".4em" transform="translate(-3,307)">-5</text><text dy=".4em" transform="translate(-3,276)">-4</text><text dy=".4em" transform="translate(-3,246)">-3</text><text dy=".4em" transform="translate(-3,215)">-2</text><text dy=".4em" transform="translate(-3,184)">-1</text><text dy=".4em" transform="translate(-3,154)">0</text><text dy=".4em" transform="translate(-3,123)">1</text><text dy=".4em" transform="translate(-3,92)">2</text><text dy=".4em" transform="translate(-3,61)">3</text><text dy=".4em" transform="translate(-3,31)">4</text><text dy=".4em" transform="translate(-3)">5</text></g></g></g></g><g transform="translate(58,2)" font-family="Arial" font-size="19" space="preserve"><text fill="#000000" text-anchor="middle" dy=".8em" transform="translate(231)">ViolinY unscaled</text></g><g transform="translate(449,25)" font-family="Arial" font-size="10" space="preserve" fill="#000000"><path d="M0,0H115V92H0Z" style="fill: #ffffff; stroke: #000000; stroke-width: 1;"></path><text text-anchor="middle" dy=".4em" transform="translate(58,8)">h3_copy</text><text text-anchor="start" dy=".4em" transform="translate(6,23)">Entries </text><text text-anchor="end" dy=".4em" transform="translate(109,23)"> 100000</text><text text-anchor="start" dy=".4em" transform="translate(6,38)">Mean x </text><text text-anchor="end" dy=".4em" transform="translate(109,38)"> 0.002674</text><text text-anchor="start" dy=".4em" transform="translate(6,54)">Mean y </text><text text-anchor="end" dy=".4em" transform="translate(109,54)"> -0.003226</text><text text-anchor="start" dy=".4em" transform="translate(6,69)">Std Dev x </text><text text-anchor="end" dy=".4em" transform="translate(109,69)"> 0.9970</text><text text-anchor="start" dy=".4em" transform="translate(6,84)">Std Dev y </text><text text-anchor="end" dy=".4em" transform="translate(109,84)"> 0.9989</text><path d="M0,15h115" style="stroke: #000000; stroke-width: 1;"></path></g></g></svg></g></svg>