<svg xmlns="http://www.w3.org/2000/svg" viewBox="0 0 1200 800" preserveAspectRatio="none" width="1200" height="800"><path d="M0,0H1200V800H0Z" style="fill: #ffffff;"></path><g><g transform="translate(192,40)"><path d="M0,0H948V632H0Z" style="fill: #ffffff; stroke: #000000; stroke-width: 1;"></path><svg x="0" y="0" overflow="hidden" width="948" height="632" viewBox="0 0 948 632"><g><path d="M4,253v43h32v-43zM83,237v45h32v-45zM162,234v41h32v-41zM241,231v42h32v-42zM320,235v42h32v-42zM399,240v43h32v-43zM478,252v43h32v-43zM557,264v43h32v-43zM636,279v41h32v-41zM715,296v42h32v-42zM794,313v39h32v-39zM873,329v42h32v-42z" style="stroke: #000000; stroke-width: 2; fill: #ffff00;"></path><path d="M4,275h32M4,186h32M4,361h32M20,253v-67M20,296v65M83,259h32M83,171h32M83,349h32M99,237v-66M99,282v67M162,255h32M162,173h32M162,334h32M178,234v-61M178,275v59M241,252h32M241,168h32M241,333h32M257,231v-63M257,273v60M320,256h32M320,172h32M320,340h32M336,235v-63M336,277v63M399,262h32M399,177h32M399,348h32M415,240v-63M415,283v65M478,274h32M478,188h32M478,359h32M494,252v-64M494,295v64M557,287h32M557,199h32M557,372h32M573,264v-65M573,307v65M636,300h32M636,219h32M636,375h32M652,279v-60M652,320v55M715,315h32M715,234h32M715,394h32M731,296v-62M731,338v56M794,332h32M794,253h32M794,411h32M810,313v-60M810,352v59M873,349h32M873,265h32M873,432h32M889,329v-64M889,371v61" style="stroke: #000000; stroke-width: 2; fill: none;"></path><path d="M4,275h32M83,259h32M162,256h32M241,252h32M320,256h32M399,262h32M478,273h32M557,286h32M636,300h32M715,316h32M794,333h32M873,349h32" style="stroke: #000000; stroke-width: 2; stroke-dasharray: 3,3; fill: none;"></path><path d="M15,373l10,10m0,-10l-10,10M15,370l10,10m0,-10l-10,10M15,367l10,10m0,-10l-10,10M15,364l10,10m0,-10l-10,10M15,359l10,10m0,-10l-10,10M15,359l10,10m0,-10l-10,10M15,181l10,10m0,-10l-10,10M15,180l10,10m0,-10l-10,10M15,177l10,10m0,-10l-10,10M15,175l10,10m0,-10l-10,10M15,163l10,10m0,-10l-10,10M15,162l10,10m0,-10l-10,10M15,160l10,10m0,-10l-10,10M15,149l10,10m0,-10l-10,10M94,347l10,10m0,-10l-10,10M94,163l10,10m0,-10l-10,10M94,162l10,10m0,-10l-10,10M94,158l10,10m0,-10l-10,10M94,151l10,10m0,-10l-10,10M173,356l10,10m0,-10l-10,10M173,338l10,10m0,-10l-10,10M173,335l10,10m0,-10l-10,10M173,334l10,10m0,-10l-10,10M173,332l10,10m0,-10l-10,10M173,159l10,10m0,-10l-10,10M173,153l10,10m0,-10l-10,10M252,376l10,10m0,-10l-10,10M252,348l10,10m0,-10l-10,10M252,343l10,10m0,-10l-10,10M252,334l10,10m0,-10l-10,10M252,333l10,10m0,-10l-10,10M252,159l10,10m0,-10l-10,10M252,152l10,10m0,-10l-10,10M252,111l10,10m0,-10l-10,10M331,364l10,10m0,-10l-10,10M331,351l10,10m0,-10l-10,10M331,342l10,10m0,-10l-10,10M331,341l10,10m0,-10l-10,10M331,336l10,10m0,-10l-10,10M331,165l10,10m0,-10l-10,10M331,161l10,10m0,-10l-10,10M331,155l10,10m0,-10l-10,10M331,148l10,10m0,-10l-10,10M331,143l10,10m0,-10l-10,10M410,361l10,10m0,-10l-10,10M410,168l10,10m0,-10l-10,10M410,168l10,10m0,-10l-10,10M410,166l10,10m0,-10l-10,10M410,165l10,10m0,-10l-10,10M489,364l10,10m0,-10l-10,10M489,181l10,10m0,-10l-10,10M568,375l10,10m0,-10l-10,10M568,373l10,10m0,-10l-10,10M568,192l10,10m0,-10l-10,10M568,171l10,10m0,-10l-10,10M647,395l10,10m0,-10l-10,10M647,392l10,10m0,-10l-10,10M647,381l10,10m0,-10l-10,10M647,381l10,10m0,-10l-10,10M647,213l10,10m0,-10l-10,10M647,210l10,10m0,-10l-10,10M647,194l10,10m0,-10l-10,10M726,405l10,10m0,-10l-10,10M726,401l10,10m0,-10l-10,10M726,227l10,10m0,-10l-10,10M726,225l10,10m0,-10l-10,10M726,221l10,10m0,-10l-10,10M726,219l10,10m0,-10l-10,10M805,427l10,10m0,-10l-10,10M805,419l10,10m0,-10l-10,10M805,417l10,10m0,-10l-10,10M805,411l10,10m0,-10l-10,10M805,409l10,10m0,-10l-10,10M805,408l10,10m0,-10l-10,10M805,247l10,10m0,-10l-10,10M805,247l10,10m0,-10l-10,10M805,244l10,10m0,-10l-10,10M805,240l10,10m0,-10l-10,10M805,229l10,10m0,-10l-10,10M884,447l10,10m0,-10l-10,10M884,443l10,10m0,-10l-10,10M884,436l10,10m0,-10l-10,10M884,259l10,10m0,-10l-10,10M884,259l10,10m0,-10l-10,10M884,253l10,10m0,-10l-10,10M884,251l10,10m0,-10l-10,10M884,249l10,10m0,-10l-10,10M884,246l10,10m0,-10l-10,10" style="stroke: #000000; fill: none;"></path></g><g><path d="M43,223v59h32v-59zM122,235v60h32v-60zM201,243v62h32v-62zM280,256v59h32v-59zM359,266v61h32v-61zM438,280v63h32v-63zM517,298v58h32v-58zM596,311v60h32v-60zM675,324v59h32v-59zM754,334v58h32v-58zM833,346v63h32v-63zM912,346v62h32v-62z" style="stroke: #ff0000; stroke-width: 2; fill: #00ff00;"></path><path d="M43,252h32M43,136h32M43,371h32M59,223v-87M59,282v89M122,264h32M122,146h32M122,379h32M138,235v-89M138,295v84M201,274h32M201,149h32M201,394h32M217,243v-94M217,305v89M280,285h32M280,169h32M280,403h32M296,256v-87M296,315v88M359,297h32M359,173h32M359,418h32M375,266v-93M375,327v91M438,312h32M438,190h32M438,435h32M454,280v-90M454,343v92M517,327h32M517,217h32M517,442h32M533,298v-81M533,356v86M596,339h32M596,230h32M596,459h32M612,311v-81M612,371v88M675,354h32M675,238h32M675,468h32M691,324v-86M691,383v85M754,362h32M754,252h32M754,478h32M770,334v-82M770,392v86M833,378h32M833,257h32M833,499h32M849,346v-89M849,409v90M912,378h32M912,253h32M912,494h32M928,346v-93M928,408v86" style="stroke: #ff0000; stroke-width: 2; fill: none;"></path><path d="M54,252a5,5,0,1,0,10,0a5,5,0,1,0,-10,0zM133,264a5,5,0,1,0,10,0a5,5,0,1,0,-10,0zM212,273a5,5,0,1,0,10,0a5,5,0,1,0,-10,0zM291,285a5,5,0,1,0,10,0a5,5,0,1,0,-10,0zM370,296a5,5,0,1,0,10,0a5,5,0,1,0,-10,0zM449,311a5,5,0,1,0,10,0a5,5,0,1,0,-10,0zM528,327a5,5,0,1,0,10,0a5,5,0,1,0,-10,0zM607,340a5,5,0,1,0,10,0a5,5,0,1,0,-10,0zM686,354a5,5,0,1,0,10,0a5,5,0,1,0,-10,0zM765,363a5,5,0,1,0,10,0a5,5,0,1,0,-10,0zM844,377a5,5,0,1,0,10,0a5,5,0,1,0,-10,0zM923,377a5,5,0,1,0,10,0a5,5,0,1,0,-10,0z" style="stroke: #ff0000; fill: none;"></path><path d="M54,416l10,10m0,-10l-10,10M54,390l10,10m0,-10l-10,10M54,373l10,10m0,-10l-10,10M54,368l10,10m0,-10l-10,10M54,368l10,10m0,-10l-10,10M54,368l10,10m0,-10l-10,10M54,122l10,10m0,-10l-10,10M54,119l10,10m0,-10l-10,10M54,117l10,10m0,-10l-10,10M54,117l10,10m0,-10l-10,10M54,100l10,10m0,-10l-10,10M54,98l10,10m0,-10l-10,10M54,92l10,10m0,-10l-10,10M133,380l10,10m0,-10l-10,10M133,138l10,10m0,-10l-10,10M133,104l10,10m0,-10l-10,10M133,80l10,10m0,-10l-10,10M212,409l10,10m0,-10l-10,10M212,143l10,10m0,-10l-10,10M212,140l10,10m0,-10l-10,10M212,138l10,10m0,-10l-10,10M212,119l10,10m0,-10l-10,10M291,445l10,10m0,-10l-10,10M291,437l10,10m0,-10l-10,10M291,423l10,10m0,-10l-10,10M291,417l10,10m0,-10l-10,10M291,409l10,10m0,-10l-10,10M291,408l10,10m0,-10l-10,10M291,400l10,10m0,-10l-10,10M291,144l10,10m0,-10l-10,10M370,445l10,10m0,-10l-10,10M370,426l10,10m0,-10l-10,10M370,419l10,10m0,-10l-10,10M370,415l10,10m0,-10l-10,10M370,151l10,10m0,-10l-10,10M370,150l10,10m0,-10l-10,10M370,148l10,10m0,-10l-10,10M370,147l10,10m0,-10l-10,10M370,146l10,10m0,-10l-10,10M370,143l10,10m0,-10l-10,10M370,141l10,10m0,-10l-10,10M449,450l10,10m0,-10l-10,10M449,170l10,10m0,-10l-10,10M528,457l10,10m0,-10l-10,10M528,452l10,10m0,-10l-10,10M528,450l10,10m0,-10l-10,10M528,443l10,10m0,-10l-10,10M528,442l10,10m0,-10l-10,10M528,201l10,10m0,-10l-10,10M528,198l10,10m0,-10l-10,10M528,195l10,10m0,-10l-10,10M528,189l10,10m0,-10l-10,10M528,184l10,10m0,-10l-10,10M528,172l10,10m0,-10l-10,10M528,162l10,10m0,-10l-10,10M607,472l10,10m0,-10l-10,10M607,214l10,10m0,-10l-10,10M607,208l10,10m0,-10l-10,10M607,207l10,10m0,-10l-10,10M607,207l10,10m0,-10l-10,10M607,206l10,10m0,-10l-10,10M607,193l10,10m0,-10l-10,10M686,475l10,10m0,-10l-10,10M686,474l10,10m0,-10l-10,10M686,471l10,10m0,-10l-10,10M686,469l10,10m0,-10l-10,10M686,223l10,10m0,-10l-10,10M765,509l10,10m0,-10l-10,10M765,509l10,10m0,-10l-10,10M765,491l10,10m0,-10l-10,10M765,482l10,10m0,-10l-10,10M765,477l10,10m0,-10l-10,10M765,233l10,10m0,-10l-10,10M765,227l10,10m0,-10l-10,10M844,510l10,10m0,-10l-10,10M844,500l10,10m0,-10l-10,10M844,499l10,10m0,-10l-10,10M844,242l10,10m0,-10l-10,10M844,239l10,10m0,-10l-10,10M923,524l10,10m0,-10l-10,10M923,497l10,10m0,-10l-10,10M923,241l10,10m0,-10l-10,10M923,240l10,10m0,-10l-10,10M923,200l10,10m0,-10l-10,10" style="stroke: #ff0000; fill: none;"></path></g></svg><g><g transform="translate(0,632)"><path d="M0,0h948M0,-632h948M0,-19V0M234,-19V0M470,-19V0M709,-19V0M948,-19V0M0,-613V-632M234,-613V-632M470,-613V-632M709,-613V-632M948,-613V-632" style="stroke: #000000; stroke-width: 1;"></path><g font-family="Arial" font-size="40" space="preserve" fill="#000000" text-anchor="middle"><text dy=".8em" transform="translate(0,4)">01/01/10</text><text dy=".8em" transform="translate(234,4)">01/04/10</text><text dy=".8em" transform="translate(470,4)">01/07/10</text><text dy=".8em" transform="translate(709,4)">01/10/10</text><text dy=".8em" transform="translate(948,4)">01/01/11</text></g><g font-family="Arial" font-size="40" space="preserve" transform="translate(948,90)"><text fill="#000000" text-anchor="end" dy=".4em">Date [day/month/year]</text></g></g><g><path d="M0,0v632M948,0v632M28,632H0M14,619H0M14,607H0M14,594H0M14,581H0M28,569H0M14,556H0M14,544H0M14,531H0M14,518H0M28,506H0M14,493H0M14,480H0M14,468H0M14,455H0M28,442H0M14,430H0M14,417H0M14,404H0M14,392H0M28,379H0M14,367H0M14,354H0M14,341H0M14,329H0M28,316H0M14,303H0M14,291H0M14,278H0M14,265H0M28,253H0M14,240H0M14,228H0M14,215H0M14,202H0M28,190H0M14,177H0M14,164H0M14,152H0M14,139H0M28,126H0M14,114H0M14,101H0M14,88H0M14,76H0M28,63H0M14,51H0M14,38H0M14,25H0M14,13H0M28,0H0M920,632H948M934,619H948M934,607H948M934,594H948M934,581H948M920,569H948M934,556H948M934,544H948M934,531H948M934,518H948M920,506H948M934,493H948M934,480H948M934,468H948M934,455H948M920,442H948M934,430H948M934,417H948M934,404H948M934,392H948M920,379H948M934,367H948M934,354H948M934,341H948M934,329H948M920,316H948M934,303H948M934,291H948M934,278H948M934,265H948M920,253H948M934,240H948M934,228H948M934,215H948M934,202H948M920,190H948M934,177H948M934,164H948M934,152H948M934,139H948M920,126H948M934,114H948M934,101H948M934,88H948M934,76H948M920,63H948M934,51H948M934,38H948M934,25H948M934,13H948M920,0H948" style="stroke: #000000; stroke-width: 1;"></path><g font-family="Arial" font-size="40" space="preserve" fill="#000000" text-anchor="end"><text dy=".4em" transform="translate(-6,632)">0</text><text dy=".4em" transform="translate(-6,569)">100</text><text dy=".4em" transform="translate(-6,506)">200</text><text dy=".4em" transform="translate(-6,442)">300</text><text dy=".4em" transform="translate(-6,379)">400</text><text dy=".4em" transform="translate(-6,316)">500</text><text dy=".4em" transform="translate(-6,253)">600</text><text dy=".4em" transform="translate(-6,190)">700</text><text dy=".4em" transform="translate(-6,126)">800</text><text dy=".4em" transform="translate(-6,63)">900</text><text dy=".4em" transform="translate(-6)">1000</text></g></g></g></g><g transform="translate(-462,4)" style="display: none;"><path d="M948,2h2v25h-948v-2h946z" style="fill: #000000; stroke: #000000; stroke-width: 1px;"></path><path d="M0,0H948V25H0Z" style="fill: #f2f2f2; stroke: #000000; stroke-width: 1;"></path></g><g transform="translate(936,52)" font-family="Arial" font-size="21" space="preserve" font-weight="bold"><path d="M240,4h4v192h-240v-4h236z" style="fill: #000000; stroke: #000000; stroke-width: 1px;"></path><path d="M0,0H240V192H0Z" style="fill: #ffffff; stroke: #000000; stroke-width: 1;"></path><path d="M7,15v72h46v-72z" style="fill: #ffff00; stroke: #000000; stroke-width: 2;"></path><text fill="#000000" text-anchor="start" dy=".4em" transform="translate(60,51)">Machine A + B</text><path d="M7,105v72h46v-72z" style="fill: #00ff00; stroke: #ff0000; stroke-width: 2;"></path><text fill="#000000" text-anchor="start" dy=".4em" transform="translate(60,141)">Machine B</text></g></g></svg>