<svg xmlns="http://www.w3.org/2000/svg" viewBox="0 0 1200 800" preserveAspectRatio="none" width="1200" height="800"><path d="M0,0H1200V800H0Z" style="fill: #ffffff;"></path><g><svg viewBox="0 0 1176 251" preserveAspectRatio="none" x="12" y="8" width="1176" height="251"><path d="M0,0H1176V251H0Z" style="fill: #ffffff;"></path><g><g transform="translate(118,25)"><path d="M0,0H941V201H0Z" style="fill: #ffffff; stroke: #000000; stroke-width: 1;"></path><svg x="0" y="0" overflow="hidden" width="941" height="201" viewBox="0 0 941 201"><g><path d="M5,194h9h10l9,-1h10h9h9h10h9l10,-1h9h10h9h9l10,-1h9h10l9,-1h9h10l9,-1h10l9,-1l9,-1l10,-1l9,-1l10,-1l9,-1l9,-3l10,-3l9,-5l10,-6l9,-6l10,-8l9,-9l9,-9l10,-10l9,-11l10,-11l9,-11l9,-12l10,-12l9,-11l10,-10l9,-10l9,-8l10,-7l9,-6l10,-4l9,-1h10l9,1l9,4l10,6l9,7l10,8l9,10l9,10l10,11l9,12l10,12l9,11l9,11l10,11l9,10l10,9l9,9l9,8l10,6l9,6l10,6l9,4l10,4l9,3l9,2l10,3l9,1l10,2l9,1l9,1h10l9,1h10h9l9,1h10h9h10h9h9h10h9h10h9h10h9h9h10h9h10" style="fill: none; stroke: #ff0000; stroke-width: 2;"></path></g><g><path d="M5,197h9h10h9h10h9l9,-1h10h9h10h9l10,-1h9h9h10l9,-1h10h9l9,-1h10l9,-1l10,-1h9l9,-1l10,-1l9,-2l10,-1l9,-2l9,-3l10,-4l9,-5l10,-6l9,-6l10,-8l9,-9l9,-9l10,-10l9,-11l10,-11l9,-11l9,-12l10,-12l9,-11l10,-10l9,-10l9,-8l10,-7l9,-6l10,-4l9,-1h10l9,1l9,4l10,6l9,7l10,8l9,10l9,10l10,11l9,12l10,12l9,11l9,11l10,11l9,10l10,9l9,9l9,8l10,6l9,6l10,6l9,4l10,4l9,3l9,2l10,3l9,1l10,2l9,1l9,1h10l9,1h10h9l9,1h10h9h10h9h9h10h9h10h9h10h9h9h10h9h10" style="fill: none; stroke: #00ff00; stroke-width: 2;"></path></g><g><path d="M5,199h9h10h9h10h9h9h10l9,-1h10h9h10h9l9,-1h10h9l10,-1h9l9,-1h10l9,-1l10,-1h9l9,-2l10,-1l9,-1l10,-2l9,-3l9,-3l10,-4l9,-5l10,-6l9,-6l10,-8l9,-9l9,-9l10,-10l9,-11l10,-11l9,-11l9,-12l10,-12l9,-11l10,-10l9,-10l9,-8l10,-7l9,-6l10,-4l9,-1h10l9,1l9,4l10,6l9,7l10,8l9,10l9,10l10,11l9,12l10,12l9,11l9,11l10,11l9,10l10,9l9,9l9,8l10,6l9,6l10,6l9,4l10,4l9,3l9,2l10,3l9,1l10,2l9,1l9,1h10l9,1h10h9l9,1h10h9h10h9h9h10h9h10h9h10h9h9h10h9h10" style="fill: none; stroke: #0000ff; stroke-width: 2;"></path></g></svg><g><g transform="translate(0,201)"><path d="M0,0h941M0,-6V0M19,-3V0M38,-3V0M56,-3V0M75,-3V0M94,-6V0M113,-3V0M132,-3V0M151,-3V0M169,-3V0M188,-6V0M207,-3V0M226,-3V0M245,-3V0M263,-3V0M282,-6V0M301,-3V0M320,-3V0M339,-3V0M358,-3V0M376,-6V0M395,-3V0M414,-3V0M433,-3V0M452,-3V0M471,-6V0M489,-3V0M508,-3V0M527,-3V0M546,-3V0M565,-6V0M583,-3V0M602,-3V0M621,-3V0M640,-3V0M659,-6V0M678,-3V0M696,-3V0M715,-3V0M734,-3V0M753,-6V0M772,-3V0M790,-3V0M809,-3V0M828,-3V0M847,-6V0M866,-3V0M885,-3V0M903,-3V0M922,-3V0M941,-6V0" style="stroke: #000000; stroke-width: 1;"></path><g font-family="Arial" font-size="9" space="preserve" fill="#000000" text-anchor="middle"><text dy=".8em" transform="translate(0,2)">-5</text><text dy=".8em" transform="translate(94,2)">-4</text><text dy=".8em" transform="translate(188,2)">-3</text><text dy=".8em" transform="translate(282,2)">-2</text><text dy=".8em" transform="translate(376,2)">-1</text><text dy=".8em" transform="translate(471,2)">0</text><text dy=".8em" transform="translate(565,2)">1</text><text dy=".8em" transform="translate(659,2)">2</text><text dy=".8em" transform="translate(753,2)">3</text><text dy=".8em" transform="translate(847,2)">4</text><text dy=".8em" transform="translate(941,2)">5</text></g></g><g><path d="M0,0v201M28,201H0M14,197H0M14,193H0M14,189H0M14,186H0M28,182H0M14,178H0M14,174H0M14,170H0M14,166H0M28,163H0M14,159H0M14,155H0M14,151H0M14,147H0M28,143H0M14,140H0M14,136H0M14,132H0M14,128H0M28,124H0M14,120H0M14,117H0M14,113H0M14,109H0M28,105H0M14,101H0M14,97H0M14,94H0M14,90H0M28,86H0M14,82H0M14,78H0M14,74H0M14,71H0M28,67H0M14,63H0M14,59H0M14,55H0M14,51H0M28,48H0M14,44H0M14,40H0M14,36H0M14,32H0M28,28H0M14,25H0M14,21H0M14,17H0M14,13H0M28,9H0M14,5H0M14,2H0" style="stroke: #000000; stroke-width: 1;"></path><g font-family="Arial" font-size="9" space="preserve" fill="#000000" text-anchor="end"><text dy=".4em" transform="translate(-2,201)">0</text><text dy=".4em" transform="translate(-2,182)">0.1</text><text dy=".4em" transform="translate(-2,163)">0.2</text><text dy=".4em" transform="translate(-2,143)">0.3</text><text dy=".4em" transform="translate(-2,124)">0.4</text><text dy=".4em" transform="translate(-2,105)">0.5</text><text dy=".4em" transform="translate(-2,86)">0.6</text><text dy=".4em" transform="translate(-2,67)">0.7</text><text dy=".4em" transform="translate(-2,48)">0.8</text><text dy=".4em" transform="translate(-2,28)">0.9</text><text dy=".4em" transform="translate(-2,9)">1</text></g></g></g></g><g transform="translate(118,1)" font-family="Arial" font-size="13" space="preserve"><text fill="#000000" text-anchor="middle" dy=".8em" transform="translate(471)">crystalball</text></g><g transform="translate(823)" font-family="Arial" font-size="21" space="preserve"><path d="M0,0H235V100H0Z" style="fill: #ffffff; stroke: #000000; stroke-width: 1;"></path><path d="M7,19H52" style="stroke: #ff0000; stroke-width: 2;"></path><text fill="#000000" text-anchor="start" dy=".4em" transform="translate(59,19)">N=0.5 alpha=2</text><path d="M7,50H52" style="stroke: #00ff00; stroke-width: 2;"></path><text fill="#000000" text-anchor="start" dy=".4em" transform="translate(59,50)">N=1   alpha=2</text><path d="M7,81H52" style="stroke: #0000ff; stroke-width: 2;"></path><text fill="#000000" text-anchor="start" dy=".4em" transform="translate(59,82)">N=2   alpha=2</text></g></g></svg><svg viewBox="0 0 1176 251" preserveAspectRatio="none" x="12" y="274" width="1176" height="251"><path d="M0,0H1176V251H0Z" style="fill: #ffffff;"></path><g><g transform="translate(118,25)"><path d="M0,0H941V201H0Z" style="fill: #ffffff; stroke: #000000; stroke-width: 1;"></path><svg x="0" y="0" overflow="hidden" width="941" height="201" viewBox="0 0 941 201"><g><path d="M5,200h9h10h9h10h9l9,-1h10h9h10h9h10l9,-1h9h10h9l10,-1h9l9,-1h10l9,-1l10,-1l9,-1l9,-1l10,-1l9,-2l10,-2l9,-2l9,-3l10,-5l9,-5l10,-6l9,-6l10,-8l9,-9l9,-9l10,-10l9,-11l10,-11l9,-11l9,-12l10,-12l9,-11l10,-10l9,-10l9,-8l10,-7l9,-6l10,-4l9,-1h10l9,1l9,4l10,6l9,7l10,8l9,10l9,10l10,11l9,12l10,12l9,11l9,11l10,11l9,10l10,9l9,9l9,8l10,6l9,6l10,6l9,4l10,4l9,3l9,2l10,3l9,1l10,2l9,1l9,1h10l9,1h10h9l9,1h10h9h10h9h9h10h9h10h9h10h9h9h10h9h10" style="fill: none; stroke: #ff0000; stroke-width: 2;"></path></g><g><path d="M5,201h9h10h9h10h9h9h10h9h10h9h10h9h9h10h9h10l9,-1h9h10h9h10l9,-1l9,-1h10l9,-1l10,-1l9,-2l9,-1l10,-2l9,-3l10,-2l9,-3l10,-4l9,-4l9,-4l10,-4l9,-5l10,-5l9,-5l9,-5l10,-5l9,-5l10,-5l9,-4l9,-4l10,-3l9,-2l10,-2l9,-1h10l9,1l9,2l10,2l9,3l10,4l9,4l9,5l10,5l9,5l10,5l9,5l9,5l10,5l9,4l10,4l9,4l9,4l10,3l9,2l10,3l9,2l10,1l9,2l9,1l10,1h9l10,1l9,1h9h10h9l10,1h9h9h10h9h10h9h9h10h9h10h9h10h9h9h10h9h10" style="fill: none; stroke: #0000ff; stroke-width: 2;"></path></g><g><path d="M5,200h9h10h9h10h9h9h10h9h10h9l10,-1h9h9h10h9h10l9,-1h9h10h9l10,-1h9l9,-1h10l9,-1l10,-1l9,-1l9,-2l10,-2l9,-2l10,-3l9,-3l10,-4l9,-4l9,-5l10,-5l9,-5l10,-6l9,-5l9,-6l10,-6l9,-5l10,-6l9,-4l9,-4l10,-4l9,-3l10,-2h9h10h9l9,2l10,3l9,4l10,4l9,4l9,6l10,5l9,6l10,6l9,5l9,6l10,5l9,5l10,5l9,4l9,4l10,3l9,3l10,2l9,3l10,1l9,2l9,1l10,1l9,1l10,1h9l9,1h10h9l10,1h9h9h10h9h10h9h9h10h9h10h9h10h9h9h10h9h10" style="fill: none; stroke: #00ff00; stroke-width: 2;"></path></g></svg><g><g transform="translate(0,201)"><path d="M0,0h941M0,-6V0M19,-3V0M38,-3V0M56,-3V0M75,-3V0M94,-6V0M113,-3V0M132,-3V0M151,-3V0M169,-3V0M188,-6V0M207,-3V0M226,-3V0M245,-3V0M263,-3V0M282,-6V0M301,-3V0M320,-3V0M339,-3V0M358,-3V0M376,-6V0M395,-3V0M414,-3V0M433,-3V0M452,-3V0M471,-6V0M489,-3V0M508,-3V0M527,-3V0M546,-3V0M565,-6V0M583,-3V0M602,-3V0M621,-3V0M640,-3V0M659,-6V0M678,-3V0M696,-3V0M715,-3V0M734,-3V0M753,-6V0M772,-3V0M790,-3V0M809,-3V0M828,-3V0M847,-6V0M866,-3V0M885,-3V0M903,-3V0M922,-3V0M941,-6V0" style="stroke: #000000; stroke-width: 1;"></path><g font-family="Arial" font-size="9" space="preserve" fill="#000000" text-anchor="middle"><text dy=".8em" transform="translate(0,2)">-5</text><text dy=".8em" transform="translate(94,2)">-4</text><text dy=".8em" transform="translate(188,2)">-3</text><text dy=".8em" transform="translate(282,2)">-2</text><text dy=".8em" transform="translate(376,2)">-1</text><text dy=".8em" transform="translate(471,2)">0</text><text dy=".8em" transform="translate(565,2)">1</text><text dy=".8em" transform="translate(659,2)">2</text><text dy=".8em" transform="translate(753,2)">3</text><text dy=".8em" transform="translate(847,2)">4</text><text dy=".8em" transform="translate(941,2)">5</text></g></g><g><path d="M0,0v201M28,201H0M14,196H0M14,191H0M14,186H0M14,181H0M28,177H0M14,172H0M14,167H0M14,162H0M14,157H0M28,152H0M14,147H0M14,142H0M14,137H0M14,133H0M28,128H0M14,123H0M14,118H0M14,113H0M14,108H0M28,103H0M14,98H0M14,93H0M14,89H0M14,84H0M28,79H0M14,74H0M14,69H0M14,64H0M14,59H0M28,54H0M14,49H0M14,45H0M14,40H0M14,35H0M28,30H0M14,25H0M14,20H0M14,15H0M14,10H0M28,5H0M14,1H0" style="stroke: #000000; stroke-width: 1;"></path><g font-family="Arial" font-size="9" space="preserve" fill="#000000" text-anchor="end"><text dy=".4em" transform="translate(-2,201)">0</text><text dy=".4em" transform="translate(-2,177)">0.1</text><text dy=".4em" transform="translate(-2,152)">0.2</text><text dy=".4em" transform="translate(-2,128)">0.3</text><text dy=".4em" transform="translate(-2,103)">0.4</text><text dy=".4em" transform="translate(-2,79)">0.5</text><text dy=".4em" transform="translate(-2,54)">0.6</text><text dy=".4em" transform="translate(-2,30)">0.7</text><text dy=".4em" transform="translate(-2,5)">0.8</text></g></g></g></g><g transform="translate(118,1)" font-family="Arial" font-size="13" space="preserve"><text fill="#000000" text-anchor="middle" dy=".8em" transform="translate(471)">crystalballn</text></g><g transform="translate(823)" font-family="Arial" font-size="19" space="preserve"><path d="M0,0H235V100H0Z" style="fill: #ffffff; stroke: #000000; stroke-width: 1;"></path><path d="M7,19H52" style="stroke: #ff0000; stroke-width: 2;"></path><text fill="#000000" text-anchor="start" dy=".4em" transform="translate(59,19)">N=3    alpha=2</text><path d="M7,50H52" style="stroke: #0000ff; stroke-width: 2;"></path><text fill="#000000" text-anchor="start" dy=".4em" transform="translate(59,50)">N=1.01 alpha=3</text><path d="M7,81H52" style="stroke: #00ff00; stroke-width: 2;"></path><text fill="#000000" text-anchor="start" dy=".4em" transform="translate(59,82)">N=2    alpha=3</text></g></g></svg><svg viewBox="0 0 1176 251" preserveAspectRatio="none" x="12" y="541" width="1176" height="251"><path d="M0,0H1176V251H0Z" style="fill: #ffffff;"></path><g><g transform="translate(118,25)"><path d="M0,0H941V201H0Z" style="fill: #ffffff; stroke: #000000; stroke-width: 1;"></path><svg x="0" y="0" overflow="hidden" width="941" height="201" viewBox="0 0 941 201"><g><path d="M5,184h9h10l9,-1h10h9l9,-1h10h9l10,-1h9l10,-1h9l9,-1h10l9,-1l10,-1h9l9,-1l10,-1h9l10,-1l9,-1l9,-1l10,-1l9,-1l10,-1l9,-1l9,-1l10,-2l9,-1l10,-2l9,-1l10,-2l9,-2l9,-3l10,-2l9,-3l10,-3l9,-4l9,-4l10,-5l9,-4l10,-6l9,-5l9,-6l10,-6l9,-6l10,-7l9,-7l10,-6l9,-7l9,-6l10,-7l9,-6l10,-6l9,-5l9,-5l10,-5l9,-5l10,-4l9,-3l9,-3l10,-3l9,-3l10,-2l9,-2l9,-1l10,-2l9,-1l10,-1h9l10,-1h9l9,-1h10h9l10,-1h9h9h10h9h10h9h9h10h9h10h9h9h10h9h10h9h10h9h9h10h9h10" style="fill: none; stroke: #cc3333; stroke-width: 2;"></path></g><g><path d="M5,17h9h10l9,1h10h9l9,1h10h9l10,1h9l10,1h9l9,1h10l9,1l10,1h9l9,1l10,1h9l10,1l9,1l9,1l10,1l9,1l10,1l9,1l9,1l10,2l9,1l10,2l9,1l10,2l9,2l9,3l10,2l9,3l10,3l9,4l9,4l10,5l9,4l10,6l9,5l9,6l10,6l9,6l10,7l9,7l10,6l9,7l9,6l10,7l9,6l10,6l9,5l9,5l10,5l9,5l10,4l9,3l9,3l10,3l9,3l10,2l9,2l9,1l10,2l9,1l10,1h9l10,1h9l9,1h10h9l10,1h9h9h10h9h10h9h9h10h9h10h9h9h10h9h10h9h10h9h9h10h9h10" style="fill: none; stroke: #ff00ff; stroke-width: 2;"></path></g></svg><g><g transform="translate(0,201)"><path d="M0,0h941M0,-6V0M19,-3V0M38,-3V0M56,-3V0M75,-3V0M94,-6V0M113,-3V0M132,-3V0M151,-3V0M169,-3V0M188,-6V0M207,-3V0M226,-3V0M245,-3V0M263,-3V0M282,-6V0M301,-3V0M320,-3V0M339,-3V0M358,-3V0M376,-6V0M395,-3V0M414,-3V0M433,-3V0M452,-3V0M471,-6V0M489,-3V0M508,-3V0M527,-3V0M546,-3V0M565,-6V0M583,-3V0M602,-3V0M621,-3V0M640,-3V0M659,-6V0M678,-3V0M696,-3V0M715,-3V0M734,-3V0M753,-6V0M772,-3V0M790,-3V0M809,-3V0M828,-3V0M847,-6V0M866,-3V0M885,-3V0M903,-3V0M922,-3V0M941,-6V0" style="stroke: #000000; stroke-width: 1;"></path><g font-family="Arial" font-size="9" space="preserve" fill="#000000" text-anchor="middle"><text dy=".8em" transform="translate(0,2)">-5</text><text dy=".8em" transform="translate(94,2)">-4</text><text dy=".8em" transform="translate(188,2)">-3</text><text dy=".8em" transform="translate(282,2)">-2</text><text dy=".8em" transform="translate(376,2)">-1</text><text dy=".8em" transform="translate(471,2)">0</text><text dy=".8em" transform="translate(565,2)">1</text><text dy=".8em" transform="translate(659,2)">2</text><text dy=".8em" transform="translate(753,2)">3</text><text dy=".8em" transform="translate(847,2)">4</text><text dy=".8em" transform="translate(941,2)">5</text></g></g><g><path d="M0,0v201M28,201H0M14,197H0M14,193H0M14,189H0M14,185H0M28,181H0M14,177H0M14,173H0M14,169H0M14,165H0M28,161H0M14,157H0M14,153H0M14,149H0M14,145H0M28,141H0M14,137H0M14,133H0M14,129H0M14,125H0M28,121H0M14,117H0M14,113H0M14,109H0M14,105H0M28,101H0M14,96H0M14,92H0M14,88H0M14,84H0M28,80H0M14,76H0M14,72H0M14,68H0M14,64H0M28,60H0M14,56H0M14,52H0M14,48H0M14,44H0M28,40H0M14,36H0M14,32H0M14,28H0M14,24H0M28,20H0M14,16H0M14,12H0M14,8H0M14,4H0M28,0H0" style="stroke: #000000; stroke-width: 1;"></path><g font-family="Arial" font-size="9" space="preserve" fill="#000000" text-anchor="end"><text dy=".4em" transform="translate(-2,201)">0</text><text dy=".4em" transform="translate(-2,181)">0.1</text><text dy=".4em" transform="translate(-2,161)">0.2</text><text dy=".4em" transform="translate(-2,141)">0.3</text><text dy=".4em" transform="translate(-2,121)">0.4</text><text dy=".4em" transform="translate(-2,101)">0.5</text><text dy=".4em" transform="translate(-2,80)">0.6</text><text dy=".4em" transform="translate(-2,60)">0.7</text><text dy=".4em" transform="translate(-2,40)">0.8</text><text dy=".4em" transform="translate(-2,20)">0.9</text><text dy=".4em" transform="translate(-2)">1</text></g></g></g></g><g transform="translate(118,1)" font-family="Arial" font-size="13" space="preserve"><text fill="#000000" text-anchor="middle" dy=".8em" transform="translate(471)">ROOT::Math::crystalball_cdf(x, 1.2, 2, 1, 0)</text></g><g transform="translate(823)" font-family="Arial" font-size="21" space="preserve"><path d="M0,0H235V75H0Z" style="fill: #ffffff; stroke: #000000; stroke-width: 1;"></path><path d="M7,20H52" style="stroke: #cc3333; stroke-width: 2;"></path><text fill="#000000" text-anchor="start" dy=".4em" transform="translate(59,20)">N=1.2 alpha=2</text><path d="M7,55H52" style="stroke: #ff00ff; stroke-width: 2;"></path><text fill="#000000" text-anchor="start" dy=".4em" transform="translate(59,56)">N=1.2 alpha=2</text></g></g></svg></g></svg>