<svg xmlns="http://www.w3.org/2000/svg" viewBox="0 0 1200 800" preserveAspectRatio="none" width="1200" height="800"><path d="M0,0H1200V800H0Z" style="fill: #ffffff;"></path><g><g transform="translate(192,40)"><path d="M0,0H948V632H0Z" style="fill: #ffffff; stroke: #000000; stroke-width: 1;"></path><svg x="0" y="0" overflow="hidden" width="948" height="632" viewBox="0 0 948 632"><g><path fill="#263da8" d="M24,253h23v47h-23zm0,63h23v32h-23zM47,205h24v143h-24zm0,174h24v16h-24zm0,48h24v15h-24zm0,31h24v16h-24zM71,126h24v16h-24zm0,48h24v16h-24zm0,31h24v32h-24zm0,64h24v31h-24zm0,47h24v142h-24zM95,158h24v16h-24zm0,47h24v111h-24zm0,127h24v63h-24zm0,79h24v47h-24zm0,63h24v16h-24zM119,79h23v16h-23zm0,79h23v16h-23zm0,32h23v221h-23zm0,237h23v15h-23zm0,31h23v16h-23zm0,32h23v16h-23zm0,110h23v16h-23zM142,142h24v16h-24zm0,32h24v332h-24zM166,95h24v16h-24zm0,31h24v411h-24zM190,79h23v16h-23zm0,47h23v111h-23zm0,127h23v16h-23zm0,110h23v16h-23zm0,32h23v111h-23zM213,95h24v31h-24zm0,47h24v79h-24zm0,269h24v110h-24zM237,63h24v16h-24zm0,32h24v95h-24zm0,347h24v143h-24zM261,32h23v15h-23zm0,63h23v16h-23zm0,31h23v48h-23zm0,332h23v79h-23zm0,111h23v16h-23zM284,47h24v16h-24zm0,32h24v79h-24zm0,411h24v79h-24zM308,0h24v16h-24zm0,47h24v16h-24zm0,32h24v79h-24zm0,395h24v95h-24zM332,16h24v31h-24zm0,63h24v47h-24zm0,411h24v63h-24zm0,95h24v15h-24zM356,63h23v79h-23zm0,427h23v95h-23zm0,126h23v16h-23zM379,0h24v16h-24zm0,63h24v79h-24zm0,443h24v47h-24zm0,63h24v31h-24zM403,47h24v16h-24zm0,32h24v47h-24zm0,427h24v47h-24zm0,63h24v31h-24zM427,32h23v31h-23zm0,47h23v47h-23zm0,427h23v63h-23zM450,0h24v16h-24zm0,32h24v94h-24zm0,474h24v63h-24zm0,79h24v15h-24zM474,32h24v79h-24zm0,489h24v32h-24zm0,48h24v31h-24zM498,47h23v95h-23zm0,459h23v79h-23zM521,47h24v79h-24zm0,459h24v63h-24zM545,47h24v95h-24zm0,459h24v79h-24zM569,47h24v32h-24zm0,48h24v63h-24zm0,411h24v79h-24zM593,47h23v95h-23zm0,427h23v111h-23zM616,32h24v126h-24zm0,458h24v79h-24zm0,95h24v15h-24zM640,63h24v16h-24zm0,32h24v79h-24zm0,363h24v79h-24zm0,95h24v16h-24zm0,32h24v15h-24zM664,63h23v111h-23zm0,379h23v127h-23zm0,143h23v15h-23zM687,63h24v142h-24zm0,379h24v111h-24zm0,127h24v16h-24zM711,32h24v15h-24zm0,31h24v16h-24zm0,48h24v79h-24zm0,110h24v16h-24zm0,190h24v63h-24zm0,79h24v31h-24zM735,79h23v16h-23zm0,32h23v126h-23zm0,142h23v47h-23zm0,63h23v16h-23zm0,47h23v16h-23zm0,32h23v95h-23zm0,126h23v16h-23zm0,64h23v15h-23zM758,95h24v16h-24zm0,31h24v332h-24zm0,348h24v63h-24zM782,111h24v15h-24zm0,31h24v316h-24zm0,348h24v16h-24zm0,31h24v16h-24zM806,190h24v268h-24zm0,300h24v16h-24zM830,174h23v16h-23zm0,31h23v32h-23zm0,48h23v16h-23zm0,31h23v143h-23zm23,-94h24v15h-24zm0,31h24v158h-24zm0,174h24v16h-24zm0,32h24v15h-24zm0,63h24v16h-24zM877,190h24v15h-24zm0,47h24v47h-24zm0,63h24v32h-24zm0,48h24v63h-24zm0,126h24v16h-24zM901,300h23v32h-23zM924,190h24v15h-24zm0,237h24v15h-24z"></path><path fill="#1652cc" d="M190,237h23v16h-23zm0,32h23v94h-23zm0,110h23v16h-23zM213,221h24v127h-24zm0,142h24v48h-24zM237,190h24v47h-24zm0,94h24v16h-24zm0,127h24v31h-24zM261,174h23v47h-23zm0,237h23v47h-23zM284,158h24v47h-24zm0,269h24v63h-24zM308,158h24v32h-24zm0,284h24v32h-24zM332,126h24v48h-24zm0,348h24v16h-24zM356,142h23v32h-23zm0,332h23v16h-23zM379,142h24v32h-24zm0,332h24v32h-24zM403,126h24v32h-24zm0,348h24v32h-24zM427,126h23v32h-23zm0,364h23v16h-23zM450,126h24v32h-24zm0,364h24v16h-24zM474,111h24v31h-24zm0,379h24v31h-24zM498,142h23v16h-23zm0,332h23v32h-23zM521,126h24v32h-24zm0,364h24v16h-24zM545,142h24v16h-24zm0,332h24v32h-24zM569,158h24v16h-24zm0,300h24v48h-24zM593,142h23v48h-23zm0,316h23v16h-23zM616,158h24v32h-24zm0,300h24v32h-24zM640,174h24v16h-24zm0,253h24v31h-24zM664,174h23v31h-23zm0,237h23v31h-23zM687,205h24v48h-24zm0,190h24v47h-24zM711,190h24v31h-24zm0,47h24v95h-24zm0,111h24v15h-24zm0,31h24v32h-24zM735,237h23v16h-23zm0,63h23v16h-23zm0,32h23v31h-23zm0,47h23v16h-23z"></path><path fill="#1063db" d="M213,348h24v15h-24zM237,237h24v47h-24zm0,79h24v95h-24zm24,-95h23v32h-23zm0,127h23v15h-23zm0,31h23v32h-23zM284,205h24v16h-24zm0,206h24v16h-24zM308,190h24v15h-24zm0,237h24v15h-24zM332,174h24v16h-24zm0,253h24v15h-24zm0,31h24v16h-24zm24,-16h23v32h-23zm23,16h24v16h-24zM403,158h24v16h-24zm24,0h23v16h-23zm0,316h23v16h-23zM450,158h24v16h-24zm0,300h24v32h-24zM474,142h24v32h-24zm0,332h24v16h-24zM498,158h23v16h-23zm23,0h24v16h-24zm0,300h24v32h-24zM545,158h24v32h-24zm0,300h24v16h-24zM569,174h24v16h-24zm24,268h23v16h-23zM616,190h24v31h-24zm0,237h24v31h-24zM640,190h24v15h-24zm0,205h24v32h-24zM664,205h23v32h-23zm0,174h23v32h-23zM687,253h24v63h-24zm0,79h24v16h-24zm0,31h24v32h-24zm24,-31h24v16h-24zm0,31h24v16h-24z"></path><path fill="#1171d8" d="M237,300h24v16h-24zm24,-47h23v31h-23zm0,47h23v48h-23zm23,-79h24v32h-24zm0,174h24v16h-24zM308,205h24v32h-24zm0,206h24v16h-24zM332,190h24v15h-24zm0,252h24v16h-24zM356,174h23v31h-23zm0,253h23v15h-23zM379,174h24v16h-24zm0,268h24v16h-24zM403,174h24v16h-24zm0,284h24v16h-24zm24,0h23v16h-23zm23,-16h24v16h-24zm24,16h24v16h-24zm24,0h23v16h-23zM521,174h24v16h-24zm24,16h24v15h-24zm0,252h24v16h-24zM569,190h24v15h-24zm0,252h24v16h-24zM593,190h23v15h-23zm0,237h23v15h-23zM640,205h24v48h-24zm0,174h24v16h-24zM664,237h23v32h-23zm0,63h23v16h-23zm0,48h23v31h-23zm23,-32h24v16h-24zm0,32h24v15h-24z"></path><path fill="#1380d5" d="M261,284h23v16h-23zm0,79h23v16h-23zM284,253h24v16h-24zm0,110h24v32h-24zm24,16h24v32h-24zM332,205h24v16h-24zm0,206h24v16h-24zm24,0h23v16h-23zM379,190h24v15h-24zm0,237h24v15h-24zm24,15h24v16h-24zM427,174h23v16h-23zm0,268h23v16h-23zM450,174h24v16h-24zm24,0h24v16h-24zm0,268h24v16h-24zM498,174h23v16h-23zm0,268h23v16h-23zm23,0h24v16h-24zm24,-15h24v15h-24zM569,205h24v16h-24zm0,222h24v15h-24zM593,205h23v16h-23zm0,206h23v16h-23zM616,221h24v16h-24zm0,174h24v32h-24zM640,253h24v16h-24zm24,16h23v31h-23zm0,47h23v32h-23z"></path><path fill="#0e8ed0" d="M284,269h24v31h-24zm0,47h24v47h-24zm24,-79h24v16h-24zm0,126h24v16h-24zM332,221h24v16h-24zm24,-16h23v16h-23zm0,190h23v16h-23zm23,16h24v16h-24zM403,205h24v16h-24zm0,222h24v15h-24zm24,0h23v15h-23zM450,190h24v15h-24zm0,237h24v15h-24zM474,190h24v15h-24zm24,237h23v15h-23zM521,190h24v15h-24zm0,237h24v15h-24zM593,221h23v16h-23zm0,158h23v32h-23zM616,237h24v32h-24zm0,126h24v32h-24zm24,-94h24v15h-24zm0,31h24v16h-24zm0,32h24v47h-24z"></path><path fill="#089dcc" d="M284,300h24v16h-24zm24,-47h24v16h-24zm0,79h24v16h-24zm24,-95h24v16h-24zm0,126h24v48h-24zM356,221h23v16h-23zm23,-16h24v16h-24zm24,-15h24v15h-24zm0,221h24v16h-24zM427,190h23v31h-23zm94,15h24v16h-24zm24,0h24v16h-24zm0,206h24v16h-24zM569,221h24v16h-24zm0,174h24v32h-24zM593,237h23v16h-23zm23,32h24v31h-24zm24,15h24v16h-24zm0,32h24v16h-24z"></path><path fill="#0da7c2" d="M308,269h24v15h-24zm0,31h24v16h-24zm0,48h24v15h-24zm24,-95h24v16h-24zm47,-32h24v16h-24zm0,174h24v16h-24zm48,16h23v16h-23zm23,0h24v16h-24zM474,205h24v16h-24zm0,222h24v15h-24zM498,190h23v31h-23zm0,221h23v16h-23zm23,0h24v16h-24zM545,221h24v16h-24zm24,158h24v16h-24zM593,253h23v16h-23zm23,47h24v63h-24z"></path><path fill="#1dafb3" d="M308,284h24v16h-24zm0,32h24v16h-24zm24,-32h24v16h-24zm0,32h24v16h-24zm0,32h24v15h-24zM356,237h23v16h-23zm0,142h23v16h-23zM379,237h24v16h-24zm24,-16h24v16h-24zm0,174h24v16h-24zM450,205h24v16h-24zm24,206h24v16h-24zM521,221h24v16h-24zm24,174h24v16h-24zM569,237h24v16h-24zm24,126h23v16h-23z"></path><path fill="#2db7a3" d="M332,269h24v15h-24zm0,31h24v16h-24zm0,32h24v16h-24zm24,-79h23v16h-23zm0,110h23v16h-23zm23,16h24v16h-24zM427,221h23v16h-23zm23,0h24v16h-24zm48,0h23v16h-23zm23,16h24v16h-24zm0,142h24v32h-24zm24,0h24v16h-24zm24,-16h24v16h-24zm24,-94h23v31h-23zm0,47h23v47h-23z"></path><path fill="#52ba91" d="M356,269h23v15h-23zm23,94h24v16h-24zm48,32h23v16h-23zM474,221h24v16h-24zm0,174h24v16h-24zm24,-16h23v32h-23zM545,237h24v16h-24zm0,126h24v16h-24zM569,253h24v47h-24zm24,47h23v16h-23z"></path><path fill="#73bd80" d="M356,284h23v16h-23zm0,48h23v31h-23zm23,-79h24v16h-24zm0,95h24v15h-24zM403,237h24v32h-24zm0,142h24v16h-24zM427,237h23v16h-23zm23,158h24v16h-24zm24,-16h24v16h-24zM545,253h24v31h-24zm24,63h24v47h-24z"></path><path fill="#94be71" d="M356,316h23v16h-23zm47,47h24v16h-24zM427,253h23v16h-23zm0,110h23v32h-23zM450,237h24v32h-24zm0,142h24v16h-24zM474,237h24v16h-24zm24,0h23v32h-23zm23,16h24v16h-24zm0,95h24v31h-24zm24,-64h24v16h-24zm24,16h24v16h-24z"></path><path fill="#b2bc65" d="M356,300h23v16h-23zm23,-31h24v15h-24zm0,31h24v48h-24zm24,-31h24v15h-24zm0,79h24v15h-24zm24,-64h23v16h-23zm47,79h24v16h-24zm47,-94h24v15h-24zm24,63h24v31h-24z"></path><path fill="#d0ba59" d="M379,284h24v16h-24zm48,64h23v15h-23zm23,15h24v16h-24zM474,253h24v31h-24zm24,110h23v16h-23zm23,-47h24v16h-24zm24,-16h24v16h-24z"></path><path fill="#e1bf4a" d="M403,284h24v16h-24zm24,-15h23v15h-23zm23,79h24v15h-24zm24,0h24v15h-24zm47,-64h24v16h-24zm24,32h24v16h-24z"></path><path fill="#f4c53a" d="M403,300h24v48h-24zm24,0h23v16h-23zm23,-31h24v15h-24zm0,63h24v16h-24zm48,-63h23v15h-23zm0,31h23v48h-23zm23,0h24v16h-24zm0,32h24v16h-24z"></path><path fill="#fcd12b" d="M450,300h24v16h-24zm24,-16h24v16h-24zm0,48h24v16h-24zm24,16h23v15h-23z"></path><path fill="#fae61c" d="M427,316h23v32h-23zm23,-32h24v16h-24zm24,16h24v16h-24zm24,-16h23v16h-23z"></path><path fill="#f9f90e" d="M450,316h24v16h-24zm24,0h24v16h-24z"></path></g></svg><g><g transform="translate(0,632)"><path d="M0,0h948M0,-632h948M0,-19V0M24,-10V0M47,-10V0M71,-10V0M95,-10V0M119,-19V0M142,-10V0M166,-10V0M190,-10V0M213,-10V0M237,-19V0M261,-10V0M284,-10V0M308,-10V0M332,-10V0M356,-19V0M379,-10V0M403,-10V0M427,-10V0M450,-10V0M474,-19V0M498,-10V0M521,-10V0M545,-10V0M569,-10V0M593,-19V0M616,-10V0M640,-10V0M664,-10V0M687,-10V0M711,-19V0M735,-10V0M758,-10V0M782,-10V0M806,-10V0M830,-19V0M853,-10V0M877,-10V0M901,-10V0M924,-10V0M948,-19V0M0,-613V-632M24,-622V-632M47,-622V-632M71,-622V-632M95,-622V-632M119,-613V-632M142,-622V-632M166,-622V-632M190,-622V-632M213,-622V-632M237,-613V-632M261,-622V-632M284,-622V-632M308,-622V-632M332,-622V-632M356,-613V-632M379,-622V-632M403,-622V-632M427,-622V-632M450,-622V-632M474,-613V-632M498,-622V-632M521,-622V-632M545,-622V-632M569,-622V-632M593,-613V-632M616,-622V-632M640,-622V-632M664,-622V-632M687,-622V-632M711,-613V-632M735,-622V-632M758,-622V-632M782,-622V-632M806,-622V-632M830,-613V-632M853,-622V-632M877,-622V-632M901,-622V-632M924,-622V-632M948,-613V-632" style="stroke: #000000; stroke-width: 1;"></path><g font-family="Arial" font-size="40" space="preserve" fill="#000000" text-anchor="middle"><text dy=".8em" transform="translate(0,4)">-4</text><text dy=".8em" transform="translate(119,4)">-3</text><text dy=".8em" transform="translate(237,4)">-2</text><text dy=".8em" transform="translate(356,4)">-1</text><text dy=".8em" transform="translate(474,4)">0</text><text dy=".8em" transform="translate(593,4)">1</text><text dy=".8em" transform="translate(711,4)">2</text><text dy=".8em" transform="translate(830,4)">3</text><text dy=".8em" transform="translate(948,4)">4</text></g></g><g><path d="M0,0v632M948,0v632M28,632H0M14,616H0M14,600H0M14,585H0M14,569H0M28,553H0M14,537H0M14,521H0M14,506H0M14,490H0M28,474H0M14,458H0M14,442H0M14,427H0M14,411H0M28,395H0M14,379H0M14,363H0M14,348H0M14,332H0M28,316H0M14,300H0M14,284H0M14,269H0M14,253H0M28,237H0M14,221H0M14,205H0M14,190H0M14,174H0M28,158H0M14,142H0M14,126H0M14,111H0M14,95H0M28,79H0M14,63H0M14,47H0M14,32H0M14,16H0M28,0H0M920,632H948M934,616H948M934,600H948M934,585H948M934,569H948M920,553H948M934,537H948M934,521H948M934,506H948M934,490H948M920,474H948M934,458H948M934,442H948M934,427H948M934,411H948M920,395H948M934,379H948M934,363H948M934,348H948M934,332H948M920,316H948M934,300H948M934,284H948M934,269H948M934,253H948M920,237H948M934,221H948M934,205H948M934,190H948M934,174H948M920,158H948M934,142H948M934,126H948M934,111H948M934,95H948M920,79H948M934,63H948M934,47H948M934,32H948M934,16H948M920,0H948" style="stroke: #000000; stroke-width: 1;"></path><g font-family="Arial" font-size="40" space="preserve" fill="#000000" text-anchor="end"><text dy=".4em" transform="translate(-6,632)">-4</text><text dy=".4em" transform="translate(-6,553)">-3</text><text dy=".4em" transform="translate(-6,474)">-2</text><text dy=".4em" transform="translate(-6,395)">-1</text><text dy=".4em" transform="translate(-6,316)">0</text><text dy=".4em" transform="translate(-6,237)">1</text><text dy=".4em" transform="translate(-6,158)">2</text><text dy=".4em" transform="translate(-6,79)">3</text><text dy=".4em" transform="translate(-6)">4</text></g></g></g></g><g transform="translate(-462,4)" style="display: none;"><path d="M948,2h2v25h-948v-2h946z" style="fill: #000000; stroke: #000000; stroke-width: 1px;"></path><path d="M0,0H948V25H0Z" style="fill: #f2f2f2; stroke: #000000; stroke-width: 1;"></path></g></g></svg>