<svg xmlns="http://www.w3.org/2000/svg" viewBox="0 0 1200 800" preserveAspectRatio="none" width="1200" height="800"><path d="M0,0H1200V800H0Z" style="fill: #ffffff;"></path><g><g transform="translate(86,26)" font-family="Arial" font-size="48" space="preserve" font-weight="bold"><path d="M171,4h4v103h-171v-4h167z" style="fill: #000000; stroke: #000000; stroke-width: 1px;"></path><path d="M0,0H171V103H0Z" style="fill: #c0b6ac; stroke: #000000; stroke-width: 1;"></path><text fill="#000000" text-anchor="middle" dy=".4em" transform="translate(86,52)">Event</text></g><g><path d="M94,129V723" style="stroke: #000000; stroke-width: 2;"></path></g><g><path d="M111,129V619" style="stroke: #000000; stroke-width: 2;"></path></g><g><path d="M129,129V516" style="stroke: #000000; stroke-width: 2;"></path></g><g><path d="M146,129V413" style="stroke: #000000; stroke-width: 2;"></path></g><g><path d="M163,129V310" style="stroke: #000000; stroke-width: 2;"></path></g><g><path d="M180,129V206" style="stroke: #000000; stroke-width: 2;"></path></g><g><path d="M94,723L318,723M318,732l16,-9l-16,-9z" style="stroke: #000000; stroke-width: 1; fill: #000000;"></path></g><g><path d="M111,619L318,619M318,629l16,-9l-16,-9z" style="stroke: #000000; stroke-width: 1; fill: #000000;"></path></g><g><path d="M129,516L318,516M318,526l16,-9l-16,-9z" style="stroke: #000000; stroke-width: 1; fill: #000000;"></path></g><g><path d="M146,413L318,413M318,422l16,-9l-16,-9z" style="stroke: #000000; stroke-width: 1; fill: #000000;"></path></g><g><path d="M163,310L318,310M318,319l16,-9l-16,-9z" style="stroke: #000000; stroke-width: 1; fill: #000000;"></path></g><g><path d="M180,206L318,206M318,216l16,-9l-16,-9z" style="stroke: #000000; stroke-width: 1; fill: #000000;"></path></g><g transform="translate(343,697)" font-family="Arial" font-size="43" space="preserve" font-weight="bold"><path d="M600,4h4v52h-600v-4h596z" style="fill: #000000; stroke: #000000; stroke-width: 1px;"></path><path d="M0,0H600V52H0Z" style="fill: #ddba87; stroke: #000000; stroke-width: 1;"></path><text fill="#000000" text-anchor="start" dy=".4em" transform="translate(30,26)">1 Mbyte</text></g><g transform="translate(343,594)" font-family="Arial" font-size="43" space="preserve" font-weight="bold"><path d="M514,4h4v52h-514v-4h510z" style="fill: #000000; stroke: #000000; stroke-width: 1px;"></path><path d="M0,0H514V52H0Z" style="fill: #ddba87; stroke: #000000; stroke-width: 1;"></path><text fill="#000000" text-anchor="start" dy=".4em" transform="translate(26,26)">100 Kbytes</text></g><g transform="translate(343,490)" font-family="Arial" font-size="43" space="preserve" font-weight="bold"><path d="M429,4h4v52h-429v-4h425z" style="fill: #000000; stroke: #000000; stroke-width: 1px;"></path><path d="M0,0H429V52H0Z" style="fill: #ddba87; stroke: #000000; stroke-width: 1;"></path><text fill="#000000" text-anchor="start" dy=".4em" transform="translate(21,26)">10 Kbytes</text></g><g transform="translate(343,387)" font-family="Arial" font-size="43" space="preserve" font-weight="bold"><path d="M343,4h4v52h-343v-4h339z" style="fill: #000000; stroke: #000000; stroke-width: 1px;"></path><path d="M0,0H343V52H0Z" style="fill: #ddba87; stroke: #000000; stroke-width: 1;"></path><text fill="#000000" text-anchor="start" dy=".4em" transform="translate(17,26)">1 Kbytes</text></g><g transform="translate(343,284)" font-family="Arial" font-size="40" space="preserve" font-weight="bold"><path d="M257,4h4v52h-257v-4h253z" style="fill: #000000; stroke: #000000; stroke-width: 1px;"></path><path d="M0,0H257V52H0Z" style="fill: #ddba87; stroke: #000000; stroke-width: 1;"></path><text fill="#000000" text-anchor="start" dy=".4em" transform="translate(13,26)">100 bytes</text></g><g transform="translate(343,181)" font-family="Arial" font-size="30" space="preserve" font-weight="bold"><path d="M171,4h4v52h-171v-4h167z" style="fill: #000000; stroke: #000000; stroke-width: 1px;"></path><path d="M0,0H171V52H0Z" style="fill: #ddba87; stroke: #000000; stroke-width: 1;"></path><text fill="#000000" text-anchor="start" dy=".4em" transform="translate(9,26)">10 bytes</text></g><g font-family="Arial" font-size="32" space="preserve" font-weight="bold" font-style="oblique"><text fill="#000000" text-anchor="start" dy=".4em" transform="translate(531,206)">Header:Event_flag</text></g><g font-family="Arial" font-size="32" space="preserve" font-weight="bold" font-style="oblique"><text fill="#000000" text-anchor="start" dy=".4em" transform="translate(617,310)">Trigger_Info</text></g><g font-family="Arial" font-size="32" space="preserve" font-weight="bold" font-style="oblique"><text fill="#000000" text-anchor="start" dy=".4em" transform="translate(703,413)">Muon_Detector: TOF</text></g><g font-family="Arial" font-size="32" space="preserve" font-weight="bold" font-style="oblique"><text fill="#000000" text-anchor="start" dy=".4em" transform="translate(789,516)">Calorimeters</text></g><g font-family="Arial" font-size="32" space="preserve" font-weight="bold" font-style="oblique"><text fill="#000000" text-anchor="start" dy=".4em" transform="translate(874,619)">Forward_Detectors</text></g><g font-family="Arial" font-size="32" space="preserve" font-weight="bold" font-style="oblique"><text fill="#000000" text-anchor="start" dy=".4em" transform="translate(960,723)">TPCs</text></g></g></svg>