<svg xmlns="http://www.w3.org/2000/svg" viewBox="0 0 1200 800" preserveAspectRatio="none" width="1200" height="800"><defs><pattern id="pat_3005_6" patternUnits="userSpaceOnUse" width="8" height="8"><path d="M0,0L8,8" style="stroke: #ff00ff; stroke-width: 1;"></path></pattern><pattern id="pat_3005_1" patternUnits="userSpaceOnUse" width="8" height="8"><path d="M0,0L8,8" style="stroke: #000000; stroke-width: 1;"></path></pattern><pattern id="pat_3004_2" patternUnits="userSpaceOnUse" width="8" height="8"><path d="M8,0L0,8" style="stroke: #ff0000; stroke-width: 1;"></path></pattern><pattern id="pat_3004_4" patternUnits="userSpaceOnUse" width="8" height="8"><path d="M8,0L0,8" style="stroke: #0000ff; stroke-width: 1;"></path></pattern></defs><path d="M0,0H1200V800H0Z" style="fill: #ffffff;"></path><g><g transform="translate(192,40)"><path d="M0,0H948V632H0Z" style="fill: #ffffff; stroke: #000000; stroke-width: 1;"></path><svg x="0" y="0" overflow="hidden" width="948" height="632" viewBox="0 0 948 632"><g><path d="M189.6,637C186.3,601.5,175,504.4,168.5,460S164.3,438.6,157.3,414.7S140.3,364.4,133.5,340.7S123.9,312.2,123.3,296S125.3,274.9,130.1,259.6S136.9,255.1,147.1,219.6S172.7,118.8,181.2,82.1S190,58.4,189.6,36S183,-16.8,179.1,-29.5L150.4,-20.6C153.9,-9.5,159.3,17.4,159.6,36.6S160.2,40.4,151.9,75.3S128.4,176.2,118.3,211.3S106.4,233.4,101.4,250.6S92.7,277.6,93.3,297.3S97.6,323.8,104.6,349S121.7,400.1,128.5,423.2S132.6,421,138.8,464.3S156.4,604.6,159.7,639.8Z" style="fill: url(#pat_3005_6); opacity: 0.75;"></path><path d="M189.6,637C186.3,601.5,175,504.4,168.5,460S164.3,438.6,157.3,414.7S140.3,364.4,133.5,340.7S123.9,312.2,123.3,296S125.3,274.9,130.1,259.6S136.9,255.1,147.1,219.6S172.7,118.8,181.2,82.1S190,58.4,189.6,36S183,-16.8,179.1,-29.5" style="stroke: #ff00ff; stroke-width: 3; fill: none;"></path></g><g><path d="M946,453l-150,-2l-147,-2l-110,-7l-130,-6l-80,-18l-59,-29l-63,-52l-36,-41l-41,-9l-20,-19l-12,-53l-9,-59l-3,-53l5,-104" style="stroke: #000000; stroke-width: 3; fill: none;"></path></g><g><path d="M267.21,248.33C272.21,243.75,281.51,236.09,296.14,230.67S318.27,222.2,340.4,221.26S378.18,225.73,406.77,225.97S458.51,224.08,483.36,222.44S508.89,220.55,531.02,217.73S565.4,211.37,593.99,208.31S634.5,207.61,673.98,202.43S736.95,190.19,791.42,182.42S915.25,166.72,946.3,163.59L943.29,133.74C912,136.89,841.82,144.93,787.18,152.72S709.36,167.53,670.08,172.68S619.37,175.43,590.8,178.48S549.1,185.17,527.22,187.97S505.41,190.9,481.38,192.5S435.47,196.21,407.02,195.97S363.38,189.97,339.12,191.29S304.17,195.55,285.74,202.54S253.7,220.12,246.95,226.2Z" style="fill: url(#pat_3004_2); opacity: 0.75;"></path><path d="M267.21,248.33C272.21,243.75,281.51,236.09,296.14,230.67S318.27,222.2,340.4,221.26S378.18,225.73,406.77,225.97S458.51,224.08,483.36,222.44S508.89,220.55,531.02,217.73S565.4,211.37,593.99,208.31S634.5,207.61,673.98,202.43S736.95,190.19,791.42,182.42S915.25,166.72,946.3,163.59" style="stroke: #ff0000; stroke-width: 3; fill: none;"></path></g><g><path d="M270.61,458.99C279.48,453.5,295.12,444.17,316.57,434.28S357.07,415.45,377.84,409.56S403.37,402.74,420.39,404.86S442.51,411.21,462.94,420.16S492.21,441.58,522.51,449.58S580.71,454.29,614.41,460.17S649.13,469.59,691,479S772.49,494.94,823.76,507.25S922.8,533.2,947.32,540.54L937.29,574.07C913.14,566.84,866.38,553.46,815.58,541.28S724.76,522.48,683.32,513.15S642.34,500.6,608.39,494.65S545.47,491.91,513.57,483.42S468.4,460.98,448.9,452.22S428.37,441.38,416.06,439.59S404.35,437.94,387.38,443.24S350.88,456.96,331.22,466.06S297.2,483.71,289.06,488.74Z" style="fill: url(#pat_3004_4); opacity: 0.75;"></path><path d="M270.61,458.99C279.48,453.5,295.12,444.17,316.57,434.28S357.07,415.45,377.84,409.56S403.37,402.74,420.39,404.86S442.51,411.21,462.94,420.16S492.21,441.58,522.51,449.58S580.71,454.29,614.41,460.17S649.13,469.59,691,479S772.49,494.94,823.76,507.25S922.8,533.2,947.32,540.54" style="stroke: #0000ff; stroke-width: 3; fill: none;"></path></g><g><path d="M216.2,124.8C230.7,132.3,254.6,144.3,291,157.7S365.9,186.2,398.3,191.8S427.2,192.8,452.7,186S496.6,166.4,525.9,157.7S573.6,148.1,599.1,142.4S627.3,134.9,653.6,129.5S699.2,119.8,730.1,115.3S765.2,110.6,808.4,107.1S918.7,99.2,946.3,97.7L944.7,67.7C916.9,69.2,849.8,73.6,806,77.2S757.6,81.1,725.9,85.6S674.1,94.6,647.5,100.1S618.6,107.3,592.6,113.1S546.9,120.2,517.4,129S467.8,150.3,445,157S432.1,167.8,403.4,162.3S336.1,142.4,301.4,129.6S243.8,105.2,229.9,98.1Z" style="fill: url(#pat_3004_4); opacity: 0.75;"></path><path d="M216.2,124.8C230.7,132.3,254.6,144.3,291,157.7S365.9,186.2,398.3,191.8S427.2,192.8,452.7,186S496.6,166.4,525.9,157.7S573.6,148.1,599.1,142.4S627.3,134.9,653.6,129.5S699.2,119.8,730.1,115.3S765.2,110.6,808.4,107.1S918.7,99.2,946.3,97.7" style="stroke: #0000ff; stroke-width: 3; fill: none;"></path></g></svg><g><g transform="translate(0,632)"><path d="M0,0h948M0,-632h948M0,-13V0M21,-7V0M42,-7V0M63,-7V0M84,-7V0M105,-13V0M126,-7V0M147,-7V0M169,-7V0M190,-7V0M211,-13V0M232,-7V0M253,-7V0M274,-7V0M295,-7V0M316,-13V0M337,-7V0M358,-7V0M379,-7V0M400,-7V0M421,-13V0M442,-7V0M463,-7V0M485,-7V0M506,-7V0M527,-13V0M548,-7V0M569,-7V0M590,-7V0M611,-7V0M632,-13V0M653,-7V0M674,-7V0M695,-7V0M716,-7V0M737,-13V0M758,-7V0M779,-7V0M801,-7V0M822,-7V0M843,-13V0M864,-7V0M885,-7V0M906,-7V0M927,-7V0M948,-13V0M0,-619V-632M21,-625V-632M42,-625V-632M63,-625V-632M84,-625V-632M105,-619V-632M126,-625V-632M147,-625V-632M169,-625V-632M190,-625V-632M211,-619V-632M232,-625V-632M253,-625V-632M274,-625V-632M295,-625V-632M316,-619V-632M337,-625V-632M358,-625V-632M379,-625V-632M400,-625V-632M421,-619V-632M442,-625V-632M463,-625V-632M485,-625V-632M506,-625V-632M527,-619V-632M548,-625V-632M569,-625V-632M590,-625V-632M611,-625V-632M632,-619V-632M653,-625V-632M674,-625V-632M695,-625V-632M716,-625V-632M737,-619V-632M758,-625V-632M779,-625V-632M801,-625V-632M822,-625V-632M843,-619V-632M864,-625V-632M885,-625V-632M906,-625V-632M927,-625V-632M948,-619V-632" style="stroke: #000000; stroke-width: 1;"></path><g font-family="Arial" font-size="24" space="preserve" fill="#000000" text-anchor="middle"><text dy=".8em" transform="translate(0,6)">50</text><text dy=".8em" transform="translate(105,6)">100</text><text dy=".8em" transform="translate(211,6)">150</text><text dy=".8em" transform="translate(316,6)">200</text><text dy=".8em" transform="translate(421,6)">250</text><text dy=".8em" transform="translate(527,6)">300</text><text dy=".8em" transform="translate(632,6)">350</text><text dy=".8em" transform="translate(737,6)">400</text><text dy=".8em" transform="translate(843,6)">450</text><text dy=".8em" transform="translate(948,6)">500</text></g><g font-family="Arial" font-size="40" space="preserve" transform="translate(948,90)"><g transform="translate(-172,12)"><text fill="#000000" font-size="40">m</text><text fill="#000000" font-size="24" transform="translate(35,8)">A</text><text fill="#000000" font-size="40" x="68">(GeV)</text></g></g></g><g><path d="M0,0v632M948,0v632M28,632H0M28,520H0M28,455H0M28,408H0M28,372H0M28,343H0M28,318H0M28,296H0M28,277H0M28,260H0M28,148H0M28,83H0M28,36H0M28,0H0M920,632H948M920,520H948M920,455H948M920,408H948M920,372H948M920,343H948M920,318H948M920,296H948M920,277H948M920,260H948M920,148H948M920,83H948M920,36H948M920,0H948" style="stroke: #000000; stroke-width: 1;"></path><g font-family="Arial" font-size="24" space="preserve" fill="#000000" text-anchor="end"><text dy=".4em" transform="translate(-6,632)">1</text><text dy=".4em" transform="translate(-6,520)">2</text><text dy=".4em" transform="translate(-6,455)">3</text><text dy=".4em" transform="translate(-6,408)">4</text><text dy=".4em" transform="translate(-6,372)">5</text><text dy=".4em" transform="translate(-6,343)">6</text><text dy=".4em" transform="translate(-6,318)">7</text><text dy=".4em" transform="translate(-6,296)">8</text><text dy=".4em" transform="translate(-6,277)">9</text><text dy=".4em" transform="translate(-6,260)">10</text><text dy=".4em" transform="translate(-6,148)">20</text><text dy=".4em" transform="translate(-6,83)">30</text><text dy=".4em" transform="translate(-6,36)">40</text><text dy=".4em" transform="translate(-6)">50</text></g><g font-family="Arial" font-size="40" space="preserve" transform="translate(-134)"><g transform="rotate(270) translate(-80,14)"><text fill="#000000" font-size="40">tanβ</text></g></g></g><path d="M0,0v632M105,0v632M211,0v632M316,0v632M421,0v632M527,0v632M632,0v632M737,0v632M843,0v632M948,0v632" style="stroke: #000000; stroke-width: 1; stroke-dasharray: 1,2;"></path><path d="M0,632h948M0,520h948M0,455h948M0,408h948M0,372h948M0,343h948M0,318h948M0,296h948M0,277h948M0,260h948M0,148h948M0,83h948M0,36h948M0,0h948" style="stroke: #000000; stroke-width: 1; stroke-dasharray: 1,2;"></path></g></g><g transform="translate(-462,4)" style="display: none;"><path d="M948,2h2v25h-948v-2h946z" style="fill: #000000; stroke: #000000; stroke-width: 1px;"></path><path d="M0,0H948V25H0Z" style="fill: #f2f2f2; stroke: #000000; stroke-width: 1;"></path></g><g font-family="Arial" font-size="36" space="preserve"><g transform="translate(383,84)"><text fill="#ff00ff" font-size="36">← t → bH</text><text fill="#ff00ff" font-size="22" transform="translate(161,-19)">+</text><text fill="#ff00ff" font-size="36" x="174">, H</text><text fill="#ff00ff" font-size="22" transform="translate(220,-19)">+</text><text fill="#ff00ff" font-size="36" x="247">→ τν</text></g></g><g font-family="Arial" font-size="36" space="preserve"><text fill="#000000" text-anchor="start" transform="translate(818,367)">ATLAS</text></g><g font-family="Arial" font-size="21" space="preserve"><g transform="translate(778,404)"><g><path style="stroke: #000000; stroke-width: 1; fill: none;" d="M0,5a4,4,0,0,0,8,0v-28a4,4,0,1,1,8,0"></path></g><text fill="#000000" font-size="21" x="21">Ldt = 300 fb</text><text fill="#000000" font-size="13" transform="translate(135,-11)">-1</text></g></g><g font-family="Arial" font-size="21" space="preserve"><text fill="#000000" text-anchor="start" transform="translate(804,441)">Maximal mixing</text></g><g font-family="Arial" font-size="21" space="preserve"><text fill="#000000" text-anchor="start" transform="translate(957,523)">LEP 2000</text></g><g font-family="Arial" font-size="36" space="preserve"><g transform="translate(483,311)"><text fill="#ff0000" font-size="36">gb → tH</text><text fill="#ff0000" font-size="22" transform="translate(135,-19)">+</text><text fill="#ff0000" font-size="36" x="148">, H</text><text fill="#ff0000" font-size="22" transform="translate(194,-19)">+</text><text fill="#ff0000" font-size="36" x="221">→ τν</text></g></g><g font-family="Arial" font-size="36" space="preserve"><g transform="translate(434,649)"><text fill="#0000ff" font-size="36">gb → tH</text><text fill="#0000ff" font-size="22" transform="translate(135,-19)">+</text><text fill="#0000ff" font-size="36" x="148">, H</text><text fill="#0000ff" font-size="22" transform="translate(194,-19)">+</text><text fill="#0000ff" font-size="36" x="221">→ tb</text></g></g></g></svg>