<svg xmlns="http://www.w3.org/2000/svg" viewBox="0 0 1200 800" preserveAspectRatio="none" width="1200" height="800"><path d="M0,0H1200V800H0Z" style="fill: #ffffff;"></path><g><svg viewBox="0 0 1080 360" preserveAspectRatio="none" x="60" y="40" width="1080" height="360"><path d="M0,0H1080V360H0Z" style="fill: #ffffff;"></path><g><g transform="translate(173,18)"><path d="M0,0H853V284H0Z" style="fill: #ffffff; stroke: #000000; stroke-width: 1;"></path><svg x="0" y="0" overflow="hidden" width="853" height="284" viewBox="0 0 853 284"><g><path d="M5,165h8l9,1l8,1l9,2l8,2l9,2l8,2l9,3l8,3l9,4l8,3l9,4l8,3l9,4l8,4l9,3l9,3l8,2l9,2l8,1h9h8l9,-2l8,-3l9,-4l8,-6l9,-7l8,-8l9,-9l8,-10l9,-12l8,-19l9,-19l9,-18l8,-17l9,-16l8,-15l9,-12l8,-10l9,-7l8,-5l9,-1l8,1l9,4l8,6l9,9l8,11l9,13l9,15l8,15l9,17l8,16l9,17l8,16l9,16l8,15l9,14l8,13l9,13l8,10l9,10l8,9l9,5l8,3l9,2l9,2l8,1l9,1h8h9h8h9h8h9h8h9h8l9,1h8h9l8,1l9,1h9l8,1l9,1l8,1l9,1l8,2l9,1l8,1l9,1l8,2l9,1l8,1l9,-2l8,-1l9,-1l8,-1l9,-1" style="fill: none; stroke: #0000ff; stroke-width: 6;"></path></g></svg><g><g transform="translate(0,284)"><path d="M0,0h853M0,-284h853M0,-9V0M17,-5V0M34,-5V0M51,-5V0M68,-5V0M85,-9V0M102,-5V0M119,-5V0M136,-5V0M154,-5V0M171,-9V0M188,-5V0M205,-5V0M222,-5V0M239,-5V0M256,-9V0M273,-5V0M290,-5V0M307,-5V0M324,-5V0M341,-9V0M358,-5V0M375,-5V0M392,-5V0M409,-5V0M427,-9V0M444,-5V0M461,-5V0M478,-5V0M495,-5V0M512,-9V0M529,-5V0M546,-5V0M563,-5V0M580,-5V0M597,-9V0M614,-5V0M631,-5V0M648,-5V0M665,-5V0M682,-9V0M699,-5V0M717,-5V0M734,-5V0M751,-5V0M768,-9V0M785,-5V0M802,-5V0M819,-5V0M836,-5V0M853,-9V0M0,-275V-284M17,-279V-284M34,-279V-284M51,-279V-284M68,-279V-284M85,-275V-284M102,-279V-284M119,-279V-284M136,-279V-284M154,-279V-284M171,-275V-284M188,-279V-284M205,-279V-284M222,-279V-284M239,-279V-284M256,-275V-284M273,-279V-284M290,-279V-284M307,-279V-284M324,-279V-284M341,-275V-284M358,-279V-284M375,-279V-284M392,-279V-284M409,-279V-284M427,-275V-284M444,-279V-284M461,-279V-284M478,-279V-284M495,-279V-284M512,-275V-284M529,-279V-284M546,-279V-284M563,-279V-284M580,-279V-284M597,-275V-284M614,-279V-284M631,-279V-284M648,-279V-284M665,-279V-284M682,-275V-284M699,-279V-284M717,-279V-284M734,-279V-284M751,-279V-284M768,-275V-284M785,-279V-284M802,-279V-284M819,-279V-284M836,-279V-284M853,-275V-284" style="stroke: #000000; stroke-width: 1;"></path><g font-family="Arial" font-size="18" space="preserve" fill="#000000" text-anchor="middle"><text dy=".8em" transform="translate(0,2)">0</text><text dy=".8em" transform="translate(85,2)">1</text><text dy=".8em" transform="translate(171,2)">2</text><text dy=".8em" transform="translate(256,2)">3</text><text dy=".8em" transform="translate(341,2)">4</text><text dy=".8em" transform="translate(427,2)">5</text><text dy=".8em" transform="translate(512,2)">6</text><text dy=".8em" transform="translate(597,2)">7</text><text dy=".8em" transform="translate(682,2)">8</text><text dy=".8em" transform="translate(768,2)">9</text><text dy=".8em" transform="translate(853,2)">10</text></g></g><g><path d="M0,0v284M853,0v284M26,284H0M13,278H0M13,272H0M13,266H0M13,260H0M26,254H0M13,248H0M13,242H0M13,236H0M13,230H0M26,224H0M13,218H0M13,213H0M13,207H0M13,201H0M26,195H0M13,189H0M13,183H0M13,177H0M13,171H0M26,165H0M13,159H0M13,153H0M13,147H0M13,141H0M26,135H0M13,129H0M13,123H0M13,117H0M13,111H0M26,105H0M13,99H0M13,93H0M13,87H0M13,81H0M26,76H0M13,70H0M13,64H0M13,58H0M13,52H0M26,46H0M13,40H0M13,34H0M13,28H0M13,22H0M26,16H0M13,10H0M13,4H0M827,284H853M840,278H853M840,272H853M840,266H853M840,260H853M827,254H853M840,248H853M840,242H853M840,236H853M840,230H853M827,224H853M840,218H853M840,213H853M840,207H853M840,201H853M827,195H853M840,189H853M840,183H853M840,177H853M840,171H853M827,165H853M840,159H853M840,153H853M840,147H853M840,141H853M827,135H853M840,129H853M840,123H853M840,117H853M840,111H853M827,105H853M840,99H853M840,93H853M840,87H853M840,81H853M827,76H853M840,70H853M840,64H853M840,58H853M840,52H853M827,46H853M840,40H853M840,34H853M840,28H853M840,22H853M827,16H853M840,10H853M840,4H853" style="stroke: #000000; stroke-width: 1;"></path><g font-family="Arial" font-size="18" space="preserve" fill="#000000" text-anchor="end"><text dy=".4em" transform="translate(-3,284)">0</text><text dy=".4em" transform="translate(-3,254)">5</text><text dy=".4em" transform="translate(-3,224)">10</text><text dy=".4em" transform="translate(-3,195)">15</text><text dy=".4em" transform="translate(-3,165)">20</text><text dy=".4em" transform="translate(-3,135)">25</text><text dy=".4em" transform="translate(-3,105)">30</text><text dy=".4em" transform="translate(-3,76)">35</text><text dy=".4em" transform="translate(-3,46)">40</text><text dy=".4em" transform="translate(-3,16)">45</text></g></g><path d="M0,0v284M85,0v284M171,0v284M256,0v284M341,0v284M427,0v284M512,0v284M597,0v284M682,0v284M768,0v284M853,0v284" style="stroke: #000000; stroke-width: 1; stroke-dasharray: 1,2;"></path><path d="M0,284h853M0,254h853M0,224h853M0,195h853M0,165h853M0,135h853M0,105h853M0,76h853M0,46h853M0,16h853" style="stroke: #000000; stroke-width: 1; stroke-dasharray: 1,2;"></path></g></g><g transform="translate(-416,2)" style="display: none;"><path d="M853,2h2v11h-853v-2h851z" style="fill: #000000; stroke: #000000; stroke-width: 1px;"></path><path d="M0,0H853V11H0Z" style="fill: #f2f2f2; stroke: #000000; stroke-width: 1;"></path></g><g transform="translate(599,28)" font-family="Arial" font-size="35" space="preserve"><path d="M410,3h3v42h-410v-3h407z" style="fill: #000000; stroke: #000000; stroke-width: 1px;"></path><path d="M0,0H410V42H0Z" style="fill: #f2f2f2; stroke: #000000; stroke-width: 1;"></path><text fill="#000000" text-anchor="middle" dy=".4em" transform="translate(205,21)">The sqroot function</text></g></g></svg><svg viewBox="0 0 1080 320" preserveAspectRatio="none" x="60" y="440" width="1080" height="320"><path d="M0,0H1080V320H0Z" style="fill: #ffffff;"></path><g><g transform="translate(173,16)"><path d="M0,0H853V253H0Z" style="fill: #ffffff; stroke: #000000; stroke-width: 1;"></path><svg x="0" y="0" overflow="hidden" width="853" height="253" viewBox="0 0 853 253"><g><path d="M0,160h4v4h5v-4h4v-18h4v15h4v24h5v-25h4v27h4v-24h9v9h8v5h4v-3h5v25h4v-35h4v17h5v-13h4v21h4v-21h4v-11h5v23h4v-8h4v10h4v14h5v-8h4v7h4v-3h4v-10h5v7h4v-8h4v28h4v-24h5v3h4v3h4v15h5v-3h4v-1h4v-8h4v18h5v-14h4v21h4v-7h4v-16h5v12h4v-16h4v7h4v4h5v19h4v-7h4v-24h5v4h4v-15h4v29h4v-25h5v1h8v-11h4v13h5v-41h4v29h4v-10h4v3h5v-21h4v-13h4v-24h4v20h5v-17h4v3h4v-7h5v-17h4v-3h4v2h4v-16h5v-3h4v-1h4v16h4v-57h5v23h4v15h4v3h4v-14h5v-32h4v-9h4v31h5v-10h4v30h4v-35h4v8h5v-1h4v-22h4v53h4v14h5v-3h4v6h4v-13h4v11h5v-13h4v22h4v28h5v-28h4v26h4v-18h4v37h5v-20h4v21h4v-3h4v-11h5v35h4v11h4v-7h4v3h5v21h4v-2h4v5h4v-7h5v24h4v6h4v-27h5v18h4v5h4v16h4v-12h5v11h4v6h4v11h4v-4h5v-5h4v3h8v7h5v-2h4v-2h4v4h5v-4h4v-10h4v13h4v6h5v-5h4v-8h4v11h4v-7h5v6h4v-2h4v9h4v-7h5v-2h4v-10h4v15h4v1h5v-10h4v6h4v-2h5v3h4v-3h4v-4h4v6h5v1h4v-5h4v2h4v-1h5v7h4v-6h8v9h5v-6h4v-7h4v3h5v6h4v2h4v-4h4v3h5v-4h4v5h4v-2h4v4h9v-9h4v3h4v7h5v-3h4v2h4v3h4v-2h5v2h4v-2h4v3h13v-3h4v3h9v-4h4v1h4v2h5v-5h4v3h4v3h4v-4h5v-6h4L853,256H0Z" style="stroke-linejoin: miter; stroke: #000000; stroke-width: 2; fill: #bf8277;"></path></g></svg><g><g transform="translate(0,253)"><path d="M0,0h853M0,-253h853M0,-8V0M17,-4V0M34,-4V0M51,-4V0M68,-4V0M85,-8V0M102,-4V0M119,-4V0M136,-4V0M154,-4V0M171,-8V0M188,-4V0M205,-4V0M222,-4V0M239,-4V0M256,-8V0M273,-4V0M290,-4V0M307,-4V0M324,-4V0M341,-8V0M358,-4V0M375,-4V0M392,-4V0M409,-4V0M427,-8V0M444,-4V0M461,-4V0M478,-4V0M495,-4V0M512,-8V0M529,-4V0M546,-4V0M563,-4V0M580,-4V0M597,-8V0M614,-4V0M631,-4V0M648,-4V0M665,-4V0M682,-8V0M699,-4V0M717,-4V0M734,-4V0M751,-4V0M768,-8V0M785,-4V0M802,-4V0M819,-4V0M836,-4V0M853,-8V0M0,-245V-253M17,-249V-253M34,-249V-253M51,-249V-253M68,-249V-253M85,-245V-253M102,-249V-253M119,-249V-253M136,-249V-253M154,-249V-253M171,-245V-253M188,-249V-253M205,-249V-253M222,-249V-253M239,-249V-253M256,-245V-253M273,-249V-253M290,-249V-253M307,-249V-253M324,-249V-253M341,-245V-253M358,-249V-253M375,-249V-253M392,-249V-253M409,-249V-253M427,-245V-253M444,-249V-253M461,-249V-253M478,-249V-253M495,-249V-253M512,-245V-253M529,-249V-253M546,-249V-253M563,-249V-253M580,-249V-253M597,-245V-253M614,-249V-253M631,-249V-253M648,-249V-253M665,-249V-253M682,-245V-253M699,-249V-253M717,-249V-253M734,-249V-253M751,-249V-253M768,-245V-253M785,-249V-253M802,-249V-253M819,-249V-253M836,-249V-253M853,-245V-253" style="stroke: #000000; stroke-width: 1;"></path><g font-family="Arial" font-size="16" space="preserve" fill="#000000" text-anchor="middle"><text dy=".8em" transform="translate(0,1)">0</text><text dy=".8em" transform="translate(85,1)">1</text><text dy=".8em" transform="translate(171,1)">2</text><text dy=".8em" transform="translate(256,1)">3</text><text dy=".8em" transform="translate(341,1)">4</text><text dy=".8em" transform="translate(427,1)">5</text><text dy=".8em" transform="translate(512,1)">6</text><text dy=".8em" transform="translate(597,1)">7</text><text dy=".8em" transform="translate(682,1)">8</text><text dy=".8em" transform="translate(768,1)">9</text><text dy=".8em" transform="translate(853,1)">10</text></g></g><g><path d="M0,0v253M853,0v253M26,253H0M13,246H0M13,239H0M13,232H0M26,225H0M13,218H0M13,211H0M13,204H0M26,197H0M13,190H0M13,183H0M13,176H0M26,168H0M13,161H0M13,154H0M13,147H0M26,140H0M13,133H0M13,126H0M13,119H0M26,112H0M13,105H0M13,98H0M13,91H0M26,84H0M13,77H0M13,70H0M13,63H0M26,56H0M13,49H0M13,42H0M13,35H0M26,28H0M13,21H0M13,13H0M13,6H0M827,253H853M840,246H853M840,239H853M840,232H853M827,225H853M840,218H853M840,211H853M840,204H853M827,197H853M840,190H853M840,183H853M840,176H853M827,168H853M840,161H853M840,154H853M840,147H853M827,140H853M840,133H853M840,126H853M840,119H853M827,112H853M840,105H853M840,98H853M840,91H853M827,84H853M840,77H853M840,70H853M840,63H853M827,56H853M840,49H853M840,42H853M840,35H853M827,28H853M840,21H853M840,13H853M840,6H853" style="stroke: #000000; stroke-width: 1;"></path><g font-family="Arial" font-size="16" space="preserve" fill="#000000" text-anchor="end"><text dy=".4em" transform="translate(-2,253)">0</text><text dy=".4em" transform="translate(-2,225)">20</text><text dy=".4em" transform="translate(-2,197)">40</text><text dy=".4em" transform="translate(-2,168)">60</text><text dy=".4em" transform="translate(-2,140)">80</text><text dy=".4em" transform="translate(-2,112)">100</text><text dy=".4em" transform="translate(-2,84)">120</text><text dy=".4em" transform="translate(-2,56)">140</text><text dy=".4em" transform="translate(-2,28)">160</text></g></g></g></g><g transform="translate(-416,2)" style="display: none;"><path d="M853,2h2v10h-853v-2h851z" style="fill: #000000; stroke: #000000; stroke-width: 1px;"></path><path d="M0,0H853V10H0Z" style="fill: #f2f2f2; stroke: #000000; stroke-width: 1;"></path></g></g></svg></g></svg>