<svg xmlns="http://www.w3.org/2000/svg" viewBox="0 0 1200 800" preserveAspectRatio="none" width="1200" height="800"><path d="M0,0H1200V800H0Z" style="fill: #fefefe;"></path><g><g transform="translate(180,10)" font-family="Arial" font-size="41" space="preserve"><path d="M840,3h3v57h-840v-3h837z" style="fill: #000000; stroke: #000000; stroke-width: 1px;"></path><path d="M0,0H840V57H0Z" style="fill: #e5e5e5; stroke: #000000; stroke-width: 1;"></path><text fill="#000000" text-anchor="middle" dy=".4em" transform="translate(420,29)">My first ROOT interactive session</text></g><g font-family="Arial" font-size="20" space="preserve" font-weight="bold"><text fill="#000000" text-anchor="start" dy=".4em" transform="translate(120,123)">ROOT is based on CLING, a powerful C/C++ interpreter.</text></g><g font-family="Arial" font-size="20" space="preserve" font-weight="bold"><text fill="#000000" text-anchor="start" dy=".4em" transform="translate(120,157)">Blocks of lines can be entered within {...}.</text></g><g font-family="Arial" font-size="20" space="preserve" font-weight="bold"><text fill="#000000" text-anchor="start" dy=".4em" transform="translate(120,190)">Previous typed lines can be recalled.</text></g><g font-family="Arial" font-size="21" space="preserve" font-weight="bold" font-style="oblique"><text fill="#000000" text-anchor="start" dy=".4em" transform="translate(180,233)">Root &gt;  float x=5; float y=7;</text></g><g font-family="Arial" font-size="21" space="preserve" font-weight="bold" font-style="oblique"><text fill="#000000" text-anchor="start" dy=".4em" transform="translate(180,267)">Root &gt;  x*sqrt(y)</text></g><g font-family="Arial" font-size="21" space="preserve" font-weight="bold" font-style="oblique"><text fill="#000000" text-anchor="start" dy=".4em" transform="translate(180,333)">Root &gt;  for (int i=2;i&lt;7;i++) printf("sqrt(%d) = %f\n",i,sqrt(i));</text></g><g font-family="Arial" font-size="21" space="preserve" font-weight="bold" font-style="oblique"><text fill="#000000" text-anchor="start" dy=".4em" transform="translate(180,467)">Root &gt;  TF1 f1("f1","sin(x)/x",0,10)</text></g><g font-family="Arial" font-size="21" space="preserve" font-weight="bold" font-style="oblique"><text fill="#000000" text-anchor="start" dy=".4em" transform="translate(180,500)">Root &gt;  f1.Draw()</text></g><g font-family="Courier New" font-size="14" space="preserve"><text fill="#000000" text-anchor="start" dy=".4em" transform="translate(240,300)">(float) 13.2288f</text></g><g font-family="Courier New" font-size="14" space="preserve"><text fill="#000000" text-anchor="start" dy=".4em" transform="translate(240,357)">sqrt(2) = 1.414214</text></g><g font-family="Courier New" font-size="14" space="preserve"><text fill="#000000" text-anchor="start" dy=".4em" transform="translate(240,377)">sqrt(3) = 1.732051</text></g><g font-family="Courier New" font-size="14" space="preserve"><text fill="#000000" text-anchor="start" dy=".4em" transform="translate(240,397)">sqrt(4) = 2.000000</text></g><g font-family="Courier New" font-size="14" space="preserve"><text fill="#000000" text-anchor="start" dy=".4em" transform="translate(240,417)">sqrt(5) = 2.236068</text></g><g font-family="Courier New" font-size="14" space="preserve"><text fill="#000000" text-anchor="start" dy=".4em" transform="translate(240,437)">sqrt(6) = 2.449490</text></g><svg viewBox="0 0 720 240" preserveAspectRatio="none" x="240" y="520" width="720" height="240"><path d="M0,0H720V240H0Z" style="fill: #ffffff;"></path><g><g transform="translate(115,12)"><path d="M0,0H569V190H0Z" style="fill: #ffffff; stroke: #000000; stroke-width: 1;"></path><svg x="0" y="0" overflow="hidden" width="569" height="190" viewBox="0 0 569 190"><g><path d="M3,9l6,1h5l6,2l6,2l5,2l6,3l6,3l6,3l5,4l6,5l6,4l5,5l6,5l6,6l5,5l6,6l6,6l5,6l6,6l6,6l5,7l6,6l6,6l6,6l5,6l6,5l6,6l5,5l6,5l6,5l5,5l6,4l6,4l5,4l6,3l6,4l6,2l5,3l6,2l6,1l5,2h6l6,1h5h6h6l5,-1h6l6,-2l6,-1l5,-1l6,-2l6,-2l5,-2l6,-2l6,-3l5,-2l6,-2l6,-3l5,-2l6,-2l6,-3l5,-2l6,-2l6,-2l6,-2l5,-2l6,-1l6,-2l5,-1l6,-1l6,-1l5,-1l6,-1h6h5l6,-1l6,1h6h5l6,1l6,1l5,1l6,1l6,1l5,1l6,2l6,1l5,1l6,2l6,1l5,2l6,2l6,1l6,1l5,2l6,1l6,2l5,1" style="fill: none; stroke: #000000; stroke-width: 3;"></path></g></svg><g><g transform="translate(0,190)"><path d="M0,0h569M0,-190h569M0,-6V0M11,-3V0M23,-3V0M34,-3V0M46,-3V0M57,-6V0M68,-3V0M80,-3V0M91,-3V0M102,-3V0M114,-6V0M125,-3V0M137,-3V0M148,-3V0M159,-3V0M171,-6V0M182,-3V0M193,-3V0M205,-3V0M216,-3V0M228,-6V0M239,-3V0M250,-3V0M262,-3V0M273,-3V0M285,-6V0M296,-3V0M307,-3V0M319,-3V0M330,-3V0M341,-6V0M353,-3V0M364,-3V0M376,-3V0M387,-3V0M398,-6V0M410,-3V0M421,-3V0M432,-3V0M444,-3V0M455,-6V0M467,-3V0M478,-3V0M489,-3V0M501,-3V0M512,-6V0M523,-3V0M535,-3V0M546,-3V0M558,-3V0M569,-6V0M0,-184V-190M11,-187V-190M23,-187V-190M34,-187V-190M46,-187V-190M57,-184V-190M68,-187V-190M80,-187V-190M91,-187V-190M102,-187V-190M114,-184V-190M125,-187V-190M137,-187V-190M148,-187V-190M159,-187V-190M171,-184V-190M182,-187V-190M193,-187V-190M205,-187V-190M216,-187V-190M228,-184V-190M239,-187V-190M250,-187V-190M262,-187V-190M273,-187V-190M285,-184V-190M296,-187V-190M307,-187V-190M319,-187V-190M330,-187V-190M341,-184V-190M353,-187V-190M364,-187V-190M376,-187V-190M387,-187V-190M398,-184V-190M410,-187V-190M421,-187V-190M432,-187V-190M444,-187V-190M455,-184V-190M467,-187V-190M478,-187V-190M489,-187V-190M501,-187V-190M512,-184V-190M523,-187V-190M535,-187V-190M546,-187V-190M558,-187V-190M569,-184V-190" style="stroke: #000000; stroke-width: 1;"></path><g font-family="Arial" font-size="12" space="preserve" fill="#000000" text-anchor="middle"><text dy=".8em" transform="translate(0,1)">0</text><text dy=".8em" transform="translate(57,1)">1</text><text dy=".8em" transform="translate(114,1)">2</text><text dy=".8em" transform="translate(171,1)">3</text><text dy=".8em" transform="translate(228,1)">4</text><text dy=".8em" transform="translate(285,1)">5</text><text dy=".8em" transform="translate(341,1)">6</text><text dy=".8em" transform="translate(398,1)">7</text><text dy=".8em" transform="translate(455,1)">8</text><text dy=".8em" transform="translate(512,1)">9</text><text dy=".8em" transform="translate(569,1)">10</text></g></g><g><path d="M0,0v190M569,0v190M9,186H0M17,179H0M9,172H0M9,165H0M9,158H0M17,151H0M9,144H0M9,136H0M9,129H0M17,122H0M9,115H0M9,108H0M9,101H0M17,94H0M9,87H0M9,80H0M9,73H0M17,66H0M9,59H0M9,51H0M9,44H0M17,37H0M9,30H0M9,23H0M9,16H0M17,9H0M9,2H0M560,186H569M552,179H569M560,172H569M560,165H569M560,158H569M552,151H569M560,144H569M560,136H569M560,129H569M552,122H569M560,115H569M560,108H569M560,101H569M552,94H569M560,87H569M560,80H569M560,73H569M552,66H569M560,59H569M560,51H569M560,44H569M552,37H569M560,30H569M560,23H569M560,16H569M552,9H569M560,2H569" style="stroke: #000000; stroke-width: 1;"></path><g font-family="Arial" font-size="12" space="preserve" fill="#000000" text-anchor="end"><text dy=".4em" transform="translate(-2,179)">-0.2</text><text dy=".4em" transform="translate(-2,151)">0</text><text dy=".4em" transform="translate(-2,122)">0.2</text><text dy=".4em" transform="translate(-2,94)">0.4</text><text dy=".4em" transform="translate(-2,66)">0.6</text><text dy=".4em" transform="translate(-2,37)">0.8</text><text dy=".4em" transform="translate(-2,9)">1</text></g></g><path d="M0,0v190M57,0v190M114,0v190M171,0v190M228,0v190M285,0v190M341,0v190M398,0v190M455,0v190M512,0v190M569,0v190" style="stroke: #000000; stroke-width: 1; stroke-dasharray: 1,2;"></path><path d="M0,179h569M0,151h569M0,122h569M0,94h569M0,66h569M0,37h569M0,9h569" style="stroke: #000000; stroke-width: 1; stroke-dasharray: 1,2;"></path></g></g><g transform="translate(-277,1)" style="display: none;"><path d="M569,2h2v8h-569v-2h567z" style="fill: #000000; stroke: #000000; stroke-width: 1px;"></path><path d="M0,0H569V8H0Z" style="fill: #f2f2f2; stroke: #000000; stroke-width: 1;"></path></g></g></svg></g></svg>