<svg xmlns="http://www.w3.org/2000/svg" viewBox="0 0 1200 800" preserveAspectRatio="none" width="1200" height="800"><path d="M0,0H1200V800H0Z" style="fill: #fefefe;"></path><g><g transform="translate(180,10)" font-family="Arial" font-size="40" space="preserve" font-weight="bold"><path d="M840,3h3v57h-840v-3h837z" style="fill: #000000; stroke: #000000; stroke-width: 1px;"></path><path d="M0,0H840V57H0Z" style="fill: #e5e5e5; stroke: #000000; stroke-width: 1;"></path><text fill="#000000" text-anchor="middle" dy=".4em" transform="translate(420,29)">My first ROOT interactive session</text></g><g font-family="Arial" font-size="20" space="preserve" font-weight="bold"><text fill="#000000" text-anchor="start" dy=".4em" transform="translate(120,123)">ROOT is based on CLING, a powerful C/C++ interpreter.</text></g><g font-family="Arial" font-size="20" space="preserve" font-weight="bold"><text fill="#000000" text-anchor="start" dy=".4em" transform="translate(120,157)">Blocks of lines can be entered within {...}.</text></g><g font-family="Arial" font-size="20" space="preserve" font-weight="bold"><text fill="#000000" text-anchor="start" dy=".4em" transform="translate(120,190)">Previous typed lines can be recalled.</text></g><g font-family="Arial" font-size="21" space="preserve" font-weight="bold" font-style="oblique"><text fill="#000000" text-anchor="start" dy=".4em" transform="translate(180,233)">Root &gt;  float x=5; float y=7;</text></g><g font-family="Arial" font-size="21" space="preserve" font-weight="bold" font-style="oblique"><text fill="#000000" text-anchor="start" dy=".4em" transform="translate(180,267)">Root &gt;  x*sqrt(y)</text></g><g font-family="Arial" font-size="21" space="preserve" font-weight="bold" font-style="oblique"><text fill="#000000" text-anchor="start" dy=".4em" transform="translate(180,333)">Root &gt;  for (int i=2;i&lt;7;i++) printf("sqrt(%d) = %f\n",i,sqrt(i));</text></g><g font-family="Arial" font-size="21" space="preserve" font-weight="bold" font-style="oblique"><text fill="#000000" text-anchor="start" dy=".4em" transform="translate(180,467)">Root &gt;  TF1 f1("f1","sin(x)/x",0,10)</text></g><g font-family="Arial" font-size="21" space="preserve" font-weight="bold" font-style="oblique"><text fill="#000000" text-anchor="start" dy=".4em" transform="translate(180,500)">Root &gt;  f1.Draw()</text></g><g font-family="Courier New" font-size="14" space="preserve"><text fill="#000000" text-anchor="start" dy=".4em" transform="translate(240,300)">(float) 13.2288f</text></g><g font-family="Courier New" font-size="14" space="preserve"><text fill="#000000" text-anchor="start" dy=".4em" transform="translate(240,357)">sqrt(2) = 1.414214</text></g><g font-family="Courier New" font-size="14" space="preserve"><text fill="#000000" text-anchor="start" dy=".4em" transform="translate(240,377)">sqrt(3) = 1.732051</text></g><g font-family="Courier New" font-size="14" space="preserve"><text fill="#000000" text-anchor="start" dy=".4em" transform="translate(240,397)">sqrt(4) = 2.000000</text></g><g font-family="Courier New" font-size="14" space="preserve"><text fill="#000000" text-anchor="start" dy=".4em" transform="translate(240,417)">sqrt(5) = 2.236068</text></g><g font-family="Courier New" font-size="14" space="preserve"><text fill="#000000" text-anchor="start" dy=".4em" transform="translate(240,437)">sqrt(6) = 2.449490</text></g><svg viewBox="0 0 720 240" preserveAspectRatio="none" x="240" y="520" width="720" height="240"><path d="M0,0H720V240H0Z" style="fill: #ffffff;"></path><g><g transform="translate(72,24)"><path d="M0,0H576V192H0Z" style="fill: #ffffff; stroke: #000000; stroke-width: 1;"></path><svg x="0" y="0" overflow="hidden" width="576" height="192" viewBox="0 0 576 192"><g><path d="M3,9l6,1l6,1l5,1l6,2l6,2l6,3l5,3l6,4l6,4l6,4l5,5l6,5l6,5l6,5l5,6l6,6l6,6l6,6l5,6l6,6l6,7l6,6l5,6l6,6l6,6l6,6l6,5l5,6l6,5l6,5l6,5l5,4l6,4l6,4l6,3l5,3l6,3l6,2l6,2l5,2l6,1l6,1l6,1h5h6h6l6,-1l5,-1l6,-1l6,-1l6,-2l6,-1l5,-2l6,-2l6,-3l6,-2l5,-2l6,-3l6,-2l6,-2l5,-3l6,-2l6,-2l6,-2l5,-3l6,-1l6,-2l6,-2l5,-2l6,-1l6,-1l6,-1l5,-1h6l6,-1h6h6h5h6l6,1h6l5,1l6,1l6,1l6,1l5,2l6,1l6,1l6,2l5,1l6,2l6,2l6,1l5,2l6,1l6,2l6,1l5,1l6,1" style="fill: none; stroke: #ff0000; stroke-width: 2;"></path></g></svg><g><g transform="translate(0,192)"><path d="M0,0h576M0,-7V0M12,-4V0M23,-4V0M35,-4V0M46,-4V0M58,-7V0M69,-4V0M81,-4V0M92,-4V0M104,-4V0M115,-7V0M127,-4V0M138,-4V0M150,-4V0M161,-4V0M173,-7V0M184,-4V0M196,-4V0M207,-4V0M219,-4V0M230,-7V0M242,-4V0M253,-4V0M265,-4V0M276,-4V0M288,-7V0M300,-4V0M311,-4V0M323,-4V0M334,-4V0M346,-7V0M357,-4V0M369,-4V0M380,-4V0M392,-4V0M403,-7V0M415,-4V0M426,-4V0M438,-4V0M449,-4V0M461,-7V0M472,-4V0M484,-4V0M495,-4V0M507,-4V0M518,-7V0M530,-4V0M541,-4V0M553,-4V0M564,-4V0M576,-7V0" style="stroke: #000000; stroke-width: 1;"></path><g font-family="Arial" font-size="8" space="preserve" fill="#000000" text-anchor="middle"><text dy=".8em" transform="translate(0,1)">0</text><text dy=".8em" transform="translate(58,1)">1</text><text dy=".8em" transform="translate(115,1)">2</text><text dy=".8em" transform="translate(173,1)">3</text><text dy=".8em" transform="translate(230,1)">4</text><text dy=".8em" transform="translate(288,1)">5</text><text dy=".8em" transform="translate(346,1)">6</text><text dy=".8em" transform="translate(403,1)">7</text><text dy=".8em" transform="translate(461,1)">8</text><text dy=".8em" transform="translate(518,1)">9</text><text dy=".8em" transform="translate(576,1)">10</text></g></g><g><path d="M0,0v192M11,188H0M22,181H0M11,174H0M11,167H0M11,159H0M22,152H0M11,145H0M11,138H0M11,131H0M22,124H0M11,116H0M11,109H0M11,102H0M22,95H0M11,88H0M11,81H0M11,73H0M22,66H0M11,59H0M11,52H0M11,45H0M22,38H0M11,31H0M11,23H0M11,16H0M22,9H0M11,2H0" style="stroke: #000000; stroke-width: 1;"></path><g font-family="Arial" font-size="8" space="preserve" fill="#000000" text-anchor="end"><text dy=".4em" transform="translate(-2,181)">-0.2</text><text dy=".4em" transform="translate(-2,152)">0</text><text dy=".4em" transform="translate(-2,124)">0.2</text><text dy=".4em" transform="translate(-2,95)">0.4</text><text dy=".4em" transform="translate(-2,66)">0.6</text><text dy=".4em" transform="translate(-2,38)">0.8</text><text dy=".4em" transform="translate(-2,9)">1</text></g></g><path d="M0,0v192M58,0v192M115,0v192M173,0v192M230,0v192M288,0v192M346,0v192M403,0v192M461,0v192M518,0v192M576,0v192" style="stroke: #000000; stroke-width: 1; stroke-dasharray: 1,2;"></path><path d="M0,181h576M0,152h576M0,124h576M0,95h576M0,66h576M0,38h576M0,9h576" style="stroke: #000000; stroke-width: 1; stroke-dasharray: 1,2;"></path></g></g><g transform="translate(72,1)" font-family="Arial" font-size="12" space="preserve"><text fill="#000000" text-anchor="middle" dy=".8em" transform="translate(288)">sin(x)/x</text></g></g></svg></g></svg>