<svg xmlns="http://www.w3.org/2000/svg" viewBox="0 0 1200 800" preserveAspectRatio="none" width="1200" height="800"><path d="M0,0H1200V800H0Z" style="fill: #ffffff;"></path><g><g transform="translate(25,647)" font-family="Arial" font-size="94" space="preserve"><path d="M76,-76h1112v113h-1112z" style="fill: #ddba87; stroke: #000000; stroke-width: 1;"></path><path d="M72,-72h1112v113h-1112z" style="fill: #ddba87; stroke: #000000; stroke-width: 1;"></path><path d="M68,-68h1112v113h-1112z" style="fill: #ddba87; stroke: #000000; stroke-width: 1;"></path><path d="M64,-64h1112v113h-1112z" style="fill: #ddba87; stroke: #000000; stroke-width: 1;"></path><path d="M60,-60h1112v113h-1112z" style="fill: #ddba87; stroke: #000000; stroke-width: 1;"></path><path d="M56,-56h1112v113h-1112z" style="fill: #ddba87; stroke: #000000; stroke-width: 1;"></path><path d="M52,-52h1112v113h-1112z" style="fill: #ddba87; stroke: #000000; stroke-width: 1;"></path><path d="M48,-48h1112v113h-1112z" style="fill: #ddba87; stroke: #000000; stroke-width: 1;"></path><path d="M44,-44h1112v113h-1112z" style="fill: #ddba87; stroke: #000000; stroke-width: 1;"></path><path d="M40,-40h1112v113h-1112z" style="fill: #ddba87; stroke: #000000; stroke-width: 1;"></path><path d="M36,-36h1112v113h-1112z" style="fill: #ddba87; stroke: #000000; stroke-width: 1;"></path><path d="M32,-32h1112v113h-1112z" style="fill: #ddba87; stroke: #000000; stroke-width: 1;"></path><path d="M28,-28h1112v113h-1112z" style="fill: #ddba87; stroke: #000000; stroke-width: 1;"></path><path d="M24,-24h1112v113h-1112z" style="fill: #ddba87; stroke: #000000; stroke-width: 1;"></path><path d="M20,-20h1112v113h-1112z" style="fill: #ddba87; stroke: #000000; stroke-width: 1;"></path><path d="M16,-16h1112v113h-1112z" style="fill: #ddba87; stroke: #000000; stroke-width: 1;"></path><path d="M12,-12h1112v113h-1112z" style="fill: #ddba87; stroke: #000000; stroke-width: 1;"></path><path d="M8,-8h1112v113h-1112z" style="fill: #ddba87; stroke: #000000; stroke-width: 1;"></path><path d="M4,-4h1112v113h-1112z" style="fill: #ddba87; stroke: #000000; stroke-width: 1;"></path><path d="M0,0H1112V113H0Z" style="fill: #ddba87; stroke: #000000; stroke-width: 1;"></path><text fill="#000000" text-anchor="middle" dy=".4em" transform="translate(556,57)">ROOT Framework</text></g><g transform="translate(63,422)" font-family="Arial" font-size="21" space="preserve" fill="#000000" text-anchor="middle"><path d="M12,-12h145v201h-145z" style="fill: #7c99d1; stroke: #000000; stroke-width: 1;"></path><path d="M8,-8h145v201h-145z" style="fill: #7c99d1; stroke: #000000; stroke-width: 1;"></path><path d="M4,-4h145v201h-145z" style="fill: #7c99d1; stroke: #000000; stroke-width: 1;"></path><path d="M0,0H145V201H0Z" style="fill: #7c99d1; stroke: #000000; stroke-width: 1;"></path><text dy=".4em" transform="translate(73,50)">Event</text><text dy=".4em" transform="translate(73,151)">Generators</text></g><g transform="translate(229,269)" font-family="Arial" font-size="23" space="preserve" fill="#000000" text-anchor="middle"><path d="M24,-24h160v350h-160z" style="fill: #d3ce87; stroke: #000000; stroke-width: 1;"></path><path d="M20,-20h160v350h-160z" style="fill: #d3ce87; stroke: #000000; stroke-width: 1;"></path><path d="M16,-16h160v350h-160z" style="fill: #d3ce87; stroke: #000000; stroke-width: 1;"></path><path d="M12,-12h160v350h-160z" style="fill: #d3ce87; stroke: #000000; stroke-width: 1;"></path><path d="M8,-8h160v350h-160z" style="fill: #d3ce87; stroke: #000000; stroke-width: 1;"></path><path d="M4,-4h160v350h-160z" style="fill: #d3ce87; stroke: #000000; stroke-width: 1;"></path><path d="M0,0H160V350H0Z" style="fill: #d3ce87; stroke: #000000; stroke-width: 1;"></path><text dy=".4em" transform="translate(80,88)">Detector</text><text dy=".4em" transform="translate(80,263)">Simulation</text></g><g transform="translate(414,123)" font-family="Arial" font-size="23" space="preserve" fill="#000000" text-anchor="middle"><path d="M40,-40h222v497h-222z" style="fill: #a5777a; stroke: #000000; stroke-width: 1;"></path><path d="M36,-36h222v497h-222z" style="fill: #a5777a; stroke: #000000; stroke-width: 1;"></path><path d="M32,-32h222v497h-222z" style="fill: #a5777a; stroke: #000000; stroke-width: 1;"></path><path d="M28,-28h222v497h-222z" style="fill: #a5777a; stroke: #000000; stroke-width: 1;"></path><path d="M24,-24h222v497h-222z" style="fill: #a5777a; stroke: #000000; stroke-width: 1;"></path><path d="M20,-20h222v497h-222z" style="fill: #a5777a; stroke: #000000; stroke-width: 1;"></path><path d="M16,-16h222v497h-222z" style="fill: #a5777a; stroke: #000000; stroke-width: 1;"></path><path d="M12,-12h222v497h-222z" style="fill: #a5777a; stroke: #000000; stroke-width: 1;"></path><path d="M8,-8h222v497h-222z" style="fill: #a5777a; stroke: #000000; stroke-width: 1;"></path><path d="M4,-4h222v497h-222z" style="fill: #a5777a; stroke: #000000; stroke-width: 1;"></path><path d="M0,0H222V497H0Z" style="fill: #a5777a; stroke: #000000; stroke-width: 1;"></path><text dy=".4em" transform="translate(111,124)">Event</text><text dy=".4em" transform="translate(111,373)">Reconstruction</text></g><g transform="translate(659,79)" font-family="Arial" font-size="30" space="preserve" fill="#000000" text-anchor="middle"><path d="M40,-40h225v538h-225z" style="fill: #f2f2f2; stroke: #000000; stroke-width: 1;"></path><path d="M36,-36h225v538h-225z" style="fill: #f2f2f2; stroke: #000000; stroke-width: 1;"></path><path d="M32,-32h225v538h-225z" style="fill: #f2f2f2; stroke: #000000; stroke-width: 1;"></path><path d="M28,-28h225v538h-225z" style="fill: #f2f2f2; stroke: #000000; stroke-width: 1;"></path><path d="M24,-24h225v538h-225z" style="fill: #f2f2f2; stroke: #000000; stroke-width: 1;"></path><path d="M20,-20h225v538h-225z" style="fill: #f2f2f2; stroke: #000000; stroke-width: 1;"></path><path d="M16,-16h225v538h-225z" style="fill: #f2f2f2; stroke: #000000; stroke-width: 1;"></path><path d="M12,-12h225v538h-225z" style="fill: #f2f2f2; stroke: #000000; stroke-width: 1;"></path><path d="M8,-8h225v538h-225z" style="fill: #f2f2f2; stroke: #000000; stroke-width: 1;"></path><path d="M4,-4h225v538h-225z" style="fill: #f2f2f2; stroke: #000000; stroke-width: 1;"></path><path d="M0,0H225V538H0Z" style="fill: #f2f2f2; stroke: #000000; stroke-width: 1;"></path><text dy=".4em" transform="translate(113,135)">Data</text><text dy=".4em" transform="translate(113,404)">Acquisition</text></g><g transform="translate(919,113)" font-family="Arial" font-size="39" space="preserve" fill="#000000" text-anchor="middle"><path d="M40,-40h212v506h-212z" style="fill: #ddba87; stroke: #000000; stroke-width: 1;"></path><path d="M36,-36h212v506h-212z" style="fill: #ddba87; stroke: #000000; stroke-width: 1;"></path><path d="M32,-32h212v506h-212z" style="fill: #ddba87; stroke: #000000; stroke-width: 1;"></path><path d="M28,-28h212v506h-212z" style="fill: #ddba87; stroke: #000000; stroke-width: 1;"></path><path d="M24,-24h212v506h-212z" style="fill: #ddba87; stroke: #000000; stroke-width: 1;"></path><path d="M20,-20h212v506h-212z" style="fill: #ddba87; stroke: #000000; stroke-width: 1;"></path><path d="M16,-16h212v506h-212z" style="fill: #ddba87; stroke: #000000; stroke-width: 1;"></path><path d="M12,-12h212v506h-212z" style="fill: #ddba87; stroke: #000000; stroke-width: 1;"></path><path d="M8,-8h212v506h-212z" style="fill: #ddba87; stroke: #000000; stroke-width: 1;"></path><path d="M4,-4h212v506h-212z" style="fill: #ddba87; stroke: #000000; stroke-width: 1;"></path><path d="M0,0H212V506H0Z" style="fill: #ddba87; stroke: #000000; stroke-width: 1;"></path><text dy=".4em" transform="translate(106,127)">Data</text><text dy=".4em" transform="translate(106,380)">Analysis</text></g></g></svg>