<svg xmlns="http://www.w3.org/2000/svg" viewBox="0 0 1200 800" preserveAspectRatio="none" width="1200" height="800"><path d="M0,0H1200V800H0Z" style="fill: #ffffff;"></path><g><g transform="translate(192,40)"><path d="M0,0H948V632H0Z" style="fill: #ffffff; stroke: #000000; stroke-width: 1;"></path><svg x="0" y="0" overflow="hidden" width="948" height="632" viewBox="0 0 948 632"><g><path d="M107,579l160,-100l118,-142l59,-95l89,-84l65,-32l54,48l89,126l23,95l36,184" style="stroke: #000000; stroke-width: 1; fill: none;"></path><g transform="translate(107,579)"><path style="stroke: #000000; stroke-width: 1; fill: none;" d="M0,0H-30m0,1v-2M0,0H30m0,1v-2M0,0V42m1,0h-2M0,0V-42m1,0h-2"></path></g><g transform="translate(267,479)"><path style="stroke: #000000; stroke-width: 1; fill: none;" d="M0,0H-59m0,1v-2M0,0H59m0,1v-2M0,0V37m1,0h-2M0,0V-37m1,0h-2"></path></g><g transform="translate(385,337)"><path style="stroke: #000000; stroke-width: 1; fill: none;" d="M0,0H-41m0,1v-2M0,0H41m0,1v-2M0,0V32m1,0h-2M0,0V-32m1,0h-2"></path></g><g transform="translate(444,242)"><path style="stroke: #000000; stroke-width: 1; fill: none;" d="M0,0H-41m0,1v-2M0,0H41m0,1v-2M0,0V26m1,0h-2M0,0V-26m1,0h-2"></path></g><g transform="translate(533,158)"><path style="stroke: #000000; stroke-width: 1; fill: none;" d="M0,0H-24m0,1v-2M0,0H24m0,1v-2M0,0V21m1,0h-2M0,0V-21m1,0h-2"></path></g><g transform="translate(598,126)"><path style="stroke: #000000; stroke-width: 1; fill: none;" d="M0,0H-30m0,1v-2M0,0H30m0,1v-2M0,0V21m1,0h-2M0,0V-21m1,0h-2"></path></g><g transform="translate(652,174)"><path style="stroke: #000000; stroke-width: 1; fill: none;" d="M0,0H-36m0,1v-2M0,0H36m0,1v-2M0,0V26m1,0h-2M0,0V-26m1,0h-2"></path></g><g transform="translate(741,300)"><path style="stroke: #000000; stroke-width: 1; fill: none;" d="M0,0H-41m0,1v-2M0,0H41m0,1v-2M0,0V32m1,0h-2M0,0V-32m1,0h-2"></path></g><g transform="translate(764,395)"><path style="stroke: #000000; stroke-width: 1; fill: none;" d="M0,0H-47m0,1v-2M0,0H47m0,1v-2M0,0V37m1,0h-2M0,0V-37m1,0h-2"></path></g><g transform="translate(800,579)"><path style="stroke: #000000; stroke-width: 1; fill: none;" d="M0,0H-30m0,1v-2M0,0H30m0,1v-2M0,0V42m1,0h-2M0,0V-42m1,0h-2"></path></g><path d="M102,575v10h10v-10zM262,474v10h10v-10zM380,332v10h10v-10zM440,237v10h10v-10zM528,153v10h10v-10zM594,122v10h10v-10zM647,169v10h10v-10zM736,295v10h10v-10zM760,390v10h10v-10zM795,575v10h10v-10z" style="stroke: #0000ff; fill: #0000ff;"></path></g><g><path d="M71,589l169,-160l110,-166l59,-105l95,-53l65,-29l53,48l89,126l59,97l65,180" style="stroke: #000000; stroke-width: 1; fill: none;"></path><g transform="translate(71,589)"><path style="stroke: #000000; stroke-width: 1; fill: none;" d="M0,0H-24m0,1v-2M0,0H24m0,1v-2M0,0V32m1,0h-2M0,0V-32m1,0h-2"></path></g><g transform="translate(240,429)"><path style="stroke: #000000; stroke-width: 1; fill: none;" d="M0,0H-71m0,1v-2M0,0H71m0,1v-2M0,0V42m1,0h-2M0,0V-42m1,0h-2"></path></g><g transform="translate(350,263)"><path style="stroke: #000000; stroke-width: 1; fill: none;" d="M0,0H-47m0,1v-2M0,0H47m0,1v-2M0,0V37m1,0h-2M0,0V-37m1,0h-2"></path></g><g transform="translate(409,158)"><path style="stroke: #000000; stroke-width: 1; fill: none;" d="M0,0H-36m0,1v-2M0,0H36m0,1v-2M0,0V21m1,0h-2M0,0V-21m1,0h-2"></path></g><g transform="translate(504,105)"><path style="stroke: #000000; stroke-width: 1; fill: none;" d="M0,0H-30m0,1v-2M0,0H30m0,1v-2M0,0V16m1,0h-2M0,0V-16m1,0h-2"></path></g><g transform="translate(569,76)"><path style="stroke: #000000; stroke-width: 1; fill: none;" d="M0,0H-24m0,1v-2M0,0H24m0,1v-2M0,0V16m1,0h-2M0,0V-16m1,0h-2"></path></g><g transform="translate(622,124)"><path style="stroke: #000000; stroke-width: 1; fill: none;" d="M0,0H-41m0,1v-2M0,0H41m0,1v-2M0,0V21m1,0h-2M0,0V-21m1,0h-2"></path></g><g transform="translate(711,250)"><path style="stroke: #000000; stroke-width: 1; fill: none;" d="M0,0H-36m0,1v-2M0,0H36m0,1v-2M0,0V26m1,0h-2M0,0V-26m1,0h-2"></path></g><g transform="translate(770,347)"><path style="stroke: #000000; stroke-width: 1; fill: none;" d="M0,0H-47m0,1v-2M0,0H47m0,1v-2M0,0V32m1,0h-2M0,0V-32m1,0h-2"></path></g><g transform="translate(835,527)"><path style="stroke: #000000; stroke-width: 1; fill: none;" d="M0,0H-24m0,1v-2M0,0H24m0,1v-2M0,0V37m1,0h-2M0,0V-37m1,0h-2"></path></g><path d="M66,589a5,5,0,1,0,10,0a5,5,0,1,0,-10,0zM235,429a5,5,0,1,0,10,0a5,5,0,1,0,-10,0zM345,263a5,5,0,1,0,10,0a5,5,0,1,0,-10,0zM404,158a5,5,0,1,0,10,0a5,5,0,1,0,-10,0zM499,105a5,5,0,1,0,10,0a5,5,0,1,0,-10,0zM564,76a5,5,0,1,0,10,0a5,5,0,1,0,-10,0zM617,124a5,5,0,1,0,10,0a5,5,0,1,0,-10,0zM706,250a5,5,0,1,0,10,0a5,5,0,1,0,-10,0zM765,347a5,5,0,1,0,10,0a5,5,0,1,0,-10,0zM830,527a5,5,0,1,0,10,0a5,5,0,1,0,-10,0z" style="stroke: #ff0000; fill: #ff0000;"></path></g></svg><g><g transform="translate(0,632)"><path d="M0,0h948M0,-632h948M0,-19V0M30,-10V0M59,-10V0M89,-10V0M119,-19V0M148,-10V0M178,-10V0M207,-10V0M237,-19V0M267,-10V0M296,-10V0M326,-10V0M356,-19V0M385,-10V0M415,-10V0M444,-10V0M474,-19V0M504,-10V0M533,-10V0M563,-10V0M593,-19V0M622,-10V0M652,-10V0M681,-10V0M711,-19V0M741,-10V0M770,-10V0M800,-10V0M829,-19V0M859,-10V0M889,-10V0M918,-10V0M948,-19V0M0,-613V-632M30,-622V-632M59,-622V-632M89,-622V-632M119,-613V-632M148,-622V-632M178,-622V-632M207,-622V-632M237,-613V-632M267,-622V-632M296,-622V-632M326,-622V-632M356,-613V-632M385,-622V-632M415,-622V-632M444,-622V-632M474,-613V-632M504,-622V-632M533,-622V-632M563,-622V-632M593,-613V-632M622,-622V-632M652,-622V-632M681,-622V-632M711,-613V-632M741,-622V-632M770,-622V-632M800,-622V-632M829,-613V-632M859,-622V-632M889,-622V-632M918,-622V-632M948,-613V-632" style="stroke: #000000; stroke-width: 1;"></path><g font-family="Arial" font-size="40" space="preserve" fill="#000000" text-anchor="middle"><text dy=".8em" transform="translate(0,4)">-0.4</text><text dy=".8em" transform="translate(119,4)">-0.2</text><text dy=".8em" transform="translate(237,4)">0</text><text dy=".8em" transform="translate(356,4)">0.2</text><text dy=".8em" transform="translate(474,4)">0.4</text><text dy=".8em" transform="translate(593,4)">0.6</text><text dy=".8em" transform="translate(711,4)">0.8</text><text dy=".8em" transform="translate(829,4)">1</text><text dy=".8em" transform="translate(948,4)">1.2</text></g><g font-family="Arial" font-size="40" space="preserve" transform="translate(948,90)"><text fill="#000000" text-anchor="end" dy=".4em">X title</text></g></g><g><path d="M0,0v632M948,0v632M28,632H0M14,606H0M14,579H0M14,553H0M28,527H0M14,500H0M14,474H0M14,448H0M28,421H0M14,395H0M14,369H0M14,342H0M28,316H0M14,290H0M14,263H0M14,237H0M28,211H0M14,184H0M14,158H0M14,132H0M28,105H0M14,79H0M14,53H0M14,26H0M28,0H0M920,632H948M934,606H948M934,579H948M934,553H948M920,527H948M934,500H948M934,474H948M934,448H948M920,421H948M934,395H948M934,369H948M934,342H948M920,316H948M934,290H948M934,263H948M934,237H948M920,211H948M934,184H948M934,158H948M934,132H948M920,105H948M934,79H948M934,53H948M934,26H948M920,0H948" style="stroke: #000000; stroke-width: 1;"></path><g font-family="Arial" font-size="40" space="preserve" fill="#000000" text-anchor="end"><text dy=".4em" transform="translate(-6,632)">0</text><text dy=".4em" transform="translate(-6,527)">2</text><text dy=".4em" transform="translate(-6,421)">4</text><text dy=".4em" transform="translate(-6,316)">6</text><text dy=".4em" transform="translate(-6,211)">8</text><text dy=".4em" transform="translate(-6,105)">10</text><text dy=".4em" transform="translate(-6)">12</text></g><g font-family="Arial" font-size="40" space="preserve" transform="translate(-134)"><text fill="#000000" text-anchor="end" dy=".4em" transform="rotate(270)">Y title</text></g></g><path d="M0,0v632M119,0v632M237,0v632M356,0v632M474,0v632M593,0v632M711,0v632M829,0v632M948,0v632" style="stroke: #000000; stroke-width: 1; stroke-dasharray: 1,2;"></path><path d="M0,632h948M0,527h948M0,421h948M0,316h948M0,211h948M0,105h948M0,0h948" style="stroke: #000000; stroke-width: 1; stroke-dasharray: 1,2;"></path></g></g><g transform="translate(-462,4)" style="display: none;"><path d="M948,2h2v25h-948v-2h946z" style="fill: #000000; stroke: #000000; stroke-width: 1px;"></path><path d="M0,0H948V25H0Z" style="fill: #f2f2f2; stroke: #000000; stroke-width: 1;"></path></g></g></svg>