<svg xmlns="http://www.w3.org/2000/svg" viewBox="0 0 1200 800" preserveAspectRatio="none" width="1200" height="800"><path d="M0,0H1200V800H0Z" style="fill: #ffffff;"></path><g><g transform="translate(192,40)"><path d="M0,0H948V632H0Z" style="fill: #ffffff; stroke: #000000; stroke-width: 1;"></path><svg x="0" y="0" overflow="hidden" width="948" height="632" viewBox="0 0 948 632"><g><path d="M110,584l168,-111l124,-158l63,-106l93,-93l68,-35l56,52l94,141l25,105l37,205" style="stroke: #000000; stroke-width: 1; fill: none;"></path><g transform="translate(110,584)"><path style="stroke: #000000; stroke-width: 1; fill: none;" d="M0,0H-31m0,1v-2M0,0H31m0,1v-2M0,0V47m1,0h-2M0,0V-47m1,0h-2"></path></g><g transform="translate(278,473)"><path style="stroke: #000000; stroke-width: 1; fill: none;" d="M0,0H-62m0,1v-2M0,0H62m0,1v-2M0,0V41m1,0h-2M0,0V-41m1,0h-2"></path></g><g transform="translate(402,315)"><path style="stroke: #000000; stroke-width: 1; fill: none;" d="M0,0H-44m0,1v-2M0,0H44m0,1v-2M0,0V35m1,0h-2M0,0V-35m1,0h-2"></path></g><g transform="translate(465,209)"><path style="stroke: #000000; stroke-width: 1; fill: none;" d="M0,0H-44m0,1v-2M0,0H44m0,1v-2M0,0V29m1,0h-2M0,0V-29m1,0h-2"></path></g><g transform="translate(558,116)"><path style="stroke: #000000; stroke-width: 1; fill: none;" d="M0,0H-25m0,1v-2M0,0H25m0,1v-2M0,0V23m1,0h-2M0,0V-23m1,0h-2"></path></g><g transform="translate(626,81)"><path style="stroke: #000000; stroke-width: 1; fill: none;" d="M0,0H-31m0,1v-2M0,0H31m0,1v-2M0,0V23m1,0h-2M0,0V-23m1,0h-2"></path></g><g transform="translate(682,133)"><path style="stroke: #000000; stroke-width: 1; fill: none;" d="M0,0H-37m0,1v-2M0,0H37m0,1v-2M0,0V29m1,0h-2M0,0V-29m1,0h-2"></path></g><g transform="translate(776,274)"><path style="stroke: #000000; stroke-width: 1; fill: none;" d="M0,0H-44m0,1v-2M0,0H44m0,1v-2M0,0V35m1,0h-2M0,0V-35m1,0h-2"></path></g><g transform="translate(801,379)"><path style="stroke: #000000; stroke-width: 1; fill: none;" d="M0,0H-50m0,1v-2M0,0H50m0,1v-2M0,0V41m1,0h-2M0,0V-41m1,0h-2"></path></g><g transform="translate(838,584)"><path style="stroke: #000000; stroke-width: 1; fill: none;" d="M0,0H-31m0,1v-2M0,0H31m0,1v-2M0,0V47m1,0h-2M0,0V-47m1,0h-2"></path></g><path d="M105,579v10h10v-10zM273,468v10h10v-10zM398,310v10h10v-10zM460,205v10h10v-10zM553,111v10h10v-10zM622,76v10h10v-10zM678,129v10h10v-10zM771,269v10h10v-10zM796,374v10h10v-10zM833,579v10h10v-10z" style="stroke: #0000ff; fill: #0000ff;"></path></g></svg><g><g transform="translate(0,632)"><path d="M0,0h948M0,-632h948M29,-10V0M60,-10V0M91,-10V0M123,-19V0M154,-10V0M185,-10V0M216,-10V0M247,-19V0M278,-10V0M309,-10V0M340,-10V0M371,-19V0M402,-10V0M434,-10V0M465,-10V0M496,-19V0M527,-10V0M558,-10V0M589,-10V0M620,-19V0M651,-10V0M682,-10V0M713,-10V0M745,-19V0M776,-10V0M807,-10V0M838,-10V0M869,-19V0M900,-10V0M931,-10V0M29,-622V-632M60,-622V-632M91,-622V-632M123,-613V-632M154,-622V-632M185,-622V-632M216,-622V-632M247,-613V-632M278,-622V-632M309,-622V-632M340,-622V-632M371,-613V-632M402,-622V-632M434,-622V-632M465,-622V-632M496,-613V-632M527,-622V-632M558,-622V-632M589,-622V-632M620,-613V-632M651,-622V-632M682,-622V-632M713,-622V-632M745,-613V-632M776,-622V-632M807,-622V-632M838,-622V-632M869,-613V-632M900,-622V-632M931,-622V-632" style="stroke: #000000; stroke-width: 1;"></path><g font-family="Arial" font-size="40" space="preserve" fill="#000000" text-anchor="middle"><text dy=".8em" transform="translate(123,4)">-0.2</text><text dy=".8em" transform="translate(247,4)">0</text><text dy=".8em" transform="translate(371,4)">0.2</text><text dy=".8em" transform="translate(496,4)">0.4</text><text dy=".8em" transform="translate(620,4)">0.6</text><text dy=".8em" transform="translate(745,4)">0.8</text><text dy=".8em" transform="translate(869,4)">1</text></g></g><g><path d="M0,0v632M948,0v632M14,631H0M14,619H0M14,607H0M14,596H0M28,584H0M14,572H0M14,561H0M14,549H0M14,537H0M28,525H0M14,514H0M14,502H0M14,490H0M14,479H0M28,467H0M14,455H0M14,444H0M14,432H0M14,420H0M28,408H0M14,397H0M14,385H0M14,373H0M14,362H0M28,350H0M14,338H0M14,327H0M14,315H0M14,303H0M28,291H0M14,280H0M14,268H0M14,256H0M14,245H0M28,233H0M14,221H0M14,209H0M14,198H0M14,186H0M28,174H0M14,163H0M14,151H0M14,139H0M14,128H0M28,116H0M14,104H0M14,92H0M14,81H0M14,69H0M28,57H0M14,46H0M14,34H0M14,22H0M14,11H0M934,631H948M934,619H948M934,607H948M934,596H948M920,584H948M934,572H948M934,561H948M934,549H948M934,537H948M920,525H948M934,514H948M934,502H948M934,490H948M934,479H948M920,467H948M934,455H948M934,444H948M934,432H948M934,420H948M920,408H948M934,397H948M934,385H948M934,373H948M934,362H948M920,350H948M934,338H948M934,327H948M934,315H948M934,303H948M920,291H948M934,280H948M934,268H948M934,256H948M934,245H948M920,233H948M934,221H948M934,209H948M934,198H948M934,186H948M920,174H948M934,163H948M934,151H948M934,139H948M934,128H948M920,116H948M934,104H948M934,92H948M934,81H948M934,69H948M920,57H948M934,46H948M934,34H948M934,22H948M934,11H948" style="stroke: #000000; stroke-width: 1;"></path><g font-family="Arial" font-size="40" space="preserve" fill="#000000" text-anchor="end"><text dy=".4em" transform="translate(-6,584)">1</text><text dy=".4em" transform="translate(-6,525)">2</text><text dy=".4em" transform="translate(-6,467)">3</text><text dy=".4em" transform="translate(-6,408)">4</text><text dy=".4em" transform="translate(-6,350)">5</text><text dy=".4em" transform="translate(-6,291)">6</text><text dy=".4em" transform="translate(-6,233)">7</text><text dy=".4em" transform="translate(-6,174)">8</text><text dy=".4em" transform="translate(-6,116)">9</text><text dy=".4em" transform="translate(-6,57)">10</text></g></g><path d="M123,0v632M247,0v632M371,0v632M496,0v632M620,0v632M745,0v632M869,0v632" style="stroke: #000000; stroke-width: 1; stroke-dasharray: 1,2;"></path><path d="M0,584h948M0,525h948M0,467h948M0,408h948M0,350h948M0,291h948M0,233h948M0,174h948M0,116h948M0,57h948" style="stroke: #000000; stroke-width: 1; stroke-dasharray: 1,2;"></path></g></g><g transform="translate(-462,4)" style="display: none;"><path d="M948,2h2v25h-948v-2h946z" style="fill: #000000; stroke: #000000; stroke-width: 1px;"></path><path d="M0,0H948V25H0Z" style="fill: #f2f2f2; stroke: #000000; stroke-width: 1;"></path></g></g></svg>