<svg xmlns="http://www.w3.org/2000/svg" viewBox="0 0 1200 800" preserveAspectRatio="none" width="1200" height="800"><path d="M0,0H1200V800H0Z" style="fill: #ffffff;"></path><g><g transform="translate(120,80)"><path d="M0,0H960V640H0Z" style="fill: #ffffff; stroke: #000000; stroke-width: 1;"></path><svg x="0" y="0" overflow="hidden" width="960" height="640" viewBox="0 0 960 640"><g><path d="M111,591l171,-112l126,-160l63,-107l94,-95l69,-35l57,53l95,142l25,107l38,207" style="stroke: #000000; stroke-width: 1; fill: none;"></path><g transform="translate(111,591)"><path style="stroke: #000000; stroke-width: 1; fill: none;" d="M0,0H-31m0,3v-6M0,0H31m0,3v-6M0,0V47m3,0h-6M0,0V-47m3,0h-6"></path></g><g transform="translate(282,479)"><path style="stroke: #000000; stroke-width: 1; fill: none;" d="M0,0H-63m0,3v-6M0,0H63m0,3v-6M0,0V41m3,0h-6M0,0V-41m3,0h-6"></path></g><g transform="translate(408,319)"><path style="stroke: #000000; stroke-width: 1; fill: none;" d="M0,0H-44m0,3v-6M0,0H44m0,3v-6M0,0V36m3,0h-6M0,0V-36m3,0h-6"></path></g><g transform="translate(471,212)"><path style="stroke: #000000; stroke-width: 1; fill: none;" d="M0,0H-44m0,3v-6M0,0H44m0,3v-6M0,0V30m3,0h-6M0,0V-30m3,0h-6"></path></g><g transform="translate(565,117)"><path style="stroke: #000000; stroke-width: 1; fill: none;" d="M0,0H-25m0,3v-6M0,0H25m0,3v-6M0,0V24m3,0h-6M0,0V-24m3,0h-6"></path></g><g transform="translate(634,82)"><path style="stroke: #000000; stroke-width: 1; fill: none;" d="M0,0H-31m0,3v-6M0,0H31m0,3v-6M0,0V24m3,0h-6M0,0V-24m3,0h-6"></path></g><g transform="translate(691,135)"><path style="stroke: #000000; stroke-width: 1; fill: none;" d="M0,0H-38m0,3v-6M0,0H38m0,3v-6M0,0V30m3,0h-6M0,0V-30m3,0h-6"></path></g><g transform="translate(786,277)"><path style="stroke: #000000; stroke-width: 1; fill: none;" d="M0,0H-44m0,3v-6M0,0H44m0,3v-6M0,0V36m3,0h-6M0,0V-36m3,0h-6"></path></g><g transform="translate(811,384)"><path style="stroke: #000000; stroke-width: 1; fill: none;" d="M0,0H-50m0,3v-6M0,0H50m0,3v-6M0,0V41m3,0h-6M0,0V-41m3,0h-6"></path></g><g transform="translate(849,591)"><path style="stroke: #000000; stroke-width: 1; fill: none;" d="M0,0H-31m0,3v-6M0,0H31m0,3v-6M0,0V47m3,0h-6M0,0V-47m3,0h-6"></path></g><path d="M107,587v8h8v-8zM278,475v8h8v-8zM404,315v8h8v-8zM467,208v8h8v-8zM561,113v8h8v-8zM630,78v8h8v-8zM687,131v8h8v-8zM782,273v8h8v-8zM807,380v8h8v-8zM845,587v8h8v-8z" style="stroke: #0000ff; fill: #0000ff;"></path></g></svg><g><g transform="translate(0,640)"><path d="M0,0h960M30,-12V0M61,-12V0M93,-12V0M124,-24V0M156,-12V0M187,-12V0M219,-12V0M250,-24V0M282,-12V0M313,-12V0M345,-12V0M376,-24V0M408,-12V0M439,-12V0M471,-12V0M502,-24V0M534,-12V0M565,-12V0M597,-12V0M628,-24V0M660,-12V0M691,-12V0M723,-12V0M754,-24V0M786,-12V0M817,-12V0M849,-12V0M880,-24V0M911,-12V0M943,-12V0" style="stroke: #000000; stroke-width: 1;"></path><g font-family="Arial" font-size="28" space="preserve" fill="#000000" text-anchor="middle"><text dy=".8em" transform="translate(124,5)">-0.2</text><text dy=".8em" transform="translate(250,5)">0</text><text dy=".8em" transform="translate(376,5)">0.2</text><text dy=".8em" transform="translate(502,5)">0.4</text><text dy=".8em" transform="translate(628,5)">0.6</text><text dy=".8em" transform="translate(754,5)">0.8</text><text dy=".8em" transform="translate(880,5)">1</text></g></g><g><path d="M0,0v640M18,639H0M18,627H0M18,615H0M18,603H0M36,591H0M18,580H0M18,568H0M18,556H0M18,544H0M36,532H0M18,520H0M18,508H0M18,497H0M18,485H0M36,473H0M18,461H0M18,449H0M18,437H0M18,425H0M36,414H0M18,402H0M18,390H0M18,378H0M18,366H0M36,354H0M18,343H0M18,331H0M18,319H0M18,307H0M36,295H0M18,283H0M18,271H0M18,260H0M18,248H0M36,236H0M18,224H0M18,212H0M18,200H0M18,188H0M36,177H0M18,165H0M18,153H0M18,141H0M18,129H0M36,117H0M18,105H0M18,94H0M18,82H0M18,70H0M36,58H0M18,46H0M18,34H0M18,23H0M18,11H0" style="stroke: #000000; stroke-width: 1;"></path><g font-family="Arial" font-size="28" space="preserve" fill="#000000" text-anchor="end"><text dy=".4em" transform="translate(-6,591)">1</text><text dy=".4em" transform="translate(-6,532)">2</text><text dy=".4em" transform="translate(-6,473)">3</text><text dy=".4em" transform="translate(-6,414)">4</text><text dy=".4em" transform="translate(-6,354)">5</text><text dy=".4em" transform="translate(-6,295)">6</text><text dy=".4em" transform="translate(-6,236)">7</text><text dy=".4em" transform="translate(-6,177)">8</text><text dy=".4em" transform="translate(-6,117)">9</text><text dy=".4em" transform="translate(-6,58)">10</text></g></g><path d="M124,0v640M250,0v640M376,0v640M502,0v640M628,0v640M754,0v640M880,0v640" style="stroke: #000000; stroke-width: 1; stroke-dasharray: 1,2;"></path><path d="M0,591h960M0,532h960M0,473h960M0,414h960M0,354h960M0,295h960M0,236h960M0,177h960M0,117h960M0,58h960" style="stroke: #000000; stroke-width: 1; stroke-dasharray: 1,2;"></path></g></g><g transform="translate(362,4)" font-family="Arial" font-size="35" space="preserve"><text fill="#000000" text-anchor="middle" dy=".4em" transform="translate(238,25)">TGraphErrors Example</text></g></g></svg>