<svg xmlns="http://www.w3.org/2000/svg" viewBox="0 0 1200 800" preserveAspectRatio="none" width="1200" height="800"><path d="M0,0H1200V800H0Z" style="fill: #ffffff;"></path><g><g transform="translate(600,400)" font-family="Arial" font-size="26" space="preserve" font-weight="bold"><ellipse cx="0" cy="0" rx="40" ry="27" style="fill: none; stroke: #000000; stroke-width: 1;"></ellipse><text fill="#000000" text-anchor="middle" dy=".8em" transform="translate(40,6)">-1</text><ellipse cx="0" cy="0" rx="60" ry="40" style="fill: none; stroke: #000000; stroke-width: 1; stroke-dasharray: 3,3;"></ellipse><ellipse cx="0" cy="0" rx="80" ry="53" style="fill: none; stroke: #000000; stroke-width: 1; stroke-dasharray: 3,3;"></ellipse><ellipse cx="0" cy="0" rx="100" ry="67" style="fill: none; stroke: #000000; stroke-width: 1; stroke-dasharray: 3,3;"></ellipse><ellipse cx="0" cy="0" rx="120" ry="80" style="fill: none; stroke: #000000; stroke-width: 1; stroke-dasharray: 3,3;"></ellipse><ellipse cx="0" cy="0" rx="140" ry="93" style="fill: none; stroke: #000000; stroke-width: 1;"></ellipse><text fill="#000000" text-anchor="middle" dy=".8em" transform="translate(140,6)">-0.5</text><ellipse cx="0" cy="0" rx="160" ry="107" style="fill: none; stroke: #000000; stroke-width: 1; stroke-dasharray: 3,3;"></ellipse><ellipse cx="0" cy="0" rx="180" ry="120" style="fill: none; stroke: #000000; stroke-width: 1; stroke-dasharray: 3,3;"></ellipse><ellipse cx="0" cy="0" rx="200" ry="133" style="fill: none; stroke: #000000; stroke-width: 1; stroke-dasharray: 3,3;"></ellipse><ellipse cx="0" cy="0" rx="220" ry="147" style="fill: none; stroke: #000000; stroke-width: 1; stroke-dasharray: 3,3;"></ellipse><ellipse cx="0" cy="0" rx="240" ry="160" style="fill: none; stroke: #000000; stroke-width: 1;"></ellipse><text fill="#000000" text-anchor="middle" dy=".8em" transform="translate(240,6)">0</text><ellipse cx="0" cy="0" rx="260" ry="173" style="fill: none; stroke: #000000; stroke-width: 1; stroke-dasharray: 3,3;"></ellipse><ellipse cx="0" cy="0" rx="280" ry="187" style="fill: none; stroke: #000000; stroke-width: 1; stroke-dasharray: 3,3;"></ellipse><ellipse cx="0" cy="0" rx="300" ry="200" style="fill: none; stroke: #000000; stroke-width: 1; stroke-dasharray: 3,3;"></ellipse><ellipse cx="0" cy="0" rx="320" ry="213" style="fill: none; stroke: #000000; stroke-width: 1; stroke-dasharray: 3,3;"></ellipse><ellipse cx="0" cy="0" rx="340" ry="227" style="fill: none; stroke: #000000; stroke-width: 1;"></ellipse><text fill="#000000" text-anchor="middle" dy=".8em" transform="translate(340,6)">0.5</text><ellipse cx="0" cy="0" rx="360" ry="240" style="fill: none; stroke: #000000; stroke-width: 1; stroke-dasharray: 3,3;"></ellipse><ellipse cx="0" cy="0" rx="380" ry="253" style="fill: none; stroke: #000000; stroke-width: 1; stroke-dasharray: 3,3;"></ellipse><ellipse cx="0" cy="0" rx="400" ry="267" style="fill: none; stroke: #000000; stroke-width: 1; stroke-dasharray: 3,3;"></ellipse><ellipse cx="0" cy="0" rx="420" ry="280" style="fill: none; stroke: #000000; stroke-width: 1; stroke-dasharray: 3,3;"></ellipse><ellipse cx="0" cy="0" rx="440" ry="293" style="fill: none; stroke: #000000; stroke-width: 1;"></ellipse><text fill="#000000" text-anchor="middle" dy=".8em" transform="translate(440,6)">1</text><ellipse cx="0" cy="0" rx="460" ry="307" style="fill: none; stroke: #000000; stroke-width: 1; stroke-dasharray: 3,3;"></ellipse><ellipse cx="0" cy="0" rx="480" ry="320" style="fill: none; stroke: #000000; stroke-width: 1; stroke-dasharray: 3,3;"></ellipse><ellipse cx="0" cy="0" rx="480" ry="320" style="fill: none; stroke: #000000; stroke-width: 1;"></ellipse><path d="M0,0L480,0" style="stroke: #000000; stroke-width: 1;"></path><text fill="#000000" text-anchor="start" dy=".4em" transform="translate(506)">0</text><path d="M0,0L339,-226" style="stroke: #000000; stroke-width: 1;"></path><g transform="translate(358,-239)"><text fill="#000000" font-size="26" transform="translate(0,-15)">π</text><path style="stroke: #000000; stroke-width: 3; fill: none;" d="M0,-9h14"></path><text fill="#000000" font-size="26" transform="translate(1,16)">4</text></g><path d="M0,0L0,-320" style="stroke: #000000; stroke-width: 1;"></path><g transform="translate(-8,-337)"><text fill="#000000" font-size="26" transform="translate(0,-15)">π</text><path style="stroke: #000000; stroke-width: 3; fill: none;" d="M0,-9h14"></path><text fill="#000000" font-size="26" transform="translate(1,16)">2</text></g><path d="M0,0L-339,-226" style="stroke: #000000; stroke-width: 1;"></path><g transform="translate(-390,-239)"><text fill="#000000" font-size="26" transform="translate(0,-15)">3π</text><path style="stroke: #000000; stroke-width: 3; fill: none;" d="M0,-9h29"></path><text fill="#000000" font-size="26" transform="translate(8,16)">4</text></g><path d="M0,0L-480,0" style="stroke: #000000; stroke-width: 1;"></path><g transform="translate(-523,9)"><text fill="#000000" font-size="26">π</text></g><path d="M0,0L-339,226" style="stroke: #000000; stroke-width: 1;"></path><g transform="translate(-390,279)"><text fill="#000000" font-size="26" transform="translate(0,-15)">5π</text><path style="stroke: #000000; stroke-width: 3; fill: none;" d="M0,-9h29"></path><text fill="#000000" font-size="26" transform="translate(8,16)">4</text></g><path d="M0,0L0,320" style="stroke: #000000; stroke-width: 1;"></path><g transform="translate(-16,377)"><text fill="#000000" font-size="26" transform="translate(0,-15)">3π</text><path style="stroke: #000000; stroke-width: 3; fill: none;" d="M0,-9h29"></path><text fill="#000000" font-size="26" transform="translate(8,16)">2</text></g><path d="M0,0L339,226" style="stroke: #000000; stroke-width: 1;"></path><g transform="translate(358,279)"><text fill="#000000" font-size="26" transform="translate(0,-15)">7π</text><path style="stroke: #000000; stroke-width: 3; fill: none;" d="M0,-9h29"></path><text fill="#000000" font-size="26" transform="translate(8,16)">4</text></g><path d="M0,0L474,-50" style="stroke: #000000; stroke-width: 1; stroke-dasharray: 3,3;"></path><path d="M0,0L457,-99" style="stroke: #000000; stroke-width: 1; stroke-dasharray: 3,3;"></path><path d="M0,0L428,-145" style="stroke: #000000; stroke-width: 1; stroke-dasharray: 3,3;"></path><path d="M0,0L388,-188" style="stroke: #000000; stroke-width: 1; stroke-dasharray: 3,3;"></path><path d="M0,0L282,-259" style="stroke: #000000; stroke-width: 1; stroke-dasharray: 3,3;"></path><path d="M0,0L218,-285" style="stroke: #000000; stroke-width: 1; stroke-dasharray: 3,3;"></path><path d="M0,0L148,-304" style="stroke: #000000; stroke-width: 1; stroke-dasharray: 3,3;"></path><path d="M0,0L75,-316" style="stroke: #000000; stroke-width: 1; stroke-dasharray: 3,3;"></path><path d="M0,0L-75,-316" style="stroke: #000000; stroke-width: 1; stroke-dasharray: 3,3;"></path><path d="M0,0L-148,-304" style="stroke: #000000; stroke-width: 1; stroke-dasharray: 3,3;"></path><path d="M0,0L-218,-285" style="stroke: #000000; stroke-width: 1; stroke-dasharray: 3,3;"></path><path d="M0,0L-282,-259" style="stroke: #000000; stroke-width: 1; stroke-dasharray: 3,3;"></path><path d="M0,0L-388,-188" style="stroke: #000000; stroke-width: 1; stroke-dasharray: 3,3;"></path><path d="M0,0L-428,-145" style="stroke: #000000; stroke-width: 1; stroke-dasharray: 3,3;"></path><path d="M0,0L-457,-99" style="stroke: #000000; stroke-width: 1; stroke-dasharray: 3,3;"></path><path d="M0,0L-474,-50" style="stroke: #000000; stroke-width: 1; stroke-dasharray: 3,3;"></path><path d="M0,0L-474,50" style="stroke: #000000; stroke-width: 1; stroke-dasharray: 3,3;"></path><path d="M0,0L-457,99" style="stroke: #000000; stroke-width: 1; stroke-dasharray: 3,3;"></path><path d="M0,0L-428,145" style="stroke: #000000; stroke-width: 1; stroke-dasharray: 3,3;"></path><path d="M0,0L-388,188" style="stroke: #000000; stroke-width: 1; stroke-dasharray: 3,3;"></path><path d="M0,0L-282,259" style="stroke: #000000; stroke-width: 1; stroke-dasharray: 3,3;"></path><path d="M0,0L-218,285" style="stroke: #000000; stroke-width: 1; stroke-dasharray: 3,3;"></path><path d="M0,0L-148,304" style="stroke: #000000; stroke-width: 1; stroke-dasharray: 3,3;"></path><path d="M0,0L-75,316" style="stroke: #000000; stroke-width: 1; stroke-dasharray: 3,3;"></path><path d="M0,0L75,316" style="stroke: #000000; stroke-width: 1; stroke-dasharray: 3,3;"></path><path d="M0,0L148,304" style="stroke: #000000; stroke-width: 1; stroke-dasharray: 3,3;"></path><path d="M0,0L218,285" style="stroke: #000000; stroke-width: 1; stroke-dasharray: 3,3;"></path><path d="M0,0L282,259" style="stroke: #000000; stroke-width: 1; stroke-dasharray: 3,3;"></path><path d="M0,0L388,188" style="stroke: #000000; stroke-width: 1; stroke-dasharray: 3,3;"></path><path d="M0,0L428,145" style="stroke: #000000; stroke-width: 1; stroke-dasharray: 3,3;"></path><path d="M0,0L457,99" style="stroke: #000000; stroke-width: 1; stroke-dasharray: 3,3;"></path><path d="M0,0L474,50" style="stroke: #000000; stroke-width: 1; stroke-dasharray: 3,3;"></path></g><g transform="translate(600,400)"><path d="M440,0v-11l-1,-2v-5l-1,-2v-6l-1,-2v-1l-1,-2v-2l-1,-2v-2l-1,-1v-2l-1,-2v-2l-1,-2v-1l-1,-2l-1,-2l-1,-2v-2l-1,-1l-1,-2l-1,-2v-2l-1,-1l-1,-2l-1,-2l-1,-1l-1,-2l-1,-2l-1,-2l-1,-1l-1,-2l-1,-2l-1,-1l-1,-2l-1,-2l-1,-1l-2,-2l-1,-2l-1,-1l-1,-2l-2,-1l-1,-2l-1,-2l-1,-1l-2,-2l-1,-1l-2,-2l-1,-2l-1,-1l-2,-2l-1,-1l-2,-2l-1,-1l-2,-2l-1,-1l-2,-2l-1,-1l-2,-1l-2,-2l-1,-1l-2,-2l-2,-1l-1,-2l-2,-1l-2,-1l-2,-2l-1,-1l-2,-1l-2,-2l-2,-1l-2,-1l-1,-2l-2,-1l-2,-1l-2,-1l-2,-2l-2,-1l-2,-1l-2,-1l-2,-1l-2,-2l-2,-1l-2,-1l-2,-1l-2,-1l-2,-1l-2,-1l-2,-1l-2,-2l-2,-1l-2,-1l-2,-1l-2,-1l-3,-1l-2,-1l-2,-1l-2,-1h-2l-3,-1l-2,-1l-2,-1l-2,-1l-2,-1l-3,-1l-2,-1h-2l-2,-1l-3,-1l-2,-1l-2,-1h-3l-2,-1l-2,-1l-3,-1h-2l-2,-1l-3,-1h-2l-2,-1h-3l-2,-1l-2,-1h-3l-2,-1h-3l-2,-1h-2l-3,-1h-2l-3,-1h-2l-2,-1h-5l-3,-1h-2l-2,-1h-8l-2,-1h-5l-2,-1h-10l-2,-1h-22l-2,-1h-7l-3,1h-21l-2,1h-9l-3,1h-6l-3,1h-4l-2,1h-5l-2,1h-4l-2,1h-2l-2,1h-3l-2,1h-4l-2,1h-2l-2,1h-2l-2,1h-2l-2,1l-2,1h-2l-2,1h-2l-2,1h-2l-2,1l-2,1h-2l-1,1l-2,1h-2l-2,1l-2,1h-2l-1,1l-2,1h-2l-2,1l-1,1l-2,1h-2l-1,1l-2,1l-2,1l-1,1h-2l-2,1l-1,1l-2,1l-1,1h-2l-1,1l-2,1l-2,1l-1,1l-1,1h-2l-1,1l-2,1l-1,1l-2,1l-1,1l-1,1l-2,1h-1l-1,1l-2,1l-1,1l-1,1l-1,1l-2,1l-1,1l-1,1l-1,1l-1,1l-1,1l-2,1l-1,1l-1,1h-1l-1,1l-1,1l-1,1l-1,1l-1,1l-1,1l-1,1l-1,1l-1,1l-1,1l-1,1v1l-1,1l-1,1l-1,1l-1,1l-1,1v1l-1,1l-1,1l-1,1v1l-1,1l-1,1v1l-1,1l-1,1v1l-1,1l-1,1v1l-1,1v1l-1,1v1l-1,1v1l-1,1v1l-1,1v1l-1,1v2l-1,1v1l-1,1v2l-1,1v3l-1,1v3l-1,1v5l-1,1v16l1,1v5l1,1v3l1,1v2l1,1v2h1v2l1,1v2h1v2h1v2h1v1l1,1v1l1,1v1h1v1l1,1v1h1v1h1v1l1,1l1,1v1h1v1h1v1h1v1h1v1l1,1l1,1l1,1l1,1v1h1v1h1v1h1v1h1v1h1v1h1v2h1v4h-1v2h-1v1h-1v1h-1v1h-1v1h-1v1h-1v1l-1,1l-1,1l-1,1l-1,1v1h-1v1h-1v1h-1v1h-1v1l-1,1l-1,1v1h-1v1h-1v1l-1,1v1h-1v1l-1,1v1l-1,1v1h-1v2h-1v2h-1v2l-1,1v2h-1v2l-1,1v2l-1,1v3l-1,1v5l-1,1v16l1,1v5l1,1v3l1,1v3l1,1v2l1,1v1l1,1v2l1,1v1l1,1v1l1,1v1l1,1v1l1,1v1l1,1v1l1,1l1,1v1l1,1l1,1v1l1,1l1,1v1l1,1l1,1l1,1v1l1,1l1,1l1,1l1,1l1,1v1l1,1l1,1l1,1l1,1l1,1l1,1l1,1l1,1l1,1l1,1l1,1h1l1,1l1,1l2,1l1,1l1,1l1,1l1,1l1,1l2,1l1,1l1,1l1,1l2,1l1,1h1l2,1l1,1l1,1l2,1l1,1l2,1l1,1h2l1,1l1,1l2,1l2,1l1,1h2l1,1l2,1l1,1l2,1h2l1,1l2,1l2,1l1,1h2l2,1l1,1l2,1h2l2,1l1,1h2l2,1l2,1h2l2,1l1,1h2l2,1l2,1h2l2,1h2l2,1h2l2,1l2,1h2l2,1h2l2,1h2l2,1h4l2,1h3l2,1h2l2,1h4l2,1h5l2,1h4l3,1h6l3,1h9l2,1h21l3,1h7l2,-1h22l2,-1h10l2,-1h5l2,-1h8l2,-1h2l3,-1h5l2,-1h2l3,-1h2l3,-1h2l2,-1h3l2,-1h3l2,-1l2,-1h3l2,-1h2l3,-1l2,-1h2l3,-1l2,-1l2,-1h3l2,-1l2,-1l3,-1l2,-1h2l2,-1l3,-1l2,-1l2,-1l2,-1l2,-1l3,-1h2l2,-1l2,-1l2,-1l3,-1l2,-1l2,-1l2,-1l2,-1l2,-2l2,-1l2,-1l2,-1l2,-1l2,-1l2,-1l2,-1l2,-2l2,-1l2,-1l2,-1l2,-1l2,-2l2,-1l2,-1l2,-1l1,-2l2,-1l2,-1l2,-2l2,-1l1,-1l2,-2l2,-1l2,-1l1,-2l2,-1l2,-2l1,-1l2,-2l2,-1l1,-1l2,-2l1,-1l2,-2l1,-1l2,-2l1,-1l2,-2l1,-1l1,-2l2,-2l1,-1l2,-2l1,-1l1,-2l1,-2l2,-1l1,-2l1,-1l1,-2l2,-2l1,-1l1,-2l1,-2l1,-1l1,-2l1,-2l1,-1l1,-2l1,-2l1,-2l1,-1l1,-2l1,-2l1,-1v-2l1,-2l1,-2l1,-1v-2l1,-2l1,-2l1,-2v-1l1,-2v-2l1,-2v-2l1,-1v-2l1,-2v-2l1,-2v-1l1,-2v-6l1,-2v-5l1,-2v-9" style="fill: none; stroke: #ff0000; stroke-width: 1;"></path></g></g></svg>