<svg xmlns="http://www.w3.org/2000/svg" viewBox="0 0 1200 800" preserveAspectRatio="none" width="1200" height="800"><path d="M0,0H1200V800H0Z" style="fill: #ffffff;"></path><g><svg viewBox="0 0 576 251" preserveAspectRatio="none" x="12" y="8" width="576" height="251"><path d="M0,0H576V251H0Z" style="fill: #ffffff;"></path><g><g transform="translate(58,25)"><path d="M0,0H461V201H0Z" style="fill: #ffffff; stroke: #000000; stroke-width: 1;"></path><svg x="0" y="0" overflow="hidden" width="461" height="201" viewBox="0 0 461 201"><g><path d="M34,180l8,8m0,-8l-8,8m0,-4h8m-4,-4v8M226,97l8,8m0,-8l-8,8m0,-4h8m-4,-4v8M419,13l8,8m0,-8l-8,8m0,-4h8m-4,-4v8" style="stroke: #000000; fill: none;"></path></g></svg><g><g transform="translate(0,201)"><path d="M0,0h461M0,-3V0M19,-3V0M38,-6V0M58,-3V0M77,-3V0M96,-3V0M115,-3V0M134,-6V0M154,-3V0M173,-3V0M192,-3V0M211,-3V0M230,-6V0M250,-3V0M269,-3V0M288,-3V0M307,-3V0M327,-6V0M346,-3V0M365,-3V0M384,-3V0M403,-3V0M423,-6V0M442,-3V0M461,-3V0" style="stroke: #000000; stroke-width: 1;"></path><g font-family="Arial" font-size="9" space="preserve" fill="#000000" text-anchor="middle"><text dy=".8em" transform="translate(38,2)">1</text><text dy=".8em" transform="translate(134,2)">1.5</text><text dy=".8em" transform="translate(230,2)">2</text><text dy=".8em" transform="translate(327,2)">2.5</text><text dy=".8em" transform="translate(423,2)">3</text></g></g><g><path d="M0,0v201M7,201H0M7,193H0M14,184H0M7,176H0M7,168H0M7,159H0M7,151H0M14,142H0M7,134H0M7,126H0M7,117H0M7,109H0M14,101H0M7,92H0M7,84H0M7,75H0M7,67H0M14,59H0M7,50H0M7,42H0M7,33H0M7,25H0M14,17H0M7,8H0M7,0H0" style="stroke: #000000; stroke-width: 1;"></path><g font-family="Arial" font-size="9" space="preserve" fill="#000000" text-anchor="end"><text dy=".4em" transform="translate(-2,184)">10</text><text dy=".4em" transform="translate(-2,142)">15</text><text dy=".4em" transform="translate(-2,101)">20</text><text dy=".4em" transform="translate(-2,59)">25</text><text dy=".4em" transform="translate(-2,17)">30</text></g></g></g></g><g transform="translate(58,1)" font-family="Arial" font-size="13" space="preserve"><text fill="#000000" text-anchor="middle" dy=".8em" transform="translate(231)">Graph</text></g></g></svg><svg viewBox="0 0 576 251" preserveAspectRatio="none" x="612" y="8" width="576" height="251"><path d="M0,0H576V251H0Z" style="fill: #ffffff;"></path><g><g transform="translate(58,25)"><path d="M0,0H461V201H0Z" style="fill: #ffffff; stroke: #000000; stroke-width: 1;"></path><svg x="0" y="0" overflow="hidden" width="461" height="201" viewBox="0 0 461 201"><g><path d="M34,180l8,8m0,-8l-8,8m0,-4h8m-4,-4v8M226,55l8,8m0,-8l-8,8m0,-4h8m-4,-4v8M419,13l8,8m0,-8l-8,8m0,-4h8m-4,-4v8" style="stroke: #000000; fill: none;"></path></g></svg><g><g transform="translate(0,201)"><path d="M0,0h461M0,-3V0M19,-3V0M38,-6V0M58,-3V0M77,-3V0M96,-3V0M115,-3V0M134,-6V0M154,-3V0M173,-3V0M192,-3V0M211,-3V0M230,-6V0M250,-3V0M269,-3V0M288,-3V0M307,-3V0M327,-6V0M346,-3V0M365,-3V0M384,-3V0M403,-3V0M423,-6V0M442,-3V0M461,-3V0" style="stroke: #000000; stroke-width: 1;"></path><g font-family="Arial" font-size="9" space="preserve" fill="#000000" text-anchor="middle"><text dy=".8em" transform="translate(38,2)">1</text><text dy=".8em" transform="translate(134,2)">1.5</text><text dy=".8em" transform="translate(230,2)">2</text><text dy=".8em" transform="translate(327,2)">2.5</text><text dy=".8em" transform="translate(423,2)">3</text></g></g><g><path d="M0,0v201M7,199H0M7,194H0M7,189H0M14,184H0M7,179H0M7,174H0M7,169H0M7,164H0M14,159H0M7,154H0M7,149H0M7,144H0M7,139H0M14,134H0M7,129H0M7,124H0M7,119H0M7,114H0M14,109H0M7,104H0M7,99H0M7,94H0M7,89H0M14,84H0M7,79H0M7,74H0M7,69H0M7,64H0M14,59H0M7,54H0M7,49H0M7,44H0M7,39H0M14,34H0M7,28H0M7,23H0M7,18H0M7,13H0M14,8H0M7,3H0" style="stroke: #000000; stroke-width: 1;"></path><g font-family="Arial" font-size="9" space="preserve" fill="#000000" text-anchor="end"><text dy=".4em" transform="translate(-2,184)">-0.1</text><text dy=".4em" transform="translate(-2,159)">-0.09</text><text dy=".4em" transform="translate(-2,134)">-0.08</text><text dy=".4em" transform="translate(-2,109)">-0.07</text><text dy=".4em" transform="translate(-2,84)">-0.06</text><text dy=".4em" transform="translate(-2,59)">-0.05</text><text dy=".4em" transform="translate(-2,34)">-0.04</text><text dy=".4em" transform="translate(-2,8)">-0.03</text></g></g></g></g><g transform="translate(58,1)" font-family="Arial" font-size="13" space="preserve"><text fill="#000000" text-anchor="middle" dy=".8em" transform="translate(231)">Graph</text></g></g></svg><svg viewBox="0 0 576 251" preserveAspectRatio="none" x="12" y="274" width="576" height="251"><path d="M0,0H576V251H0Z" style="fill: #ffffff;"></path><g><g transform="translate(58,25)"><path d="M0,0H461V201H0Z" style="fill: #ffffff; stroke: #000000; stroke-width: 1;"></path><svg x="0" y="0" overflow="hidden" width="461" height="201" viewBox="0 0 461 201"><g><g transform="translate(102,156)"><path style="stroke: #000000; stroke-width: 1; fill: none;" d="M0,0H-64m0,3v-6M0,0H64m0,3v-6M0,0V28m3,0h-6M0,0V-28m3,0h-6"></path></g><g transform="translate(231,101)"><path style="stroke: #000000; stroke-width: 1; fill: none;" d="M0,0H-64m0,3v-6M0,0H64m0,3v-6M0,0V28m3,0h-6M0,0V-28m3,0h-6"></path></g><g transform="translate(359,45)"><path style="stroke: #000000; stroke-width: 1; fill: none;" d="M0,0H-64m0,3v-6M0,0H64m0,3v-6M0,0V28m3,0h-6M0,0V-28m3,0h-6"></path></g><path d="M98,152l8,8m0,-8l-8,8m0,-4h8m-4,-4v8M227,97l8,8m0,-8l-8,8m0,-4h8m-4,-4v8M355,41l8,8m0,-8l-8,8m0,-4h8m-4,-4v8" style="stroke: #000000; fill: none;"></path></g></svg><g><g transform="translate(0,201)"><path d="M0,0h461M0,-3V0M13,-3V0M26,-3V0M38,-6V0M51,-3V0M64,-3V0M77,-3V0M90,-3V0M102,-6V0M115,-3V0M128,-3V0M141,-3V0M154,-3V0M166,-6V0M179,-3V0M192,-3V0M205,-3V0M218,-3V0M231,-6V0M243,-3V0M256,-3V0M269,-3V0M282,-3V0M295,-6V0M307,-3V0M320,-3V0M333,-3V0M346,-3V0M359,-6V0M371,-3V0M384,-3V0M397,-3V0M410,-3V0M423,-6V0M435,-3V0M448,-3V0M461,-3V0" style="stroke: #000000; stroke-width: 1;"></path><g font-family="Arial" font-size="9" space="preserve" fill="#000000" text-anchor="middle"><text dy=".8em" transform="translate(38,2)">0.5</text><text dy=".8em" transform="translate(102,2)">1</text><text dy=".8em" transform="translate(166,2)">1.5</text><text dy=".8em" transform="translate(231,2)">2</text><text dy=".8em" transform="translate(295,2)">2.5</text><text dy=".8em" transform="translate(359,2)">3</text><text dy=".8em" transform="translate(423,2)">3.5</text></g></g><g><path d="M0,0v201M7,201H0M7,195H0M7,190H0M14,184H0M7,179H0M7,173H0M7,168H0M7,162H0M14,156H0M7,151H0M7,145H0M7,140H0M7,134H0M14,128H0M7,123H0M7,117H0M7,112H0M7,106H0M14,101H0M7,95H0M7,89H0M7,84H0M7,78H0M14,73H0M7,67H0M7,61H0M7,56H0M7,50H0M14,45H0M7,39H0M7,33H0M7,28H0M7,22H0M14,17H0M7,11H0M7,6H0M7,0H0" style="stroke: #000000; stroke-width: 1;"></path><g font-family="Arial" font-size="9" space="preserve" fill="#000000" text-anchor="end"><text dy=".4em" transform="translate(-2,184)">5</text><text dy=".4em" transform="translate(-2,156)">10</text><text dy=".4em" transform="translate(-2,128)">15</text><text dy=".4em" transform="translate(-2,101)">20</text><text dy=".4em" transform="translate(-2,73)">25</text><text dy=".4em" transform="translate(-2,45)">30</text><text dy=".4em" transform="translate(-2,17)">35</text></g></g></g></g><g transform="translate(58,1)" font-family="Arial" font-size="13" space="preserve"><text fill="#000000" text-anchor="middle" dy=".8em" transform="translate(231)">Graph</text></g></g></svg><svg viewBox="0 0 576 251" preserveAspectRatio="none" x="612" y="274" width="576" height="251"><path d="M0,0H576V251H0Z" style="fill: #ffffff;"></path><g><g transform="translate(58,25)"><path d="M0,0H461V201H0Z" style="fill: #ffffff; stroke: #000000; stroke-width: 1;"></path><svg x="0" y="0" overflow="hidden" width="461" height="201" viewBox="0 0 461 201"><g><g transform="translate(102,104)"><path style="stroke: #000000; stroke-width: 1; fill: none;" d="M0,0H-64m0,3v-6M0,0H64m0,3v-6M0,0V80m3,0h-6M0,0V-80m3,0h-6"></path></g><g transform="translate(231,44)"><path style="stroke: #000000; stroke-width: 1; fill: none;" d="M0,0H-64m0,3v-6M0,0H64m0,3v-6M0,0V16m3,0h-6M0,0V-16m3,0h-6"></path></g><g transform="translate(359,24)"><path style="stroke: #000000; stroke-width: 1; fill: none;" d="M0,0H-64m0,3v-6M0,0H64m0,3v-6M0,0V7m3,0h-6M0,0V-7m3,0h-6"></path></g><path d="M98,100l8,8m0,-8l-8,8m0,-4h8m-4,-4v8M227,40l8,8m0,-8l-8,8m0,-4h8m-4,-4v8M355,20l8,8m0,-8l-8,8m0,-4h8m-4,-4v8" style="stroke: #000000; fill: none;"></path></g></svg><g><g transform="translate(0,201)"><path d="M0,0h461M0,-3V0M13,-3V0M26,-3V0M38,-6V0M51,-3V0M64,-3V0M77,-3V0M90,-3V0M102,-6V0M115,-3V0M128,-3V0M141,-3V0M154,-3V0M166,-6V0M179,-3V0M192,-3V0M205,-3V0M218,-3V0M231,-6V0M243,-3V0M256,-3V0M269,-3V0M282,-3V0M295,-6V0M307,-3V0M320,-3V0M333,-3V0M346,-3V0M359,-6V0M371,-3V0M384,-3V0M397,-3V0M410,-3V0M423,-6V0M435,-3V0M448,-3V0M461,-3V0" style="stroke: #000000; stroke-width: 1;"></path><g font-family="Arial" font-size="9" space="preserve" fill="#000000" text-anchor="middle"><text dy=".8em" transform="translate(38,2)">0.5</text><text dy=".8em" transform="translate(102,2)">1</text><text dy=".8em" transform="translate(166,2)">1.5</text><text dy=".8em" transform="translate(231,2)">2</text><text dy=".8em" transform="translate(295,2)">2.5</text><text dy=".8em" transform="translate(359,2)">3</text><text dy=".8em" transform="translate(423,2)">3.5</text></g></g><g><path d="M0,0v201M14,200H0M7,194H0M7,188H0M7,182H0M14,176H0M7,170H0M7,164H0M7,158H0M14,152H0M7,146H0M7,140H0M7,134H0M14,128H0M7,122H0M7,116H0M7,110H0M14,104H0M7,98H0M7,92H0M7,86H0M14,80H0M7,74H0M7,68H0M7,62H0M14,56H0M7,50H0M7,44H0M7,38H0M14,32H0M7,26H0M7,20H0M7,14H0M14,8H0M7,2H0" style="stroke: #000000; stroke-width: 1;"></path><g font-family="Arial" font-size="9" space="preserve" fill="#000000" text-anchor="end"><text dy=".4em" transform="translate(-2,200)">-0.18</text><text dy=".4em" transform="translate(-2,176)">-0.16</text><text dy=".4em" transform="translate(-2,152)">-0.14</text><text dy=".4em" transform="translate(-2,128)">-0.12</text><text dy=".4em" transform="translate(-2,104)">-0.1</text><text dy=".4em" transform="translate(-2,80)">-0.08</text><text dy=".4em" transform="translate(-2,56)">-0.06</text><text dy=".4em" transform="translate(-2,32)">-0.04</text><text dy=".4em" transform="translate(-2,8)">-0.02</text></g></g></g></g><g transform="translate(58,1)" font-family="Arial" font-size="13" space="preserve"><text fill="#000000" text-anchor="middle" dy=".8em" transform="translate(231)">Graph</text></g></g></svg><svg viewBox="0 0 576 251" preserveAspectRatio="none" x="12" y="541" width="576" height="251"><path d="M0,0H576V251H0Z" style="fill: #ffffff;"></path><g><g transform="translate(58,25)"><path d="M0,0H461V201H0Z" style="fill: #ffffff; stroke: #000000; stroke-width: 1;"></path><svg x="0" y="0" overflow="hidden" width="461" height="201" viewBox="0 0 461 201"><g><g transform="translate(102,156)"><path style="stroke: #000000; stroke-width: 1; fill: none;" d="M0,0H-64m0,3v-6M0,0H64m0,3v-6M0,0V28m3,0h-6M0,0V-28m3,0h-6"></path></g><g transform="translate(231,101)"><path style="stroke: #000000; stroke-width: 1; fill: none;" d="M0,0H-64m0,3v-6M0,0H64m0,3v-6M0,0V28m3,0h-6M0,0V-28m3,0h-6"></path></g><g transform="translate(359,45)"><path style="stroke: #000000; stroke-width: 1; fill: none;" d="M0,0H-64m0,3v-6M0,0H64m0,3v-6M0,0V28m3,0h-6M0,0V-28m3,0h-6"></path></g><path d="M98,152l8,8m0,-8l-8,8m0,-4h8m-4,-4v8M227,97l8,8m0,-8l-8,8m0,-4h8m-4,-4v8M355,41l8,8m0,-8l-8,8m0,-4h8m-4,-4v8" style="stroke: #000000; fill: none;"></path></g></svg><g><g transform="translate(0,201)"><path d="M0,0h461M0,-3V0M13,-3V0M26,-3V0M38,-6V0M51,-3V0M64,-3V0M77,-3V0M90,-3V0M102,-6V0M115,-3V0M128,-3V0M141,-3V0M154,-3V0M166,-6V0M179,-3V0M192,-3V0M205,-3V0M218,-3V0M231,-6V0M243,-3V0M256,-3V0M269,-3V0M282,-3V0M295,-6V0M307,-3V0M320,-3V0M333,-3V0M346,-3V0M359,-6V0M371,-3V0M384,-3V0M397,-3V0M410,-3V0M423,-6V0M435,-3V0M448,-3V0M461,-3V0" style="stroke: #000000; stroke-width: 1;"></path><g font-family="Arial" font-size="9" space="preserve" fill="#000000" text-anchor="middle"><text dy=".8em" transform="translate(38,2)">0.5</text><text dy=".8em" transform="translate(102,2)">1</text><text dy=".8em" transform="translate(166,2)">1.5</text><text dy=".8em" transform="translate(231,2)">2</text><text dy=".8em" transform="translate(295,2)">2.5</text><text dy=".8em" transform="translate(359,2)">3</text><text dy=".8em" transform="translate(423,2)">3.5</text></g></g><g><path d="M0,0v201M7,201H0M7,195H0M7,190H0M14,184H0M7,179H0M7,173H0M7,168H0M7,162H0M14,156H0M7,151H0M7,145H0M7,140H0M7,134H0M14,128H0M7,123H0M7,117H0M7,112H0M7,106H0M14,101H0M7,95H0M7,89H0M7,84H0M7,78H0M14,73H0M7,67H0M7,61H0M7,56H0M7,50H0M14,45H0M7,39H0M7,33H0M7,28H0M7,22H0M14,17H0M7,11H0M7,6H0M7,0H0" style="stroke: #000000; stroke-width: 1;"></path><g font-family="Arial" font-size="9" space="preserve" fill="#000000" text-anchor="end"><text dy=".4em" transform="translate(-2,184)">5</text><text dy=".4em" transform="translate(-2,156)">10</text><text dy=".4em" transform="translate(-2,128)">15</text><text dy=".4em" transform="translate(-2,101)">20</text><text dy=".4em" transform="translate(-2,73)">25</text><text dy=".4em" transform="translate(-2,45)">30</text><text dy=".4em" transform="translate(-2,17)">35</text></g></g></g></g><g transform="translate(58,1)" font-family="Arial" font-size="13" space="preserve"><text fill="#000000" text-anchor="middle" dy=".8em" transform="translate(231)">Graph</text></g></g></svg><svg viewBox="0 0 576 251" preserveAspectRatio="none" x="612" y="541" width="576" height="251"><path d="M0,0H576V251H0Z" style="fill: #ffffff;"></path><g><g transform="translate(58,25)"><path d="M0,0H461V201H0Z" style="fill: #ffffff; stroke: #000000; stroke-width: 1;"></path><svg x="0" y="0" overflow="hidden" width="461" height="201" viewBox="0 0 461 201"><g><g transform="translate(102,87)"><path style="stroke: #000000; stroke-width: 1; fill: none;" d="M0,0H-64m0,3v-6M0,0H64m0,3v-6M0,0V98m3,0h-6M0,0V-33m3,0h-6"></path></g><g transform="translate(231,38)"><path style="stroke: #000000; stroke-width: 1; fill: none;" d="M0,0H-64m0,3v-6M0,0H64m0,3v-6M0,0V16m3,0h-6M0,0V-10m3,0h-6"></path></g><g transform="translate(359,21)"><path style="stroke: #000000; stroke-width: 1; fill: none;" d="M0,0H-64m0,3v-6M0,0H64m0,3v-6M0,0V7m3,0h-6M0,0V-5m3,0h-6"></path></g><path d="M98,83l8,8m0,-8l-8,8m0,-4h8m-4,-4v8M227,34l8,8m0,-8l-8,8m0,-4h8m-4,-4v8M355,17l8,8m0,-8l-8,8m0,-4h8m-4,-4v8" style="stroke: #000000; fill: none;"></path></g></svg><g><g transform="translate(0,201)"><path d="M0,0h461M0,-3V0M13,-3V0M26,-3V0M38,-6V0M51,-3V0M64,-3V0M77,-3V0M90,-3V0M102,-6V0M115,-3V0M128,-3V0M141,-3V0M154,-3V0M166,-6V0M179,-3V0M192,-3V0M205,-3V0M218,-3V0M231,-6V0M243,-3V0M256,-3V0M269,-3V0M282,-3V0M295,-6V0M307,-3V0M320,-3V0M333,-3V0M346,-3V0M359,-6V0M371,-3V0M384,-3V0M397,-3V0M410,-3V0M423,-6V0M435,-3V0M448,-3V0M461,-3V0" style="stroke: #000000; stroke-width: 1;"></path><g font-family="Arial" font-size="9" space="preserve" fill="#000000" text-anchor="middle"><text dy=".8em" transform="translate(38,2)">0.5</text><text dy=".8em" transform="translate(102,2)">1</text><text dy=".8em" transform="translate(166,2)">1.5</text><text dy=".8em" transform="translate(231,2)">2</text><text dy=".8em" transform="translate(295,2)">2.5</text><text dy=".8em" transform="translate(359,2)">3</text><text dy=".8em" transform="translate(423,2)">3.5</text></g></g><g><path d="M0,0v201M7,199H0M7,194H0M7,189H0M14,184H0M7,179H0M7,174H0M7,170H0M14,165H0M7,160H0M7,155H0M7,150H0M14,145H0M7,140H0M7,135H0M7,131H0M14,126H0M7,121H0M7,116H0M7,111H0M14,106H0M7,101H0M7,96H0M7,91H0M14,87H0M7,82H0M7,77H0M7,72H0M14,67H0M7,62H0M7,57H0M7,52H0M14,47H0M7,43H0M7,38H0M7,33H0M14,28H0M7,23H0M7,18H0M7,13H0M14,8H0M7,3H0" style="stroke: #000000; stroke-width: 1;"></path><g font-family="Arial" font-size="9" space="preserve" fill="#000000" text-anchor="end"><text dy=".4em" transform="translate(-2,184)">-0.2</text><text dy=".4em" transform="translate(-2,165)">-0.18</text><text dy=".4em" transform="translate(-2,145)">-0.16</text><text dy=".4em" transform="translate(-2,126)">-0.14</text><text dy=".4em" transform="translate(-2,106)">-0.12</text><text dy=".4em" transform="translate(-2,87)">-0.1</text><text dy=".4em" transform="translate(-2,67)">-0.08</text><text dy=".4em" transform="translate(-2,47)">-0.06</text><text dy=".4em" transform="translate(-2,28)">-0.04</text><text dy=".4em" transform="translate(-2,8)">-0.02</text></g></g></g></g><g transform="translate(58,1)" font-family="Arial" font-size="13" space="preserve"><text fill="#000000" text-anchor="middle" dy=".8em" transform="translate(231)">Graph</text></g></g></svg></g></svg>