<svg xmlns="http://www.w3.org/2000/svg" viewBox="0 0 1200 800" preserveAspectRatio="none" width="1200" height="800"><path d="M0,0H1200V800H0Z" style="fill: #ffffff;"></path><g><svg viewBox="0 0 576 251" preserveAspectRatio="none" x="12" y="8" width="576" height="251"><path d="M0,0H576V251H0Z" style="fill: #ffffff;"></path><g><g transform="translate(92,13)"><path d="M0,0H455V198H0Z" style="fill: #ffffff; stroke: #000000; stroke-width: 1;"></path><svg x="0" y="0" overflow="hidden" width="455" height="198" viewBox="0 0 455 198"><g><path d="M33,177l10,10m0,-10l-10,10m0,-5h10m-5,-5v10M223,94l10,10m0,-10l-10,10m0,-5h10m-5,-5v10M412,12l10,10m0,-10l-10,10m0,-5h10m-5,-5v10" style="stroke: #000000; fill: none;"></path></g></svg><g><g transform="translate(0,198)"><path d="M0,0h455M0,-198h455M0,-3V0M19,-3V0M38,-6V0M57,-3V0M76,-3V0M95,-3V0M114,-3V0M133,-6V0M152,-3V0M171,-3V0M190,-3V0M209,-3V0M227,-6V0M246,-3V0M265,-3V0M284,-3V0M303,-3V0M322,-6V0M341,-3V0M360,-3V0M379,-3V0M398,-3V0M417,-6V0M436,-3V0M455,-3V0M0,-195V-198M19,-195V-198M38,-192V-198M57,-195V-198M76,-195V-198M95,-195V-198M114,-195V-198M133,-192V-198M152,-195V-198M171,-195V-198M190,-195V-198M209,-195V-198M227,-192V-198M246,-195V-198M265,-195V-198M284,-195V-198M303,-195V-198M322,-192V-198M341,-195V-198M360,-195V-198M379,-195V-198M398,-195V-198M417,-192V-198M436,-195V-198M455,-195V-198" style="stroke: #000000; stroke-width: 1;"></path><g font-family="Arial" font-size="9" space="preserve" fill="#000000" text-anchor="middle"><text dy=".8em" transform="translate(38,2)">1</text><text dy=".8em" transform="translate(133,2)">1.5</text><text dy=".8em" transform="translate(227,2)">2</text><text dy=".8em" transform="translate(322,2)">2.5</text><text dy=".8em" transform="translate(417,2)">3</text></g></g><g><path d="M0,0v198M455,0v198M7,198H0M7,190H0M14,182H0M7,173H0M7,165H0M7,157H0M7,149H0M14,140H0M7,132H0M7,124H0M7,115H0M7,107H0M14,99H0M7,91H0M7,82H0M7,74H0M7,66H0M14,58H0M7,50H0M7,41H0M7,33H0M7,25H0M14,17H0M7,8H0M7,0H0M448,198H455M448,190H455M441,182H455M448,173H455M448,165H455M448,157H455M448,149H455M441,140H455M448,132H455M448,124H455M448,115H455M448,107H455M441,99H455M448,91H455M448,82H455M448,74H455M448,66H455M441,58H455M448,50H455M448,41H455M448,33H455M448,25H455M441,17H455M448,8H455M448,0H455" style="stroke: #000000; stroke-width: 1;"></path><g font-family="Arial" font-size="9" space="preserve" fill="#000000" text-anchor="end"><text dy=".4em" transform="translate(-2,182)">10</text><text dy=".4em" transform="translate(-2,140)">15</text><text dy=".4em" transform="translate(-2,99)">20</text><text dy=".4em" transform="translate(-2,58)">25</text><text dy=".4em" transform="translate(-2,17)">30</text></g></g></g></g><g transform="translate(-222,1)" style="display: none;"><path d="M455,2h2v8h-455v-2h453z" style="fill: #000000; stroke: #000000; stroke-width: 1px;"></path><path d="M0,0H455V8H0Z" style="fill: #f2f2f2; stroke: #000000; stroke-width: 1;"></path></g></g></svg><svg viewBox="0 0 576 251" preserveAspectRatio="none" x="612" y="8" width="576" height="251"><path d="M0,0H576V251H0Z" style="fill: #ffffff;"></path><g><g transform="translate(92,13)"><path d="M0,0H455V198H0Z" style="fill: #ffffff; stroke: #000000; stroke-width: 1;"></path><svg x="0" y="0" overflow="hidden" width="455" height="198" viewBox="0 0 455 198"><g><path d="M33,177l10,10m0,-10l-10,10m0,-5h10m-5,-5v10M223,53l10,10m0,-10l-10,10m0,-5h10m-5,-5v10M412,12l10,10m0,-10l-10,10m0,-5h10m-5,-5v10" style="stroke: #000000; fill: none;"></path></g></svg><g><g transform="translate(0,198)"><path d="M0,0h455M0,-198h455M0,-3V0M19,-3V0M38,-6V0M57,-3V0M76,-3V0M95,-3V0M114,-3V0M133,-6V0M152,-3V0M171,-3V0M190,-3V0M209,-3V0M227,-6V0M246,-3V0M265,-3V0M284,-3V0M303,-3V0M322,-6V0M341,-3V0M360,-3V0M379,-3V0M398,-3V0M417,-6V0M436,-3V0M455,-3V0M0,-195V-198M19,-195V-198M38,-192V-198M57,-195V-198M76,-195V-198M95,-195V-198M114,-195V-198M133,-192V-198M152,-195V-198M171,-195V-198M190,-195V-198M209,-195V-198M227,-192V-198M246,-195V-198M265,-195V-198M284,-195V-198M303,-195V-198M322,-192V-198M341,-195V-198M360,-195V-198M379,-195V-198M398,-195V-198M417,-192V-198M436,-195V-198M455,-195V-198" style="stroke: #000000; stroke-width: 1;"></path><g font-family="Arial" font-size="9" space="preserve" fill="#000000" text-anchor="middle"><text dy=".8em" transform="translate(38,2)">1</text><text dy=".8em" transform="translate(133,2)">1.5</text><text dy=".8em" transform="translate(227,2)">2</text><text dy=".8em" transform="translate(322,2)">2.5</text><text dy=".8em" transform="translate(417,2)">3</text></g></g><g><path d="M0,0v198M455,0v198M7,196H0M7,191H0M7,186H0M14,182H0M7,177H0M7,172H0M7,167H0M7,162H0M14,157H0M7,152H0M7,147H0M7,142H0M7,137H0M14,132H0M7,127H0M7,122H0M7,117H0M7,112H0M14,107H0M7,102H0M7,97H0M7,92H0M7,87H0M14,83H0M7,78H0M7,73H0M7,68H0M7,63H0M14,58H0M7,53H0M7,48H0M7,43H0M7,38H0M14,33H0M7,28H0M7,23H0M7,18H0M7,13H0M14,8H0M7,3H0M448,196H455M448,191H455M448,186H455M441,182H455M448,177H455M448,172H455M448,167H455M448,162H455M441,157H455M448,152H455M448,147H455M448,142H455M448,137H455M441,132H455M448,127H455M448,122H455M448,117H455M448,112H455M441,107H455M448,102H455M448,97H455M448,92H455M448,87H455M441,83H455M448,78H455M448,73H455M448,68H455M448,63H455M441,58H455M448,53H455M448,48H455M448,43H455M448,38H455M441,33H455M448,28H455M448,23H455M448,18H455M448,13H455M441,8H455M448,3H455" style="stroke: #000000; stroke-width: 1;"></path><g font-family="Arial" font-size="9" space="preserve" fill="#000000" text-anchor="end"><text dy=".4em" transform="translate(-2,182)">-0.1</text><text dy=".4em" transform="translate(-2,157)">-0.09</text><text dy=".4em" transform="translate(-2,132)">-0.08</text><text dy=".4em" transform="translate(-2,107)">-0.07</text><text dy=".4em" transform="translate(-2,83)">-0.06</text><text dy=".4em" transform="translate(-2,58)">-0.05</text><text dy=".4em" transform="translate(-2,33)">-0.04</text><text dy=".4em" transform="translate(-2,8)">-0.03</text></g></g></g></g><g transform="translate(-222,1)" style="display: none;"><path d="M455,2h2v8h-455v-2h453z" style="fill: #000000; stroke: #000000; stroke-width: 1px;"></path><path d="M0,0H455V8H0Z" style="fill: #f2f2f2; stroke: #000000; stroke-width: 1;"></path></g></g></svg><svg viewBox="0 0 576 251" preserveAspectRatio="none" x="12" y="274" width="576" height="251"><path d="M0,0H576V251H0Z" style="fill: #ffffff;"></path><g><g transform="translate(92,13)"><path d="M0,0H455V198H0Z" style="fill: #ffffff; stroke: #000000; stroke-width: 1;"></path><svg x="0" y="0" overflow="hidden" width="455" height="198" viewBox="0 0 455 198"><g><g transform="translate(101,154)"><path style="stroke: #000000; stroke-width: 1; fill: none;" d="M0,0H-63m0,1v-2M0,0H63m0,1v-2M0,0V28m1,0h-2M0,0V-28m1,0h-2"></path></g><g transform="translate(228,99)"><path style="stroke: #000000; stroke-width: 1; fill: none;" d="M0,0H-63m0,1v-2M0,0H63m0,1v-2M0,0V27m1,0h-2M0,0V-27m1,0h-2"></path></g><g transform="translate(354,44)"><path style="stroke: #000000; stroke-width: 1; fill: none;" d="M0,0H-63m0,1v-2M0,0H63m0,1v-2M0,0V28m1,0h-2M0,0V-27m1,0h-2"></path></g><path d="M96,149l10,10m0,-10l-10,10m0,-5h10m-5,-5v10M223,94l10,10m0,-10l-10,10m0,-5h10m-5,-5v10M349,39l10,10m0,-10l-10,10m0,-5h10m-5,-5v10" style="stroke: #000000; fill: none;"></path></g></svg><g><g transform="translate(0,198)"><path d="M0,0h455M0,-198h455M0,-3V0M13,-3V0M25,-3V0M38,-6V0M51,-3V0M63,-3V0M76,-3V0M88,-3V0M101,-6V0M114,-3V0M126,-3V0M139,-3V0M152,-3V0M164,-6V0M177,-3V0M190,-3V0M202,-3V0M215,-3V0M228,-6V0M240,-3V0M253,-3V0M265,-3V0M278,-3V0M291,-6V0M303,-3V0M316,-3V0M329,-3V0M341,-3V0M354,-6V0M367,-3V0M379,-3V0M392,-3V0M404,-3V0M417,-6V0M430,-3V0M442,-3V0M455,-3V0M0,-195V-198M13,-195V-198M25,-195V-198M38,-192V-198M51,-195V-198M63,-195V-198M76,-195V-198M88,-195V-198M101,-192V-198M114,-195V-198M126,-195V-198M139,-195V-198M152,-195V-198M164,-192V-198M177,-195V-198M190,-195V-198M202,-195V-198M215,-195V-198M228,-192V-198M240,-195V-198M253,-195V-198M265,-195V-198M278,-195V-198M291,-192V-198M303,-195V-198M316,-195V-198M329,-195V-198M341,-195V-198M354,-192V-198M367,-195V-198M379,-195V-198M392,-195V-198M404,-195V-198M417,-192V-198M430,-195V-198M442,-195V-198M455,-195V-198" style="stroke: #000000; stroke-width: 1;"></path><g font-family="Arial" font-size="9" space="preserve" fill="#000000" text-anchor="middle"><text dy=".8em" transform="translate(38,2)">0.5</text><text dy=".8em" transform="translate(101,2)">1</text><text dy=".8em" transform="translate(164,2)">1.5</text><text dy=".8em" transform="translate(228,2)">2</text><text dy=".8em" transform="translate(291,2)">2.5</text><text dy=".8em" transform="translate(354,2)">3</text><text dy=".8em" transform="translate(417,2)">3.5</text></g></g><g><path d="M0,0v198M455,0v198M7,198H0M7,193H0M7,187H0M14,182H0M7,176H0M7,171H0M7,165H0M7,160H0M14,154H0M7,149H0M7,143H0M7,138H0M7,132H0M14,126H0M7,121H0M7,115H0M7,110H0M7,105H0M14,99H0M7,94H0M7,88H0M7,82H0M7,77H0M14,72H0M7,66H0M7,61H0M7,55H0M7,50H0M14,44H0M7,38H0M7,33H0M7,27H0M7,22H0M14,17H0M7,11H0M7,6H0M7,0H0M448,198H455M448,193H455M448,187H455M441,182H455M448,176H455M448,171H455M448,165H455M448,160H455M441,154H455M448,149H455M448,143H455M448,138H455M448,132H455M441,126H455M448,121H455M448,115H455M448,110H455M448,105H455M441,99H455M448,94H455M448,88H455M448,82H455M448,77H455M441,72H455M448,66H455M448,61H455M448,55H455M448,50H455M441,44H455M448,38H455M448,33H455M448,27H455M448,22H455M441,17H455M448,11H455M448,6H455M448,0H455" style="stroke: #000000; stroke-width: 1;"></path><g font-family="Arial" font-size="9" space="preserve" fill="#000000" text-anchor="end"><text dy=".4em" transform="translate(-2,182)">5</text><text dy=".4em" transform="translate(-2,154)">10</text><text dy=".4em" transform="translate(-2,126)">15</text><text dy=".4em" transform="translate(-2,99)">20</text><text dy=".4em" transform="translate(-2,72)">25</text><text dy=".4em" transform="translate(-2,44)">30</text><text dy=".4em" transform="translate(-2,17)">35</text></g></g></g></g><g transform="translate(-222,1)" style="display: none;"><path d="M455,2h2v8h-455v-2h453z" style="fill: #000000; stroke: #000000; stroke-width: 1px;"></path><path d="M0,0H455V8H0Z" style="fill: #f2f2f2; stroke: #000000; stroke-width: 1;"></path></g></g></svg><svg viewBox="0 0 576 251" preserveAspectRatio="none" x="612" y="274" width="576" height="251"><path d="M0,0H576V251H0Z" style="fill: #ffffff;"></path><g><g transform="translate(92,13)"><path d="M0,0H455V198H0Z" style="fill: #ffffff; stroke: #000000; stroke-width: 1;"></path><svg x="0" y="0" overflow="hidden" width="455" height="198" viewBox="0 0 455 198"><g><g transform="translate(101,102)"><path style="stroke: #000000; stroke-width: 1; fill: none;" d="M0,0H-63m0,1v-2M0,0H63m0,1v-2M0,0V79m1,0h-2M0,0V-79m1,0h-2"></path></g><g transform="translate(228,43)"><path style="stroke: #000000; stroke-width: 1; fill: none;" d="M0,0H-63m0,1v-2M0,0H63m0,1v-2M0,0V16m1,0h-2M0,0V-16m1,0h-2"></path></g><g transform="translate(354,23)"><path style="stroke: #000000; stroke-width: 1; fill: none;" d="M0,0H-63m0,1v-2M0,0H63m0,1v-2M0,0V7m1,0h-2M0,0V-7m1,0h-2"></path></g><path d="M96,98l10,10m0,-10l-10,10m0,-5h10m-5,-5v10M223,38l10,10m0,-10l-10,10m0,-5h10m-5,-5v10M349,18l10,10m0,-10l-10,10m0,-5h10m-5,-5v10" style="stroke: #000000; fill: none;"></path></g></svg><g><g transform="translate(0,198)"><path d="M0,0h455M0,-198h455M0,-3V0M13,-3V0M25,-3V0M38,-6V0M51,-3V0M63,-3V0M76,-3V0M88,-3V0M101,-6V0M114,-3V0M126,-3V0M139,-3V0M152,-3V0M164,-6V0M177,-3V0M190,-3V0M202,-3V0M215,-3V0M228,-6V0M240,-3V0M253,-3V0M265,-3V0M278,-3V0M291,-6V0M303,-3V0M316,-3V0M329,-3V0M341,-3V0M354,-6V0M367,-3V0M379,-3V0M392,-3V0M404,-3V0M417,-6V0M430,-3V0M442,-3V0M455,-3V0M0,-195V-198M13,-195V-198M25,-195V-198M38,-192V-198M51,-195V-198M63,-195V-198M76,-195V-198M88,-195V-198M101,-192V-198M114,-195V-198M126,-195V-198M139,-195V-198M152,-195V-198M164,-192V-198M177,-195V-198M190,-195V-198M202,-195V-198M215,-195V-198M228,-192V-198M240,-195V-198M253,-195V-198M265,-195V-198M278,-195V-198M291,-192V-198M303,-195V-198M316,-195V-198M329,-195V-198M341,-195V-198M354,-192V-198M367,-195V-198M379,-195V-198M392,-195V-198M404,-195V-198M417,-192V-198M430,-195V-198M442,-195V-198M455,-195V-198" style="stroke: #000000; stroke-width: 1;"></path><g font-family="Arial" font-size="9" space="preserve" fill="#000000" text-anchor="middle"><text dy=".8em" transform="translate(38,2)">0.5</text><text dy=".8em" transform="translate(101,2)">1</text><text dy=".8em" transform="translate(164,2)">1.5</text><text dy=".8em" transform="translate(228,2)">2</text><text dy=".8em" transform="translate(291,2)">2.5</text><text dy=".8em" transform="translate(354,2)">3</text><text dy=".8em" transform="translate(417,2)">3.5</text></g></g><g><path d="M0,0v198M455,0v198M14,197H0M7,191H0M7,185H0M7,180H0M14,174H0M7,168H0M7,162H0M7,156H0M14,150H0M7,144H0M7,138H0M7,132H0M14,126H0M7,120H0M7,114H0M7,108H0M14,102H0M7,96H0M7,91H0M7,85H0M14,79H0M7,73H0M7,67H0M7,61H0M14,55H0M7,49H0M7,43H0M7,37H0M14,31H0M7,25H0M7,19H0M7,13H0M14,7H0M7,2H0M441,197H455M448,191H455M448,185H455M448,180H455M441,174H455M448,168H455M448,162H455M448,156H455M441,150H455M448,144H455M448,138H455M448,132H455M441,126H455M448,120H455M448,114H455M448,108H455M441,102H455M448,96H455M448,91H455M448,85H455M441,79H455M448,73H455M448,67H455M448,61H455M441,55H455M448,49H455M448,43H455M448,37H455M441,31H455M448,25H455M448,19H455M448,13H455M441,7H455M448,2H455" style="stroke: #000000; stroke-width: 1;"></path><g font-family="Arial" font-size="9" space="preserve" fill="#000000" text-anchor="end"><text dy=".4em" transform="translate(-2,197)">-0.18</text><text dy=".4em" transform="translate(-2,174)">-0.16</text><text dy=".4em" transform="translate(-2,150)">-0.14</text><text dy=".4em" transform="translate(-2,126)">-0.12</text><text dy=".4em" transform="translate(-2,102)">-0.1</text><text dy=".4em" transform="translate(-2,79)">-0.08</text><text dy=".4em" transform="translate(-2,55)">-0.06</text><text dy=".4em" transform="translate(-2,31)">-0.04</text><text dy=".4em" transform="translate(-2,7)">-0.02</text></g></g></g></g><g transform="translate(-222,1)" style="display: none;"><path d="M455,2h2v8h-455v-2h453z" style="fill: #000000; stroke: #000000; stroke-width: 1px;"></path><path d="M0,0H455V8H0Z" style="fill: #f2f2f2; stroke: #000000; stroke-width: 1;"></path></g></g></svg><svg viewBox="0 0 576 251" preserveAspectRatio="none" x="12" y="541" width="576" height="251"><path d="M0,0H576V251H0Z" style="fill: #ffffff;"></path><g><g transform="translate(92,13)"><path d="M0,0H455V198H0Z" style="fill: #ffffff; stroke: #000000; stroke-width: 1;"></path><svg x="0" y="0" overflow="hidden" width="455" height="198" viewBox="0 0 455 198"><g><g transform="translate(101,154)"><path style="stroke: #000000; stroke-width: 1; fill: none;" d="M0,0H-63m0,1v-2M0,0H63m0,1v-2M0,0V28m1,0h-2M0,0V-28m1,0h-2"></path></g><g transform="translate(228,99)"><path style="stroke: #000000; stroke-width: 1; fill: none;" d="M0,0H-63m0,1v-2M0,0H63m0,1v-2M0,0V27m1,0h-2M0,0V-27m1,0h-2"></path></g><g transform="translate(354,44)"><path style="stroke: #000000; stroke-width: 1; fill: none;" d="M0,0H-63m0,1v-2M0,0H63m0,1v-2M0,0V28m1,0h-2M0,0V-27m1,0h-2"></path></g><path d="M96,149l10,10m0,-10l-10,10m0,-5h10m-5,-5v10M223,94l10,10m0,-10l-10,10m0,-5h10m-5,-5v10M349,39l10,10m0,-10l-10,10m0,-5h10m-5,-5v10" style="stroke: #000000; fill: none;"></path></g></svg><g><g transform="translate(0,198)"><path d="M0,0h455M0,-198h455M0,-3V0M13,-3V0M25,-3V0M38,-6V0M51,-3V0M63,-3V0M76,-3V0M88,-3V0M101,-6V0M114,-3V0M126,-3V0M139,-3V0M152,-3V0M164,-6V0M177,-3V0M190,-3V0M202,-3V0M215,-3V0M228,-6V0M240,-3V0M253,-3V0M265,-3V0M278,-3V0M291,-6V0M303,-3V0M316,-3V0M329,-3V0M341,-3V0M354,-6V0M367,-3V0M379,-3V0M392,-3V0M404,-3V0M417,-6V0M430,-3V0M442,-3V0M455,-3V0M0,-195V-198M13,-195V-198M25,-195V-198M38,-192V-198M51,-195V-198M63,-195V-198M76,-195V-198M88,-195V-198M101,-192V-198M114,-195V-198M126,-195V-198M139,-195V-198M152,-195V-198M164,-192V-198M177,-195V-198M190,-195V-198M202,-195V-198M215,-195V-198M228,-192V-198M240,-195V-198M253,-195V-198M265,-195V-198M278,-195V-198M291,-192V-198M303,-195V-198M316,-195V-198M329,-195V-198M341,-195V-198M354,-192V-198M367,-195V-198M379,-195V-198M392,-195V-198M404,-195V-198M417,-192V-198M430,-195V-198M442,-195V-198M455,-195V-198" style="stroke: #000000; stroke-width: 1;"></path><g font-family="Arial" font-size="9" space="preserve" fill="#000000" text-anchor="middle"><text dy=".8em" transform="translate(38,2)">0.5</text><text dy=".8em" transform="translate(101,2)">1</text><text dy=".8em" transform="translate(164,2)">1.5</text><text dy=".8em" transform="translate(228,2)">2</text><text dy=".8em" transform="translate(291,2)">2.5</text><text dy=".8em" transform="translate(354,2)">3</text><text dy=".8em" transform="translate(417,2)">3.5</text></g></g><g><path d="M0,0v198M455,0v198M7,198H0M7,193H0M7,187H0M14,182H0M7,176H0M7,171H0M7,165H0M7,160H0M14,154H0M7,149H0M7,143H0M7,138H0M7,132H0M14,126H0M7,121H0M7,115H0M7,110H0M7,105H0M14,99H0M7,94H0M7,88H0M7,82H0M7,77H0M14,72H0M7,66H0M7,61H0M7,55H0M7,50H0M14,44H0M7,38H0M7,33H0M7,27H0M7,22H0M14,17H0M7,11H0M7,6H0M7,0H0M448,198H455M448,193H455M448,187H455M441,182H455M448,176H455M448,171H455M448,165H455M448,160H455M441,154H455M448,149H455M448,143H455M448,138H455M448,132H455M441,126H455M448,121H455M448,115H455M448,110H455M448,105H455M441,99H455M448,94H455M448,88H455M448,82H455M448,77H455M441,72H455M448,66H455M448,61H455M448,55H455M448,50H455M441,44H455M448,38H455M448,33H455M448,27H455M448,22H455M441,17H455M448,11H455M448,6H455M448,0H455" style="stroke: #000000; stroke-width: 1;"></path><g font-family="Arial" font-size="9" space="preserve" fill="#000000" text-anchor="end"><text dy=".4em" transform="translate(-2,182)">5</text><text dy=".4em" transform="translate(-2,154)">10</text><text dy=".4em" transform="translate(-2,126)">15</text><text dy=".4em" transform="translate(-2,99)">20</text><text dy=".4em" transform="translate(-2,72)">25</text><text dy=".4em" transform="translate(-2,44)">30</text><text dy=".4em" transform="translate(-2,17)">35</text></g></g></g></g><g transform="translate(-222,1)" style="display: none;"><path d="M455,2h2v8h-455v-2h453z" style="fill: #000000; stroke: #000000; stroke-width: 1px;"></path><path d="M0,0H455V8H0Z" style="fill: #f2f2f2; stroke: #000000; stroke-width: 1;"></path></g></g></svg><svg viewBox="0 0 576 251" preserveAspectRatio="none" x="612" y="541" width="576" height="251"><path d="M0,0H576V251H0Z" style="fill: #ffffff;"></path><g><g transform="translate(92,13)"><path d="M0,0H455V198H0Z" style="fill: #ffffff; stroke: #000000; stroke-width: 1;"></path><svg x="0" y="0" overflow="hidden" width="455" height="198" viewBox="0 0 455 198"><g><g transform="translate(101,85)"><path style="stroke: #000000; stroke-width: 1; fill: none;" d="M0,0H-63m0,1v-2M0,0H63m0,1v-2M0,0V96m1,0h-2M0,0V-32m1,0h-2"></path></g><g transform="translate(228,37)"><path style="stroke: #000000; stroke-width: 1; fill: none;" d="M0,0H-63m0,1v-2M0,0H63m0,1v-2M0,0V16m1,0h-2M0,0V-10m1,0h-2"></path></g><g transform="translate(354,21)"><path style="stroke: #000000; stroke-width: 1; fill: none;" d="M0,0H-63m0,1v-2M0,0H63m0,1v-2M0,0V6m1,0h-2M0,0V-5m1,0h-2"></path></g><path d="M96,80l10,10m0,-10l-10,10m0,-5h10m-5,-5v10M223,32l10,10m0,-10l-10,10m0,-5h10m-5,-5v10M349,16l10,10m0,-10l-10,10m0,-5h10m-5,-5v10" style="stroke: #000000; fill: none;"></path></g></svg><g><g transform="translate(0,198)"><path d="M0,0h455M0,-198h455M0,-3V0M13,-3V0M25,-3V0M38,-6V0M51,-3V0M63,-3V0M76,-3V0M88,-3V0M101,-6V0M114,-3V0M126,-3V0M139,-3V0M152,-3V0M164,-6V0M177,-3V0M190,-3V0M202,-3V0M215,-3V0M228,-6V0M240,-3V0M253,-3V0M265,-3V0M278,-3V0M291,-6V0M303,-3V0M316,-3V0M329,-3V0M341,-3V0M354,-6V0M367,-3V0M379,-3V0M392,-3V0M404,-3V0M417,-6V0M430,-3V0M442,-3V0M455,-3V0M0,-195V-198M13,-195V-198M25,-195V-198M38,-192V-198M51,-195V-198M63,-195V-198M76,-195V-198M88,-195V-198M101,-192V-198M114,-195V-198M126,-195V-198M139,-195V-198M152,-195V-198M164,-192V-198M177,-195V-198M190,-195V-198M202,-195V-198M215,-195V-198M228,-192V-198M240,-195V-198M253,-195V-198M265,-195V-198M278,-195V-198M291,-192V-198M303,-195V-198M316,-195V-198M329,-195V-198M341,-195V-198M354,-192V-198M367,-195V-198M379,-195V-198M392,-195V-198M404,-195V-198M417,-192V-198M430,-195V-198M442,-195V-198M455,-195V-198" style="stroke: #000000; stroke-width: 1;"></path><g font-family="Arial" font-size="9" space="preserve" fill="#000000" text-anchor="middle"><text dy=".8em" transform="translate(38,2)">0.5</text><text dy=".8em" transform="translate(101,2)">1</text><text dy=".8em" transform="translate(164,2)">1.5</text><text dy=".8em" transform="translate(228,2)">2</text><text dy=".8em" transform="translate(291,2)">2.5</text><text dy=".8em" transform="translate(354,2)">3</text><text dy=".8em" transform="translate(417,2)">3.5</text></g></g><g><path d="M0,0v198M455,0v198M7,196H0M7,191H0M7,186H0M14,182H0M7,177H0M7,172H0M7,167H0M14,162H0M7,157H0M7,153H0M7,148H0M14,143H0M7,138H0M7,133H0M7,129H0M14,124H0M7,119H0M7,114H0M7,109H0M14,105H0M7,100H0M7,95H0M7,90H0M14,85H0M7,80H0M7,76H0M7,71H0M14,66H0M7,61H0M7,56H0M7,52H0M14,47H0M7,42H0M7,37H0M7,32H0M14,28H0M7,23H0M7,18H0M7,13H0M14,8H0M7,3H0M448,196H455M448,191H455M448,186H455M441,182H455M448,177H455M448,172H455M448,167H455M441,162H455M448,157H455M448,153H455M448,148H455M441,143H455M448,138H455M448,133H455M448,129H455M441,124H455M448,119H455M448,114H455M448,109H455M441,105H455M448,100H455M448,95H455M448,90H455M441,85H455M448,80H455M448,76H455M448,71H455M441,66H455M448,61H455M448,56H455M448,52H455M441,47H455M448,42H455M448,37H455M448,32H455M441,28H455M448,23H455M448,18H455M448,13H455M441,8H455M448,3H455" style="stroke: #000000; stroke-width: 1;"></path><g font-family="Arial" font-size="9" space="preserve" fill="#000000" text-anchor="end"><text dy=".4em" transform="translate(-2,182)">-0.2</text><text dy=".4em" transform="translate(-2,162)">-0.18</text><text dy=".4em" transform="translate(-2,143)">-0.16</text><text dy=".4em" transform="translate(-2,124)">-0.14</text><text dy=".4em" transform="translate(-2,105)">-0.12</text><text dy=".4em" transform="translate(-2,85)">-0.1</text><text dy=".4em" transform="translate(-2,66)">-0.08</text><text dy=".4em" transform="translate(-2,47)">-0.06</text><text dy=".4em" transform="translate(-2,28)">-0.04</text><text dy=".4em" transform="translate(-2,8)">-0.02</text></g></g></g></g><g transform="translate(-222,1)" style="display: none;"><path d="M455,2h2v8h-455v-2h453z" style="fill: #000000; stroke: #000000; stroke-width: 1px;"></path><path d="M0,0H455V8H0Z" style="fill: #f2f2f2; stroke: #000000; stroke-width: 1;"></path></g></g></svg></g></svg>