<svg xmlns="http://www.w3.org/2000/svg" viewBox="0 0 1200 800" preserveAspectRatio="none" width="1200" height="800"><path d="M0,0H1200V800H0Z" style="fill: #ffffff;"></path><g><g transform="translate(192,40)"><path d="M0,0H948V632H0Z" style="fill: #ffffff; stroke: #000000; stroke-width: 1;"></path><svg x="0" y="0" overflow="hidden" width="948" height="632" viewBox="0 0 948 632"><g><path d="M0,579.33Q27.22,540.73,45.36,515.65C63.5,490.56,72.57,478.09,90.72,453.9S117.93,417.76,136.08,394.71S163.29,360.35,181.44,338.67S208.65,306.43,226.79,286.35S254.01,256.55,272.15,238.25S299.37,211.19,317.51,194.87S344.73,170.82,362.87,156.63S390.09,135.84,408.23,123.93S435.44,106.59,453.59,97.08S480.8,83.37,498.95,76.35S526.16,66.42,544.31,61.95S571.52,55.89,589.67,54.03S616.88,51.9,635.02,52.67S662.24,54.48,680.38,57.87S707.6,63.62,725.74,69.58S752.96,79.21,771.1,87.7S798.32,101.1,816.46,112.03Q853.04,135.86,861.82,142.34" style="stroke: #ff0000; stroke-width: 4; fill: none;"></path><path d="M-5,575v10h10v-10zM41,511v10h10v-10zM86,449v10h10v-10zM131,390v10h10v-10zM177,334v10h10v-10zM222,282v10h10v-10zM267,233v10h10v-10zM313,190v10h10v-10zM358,152v10h10v-10zM403,119v10h10v-10zM449,92v10h10v-10zM494,72v10h10v-10zM540,57v10h10v-10zM585,49v10h10v-10zM630,48v10h10v-10zM676,53v10h10v-10zM721,65v10h10v-10zM766,83v10h10v-10zM812,107v10h10v-10zM857,138v10h10v-10z" style="stroke: #0000ff; fill: #0000ff;"></path></g></svg><g><g transform="translate(0,632)"><path d="M0,0h948M0,-632h948M0,-19V0M23,-10V0M45,-10V0M68,-10V0M91,-19V0M113,-10V0M136,-10V0M159,-10V0M181,-19V0M204,-10V0M227,-10V0M249,-10V0M272,-19V0M295,-10V0M318,-10V0M340,-10V0M363,-19V0M386,-10V0M408,-10V0M431,-10V0M454,-19V0M476,-10V0M499,-10V0M522,-10V0M544,-19V0M567,-10V0M590,-10V0M612,-10V0M635,-19V0M658,-10V0M680,-10V0M703,-10V0M726,-19V0M748,-10V0M771,-10V0M794,-10V0M816,-19V0M839,-10V0M862,-10V0M884,-10V0M907,-19V0M930,-10V0M0,-613V-632M23,-622V-632M45,-622V-632M68,-622V-632M91,-613V-632M113,-622V-632M136,-622V-632M159,-622V-632M181,-613V-632M204,-622V-632M227,-622V-632M249,-622V-632M272,-613V-632M295,-622V-632M318,-622V-632M340,-622V-632M363,-613V-632M386,-622V-632M408,-622V-632M431,-622V-632M454,-613V-632M476,-622V-632M499,-622V-632M522,-622V-632M544,-613V-632M567,-622V-632M590,-622V-632M612,-622V-632M635,-613V-632M658,-622V-632M680,-622V-632M703,-622V-632M726,-613V-632M748,-622V-632M771,-622V-632M794,-622V-632M816,-613V-632M839,-622V-632M862,-622V-632M884,-622V-632M907,-613V-632M930,-622V-632" style="stroke: #000000; stroke-width: 1;"></path><g font-family="Arial" font-size="40" space="preserve" fill="#000000" text-anchor="middle"><text dy=".8em" transform="translate(0,4)">0</text><text dy=".8em" transform="translate(91,4)">0.2</text><text dy=".8em" transform="translate(181,4)">0.4</text><text dy=".8em" transform="translate(272,4)">0.6</text><text dy=".8em" transform="translate(363,4)">0.8</text><text dy=".8em" transform="translate(454,4)">1</text><text dy=".8em" transform="translate(544,4)">1.2</text><text dy=".8em" transform="translate(635,4)">1.4</text><text dy=".8em" transform="translate(726,4)">1.6</text><text dy=".8em" transform="translate(816,4)">1.8</text><text dy=".8em" transform="translate(907,4)">2</text></g><g font-family="Arial" font-size="40" space="preserve" transform="translate(948,90)"><text fill="#000000" text-anchor="end" dy=".4em">X title</text></g></g><g><path d="M0,0v632M948,0v632M14,631H0M14,618H0M14,605H0M14,592H0M28,578H0M14,565H0M14,552H0M14,539H0M14,526H0M28,513H0M14,500H0M14,486H0M14,473H0M14,460H0M28,447H0M14,434H0M14,421H0M14,407H0M14,394H0M28,381H0M14,368H0M14,355H0M14,342H0M14,329H0M28,315H0M14,302H0M14,289H0M14,276H0M14,263H0M28,250H0M14,237H0M14,223H0M14,210H0M14,197H0M28,184H0M14,171H0M14,158H0M14,144H0M14,131H0M28,118H0M14,105H0M14,92H0M14,79H0M14,66H0M28,52H0M14,39H0M14,26H0M14,13H0M934,631H948M934,618H948M934,605H948M934,592H948M920,578H948M934,565H948M934,552H948M934,539H948M934,526H948M920,513H948M934,500H948M934,486H948M934,473H948M934,460H948M920,447H948M934,434H948M934,421H948M934,407H948M934,394H948M920,381H948M934,368H948M934,355H948M934,342H948M934,329H948M920,315H948M934,302H948M934,289H948M934,276H948M934,263H948M920,250H948M934,237H948M934,223H948M934,210H948M934,197H948M920,184H948M934,171H948M934,158H948M934,144H948M934,131H948M920,118H948M934,105H948M934,92H948M934,79H948M934,66H948M920,52H948M934,39H948M934,26H948M934,13H948" style="stroke: #000000; stroke-width: 1;"></path><g font-family="Arial" font-size="40" space="preserve" fill="#000000" text-anchor="end"><text dy=".4em" transform="translate(-6,578)">2</text><text dy=".4em" transform="translate(-6,513)">3</text><text dy=".4em" transform="translate(-6,447)">4</text><text dy=".4em" transform="translate(-6,381)">5</text><text dy=".4em" transform="translate(-6,315)">6</text><text dy=".4em" transform="translate(-6,250)">7</text><text dy=".4em" transform="translate(-6,184)">8</text><text dy=".4em" transform="translate(-6,118)">9</text><text dy=".4em" transform="translate(-6,52)">10</text></g><g font-family="Arial" font-size="40" space="preserve" transform="translate(-134)"><text fill="#000000" text-anchor="end" dy=".4em" transform="rotate(270)">Y title</text></g></g><path d="M0,0v632M91,0v632M181,0v632M272,0v632M363,0v632M454,0v632M544,0v632M635,0v632M726,0v632M816,0v632M907,0v632" style="stroke: #000000; stroke-width: 1; stroke-dasharray: 1,2;"></path><path d="M0,578h948M0,513h948M0,447h948M0,381h948M0,315h948M0,250h948M0,184h948M0,118h948M0,52h948" style="stroke: #000000; stroke-width: 1; stroke-dasharray: 1,2;"></path></g></g><g transform="translate(-462,4)" style="display: none;"><path d="M948,2h2v25h-948v-2h946z" style="fill: #000000; stroke: #000000; stroke-width: 1px;"></path><path d="M0,0H948V25H0Z" style="fill: #f2f2f2; stroke: #000000; stroke-width: 1;"></path></g></g></svg>