<svg xmlns="http://www.w3.org/2000/svg" viewBox="0 0 1200 800" preserveAspectRatio="none" width="1200" height="800"><defs><pattern id="pat_3013_16" patternUnits="userSpaceOnUse" width="7" height="7"><path d="M0,0L7,7M7,0L0,7" style="stroke: #b2b2b2; stroke-width: 1; fill: none;"></path></pattern></defs><path d="M0,0H1200V800H0Z" style="fill: #ffffff;"></path><g><g transform="translate(192,40)"><path d="M0,0H948V632H0Z" style="fill: #ffffff; stroke: #000000; stroke-width: 1;"></path><svg x="0" y="0" overflow="hidden" width="948" height="632" viewBox="0 0 948 632"><g><path d="M43,476l43,-49l43,-47l43,-45l43,-42l44,-39l43,-35l43,-30l43,-26l43,-22l43,-16l43,-12l43,-6l43,-1l43,4l43,9l44,15l43,19l43,24l43,29v62l-43,-19l-43,-16l-43,-11l-44,-8l-43,-3l-43,1l-43,5l-43,9l-43,13l-43,18l-43,20l-43,25l-43,28l-43,31l-44,33l-43,36l-43,38l-43,39l-43,41Z" style="fill: url(#pat_3013_16);"></path></g><g><path d="M43,548l43,-41l43,-39l43,-38l43,-36l44,-33l43,-31l43,-28l43,-25l43,-20l43,-18l43,-13l43,-9l43,-5l43,-1l43,3l44,8l43,11l43,16l43,19" style="stroke: #000000; stroke-width: 1; fill: none;"></path></g><g><path d="M43,476l43,-49l43,-47l43,-45l43,-42l44,-39l43,-35l43,-30l43,-26l43,-22l43,-16l43,-12l43,-6l43,-1l43,4l43,9l44,15l43,19l43,24l43,29" style="stroke: #000000; stroke-width: 1; fill: none;"></path></g><g><path d="M43.09,514.73Q68.95,487.25,86.18,469.47C103.42,451.69,112.04,442.87,129.27,425.83S155.13,400.38,172.36,384.25S198.22,360.21,215.45,345.14S241.31,322.75,258.55,308.9S284.4,288.39,301.64,275.89S327.49,257.45,344.73,246.44S370.58,230.26,387.82,220.84S413.67,207.08,430.91,199.35S456.76,188.15,474,182.18S499.85,173.65,517.09,169.51S542.95,163.73,560.18,161.45S586.04,158.5,603.27,158.1S629.13,157.99,646.36,159.49S672.22,162.22,689.45,165.59S715.31,171.14,732.55,176.36S758.4,184.67,775.64,191.67S801.49,202.66,818.73,211.39Q853.39,230.2,861.82,235.31" style="stroke: #000000; stroke-width: 4; fill: none;"></path><path d="M38,510v10h10v-10zM81,465v10h10v-10zM124,421v10h10v-10zM168,379v10h10v-10zM211,340v10h10v-10zM254,304v10h10v-10zM297,271v10h10v-10zM340,242v10h10v-10zM383,216v10h10v-10zM426,195v10h10v-10zM469,177v10h10v-10zM512,165v10h10v-10zM555,157v10h10v-10zM598,153v10h10v-10zM642,155v10h10v-10zM685,161v10h10v-10zM728,172v10h10v-10zM771,187v10h10v-10zM814,207v10h10v-10zM857,231v10h10v-10z" style="stroke: #0000ff; fill: #0000ff;"></path></g></svg><g><g transform="translate(0,632)"><path d="M0,0h948M0,-632h948M0,-19V0M22,-10V0M43,-10V0M65,-10V0M86,-19V0M108,-10V0M129,-10V0M151,-10V0M172,-19V0M194,-10V0M215,-10V0M237,-10V0M259,-19V0M280,-10V0M302,-10V0M323,-10V0M345,-19V0M366,-10V0M388,-10V0M409,-10V0M431,-19V0M452,-10V0M474,-10V0M496,-10V0M517,-19V0M539,-10V0M560,-10V0M582,-10V0M603,-19V0M625,-10V0M646,-10V0M668,-10V0M689,-19V0M711,-10V0M733,-10V0M754,-10V0M776,-19V0M797,-10V0M819,-10V0M840,-10V0M862,-19V0M883,-10V0M905,-10V0M926,-10V0M948,-19V0M0,-613V-632M22,-622V-632M43,-622V-632M65,-622V-632M86,-613V-632M108,-622V-632M129,-622V-632M151,-622V-632M172,-613V-632M194,-622V-632M215,-622V-632M237,-622V-632M259,-613V-632M280,-622V-632M302,-622V-632M323,-622V-632M345,-613V-632M366,-622V-632M388,-622V-632M409,-622V-632M431,-613V-632M452,-622V-632M474,-622V-632M496,-622V-632M517,-613V-632M539,-622V-632M560,-622V-632M582,-622V-632M603,-613V-632M625,-622V-632M646,-622V-632M668,-622V-632M689,-613V-632M711,-622V-632M733,-622V-632M754,-622V-632M776,-613V-632M797,-622V-632M819,-622V-632M840,-622V-632M862,-613V-632M883,-622V-632M905,-622V-632M926,-622V-632M948,-613V-632" style="stroke: #000000; stroke-width: 1;"></path><g font-family="Arial" font-size="40" space="preserve" fill="#000000" text-anchor="middle"><text dy=".8em" transform="translate(0,4)">0</text><text dy=".8em" transform="translate(86,4)">0.2</text><text dy=".8em" transform="translate(172,4)">0.4</text><text dy=".8em" transform="translate(259,4)">0.6</text><text dy=".8em" transform="translate(345,4)">0.8</text><text dy=".8em" transform="translate(431,4)">1</text><text dy=".8em" transform="translate(517,4)">1.2</text><text dy=".8em" transform="translate(603,4)">1.4</text><text dy=".8em" transform="translate(689,4)">1.6</text><text dy=".8em" transform="translate(776,4)">1.8</text><text dy=".8em" transform="translate(862,4)">2</text><text dy=".8em" transform="translate(948,4)">2.2</text></g></g><g><path d="M0,0v632M948,0v632M28,632H0M14,606H0M14,579H0M14,553H0M28,527H0M14,500H0M14,474H0M14,448H0M28,421H0M14,395H0M14,369H0M14,342H0M28,316H0M14,290H0M14,263H0M14,237H0M28,211H0M14,184H0M14,158H0M14,132H0M28,105H0M14,79H0M14,53H0M14,26H0M28,0H0M920,632H948M934,606H948M934,579H948M934,553H948M920,527H948M934,500H948M934,474H948M934,448H948M920,421H948M934,395H948M934,369H948M934,342H948M920,316H948M934,290H948M934,263H948M934,237H948M920,211H948M934,184H948M934,158H948M934,132H948M920,105H948M934,79H948M934,53H948M934,26H948M920,0H948" style="stroke: #000000; stroke-width: 1;"></path><g font-family="Arial" font-size="40" space="preserve" fill="#000000" text-anchor="end"><text dy=".4em" transform="translate(-6,632)">0</text><text dy=".4em" transform="translate(-6,527)">2</text><text dy=".4em" transform="translate(-6,421)">4</text><text dy=".4em" transform="translate(-6,316)">6</text><text dy=".4em" transform="translate(-6,211)">8</text><text dy=".4em" transform="translate(-6,105)">10</text><text dy=".4em" transform="translate(-6)">12</text></g></g><path d="M0,0v632M86,0v632M172,0v632M259,0v632M345,0v632M431,0v632M517,0v632M603,0v632M689,0v632M776,0v632M862,0v632M948,0v632" style="stroke: #000000; stroke-width: 1; stroke-dasharray: 1,2;"></path><path d="M0,632h948M0,527h948M0,421h948M0,316h948M0,211h948M0,105h948M0,0h948" style="stroke: #000000; stroke-width: 1; stroke-dasharray: 1,2;"></path></g></g><g transform="translate(-462,4)" style="display: none;"><path d="M948,2h2v25h-948v-2h946z" style="fill: #000000; stroke: #000000; stroke-width: 1px;"></path><path d="M0,0H948V25H0Z" style="fill: #f2f2f2; stroke: #000000; stroke-width: 1;"></path></g></g></svg>