<svg xmlns="http://www.w3.org/2000/svg" viewBox="0 0 1200 800" preserveAspectRatio="none" width="1200" height="800"><path d="M0,0H1200V800H0Z" style="fill: #ffffff;"></path><g><g transform="translate(120,80)"><path d="M0,0H960V640H0Z" style="fill: #ffffff; stroke: #000000; stroke-width: 1;"></path><svg x="0" y="0" overflow="hidden" width="960" height="640" viewBox="0 0 960 640"><g><path fill="#b2bc65" d="M504,256h24v16h-24zm0,112h24v16h-24z"></path><path fill="#d0ba59" d="M384,320h24v16h-24zm48,-64h24v16h-24zm0,112h24v16h-24zm96,-96h24v16h-24zm0,48h24v16h-24zm0,32h24v16h-24zm24,-48h24v16h-24z"></path><path fill="#e1bf4a" d="M408,304h24v16h-24zm0,48h24v16h-24zm48,-96h24v16h-24zm0,112h24v16h-24zM480,256h24v16h-24zm0,112h24v16h-24zm24,-96h24v16h-24zm0,80h24v16h-24zm48,-32h24v16h-24z"></path><path fill="#f4c53a" d="M384,304h24v16h-24zm24,-32h24v16h-24zm0,48h24v32h-24zm24,-48h24v32h-24zm0,64h24v32h-24zm24,-64h24v32h-24zm0,80h24v16h-24zm24,-80h24v16h-24zm0,80h24v16h-24zm24,-64h24v16h-24zm24,16h24v16h-24zm0,32h24v16h-24z"></path><path fill="#fcd12b" d="M408,288h24v16h-24zm24,16h24v32h-24zm24,16h24v32h-24zm24,-32h24v16h-24zm0,48h24v16h-24zm24,-16h24v32h-24zm24,-32h24v16h-24z"></path><path fill="#fae61c" d="M504,304h24v16h-24z"></path><path fill="#f9f90e" d="M456,304h24v16h-24zm24,0h24v32h-24z"></path></g><g><path d="M528,256l48,64l-48,64h-96l-48,-64l48,-64Z" style="stroke: #000000; stroke-width: 1; fill: none;"></path></g></svg><g><g transform="translate(0,640)"><path d="M0,0h960M0,-19V0M24,-10V0M48,-10V0M72,-10V0M96,-19V0M120,-10V0M144,-10V0M168,-10V0M192,-19V0M216,-10V0M240,-10V0M264,-10V0M288,-19V0M312,-10V0M336,-10V0M360,-10V0M384,-19V0M408,-10V0M432,-10V0M456,-10V0M480,-19V0M504,-10V0M528,-10V0M552,-10V0M576,-19V0M600,-10V0M624,-10V0M648,-10V0M672,-19V0M696,-10V0M720,-10V0M744,-10V0M768,-19V0M792,-10V0M816,-10V0M840,-10V0M864,-19V0M888,-10V0M912,-10V0M936,-10V0M960,-19V0" style="stroke: #000000; stroke-width: 1;"></path><g font-family="Arial" font-size="28" space="preserve" fill="#000000" text-anchor="middle"><text dy=".8em" transform="translate(0,5)">-10</text><text dy=".8em" transform="translate(96,5)">-8</text><text dy=".8em" transform="translate(192,5)">-6</text><text dy=".8em" transform="translate(288,5)">-4</text><text dy=".8em" transform="translate(384,5)">-2</text><text dy=".8em" transform="translate(480,5)">0</text><text dy=".8em" transform="translate(576,5)">2</text><text dy=".8em" transform="translate(672,5)">4</text><text dy=".8em" transform="translate(768,5)">6</text><text dy=".8em" transform="translate(864,5)">8</text><text dy=".8em" transform="translate(960,5)">10</text></g></g><g><path d="M0,0v640M29,640H0M15,624H0M15,608H0M15,592H0M29,576H0M15,560H0M15,544H0M15,528H0M29,512H0M15,496H0M15,480H0M15,464H0M29,448H0M15,432H0M15,416H0M15,400H0M29,384H0M15,368H0M15,352H0M15,336H0M29,320H0M15,304H0M15,288H0M15,272H0M29,256H0M15,240H0M15,224H0M15,208H0M29,192H0M15,176H0M15,160H0M15,144H0M29,128H0M15,112H0M15,96H0M15,80H0M29,64H0M15,48H0M15,32H0M15,16H0M29,0H0" style="stroke: #000000; stroke-width: 1;"></path><g font-family="Arial" font-size="28" space="preserve" fill="#000000" text-anchor="end"><text dy=".4em" transform="translate(-6,640)">-10</text><text dy=".4em" transform="translate(-6,576)">-8</text><text dy=".4em" transform="translate(-6,512)">-6</text><text dy=".4em" transform="translate(-6,448)">-4</text><text dy=".4em" transform="translate(-6,384)">-2</text><text dy=".4em" transform="translate(-6,320)">0</text><text dy=".4em" transform="translate(-6,256)">2</text><text dy=".4em" transform="translate(-6,192)">4</text><text dy=".4em" transform="translate(-6,128)">6</text><text dy=".4em" transform="translate(-6,64)">8</text><text dy=".4em" transform="translate(-6)">10</text></g></g></g></g><g transform="translate(936,52)" font-family="Arial" font-size="20" space="preserve" fill="#000000"><path d="M0,0H240V192H0Z" style="fill: #ffffff; stroke: #000000; stroke-width: 1;"></path><text text-anchor="middle" dy=".4em" transform="translate(120,16)">hist</text><text text-anchor="start" dy=".4em" transform="translate(12,48)">Entries </text><text text-anchor="end" dy=".4em" transform="translate(228,48)"> 100000</text><text text-anchor="start" dy=".4em" transform="translate(12,80)">Mean x </text><text text-anchor="end" dy=".4em" transform="translate(228,80)"> -0.009911</text><text text-anchor="start" dy=".4em" transform="translate(12,112)">Mean y </text><text text-anchor="end" dy=".4em" transform="translate(228,112)"> 0.002549</text><text text-anchor="start" dy=".4em" transform="translate(12,144)">Std Dev x </text><text text-anchor="end" dy=".4em" transform="translate(228,144)"> 0.9097</text><text text-anchor="start" dy=".4em" transform="translate(12,176)">Std Dev y </text><text text-anchor="end" dy=".4em" transform="translate(228,176)"> 1.004</text><path d="M0,32h240" style="stroke: #000000; stroke-width: 1;"></path></g><g transform="translate(120,4)" font-family="Arial" font-size="40" space="preserve"><text fill="#000000" text-anchor="middle" dy=".8em" transform="translate(480)">Histogram with cut</text></g></g></svg>