<svg xmlns="http://www.w3.org/2000/svg" viewBox="0 0 1200 800" preserveAspectRatio="none" width="1200" height="800"><path d="M0,0H1200V800H0Z" style="fill: #ffffff;"></path><g><g transform="translate(192,120)"><path d="M0,0H948V552H0Z" style="fill: #ffffff; stroke: #000000; stroke-width: 1;"></path><svg x="0" y="0" overflow="hidden" width="948" height="552" viewBox="0 0 948 552"><g><path d="M0,93h47v67h48v267h47v-289h48v267h47v-201h47v323h48v-33h47v-190h48v-66h47v111h47v-223h48v-55h47v133h48v-178h47v178h47v-89h48v145h47v33h48v45h47L948,555H0Z" style="stroke-linejoin: miter; stroke: #000000; stroke-width: 2; fill: #7c99d1;"></path></g></svg><g><g transform="translate(0,552)"><path d="M0,0h948M0,-552h948M0,-19V0M47,-19V0M95,-19V0M142,-19V0M190,-19V0M237,-19V0M284,-19V0M332,-19V0M379,-19V0M427,-19V0M474,-19V0M521,-19V0M569,-19V0M616,-19V0M664,-19V0M711,-19V0M758,-19V0M806,-19V0M853,-19V0M901,-19V0M948,-10V0M0,-533V-552M47,-533V-552M95,-533V-552M142,-533V-552M190,-533V-552M237,-533V-552M284,-533V-552M332,-533V-552M379,-533V-552M427,-533V-552M474,-533V-552M521,-533V-552M569,-533V-552M616,-533V-552M664,-533V-552M711,-533V-552M758,-533V-552M806,-533V-552M853,-533V-552M901,-533V-552M948,-542V-552" style="stroke: #000000; stroke-width: 1;"></path><g font-family="Arial" font-size="27" space="preserve" fill="#000000" text-anchor="middle"><text dy=".8em" transform="translate(24,5) rotate(25)" style="text-anchor: start;">Valery</text><text dy=".8em" transform="translate(71,5) rotate(25)" style="text-anchor: start;">Odile</text><text dy=".8em" transform="translate(119,5) rotate(25)" style="text-anchor: start;">Fons</text><text dy=".8em" transform="translate(166,5) rotate(25)" style="text-anchor: start;">Jeff</text><text dy=".8em" transform="translate(214,5) rotate(25)" style="text-anchor: start;">Sebastien</text><text dy=".8em" transform="translate(261,5) rotate(25)" style="text-anchor: start;">Greg</text><text dy=".8em" transform="translate(308,5) rotate(25)" style="text-anchor: start;">Peter</text><text dy=".8em" transform="translate(356,5) rotate(25)" style="text-anchor: start;">Bjarne</text><text dy=".8em" transform="translate(403,5) rotate(25)" style="text-anchor: start;">Pasha</text><text dy=".8em" transform="translate(451,5) rotate(25)" style="text-anchor: start;">Eddy</text><text dy=".8em" transform="translate(498,5) rotate(25)" style="text-anchor: start;">Rene</text><text dy=".8em" transform="translate(545,5) rotate(25)" style="text-anchor: start;">Philippe</text><text dy=".8em" transform="translate(593,5) rotate(25)" style="text-anchor: start;">Nicolas</text><text dy=".8em" transform="translate(640,5) rotate(25)" style="text-anchor: start;">Jean</text><text dy=".8em" transform="translate(688,5) rotate(25)" style="text-anchor: start;">Anton</text><text dy=".8em" transform="translate(735,5) rotate(25)" style="text-anchor: start;">Suzanne</text><text dy=".8em" transform="translate(782,5) rotate(25)" style="text-anchor: start;">Marie</text><text dy=".8em" transform="translate(830,5) rotate(25)" style="text-anchor: start;">Pierre</text><text dy=".8em" transform="translate(877,5) rotate(25)" style="text-anchor: start;">Otto</text><text dy=".8em" transform="translate(925,5) rotate(25)" style="text-anchor: start;">Xavier</text></g></g><g><path d="M0,0v552M948,0v552M13,549H0M13,538H0M25,527H0M13,516H0M13,505H0M13,494H0M13,482H0M25,471H0M13,460H0M13,449H0M13,438H0M13,427H0M25,416H0M13,405H0M13,393H0M13,382H0M13,371H0M25,360H0M13,349H0M13,338H0M13,327H0M13,316H0M25,304H0M13,293H0M13,282H0M13,271H0M13,260H0M25,249H0M13,238H0M13,227H0M13,215H0M13,204H0M25,193H0M13,182H0M13,171H0M13,160H0M13,149H0M25,138H0M13,126H0M13,115H0M13,104H0M13,93H0M25,82H0M13,71H0M13,60H0M13,49H0M13,37H0M25,26H0M13,15H0M13,4H0M935,549H948M935,538H948M923,527H948M935,516H948M935,505H948M935,494H948M935,482H948M923,471H948M935,460H948M935,449H948M935,438H948M935,427H948M923,416H948M935,405H948M935,393H948M935,382H948M935,371H948M923,360H948M935,349H948M935,338H948M935,327H948M935,316H948M923,304H948M935,293H948M935,282H948M935,271H948M935,260H948M923,249H948M935,238H948M935,227H948M935,215H948M935,204H948M923,193H948M935,182H948M935,171H948M935,160H948M935,149H948M923,138H948M935,126H948M935,115H948M935,104H948M935,93H948M923,82H948M935,71H948M935,60H948M935,49H948M935,37H948M923,26H948M935,15H948M935,4H948" style="stroke: #000000; stroke-width: 1;"></path><g font-family="Arial" font-size="40" space="preserve" fill="#000000" text-anchor="end"><text dy=".4em" transform="translate(-6,527)">225</text><text dy=".4em" transform="translate(-6,471)">230</text><text dy=".4em" transform="translate(-6,416)">235</text><text dy=".4em" transform="translate(-6,360)">240</text><text dy=".4em" transform="translate(-6,304)">245</text><text dy=".4em" transform="translate(-6,249)">250</text><text dy=".4em" transform="translate(-6,193)">255</text><text dy=".4em" transform="translate(-6,138)">260</text><text dy=".4em" transform="translate(-6,82)">265</text><text dy=".4em" transform="translate(-6,26)">270</text></g></g><path d="M0,0v552M47,0v552M95,0v552M142,0v552M190,0v552M237,0v552M284,0v552M332,0v552M379,0v552M427,0v552M474,0v552M521,0v552M569,0v552M616,0v552M664,0v552M711,0v552M758,0v552M806,0v552M853,0v552M901,0v552M948,0v552" style="stroke: #000000; stroke-width: 1; stroke-dasharray: 1,2;"></path><path d="M0,527h948M0,471h948M0,416h948M0,360h948M0,304h948M0,249h948M0,193h948M0,138h948M0,82h948M0,26h948" style="stroke: #000000; stroke-width: 1; stroke-dasharray: 1,2;"></path></g></g><g transform="translate(-462,4)" style="display: none;"><path d="M948,2h2v81h-948v-2h946z" style="fill: #000000; stroke: #000000; stroke-width: 1px;"></path><path d="M0,0H948V81H0Z" style="fill: #f2f2f2; stroke: #000000; stroke-width: 1;"></path></g><g transform="translate(840,16)" font-family="Arial" font-size="13" space="preserve" fill="#000000" text-anchor="start"><path d="M336,4h4v104h-336v-4h332z" style="fill: #000000; stroke: #000000; stroke-width: 1px;"></path><path d="M0,0H336V104H0Z" style="fill: #e5e5e5; stroke: #000000; stroke-width: 1;"></path><text dy=".4em" transform="translate(17,13)">Use the axis Context Menu LabelsOption</text><text dy=".4em" transform="translate(17,39)"> "a"   to sort by alphabetic order</text><text dy=".4em" transform="translate(17,65)"> "&gt;"   to sort by decreasing values</text><text dy=".4em" transform="translate(17,91)"> "&lt;"   to sort by increasing values</text></g></g></svg>