<svg xmlns="http://www.w3.org/2000/svg" viewBox="0 0 1200 800" preserveAspectRatio="none" width="1200" height="800"><path d="M0,0H1200V800H0Z" style="fill: #ffffff;"></path><g><g transform="translate(120,80)"><path d="M0,0H960V640H0Z" style="fill: #ffffff; stroke: #000000; stroke-width: 1;"></path><svg x="0" y="0" overflow="hidden" width="960" height="640" viewBox="0 0 960 640"><g><path d="M0,589v6m0,-3h10m0,-3v6M2,584h6m-3,0v16m-3,0h6M10,580v6m0,-3h10m0,-3v6M12,574h6m-3,0v18m-3,0h6M19,571v6m0,-3h10m0,-3v6M21,565h6m-3,0v19m-3,0h6M29,563v6m0,-3h10m0,-3v6M31,555h6m-3,0v21m-3,0h6M38,558v6m0,-3h10m0,-3v6M40,551h6m-3,0v21m-3,0h6M48,560v6m0,-3h10m0,-3v6M50,552h6m-3,0v21m-3,0h6M58,544v6m0,-3h10m0,-3v6M60,535h6m-3,0v23m-3,0h6M67,535v6m0,-3h10m0,-3v6M69,526h6m-3,0v24m-3,0h6M77,550v6m0,-3h10m0,-3v6M79,541h6m-3,0v23m-3,0h6M86,534v6m0,-3h10m0,-3v6M88,524h6m-3,0v25m-3,0h6M96,532v6m0,-3h10m0,-3v6M98,523h6m-3,0v25m-3,0h6M106,545v6m0,-3h10m0,-3v6M108,537h6m-3,0v23m-3,0h6M115,513v6m0,-3h10m0,-3v6M117,503h6m-3,0v27m-3,0h6M125,483v6m0,-3h10m0,-3v6M127,471h6m-3,0v30m-3,0h6M134,509v6m0,-3h10m0,-3v6M136,498h6m-3,0v28m-3,0h6M144,468v6m0,-3h10m0,-3v6M146,455h6m-3,0v32m-3,0h6M154,480v6m0,-3h10m0,-3v6M156,468h6m-3,0v30m-3,0h6M163,462v6m0,-3h10m0,-3v6M165,449h6m-3,0v32m-3,0h6M173,440v6m0,-3h10m0,-3v6M175,427h6m-3,0v33m-3,0h6M182,446v6m0,-3h10m0,-3v6M184,433h6m-3,0v33m-3,0h6M192,440v6m0,-3h10m0,-3v6M194,426h6m-3,0v34m-3,0h6M202,457v6m0,-3h10m0,-3v6M204,444h6m-3,0v33m-3,0h6M211,386v6m0,-3h10m0,-3v6M213,370h6m-3,0v38m-3,0h6M221,361v6m0,-3h10m0,-3v6M223,344h6m-3,0v40m-3,0h6M230,384v6m0,-3h10m0,-3v6M232,368h6m-3,0v39m-3,0h6M240,365v6m0,-3h10m0,-3v6M242,349h6m-3,0v39m-3,0h6M250,378v6m0,-3h10m0,-3v6M252,361h6m-3,0v39m-3,0h6M259,387v6m0,-3h10m0,-3v6M261,371h6m-3,0v37m-3,0h6M269,362v6m0,-3h10m0,-3v6M271,345h6m-3,0v40m-3,0h6M278,347v6m0,-3h10m0,-3v6M280,330h6m-3,0v40m-3,0h6M288,306v6m0,-3h10m0,-3v6M290,288h6m-3,0v42m-3,0h6M298,303v6m0,-3h10m0,-3v6M300,285h6m-3,0v42m-3,0h6M307,263v6m0,-3h10m0,-3v6M309,244h6m-3,0v44m-3,0h6M317,283v6m0,-3h10m0,-3v6M319,265h6m-3,0v42m-3,0h6M326,208v6m0,-3h10m0,-3v6M328,188h6m-3,0v46m-3,0h6M336,222v6m0,-3h10m0,-3v6M338,203h6m-3,0v44m-3,0h6M346,177v6m0,-3h10m0,-3v6M348,157h6m-3,0v46m-3,0h6M355,156v6m0,-3h10m0,-3v6M357,136h6m-3,0v46m-3,0h6M365,150v6m0,-3h10m0,-3v6M367,130h6m-3,0v45m-3,0h6M374,87v6m0,-3h10m0,-3v6M376,66h6m-3,0v48m-3,0h6M384,101v6m0,-3h10m0,-3v6M386,81h6m-3,0v46m-3,0h6M394,62v6m0,-3h10m0,-3v6M396,42h6m-3,0v47m-3,0h6M403,85v6m0,-3h10m0,-3v6M405,65h6m-3,0v46m-3,0h6M413,51v6m0,-3h10m0,-3v6M415,30h6m-3,0v48m-3,0h6M422,54v6m0,-3h10m0,-3v6M424,33h6m-3,0v48m-3,0h6M432,60v6m0,-3h10m0,-3v6M434,40h6m-3,0v47m-3,0h6M442,112v6m0,-3h10m0,-3v6M444,92h6m-3,0v46m-3,0h6M451,144v6m0,-3h10m0,-3v6M453,125h6m-3,0v44m-3,0h6M461,198v6m0,-3h10m0,-3v6M463,180h6m-3,0v41m-3,0h6M470,185v6m0,-3h10m0,-3v6M472,166h6m-3,0v44m-3,0h6M480,245v6m0,-3h10m0,-3v6M482,227h6m-3,0v41m-3,0h6M490,280v6m0,-3h10m0,-3v6M492,264h6m-3,0v39m-3,0h6M499,352v6m0,-3h10m0,-3v6M501,338h6m-3,0v35m-3,0h6M509,348v6m0,-3h10m0,-3v6M511,332h6m-3,0v37m-3,0h6M518,349v6m0,-3h10m0,-3v6M520,333h6m-3,0v38m-3,0h6M528,387v6m0,-3h10m0,-3v6M530,372h6m-3,0v35m-3,0h6M538,421v6m0,-3h10m0,-3v6M540,408h6m-3,0v33m-3,0h6M547,438v6m0,-3h10m0,-3v6M549,425h6m-3,0v32m-3,0h6M557,400v6m0,-3h10m0,-3v6M559,386h6m-3,0v33m-3,0h6M566,365v6m0,-3h10m0,-3v6M568,352h6m-3,0v31m-3,0h6M576,268v6m0,-3h10m0,-3v6M578,254h6m-3,0v33m-3,0h6M586,231v6m0,-3h10m0,-3v6M588,217h6m-3,0v33m-3,0h6M595,238v6m0,-3h10m0,-3v6M597,225h6m-3,0v31m-3,0h6M605,244v6m0,-3h10m0,-3v6M607,231h6m-3,0v32m-3,0h6M614,311v6m0,-3h10m0,-3v6M616,299h6m-3,0v30m-3,0h6M624,352v6m0,-3h10m0,-3v6M626,340h6m-3,0v29m-3,0h6M634,384v6m0,-3h10m0,-3v6M636,374h6m-3,0v27m-3,0h6M643,420v6m0,-3h10m0,-3v6M645,411h6m-3,0v25m-3,0h6M653,462v6m0,-3h10m0,-3v6M655,454h6m-3,0v22m-3,0h6M662,469v6m0,-3h10m0,-3v6M664,460h6m-3,0v24m-3,0h6M672,492v6m0,-3h10m0,-3v6M674,484h6m-3,0v22m-3,0h6M682,513v6m0,-3h10m0,-3v6M684,506h6m-3,0v20m-3,0h6M691,530v6m0,-3h10m0,-3v6M693,524h6m-3,0v19m-3,0h6M701,551v6m0,-3h10m0,-3v6M703,545h6m-3,0v17m-3,0h6M710,560v6m0,-3h10m0,-3v6M712,555h6m-3,0v16m-3,0h6M720,554v6m0,-3h10m0,-3v6M722,548h6m-3,0v18m-3,0h6M730,581v6m0,-3h10m0,-3v6M732,577h6m-3,0v14m-3,0h6M739,570v6m0,-3h10m0,-3v6M741,565h6m-3,0v16m-3,0h6M749,583v6m0,-3h10m0,-3v6M751,578h6m-3,0v15m-3,0h6M758,592v6m0,-3h10m0,-3v6M760,589h6m-3,0v12m-3,0h6M768,588v6m0,-3h10m0,-3v6M770,584h6m-3,0v14m-3,0h6M778,595v6m0,-3h10m0,-3v6M780,592h6m-3,0v12m-3,0h6M787,608v6m0,-3h10m0,-3v6M789,607h6m-3,0v9m-3,0h6M797,604v6m0,-3h10m0,-3v6M799,602h6m-3,0v10m-3,0h6M806,615v6m0,-3h10m0,-3v6M808,613h6m-3,0v9m-3,0h6M816,614v6m0,-3h10m0,-3v6M818,612h6m-3,0v10m-3,0h6M826,616v6m0,-3h10m0,-3v6M828,615h6m-3,0v8m-3,0h6M835,618v6m0,-3h10m0,-3v6M837,617h6m-3,0v8m-3,0h6M845,621v6m0,-3h10m0,-3v6M847,620h6m-3,0v8m-3,0h6M854,624v6m0,-3h10m0,-3v6M856,624h6m-3,0v6m-3,0h6M864,627v6m0,-3h10m0,-3v6M866,627h6m-3,0v5m-3,0h6M874,629v6m0,-3h10m0,-3v6M876,629h6m-3,0v5m-3,0h6M883,622v6m0,-3h10m0,-3v6M885,622h6m-3,0v6m-3,0h6M893,626v6m0,-3h10m0,-3v6M895,627h6m-3,0v5m-3,0h6M902,629v6m0,-3h10m0,-3v6M904,630h6m-3,0v4m-3,0h6M912,630v6m0,-3h10m0,-3v6M914,631h6m-3,0v4m-3,0h6M922,631v6m0,-3h10m0,-3v6M924,633h6m-3,0v2m-3,0h6M931,630v6m0,-3h10m0,-3v6M933,630h6m-3,0v5m-3,0h6M941,624v6m0,-3h10m0,-3v6M943,624h6m-3,0v6m-3,0h6M950,631v6m0,-3h10m0,-3v6M952,632h6m-3,0v3m-3,0h6" style="stroke: #000099; stroke-width: 1;"></path><path d="M2.2,589.2v5.6h5.6v-5.6zM12.2,580.2v5.6h5.6v-5.6zM21.2,571.2v5.6h5.6v-5.6zM31.2,563.2v5.6h5.6v-5.6zM40.2,558.2v5.6h5.6v-5.6zM50.2,560.2v5.6h5.6v-5.6zM60.2,544.2v5.6h5.6v-5.6zM69.2,535.2v5.6h5.6v-5.6zM79.2,550.2v5.6h5.6v-5.6zM88.2,534.2v5.6h5.6v-5.6zM98.2,532.2v5.6h5.6v-5.6zM108.2,545.2v5.6h5.6v-5.6zM117.2,513.2v5.6h5.6v-5.6zM127.2,483.2v5.6h5.6v-5.6zM136.2,509.2v5.6h5.6v-5.6zM146.2,468.2v5.6h5.6v-5.6zM156.2,480.2v5.6h5.6v-5.6zM165.2,462.2v5.6h5.6v-5.6zM175.2,440.2v5.6h5.6v-5.6zM184.2,446.2v5.6h5.6v-5.6zM194.2,440.2v5.6h5.6v-5.6zM204.2,457.2v5.6h5.6v-5.6zM213.2,386.2v5.6h5.6v-5.6zM223.2,361.2v5.6h5.6v-5.6zM232.2,384.2v5.6h5.6v-5.6zM242.2,365.2v5.6h5.6v-5.6zM252.2,378.2v5.6h5.6v-5.6zM261.2,387.2v5.6h5.6v-5.6zM271.2,362.2v5.6h5.6v-5.6zM280.2,347.2v5.6h5.6v-5.6zM290.2,306.2v5.6h5.6v-5.6zM300.2,303.2v5.6h5.6v-5.6zM309.2,263.2v5.6h5.6v-5.6zM319.2,283.2v5.6h5.6v-5.6zM328.2,208.2v5.6h5.6v-5.6zM338.2,222.2v5.6h5.6v-5.6zM348.2,177.2v5.6h5.6v-5.6zM357.2,156.2v5.6h5.6v-5.6zM367.2,150.2v5.6h5.6v-5.6zM376.2,87.2v5.6h5.6v-5.6zM386.2,101.2v5.6h5.6v-5.6zM396.2,62.2v5.6h5.6v-5.6zM405.2,85.2v5.6h5.6v-5.6zM415.2,51.2v5.6h5.6v-5.6zM424.2,54.2v5.6h5.6v-5.6zM434.2,60.2v5.6h5.6v-5.6zM444.2,112.2v5.6h5.6v-5.6zM453.2,144.2v5.6h5.6v-5.6zM463.2,198.2v5.6h5.6v-5.6zM472.2,185.2v5.6h5.6v-5.6zM482.2,245.2v5.6h5.6v-5.6zM492.2,280.2v5.6h5.6v-5.6zM501.2,352.2v5.6h5.6v-5.6zM511.2,348.2v5.6h5.6v-5.6zM520.2,349.2v5.6h5.6v-5.6zM530.2,387.2v5.6h5.6v-5.6zM540.2,421.2v5.6h5.6v-5.6zM549.2,438.2v5.6h5.6v-5.6zM559.2,400.2v5.6h5.6v-5.6zM568.2,365.2v5.6h5.6v-5.6zM578.2,268.2v5.6h5.6v-5.6zM588.2,231.2v5.6h5.6v-5.6zM597.2,238.2v5.6h5.6v-5.6zM607.2,244.2v5.6h5.6v-5.6zM616.2,311.2v5.6h5.6v-5.6zM626.2,352.2v5.6h5.6v-5.6zM636.2,384.2v5.6h5.6v-5.6zM645.2,420.2v5.6h5.6v-5.6zM655.2,462.2v5.6h5.6v-5.6zM664.2,469.2v5.6h5.6v-5.6zM674.2,492.2v5.6h5.6v-5.6zM684.2,513.2v5.6h5.6v-5.6zM693.2,530.2v5.6h5.6v-5.6zM703.2,551.2v5.6h5.6v-5.6zM712.2,560.2v5.6h5.6v-5.6zM722.2,554.2v5.6h5.6v-5.6zM732.2,581.2v5.6h5.6v-5.6zM741.2,570.2v5.6h5.6v-5.6zM751.2,583.2v5.6h5.6v-5.6zM760.2,592.2v5.6h5.6v-5.6zM770.2,588.2v5.6h5.6v-5.6zM780.2,595.2v5.6h5.6v-5.6zM789.2,608.2v5.6h5.6v-5.6zM799.2,604.2v5.6h5.6v-5.6zM808.2,615.2v5.6h5.6v-5.6zM818.2,614.2v5.6h5.6v-5.6zM828.2,616.2v5.6h5.6v-5.6zM837.2,618.2v5.6h5.6v-5.6zM847.2,621.2v5.6h5.6v-5.6zM856.2,624.2v5.6h5.6v-5.6zM866.2,627.2v5.6h5.6v-5.6zM876.2,629.2v5.6h5.6v-5.6zM885.2,622.2v5.6h5.6v-5.6zM895.2,626.2v5.6h5.6v-5.6zM904.2,629.2v5.6h5.6v-5.6zM914.2,630.2v5.6h5.6v-5.6zM924.2,631.2v5.6h5.6v-5.6zM933.2,630.2v5.6h5.6v-5.6zM943.2,624.2v5.6h5.6v-5.6zM952.2,631.2v5.6h5.6v-5.6z" style="stroke: #000000; fill: #000000;"></path></g><g><path d="M0,592h10v-9h9v-9h10v-8h9v-5h10v2h10v-16h9v-9h10v15h9v-16h10v-2h10v13h9v-32h10v-30h9v26h10v-41h10v12h9v-18h10v-22h9v6h10v-6h10v18h9v-71h10v-25h9v25h10v-19h10v17h9v10h10v-14h9v-15h10v-27h10v7h9v-19h10v33h9v-55h10v28h10v1h9v-1h10v3h9v-27h10v44h10v-13h9v6h10v-22h9v-1h10v13h10v10h9v19h10v36h9v-35h10v38h10v13h9v39h10v-34h9v-15h10v35h10v13h9v15h10v5h9v34h10v-12h10v6h9v29h10v-16h9v9h10v4h10v16h9v12h10v13h9v-16h10v12h10v14h9v6h10v10h9v6h10v-16h10v23h9v-10h10v5h9v11h10v-6h10v5h9v13h10v-6h9v7h10v-7h10v6h9v1h19v5h10v1h19v-3h10v3h9v2h20v1h9v-3h10v-1h9v3h10L960,643H0Z" style="stroke-linejoin: miter; stroke: #000099; stroke-width: 1; fill: #b2b2b2;"></path></g><g><path d="M192,639h10M197,639v1M202,640h10M207,639v1M211,639h10M216,639v1M221,639h10M226,638v1M230,638h10M235,637v2M240,638h10M245,637v2M250,633h10M255,631v3M259,631h10M264,629v4M269,621h10M274,618v6M278,621h10M283,618v6M288,607h10M293,603v8M298,597h10M303,592v9M307,576h10M312,571v11M317,563h10M322,557v12M326,543h10M331,536v13M336,529h10M341,523v13M346,483h10M351,474v17M355,463h10M360,454v18M365,454h10M370,445v18M374,418h10M379,408v20M384,388h10M389,377v21M394,362h10M399,351v22M403,379h10M408,369v21M413,367h10M418,357v21M422,371h10M427,361v21M432,365h10M437,354v22M442,406h10M447,396v20M451,419h10M456,410v19M461,436h10M466,427v19M470,459h10M475,450v18M480,481h10M485,472v17M490,503h10M495,496v15M499,536h10M504,529v13M509,566h10M514,561v11M518,582h10M523,577v10M528,585h10M533,580v10M538,607h10M543,603v8M547,615h10M552,611v7M557,623h10M562,620v6M566,631h10M571,629v4M576,631h10M581,629v4M586,635h10M591,633v3M595,638h10M600,637v2M605,638h10M610,637v2M614,639h10M619,638v1M624,640h10M629,639v1" style="stroke: #000099; stroke-width: 1;"></path></g><g><path d="M538,639h10M543,639v1M547,634h10M552,633v2M557,581h10M562,577v8M566,505h10M571,499v12M576,420h10M581,412v16M586,373h10M591,364v18M595,347h10M600,338v19M605,370h10M610,361v17M614,427h10M619,420v15M624,463h10M629,455v15M634,479h10M639,472v14M643,503h10M648,497v12M653,532h10M658,526v12M662,555h10M667,550v10M672,567h10M677,562v9M682,573h10M687,568v9M691,584h10M696,580v8M701,595h10M706,591v7M710,598h10M715,594v7M720,608h10M725,605v6M730,612h10M735,609v6M739,611h10M744,608v6M749,619h10M754,617v5M758,617h10M763,614v5M768,619h10M773,616v5M778,621h10M783,619v5M787,622h10M792,619v5M797,623h10M802,621v4M806,626h10M811,624v4M816,633h10M821,632v2M826,629h10M831,627v4M835,630h10M840,628v3M845,633h10M850,632v2M854,631h10M859,629v4M864,633h10M869,631v3M874,634h10M879,633v3M883,631h10M888,629v3M893,632h10M898,631v3M902,634h10M907,632v3M912,635h10M917,634v2M922,634h10M927,633v2M931,636h10M936,635v2M941,632h10M946,630v3M950,635h10M955,634v2" style="stroke: #000099; stroke-width: 1;"></path></g></svg><g><g transform="translate(0,640)"><path d="M0,0h960M0,-24V0M24,-12V0M48,-12V0M72,-12V0M96,-12V0M120,-24V0M144,-12V0M168,-12V0M192,-12V0M216,-12V0M240,-24V0M264,-12V0M288,-12V0M312,-12V0M336,-12V0M360,-24V0M384,-12V0M408,-12V0M432,-12V0M456,-12V0M480,-24V0M504,-12V0M528,-12V0M552,-12V0M576,-12V0M600,-24V0M624,-12V0M648,-12V0M672,-12V0M696,-12V0M720,-24V0M744,-12V0M768,-12V0M792,-12V0M816,-12V0M840,-24V0M864,-12V0M888,-12V0M912,-12V0M936,-12V0M960,-24V0" style="stroke: #000000; stroke-width: 1;"></path><g font-family="Arial" font-size="28" space="preserve" fill="#000000" text-anchor="middle"><text dy=".8em" transform="translate(0,5)">-4</text><text dy=".8em" transform="translate(120,5)">-3</text><text dy=".8em" transform="translate(240,5)">-2</text><text dy=".8em" transform="translate(360,5)">-1</text><text dy=".8em" transform="translate(480,5)">0</text><text dy=".8em" transform="translate(600,5)">1</text><text dy=".8em" transform="translate(720,5)">2</text><text dy=".8em" transform="translate(840,5)">3</text><text dy=".8em" transform="translate(960,5)">4</text></g></g><g><path d="M0,0v640M36,640H0M18,625H0M18,611H0M18,596H0M18,582H0M36,567H0M18,553H0M18,538H0M18,524H0M18,509H0M36,494H0M18,480H0M18,465H0M18,451H0M18,436H0M36,422H0M18,407H0M18,393H0M18,378H0M18,363H0M36,349H0M18,334H0M18,320H0M18,305H0M18,291H0M36,276H0M18,261H0M18,247H0M18,232H0M18,218H0M36,203H0M18,189H0M18,174H0M18,160H0M18,145H0M36,130H0M18,116H0M18,101H0M18,87H0M18,72H0M36,58H0M18,43H0M18,29H0M18,14H0" style="stroke: #000000; stroke-width: 1;"></path><g font-family="Arial" font-size="28" space="preserve" fill="#000000" text-anchor="end"><text dy=".4em" transform="translate(-6,640)">0</text><text dy=".4em" transform="translate(-6,567)">50</text><text dy=".4em" transform="translate(-6,494)">100</text><text dy=".4em" transform="translate(-6,422)">150</text><text dy=".4em" transform="translate(-6,349)">200</text><text dy=".4em" transform="translate(-6,276)">250</text><text dy=".4em" transform="translate(-6,203)">300</text><text dy=".4em" transform="translate(-6,130)">350</text><text dy=".4em" transform="translate(-6,58)">400</text></g></g><path d="M0,0v640M120,0v640M240,0v640M360,0v640M480,0v640M600,0v640M720,0v640M840,0v640M960,0v640" style="stroke: #000000; stroke-width: 1; stroke-dasharray: 1,2;"></path><path d="M0,640h960M0,567h960M0,494h960M0,422h960M0,349h960M0,276h960M0,203h960M0,130h960M0,58h960" style="stroke: #000000; stroke-width: 1; stroke-dasharray: 1,2;"></path></g></g><g transform="translate(936,52)" font-family="Arial" font-size="25" space="preserve" fill="#000000"><path d="M0,0H240V128H0Z" style="fill: #ffffff; stroke: #000000; stroke-width: 1;"></path><text text-anchor="middle" dy=".4em" transform="translate(120,16)">total</text><text text-anchor="start" dy=".4em" transform="translate(12,48)">Entries </text><text text-anchor="end" dy=".4em" transform="translate(228,48)"> 30000</text><text text-anchor="start" dy=".4em" transform="translate(12,80)">Mean </text><text text-anchor="end" dy=".4em" transform="translate(228,80)"> -0.5582</text><text text-anchor="start" dy=".4em" transform="translate(12,112)">Std Dev </text><text text-anchor="end" dy=".4em" transform="translate(228,112)"> 1.413</text><path d="M0,32h240" style="stroke: #000000; stroke-width: 1;"></path></g><g transform="translate(338,4)" font-family="Arial" font-size="25" space="preserve"><text fill="#000000" text-anchor="middle" dy=".4em" transform="translate(262,22)">This is the total distribution</text></g><svg viewBox="0 0 48 519" preserveAspectRatio="none" x="1104" y="201" width="48" height="519"><path d="M0,0H48V519H0Z" style="fill: #ce5e60; stroke: #000000; stroke-width: 1;"></path><path d="M0,0h48l-2,2h-44v515l-2,2z" style="fill: #ac4f50;"></path><path d="M48,519v-519l-2,2v515h-44l-2,2z" style="fill: #f67073;"></path><g><g><path style="fill: #7c99d1;" d="M4,519h40v-519h-40z"></path></g></g></svg></g></svg>