<svg xmlns="http://www.w3.org/2000/svg" viewBox="0 0 1200 800" preserveAspectRatio="none" width="1200" height="800"><path d="M0,0H1200V800H0Z" style="fill: #ffffff;"></path><g><g transform="translate(120,80)"><path d="M0,0H960V640H0Z" style="fill: #ffffff; stroke: #000000; stroke-width: 1;"></path><svg x="0" y="0" overflow="hidden" width="960" height="640" viewBox="0 0 960 640"><g><path d="M0,596v6m0,-3h10m0,-3v6M2,597h6m-3,0v5m-3,0h6M10,595v6m0,-3h10m0,-3v6M12,596h6m-3,0v5m-3,0h6M19,584v6m0,-3h10m0,-3v6M21,584h6m-3,0v5m-3,0h6M29,579v6m0,-3h10m0,-3v6M31,579h6m-3,0v6m-3,0h6M38,575v6m0,-3h10m0,-3v6M40,576h6m-3,0v5m-3,0h6M48,573v6m0,-3h10m0,-3v6M50,573h6m-3,0v6m-3,0h6M58,570v6m0,-3h10m0,-3v6M60,570h6m-3,0v6m-3,0h6M67,559v6m0,-3h10m0,-3v6M69,559h6m-3,0v6m-3,0h6M77,553v6m0,-3h10m0,-3v6M79,552h6m-3,0v7m-3,0h6M86,548v6m0,-3h10m0,-3v6M88,548h6m-3,0v7m-3,0h6M96,540v6m0,-3h10m0,-3v6M98,539h6m-3,0v7m-3,0h6M106,526v6m0,-3h10m0,-3v6M108,526h6m-3,0v7m-3,0h6M115,525v6m0,-3h10m0,-3v6M117,524h6m-3,0v8m-3,0h6M125,516v6m0,-3h10m0,-3v6M127,515h6m-3,0v8m-3,0h6M134,507v6m0,-3h10m0,-3v6M136,506h6m-3,0v8m-3,0h6M144,498v6m0,-3h10m0,-3v6M146,497h6m-3,0v9m-3,0h6M154,489v6m0,-3h10m0,-3v6M156,488h6m-3,0v9m-3,0h6M163,486v6m0,-3h10m0,-3v6M165,485h6m-3,0v9m-3,0h6M173,476v6m0,-3h10m0,-3v6M175,475h6m-3,0v9m-3,0h6M182,468v6m0,-3h10m0,-3v6M184,466h6m-3,0v9m-3,0h6M192,451v6m0,-3h10m0,-3v6M194,450h6m-3,0v9m-3,0h6M202,446v6m0,-3h10m0,-3v6M204,444h6m-3,0v10m-3,0h6M211,434v6m0,-3h10m0,-3v6M213,432h6m-3,0v10m-3,0h6M221,421v6m0,-3h10m0,-3v6M223,418h6m-3,0v11m-3,0h6M230,425v6m0,-3h10m0,-3v6M232,423h6m-3,0v10m-3,0h6M240,413v6m0,-3h10m0,-3v6M242,410h6m-3,0v11m-3,0h6M250,400v6m0,-3h10m0,-3v6M252,398h6m-3,0v10m-3,0h6M259,401v6m0,-3h10m0,-3v6M261,399h6m-3,0v11m-3,0h6M269,388v6m0,-3h10m0,-3v6M271,386h6m-3,0v11m-3,0h6M278,371v6m0,-3h10m0,-3v6M280,368h6m-3,0v11m-3,0h6M288,355v6m0,-3h10m0,-3v6M290,353h6m-3,0v11m-3,0h6M298,334v6m0,-3h10m0,-3v6M300,331h6m-3,0v12m-3,0h6M307,317v6m0,-3h10m0,-3v6M309,314h6m-3,0v12m-3,0h6M317,307v6m0,-3h10m0,-3v6M319,304h6m-3,0v12m-3,0h6M326,282v6m0,-3h10m0,-3v6M328,279h6m-3,0v12m-3,0h6M336,264v6m0,-3h10m0,-3v6M338,261h6m-3,0v12m-3,0h6M346,245v6m0,-3h10m0,-3v6M348,242h6m-3,0v12m-3,0h6M355,218v6m0,-3h10m0,-3v6M357,215h6m-3,0v13m-3,0h6M365,199v6m0,-3h10m0,-3v6M367,195h6m-3,0v13m-3,0h6M374,174v6m0,-3h10m0,-3v6M376,170h6m-3,0v13m-3,0h6M384,163v6m0,-3h10m0,-3v6M386,160h6m-3,0v13m-3,0h6M394,140v6m0,-3h10m0,-3v6M396,137h6m-3,0v13m-3,0h6M403,128v6m0,-3h10m0,-3v6M405,124h6m-3,0v14m-3,0h6M413,134v6m0,-3h10m0,-3v6M415,130h6m-3,0v13m-3,0h6M422,143v6m0,-3h10m0,-3v6M424,139h6m-3,0v13m-3,0h6M432,154v6m0,-3h10m0,-3v6M434,150h6m-3,0v13m-3,0h6M442,180v6m0,-3h10m0,-3v6M444,177h6m-3,0v13m-3,0h6M451,185v6m0,-3h10m0,-3v6M453,182h6m-3,0v13m-3,0h6M461,221v6m0,-3h10m0,-3v6M463,218h6m-3,0v12m-3,0h6M470,259v6m0,-3h10m0,-3v6M472,256h6m-3,0v12m-3,0h6M480,287v6m0,-3h10m0,-3v6M482,284h6m-3,0v11m-3,0h6M490,318v6m0,-3h10m0,-3v6M492,316h6m-3,0v11m-3,0h6M499,353v6m0,-3h10m0,-3v6M501,351h6m-3,0v10m-3,0h6M509,375v6m0,-3h10m0,-3v6M511,373h6m-3,0v10m-3,0h6M518,399v6m0,-3h10m0,-3v6M520,397h6m-3,0v10m-3,0h6M528,419v6m0,-3h10m0,-3v6M530,417h6m-3,0v10m-3,0h6M538,449v6m0,-3h10m0,-3v6M540,448h6m-3,0v9m-3,0h6M547,459v6m0,-3h10m0,-3v6M549,457h6m-3,0v9m-3,0h6M557,436v6m0,-3h10m0,-3v6M559,435h6m-3,0v9m-3,0h6M566,367v6m0,-3h10m0,-3v6M568,365h6m-3,0v10m-3,0h6M576,312v6m0,-3h10m0,-3v6M578,310h6m-3,0v10m-3,0h6M586,275v6m0,-3h10m0,-3v6M588,273h6m-3,0v10m-3,0h6M595,284v6m0,-3h10m0,-3v6M597,282h6m-3,0v9m-3,0h6M605,303v6m0,-3h10m0,-3v6M607,302h6m-3,0v9m-3,0h6M614,344v6m0,-3h10m0,-3v6M616,342h6m-3,0v9m-3,0h6M624,386v6m0,-3h10m0,-3v6M626,385h6m-3,0v8m-3,0h6M634,418v6m0,-3h10m0,-3v6M636,417h6m-3,0v7m-3,0h6M643,446v6m0,-3h10m0,-3v6M645,445h6m-3,0v8m-3,0h6M653,472v6m0,-3h10m0,-3v6M655,472h6m-3,0v7m-3,0h6M662,489v6m0,-3h10m0,-3v6M664,488h6m-3,0v7m-3,0h6M672,511v6m0,-3h10m0,-3v6M674,511h6m-3,0v6m-3,0h6M682,528v6m0,-3h10m0,-3v6M684,528h6m-3,0v6m-3,0h6M691,541v6m0,-3h10m0,-3v6M693,542h6m-3,0v5m-3,0h6M701,548v6m0,-3h10m0,-3v6M703,548h6m-3,0v5m-3,0h6M710,561v6m0,-3h10m0,-3v6M712,561h6m-3,0v5m-3,0h6M720,568v6m0,-3h10m0,-3v6M722,569h6m-3,0v5m-3,0h6M730,579v6m0,-3h10m0,-3v6M732,580h6m-3,0v4m-3,0h6M739,589v6m0,-3h10m0,-3v6M741,590h6m-3,0v3m-3,0h6M749,589v6m0,-3h10m0,-3v6M751,590h6m-3,0v4m-3,0h6M758,597v6m0,-3h10m0,-3v6M760,598h6m-3,0v4m-3,0h6M768,598v6m0,-3h10m0,-3v6M770,599h6m-3,0v4m-3,0h6M778,606v6m0,-3h10m0,-3v6M780,608h6m-3,0v3m-3,0h6M787,611v6m0,-3h10m0,-3v6M789,612h6m-3,0v3m-3,0h6M797,612v6m0,-3h10m0,-3v6M799,613h6m-3,0v3m-3,0h6M806,615v6m0,-3h10m0,-3v6M808,617h6m-3,0v2m-3,0h6M816,615v6m0,-3h10m0,-3v6M818,616h6m-3,0v3m-3,0h6M826,619v6m0,-3h10m0,-3v6M828,620h6m-3,0v3m-3,0h6M835,620v6m0,-3h10m0,-3v6M837,621h6m-3,0v3m-3,0h6M845,623v6m0,-3h10m0,-3v6M847,625h6m-3,0v2m-3,0h6M854,623v6m0,-3h10m0,-3v6M856,625h6m-3,0v2m-3,0h6M864,624v6m0,-3h10m0,-3v6M866,627h6m-3,0v1m-3,0h6M874,627v6m0,-3h10m0,-3v6M876,629h6m-3,0v1m-3,0h6M883,626v6m0,-3h10m0,-3v6M885,628h6m-3,0v2m-3,0h6M893,627v6m0,-3h10m0,-3v6M895,629h6m-3,0v2m-3,0h6M902,629v6m0,-3h10m0,-3v6M904,631h6m-3,0v2m-3,0h6M912,629v6m0,-3h10m0,-3v6M914,632h6m-3,0v1m-3,0h6M922,631v6m0,-3h10m0,-3v6M924,633h6m-3,0v1m-3,0h6M931,630v6m0,-3h10m0,-3v6M933,633h6m-3,0v1m-3,0h6M941,631v6m0,-3h10m0,-3v6M943,634h6m-3,0v1m-3,0h6M950,631v6m0,-3h10m0,-3v6M952,634h6m-3,0v1m-3,0h6" style="stroke: #000099; stroke-width: 1;"></path><path d="M2.2,596.2v5.6h5.6v-5.6zM12.2,595.2v5.6h5.6v-5.6zM21.2,584.2v5.6h5.6v-5.6zM31.2,579.2v5.6h5.6v-5.6zM40.2,575.2v5.6h5.6v-5.6zM50.2,573.2v5.6h5.6v-5.6zM60.2,570.2v5.6h5.6v-5.6zM69.2,559.2v5.6h5.6v-5.6zM79.2,553.2v5.6h5.6v-5.6zM88.2,548.2v5.6h5.6v-5.6zM98.2,540.2v5.6h5.6v-5.6zM108.2,526.2v5.6h5.6v-5.6zM117.2,525.2v5.6h5.6v-5.6zM127.2,516.2v5.6h5.6v-5.6zM136.2,507.2v5.6h5.6v-5.6zM146.2,498.2v5.6h5.6v-5.6zM156.2,489.2v5.6h5.6v-5.6zM165.2,486.2v5.6h5.6v-5.6zM175.2,476.2v5.6h5.6v-5.6zM184.2,468.2v5.6h5.6v-5.6zM194.2,451.2v5.6h5.6v-5.6zM204.2,446.2v5.6h5.6v-5.6zM213.2,434.2v5.6h5.6v-5.6zM223.2,421.2v5.6h5.6v-5.6zM232.2,425.2v5.6h5.6v-5.6zM242.2,413.2v5.6h5.6v-5.6zM252.2,400.2v5.6h5.6v-5.6zM261.2,401.2v5.6h5.6v-5.6zM271.2,388.2v5.6h5.6v-5.6zM280.2,371.2v5.6h5.6v-5.6zM290.2,355.2v5.6h5.6v-5.6zM300.2,334.2v5.6h5.6v-5.6zM309.2,317.2v5.6h5.6v-5.6zM319.2,307.2v5.6h5.6v-5.6zM328.2,282.2v5.6h5.6v-5.6zM338.2,264.2v5.6h5.6v-5.6zM348.2,245.2v5.6h5.6v-5.6zM357.2,218.2v5.6h5.6v-5.6zM367.2,199.2v5.6h5.6v-5.6zM376.2,174.2v5.6h5.6v-5.6zM386.2,163.2v5.6h5.6v-5.6zM396.2,140.2v5.6h5.6v-5.6zM405.2,128.2v5.6h5.6v-5.6zM415.2,134.2v5.6h5.6v-5.6zM424.2,143.2v5.6h5.6v-5.6zM434.2,154.2v5.6h5.6v-5.6zM444.2,180.2v5.6h5.6v-5.6zM453.2,185.2v5.6h5.6v-5.6zM463.2,221.2v5.6h5.6v-5.6zM472.2,259.2v5.6h5.6v-5.6zM482.2,287.2v5.6h5.6v-5.6zM492.2,318.2v5.6h5.6v-5.6zM501.2,353.2v5.6h5.6v-5.6zM511.2,375.2v5.6h5.6v-5.6zM520.2,399.2v5.6h5.6v-5.6zM530.2,419.2v5.6h5.6v-5.6zM540.2,449.2v5.6h5.6v-5.6zM549.2,459.2v5.6h5.6v-5.6zM559.2,436.2v5.6h5.6v-5.6zM568.2,367.2v5.6h5.6v-5.6zM578.2,312.2v5.6h5.6v-5.6zM588.2,275.2v5.6h5.6v-5.6zM597.2,284.2v5.6h5.6v-5.6zM607.2,303.2v5.6h5.6v-5.6zM616.2,344.2v5.6h5.6v-5.6zM626.2,386.2v5.6h5.6v-5.6zM636.2,418.2v5.6h5.6v-5.6zM645.2,446.2v5.6h5.6v-5.6zM655.2,472.2v5.6h5.6v-5.6zM664.2,489.2v5.6h5.6v-5.6zM674.2,511.2v5.6h5.6v-5.6zM684.2,528.2v5.6h5.6v-5.6zM693.2,541.2v5.6h5.6v-5.6zM703.2,548.2v5.6h5.6v-5.6zM712.2,561.2v5.6h5.6v-5.6zM722.2,568.2v5.6h5.6v-5.6zM732.2,579.2v5.6h5.6v-5.6zM741.2,589.2v5.6h5.6v-5.6zM751.2,589.2v5.6h5.6v-5.6zM760.2,597.2v5.6h5.6v-5.6zM770.2,598.2v5.6h5.6v-5.6zM780.2,606.2v5.6h5.6v-5.6zM789.2,611.2v5.6h5.6v-5.6zM799.2,612.2v5.6h5.6v-5.6zM808.2,615.2v5.6h5.6v-5.6zM818.2,615.2v5.6h5.6v-5.6zM828.2,619.2v5.6h5.6v-5.6zM837.2,620.2v5.6h5.6v-5.6zM847.2,623.2v5.6h5.6v-5.6zM856.2,623.2v5.6h5.6v-5.6zM866.2,624.2v5.6h5.6v-5.6zM876.2,627.2v5.6h5.6v-5.6zM885.2,626.2v5.6h5.6v-5.6zM895.2,627.2v5.6h5.6v-5.6zM904.2,629.2v5.6h5.6v-5.6zM914.2,629.2v5.6h5.6v-5.6zM924.2,631.2v5.6h5.6v-5.6zM933.2,630.2v5.6h5.6v-5.6zM943.2,631.2v5.6h5.6v-5.6zM952.2,631.2v5.6h5.6v-5.6z" style="stroke: #000000; fill: #000000;"></path></g><g><path d="M0,599h10v-1h9v-11h10v-5h9v-4h10v-2h10v-3h9v-11h10v-6h9v-5h10v-8h10v-14h9v-1h10v-9h9v-9h10v-9h10v-9h9v-3h10v-10h9v-8h10v-16h10v-5h9v-12h10v-13h9v5h10v-11h10v-10h9v4h10v-10h9v-11h10v-7h10v-11h9v-2h10v2h9v-7h10v1h10v4h28v-2h10v11h10v-11h19v13h9v5h10v6h10v9h9v-6h10v10h9v18h10v-2h10v13h9v12h10v2h9v10h10v3h10v20h9v9h10v8h9v-1h10v21h10v3h9v11h19v6h10v12h10v7h9v2h10v9h9v2h10v9h10v7h9v6h10v-1h9v6h10v4h10v7h9v5h10v-1h9v7h20v4h9v1h10v1h9v3h10v-1h10v2h9v2h10v1h19v1h10v1h28v1h10v1h10v1h9v-1h10v1h19L960,643H0Z" style="stroke-linejoin: miter; stroke: #000099; stroke-width: 1; fill: #b2b2b2;"></path></g><g><path d="M134,640h10M139,640v0M154,640h10M159,640v0M163,640h10M168,640v0M173,640h10M178,640v0M182,640h10M187,640v0M192,640h10M197,640v0M202,640h10M207,639v1M211,639h10M216,639v0M221,639h10M226,639v0M230,638h10M235,637v1M240,636h10M245,636v0M250,634h10M255,634v1M259,632h10M264,631v1M269,628h10M274,627v2M278,622h10M283,621v2M288,614h10M293,613v2M298,603h10M303,602v2M307,589h10M312,587v3M317,576h10M322,575v3M326,558h10M331,556v3M336,539h10M341,537v4M346,516h10M351,513v5M355,489h10M360,487v5M365,469h10M370,467v5M374,446h10M379,444v5M384,425h10M389,422v6M394,413h10M399,410v6M403,401h10M408,398v6M413,394h10M418,391v6M422,397h10M427,394v6M432,403h10M437,400v6M442,420h10M447,417v6M451,432h10M456,429v5M461,457h10M466,454v5M470,477h10M475,475v5M480,506h10M485,504v5M490,526h10M495,523v5M499,547h10M504,546v3M509,568h10M514,566v4M518,583h10M523,581v3M528,600h10M533,598v3M538,610h10M543,609v2M547,617h10M552,617v1M557,624h10M562,623v2M566,629h10M571,629v1M576,634h10M581,634v1M586,636h10M591,636v1M595,637h10M600,637v0M605,638h10M610,638v0M614,639h10M619,639v0M624,640h10M629,640v0M634,640h10M639,640v0M643,640h10M648,640v0M653,640h10M658,640v0M682,640h10M687,640v0" style="stroke: #000099; stroke-width: 1;"></path></g><g><path d="M538,639h10M543,639v1M547,632h10M552,632v1M557,595h10M562,594v2M566,522h10M571,520v3M576,440h10M581,438v4M586,399h10M591,396v5M595,396h10M600,394v5M605,414h10M610,412v5M614,447h10M619,445v4M624,478h10M629,476v4M634,502h10M639,500v4M643,528h10M648,526v3M653,545h10M658,544v3M662,559h10M667,558v3M672,573h10M677,572v2M682,584h10M687,582v3M691,590h10M696,589v3M701,597h10M706,596v2M710,605h10M715,604v2M720,608h10M725,608v1M730,612h10M735,611v2M739,617h10M744,616v1M749,618h10M754,617v2M758,619h10M763,618v2M768,620h10M773,620v1M778,624h10M783,623v2M787,627h10M792,627v1M797,628h10M802,627v1M806,628h10M811,627v1M816,629h10M821,628v1M826,630h10M831,630v1M835,630h10M840,629v1M845,632h10M850,631v1M854,632h10M859,632v0M864,633h10M869,632v1M874,633h10M879,633v1M883,633h10M888,633v1M893,634h10M898,634v1M902,635h10M907,635v0M912,635h10M917,634v1M922,635h10M927,635v0M931,636h10M936,635v1M941,635h10M946,635v1M950,635h10M955,635v1" style="stroke: #000099; stroke-width: 1;"></path></g></svg><g><g transform="translate(0,640)"><path d="M0,0h960M0,-24V0M24,-12V0M48,-12V0M72,-12V0M96,-12V0M120,-24V0M144,-12V0M168,-12V0M192,-12V0M216,-12V0M240,-24V0M264,-12V0M288,-12V0M312,-12V0M336,-12V0M360,-24V0M384,-12V0M408,-12V0M432,-12V0M456,-12V0M480,-24V0M504,-12V0M528,-12V0M552,-12V0M576,-12V0M600,-24V0M624,-12V0M648,-12V0M672,-12V0M696,-12V0M720,-24V0M744,-12V0M768,-12V0M792,-12V0M816,-12V0M840,-24V0M864,-12V0M888,-12V0M912,-12V0M936,-12V0M960,-24V0" style="stroke: #000000; stroke-width: 1;"></path><g font-family="Arial" font-size="28" space="preserve" fill="#000000" text-anchor="middle"><text dy=".8em" transform="translate(0,5)">-4</text><text dy=".8em" transform="translate(120,5)">-3</text><text dy=".8em" transform="translate(240,5)">-2</text><text dy=".8em" transform="translate(360,5)">-1</text><text dy=".8em" transform="translate(480,5)">0</text><text dy=".8em" transform="translate(600,5)">1</text><text dy=".8em" transform="translate(720,5)">2</text><text dy=".8em" transform="translate(840,5)">3</text><text dy=".8em" transform="translate(960,5)">4</text></g></g><g><path d="M0,0v640M36,640H0M18,627H0M18,614H0M18,602H0M18,589H0M36,576H0M18,563H0M18,550H0M18,538H0M18,525H0M36,512H0M18,499H0M18,486H0M18,474H0M18,461H0M36,448H0M18,435H0M18,422H0M18,410H0M18,397H0M36,384H0M18,371H0M18,358H0M18,346H0M18,333H0M36,320H0M18,307H0M18,294H0M18,282H0M18,269H0M36,256H0M18,243H0M18,230H0M18,218H0M18,205H0M36,192H0M18,179H0M18,166H0M18,154H0M18,141H0M36,128H0M18,115H0M18,102H0M18,90H0M18,77H0M36,64H0M18,51H0M18,38H0M18,26H0M18,13H0M36,0H0" style="stroke: #000000; stroke-width: 1;"></path><g font-family="Arial" font-size="28" space="preserve" fill="#000000" text-anchor="end"><text dy=".4em" transform="translate(-6,640)">0</text><text dy=".4em" transform="translate(-6,576)">500</text><text dy=".4em" transform="translate(-6,512)">1000</text><text dy=".4em" transform="translate(-6,448)">1500</text><text dy=".4em" transform="translate(-6,384)">2000</text><text dy=".4em" transform="translate(-6,320)">2500</text><text dy=".4em" transform="translate(-6,256)">3000</text><text dy=".4em" transform="translate(-6,192)">3500</text><text dy=".4em" transform="translate(-6,128)">4000</text><text dy=".4em" transform="translate(-6,64)">4500</text><text dy=".4em" transform="translate(-6)">5000</text></g></g><path d="M0,0v640M120,0v640M240,0v640M360,0v640M480,0v640M600,0v640M720,0v640M840,0v640M960,0v640" style="stroke: #000000; stroke-width: 1; stroke-dasharray: 1,2;"></path><path d="M0,640h960M0,576h960M0,512h960M0,448h960M0,384h960M0,320h960M0,256h960M0,192h960M0,128h960M0,64h960M0,0h960" style="stroke: #000000; stroke-width: 1; stroke-dasharray: 1,2;"></path></g></g><g transform="translate(936,52)" font-family="Arial" font-size="23" space="preserve" fill="#000000"><path d="M0,0H240V128H0Z" style="fill: #ffffff; stroke: #000000; stroke-width: 1;"></path><text text-anchor="middle" dy=".4em" transform="translate(120,16)">total</text><text text-anchor="start" dy=".4em" transform="translate(12,48)">Entries </text><text text-anchor="end" dy=".4em" transform="translate(228,48)"> 300000</text><text text-anchor="start" dy=".4em" transform="translate(12,80)">Mean </text><text text-anchor="end" dy=".4em" transform="translate(228,80)"> -0.5474</text><text text-anchor="start" dy=".4em" transform="translate(12,112)">Std Dev </text><text text-anchor="end" dy=".4em" transform="translate(228,112)"> 1.410</text><path d="M0,32h240" style="stroke: #000000; stroke-width: 1;"></path></g><g transform="translate(338,4)" font-family="Arial" font-size="25" space="preserve"><text fill="#000000" text-anchor="middle" dy=".4em" transform="translate(262,22)">This is the total distribution</text></g><svg viewBox="0 0 48 512" preserveAspectRatio="none" x="1104" y="208" width="48" height="512"><path d="M0,0H48V512H0Z" style="fill: #ce5e60; stroke: #000000; stroke-width: 1;"></path><path d="M0,0h48l-2,2h-44v508l-2,2z" style="fill: #ac4f50;"></path><path d="M48,512v-512l-2,2v508h-44l-2,2z" style="fill: #f67073;"></path><g><g><path style="fill: #7c99d1;" d="M4,512h40v-512h-40z"></path></g></g></svg></g></svg>