<svg xmlns="http://www.w3.org/2000/svg" viewBox="0 0 1200 800" preserveAspectRatio="none" width="1200" height="800"><path d="M0,0H1200V800H0Z" style="fill: #ffffff;"></path><g><g transform="translate(180,80)"><path d="M0,0H900V600H0Z" style="fill: #ffffff; stroke: #000000; stroke-width: 1;"></path><svg x="0" y="0" overflow="hidden" width="900" height="600" viewBox="0 0 900 600"><g><g font-family="Arial" font-size="20" space="preserve" fill="#000000" text-anchor="middle"><text dy=".4em" transform="translate(38,555)">1</text><text dy=".4em" transform="translate(38,525)">1</text><text dy=".4em" transform="translate(38,495)">2</text><text dy=".4em" transform="translate(38,465)">1</text><text dy=".4em" transform="translate(38,405)">7</text><text dy=".4em" transform="translate(38,375)">8</text><text dy=".4em" transform="translate(38,345)">7</text><text dy=".4em" transform="translate(38,315)">10</text><text dy=".4em" transform="translate(38,285)">7</text><text dy=".4em" transform="translate(38,255)">6</text><text dy=".4em" transform="translate(38,225)">3</text><text dy=".4em" transform="translate(38,195)">4</text><text dy=".4em" transform="translate(38,165)">2</text><text dy=".4em" transform="translate(38,135)">2</text><text dy=".4em" transform="translate(38,105)">1</text><text dy=".4em" transform="translate(113,555)">1</text><text dy=".4em" transform="translate(113,525)">3</text><text dy=".4em" transform="translate(113,495)">10</text><text dy=".4em" transform="translate(113,465)">1</text><text dy=".4em" transform="translate(113,435)">11</text><text dy=".4em" transform="translate(113,405)">8</text><text dy=".4em" transform="translate(113,375)">6</text><text dy=".4em" transform="translate(113,345)">18</text><text dy=".4em" transform="translate(113,315)">15</text><text dy=".4em" transform="translate(113,285)">14</text><text dy=".4em" transform="translate(113,255)">16</text><text dy=".4em" transform="translate(113,225)">10</text><text dy=".4em" transform="translate(113,195)">5</text><text dy=".4em" transform="translate(113,165)">7</text><text dy=".4em" transform="translate(113,135)">6</text><text dy=".4em" transform="translate(113,105)">3</text><text dy=".4em" transform="translate(113,75)">2</text><text dy=".4em" transform="translate(113,45)">3</text><text dy=".4em" transform="translate(113,15)">2</text><text dy=".4em" transform="translate(188,585)">2</text><text dy=".4em" transform="translate(188,555)">4</text><text dy=".4em" transform="translate(188,525)">3</text><text dy=".4em" transform="translate(188,495)">8</text><text dy=".4em" transform="translate(188,465)">7</text><text dy=".4em" transform="translate(188,435)">14</text><text dy=".4em" transform="translate(188,405)">17</text><text dy=".4em" transform="translate(188,375)">21</text><text dy=".4em" transform="translate(188,345)">21</text><text dy=".4em" transform="translate(188,315)">17</text><text dy=".4em" transform="translate(188,285)">21</text><text dy=".4em" transform="translate(188,255)">29</text><text dy=".4em" transform="translate(188,225)">27</text><text dy=".4em" transform="translate(188,195)">31</text><text dy=".4em" transform="translate(188,165)">15</text><text dy=".4em" transform="translate(188,135)">15</text><text dy=".4em" transform="translate(188,105)">10</text><text dy=".4em" transform="translate(188,75)">7</text><text dy=".4em" transform="translate(188,45)">5</text><text dy=".4em" transform="translate(188,15)">1</text><text dy=".4em" transform="translate(263,585)">1</text><text dy=".4em" transform="translate(263,525)">9</text><text dy=".4em" transform="translate(263,495)">9</text><text dy=".4em" transform="translate(263,465)">16</text><text dy=".4em" transform="translate(263,435)">32</text><text dy=".4em" transform="translate(263,405)">39</text><text dy=".4em" transform="translate(263,375)">32</text><text dy=".4em" transform="translate(263,345)">43</text><text dy=".4em" transform="translate(263,315)">47</text><text dy=".4em" transform="translate(263,285)">53</text><text dy=".4em" transform="translate(263,255)">43</text><text dy=".4em" transform="translate(263,225)">38</text><text dy=".4em" transform="translate(263,195)">37</text><text dy=".4em" transform="translate(263,165)">18</text><text dy=".4em" transform="translate(263,135)">13</text><text dy=".4em" transform="translate(263,105)">10</text><text dy=".4em" transform="translate(263,75)">4</text><text dy=".4em" transform="translate(263,45)">4</text><text dy=".4em" transform="translate(263,15)">3</text><text dy=".4em" transform="translate(338,585)">6</text><text dy=".4em" transform="translate(338,555)">6</text><text dy=".4em" transform="translate(338,525)">11</text><text dy=".4em" transform="translate(338,495)">23</text><text dy=".4em" transform="translate(338,465)">27</text><text dy=".4em" transform="translate(338,435)">25</text><text dy=".4em" transform="translate(338,405)">54</text><text dy=".4em" transform="translate(338,375)">49</text><text dy=".4em" transform="translate(338,345)">71</text><text dy=".4em" transform="translate(338,315)">78</text><text dy=".4em" transform="translate(338,285)">62</text><text dy=".4em" transform="translate(338,255)">71</text><text dy=".4em" transform="translate(338,225)">71</text><text dy=".4em" transform="translate(338,195)">51</text><text dy=".4em" transform="translate(338,165)">26</text><text dy=".4em" transform="translate(338,135)">24</text><text dy=".4em" transform="translate(338,105)">17</text><text dy=".4em" transform="translate(338,75)">9</text><text dy=".4em" transform="translate(338,45)">8</text><text dy=".4em" transform="translate(338,15)">8</text><text dy=".4em" transform="translate(413,585)">4</text><text dy=".4em" transform="translate(413,555)">10</text><text dy=".4em" transform="translate(413,525)">12</text><text dy=".4em" transform="translate(413,495)">22</text><text dy=".4em" transform="translate(413,465)">28</text><text dy=".4em" transform="translate(413,435)">47</text><text dy=".4em" transform="translate(413,405)">50</text><text dy=".4em" transform="translate(413,375)">60</text><text dy=".4em" transform="translate(413,345)">80</text><text dy=".4em" transform="translate(413,315)">79</text><text dy=".4em" transform="translate(413,285)">80</text><text dy=".4em" transform="translate(413,255)">66</text><text dy=".4em" transform="translate(413,225)">58</text><text dy=".4em" transform="translate(413,195)">62</text><text dy=".4em" transform="translate(413,165)">38</text><text dy=".4em" transform="translate(413,135)">31</text><text dy=".4em" transform="translate(413,105)">21</text><text dy=".4em" transform="translate(413,75)">12</text><text dy=".4em" transform="translate(413,45)">12</text><text dy=".4em" transform="translate(413,15)">5</text><text dy=".4em" transform="translate(488,585)">3</text><text dy=".4em" transform="translate(488,555)">6</text><text dy=".4em" transform="translate(488,525)">15</text><text dy=".4em" transform="translate(488,495)">20</text><text dy=".4em" transform="translate(488,465)">30</text><text dy=".4em" transform="translate(488,435)">40</text><text dy=".4em" transform="translate(488,405)">54</text><text dy=".4em" transform="translate(488,375)">49</text><text dy=".4em" transform="translate(488,345)">84</text><text dy=".4em" transform="translate(488,315)">89</text><text dy=".4em" transform="translate(488,285)">93</text><text dy=".4em" transform="translate(488,255)">73</text><text dy=".4em" transform="translate(488,225)">66</text><text dy=".4em" transform="translate(488,195)">61</text><text dy=".4em" transform="translate(488,165)">39</text><text dy=".4em" transform="translate(488,135)">32</text><text dy=".4em" transform="translate(488,105)">13</text><text dy=".4em" transform="translate(488,75)">11</text><text dy=".4em" transform="translate(488,45)">14</text><text dy=".4em" transform="translate(488,15)">7</text><text dy=".4em" transform="translate(563,585)">3</text><text dy=".4em" transform="translate(563,555)">8</text><text dy=".4em" transform="translate(563,525)">11</text><text dy=".4em" transform="translate(563,495)">28</text><text dy=".4em" transform="translate(563,465)">22</text><text dy=".4em" transform="translate(563,435)">36</text><text dy=".4em" transform="translate(563,405)">52</text><text dy=".4em" transform="translate(563,375)">66</text><text dy=".4em" transform="translate(563,345)">60</text><text dy=".4em" transform="translate(563,315)">64</text><text dy=".4em" transform="translate(563,285)">60</text><text dy=".4em" transform="translate(563,255)">57</text><text dy=".4em" transform="translate(563,225)">53</text><text dy=".4em" transform="translate(563,195)">49</text><text dy=".4em" transform="translate(563,165)">41</text><text dy=".4em" transform="translate(563,135)">39</text><text dy=".4em" transform="translate(563,105)">15</text><text dy=".4em" transform="translate(563,75)">15</text><text dy=".4em" transform="translate(563,45)">6</text><text dy=".4em" transform="translate(563,15)">5</text><text dy=".4em" transform="translate(638,585)">3</text><text dy=".4em" transform="translate(638,555)">7</text><text dy=".4em" transform="translate(638,525)">8</text><text dy=".4em" transform="translate(638,495)">14</text><text dy=".4em" transform="translate(638,465)">25</text><text dy=".4em" transform="translate(638,435)">30</text><text dy=".4em" transform="translate(638,405)">44</text><text dy=".4em" transform="translate(638,375)">35</text><text dy=".4em" transform="translate(638,345)">47</text><text dy=".4em" transform="translate(638,315)">51</text><text dy=".4em" transform="translate(638,285)">57</text><text dy=".4em" transform="translate(638,255)">42</text><text dy=".4em" transform="translate(638,225)">38</text><text dy=".4em" transform="translate(638,195)">27</text><text dy=".4em" transform="translate(638,165)">36</text><text dy=".4em" transform="translate(638,135)">17</text><text dy=".4em" transform="translate(638,105)">15</text><text dy=".4em" transform="translate(638,75)">11</text><text dy=".4em" transform="translate(638,45)">6</text><text dy=".4em" transform="translate(638,15)">6</text><text dy=".4em" transform="translate(713,585)">2</text><text dy=".4em" transform="translate(713,555)">3</text><text dy=".4em" transform="translate(713,525)">8</text><text dy=".4em" transform="translate(713,495)">5</text><text dy=".4em" transform="translate(713,465)">23</text><text dy=".4em" transform="translate(713,435)">13</text><text dy=".4em" transform="translate(713,405)">15</text><text dy=".4em" transform="translate(713,375)">23</text><text dy=".4em" transform="translate(713,345)">29</text><text dy=".4em" transform="translate(713,315)">30</text><text dy=".4em" transform="translate(713,285)">23</text><text dy=".4em" transform="translate(713,255)">27</text><text dy=".4em" transform="translate(713,225)">24</text><text dy=".4em" transform="translate(713,195)">13</text><text dy=".4em" transform="translate(713,165)">18</text><text dy=".4em" transform="translate(713,135)">9</text><text dy=".4em" transform="translate(713,105)">7</text><text dy=".4em" transform="translate(713,75)">2</text><text dy=".4em" transform="translate(713,45)">2</text><text dy=".4em" transform="translate(788,585)">2</text><text dy=".4em" transform="translate(788,555)">1</text><text dy=".4em" transform="translate(788,525)">3</text><text dy=".4em" transform="translate(788,495)">7</text><text dy=".4em" transform="translate(788,465)">7</text><text dy=".4em" transform="translate(788,435)">7</text><text dy=".4em" transform="translate(788,405)">10</text><text dy=".4em" transform="translate(788,375)">8</text><text dy=".4em" transform="translate(788,345)">13</text><text dy=".4em" transform="translate(788,315)">10</text><text dy=".4em" transform="translate(788,285)">15</text><text dy=".4em" transform="translate(788,255)">10</text><text dy=".4em" transform="translate(788,225)">15</text><text dy=".4em" transform="translate(788,195)">4</text><text dy=".4em" transform="translate(788,165)">12</text><text dy=".4em" transform="translate(788,135)">4</text><text dy=".4em" transform="translate(788,75)">1</text><text dy=".4em" transform="translate(788,45)">1</text><text dy=".4em" transform="translate(788,15)">1</text><text dy=".4em" transform="translate(863,555)">1</text><text dy=".4em" transform="translate(863,525)">1</text><text dy=".4em" transform="translate(863,495)">3</text><text dy=".4em" transform="translate(863,465)">3</text><text dy=".4em" transform="translate(863,435)">2</text><text dy=".4em" transform="translate(863,405)">1</text><text dy=".4em" transform="translate(863,375)">7</text><text dy=".4em" transform="translate(863,345)">4</text><text dy=".4em" transform="translate(863,315)">3</text><text dy=".4em" transform="translate(863,285)">5</text><text dy=".4em" transform="translate(863,255)">5</text><text dy=".4em" transform="translate(863,225)">9</text><text dy=".4em" transform="translate(863,195)">5</text><text dy=".4em" transform="translate(863,165)">2</text><text dy=".4em" transform="translate(863,135)">2</text><text dy=".4em" transform="translate(863,105)">2</text><text dy=".4em" transform="translate(863,75)">1</text><text dy=".4em" transform="translate(863,45)">1</text><text dy=".4em" transform="translate(863,15)">1</text></g></g></svg><g><g transform="translate(0,600)"><path d="M0,0h900M0,-24V0M75,-24V0M150,-24V0M225,-24V0M300,-24V0M375,-24V0M450,-24V0M525,-24V0M600,-24V0M675,-24V0M750,-24V0M825,-24V0M900,-12V0" style="stroke: #000000; stroke-width: 1;"></path><g font-family="Arial" font-size="14" space="preserve" fill="#000000" text-anchor="middle"><text dy=".8em" transform="translate(38,6) rotate(25)" style="text-anchor: start;">January</text><text dy=".8em" transform="translate(113,6) rotate(25)" style="text-anchor: start;">February</text><text dy=".8em" transform="translate(188,6) rotate(25)" style="text-anchor: start;">March</text><text dy=".8em" transform="translate(263,6) rotate(25)" style="text-anchor: start;">April</text><text dy=".8em" transform="translate(338,6) rotate(25)" style="text-anchor: start;">May</text><text dy=".8em" transform="translate(413,6) rotate(25)" style="text-anchor: start;">June</text><text dy=".8em" transform="translate(488,6) rotate(25)" style="text-anchor: start;">July</text><text dy=".8em" transform="translate(563,6) rotate(25)" style="text-anchor: start;">August</text><text dy=".8em" transform="translate(638,6) rotate(25)" style="text-anchor: start;">September</text><text dy=".8em" transform="translate(713,6) rotate(25)" style="text-anchor: start;">October</text><text dy=".8em" transform="translate(788,6) rotate(25)" style="text-anchor: start;">November</text><text dy=".8em" transform="translate(863,6) rotate(25)" style="text-anchor: start;">December</text></g></g><g><path d="M0,0v600M36,600H0M36,570H0M36,540H0M36,510H0M36,480H0M36,450H0M36,420H0M36,390H0M36,360H0M36,330H0M36,300H0M36,270H0M36,240H0M36,210H0M36,180H0M36,150H0M36,120H0M36,90H0M36,60H0M36,30H0M18,0H0" style="stroke: #000000; stroke-width: 1;"></path><g font-family="Arial" font-size="19" space="preserve" fill="#000000" text-anchor="end"><text dy=".4em" transform="translate(-6,585)">Jean</text><text dy=".4em" transform="translate(-6,555)">Pierre</text><text dy=".4em" transform="translate(-6,525)">Marie</text><text dy=".4em" transform="translate(-6,495)">Odile</text><text dy=".4em" transform="translate(-6,465)">Sebastien</text><text dy=".4em" transform="translate(-6,435)">Fons</text><text dy=".4em" transform="translate(-6,405)">Rene</text><text dy=".4em" transform="translate(-6,375)">Nicolas</text><text dy=".4em" transform="translate(-6,345)">Xavier</text><text dy=".4em" transform="translate(-6,315)">Greg</text><text dy=".4em" transform="translate(-6,285)">Bjarne</text><text dy=".4em" transform="translate(-6,255)">Anton</text><text dy=".4em" transform="translate(-6,225)">Otto</text><text dy=".4em" transform="translate(-6,195)">Eddy</text><text dy=".4em" transform="translate(-6,165)">Peter</text><text dy=".4em" transform="translate(-6,135)">Pasha</text><text dy=".4em" transform="translate(-6,105)">Philippe</text><text dy=".4em" transform="translate(-6,75)">Suzanne</text><text dy=".4em" transform="translate(-6,45)">Jeff</text><text dy=".4em" transform="translate(-6,15)">Valery</text></g></g><path d="M0,0v600M75,0v600M150,0v600M225,0v600M300,0v600M375,0v600M450,0v600M525,0v600M600,0v600M675,0v600M750,0v600M825,0v600M900,0v600" style="stroke: #000000; stroke-width: 1; stroke-dasharray: 1,2;"></path><path d="M0,600h900M0,570h900M0,540h900M0,510h900M0,480h900M0,450h900M0,420h900M0,390h900M0,360h900M0,330h900M0,300h900M0,270h900M0,240h900M0,210h900M0,180h900M0,150h900M0,120h900M0,90h900M0,60h900M0,30h900M0,0h900" style="stroke: #000000; stroke-width: 1; stroke-dasharray: 1,2;"></path></g></g><g transform="translate(150,4)" font-family="Arial" font-size="40" space="preserve"><text fill="#000000" text-anchor="middle" dy=".8em" transform="translate(450)">test</text></g><g transform="translate(720,16)" font-family="Arial" font-size="17" space="preserve" font-weight="bold" fill="#000000" text-anchor="start"><path d="M456,4h4v104h-456v-4h452z" style="fill: #000000; stroke: #000000; stroke-width: 1px;"></path><path d="M0,0H456V104H0Z" style="fill: #e5e5e5; stroke: #000000; stroke-width: 1;"></path><text dy=".4em" transform="translate(23,13)">Use the axis Context Menu LabelsOption</text><text dy=".4em" transform="translate(23,39)"> "a"   to sort by alphabetic order</text><text dy=".4em" transform="translate(23,65)"> "&gt;"   to sort by decreasing values</text><text dy=".4em" transform="translate(23,91)"> "&lt;"   to sort by increasing values</text></g></g></svg>