<svg xmlns="http://www.w3.org/2000/svg" viewBox="0 0 1200 800" preserveAspectRatio="none" width="1200" height="800"><path d="M0,0H1200V800H0Z" style="fill: #ffffff;"></path><g><g transform="translate(180,40)"><path d="M0,0H960V640H0Z" style="fill: #ffffff; stroke: #000000; stroke-width: 1;"></path><svg x="0" y="0" overflow="hidden" width="960" height="640" viewBox="0 0 960 640"><g><g font-family="Arial" font-size="20" space="preserve" fill="#000000" text-anchor="middle"><text dy=".4em" transform="translate(40,592)">1</text><text dy=".4em" transform="translate(40,560)">1</text><text dy=".4em" transform="translate(40,528)">2</text><text dy=".4em" transform="translate(40,496)">1</text><text dy=".4em" transform="translate(40,432)">7</text><text dy=".4em" transform="translate(40,400)">8</text><text dy=".4em" transform="translate(40,368)">7</text><text dy=".4em" transform="translate(40,336)">10</text><text dy=".4em" transform="translate(40,304)">7</text><text dy=".4em" transform="translate(40,272)">6</text><text dy=".4em" transform="translate(40,240)">3</text><text dy=".4em" transform="translate(40,208)">4</text><text dy=".4em" transform="translate(40,176)">2</text><text dy=".4em" transform="translate(40,144)">2</text><text dy=".4em" transform="translate(40,112)">1</text><text dy=".4em" transform="translate(120,592)">1</text><text dy=".4em" transform="translate(120,560)">3</text><text dy=".4em" transform="translate(120,528)">10</text><text dy=".4em" transform="translate(120,496)">1</text><text dy=".4em" transform="translate(120,464)">11</text><text dy=".4em" transform="translate(120,432)">8</text><text dy=".4em" transform="translate(120,400)">6</text><text dy=".4em" transform="translate(120,368)">18</text><text dy=".4em" transform="translate(120,336)">15</text><text dy=".4em" transform="translate(120,304)">14</text><text dy=".4em" transform="translate(120,272)">16</text><text dy=".4em" transform="translate(120,240)">10</text><text dy=".4em" transform="translate(120,208)">5</text><text dy=".4em" transform="translate(120,176)">7</text><text dy=".4em" transform="translate(120,144)">6</text><text dy=".4em" transform="translate(120,112)">3</text><text dy=".4em" transform="translate(120,80)">2</text><text dy=".4em" transform="translate(120,48)">3</text><text dy=".4em" transform="translate(120,16)">2</text><text dy=".4em" transform="translate(200,624)">2</text><text dy=".4em" transform="translate(200,592)">4</text><text dy=".4em" transform="translate(200,560)">3</text><text dy=".4em" transform="translate(200,528)">8</text><text dy=".4em" transform="translate(200,496)">7</text><text dy=".4em" transform="translate(200,464)">14</text><text dy=".4em" transform="translate(200,432)">17</text><text dy=".4em" transform="translate(200,400)">21</text><text dy=".4em" transform="translate(200,368)">21</text><text dy=".4em" transform="translate(200,336)">17</text><text dy=".4em" transform="translate(200,304)">21</text><text dy=".4em" transform="translate(200,272)">29</text><text dy=".4em" transform="translate(200,240)">27</text><text dy=".4em" transform="translate(200,208)">31</text><text dy=".4em" transform="translate(200,176)">15</text><text dy=".4em" transform="translate(200,144)">15</text><text dy=".4em" transform="translate(200,112)">10</text><text dy=".4em" transform="translate(200,80)">7</text><text dy=".4em" transform="translate(200,48)">5</text><text dy=".4em" transform="translate(200,16)">1</text><text dy=".4em" transform="translate(280,624)">1</text><text dy=".4em" transform="translate(280,560)">9</text><text dy=".4em" transform="translate(280,528)">9</text><text dy=".4em" transform="translate(280,496)">16</text><text dy=".4em" transform="translate(280,464)">32</text><text dy=".4em" transform="translate(280,432)">39</text><text dy=".4em" transform="translate(280,400)">32</text><text dy=".4em" transform="translate(280,368)">43</text><text dy=".4em" transform="translate(280,336)">47</text><text dy=".4em" transform="translate(280,304)">53</text><text dy=".4em" transform="translate(280,272)">43</text><text dy=".4em" transform="translate(280,240)">38</text><text dy=".4em" transform="translate(280,208)">37</text><text dy=".4em" transform="translate(280,176)">18</text><text dy=".4em" transform="translate(280,144)">13</text><text dy=".4em" transform="translate(280,112)">10</text><text dy=".4em" transform="translate(280,80)">4</text><text dy=".4em" transform="translate(280,48)">4</text><text dy=".4em" transform="translate(280,16)">3</text><text dy=".4em" transform="translate(360,624)">6</text><text dy=".4em" transform="translate(360,592)">6</text><text dy=".4em" transform="translate(360,560)">11</text><text dy=".4em" transform="translate(360,528)">23</text><text dy=".4em" transform="translate(360,496)">27</text><text dy=".4em" transform="translate(360,464)">25</text><text dy=".4em" transform="translate(360,432)">54</text><text dy=".4em" transform="translate(360,400)">49</text><text dy=".4em" transform="translate(360,368)">71</text><text dy=".4em" transform="translate(360,336)">78</text><text dy=".4em" transform="translate(360,304)">62</text><text dy=".4em" transform="translate(360,272)">71</text><text dy=".4em" transform="translate(360,240)">71</text><text dy=".4em" transform="translate(360,208)">51</text><text dy=".4em" transform="translate(360,176)">26</text><text dy=".4em" transform="translate(360,144)">24</text><text dy=".4em" transform="translate(360,112)">17</text><text dy=".4em" transform="translate(360,80)">9</text><text dy=".4em" transform="translate(360,48)">8</text><text dy=".4em" transform="translate(360,16)">8</text><text dy=".4em" transform="translate(440,624)">4</text><text dy=".4em" transform="translate(440,592)">10</text><text dy=".4em" transform="translate(440,560)">12</text><text dy=".4em" transform="translate(440,528)">22</text><text dy=".4em" transform="translate(440,496)">28</text><text dy=".4em" transform="translate(440,464)">47</text><text dy=".4em" transform="translate(440,432)">50</text><text dy=".4em" transform="translate(440,400)">60</text><text dy=".4em" transform="translate(440,368)">80</text><text dy=".4em" transform="translate(440,336)">79</text><text dy=".4em" transform="translate(440,304)">80</text><text dy=".4em" transform="translate(440,272)">66</text><text dy=".4em" transform="translate(440,240)">58</text><text dy=".4em" transform="translate(440,208)">62</text><text dy=".4em" transform="translate(440,176)">38</text><text dy=".4em" transform="translate(440,144)">31</text><text dy=".4em" transform="translate(440,112)">21</text><text dy=".4em" transform="translate(440,80)">12</text><text dy=".4em" transform="translate(440,48)">12</text><text dy=".4em" transform="translate(440,16)">5</text><text dy=".4em" transform="translate(520,624)">3</text><text dy=".4em" transform="translate(520,592)">6</text><text dy=".4em" transform="translate(520,560)">15</text><text dy=".4em" transform="translate(520,528)">20</text><text dy=".4em" transform="translate(520,496)">30</text><text dy=".4em" transform="translate(520,464)">40</text><text dy=".4em" transform="translate(520,432)">54</text><text dy=".4em" transform="translate(520,400)">49</text><text dy=".4em" transform="translate(520,368)">84</text><text dy=".4em" transform="translate(520,336)">89</text><text dy=".4em" transform="translate(520,304)">93</text><text dy=".4em" transform="translate(520,272)">73</text><text dy=".4em" transform="translate(520,240)">66</text><text dy=".4em" transform="translate(520,208)">61</text><text dy=".4em" transform="translate(520,176)">39</text><text dy=".4em" transform="translate(520,144)">32</text><text dy=".4em" transform="translate(520,112)">13</text><text dy=".4em" transform="translate(520,80)">11</text><text dy=".4em" transform="translate(520,48)">14</text><text dy=".4em" transform="translate(520,16)">7</text><text dy=".4em" transform="translate(600,624)">3</text><text dy=".4em" transform="translate(600,592)">8</text><text dy=".4em" transform="translate(600,560)">11</text><text dy=".4em" transform="translate(600,528)">28</text><text dy=".4em" transform="translate(600,496)">22</text><text dy=".4em" transform="translate(600,464)">36</text><text dy=".4em" transform="translate(600,432)">52</text><text dy=".4em" transform="translate(600,400)">66</text><text dy=".4em" transform="translate(600,368)">60</text><text dy=".4em" transform="translate(600,336)">64</text><text dy=".4em" transform="translate(600,304)">60</text><text dy=".4em" transform="translate(600,272)">57</text><text dy=".4em" transform="translate(600,240)">53</text><text dy=".4em" transform="translate(600,208)">49</text><text dy=".4em" transform="translate(600,176)">41</text><text dy=".4em" transform="translate(600,144)">39</text><text dy=".4em" transform="translate(600,112)">15</text><text dy=".4em" transform="translate(600,80)">15</text><text dy=".4em" transform="translate(600,48)">6</text><text dy=".4em" transform="translate(600,16)">5</text><text dy=".4em" transform="translate(680,624)">3</text><text dy=".4em" transform="translate(680,592)">7</text><text dy=".4em" transform="translate(680,560)">8</text><text dy=".4em" transform="translate(680,528)">14</text><text dy=".4em" transform="translate(680,496)">25</text><text dy=".4em" transform="translate(680,464)">30</text><text dy=".4em" transform="translate(680,432)">44</text><text dy=".4em" transform="translate(680,400)">35</text><text dy=".4em" transform="translate(680,368)">47</text><text dy=".4em" transform="translate(680,336)">51</text><text dy=".4em" transform="translate(680,304)">57</text><text dy=".4em" transform="translate(680,272)">42</text><text dy=".4em" transform="translate(680,240)">38</text><text dy=".4em" transform="translate(680,208)">27</text><text dy=".4em" transform="translate(680,176)">36</text><text dy=".4em" transform="translate(680,144)">17</text><text dy=".4em" transform="translate(680,112)">15</text><text dy=".4em" transform="translate(680,80)">11</text><text dy=".4em" transform="translate(680,48)">6</text><text dy=".4em" transform="translate(680,16)">6</text><text dy=".4em" transform="translate(760,624)">2</text><text dy=".4em" transform="translate(760,592)">3</text><text dy=".4em" transform="translate(760,560)">8</text><text dy=".4em" transform="translate(760,528)">5</text><text dy=".4em" transform="translate(760,496)">23</text><text dy=".4em" transform="translate(760,464)">13</text><text dy=".4em" transform="translate(760,432)">15</text><text dy=".4em" transform="translate(760,400)">23</text><text dy=".4em" transform="translate(760,368)">29</text><text dy=".4em" transform="translate(760,336)">30</text><text dy=".4em" transform="translate(760,304)">23</text><text dy=".4em" transform="translate(760,272)">27</text><text dy=".4em" transform="translate(760,240)">24</text><text dy=".4em" transform="translate(760,208)">13</text><text dy=".4em" transform="translate(760,176)">18</text><text dy=".4em" transform="translate(760,144)">9</text><text dy=".4em" transform="translate(760,112)">7</text><text dy=".4em" transform="translate(760,80)">2</text><text dy=".4em" transform="translate(760,48)">2</text><text dy=".4em" transform="translate(840,624)">2</text><text dy=".4em" transform="translate(840,592)">1</text><text dy=".4em" transform="translate(840,560)">3</text><text dy=".4em" transform="translate(840,528)">7</text><text dy=".4em" transform="translate(840,496)">7</text><text dy=".4em" transform="translate(840,464)">7</text><text dy=".4em" transform="translate(840,432)">10</text><text dy=".4em" transform="translate(840,400)">8</text><text dy=".4em" transform="translate(840,368)">13</text><text dy=".4em" transform="translate(840,336)">10</text><text dy=".4em" transform="translate(840,304)">15</text><text dy=".4em" transform="translate(840,272)">10</text><text dy=".4em" transform="translate(840,240)">15</text><text dy=".4em" transform="translate(840,208)">4</text><text dy=".4em" transform="translate(840,176)">12</text><text dy=".4em" transform="translate(840,144)">4</text><text dy=".4em" transform="translate(840,80)">1</text><text dy=".4em" transform="translate(840,48)">1</text><text dy=".4em" transform="translate(840,16)">1</text><text dy=".4em" transform="translate(920,592)">1</text><text dy=".4em" transform="translate(920,560)">1</text><text dy=".4em" transform="translate(920,528)">3</text><text dy=".4em" transform="translate(920,496)">3</text><text dy=".4em" transform="translate(920,464)">2</text><text dy=".4em" transform="translate(920,432)">1</text><text dy=".4em" transform="translate(920,400)">7</text><text dy=".4em" transform="translate(920,368)">4</text><text dy=".4em" transform="translate(920,336)">3</text><text dy=".4em" transform="translate(920,304)">5</text><text dy=".4em" transform="translate(920,272)">5</text><text dy=".4em" transform="translate(920,240)">9</text><text dy=".4em" transform="translate(920,208)">5</text><text dy=".4em" transform="translate(920,176)">2</text><text dy=".4em" transform="translate(920,144)">2</text><text dy=".4em" transform="translate(920,112)">2</text><text dy=".4em" transform="translate(920,80)">1</text><text dy=".4em" transform="translate(920,48)">1</text><text dy=".4em" transform="translate(920,16)">1</text></g></g></svg><g><g transform="translate(0,640)"><path d="M0,0h960M0,-640h960M0,-19V0M80,-19V0M160,-19V0M240,-19V0M320,-19V0M400,-19V0M480,-19V0M560,-19V0M640,-19V0M720,-19V0M800,-19V0M880,-19V0M960,-10V0M0,-621V-640M80,-621V-640M160,-621V-640M240,-621V-640M320,-621V-640M400,-621V-640M480,-621V-640M560,-621V-640M640,-621V-640M720,-621V-640M800,-621V-640M880,-621V-640M960,-630V-640" style="stroke: #000000; stroke-width: 1;"></path><g font-family="Arial" font-size="27" space="preserve" fill="#000000" text-anchor="middle"><text dy=".8em" transform="translate(40,5) rotate(25)" style="text-anchor: start;">January</text><text dy=".8em" transform="translate(120,5) rotate(25)" style="text-anchor: start;">February</text><text dy=".8em" transform="translate(200,5) rotate(25)" style="text-anchor: start;">March</text><text dy=".8em" transform="translate(280,5) rotate(25)" style="text-anchor: start;">April</text><text dy=".8em" transform="translate(360,5) rotate(25)" style="text-anchor: start;">May</text><text dy=".8em" transform="translate(440,5) rotate(25)" style="text-anchor: start;">June</text><text dy=".8em" transform="translate(520,5) rotate(25)" style="text-anchor: start;">July</text><text dy=".8em" transform="translate(600,5) rotate(25)" style="text-anchor: start;">August</text><text dy=".8em" transform="translate(680,5) rotate(25)" style="text-anchor: start;">September</text><text dy=".8em" transform="translate(760,5) rotate(25)" style="text-anchor: start;">October</text><text dy=".8em" transform="translate(840,5) rotate(25)" style="text-anchor: start;">November</text><text dy=".8em" transform="translate(920,5) rotate(25)" style="text-anchor: start;">December</text></g></g><g><path d="M0,0v640M960,0v640M29,640H0M29,608H0M29,576H0M29,544H0M29,512H0M29,480H0M29,448H0M29,416H0M29,384H0M29,352H0M29,320H0M29,288H0M29,256H0M29,224H0M29,192H0M29,160H0M29,128H0M29,96H0M29,64H0M29,32H0M15,0H0M931,640H960M931,608H960M931,576H960M931,544H960M931,512H960M931,480H960M931,448H960M931,416H960M931,384H960M931,352H960M931,320H960M931,288H960M931,256H960M931,224H960M931,192H960M931,160H960M931,128H960M931,96H960M931,64H960M931,32H960M945,0H960" style="stroke: #000000; stroke-width: 1;"></path><g font-family="Arial" font-size="27" space="preserve" fill="#000000" text-anchor="end"><text dy=".4em" transform="translate(-6,624)">Jean</text><text dy=".4em" transform="translate(-6,592)">Pierre</text><text dy=".4em" transform="translate(-6,560)">Marie</text><text dy=".4em" transform="translate(-6,528)">Odile</text><text dy=".4em" transform="translate(-6,496)">Sebastien</text><text dy=".4em" transform="translate(-6,464)">Fons</text><text dy=".4em" transform="translate(-6,432)">Rene</text><text dy=".4em" transform="translate(-6,400)">Nicolas</text><text dy=".4em" transform="translate(-6,368)">Xavier</text><text dy=".4em" transform="translate(-6,336)">Greg</text><text dy=".4em" transform="translate(-6,304)">Bjarne</text><text dy=".4em" transform="translate(-6,272)">Anton</text><text dy=".4em" transform="translate(-6,240)">Otto</text><text dy=".4em" transform="translate(-6,208)">Eddy</text><text dy=".4em" transform="translate(-6,176)">Peter</text><text dy=".4em" transform="translate(-6,144)">Pasha</text><text dy=".4em" transform="translate(-6,112)">Philippe</text><text dy=".4em" transform="translate(-6,80)">Suzanne</text><text dy=".4em" transform="translate(-6,48)">Jeff</text><text dy=".4em" transform="translate(-6,16)">Valery</text></g></g><path d="M0,0v640M80,0v640M160,0v640M240,0v640M320,0v640M400,0v640M480,0v640M560,0v640M640,0v640M720,0v640M800,0v640M880,0v640M960,0v640" style="stroke: #000000; stroke-width: 1; stroke-dasharray: 1,2;"></path><path d="M0,640h960M0,608h960M0,576h960M0,544h960M0,512h960M0,480h960M0,448h960M0,416h960M0,384h960M0,352h960M0,320h960M0,288h960M0,256h960M0,224h960M0,192h960M0,160h960M0,128h960M0,96h960M0,64h960M0,32h960M0,0h960" style="stroke: #000000; stroke-width: 1; stroke-dasharray: 1,2;"></path></g></g><g transform="translate(-468,4)" style="display: none;"><path d="M960,2h2v25h-960v-2h958z" style="fill: #000000; stroke: #000000; stroke-width: 1px;"></path><path d="M0,0H960V25H0Z" style="fill: #f2f2f2; stroke: #000000; stroke-width: 1;"></path></g><g transform="translate(720,16)" font-family="Arial" font-size="17" space="preserve" fill="#000000" text-anchor="start"><path d="M456,4h4v104h-456v-4h452z" style="fill: #000000; stroke: #000000; stroke-width: 1px;"></path><path d="M0,0H456V104H0Z" style="fill: #e5e5e5; stroke: #000000; stroke-width: 1;"></path><text dy=".4em" transform="translate(23,13)">Use the axis Context Menu LabelsOption</text><text dy=".4em" transform="translate(23,39)"> "a"   to sort by alphabetic order</text><text dy=".4em" transform="translate(23,65)"> "&gt;"   to sort by decreasing values</text><text dy=".4em" transform="translate(23,91)"> "&lt;"   to sort by increasing values</text></g></g></svg>