<svg xmlns="http://www.w3.org/2000/svg" viewBox="0 0 1200 800" preserveAspectRatio="none" width="1200" height="800"><path d="M0,0H1200V800H0Z" style="fill: #ffffff;"></path><g><g font-family="Arial" font-size="29" space="preserve"><g transform="translate(120,92)"><text fill="#000000" font-size="29">1)   C(x) = d</text><g transform="translate(163)"><path style="stroke: #000000; stroke-width: 2; fill: none;" d="M0,-10h7l7,29l7,-64h50v7"></path><g transform="translate(28)"><text fill="#000000" font-size="29" transform="translate(10,-17)">2</text><path style="stroke: #000000; stroke-width: 2; fill: none;" d="M0,-10h33"></path><text fill="#000000" font-size="29" transform="translate(0,18)">λD</text></g></g><g transform="translate(276)"><path style="stroke: #000000; stroke-width: 2; fill: none;" d="M0,7a5,5,0,0,0,10,0v-39a5,5,0,1,1,10,0"></path><text fill="#000000" font-size="17" transform="translate(0,29)">0</text><text fill="#000000" font-size="17" transform="translate(11,-41)">x</text></g><text fill="#000000" font-size="29" x="305">cos(</text><g transform="translate(360)"><text fill="#000000" font-size="29" transform="translate(0,-17)">π</text><path style="stroke: #000000; stroke-width: 2; fill: none;" d="M0,-10h15"></path><text fill="#000000" font-size="29" transform="translate(1,18)">2</text></g><text fill="#000000" font-size="29" x="378">t</text><text fill="#000000" font-size="17" transform="translate(388,-15)">2</text><text fill="#000000" font-size="29" x="397">)dt</text></g></g><g font-family="Arial" font-size="29" space="preserve"><g transform="translate(120,256)"><text fill="#000000" font-size="29">2)   C(x) = d</text><g transform="translate(164)"><path style="stroke: #000000; stroke-width: 2; fill: none;" d="M0,-10h7l7,29l7,-64h50v7"></path><g transform="translate(28)"><text fill="#000000" font-size="29" transform="translate(10,-17)">2</text><path style="stroke: #000000; stroke-width: 2; fill: none;" d="M0,-10h33"></path><text fill="#000000" font-size="29" transform="translate(0,18)">λD</text></g></g><g transform="translate(277)"><path style="stroke: #000000; stroke-width: 2; fill: none;" d="M0,7a5,5,0,0,0,10,0v-39a5,5,0,1,1,10,0"></path><text fill="#000000" font-size="17" transform="translate(11,-41)">x</text></g><text fill="#000000" font-size="29" x="306">cos(</text><g transform="translate(361)"><text fill="#000000" font-size="29" transform="translate(0,-17)">π</text><path style="stroke: #000000; stroke-width: 2; fill: none;" d="M0,-10h15"></path><text fill="#000000" font-size="29" transform="translate(1,18)">2</text></g><text fill="#000000" font-size="29" x="379">t</text><text fill="#000000" font-size="17" transform="translate(389,-15)">2</text><text fill="#000000" font-size="29" x="398">)dt</text></g></g><g font-family="Arial" font-size="29" space="preserve"><g transform="translate(120,411)"><text fill="#000000" font-size="29">3)   R = |A|</text><text fill="#000000" font-size="17" transform="translate(136,-15)">2</text><text fill="#000000" font-size="29" x="157">=</text><g transform="translate(186)"><text fill="#000000" font-size="29" transform="translate(1,-17)">1</text><path style="stroke: #000000; stroke-width: 2; fill: none;" d="M0,-10h13"></path><text fill="#000000" font-size="29" transform="translate(0,18)">2</text></g><g transform="translate(202)"><path style="stroke: #000000; stroke-width: 2; fill: none;" d="M6,-48a292,292,0,0,0,0,73"></path><g transform="translate(12)"><g><path style="stroke: #000000; stroke-width: 2; fill: none;" d="M12,-45h-6v70h6"></path><g transform="translate(12)"><g><text fill="#000000" font-size="29" transform="translate(1,-17)">1</text><path style="stroke: #000000; stroke-width: 2; fill: none;" d="M0,-10h13"></path><text fill="#000000" font-size="29" transform="translate(0,18)">2</text></g><text fill="#000000" font-size="29" x="16">+   C(V)</text></g><path style="stroke: #000000; stroke-width: 2; fill: none;" d="M127,-45h6v70h-6"></path></g><text fill="#000000" font-size="17" transform="translate(140,-31)">2</text><text fill="#000000" font-size="29" x="149">+</text><g transform="translate(166)"><path style="stroke: #000000; stroke-width: 2; fill: none;" d="M12,-45h-6v70h6"></path><g transform="translate(12)"><g><text fill="#000000" font-size="29" transform="translate(1,-17)">1</text><path style="stroke: #000000; stroke-width: 2; fill: none;" d="M0,-10h13"></path><text fill="#000000" font-size="29" transform="translate(0,18)">2</text></g><text fill="#000000" font-size="29" x="16">+S(V)</text></g><path style="stroke: #000000; stroke-width: 2; fill: none;" d="M102,-45h6v70h-6"></path></g><text fill="#000000" font-size="17" transform="translate(281,-31)">2</text></g><path style="stroke: #000000; stroke-width: 2; fill: none;" d="M309,-48a292,292,0,0,1,0,73"></path></g></g></g><g font-family="Arial" font-size="29" space="preserve"><g transform="translate(120,572)"><text fill="#000000" font-size="29">4)   F(t) =</text><g transform="translate(131)"><path style="stroke: #000000; stroke-width: 2; fill: none;" d="M29,-37h-29l12,15l-12,34h29"></path><text fill="#000000" font-size="17" transform="translate(-3,29)">i=-∞</text><text fill="#000000" font-size="17" transform="translate(7,-41)">∞</text></g><text fill="#000000" font-size="29" x="160">A(i)cos</text><g transform="translate(253)"><path style="stroke: #000000; stroke-width: 2; fill: none;" d="M12,-45h-6v70h6"></path><g transform="translate(12)"><text fill="#000000" font-size="29" transform="translate(13,-17)">i</text><path style="stroke: #000000; stroke-width: 2; fill: none;" d="M0,-10h31"></path><text fill="#000000" font-size="29" transform="translate(0,18)">t+i</text></g><path style="stroke: #000000; stroke-width: 2; fill: none;" d="M46,-45h6v70h-6"></path></g></g></g><g font-family="Arial" font-size="29" space="preserve"><g transform="translate(120,731)"><text fill="#000000" font-size="29">5)</text><text fill="#000000" font-size="17" transform="translate(62,-15)">7</text><text fill="#000000" font-size="17" transform="translate(62,6)">3</text><text fill="#000000" font-size="29" x="71">Li</text></g></g></g></svg>