<svg xmlns="http://www.w3.org/2000/svg" viewBox="0 0 1200 800" preserveAspectRatio="none" width="1200" height="800"><path d="M0,0H1200V800H0Z" style="fill: #ffffff;"></path><g><g transform="translate(60,160)" font-family="Arial" font-size="32" space="preserve" font-weight="bold"><path d="M1080,4h4v560h-1080v-4h1076z" style="fill: #000000; stroke: #000000; stroke-width: 1px;"></path><path d="M0,0H1080V560H0Z" style="fill: #f2f2f2; stroke: #000000; stroke-width: 1;"></path><g transform="translate(186,104) scale(0.205)"><g><text fill="#000000" font-size="159" transform="translate(43,-94)">2s</text><path style="stroke: #000000; stroke-width: 16; fill: none;" d="M0,-56h243"></path><g transform="translate(0,119)"><text fill="#000000" font-size="159">πα</text><text fill="#000000" font-size="95" transform="translate(204,-83)">2</text></g></g><g transform="translate(386)"><text fill="#000000" font-size="159" transform="translate(126,-94)">dσ</text><path style="stroke: #000000; stroke-width: 16; fill: none;" d="M0,-56h428"></path><text fill="#000000" font-size="159" transform="translate(0,97)">dcosθ</text></g><text fill="#000000" font-size="159" x="893">(e</text><text fill="#000000" font-size="95" transform="translate(1041,-83)">+</text><text fill="#000000" font-size="159" x="1099">e</text><text fill="#000000" font-size="95" transform="translate(1190,-83)">-</text><text fill="#000000" font-size="159" x="1287">→ f</text><g transform="translate(1554)"><text fill="#000000" font-size="159" text-decoration="overline">f</text></g><text fill="#000000" font-size="159" x="1673">) =</text><g transform="translate(1935)"><path style="stroke: #000000; stroke-width: 16; fill: none;" d="M32,-247v382"></path><g transform="translate(64)"><g transform="translate(64)"><text fill="#000000" font-size="159" transform="translate(175,-94)">1</text><path style="stroke: #000000; stroke-width: 16; fill: none;" d="M0,-56h420"></path><text fill="#000000" font-size="159" transform="translate(0,97)">1 - Δα</text></g></g><path style="stroke: #000000; stroke-width: 16; fill: none;" d="M660,-247v382"></path></g><text fill="#000000" font-size="95" transform="translate(2632,-171)">2</text><text fill="#000000" font-size="159" x="2750">(1+cos</text><text fill="#000000" font-size="95" transform="translate(3252,-83)">2</text><text fill="#000000" font-size="159" x="3306">θ)</text></g><g transform="translate(121,291) scale(0.205)"><text fill="#000000" font-size="159">+ 4 Re</text><g transform="translate(537)"><path style="stroke: #000000; stroke-width: 16; fill: none;" d="M64,-247a32,32,0,0,0,-32,32v127a32,32,0,0,1,-32,32a32,32,0,0,1,32,32v127a32,32,0,0,0,32,32"></path><g transform="translate(64)"><g transform="translate(64)"><text fill="#000000" font-size="159" transform="translate(172,-94)">2</text><path style="stroke: #000000; stroke-width: 16; fill: none;" d="M0,-56h420"></path><text fill="#000000" font-size="159" transform="translate(0,97)">1 - Δα</text></g><text fill="#000000" font-size="159" x="564">χ(s)</text><g transform="translate(911)"><path style="stroke: #000000; stroke-width: 16; fill: none;" d="M64,-175h-32v230h32"></path><g transform="translate(64)"><g><text fill="#000000" font-size="159" transform="translate(1)">g</text><path style="stroke: #000000; stroke-width: 16; fill: none;" d="M19,-114L48,-146L77,-114"></path></g><text fill="#000000" font-size="95" transform="translate(98,-83)">e</text><text fill="#000000" font-size="95" transform="translate(98,33)">ν</text><g transform="translate(150)"><text fill="#000000" font-size="159" transform="translate(1)">g</text><path style="stroke: #000000; stroke-width: 16; fill: none;" d="M19,-114L48,-146L77,-114"></path></g><text fill="#000000" font-size="95" transform="translate(248,-83)">f</text><text fill="#000000" font-size="95" transform="translate(248,33)">ν</text><text fill="#000000" font-size="159" x="361">(1 + cos</text><text fill="#000000" font-size="95" transform="translate(950,-83)">2</text><text fill="#000000" font-size="159" x="1004">θ) + 2</text><g transform="translate(1491)"><text fill="#000000" font-size="159" transform="translate(1)">g</text><path style="stroke: #000000; stroke-width: 16; fill: none;" d="M19,-114L48,-146L77,-114"></path></g><text fill="#000000" font-size="95" transform="translate(1589,-83)">e</text><text fill="#000000" font-size="95" transform="translate(1589,33)">a</text><g transform="translate(1642)"><text fill="#000000" font-size="159" transform="translate(1)">g</text><path style="stroke: #000000; stroke-width: 16; fill: none;" d="M19,-114L48,-146L77,-114"></path></g><text fill="#000000" font-size="95" transform="translate(1740,-83)">f</text><text fill="#000000" font-size="95" transform="translate(1740,33)">a</text><text fill="#000000" font-size="159" x="1857">cosθ)</text></g><path style="stroke: #000000; stroke-width: 16; fill: none;" d="M2391,-175h32v230h-32"></path></g></g><path style="stroke: #000000; stroke-width: 16; fill: none;" d="M3494,-247a32,32,0,0,1,32,32v127a32,32,0,0,0,32,32a32,32,0,0,0,-32,32v127a32,32,0,0,1,-32,32"></path></g></g><g transform="translate(77,479) scale(0.205)"><text fill="#000000" font-size="159">+ 16</text><g transform="translate(316)"><path style="stroke: #000000; stroke-width: 16; fill: none;" d="M32,-153v191"></path><text fill="#000000" font-size="159" transform="translate(64)">χ(s)</text><path style="stroke: #000000; stroke-width: 16; fill: none;" d="M379,-153v191"></path></g><text fill="#000000" font-size="95" transform="translate(732,-83)">2</text><g transform="translate(850)"><path style="stroke: #000000; stroke-width: 16; fill: none;" d="M64,-175h-32v231h32"></path><g transform="translate(64)"><text fill="#000000" font-size="159">(</text><g transform="translate(57)"><text fill="#000000" font-size="159" transform="translate(1)">g</text><path style="stroke: #000000; stroke-width: 16; fill: none;" d="M19,-114L48,-146L77,-114"></path></g><g transform="translate(155,-70)"><text fill="#000000" font-size="95">e</text><text fill="#000000" font-size="57" transform="translate(55,-50)">2</text></g><text fill="#000000" font-size="95" transform="translate(155,33)">a</text><text fill="#000000" font-size="159" x="306">+</text><g transform="translate(467)"><text fill="#000000" font-size="159" transform="translate(1)">g</text><path style="stroke: #000000; stroke-width: 16; fill: none;" d="M19,-114L48,-146L77,-114"></path></g><g transform="translate(565,-70)"><text fill="#000000" font-size="95">e</text><text fill="#000000" font-size="57" transform="translate(55,-50)">2</text></g><text fill="#000000" font-size="95" transform="translate(565,33)">v</text><text fill="#000000" font-size="159" x="652">)(</text><g transform="translate(766)"><text fill="#000000" font-size="159" transform="translate(1)">g</text><path style="stroke: #000000; stroke-width: 16; fill: none;" d="M19,-114L48,-146L77,-114"></path></g><g transform="translate(864,-70)"><text fill="#000000" font-size="95">f</text><text fill="#000000" font-size="57" transform="translate(45,-50)">2</text></g><text fill="#000000" font-size="95" transform="translate(864,33)">a</text><text fill="#000000" font-size="159" x="1005">+</text><g transform="translate(1166)"><text fill="#000000" font-size="159" transform="translate(1)">g</text><path style="stroke: #000000; stroke-width: 16; fill: none;" d="M19,-114L48,-146L77,-114"></path></g><g transform="translate(1264,-70)"><text fill="#000000" font-size="95">f</text><text fill="#000000" font-size="57" transform="translate(45,-50)">2</text></g><text fill="#000000" font-size="95" transform="translate(1264,33)">v</text><text fill="#000000" font-size="159" x="1341">)(1+cos</text><text fill="#000000" font-size="95" transform="translate(1901,-83)">2</text><text fill="#000000" font-size="159" x="1955">θ)+ 8</text><g transform="translate(2399)"><text fill="#000000" font-size="159" transform="translate(1)">g</text><path style="stroke: #000000; stroke-width: 16; fill: none;" d="M19,-114L48,-146L77,-114"></path></g><text fill="#000000" font-size="95" transform="translate(2497,-83)">e</text><text fill="#000000" font-size="95" transform="translate(2497,33)">a</text><g transform="translate(2614)"><text fill="#000000" font-size="159" transform="translate(1)">g</text><path style="stroke: #000000; stroke-width: 16; fill: none;" d="M19,-114L48,-146L77,-114"></path></g><text fill="#000000" font-size="95" transform="translate(2712,-83)">f</text><text fill="#000000" font-size="95" transform="translate(2712,33)">a</text><g transform="translate(2829)"><text fill="#000000" font-size="159" transform="translate(1)">g</text><path style="stroke: #000000; stroke-width: 16; fill: none;" d="M19,-114L48,-146L77,-114"></path></g><text fill="#000000" font-size="95" transform="translate(2927,-83)">e</text><text fill="#000000" font-size="95" transform="translate(2927,33)">v</text><g transform="translate(2979)"><text fill="#000000" font-size="159" transform="translate(1)">g</text><path style="stroke: #000000; stroke-width: 16; fill: none;" d="M19,-114L48,-146L77,-114"></path></g><text fill="#000000" font-size="95" transform="translate(3077,-83)">f</text><text fill="#000000" font-size="95" transform="translate(3077,33)">v</text><text fill="#000000" font-size="159" x="3127">cosθ</text></g><path style="stroke: #000000; stroke-width: 16; fill: none;" d="M3541,-175h32v231h-32"></path></g></g><g font-family="Arial" font-size="18" space="preserve" font-weight="bold"><path d="M270,-11h540v22h-540z" style="fill: #f2f2f2; stroke: #000000; stroke-width: 1;"></path><text fill="#000000" text-anchor="middle" dy=".4em" transform="translate(540)">Born equation</text></g></g></g></svg>