<svg xmlns="http://www.w3.org/2000/svg" viewBox="0 0 1200 800" preserveAspectRatio="none" width="1200" height="800"><path d="M0,0H1200V800H0Z" style="fill: #ffffff;"></path><g><svg viewBox="0 0 576 784" preserveAspectRatio="none" x="12" y="8" width="576" height="784"><path d="M0,0H576V784H0Z" style="fill: #ffffff;"></path><g><g transform="translate(58,78)"><path d="M0,0H461V627H0Z" style="fill: #ffffff; stroke: #000000; stroke-width: 1;"></path><g><g transform="translate(0,627)"><path d="M0,0h461M0,-24V0M12,-12V0M23,-12V0M35,-12V0M46,-24V0M58,-12V0M69,-12V0M81,-12V0M92,-24V0M104,-12V0M115,-12V0M127,-12V0M138,-24V0M150,-12V0M161,-12V0M173,-12V0M184,-24V0M196,-12V0M207,-12V0M219,-12V0M231,-24V0M242,-12V0M254,-12V0M265,-12V0M277,-24V0M288,-12V0M300,-12V0M311,-12V0M323,-24V0M334,-12V0M346,-12V0M357,-12V0M369,-24V0M380,-12V0M392,-12V0M403,-12V0M415,-24V0M426,-12V0M438,-12V0M449,-12V0M461,-24V0" style="stroke: #000000; stroke-width: 1;"></path><g font-family="Arial" font-size="17" space="preserve" fill="#000000" text-anchor="middle"><text dy=".8em" transform="translate(0,4)">-1</text><text dy=".8em" transform="translate(46,4)">-0.8</text><text dy=".8em" transform="translate(92,4)">-0.6</text><text dy=".8em" transform="translate(138,4)">-0.4</text><text dy=".8em" transform="translate(184,4)">-0.2</text><text dy=".8em" transform="translate(231,4)">0</text><text dy=".8em" transform="translate(277,4)">0.2</text><text dy=".8em" transform="translate(323,4)">0.4</text><text dy=".8em" transform="translate(369,4)">0.6</text><text dy=".8em" transform="translate(415,4)">0.8</text><text dy=".8em" transform="translate(461,4)">1</text></g></g><g><path d="M0,0v627M17,627H0M9,614H0M9,602H0M9,589H0M9,577H0M17,564H0M9,552H0M9,539H0M9,527H0M9,514H0M17,502H0M9,489H0M9,477H0M9,464H0M9,451H0M17,439H0M9,426H0M9,414H0M9,401H0M9,389H0M17,376H0M9,364H0M9,351H0M9,339H0M9,326H0M17,314H0M9,301H0M9,288H0M9,276H0M9,263H0M17,251H0M9,238H0M9,226H0M9,213H0M9,201H0M17,188H0M9,176H0M9,163H0M9,150H0M9,138H0M17,125H0M9,113H0M9,100H0M9,88H0M9,75H0M17,63H0M9,50H0M9,38H0M9,25H0M9,13H0M17,0H0" style="stroke: #000000; stroke-width: 1;"></path><g font-family="Arial" font-size="20" space="preserve" fill="#000000" text-anchor="end"><text dy=".4em" transform="translate(-4,627)">-2</text><text dy=".4em" transform="translate(-4,564)">-1.5</text><text dy=".4em" transform="translate(-4,502)">-1</text><text dy=".4em" transform="translate(-4,439)">-0.5</text><text dy=".4em" transform="translate(-4,376)">0</text><text dy=".4em" transform="translate(-4,314)">0.5</text><text dy=".4em" transform="translate(-4,251)">1</text><text dy=".4em" transform="translate(-4,188)">1.5</text><text dy=".4em" transform="translate(-4,125)">2</text><text dy=".4em" transform="translate(-4,63)">2.5</text><text dy=".4em" transform="translate(-4)">3</text></g></g><path d="M0,0v627M46,0v627M92,0v627M138,0v627M184,0v627M231,0v627M277,0v627M323,0v627M369,0v627M415,0v627M461,0v627" style="stroke: #000000; stroke-width: 1; stroke-dasharray: 1,2;"></path><path d="M0,627h461M0,564h461M0,502h461M0,439h461M0,376h461M0,314h461M0,251h461M0,188h461M0,125h461M0,63h461M0,0h461" style="stroke: #000000; stroke-width: 1; stroke-dasharray: 1,2;"></path></g></g><g transform="translate(58,4)" font-family="Arial" font-size="22" space="preserve"><text fill="#000000" text-anchor="middle" dy=".8em" transform="translate(231)">Associate Legendre Polynomials</text></g><g transform="translate(288,86)" font-family="Arial" font-size="19" space="preserve"><path d="M0,0H173V149H0Z" style="fill: #ffffff; stroke: #000000; stroke-width: 1;"></path><path d="M5,18H38" style="stroke: #000000; stroke-width: 2;"></path><g transform="translate(43,25) scale(0.783)"><text fill="#000000" font-size="25" x="10">P</text><text fill="#000000" font-size="15" transform="translate(27,-13)">1</text><text fill="#000000" font-size="15" transform="translate(27,5)">0</text><text fill="#000000" font-size="25" x="35">(x)</text></g><path d="M5,46H38" style="stroke: #ff0000; stroke-width: 2;"></path><g transform="translate(43,53) scale(0.783)"><text fill="#000000" font-size="25" x="10">P</text><text fill="#000000" font-size="15" transform="translate(27,-13)">1</text><text fill="#000000" font-size="15" transform="translate(27,5)">1</text><text fill="#000000" font-size="25" x="34">(x)</text></g><path d="M5,75H38" style="stroke: #00ff00; stroke-width: 2;"></path><g transform="translate(43,81) scale(0.783)"><text fill="#000000" font-size="25" x="10">P</text><text fill="#000000" font-size="15" transform="translate(27,-13)">2</text><text fill="#000000" font-size="15" transform="translate(27,5)">0</text><text fill="#000000" font-size="25" x="35">(x)</text></g><path d="M5,103H38" style="stroke: #0000ff; stroke-width: 2;"></path><g transform="translate(43,110) scale(0.783)"><text fill="#000000" font-size="25" x="10">P</text><text fill="#000000" font-size="15" transform="translate(27,-13)">2</text><text fill="#000000" font-size="15" transform="translate(27,5)">1</text><text fill="#000000" font-size="25" x="35">(x)</text></g><path d="M5,131H38" style="stroke: #ffff00; stroke-width: 2;"></path><g transform="translate(43,138) scale(0.783)"><text fill="#000000" font-size="25" x="10">P</text><text fill="#000000" font-size="15" transform="translate(27,-13)">2</text><text fill="#000000" font-size="15" transform="translate(27,5)">2</text><text fill="#000000" font-size="25" x="35">(x)</text></g></g></g></svg><svg viewBox="0 0 576 784" preserveAspectRatio="none" x="612" y="8" width="576" height="784"><path d="M0,0H576V784H0Z" style="fill: #ffffff;"></path><g><g transform="translate(58,78)"><path d="M0,0H461V627H0Z" style="fill: #ffffff; stroke: #000000; stroke-width: 1;"></path><g><g transform="translate(0,627)"><path d="M0,0h461M10,-24V0M25,-12V0M40,-12V0M54,-12V0M69,-12V0M84,-24V0M98,-12V0M113,-12V0M128,-12V0M142,-12V0M157,-24V0M172,-12V0M186,-12V0M201,-12V0M216,-12V0M231,-24V0M245,-12V0M260,-12V0M275,-12V0M289,-12V0M304,-24V0M319,-12V0M333,-12V0M348,-12V0M363,-12V0M377,-24V0M392,-12V0M407,-12V0M421,-12V0M436,-12V0M451,-24V0" style="stroke: #000000; stroke-width: 1;"></path><g font-family="Arial" font-size="20" space="preserve" fill="#000000" text-anchor="middle"><text dy=".8em" transform="translate(10,4)">-3</text><text dy=".8em" transform="translate(84,4)">-2</text><text dy=".8em" transform="translate(157,4)">-1</text><text dy=".8em" transform="translate(231,4)">0</text><text dy=".8em" transform="translate(304,4)">1</text><text dy=".8em" transform="translate(377,4)">2</text><text dy=".8em" transform="translate(451,4)">3</text></g></g><g><path d="M0,0v627M17,627H0M9,611H0M9,596H0M9,580H0M17,564H0M9,549H0M9,533H0M9,517H0M17,502H0M9,486H0M9,470H0M9,455H0M17,439H0M9,423H0M9,408H0M9,392H0M17,376H0M9,361H0M9,345H0M9,329H0M17,314H0M9,298H0M9,282H0M9,266H0M17,251H0M9,235H0M9,219H0M9,204H0M17,188H0M9,172H0M9,157H0M9,141H0M17,125H0M9,110H0M9,94H0M9,78H0M17,63H0M9,47H0M9,31H0M9,16H0M17,0H0" style="stroke: #000000; stroke-width: 1;"></path><g font-family="Arial" font-size="20" space="preserve" fill="#000000" text-anchor="end"><text dy=".4em" transform="translate(-4,627)">-1</text><text dy=".4em" transform="translate(-4,564)">-0.8</text><text dy=".4em" transform="translate(-4,502)">-0.6</text><text dy=".4em" transform="translate(-4,439)">-0.4</text><text dy=".4em" transform="translate(-4,376)">-0.2</text><text dy=".4em" transform="translate(-4,314)">0</text><text dy=".4em" transform="translate(-4,251)">0.2</text><text dy=".4em" transform="translate(-4,188)">0.4</text><text dy=".4em" transform="translate(-4,125)">0.6</text><text dy=".4em" transform="translate(-4,63)">0.8</text><text dy=".4em" transform="translate(-4)">1</text></g></g><path d="M10,0v627M84,0v627M157,0v627M231,0v627M304,0v627M377,0v627M451,0v627" style="stroke: #000000; stroke-width: 1; stroke-dasharray: 1,2;"></path><path d="M0,627h461M0,564h461M0,502h461M0,439h461M0,376h461M0,314h461M0,251h461M0,188h461M0,125h461M0,63h461M0,0h461" style="stroke: #000000; stroke-width: 1; stroke-dasharray: 1,2;"></path></g></g><g transform="translate(58,4)" font-family="Arial" font-size="22" space="preserve"><text fill="#000000" text-anchor="middle" dy=".8em" transform="translate(231)">Spherical Legendre Polynomials</text></g><g transform="translate(288,86)" font-family="Arial" font-size="19" space="preserve"><path d="M0,0H173V149H0Z" style="fill: #ffffff; stroke: #000000; stroke-width: 1;"></path><path d="M5,18H38" style="stroke: #000000; stroke-width: 2;"></path><g transform="translate(43,25) scale(0.783)"><text fill="#000000" font-size="25" x="10">P</text><text fill="#000000" font-size="15" transform="translate(27,-13)">1</text><text fill="#000000" font-size="15" transform="translate(27,5)">0</text><text fill="#000000" font-size="25" x="35">(x)</text></g><path d="M5,46H38" style="stroke: #ff0000; stroke-width: 2;"></path><g transform="translate(43,53) scale(0.783)"><text fill="#000000" font-size="25" x="10">P</text><text fill="#000000" font-size="15" transform="translate(27,-13)">1</text><text fill="#000000" font-size="15" transform="translate(27,5)">1</text><text fill="#000000" font-size="25" x="34">(x)</text></g><path d="M5,75H38" style="stroke: #00ff00; stroke-width: 2;"></path><g transform="translate(43,81) scale(0.783)"><text fill="#000000" font-size="25" x="10">P</text><text fill="#000000" font-size="15" transform="translate(27,-13)">2</text><text fill="#000000" font-size="15" transform="translate(27,5)">0</text><text fill="#000000" font-size="25" x="35">(x)</text></g><path d="M5,103H38" style="stroke: #0000ff; stroke-width: 2;"></path><g transform="translate(43,110) scale(0.783)"><text fill="#000000" font-size="25" x="10">P</text><text fill="#000000" font-size="15" transform="translate(27,-13)">2</text><text fill="#000000" font-size="15" transform="translate(27,5)">1</text><text fill="#000000" font-size="25" x="35">(x)</text></g><path d="M5,131H38" style="stroke: #ffff00; stroke-width: 2;"></path><g transform="translate(43,138) scale(0.783)"><text fill="#000000" font-size="25" x="10">P</text><text fill="#000000" font-size="15" transform="translate(27,-13)">2</text><text fill="#000000" font-size="15" transform="translate(27,5)">2</text><text fill="#000000" font-size="25" x="35">(x)</text></g></g></g></svg></g></svg>