<svg xmlns="http://www.w3.org/2000/svg" viewBox="0 0 1200 800" preserveAspectRatio="none" width="1200" height="800"><path d="M0,0H1200V800H0Z" style="fill: #84c1a3;"></path><g><svg viewBox="0 0 564 240" preserveAspectRatio="none" x="36" y="64" width="564" height="240"><path d="M0,0H564V240H0Z" style="fill: #829e8c;"></path><g><g transform="translate(56,24)"><path d="M0,0H451V192H0Z" style="fill: #829e8c; stroke: #000000; stroke-width: 1;"></path><svg x="0" y="0" overflow="hidden" width="451" height="192" viewBox="0 0 451 192"><g><path d="M3,157l4,-54l5,-24l4,-16l5,-11l4,-8l5,-5l4,-4l5,-2l4,-1l5,1l4,1l5,3l4,3l5,5l4,5l5,7l4,7l5,7l4,8l5,9l4,7l5,7l4,5l5,3h4l5,-3l4,-4l5,-5l4,-5l5,-6l4,-4l5,-5l4,-4l5,-3l4,-2l5,-2l4,-1l5,-1h4h5l4,1h5l4,1l5,1l4,1l5,1l4,1l5,1h5h4h5l4,-1l5,-1h4l5,-1l4,-1h5l4,-1h5h4h5l4,1l5,1l4,1l5,2l4,1l5,2l4,2l5,1l4,2l5,1l4,1l5,1h4h5l4,-1l5,-2l4,-2l5,-2l4,-2l5,-2l4,-3l5,-2l4,-1l5,-2l4,-1l5,-1l4,-1h5h4l5,1l4,1l5,1l4,2l5,2l4,2l5,3l4,2l5,3" style="fill: none; stroke: #ff0000; stroke-width: 1;"></path></g><g><path d="M3,72h4l5,2l4,4l5,6l4,7l5,5l4,-2l5,-5l4,-7l5,-6l4,-3l5,-1h4h5h4h5l4,-1l5,-2l4,-4l5,-4l4,-4l5,-1l4,1l5,4l4,4l5,4l4,2l5,1h4h5h4h5l4,1l5,3l4,6l5,6l4,6l5,2l4,-5l5,-7l4,-6l5,-4l4,-2h5h4h5h4l5,-1l5,-1l4,-3l5,-5l4,-4l5,-2h4l5,3l4,4l5,4l4,3l5,2h4h5h4h5l4,1l5,2l4,4l5,7l4,6l5,4l4,-2l5,-7l4,-6l5,-5l4,-3l5,-1h4h5h4h5l4,-1l5,-3l4,-4l5,-4l4,-3l5,-1l4,1l5,4l4,5l5,3l4,2l5,1h4h5h4h5l4,2l5,3l4,6l5,7" style="fill: none; stroke: #00ff00; stroke-width: 1;"></path></g><g><path d="M3,117l4,5l5,1l4,-3l5,-5l4,-7l5,-8l4,-7l5,-8l4,-6l5,-6l4,-5l5,-5l4,-3l5,-3l4,-1l5,-2h4h5l4,1l5,1l4,2l5,3l4,2l5,3l4,4l5,3l4,3l5,3l4,2l5,2l4,1l5,1h4l5,-1l4,-2l5,-2l4,-2l5,-2l4,-2l5,-2l4,-1l5,-2l4,-1h5l4,-1h5h4l5,1h5l4,1l5,1h4l5,1h4h5h4l5,-1l4,-1l5,-1l4,-1l5,-1l4,-1l5,-1l4,-1l5,-1h4h5l4,1l5,1l4,1l5,2l4,2l5,3l4,4l5,4l4,4l5,4l4,4l5,3l4,3l5,1l4,1l5,-2l4,-3l5,-4l4,-5l5,-5l4,-5l5,-6l4,-5l5,-4l4,-4l5,-4l4,-2l5,-2l4,-1l5,-1h4l5,2" style="fill: none; stroke: #0000ff; stroke-width: 1;"></path></g></svg><g><g transform="translate(0,192)"><path d="M0,0h451M0,-7V0M11,-4V0M23,-4V0M34,-4V0M45,-7V0M56,-4V0M68,-4V0M79,-4V0M90,-7V0M101,-4V0M113,-4V0M124,-4V0M135,-7V0M147,-4V0M158,-4V0M169,-4V0M180,-7V0M192,-4V0M203,-4V0M214,-4V0M226,-7V0M237,-4V0M248,-4V0M259,-4V0M271,-7V0M282,-4V0M293,-4V0M304,-4V0M316,-7V0M327,-4V0M338,-4V0M350,-4V0M361,-7V0M372,-4V0M383,-4V0M395,-4V0M406,-7V0M417,-4V0M428,-4V0M440,-4V0M451,-7V0" style="stroke: #000000; stroke-width: 1;"></path><g font-family="Arial" font-size="8" space="preserve" fill="#000000" text-anchor="middle"><text dy=".8em" transform="translate(0,1)">-10</text><text dy=".8em" transform="translate(45,1)">-8</text><text dy=".8em" transform="translate(90,1)">-6</text><text dy=".8em" transform="translate(135,1)">-4</text><text dy=".8em" transform="translate(180,1)">-2</text><text dy=".8em" transform="translate(226,1)">0</text><text dy=".8em" transform="translate(271,1)">2</text><text dy=".8em" transform="translate(316,1)">4</text><text dy=".8em" transform="translate(361,1)">6</text><text dy=".8em" transform="translate(406,1)">8</text><text dy=".8em" transform="translate(451,1)">10</text></g></g><g><path d="M0,0v192M17,174H0M17,154H0M17,139H0M17,128H0M17,118H0M17,111H0M17,104H0M17,98H0M17,92H0M17,57H0M17,37H0M17,22H0M17,11H0M17,2H0" style="stroke: #000000; stroke-width: 1;"></path><g font-family="Arial" font-size="8" space="preserve" fill="#000000" text-anchor="end"><text dy=".4em" transform="translate(-2,174)">2</text><text dy=".4em" transform="translate(-2,154)">3</text><text dy=".4em" transform="translate(-2,139)">4</text><text dy=".4em" transform="translate(-2,128)">5</text><text dy=".4em" transform="translate(-2,118)">6</text><text dy=".4em" transform="translate(-2,111)">7</text><text dy=".4em" transform="translate(-2,104)">8</text><text dy=".4em" transform="translate(-2,98)">9</text><text dy=".4em" transform="translate(-2,92)">10</text><text dy=".4em" transform="translate(-2,57)">20</text><text dy=".4em" transform="translate(-2,37)">30</text><text dy=".4em" transform="translate(-2,22)">40</text><text dy=".4em" transform="translate(-2,11)">50</text><text dy=".4em" transform="translate(-2,2)">60</text></g></g><path d="M0,174h451M0,154h451M0,139h451M0,128h451M0,118h451M0,111h451M0,104h451M0,98h451M0,92h451M0,57h451M0,37h451M0,22h451M0,11h451M0,2h451" style="stroke: #000000; stroke-width: 1; stroke-dasharray: 1,2;"></path></g></g><g transform="translate(56,1)" font-family="Arial" font-size="12" space="preserve"><text fill="#000000" text-anchor="middle" dy=".8em" transform="translate(226)">x*sin(x)*exp(-0.1*x)+15</text></g><g transform="translate(147,142)" font-family="Arial" font-size="15" space="preserve" fill="#000000" text-anchor="start"><path d="M271,4h4v56h-271v-4h267z" style="fill: #000000; stroke: #000000; stroke-width: 1px;"></path><path d="M0,0H271V56H0Z" style="fill: #ddba87; stroke: #000000; stroke-width: 1;"></path><text dy=".4em" transform="translate(14,14)">Log scale along Y axis.</text><text dy=".4em" transform="translate(14,42)">More Log labels requested.</text></g></g></svg><svg viewBox="0 0 564 240" preserveAspectRatio="none" x="612" y="64" width="564" height="240"><path d="M0,0H564V240H0Z" style="fill: #adbcc6;"></path><g><g transform="translate(56,24)"><path d="M0,0H451V192H0Z" style="fill: #adbcc6; stroke: #000000; stroke-width: 1;"></path><svg x="0" y="0" overflow="hidden" width="451" height="192" viewBox="0 0 451 192"><g><path d="M105,115l83,-109l59,7l46,55l37,-15l17,47l15,-79l3,114l49,-20l21,-6" style="stroke: #000000; stroke-width: 1; fill: none;"></path><path d="M101,111l8,8m0,-8l-8,8m0,-4h8m-4,-4v8M184,2l8,8m0,-8l-8,8m0,-4h8m-4,-4v8M243,9l8,8m0,-8l-8,8m0,-4h8m-4,-4v8M289,64l8,8m0,-8l-8,8m0,-4h8m-4,-4v8M326,49l8,8m0,-8l-8,8m0,-4h8m-4,-4v8M343,96l8,8m0,-8l-8,8m0,-4h8m-4,-4v8M358,17l8,8m0,-8l-8,8m0,-4h8m-4,-4v8M361,131l8,8m0,-8l-8,8m0,-4h8m-4,-4v8M410,111l8,8m0,-8l-8,8m0,-4h8m-4,-4v8M431,105l8,8m0,-8l-8,8m0,-4h8m-4,-4v8" style="stroke: #ff0000; fill: none;"></path></g></svg><g><g transform="translate(0,192)"><path d="M0,0h451M105,-7V0M188,-7V0M247,-7V0M293,-7V0M330,-7V0M362,-7V0M389,-7V0M414,-7V0M435,-7V0" style="stroke: #000000; stroke-width: 1;"></path><g font-family="Arial" font-size="8" space="preserve"><g transform="translate(95,10)"><text fill="#000000" font-size="8">2×10</text><text fill="#000000" font-size="5" transform="translate(17,-4)">2</text></g><g transform="translate(178,10)"><text fill="#000000" font-size="8">3×10</text><text fill="#000000" font-size="5" transform="translate(17,-4)">2</text></g><g transform="translate(237,10)"><text fill="#000000" font-size="8">4×10</text><text fill="#000000" font-size="5" transform="translate(17,-4)">2</text></g><g transform="translate(283,10)"><text fill="#000000" font-size="8">5×10</text><text fill="#000000" font-size="5" transform="translate(17,-4)">2</text></g><g transform="translate(320,10)"><text fill="#000000" font-size="8">6×10</text><text fill="#000000" font-size="5" transform="translate(17,-4)">2</text></g><g transform="translate(352,10)"><text fill="#000000" font-size="8">7×10</text><text fill="#000000" font-size="5" transform="translate(17,-4)">2</text></g><g transform="translate(379,10)"><text fill="#000000" font-size="8">8×10</text><text fill="#000000" font-size="5" transform="translate(17,-4)">2</text></g><g transform="translate(404,10)"><text fill="#000000" font-size="8">9×10</text><text fill="#000000" font-size="5" transform="translate(17,-4)">2</text></g><g transform="translate(430,10)"><text fill="#000000" font-size="8">10</text><text fill="#000000" font-size="5" transform="translate(8,-4)">3</text></g></g></g><g><path d="M0,0v192M17,187H0M17,178H0M17,170H0M17,163H0M17,115H0M17,88H0M17,68H0M17,53H0M17,40H0M17,30H0M17,21H0M17,13H0M17,6H0" style="stroke: #000000; stroke-width: 1;"></path><g font-family="Arial" font-size="8" space="preserve" fill="#000000" text-anchor="end"><text dy=".4em" transform="translate(-2,187)">70</text><text dy=".4em" transform="translate(-2,178)">80</text><text dy=".4em" transform="translate(-2,170)">90</text><text dy=".4em" transform="translate(-2,163)">100</text><text dy=".4em" transform="translate(-2,115)">200</text><text dy=".4em" transform="translate(-2,88)">300</text><text dy=".4em" transform="translate(-2,68)">400</text><text dy=".4em" transform="translate(-2,53)">500</text><text dy=".4em" transform="translate(-2,40)">600</text><text dy=".4em" transform="translate(-2,30)">700</text><text dy=".4em" transform="translate(-2,21)">800</text><text dy=".4em" transform="translate(-2,13)">900</text><text dy=".4em" transform="translate(-2,6)">1000</text></g></g><path d="M105,0v192M188,0v192M247,0v192M293,0v192M330,0v192M362,0v192M389,0v192M414,0v192M435,0v192" style="stroke: #000000; stroke-width: 1; stroke-dasharray: 1,2;"></path></g></g><g transform="translate(56,1)" font-family="Arial" font-size="12" space="preserve"><text fill="#000000" text-anchor="middle" dy=".8em" transform="translate(226)">Graph</text></g><g transform="translate(102,147)" font-family="Arial" font-size="12" space="preserve" fill="#000000" text-anchor="start"><path d="M247,4h4v55h-247v-4h243z" style="fill: #000000; stroke: #000000; stroke-width: 1px;"></path><path d="M0,0H247V55H0Z" style="fill: #ddba87; stroke: #000000; stroke-width: 1;"></path><text dy=".4em" transform="translate(12,9)">Log scale along X and Y axis.</text><text dy=".4em" transform="translate(12,28)">More Log labels on both.</text><text dy=".4em" transform="translate(12,46)">No exponent along Y axis.</text></g></g></svg><svg viewBox="0 0 1128 412" preserveAspectRatio="none" x="36" y="372" width="1128" height="412"><path d="M0,0H1128V412H0Z" style="fill: #7c99d1;"></path><g><g transform="translate(113,41)"><path d="M0,0H902V330H0Z" style="fill: #7c99d1; stroke: #000000; stroke-width: 1;"></path><svg x="0" y="0" overflow="hidden" width="902" height="330" viewBox="0 0 902 330"><g><path d="M3,115h4h5h4h5h4h5h4h5h4h5h4h5h4l5,1h4h5h4h5h4h5h4h5h4h5h4h5h4h5h4h5h4h5h4h5h4h5h4h5h4h5l4,-1h5h4h5h4h5h4h5l5,-1h4h5h4l5,-1h4h5h4l5,-1h4h5l4,-1h5h4l5,-1h4l5,-1h4l5,-1h4l5,-1h4l5,-1h4l5,-1h4l5,-1h4l5,-1h4l5,-1l4,-1h5l4,-1h5l4,-1h5l4,-1h5h4l5,-1h4l5,-1h4h5h4h5h4h5h4h5h5l4,1h5h4l5,1l4,1l5,1l4,1l5,1l4,1l5,1l4,2l5,1l4,2l5,2l4,2l5,2l4,2l5,3l4,2l5,2l4,3l5,2l4,3l5,2l4,2l5,3l4,1l5,2l4,1l5,1h4h5l4,-1l5,-1l4,-2l5,-2l4,-3l5,-4l4,-4l5,-4l4,-4l5,-5l4,-4l5,-5l4,-4l5,-5l4,-4l5,-3l5,-4l4,-2l5,-3l4,-1l5,-2h4h5l4,2l5,2l4,2l5,4l4,5l5,6l4,7l5,8l4,10l5,10l4,11l5,12l4,11l5,9l4,7l5,3l4,-2l5,-6l4,-11l5,-13l4,-15l5,-15l4,-14l5,-12l4,-11l5,-10l4,-7l5,-5l4,-3h5l4,2l5,5l4,8l5,11l4,16l5,20l4,26l5,31l4,35l5,33l4,14l5,-17l4,-37l5,-53" style="fill: none; stroke: #ff0000; stroke-width: 1;"></path></g><g><path d="M3,111h4h5h4h5h4h5h4h5h4l5,1h4h5h4h5h4h5h4h5h4l5,1h4h5h4h5h4h5h4h5l4,1h5h4h5h4h5h4h5h4h5h4h5h4h5h4h5h4h5h4h5h5h4h5h4l5,-1h4h5h4l5,-1h4h5l4,-1h5h4l5,-1h4l5,-1h4l5,-1h4h5l4,-1h5l4,-1h5h4l5,-1h4h5h4h5l4,-1h5l4,1h5h4h5l4,1h5l4,1h5l4,1l5,1l4,1l5,1l4,1l5,1l4,1l5,1l4,1l5,1l5,1l4,1l5,1h4l5,1h4h5l4,-1h5l4,-1l5,-2l4,-1l5,-2l4,-1l5,-2l4,-2l5,-2l4,-2l5,-2l4,-1l5,-1l4,-1l5,-1h4h5l4,1l5,1l4,2l5,2l4,3l5,3l4,3l5,4l4,3l5,3l4,2l5,1l4,1l5,-1l4,-2l5,-3l4,-4l5,-4l4,-4l5,-5l4,-4l5,-3l4,-3l5,-1h5l4,1l5,3l4,4l5,6l4,6l5,7l4,6l5,5l4,3h5l4,-4l5,-6l4,-8l5,-9l4,-8l5,-6l4,-4l5,-1l4,2l5,4l4,8l5,10l4,12l5,10l4,7l5,1l4,-7l5,-12l4,-14l5,-12l4,-9l5,-5l4,1l5,7l4,12l5,16l4,18l5,12l4,1l5,-13l4,-20l5,-19l4,-13l5,-6l4,3l5,12l4,21l5,26l4,18l5,-10" style="fill: none; stroke: #ff0000; stroke-width: 1;"></path></g><g><path d="M3,115h4h5h4h5h4h5h4h5h4h5h4h5h4l5,1h4h5h4h5h4h5h4h5h4h5h4h5h4h5h4h5h4h5h4h5h4h5h4h5h4h5l4,-1h5h4h5h4h5h4h5l5,-1h4h5h4l5,-1h4h5h4l5,-1h4h5l4,-1h5h4l5,-1h4l5,-1h4l5,-1h4l5,-1h4l5,-1h4l5,-1h4l5,-1h4l5,-1h4l5,-1l4,-1h5l4,-1h5l4,-1h5l4,-1h5h4l5,-1h4l5,-1h4h5h4h5h4h5h4h5h5l4,1h5h4l5,1l4,1l5,1l4,1l5,1l4,1l5,1l4,2l5,1l4,2l5,2l4,2l5,2l4,2l5,3l4,2l5,2l4,3l5,2l4,3l5,2l4,2l5,3l4,1l5,2l4,1l5,1h4h5l4,-1l5,-1l4,-2l5,-2l4,-3l5,-4l4,-4l5,-4l4,-4l5,-5l4,-4l5,-5l4,-4l5,-5l4,-4l5,-3l5,-4l4,-2l5,-3l4,-1l5,-2h4h5l4,2l5,2l4,2l5,4l4,5l5,6l4,7l5,8l4,10l5,10l4,11l5,12l4,11l5,9l4,7l5,3l4,-2l5,-6l4,-11l5,-13l4,-15l5,-15l4,-14l5,-12l4,-11l5,-10l4,-7l5,-5l4,-3h5l4,2l5,5l4,8l5,11l4,16l5,20l4,26l5,31l4,35l5,33l4,14l5,-17l4,-37l5,-53" style="fill: none; stroke: #84c1a3; stroke-width: 1;"></path></g><g><path d="M3,111h5h4h5h5h5h4h5h5l5,1h4h5h5h5h5h4h5h5h5l4,1h5h5h5h4h5h5h5l5,1h4h5h5h5h4h5h5h5h4h5h5h5h4h5h5h5h5h4h5h5h5h4l5,-1h5h5h4l5,-1h5h5l5,-1h4l5,-1h5h5l4,-1h5l5,-1h5l4,-1h5l5,-1h5h5l4,-1h5h5h5l4,-1h5h5l5,1h4h5l5,1h5l5,1h4l5,1l5,1l5,1l4,1l5,1l5,1l5,1l4,2l5,1l5,1l5,1l5,1h4l5,1h5h5l4,-1h5l5,-1l5,-2l4,-1l5,-2l5,-2l5,-2l5,-2l4,-2l5,-2l5,-1l5,-2l4,-1l5,-1h5h5l4,1l5,1l5,2l5,2l4,3l5,3l5,4l5,3l5,4l4,2l5,3l5,1h5l4,-2l5,-2l5,-4l5,-5l4,-4l5,-5l5,-5l5,-3l5,-3l4,-1h5l5,2l5,3l4,5l5,6l5,7l5,7l4,6l5,4l5,1l5,-3l5,-6l4,-8l5,-9l5,-8l5,-7l4,-4l5,-1l5,2l5,6l4,8l5,12l5,12l5,10l5,4l4,-3l5,-11l5,-14l5,-14l4,-10l5,-6h5l5,6l4,13l5,17l5,18l5,12l5,-2l4,-16l5,-22l5,-18l5,-11l4,-2l5,9l5,18l5,26l4,24l5,3l5,-23l5,-29l5,-23l4,-9l5,5l5,21l5,35l4,32l5,-5l5,-38l5,-44" style="fill: none; stroke: #d35954; stroke-width: 1;"></path></g><g><path d="M3,115h4h5h4h5h4h5h4h5h4h5h4h5h4h5h4h5h4h5l4,1h5h4h5h4h5h4h5h4h5h4h5h4h5h4h5h4h5h4l5,-1h4h5h4h5h4h5h4h5l4,-1h5h5h4h5h4l5,-1h4h5h4l5,-1h4h5l4,-1h5h4l5,-1h4l5,-1h4l5,-1h4h5l4,-1h5l4,-1h5l4,-1h5l4,-1l5,-1h4l5,-1h4l5,-1h4l5,-1h4l5,-1h4h5l4,-1h5l4,-1h5h4h5h4l5,-1h4h5h4l5,1h5h4l5,1h4l5,1h4l5,1l4,1l5,1l4,1l5,2l4,1l5,2l4,1l5,2l4,2l5,2l4,2l5,2l4,2l5,3l4,2l5,2l4,3l5,2l4,2l5,2l4,2l5,1l4,1l5,1h4h5l4,-1l5,-1l4,-2l5,-2l4,-3l5,-3l4,-4l5,-4l4,-4l5,-4l4,-4l5,-5l4,-4l5,-4l4,-4l5,-3l5,-3l4,-3l5,-2l4,-2l5,-1h4h5l4,1l5,2l4,3l5,3l4,5l5,6l4,7l5,7l4,9l5,10l4,10l5,11l4,10l5,9l4,6l5,3l4,-2l5,-6l4,-10l5,-12l4,-14l5,-13l4,-14l5,-12l4,-10l5,-9l4,-7l5,-5l4,-3l5,-1l4,3l5,4l4,8l5,11l4,15l5,19l4,24l5,29l4,31l5,28l4,11l5,-14l4,-32l5,-47" style="fill: none; stroke: #afcec6; stroke-width: 1;"></path></g><g><path d="M3,111h5h4h5h5h5h4h5h5h5l4,1h5h5h5h5h4h5h5h5h4l5,1h5h5h4h5h5h5h5h4l5,1h5h5h4h5h5h5h4h5h5h5h4h5h5h5h5h4h5h5h5l4,-1h5h5h5l4,-1h5h5h5l5,-1h4l5,-1h5h5l4,-1h5l5,-1h5l4,-1h5h5l5,-1h5h4l5,-1h5h5h4h5h5h5h4h5l5,1h5l5,1l4,1h5l5,1l5,1l4,1l5,1l5,1l5,1l4,1l5,1l5,1l5,1l5,1l4,1h5h5h5h4l5,-1l5,-1l5,-1l4,-1l5,-2l5,-2l5,-2l5,-2l4,-2l5,-1l5,-2l5,-1l4,-1l5,-1h5h5h4l5,2l5,1l5,3l4,2l5,3l5,4l5,3l5,3l4,3l5,2l5,1h5l4,-2l5,-2l5,-4l5,-4l4,-4l5,-5l5,-4l5,-4l5,-2l4,-1h5l5,1l5,4l4,4l5,6l5,7l5,6l4,6l5,4l5,1l5,-3l5,-5l4,-8l5,-9l5,-7l5,-7l4,-4l5,-1l5,2l5,5l4,9l5,10l5,12l5,9l5,4l4,-3l5,-10l5,-13l5,-13l4,-10l5,-6h5l5,6l4,12l5,16l5,18l5,11l5,-3l4,-15l5,-20l5,-17l5,-11l4,-2l5,9l5,17l5,25l4,22l5,3l5,-21l5,-28l5,-22l4,-9l5,5l5,21l5,32l4,30l5,-4l5,-36l5,-42" style="fill: none; stroke: #936870; stroke-width: 1;"></path></g><g><path d="M3,114h4h5h4l5,1h4h5h4h5h4h5h4h5h4h5h4h5h4h5h4h5h4h5h4h5h4h5h4h5h4h5h4h5h4h5h4h5h4h5h4h5h4h5h4h5h4l5,-1h4h5h5h4h5l4,-1h5h4h5l4,-1h5h4h5l4,-1h5h4l5,-1h4l5,-1h4h5l4,-1h5l4,-1h5l4,-1h5l4,-1h5l4,-1h5l4,-1h5l4,-1h5l4,-1h5l4,-1h5h4l5,-1h4l5,-1h4h5h4l5,-1h4h5h4h5h4h5l5,1h4h5l4,1h5l4,1l5,1l4,1l5,1l4,1l5,1l4,1l5,2l4,1l5,2l4,2l5,2l4,2l5,2l4,2l5,2l4,2l5,2l4,2l5,3l4,2l5,1l4,2l5,1l4,1l5,1h4h5l4,-1l5,-1l4,-1l5,-3l4,-2l5,-3l4,-4l5,-3l4,-4l5,-4l4,-4l5,-4l4,-4l5,-4l4,-4l5,-3l5,-3l4,-3l5,-2l4,-2l5,-1h4h5l4,1l5,2l4,3l5,3l4,5l5,5l4,7l5,7l4,9l5,9l4,9l5,10l4,9l5,8l4,6l5,2l4,-1l5,-6l4,-8l5,-12l4,-12l5,-13l4,-13l5,-11l4,-10l5,-9l4,-7l5,-4l4,-3l5,-1l4,2l5,5l4,8l5,10l4,15l5,18l4,22l5,26l4,28l5,23l4,10l5,-12l4,-27l5,-42" style="fill: none; stroke: #876656; stroke-width: 1;"></path></g><g><path d="M3,111h5h4h5h5h5h4h5h5h5l4,1h5h5h5h5h4h5h5h5h4l5,1h5h5h4h5h5h5h5h4h5l5,1h5h4h5h5h5h4h5h5h5h4h5h5h5h5h4h5h5l5,-1h4h5h5h5l4,-1h5h5l5,-1h5h4l5,-1h5h5l4,-1h5l5,-1h5h4l5,-1h5l5,-1h5h4h5l5,-1h5h4h5h5h5h4l5,1h5l5,1h5l4,1h5l5,1l5,1l4,1l5,1l5,1l5,1l4,1l5,1l5,1l5,1l5,1h4l5,1h5h5l4,-1h5l5,-1l5,-1l4,-2l5,-1l5,-2l5,-2l5,-2l4,-1l5,-2l5,-2l5,-1l4,-1l5,-1h5h5l4,1l5,1l5,2l5,2l4,2l5,3l5,3l5,3l5,3l4,3l5,2l5,1h5l4,-1l5,-3l5,-3l5,-4l4,-4l5,-5l5,-4l5,-3l5,-2l4,-2l5,1l5,1l5,3l4,5l5,5l5,6l5,7l4,5l5,4h5l5,-2l5,-5l4,-7l5,-8l5,-8l5,-6l4,-4l5,-1l5,2l5,5l4,8l5,10l5,11l5,9l5,4l4,-4l5,-9l5,-12l5,-13l4,-9l5,-6h5l5,6l4,11l5,16l5,16l5,10l5,-2l4,-14l5,-19l5,-16l5,-11l4,-1l5,8l5,17l5,23l4,20l5,2l5,-19l5,-26l5,-21l4,-8l5,5l5,19l5,31l4,27l5,-4l5,-33l5,-39" style="fill: none; stroke: #a5777a; stroke-width: 1;"></path></g><g><path d="M3,114h4h5h4h5h4h5h4l5,1h4h5h4h5h4h5h4h5h4h5h4h5h4h5h4h5h4h5h4h5h4h5h4h5h4h5h4h5h4h5h4h5h4h5h4l5,-1h4h5h4h5h5h4l5,-1h4h5h4h5l4,-1h5h4h5l4,-1h5h4l5,-1h4h5l4,-1h5l4,-1h5l4,-1h5h4l5,-1h4l5,-1h4l5,-1h4l5,-1h4l5,-1h4l5,-1h4h5l4,-1h5l4,-1h5h4l5,-1h4h5h4h5h4h5h4h5h5l4,1h5h4l5,1l4,1h5l4,1l5,1l4,1l5,1l4,1l5,2l4,1l5,2l4,2l5,1l4,2l5,2l4,2l5,2l4,2l5,2l4,2l5,2l4,2l5,2l4,1l5,2l4,1h5h4h5h4l5,-1l4,-2l5,-2l4,-2l5,-3l4,-3l5,-4l4,-4l5,-3l4,-4l5,-4l4,-4l5,-4l4,-3l5,-3l5,-3l4,-3l5,-2l4,-1l5,-1l4,-1l5,1l4,1l5,2l4,2l5,3l4,5l5,5l4,6l5,7l4,8l5,8l4,9l5,9l4,9l5,7l4,5l5,3l4,-2l5,-5l4,-8l5,-10l4,-12l5,-12l4,-12l5,-10l4,-10l5,-8l4,-7l5,-4l4,-3h5l4,1l5,5l4,7l5,10l4,14l5,17l4,21l5,24l4,24l5,20l4,8l5,-10l4,-23l5,-38" style="fill: none; stroke: #9b8e82; stroke-width: 1;"></path></g><g><path d="M3,111h5h4h5h5h5h4h5h5h5h4l5,1h5h5h5h4h5h5h5h4h5l5,1h5h4h5h5h5h5h4h5h5h5l4,1h5h5h5h4h5h5h5h4h5h5h5h5h4h5l5,-1h5h4h5h5h5l4,-1h5h5l5,-1h5h4l5,-1h5h5l4,-1h5h5l5,-1h4l5,-1h5h5l5,-1h4h5h5h5l4,-1h5h5l5,1h4h5h5l5,1h5l4,1l5,1h5l5,1l4,1l5,1l5,1l5,1l4,1l5,1l5,1l5,1h5l4,1h5h5h5h4l5,-1l5,-1l5,-1l4,-1l5,-1l5,-2l5,-2l5,-1l4,-2l5,-2l5,-1l5,-1l4,-1l5,-1h5h5h4l5,2l5,1l5,2l4,3l5,2l5,3l5,3l5,3l4,2l5,2l5,1h5l4,-1l5,-2l5,-4l5,-3l4,-4l5,-4l5,-4l5,-3l5,-3l4,-1h5l5,2l5,3l4,4l5,5l5,6l5,6l4,5l5,3l5,1l5,-2l5,-5l4,-7l5,-7l5,-8l5,-5l4,-4l5,-1l5,2l5,5l4,7l5,10l5,10l5,8l5,4l4,-3l5,-9l5,-12l5,-11l4,-9l5,-6h5l5,6l4,11l5,14l5,15l5,10l5,-2l4,-13l5,-18l5,-16l5,-9l4,-2l5,8l5,16l5,22l4,18l5,3l5,-18l5,-25l5,-19l4,-9l5,5l5,18l5,29l4,26l5,-4l5,-30l5,-38" style="fill: none; stroke: #aa8e93; stroke-width: 1;"></path></g><g><path d="M3,114h4h5h4h5h4h5h4h5h4h5h4h5l4,1h5h4h5h4h5h4h5h4h5h4h5h4h5h4h5h4h5h4h5h4h5h4h5h4h5h4h5h4l5,-1h4h5h4h5h4h5h5l4,-1h5h4h5h4l5,-1h4h5h4l5,-1h4h5h4l5,-1h4h5l4,-1h5l4,-1h5h4l5,-1h4l5,-1h4h5l4,-1h5l4,-1h5l4,-1h5l4,-1h5h4l5,-1h4l5,-1h4h5l4,-1h5h4h5h4h5l4,-1l5,1h4h5h5h4l5,1h4h5l4,1l5,1l4,1h5l4,1l5,2l4,1l5,1l4,1l5,2l4,1l5,2l4,2l5,2l4,2l5,1l4,2l5,2l4,2l5,2l4,2l5,1l4,2l5,1l4,1h5l4,1l5,-1h4l5,-1l4,-2l5,-1l4,-3l5,-2l4,-3l5,-4l4,-3l5,-4l4,-3l5,-4l4,-4l5,-3l4,-3l5,-3l5,-3l4,-2l5,-2l4,-2l5,-1h4h5l4,1l5,2l4,2l5,4l4,4l5,5l4,5l5,7l4,7l5,8l4,9l5,8l4,8l5,6l4,5l5,2l4,-1l5,-5l4,-7l5,-10l4,-10l5,-12l4,-11l5,-10l4,-9l5,-8l4,-6l5,-4l4,-3h5l4,1l5,5l4,7l5,9l4,13l5,16l4,20l5,21l4,22l5,18l4,6l5,-8l4,-20l5,-35" style="fill: none; stroke: #ad998c; stroke-width: 1;"></path></g><g><path d="M3,111h5h4h5h5h5h4h5h5h5h4l5,1h5h5h5h4h5h5h5h4h5h5h5l4,1h5h5h5h5h4h5h5h5h4h5h5l5,1h4h5h5h5h4h5h5h5h5l4,-1h5h5h5h4h5h5l5,-1h4h5h5l5,-1h5h4l5,-1h5h5l4,-1h5h5l5,-1h4h5l5,-1h5h5l4,-1h5h5h5h4h5h5h5h4h5l5,1h5h5l4,1l5,1h5l5,1l4,1l5,1l5,1l5,1l4,1l5,1h5l5,1l5,1h4l5,1h5h5l4,-1h5l5,-1l5,-1l4,-1l5,-2l5,-1l5,-2l5,-1l4,-2l5,-1l5,-2l5,-1l4,-1l5,-1h5h5l4,1l5,1l5,2l5,1l4,3l5,2l5,3l5,3l5,2l4,3l5,1l5,1h5l4,-1l5,-2l5,-3l5,-4l4,-3l5,-4l5,-4l5,-3l5,-2l4,-1h5l5,2l5,2l4,4l5,5l5,6l5,5l4,5l5,3l5,1l5,-2l5,-5l4,-6l5,-7l5,-7l5,-6l4,-3l5,-1l5,2l5,4l4,7l5,9l5,10l5,8l5,3l4,-3l5,-8l5,-11l5,-11l4,-9l5,-4h5l5,5l4,10l5,14l5,14l5,9l5,-2l4,-12l5,-17l5,-15l5,-9l4,-1l5,7l5,15l5,20l4,18l5,2l5,-17l5,-23l5,-18l4,-8l5,4l5,18l5,27l4,23l5,-3l5,-28l5,-36" style="fill: none; stroke: #ce5e60; stroke-width: 1;"></path></g><g><path d="M3,114h4h5h4h5h4h5h4h5h4h5h4h5h4h5h4h5h4h5h4l5,1h4h5h4h5h4h5h4h5h4h5h4h5h4h5h4h5l4,-1h5h4h5h4h5h4h5h4h5h4h5l5,-1h4h5h4h5h4l5,-1h4h5h4l5,-1h4h5h4l5,-1h4h5l4,-1h5h4l5,-1h4l5,-1h4h5l4,-1h5l4,-1h5h4l5,-1h4l5,-1h4l5,-1h4h5l4,-1h5h4l5,-1h4h5h4l5,-1h4h5h4h5h4h5l5,1h4h5l4,1h5l4,1h5l4,1l5,1l4,1l5,1l4,1l5,1l4,1l5,2l4,1l5,2l4,2l5,1l4,2l5,2l4,2l5,1l4,2l5,2l4,1l5,2l4,1l5,1l4,1l5,1h4h5l4,-1l5,-1l4,-1l5,-2l4,-2l5,-2l4,-3l5,-3l4,-3l5,-4l4,-3l5,-4l4,-3l5,-3l4,-3l5,-3l5,-3l4,-2l5,-2l4,-1l5,-1l4,-1l5,1l4,1l5,1l4,3l5,3l4,4l5,4l4,6l5,6l4,7l5,7l4,8l5,7l4,7l5,6l4,4l5,2l4,-1l5,-4l4,-6l5,-9l4,-10l5,-10l4,-10l5,-10l4,-9l5,-7l4,-6l5,-4l4,-3h5l4,1l5,5l4,6l5,9l4,13l5,15l4,17l5,20l4,19l5,16l4,5l5,-7l4,-18l5,-30" style="fill: none; stroke: #b7a39b; stroke-width: 1;"></path></g><g><path d="M3,111h5h4h5h5h5h4h5h5h5h4h5l5,1h5h5h4h5h5h5h4h5h5h5h4l5,1h5h5h5h4h5h5h5h4h5h5h5h4h5h5h5h4h5h5h5h5h4h5h5h5h4h5h5l5,-1h4h5h5l5,-1h5h4l5,-1h5h5l4,-1h5h5l5,-1h4h5l5,-1h5h5h4l5,-1h5h5h4h5h5h5h4l5,1h5h5l5,1h4l5,1h5l5,1l4,1l5,1l5,1l5,1h4l5,1l5,1l5,1h5l4,1h5h5h5h4l5,-1h5l5,-1l4,-1l5,-2l5,-1l5,-2l5,-1l4,-2l5,-1l5,-1l5,-2h4l5,-1h5h5l4,1h5l5,2l5,2l4,2l5,2l5,3l5,2l5,3l4,2l5,1l5,1h5l4,-1l5,-2l5,-2l5,-4l4,-3l5,-4l5,-3l5,-3l5,-2l4,-1h5l5,1l5,3l4,4l5,4l5,5l5,5l4,5l5,3h5l5,-1l5,-5l4,-6l5,-6l5,-7l5,-5l4,-3l5,-1l5,2l5,4l4,7l5,8l5,9l5,7l5,3l4,-2l5,-8l5,-10l5,-10l4,-9l5,-4h5l5,5l4,9l5,13l5,13l5,8l5,-1l4,-11l5,-16l5,-14l5,-9l4,-1l5,7l5,14l5,19l4,16l5,2l5,-15l5,-22l5,-17l4,-8l5,5l5,16l5,26l4,21l5,-3l5,-26l5,-33" style="fill: none; stroke: #bf8277; stroke-width: 1;"></path></g><g><path d="M3,114h4h5h4h5h4h5h4h5h4h5h4h5h4h5h4h5h4h5h4h5h4h5h4h5h4h5h4h5h4h5h4h5h4h5h4h5h4h5h4h5h4h5h4h5h4h5h4l5,-1h5h4h5h4h5l4,-1h5h4h5h4l5,-1h4h5h4l5,-1h4h5l4,-1h5h4l5,-1h4h5l4,-1h5h4l5,-1h4l5,-1h4h5l4,-1h5l4,-1h5h4l5,-1h4h5l4,-1h5h4h5l4,-1h5h4h5h4h5h4h5h5l4,1h5h4l5,1h4l5,1l4,1h5l4,1l5,1l4,1l5,1l4,2l5,1l4,1l5,2l4,1l5,2l4,1l5,2l4,2l5,1l4,2l5,2l4,1l5,1l4,2l5,1h4l5,1h4h5l4,-1l5,-1l4,-1l5,-1l4,-2l5,-2l4,-3l5,-3l4,-3l5,-3l4,-3l5,-3l4,-4l5,-3l4,-3l5,-2l5,-3l4,-2l5,-2l4,-1l5,-1h4h5l4,1l5,2l4,2l5,3l4,3l5,5l4,5l5,6l4,6l5,7l4,7l5,7l4,6l5,6l4,3l5,2l4,-1l5,-4l4,-6l5,-7l4,-9l5,-10l4,-9l5,-10l4,-8l5,-7l4,-5l5,-4l4,-3h5l4,2l5,3l4,7l5,9l4,11l5,14l4,16l5,18l4,17l5,13l4,5l5,-6l4,-15l5,-28" style="fill: none; stroke: #b2a596; stroke-width: 1;"></path></g><g><path d="M3,111h5h4h5h5h5h4h5h5h5h4h5h5l5,1h5h4h5h5h5h4h5h5h5h4h5l5,1h5h5h4h5h5h5h4h5h5h5h4h5h5h5h4h5h5h5h5h4h5h5h5h4h5l5,-1h5h4h5h5l5,-1h5h4l5,-1h5h5h4l5,-1h5h5l4,-1h5h5l5,-1h5h4h5h5l5,-1h4h5h5h5l4,1h5h5h5l5,1h4l5,1l5,1h5l4,1l5,1l5,1h5l4,1l5,1l5,1h5l5,1h4l5,1h5h5l4,-1h5l5,-1l5,-1l4,-1l5,-1l5,-1l5,-2l5,-1l4,-1l5,-2l5,-1l5,-1l4,-1h5l5,-1l5,1h4l5,1l5,1l5,2l4,2l5,2l5,3l5,2l5,2l4,2l5,2h5h5l4,-1l5,-1l5,-3l5,-3l4,-3l5,-4l5,-3l5,-2l5,-2l4,-1h5l5,1l5,2l4,4l5,4l5,5l5,5l4,4l5,3h5l5,-2l5,-4l4,-5l5,-6l5,-6l5,-5l4,-3l5,-1l5,1l5,5l4,6l5,8l5,8l5,7l5,2l4,-2l5,-7l5,-9l5,-10l4,-8l5,-4h5l5,5l4,9l5,12l5,12l5,7l5,-1l4,-10l5,-15l5,-13l5,-8l4,-2l5,7l5,13l5,18l4,15l5,1l5,-14l5,-20l5,-16l4,-7l5,4l5,16l5,23l4,20l5,-3l5,-24l5,-31" style="fill: none; stroke: #c6997c; stroke-width: 1;"></path></g><g><path d="M3,113h4h5h4h5l4,1h5h4h5h4h5h4h5h4h5h4h5h4h5h4h5h4h5h4h5h4h5h4h5h4h5h4h5h4h5h4h5h4h5h4h5h4h5h4h5h4l5,-1h4h5h5h4h5h4h5l4,-1h5h4h5h4l5,-1h4h5h4l5,-1h4h5h4l5,-1h4h5l4,-1h5h4l5,-1h4l5,-1h4h5l4,-1h5h4l5,-1h4h5l4,-1h5h4l5,-1h4h5l4,-1h5h4h5h4h5h4h5h4h5h5h4l5,1h4h5l4,1h5l4,1l5,1l4,1h5l4,1l5,2l4,1l5,1l4,1l5,1l4,2l5,1l4,2l5,1l4,2l5,1l4,2l5,1l4,2l5,1l4,1l5,1l4,1h5h4h5h4l5,-1l4,-1l5,-2l4,-1l5,-3l4,-2l5,-2l4,-3l5,-3l4,-3l5,-3l4,-3l5,-3l4,-3l5,-2l5,-2l4,-2l5,-2l4,-1l5,-1h4h5l4,1l5,1l4,2l5,3l4,3l5,4l4,5l5,6l4,5l5,7l4,6l5,6l4,6l5,5l4,3l5,2l4,-1l5,-3l4,-6l5,-7l4,-8l5,-9l4,-8l5,-9l4,-8l5,-6l4,-6l5,-3l4,-3h5l4,2l5,3l4,6l5,9l4,10l5,13l4,15l5,16l4,15l5,12l4,4l5,-5l4,-14l5,-24" style="fill: none; stroke: #bab5a3; stroke-width: 1;"></path></g><g><path d="M3,111h5h4h5h5h5h4h5h5h5h4h5h5l5,1h5h4h5h5h5h4h5h5h5h4h5h5h5l5,1h4h5h5h5h4h5h5h5h4h5h5h5h4h5h5h5h5h4h5h5h5h4l5,-1h5h5h4h5h5l5,-1h5h4h5l5,-1h5h4l5,-1h5h5l4,-1h5h5h5l5,-1h4h5h5h5h4h5h5h5h4h5h5l5,1h5l4,1h5l5,1h5l4,1l5,1h5l5,1l4,1l5,1h5l5,1h5l4,1h5h5h5h4l5,-1h5l5,-1l4,-1l5,-1l5,-1l5,-2l5,-1l4,-1l5,-1l5,-2l5,-1h4l5,-1h5h5l4,1h5l5,2l5,1l4,2l5,2l5,2l5,3l5,2l4,1l5,2h5h5l4,-1l5,-1l5,-2l5,-3l4,-3l5,-3l5,-3l5,-3l5,-2l4,-1l5,1l5,1l5,2l4,3l5,4l5,5l5,4l4,4l5,2l5,1l5,-2l5,-3l4,-5l5,-6l5,-6l5,-4l4,-3l5,-1l5,1l5,4l4,6l5,8l5,7l5,6l5,3l4,-2l5,-7l5,-8l5,-9l4,-8l5,-4h5l5,5l4,8l5,11l5,11l5,7l5,-1l4,-10l5,-13l5,-12l5,-8l4,-1l5,6l5,12l5,17l4,13l5,2l5,-13l5,-18l5,-16l4,-7l5,4l5,15l5,22l4,17l5,-2l5,-22l5,-29" style="fill: none; stroke: #bc9e82; stroke-width: 1;"></path></g><g><path d="M3,113h4h5h4h5h4h5h4h5h4h5l4,1h5h4h5h4h5h4h5h4h5h4h5h4h5h4h5h4h5h4h5h4h5h4h5h4h5h4h5h4h5h4h5l4,-1h5h4h5h4h5h5h4h5h4l5,-1h4h5h4h5h4l5,-1h4h5h4l5,-1h4h5h4l5,-1h4h5l4,-1h5h4l5,-1h4h5l4,-1h5h4l5,-1h4h5l4,-1h5h4l5,-1h4h5h4l5,-1h4h5h4h5h4l5,-1h4h5h4l5,1h5h4h5l4,1h5h4l5,1l4,1h5l4,1l5,1l4,1l5,1l4,1l5,1l4,1l5,1l4,2l5,1l4,1l5,2l4,1l5,1l4,2l5,1l4,1l5,1l4,1l5,1l4,1h5h4h5h4l5,-1l4,-1l5,-1l4,-2l5,-2l4,-2l5,-2l4,-3l5,-2l4,-3l5,-3l4,-3l5,-2l4,-3l5,-2l5,-2l4,-2l5,-2l4,-1l5,-1h4h5l4,1l5,2l4,1l5,3l4,3l5,4l4,4l5,5l4,6l5,6l4,5l5,6l4,5l5,5l4,3l5,1l4,-1l5,-3l4,-5l5,-6l4,-7l5,-8l4,-8l5,-8l4,-7l5,-7l4,-5l5,-3l4,-2l5,-1l4,2l5,3l4,6l5,8l4,10l5,12l4,13l5,15l4,13l5,10l4,3l5,-4l4,-12l5,-22" style="fill: none; stroke: #c1bfa8; stroke-width: 1;"></path></g><g><path d="M3,111h5h4h5h5h5h4h5h5h5h4h5h5h5l5,1h4h5h5h5h4h5h5h5h4h5h5h5h5h4l5,1h5h5h4h5h5h5h4h5h5h5h4h5h5h5h5h4h5h5h5l4,-1h5h5h5h4h5l5,-1h5h5h4h5l5,-1h5h4l5,-1h5h5h4l5,-1h5h5h5l4,-1h5h5h5h4h5h5h5h4h5l5,1h5h5l4,1h5l5,1h5l4,1l5,1h5l5,1l4,1h5l5,1h5l5,1h4l5,1h5h5l4,-1h5l5,-1h5l4,-1l5,-1l5,-1l5,-2l5,-1l4,-1l5,-1l5,-1l5,-1l4,-1h5h5h5h4l5,1l5,1l5,1l4,2l5,2l5,2l5,2l5,2l4,2l5,1l5,1l5,-1h4l5,-2l5,-2l5,-2l4,-3l5,-3l5,-3l5,-2l5,-2l4,-1h5l5,1l5,3l4,3l5,3l5,4l5,4l4,4l5,2l5,1l5,-2l5,-3l4,-5l5,-5l5,-5l5,-4l4,-3l5,-1l5,1l5,4l4,5l5,7l5,7l5,6l5,2l4,-2l5,-6l5,-8l5,-8l4,-7l5,-4h5l5,5l4,7l5,11l5,10l5,6l5,-1l4,-9l5,-12l5,-11l5,-8l4,-1l5,6l5,12l5,15l4,12l5,1l5,-11l5,-17l5,-14l4,-7l5,4l5,13l5,21l4,15l5,-2l5,-19l5,-27" style="fill: none; stroke: #ddba87; stroke-width: 1;"></path></g><g><path d="M3,113h4h5h4h5h4h5h4h5h4h5h4h5h4h5h4h5h4h5h4l5,1h4h5h4h5h4h5h4h5h4h5h4h5h4h5h4h5l4,-1h5h4h5h4h5h4h5h4h5h4h5h5h4l5,-1h4h5h4h5h4h5l4,-1h5h4h5h4l5,-1h4h5h4l5,-1h4h5h4l5,-1h4h5l4,-1h5h4l5,-1h4h5h4l5,-1h4h5l4,-1h5h4h5l4,-1h5h4h5l4,-1h5h4h5h4h5h4h5h5l4,1h5h4l5,1h4l5,1h4l5,1h4l5,1l4,1l5,1l4,1l5,1l4,1l5,1l4,1l5,1l4,2l5,1l4,1l5,2l4,1l5,1l4,1l5,1l4,1l5,1h4l5,1h4h5l4,-1h5l4,-1l5,-1l4,-2l5,-2l4,-2l5,-2l4,-2l5,-2l4,-3l5,-2l4,-3l5,-2l4,-3l5,-2l5,-2l4,-2l5,-1l4,-1l5,-1h4h5l4,1l5,1l4,2l5,2l4,3l5,4l4,4l5,4l4,5l5,5l4,6l5,5l4,4l5,4l4,3l5,1l4,-1l5,-2l4,-4l5,-6l4,-7l5,-7l4,-7l5,-8l4,-6l5,-6l4,-5l5,-3l4,-2h5l4,1l5,3l4,6l5,7l4,9l5,11l4,12l5,13l4,12l5,8l4,3l5,-4l4,-10l5,-19" style="fill: none; stroke: #ccc6aa; stroke-width: 1;"></path></g><g><path d="M3,111h5h4h5h5h5h4h5h5h5h4h5h5h5h5l4,1h5h5h5h4h5h5h5h4h5h5h5h5h4h5h5h5l4,1h5h5h5h4h5h5h5h4h5h5h5h5h4h5l5,-1h5h4h5h5h5h4h5l5,-1h5h5h4h5l5,-1h5h4h5l5,-1h5h4h5l5,-1h5h5h4h5l5,-1h5h4h5h5h5h4l5,1h5h5h5l4,1h5l5,1h5l4,1l5,1h5l5,1h4l5,1l5,1h5l5,1h4h5h5h5h4h5l5,-1l5,-1h4l5,-1l5,-1l5,-2l5,-1l4,-1l5,-1l5,-1l5,-1h4l5,-1h5h5l4,1h5l5,1l5,2l4,1l5,2l5,2l5,2l5,2l4,1l5,1l5,1h5l4,-1l5,-1l5,-2l5,-3l4,-2l5,-3l5,-2l5,-3l5,-1l4,-1h5l5,1l5,2l4,3l5,3l5,4l5,4l4,3l5,2h5l5,-1l5,-3l4,-4l5,-5l5,-5l5,-4l4,-2l5,-1l5,1l5,4l4,5l5,6l5,6l5,5l5,2l4,-1l5,-6l5,-7l5,-7l4,-7l5,-3h5l5,3l4,8l5,9l5,9l5,6l5,-1l4,-8l5,-11l5,-10l5,-7l4,-1l5,5l5,11l5,14l4,10l5,2l5,-11l5,-15l5,-13l4,-6l5,3l5,13l5,18l4,14l5,-2l5,-17l5,-25" style="fill: none; stroke: #d3ce87; stroke-width: 1;"></path></g><g><path d="M3,113h4h5h4h5h4h5h4h5h4h5h4h5h4h5h4h5h4h5h4h5h4h5h4h5h4h5h4h5h4h5h4h5h4h5h4h5h4h5h4h5h4h5h4h5h4h5h4h5h5l4,-1h5h4h5h4h5h4h5l4,-1h5h4h5h4l5,-1h4h5h4h5l4,-1h5h4h5l4,-1h5h4l5,-1h4h5h4l5,-1h4h5l4,-1h5h4h5l4,-1h5h4h5h4l5,-1h4h5h4h5h4h5h4h5h5h4l5,1h4h5l4,1h5l4,1h5l4,1h5l4,1l5,1l4,1l5,1l4,1l5,1l4,1l5,1l4,1l5,1l4,1l5,2l4,1l5,1l4,1l5,1h4l5,1l4,1h5h4h5h4l5,-1l4,-1l5,-1l4,-1l5,-2l4,-1l5,-2l4,-2l5,-3l4,-2l5,-2l4,-2l5,-3l4,-2l5,-2l5,-2l4,-1l5,-2l4,-1h5l4,-1l5,1h4l5,1l4,2l5,2l4,3l5,3l4,4l5,4l4,5l5,4l4,5l5,5l4,4l5,3l4,2l5,1h4l5,-2l4,-4l5,-5l4,-6l5,-7l4,-6l5,-7l4,-6l5,-5l4,-5l5,-3l4,-2h5l4,1l5,3l4,5l5,7l4,8l5,10l4,11l5,12l4,10l5,7l4,3l5,-4l4,-8l5,-17" style="fill: none; stroke: #ccc6aa; stroke-width: 1;"></path></g><g><path d="M3,111h5h4h5h5h5h4h5h5h5h4h5h5h5h5h4l5,1h5h5h4h5h5h5h4h5h5h5h5h4h5h5h5h4h5h5h5l4,1h5h5h5h4h5h5h5l5,-1h4h5h5h5h4h5h5h5h4h5l5,-1h5h5h4h5l5,-1h5h4h5l5,-1h5h4h5h5l5,-1h5h4h5h5h5h4h5h5h5h4h5h5h5l5,1h4h5l5,1h5l4,1h5l5,1l5,1h4l5,1h5l5,1h5h4l5,1h5h5l4,-1h5h5l5,-1l4,-1l5,-1l5,-1l5,-1l5,-1l4,-1l5,-1h5l5,-1l4,-1h5h5h5h4l5,1l5,1l5,1l4,1l5,2l5,2l5,1l5,2l4,1l5,1l5,1h5l4,-1l5,-1l5,-2l5,-2l4,-2l5,-3l5,-2l5,-2l5,-1l4,-1h5l5,1l5,2l4,2l5,3l5,4l5,3l4,3l5,2h5l5,-1l5,-3l4,-4l5,-4l5,-4l5,-4l4,-2l5,-1l5,1l5,3l4,5l5,6l5,5l5,5l5,2l4,-2l5,-4l5,-7l5,-7l4,-6l5,-3h5l5,3l4,7l5,9l5,8l5,5l5,-1l4,-7l5,-10l5,-10l5,-6l4,-1l5,5l5,10l5,12l4,10l5,1l5,-9l5,-14l5,-12l4,-5l5,3l5,11l5,17l4,13l5,-2l5,-16l5,-23" style="fill: none; stroke: #aaa5bf; stroke-width: 1;"></path></g><g><path d="M3,113h4h5h4h5h4h5h4h5h4h5h4h5h4h5h4h5h4h5h4h5h4h5h4h5h4h5h4h5h4h5h4h5h4h5h4h5h4h5h4h5h4h5h4h5h4h5h4l5,-1h5h4h5h4h5h4h5h4l5,-1h4h5h4h5h4l5,-1h4h5h4h5l4,-1h5h4h5h4l5,-1h4h5h4l5,-1h4h5l4,-1h5h4h5l4,-1h5h4h5h4l5,-1h4h5h4h5h4h5h4h5h4h5h5h4h5l4,1h5h4l5,1h4l5,1h4l5,1h4l5,1l4,1l5,1l4,1l5,1l4,1l5,1l4,1l5,1l4,1l5,1l4,1l5,1h4l5,1l4,1l5,1h4h5h4h5h4h5l4,-1l5,-1l4,-1l5,-2l4,-1l5,-2l4,-2l5,-2l4,-2l5,-2l4,-2l5,-2l4,-2l5,-2l5,-1l4,-2l5,-1l4,-1l5,-1h4h5l4,1l5,1l4,2l5,1l4,3l5,3l4,3l5,4l4,4l5,4l4,4l5,4l4,4l5,3l4,2l5,1l4,-1l5,-2l4,-3l5,-4l4,-6l5,-5l4,-6l5,-6l4,-6l5,-5l4,-4l5,-3l4,-1l5,-1l4,2l5,2l4,5l5,6l4,8l5,9l4,9l5,10l4,9l5,6l4,2l5,-2l4,-8l5,-14" style="fill: none; stroke: #f2f2f2; stroke-width: 1;"></path></g><g><path d="M3,111h5h4h5h5h5h4h5h5h5h4h5h5h5h5h4h5h5l5,1h4h5h5h5h4h5h5h5h5h4h5h5h5h4h5h5h5h4h5h5h5h4h5h5h5h5h4h5h5h5h4h5h5h5h4l5,-1h5h5h5h4h5l5,-1h5h4h5h5l5,-1h4h5h5h5l5,-1h4h5h5h5h4h5h5h5h4h5h5l5,1h5h4l5,1h5h5l4,1h5l5,1h5l4,1h5l5,1h5l5,1h4h5h5h5h4h5l5,-1h5l4,-1l5,-1l5,-1h5l5,-1l4,-1l5,-1l5,-1l5,-1h4l5,-1h5h5l4,1h5l5,1l5,1l4,2l5,1l5,2l5,1l5,1l4,2l5,1h5h5l4,-1l5,-1l5,-1l5,-2l4,-2l5,-2l5,-3l5,-1l5,-2h4h5l5,1l5,1l4,3l5,2l5,3l5,3l4,3l5,2h5l5,-1l5,-2l4,-4l5,-4l5,-4l5,-3l4,-2l5,-1l5,1l5,3l4,4l5,5l5,5l5,4l5,2l4,-1l5,-4l5,-6l5,-7l4,-5l5,-3h5l5,3l4,6l5,8l5,8l5,4l5,-1l4,-6l5,-9l5,-9l5,-5l4,-1l5,4l5,9l5,11l4,9l5,1l5,-8l5,-13l5,-11l4,-5l5,3l5,11l5,15l4,11l5,-2l5,-14l5,-20" style="fill: none; stroke: #7f7f9b; stroke-width: 1;"></path></g><g><path d="M3,112h4h5h4h5h4h5l4,1h5h4h5h4h5h4h5h4h5h4h5h4h5h4h5h4h5h4h5h4h5h4h5h4h5h4h5h4h5h4h5h4h5h4h5h4l5,-1h4h5h4h5h5h4h5h4h5h4h5h4l5,-1h4h5h4h5h4h5l4,-1h5h4h5h4l5,-1h4h5h4h5l4,-1h5h4h5l4,-1h5h4h5l4,-1h5h4h5h4l5,-1h4h5h4h5h4h5h4l5,-1h4h5h4l5,1h5h4h5h4h5l4,1h5l4,1h5l4,1h5l4,1h5l4,1l5,1l4,1h5l4,1l5,1l4,1l5,1l4,1l5,1l4,1h5l4,1l5,1l4,1h5h4l5,1h4h5l4,-1h5l4,-1h5l4,-1l5,-2l4,-1l5,-2l4,-1l5,-2l4,-2l5,-2l4,-1l5,-2l4,-2l5,-2l5,-1l4,-2l5,-1h4l5,-1h4h5l4,1l5,1l4,1l5,2l4,2l5,3l4,3l5,3l4,3l5,4l4,4l5,3l4,3l5,3l4,2h5h4l5,-2l4,-2l5,-4l4,-5l5,-5l4,-5l5,-6l4,-5l5,-4l4,-4l5,-2l4,-2h5l4,1l5,3l4,4l5,5l4,7l5,8l4,9l5,8l4,8l5,5l4,2l5,-3l4,-6l5,-13" style="fill: none; stroke: #e5e5e5; stroke-width: 1;"></path></g><g><path d="M3,111h5h4h5h5h5h4h5h5h5h4h5h5h5h5h4h5h5h5h4l5,1h5h5h4h5h5h5h5h4h5h5h5h4h5h5h5h4h5h5h5h4h5h5h5h5h4h5h5h5h4h5h5h5l4,-1h5h5h5h5h4h5l5,-1h5h4h5h5h5l4,-1h5h5h5h5h4l5,-1h5h5h4h5h5h5h4h5l5,1h5h5h4l5,1h5h5l4,1h5l5,1h5l4,1h5l5,1h5h5h4l5,1h5h5l4,-1h5h5l5,-1h4l5,-1l5,-1h5l5,-1l4,-1l5,-1l5,-1h5l4,-1h5h5h5h4l5,1l5,1l5,1l4,1l5,1l5,1l5,2l5,1l4,1l5,1h5h5h4l5,-1l5,-2l5,-1l4,-2l5,-2l5,-2l5,-2l5,-1h4h5h5l5,2l4,2l5,2l5,3l5,3l4,2l5,1l5,1l5,-1l5,-2l4,-3l5,-4l5,-3l5,-3l4,-2l5,-1l5,1l5,3l4,4l5,4l5,5l5,3l5,2l4,-2l5,-3l5,-5l5,-6l4,-5l5,-2h5l5,2l4,6l5,7l5,6l5,4l5,-1l4,-5l5,-8l5,-8l5,-5l4,-1l5,4l5,8l5,10l4,8h5l5,-7l5,-11l5,-9l4,-5l5,3l5,9l5,13l4,10l5,-1l5,-12l5,-19" style="fill: none; stroke: #7c99d1; stroke-width: 1;"></path></g><g><path d="M3,112h4h5h4h5h4h5h4h5h4h5h4h5h4h5h4h5h4h5h4l5,1h4h5h4h5h4h5h4h5h4h5h4h5h4h5h4h5l4,-1h5h4h5h4h5h4h5h4h5h4h5h5h4h5h4h5h4h5l4,-1h5h4h5h4h5h4h5l4,-1h5h4h5h4h5l4,-1h5h4h5h4l5,-1h4h5h4h5l4,-1h5h4h5h4l5,-1h4h5h4h5h4h5l4,-1h5h4h5h4h5h4h5h5l4,1h5h4h5h4l5,1h4l5,1h4h5l4,1l5,1h4l5,1l4,1h5l4,1l5,1l4,1h5l4,1l5,1l4,1h5l4,1l5,1h4l5,1h4h5h4h5h4h5l4,-1l5,-1l4,-1l5,-1l4,-1l5,-1l4,-2l5,-1l4,-2l5,-1l4,-2l5,-2l4,-1l5,-2l5,-1l4,-1l5,-1l4,-1h5h4h5h4l5,1l4,1l5,2l4,2l5,2l4,3l5,3l4,3l5,3l4,3l5,3l4,3l5,2l4,2h5h4l5,-2l4,-2l5,-3l4,-4l5,-5l4,-4l5,-5l4,-4l5,-4l4,-3l5,-3l4,-1h5l4,1l5,2l4,3l5,5l4,6l5,7l4,8l5,7l4,6l5,5l4,1l5,-2l4,-5l5,-11" style="fill: none; stroke: #cccccc; stroke-width: 1;"></path></g><g><path d="M3,111h5h4h5h5h5h4h5h5h5h4h5h5h5h5h4h5h5h5h4h5h5l5,1h4h5h5h5h5h4h5h5h5h4h5h5h5h4h5h5h5h4h5h5h5h5h4h5h5h5h4h5h5l5,-1h4h5h5h5h5h4h5l5,-1h5h4h5h5h5h4l5,-1h5h5h5h4h5h5h5h4h5h5h5h4h5h5h5h5l4,1h5h5l5,1h4h5l5,1h5h4l5,1h5h5l5,1h4h5h5h5h4h5l5,-1h5h4l5,-1l5,-1h5l5,-1l4,-1l5,-1h5l5,-1h4h5l5,-1l5,1h4h5l5,1l5,1l4,1l5,1l5,1l5,1l5,1l4,1l5,1h5h5h4l5,-1l5,-1l5,-2l4,-1l5,-2l5,-2l5,-1l5,-1h4h5h5l5,1l4,2l5,2l5,3l5,2l4,2l5,1l5,1l5,-1l5,-2l4,-3l5,-3l5,-3l5,-2l4,-2h5h5l5,3l4,3l5,4l5,4l5,3l5,1l4,-1l5,-3l5,-5l5,-5l4,-4l5,-2h5l5,2l4,5l5,6l5,6l5,3l5,-1l4,-4l5,-7l5,-7l5,-4l4,-1l5,3l5,8l5,8l4,7h5l5,-6l5,-9l5,-9l4,-4l5,2l5,9l5,11l4,8l5,-1l5,-10l5,-16" style="fill: none; stroke: #6d7a84; stroke-width: 1;"></path></g><g><path d="M3,112h4h5h4h5h4h5h4h5h4h5h4h5h4h5h4h5h4h5h4h5h4h5h4h5h4h5h4h5h4h5h4h5h4h5h4h5h4h5h4h5h4h5h4h5h4h5h4h5h5h4h5h4h5l4,-1h5h4h5h4h5h4h5h4h5l4,-1h5h4h5h4h5h4l5,-1h4h5h4h5h4l5,-1h4h5h4h5h4l5,-1h4h5h4h5h4l5,-1h4h5h4h5h4h5h4h5h4h5h5h4h5l4,1h5h4h5l4,1h5h4l5,1h4l5,1h4l5,1h4l5,1l4,1h5l4,1l5,1h4l5,1l4,1h5l4,1h5l4,1h5h4l5,1h4h5l4,-1h5h4l5,-1l4,-1l5,-1l4,-1l5,-1l4,-1l5,-1l4,-2l5,-1l4,-1l5,-2l4,-1l5,-1l5,-2l4,-1h5l4,-1h5l4,-1l5,1h4l5,1l4,1l5,1l4,2l5,2l4,2l5,3l4,2l5,3l4,3l5,2l4,2l5,2l4,1l5,1h4l5,-2l4,-2l5,-2l4,-4l5,-3l4,-4l5,-4l4,-4l5,-4l4,-2l5,-2l4,-2h5l4,1l5,2l4,3l5,4l4,6l5,6l4,6l5,6l4,5l5,4l4,1l5,-2l4,-4l5,-9" style="fill: none; stroke: #b2b2b2; stroke-width: 1;"></path></g><g><path d="M3,111h5h4h5h5h5h4h5h5h5h4h5h5h5h5h4h5h5h5h4h5h5h5h4h5l5,1h5h5h4h5h5h5h4h5h5h5h4h5h5h5h4h5h5h5h5h4h5h5h5h4h5l5,-1h5h4h5h5h5h5h4h5h5l5,-1h4h5h5h5h4h5l5,-1h5h5h4h5h5h5h4h5h5h5h4h5h5h5l5,1h4h5h5l5,1h4h5l5,1h5h4l5,1h5h5h5l4,1h5h5h5h4l5,-1h5h5l4,-1h5l5,-1h5l5,-1l4,-1h5l5,-1h5l4,-1h5h5h5h4l5,1h5l5,1l4,1l5,1l5,1l5,1l5,1l4,1h5l5,1h5l4,-1l5,-1l5,-1l5,-1l4,-1l5,-2l5,-1l5,-1l5,-1l4,-1h5l5,1l5,1l4,2l5,2l5,2l5,2l4,1l5,1h5h5l5,-2l4,-2l5,-3l5,-2l5,-2l4,-2h5h5l5,2l4,3l5,4l5,3l5,2l5,1h4l5,-3l5,-4l5,-4l4,-4l5,-2h5l5,2l4,5l5,5l5,4l5,3h5l4,-4l5,-6l5,-6l5,-4h4l5,3l5,6l5,7l4,5l5,1l5,-5l5,-8l5,-8l4,-3l5,2l5,7l5,10l4,7l5,-1l5,-9l5,-14" style="fill: none; stroke: #688296; stroke-width: 1;"></path></g><g><path d="M3,112h4h5h4h5h4h5h4h5h4h5h4h5h4h5h4h5h4h5h4h5h4h5h4h5h4h5h4h5h4h5h4h5h4h5h4h5h4h5h4h5h4h5h4h5h4h5h4h5h5h4h5l4,-1h5h4h5h4h5h4h5h4h5h4h5h4l5,-1h4h5h4h5h4h5h4l5,-1h4h5h4h5h4h5l4,-1h5h4h5h4h5h4l5,-1h4h5h4h5h4h5h4h5h4h5h4h5h5h4h5h4h5l4,1h5h4h5l4,1h5h4l5,1h4l5,1h4l5,1h4l5,1h4l5,1l4,1h5l4,1h5l4,1h5h4l5,1h4h5h4h5h4h5l4,-1h5l4,-1l5,-1h4l5,-1l4,-1l5,-1l4,-2l5,-1l4,-1l5,-1l4,-1l5,-1l5,-1l4,-1l5,-1h4l5,-1h4h5l4,1h5l4,1l5,1l4,2l5,1l4,2l5,2l4,3l5,2l4,2l5,2l4,2l5,1l4,1l5,1h4l5,-1l4,-2l5,-2l4,-3l5,-3l4,-3l5,-4l4,-3l5,-3l4,-2l5,-2l4,-1h5l4,1l5,1l4,3l5,4l4,4l5,5l4,5l5,5l4,4l5,3l4,1l5,-1l4,-4l5,-7" style="fill: none; stroke: #999999; stroke-width: 1;"></path></g><g><path d="M3,111h5h4h5h5h5h4h5h5h5h4h5h5h5h5h4h5h5h5h4h5h5h5h4h5h5h5h5h4l5,1h5h5h4h5h5h5h4h5h5h5h4h5h5h5h5h4h5h5h5l4,-1h5h5h5h4h5h5h5h5h4h5h5l5,-1h4h5h5h5h4h5h5h5l5,-1h4h5h5h5h4h5h5h5h4h5h5l5,1h5h4h5h5l5,1h4h5h5l5,1h4h5h5l5,1h5h4h5h5h5h4h5h5l5,-1h4h5l5,-1h5l5,-1h4l5,-1h5l5,-1h4h5h5h5h4h5l5,1h5l4,1l5,1l5,1l5,1h5l4,1h5l5,1h5l4,-1h5l5,-1l5,-1l4,-1l5,-1l5,-2l5,-1h5l4,-1h5l5,1l5,1l4,1l5,2l5,1l5,2l4,1l5,1h5h5l5,-2l4,-1l5,-3l5,-2l5,-2l4,-1h5h5l5,2l4,2l5,3l5,3l5,2l5,1l4,-1l5,-2l5,-3l5,-4l4,-3l5,-1h5l5,1l4,4l5,4l5,4l5,2h5l4,-3l5,-5l5,-5l5,-3l4,-1l5,3l5,5l5,6l4,4l5,1l5,-4l5,-7l5,-6l4,-3l5,1l5,7l5,8l4,5h5l5,-8l5,-11" style="fill: none; stroke: #758991; stroke-width: 1;"></path></g><g><path d="M3,112h4h5h4h5h4h5h4h5h4h5h4h5h4h5h4h5h4h5h4h5h4h5h4h5h4h5h4h5h4h5h4h5h4h5h4h5h4h5h4h5h4h5h4h5h4h5h4h5l5,-1h4h5h4h5h4h5h4h5h4h5h4h5h4h5h4l5,-1h4h5h4h5h4h5h4h5h4l5,-1h4h5h4h5h4h5h4l5,-1h4h5h4h5h4h5h4h5h4h5h4h5h4h5h4h5h5h4h5h4h5h4h5l4,1h5h4h5l4,1h5h4l5,1h4l5,1h4h5l4,1h5l4,1h5l4,1h5h4l5,1h4h5h4l5,1h4h5l4,-1h5h4h5l4,-1h5l4,-1l5,-1l4,-1l5,-1h4l5,-1l4,-1l5,-1l4,-1l5,-1l5,-1l4,-1h5l4,-1h5h4h5h4l5,1l4,1l5,1l4,1l5,1l4,2l5,1l4,2l5,2l4,2l5,1l4,2l5,1l4,1h5h4l5,-1l4,-1l5,-2l4,-2l5,-3l4,-2l5,-3l4,-3l5,-2l4,-2l5,-1l4,-1h5h4l5,2l4,2l5,3l4,3l5,4l4,4l5,4l4,4l5,2h4h5l4,-3l5,-6" style="fill: none; stroke: #7f7f7f; stroke-width: 1;"></path></g><g><path d="M3,111h5h4h5h5h5h4h5h5h5h4h5h5h5h5h4h5h5h5h4h5h5h5h4h5h5h5h5h4h5h5h5h4h5h5h5h4h5h5h5h4h5h5h5h5h4h5h5h5h4h5h5h5h4h5h5h5h5h4h5h5h5l4,-1h5h5h5h4h5h5h5h5h4h5h5h5l4,-1h5h5l5,1h4h5h5h5h5h4h5h5l5,1h4h5h5l5,1h4h5h5h5h5l4,1h5h5h5h4l5,-1h5h5h4l5,-1h5h5l5,-1h4l5,-1h5h5h4l5,-1h5h5l4,1h5h5l5,1h4l5,1l5,1h5l5,1h4l5,1h5h5h4l5,-1h5l5,-1l4,-1l5,-1l5,-1l5,-1l5,-1h4h5l5,1h5l4,1l5,2l5,1l5,1l4,1l5,1h5h5l5,-1l4,-2l5,-1l5,-2l5,-2l4,-1h5h5l5,2l4,2l5,2l5,2l5,2h5h4l5,-2l5,-2l5,-3l4,-3l5,-1h5l5,2l4,2l5,4l5,3l5,2l5,-1l4,-2l5,-4l5,-4l5,-3h4l5,2l5,4l5,5l4,3l5,1l5,-3l5,-6l5,-5l4,-2l5,1l5,5l5,6l4,5l5,-1l5,-5l5,-10" style="fill: none; stroke: #7a8e99; stroke-width: 1;"></path></g><g><path d="M3,111h4h5h4h5h4h5h4h5h4h5h4h5h4h5h4h5h4h5l4,1h5h4h5h4h5h4h5h4h5h4h5h4h5h4h5h4h5h4l5,-1h4h5h4h5h4h5h4h5h4h5h5h4h5h4h5h4h5h4h5h4h5h4h5h4h5h4h5l4,-1h5h4h5h4h5h4h5h4h5h4h5l4,-1h5h4h5h4h5h4h5h4h5h4h5h4l5,-1h4h5h4h5h4h5h4h5h5h4l5,1h4h5h4h5h4h5l4,1h5h4h5l4,1h5h4h5l4,1h5h4l5,1h4h5l4,1h5h4h5l4,1h5h4h5h4h5h4h5h4l5,-1h4h5l4,-1h5l4,-1l5,-1h4l5,-1l4,-1l5,-1h4l5,-1h5l4,-1h5l4,-1h5h4h5h4l5,1h4l5,1l4,1l5,1l4,1l5,1l4,1l5,2l4,1l5,1l4,1l5,1l4,1h5h4l5,-1l4,-1l5,-1l4,-1l5,-2l4,-2l5,-2l4,-2l5,-2l4,-2l5,-1h4h5h4l5,1l4,2l5,2l4,3l5,3l4,3l5,3l4,2l5,1l4,1l5,-1l4,-2l5,-4" style="fill: none; stroke: #666666; stroke-width: 1;"></path></g><g><path d="M3,111h5h4h5h5h5h4h5h5h5h4h5h5h5h5h4h5h5h5h4h5h5h5h4h5h5h5h5h4h5h5h5h4h5h5h5h4h5h5h5h4h5h5h5h5h4h5h5h5h4h5h5h5h4h5h5h5h5h4h5h5h5h4l5,-1h5h5h4h5h5h5h5h4h5h5h5h4h5h5h5h4h5h5h5h5h4h5l5,1h5h4h5h5h5h4l5,1h5h5h5h4h5h5h5h4h5h5h5h4l5,-1h5h5l5,-1h4h5l5,-1h5h4h5h5h5h4h5l5,1h5h4l5,1h5l5,1h5l4,1h5h5h5h4h5l5,-1l5,-1h4l5,-1l5,-1h5l5,-1h4h5h5l5,1l4,1l5,1l5,1l5,1h4l5,1h5h5l5,-1l4,-1l5,-1l5,-2l5,-1l4,-1h5l5,1h5l4,2l5,2l5,1l5,2h5h4l5,-2l5,-2l5,-2l4,-2l5,-1h5l5,2l4,2l5,2l5,3l5,1h5l4,-2l5,-3l5,-3l5,-2h4l5,1l5,3l5,4l4,2l5,1l5,-3l5,-4l5,-4l4,-1l5,1l5,3l5,5l4,4l5,-1l5,-4l5,-7" style="fill: none; stroke: #adbcc6; stroke-width: 1;"></path></g><g><path d="M3,111h4h5h4h5h4h5h4h5h4h5h4h5h4h5h4h5h4h5h4h5h4h5h4h5h4h5h4h5h4h5h4h5h4h5h4h5h4h5h4h5h4h5h4h5h4h5h4h5h5h4h5h4h5h4h5h4h5h4h5h4h5h4h5h4h5h4h5l4,-1h5h4h5h4h5h4h5h4h5h4h5h4h5h4h5h4h5l4,-1h5h4h5h4h5h4h5h4h5h4h5h4h5h5h4h5h4h5l4,1h5h4h5h4h5h4h5l4,1h5h4h5h4l5,1h4h5h4h5l4,1h5h4h5h4h5l4,1h5h4h5h4l5,-1h4h5h4h5l4,-1h5h4l5,-1h4l5,-1h4l5,-1h4l5,-1h5h4l5,-1h4h5h4h5h4h5l4,1h5l4,1h5l4,1l5,1l4,1l5,1l4,1h5l4,1l5,1h4h5h4h5l4,-1l5,-1l4,-1l5,-1l4,-1l5,-2l4,-1l5,-1l4,-1l5,-1h4h5h4l5,1l4,1l5,1l4,2l5,2l4,2l5,2l4,1l5,1l4,1l5,-1l4,-1l5,-3" style="fill: none; stroke: #4c4c4c; stroke-width: 1;"></path></g><g><path d="M3,111h5h4h5h5h5h4h5h5h5h4h5h5h5h5h4h5h5h5h4h5h5h5h4h5h5h5h5h4h5h5h5h4h5h5h5h4h5h5h5h4h5h5h5h5h4h5h5h5h4h5h5h5h4h5h5h5h5h4h5h5h5h4h5h5l5,-1h4h5h5h5h5h4h5h5h5h4h5h5h5h4h5h5h5h5h4l5,1h5h5h4h5h5h5h4h5h5l5,1h5h4h5h5h5h4h5h5l5,-1h4h5h5h5h5l4,-1h5h5h5h4h5h5h5h4h5h5h5l4,1h5h5h5l5,1h4h5h5h5h4h5h5l5,-1h4l5,-1h5l5,-1h5h4h5h5l5,1h4l5,1h5l5,1l4,1h5h5h5l5,-1h4l5,-1l5,-1l5,-1l4,-1h5l5,1h5l4,1l5,1l5,1l5,1l5,1l4,-1l5,-1l5,-1l5,-1l4,-1l5,-1h5l5,1l4,1l5,2l5,1l5,1h5l4,-1l5,-2l5,-2l5,-2h4l5,1l5,2l5,3l4,2h5l5,-2l5,-3l5,-2l4,-1h5l5,3l5,3l4,2h5l5,-3l5,-4" style="fill: none; stroke: #829e8c; stroke-width: 1;"></path></g><g><path d="M3,111h4h5h4h5h4h5h4h5h4h5h4h5h4h5h4h5h4h5h4h5h4h5h4h5h4h5h4h5h4h5h4h5h4h5h4h5h4h5h4h5h4h5h4h5h4h5h4h5h5h4h5h4h5h4h5h4h5h4h5h4h5h4h5h4h5h4h5h4h5h4h5h4l5,-1h4h5h4h5h4h5h4h5h4h5h4h5h4h5h4h5h4h5h4h5h4h5h4h5h4h5h5h4h5h4h5h4h5h4h5h4h5l4,1h5h4h5h4h5h4h5h4h5l4,1h5h4h5h4h5h4h5h4h5h4h5h4h5h4h5h4h5h4l5,-1h4h5h4l5,-1h4h5h4h5l5,-1h4h5h4h5h4h5h4h5h4h5l4,1h5h4l5,1h4l5,1h4l5,1h4h5h4h5h4h5h4h5l4,-1l5,-1h4l5,-1l4,-1h5l4,-1h5h4h5h4h5l4,1l5,1h4l5,1l4,1l5,1l4,1l5,1h4l5,-1h4l5,-1" style="fill: none; stroke: #c0b6ac; stroke-width: 1;"></path></g><g><path d="M3,111h5h4h5h5h5h4h5h5h5h4h5h5h5h5h4h5h5h5h4h5h5h5h4h5h5h5h5h4h5h5h5h4h5h5h5h4h5h5h5h4h5h5h5h5h4h5h5h5h4h5h5h5h4h5h5h5h5h4h5h5h5h4h5h5h5h4h5h5h5h5l4,-1h5h5h5h4h5h5h5h4h5l5,1h5h5h4h5h5h5h4h5h5h5h4h5h5h5h5h4h5h5h5h4h5h5h5h4h5h5h5h5h4l5,-1h5h5h4h5h5h5h4h5h5h5l4,1h5h5h5h5h4l5,1h5h5l4,-1h5h5h5h4h5l5,-1h5h5h4h5h5h5h4l5,1h5h5l4,1h5h5h5l5,-1h4h5l5,-1h5h4h5h5h5h4l5,1l5,1h5h5h4h5l5,-1l5,-1h4l5,-1h5l5,1h4l5,1l5,1h5h5h4l5,-1l5,-1l5,-1h4l5,1l5,1l5,1l4,1h5l5,-1l5,-1l5,-2h4h5l5,1l5,2l4,1h5l5,-2l5,-2" style="fill: none; stroke: #89a8a0; stroke-width: 1;"></path></g></svg><g><g transform="translate(0,330)"><path d="M0,0h902M0,-12V0M205,-12V0M325,-12V0M411,-12V0M477,-12V0M531,-12V0M577,-12V0M616,-12V0M651,-12V0M682,-12V0M888,-12V0" style="stroke: #000000; stroke-width: 1;"></path><g font-family="Arial" font-size="14" space="preserve" fill="#000000" text-anchor="middle"><text dy=".8em" transform="translate(0,3)">1</text><text dy=".8em" transform="translate(205,3)">2</text><text dy=".8em" transform="translate(325,3)">3</text><text dy=".8em" transform="translate(411,3)">4</text><text dy=".8em" transform="translate(477,3)">5</text><text dy=".8em" transform="translate(531,3)">6</text><text dy=".8em" transform="translate(577,3)">7</text><text dy=".8em" transform="translate(616,3)">8</text><text dy=".8em" transform="translate(651,3)">9</text><text dy=".8em" transform="translate(682,3)">10</text><text dy=".8em" transform="translate(888,3)">20</text></g></g><g><path d="M0,0v330M34,315H0M34,287H0M34,266H0M34,248H0M34,233H0M34,221H0M34,209H0M34,199H0M34,132H0M34,93H0M34,66H0M34,44H0M34,26H0M34,12H0" style="stroke: #000000; stroke-width: 1;"></path><g font-family="Arial" font-size="14" space="preserve" fill="#000000" text-anchor="end"><text dy=".4em" transform="translate(-3,315)">3</text><text dy=".4em" transform="translate(-3,287)">4</text><text dy=".4em" transform="translate(-3,266)">5</text><text dy=".4em" transform="translate(-3,248)">6</text><text dy=".4em" transform="translate(-3,233)">7</text><text dy=".4em" transform="translate(-3,221)">8</text><text dy=".4em" transform="translate(-3,209)">9</text><text dy=".4em" transform="translate(-3,199)">10</text><text dy=".4em" transform="translate(-3,132)">20</text><text dy=".4em" transform="translate(-3,93)">30</text><text dy=".4em" transform="translate(-3,66)">40</text><text dy=".4em" transform="translate(-3,44)">50</text><text dy=".4em" transform="translate(-3,26)">60</text><text dy=".4em" transform="translate(-3,12)">70</text></g></g><path d="M0,0v330M205,0v330M325,0v330M411,0v330M477,0v330M531,0v330M577,0v330M616,0v330M651,0v330M682,0v330M888,0v330" style="stroke: #000000; stroke-width: 1; stroke-dasharray: 1,2;"></path><path d="M0,315h902M0,287h902M0,266h902M0,248h902M0,233h902M0,221h902M0,209h902M0,199h902M0,132h902M0,93h902M0,66h902M0,44h902M0,26h902M0,12h902" style="stroke: #000000; stroke-width: 1; stroke-dasharray: 1,2;"></path></g></g><g transform="translate(113,2)" font-family="Arial" font-size="21" space="preserve"><text fill="#000000" text-anchor="middle" dy=".8em" transform="translate(451)">x*sin(x+10)+25</text></g><g transform="translate(167,201)" font-family="Arial" font-size="16" space="preserve" fill="#000000" text-anchor="start"><path d="M597,4h4v60h-597v-4h593z" style="fill: #000000; stroke: #000000; stroke-width: 1px;"></path><path d="M0,0H597V60H0Z" style="fill: #ddba87; stroke: #000000; stroke-width: 1;"></path><text dy=".4em" transform="translate(30,10)">Log scale along X and Y axis.</text><text dy=".4em" transform="translate(30,30)">More Log labels on both.</text><text dy=".4em" transform="translate(30,50)">The labels have no exponents (they would be 0 or 1)</text></g></g></svg><g transform="translate(120,16)" font-family="Arial" font-size="26" space="preserve"><path d="M960,3h3v32h-960v-3h957z" style="fill: #000000; stroke: #000000; stroke-width: 1px;"></path><path d="M0,0H960V32H0Z" style="fill: #b2b2b2; stroke: #000000; stroke-width: 1;"></path><text fill="#000000" text-anchor="middle" dy=".4em" transform="translate(480,16)">Various options on LOG scales plots</text></g><g transform="translate(120,312)" font-family="Arial" font-size="20" space="preserve"><path d="M960,4h4v48h-960v-4h956z" style="fill: #000000; stroke: #000000; stroke-width: 1px;"></path><path d="M0,0H960V48H0Z" style="fill: #ddba87; stroke: #000000; stroke-width: 1;"></path><text fill="#000000" text-anchor="start" dy=".4em" transform="translate(48,24)">When more Log labels are requested, the overlapping labels are removed</text></g></g></svg>