<svg xmlns="http://www.w3.org/2000/svg" viewBox="0 0 1200 800" preserveAspectRatio="none" width="1200" height="800"><path d="M0,0H1200V800H0Z" style="fill: #cccccc;"></path><g><svg viewBox="0 0 576 384" preserveAspectRatio="none" x="12" y="8" width="576" height="384"><path d="M0,0H576V384H0Z" style="fill: #cccccc;"></path><g><g transform="translate(92,19)"><path d="M0,0H455V303H0Z" style="fill: #f2f2f2; stroke: #000000; stroke-width: 1;"></path><svg x="0" y="0" overflow="hidden" width="455" height="303" viewBox="0 0 455 303"><g><path d="M3,303h4h5h4h5h4h5h4h5h5h4h5h4h5l4,-1h5h4h5l4,-1l5,-1l5,-1l4,-1l5,-2l4,-2l5,-2l4,-3l5,-4l4,-5l5,-6l5,-6l4,-8l5,-9l4,-10l5,-12l4,-13l5,-14l4,-15l5,-16l4,-17l5,-17l5,-18l4,-17l5,-17l4,-16l5,-14l4,-13l5,-11l4,-8l5,-6l5,-3h4l5,3l4,6l5,8l4,11l5,13l4,14l5,16l4,17l5,17l5,18l4,17l5,17l4,16l5,15l4,14l5,13l4,12l5,10l5,9l4,8l5,6l4,6l5,5l4,4l5,3l4,2l5,2l4,2l5,1l5,1l4,1l5,1h4h5h4l5,1h4h5h5h4h5h4h5h4h5h4h5h4h5" style="fill: none; stroke: #000000; stroke-width: 1; stroke-dasharray: 3,3;"></path></g><g><path d="M3,303h4h5l4,-1h5h4h5h4h5h5l4,-1h5h4l5,-1h4l5,-1h4l5,-1l4,-1l5,-2l5,-1l4,-2l5,-2l4,-2l5,-3l4,-3l5,-4l4,-5l5,-5l5,-6l4,-7l5,-8l4,-9l5,-10l4,-11l5,-13l4,-13l5,-15l4,-15l5,-17l5,-16l4,-17l5,-17l4,-15l5,-15l4,-13l5,-12l4,-8l5,-6l5,-3h4l5,3l4,6l5,8l4,12l5,13l4,15l5,15l4,17l5,17l5,16l4,17l5,15l4,15l5,13l4,13l5,11l4,10l5,9l5,8l4,7l5,6l4,5l5,5l4,4l5,3l4,3l5,2l4,2l5,2l5,1l4,2l5,1l4,1h5l4,1h5l4,1h5h5l4,1h5h4h5h4h5h4l5,1h4h5" style="fill: none; stroke: #0000ff; stroke-width: 1;"></path></g><g><path d="M3,300h4l5,-1h4h5l4,-1h5h4l5,-1h5l4,-1l5,-1h4l5,-1l4,-1l5,-1l4,-1l5,-1l4,-1l5,-2l5,-1l4,-2l5,-2l4,-3l5,-3l4,-3l5,-3l4,-4l5,-4l5,-5l4,-6l5,-6l4,-7l5,-8l4,-9l5,-10l4,-11l5,-12l4,-13l5,-14l5,-15l4,-16l5,-16l4,-16l5,-15l4,-14l5,-12l4,-9l5,-7l5,-4h4l5,4l4,7l5,9l4,12l5,14l4,15l5,16l4,16l5,16l5,15l4,14l5,13l4,12l5,11l4,10l5,9l4,8l5,7l5,6l4,6l5,5l4,4l5,4l4,3l5,3l4,3l5,3l4,2l5,2l5,1l4,2l5,1l4,1l5,1l4,1l5,1l4,1h5l5,1l4,1h5l4,1h5h4l5,1h4h5l4,1h5" style="fill: none; stroke: #ff0000; stroke-width: 1;"></path></g><g><path d="M3,294h4l5,-1h4l5,-1h4l5,-1h4l5,-1h5l4,-1l5,-1h4l5,-1l4,-1l5,-1l4,-1l5,-1l4,-1l5,-1l5,-2l4,-1l5,-2l4,-2l5,-2l4,-2l5,-2l4,-3l5,-3l5,-3l4,-4l5,-4l4,-5l5,-5l4,-6l5,-6l4,-8l5,-8l4,-9l5,-11l5,-11l4,-13l5,-14l4,-14l5,-15l4,-15l5,-13l4,-12l5,-8l5,-5h4l5,5l4,8l5,12l4,13l5,15l4,15l5,14l4,14l5,13l5,11l4,11l5,9l4,8l5,8l4,6l5,6l4,5l5,5l5,4l4,4l5,3l4,3l5,3l4,2l5,2l4,2l5,2l4,2l5,1l5,2l4,1l5,1l4,1l5,1l4,1l5,1l4,1h5l5,1l4,1h5l4,1h5l4,1h5l4,1h5l4,1h5" style="fill: none; stroke: #000000; stroke-width: 1;"></path></g></svg><g><g transform="translate(0,303)"><path d="M0,0h455M0,-303h455M0,-9V0M9,-5V0M18,-5V0M27,-5V0M36,-5V0M46,-9V0M55,-5V0M64,-5V0M73,-5V0M82,-5V0M91,-9V0M100,-5V0M109,-5V0M118,-5V0M127,-5V0M137,-9V0M146,-5V0M155,-5V0M164,-5V0M173,-5V0M182,-9V0M191,-5V0M200,-5V0M209,-5V0M218,-5V0M228,-9V0M237,-5V0M246,-5V0M255,-5V0M264,-5V0M273,-9V0M282,-5V0M291,-5V0M300,-5V0M309,-5V0M319,-9V0M328,-5V0M337,-5V0M346,-5V0M355,-5V0M364,-9V0M373,-5V0M382,-5V0M391,-5V0M400,-5V0M410,-9V0M419,-5V0M428,-5V0M437,-5V0M446,-5V0M455,-9V0M0,-294V-303M9,-298V-303M18,-298V-303M27,-298V-303M36,-298V-303M46,-294V-303M55,-298V-303M64,-298V-303M73,-298V-303M82,-298V-303M91,-294V-303M100,-298V-303M109,-298V-303M118,-298V-303M127,-298V-303M137,-294V-303M146,-298V-303M155,-298V-303M164,-298V-303M173,-298V-303M182,-294V-303M191,-298V-303M200,-298V-303M209,-298V-303M218,-298V-303M228,-294V-303M237,-298V-303M246,-298V-303M255,-298V-303M264,-298V-303M273,-294V-303M282,-298V-303M291,-298V-303M300,-298V-303M309,-298V-303M319,-294V-303M328,-298V-303M337,-298V-303M346,-298V-303M355,-298V-303M364,-294V-303M373,-298V-303M382,-298V-303M391,-298V-303M400,-298V-303M410,-294V-303M419,-298V-303M428,-298V-303M437,-298V-303M446,-298V-303M455,-294V-303" style="stroke: #000000; stroke-width: 1;"></path><g font-family="Arial" font-size="19" space="preserve" fill="#000000" text-anchor="middle"><text dy=".8em" transform="translate(0,2)">-5</text><text dy=".8em" transform="translate(46,2)">-4</text><text dy=".8em" transform="translate(91,2)">-3</text><text dy=".8em" transform="translate(137,2)">-2</text><text dy=".8em" transform="translate(182,2)">-1</text><text dy=".8em" transform="translate(228,2)">0</text><text dy=".8em" transform="translate(273,2)">1</text><text dy=".8em" transform="translate(319,2)">2</text><text dy=".8em" transform="translate(364,2)">3</text><text dy=".8em" transform="translate(410,2)">4</text><text dy=".8em" transform="translate(455,2)">5</text></g></g><g><path d="M0,0v303M455,0v303M14,303H0M7,296H0M7,289H0M7,281H0M7,274H0M14,267H0M7,260H0M7,252H0M7,245H0M7,238H0M14,231H0M7,223H0M7,216H0M7,209H0M7,202H0M14,194H0M7,187H0M7,180H0M7,173H0M7,165H0M14,158H0M7,151H0M7,144H0M7,136H0M7,129H0M14,122H0M7,115H0M7,107H0M7,100H0M7,93H0M14,86H0M7,78H0M7,71H0M7,64H0M7,57H0M14,50H0M7,42H0M7,35H0M7,28H0M7,21H0M14,13H0M7,6H0M441,303H455M448,296H455M448,289H455M448,281H455M448,274H455M441,267H455M448,260H455M448,252H455M448,245H455M448,238H455M441,231H455M448,223H455M448,216H455M448,209H455M448,202H455M441,194H455M448,187H455M448,180H455M448,173H455M448,165H455M441,158H455M448,151H455M448,144H455M448,136H455M448,129H455M441,122H455M448,115H455M448,107H455M448,100H455M448,93H455M441,86H455M448,78H455M448,71H455M448,64H455M448,57H455M441,50H455M448,42H455M448,35H455M448,28H455M448,21H455M441,13H455M448,6H455" style="stroke: #000000; stroke-width: 1;"></path><g font-family="Arial" font-size="19" space="preserve" fill="#000000" text-anchor="end"><text dy=".4em" transform="translate(-3,303)">0</text><text dy=".4em" transform="translate(-3,267)">0.05</text><text dy=".4em" transform="translate(-3,231)">0.1</text><text dy=".4em" transform="translate(-3,194)">0.15</text><text dy=".4em" transform="translate(-3,158)">0.2</text><text dy=".4em" transform="translate(-3,122)">0.25</text><text dy=".4em" transform="translate(-3,86)">0.3</text><text dy=".4em" transform="translate(-3,50)">0.35</text><text dy=".4em" transform="translate(-3,13)">0.4</text></g></g><path d="M0,0v303M46,0v303M91,0v303M137,0v303M182,0v303M228,0v303M273,0v303M319,0v303M364,0v303M410,0v303M455,0v303" style="stroke: #000000; stroke-width: 1; stroke-dasharray: 1,2;"></path><path d="M0,303h455M0,267h455M0,231h455M0,194h455M0,158h455M0,122h455M0,86h455M0,50h455M0,13h455" style="stroke: #000000; stroke-width: 1; stroke-dasharray: 1,2;"></path></g></g><g transform="translate(-222,2)" style="display: none;"><path d="M455,2h2v12h-455v-2h453z" style="fill: #000000; stroke: #000000; stroke-width: 1px;"></path><path d="M0,0H455V12H0Z" style="fill: #f2f2f2; stroke: #000000; stroke-width: 1;"></path></g><g transform="translate(346,42)" font-family="Arial" font-size="9" space="preserve" font-weight="bold"><path d="M167,4h4v73h-167v-4h163z" style="fill: #000000; stroke: #000000; stroke-width: 1px;"></path><path d="M0,0H167V73H0Z" style="fill: #ffffff; stroke: #000000; stroke-width: 1;"></path><path d="M5,11H37" style="stroke: #000000; stroke-width: 1; stroke-dasharray: 3,3;"></path><text fill="#000000" text-anchor="start" dy=".4em" transform="translate(42,11)">Normal(0,1)</text><path d="M5,28H37" style="stroke: #0000ff; stroke-width: 1;"></path><text fill="#000000" text-anchor="start" dy=".4em" transform="translate(42,28)">10 degrees of freedom</text><path d="M5,45H37" style="stroke: #ff0000; stroke-width: 1;"></path><text fill="#000000" text-anchor="start" dy=".4em" transform="translate(42,46)">3 degrees of freedom</text><path d="M5,62H37" style="stroke: #000000; stroke-width: 1;"></path><text fill="#000000" text-anchor="start" dy=".4em" transform="translate(42,63)">1 degree of freedom</text></g></g></svg><svg viewBox="0 0 576 384" preserveAspectRatio="none" x="612" y="8" width="576" height="384"><path d="M0,0H576V384H0Z" style="fill: #cccccc;"></path><g><g transform="translate(92,19)"><path d="M0,0H455V303H0Z" style="fill: #f2f2f2; stroke: #000000; stroke-width: 1;"></path><svg x="0" y="0" overflow="hidden" width="455" height="303" viewBox="0 0 455 303"><g><path d="M3,303h4h5h4h5h4h5h4h5h5h4h5l4,-1h5h4h5h4h5h4l5,-1h5h4l5,-1l4,-1h5l4,-1l5,-1l4,-1l5,-1l5,-2l4,-2l5,-2l4,-2l5,-3l4,-3l5,-4l4,-4l5,-5l4,-5l5,-6l5,-7l4,-7l5,-8l4,-9l5,-9l4,-10l5,-10l4,-11l5,-11l5,-11l4,-11l5,-11l4,-11l5,-11l4,-10l5,-10l4,-9l5,-9l4,-8l5,-7l5,-7l4,-6l5,-5l4,-5l5,-4l4,-4l5,-3l4,-3l5,-2l5,-2l4,-2l5,-1l4,-2l5,-1l4,-1h5l4,-1l5,-1h4l5,-1h5h4h5l4,-1h5h4h5h4h5h5h4h5h4h5h4l5,-1h4h5h4h5" style="fill: none; stroke: #0000ff; stroke-width: 1;"></path></g><g><path d="M3,301h4l5,-1h4h5h4h5h4l5,-1h5h4h5l4,-1h5h4l5,-1h4l5,-1h4l5,-1l5,-1h4l5,-1l4,-1l5,-1l4,-1l5,-1l4,-2l5,-1l5,-2l4,-2l5,-2l4,-3l5,-3l4,-3l5,-3l4,-4l5,-4l4,-5l5,-6l5,-5l4,-7l5,-7l4,-8l5,-9l4,-9l5,-9l4,-10l5,-10l5,-11l4,-11l5,-10l4,-10l5,-10l4,-10l5,-9l4,-9l5,-7l4,-8l5,-6l5,-6l4,-6l5,-4l4,-5l5,-4l4,-3l5,-3l4,-3l5,-2l5,-3l4,-1l5,-2l4,-2l5,-1l4,-1l5,-2l4,-1h5l4,-1l5,-1l5,-1h4l5,-1h4l5,-1h4l5,-1h4h5h5l4,-1h5h4h5l4,-1h5h4h5h4h5" style="fill: none; stroke: #ff0000; stroke-width: 1;"></path></g><g><path d="M3,285l4,-1h5h4l5,-1h4l5,-1h4l5,-1h5l4,-1h5l4,-1l5,-1h4l5,-1l4,-1h5l4,-1l5,-1l5,-1l4,-1l5,-1l4,-1l5,-1l4,-2l5,-1l4,-1l5,-2l5,-2l4,-2l5,-2l4,-2l5,-2l4,-3l5,-2l4,-4l5,-3l4,-4l5,-4l5,-5l4,-5l5,-5l4,-6l5,-7l4,-7l5,-8l4,-9l5,-9l5,-9l4,-9l5,-9l4,-9l5,-8l4,-8l5,-8l4,-6l5,-6l4,-6l5,-5l5,-5l4,-4l5,-4l4,-3l5,-3l4,-3l5,-3l4,-2l5,-2l5,-2l4,-2l5,-2l4,-1l5,-2l4,-1l5,-1l4,-2l5,-1l4,-1l5,-1l5,-1h4l5,-1l4,-1l5,-1h4l5,-1l4,-1h5l5,-1h4l5,-1h4l5,-1h4l5,-1h4l5,-1h4h5" style="fill: none; stroke: #000000; stroke-width: 1;"></path></g></svg><g><g transform="translate(0,303)"><path d="M0,0h455M0,-303h455M0,-9V0M9,-5V0M18,-5V0M27,-5V0M36,-5V0M46,-9V0M55,-5V0M64,-5V0M73,-5V0M82,-5V0M91,-9V0M100,-5V0M109,-5V0M118,-5V0M127,-5V0M137,-9V0M146,-5V0M155,-5V0M164,-5V0M173,-5V0M182,-9V0M191,-5V0M200,-5V0M209,-5V0M218,-5V0M228,-9V0M237,-5V0M246,-5V0M255,-5V0M264,-5V0M273,-9V0M282,-5V0M291,-5V0M300,-5V0M309,-5V0M319,-9V0M328,-5V0M337,-5V0M346,-5V0M355,-5V0M364,-9V0M373,-5V0M382,-5V0M391,-5V0M400,-5V0M410,-9V0M419,-5V0M428,-5V0M437,-5V0M446,-5V0M455,-9V0M0,-294V-303M9,-298V-303M18,-298V-303M27,-298V-303M36,-298V-303M46,-294V-303M55,-298V-303M64,-298V-303M73,-298V-303M82,-298V-303M91,-294V-303M100,-298V-303M109,-298V-303M118,-298V-303M127,-298V-303M137,-294V-303M146,-298V-303M155,-298V-303M164,-298V-303M173,-298V-303M182,-294V-303M191,-298V-303M200,-298V-303M209,-298V-303M218,-298V-303M228,-294V-303M237,-298V-303M246,-298V-303M255,-298V-303M264,-298V-303M273,-294V-303M282,-298V-303M291,-298V-303M300,-298V-303M309,-298V-303M319,-294V-303M328,-298V-303M337,-298V-303M346,-298V-303M355,-298V-303M364,-294V-303M373,-298V-303M382,-298V-303M391,-298V-303M400,-298V-303M410,-294V-303M419,-298V-303M428,-298V-303M437,-298V-303M446,-298V-303M455,-294V-303" style="stroke: #000000; stroke-width: 1;"></path><g font-family="Arial" font-size="19" space="preserve" fill="#000000" text-anchor="middle"><text dy=".8em" transform="translate(0,2)">-5</text><text dy=".8em" transform="translate(46,2)">-4</text><text dy=".8em" transform="translate(91,2)">-3</text><text dy=".8em" transform="translate(137,2)">-2</text><text dy=".8em" transform="translate(182,2)">-1</text><text dy=".8em" transform="translate(228,2)">0</text><text dy=".8em" transform="translate(273,2)">1</text><text dy=".8em" transform="translate(319,2)">2</text><text dy=".8em" transform="translate(364,2)">3</text><text dy=".8em" transform="translate(410,2)">4</text><text dy=".8em" transform="translate(455,2)">5</text></g></g><g><path d="M0,0v303M455,0v303M14,303H0M7,297H0M7,291H0M7,286H0M7,280H0M14,274H0M7,268H0M7,263H0M7,257H0M7,251H0M14,245H0M7,239H0M7,234H0M7,228H0M7,222H0M14,216H0M7,211H0M7,205H0M7,199H0M7,193H0M14,188H0M7,182H0M7,176H0M7,170H0M7,164H0M14,159H0M7,153H0M7,147H0M7,141H0M7,136H0M14,130H0M7,124H0M7,118H0M7,112H0M7,107H0M14,101H0M7,95H0M7,89H0M7,84H0M7,78H0M14,72H0M7,66H0M7,61H0M7,55H0M7,49H0M14,43H0M7,37H0M7,32H0M7,26H0M7,20H0M14,14H0M7,9H0M7,3H0M441,303H455M448,297H455M448,291H455M448,286H455M448,280H455M441,274H455M448,268H455M448,263H455M448,257H455M448,251H455M441,245H455M448,239H455M448,234H455M448,228H455M448,222H455M441,216H455M448,211H455M448,205H455M448,199H455M448,193H455M441,188H455M448,182H455M448,176H455M448,170H455M448,164H455M441,159H455M448,153H455M448,147H455M448,141H455M448,136H455M441,130H455M448,124H455M448,118H455M448,112H455M448,107H455M441,101H455M448,95H455M448,89H455M448,84H455M448,78H455M441,72H455M448,66H455M448,61H455M448,55H455M448,49H455M441,43H455M448,37H455M448,32H455M448,26H455M448,20H455M441,14H455M448,9H455M448,3H455" style="stroke: #000000; stroke-width: 1;"></path><g font-family="Arial" font-size="19" space="preserve" fill="#000000" text-anchor="end"><text dy=".4em" transform="translate(-3,303)">0</text><text dy=".4em" transform="translate(-3,274)">0.1</text><text dy=".4em" transform="translate(-3,245)">0.2</text><text dy=".4em" transform="translate(-3,216)">0.3</text><text dy=".4em" transform="translate(-3,188)">0.4</text><text dy=".4em" transform="translate(-3,159)">0.5</text><text dy=".4em" transform="translate(-3,130)">0.6</text><text dy=".4em" transform="translate(-3,101)">0.7</text><text dy=".4em" transform="translate(-3,72)">0.8</text><text dy=".4em" transform="translate(-3,43)">0.9</text><text dy=".4em" transform="translate(-3,14)">1</text></g></g><path d="M0,0v303M46,0v303M91,0v303M137,0v303M182,0v303M228,0v303M273,0v303M319,0v303M364,0v303M410,0v303M455,0v303" style="stroke: #000000; stroke-width: 1; stroke-dasharray: 1,2;"></path><path d="M0,303h455M0,274h455M0,245h455M0,216h455M0,188h455M0,159h455M0,130h455M0,101h455M0,72h455M0,43h455M0,14h455" style="stroke: #000000; stroke-width: 1; stroke-dasharray: 1,2;"></path></g></g><g transform="translate(-222,2)" style="display: none;"><path d="M455,2h2v12h-455v-2h453z" style="fill: #000000; stroke: #000000; stroke-width: 1px;"></path><path d="M0,0H455V12H0Z" style="fill: #f2f2f2; stroke: #000000; stroke-width: 1;"></path></g><g transform="translate(346,154)" font-family="Arial" font-size="9" space="preserve" font-weight="bold"><path d="M167,4h4v77h-167v-4h163z" style="fill: #000000; stroke: #000000; stroke-width: 1px;"></path><path d="M0,0H167V77H0Z" style="fill: #ffffff; stroke: #000000; stroke-width: 1;"></path><path d="M5,14H37" style="stroke: #0000ff; stroke-width: 1;"></path><text fill="#000000" text-anchor="start" dy=".4em" transform="translate(42,14)">10 degrees of freedom</text><path d="M5,39H37" style="stroke: #ff0000; stroke-width: 1;"></path><text fill="#000000" text-anchor="start" dy=".4em" transform="translate(42,38)">3 degrees of freedom</text><path d="M5,63H37" style="stroke: #000000; stroke-width: 1;"></path><text fill="#000000" text-anchor="start" dy=".4em" transform="translate(42,63)">1 degree of freedom</text></g></g></svg><svg viewBox="0 0 576 384" preserveAspectRatio="none" x="12" y="408" width="576" height="384"><path d="M0,0H576V384H0Z" style="fill: #cccccc;"></path><g><g transform="translate(92,19)"><path d="M0,0H455V303H0Z" style="fill: #f2f2f2; stroke: #000000; stroke-width: 1;"></path><svg x="0" y="0" overflow="hidden" width="455" height="303" viewBox="0 0 455 303"><g><path d="M3,14l4,126l5,39l4,21l5,14l4,10l5,7l4,7l5,5l5,4l4,3l5,4l4,2l5,3l4,2l5,2l4,2l5,2l4,1l5,1l5,2l4,1l5,1l4,1l5,1l4,1l5,1l4,1h5l5,1l4,1h5l4,1l5,1h4l5,1h4l5,1h4l5,1h5l4,1h5h4l5,1h4h5l4,1h5h5l4,1h5h4h5l4,1h5h4h5l4,1h5h5h4h5l4,1h5h4h5h4h5l5,1h4h5h4h5h4l5,1h4h5h4h5h5h4h5l4,1h5h4h5h4h5h5h4h5h4l5,1h4h5h4h5h4h5" style="fill: none; stroke: #000000; stroke-width: 1;"></path></g><g><path d="M3,-51l4,152l5,47l4,25l5,17l4,12l5,9l4,7l5,6l5,5l4,5l5,3l4,4l5,3l4,2l5,3l4,2l5,2l4,2l5,2l5,1l4,2l5,1l4,2l5,1l4,1l5,1l4,1l5,1l5,1l4,1l5,1l4,1l5,1h4l5,1l4,1h5l4,1l5,1h5l4,1h5l4,1h5l4,1h5l4,1h5l5,1h4l5,1h4h5l4,1h5h4l5,1h4h5l5,1h4h5l4,1h5h4h5l4,1h5h5h4l5,1h4h5h4l5,1h4h5h4h5l5,1h4h5h4h5l4,1h5h4h5h5h4l5,1h4h5h4h5h4h5l4,1h5" style="fill: none; stroke: #ff0000; stroke-width: 1;"></path></g><g><path d="M3,303l4,-2l5,-6l4,-7l5,-7l4,-6l5,-5l4,-4l5,-3l5,-2l4,-1l5,-1l4,-1h5h4l5,1h4l5,1l4,1h5l5,1l4,1l5,1l4,1l5,1h4l5,1l4,1l5,1l5,1l4,1h5l4,1l5,1h4l5,1l4,1h5l4,1l5,1h5l4,1h5l4,1h5l4,1h5l4,1h5l5,1h4l5,1h4h5l4,1h5h4l5,1h4h5l5,1h4h5l4,1h5h4h5l4,1h5h5h4l5,1h4h5h4l5,1h4h5h4h5h5l4,1h5h4h5h4l5,1h4h5h5h4h5h4l5,1h4h5h4h5h4h5" style="fill: none; stroke: #59d354; stroke-width: 1;"></path></g><g><path d="M3,303h4h5l4,-1l5,-1l4,-1l5,-2l4,-2l5,-3l5,-3l4,-4l5,-3l4,-4l5,-4l4,-4l5,-4l4,-4l5,-3l4,-3l5,-4l5,-2l4,-3l5,-3l4,-2l5,-2l4,-1l5,-2l4,-1l5,-1l5,-1h4l5,-1h4h5h4h5l4,1h5l4,1h5l5,1l4,1l5,1l4,1l5,1l4,1l5,1l4,1l5,1l5,1l4,1l5,1l4,2l5,1l4,1l5,1l4,1l5,1l4,1l5,1l5,2l4,1l5,1l4,1l5,1l4,1l5,1l4,1l5,1l5,1l4,1h5l4,1l5,1l4,1l5,1l4,1h5l4,1l5,1l5,1h4l5,1l4,1h5l4,1l5,1h4l5,1h5l4,1h5l4,1h5l4,1h5l4,1h5l4,1h5" style="fill: none; stroke: #0000ff; stroke-width: 1;"></path></g></svg><g><g transform="translate(0,303)"><path d="M0,0h455M0,-303h455M0,-9V0M11,-5V0M23,-5V0M34,-5V0M46,-9V0M57,-5V0M68,-5V0M80,-5V0M91,-9V0M102,-5V0M114,-5V0M125,-5V0M137,-9V0M148,-5V0M159,-5V0M171,-5V0M182,-9V0M193,-5V0M205,-5V0M216,-5V0M228,-9V0M239,-5V0M250,-5V0M262,-5V0M273,-9V0M284,-5V0M296,-5V0M307,-5V0M319,-9V0M330,-5V0M341,-5V0M353,-5V0M364,-9V0M375,-5V0M387,-5V0M398,-5V0M410,-9V0M421,-5V0M432,-5V0M444,-5V0M455,-9V0M0,-294V-303M11,-298V-303M23,-298V-303M34,-298V-303M46,-294V-303M57,-298V-303M68,-298V-303M80,-298V-303M91,-294V-303M102,-298V-303M114,-298V-303M125,-298V-303M137,-294V-303M148,-298V-303M159,-298V-303M171,-298V-303M182,-294V-303M193,-298V-303M205,-298V-303M216,-298V-303M228,-294V-303M239,-298V-303M250,-298V-303M262,-298V-303M273,-294V-303M284,-298V-303M296,-298V-303M307,-298V-303M319,-294V-303M330,-298V-303M341,-298V-303M353,-298V-303M364,-294V-303M375,-298V-303M387,-298V-303M398,-298V-303M410,-294V-303M421,-298V-303M432,-298V-303M444,-298V-303M455,-294V-303" style="stroke: #000000; stroke-width: 1;"></path><g font-family="Arial" font-size="19" space="preserve" fill="#000000" text-anchor="middle"><text dy=".8em" transform="translate(0,2)">0</text><text dy=".8em" transform="translate(46,2)">0.2</text><text dy=".8em" transform="translate(91,2)">0.4</text><text dy=".8em" transform="translate(137,2)">0.6</text><text dy=".8em" transform="translate(182,2)">0.8</text><text dy=".8em" transform="translate(228,2)">1</text><text dy=".8em" transform="translate(273,2)">1.2</text><text dy=".8em" transform="translate(319,2)">1.4</text><text dy=".8em" transform="translate(364,2)">1.6</text><text dy=".8em" transform="translate(410,2)">1.8</text><text dy=".8em" transform="translate(455,2)">2</text></g></g><g><path d="M0,0v303M455,0v303M14,303H0M7,294H0M7,285H0M7,276H0M7,266H0M14,257H0M7,248H0M7,239H0M7,230H0M7,221H0M14,211H0M7,202H0M7,193H0M7,184H0M7,175H0M14,166H0M7,156H0M7,147H0M7,138H0M7,129H0M14,120H0M7,111H0M7,102H0M7,92H0M7,83H0M14,74H0M7,65H0M7,56H0M7,47H0M7,37H0M14,28H0M7,19H0M7,10H0M7,1H0M441,303H455M448,294H455M448,285H455M448,276H455M448,266H455M441,257H455M448,248H455M448,239H455M448,230H455M448,221H455M441,211H455M448,202H455M448,193H455M448,184H455M448,175H455M441,166H455M448,156H455M448,147H455M448,138H455M448,129H455M441,120H455M448,111H455M448,102H455M448,92H455M448,83H455M441,74H455M448,65H455M448,56H455M448,47H455M448,37H455M441,28H455M448,19H455M448,10H455M448,1H455" style="stroke: #000000; stroke-width: 1;"></path><g font-family="Arial" font-size="19" space="preserve" fill="#000000" text-anchor="end"><text dy=".4em" transform="translate(-3,303)">0</text><text dy=".4em" transform="translate(-3,257)">0.5</text><text dy=".4em" transform="translate(-3,211)">1</text><text dy=".4em" transform="translate(-3,166)">1.5</text><text dy=".4em" transform="translate(-3,120)">2</text><text dy=".4em" transform="translate(-3,74)">2.5</text><text dy=".4em" transform="translate(-3,28)">3</text></g></g><path d="M0,0v303M46,0v303M91,0v303M137,0v303M182,0v303M228,0v303M273,0v303M319,0v303M364,0v303M410,0v303M455,0v303" style="stroke: #000000; stroke-width: 1; stroke-dasharray: 1,2;"></path><path d="M0,303h455M0,257h455M0,211h455M0,166h455M0,120h455M0,74h455M0,28h455" style="stroke: #000000; stroke-width: 1; stroke-dasharray: 1,2;"></path></g></g><g transform="translate(-222,2)" style="display: none;"><path d="M455,2h2v12h-455v-2h453z" style="fill: #000000; stroke: #000000; stroke-width: 1px;"></path><path d="M0,0H455V12H0Z" style="fill: #f2f2f2; stroke: #000000; stroke-width: 1;"></path></g><g transform="translate(403,42)" font-family="Arial" font-size="13" space="preserve" font-weight="bold"><path d="M109,4h4v73h-109v-4h105z" style="fill: #000000; stroke: #000000; stroke-width: 1px;"></path><path d="M0,0H109V73H0Z" style="fill: #ffffff; stroke: #000000; stroke-width: 1;"></path><path d="M3,11H24" style="stroke: #000000; stroke-width: 1;"></path><text fill="#000000" text-anchor="start" dy=".4em" transform="translate(27,11)">N=1 M=1</text><path d="M3,28H24" style="stroke: #ff0000; stroke-width: 1;"></path><text fill="#000000" text-anchor="start" dy=".4em" transform="translate(27,28)">N=1 M=10</text><path d="M3,45H24" style="stroke: #59d354; stroke-width: 1;"></path><text fill="#000000" text-anchor="start" dy=".4em" transform="translate(27,46)">N=10 M=1</text><path d="M3,62H24" style="stroke: #0000ff; stroke-width: 1;"></path><text fill="#000000" text-anchor="start" dy=".4em" transform="translate(27,63)">N=10 M=10</text></g></g></svg><svg viewBox="0 0 576 384" preserveAspectRatio="none" x="612" y="408" width="576" height="384"><path d="M0,0H576V384H0Z" style="fill: #cccccc;"></path><g><g transform="translate(92,19)"><path d="M0,0H455V303H0Z" style="fill: #f2f2f2; stroke: #000000; stroke-width: 1;"></path><svg x="0" y="0" overflow="hidden" width="455" height="303" viewBox="0 0 455 303"><g><path d="M3,289l4,-23l5,-15l4,-13l5,-10l4,-10l5,-8l4,-8l5,-6l5,-7l4,-6l5,-6l4,-5l5,-5l4,-5l5,-4l4,-4l5,-5l4,-3l5,-4l5,-4l4,-3l5,-4l4,-3l5,-3l4,-3l5,-3l4,-3l5,-3l5,-2l4,-3l5,-2l4,-3l5,-2l4,-3l5,-2l4,-2l5,-2l4,-2l5,-2l5,-2l4,-2l5,-2l4,-2l5,-2l4,-2l5,-1l4,-2l5,-2l5,-1l4,-2l5,-2l4,-1l5,-2l4,-1l5,-2l4,-1l5,-2l4,-1l5,-1l5,-2l4,-1l5,-1l4,-1l5,-2l4,-1l5,-1l4,-1l5,-2l5,-1l4,-1l5,-1l4,-1l5,-1l4,-1l5,-1l4,-1l5,-1l4,-1l5,-1l5,-1l4,-1l5,-1l4,-1l5,-1l4,-1l5,-1l4,-1l5,-1h5l4,-1l5,-1l4,-1l5,-1l4,-1h5l4,-1l5,-1l4,-1l5,-1" style="fill: none; stroke: #000000; stroke-width: 1;"></path></g><g><path d="M3,282l4,-28l5,-20l4,-15l5,-14l4,-12l5,-10l4,-10l5,-9l5,-8l4,-8l5,-8l4,-7l5,-6l4,-7l5,-6l4,-6l5,-5l4,-6l5,-5l5,-5l4,-5l5,-4l4,-5l5,-4l4,-5l5,-4l4,-4l5,-4l5,-3l4,-4l5,-4l4,-3l5,-4l4,-3l5,-3l4,-3l5,-3l4,-3l5,-3l5,-3l4,-3l5,-3l4,-2l5,-3l4,-3l5,-2l4,-3l5,-2l5,-3l4,-2l5,-2l4,-2l5,-3l4,-2l5,-2l4,-2l5,-2l4,-2l5,-2l5,-2l4,-2l5,-2l4,-1l5,-2l4,-2l5,-2l4,-1l5,-2l5,-2l4,-1l5,-2l4,-1l5,-2l4,-1l5,-2l4,-1l5,-2l4,-1l5,-2l5,-1l4,-1l5,-2l4,-1l5,-1l4,-2l5,-1l4,-1l5,-1l5,-2l4,-1l5,-1l4,-1l5,-1l4,-1l5,-1l4,-1l5,-2l4,-1l5,-1" style="fill: none; stroke: #ff0000; stroke-width: 1;"></path></g><g><path d="M3,321h4h5l4,-2l5,-2l4,-2l5,-4l4,-3l5,-5l5,-4l4,-5l5,-5l4,-5l5,-5l4,-5l5,-5l4,-4l5,-5l4,-5l5,-5l5,-4l4,-5l5,-4l4,-4l5,-4l4,-5l5,-4l4,-3l5,-4l5,-4l4,-4l5,-3l4,-4l5,-3l4,-3l5,-3l4,-4l5,-3l4,-3l5,-3l5,-2l4,-3l5,-3l4,-3l5,-2l4,-3l5,-2l4,-3l5,-2l5,-3l4,-2l5,-2l4,-3l5,-2l4,-2l5,-2l4,-2l5,-2l4,-2l5,-2l5,-2l4,-2l5,-2l4,-2l5,-1l4,-2l5,-2l4,-2l5,-1l5,-2l4,-2l5,-1l4,-2l5,-1l4,-2l5,-1l4,-2l5,-1l4,-2l5,-1l5,-1l4,-2l5,-1l4,-2l5,-1l4,-1l5,-1l4,-2l5,-1l5,-1l4,-1l5,-2l4,-1l5,-1l4,-1l5,-1l4,-1l5,-1l4,-1l5,-2" style="fill: none; stroke: #59d354; stroke-width: 1;"></path></g><g><path d="M3,321h4h5h4h5h4l5,-1h4l5,-1l5,-1l4,-2l5,-2l4,-3l5,-2l4,-4l5,-4l4,-4l5,-4l4,-5l5,-5l5,-6l4,-6l5,-6l4,-7l5,-6l4,-7l5,-7l4,-8l5,-7l5,-7l4,-8l5,-7l4,-8l5,-8l4,-7l5,-8l4,-7l5,-8l4,-7l5,-8l5,-7l4,-7l5,-7l4,-7l5,-7l4,-7l5,-7l4,-6l5,-7l5,-6l4,-6l5,-6l4,-6l5,-6l4,-6l5,-6l4,-5l5,-5l4,-6l5,-5l5,-5l4,-5l5,-4l4,-5l5,-4l4,-5l5,-4l4,-4l5,-4l5,-4l4,-4l5,-4l4,-4l5,-3l4,-4l5,-3l4,-3l5,-3l4,-4l5,-3l5,-3l4,-2l5,-3l4,-3l5,-3l4,-2l5,-3l4,-2l5,-2l5,-3l4,-2l5,-2l4,-2l5,-2l4,-3l5,-1l4,-2l5,-2l4,-2l5,-2" style="fill: none; stroke: #0000ff; stroke-width: 1;"></path></g></svg><g><g transform="translate(0,303)"><path d="M0,0h455M0,-303h455M0,-9V0M11,-5V0M23,-5V0M34,-5V0M46,-9V0M57,-5V0M68,-5V0M80,-5V0M91,-9V0M102,-5V0M114,-5V0M125,-5V0M137,-9V0M148,-5V0M159,-5V0M171,-5V0M182,-9V0M193,-5V0M205,-5V0M216,-5V0M228,-9V0M239,-5V0M250,-5V0M262,-5V0M273,-9V0M284,-5V0M296,-5V0M307,-5V0M319,-9V0M330,-5V0M341,-5V0M353,-5V0M364,-9V0M375,-5V0M387,-5V0M398,-5V0M410,-9V0M421,-5V0M432,-5V0M444,-5V0M455,-9V0M0,-294V-303M11,-298V-303M23,-298V-303M34,-298V-303M46,-294V-303M57,-298V-303M68,-298V-303M80,-298V-303M91,-294V-303M102,-298V-303M114,-298V-303M125,-298V-303M137,-294V-303M148,-298V-303M159,-298V-303M171,-298V-303M182,-294V-303M193,-298V-303M205,-298V-303M216,-298V-303M228,-294V-303M239,-298V-303M250,-298V-303M262,-298V-303M273,-294V-303M284,-298V-303M296,-298V-303M307,-298V-303M319,-294V-303M330,-298V-303M341,-298V-303M353,-298V-303M364,-294V-303M375,-298V-303M387,-298V-303M398,-298V-303M410,-294V-303M421,-298V-303M432,-298V-303M444,-298V-303M455,-294V-303" style="stroke: #000000; stroke-width: 1;"></path><g font-family="Arial" font-size="19" space="preserve" fill="#000000" text-anchor="middle"><text dy=".8em" transform="translate(0,2)">0</text><text dy=".8em" transform="translate(46,2)">0.2</text><text dy=".8em" transform="translate(91,2)">0.4</text><text dy=".8em" transform="translate(137,2)">0.6</text><text dy=".8em" transform="translate(182,2)">0.8</text><text dy=".8em" transform="translate(228,2)">1</text><text dy=".8em" transform="translate(273,2)">1.2</text><text dy=".8em" transform="translate(319,2)">1.4</text><text dy=".8em" transform="translate(364,2)">1.6</text><text dy=".8em" transform="translate(410,2)">1.8</text><text dy=".8em" transform="translate(455,2)">2</text></g></g><g><path d="M0,0v303M455,0v303M7,301H0M7,291H0M7,281H0M14,271H0M7,261H0M7,251H0M7,240H0M7,230H0M14,220H0M7,210H0M7,200H0M7,190H0M7,180H0M14,170H0M7,160H0M7,150H0M7,139H0M7,129H0M14,119H0M7,109H0M7,99H0M7,89H0M7,79H0M14,69H0M7,59H0M7,48H0M7,38H0M7,28H0M14,18H0M7,8H0M448,301H455M448,291H455M448,281H455M441,271H455M448,261H455M448,251H455M448,240H455M448,230H455M441,220H455M448,210H455M448,200H455M448,190H455M448,180H455M441,170H455M448,160H455M448,150H455M448,139H455M448,129H455M441,119H455M448,109H455M448,99H455M448,89H455M448,79H455M441,69H455M448,59H455M448,48H455M448,38H455M448,28H455M441,18H455M448,8H455" style="stroke: #000000; stroke-width: 1;"></path><g font-family="Arial" font-size="19" space="preserve" fill="#000000" text-anchor="end"><text dy=".4em" transform="translate(-3,271)">0.1</text><text dy=".4em" transform="translate(-3,220)">0.2</text><text dy=".4em" transform="translate(-3,170)">0.3</text><text dy=".4em" transform="translate(-3,119)">0.4</text><text dy=".4em" transform="translate(-3,69)">0.5</text><text dy=".4em" transform="translate(-3,18)">0.6</text></g></g><path d="M0,0v303M46,0v303M91,0v303M137,0v303M182,0v303M228,0v303M273,0v303M319,0v303M364,0v303M410,0v303M455,0v303" style="stroke: #000000; stroke-width: 1; stroke-dasharray: 1,2;"></path><path d="M0,271h455M0,220h455M0,170h455M0,119h455M0,69h455M0,18h455" style="stroke: #000000; stroke-width: 1; stroke-dasharray: 1,2;"></path></g></g><g transform="translate(-222,2)" style="display: none;"><path d="M455,2h2v12h-455v-2h453z" style="fill: #000000; stroke: #000000; stroke-width: 1px;"></path><path d="M0,0H455V12H0Z" style="fill: #f2f2f2; stroke: #000000; stroke-width: 1;"></path></g><g transform="translate(403,192)" font-family="Arial" font-size="13" space="preserve" font-weight="bold"><path d="M109,4h4v77h-109v-4h105z" style="fill: #000000; stroke: #000000; stroke-width: 1px;"></path><path d="M0,0H109V77H0Z" style="fill: #ffffff; stroke: #000000; stroke-width: 1;"></path><path d="M3,11H24" style="stroke: #000000; stroke-width: 1;"></path><text fill="#000000" text-anchor="start" dy=".4em" transform="translate(27,11)">N=1 M=1</text><path d="M3,29H24" style="stroke: #ff0000; stroke-width: 1;"></path><text fill="#000000" text-anchor="start" dy=".4em" transform="translate(27,29)">N=1 M=10</text><path d="M3,48H24" style="stroke: #59d354; stroke-width: 1;"></path><text fill="#000000" text-anchor="start" dy=".4em" transform="translate(27,48)">N=10 M=1</text><path d="M3,66H24" style="stroke: #0000ff; stroke-width: 1;"></path><text fill="#000000" text-anchor="start" dy=".4em" transform="translate(27,66)">N=10 M=10</text></g></g></svg></g></svg>