<svg xmlns="http://www.w3.org/2000/svg" viewBox="0 0 1200 800" preserveAspectRatio="none" width="1200" height="800"><path d="M0,0H1200V800H0Z" style="fill: #ffffff;"></path><g><svg viewBox="0 0 576 384" preserveAspectRatio="none" x="12" y="8" width="576" height="384"><path d="M0,0H576V384H0Z" style="fill: #ffffff;"></path><g><g transform="translate(58,38)"><path d="M0,0H461V307H0Z" style="fill: #ffffff; stroke: #000000; stroke-width: 1;"></path></g></g></svg><svg viewBox="0 0 576 384" preserveAspectRatio="none" x="612" y="8" width="576" height="384"><path d="M0,0H576V384H0Z" style="fill: #ffffff;"></path><g><g transform="translate(58,38)"><path d="M0,0H461V307H0Z" style="fill: #ffffff; stroke: #000000; stroke-width: 1;"></path></g></g></svg><svg viewBox="0 0 576 384" preserveAspectRatio="none" x="12" y="408" width="576" height="384"><path d="M0,0H576V384H0Z" style="fill: #ffffff;"></path><g><g transform="translate(58,38)"><path d="M0,0H461V307H0Z" style="fill: #ffffff; stroke: #000000; stroke-width: 1;"></path></g></g></svg><svg viewBox="0 0 576 384" preserveAspectRatio="none" x="612" y="408" width="576" height="384"><path d="M0,0H576V384H0Z" style="fill: #ffffff;"></path><g><g transform="translate(58,38)"><path d="M0,0H461V307H0Z" style="fill: #ffffff; stroke: #000000; stroke-width: 1;"></path></g></g></svg></g></svg>