<svg xmlns="http://www.w3.org/2000/svg" viewBox="0 0 1200 800" preserveAspectRatio="none" width="1200" height="800"><path d="M0,0H1200V800H0Z" style="fill: #ffffff;"></path><g><g transform="translate(120,80)"><path d="M0,0H960V640H0Z" style="fill: #ffffff; stroke: #000000; stroke-width: 1;"></path><svg x="0" y="0" overflow="hidden" width="960" height="640" viewBox="0 0 960 640"><g><g transform="translate(184,551)"><path style="stroke: #000000; stroke-width: 1; fill: none;" d="M0,0H-32m0,3v-6M0,0H32m0,3v-6M0,0V33m3,0h-6M0,0V-33m3,0h-6"></path></g><g transform="translate(279,388)"><path style="stroke: #000000; stroke-width: 1; fill: none;" d="M0,0H-64m0,3v-6M0,0H64m0,3v-6M0,0V29m3,0h-6M0,0V-29m3,0h-6"></path></g><g transform="translate(407,275)"><path style="stroke: #000000; stroke-width: 1; fill: none;" d="M0,0H-45m0,3v-6M0,0H45m0,3v-6M0,0V25m3,0h-6M0,0V-25m3,0h-6"></path></g><g transform="translate(470,200)"><path style="stroke: #000000; stroke-width: 1; fill: none;" d="M0,0H-45m0,3v-6M0,0H45m0,3v-6M0,0V21m3,0h-6M0,0V-21m3,0h-6"></path></g><g transform="translate(566,133)"><path style="stroke: #000000; stroke-width: 1; fill: none;" d="M0,0H-25m0,3v-6M0,0H25m0,3v-6M0,0V17m3,0h-6M0,0V-17m3,0h-6"></path></g><g transform="translate(636,108)"><path style="stroke: #000000; stroke-width: 1; fill: none;" d="M0,0H-32m0,3v-6M0,0H32m0,3v-6M0,0V17m3,0h-6M0,0V-17m3,0h-6"></path></g><g transform="translate(693,145)"><path style="stroke: #000000; stroke-width: 1; fill: none;" d="M0,0H-38m0,3v-6M0,0H38m0,3v-6M0,0V21m3,0h-6M0,0V-21m3,0h-6"></path></g><g transform="translate(789,246)"><path style="stroke: #000000; stroke-width: 1; fill: none;" d="M0,0H-45m0,3v-6M0,0H45m0,3v-6M0,0V25m3,0h-6M0,0V-25m3,0h-6"></path></g><g transform="translate(814,321)"><path style="stroke: #000000; stroke-width: 1; fill: none;" d="M0,0H-51m0,3v-6M0,0H51m0,3v-6M0,0V29m3,0h-6M0,0V-29m3,0h-6"></path></g><g transform="translate(853,467)"><path style="stroke: #000000; stroke-width: 1; fill: none;" d="M0,0H-32m0,3v-6M0,0H32m0,3v-6M0,0V33m3,0h-6M0,0V-33m3,0h-6"></path></g><path d="M180,547v8h8v-8zM275,384v8h8v-8zM403,271v8h8v-8zM466,196v8h8v-8zM562,129v8h8v-8zM632,104v8h8v-8zM689,141v8h8v-8zM785,242v8h8v-8zM810,317v8h8v-8zM849,463v8h8v-8z" style="stroke: #0000ff; fill: #0000ff;"></path></g><g><path d="M83,507l9,-1h9l9,-1l9,-1l8,-1l9,-1l9,-1l9,-1l9,-1l8,-2l9,-2l9,-2l9,-2l9,-3l8,-3l9,-3l9,-4l9,-4l8,-4l9,-5l9,-5l9,-6l9,-6l8,-7l9,-7l9,-7l9,-9l9,-8l8,-10l9,-9l9,-11l9,-10l9,-12l8,-11l9,-12l9,-13l9,-12l9,-13l8,-13l9,-13l9,-13l9,-14l8,-13l9,-12l9,-13l9,-12l9,-12l8,-11l9,-10l9,-10l9,-9l9,-8l8,-7l9,-6l9,-5l9,-4l9,-3l8,-2h9h9l9,2l9,3l8,4l9,5l9,6l9,8l8,8l9,9l9,10l9,10l9,11l8,12l9,12l9,13l9,13l9,13l8,13l9,13l9,13l9,13l9,13l8,13l9,12l9,12l9,11l8,12l9,10l9,10l9,10l9,9l8,9l9,8l9,8l9,7l9,7l8,6l9,5l9,6l9,4" style="fill: none; stroke: #0000ff; stroke-width: 2;"></path></g><g><g transform="translate(69,421)"><path style="stroke: #000000; stroke-width: 1; fill: none;" d="M0,0H-25m0,3v-6M0,0H25m0,3v-6M0,0V25m3,0h-6M0,0V-25m3,0h-6"></path></g><g transform="translate(251,348)"><path style="stroke: #000000; stroke-width: 1; fill: none;" d="M0,0H-76m0,3v-6M0,0H76m0,3v-6M0,0V33m3,0h-6M0,0V-33m3,0h-6"></path></g><g transform="translate(369,217)"><path style="stroke: #000000; stroke-width: 1; fill: none;" d="M0,0H-51m0,3v-6M0,0H51m0,3v-6M0,0V29m3,0h-6M0,0V-29m3,0h-6"></path></g><g transform="translate(432,133)"><path style="stroke: #000000; stroke-width: 1; fill: none;" d="M0,0H-38m0,3v-6M0,0H38m0,3v-6M0,0V17m3,0h-6M0,0V-17m3,0h-6"></path></g><g transform="translate(534,91)"><path style="stroke: #000000; stroke-width: 1; fill: none;" d="M0,0H-32m0,3v-6M0,0H32m0,3v-6M0,0V13m3,0h-6M0,0V-13m3,0h-6"></path></g><g transform="translate(604,68)"><path style="stroke: #000000; stroke-width: 1; fill: none;" d="M0,0H-25m0,3v-6M0,0H25m0,3v-6M0,0V13m3,0h-6M0,0V-13m3,0h-6"></path></g><g transform="translate(662,106)"><path style="stroke: #000000; stroke-width: 1; fill: none;" d="M0,0H-45m0,3v-6M0,0H45m0,3v-6M0,0V17m3,0h-6M0,0V-17m3,0h-6"></path></g><g transform="translate(757,206)"><path style="stroke: #000000; stroke-width: 1; fill: none;" d="M0,0H-38m0,3v-6M0,0H38m0,3v-6M0,0V21m3,0h-6M0,0V-21m3,0h-6"></path></g><g transform="translate(821,283)"><path style="stroke: #000000; stroke-width: 1; fill: none;" d="M0,0H-51m0,3v-6M0,0H51m0,3v-6M0,0V25m3,0h-6M0,0V-25m3,0h-6"></path></g><g transform="translate(891,426)"><path style="stroke: #000000; stroke-width: 1; fill: none;" d="M0,0H-25m0,3v-6M0,0H25m0,3v-6M0,0V29m3,0h-6M0,0V-29m3,0h-6"></path></g><path d="M65,421a4,4,0,1,0,8,0a4,4,0,1,0,-8,0zM247,348a4,4,0,1,0,8,0a4,4,0,1,0,-8,0zM365,217a4,4,0,1,0,8,0a4,4,0,1,0,-8,0zM428,133a4,4,0,1,0,8,0a4,4,0,1,0,-8,0zM530,91a4,4,0,1,0,8,0a4,4,0,1,0,-8,0zM600,68a4,4,0,1,0,8,0a4,4,0,1,0,-8,0zM658,106a4,4,0,1,0,8,0a4,4,0,1,0,-8,0zM753,206a4,4,0,1,0,8,0a4,4,0,1,0,-8,0zM817,283a4,4,0,1,0,8,0a4,4,0,1,0,-8,0zM887,426a4,4,0,1,0,8,0a4,4,0,1,0,-8,0z" style="stroke: #ff0000; fill: #ff0000;"></path></g><g><path d="M-38,3603l10,-550l11,-485l10,-425l11,-370l10,-319l11,-274l10,-233l11,-195l10,-162l11,-132l10,-105l11,-82l10,-62l10,-43l11,-29l10,-16l11,-5l10,4l11,11l10,16l11,21l10,23l11,24l10,25l11,24l10,24l11,21l10,19l11,17l10,13l10,10l11,7l10,3h11l10,-3l11,-7l10,-10l11,-12l10,-15l11,-17l10,-18l11,-20l10,-21l11,-21l10,-22l11,-21l10,-21l11,-19l10,-19l10,-16l11,-15l10,-13l11,-10l10,-8l11,-5l10,-3h11l10,1l11,4l10,5l11,7l10,7l11,6l10,6l11,3l10,1l11,-4l10,-10l10,-17l11,-26l10,-37l11,-50l10,-65l11,-83l10,-103l11,-126l10,-152l11,-182l10,-215l11,-252l10,-292l11,-337l10,-386l11,-441l10,-499l10,-564l11,-633l10,-709l11,-791l10,-879l11,-973l10,-1076l11,-1184l10,-1301l11,-1426l10,-1559l11,-1701l10,-1852l11,-2011" style="fill: none; stroke: #ff0000; stroke-width: 2; stroke-dasharray: 3,3;"></path></g></svg><g><g transform="translate(0,640)"><path d="M0,0h960M25,-12V0M56,-12V0M88,-12V0M120,-24V0M152,-12V0M184,-12V0M216,-12V0M247,-24V0M279,-12V0M311,-12V0M343,-12V0M375,-24V0M407,-12V0M439,-12V0M470,-12V0M502,-24V0M534,-12V0M566,-12V0M598,-12V0M630,-24V0M662,-12V0M693,-12V0M725,-12V0M757,-24V0M789,-12V0M821,-12V0M853,-12V0M885,-24V0M916,-12V0M948,-12V0" style="stroke: #000000; stroke-width: 1;"></path><g font-family="Arial" font-size="28" space="preserve" fill="#000000" text-anchor="middle"><text dy=".8em" transform="translate(120,5)">-0.2</text><text dy=".8em" transform="translate(247,5)">0</text><text dy=".8em" transform="translate(375,5)">0.2</text><text dy=".8em" transform="translate(502,5)">0.4</text><text dy=".8em" transform="translate(630,5)">0.6</text><text dy=".8em" transform="translate(757,5)">0.8</text><text dy=".8em" transform="translate(885,5)">1</text></g></g><g><path d="M0,0v640M18,635H0M18,614H0M36,593H0M18,572H0M18,551H0M18,530H0M36,509H0M18,488H0M18,467H0M18,446H0M36,426H0M18,405H0M18,384H0M18,363H0M36,342H0M18,321H0M18,300H0M18,279H0M36,258H0M18,237H0M18,217H0M18,196H0M36,175H0M18,154H0M18,133H0M18,112H0M36,91H0M18,70H0M18,49H0M18,28H0M36,7H0" style="stroke: #000000; stroke-width: 1;"></path><g font-family="Arial" font-size="28" space="preserve" fill="#000000" text-anchor="end"><text dy=".4em" transform="translate(-6,593)">-2</text><text dy=".4em" transform="translate(-6,509)">0</text><text dy=".4em" transform="translate(-6,426)">2</text><text dy=".4em" transform="translate(-6,342)">4</text><text dy=".4em" transform="translate(-6,258)">6</text><text dy=".4em" transform="translate(-6,175)">8</text><text dy=".4em" transform="translate(-6,91)">10</text><text dy=".4em" transform="translate(-6,7)">12</text></g></g><path d="M120,0v640M247,0v640M375,0v640M502,0v640M630,0v640M757,0v640M885,0v640" style="stroke: #000000; stroke-width: 1; stroke-dasharray: 1,2;"></path><path d="M0,593h960M0,509h960M0,426h960M0,342h960M0,258h960M0,175h960M0,91h960M0,7h960" style="stroke: #000000; stroke-width: 1; stroke-dasharray: 1,2;"></path></g></g><g transform="translate(144,52)" font-family="Arial" font-size="17" space="preserve"><path d="M0,0H240V92H0Z" style="fill: #ffffff; stroke: #000000; stroke-width: 1;"></path><g transform="translate(12,19) scale(0.902)"><text fill="#0000ff" font-size="19">χ</text><text fill="#0000ff" font-size="11" transform="translate(11,-10)">2</text><text fill="#0000ff" font-size="19" x="25">/ ndf</text></g><text fill="#0000ff" text-anchor="end" dy=".4em" transform="translate(228,12)"> 8.792 / 7</text><text fill="#0000ff" text-anchor="start" dy=".4em" transform="translate(12,35)">Constant </text><g transform="translate(119,41) scale(0.902)"><text fill="#0000ff" font-size="19" x="8">9.630 ± 0.391</text></g><text fill="#0000ff" text-anchor="start" dy=".4em" transform="translate(12,58)">Mean </text><g transform="translate(99,64) scale(0.902)"><text fill="#0000ff" font-size="19" x="8">0.5555 ± 0.0237</text></g><text fill="#0000ff" text-anchor="start" dy=".4em" transform="translate(12,81)">Sigma </text><g transform="translate(100,87) scale(0.902)"><text fill="#0000ff" font-size="19" x="8">0.2556 ± 0.0219</text></g></g><g transform="translate(864,52)" font-family="Arial" font-size="16" space="preserve"><path d="M0,0H240V148H0Z" style="fill: #ffffff; stroke: #000000; stroke-width: 1;"></path><g transform="translate(12,17) scale(0.893)"><text fill="#ff0000" font-size="18">χ</text><text fill="#ff0000" font-size="11" transform="translate(11,-9)">2</text><text fill="#ff0000" font-size="18" x="23">/ ndf</text></g><text fill="#ff0000" text-anchor="end" dy=".4em" transform="translate(228,11)"> 17.70 / 4</text><text fill="#ff0000" text-anchor="start" dy=".4em" transform="translate(12,32)">p0 </text><g transform="translate(90,37) scale(0.893)"><text fill="#ff0000" font-size="18" x="7">4.644 ± 78093.423</text></g><text fill="#ff0000" text-anchor="start" dy=".4em" transform="translate(12,53)">p1 </text><g transform="translate(94,59) scale(0.893)"><text fill="#ff0000" font-size="18" x="7">-28.63 ± 78043.81</text></g><text fill="#ff0000" text-anchor="start" dy=".4em" transform="translate(12,74)">p2 </text><g transform="translate(108,80) scale(0.893)"><text fill="#ff0000" font-size="18" x="7">109.0 ± 78027.4</text></g><text fill="#ff0000" text-anchor="start" dy=".4em" transform="translate(12,95)">p3 </text><g transform="translate(108,101) scale(0.893)"><text fill="#ff0000" font-size="18" x="7">388.5 ± 71003.5</text></g><text fill="#ff0000" text-anchor="start" dy=".4em" transform="translate(12,116)">p4 </text><g transform="translate(108,122) scale(0.893)"><text fill="#ff0000" font-size="18" x="7">-1437 ± 39.8614</text></g><text fill="#ff0000" text-anchor="start" dy=".4em" transform="translate(12,137)">p5 </text><g transform="translate(88,143) scale(0.893)"><text fill="#ff0000" font-size="18" x="7">1100 ± 65018.0173</text></g></g></g></svg>