<svg xmlns="http://www.w3.org/2000/svg" viewBox="0 0 1200 800" preserveAspectRatio="none" width="1200" height="800"><path d="M0,0H1200V800H0Z" style="fill: #ffffff;"></path><g><svg viewBox="0 0 1176 251" preserveAspectRatio="none" x="12" y="8" width="1176" height="251"><path d="M0,0H1176V251H0Z" style="fill: #ffffff;"></path><g><g transform="translate(118,25)"><path d="M0,0H941V201H0Z" style="fill: #ffffff; stroke: #000000; stroke-width: 1;"></path><svg x="0" y="0" overflow="hidden" width="941" height="201" viewBox="0 0 941 201"><g><path d="M5,201h9h10h9h10h9h9h10h9h10h9h10h9h9h10h9l10,-1h9h9l10,-1h9l10,-1l9,-1l9,-2l10,-1l9,-3l10,-2l9,-3l9,-4l10,-4l9,-6l10,-6l9,-6l10,-8l9,-9l9,-9l10,-10l9,-11l10,-11l9,-11l9,-12l10,-12l9,-11l10,-10l9,-10l9,-8l10,-7l9,-6l10,-4l9,-1h10l9,1l9,4l10,6l9,7l10,8l9,10l9,10l10,11l9,12l10,12l9,11l9,11l10,11l9,10l10,9l9,9l9,8l10,6l9,6l10,6l9,4l10,4l9,3l9,2l10,3l9,1l10,2l9,1l9,1h10l9,1h10h9l9,1h10h9h10h9h9h10h9h10h9h10h9h9h10h9h10" style="fill: none; stroke: #0000ff; stroke-width: 2;"></path></g></svg><g><g transform="translate(0,201)"><path d="M0,0h941M0,-8V0M19,-4V0M38,-4V0M56,-4V0M75,-4V0M94,-8V0M113,-4V0M132,-4V0M151,-4V0M169,-4V0M188,-8V0M207,-4V0M226,-4V0M245,-4V0M263,-4V0M282,-8V0M301,-4V0M320,-4V0M339,-4V0M358,-4V0M376,-8V0M395,-4V0M414,-4V0M433,-4V0M452,-4V0M471,-8V0M489,-4V0M508,-4V0M527,-4V0M546,-4V0M565,-8V0M583,-4V0M602,-4V0M621,-4V0M640,-4V0M659,-8V0M678,-4V0M696,-4V0M715,-4V0M734,-4V0M753,-8V0M772,-4V0M790,-4V0M809,-4V0M828,-4V0M847,-8V0M866,-4V0M885,-4V0M903,-4V0M922,-4V0M941,-8V0" style="stroke: #000000; stroke-width: 1;"></path><g font-family="Arial" font-size="15" space="preserve" fill="#000000" text-anchor="middle"><text dy=".8em" transform="translate(0,2)">-5</text><text dy=".8em" transform="translate(94,2)">-4</text><text dy=".8em" transform="translate(188,2)">-3</text><text dy=".8em" transform="translate(282,2)">-2</text><text dy=".8em" transform="translate(376,2)">-1</text><text dy=".8em" transform="translate(471,2)">0</text><text dy=".8em" transform="translate(565,2)">1</text><text dy=".8em" transform="translate(659,2)">2</text><text dy=".8em" transform="translate(753,2)">3</text><text dy=".8em" transform="translate(847,2)">4</text><text dy=".8em" transform="translate(941,2)">5</text></g><g font-family="Arial" font-size="18" space="preserve" transform="translate(941,16)"><text fill="#000000" text-anchor="end" dy=".4em">x</text></g></g><g><path d="M0,0v201M35,201H0M18,196H0M18,191H0M18,187H0M18,182H0M35,177H0M18,172H0M18,167H0M18,163H0M18,158H0M35,153H0M18,148H0M18,143H0M18,139H0M18,134H0M35,129H0M18,124H0M18,119H0M18,115H0M18,110H0M35,105H0M18,100H0M18,95H0M18,90H0M18,86H0M35,81H0M18,76H0M18,71H0M18,66H0M18,62H0M35,57H0M18,52H0M18,47H0M18,42H0M18,38H0M35,33H0M18,28H0M18,23H0M18,18H0M18,14H0M35,9H0M18,4H0" style="stroke: #000000; stroke-width: 1;"></path><g font-family="Arial" font-size="15" space="preserve" fill="#000000" text-anchor="end"><text dy=".4em" transform="translate(-2,201)">0</text><text dy=".4em" transform="translate(-2,177)">0.05</text><text dy=".4em" transform="translate(-2,153)">0.1</text><text dy=".4em" transform="translate(-2,129)">0.15</text><text dy=".4em" transform="translate(-2,105)">0.2</text><text dy=".4em" transform="translate(-2,81)">0.25</text><text dy=".4em" transform="translate(-2,57)">0.3</text><text dy=".4em" transform="translate(-2,33)">0.35</text><text dy=".4em" transform="translate(-2,9)">0.4</text></g></g></g></g><g transform="translate(687,37)" font-family="Arial" font-size="41" space="preserve"><path d="M0,0H354V63H0Z" style="fill: #ffffff; stroke: #000000; stroke-width: 1;"></path><path d="M11,32H78" style="stroke: #0000ff; stroke-width: 2;"></path><text fill="#000000" text-anchor="start" dy=".4em" transform="translate(89,32)">normal_pdf</text></g></g></svg><svg viewBox="0 0 1176 251" preserveAspectRatio="none" x="12" y="274" width="1176" height="251"><path d="M0,0H1176V251H0Z" style="fill: #ffffff;"></path><g><g transform="translate(118,25)"><path d="M0,0H941V201H0Z" style="fill: #ffffff; stroke: #000000; stroke-width: 1;"></path><svg x="0" y="0" overflow="hidden" width="941" height="201" viewBox="0 0 941 201"><g><path d="M5,201h9h10h9h10h9h9h10h9h10h9h10h9h9h10h9h10h9h9h10h9h10l9,-1h9h10h9l10,-1h9l9,-1l10,-1l9,-1l10,-1l9,-2l10,-1l9,-3l9,-2l10,-3l9,-3l10,-4l9,-4l9,-5l10,-5l9,-5l10,-6l9,-7l9,-6l10,-8l9,-7l10,-7l9,-8l10,-8l9,-7l9,-8l10,-7l9,-7l10,-7l9,-6l9,-6l10,-6l9,-5l10,-4l9,-4l9,-4l10,-3l9,-3l10,-3l9,-2l9,-2l10,-1l9,-2l10,-1h9l10,-1l9,-1h9h10l9,-1h10h9h9h10h9h10h9h9h10h9h10h9h9h10h9h10h9h10h9h9h10h9h10" style="fill: none; stroke: #ff0000; stroke-width: 2;"></path></g><g><path d="M5,10h9h10h9h10h9h9h10h9h10h9h10h9h9h10h9h10h9h9h10h9h10h9h9l10,1h9h10l9,1l9,1h10l9,1l10,2l9,1l10,2l9,2l9,3l10,3l9,3l10,4l9,4l9,4l10,5l9,6l10,6l9,6l9,7l10,7l9,7l10,8l9,7l10,8l9,8l9,7l10,7l9,8l10,6l9,7l9,6l10,5l9,5l10,5l9,4l9,4l10,3l9,3l10,2l9,3l9,1l10,2l9,1l10,1l9,1l10,1h9l9,1h10h9h10l9,1h9h10h9h10h9h9h10h9h10h9h9h10h9h10h9h10h9h9h10h9h10" style="fill: none; stroke: #00ff00; stroke-width: 2;"></path></g></svg><g><g transform="translate(0,201)"><path d="M0,0h941M0,-8V0M19,-4V0M38,-4V0M56,-4V0M75,-4V0M94,-8V0M113,-4V0M132,-4V0M151,-4V0M169,-4V0M188,-8V0M207,-4V0M226,-4V0M245,-4V0M263,-4V0M282,-8V0M301,-4V0M320,-4V0M339,-4V0M358,-4V0M376,-8V0M395,-4V0M414,-4V0M433,-4V0M452,-4V0M471,-8V0M489,-4V0M508,-4V0M527,-4V0M546,-4V0M565,-8V0M583,-4V0M602,-4V0M621,-4V0M640,-4V0M659,-8V0M678,-4V0M696,-4V0M715,-4V0M734,-4V0M753,-8V0M772,-4V0M790,-4V0M809,-4V0M828,-4V0M847,-8V0M866,-4V0M885,-4V0M903,-4V0M922,-4V0M941,-8V0" style="stroke: #000000; stroke-width: 1;"></path><g font-family="Arial" font-size="15" space="preserve" fill="#000000" text-anchor="middle"><text dy=".8em" transform="translate(0,2)">-5</text><text dy=".8em" transform="translate(94,2)">-4</text><text dy=".8em" transform="translate(188,2)">-3</text><text dy=".8em" transform="translate(282,2)">-2</text><text dy=".8em" transform="translate(376,2)">-1</text><text dy=".8em" transform="translate(471,2)">0</text><text dy=".8em" transform="translate(565,2)">1</text><text dy=".8em" transform="translate(659,2)">2</text><text dy=".8em" transform="translate(753,2)">3</text><text dy=".8em" transform="translate(847,2)">4</text><text dy=".8em" transform="translate(941,2)">5</text></g><g font-family="Arial" font-size="18" space="preserve" transform="translate(941,16)"><text fill="#000000" text-anchor="end" dy=".4em">x</text></g></g><g><path d="M0,0v201M35,201H0M18,197H0M18,193H0M18,190H0M18,186H0M35,182H0M18,178H0M18,174H0M18,170H0M18,167H0M35,163H0M18,159H0M18,155H0M18,151H0M18,147H0M35,144H0M18,140H0M18,136H0M18,132H0M18,128H0M35,124H0M18,121H0M18,117H0M18,113H0M18,109H0M35,105H0M18,101H0M18,98H0M18,94H0M18,90H0M35,86H0M18,82H0M18,78H0M18,75H0M18,71H0M35,67H0M18,63H0M18,59H0M18,56H0M18,52H0M35,48H0M18,44H0M18,40H0M18,36H0M18,33H0M35,29H0M18,25H0M18,21H0M18,17H0M18,13H0M35,10H0M18,6H0M18,2H0" style="stroke: #000000; stroke-width: 1;"></path><g font-family="Arial" font-size="15" space="preserve" fill="#000000" text-anchor="end"><text dy=".4em" transform="translate(-2,201)">0</text><text dy=".4em" transform="translate(-2,182)">0.1</text><text dy=".4em" transform="translate(-2,163)">0.2</text><text dy=".4em" transform="translate(-2,144)">0.3</text><text dy=".4em" transform="translate(-2,124)">0.4</text><text dy=".4em" transform="translate(-2,105)">0.5</text><text dy=".4em" transform="translate(-2,86)">0.6</text><text dy=".4em" transform="translate(-2,67)">0.7</text><text dy=".4em" transform="translate(-2,48)">0.8</text><text dy=".4em" transform="translate(-2,29)">0.9</text><text dy=".4em" transform="translate(-2,10)">1</text></g><g font-family="Arial" font-size="18" space="preserve" transform="translate(-74)"><text fill="#000000" text-anchor="end" dy=".4em" transform="rotate(270)">p</text></g></g></g></g><g transform="translate(689,73)" font-family="Arial" font-size="24" space="preserve"><path d="M0,0H354V62H0Z" style="fill: #ffffff; stroke: #000000; stroke-width: 1;"></path><path d="M11,17H78" style="stroke: #ff0000; stroke-width: 2;"></path><text fill="#000000" text-anchor="start" dy=".4em" transform="translate(89,17)">normal_cdf</text><path d="M11,46H78" style="stroke: #00ff00; stroke-width: 2;"></path><text fill="#000000" text-anchor="start" dy=".4em" transform="translate(89,46)">normal_cdf_c</text></g></g></svg><svg viewBox="0 0 1176 251" preserveAspectRatio="none" x="12" y="541" width="1176" height="251"><path d="M0,0H1176V251H0Z" style="fill: #ffffff;"></path><g><g transform="translate(118,25)"><path d="M0,0H941V201H0Z" style="fill: #ffffff; stroke: #000000; stroke-width: 1;"></path><svg x="0" y="0" overflow="hidden" width="941" height="201" viewBox="0 0 941 201"><g><path d="M1,192l1,-9l1,-5l1,-3l1,-2l1,-2l1,-1l1,-2v-1l1,-1l1,-1l1,-1l1,-1l1,-1l1,-1l1,-1h1l1,-1h1l1,-1l1,-1h1l1,-1h1l1,-1v0l1,-1h1l1,-1h1h1l1,-1h1l1,-1h1h1l1,-1h1h1l1,-1h1h1v-1h2h1l1,-1h1h1l1,-1h1h1h1l1,-1h1h1h1l1,-1h1v0l2,-1h1h1h1h1l1,-1h1h1h1h1l1,-1h1h1h1h1v-1h2h1h1l1,-1h1h1h1h1l1,-1h1h1h1h1h1l1,-1v0h2h1h1l1,-1h1h1h1h1h1h1l1,-1h1h1h1h1v0l1,-1h1h1h1h1h1h1l1,-1h1h1h1h1h1h1h1l1,-1v0h2h1h1h1l1,-1h1h1h1h1h1h1h1l1,-1h1h1v0h2h1h1l1,-1h1h1h1h1h1h1h1h1l1,-1h1h1v0h2h1h1h1l1,-1h1h1h1h1h1h1h1h1l1,-1v0h2h1h1h1h1h1h1l1,-1h1h1h1h1h1h1h1v0l1,-1h1h1h1h1h1h1h1h1h1h1l1,-1h1h1h1h1v0h2h1h1l1,-1h1h1h1h1h1h1h1h1h1h1l1,-1v0h2h1h1h1h1h1h1h1l1,-1h1h1h1h1h1h1v0h2h1l1,-1h1h1h1h1h1h1h1h1h1h1h1l1,-1v0h2h1h1h1h1h1h1h1l1,-1h1h1h1h1h1h1v0h2h1h1h1l1,-1h1h1h1h1h1h1h1h1h1h1v0l1,-1h1h1h1h1h1h1h1h1h1h1h1h1l1,-1h1h1v0h2h1h1h1h1h1h1l1,-1h1h1h1h1h1h1h1v0h2h1h1l1,-1h1h1h1h1h1h1h1h1h1h1h1v0l2,-1h1h1h1h1h1h1h1h1h1h1h1h1l1,-1h1v0h2h1h1h1h1h1h1h1h1h1l1,-1h1h1h1h1v0h2h1h1h1h1h1h1l1,-1h1h1h1h1h1h1h1v0h2h1h1l1,-1h1h1h1h1h1h1h1h1h1h1h1v0l2,-1h1h1h1h1h1h1h1h1h1h1h1h1h1h1v-1h2h1h1h1h1h1h1h1h1h1h1h1l1,-1h1h1v0h2h1h1h1h1h1h1h1h1l1,-1h1h1h1h1h1v0h2h1h1h1h1h1l1,-1h1h1h1h1h1h1h1h1v0h2h1h1h1l1,-1h1h1h1h1h1h1h1h1h1h1v0h2l1,-1h1h1h1h1h1h1h1h1h1h1h1h1v0l2,-1h1h1h1h1h1h1h1h1h1h1h1h1h1l1,-1v0h2h1h1h1h1h1h1h1h1h1h1l1,-1h1h1h1v0h2h1h1h1h1h1h1h1h1l1,-1h1h1h1h1h1v0h2h1h1h1h1h1l1,-1h1h1h1h1h1h1h1h1v0h2h1h1l1,-1h1h1h1h1h1h1h1h1h1h1h1v0l2,-1h1h1h1h1h1h1h1h1h1h1h1h1h1l1,-1v0h2h1h1h1h1h1h1h1h1h1l1,-1h1h1h1h1v0h2h1h1h1h1h1h1l1,-1h1h1h1h1h1h1h1v0h2h1h1l1,-1h1h1h1h1h1h1h1h1h1h1h1v0l2,-1h1h1h1h1h1h1h1h1h1h1h1l1,-1h1h1v0h2h1h1h1h1h1h1h1l1,-1h1h1h1h1h1h1v0h2h1h1h1l1,-1h1h1h1h1h1h1h1h1h1h1v0l1,-1h1h1h1h1h1h1h1h1h1h1h1l1,-1h1h1h1v0h2h1h1h1h1h1l1,-1h1h1h1h1h1h1h1h1v0l2,-1h1h1h1h1h1h1h1h1h1h1l1,-1h1h1h1v0h2h1h1h1h1l1,-1h1h1h1h1h1h1h1h1h1v0l1,-1h1h1h1h1h1h1h1h1h1l1,-1h1h1h1h1h1v0h2h1l1,-1h1h1h1h1h1h1h1h1h1l1,-1h1h1v0h2h1h1h1l1,-1h1h1h1h1h1h1h1h1l1,-1v0h2h1h1h1h1h1l1,-1h1h1h1h1h1h1h1l1,-1v0h2h1h1h1h1l1,-1h1h1h1h1h1h1h1l1,-1h1v0h2h1h1h1l1,-1h1h1h1h1h1h1l1,-1h1h1h1v0h2l1,-1h1h1h1h1h1l1,-1h1h1h1h1h1h1l1,-1v0h2h1l1,-1h1h1h1h1h1l1,-1h1h1h1h1h1l1,-1v0h2h1l1,-1h1h1h1h1l1,-1h1h1h1l1,-1h1h1h1v0l1,-1h1h1h1l1,-1h1h1h1l1,-1h1h1l1,-1h1h1h1l1,-1v0l2,-1h1h1l1,-1h1h1l1,-1h1h1l1,-1h1l1,-1h1h1l1,-1v0l1,-1h1l1,-1h1l1,-1h1l1,-1l1,-1h1l1,-1l1,-1l1,-1h1l1,-1l1,-1l1,-1v-1l1,-2l1,-1l1,-2l1,-2l1,-2l1,-3l1,-4l1,-9" style="fill: none; stroke: #ff0000; stroke-width: 2;"></path></g><g><path d="M1,10l1,9l1,4l1,3l1,2l1,2l1,2l1,1v2l1,1l1,1l1,1l1,1h1l1,1l1,1l1,1h1l1,1l1,1h1l1,1h1l1,1h1v1l2,1h1h1l1,1h1l1,1h1h1l1,1h1h1l1,1h1h1l1,1v0l2,1h1h1h1l1,1h1h1l1,1h1h1h1l1,1h1h1h1v1h2h1h1l1,1h1h1h1l1,1h1h1h1h1l1,1h1h1v0l2,1h1h1h1h1h1l1,1h1h1h1h1h1l1,1h1h1v0l2,1h1h1h1h1h1h1l1,1h1h1h1h1h1l1,1h1v0h2h1h1l1,1h1h1h1h1h1h1l1,1h1h1h1h1v0h2l1,1h1h1h1h1h1h1h1l1,1h1h1h1h1h1v0l2,1h1h1h1h1h1h1h1l1,1h1h1h1h1h1h1v0l2,1h1h1h1h1h1h1h1h1l1,1h1h1h1h1v0h2h1l1,1h1h1h1h1h1h1h1h1h1l1,1h1h1v0h2h1h1h1h1l1,1h1h1h1h1h1h1h1h1h1v1h2h1h1h1h1h1h1h1h1l1,1h1h1h1h1h1v0h2h1h1l1,1h1h1h1h1h1h1h1h1h1h1l1,1v0h2h1h1h1h1h1h1h1l1,1h1h1h1h1h1h1v0h2h1h1l1,1h1h1h1h1h1h1h1h1h1h1h1v1h2h1h1h1h1h1h1h1h1h1l1,1h1h1h1h1v0h2h1h1h1h1h1l1,1h1h1h1h1h1h1h1h1v0h2h1l1,1h1h1h1h1h1h1h1h1h1h1h1l1,1v0h2h1h1h1h1h1h1h1h1h1h1l1,1h1h1h1v0h2h1h1h1h1h1h1l1,1h1h1h1h1h1h1h1v0h2h1h1h1l1,1h1h1h1h1h1h1h1h1h1h1v0l2,1h1h1h1h1h1h1h1h1h1h1h1h1h1l1,1v0h2h1h1h1h1h1h1h1h1h1h1l1,1h1h1h1v0h2h1h1h1h1h1h1h1l1,1h1h1h1h1h1h1v0h2h1h1h1h1l1,1h1h1h1h1h1h1h1h1h1v0h2h1h1l1,1h1h1h1h1h1h1h1h1h1h1h1v0l2,1h1h1h1h1h1h1h1h1h1h1h1h1h1l1,1v0h2h1h1h1h1h1h1h1h1h1h1h1l1,1h1h1v0h2h1h1h1h1h1h1h1h1l1,1h1h1h1h1v0h2h1h1h1h1h1h1h1l1,1h1h1h1h1h1h1v0h2h1h1h1h1l1,1h1h1h1h1h1h1h1h1h1v0h2h1l1,1h1h1h1h1h1h1h1h1h1h1h1h1v0l1,1h1h1h1h1h1h1h1h1h1h1h1h1h1h1l1,1v0h2h1h1h1h1h1h1h1h1h1h1l1,1h1h1h1v0h2h1h1h1h1h1h1l1,1h1h1h1h1h1h1h1v0h2h1h1h1l1,1h1h1h1h1h1h1h1h1h1h1v0h2l1,1h1h1h1h1h1h1h1h1h1h1h1h1l1,1v0h2h1h1h1h1h1h1h1h1h1h1l1,1h1h1h1v0h2h1h1h1h1h1h1l1,1h1h1h1h1h1h1h1v0h2h1l1,1h1h1h1h1h1h1h1h1h1h1h1h1v1h2h1h1h1h1h1h1h1h1h1l1,1h1h1h1h1v0h2h1h1h1h1h1l1,1h1h1h1h1h1h1h1h1v0l2,1h1h1h1h1h1h1h1h1h1h1h1l1,1h1h1v0h2h1h1h1h1h1l1,1h1h1h1h1h1h1h1h1v0l2,1h1h1h1h1h1h1h1h1h1h1l1,1h1h1h1v0h2h1h1h1l1,1h1h1h1h1h1h1h1h1h1h1v1h2h1h1h1h1h1h1l1,1h1h1h1h1h1h1h1v0l2,1h1h1h1h1h1h1h1h1l1,1h1h1h1h1v0h2h1l1,1h1h1h1h1h1h1h1h1l1,1h1h1h1v0h2h1l1,1h1h1h1h1h1h1h1l1,1h1h1h1h1v0l2,1h1h1h1h1h1h1h1l1,1h1h1h1h1h1h1v1h2h1h1h1l1,1h1h1h1h1h1h1l1,1h1h1h1v0l2,1h1h1h1h1h1l1,1h1h1h1h1l1,1h1h1h1v0l1,1h1h1h1h1l1,1h1h1h1h1l1,1h1h1h1h1l1,1v0h2l1,1h1h1h1l1,1h1h1h1l1,1h1h1l1,1h1h1v0l1,1h1h1l1,1h1h1l1,1h1h1l1,1h1l1,1h1h1l1,1h1v1l2,1h1l1,1h1l1,1l1,1h1l1,1h1l1,1l1,1l1,1l1,1l1,1l1,1v1l1,1l1,2l1,1l1,2l1,2l1,3l1,5l1,9" style="fill: none; stroke: #00ff00; stroke-width: 2;"></path></g></svg><g><g transform="translate(0,201)"><path d="M0,0h941M0,-8V0M19,-4V0M38,-4V0M56,-4V0M75,-4V0M94,-8V0M113,-4V0M132,-4V0M151,-4V0M169,-4V0M188,-8V0M207,-4V0M226,-4V0M245,-4V0M263,-4V0M282,-8V0M301,-4V0M320,-4V0M339,-4V0M358,-4V0M376,-8V0M395,-4V0M414,-4V0M433,-4V0M452,-4V0M471,-8V0M489,-4V0M508,-4V0M527,-4V0M546,-4V0M565,-8V0M583,-4V0M602,-4V0M621,-4V0M640,-4V0M659,-8V0M678,-4V0M696,-4V0M715,-4V0M734,-4V0M753,-8V0M772,-4V0M790,-4V0M809,-4V0M828,-4V0M847,-8V0M866,-4V0M885,-4V0M903,-4V0M922,-4V0M941,-8V0" style="stroke: #000000; stroke-width: 1;"></path><g font-family="Arial" font-size="15" space="preserve" fill="#000000" text-anchor="middle"><text dy=".8em" transform="translate(0,2)">0</text><text dy=".8em" transform="translate(94,2)">0.1</text><text dy=".8em" transform="translate(188,2)">0.2</text><text dy=".8em" transform="translate(282,2)">0.3</text><text dy=".8em" transform="translate(376,2)">0.4</text><text dy=".8em" transform="translate(471,2)">0.5</text><text dy=".8em" transform="translate(565,2)">0.6</text><text dy=".8em" transform="translate(659,2)">0.7</text><text dy=".8em" transform="translate(753,2)">0.8</text><text dy=".8em" transform="translate(847,2)">0.9</text><text dy=".8em" transform="translate(941,2)">1</text></g><g font-family="Arial" font-size="18" space="preserve" transform="translate(941,16)"><text fill="#000000" text-anchor="end" dy=".4em">p</text></g></g><g><path d="M0,0v201M18,200H0M18,195H0M18,189H0M35,184H0M18,178H0M18,173H0M18,167H0M18,162H0M35,156H0M18,151H0M18,145H0M18,140H0M18,134H0M35,128H0M18,123H0M18,117H0M18,112H0M18,106H0M35,101H0M18,95H0M18,90H0M18,84H0M18,79H0M35,73H0M18,67H0M18,62H0M18,56H0M18,51H0M35,45H0M18,40H0M18,34H0M18,29H0M18,23H0M35,18H0M18,12H0M18,7H0M18,1H0" style="stroke: #000000; stroke-width: 1;"></path><g font-family="Arial" font-size="15" space="preserve" fill="#000000" text-anchor="end"><text dy=".4em" transform="translate(-2,184)">-3</text><text dy=".4em" transform="translate(-2,156)">-2</text><text dy=".4em" transform="translate(-2,128)">-1</text><text dy=".4em" transform="translate(-2,101)">0</text><text dy=".4em" transform="translate(-2,73)">1</text><text dy=".4em" transform="translate(-2,45)">2</text><text dy=".4em" transform="translate(-2,18)">3</text></g><g font-family="Arial" font-size="18" space="preserve" transform="translate(-74)"><text fill="#000000" text-anchor="end" dy=".4em" transform="rotate(270)">x</text></g></g></g></g><g transform="translate(371,30)" font-family="Arial" font-size="24" space="preserve"><path d="M0,0H447V62H0Z" style="fill: #ffffff; stroke: #000000; stroke-width: 1;"></path><path d="M13,17H99" style="stroke: #ff0000; stroke-width: 2;"></path><text fill="#000000" text-anchor="start" dy=".4em" transform="translate(112,17)">normal_quantile</text><path d="M13,46H99" style="stroke: #00ff00; stroke-width: 2;"></path><text fill="#000000" text-anchor="start" dy=".4em" transform="translate(112,46)">normal_quantile_c</text></g></g></svg></g></svg>