<svg xmlns="http://www.w3.org/2000/svg" viewBox="0 0 1200 800" preserveAspectRatio="none" width="1200" height="800"><path d="M0,0H1200V800H0Z" style="fill: #ffffff;"></path><g><svg viewBox="0 0 1176 251" preserveAspectRatio="none" x="12" y="8" width="1176" height="251"><path d="M0,0H1176V251H0Z" style="fill: #ffffff;"></path><g><g transform="translate(118,25)"><path d="M0,0H941V201H0Z" style="fill: #ffffff; stroke: #000000; stroke-width: 1;"></path><svg x="0" y="0" overflow="hidden" width="941" height="201" viewBox="0 0 941 201"><g><path d="M5,201h9h10h9h10h9h9h10h9h10h9h10h9h9h10h9l10,-1h9h9l10,-1h9l10,-1l9,-1l9,-2l10,-1l9,-3l10,-2l9,-3l9,-4l10,-4l9,-6l10,-6l9,-6l10,-8l9,-9l9,-9l10,-10l9,-11l10,-11l9,-11l9,-12l10,-12l9,-11l10,-10l9,-10l9,-8l10,-7l9,-6l10,-4l9,-1h10l9,1l9,4l10,6l9,7l10,8l9,10l9,10l10,11l9,12l10,12l9,11l9,11l10,11l9,10l10,9l9,9l9,8l10,6l9,6l10,6l9,4l10,4l9,3l9,2l10,3l9,1l10,2l9,1l9,1h10l9,1h10h9l9,1h10h9h10h9h9h10h9h10h9h10h9h9h10h9h10" style="fill: none; stroke: #0000ff; stroke-width: 2;"></path></g></svg><g><g transform="translate(0,201)"><path d="M0,0h941M0,-6V0M19,-3V0M38,-3V0M56,-3V0M75,-3V0M94,-6V0M113,-3V0M132,-3V0M151,-3V0M169,-3V0M188,-6V0M207,-3V0M226,-3V0M245,-3V0M263,-3V0M282,-6V0M301,-3V0M320,-3V0M339,-3V0M358,-3V0M376,-6V0M395,-3V0M414,-3V0M433,-3V0M452,-3V0M471,-6V0M489,-3V0M508,-3V0M527,-3V0M546,-3V0M565,-6V0M583,-3V0M602,-3V0M621,-3V0M640,-3V0M659,-6V0M678,-3V0M696,-3V0M715,-3V0M734,-3V0M753,-6V0M772,-3V0M790,-3V0M809,-3V0M828,-3V0M847,-6V0M866,-3V0M885,-3V0M903,-3V0M922,-3V0M941,-6V0" style="stroke: #000000; stroke-width: 1;"></path><g font-family="Arial" font-size="15" space="preserve" fill="#000000" text-anchor="middle"><text dy=".8em" transform="translate(0,2)">-5</text><text dy=".8em" transform="translate(94,2)">-4</text><text dy=".8em" transform="translate(188,2)">-3</text><text dy=".8em" transform="translate(282,2)">-2</text><text dy=".8em" transform="translate(376,2)">-1</text><text dy=".8em" transform="translate(471,2)">0</text><text dy=".8em" transform="translate(565,2)">1</text><text dy=".8em" transform="translate(659,2)">2</text><text dy=".8em" transform="translate(753,2)">3</text><text dy=".8em" transform="translate(847,2)">4</text><text dy=".8em" transform="translate(941,2)">5</text></g><g font-family="Arial" font-size="18" space="preserve" transform="translate(941,16)"><text fill="#000000" text-anchor="end" dy=".4em">x</text></g></g><g><path d="M0,0v201M28,201H0M14,196H0M14,191H0M14,187H0M14,182H0M28,177H0M14,172H0M14,167H0M14,163H0M14,158H0M28,153H0M14,148H0M14,143H0M14,139H0M14,134H0M28,129H0M14,124H0M14,119H0M14,115H0M14,110H0M28,105H0M14,100H0M14,95H0M14,90H0M14,86H0M28,81H0M14,76H0M14,71H0M14,66H0M14,62H0M28,57H0M14,52H0M14,47H0M14,42H0M14,38H0M28,33H0M14,28H0M14,23H0M14,18H0M14,14H0M28,9H0M14,4H0" style="stroke: #000000; stroke-width: 1;"></path><g font-family="Arial" font-size="15" space="preserve" fill="#000000" text-anchor="end"><text dy=".4em" transform="translate(-2,201)">0</text><text dy=".4em" transform="translate(-2,177)">0.05</text><text dy=".4em" transform="translate(-2,153)">0.1</text><text dy=".4em" transform="translate(-2,129)">0.15</text><text dy=".4em" transform="translate(-2,105)">0.2</text><text dy=".4em" transform="translate(-2,81)">0.25</text><text dy=".4em" transform="translate(-2,57)">0.3</text><text dy=".4em" transform="translate(-2,33)">0.35</text><text dy=".4em" transform="translate(-2,9)">0.4</text></g></g></g></g><g transform="translate(687,37)" font-family="Arial" font-size="41" space="preserve"><path d="M0,0H354V63H0Z" style="fill: #ffffff; stroke: #000000; stroke-width: 1;"></path><path d="M11,32H78" style="stroke: #0000ff; stroke-width: 2;"></path><text fill="#000000" text-anchor="start" dy=".4em" transform="translate(89,32)">normal_pdf</text></g></g></svg><svg viewBox="0 0 1176 251" preserveAspectRatio="none" x="12" y="274" width="1176" height="251"><path d="M0,0H1176V251H0Z" style="fill: #ffffff;"></path><g><g transform="translate(118,25)"><path d="M0,0H941V201H0Z" style="fill: #ffffff; stroke: #000000; stroke-width: 1;"></path><svg x="0" y="0" overflow="hidden" width="941" height="201" viewBox="0 0 941 201"><g><path d="M5,201h9h10h9h10h9h9h10h9h10h9h10h9h9h10h9h10h9h9h10h9h10l9,-1h9h10h9l10,-1h9l9,-1l10,-1l9,-1l10,-1l9,-2l10,-1l9,-3l9,-2l10,-3l9,-3l10,-4l9,-4l9,-5l10,-5l9,-5l10,-6l9,-7l9,-6l10,-8l9,-7l10,-7l9,-8l10,-8l9,-7l9,-8l10,-7l9,-7l10,-7l9,-6l9,-6l10,-6l9,-5l10,-4l9,-4l9,-4l10,-3l9,-3l10,-3l9,-2l9,-2l10,-1l9,-2l10,-1h9l10,-1l9,-1h9h10l9,-1h10h9h9h10h9h10h9h9h10h9h10h9h9h10h9h10h9h10h9h9h10h9h10" style="fill: none; stroke: #ff0000; stroke-width: 2;"></path></g><g><path d="M5,10h9h10h9h10h9h9h10h9h10h9h10h9h9h10h9h10h9h9h10h9h10h9h9l10,1h9h10l9,1l9,1h10l9,1l10,2l9,1l10,2l9,2l9,3l10,3l9,3l10,4l9,4l9,4l10,5l9,6l10,6l9,6l9,7l10,7l9,7l10,8l9,7l10,8l9,8l9,7l10,7l9,8l10,6l9,7l9,6l10,5l9,5l10,5l9,4l9,4l10,3l9,3l10,2l9,3l9,1l10,2l9,1l10,1l9,1l10,1h9l9,1h10h9h10l9,1h9h10h9h10h9h9h10h9h10h9h9h10h9h10h9h10h9h9h10h9h10" style="fill: none; stroke: #00ff00; stroke-width: 2;"></path></g></svg><g><g transform="translate(0,201)"><path d="M0,0h941M0,-6V0M19,-3V0M38,-3V0M56,-3V0M75,-3V0M94,-6V0M113,-3V0M132,-3V0M151,-3V0M169,-3V0M188,-6V0M207,-3V0M226,-3V0M245,-3V0M263,-3V0M282,-6V0M301,-3V0M320,-3V0M339,-3V0M358,-3V0M376,-6V0M395,-3V0M414,-3V0M433,-3V0M452,-3V0M471,-6V0M489,-3V0M508,-3V0M527,-3V0M546,-3V0M565,-6V0M583,-3V0M602,-3V0M621,-3V0M640,-3V0M659,-6V0M678,-3V0M696,-3V0M715,-3V0M734,-3V0M753,-6V0M772,-3V0M790,-3V0M809,-3V0M828,-3V0M847,-6V0M866,-3V0M885,-3V0M903,-3V0M922,-3V0M941,-6V0" style="stroke: #000000; stroke-width: 1;"></path><g font-family="Arial" font-size="15" space="preserve" fill="#000000" text-anchor="middle"><text dy=".8em" transform="translate(0,2)">-5</text><text dy=".8em" transform="translate(94,2)">-4</text><text dy=".8em" transform="translate(188,2)">-3</text><text dy=".8em" transform="translate(282,2)">-2</text><text dy=".8em" transform="translate(376,2)">-1</text><text dy=".8em" transform="translate(471,2)">0</text><text dy=".8em" transform="translate(565,2)">1</text><text dy=".8em" transform="translate(659,2)">2</text><text dy=".8em" transform="translate(753,2)">3</text><text dy=".8em" transform="translate(847,2)">4</text><text dy=".8em" transform="translate(941,2)">5</text></g><g font-family="Arial" font-size="18" space="preserve" transform="translate(941,16)"><text fill="#000000" text-anchor="end" dy=".4em">x</text></g></g><g><path d="M0,0v201M28,201H0M14,197H0M14,193H0M14,190H0M14,186H0M28,182H0M14,178H0M14,174H0M14,170H0M14,167H0M28,163H0M14,159H0M14,155H0M14,151H0M14,147H0M28,144H0M14,140H0M14,136H0M14,132H0M14,128H0M28,124H0M14,121H0M14,117H0M14,113H0M14,109H0M28,105H0M14,101H0M14,98H0M14,94H0M14,90H0M28,86H0M14,82H0M14,78H0M14,75H0M14,71H0M28,67H0M14,63H0M14,59H0M14,56H0M14,52H0M28,48H0M14,44H0M14,40H0M14,36H0M14,33H0M28,29H0M14,25H0M14,21H0M14,17H0M14,13H0M28,10H0M14,6H0M14,2H0" style="stroke: #000000; stroke-width: 1;"></path><g font-family="Arial" font-size="15" space="preserve" fill="#000000" text-anchor="end"><text dy=".4em" transform="translate(-2,201)">0</text><text dy=".4em" transform="translate(-2,182)">0.1</text><text dy=".4em" transform="translate(-2,163)">0.2</text><text dy=".4em" transform="translate(-2,144)">0.3</text><text dy=".4em" transform="translate(-2,124)">0.4</text><text dy=".4em" transform="translate(-2,105)">0.5</text><text dy=".4em" transform="translate(-2,86)">0.6</text><text dy=".4em" transform="translate(-2,67)">0.7</text><text dy=".4em" transform="translate(-2,48)">0.8</text><text dy=".4em" transform="translate(-2,29)">0.9</text><text dy=".4em" transform="translate(-2,10)">1</text></g><g font-family="Arial" font-size="18" space="preserve" transform="translate(-74)"><text fill="#000000" text-anchor="end" dy=".4em" transform="rotate(270)">p</text></g></g></g></g><g transform="translate(689,73)" font-family="Arial" font-size="24" space="preserve"><path d="M0,0H354V62H0Z" style="fill: #ffffff; stroke: #000000; stroke-width: 1;"></path><path d="M11,17H78" style="stroke: #ff0000; stroke-width: 2;"></path><text fill="#000000" text-anchor="start" dy=".4em" transform="translate(89,17)">normal_cdf</text><path d="M11,46H78" style="stroke: #00ff00; stroke-width: 2;"></path><text fill="#000000" text-anchor="start" dy=".4em" transform="translate(89,46)">normal_cdf_c</text></g></g></svg><svg viewBox="0 0 1176 251" preserveAspectRatio="none" x="12" y="541" width="1176" height="251"><path d="M0,0H1176V251H0Z" style="fill: #ffffff;"></path><g><g transform="translate(118,25)"><path d="M0,0H941V201H0Z" style="fill: #ffffff; stroke: #000000; stroke-width: 1;"></path><svg x="0" y="0" overflow="hidden" width="941" height="201" viewBox="0 0 941 201"><g><path d="M1,192l1,-9l1,-5l1,-3l1,-2l1,-2l1,-1l1,-2v-1l1,-1l1,-1l1,-1l1,-1l1,-1l1,-1l1,-1h1l1,-1h1l1,-1l1,-1h1l1,-1h1l1,-1v0l1,-1h1l1,-1h1h1l1,-1h1l1,-1h1h1l1,-1h1h1l1,-1h1h1v-1h2h1l1,-1h1h1l1,-1h1h1h1l1,-1h1h1h1l1,-1h1v0l2,-1h1h1h1h1l1,-1h1h1h1h1l1,-1h1h1h1h1v-1h2h1h1l1,-1h1h1h1h1l1,-1h1h1h1h1h1l1,-1v0h2h1h1l1,-1h1h1h1h1h1h1l1,-1h1h1h1h1v0l1,-1h1h1h1h1h1h1l1,-1h1h1h1h1h1h1h1l1,-1v0h2h1h1h1l1,-1h1h1h1h1h1h1h1l1,-1h1h1v0h2h1h1l1,-1h1h1h1h1h1h1h1h1l1,-1h1h1v0h2h1h1h1l1,-1h1h1h1h1h1h1h1h1l1,-1v0h2h1h1h1h1h1h1l1,-1h1h1h1h1h1h1h1v0l1,-1h1h1h1h1h1h1h1h1h1h1l1,-1h1h1h1h1v0h2h1h1l1,-1h1h1h1h1h1h1h1h1h1h1l1,-1v0h2h1h1h1h1h1h1h1l1,-1h1h1h1h1h1h1v0h2h1l1,-1h1h1h1h1h1h1h1h1h1h1h1l1,-1v0h2h1h1h1h1h1h1h1l1,-1h1h1h1h1h1h1v0h2h1h1h1l1,-1h1h1h1h1h1h1h1h1h1h1v0l1,-1h1h1h1h1h1h1h1h1h1h1h1h1l1,-1h1h1v0h2h1h1h1h1h1h1l1,-1h1h1h1h1h1h1h1v0h2h1h1l1,-1h1h1h1h1h1h1h1h1h1h1h1v0l2,-1h1h1h1h1h1h1h1h1h1h1h1h1l1,-1h1v0h2h1h1h1h1h1h1h1h1h1l1,-1h1h1h1h1v0h2h1h1h1h1h1h1l1,-1h1h1h1h1h1h1h1v0h2h1h1l1,-1h1h1h1h1h1h1h1h1h1h1h1v0l2,-1h1h1h1h1h1h1h1h1h1h1h1h1h1h1v-1h2h1h1h1h1h1h1h1h1h1h1h1l1,-1h1h1v0h2h1h1h1h1h1h1h1h1l1,-1h1h1h1h1h1v0h2h1h1h1h1h1l1,-1h1h1h1h1h1h1h1h1v0h2h1h1h1l1,-1h1h1h1h1h1h1h1h1h1h1v0h2l1,-1h1h1h1h1h1h1h1h1h1h1h1h1v0l2,-1h1h1h1h1h1h1h1h1h1h1h1h1h1l1,-1v0h2h1h1h1h1h1h1h1h1h1h1l1,-1h1h1h1v0h2h1h1h1h1h1h1h1h1l1,-1h1h1h1h1h1v0h2h1h1h1h1h1l1,-1h1h1h1h1h1h1h1h1v0h2h1h1l1,-1h1h1h1h1h1h1h1h1h1h1h1v0l2,-1h1h1h1h1h1h1h1h1h1h1h1h1h1l1,-1v0h2h1h1h1h1h1h1h1h1h1l1,-1h1h1h1h1v0h2h1h1h1h1h1h1l1,-1h1h1h1h1h1h1h1v0h2h1h1l1,-1h1h1h1h1h1h1h1h1h1h1h1v0l2,-1h1h1h1h1h1h1h1h1h1h1h1l1,-1h1h1v0h2h1h1h1h1h1h1h1l1,-1h1h1h1h1h1h1v0h2h1h1h1l1,-1h1h1h1h1h1h1h1h1h1h1v0l1,-1h1h1h1h1h1h1h1h1h1h1h1l1,-1h1h1h1v0h2h1h1h1h1h1l1,-1h1h1h1h1h1h1h1h1v0l2,-1h1h1h1h1h1h1h1h1h1h1l1,-1h1h1h1v0h2h1h1h1h1l1,-1h1h1h1h1h1h1h1h1h1v0l1,-1h1h1h1h1h1h1h1h1h1l1,-1h1h1h1h1h1v0h2h1l1,-1h1h1h1h1h1h1h1h1h1l1,-1h1h1v0h2h1h1h1l1,-1h1h1h1h1h1h1h1h1l1,-1v0h2h1h1h1h1h1l1,-1h1h1h1h1h1h1h1l1,-1v0h2h1h1h1h1l1,-1h1h1h1h1h1h1h1l1,-1h1v0h2h1h1h1l1,-1h1h1h1h1h1h1l1,-1h1h1h1v0h2l1,-1h1h1h1h1h1l1,-1h1h1h1h1h1h1l1,-1v0h2h1l1,-1h1h1h1h1h1l1,-1h1h1h1h1h1l1,-1v0h2h1l1,-1h1h1h1h1l1,-1h1h1h1l1,-1h1h1h1v0l1,-1h1h1h1l1,-1h1h1h1l1,-1h1h1l1,-1h1h1h1l1,-1v0l2,-1h1h1l1,-1h1h1l1,-1h1h1l1,-1h1l1,-1h1h1l1,-1v0l1,-1h1l1,-1h1l1,-1h1l1,-1l1,-1h1l1,-1l1,-1l1,-1h1l1,-1l1,-1l1,-1v-1l1,-2l1,-1l1,-2l1,-2l1,-2l1,-3l1,-4l1,-9" style="fill: none; stroke: #ff0000; stroke-width: 2;"></path></g><g><path d="M1,10l1,9l1,4l1,3l1,2l1,2l1,2l1,1v2l1,1l1,1l1,1l1,1h1l1,1l1,1l1,1h1l1,1l1,1h1l1,1h1l1,1h1v1l2,1h1h1l1,1h1l1,1h1h1l1,1h1h1l1,1h1h1l1,1v0l2,1h1h1h1l1,1h1h1l1,1h1h1h1l1,1h1h1h1v1h2h1h1l1,1h1h1h1l1,1h1h1h1h1l1,1h1h1v0l2,1h1h1h1h1h1l1,1h1h1h1h1h1l1,1h1h1v0l2,1h1h1h1h1h1h1l1,1h1h1h1h1h1l1,1h1v0h2h1h1l1,1h1h1h1h1h1h1l1,1h1h1h1h1v0h2l1,1h1h1h1h1h1h1h1l1,1h1h1h1h1h1v0l2,1h1h1h1h1h1h1h1l1,1h1h1h1h1h1h1v0l2,1h1h1h1h1h1h1h1h1l1,1h1h1h1h1v0h2h1l1,1h1h1h1h1h1h1h1h1h1l1,1h1h1v0h2h1h1h1h1l1,1h1h1h1h1h1h1h1h1h1v1h2h1h1h1h1h1h1h1h1l1,1h1h1h1h1h1v0h2h1h1l1,1h1h1h1h1h1h1h1h1h1h1l1,1v0h2h1h1h1h1h1h1h1l1,1h1h1h1h1h1h1v0h2h1h1l1,1h1h1h1h1h1h1h1h1h1h1h1v1h2h1h1h1h1h1h1h1h1h1l1,1h1h1h1h1v0h2h1h1h1h1h1l1,1h1h1h1h1h1h1h1h1v0h2h1l1,1h1h1h1h1h1h1h1h1h1h1h1l1,1v0h2h1h1h1h1h1h1h1h1h1h1l1,1h1h1h1v0h2h1h1h1h1h1h1l1,1h1h1h1h1h1h1h1v0h2h1h1h1l1,1h1h1h1h1h1h1h1h1h1h1v0l2,1h1h1h1h1h1h1h1h1h1h1h1h1h1l1,1v0h2h1h1h1h1h1h1h1h1h1h1l1,1h1h1h1v0h2h1h1h1h1h1h1h1l1,1h1h1h1h1h1h1v0h2h1h1h1h1l1,1h1h1h1h1h1h1h1h1h1v0h2h1h1l1,1h1h1h1h1h1h1h1h1h1h1h1v0l2,1h1h1h1h1h1h1h1h1h1h1h1h1h1l1,1v0h2h1h1h1h1h1h1h1h1h1h1h1l1,1h1h1v0h2h1h1h1h1h1h1h1h1l1,1h1h1h1h1v0h2h1h1h1h1h1h1h1l1,1h1h1h1h1h1h1v0h2h1h1h1h1l1,1h1h1h1h1h1h1h1h1h1v0h2h1l1,1h1h1h1h1h1h1h1h1h1h1h1h1v0l1,1h1h1h1h1h1h1h1h1h1h1h1h1h1h1l1,1v0h2h1h1h1h1h1h1h1h1h1h1l1,1h1h1h1v0h2h1h1h1h1h1h1l1,1h1h1h1h1h1h1h1v0h2h1h1h1l1,1h1h1h1h1h1h1h1h1h1h1v0h2l1,1h1h1h1h1h1h1h1h1h1h1h1h1l1,1v0h2h1h1h1h1h1h1h1h1h1h1l1,1h1h1h1v0h2h1h1h1h1h1h1l1,1h1h1h1h1h1h1h1v0h2h1l1,1h1h1h1h1h1h1h1h1h1h1h1h1v1h2h1h1h1h1h1h1h1h1h1l1,1h1h1h1h1v0h2h1h1h1h1h1l1,1h1h1h1h1h1h1h1h1v0l2,1h1h1h1h1h1h1h1h1h1h1h1l1,1h1h1v0h2h1h1h1h1h1l1,1h1h1h1h1h1h1h1h1v0l2,1h1h1h1h1h1h1h1h1h1h1l1,1h1h1h1v0h2h1h1h1l1,1h1h1h1h1h1h1h1h1h1h1v1h2h1h1h1h1h1h1l1,1h1h1h1h1h1h1h1v0l2,1h1h1h1h1h1h1h1h1l1,1h1h1h1h1v0h2h1l1,1h1h1h1h1h1h1h1h1l1,1h1h1h1v0h2h1l1,1h1h1h1h1h1h1h1l1,1h1h1h1h1v0l2,1h1h1h1h1h1h1h1l1,1h1h1h1h1h1h1v1h2h1h1h1l1,1h1h1h1h1h1h1l1,1h1h1h1v0l2,1h1h1h1h1h1l1,1h1h1h1h1l1,1h1h1h1v0l1,1h1h1h1h1l1,1h1h1h1h1l1,1h1h1h1h1l1,1v0h2l1,1h1h1h1l1,1h1h1h1l1,1h1h1l1,1h1h1v0l1,1h1h1l1,1h1h1l1,1h1h1l1,1h1l1,1h1h1l1,1h1v1l2,1h1l1,1h1l1,1l1,1h1l1,1h1l1,1l1,1l1,1l1,1l1,1l1,1v1l1,1l1,2l1,1l1,2l1,2l1,3l1,5l1,9" style="fill: none; stroke: #00ff00; stroke-width: 2;"></path></g></svg><g><g transform="translate(0,201)"><path d="M0,0h941M0,-6V0M19,-3V0M38,-3V0M56,-3V0M75,-3V0M94,-6V0M113,-3V0M132,-3V0M151,-3V0M169,-3V0M188,-6V0M207,-3V0M226,-3V0M245,-3V0M263,-3V0M282,-6V0M301,-3V0M320,-3V0M339,-3V0M358,-3V0M376,-6V0M395,-3V0M414,-3V0M433,-3V0M452,-3V0M471,-6V0M489,-3V0M508,-3V0M527,-3V0M546,-3V0M565,-6V0M583,-3V0M602,-3V0M621,-3V0M640,-3V0M659,-6V0M678,-3V0M696,-3V0M715,-3V0M734,-3V0M753,-6V0M772,-3V0M790,-3V0M809,-3V0M828,-3V0M847,-6V0M866,-3V0M885,-3V0M903,-3V0M922,-3V0M941,-6V0" style="stroke: #000000; stroke-width: 1;"></path><g font-family="Arial" font-size="15" space="preserve" fill="#000000" text-anchor="middle"><text dy=".8em" transform="translate(0,2)">0</text><text dy=".8em" transform="translate(94,2)">0.1</text><text dy=".8em" transform="translate(188,2)">0.2</text><text dy=".8em" transform="translate(282,2)">0.3</text><text dy=".8em" transform="translate(376,2)">0.4</text><text dy=".8em" transform="translate(471,2)">0.5</text><text dy=".8em" transform="translate(565,2)">0.6</text><text dy=".8em" transform="translate(659,2)">0.7</text><text dy=".8em" transform="translate(753,2)">0.8</text><text dy=".8em" transform="translate(847,2)">0.9</text><text dy=".8em" transform="translate(941,2)">1</text></g><g font-family="Arial" font-size="18" space="preserve" transform="translate(941,16)"><text fill="#000000" text-anchor="end" dy=".4em">p</text></g></g><g><path d="M0,0v201M14,200H0M14,195H0M14,189H0M28,184H0M14,178H0M14,173H0M14,167H0M14,162H0M28,156H0M14,151H0M14,145H0M14,140H0M14,134H0M28,128H0M14,123H0M14,117H0M14,112H0M14,106H0M28,101H0M14,95H0M14,90H0M14,84H0M14,79H0M28,73H0M14,67H0M14,62H0M14,56H0M14,51H0M28,45H0M14,40H0M14,34H0M14,29H0M14,23H0M28,18H0M14,12H0M14,7H0M14,1H0" style="stroke: #000000; stroke-width: 1;"></path><g font-family="Arial" font-size="15" space="preserve" fill="#000000" text-anchor="end"><text dy=".4em" transform="translate(-2,184)">-3</text><text dy=".4em" transform="translate(-2,156)">-2</text><text dy=".4em" transform="translate(-2,128)">-1</text><text dy=".4em" transform="translate(-2,101)">0</text><text dy=".4em" transform="translate(-2,73)">1</text><text dy=".4em" transform="translate(-2,45)">2</text><text dy=".4em" transform="translate(-2,18)">3</text></g><g font-family="Arial" font-size="18" space="preserve" transform="translate(-74)"><text fill="#000000" text-anchor="end" dy=".4em" transform="rotate(270)">x</text></g></g></g></g><g transform="translate(371,30)" font-family="Arial" font-size="24" space="preserve"><path d="M0,0H447V62H0Z" style="fill: #ffffff; stroke: #000000; stroke-width: 1;"></path><path d="M13,17H99" style="stroke: #ff0000; stroke-width: 2;"></path><text fill="#000000" text-anchor="start" dy=".4em" transform="translate(112,17)">normal_quantile</text><path d="M13,46H99" style="stroke: #00ff00; stroke-width: 2;"></path><text fill="#000000" text-anchor="start" dy=".4em" transform="translate(112,46)">normal_quantile_c</text></g></g></svg></g></svg>