<svg xmlns="http://www.w3.org/2000/svg" viewBox="0 0 1200 800" preserveAspectRatio="none" width="1200" height="800"><path d="M0,0H1200V800H0Z" style="fill: #ffffff;"></path><g><g transform="translate(240,4)" font-family="Arial" font-size="23" space="preserve" font-weight="bold"><path d="M720,4h4v28h-720v-4h716z" style="fill: #000000; stroke: #000000; stroke-width: 1px;"></path><path d="M0,0H720V28H0Z" style="fill: #f2f2f2; stroke: #000000; stroke-width: 1;"></path><text fill="#000000" text-anchor="middle" dy=".4em" transform="translate(360,14)">Examples of Surface options</text></g><svg viewBox="0 0 1140 360" preserveAspectRatio="none" x="36" y="40" width="1140" height="360"><path d="M0,0H1140V360H0Z" style="fill: #ffffff;"></path><g><g transform="translate(114,36)"><path d="M0,0H912V288H0Z" style="fill: #ffffff; stroke: #000000; stroke-width: 1;"></path></g><g transform="translate(350,2)" font-family="Arial" font-size="18" space="preserve"><text fill="#000000" text-anchor="middle" dy=".4em" transform="translate(220,11)">x**2 + y**2 - x**3 -8*x*y**4</text></g></g></svg><svg viewBox="0 0 1140 368" preserveAspectRatio="none" x="36" y="416" width="1140" height="368"><path d="M0,0H1140V368H0Z" style="fill: #ffffff;"></path><g><g transform="translate(114,37)"><path d="M0,0H912V294H0Z" style="fill: #ffffff; stroke: #000000; stroke-width: 1;"></path></g><g transform="translate(340,2)" font-family="Arial" font-size="19" space="preserve"><text fill="#000000" text-anchor="middle" dy=".4em" transform="translate(231,12)">x**2 + y**2 - x**3 -8*x*y**4</text></g></g></svg></g></svg>