<svg xmlns="http://www.w3.org/2000/svg" viewBox="0 0 1200 800" preserveAspectRatio="none" width="1200" height="800"><path d="M0,0H1200V800H0Z" style="fill: #ffffff;"></path><g><svg viewBox="0 0 576 784" preserveAspectRatio="none" x="12" y="8" width="576" height="784"><path d="M0,0H576V784H0Z" style="fill: #ffffff;"></path><g><g transform="translate(92,39)"><path d="M0,0H455V619H0Z" style="fill: #ffffff; stroke: #000000; stroke-width: 1;"></path><svg x="0" y="0" overflow="hidden" width="455" height="619" viewBox="0 0 455 619"><g><path d="M0,580v-77l46,-39l45,39v77l-45,39z" style="fill: #e1bf4a; stroke: #000000; stroke-width: 1;"></path><path d="M91,580v-77l46,-39l45,39v77l-45,39z" style="fill: #263da8; stroke: #000000; stroke-width: 1;"></path><path d="M182,580v-77l45,-39l46,39v77l-46,39z" style="fill: #263da8; stroke: #000000; stroke-width: 1;"></path><path d="M273,580v-77l45,-39l46,39v77l-46,39z" style="fill: #263da8; stroke: #000000; stroke-width: 1;"></path><path d="M364,580v-77l45,-39l46,39v77l-46,39z" style="fill: #263da8; stroke: #000000; stroke-width: 1;"></path><path d="M46,464v-77l45,-39l46,39v77l-46,39z" style="fill: #263da8; stroke: #000000; stroke-width: 1;"></path><path d="M137,464v-77l45,-39l45,39v77l-45,39z" style="fill: #263da8; stroke: #000000; stroke-width: 1;"></path><path d="M227,464v-77l46,-39l45,39v77l-45,39z" style="fill: #263da8; stroke: #000000; stroke-width: 1;"></path><path d="M318,464v-77l46,-39l45,39v77l-45,39z" style="fill: #263da8; stroke: #000000; stroke-width: 1;"></path><path d="M0,348v-77l46,-39l45,39v77l-45,39z" style="fill: #263da8; stroke: #000000; stroke-width: 1;"></path><path d="M91,348v-77l46,-39l45,39v77l-45,39z" style="fill: #263da8; stroke: #000000; stroke-width: 1;"></path><path d="M182,348v-77l45,-39l46,39v77l-46,39z" style="fill: #52ba91; stroke: #000000; stroke-width: 1;"></path><path d="M273,348v-77l45,-39l46,39v77l-46,39z" style="fill: #263da8; stroke: #000000; stroke-width: 1;"></path><path d="M364,348v-77l45,-39l46,39v77l-46,39z" style="fill: #263da8; stroke: #000000; stroke-width: 1;"></path><path d="M46,232v-77l45,-39l46,39v77l-46,39z" style="fill: #263da8; stroke: #000000; stroke-width: 1;"></path><path d="M137,232v-77l45,-39l45,39v77l-45,39z" style="fill: #263da8; stroke: #000000; stroke-width: 1;"></path><path d="M227,232v-77l46,-39l45,39v77l-45,39z" style="fill: #f9f90e; stroke: #000000; stroke-width: 1;"></path><path d="M318,232v-77l46,-39l45,39v77l-45,39z" style="fill: #263da8; stroke: #000000; stroke-width: 1;"></path><path d="M0,116v-77l46,-39l45,39v77l-45,39z" style="fill: #263da8; stroke: #000000; stroke-width: 1;"></path><path d="M91,116v-77l46,-39l45,39v77l-45,39z" style="fill: #263da8; stroke: #000000; stroke-width: 1;"></path><path d="M182,116v-77l45,-39l46,39v77l-46,39z" style="fill: #263da8; stroke: #000000; stroke-width: 1;"></path><path d="M273,116v-77l45,-39l46,39v77l-46,39z" style="fill: #263da8; stroke: #000000; stroke-width: 1;"></path><path d="M364,116v-77l45,-39l46,39v77l-46,39z" style="fill: #263da8; stroke: #000000; stroke-width: 1;"></path></g></svg><g><g transform="translate(0,619)"><path d="M0,0h455M0,-619h455M0,-19V0M11,-10V0M21,-10V0M32,-10V0M42,-10V0M53,-19V0M63,-10V0M74,-10V0M84,-10V0M95,-10V0M105,-19V0M116,-10V0M126,-10V0M137,-10V0M147,-10V0M158,-19V0M168,-10V0M179,-10V0M189,-10V0M200,-10V0M210,-19V0M221,-10V0M231,-10V0M242,-10V0M252,-10V0M263,-19V0M273,-10V0M284,-10V0M294,-10V0M305,-10V0M315,-19V0M326,-10V0M336,-10V0M347,-10V0M357,-10V0M368,-19V0M378,-10V0M389,-10V0M399,-10V0M410,-10V0M420,-19V0M431,-10V0M441,-10V0M452,-10V0M0,-600V-619M11,-609V-619M21,-609V-619M32,-609V-619M42,-609V-619M53,-600V-619M63,-609V-619M74,-609V-619M84,-609V-619M95,-609V-619M105,-600V-619M116,-609V-619M126,-609V-619M137,-609V-619M147,-609V-619M158,-600V-619M168,-609V-619M179,-609V-619M189,-609V-619M200,-609V-619M210,-600V-619M221,-609V-619M231,-609V-619M242,-609V-619M252,-609V-619M263,-600V-619M273,-609V-619M284,-609V-619M294,-609V-619M305,-609V-619M315,-600V-619M326,-609V-619M336,-609V-619M347,-609V-619M357,-609V-619M368,-600V-619M378,-609V-619M389,-609V-619M399,-609V-619M410,-609V-619M420,-600V-619M431,-609V-619M441,-609V-619M452,-609V-619" style="stroke: #000000; stroke-width: 1;"></path><g font-family="Arial" font-size="26" space="preserve" fill="#000000" text-anchor="middle"><text dy=".8em" transform="translate(0,3)">0</text><text dy=".8em" transform="translate(53,3)">0.1</text><text dy=".8em" transform="translate(105,3)">0.2</text><text dy=".8em" transform="translate(158,3)">0.3</text><text dy=".8em" transform="translate(210,3)">0.4</text><text dy=".8em" transform="translate(263,3)">0.5</text><text dy=".8em" transform="translate(315,3)">0.6</text><text dy=".8em" transform="translate(368,3)">0.7</text><text dy=".8em" transform="translate(420,3)">0.8</text></g></g><g><path d="M0,0v619M455,0v619M14,619H0M7,604H0M7,588H0M7,573H0M7,557H0M14,542H0M7,526H0M7,511H0M7,495H0M7,480H0M14,464H0M7,449H0M7,433H0M7,418H0M7,402H0M14,387H0M7,371H0M7,356H0M7,340H0M7,325H0M14,310H0M7,294H0M7,279H0M7,263H0M7,248H0M14,232H0M7,217H0M7,201H0M7,186H0M7,170H0M14,155H0M7,139H0M7,124H0M7,108H0M7,93H0M14,77H0M7,62H0M7,46H0M7,31H0M7,15H0M14,0H0M441,619H455M448,604H455M448,588H455M448,573H455M448,557H455M441,542H455M448,526H455M448,511H455M448,495H455M448,480H455M441,464H455M448,449H455M448,433H455M448,418H455M448,402H455M441,387H455M448,371H455M448,356H455M448,340H455M448,325H455M441,310H455M448,294H455M448,279H455M448,263H455M448,248H455M441,232H455M448,217H455M448,201H455M448,186H455M448,170H455M441,155H455M448,139H455M448,124H455M448,108H455M448,93H455M441,77H455M448,62H455M448,46H455M448,31H455M448,15H455M441,0H455" style="stroke: #000000; stroke-width: 1;"></path><g font-family="Arial" font-size="29" space="preserve" fill="#000000" text-anchor="end"><text dy=".4em" transform="translate(-4,619)">0</text><text dy=".4em" transform="translate(-4,542)">0.1</text><text dy=".4em" transform="translate(-4,464)">0.2</text><text dy=".4em" transform="translate(-4,387)">0.3</text><text dy=".4em" transform="translate(-4,310)">0.4</text><text dy=".4em" transform="translate(-4,232)">0.5</text><text dy=".4em" transform="translate(-4,155)">0.6</text><text dy=".4em" transform="translate(-4,77)">0.7</text><text dy=".4em" transform="translate(-4)">0.8</text></g></g><path d="M0,0v619M53,0v619M105,0v619M158,0v619M210,0v619M263,0v619M315,0v619M368,0v619M420,0v619" style="stroke: #000000; stroke-width: 1; stroke-dasharray: 1,2;"></path><path d="M0,619h455M0,542h455M0,464h455M0,387h455M0,310h455M0,232h455M0,155h455M0,77h455M0,0h455" style="stroke: #000000; stroke-width: 1; stroke-dasharray: 1,2;"></path></g></g><g transform="translate(550,39)"><path d="M0,0H23V619H0Z" style="fill: none; stroke: #000000; stroke-width: 1;"></path><path d="M0,588H23V619H0Z" style="fill: #1652cc;"></path><path d="M0,557H23V589H0Z" style="fill: #1652cc;"></path><path d="M0,526H23V558H0Z" style="fill: #1063db;"></path><path d="M0,495H23V527H0Z" style="fill: #1171d8;"></path><path d="M0,464H23V496H0Z" style="fill: #1380d5;"></path><path d="M0,433H23V465H0Z" style="fill: #0e8ed0;"></path><path d="M0,402H23V434H0Z" style="fill: #089dcc;"></path><path d="M0,371H23V403H0Z" style="fill: #0da7c2;"></path><path d="M0,340H23V372H0Z" style="fill: #1dafb3;"></path><path d="M0,310H23V341H0Z" style="fill: #2db7a3;"></path><path d="M0,279H23V311H0Z" style="fill: #52ba91;"></path><path d="M0,248H23V280H0Z" style="fill: #73bd80;"></path><path d="M0,217H23V249H0Z" style="fill: #94be71;"></path><path d="M0,186H23V218H0Z" style="fill: #b2bc65;"></path><path d="M0,155H23V187H0Z" style="fill: #d0ba59;"></path><path d="M0,124H23V156H0Z" style="fill: #e1bf4a;"></path><path d="M0,93H23V125H0Z" style="fill: #f4c53a;"></path><path d="M0,62H23V94H0Z" style="fill: #fcd12b;"></path><path d="M0,31H23V63H0Z" style="fill: #fae61c;"></path><path d="M0,0H23V32H0Z" style="fill: #f9f90e;"></path><g transform="translate(23)"><path d="M0,0v619M0,619H-14M0,557H-14M0,495H-14M0,433H-14M0,371H-14M0,310H-14M0,248H-14M0,186H-14M0,124H-14M0,62H-14M0,0H-14" style="stroke: #000000; stroke-width: 1;"></path><g font-family="Arial" font-size="29" space="preserve" fill="#000000" text-anchor="start"><text dy=".4em" transform="translate(4,619)">0</text><text dy=".4em" transform="translate(4,557)">2</text><text dy=".4em" transform="translate(4,495)">4</text><text dy=".4em" transform="translate(4,433)">6</text><text dy=".4em" transform="translate(4,371)">8</text><text dy=".4em" transform="translate(4,310)">10</text><text dy=".4em" transform="translate(4,248)">12</text><text dy=".4em" transform="translate(4,186)">14</text><text dy=".4em" transform="translate(4,124)">16</text><text dy=".4em" transform="translate(4,62)">18</text><text dy=".4em" transform="translate(4)">20</text></g></g></g><g transform="translate(-222,4)" style="display: none;"><path d="M455,2h2v25h-455v-2h453z" style="fill: #000000; stroke: #000000; stroke-width: 1px;"></path><path d="M0,0H455V25H0Z" style="fill: #f2f2f2; stroke: #000000; stroke-width: 1;"></path></g></g></svg><svg viewBox="0 0 576 784" preserveAspectRatio="none" x="612" y="8" width="576" height="784"><path d="M0,0H576V784H0Z" style="fill: #ffffff;"></path><g><g transform="translate(92,39)"><path d="M0,0H455V619H0Z" style="fill: #ffffff; stroke: #000000; stroke-width: 1;"></path><svg x="0" y="0" overflow="hidden" width="455" height="619" viewBox="0 0 455 619"><g><path d="M0,557l28,-62h57l29,62l-29,62h-57z" style="fill: #e1bf4a; stroke: #000000; stroke-width: 1;"></path><path d="M0,433l28,-62h57l29,62l-29,62h-57z" style="fill: #263da8; stroke: #000000; stroke-width: 1;"></path><path d="M0,310l28,-62h57l29,62l-29,61h-57z" style="fill: #263da8; stroke: #000000; stroke-width: 1;"></path><path d="M0,186l28,-62h57l29,62l-29,62h-57z" style="fill: #263da8; stroke: #000000; stroke-width: 1;"></path><path d="M0,62l28,-62h57l29,62l-29,62h-57z" style="fill: #263da8; stroke: #000000; stroke-width: 1;"></path><path d="M85,495l29,-62h57l28,62l-28,62h-57z" style="fill: #263da8; stroke: #000000; stroke-width: 1;"></path><path d="M85,371l29,-61h57l28,61l-28,62h-57z" style="fill: #263da8; stroke: #000000; stroke-width: 1;"></path><path d="M85,248l29,-62h57l28,62l-28,62h-57z" style="fill: #263da8; stroke: #000000; stroke-width: 1;"></path><path d="M85,124l29,-62h57l28,62l-28,62h-57z" style="fill: #263da8; stroke: #000000; stroke-width: 1;"></path><path d="M171,557l28,-62h57l28,62l-28,62h-57z" style="fill: #263da8; stroke: #000000; stroke-width: 1;"></path><path d="M171,433l28,-62h57l28,62l-28,62h-57z" style="fill: #263da8; stroke: #000000; stroke-width: 1;"></path><path d="M171,310l28,-62h57l28,62l-28,61h-57z" style="fill: #52ba91; stroke: #000000; stroke-width: 1;"></path><path d="M171,186l28,-62h57l28,62l-28,62h-57z" style="fill: #263da8; stroke: #000000; stroke-width: 1;"></path><path d="M171,62l28,-62h57l28,62l-28,62h-57z" style="fill: #263da8; stroke: #000000; stroke-width: 1;"></path><path d="M256,495l28,-62h57l29,62l-29,62h-57z" style="fill: #263da8; stroke: #000000; stroke-width: 1;"></path><path d="M256,371l28,-61h57l29,61l-29,62h-57z" style="fill: #263da8; stroke: #000000; stroke-width: 1;"></path><path d="M256,248l28,-62h57l29,62l-29,62h-57z" style="fill: #f9f90e; stroke: #000000; stroke-width: 1;"></path><path d="M256,124l28,-62h57l29,62l-29,62h-57z" style="fill: #263da8; stroke: #000000; stroke-width: 1;"></path><path d="M341,557l29,-62h57l28,62l-28,62h-57z" style="fill: #263da8; stroke: #000000; stroke-width: 1;"></path><path d="M341,433l29,-62h57l28,62l-28,62h-57z" style="fill: #263da8; stroke: #000000; stroke-width: 1;"></path><path d="M341,310l29,-62h57l28,62l-28,61h-57z" style="fill: #263da8; stroke: #000000; stroke-width: 1;"></path><path d="M341,186l29,-62h57l28,62l-28,62h-57z" style="fill: #263da8; stroke: #000000; stroke-width: 1;"></path><path d="M341,62l29,-62h57l28,62l-28,62h-57z" style="fill: #263da8; stroke: #000000; stroke-width: 1;"></path></g></svg><g><g transform="translate(0,619)"><path d="M0,0h455M0,-619h455M0,-19V0M11,-10V0M23,-10V0M34,-10V0M45,-10V0M57,-19V0M68,-10V0M80,-10V0M91,-10V0M102,-10V0M114,-19V0M125,-10V0M137,-10V0M148,-10V0M159,-10V0M171,-19V0M182,-10V0M193,-10V0M205,-10V0M216,-10V0M228,-19V0M239,-10V0M250,-10V0M262,-10V0M273,-10V0M284,-19V0M296,-10V0M307,-10V0M319,-10V0M330,-10V0M341,-19V0M353,-10V0M364,-10V0M375,-10V0M387,-10V0M398,-19V0M409,-10V0M421,-10V0M432,-10V0M444,-10V0M455,-19V0M0,-600V-619M11,-609V-619M23,-609V-619M34,-609V-619M45,-609V-619M57,-600V-619M68,-609V-619M80,-609V-619M91,-609V-619M102,-609V-619M114,-600V-619M125,-609V-619M137,-609V-619M148,-609V-619M159,-609V-619M171,-600V-619M182,-609V-619M193,-609V-619M205,-609V-619M216,-609V-619M228,-600V-619M239,-609V-619M250,-609V-619M262,-609V-619M273,-609V-619M284,-600V-619M296,-609V-619M307,-609V-619M319,-609V-619M330,-609V-619M341,-600V-619M353,-609V-619M364,-609V-619M375,-609V-619M387,-609V-619M398,-600V-619M409,-609V-619M421,-609V-619M432,-609V-619M444,-609V-619M455,-600V-619" style="stroke: #000000; stroke-width: 1;"></path><g font-family="Arial" font-size="29" space="preserve" fill="#000000" text-anchor="middle"><text dy=".8em" transform="translate(0,3)">0</text><text dy=".8em" transform="translate(57,3)">0.1</text><text dy=".8em" transform="translate(114,3)">0.2</text><text dy=".8em" transform="translate(171,3)">0.3</text><text dy=".8em" transform="translate(228,3)">0.4</text><text dy=".8em" transform="translate(284,3)">0.5</text><text dy=".8em" transform="translate(341,3)">0.6</text><text dy=".8em" transform="translate(398,3)">0.7</text><text dy=".8em" transform="translate(455,3)">0.8</text></g></g><g><path d="M0,0v619M455,0v619M14,619H0M7,605H0M7,590H0M7,576H0M7,562H0M14,548H0M7,533H0M7,519H0M7,505H0M7,490H0M14,476H0M7,462H0M7,447H0M7,433H0M7,419H0M14,405H0M7,390H0M7,376H0M7,362H0M7,347H0M14,333H0M7,319H0M7,305H0M7,290H0M7,276H0M14,262H0M7,247H0M7,233H0M7,219H0M7,204H0M14,190H0M7,176H0M7,162H0M7,147H0M7,133H0M14,119H0M7,104H0M7,90H0M7,76H0M7,61H0M14,47H0M7,33H0M7,19H0M7,4H0M441,619H455M448,605H455M448,590H455M448,576H455M448,562H455M441,548H455M448,533H455M448,519H455M448,505H455M448,490H455M441,476H455M448,462H455M448,447H455M448,433H455M448,419H455M441,405H455M448,390H455M448,376H455M448,362H455M448,347H455M441,333H455M448,319H455M448,305H455M448,290H455M448,276H455M441,262H455M448,247H455M448,233H455M448,219H455M448,204H455M441,190H455M448,176H455M448,162H455M448,147H455M448,133H455M441,119H455M448,104H455M448,90H455M448,76H455M448,61H455M441,47H455M448,33H455M448,19H455M448,4H455" style="stroke: #000000; stroke-width: 1;"></path><g font-family="Arial" font-size="29" space="preserve" fill="#000000" text-anchor="end"><text dy=".4em" transform="translate(-4,619)">0</text><text dy=".4em" transform="translate(-4,548)">0.1</text><text dy=".4em" transform="translate(-4,476)">0.2</text><text dy=".4em" transform="translate(-4,405)">0.3</text><text dy=".4em" transform="translate(-4,333)">0.4</text><text dy=".4em" transform="translate(-4,262)">0.5</text><text dy=".4em" transform="translate(-4,190)">0.6</text><text dy=".4em" transform="translate(-4,119)">0.7</text><text dy=".4em" transform="translate(-4,47)">0.8</text></g></g><path d="M0,0v619M57,0v619M114,0v619M171,0v619M228,0v619M284,0v619M341,0v619M398,0v619M455,0v619" style="stroke: #000000; stroke-width: 1; stroke-dasharray: 1,2;"></path><path d="M0,619h455M0,548h455M0,476h455M0,405h455M0,333h455M0,262h455M0,190h455M0,119h455M0,47h455" style="stroke: #000000; stroke-width: 1; stroke-dasharray: 1,2;"></path></g></g><g transform="translate(550,39)"><path d="M0,0H23V619H0Z" style="fill: none; stroke: #000000; stroke-width: 1;"></path><path d="M0,588H23V619H0Z" style="fill: #1652cc;"></path><path d="M0,557H23V589H0Z" style="fill: #1652cc;"></path><path d="M0,526H23V558H0Z" style="fill: #1063db;"></path><path d="M0,495H23V527H0Z" style="fill: #1171d8;"></path><path d="M0,464H23V496H0Z" style="fill: #1380d5;"></path><path d="M0,433H23V465H0Z" style="fill: #0e8ed0;"></path><path d="M0,402H23V434H0Z" style="fill: #089dcc;"></path><path d="M0,371H23V403H0Z" style="fill: #0da7c2;"></path><path d="M0,340H23V372H0Z" style="fill: #1dafb3;"></path><path d="M0,310H23V341H0Z" style="fill: #2db7a3;"></path><path d="M0,279H23V311H0Z" style="fill: #52ba91;"></path><path d="M0,248H23V280H0Z" style="fill: #73bd80;"></path><path d="M0,217H23V249H0Z" style="fill: #94be71;"></path><path d="M0,186H23V218H0Z" style="fill: #b2bc65;"></path><path d="M0,155H23V187H0Z" style="fill: #d0ba59;"></path><path d="M0,124H23V156H0Z" style="fill: #e1bf4a;"></path><path d="M0,93H23V125H0Z" style="fill: #f4c53a;"></path><path d="M0,62H23V94H0Z" style="fill: #fcd12b;"></path><path d="M0,31H23V63H0Z" style="fill: #fae61c;"></path><path d="M0,0H23V32H0Z" style="fill: #f9f90e;"></path><g transform="translate(23)"><path d="M0,0v619M0,619H-14M0,557H-14M0,495H-14M0,433H-14M0,371H-14M0,310H-14M0,248H-14M0,186H-14M0,124H-14M0,62H-14M0,0H-14" style="stroke: #000000; stroke-width: 1;"></path><g font-family="Arial" font-size="29" space="preserve" fill="#000000" text-anchor="start"><text dy=".4em" transform="translate(4,619)">0</text><text dy=".4em" transform="translate(4,557)">2</text><text dy=".4em" transform="translate(4,495)">4</text><text dy=".4em" transform="translate(4,433)">6</text><text dy=".4em" transform="translate(4,371)">8</text><text dy=".4em" transform="translate(4,310)">10</text><text dy=".4em" transform="translate(4,248)">12</text><text dy=".4em" transform="translate(4,186)">14</text><text dy=".4em" transform="translate(4,124)">16</text><text dy=".4em" transform="translate(4,62)">18</text><text dy=".4em" transform="translate(4)">20</text></g></g></g><g transform="translate(-222,4)" style="display: none;"><path d="M455,2h2v25h-455v-2h453z" style="fill: #000000; stroke: #000000; stroke-width: 1px;"></path><path d="M0,0H455V25H0Z" style="fill: #f2f2f2; stroke: #000000; stroke-width: 1;"></path></g></g></svg></g></svg>