<svg xmlns="http://www.w3.org/2000/svg" viewBox="0 0 1200 800" preserveAspectRatio="none" width="1200" height="800"><path d="M0,0H1200V800H0Z" style="fill: #ffffff;"></path><g><g transform="translate(120,80)"><path d="M0,0H960V640H0Z" style="fill: #ffffff; stroke: #ffffff; stroke-width: 1;"></path><svg x="0" y="0" overflow="hidden" width="960" height="640" viewBox="0 0 960 640"><g><path d="M613.33,616.3Q586.67,130.37,480,53.33C373.33,-23.7,0,195.56,80,231.11Q733.79,296.09,880,231.11" style="stroke: #ff0000; stroke-width: 1; fill: none;"></path><path d="M609,612l8,8m0,-8l-8,8m0,-4h8m-4,-4v8M476,49l8,8m0,-8l-8,8m0,-4h8m-4,-4v8M76,227l8,8m0,-8l-8,8m0,-4h8m-4,-4v8M876,227l8,8m0,-8l-8,8m0,-4h8m-4,-4v8" style="stroke: #000000; fill: none;"></path></g></svg><g><g transform="translate(0,640)"><path d="M0,0h960M13,0V0M47,0V0M80,0V0M113,0V0M147,0V0M180,0V0M213,0V0M247,0V0M280,0V0M313,0V0M347,0V0M380,0V0M413,0V0M447,0V0M480,0V0M513,0V0M547,0V0M580,0V0M613,0V0M647,0V0M680,0V0M713,0V0M747,0V0M780,0V0M813,0V0M847,0V0M880,0V0M913,0V0M947,0V0" style="stroke: #ffffff; stroke-width: 1;"></path></g><g><path d="M0,0v640M0,631H0M0,616H0M0,601H0M0,587H0M0,572H0M0,557H0M0,542H0M0,527H0M0,513H0M0,498H0M0,483H0M0,468H0M0,453H0M0,439H0M0,424H0M0,409H0M0,394H0M0,379H0M0,364H0M0,350H0M0,335H0M0,320H0M0,305H0M0,290H0M0,276H0M0,261H0M0,246H0M0,231H0M0,216H0M0,201H0M0,187H0M0,172H0M0,157H0M0,142H0M0,127H0M0,113H0M0,98H0M0,83H0M0,68H0M0,53H0M0,39H0M0,24H0M0,9H0" style="stroke: #ffffff; stroke-width: 1;"></path></g></g></g><g transform="translate(517,4)" font-family="Arial" font-size="34" space="preserve"><text fill="#000000" text-anchor="middle" dy=".4em" transform="translate(83,25)">XY plot</text></g><g transform="translate(800,80)"><path d="M0,0v640M0,640H-29M0,533H-29M0,427H-29M0,320H-29M0,213H-29M0,107H-29M0,0H-29" style="stroke: #000000; stroke-width: 1;"></path><g font-family="Arial" font-size="32" space="preserve" font-weight="bold" fill="#000000" text-anchor="start"><text dy=".4em" transform="translate(6,640)">-1080</text><text dy=".4em" transform="translate(6,533)">-720</text><text dy=".4em" transform="translate(6,427)">-360</text><text dy=".4em" transform="translate(6,213)">360</text><text dy=".4em" transform="translate(6,107)">720</text><text dy=".4em" transform="translate(6)">1080</text></g></g><g font-family="Arial" font-size="22" space="preserve" font-weight="bold"><text fill="#000000" text-anchor="end" transform="translate(767,80) rotate(-90)">Y axis</text></g><g transform="translate(120,400)"><path d="M0,0h960M13,-19V0M47,-10V0M80,-10V0M113,-10V0M147,-19V0M180,-10V0M213,-10V0M247,-10V0M280,-19V0M313,-10V0M347,-10V0M380,-10V0M413,-19V0M447,-10V0M480,-10V0M513,-10V0M547,-19V0M580,-10V0M613,-10V0M647,-10V0M680,-19V0M713,-10V0M747,-10V0M780,-10V0M813,-19V0M847,-10V0M880,-10V0M913,-10V0M947,-19V0" style="stroke: #000000; stroke-width: 1;"></path><g font-family="Arial" font-size="32" space="preserve" font-weight="bold" fill="#000000" text-anchor="middle"><text dy=".8em" transform="translate(13,5)">-10</text><text dy=".8em" transform="translate(147,5)">-8</text><text dy=".8em" transform="translate(280,5)">-6</text><text dy=".8em" transform="translate(413,5)">-4</text><text dy=".8em" transform="translate(547,5)">-2</text><text dy=".8em" transform="translate(680,5)">0</text><text dy=".8em" transform="translate(813,5)">2</text><text dy=".8em" transform="translate(947,5)">4</text></g></g><g font-family="Arial" font-size="22" space="preserve" font-weight="bold"><text fill="#000000" text-anchor="end" transform="translate(1080,459)">X axis</text></g></g></svg>