<svg xmlns="http://www.w3.org/2000/svg" viewBox="0 0 1200 800" preserveAspectRatio="none" width="1200" height="800"><path d="M0,0H1200V800H0Z" style="fill: #aaa5bf;"></path><g><g transform="translate(48,22)" font-family="Times New Roman" font-size="24" space="preserve" font-weight="bold" font-style="italic"><path d="M1104,3h3v53h-1104v-3h1101z" style="fill: #000000; stroke: #000000; stroke-width: 1px;"></path><path d="M0,0H1104V53H0Z" style="fill: #e5e5e5; stroke: #000000; stroke-width: 1;"></path><text fill="#936870" text-anchor="middle" dy=".4em" transform="translate(552,27)">Z-scaling of       Direct Photon Productions in pp Collisions at RHIC Energies</text></g><g font-family="Times New Roman" font-size="22" space="preserve" font-weight="bold" font-style="italic"><text fill="#000000" text-anchor="start" dy=".4em" transform="translate(149,111)">M.Tokarev, E.Potrebenikova </text></g><g font-family="Times New Roman" font-size="22" space="preserve" font-weight="bold" font-style="italic"><text fill="#000000" text-anchor="start" dy=".4em" transform="translate(672,111)">JINR preprint E2-98-64, Dubna, 1998 </text></g><svg viewBox="0 0 552 648" preserveAspectRatio="none" x="24" y="136" width="552" height="648"><path d="M0,0H552V648H0Z" style="fill: #adbcc6;"></path><g><g transform="translate(55,65)"><path d="M0,0H442V518H0Z" style="fill: #f2f2f2; stroke: #000000; stroke-width: 1;"></path><svg x="0" y="0" overflow="hidden" width="442" height="518" viewBox="0 0 442 518"><g><path d="M130,61l38,60l28,48l21,44l17,41l14,40l13,42l11,45l10,48l9,55" style="stroke: #7c99d1; stroke-width: 1; fill: none;"></path><path d="M126,56v9h9v-9zM164,116v9h9v-9zM191,165v9h9v-9zM212,208v9h9v-9zM229,249v9h9v-9zM244,290v9h9v-9zM256,332v9h9v-9zM267,376v9h9v-9zM277,425v9h9v-9zM286,480v9h9v-9z" style="stroke: #0000ff; fill: #0000ff;"></path></g><g><path d="M130,29l87,117l44,66l30,50l22,43l19,40l15,39l13,38l12,40l10,43" style="stroke: #7c99d1; stroke-width: 1; fill: none;"></path><path d="M130.4,23.2l4.0,12.0l-10.0,-7.5h12.0l-10.0,7.5zM216.5,139.8l4.0,12.0l-10.0,-7.5h12.0l-10.0,7.5zM260.7,206.0l4.0,12.0l-10.0,-7.5h12.0l-10.0,7.5zM290.7,256.3l4.0,12.0l-10.0,-7.5h12.0l-10.0,7.5zM313.3,299.5l4.0,12.0l-10.0,-7.5h12.0l-10.0,7.5zM331.6,339.3l4.0,12.0l-10.0,-7.5h12.0l-10.0,7.5zM346.9,377.8l4.0,12.0l-10.0,-7.5h12.0l-10.0,7.5zM360.0,416.4l4.0,12.0l-10.0,-7.5h12.0l-10.0,7.5zM371.5,456.3l4.0,12.0l-10.0,-7.5h12.0l-10.0,7.5zM381.8,498.7l4.0,12.0l-10.0,-7.5h12.0l-10.0,7.5z" style="stroke: #ff0000; fill: #ff0000;"></path></g><g><path d="M130,12l118,152l51,70l33,48l24,38l19,33l16,29l14,28l12,26l10,26" style="stroke: #7c99d1; stroke-width: 1; fill: none;"></path><path d="M126,12a4,4,0,1,0,8,0a4,4,0,1,0,-8,0zM244,164a4,4,0,1,0,8,0a4,4,0,1,0,-8,0zM295,234a4,4,0,1,0,8,0a4,4,0,1,0,-8,0zM328,282a4,4,0,1,0,8,0a4,4,0,1,0,-8,0zM352,320a4,4,0,1,0,8,0a4,4,0,1,0,-8,0zM371,353a4,4,0,1,0,8,0a4,4,0,1,0,-8,0zM387,382a4,4,0,1,0,8,0a4,4,0,1,0,-8,0zM401,410a4,4,0,1,0,8,0a4,4,0,1,0,-8,0zM413,436a4,4,0,1,0,8,0a4,4,0,1,0,-8,0zM423,462a4,4,0,1,0,8,0a4,4,0,1,0,-8,0z" style="stroke: #ff00ff; fill: #ff00ff;"></path></g><g><path d="M50,414" style="stroke: #000000; stroke-width: 1; fill: none;"></path><path d="M45,410v9h9v-9z" style="stroke: #0000ff; fill: #0000ff;"></path></g><g><path d="M50,451" style="stroke: #000000; stroke-width: 1; fill: none;"></path><path d="M49.9,444.6l4.0,12.0l-10.0,-7.5h12.0l-10.0,7.5z" style="stroke: #ff0000; fill: #ff0000;"></path></g><g><path d="M50,487" style="stroke: #000000; stroke-width: 1; fill: none;"></path><path d="M46,487a4,4,0,1,0,8,0a4,4,0,1,0,-8,0z" style="stroke: #ff00ff; fill: #ff00ff;"></path></g></svg><g><g transform="translate(0,518)"><path d="M0,0h442M0,-19V0M65,-10V0M103,-10V0M130,-10V0M151,-10V0M168,-10V0M183,-10V0M196,-10V0M207,-10V0M217,-19V0M282,-10V0M320,-10V0M347,-10V0M368,-10V0M385,-10V0M399,-10V0M412,-10V0M423,-10V0M433,-19V0" style="stroke: #000000; stroke-width: 1;"></path><g font-family="Arial" font-size="19" space="preserve" fill="#000000" text-anchor="middle"><text dy=".8em" transform="translate(0,4)">1</text><text dy=".8em" transform="translate(217,4)">10</text><text dy=".8em" transform="translate(433,4)">100</text></g></g><g><path d="M0,0v518M17,518H0M9,502H0M9,493H0M9,487H0M9,482H0M9,478H0M9,474H0M9,471H0M9,469H0M17,466H0M9,451H0M9,441H0M9,435H0M9,430H0M9,426H0M9,422H0M9,419H0M9,417H0M17,414H0M9,399H0M9,390H0M9,383H0M9,378H0M9,374H0M9,371H0M9,368H0M9,365H0M17,363H0M9,347H0M9,338H0M9,331H0M9,326H0M9,322H0M9,319H0M9,316H0M9,313H0M17,311H0M9,295H0M9,286H0M9,280H0M9,275H0M9,270H0M9,267H0M9,264H0M9,261H0M17,259H0M9,243H0M9,234H0M9,228H0M9,223H0M9,219H0M9,215H0M9,212H0M9,210H0M17,207H0M9,192H0M9,182H0M9,176H0M9,171H0M9,167H0M9,163H0M9,160H0M9,158H0M17,155H0M9,140H0M9,131H0M9,124H0M9,119H0M9,115H0M9,112H0M9,109H0M9,106H0M17,104H0M9,88H0M9,79H0M9,72H0M9,67H0M9,63H0M9,60H0M9,57H0M9,54H0M17,52H0M9,36H0M9,27H0M9,21H0M9,16H0M9,11H0M9,8H0M9,5H0M9,2H0M17,0H0" style="stroke: #000000; stroke-width: 1;"></path><g font-family="Arial" font-size="19" space="preserve"><g transform="translate(-41,526)"><text fill="#000000" font-size="19">10</text><text fill="#000000" font-size="11" transform="translate(21,-10)">-18</text></g><g transform="translate(-41,474)"><text fill="#000000" font-size="19">10</text><text fill="#000000" font-size="11" transform="translate(21,-10)">-17</text></g><g transform="translate(-41,422)"><text fill="#000000" font-size="19">10</text><text fill="#000000" font-size="11" transform="translate(21,-10)">-16</text></g><g transform="translate(-41,371)"><text fill="#000000" font-size="19">10</text><text fill="#000000" font-size="11" transform="translate(21,-10)">-15</text></g><g transform="translate(-41,319)"><text fill="#000000" font-size="19">10</text><text fill="#000000" font-size="11" transform="translate(21,-10)">-14</text></g><g transform="translate(-41,267)"><text fill="#000000" font-size="19">10</text><text fill="#000000" font-size="11" transform="translate(21,-10)">-13</text></g><g transform="translate(-41,215)"><text fill="#000000" font-size="19">10</text><text fill="#000000" font-size="11" transform="translate(21,-10)">-12</text></g><g transform="translate(-40,163)"><text fill="#000000" font-size="19">10</text><text fill="#000000" font-size="11" transform="translate(21,-10)">-11</text></g><g transform="translate(-41,112)"><text fill="#000000" font-size="19">10</text><text fill="#000000" font-size="11" transform="translate(21,-10)">-10</text></g><g transform="translate(-35,60)"><text fill="#000000" font-size="19">10</text><text fill="#000000" font-size="11" transform="translate(21,-10)">-9</text></g><g transform="translate(-35,8)"><text fill="#000000" font-size="19">10</text><text fill="#000000" font-size="11" transform="translate(21,-10)">-8</text></g></g></g></g></g><g font-family="Arial" font-size="40" space="preserve" font-weight="bold"><text fill="#688296" text-anchor="start" dy=".4em" transform="translate(331,97)">p - p</text></g><g font-family="Arial" font-size="25" space="preserve" font-weight="bold"><g transform="translate(331,145)"><text fill="#688296" font-size="25">Direct γ</text></g></g><g font-family="Arial" font-size="25" space="preserve" font-weight="bold"><g transform="translate(331,173)"><text fill="#688296" font-size="25">θ = 90</text><text fill="#688296" font-size="15" transform="translate(73,-13)">o</text></g></g><g font-family="Arial" font-size="25" space="preserve" font-weight="bold"><g transform="translate(110,367)"><text fill="#688296" font-size="25">Ed</text><text fill="#688296" font-size="15" transform="translate(32,-13)">3</text><text fill="#688296" font-size="25" x="40">σ/dq</text><text fill="#688296" font-size="15" transform="translate(93,-13)">3</text></g></g><g font-family="Arial" font-size="25" space="preserve" font-weight="bold"><g transform="translate(99,400)"><text fill="#688296" font-size="25">(barn/Gev</text><text fill="#688296" font-size="15" transform="translate(116,-13)">2</text><text fill="#688296" font-size="25" x="124">)</text></g></g><g font-family="Arial" font-size="22" space="preserve" font-weight="bold"><g transform="translate(121,489)"><g><path style="stroke: #0000ff; stroke-width: 2; fill: none;" d="M0,-8h3l3,9l3,-22h16v3"></path><text fill="#0000ff" font-size="22" transform="translate(10)">s</text></g><text fill="#0000ff" font-size="22" x="36">= 63(GeV)</text></g></g><g font-family="Arial" font-size="22" space="preserve" font-weight="bold"><g transform="translate(121,524)"><g><path style="stroke: #ff0000; stroke-width: 2; fill: none;" d="M0,-8h3l3,9l3,-22h16v3"></path><text fill="#ff0000" font-size="22" transform="translate(10)">s</text></g><text fill="#ff0000" font-size="22" x="36">= 200(GeV)</text></g></g><g font-family="Arial" font-size="22" space="preserve" font-weight="bold"><g transform="translate(121,560)"><g><path style="stroke: #ff00ff; stroke-width: 2; fill: none;" d="M0,-8h3l3,9l3,-22h16v3"></path><text fill="#ff00ff" font-size="22" transform="translate(10)">s</text></g><text fill="#ff00ff" font-size="22" x="36">= 500(GeV)</text></g></g><g font-family="Arial" font-size="25" space="preserve" font-weight="bold"><g transform="translate(331,617)"><text fill="#000000" font-size="25">q</text><text fill="#000000" font-size="15" transform="translate(16,5)">T</text><text fill="#000000" font-size="25" x="35">(Gev/c)</text></g></g></g></svg><svg viewBox="0 0 552 648" preserveAspectRatio="none" x="624" y="136" width="552" height="648"><path d="M0,0H552V648H0Z" style="fill: #adbcc6;"></path><g><g transform="translate(55,65)"><path d="M0,0H442V518H0Z" style="fill: #f2f2f2; stroke: #000000; stroke-width: 1;"></path><svg x="0" y="0" overflow="hidden" width="442" height="518" viewBox="0 0 442 518"><g><path d="M63,25l78,119l39,60l29,44l25,38l22,33l21,32l20,31l20,30l19,30" style="stroke: #5954d8; stroke-width: 1; fill: none;"></path><path d="M62.7,19.1l4.0,12.0l-10.0,-7.5h12.0l-10.0,7.5zM140.7,138.0l4.0,12.0l-10.0,-7.5h12.0l-10.0,7.5zM179.8,197.7l4.0,12.0l-10.0,-7.5h12.0l-10.0,7.5zM208.9,242.0l4.0,12.0l-10.0,-7.5h12.0l-10.0,7.5zM233.5,279.5l4.0,12.0l-10.0,-7.5h12.0l-10.0,7.5zM255.7,313.4l4.0,12.0l-10.0,-7.5h12.0l-10.0,7.5zM276.6,345.1l4.0,12.0l-10.0,-7.5h12.0l-10.0,7.5zM296.7,375.8l4.0,12.0l-10.0,-7.5h12.0l-10.0,7.5zM316.6,406.1l4.0,12.0l-10.0,-7.5h12.0l-10.0,7.5zM336.4,436.3l4.0,12.0l-10.0,-7.5h12.0l-10.0,7.5z" style="stroke: #d35954; fill: #d35954;"></path></g></svg><g><g transform="translate(0,518)"><path d="M0,0h442M0,-19V0M38,-10V0M60,-10V0M76,-10V0M88,-10V0M99,-10V0M107,-10V0M114,-10V0M121,-10V0M127,-19V0M165,-10V0M187,-10V0M203,-10V0M215,-10V0M225,-10V0M234,-10V0M241,-10V0M247,-10V0M253,-19V0M291,-10V0M314,-10V0M329,-10V0M342,-10V0M352,-10V0M360,-10V0M368,-10V0M374,-10V0M380,-19V0M418,-10V0M440,-10V0" style="stroke: #000000; stroke-width: 1;"></path><g font-family="Arial" font-size="19" space="preserve"><text fill="#000000" text-anchor="middle" transform="translate(0,25)">1</text><text fill="#000000" text-anchor="middle" transform="translate(127,25)">10</text><g transform="translate(239,25)"><text fill="#000000" font-size="19">10</text><text fill="#000000" font-size="11" transform="translate(21,-10)">2</text></g><g transform="translate(366,25)"><text fill="#000000" font-size="19">10</text><text fill="#000000" font-size="11" transform="translate(21,-10)">3</text></g></g></g><g><path d="M0,0v518M17,518H0M9,507H0M9,500H0M9,496H0M9,492H0M9,489H0M9,487H0M9,485H0M9,483H0M17,481H0M9,470H0M9,463H0M9,459H0M9,455H0M9,452H0M9,450H0M9,448H0M9,446H0M17,444H0M9,433H0M9,426H0M9,422H0M9,418H0M9,415H0M9,413H0M9,411H0M9,409H0M17,407H0M9,396H0M9,389H0M9,385H0M9,381H0M9,378H0M9,376H0M9,374H0M9,372H0M17,370H0M9,359H0M9,352H0M9,348H0M9,344H0M9,341H0M9,339H0M9,337H0M9,335H0M17,333H0M9,322H0M9,315H0M9,311H0M9,307H0M9,304H0M9,302H0M9,300H0M9,298H0M17,296H0M9,285H0M9,278H0M9,274H0M9,270H0M9,267H0M9,265H0M9,263H0M9,261H0M17,259H0M9,248H0M9,241H0M9,237H0M9,233H0M9,230H0M9,228H0M9,226H0M9,224H0M17,222H0M9,211H0M9,204H0M9,200H0M9,196H0M9,193H0M9,191H0M9,189H0M9,187H0M17,185H0M9,174H0M9,167H0M9,163H0M9,159H0M9,156H0M9,154H0M9,152H0M9,150H0M17,148H0M9,137H0M9,130H0M9,126H0M9,122H0M9,119H0M9,117H0M9,115H0M9,113H0M17,111H0M9,100H0M9,93H0M9,89H0M9,85H0M9,82H0M9,80H0M9,78H0M9,76H0M17,74H0M9,63H0M9,56H0M9,52H0M9,48H0M9,45H0M9,43H0M9,41H0M9,39H0M17,37H0M9,26H0M9,19H0M9,15H0M9,11H0M9,8H0M9,6H0M9,4H0M9,2H0M17,0H0" style="stroke: #000000; stroke-width: 1;"></path><g font-family="Arial" font-size="19" space="preserve"><g transform="translate(-41,526)"><text fill="#000000" font-size="19">10</text><text fill="#000000" font-size="11" transform="translate(21,-10)">-22</text></g><g transform="translate(-41,489)"><text fill="#000000" font-size="19">10</text><text fill="#000000" font-size="11" transform="translate(21,-10)">-21</text></g><g transform="translate(-41,452)"><text fill="#000000" font-size="19">10</text><text fill="#000000" font-size="11" transform="translate(21,-10)">-20</text></g><g transform="translate(-41,415)"><text fill="#000000" font-size="19">10</text><text fill="#000000" font-size="11" transform="translate(21,-10)">-19</text></g><g transform="translate(-41,378)"><text fill="#000000" font-size="19">10</text><text fill="#000000" font-size="11" transform="translate(21,-10)">-18</text></g><g transform="translate(-41,341)"><text fill="#000000" font-size="19">10</text><text fill="#000000" font-size="11" transform="translate(21,-10)">-17</text></g><g transform="translate(-41,304)"><text fill="#000000" font-size="19">10</text><text fill="#000000" font-size="11" transform="translate(21,-10)">-16</text></g><g transform="translate(-41,267)"><text fill="#000000" font-size="19">10</text><text fill="#000000" font-size="11" transform="translate(21,-10)">-15</text></g><g transform="translate(-41,230)"><text fill="#000000" font-size="19">10</text><text fill="#000000" font-size="11" transform="translate(21,-10)">-14</text></g><g transform="translate(-41,193)"><text fill="#000000" font-size="19">10</text><text fill="#000000" font-size="11" transform="translate(21,-10)">-13</text></g><g transform="translate(-41,156)"><text fill="#000000" font-size="19">10</text><text fill="#000000" font-size="11" transform="translate(21,-10)">-12</text></g><g transform="translate(-40,119)"><text fill="#000000" font-size="19">10</text><text fill="#000000" font-size="11" transform="translate(21,-10)">-11</text></g><g transform="translate(-41,82)"><text fill="#000000" font-size="19">10</text><text fill="#000000" font-size="11" transform="translate(21,-10)">-10</text></g><g transform="translate(-35,45)"><text fill="#000000" font-size="19">10</text><text fill="#000000" font-size="11" transform="translate(21,-10)">-9</text></g><g transform="translate(-35,8)"><text fill="#000000" font-size="19">10</text><text fill="#000000" font-size="11" transform="translate(21,-10)">-8</text></g></g></g></g></g><g font-family="Arial" font-size="40" space="preserve" font-weight="bold"><text fill="#688296" text-anchor="start" dy=".4em" transform="translate(331,97)">p - p</text></g><g font-family="Arial" font-size="25" space="preserve" font-weight="bold"><g transform="translate(331,145)"><text fill="#688296" font-size="25">Direct γ</text></g></g><g font-family="Arial" font-size="25" space="preserve" font-weight="bold"><g transform="translate(331,173)"><text fill="#688296" font-size="25">θ = 90</text><text fill="#688296" font-size="15" transform="translate(73,-13)">o</text></g></g><g font-family="Arial" font-size="25" space="preserve" font-weight="bold"><text fill="#688296" text-anchor="start" dy=".4em" transform="translate(386,292)">H(z)</text></g><g font-family="Arial" font-size="25" space="preserve" font-weight="bold"><text fill="#688296" text-anchor="start" dy=".4em" transform="translate(375,324)">(barn)</text></g><g font-family="Arial" font-size="22" space="preserve" font-weight="bold"><g transform="translate(110,463)"><g><path style="stroke: #ce5e60; stroke-width: 2; fill: none;" d="M0,-8h3l3,9l3,-22h16v3"></path><text fill="#ce5e60" font-size="22" transform="translate(10)">s</text></g><text fill="#ce5e60" font-size="22" x="27">, GeV</text></g></g><g font-family="Arial" font-size="22" space="preserve" font-weight="bold"><text fill="#ce5e60" text-anchor="start" dy=".4em" transform="translate(121,480)">63</text></g><g font-family="Arial" font-size="22" space="preserve" font-weight="bold"><text fill="#ce5e60" text-anchor="start" dy=".4em" transform="translate(121,505)">200</text></g><g font-family="Arial" font-size="22" space="preserve" font-weight="bold"><text fill="#ce5e60" text-anchor="start" dy=".4em" transform="translate(121,531)">500</text></g><g font-family="Arial" font-size="25" space="preserve" font-weight="bold"><text fill="#000000" text-anchor="start" dy=".4em" transform="translate(486,609)">z</text></g></g></svg></g></svg>