<svg xmlns="http://www.w3.org/2000/svg" viewBox="0 0 1200 800" preserveAspectRatio="none" width="1200" height="800"><path d="M0,0H1200V800H0Z" style="fill: #aaa5bf;"></path><g><g transform="translate(48,22)" font-family="Times New Roman" font-size="24" space="preserve" font-weight="bold" font-style="italic"><path d="M1104,3h3v53h-1104v-3h1101z" style="fill: #000000; stroke: #000000; stroke-width: 1px;"></path><path d="M0,0H1104V53H0Z" style="fill: #e5e5e5; stroke: #000000; stroke-width: 1;"></path><text fill="#936870" text-anchor="middle" dy=".4em" transform="translate(552,27)">Z-scaling of       Direct Photon Productions in pp Collisions at RHIC Energies</text></g><g font-family="Times New Roman" font-size="22" space="preserve" font-weight="bold" font-style="italic"><text fill="#000000" text-anchor="start" dy=".4em" transform="translate(149,111)">M.Tokarev, E.Potrebenikova </text></g><g font-family="Times New Roman" font-size="22" space="preserve" font-weight="bold" font-style="italic"><text fill="#000000" text-anchor="start" dy=".4em" transform="translate(672,111)">JINR preprint E2-98-64, Dubna, 1998 </text></g><svg viewBox="0 0 552 648" preserveAspectRatio="none" x="24" y="136" width="552" height="648"><path d="M0,0H552V648H0Z" style="fill: #adbcc6;"></path><g><g transform="translate(88,32)"><path d="M0,0H436V512H0Z" style="fill: #f2f2f2; stroke: #000000; stroke-width: 1;"></path><svg x="0" y="0" overflow="hidden" width="436" height="512" viewBox="0 0 436 512"><g><path d="M129,60l37,59l27,48l21,43l16,41l15,40l12,41l11,44l10,48l9,55" style="stroke: #7c99d1; stroke-width: 1; fill: none;"></path><path d="M124,55v9h9v-9zM162,115v9h9v-9zM188,163v9h9v-9zM209,206v9h9v-9zM226,246v9h9v-9zM240,287v9h9v-9zM253,328v9h9v-9zM264,372v9h9v-9zM273,420v9h9v-9zM282,474v9h9v-9z" style="stroke: #0000ff; fill: #0000ff;"></path></g><g><path d="M129,29l85,115l43,66l30,49l22,43l18,39l15,38l13,39l12,39l10,42" style="stroke: #7c99d1; stroke-width: 1; fill: none;"></path><path d="M128.6,22.9l4.0,12.0l-10.0,-7.5h12.0l-10.0,7.5zM213.6,138.1l4.0,12.0l-10.0,-7.5h12.0l-10.0,7.5zM257.2,203.5l4.0,12.0l-10.0,-7.5h12.0l-10.0,7.5zM286.7,253.2l4.0,12.0l-10.0,-7.5h12.0l-10.0,7.5zM309.1,295.9l4.0,12.0l-10.0,-7.5h12.0l-10.0,7.5zM327.1,335.3l4.0,12.0l-10.0,-7.5h12.0l-10.0,7.5zM342.2,373.4l4.0,12.0l-10.0,-7.5h12.0l-10.0,7.5zM355.1,411.5l4.0,12.0l-10.0,-7.5h12.0l-10.0,7.5zM366.5,451.0l4.0,12.0l-10.0,-7.5h12.0l-10.0,7.5zM376.6,492.8l4.0,12.0l-10.0,-7.5h12.0l-10.0,7.5z" style="stroke: #ff0000; fill: #ff0000;"></path></g><g><path d="M129,12l116,151l50,68l32,47l24,38l19,33l16,29l13,27l12,26l10,26" style="stroke: #7c99d1; stroke-width: 1; fill: none;"></path><path d="M125,12a4,4,0,1,0,8,0a4,4,0,1,0,-8,0zM241,163a4,4,0,1,0,8,0a4,4,0,1,0,-8,0zM291,231a4,4,0,1,0,8,0a4,4,0,1,0,-8,0zM323,278a4,4,0,1,0,8,0a4,4,0,1,0,-8,0zM347,316a4,4,0,1,0,8,0a4,4,0,1,0,-8,0zM366,349a4,4,0,1,0,8,0a4,4,0,1,0,-8,0zM382,378a4,4,0,1,0,8,0a4,4,0,1,0,-8,0zM395,405a4,4,0,1,0,8,0a4,4,0,1,0,-8,0zM407,431a4,4,0,1,0,8,0a4,4,0,1,0,-8,0zM417,457a4,4,0,1,0,8,0a4,4,0,1,0,-8,0z" style="stroke: #ff00ff; fill: #ff00ff;"></path></g><g><path d="M49,410" style="stroke: #000000; stroke-width: 1; fill: none;"></path><path d="M45,405v9h9v-9z" style="stroke: #0000ff; fill: #0000ff;"></path></g><g><path d="M49,445" style="stroke: #000000; stroke-width: 1; fill: none;"></path><path d="M49.2,439.4l4.0,12.0l-10.0,-7.5h12.0l-10.0,7.5z" style="stroke: #ff0000; fill: #ff0000;"></path></g><g><path d="M49,481" style="stroke: #000000; stroke-width: 1; fill: none;"></path><path d="M45,481a4,4,0,1,0,8,0a4,4,0,1,0,-8,0z" style="stroke: #ff00ff; fill: #ff00ff;"></path></g></svg><g><g transform="translate(0,512)"><path d="M0,0h436M0,-512h436M0,-15V0M64,-8V0M102,-8V0M129,-8V0M149,-8V0M166,-8V0M180,-8V0M193,-8V0M204,-8V0M214,-15V0M278,-8V0M315,-8V0M342,-8V0M363,-8V0M380,-8V0M394,-8V0M406,-8V0M417,-8V0M427,-15V0M0,-497V-512M64,-504V-512M102,-504V-512M129,-504V-512M149,-504V-512M166,-504V-512M180,-504V-512M193,-504V-512M204,-504V-512M214,-497V-512M278,-504V-512M315,-504V-512M342,-504V-512M363,-504V-512M380,-504V-512M394,-504V-512M406,-504V-512M417,-504V-512M427,-497V-512" style="stroke: #000000; stroke-width: 1;"></path><g font-family="Arial" font-size="28" space="preserve" fill="#000000" text-anchor="middle"><text dy=".8em" transform="translate(0,3)">1</text><text dy=".8em" transform="translate(214,3)">10</text><text dy=".8em" transform="translate(427,3)">100</text></g></g><g><path d="M0,0v512M436,0v512M13,512H0M7,497H0M7,488H0M7,481H0M7,476H0M7,472H0M7,469H0M7,466H0M7,463H0M13,461H0M7,445H0M7,436H0M7,430H0M7,425H0M7,421H0M7,418H0M7,415H0M7,412H0M13,410H0M7,394H0M7,385H0M7,379H0M7,374H0M7,370H0M7,366H0M7,363H0M7,361H0M13,358H0M7,343H0M7,334H0M7,328H0M7,323H0M7,319H0M7,315H0M7,312H0M7,310H0M13,307H0M7,292H0M7,283H0M7,276H0M7,271H0M7,267H0M7,264H0M7,261H0M7,258H0M13,256H0M7,241H0M7,232H0M7,225H0M7,220H0M7,216H0M7,213H0M7,210H0M7,207H0M13,205H0M7,189H0M7,180H0M7,174H0M7,169H0M7,165H0M7,162H0M7,159H0M7,156H0M13,154H0M7,138H0M7,129H0M7,123H0M7,118H0M7,114H0M7,110H0M7,107H0M7,105H0M13,102H0M7,87H0M7,78H0M7,72H0M7,67H0M7,63H0M7,59H0M7,56H0M7,54H0M13,51H0M7,36H0M7,27H0M7,20H0M7,15H0M7,11H0M7,8H0M7,5H0M7,2H0M13,0H0M423,512H436M429,497H436M429,488H436M429,481H436M429,476H436M429,472H436M429,469H436M429,466H436M429,463H436M423,461H436M429,445H436M429,436H436M429,430H436M429,425H436M429,421H436M429,418H436M429,415H436M429,412H436M423,410H436M429,394H436M429,385H436M429,379H436M429,374H436M429,370H436M429,366H436M429,363H436M429,361H436M423,358H436M429,343H436M429,334H436M429,328H436M429,323H436M429,319H436M429,315H436M429,312H436M429,310H436M423,307H436M429,292H436M429,283H436M429,276H436M429,271H436M429,267H436M429,264H436M429,261H436M429,258H436M423,256H436M429,241H436M429,232H436M429,225H436M429,220H436M429,216H436M429,213H436M429,210H436M429,207H436M423,205H436M429,189H436M429,180H436M429,174H436M429,169H436M429,165H436M429,162H436M429,159H436M429,156H436M423,154H436M429,138H436M429,129H436M429,123H436M429,118H436M429,114H436M429,110H436M429,107H436M429,105H436M423,102H436M429,87H436M429,78H436M429,72H436M429,67H436M429,63H436M429,59H436M429,56H436M429,54H436M423,51H436M429,36H436M429,27H436M429,20H436M429,15H436M429,11H436M429,8H436M429,5H436M429,2H436M423,0H436" style="stroke: #000000; stroke-width: 1;"></path><g font-family="Arial" font-size="28" space="preserve"><g transform="translate(-58,524)"><text fill="#000000" font-size="28">10</text><text fill="#000000" font-size="17" transform="translate(31,-15)">-18</text></g><g transform="translate(-58,473)"><text fill="#000000" font-size="28">10</text><text fill="#000000" font-size="17" transform="translate(31,-15)">-17</text></g><g transform="translate(-58,422)"><text fill="#000000" font-size="28">10</text><text fill="#000000" font-size="17" transform="translate(31,-15)">-16</text></g><g transform="translate(-58,370)"><text fill="#000000" font-size="28">10</text><text fill="#000000" font-size="17" transform="translate(31,-15)">-15</text></g><g transform="translate(-58,319)"><text fill="#000000" font-size="28">10</text><text fill="#000000" font-size="17" transform="translate(31,-15)">-14</text></g><g transform="translate(-58,268)"><text fill="#000000" font-size="28">10</text><text fill="#000000" font-size="17" transform="translate(31,-15)">-13</text></g><g transform="translate(-58,217)"><text fill="#000000" font-size="28">10</text><text fill="#000000" font-size="17" transform="translate(31,-15)">-12</text></g><g transform="translate(-58,166)"><text fill="#000000" font-size="28">10</text><text fill="#000000" font-size="17" transform="translate(31,-15)">-11</text></g><g transform="translate(-58,114)"><text fill="#000000" font-size="28">10</text><text fill="#000000" font-size="17" transform="translate(31,-15)">-10</text></g><g transform="translate(-50,63)"><text fill="#000000" font-size="28">10</text><text fill="#000000" font-size="17" transform="translate(31,-15)">-9</text></g><g transform="translate(-50,12)"><text fill="#000000" font-size="28">10</text><text fill="#000000" font-size="17" transform="translate(31,-15)">-8</text></g></g></g></g></g><g transform="translate(-213,3)" style="display: none;"><path d="M436,2h2v20h-436v-2h434z" style="fill: #000000; stroke: #000000; stroke-width: 1px;"></path><path d="M0,0H436V20H0Z" style="fill: #f2f2f2; stroke: #000000; stroke-width: 1;"></path></g><g font-family="Arial" font-size="40" space="preserve" font-weight="bold"><text fill="#688296" text-anchor="start" dy=".4em" transform="translate(331,97)">p - p</text></g><g font-family="Arial" font-size="25" space="preserve" font-weight="bold"><g transform="translate(331,145)"><text fill="#688296" font-size="25">Direct γ</text></g></g><g font-family="Arial" font-size="25" space="preserve" font-weight="bold"><g transform="translate(331,173)"><text fill="#688296" font-size="25">θ = 90</text><text fill="#688296" font-size="15" transform="translate(73,-13)">o</text></g></g><g font-family="Arial" font-size="25" space="preserve" font-weight="bold"><g transform="translate(110,367)"><text fill="#688296" font-size="25">Ed</text><text fill="#688296" font-size="15" transform="translate(32,-13)">3</text><text fill="#688296" font-size="25" x="40">σ/dq</text><text fill="#688296" font-size="15" transform="translate(93,-13)">3</text></g></g><g font-family="Arial" font-size="25" space="preserve" font-weight="bold"><g transform="translate(99,400)"><text fill="#688296" font-size="25">(barn/Gev</text><text fill="#688296" font-size="15" transform="translate(116,-13)">2</text><text fill="#688296" font-size="25" x="124">)</text></g></g><g font-family="Arial" font-size="22" space="preserve" font-weight="bold"><g transform="translate(121,489)"><g><path style="stroke: #0000ff; stroke-width: 2; fill: none;" d="M0,-8h3l3,9l3,-22h16v3"></path><text fill="#0000ff" font-size="22" transform="translate(10)">s</text></g><text fill="#0000ff" font-size="22" x="36">= 63(GeV)</text></g></g><g font-family="Arial" font-size="22" space="preserve" font-weight="bold"><g transform="translate(121,524)"><g><path style="stroke: #ff0000; stroke-width: 2; fill: none;" d="M0,-8h3l3,9l3,-22h16v3"></path><text fill="#ff0000" font-size="22" transform="translate(10)">s</text></g><text fill="#ff0000" font-size="22" x="36">= 200(GeV)</text></g></g><g font-family="Arial" font-size="22" space="preserve" font-weight="bold"><g transform="translate(121,560)"><g><path style="stroke: #ff00ff; stroke-width: 2; fill: none;" d="M0,-8h3l3,9l3,-22h16v3"></path><text fill="#ff00ff" font-size="22" transform="translate(10)">s</text></g><text fill="#ff00ff" font-size="22" x="36">= 500(GeV)</text></g></g><g font-family="Arial" font-size="25" space="preserve" font-weight="bold"><g transform="translate(331,617)"><text fill="#000000" font-size="25">q</text><text fill="#000000" font-size="15" transform="translate(16,5)">T</text><text fill="#000000" font-size="25" x="35">(Gev/c)</text></g></g></g></svg><svg viewBox="0 0 552 648" preserveAspectRatio="none" x="624" y="136" width="552" height="648"><path d="M0,0H552V648H0Z" style="fill: #adbcc6;"></path><g><g transform="translate(88,32)"><path d="M0,0H436V512H0Z" style="fill: #f2f2f2; stroke: #000000; stroke-width: 1;"></path><svg x="0" y="0" overflow="hidden" width="436" height="512" viewBox="0 0 436 512"><g><path d="M62,25l77,117l38,59l29,44l24,37l22,34l21,31l20,30l19,30l20,30" style="stroke: #5954d8; stroke-width: 1; fill: none;"></path><path d="M61.8,18.8l4.0,12.0l-10.0,-7.5h12.0l-10.0,7.5zM138.8,136.3l4.0,12.0l-10.0,-7.5h12.0l-10.0,7.5zM177.4,195.3l4.0,12.0l-10.0,-7.5h12.0l-10.0,7.5zM206.1,239.1l4.0,12.0l-10.0,-7.5h12.0l-10.0,7.5zM230.4,276.2l4.0,12.0l-10.0,-7.5h12.0l-10.0,7.5zM252.3,309.7l4.0,12.0l-10.0,-7.5h12.0l-10.0,7.5zM272.8,341.1l4.0,12.0l-10.0,-7.5h12.0l-10.0,7.5zM292.7,371.4l4.0,12.0l-10.0,-7.5h12.0l-10.0,7.5zM312.3,401.3l4.0,12.0l-10.0,-7.5h12.0l-10.0,7.5zM331.8,431.2l4.0,12.0l-10.0,-7.5h12.0l-10.0,7.5z" style="stroke: #d35954; fill: #d35954;"></path></g></svg><g><g transform="translate(0,512)"><path d="M0,0h436M0,-512h436M0,-15V0M38,-8V0M60,-8V0M75,-8V0M87,-8V0M97,-8V0M106,-8V0M113,-8V0M119,-8V0M125,-15V0M162,-8V0M184,-8V0M200,-8V0M212,-8V0M222,-8V0M230,-8V0M238,-8V0M244,-8V0M250,-15V0M287,-8V0M309,-8V0M325,-8V0M337,-8V0M347,-8V0M355,-8V0M363,-8V0M369,-8V0M375,-15V0M412,-8V0M434,-8V0M0,-497V-512M38,-504V-512M60,-504V-512M75,-504V-512M87,-504V-512M97,-504V-512M106,-504V-512M113,-504V-512M119,-504V-512M125,-497V-512M162,-504V-512M184,-504V-512M200,-504V-512M212,-504V-512M222,-504V-512M230,-504V-512M238,-504V-512M244,-504V-512M250,-497V-512M287,-504V-512M309,-504V-512M325,-504V-512M337,-504V-512M347,-504V-512M355,-504V-512M363,-504V-512M369,-504V-512M375,-497V-512M412,-504V-512M434,-504V-512" style="stroke: #000000; stroke-width: 1;"></path><g font-family="Arial" font-size="28" space="preserve"><text fill="#000000" text-anchor="middle" transform="translate(0,34)">1</text><text fill="#000000" text-anchor="middle" transform="translate(125,34)">10</text><g transform="translate(230,34)"><text fill="#000000" font-size="28">10</text><text fill="#000000" font-size="17" transform="translate(31,-15)">2</text></g><g transform="translate(355,34)"><text fill="#000000" font-size="28">10</text><text fill="#000000" font-size="17" transform="translate(31,-15)">3</text></g></g></g><g><path d="M0,0v512M436,0v512M13,512H0M7,501H0M7,495H0M7,490H0M7,486H0M7,484H0M7,481H0M7,479H0M7,477H0M13,475H0M7,464H0M7,458H0M7,453H0M7,450H0M7,447H0M7,445H0M7,442H0M7,441H0M13,439H0M7,428H0M7,421H0M7,417H0M7,413H0M7,410H0M7,408H0M7,406H0M7,404H0M13,402H0M7,391H0M7,385H0M7,380H0M7,377H0M7,374H0M7,371H0M7,369H0M7,367H0M13,366H0M7,355H0M7,348H0M7,344H0M7,340H0M7,337H0M7,335H0M7,333H0M7,331H0M13,329H0M7,318H0M7,312H0M7,307H0M7,304H0M7,301H0M7,298H0M7,296H0M7,294H0M13,293H0M7,282H0M7,275H0M7,271H0M7,267H0M7,264H0M7,262H0M7,260H0M7,258H0M13,256H0M7,245H0M7,239H0M7,234H0M7,230H0M7,228H0M7,225H0M7,223H0M7,221H0M13,219H0M7,208H0M7,202H0M7,197H0M7,194H0M7,191H0M7,189H0M7,186H0M7,185H0M13,183H0M7,172H0M7,165H0M7,161H0M7,157H0M7,154H0M7,152H0M7,150H0M7,148H0M13,146H0M7,135H0M7,129H0M7,124H0M7,121H0M7,118H0M7,115H0M7,113H0M7,111H0M13,110H0M7,99H0M7,92H0M7,88H0M7,84H0M7,81H0M7,79H0M7,77H0M7,75H0M13,73H0M7,62H0M7,56H0M7,51H0M7,48H0M7,45H0M7,42H0M7,40H0M7,38H0M13,37H0M7,26H0M7,19H0M7,15H0M7,11H0M7,8H0M7,6H0M7,4H0M7,2H0M13,0H0M423,512H436M429,501H436M429,495H436M429,490H436M429,486H436M429,484H436M429,481H436M429,479H436M429,477H436M423,475H436M429,464H436M429,458H436M429,453H436M429,450H436M429,447H436M429,445H436M429,442H436M429,441H436M423,439H436M429,428H436M429,421H436M429,417H436M429,413H436M429,410H436M429,408H436M429,406H436M429,404H436M423,402H436M429,391H436M429,385H436M429,380H436M429,377H436M429,374H436M429,371H436M429,369H436M429,367H436M423,366H436M429,355H436M429,348H436M429,344H436M429,340H436M429,337H436M429,335H436M429,333H436M429,331H436M423,329H436M429,318H436M429,312H436M429,307H436M429,304H436M429,301H436M429,298H436M429,296H436M429,294H436M423,293H436M429,282H436M429,275H436M429,271H436M429,267H436M429,264H436M429,262H436M429,260H436M429,258H436M423,256H436M429,245H436M429,239H436M429,234H436M429,230H436M429,228H436M429,225H436M429,223H436M429,221H436M423,219H436M429,208H436M429,202H436M429,197H436M429,194H436M429,191H436M429,189H436M429,186H436M429,185H436M423,183H436M429,172H436M429,165H436M429,161H436M429,157H436M429,154H436M429,152H436M429,150H436M429,148H436M423,146H436M429,135H436M429,129H436M429,124H436M429,121H436M429,118H436M429,115H436M429,113H436M429,111H436M423,110H436M429,99H436M429,92H436M429,88H436M429,84H436M429,81H436M429,79H436M429,77H436M429,75H436M423,73H436M429,62H436M429,56H436M429,51H436M429,48H436M429,45H436M429,42H436M429,40H436M429,38H436M423,37H436M429,26H436M429,19H436M429,15H436M429,11H436M429,8H436M429,6H436M429,4H436M429,2H436M423,0H436" style="stroke: #000000; stroke-width: 1;"></path><g font-family="Arial" font-size="28" space="preserve"><g transform="translate(-59,524)"><text fill="#000000" font-size="28">10</text><text fill="#000000" font-size="17" transform="translate(31,-15)">-22</text></g><g transform="translate(-58,487)"><text fill="#000000" font-size="28">10</text><text fill="#000000" font-size="17" transform="translate(31,-15)">-21</text></g><g transform="translate(-59,451)"><text fill="#000000" font-size="28">10</text><text fill="#000000" font-size="17" transform="translate(31,-15)">-20</text></g><g transform="translate(-58,414)"><text fill="#000000" font-size="28">10</text><text fill="#000000" font-size="17" transform="translate(31,-15)">-19</text></g><g transform="translate(-58,378)"><text fill="#000000" font-size="28">10</text><text fill="#000000" font-size="17" transform="translate(31,-15)">-18</text></g><g transform="translate(-58,341)"><text fill="#000000" font-size="28">10</text><text fill="#000000" font-size="17" transform="translate(31,-15)">-17</text></g><g transform="translate(-58,305)"><text fill="#000000" font-size="28">10</text><text fill="#000000" font-size="17" transform="translate(31,-15)">-16</text></g><g transform="translate(-58,268)"><text fill="#000000" font-size="28">10</text><text fill="#000000" font-size="17" transform="translate(31,-15)">-15</text></g><g transform="translate(-58,231)"><text fill="#000000" font-size="28">10</text><text fill="#000000" font-size="17" transform="translate(31,-15)">-14</text></g><g transform="translate(-58,195)"><text fill="#000000" font-size="28">10</text><text fill="#000000" font-size="17" transform="translate(31,-15)">-13</text></g><g transform="translate(-58,158)"><text fill="#000000" font-size="28">10</text><text fill="#000000" font-size="17" transform="translate(31,-15)">-12</text></g><g transform="translate(-58,122)"><text fill="#000000" font-size="28">10</text><text fill="#000000" font-size="17" transform="translate(31,-15)">-11</text></g><g transform="translate(-58,85)"><text fill="#000000" font-size="28">10</text><text fill="#000000" font-size="17" transform="translate(31,-15)">-10</text></g><g transform="translate(-50,49)"><text fill="#000000" font-size="28">10</text><text fill="#000000" font-size="17" transform="translate(31,-15)">-9</text></g><g transform="translate(-50,12)"><text fill="#000000" font-size="28">10</text><text fill="#000000" font-size="17" transform="translate(31,-15)">-8</text></g></g></g></g></g><g transform="translate(-213,3)" style="display: none;"><path d="M436,2h2v20h-436v-2h434z" style="fill: #000000; stroke: #000000; stroke-width: 1px;"></path><path d="M0,0H436V20H0Z" style="fill: #f2f2f2; stroke: #000000; stroke-width: 1;"></path></g><g font-family="Arial" font-size="40" space="preserve" font-weight="bold"><text fill="#688296" text-anchor="start" dy=".4em" transform="translate(331,97)">p - p</text></g><g font-family="Arial" font-size="25" space="preserve" font-weight="bold"><g transform="translate(331,145)"><text fill="#688296" font-size="25">Direct γ</text></g></g><g font-family="Arial" font-size="25" space="preserve" font-weight="bold"><g transform="translate(331,173)"><text fill="#688296" font-size="25">θ = 90</text><text fill="#688296" font-size="15" transform="translate(73,-13)">o</text></g></g><g font-family="Arial" font-size="25" space="preserve" font-weight="bold"><text fill="#688296" text-anchor="start" dy=".4em" transform="translate(386,292)">H(z)</text></g><g font-family="Arial" font-size="25" space="preserve" font-weight="bold"><text fill="#688296" text-anchor="start" dy=".4em" transform="translate(375,324)">(barn)</text></g><g font-family="Arial" font-size="22" space="preserve" font-weight="bold"><g transform="translate(110,463)"><g><path style="stroke: #ce5e60; stroke-width: 2; fill: none;" d="M0,-8h3l3,9l3,-22h16v3"></path><text fill="#ce5e60" font-size="22" transform="translate(10)">s</text></g><text fill="#ce5e60" font-size="22" x="27">, GeV</text></g></g><g font-family="Arial" font-size="22" space="preserve" font-weight="bold"><text fill="#ce5e60" text-anchor="start" dy=".4em" transform="translate(121,480)">63</text></g><g font-family="Arial" font-size="22" space="preserve" font-weight="bold"><text fill="#ce5e60" text-anchor="start" dy=".4em" transform="translate(121,505)">200</text></g><g font-family="Arial" font-size="22" space="preserve" font-weight="bold"><text fill="#ce5e60" text-anchor="start" dy=".4em" transform="translate(121,531)">500</text></g><g font-family="Arial" font-size="25" space="preserve" font-weight="bold"><text fill="#000000" text-anchor="start" dy=".4em" transform="translate(486,609)">z</text></g></g></svg></g></svg>