<svg xmlns="http://www.w3.org/2000/svg" viewBox="0 0 1200 800" preserveAspectRatio="none" width="1200" height="800"><path d="M0,0H1200V800H0Z" style="fill: #ffffff;"></path><g><svg viewBox="0 0 576 384" preserveAspectRatio="none" x="12" y="8" width="576" height="384"><path d="M0,0H576V384H0Z" style="fill: #ffffff;"></path><g><g transform="translate(92,19)"><path d="M0,0H455V303H0Z" style="fill: #ffffff; stroke: #000000; stroke-width: 1;"></path><svg x="0" y="0" overflow="hidden" width="455" height="303" viewBox="0 0 455 303"><g><path d="M28.3,299.0v4.0h4.0v-4.0zM58.7,292.9v4.0h4.0v-4.0zM89.0,282.8v4.0h4.0v-4.0zM119.3,268.7v4.0h4.0v-4.0zM149.7,250.5v4.0h4.0v-4.0zM180.0,250.5v4.0h4.0v-4.0zM180.0,228.3v4.0h4.0v-4.0zM180.0,202.0v4.0h4.0v-4.0zM240.7,171.7v4.0h4.0v-4.0zM271.0,137.4v4.0h4.0v-4.0zM301.3,99.0v4.0h4.0v-4.0z" style="stroke: #0000ff; fill: #0000ff;"></path></g><g><path d="M27.5,298.2l5.6,5.6m0,-5.6l-5.6,5.6M57.9,292.1l5.6,5.6m0,-5.6l-5.6,5.6M88.2,282.0l5.6,5.6m0,-5.6l-5.6,5.6M118.5,267.9l5.6,5.6m0,-5.6l-5.6,5.6M148.9,249.7l5.6,5.6m0,-5.6l-5.6,5.6M179.2,226.1l5.6,5.6m0,-5.6l-5.6,5.6M239.9,170.9l5.6,5.6m0,-5.6l-5.6,5.6M270.2,136.6l5.6,5.6m0,-5.6l-5.6,5.6M300.5,98.2l5.6,5.6m0,-5.6l-5.6,5.6" style="stroke: #ff0000; fill: none;"></path></g><g><path d="M30,301l6,-1l5,-1l6,-1l6,-1l5,-2l6,-1l5,-2l6,-2l5,-2l6,-2l6,-1l5,-3l6,-3l5,-2l6,-3l5,-2l6,-4l6,-3l5,-3l6,-4l5,-3l6,-3l5,-5l6,-4l6,-4l5,-5l6,-4l5,-5l6,-5l5,-5l6,-5l6,-5l5,-5l6,-5l5,-6l6,-5l5,-5l6,-5l6,-6l5,-6l6,-7l5,-6l6,-6l5,-7l6,-7l6,-7l5,-7l6,-7l5,-7" style="stroke: #000000; stroke-width: 1; fill: none;"></path><path d="M25,301a5,5,0,1,0,10,0a5,5,0,1,0,-10,0zM31,300a5,5,0,1,0,10,0a5,5,0,1,0,-10,0zM36,299a5,5,0,1,0,10,0a5,5,0,1,0,-10,0zM42,298a5,5,0,1,0,10,0a5,5,0,1,0,-10,0zM48,297a5,5,0,1,0,10,0a5,5,0,1,0,-10,0zM53,295a5,5,0,1,0,10,0a5,5,0,1,0,-10,0zM59,294a5,5,0,1,0,10,0a5,5,0,1,0,-10,0zM64,292a5,5,0,1,0,10,0a5,5,0,1,0,-10,0zM70,290a5,5,0,1,0,10,0a5,5,0,1,0,-10,0zM75,288a5,5,0,1,0,10,0a5,5,0,1,0,-10,0zM81,286a5,5,0,1,0,10,0a5,5,0,1,0,-10,0zM87,285a5,5,0,1,0,10,0a5,5,0,1,0,-10,0zM92,282a5,5,0,1,0,10,0a5,5,0,1,0,-10,0zM98,279a5,5,0,1,0,10,0a5,5,0,1,0,-10,0zM103,277a5,5,0,1,0,10,0a5,5,0,1,0,-10,0zM109,274a5,5,0,1,0,10,0a5,5,0,1,0,-10,0zM114,272a5,5,0,1,0,10,0a5,5,0,1,0,-10,0zM120,268a5,5,0,1,0,10,0a5,5,0,1,0,-10,0zM126,265a5,5,0,1,0,10,0a5,5,0,1,0,-10,0zM131,262a5,5,0,1,0,10,0a5,5,0,1,0,-10,0zM137,258a5,5,0,1,0,10,0a5,5,0,1,0,-10,0zM142,255a5,5,0,1,0,10,0a5,5,0,1,0,-10,0zM148,252a5,5,0,1,0,10,0a5,5,0,1,0,-10,0zM153,247a5,5,0,1,0,10,0a5,5,0,1,0,-10,0zM159,243a5,5,0,1,0,10,0a5,5,0,1,0,-10,0zM165,239a5,5,0,1,0,10,0a5,5,0,1,0,-10,0zM170,234a5,5,0,1,0,10,0a5,5,0,1,0,-10,0zM176,230a5,5,0,1,0,10,0a5,5,0,1,0,-10,0zM181,225a5,5,0,1,0,10,0a5,5,0,1,0,-10,0zM187,220a5,5,0,1,0,10,0a5,5,0,1,0,-10,0zM192,215a5,5,0,1,0,10,0a5,5,0,1,0,-10,0zM198,210a5,5,0,1,0,10,0a5,5,0,1,0,-10,0zM204,205a5,5,0,1,0,10,0a5,5,0,1,0,-10,0zM209,200a5,5,0,1,0,10,0a5,5,0,1,0,-10,0zM215,195a5,5,0,1,0,10,0a5,5,0,1,0,-10,0zM220,189a5,5,0,1,0,10,0a5,5,0,1,0,-10,0zM226,184a5,5,0,1,0,10,0a5,5,0,1,0,-10,0zM231,179a5,5,0,1,0,10,0a5,5,0,1,0,-10,0zM237,174a5,5,0,1,0,10,0a5,5,0,1,0,-10,0zM243,168a5,5,0,1,0,10,0a5,5,0,1,0,-10,0zM248,162a5,5,0,1,0,10,0a5,5,0,1,0,-10,0zM254,155a5,5,0,1,0,10,0a5,5,0,1,0,-10,0zM259,149a5,5,0,1,0,10,0a5,5,0,1,0,-10,0zM265,143a5,5,0,1,0,10,0a5,5,0,1,0,-10,0zM270,136a5,5,0,1,0,10,0a5,5,0,1,0,-10,0zM276,129a5,5,0,1,0,10,0a5,5,0,1,0,-10,0zM282,122a5,5,0,1,0,10,0a5,5,0,1,0,-10,0zM287,115a5,5,0,1,0,10,0a5,5,0,1,0,-10,0zM293,108a5,5,0,1,0,10,0a5,5,0,1,0,-10,0zM298,101a5,5,0,1,0,10,0a5,5,0,1,0,-10,0z" style="stroke: #000000; fill: #000000;"></path></g></svg><g><g transform="translate(0,303)"><path d="M0,0h455M0,-303h455M0,-9V0M15,-5V0M30,-5V0M46,-5V0M61,-9V0M76,-5V0M91,-5V0M106,-5V0M121,-9V0M137,-5V0M152,-5V0M167,-5V0M182,-9V0M197,-5V0M212,-5V0M228,-5V0M243,-9V0M258,-5V0M273,-5V0M288,-5V0M303,-9V0M319,-5V0M334,-5V0M349,-5V0M364,-9V0M379,-5V0M394,-5V0M410,-5V0M425,-9V0M440,-5V0M455,-5V0M0,-294V-303M15,-298V-303M30,-298V-303M46,-298V-303M61,-294V-303M76,-298V-303M91,-298V-303M106,-298V-303M121,-294V-303M137,-298V-303M152,-298V-303M167,-298V-303M182,-294V-303M197,-298V-303M212,-298V-303M228,-298V-303M243,-294V-303M258,-298V-303M273,-298V-303M288,-298V-303M303,-294V-303M319,-298V-303M334,-298V-303M349,-298V-303M364,-294V-303M379,-298V-303M394,-298V-303M410,-298V-303M425,-294V-303M440,-298V-303M455,-298V-303" style="stroke: #000000; stroke-width: 1;"></path><g font-family="Arial" font-size="19" space="preserve" fill="#000000" text-anchor="middle"><text dy=".8em" transform="translate(0,2)">0</text><text dy=".8em" transform="translate(61,2)">2</text><text dy=".8em" transform="translate(121,2)">4</text><text dy=".8em" transform="translate(182,2)">6</text><text dy=".8em" transform="translate(243,2)">8</text><text dy=".8em" transform="translate(303,2)">10</text><text dy=".8em" transform="translate(364,2)">12</text><text dy=".8em" transform="translate(425,2)">14</text></g><g font-family="Arial" font-size="77" space="preserve" transform="translate(455,172)"><text fill="#000000" text-anchor="end" dy=".4em">X-axis</text></g></g><g><path d="M0,0v303M455,0v303M14,303H0M7,293H0M7,283H0M7,273H0M14,263H0M7,253H0M7,242H0M7,232H0M14,222H0M7,212H0M7,202H0M7,192H0M14,182H0M7,172H0M7,162H0M7,152H0M14,141H0M7,131H0M7,121H0M7,111H0M14,101H0M7,91H0M7,81H0M7,71H0M14,61H0M7,50H0M7,40H0M7,30H0M14,20H0M7,10H0M7,0H0M441,303H455M448,293H455M448,283H455M448,273H455M441,263H455M448,253H455M448,242H455M448,232H455M441,222H455M448,212H455M448,202H455M448,192H455M441,182H455M448,172H455M448,162H455M448,152H455M441,141H455M448,131H455M448,121H455M448,111H455M441,101H455M448,91H455M448,81H455M448,71H455M441,61H455M448,50H455M448,40H455M448,30H455M441,20H455M448,10H455M448,0H455" style="stroke: #000000; stroke-width: 1;"></path><g font-family="Arial" font-size="19" space="preserve" fill="#000000" text-anchor="end"><text dy=".4em" transform="translate(-3,303)">0</text><text dy=".4em" transform="translate(-3,263)">20</text><text dy=".4em" transform="translate(-3,222)">40</text><text dy=".4em" transform="translate(-3,182)">60</text><text dy=".4em" transform="translate(-3,141)">80</text><text dy=".4em" transform="translate(-3,101)">100</text><text dy=".4em" transform="translate(-3,61)">120</text><text dy=".4em" transform="translate(-3,20)">140</text></g><g font-family="Arial" font-size="19" space="preserve" transform="translate(-64)"><text fill="#000000" text-anchor="end" dy=".4em" transform="rotate(270)">Y-axis</text></g></g></g></g><g transform="translate(-222,2)" style="display: none;"><path d="M455,2h2v12h-455v-2h453z" style="fill: #000000; stroke: #000000; stroke-width: 1px;"></path><path d="M0,0H455V12H0Z" style="fill: #f2f2f2; stroke: #000000; stroke-width: 1;"></path></g></g></svg><svg viewBox="0 0 576 384" preserveAspectRatio="none" x="612" y="8" width="576" height="384"><path d="M0,0H576V384H0Z" style="fill: #ffffff;"></path><g><g transform="translate(92,19)"><path d="M0,0H455V303H0Z" style="fill: #ffffff; stroke: #000000; stroke-width: 1;"></path><svg x="0" y="0" overflow="hidden" width="455" height="303" viewBox="0 0 455 303"><g><path d="M28.3,299.0v4.0h4.0v-4.0zM58.7,292.9v4.0h4.0v-4.0zM89.0,282.8v4.0h4.0v-4.0zM119.3,268.7v4.0h4.0v-4.0zM149.7,250.5v4.0h4.0v-4.0zM180.0,250.5v4.0h4.0v-4.0zM180.0,228.3v4.0h4.0v-4.0zM180.0,202.0v4.0h4.0v-4.0zM240.7,171.7v4.0h4.0v-4.0zM271.0,137.4v4.0h4.0v-4.0zM301.3,99.0v4.0h4.0v-4.0z" style="stroke: #0000ff; fill: #0000ff;"></path></g><g><path d="M27.5,298.2l5.6,5.6m0,-5.6l-5.6,5.6M57.9,292.1l5.6,5.6m0,-5.6l-5.6,5.6M88.2,282.0l5.6,5.6m0,-5.6l-5.6,5.6M118.5,267.9l5.6,5.6m0,-5.6l-5.6,5.6M148.9,249.7l5.6,5.6m0,-5.6l-5.6,5.6M179.2,226.1l5.6,5.6m0,-5.6l-5.6,5.6M239.9,170.9l5.6,5.6m0,-5.6l-5.6,5.6M270.2,136.6l5.6,5.6m0,-5.6l-5.6,5.6M300.5,98.2l5.6,5.6m0,-5.6l-5.6,5.6" style="stroke: #ff0000; fill: none;"></path></g><g><path d="M36,300l16,-3l24,-7l21,-8l36,-19l25,-15l15,-12l24,-21l34,-30l21,-22l42,-50l21,-73h79" style="stroke: #000000; stroke-width: 1; fill: none;"></path><path d="M31,300a5,5,0,1,0,10,0a5,5,0,1,0,-10,0zM47,297a5,5,0,1,0,10,0a5,5,0,1,0,-10,0zM71,290a5,5,0,1,0,10,0a5,5,0,1,0,-10,0zM92,282a5,5,0,1,0,10,0a5,5,0,1,0,-10,0zM128,263a5,5,0,1,0,10,0a5,5,0,1,0,-10,0zM153,248a5,5,0,1,0,10,0a5,5,0,1,0,-10,0zM168,236a5,5,0,1,0,10,0a5,5,0,1,0,-10,0zM192,215a5,5,0,1,0,10,0a5,5,0,1,0,-10,0zM226,185a5,5,0,1,0,10,0a5,5,0,1,0,-10,0zM247,163a5,5,0,1,0,10,0a5,5,0,1,0,-10,0zM289,113a5,5,0,1,0,10,0a5,5,0,1,0,-10,0zM310,40a5,5,0,1,0,10,0a5,5,0,1,0,-10,0zM338,40a5,5,0,1,0,10,0a5,5,0,1,0,-10,0zM389,40a5,5,0,1,0,10,0a5,5,0,1,0,-10,0z" style="stroke: #000000; fill: #000000;"></path></g></svg><g><g transform="translate(0,303)"><path d="M0,0h455M0,-303h455M0,-9V0M15,-5V0M30,-5V0M46,-5V0M61,-9V0M76,-5V0M91,-5V0M106,-5V0M121,-9V0M137,-5V0M152,-5V0M167,-5V0M182,-9V0M197,-5V0M212,-5V0M228,-5V0M243,-9V0M258,-5V0M273,-5V0M288,-5V0M303,-9V0M319,-5V0M334,-5V0M349,-5V0M364,-9V0M379,-5V0M394,-5V0M410,-5V0M425,-9V0M440,-5V0M455,-5V0M0,-294V-303M15,-298V-303M30,-298V-303M46,-298V-303M61,-294V-303M76,-298V-303M91,-298V-303M106,-298V-303M121,-294V-303M137,-298V-303M152,-298V-303M167,-298V-303M182,-294V-303M197,-298V-303M212,-298V-303M228,-298V-303M243,-294V-303M258,-298V-303M273,-298V-303M288,-298V-303M303,-294V-303M319,-298V-303M334,-298V-303M349,-298V-303M364,-294V-303M379,-298V-303M394,-298V-303M410,-298V-303M425,-294V-303M440,-298V-303M455,-298V-303" style="stroke: #000000; stroke-width: 1;"></path><g font-family="Arial" font-size="19" space="preserve" fill="#000000" text-anchor="middle"><text dy=".8em" transform="translate(0,2)">0</text><text dy=".8em" transform="translate(61,2)">2</text><text dy=".8em" transform="translate(121,2)">4</text><text dy=".8em" transform="translate(182,2)">6</text><text dy=".8em" transform="translate(243,2)">8</text><text dy=".8em" transform="translate(303,2)">10</text><text dy=".8em" transform="translate(364,2)">12</text><text dy=".8em" transform="translate(425,2)">14</text></g></g><g><path d="M0,0v303M455,0v303M14,303H0M7,293H0M7,283H0M7,273H0M14,263H0M7,253H0M7,242H0M7,232H0M14,222H0M7,212H0M7,202H0M7,192H0M14,182H0M7,172H0M7,162H0M7,152H0M14,141H0M7,131H0M7,121H0M7,111H0M14,101H0M7,91H0M7,81H0M7,71H0M14,61H0M7,50H0M7,40H0M7,30H0M14,20H0M7,10H0M7,0H0M441,303H455M448,293H455M448,283H455M448,273H455M441,263H455M448,253H455M448,242H455M448,232H455M441,222H455M448,212H455M448,202H455M448,192H455M441,182H455M448,172H455M448,162H455M448,152H455M441,141H455M448,131H455M448,121H455M448,111H455M441,101H455M448,91H455M448,81H455M448,71H455M441,61H455M448,50H455M448,40H455M448,30H455M441,20H455M448,10H455M448,0H455" style="stroke: #000000; stroke-width: 1;"></path><g font-family="Arial" font-size="19" space="preserve" fill="#000000" text-anchor="end"><text dy=".4em" transform="translate(-3,303)">0</text><text dy=".4em" transform="translate(-3,263)">20</text><text dy=".4em" transform="translate(-3,222)">40</text><text dy=".4em" transform="translate(-3,182)">60</text><text dy=".4em" transform="translate(-3,141)">80</text><text dy=".4em" transform="translate(-3,101)">100</text><text dy=".4em" transform="translate(-3,61)">120</text><text dy=".4em" transform="translate(-3,20)">140</text></g></g></g></g><g transform="translate(-222,2)" style="display: none;"><path d="M455,2h2v12h-455v-2h453z" style="fill: #000000; stroke: #000000; stroke-width: 1px;"></path><path d="M0,0H455V12H0Z" style="fill: #f2f2f2; stroke: #000000; stroke-width: 1;"></path></g></g></svg><svg viewBox="0 0 576 384" preserveAspectRatio="none" x="12" y="408" width="576" height="384"><path d="M0,0H576V384H0Z" style="fill: #ffffff;"></path><g><g transform="translate(92,19)"><path d="M0,0H455V303H0Z" style="fill: #ffffff; stroke: #000000; stroke-width: 1;"></path><svg x="0" y="0" overflow="hidden" width="455" height="303" viewBox="0 0 455 303"><g><path d="M28.3,299.0v4.0h4.0v-4.0zM58.7,292.9v4.0h4.0v-4.0zM89.0,282.8v4.0h4.0v-4.0zM119.3,268.7v4.0h4.0v-4.0zM149.7,250.5v4.0h4.0v-4.0zM180.0,250.5v4.0h4.0v-4.0zM180.0,228.3v4.0h4.0v-4.0zM180.0,202.0v4.0h4.0v-4.0zM240.7,171.7v4.0h4.0v-4.0zM271.0,137.4v4.0h4.0v-4.0zM301.3,99.0v4.0h4.0v-4.0z" style="stroke: #0000ff; fill: #0000ff;"></path></g><g><path d="M27.5,298.2l5.6,5.6m0,-5.6l-5.6,5.6M57.9,292.1l5.6,5.6m0,-5.6l-5.6,5.6M88.2,282.0l5.6,5.6m0,-5.6l-5.6,5.6M118.5,267.9l5.6,5.6m0,-5.6l-5.6,5.6M148.9,249.7l5.6,5.6m0,-5.6l-5.6,5.6M179.2,249.7l5.6,5.6m0,-5.6l-5.6,5.6M239.9,170.9l5.6,5.6m0,-5.6l-5.6,5.6M270.2,136.6l5.6,5.6m0,-5.6l-5.6,5.6M300.5,98.2l5.6,5.6m0,-5.6l-5.6,5.6" style="stroke: #ff0000; fill: none;"></path></g><g><path d="M30,301l6,-3h22l6,-8h22l6,-12h27l6,-16h22l6,-9h28l5,-40h56l6,-56h22l5,-37h23l5,-19" style="stroke: #000000; stroke-width: 1; fill: none;"></path><path d="M25,301a5,5,0,1,0,10,0a5,5,0,1,0,-10,0zM31,298a5,5,0,1,0,10,0a5,5,0,1,0,-10,0zM36,298a5,5,0,1,0,10,0a5,5,0,1,0,-10,0zM42,298a5,5,0,1,0,10,0a5,5,0,1,0,-10,0zM48,298a5,5,0,1,0,10,0a5,5,0,1,0,-10,0zM53,298a5,5,0,1,0,10,0a5,5,0,1,0,-10,0zM59,290a5,5,0,1,0,10,0a5,5,0,1,0,-10,0zM64,290a5,5,0,1,0,10,0a5,5,0,1,0,-10,0zM70,290a5,5,0,1,0,10,0a5,5,0,1,0,-10,0zM75,290a5,5,0,1,0,10,0a5,5,0,1,0,-10,0zM81,290a5,5,0,1,0,10,0a5,5,0,1,0,-10,0zM87,278a5,5,0,1,0,10,0a5,5,0,1,0,-10,0zM92,278a5,5,0,1,0,10,0a5,5,0,1,0,-10,0zM98,278a5,5,0,1,0,10,0a5,5,0,1,0,-10,0zM103,278a5,5,0,1,0,10,0a5,5,0,1,0,-10,0zM109,278a5,5,0,1,0,10,0a5,5,0,1,0,-10,0zM114,278a5,5,0,1,0,10,0a5,5,0,1,0,-10,0zM120,262a5,5,0,1,0,10,0a5,5,0,1,0,-10,0zM126,262a5,5,0,1,0,10,0a5,5,0,1,0,-10,0zM131,262a5,5,0,1,0,10,0a5,5,0,1,0,-10,0zM137,262a5,5,0,1,0,10,0a5,5,0,1,0,-10,0zM142,262a5,5,0,1,0,10,0a5,5,0,1,0,-10,0zM148,253a5,5,0,1,0,10,0a5,5,0,1,0,-10,0zM153,253a5,5,0,1,0,10,0a5,5,0,1,0,-10,0zM159,253a5,5,0,1,0,10,0a5,5,0,1,0,-10,0zM165,253a5,5,0,1,0,10,0a5,5,0,1,0,-10,0zM170,253a5,5,0,1,0,10,0a5,5,0,1,0,-10,0zM176,253a5,5,0,1,0,10,0a5,5,0,1,0,-10,0zM181,213a5,5,0,1,0,10,0a5,5,0,1,0,-10,0zM187,213a5,5,0,1,0,10,0a5,5,0,1,0,-10,0zM192,213a5,5,0,1,0,10,0a5,5,0,1,0,-10,0zM198,213a5,5,0,1,0,10,0a5,5,0,1,0,-10,0zM204,213a5,5,0,1,0,10,0a5,5,0,1,0,-10,0zM209,213a5,5,0,1,0,10,0a5,5,0,1,0,-10,0zM215,213a5,5,0,1,0,10,0a5,5,0,1,0,-10,0zM220,213a5,5,0,1,0,10,0a5,5,0,1,0,-10,0zM226,213a5,5,0,1,0,10,0a5,5,0,1,0,-10,0zM231,213a5,5,0,1,0,10,0a5,5,0,1,0,-10,0zM237,213a5,5,0,1,0,10,0a5,5,0,1,0,-10,0zM243,157a5,5,0,1,0,10,0a5,5,0,1,0,-10,0zM248,157a5,5,0,1,0,10,0a5,5,0,1,0,-10,0zM254,157a5,5,0,1,0,10,0a5,5,0,1,0,-10,0zM259,157a5,5,0,1,0,10,0a5,5,0,1,0,-10,0zM265,157a5,5,0,1,0,10,0a5,5,0,1,0,-10,0zM270,120a5,5,0,1,0,10,0a5,5,0,1,0,-10,0zM276,120a5,5,0,1,0,10,0a5,5,0,1,0,-10,0zM282,120a5,5,0,1,0,10,0a5,5,0,1,0,-10,0zM287,120a5,5,0,1,0,10,0a5,5,0,1,0,-10,0zM293,120a5,5,0,1,0,10,0a5,5,0,1,0,-10,0zM298,101a5,5,0,1,0,10,0a5,5,0,1,0,-10,0z" style="stroke: #000000; fill: #000000;"></path></g></svg><g><g transform="translate(0,303)"><path d="M0,0h455M0,-303h455M0,-9V0M15,-5V0M30,-5V0M46,-5V0M61,-9V0M76,-5V0M91,-5V0M106,-5V0M121,-9V0M137,-5V0M152,-5V0M167,-5V0M182,-9V0M197,-5V0M212,-5V0M228,-5V0M243,-9V0M258,-5V0M273,-5V0M288,-5V0M303,-9V0M319,-5V0M334,-5V0M349,-5V0M364,-9V0M379,-5V0M394,-5V0M410,-5V0M425,-9V0M440,-5V0M455,-5V0M0,-294V-303M15,-298V-303M30,-298V-303M46,-298V-303M61,-294V-303M76,-298V-303M91,-298V-303M106,-298V-303M121,-294V-303M137,-298V-303M152,-298V-303M167,-298V-303M182,-294V-303M197,-298V-303M212,-298V-303M228,-298V-303M243,-294V-303M258,-298V-303M273,-298V-303M288,-298V-303M303,-294V-303M319,-298V-303M334,-298V-303M349,-298V-303M364,-294V-303M379,-298V-303M394,-298V-303M410,-298V-303M425,-294V-303M440,-298V-303M455,-298V-303" style="stroke: #000000; stroke-width: 1;"></path><g font-family="Arial" font-size="19" space="preserve" fill="#000000" text-anchor="middle"><text dy=".8em" transform="translate(0,2)">0</text><text dy=".8em" transform="translate(61,2)">2</text><text dy=".8em" transform="translate(121,2)">4</text><text dy=".8em" transform="translate(182,2)">6</text><text dy=".8em" transform="translate(243,2)">8</text><text dy=".8em" transform="translate(303,2)">10</text><text dy=".8em" transform="translate(364,2)">12</text><text dy=".8em" transform="translate(425,2)">14</text></g></g><g><path d="M0,0v303M455,0v303M14,303H0M7,293H0M7,283H0M7,273H0M14,263H0M7,253H0M7,242H0M7,232H0M14,222H0M7,212H0M7,202H0M7,192H0M14,182H0M7,172H0M7,162H0M7,152H0M14,141H0M7,131H0M7,121H0M7,111H0M14,101H0M7,91H0M7,81H0M7,71H0M14,61H0M7,50H0M7,40H0M7,30H0M14,20H0M7,10H0M7,0H0M441,303H455M448,293H455M448,283H455M448,273H455M441,263H455M448,253H455M448,242H455M448,232H455M441,222H455M448,212H455M448,202H455M448,192H455M441,182H455M448,172H455M448,162H455M448,152H455M441,141H455M448,131H455M448,121H455M448,111H455M441,101H455M448,91H455M448,81H455M448,71H455M441,61H455M448,50H455M448,40H455M448,30H455M441,20H455M448,10H455M448,0H455" style="stroke: #000000; stroke-width: 1;"></path><g font-family="Arial" font-size="19" space="preserve" fill="#000000" text-anchor="end"><text dy=".4em" transform="translate(-3,303)">0</text><text dy=".4em" transform="translate(-3,263)">20</text><text dy=".4em" transform="translate(-3,222)">40</text><text dy=".4em" transform="translate(-3,182)">60</text><text dy=".4em" transform="translate(-3,141)">80</text><text dy=".4em" transform="translate(-3,101)">100</text><text dy=".4em" transform="translate(-3,61)">120</text><text dy=".4em" transform="translate(-3,20)">140</text></g></g></g></g><g transform="translate(-222,2)" style="display: none;"><path d="M455,2h2v12h-455v-2h453z" style="fill: #000000; stroke: #000000; stroke-width: 1px;"></path><path d="M0,0H455V12H0Z" style="fill: #f2f2f2; stroke: #000000; stroke-width: 1;"></path></g></g></svg><svg viewBox="0 0 576 384" preserveAspectRatio="none" x="612" y="408" width="576" height="384"><path d="M0,0H576V384H0Z" style="fill: #ffffff;"></path><g><g transform="translate(92,19)"><path d="M0,0H455V303H0Z" style="fill: #ffffff; stroke: #000000; stroke-width: 1;"></path><svg x="0" y="0" overflow="hidden" width="455" height="303" viewBox="0 0 455 303"><g><path d="M28.3,299.0v4.0h4.0v-4.0zM58.7,292.9v4.0h4.0v-4.0zM89.0,282.8v4.0h4.0v-4.0zM119.3,268.7v4.0h4.0v-4.0zM149.7,250.5v4.0h4.0v-4.0zM180.0,250.5v4.0h4.0v-4.0zM180.0,228.3v4.0h4.0v-4.0zM180.0,202.0v4.0h4.0v-4.0zM240.7,171.7v4.0h4.0v-4.0zM271.0,137.4v4.0h4.0v-4.0zM301.3,99.0v4.0h4.0v-4.0z" style="stroke: #0000ff; fill: #0000ff;"></path></g><g><path d="M27.5,298.2l5.6,5.6m0,-5.6l-5.6,5.6M57.9,292.1l5.6,5.6m0,-5.6l-5.6,5.6M88.2,282.0l5.6,5.6m0,-5.6l-5.6,5.6M118.5,267.9l5.6,5.6m0,-5.6l-5.6,5.6M148.9,249.7l5.6,5.6m0,-5.6l-5.6,5.6M179.2,201.2l5.6,5.6m0,-5.6l-5.6,5.6M239.9,170.9l5.6,5.6m0,-5.6l-5.6,5.6M270.2,136.6l5.6,5.6m0,-5.6l-5.6,5.6M300.5,98.2l5.6,5.6m0,-5.6l-5.6,5.6" style="stroke: #ff0000; fill: none;"></path></g><g><path d="M36,300l16,-3l24,-7l21,-8l36,-19l25,-20l15,-24l24,-23l34,-16l21,-17l42,-50l21,-12h79" style="stroke: #000000; stroke-width: 1; fill: none;"></path><path d="M31,300a5,5,0,1,0,10,0a5,5,0,1,0,-10,0zM47,297a5,5,0,1,0,10,0a5,5,0,1,0,-10,0zM71,290a5,5,0,1,0,10,0a5,5,0,1,0,-10,0zM92,282a5,5,0,1,0,10,0a5,5,0,1,0,-10,0zM128,263a5,5,0,1,0,10,0a5,5,0,1,0,-10,0zM153,243a5,5,0,1,0,10,0a5,5,0,1,0,-10,0zM168,219a5,5,0,1,0,10,0a5,5,0,1,0,-10,0zM192,196a5,5,0,1,0,10,0a5,5,0,1,0,-10,0zM226,180a5,5,0,1,0,10,0a5,5,0,1,0,-10,0zM247,163a5,5,0,1,0,10,0a5,5,0,1,0,-10,0zM289,113a5,5,0,1,0,10,0a5,5,0,1,0,-10,0zM310,101a5,5,0,1,0,10,0a5,5,0,1,0,-10,0zM338,101a5,5,0,1,0,10,0a5,5,0,1,0,-10,0zM389,101a5,5,0,1,0,10,0a5,5,0,1,0,-10,0z" style="stroke: #000000; fill: #000000;"></path></g></svg><g><g transform="translate(0,303)"><path d="M0,0h455M0,-303h455M0,-9V0M15,-5V0M30,-5V0M46,-5V0M61,-9V0M76,-5V0M91,-5V0M106,-5V0M121,-9V0M137,-5V0M152,-5V0M167,-5V0M182,-9V0M197,-5V0M212,-5V0M228,-5V0M243,-9V0M258,-5V0M273,-5V0M288,-5V0M303,-9V0M319,-5V0M334,-5V0M349,-5V0M364,-9V0M379,-5V0M394,-5V0M410,-5V0M425,-9V0M440,-5V0M455,-5V0M0,-294V-303M15,-298V-303M30,-298V-303M46,-298V-303M61,-294V-303M76,-298V-303M91,-298V-303M106,-298V-303M121,-294V-303M137,-298V-303M152,-298V-303M167,-298V-303M182,-294V-303M197,-298V-303M212,-298V-303M228,-298V-303M243,-294V-303M258,-298V-303M273,-298V-303M288,-298V-303M303,-294V-303M319,-298V-303M334,-298V-303M349,-298V-303M364,-294V-303M379,-298V-303M394,-298V-303M410,-298V-303M425,-294V-303M440,-298V-303M455,-298V-303" style="stroke: #000000; stroke-width: 1;"></path><g font-family="Arial" font-size="19" space="preserve" fill="#000000" text-anchor="middle"><text dy=".8em" transform="translate(0,2)">0</text><text dy=".8em" transform="translate(61,2)">2</text><text dy=".8em" transform="translate(121,2)">4</text><text dy=".8em" transform="translate(182,2)">6</text><text dy=".8em" transform="translate(243,2)">8</text><text dy=".8em" transform="translate(303,2)">10</text><text dy=".8em" transform="translate(364,2)">12</text><text dy=".8em" transform="translate(425,2)">14</text></g></g><g><path d="M0,0v303M455,0v303M14,303H0M7,293H0M7,283H0M7,273H0M14,263H0M7,253H0M7,242H0M7,232H0M14,222H0M7,212H0M7,202H0M7,192H0M14,182H0M7,172H0M7,162H0M7,152H0M14,141H0M7,131H0M7,121H0M7,111H0M14,101H0M7,91H0M7,81H0M7,71H0M14,61H0M7,50H0M7,40H0M7,30H0M14,20H0M7,10H0M7,0H0M441,303H455M448,293H455M448,283H455M448,273H455M441,263H455M448,253H455M448,242H455M448,232H455M441,222H455M448,212H455M448,202H455M448,192H455M441,182H455M448,172H455M448,162H455M448,152H455M441,141H455M448,131H455M448,121H455M448,111H455M441,101H455M448,91H455M448,81H455M448,71H455M441,61H455M448,50H455M448,40H455M448,30H455M441,20H455M448,10H455M448,0H455" style="stroke: #000000; stroke-width: 1;"></path><g font-family="Arial" font-size="19" space="preserve" fill="#000000" text-anchor="end"><text dy=".4em" transform="translate(-3,303)">0</text><text dy=".4em" transform="translate(-3,263)">20</text><text dy=".4em" transform="translate(-3,222)">40</text><text dy=".4em" transform="translate(-3,182)">60</text><text dy=".4em" transform="translate(-3,141)">80</text><text dy=".4em" transform="translate(-3,101)">100</text><text dy=".4em" transform="translate(-3,61)">120</text><text dy=".4em" transform="translate(-3,20)">140</text></g></g></g></g><g transform="translate(-222,2)" style="display: none;"><path d="M455,2h2v12h-455v-2h453z" style="fill: #000000; stroke: #000000; stroke-width: 1px;"></path><path d="M0,0H455V12H0Z" style="fill: #f2f2f2; stroke: #000000; stroke-width: 1;"></path></g></g></svg></g></svg>