<svg xmlns="http://www.w3.org/2000/svg" viewBox="0 0 1200 800" preserveAspectRatio="none" width="1200" height="800"><path d="M0,0H1200V800H0Z" style="fill: #ffffff;"></path><g><svg viewBox="0 0 1176 251" preserveAspectRatio="none" x="12" y="8" width="1176" height="251"><path d="M0,0H1176V251H0Z" style="fill: #ffffff;"></path><g><g transform="translate(188,13)"><path d="M0,0H929V198H0Z" style="fill: #ffffff; stroke: #000000; stroke-width: 1;"></path><svg x="0" y="0" overflow="hidden" width="929" height="198" viewBox="0 0 929 198"><g><path d="M5,191h9h10l9,-1h9h9h10h9h9h10l9,-1h9h9h10l9,-1h9h10h9l9,-1h10l9,-1h9l9,-1h10l9,-1l9,-1l10,-1l9,-2l9,-2l9,-3l10,-5l9,-6l9,-7l10,-7l9,-9l9,-9l9,-10l10,-10l9,-11l9,-12l10,-11l9,-12l9,-11l9,-10l10,-9l9,-9l9,-7l10,-5l9,-4l9,-2h10l9,2l9,4l9,5l10,7l9,9l9,9l10,10l9,11l9,12l9,11l10,12l9,11l9,10l10,10l9,9l9,9l9,7l10,7l9,6l9,5l10,4l9,4l9,3l9,3l10,2l9,1l9,2l10,1l9,1h9l9,1h10h9l9,1h10h9h9h10h9h9h9h10h9h9h10h9h9h9h10" style="fill: none; stroke: #ff0000; stroke-width: 3;"></path></g><g><path d="M5,194h9h10h9h9h9h10l9,-1h9h10h9h9l9,-1h10h9l9,-1h10h9l9,-1h10l9,-1h9l9,-1l10,-1l9,-1l9,-1l10,-2l9,-2l9,-3l9,-3l10,-5l9,-6l9,-7l10,-7l9,-9l9,-9l9,-10l10,-10l9,-11l9,-12l10,-11l9,-12l9,-11l9,-10l10,-9l9,-9l9,-7l10,-5l9,-4l9,-2h10l9,2l9,4l9,5l10,7l9,9l9,9l10,10l9,11l9,12l9,11l10,12l9,11l9,10l10,10l9,9l9,9l9,7l10,7l9,6l9,5l10,4l9,4l9,3l9,3l10,2l9,1l9,2l10,1l9,1h9l9,1h10h9l9,1h10h9h9h10h9h9h9h10h9h9h10h9h9h9h10" style="fill: none; stroke: #00ff00; stroke-width: 3;"></path></g><g><path d="M5,196h9h10h9h9h9h10h9l9,-1h10h9h9h9l10,-1h9h9l10,-1h9l9,-1h10l9,-1h9l9,-1l10,-1l9,-2l9,-1l10,-2l9,-2l9,-3l9,-4l10,-5l9,-6l9,-7l10,-7l9,-9l9,-9l9,-10l10,-10l9,-11l9,-12l10,-11l9,-12l9,-11l9,-10l10,-9l9,-9l9,-7l10,-5l9,-4l9,-2h10l9,2l9,4l9,5l10,7l9,9l9,9l10,10l9,11l9,12l9,11l10,12l9,11l9,10l10,10l9,9l9,9l9,7l10,7l9,6l9,5l10,4l9,4l9,3l9,3l10,2l9,1l9,2l10,1l9,1h9l9,1h10h9l9,1h10h9h9h10h9h9h9h10h9h9h10h9h9h9h10" style="fill: none; stroke: #0000ff; stroke-width: 3;"></path></g></svg><g><g transform="translate(0,198)"><path d="M0,0h929M0,-198h929M0,-6V0M19,-3V0M37,-3V0M56,-3V0M74,-3V0M93,-6V0M111,-3V0M130,-3V0M149,-3V0M167,-3V0M186,-6V0M204,-3V0M223,-3V0M242,-3V0M260,-3V0M279,-6V0M297,-3V0M316,-3V0M334,-3V0M353,-3V0M372,-6V0M390,-3V0M409,-3V0M427,-3V0M446,-3V0M465,-6V0M483,-3V0M502,-3V0M520,-3V0M539,-3V0M557,-6V0M576,-3V0M595,-3V0M613,-3V0M632,-3V0M650,-6V0M669,-3V0M687,-3V0M706,-3V0M725,-3V0M743,-6V0M762,-3V0M780,-3V0M799,-3V0M818,-3V0M836,-6V0M855,-3V0M873,-3V0M892,-3V0M910,-3V0M929,-6V0M0,-192V-198M19,-195V-198M37,-195V-198M56,-195V-198M74,-195V-198M93,-192V-198M111,-195V-198M130,-195V-198M149,-195V-198M167,-195V-198M186,-192V-198M204,-195V-198M223,-195V-198M242,-195V-198M260,-195V-198M279,-192V-198M297,-195V-198M316,-195V-198M334,-195V-198M353,-195V-198M372,-192V-198M390,-195V-198M409,-195V-198M427,-195V-198M446,-195V-198M465,-192V-198M483,-195V-198M502,-195V-198M520,-195V-198M539,-195V-198M557,-192V-198M576,-195V-198M595,-195V-198M613,-195V-198M632,-195V-198M650,-192V-198M669,-195V-198M687,-195V-198M706,-195V-198M725,-195V-198M743,-192V-198M762,-195V-198M780,-195V-198M799,-195V-198M818,-195V-198M836,-192V-198M855,-195V-198M873,-195V-198M892,-195V-198M910,-195V-198M929,-192V-198" style="stroke: #000000; stroke-width: 1;"></path><g font-family="Arial" font-size="13" space="preserve" fill="#000000" text-anchor="middle"><text dy=".8em" transform="translate(0,2)">-5</text><text dy=".8em" transform="translate(93,2)">-4</text><text dy=".8em" transform="translate(186,2)">-3</text><text dy=".8em" transform="translate(279,2)">-2</text><text dy=".8em" transform="translate(372,2)">-1</text><text dy=".8em" transform="translate(465,2)">0</text><text dy=".8em" transform="translate(557,2)">1</text><text dy=".8em" transform="translate(650,2)">2</text><text dy=".8em" transform="translate(743,2)">3</text><text dy=".8em" transform="translate(836,2)">4</text><text dy=".8em" transform="translate(929,2)">5</text></g></g><g><path d="M0,0v198M929,0v198M28,198H0M14,194H0M14,190H0M14,187H0M14,183H0M28,179H0M14,175H0M14,172H0M14,168H0M14,164H0M28,160H0M14,156H0M14,153H0M14,149H0M14,145H0M28,141H0M14,138H0M14,134H0M14,130H0M14,126H0M28,122H0M14,119H0M14,115H0M14,111H0M14,107H0M28,104H0M14,100H0M14,96H0M14,92H0M14,88H0M28,85H0M14,81H0M14,77H0M14,73H0M14,70H0M28,66H0M14,62H0M14,58H0M14,55H0M14,51H0M28,47H0M14,43H0M14,39H0M14,36H0M14,32H0M28,28H0M14,24H0M14,21H0M14,17H0M14,13H0M28,9H0M14,5H0M14,2H0M901,198H929M915,194H929M915,190H929M915,187H929M915,183H929M901,179H929M915,175H929M915,172H929M915,168H929M915,164H929M901,160H929M915,156H929M915,153H929M915,149H929M915,145H929M901,141H929M915,138H929M915,134H929M915,130H929M915,126H929M901,122H929M915,119H929M915,115H929M915,111H929M915,107H929M901,104H929M915,100H929M915,96H929M915,92H929M915,88H929M901,85H929M915,81H929M915,77H929M915,73H929M915,70H929M901,66H929M915,62H929M915,58H929M915,55H929M915,51H929M901,47H929M915,43H929M915,39H929M915,36H929M915,32H929M901,28H929M915,24H929M915,21H929M915,17H929M915,13H929M901,9H929M915,5H929M915,2H929" style="stroke: #000000; stroke-width: 1;"></path><g font-family="Arial" font-size="13" space="preserve" fill="#000000" text-anchor="end"><text dy=".4em" transform="translate(-2,198)">0</text><text dy=".4em" transform="translate(-2,179)">0.1</text><text dy=".4em" transform="translate(-2,160)">0.2</text><text dy=".4em" transform="translate(-2,141)">0.3</text><text dy=".4em" transform="translate(-2,122)">0.4</text><text dy=".4em" transform="translate(-2,104)">0.5</text><text dy=".4em" transform="translate(-2,85)">0.6</text><text dy=".4em" transform="translate(-2,66)">0.7</text><text dy=".4em" transform="translate(-2,47)">0.8</text><text dy=".4em" transform="translate(-2,28)">0.9</text><text dy=".4em" transform="translate(-2,9)">1</text></g></g></g></g><g transform="translate(-453,1)" style="display: none;"><path d="M929,2h2v8h-929v-2h927z" style="fill: #000000; stroke: #000000; stroke-width: 1px;"></path><path d="M0,0H929V8H0Z" style="fill: #f2f2f2; stroke: #000000; stroke-width: 1;"></path></g><g transform="translate(823)" font-family="Arial" font-size="20" space="preserve" font-weight="bold"><path d="M235,4h4v100h-235v-4h231z" style="fill: #000000; stroke: #000000; stroke-width: 1px;"></path><path d="M0,0H235V100H0Z" style="fill: #ffffff; stroke: #000000; stroke-width: 1;"></path><path d="M7,19H52" style="stroke: #ff0000; stroke-width: 3;"></path><text fill="#000000" text-anchor="start" dy=".4em" transform="translate(59,19)">N=0.5 alpha=2</text><path d="M7,50H52" style="stroke: #00ff00; stroke-width: 3;"></path><text fill="#000000" text-anchor="start" dy=".4em" transform="translate(59,50)">N=1   alpha=2</text><path d="M7,81H52" style="stroke: #0000ff; stroke-width: 3;"></path><text fill="#000000" text-anchor="start" dy=".4em" transform="translate(59,82)">N=2   alpha=2</text></g></g></svg><svg viewBox="0 0 1176 251" preserveAspectRatio="none" x="12" y="274" width="1176" height="251"><path d="M0,0H1176V251H0Z" style="fill: #ffffff;"></path><g><g transform="translate(188,13)"><path d="M0,0H929V198H0Z" style="fill: #ffffff; stroke: #000000; stroke-width: 1;"></path><svg x="0" y="0" overflow="hidden" width="929" height="198" viewBox="0 0 929 198"><g><path d="M5,197h9h10h9h9h9l10,-1h9h9h10h9h9l9,-1h10h9h9l10,-1h9l9,-1h10l9,-1l9,-1l9,-1l10,-1l9,-1l9,-2l10,-2l9,-2l9,-3l9,-4l10,-5l9,-6l9,-7l10,-7l9,-9l9,-9l9,-10l10,-10l9,-11l9,-12l10,-11l9,-12l9,-11l9,-10l10,-9l9,-9l9,-7l10,-5l9,-4l9,-2h10l9,2l9,4l9,5l10,7l9,9l9,9l10,10l9,11l9,12l9,11l10,12l9,11l9,10l10,10l9,9l9,9l9,7l10,7l9,6l9,5l10,4l9,4l9,3l9,3l10,2l9,1l9,2l10,1l9,1h9l9,1h10h9l9,1h10h9h9h10h9h9h9h10h9h9h10h9h9h9h10" style="fill: none; stroke: #000000; stroke-width: 3;"></path></g><g><path d="M5,198h9h10h9h9h9h10h9h9h10h9h9h9h10h9h9h10l9,-1h9h10h9h9l9,-1h10l9,-1l9,-1l10,-1l9,-2l9,-1l9,-2l10,-3l9,-2l9,-3l10,-3l9,-4l9,-4l9,-5l10,-4l9,-5l9,-5l10,-5l9,-5l9,-5l9,-5l10,-4l9,-4l9,-3l10,-2l9,-2l9,-1h10l9,1l9,2l9,2l10,3l9,4l9,4l10,5l9,5l9,5l9,5l10,5l9,5l9,4l10,5l9,4l9,4l9,3l10,3l9,2l9,3l10,2l9,1l9,2l9,1l10,1l9,1h9l10,1h9h9h9l10,1h9h9h10h9h9h10h9h9h9h10h9h9h10h9h9h9h10" style="fill: none; stroke: #0000ff; stroke-width: 3;"></path></g><g><path d="M5,197h9h10h9h9h9h10h9h9h10h9l9,-1h9h10h9h9h10h9l9,-1h10h9l9,-1h9l10,-1h9l9,-1l10,-1l9,-1l9,-2l9,-1l10,-3l9,-3l9,-3l10,-4l9,-4l9,-5l9,-4l10,-6l9,-5l9,-6l10,-5l9,-6l9,-5l9,-5l10,-5l9,-4l9,-4l10,-2l9,-2l9,-1h10l9,1l9,2l9,2l10,4l9,4l9,5l10,5l9,5l9,6l9,5l10,6l9,5l9,6l10,4l9,5l9,4l9,4l10,3l9,3l9,3l10,2l9,2l9,1l9,1l10,1l9,1l9,1h10l9,1h9h9l10,1h9h9h10h9h9h10h9h9h9h10h9h9h10h9h9h9h10" style="fill: none; stroke: #00ff00; stroke-width: 3;"></path></g></svg><g><g transform="translate(0,198)"><path d="M0,0h929M0,-198h929M0,-6V0M19,-3V0M37,-3V0M56,-3V0M74,-3V0M93,-6V0M111,-3V0M130,-3V0M149,-3V0M167,-3V0M186,-6V0M204,-3V0M223,-3V0M242,-3V0M260,-3V0M279,-6V0M297,-3V0M316,-3V0M334,-3V0M353,-3V0M372,-6V0M390,-3V0M409,-3V0M427,-3V0M446,-3V0M465,-6V0M483,-3V0M502,-3V0M520,-3V0M539,-3V0M557,-6V0M576,-3V0M595,-3V0M613,-3V0M632,-3V0M650,-6V0M669,-3V0M687,-3V0M706,-3V0M725,-3V0M743,-6V0M762,-3V0M780,-3V0M799,-3V0M818,-3V0M836,-6V0M855,-3V0M873,-3V0M892,-3V0M910,-3V0M929,-6V0M0,-192V-198M19,-195V-198M37,-195V-198M56,-195V-198M74,-195V-198M93,-192V-198M111,-195V-198M130,-195V-198M149,-195V-198M167,-195V-198M186,-192V-198M204,-195V-198M223,-195V-198M242,-195V-198M260,-195V-198M279,-192V-198M297,-195V-198M316,-195V-198M334,-195V-198M353,-195V-198M372,-192V-198M390,-195V-198M409,-195V-198M427,-195V-198M446,-195V-198M465,-192V-198M483,-195V-198M502,-195V-198M520,-195V-198M539,-195V-198M557,-192V-198M576,-195V-198M595,-195V-198M613,-195V-198M632,-195V-198M650,-192V-198M669,-195V-198M687,-195V-198M706,-195V-198M725,-195V-198M743,-192V-198M762,-195V-198M780,-195V-198M799,-195V-198M818,-195V-198M836,-192V-198M855,-195V-198M873,-195V-198M892,-195V-198M910,-195V-198M929,-192V-198" style="stroke: #000000; stroke-width: 1;"></path><g font-family="Arial" font-size="13" space="preserve" fill="#000000" text-anchor="middle"><text dy=".8em" transform="translate(0,2)">-5</text><text dy=".8em" transform="translate(93,2)">-4</text><text dy=".8em" transform="translate(186,2)">-3</text><text dy=".8em" transform="translate(279,2)">-2</text><text dy=".8em" transform="translate(372,2)">-1</text><text dy=".8em" transform="translate(465,2)">0</text><text dy=".8em" transform="translate(557,2)">1</text><text dy=".8em" transform="translate(650,2)">2</text><text dy=".8em" transform="translate(743,2)">3</text><text dy=".8em" transform="translate(836,2)">4</text><text dy=".8em" transform="translate(929,2)">5</text></g></g><g><path d="M0,0v198M929,0v198M28,198H0M14,193H0M14,188H0M14,184H0M14,179H0M28,174H0M14,169H0M14,164H0M14,159H0M14,155H0M28,150H0M14,145H0M14,140H0M14,135H0M14,131H0M28,126H0M14,121H0M14,116H0M14,111H0M14,106H0M28,102H0M14,97H0M14,92H0M14,87H0M14,82H0M28,78H0M14,73H0M14,68H0M14,63H0M14,58H0M28,53H0M14,49H0M14,44H0M14,39H0M14,34H0M28,29H0M14,25H0M14,20H0M14,15H0M14,10H0M28,5H0M14,1H0M901,198H929M915,193H929M915,188H929M915,184H929M915,179H929M901,174H929M915,169H929M915,164H929M915,159H929M915,155H929M901,150H929M915,145H929M915,140H929M915,135H929M915,131H929M901,126H929M915,121H929M915,116H929M915,111H929M915,106H929M901,102H929M915,97H929M915,92H929M915,87H929M915,82H929M901,78H929M915,73H929M915,68H929M915,63H929M915,58H929M901,53H929M915,49H929M915,44H929M915,39H929M915,34H929M901,29H929M915,25H929M915,20H929M915,15H929M915,10H929M901,5H929M915,1H929" style="stroke: #000000; stroke-width: 1;"></path><g font-family="Arial" font-size="13" space="preserve" fill="#000000" text-anchor="end"><text dy=".4em" transform="translate(-2,198)">0</text><text dy=".4em" transform="translate(-2,174)">0.1</text><text dy=".4em" transform="translate(-2,150)">0.2</text><text dy=".4em" transform="translate(-2,126)">0.3</text><text dy=".4em" transform="translate(-2,102)">0.4</text><text dy=".4em" transform="translate(-2,78)">0.5</text><text dy=".4em" transform="translate(-2,53)">0.6</text><text dy=".4em" transform="translate(-2,29)">0.7</text><text dy=".4em" transform="translate(-2,5)">0.8</text></g></g></g></g><g transform="translate(-453,1)" style="display: none;"><path d="M929,2h2v8h-929v-2h927z" style="fill: #000000; stroke: #000000; stroke-width: 1px;"></path><path d="M0,0H929V8H0Z" style="fill: #f2f2f2; stroke: #000000; stroke-width: 1;"></path></g><g transform="translate(823)" font-family="Arial" font-size="19" space="preserve" font-weight="bold"><path d="M235,4h4v100h-235v-4h231z" style="fill: #000000; stroke: #000000; stroke-width: 1px;"></path><path d="M0,0H235V100H0Z" style="fill: #ffffff; stroke: #000000; stroke-width: 1;"></path><path d="M7,19H52" style="stroke: #000000; stroke-width: 3;"></path><text fill="#000000" text-anchor="start" dy=".4em" transform="translate(59,19)">N=3    alpha=2</text><path d="M7,50H52" style="stroke: #0000ff; stroke-width: 3;"></path><text fill="#000000" text-anchor="start" dy=".4em" transform="translate(59,50)">N=1.01 alpha=3</text><path d="M7,81H52" style="stroke: #00ff00; stroke-width: 3;"></path><text fill="#000000" text-anchor="start" dy=".4em" transform="translate(59,82)">N=2    alpha=3</text></g></g></svg><svg viewBox="0 0 1176 251" preserveAspectRatio="none" x="12" y="541" width="1176" height="251"><path d="M0,0H1176V251H0Z" style="fill: #ffffff;"></path><g><g transform="translate(188,13)"><path d="M0,0H929V198H0Z" style="fill: #ffffff; stroke: #000000; stroke-width: 1;"></path><svg x="0" y="0" overflow="hidden" width="929" height="198" viewBox="0 0 929 198"><g><path d="M5,182l9,-1h10h9l9,-1h9h10l9,-1h9l10,-1h9h9l9,-1h10l9,-1l9,-1h10l9,-1h9l10,-1l9,-1l9,-1h9l10,-1l9,-1l9,-1l10,-1l9,-2l9,-1l9,-1l10,-2l9,-1l9,-2l10,-2l9,-2l9,-2l9,-3l10,-2l9,-4l9,-3l10,-4l9,-5l9,-4l9,-5l10,-6l9,-6l9,-6l10,-6l9,-6l9,-7l10,-6l9,-7l9,-6l9,-7l10,-6l9,-5l9,-6l10,-5l9,-5l9,-4l9,-4l10,-4l9,-3l9,-2l10,-3l9,-2l9,-2l9,-1l10,-2l9,-1l9,-1h10l9,-1h9l9,-1h10h9l9,-1h10h9h9h9h10h9h9h10h9h9h10h9h9h9h10h9h9h10h9h9h9h10" style="fill: none; stroke: #cc3333; stroke-width: 3;"></path></g><g><path d="M5,16l9,1h10h9l9,1h9h10l9,1h9l10,1h9h9l9,1h10l9,1l9,1h10l9,1h9l10,1l9,1l9,1h9l10,1l9,1l9,1l10,1l9,2l9,1l9,1l10,2l9,1l9,2l10,2l9,2l9,2l9,3l10,2l9,4l9,3l10,4l9,5l9,4l9,5l10,6l9,6l9,6l10,6l9,6l9,7l10,6l9,7l9,6l9,7l10,6l9,5l9,6l10,5l9,5l9,4l9,4l10,4l9,3l9,2l10,3l9,2l9,2l9,1l10,2l9,1l9,1h10l9,1h9l9,1h10h9l9,1h10h9h9h9h10h9h9h10h9h9h10h9h9h9h10h9h9h10h9h9h9h10" style="fill: none; stroke: #ff00ff; stroke-width: 3;"></path></g></svg><g><g transform="translate(0,198)"><path d="M0,0h929M0,-198h929M0,-6V0M19,-3V0M37,-3V0M56,-3V0M74,-3V0M93,-6V0M111,-3V0M130,-3V0M149,-3V0M167,-3V0M186,-6V0M204,-3V0M223,-3V0M242,-3V0M260,-3V0M279,-6V0M297,-3V0M316,-3V0M334,-3V0M353,-3V0M372,-6V0M390,-3V0M409,-3V0M427,-3V0M446,-3V0M465,-6V0M483,-3V0M502,-3V0M520,-3V0M539,-3V0M557,-6V0M576,-3V0M595,-3V0M613,-3V0M632,-3V0M650,-6V0M669,-3V0M687,-3V0M706,-3V0M725,-3V0M743,-6V0M762,-3V0M780,-3V0M799,-3V0M818,-3V0M836,-6V0M855,-3V0M873,-3V0M892,-3V0M910,-3V0M929,-6V0M0,-192V-198M19,-195V-198M37,-195V-198M56,-195V-198M74,-195V-198M93,-192V-198M111,-195V-198M130,-195V-198M149,-195V-198M167,-195V-198M186,-192V-198M204,-195V-198M223,-195V-198M242,-195V-198M260,-195V-198M279,-192V-198M297,-195V-198M316,-195V-198M334,-195V-198M353,-195V-198M372,-192V-198M390,-195V-198M409,-195V-198M427,-195V-198M446,-195V-198M465,-192V-198M483,-195V-198M502,-195V-198M520,-195V-198M539,-195V-198M557,-192V-198M576,-195V-198M595,-195V-198M613,-195V-198M632,-195V-198M650,-192V-198M669,-195V-198M687,-195V-198M706,-195V-198M725,-195V-198M743,-192V-198M762,-195V-198M780,-195V-198M799,-195V-198M818,-195V-198M836,-192V-198M855,-195V-198M873,-195V-198M892,-195V-198M910,-195V-198M929,-192V-198" style="stroke: #000000; stroke-width: 1;"></path><g font-family="Arial" font-size="13" space="preserve" fill="#000000" text-anchor="middle"><text dy=".8em" transform="translate(0,2)">-5</text><text dy=".8em" transform="translate(93,2)">-4</text><text dy=".8em" transform="translate(186,2)">-3</text><text dy=".8em" transform="translate(279,2)">-2</text><text dy=".8em" transform="translate(372,2)">-1</text><text dy=".8em" transform="translate(465,2)">0</text><text dy=".8em" transform="translate(557,2)">1</text><text dy=".8em" transform="translate(650,2)">2</text><text dy=".8em" transform="translate(743,2)">3</text><text dy=".8em" transform="translate(836,2)">4</text><text dy=".8em" transform="translate(929,2)">5</text></g></g><g><path d="M0,0v198M929,0v198M28,198H0M14,194H0M14,190H0M14,186H0M14,182H0M28,178H0M14,174H0M14,170H0M14,166H0M14,162H0M28,158H0M14,154H0M14,150H0M14,147H0M14,143H0M28,139H0M14,135H0M14,131H0M14,127H0M14,123H0M28,119H0M14,115H0M14,111H0M14,107H0M14,103H0M28,99H0M14,95H0M14,91H0M14,87H0M14,83H0M28,79H0M14,75H0M14,71H0M14,67H0M14,63H0M28,59H0M14,55H0M14,51H0M14,48H0M14,44H0M28,40H0M14,36H0M14,32H0M14,28H0M14,24H0M28,20H0M14,16H0M14,12H0M14,8H0M14,4H0M28,0H0M901,198H929M915,194H929M915,190H929M915,186H929M915,182H929M901,178H929M915,174H929M915,170H929M915,166H929M915,162H929M901,158H929M915,154H929M915,150H929M915,147H929M915,143H929M901,139H929M915,135H929M915,131H929M915,127H929M915,123H929M901,119H929M915,115H929M915,111H929M915,107H929M915,103H929M901,99H929M915,95H929M915,91H929M915,87H929M915,83H929M901,79H929M915,75H929M915,71H929M915,67H929M915,63H929M901,59H929M915,55H929M915,51H929M915,48H929M915,44H929M901,40H929M915,36H929M915,32H929M915,28H929M915,24H929M901,20H929M915,16H929M915,12H929M915,8H929M915,4H929M901,0H929" style="stroke: #000000; stroke-width: 1;"></path><g font-family="Arial" font-size="13" space="preserve" fill="#000000" text-anchor="end"><text dy=".4em" transform="translate(-2,198)">0</text><text dy=".4em" transform="translate(-2,178)">0.1</text><text dy=".4em" transform="translate(-2,158)">0.2</text><text dy=".4em" transform="translate(-2,139)">0.3</text><text dy=".4em" transform="translate(-2,119)">0.4</text><text dy=".4em" transform="translate(-2,99)">0.5</text><text dy=".4em" transform="translate(-2,79)">0.6</text><text dy=".4em" transform="translate(-2,59)">0.7</text><text dy=".4em" transform="translate(-2,40)">0.8</text><text dy=".4em" transform="translate(-2,20)">0.9</text><text dy=".4em" transform="translate(-2)">1</text></g></g></g></g><g transform="translate(-453,1)" style="display: none;"><path d="M929,2h2v8h-929v-2h927z" style="fill: #000000; stroke: #000000; stroke-width: 1px;"></path><path d="M0,0H929V8H0Z" style="fill: #f2f2f2; stroke: #000000; stroke-width: 1;"></path></g><g transform="translate(823)" font-family="Arial" font-size="20" space="preserve" font-weight="bold"><path d="M235,4h4v75h-235v-4h231z" style="fill: #000000; stroke: #000000; stroke-width: 1px;"></path><path d="M0,0H235V75H0Z" style="fill: #ffffff; stroke: #000000; stroke-width: 1;"></path><path d="M7,20H52" style="stroke: #cc3333; stroke-width: 3;"></path><text fill="#000000" text-anchor="start" dy=".4em" transform="translate(59,20)">N=1.2 alpha=2</text><path d="M7,55H52" style="stroke: #ff00ff; stroke-width: 3;"></path><text fill="#000000" text-anchor="start" dy=".4em" transform="translate(59,56)">N=1.2 alpha=2</text></g></g></svg></g></svg>