<svg xmlns="http://www.w3.org/2000/svg" viewBox="0 0 1200 800" preserveAspectRatio="none" width="1200" height="800"><defs><pattern id="pat_3005_0" patternUnits="userSpaceOnUse" width="8" height="8"><path d="M0,0L8,8" style="stroke: #ffffff; stroke-width: 1;"></path></pattern><pattern id="pat_3004_9" patternUnits="userSpaceOnUse" width="8" height="8"><path d="M8,0L0,8" style="stroke: #5954d8; stroke-width: 1;"></path></pattern><pattern id="pat_3002_2" patternUnits="userSpaceOnUse" width="4" height="2"><path d="M1,0h1v1h-1zM3,1h1v1h-1z" style="fill: #ff0000;"></path></pattern></defs><path d="M0,0H1200V800H0Z" style="fill: #ffffff;"></path><g><g transform="translate(192,40)"><path d="M0,0H948V632H0Z" style="fill: #ffffff; stroke: #000000; stroke-width: 1;"></path><svg x="0" y="0" overflow="hidden" width="948" height="632" viewBox="0 0 948 632"><g><path d="M43.09,316.12C47.5,310.38,56.35,298.85,65.19,287.43S78.45,270.28,87.29,259.03S100.55,242.16,109.38,231.19S122.64,214.78,131.48,204.21S144.74,188.41,153.58,178.34S166.84,163.32,175.68,153.85S188.94,139.76,197.78,130.98S211.03,117.95,219.87,109.96S233.13,98.13,241.97,91S255.23,80.49,264.07,74.29S277.33,65.2,286.17,59.99S299.43,52.42,308.27,48.26S321.52,42.27,330.36,39.2S343.62,34.86,352.46,32.91S365.72,30.26,374.56,29.45S387.82,28.51,396.66,28.85S409.92,29.64,418.76,31.12S432.01,33.64,440.85,36.24S454.11,40.45,462.95,44.16S476.21,50.02,485.05,54.79S498.31,62.25,507.15,68.04S520.41,77.01,529.24,83.76S542.5,94.16,551.34,101.81S564.6,113.54,573.44,122S586.7,134.93,595.54,144.13S608.8,158.14,617.64,167.97S630.9,182.92,639.73,193.3S652.99,209.04,661.83,219.85S675.09,236.22,683.93,247.36S697.19,264.2,706.03,275.57S719.29,292.71,728.13,304.17S741.38,321.44,750.22,332.9S763.48,350.13,772.32,361.46S789.98,383.96,794.42,389.57L853.2,342.98C848.83,337.47,840.18,326.51,831.46,315.33S818.39,298.48,809.61,287.09S796.4,269.9,787.53,258.39S774.19,241.04,765.22,229.51S751.75,212.18,742.69,200.76S729.07,183.6,719.9,172.38S706.12,155.57,696.83,144.66S682.86,128.34,673.42,117.84S659.23,102.15,649.61,92.15S635.15,77.24,625.31,67.82S610.52,53.82,600.41,45.09S585.21,32.13,574.78,24.17S559.08,12.39,548.26,5.32S531.96,-5.13,520.7,-11.19S503.7,-20.09,491.98,-24.99S474.24,-32.12,462.07,-35.69S443.65,-40.77,431.13,-42.85S412.18,-45.62,399.5,-46.1S380.34,-46.39,367.7,-45.24S348.69,-43.05,336.3,-40.33S317.75,-35.79,305.76,-31.65S287.87,-25.01,276.34,-19.61S259.18,-11.13,248.11,-4.63S231.65,5.44,221,12.89S205.16,24.35,194.87,32.64S179.55,45.31,169.56,54.34S154.67,68.09,144.93,77.76S130.39,92.46,120.84,102.68S106.59,118.18,97.21,128.87S83.19,145.05,73.95,156.1S60.12,172.8,51,184.12S37.34,201.21,28.32,212.69S14.83,229.96,5.88,241.52S-11.99,264.7,-16.44,270.5Z" style="fill: url(#pat_3005_0); opacity: 0.75;"></path><path d="M43.09,316.12C47.5,310.38,56.35,298.85,65.19,287.43S78.45,270.28,87.29,259.03S100.55,242.16,109.38,231.19S122.64,214.78,131.48,204.21S144.74,188.41,153.58,178.34S166.84,163.32,175.68,153.85S188.94,139.76,197.78,130.98S211.03,117.95,219.87,109.96S233.13,98.13,241.97,91S255.23,80.49,264.07,74.29S277.33,65.2,286.17,59.99S299.43,52.42,308.27,48.26S321.52,42.27,330.36,39.2S343.62,34.86,352.46,32.91S365.72,30.26,374.56,29.45S387.82,28.51,396.66,28.85S409.92,29.64,418.76,31.12S432.01,33.64,440.85,36.24S454.11,40.45,462.95,44.16S476.21,50.02,485.05,54.79S498.31,62.25,507.15,68.04S520.41,77.01,529.24,83.76S542.5,94.16,551.34,101.81S564.6,113.54,573.44,122S586.7,134.93,595.54,144.13S608.8,158.14,617.64,167.97S630.9,182.92,639.73,193.3S652.99,209.04,661.83,219.85S675.09,236.22,683.93,247.36S697.19,264.2,706.03,275.57S719.29,292.71,728.13,304.17S741.38,321.44,750.22,332.9S763.48,350.13,772.32,361.46S789.98,383.96,794.42,389.57" style="stroke: #ff0000; stroke-width: 4; fill: none;"></path></g><g><path d="M43.09,28.73C47.52,28.73,56.35,29.02,65.19,30.16S78.45,32.18,87.29,34.46S100.55,38.17,109.38,41.56S122.64,46.94,131.48,51.41S144.74,58.41,153.58,63.91S166.84,72.45,175.68,78.93S188.94,88.92,197.78,96.31S211.03,107.66,219.87,115.89S233.13,128.49,241.97,137.48S255.23,151.19,264.07,160.84S277.33,175.53,286.17,185.76S299.43,201.29,308.27,211.98S321.52,228.19,330.36,239.25S343.62,255.97,352.46,267.28S365.72,284.35,374.56,295.79S387.82,313.04,396.66,324.52S409.92,341.77,418.76,353.15S432.01,370.24,440.85,381.42S454.11,398.18,462.95,409.04S476.21,425.29,485.05,435.72S498.31,451.31,507.15,461.22S520.41,475.98,529.24,485.26S542.5,499.05,551.34,507.61S564.6,520.3,573.44,528.05S586.7,539.5,595.54,546.37S608.8,556.48,617.64,562.39S630.9,571.05,639.73,575.95S652.99,583.07,661.83,586.92S675.09,592.43,683.93,595.17S697.19,599.03,706.03,600.65S719.29,602.8,728.13,603.27S741.38,603.7,750.22,603.03S763.48,601.73,772.32,599.92S790.08,595.43,794.42,593.98L827.8,693.53C821.04,695.8,807.32,699.95,793.39,702.79S772.34,706.66,758.16,707.73S736.68,708.88,722.47,708.12S701.04,706.46,687.1,703.93S666.21,699.59,652.78,695.45S632.75,688.74,619.95,683.2S600.93,674.47,588.79,667.76S570.77,657.35,559.23,649.65S542.12,637.81,531.11,629.28S514.77,616.24,504.21,606.99S488.5,592.91,478.3,583.05S463.12,568.07,453.22,557.68S438.46,541.94,428.8,531.12S414.38,514.75,404.93,503.59S390.8,486.72,381.51,475.32S367.63,458.11,358.5,446.55S344.83,429.15,335.83,417.56S322.36,400.12,313.48,388.6S300.2,371.3,291.45,359.96S278.35,342.97,269.73,331.93S256.83,315.42,248.34,304.8S235.65,288.95,227.32,278.87S214.87,263.84,206.72,254.42S194.54,240.4,186.62,231.74S174.76,218.89,167.1,211.09S155.65,199.58,148.31,192.73S137.35,182.67,130.41,176.85S120.06,168.37,113.6,163.61S103.99,156.75,98.09,153.05S89.37,147.81,84.1,145.12S76.38,141.39,71.77,139.59S65.08,137.19,61.06,136.13S55.3,134.77,51.69,134.29S44.74,133.72,43,133.73Z" style="fill: url(#pat_3004_9); opacity: 0.75;"></path><path d="M43.09,28.73C47.52,28.73,56.35,29.02,65.19,30.16S78.45,32.18,87.29,34.46S100.55,38.17,109.38,41.56S122.64,46.94,131.48,51.41S144.74,58.41,153.58,63.91S166.84,72.45,175.68,78.93S188.94,88.92,197.78,96.31S211.03,107.66,219.87,115.89S233.13,128.49,241.97,137.48S255.23,151.19,264.07,160.84S277.33,175.53,286.17,185.76S299.43,201.29,308.27,211.98S321.52,228.19,330.36,239.25S343.62,255.97,352.46,267.28S365.72,284.35,374.56,295.79S387.82,313.04,396.66,324.52S409.92,341.77,418.76,353.15S432.01,370.24,440.85,381.42S454.11,398.18,462.95,409.04S476.21,425.29,485.05,435.72S498.31,451.31,507.15,461.22S520.41,475.98,529.24,485.26S542.5,499.05,551.34,507.61S564.6,520.3,573.44,528.05S586.7,539.5,595.54,546.37S608.8,556.48,617.64,562.39S630.9,571.05,639.73,575.95S652.99,583.07,661.83,586.92S675.09,592.43,683.93,595.17S697.19,599.03,706.03,600.65S719.29,602.8,728.13,603.27S741.38,603.7,750.22,603.03S763.48,601.73,772.32,599.92S790.08,595.43,794.42,593.98" style="stroke: #0000ff; stroke-width: 2; fill: none;"></path></g><g><path d="M153.58,373.6C157.99,367.85,166.84,356.33,175.68,344.91S188.94,327.75,197.78,316.51S211.03,299.64,219.87,288.67S233.13,272.26,241.97,261.69S255.23,245.89,264.07,235.82S277.33,220.8,286.17,211.33S299.43,197.24,308.27,188.46S321.52,175.43,330.36,167.44S343.62,155.61,352.46,148.48S365.72,137.97,374.56,131.77S387.82,122.68,396.66,117.47S409.92,109.9,418.76,105.74S432.01,99.75,440.85,96.68S454.11,92.34,462.95,90.39S476.21,87.74,485.05,86.93S498.31,85.99,507.15,86.33S520.41,87.12,529.24,88.6S542.5,91.12,551.34,93.72S564.6,97.93,573.44,101.64S586.7,107.5,595.54,112.27S608.8,119.73,617.64,125.52S630.9,134.49,639.73,141.24S652.99,151.64,661.83,159.29S675.09,171.01,683.93,179.48S697.19,192.41,706.03,201.6S719.29,215.62,728.13,225.45S741.38,240.4,750.22,250.78S763.48,266.52,772.32,277.33S785.58,293.7,794.42,304.84S807.68,321.68,816.52,333.05S829.78,350.19,838.62,361.65S851.87,378.92,860.71,390.38S873.97,407.61,882.81,418.94S900.47,441.44,904.91,447.05L869.64,475C865.16,469.34,856.24,458.04,847.33,446.61S833.95,429.37,825.08,417.87S811.79,400.56,802.98,389.13S789.76,371.94,781,360.68S767.87,343.78,759.16,332.81S746.12,316.38,737.48,305.81S724.53,290.01,715.97,279.96S703.13,264.96,694.66,255.53S681.96,241.5,673.59,232.79S661.05,219.88,652.81,211.98S640.47,200.32,632.39,193.32S620.3,183.03,612.41,177S600.62,168.18,592.97,163.16S581.54,155.87,574.15,151.86S563.13,146.13,556.02,143.13S545.45,138.91,538.61,136.88S528.45,134.1,521.82,132.99S511.97,131.55,505.44,131.3S495.72,131.13,489.16,131.74S479.36,132.84,472.65,134.33S462.56,136.76,455.62,139.19S445.14,143.05,437.91,146.46S427,151.82,419.49,156.25S408.16,163.16,400.4,168.61S388.69,177.05,380.72,183.5S368.7,193.43,360.55,200.81S348.27,212.14,339.97,220.39S327.48,233.01,319.07,242.03S306.41,255.8,297.89,265.5S285.09,280.27,276.49,290.55S263.57,306.16,254.91,316.92S241.89,333.2,233.16,344.31S220.04,361.12,211.26,372.46S193.68,395.26,189.3,400.98Z" style="fill: url(#pat_3002_2); opacity: 0.75;"></path><path d="M153.58,373.6C157.99,367.85,166.84,356.33,175.68,344.91S188.94,327.75,197.78,316.51S211.03,299.64,219.87,288.67S233.13,272.26,241.97,261.69S255.23,245.89,264.07,235.82S277.33,220.8,286.17,211.33S299.43,197.24,308.27,188.46S321.52,175.43,330.36,167.44S343.62,155.61,352.46,148.48S365.72,137.97,374.56,131.77S387.82,122.68,396.66,117.47S409.92,109.9,418.76,105.74S432.01,99.75,440.85,96.68S454.11,92.34,462.95,90.39S476.21,87.74,485.05,86.93S498.31,85.99,507.15,86.33S520.41,87.12,529.24,88.6S542.5,91.12,551.34,93.72S564.6,97.93,573.44,101.64S586.7,107.5,595.54,112.27S608.8,119.73,617.64,125.52S630.9,134.49,639.73,141.24S652.99,151.64,661.83,159.29S675.09,171.01,683.93,179.48S697.19,192.41,706.03,201.6S719.29,215.62,728.13,225.45S741.38,240.4,750.22,250.78S763.48,266.52,772.32,277.33S785.58,293.7,794.42,304.84S807.68,321.68,816.52,333.05S829.78,350.19,838.62,361.65S851.87,378.92,860.71,390.38S873.97,407.61,882.81,418.94S900.47,441.44,904.91,447.05" style="stroke: #ffff00; stroke-width: 2; fill: none;"></path></g></svg><g><g transform="translate(0,632)"><path d="M0,0h948M0,-632h948M21,-10V0M43,-19V0M65,-10V0M87,-10V0M109,-10V0M131,-10V0M154,-19V0M176,-10V0M198,-10V0M220,-10V0M242,-10V0M264,-19V0M286,-10V0M308,-10V0M330,-10V0M352,-10V0M375,-19V0M397,-10V0M419,-10V0M441,-10V0M463,-10V0M485,-19V0M507,-10V0M529,-10V0M551,-10V0M573,-10V0M596,-19V0M618,-10V0M640,-10V0M662,-10V0M684,-10V0M706,-19V0M728,-10V0M750,-10V0M772,-10V0M794,-10V0M817,-19V0M839,-10V0M861,-10V0M883,-10V0M905,-10V0M927,-19V0M21,-622V-632M43,-613V-632M65,-622V-632M87,-622V-632M109,-622V-632M131,-622V-632M154,-613V-632M176,-622V-632M198,-622V-632M220,-622V-632M242,-622V-632M264,-613V-632M286,-622V-632M308,-622V-632M330,-622V-632M352,-622V-632M375,-613V-632M397,-622V-632M419,-622V-632M441,-622V-632M463,-622V-632M485,-613V-632M507,-622V-632M529,-622V-632M551,-622V-632M573,-622V-632M596,-613V-632M618,-622V-632M640,-622V-632M662,-622V-632M684,-622V-632M706,-613V-632M728,-622V-632M750,-622V-632M772,-622V-632M794,-622V-632M817,-613V-632M839,-622V-632M861,-622V-632M883,-622V-632M905,-622V-632M927,-613V-632" style="stroke: #000000; stroke-width: 1;"></path><g font-family="Arial" font-size="40" space="preserve" fill="#000000" text-anchor="middle"><text dy=".8em" transform="translate(43,4)">0</text><text dy=".8em" transform="translate(154,4)">0.5</text><text dy=".8em" transform="translate(264,4)">1</text><text dy=".8em" transform="translate(375,4)">1.5</text><text dy=".8em" transform="translate(485,4)">2</text><text dy=".8em" transform="translate(596,4)">2.5</text><text dy=".8em" transform="translate(706,4)">3</text><text dy=".8em" transform="translate(817,4)">3.5</text><text dy=".8em" transform="translate(927,4)">4</text></g></g><g><path d="M0,0v632M948,0v632M14,618H0M28,604H0M14,589H0M14,575H0M14,560H0M28,546H0M14,532H0M14,517H0M14,503H0M28,489H0M14,474H0M14,460H0M14,445H0M28,431H0M14,417H0M14,402H0M14,388H0M28,374H0M14,359H0M14,345H0M14,330H0M28,316H0M14,302H0M14,287H0M14,273H0M28,259H0M14,244H0M14,230H0M14,216H0M28,201H0M14,187H0M14,172H0M14,158H0M28,144H0M14,129H0M14,115H0M14,101H0M28,86H0M14,72H0M14,57H0M14,43H0M28,29H0M14,14H0M934,618H948M920,604H948M934,589H948M934,575H948M934,560H948M920,546H948M934,532H948M934,517H948M934,503H948M920,489H948M934,474H948M934,460H948M934,445H948M920,431H948M934,417H948M934,402H948M934,388H948M920,374H948M934,359H948M934,345H948M934,330H948M920,316H948M934,302H948M934,287H948M934,273H948M920,259H948M934,244H948M934,230H948M934,216H948M920,201H948M934,187H948M934,172H948M934,158H948M920,144H948M934,129H948M934,115H948M934,101H948M920,86H948M934,72H948M934,57H948M934,43H948M920,29H948M934,14H948" style="stroke: #000000; stroke-width: 1;"></path><g font-family="Arial" font-size="40" space="preserve" fill="#000000" text-anchor="end"><text dy=".4em" transform="translate(-6,604)">-10</text><text dy=".4em" transform="translate(-6,546)">-8</text><text dy=".4em" transform="translate(-6,489)">-6</text><text dy=".4em" transform="translate(-6,431)">-4</text><text dy=".4em" transform="translate(-6,374)">-2</text><text dy=".4em" transform="translate(-6,316)">0</text><text dy=".4em" transform="translate(-6,259)">2</text><text dy=".4em" transform="translate(-6,201)">4</text><text dy=".4em" transform="translate(-6,144)">6</text><text dy=".4em" transform="translate(-6,86)">8</text><text dy=".4em" transform="translate(-6,29)">10</text></g></g><path d="M43,0v632M154,0v632M264,0v632M375,0v632M485,0v632M596,0v632M706,0v632M817,0v632M927,0v632" style="stroke: #000000; stroke-width: 1; stroke-dasharray: 1,2;"></path><path d="M0,604h948M0,546h948M0,489h948M0,431h948M0,374h948M0,316h948M0,259h948M0,201h948M0,144h948M0,86h948M0,29h948" style="stroke: #000000; stroke-width: 1; stroke-dasharray: 1,2;"></path></g></g><g transform="translate(-462,4)" style="display: none;"><path d="M948,2h2v25h-948v-2h946z" style="fill: #000000; stroke: #000000; stroke-width: 1px;"></path><path d="M0,0H948V25H0Z" style="fill: #f2f2f2; stroke: #000000; stroke-width: 1;"></path></g></g></svg>