<svg xmlns="http://www.w3.org/2000/svg" viewBox="0 0 1200 800" preserveAspectRatio="none" width="1200" height="800"><path d="M0,0H1200V800H0Z" style="fill: #ffffff;"></path><g><g><path d="M86,667L257,400" style="stroke: #000000; stroke-width: 3;"></path></g><g><path d="M86,133L257,400" style="stroke: #000000; stroke-width: 3;"></path></g><g><path d="M150,243L147,249L139,262L137,261L135,260L133,259L132,258L130,258L129,257L128,257L127,257L126,258L125,258L125,259L125,260L125,262L126,263L126,265L127,267L128,269L129,271L130,274L132,276L133,278L134,280L135,282L136,284L137,286L138,288L138,289L139,291L139,292L139,292L138,293L138,293L137,294L136,294L134,293L133,293L131,292L129,292L127,291L125,291L123,290L122,290L120,289L118,289L116,289L115,289L114,289L113,289L112,290L112,290L112,291L112,292L112,294L113,295L114,297L115,299L116,300L117,302L118,304L120,306L121,308L123,310L124,312L125,314L126,315L127,317L128,318L128,319L129,320L128,321L128,322L128,322L127,323L126,323L124,323L123,323L121,323L119,323L117,323L115,322L113,322L111,322L109,322L108,322L106,322L105,323L104,323L103,324L102,324L102,325L102,326L102,327L102,329L103,330L104,331L105,333L107,334L108,336L110,338L111,339L113,341L115,342L116,344L118,345L119,347L120,348L121,349L121,350L122,351L122,352L121,352L121,353L120,354L119,354L118,355L116,355L114,355L112,356L111,356L109,356L107,356L105,357L103,357L101,358L100,358L98,359L97,360L96,360L96,361L96,362L96,363L96,364L97,365L98,366L99,367L100,369L102,370L103,371L105,372L107,373L109,375L110,376L112,377L113,378L115,379L116,380L117,381L118,382L118,383L118,384L118,384L117,385L117,386L116,387L114,387L113,388L111,389L110,389L108,390L106,391L104,392L102,392L100,393L99,394L97,395L96,396L95,397L94,398L94,399L94,400L94,401L94,402L95,402L96,403L97,404L99,405L100,406L102,407L104,408L106,408L108,409L109,410L111,411L113,411L114,412L116,413L117,414L117,414L118,415L118,416L118,417L118,418L117,418L116,419L115,420L113,421L112,422L110,424L108,425L107,426L105,427L103,428L101,430L100,431L99,432L98,433L97,434L96,435L96,436L96,437L96,438L96,439L97,440L98,441L100,441L101,442L103,442L105,443L107,443L109,443L110,444L112,444L114,444L116,444L117,445L119,445L120,446L121,446L121,447L121,448L121,449L121,449L121,451L120,452L119,453L118,454L116,456L115,457L113,459L111,460L110,462L108,463L107,465L105,467L104,468L103,469L102,471L102,472L102,473L102,474L102,475L103,476L104,476L105,477L106,477L108,477L109,477L111,477L113,477L115,477L117,477L119,477L121,477L122,476L124,476L125,477L126,477L127,477L128,478L128,478L128,479L128,480L128,481L127,483L126,484L125,486L124,487L123,489L121,491L120,493L118,495L117,497L116,499L114,501L113,503L113,504L112,506L112,507L111,508L112,509L112,510L113,510L114,511L115,511L116,511L118,511L119,510L121,510L123,509L125,509L127,508L129,508L131,507L132,507L134,506L135,506L136,506L137,506L138,506L138,507L139,508L138,509L138,510L138,512L137,513L136,515L135,517L134,519L133,521L131,524L130,526L129,528L128,530L127,532L126,534L126,536L125,538L125,539L125,540L125,541L126,542L126,542L127,542L129,542L130,542L131,541L133,541L135,540L137,539L139,538L150,556" style="stroke: #000000; stroke-width: 3; fill: none;"></path></g><g font-family="Arial" font-size="72" space="preserve"><g transform="translate(33,751)"><text fill="#000000" font-size="72">e</text><text fill="#000000" font-size="43" transform="translate(39,-38)">-</text></g></g><g font-family="Arial" font-size="72" space="preserve"><g transform="translate(28,98)"><text fill="#000000" font-size="72">e</text><text fill="#000000" font-size="43" transform="translate(39,-38)">+</text></g></g><g font-family="Arial" font-size="72" space="preserve"><g transform="translate(42,426)"><text fill="#000000" font-size="72">γ</text></g></g><g><path d="M257,400L262,400L274,400L274,403L275,405L276,408L276,410L277,412L277,414L278,416L279,417L279,417L280,418L280,417L281,417L282,416L282,414L283,412L283,410L284,408L285,405L285,403L286,400L286,397L287,395L288,392L288,390L289,388L289,386L290,384L291,383L291,383L292,382L292,383L293,383L294,384L294,386L295,388L295,390L296,392L297,395L297,397L298,400L298,403L299,405L300,408L300,410L301,412L301,414L302,416L303,417L303,417L304,418L304,417L305,417L306,416L306,414L307,412L307,410L308,408L309,405L309,403L310,400L310,397L311,395L312,392L312,390L313,388L313,386L314,384L315,383L315,383L316,382L316,383L317,383L318,384L318,386L319,388L319,390L320,392L321,395L321,397L322,400L322,403L323,405L324,408L324,410L325,412L325,414L326,416L327,417L327,417L328,418L328,417L329,417L330,416L330,414L331,412L331,410L332,408L333,405L333,403L334,400L334,397L335,395L336,392L336,390L337,388L337,386L338,384L339,383L339,383L340,382L340,383L341,383L342,384L342,386L343,388L343,390L344,392L345,395L345,397L346,400L346,403L347,405L348,408L348,410L349,412L349,414L350,416L351,417L351,417L352,418L352,417L353,417L354,416L354,414L355,412L355,410L356,408L357,405L357,403L358,400L358,397L359,395L360,392L360,390L361,388L361,386L362,384L363,383L363,383L364,382L364,383L365,383L366,384L366,386L367,388L367,390L368,392L369,395L369,397L370,400L370,403L371,405L372,408L372,410L373,412L373,414L374,416L375,417L375,417L376,418L376,417L377,417L378,416L378,414L379,412L379,410L380,408L381,405L381,403L382,400L382,397L383,395L384,392L384,390L385,388L385,386L386,384L387,383L387,383L388,382L388,383L389,383L390,384L390,386L391,388L391,390L392,392L393,395L393,397L394,400L394,403L395,405L396,408L396,410L397,412L397,414L398,416L399,417L399,417L400,418L400,417L401,417L402,416L402,414L403,412L403,410L404,408L405,405L405,403L406,400L406,397L407,395L408,392L408,390L409,388L409,386L410,384L411,383L411,383L412,382L412,383L413,383L414,384L414,386L415,388L415,390L416,392L417,395L417,397L418,400L418,403L419,405L420,408L420,410L421,412L421,414L422,416L423,417L423,417L424,418L424,417L425,417L426,416L426,414L427,412L427,410L428,408L429,405L429,403L430,400L430,397L431,395L432,392L432,390L433,388L433,386L434,384L435,383L435,383L436,382L436,383L437,383L438,384L438,386L439,388L439,390L440,392L441,395L441,397L442,400L442,403L443,405L444,408L444,410L445,412L445,414L446,416L447,417L447,417L448,418L448,417L449,417L450,416L450,414L451,412L451,410L452,408L453,405L453,403L454,400L471,400" style="stroke: #000000; stroke-width: 3; fill: none;"></path></g><g font-family="Arial" font-size="72" space="preserve"><g transform="translate(346,323)"><text fill="#000000" font-size="72">γ</text></g></g><g><path transform="translate(600,400)" d="M-129,0A129,200,0,1,0,129,0A129,200,0,1,0,-129,0Z" style="stroke: #000000; stroke-width: 3; fill: #ffffff;"></path></g><g font-family="Arial" font-size="72" space="preserve"><g transform="translate(451,226)"><text fill="#000000" font-size="72" text-decoration="overline">q</text></g></g><g font-family="Arial" font-size="72" space="preserve"><text fill="#000000" text-anchor="middle" dy=".4em" transform="translate(729,600)">q</text></g><g><path d="M600,200L600,216L600,216L598,217L596,219L595,220L593,223L592,225L590,228L589,232L589,235L588,239L588,242L588,246L589,249L589,253L590,256L592,259L593,262L595,264L596,266L598,267L600,269L602,269L604,269L605,269L607,269L608,268L610,267L611,265L611,263L612,262L612,260L612,258L611,256L611,254L610,253L608,252L607,251L605,250L604,250L602,250L600,251L598,252L596,254L595,256L593,258L592,261L590,263L589,267L589,270L588,274L588,277L588,281L589,284L589,288L590,291L592,294L593,297L595,299L596,301L598,302L600,304L602,304L604,304L605,304L607,304L608,303L610,302L611,300L611,298L612,297L612,295L612,293L611,291L611,289L610,288L608,287L607,286L605,285L604,285L602,285L600,286L598,287L596,289L595,291L593,293L592,296L590,299L589,302L589,305L588,309L588,312L588,316L589,320L589,323L590,326L592,329L593,332L595,334L596,336L598,338L600,339L602,339L604,340L605,339L607,339L608,338L610,337L611,335L611,334L612,332L612,330L612,328L611,326L611,325L610,323L608,322L607,321L605,320L604,320L602,320L600,321L598,322L596,324L595,326L593,328L592,331L590,334L589,337L589,340L588,344L588,347L588,351L589,355L589,358L590,361L592,364L593,367L595,369L596,371L598,373L600,374L602,374L604,375L605,374L607,374L608,373L610,372L611,370L611,369L612,367L612,365L612,363L611,361L611,360L610,358L608,357L607,356L605,355L604,355L602,356L600,356L598,357L596,359L595,361L593,363L592,366L590,369L589,372L589,375L588,379L588,382L588,386L589,390L589,393L590,396L592,399L593,402L595,404L596,406L598,408L600,409L602,409L604,410L605,409L607,409L608,408L610,407L611,405L611,404L612,402L612,400L612,398L611,396L611,395L610,393L608,392L607,391L605,391L604,390L602,391L600,391L598,392L596,394L595,396L593,398L592,401L590,404L589,407L589,410L588,414L588,418L588,421L589,425L589,428L590,431L592,434L593,437L595,439L596,441L598,443L600,444L602,444L604,445L605,445L607,444L608,443L610,442L611,440L611,439L612,437L612,435L612,433L611,431L611,430L610,428L608,427L607,426L605,426L604,425L602,426L600,426L598,427L596,429L595,431L593,433L592,436L590,439L589,442L589,445L588,449L588,453L588,456L589,460L589,463L590,466L592,469L593,472L595,474L596,476L598,478L600,479L602,480L604,480L605,480L607,479L608,478L610,477L611,475L611,474L612,472L612,470L612,468L611,466L611,465L610,463L608,462L607,461L605,461L604,460L602,461L600,461L598,462L596,464L595,466L593,468L592,471L590,474L589,477L589,480L588,484L588,488L588,491L589,495L589,498L590,501L592,504L593,507L595,509L596,511L598,513L600,514L602,515L604,515L605,515L607,514L608,513L610,512L611,511L611,509L612,507L612,505L612,503L611,502L611,500L610,498L608,497L607,496L605,496L604,496L602,496L600,496L598,498L596,499L595,501L593,503L592,506L590,509L589,512L589,516L588,519L588,523L588,526L589,530L589,533L590,537L592,539L593,542L595,544L596,546L598,548L600,549L602,550L604,550L605,550L607,549L608,548L610,547L611,546L611,544L612,542L612,540L612,538L611,537L611,535L610,533L608,532L607,531L605,531L604,531L602,531L600,531L598,533L596,534L595,536L593,538L592,541L590,544L589,547L589,551L588,554L588,558L588,561L589,565L589,568L590,572L592,575L593,577L595,580L596,581L598,583L600,584L600,600" style="stroke: #000000; stroke-width: 3; fill: none;"></path></g><g font-family="Arial" font-size="72" space="preserve"><text fill="#000000" text-anchor="middle" dy=".4em" transform="translate(664,400)">g</text></g><g><path d="M729,400L733,400L745,400L746,403L746,405L747,408L748,410L748,412L749,414L749,416L750,417L751,417L751,418L752,417L752,417L753,416L754,414L754,412L755,410L755,408L756,405L757,403L757,400L758,397L758,395L759,392L760,390L760,388L761,386L761,384L762,383L763,383L763,382L764,383L764,383L765,384L766,386L766,388L767,390L767,392L768,395L769,397L769,400L770,403L770,405L771,408L772,410L772,412L773,414L773,416L774,417L775,417L775,418L776,417L776,417L777,416L778,414L778,412L779,410L779,408L780,405L781,403L781,400L782,397L782,395L783,392L784,390L784,388L785,386L785,384L786,383L787,383L787,382L788,383L788,383L789,384L790,386L790,388L791,390L791,392L792,395L793,397L793,400L794,403L794,405L795,408L796,410L796,412L797,414L797,416L798,417L799,417L799,418L800,417L800,417L801,416L802,414L802,412L803,410L803,408L804,405L805,403L805,400L806,397L806,395L807,392L808,390L808,388L809,386L809,384L810,383L811,383L811,382L812,383L812,383L813,384L814,386L814,388L815,390L815,392L816,395L817,397L817,400L818,403L818,405L819,408L820,410L820,412L821,414L821,416L822,417L823,417L823,418L824,417L824,417L825,416L826,414L826,412L827,410L827,408L828,405L829,403L829,400L830,397L830,395L831,392L832,390L832,388L833,386L833,384L834,383L835,383L835,382L836,383L836,383L837,384L838,386L838,388L839,390L839,392L840,395L841,397L841,400L842,403L842,405L843,408L844,410L844,412L845,414L845,416L846,417L847,417L847,418L848,417L848,417L849,416L850,414L850,412L851,410L851,408L852,405L853,403L853,400L854,397L854,395L855,392L856,390L856,388L857,386L857,384L858,383L859,383L859,382L860,383L860,383L861,384L862,386L862,388L863,390L863,392L864,395L865,397L865,400L866,403L866,405L867,408L868,410L868,412L869,414L869,416L870,417L871,417L871,418L872,417L872,417L873,416L874,414L874,412L875,410L875,408L876,405L877,403L877,400L878,397L878,395L879,392L880,390L880,388L881,386L881,384L882,383L883,383L883,382L884,383L884,383L885,384L886,386L886,388L887,390L887,392L888,395L889,397L889,400L890,403L890,405L891,408L892,410L892,412L893,414L893,416L894,417L895,417L895,418L896,417L896,417L897,416L898,414L898,412L899,410L899,408L900,405L901,403L901,400L902,397L902,395L903,392L904,390L904,388L905,386L905,384L906,383L907,383L907,382L908,383L908,383L909,384L910,386L910,388L911,390L911,392L912,395L913,397L913,400L914,403L914,405L915,408L916,410L916,412L917,414L917,416L918,417L919,417L919,418L920,417L920,417L921,416L922,414L922,412L923,410L923,408L924,405L925,403L925,400L942,400" style="stroke: #000000; stroke-width: 3; fill: none;"></path></g><g font-family="Arial" font-size="72" space="preserve"><g transform="translate(822,331)"><text fill="#000000" font-size="72">Z</text><text fill="#000000" font-size="43" transform="translate(46,-38)">0</text></g></g><g><path d="M943,400L1114,667" style="stroke: #000000; stroke-width: 3;"></path></g><g><path d="M943,400L1114,133" style="stroke: #000000; stroke-width: 3;"></path></g><g><path d="M1050,557L1053,551L1053,551L1055,553L1057,553L1059,553L1062,553L1064,552L1066,551L1069,550L1071,547L1073,545L1075,542L1076,538L1077,535L1078,531L1078,528L1078,524L1078,521L1078,517L1077,514L1076,512L1075,509L1073,507L1072,506L1070,505L1069,504L1067,504L1066,504L1064,504L1063,505L1062,506L1061,508L1061,509L1061,511L1061,513L1061,515L1062,517L1062,518L1064,520L1065,522L1067,523L1068,524L1070,525L1072,525L1075,525L1077,524L1079,523L1081,521L1083,519L1085,516L1087,513L1088,510L1089,506L1090,502L1090,499L1090,495L1090,491L1090,488L1089,485L1088,482L1086,480L1085,478L1083,476L1082,475L1080,474L1078,474L1077,474L1075,474L1074,475L1073,476L1072,477L1072,479L1071,481L1071,482L1071,484L1072,486L1073,488L1074,489L1075,491L1077,492L1078,493L1080,494L1082,494L1084,494L1086,493L1089,491L1091,490L1093,487L1094,485L1096,482L1097,478L1098,475L1099,471L1099,467L1099,463L1099,460L1098,456L1097,453L1096,450L1095,448L1093,445L1091,444L1090,443L1088,442L1086,442L1084,442L1083,442L1082,443L1080,444L1080,445L1079,447L1078,448L1078,450L1078,452L1079,453L1080,455L1081,457L1082,458L1083,459L1085,460L1087,461L1089,461L1091,461L1093,460L1095,459L1097,457L1098,455L1100,452L1102,449L1103,445L1104,442L1104,438L1105,434L1104,430L1104,426L1103,423L1102,420L1101,417L1100,414L1098,412L1096,410L1094,409L1092,408L1091,408L1089,408L1087,409L1086,409L1084,410L1083,412L1083,413L1082,415L1082,416L1082,418L1082,420L1083,421L1084,423L1085,424L1086,425L1088,426L1090,427L1091,427L1093,427L1095,426L1097,425L1099,423L1101,421L1102,418L1104,415L1105,412L1106,408L1106,404L1106,400L1106,396L1106,393L1105,389L1104,386L1102,383L1101,380L1099,378L1097,376L1095,375L1093,374L1091,374L1090,374L1088,374L1086,375L1085,376L1084,378L1083,379L1082,381L1082,382L1082,384L1082,386L1083,387L1083,389L1085,390L1086,391L1087,392L1089,393L1091,393L1092,392L1094,392L1096,390L1098,389L1100,387L1101,384L1102,381L1103,378L1104,374L1105,370L1105,367L1104,363L1104,359L1103,355L1102,352L1100,349L1099,346L1097,344L1095,342L1093,341L1091,340L1089,340L1087,340L1085,340L1083,341L1082,342L1081,344L1080,345L1079,347L1079,349L1078,351L1079,352L1079,354L1080,355L1081,357L1082,358L1083,358L1085,359L1086,359L1088,359L1090,358L1091,357L1093,355L1095,353L1096,351L1097,348L1098,345L1099,341L1099,337L1099,334L1099,330L1098,326L1097,322L1096,319L1094,316L1093,313L1091,311L1089,309L1087,308L1084,307L1082,307L1080,307L1078,307L1077,308L1075,310L1074,311L1073,313L1072,315L1072,316L1071,318L1071,320L1072,322L1072,323L1073,324L1074,326L1075,326L1077,327L1078,327L1080,326L1082,326L1083,325L1085,323L1086,321L1088,319L1089,316L1090,313L1090,309L1091,306L1091,302L1090,298L1089,295L1088,291L1087,288L1085,285L1084,282L1081,280L1079,278L1077,277L1075,276L1073,276L1071,276L1069,276L1067,277L1065,279L1064,280L1063,282L1062,284L1061,286L1061,288L1061,290L1061,291L1062,293L1062,294L1063,295L1064,296L1066,297L1067,297L1069,296L1070,296L1072,295L1073,293L1075,291L1076,289L1077,286L1078,283L1079,280L1079,277L1079,273L1078,269L1077,266L1076,262L1075,259L1073,256L1071,253L1069,251L1067,249L1064,248L1062,247L1060,247L1058,247L1056,248L1054,249L1050,244" style="stroke: #000000; stroke-width: 3; fill: none;"></path></g><g font-family="Arial" font-size="72" space="preserve"><g transform="translate(1137,746)"><text fill="#000000" font-size="72" text-decoration="overline">q</text></g></g><g font-family="Arial" font-size="72" space="preserve"><text fill="#000000" text-anchor="middle" dy=".4em" transform="translate(1157,67)">q</text></g><g font-family="Arial" font-size="72" space="preserve"><text fill="#000000" text-anchor="middle" dy=".4em" transform="translate(1157,400)">g</text></g></g></svg>