<svg xmlns="http://www.w3.org/2000/svg" viewBox="0 0 1200 800" preserveAspectRatio="none" width="1200" height="800"><path d="M0,0H1200V800H0Z" style="fill: #ffffff;"></path><g><svg viewBox="0 0 376 251" preserveAspectRatio="none" x="12" y="8" width="376" height="251"><path d="M0,0H376V251H0Z" style="fill: #ffffff;"></path><g><g transform="translate(60,13)"><path d="M0,0H297V198H0Z" style="fill: #ffffff; stroke: #000000; stroke-width: 1;"></path><svg x="0" y="0" overflow="hidden" width="297" height="198" viewBox="0 0 297 198"><g><path d="M66,132l165,-66" style="stroke: #000000; stroke-width: 1; fill: none;"></path><g transform="translate(66,132)"><path style="stroke: #000000; stroke-width: 1; fill: none;" d="M0,0H-41m0,1v-2M0,0H41m0,1v-2M0,0V49m1,0h-2M0,0V-50m1,0h-2"></path></g><g transform="translate(231,66)"><path style="stroke: #000000; stroke-width: 1; fill: none;" d="M0,0H-41m0,1v-2M0,0H41m0,1v-2M0,0V49m1,0h-2M0,0V-50m1,0h-2"></path></g><path d="M61,132a5,5,0,1,0,10,0a5,5,0,1,0,-10,0zM226,66a5,5,0,1,0,10,0a5,5,0,1,0,-10,0z" style="stroke: #000000; fill: none;"></path></g></svg><g><g transform="translate(0,198)"><path d="M0,0h297M0,-198h297M0,-3V0M8,-3V0M16,-3V0M25,-6V0M33,-3V0M41,-3V0M50,-3V0M58,-3V0M66,-6V0M74,-3V0M83,-3V0M91,-3V0M99,-3V0M107,-6V0M116,-3V0M124,-3V0M132,-3V0M140,-3V0M149,-6V0M157,-3V0M165,-3V0M173,-3V0M182,-3V0M190,-6V0M198,-3V0M206,-3V0M215,-3V0M223,-3V0M231,-6V0M239,-3V0M248,-3V0M256,-3V0M264,-3V0M272,-6V0M281,-3V0M289,-3V0M297,-3V0M0,-195V-198M8,-195V-198M16,-195V-198M25,-192V-198M33,-195V-198M41,-195V-198M50,-195V-198M58,-195V-198M66,-192V-198M74,-195V-198M83,-195V-198M91,-195V-198M99,-195V-198M107,-192V-198M116,-195V-198M124,-195V-198M132,-195V-198M140,-195V-198M149,-192V-198M157,-195V-198M165,-195V-198M173,-195V-198M182,-195V-198M190,-192V-198M198,-195V-198M206,-195V-198M215,-195V-198M223,-195V-198M231,-192V-198M239,-195V-198M248,-195V-198M256,-195V-198M264,-195V-198M272,-192V-198M281,-195V-198M289,-195V-198M297,-195V-198" style="stroke: #000000; stroke-width: 1;"></path><g font-family="Arial" font-size="13" space="preserve" fill="#000000" text-anchor="middle"><text dy=".8em" transform="translate(25,2)">4</text><text dy=".8em" transform="translate(66,2)">5</text><text dy=".8em" transform="translate(107,2)">6</text><text dy=".8em" transform="translate(149,2)">7</text><text dy=".8em" transform="translate(190,2)">8</text><text dy=".8em" transform="translate(231,2)">9</text><text dy=".8em" transform="translate(272,2)">10</text></g></g><g><path d="M0,0v198M297,0v198M9,198H0M9,182H0M9,165H0M9,149H0M9,132H0M9,115H0M9,99H0M9,82H0M9,66H0M9,50H0M9,33H0M9,17H0M9,0H0M288,198H297M288,182H297M288,165H297M288,149H297M288,132H297M288,115H297M288,99H297M288,82H297M288,66H297M288,50H297M288,33H297M288,17H297M288,0H297" style="stroke: #000000; stroke-width: 1;"></path><g font-family="Arial" font-size="13" space="preserve" fill="#000000" text-anchor="end"><text dy=".4em" transform="translate(-2,198)">1</text><text dy=".4em" transform="translate(-2,182)">2</text><text dy=".4em" transform="translate(-2,165)">3</text><text dy=".4em" transform="translate(-2,149)">4</text><text dy=".4em" transform="translate(-2,132)">5</text><text dy=".4em" transform="translate(-2,115)">6</text><text dy=".4em" transform="translate(-2,99)">7</text><text dy=".4em" transform="translate(-2,82)">8</text><text dy=".4em" transform="translate(-2,66)">9</text><text dy=".4em" transform="translate(-2,50)">10</text><text dy=".4em" transform="translate(-2,33)">11</text><text dy=".4em" transform="translate(-2,17)">12</text><text dy=".4em" transform="translate(-2)">13</text></g></g><path d="M25,0v198M66,0v198M107,0v198M149,0v198M190,0v198M231,0v198M272,0v198" style="stroke: #000000; stroke-width: 1; stroke-dasharray: 1,2;"></path><path d="M0,198h297M0,182h297M0,165h297M0,149h297M0,132h297M0,115h297M0,99h297M0,82h297M0,66h297M0,50h297M0,33h297M0,17h297M0,0h297" style="stroke: #000000; stroke-width: 1; stroke-dasharray: 1,2;"></path></g></g><g transform="translate(-145,1)" style="display: none;"><path d="M297,2h2v8h-297v-2h295z" style="fill: #000000; stroke: #000000; stroke-width: 1px;"></path><path d="M0,0H297V8H0Z" style="fill: #f2f2f2; stroke: #000000; stroke-width: 1;"></path></g></g></svg><svg viewBox="0 0 376 251" preserveAspectRatio="none" x="412" y="8" width="376" height="251"><path d="M0,0H376V251H0Z" style="fill: #ffffff;"></path><g><g transform="translate(60,13)"><path d="M0,0H297V198H0Z" style="fill: #ffffff; stroke: #000000; stroke-width: 1;"></path><svg x="0" y="0" overflow="hidden" width="297" height="198" viewBox="0 0 297 198"><g><path d="M231,66l-165,66" style="stroke: #000000; stroke-width: 1; fill: none;"></path><g transform="translate(231,66)"><path style="stroke: #000000; stroke-width: 1; fill: none;" d="M0,0H41m0,1v-2M0,0H-41m0,1v-2M0,0V-49m1,0h-2M0,0V50m1,0h-2"></path></g><g transform="translate(66,132)"><path style="stroke: #000000; stroke-width: 1; fill: none;" d="M0,0H41m0,1v-2M0,0H-41m0,1v-2M0,0V-49m1,0h-2M0,0V50m1,0h-2"></path></g><path d="M226,66a5,5,0,1,0,10,0a5,5,0,1,0,-10,0zM61,132a5,5,0,1,0,10,0a5,5,0,1,0,-10,0z" style="stroke: #000000; fill: none;"></path></g></svg><g><g transform="translate(0,198)"><path d="M0,0h297M0,-198h297M297,-3V0M289,-3V0M281,-3V0M272,-6V0M264,-3V0M256,-3V0M248,-3V0M239,-3V0M231,-6V0M223,-3V0M214,-3V0M206,-3V0M198,-3V0M190,-6V0M181,-3V0M173,-3V0M165,-3V0M157,-3V0M148,-6V0M140,-3V0M132,-3V0M124,-3V0M115,-3V0M107,-6V0M99,-3V0M91,-3V0M83,-3V0M74,-3V0M66,-6V0M58,-3V0M49,-3V0M41,-3V0M33,-3V0M25,-6V0M17,-3V0M8,-3V0M0,-3V0M297,-195V-198M289,-195V-198M281,-195V-198M272,-192V-198M264,-195V-198M256,-195V-198M248,-195V-198M239,-195V-198M231,-192V-198M223,-195V-198M214,-195V-198M206,-195V-198M198,-195V-198M190,-192V-198M181,-195V-198M173,-195V-198M165,-195V-198M157,-195V-198M148,-192V-198M140,-195V-198M132,-195V-198M124,-195V-198M115,-195V-198M107,-192V-198M99,-195V-198M91,-195V-198M83,-195V-198M74,-195V-198M66,-192V-198M58,-195V-198M49,-195V-198M41,-195V-198M33,-195V-198M25,-192V-198M17,-195V-198M8,-195V-198M0,-195V-198" style="stroke: #000000; stroke-width: 1;"></path><g font-family="Arial" font-size="13" space="preserve" fill="#000000" text-anchor="middle"><text dy=".8em" transform="translate(272,2)">4</text><text dy=".8em" transform="translate(231,2)">5</text><text dy=".8em" transform="translate(190,2)">6</text><text dy=".8em" transform="translate(148,2)">7</text><text dy=".8em" transform="translate(107,2)">8</text><text dy=".8em" transform="translate(66,2)">9</text><text dy=".8em" transform="translate(25,2)">10</text></g></g><g><path d="M0,0v198M297,0v198M9,0H0M9,17H0M9,33H0M9,50H0M9,66H0M9,83H0M9,99H0M9,116H0M9,132H0M9,149H0M9,165H0M9,182H0M9,198H0M288,0H297M288,17H297M288,33H297M288,50H297M288,66H297M288,83H297M288,99H297M288,116H297M288,132H297M288,149H297M288,165H297M288,182H297M288,198H297" style="stroke: #000000; stroke-width: 1;"></path><g font-family="Arial" font-size="13" space="preserve" fill="#000000" text-anchor="end"><text dy=".4em" transform="translate(-2)">1</text><text dy=".4em" transform="translate(-2,17)">2</text><text dy=".4em" transform="translate(-2,33)">3</text><text dy=".4em" transform="translate(-2,50)">4</text><text dy=".4em" transform="translate(-2,66)">5</text><text dy=".4em" transform="translate(-2,83)">6</text><text dy=".4em" transform="translate(-2,99)">7</text><text dy=".4em" transform="translate(-2,116)">8</text><text dy=".4em" transform="translate(-2,132)">9</text><text dy=".4em" transform="translate(-2,149)">10</text><text dy=".4em" transform="translate(-2,165)">11</text><text dy=".4em" transform="translate(-2,182)">12</text><text dy=".4em" transform="translate(-2,198)">13</text></g></g><path d="M272,0v198M231,0v198M190,0v198M148,0v198M107,0v198M66,0v198M25,0v198" style="stroke: #000000; stroke-width: 1; stroke-dasharray: 1,2;"></path><path d="M0,0h297M0,17h297M0,33h297M0,50h297M0,66h297M0,83h297M0,99h297M0,116h297M0,132h297M0,149h297M0,165h297M0,182h297M0,198h297" style="stroke: #000000; stroke-width: 1; stroke-dasharray: 1,2;"></path></g></g><g transform="translate(-145,1)" style="display: none;"><path d="M297,2h2v8h-297v-2h295z" style="fill: #000000; stroke: #000000; stroke-width: 1px;"></path><path d="M0,0H297V8H0Z" style="fill: #f2f2f2; stroke: #000000; stroke-width: 1;"></path></g></g></svg><svg viewBox="0 0 376 251" preserveAspectRatio="none" x="812" y="8" width="376" height="251"><path d="M0,0H376V251H0Z" style="fill: #ffffff;"></path><g><g transform="translate(60,13)"><path d="M0,0H297V198H0Z" style="fill: #ffffff; stroke: #000000; stroke-width: 1;"></path><svg x="0" y="0" overflow="hidden" width="297" height="198" viewBox="0 0 297 198"><g><path d="M196,124l-153,46" style="stroke: #000000; stroke-width: 1; fill: none;"></path><g transform="translate(196,124)"><path style="stroke: #000000; stroke-width: 1; fill: none;" d="M0,0H58m0,1v-2M0,0H-48m0,1v-2M0,0V-71m1,0h-2M0,0V36m1,0h-2"></path></g><g transform="translate(43,170)"><path style="stroke: #000000; stroke-width: 1; fill: none;" d="M0,0H31m0,1v-2M0,0H-28m0,1v-2M0,0V-31m1,0h-2M0,0V22m1,0h-2"></path></g><path d="M191,124a5,5,0,1,0,10,0a5,5,0,1,0,-10,0zM38,170a5,5,0,1,0,10,0a5,5,0,1,0,-10,0z" style="stroke: #000000; fill: none;"></path></g></svg><g><g transform="translate(0,198)"><path d="M0,0h297M0,-198h297M255,-6V0M196,-6V0M149,-6V0M108,-6V0M74,-6V0M43,-6V0M15,-6V0M255,-192V-198M196,-192V-198M149,-192V-198M108,-192V-198M74,-192V-198M43,-192V-198M15,-192V-198" style="stroke: #000000; stroke-width: 1;"></path><g font-family="Arial" font-size="13" space="preserve" fill="#000000" text-anchor="middle"><text dy=".8em" transform="translate(255,2)">4</text><text dy=".8em" transform="translate(196,2)">5</text><text dy=".8em" transform="translate(149,2)">6</text><text dy=".8em" transform="translate(108,2)">7</text><text dy=".8em" transform="translate(74,2)">8</text><text dy=".8em" transform="translate(43,2)">9</text><text dy=".8em" transform="translate(15,2)">10</text></g></g><g><path d="M0,0v198M297,0v198M9,0H0M9,54H0M9,85H0M9,107H0M9,124H0M9,138H0M9,150H0M9,161H0M9,170H0M9,178H0M288,0H297M288,54H297M288,85H297M288,107H297M288,124H297M288,138H297M288,150H297M288,161H297M288,170H297M288,178H297" style="stroke: #000000; stroke-width: 1;"></path><g font-family="Arial" font-size="13" space="preserve" fill="#000000" text-anchor="end"><text dy=".4em" transform="translate(-2)">1</text><text dy=".4em" transform="translate(-2,54)">2</text><text dy=".4em" transform="translate(-2,85)">3</text><text dy=".4em" transform="translate(-2,107)">4</text><text dy=".4em" transform="translate(-2,124)">5</text><text dy=".4em" transform="translate(-2,138)">6</text><text dy=".4em" transform="translate(-2,150)">7</text><text dy=".4em" transform="translate(-2,161)">8</text><text dy=".4em" transform="translate(-2,170)">9</text><text dy=".4em" transform="translate(-2,178)">10</text></g></g><path d="M255,0v198M196,0v198M149,0v198M108,0v198M74,0v198M43,0v198M15,0v198" style="stroke: #000000; stroke-width: 1; stroke-dasharray: 1,2;"></path><path d="M0,0h297M0,54h297M0,85h297M0,107h297M0,124h297M0,138h297M0,150h297M0,161h297M0,170h297M0,178h297" style="stroke: #000000; stroke-width: 1; stroke-dasharray: 1,2;"></path></g></g><g transform="translate(-145,1)" style="display: none;"><path d="M297,2h2v8h-297v-2h295z" style="fill: #000000; stroke: #000000; stroke-width: 1px;"></path><path d="M0,0H297V8H0Z" style="fill: #f2f2f2; stroke: #000000; stroke-width: 1;"></path></g></g></svg><svg viewBox="0 0 376 251" preserveAspectRatio="none" x="12" y="274" width="376" height="251"><path d="M0,0H376V251H0Z" style="fill: #ffffff;"></path><g><g transform="translate(60,13)"><path d="M0,0H297V198H0Z" style="fill: #ffffff; stroke: #000000; stroke-width: 1;"></path><svg x="0" y="0" overflow="hidden" width="297" height="198" viewBox="0 0 297 198"><g><path d="M56,132l123,-66" style="stroke: #000000; stroke-width: 1; fill: none;"></path><g transform="translate(56,132)"><path style="stroke: #000000; stroke-width: 1; fill: none;" d="M0,0H-31m0,1v-2M0,0H93m0,1v-2M0,0V49m1,0h-2M0,0V-17m1,0h-2"></path></g><g transform="translate(179,66)"><path style="stroke: #000000; stroke-width: 1; fill: none;" d="M0,0H-31m0,1v-2M0,0H93m0,1v-2M0,0V16m1,0h-2M0,0V-50m1,0h-2"></path></g><path d="M51,132a5,5,0,1,0,10,0a5,5,0,1,0,-10,0zM174,66a5,5,0,1,0,10,0a5,5,0,1,0,-10,0z" style="stroke: #000000; fill: none;"></path></g></svg><g><g transform="translate(0,198)"><path d="M0,0h297M0,-198h297M0,-3V0M6,-3V0M12,-3V0M19,-3V0M25,-6V0M31,-3V0M37,-3V0M43,-3V0M49,-3V0M56,-6V0M62,-3V0M68,-3V0M74,-3V0M80,-3V0M87,-6V0M93,-3V0M99,-3V0M105,-3V0M111,-3V0M118,-6V0M124,-3V0M130,-3V0M136,-3V0M142,-3V0M148,-6V0M155,-3V0M161,-3V0M167,-3V0M173,-3V0M179,-6V0M186,-3V0M192,-3V0M198,-3V0M204,-3V0M210,-6V0M217,-3V0M223,-3V0M229,-3V0M235,-3V0M241,-6V0M247,-3V0M254,-3V0M260,-3V0M266,-3V0M272,-6V0M278,-3V0M285,-3V0M291,-3V0M297,-3V0M0,-195V-198M6,-195V-198M12,-195V-198M19,-195V-198M25,-192V-198M31,-195V-198M37,-195V-198M43,-195V-198M49,-195V-198M56,-192V-198M62,-195V-198M68,-195V-198M74,-195V-198M80,-195V-198M87,-192V-198M93,-195V-198M99,-195V-198M105,-195V-198M111,-195V-198M118,-192V-198M124,-195V-198M130,-195V-198M136,-195V-198M142,-195V-198M148,-192V-198M155,-195V-198M161,-195V-198M167,-195V-198M173,-195V-198M179,-192V-198M186,-195V-198M192,-195V-198M198,-195V-198M204,-195V-198M210,-192V-198M217,-195V-198M223,-195V-198M229,-195V-198M235,-195V-198M241,-192V-198M247,-195V-198M254,-195V-198M260,-195V-198M266,-195V-198M272,-192V-198M278,-195V-198M285,-195V-198M291,-195V-198M297,-195V-198" style="stroke: #000000; stroke-width: 1;"></path><g font-family="Arial" font-size="13" space="preserve" fill="#000000" text-anchor="middle"><text dy=".8em" transform="translate(25,2)">4</text><text dy=".8em" transform="translate(56,2)">5</text><text dy=".8em" transform="translate(87,2)">6</text><text dy=".8em" transform="translate(118,2)">7</text><text dy=".8em" transform="translate(148,2)">8</text><text dy=".8em" transform="translate(179,2)">9</text><text dy=".8em" transform="translate(210,2)">10</text><text dy=".8em" transform="translate(241,2)">11</text><text dy=".8em" transform="translate(272,2)">12</text></g></g><g><path d="M0,0v198M297,0v198M9,198H0M9,182H0M9,165H0M9,149H0M9,132H0M9,115H0M9,99H0M9,82H0M9,66H0M9,50H0M9,33H0M9,17H0M9,0H0M288,198H297M288,182H297M288,165H297M288,149H297M288,132H297M288,115H297M288,99H297M288,82H297M288,66H297M288,50H297M288,33H297M288,17H297M288,0H297" style="stroke: #000000; stroke-width: 1;"></path><g font-family="Arial" font-size="13" space="preserve" fill="#000000" text-anchor="end"><text dy=".4em" transform="translate(-2,198)">1</text><text dy=".4em" transform="translate(-2,182)">2</text><text dy=".4em" transform="translate(-2,165)">3</text><text dy=".4em" transform="translate(-2,149)">4</text><text dy=".4em" transform="translate(-2,132)">5</text><text dy=".4em" transform="translate(-2,115)">6</text><text dy=".4em" transform="translate(-2,99)">7</text><text dy=".4em" transform="translate(-2,82)">8</text><text dy=".4em" transform="translate(-2,66)">9</text><text dy=".4em" transform="translate(-2,50)">10</text><text dy=".4em" transform="translate(-2,33)">11</text><text dy=".4em" transform="translate(-2,17)">12</text><text dy=".4em" transform="translate(-2)">13</text></g></g><path d="M25,0v198M56,0v198M87,0v198M118,0v198M148,0v198M179,0v198M210,0v198M241,0v198M272,0v198" style="stroke: #000000; stroke-width: 1; stroke-dasharray: 1,2;"></path><path d="M0,198h297M0,182h297M0,165h297M0,149h297M0,132h297M0,115h297M0,99h297M0,82h297M0,66h297M0,50h297M0,33h297M0,17h297M0,0h297" style="stroke: #000000; stroke-width: 1; stroke-dasharray: 1,2;"></path></g></g><g transform="translate(-145,1)" style="display: none;"><path d="M297,2h2v8h-297v-2h295z" style="fill: #000000; stroke: #000000; stroke-width: 1px;"></path><path d="M0,0H297V8H0Z" style="fill: #f2f2f2; stroke: #000000; stroke-width: 1;"></path></g></g></svg><svg viewBox="0 0 376 251" preserveAspectRatio="none" x="412" y="274" width="376" height="251"><path d="M0,0H376V251H0Z" style="fill: #ffffff;"></path><g><g transform="translate(60,13)"><path d="M0,0H297V198H0Z" style="fill: #ffffff; stroke: #000000; stroke-width: 1;"></path><svg x="0" y="0" overflow="hidden" width="297" height="198" viewBox="0 0 297 198"><g><path d="M241,66l-123,66" style="stroke: #000000; stroke-width: 1; fill: none;"></path><g transform="translate(241,66)"><path style="stroke: #000000; stroke-width: 1; fill: none;" d="M0,0H31m0,1v-2M0,0H-93m0,1v-2M0,0V-49m1,0h-2M0,0V17m1,0h-2"></path></g><g transform="translate(118,132)"><path style="stroke: #000000; stroke-width: 1; fill: none;" d="M0,0H31m0,1v-2M0,0H-93m0,1v-2M0,0V-16m1,0h-2M0,0V50m1,0h-2"></path></g><path d="M236,66a5,5,0,1,0,10,0a5,5,0,1,0,-10,0zM113,132a5,5,0,1,0,10,0a5,5,0,1,0,-10,0z" style="stroke: #000000; fill: none;"></path></g></svg><g><g transform="translate(0,198)"><path d="M0,0h297M0,-198h297M297,-3V0M291,-3V0M285,-3V0M278,-3V0M272,-6V0M266,-3V0M260,-3V0M254,-3V0M248,-3V0M241,-6V0M235,-3V0M229,-3V0M223,-3V0M217,-3V0M210,-6V0M204,-3V0M198,-3V0M192,-3V0M186,-3V0M179,-6V0M173,-3V0M167,-3V0M161,-3V0M155,-3V0M149,-6V0M142,-3V0M136,-3V0M130,-3V0M124,-3V0M118,-6V0M111,-3V0M105,-3V0M99,-3V0M93,-3V0M87,-6V0M80,-3V0M74,-3V0M68,-3V0M62,-3V0M56,-6V0M50,-3V0M43,-3V0M37,-3V0M31,-3V0M25,-6V0M19,-3V0M12,-3V0M6,-3V0M0,-3V0M297,-195V-198M291,-195V-198M285,-195V-198M278,-195V-198M272,-192V-198M266,-195V-198M260,-195V-198M254,-195V-198M248,-195V-198M241,-192V-198M235,-195V-198M229,-195V-198M223,-195V-198M217,-195V-198M210,-192V-198M204,-195V-198M198,-195V-198M192,-195V-198M186,-195V-198M179,-192V-198M173,-195V-198M167,-195V-198M161,-195V-198M155,-195V-198M149,-192V-198M142,-195V-198M136,-195V-198M130,-195V-198M124,-195V-198M118,-192V-198M111,-195V-198M105,-195V-198M99,-195V-198M93,-195V-198M87,-192V-198M80,-195V-198M74,-195V-198M68,-195V-198M62,-195V-198M56,-192V-198M50,-195V-198M43,-195V-198M37,-195V-198M31,-195V-198M25,-192V-198M19,-195V-198M12,-195V-198M6,-195V-198M0,-195V-198" style="stroke: #000000; stroke-width: 1;"></path><g font-family="Arial" font-size="13" space="preserve" fill="#000000" text-anchor="middle"><text dy=".8em" transform="translate(272,2)">4</text><text dy=".8em" transform="translate(241,2)">5</text><text dy=".8em" transform="translate(210,2)">6</text><text dy=".8em" transform="translate(179,2)">7</text><text dy=".8em" transform="translate(149,2)">8</text><text dy=".8em" transform="translate(118,2)">9</text><text dy=".8em" transform="translate(87,2)">10</text><text dy=".8em" transform="translate(56,2)">11</text><text dy=".8em" transform="translate(25,2)">12</text></g></g><g><path d="M0,0v198M297,0v198M9,0H0M9,17H0M9,33H0M9,50H0M9,66H0M9,83H0M9,99H0M9,116H0M9,132H0M9,149H0M9,165H0M9,182H0M9,198H0M288,0H297M288,17H297M288,33H297M288,50H297M288,66H297M288,83H297M288,99H297M288,116H297M288,132H297M288,149H297M288,165H297M288,182H297M288,198H297" style="stroke: #000000; stroke-width: 1;"></path><g font-family="Arial" font-size="13" space="preserve" fill="#000000" text-anchor="end"><text dy=".4em" transform="translate(-2)">1</text><text dy=".4em" transform="translate(-2,17)">2</text><text dy=".4em" transform="translate(-2,33)">3</text><text dy=".4em" transform="translate(-2,50)">4</text><text dy=".4em" transform="translate(-2,66)">5</text><text dy=".4em" transform="translate(-2,83)">6</text><text dy=".4em" transform="translate(-2,99)">7</text><text dy=".4em" transform="translate(-2,116)">8</text><text dy=".4em" transform="translate(-2,132)">9</text><text dy=".4em" transform="translate(-2,149)">10</text><text dy=".4em" transform="translate(-2,165)">11</text><text dy=".4em" transform="translate(-2,182)">12</text><text dy=".4em" transform="translate(-2,198)">13</text></g></g><path d="M272,0v198M241,0v198M210,0v198M179,0v198M149,0v198M118,0v198M87,0v198M56,0v198M25,0v198" style="stroke: #000000; stroke-width: 1; stroke-dasharray: 1,2;"></path><path d="M0,0h297M0,17h297M0,33h297M0,50h297M0,66h297M0,83h297M0,99h297M0,116h297M0,132h297M0,149h297M0,165h297M0,182h297M0,198h297" style="stroke: #000000; stroke-width: 1; stroke-dasharray: 1,2;"></path></g></g><g transform="translate(-145,1)" style="display: none;"><path d="M297,2h2v8h-297v-2h295z" style="fill: #000000; stroke: #000000; stroke-width: 1px;"></path><path d="M0,0H297V8H0Z" style="fill: #f2f2f2; stroke: #000000; stroke-width: 1;"></path></g></g></svg><svg viewBox="0 0 376 251" preserveAspectRatio="none" x="812" y="274" width="376" height="251"><path d="M0,0H376V251H0Z" style="fill: #ffffff;"></path><g><g transform="translate(60,13)"><path d="M0,0H297V198H0Z" style="fill: #ffffff; stroke: #000000; stroke-width: 1;"></path><svg x="0" y="0" overflow="hidden" width="297" height="198" viewBox="0 0 297 198"><g><path d="M201,124l-126,46" style="stroke: #000000; stroke-width: 1; fill: none;"></path><g transform="translate(201,124)"><path style="stroke: #000000; stroke-width: 1; fill: none;" d="M0,0H48m0,1v-2M0,0H-101m0,1v-2M0,0V-71m1,0h-2M0,0V14m1,0h-2"></path></g><g transform="translate(75,170)"><path style="stroke: #000000; stroke-width: 1; fill: none;" d="M0,0H25m0,1v-2M0,0H-62m0,1v-2M0,0V-9m1,0h-2M0,0V22m1,0h-2"></path></g><path d="M196,124a5,5,0,1,0,10,0a5,5,0,1,0,-10,0zM70,170a5,5,0,1,0,10,0a5,5,0,1,0,-10,0z" style="stroke: #000000; fill: none;"></path></g></svg><g><g transform="translate(0,198)"><path d="M0,0h297M0,-198h297M249,-6V0M201,-6V0M162,-6V0M129,-6V0M101,-6V0M75,-6V0M53,-6V0M249,-192V-198M201,-192V-198M162,-192V-198M129,-192V-198M101,-192V-198M75,-192V-198M53,-192V-198" style="stroke: #000000; stroke-width: 1;"></path><g font-family="Arial" font-size="13" space="preserve" fill="#000000" text-anchor="middle"><text dy=".8em" transform="translate(249,2)">4</text><text dy=".8em" transform="translate(201,2)">5</text><text dy=".8em" transform="translate(162,2)">6</text><text dy=".8em" transform="translate(129,2)">7</text><text dy=".8em" transform="translate(101,2)">8</text><text dy=".8em" transform="translate(75,2)">9</text><text dy=".8em" transform="translate(53,2)">10</text></g></g><g><path d="M0,0v198M297,0v198M9,0H0M9,54H0M9,85H0M9,107H0M9,124H0M9,138H0M9,150H0M9,161H0M9,170H0M9,178H0M288,0H297M288,54H297M288,85H297M288,107H297M288,124H297M288,138H297M288,150H297M288,161H297M288,170H297M288,178H297" style="stroke: #000000; stroke-width: 1;"></path><g font-family="Arial" font-size="13" space="preserve" fill="#000000" text-anchor="end"><text dy=".4em" transform="translate(-2)">1</text><text dy=".4em" transform="translate(-2,54)">2</text><text dy=".4em" transform="translate(-2,85)">3</text><text dy=".4em" transform="translate(-2,107)">4</text><text dy=".4em" transform="translate(-2,124)">5</text><text dy=".4em" transform="translate(-2,138)">6</text><text dy=".4em" transform="translate(-2,150)">7</text><text dy=".4em" transform="translate(-2,161)">8</text><text dy=".4em" transform="translate(-2,170)">9</text><text dy=".4em" transform="translate(-2,178)">10</text></g></g><path d="M249,0v198M201,0v198M162,0v198M129,0v198M101,0v198M75,0v198M53,0v198" style="stroke: #000000; stroke-width: 1; stroke-dasharray: 1,2;"></path><path d="M0,0h297M0,54h297M0,85h297M0,107h297M0,124h297M0,138h297M0,150h297M0,161h297M0,170h297M0,178h297" style="stroke: #000000; stroke-width: 1; stroke-dasharray: 1,2;"></path></g></g><g transform="translate(-145,1)" style="display: none;"><path d="M297,2h2v8h-297v-2h295z" style="fill: #000000; stroke: #000000; stroke-width: 1px;"></path><path d="M0,0H297V8H0Z" style="fill: #f2f2f2; stroke: #000000; stroke-width: 1;"></path></g></g></svg><svg viewBox="0 0 376 251" preserveAspectRatio="none" x="12" y="541" width="376" height="251"><path d="M0,0H376V251H0Z" style="fill: #ffffff;"></path><g><g transform="translate(60,13)"><path d="M0,0H297V198H0Z" style="fill: #ffffff; stroke: #000000; stroke-width: 1;"></path><svg x="0" y="0" overflow="hidden" width="297" height="198" viewBox="0 0 297 198"><g><path d="M56,132l123,-66" style="stroke: #000000; stroke-width: 1; fill: none;"></path><g transform="translate(56,132)"><path style="stroke: #000000; stroke-width: 1; fill: none;" d="M0,0L-31,-8m0,1v-2M0,0L93,-3m0,1v-2M0,0L15,49m1,0h-2M0,0L6,-17m1,0h-2"></path></g><g transform="translate(179,66)"><path style="stroke: #000000; stroke-width: 1; fill: none;" d="M0,0L-31,8m0,1v-2M0,0L93,3m0,1v-2M0,0L-15,16m1,0h-2M0,0L-6,-50m1,0h-2"></path></g><path d="M51,132a5,5,0,1,0,10,0a5,5,0,1,0,-10,0zM174,66a5,5,0,1,0,10,0a5,5,0,1,0,-10,0z" style="stroke: #000000; fill: none;"></path></g></svg><g><g transform="translate(0,198)"><path d="M0,0h297M0,-198h297M0,-3V0M6,-3V0M12,-3V0M19,-3V0M25,-6V0M31,-3V0M37,-3V0M43,-3V0M49,-3V0M56,-6V0M62,-3V0M68,-3V0M74,-3V0M80,-3V0M87,-6V0M93,-3V0M99,-3V0M105,-3V0M111,-3V0M118,-6V0M124,-3V0M130,-3V0M136,-3V0M142,-3V0M148,-6V0M155,-3V0M161,-3V0M167,-3V0M173,-3V0M179,-6V0M186,-3V0M192,-3V0M198,-3V0M204,-3V0M210,-6V0M217,-3V0M223,-3V0M229,-3V0M235,-3V0M241,-6V0M247,-3V0M254,-3V0M260,-3V0M266,-3V0M272,-6V0M278,-3V0M285,-3V0M291,-3V0M297,-3V0M0,-195V-198M6,-195V-198M12,-195V-198M19,-195V-198M25,-192V-198M31,-195V-198M37,-195V-198M43,-195V-198M49,-195V-198M56,-192V-198M62,-195V-198M68,-195V-198M74,-195V-198M80,-195V-198M87,-192V-198M93,-195V-198M99,-195V-198M105,-195V-198M111,-195V-198M118,-192V-198M124,-195V-198M130,-195V-198M136,-195V-198M142,-195V-198M148,-192V-198M155,-195V-198M161,-195V-198M167,-195V-198M173,-195V-198M179,-192V-198M186,-195V-198M192,-195V-198M198,-195V-198M204,-195V-198M210,-192V-198M217,-195V-198M223,-195V-198M229,-195V-198M235,-195V-198M241,-192V-198M247,-195V-198M254,-195V-198M260,-195V-198M266,-195V-198M272,-192V-198M278,-195V-198M285,-195V-198M291,-195V-198M297,-195V-198" style="stroke: #000000; stroke-width: 1;"></path><g font-family="Arial" font-size="13" space="preserve" fill="#000000" text-anchor="middle"><text dy=".8em" transform="translate(25,2)">4</text><text dy=".8em" transform="translate(56,2)">5</text><text dy=".8em" transform="translate(87,2)">6</text><text dy=".8em" transform="translate(118,2)">7</text><text dy=".8em" transform="translate(148,2)">8</text><text dy=".8em" transform="translate(179,2)">9</text><text dy=".8em" transform="translate(210,2)">10</text><text dy=".8em" transform="translate(241,2)">11</text><text dy=".8em" transform="translate(272,2)">12</text></g></g><g><path d="M0,0v198M297,0v198M9,198H0M9,182H0M9,165H0M9,149H0M9,132H0M9,115H0M9,99H0M9,82H0M9,66H0M9,50H0M9,33H0M9,17H0M9,0H0M288,198H297M288,182H297M288,165H297M288,149H297M288,132H297M288,115H297M288,99H297M288,82H297M288,66H297M288,50H297M288,33H297M288,17H297M288,0H297" style="stroke: #000000; stroke-width: 1;"></path><g font-family="Arial" font-size="13" space="preserve" fill="#000000" text-anchor="end"><text dy=".4em" transform="translate(-2,198)">1</text><text dy=".4em" transform="translate(-2,182)">2</text><text dy=".4em" transform="translate(-2,165)">3</text><text dy=".4em" transform="translate(-2,149)">4</text><text dy=".4em" transform="translate(-2,132)">5</text><text dy=".4em" transform="translate(-2,115)">6</text><text dy=".4em" transform="translate(-2,99)">7</text><text dy=".4em" transform="translate(-2,82)">8</text><text dy=".4em" transform="translate(-2,66)">9</text><text dy=".4em" transform="translate(-2,50)">10</text><text dy=".4em" transform="translate(-2,33)">11</text><text dy=".4em" transform="translate(-2,17)">12</text><text dy=".4em" transform="translate(-2)">13</text></g></g><path d="M25,0v198M56,0v198M87,0v198M118,0v198M148,0v198M179,0v198M210,0v198M241,0v198M272,0v198" style="stroke: #000000; stroke-width: 1; stroke-dasharray: 1,2;"></path><path d="M0,198h297M0,182h297M0,165h297M0,149h297M0,132h297M0,115h297M0,99h297M0,82h297M0,66h297M0,50h297M0,33h297M0,17h297M0,0h297" style="stroke: #000000; stroke-width: 1; stroke-dasharray: 1,2;"></path></g></g><g transform="translate(-145,1)" style="display: none;"><path d="M297,2h2v8h-297v-2h295z" style="fill: #000000; stroke: #000000; stroke-width: 1px;"></path><path d="M0,0H297V8H0Z" style="fill: #f2f2f2; stroke: #000000; stroke-width: 1;"></path></g></g></svg><svg viewBox="0 0 376 251" preserveAspectRatio="none" x="412" y="541" width="376" height="251"><path d="M0,0H376V251H0Z" style="fill: #ffffff;"></path><g><g transform="translate(60,13)"><path d="M0,0H297V198H0Z" style="fill: #ffffff; stroke: #000000; stroke-width: 1;"></path><svg x="0" y="0" overflow="hidden" width="297" height="198" viewBox="0 0 297 198"><g><path d="M241,66l-123,66" style="stroke: #000000; stroke-width: 1; fill: none;"></path><g transform="translate(241,66)"><path style="stroke: #000000; stroke-width: 1; fill: none;" d="M0,0L31,8m0,1v-2M0,0L-93,3m0,1v-2M0,0L-15,-49m1,0h-2M0,0L-6,17m1,0h-2"></path></g><g transform="translate(118,132)"><path style="stroke: #000000; stroke-width: 1; fill: none;" d="M0,0L31,-8m0,1v-2M0,0L-93,-3m0,1v-2M0,0L15,-16m1,0h-2M0,0L6,50m1,0h-2"></path></g><path d="M236,66a5,5,0,1,0,10,0a5,5,0,1,0,-10,0zM113,132a5,5,0,1,0,10,0a5,5,0,1,0,-10,0z" style="stroke: #000000; fill: none;"></path></g></svg><g><g transform="translate(0,198)"><path d="M0,0h297M0,-198h297M297,-3V0M291,-3V0M285,-3V0M278,-3V0M272,-6V0M266,-3V0M260,-3V0M254,-3V0M248,-3V0M241,-6V0M235,-3V0M229,-3V0M223,-3V0M217,-3V0M210,-6V0M204,-3V0M198,-3V0M192,-3V0M186,-3V0M179,-6V0M173,-3V0M167,-3V0M161,-3V0M155,-3V0M149,-6V0M142,-3V0M136,-3V0M130,-3V0M124,-3V0M118,-6V0M111,-3V0M105,-3V0M99,-3V0M93,-3V0M87,-6V0M80,-3V0M74,-3V0M68,-3V0M62,-3V0M56,-6V0M50,-3V0M43,-3V0M37,-3V0M31,-3V0M25,-6V0M19,-3V0M12,-3V0M6,-3V0M0,-3V0M297,-195V-198M291,-195V-198M285,-195V-198M278,-195V-198M272,-192V-198M266,-195V-198M260,-195V-198M254,-195V-198M248,-195V-198M241,-192V-198M235,-195V-198M229,-195V-198M223,-195V-198M217,-195V-198M210,-192V-198M204,-195V-198M198,-195V-198M192,-195V-198M186,-195V-198M179,-192V-198M173,-195V-198M167,-195V-198M161,-195V-198M155,-195V-198M149,-192V-198M142,-195V-198M136,-195V-198M130,-195V-198M124,-195V-198M118,-192V-198M111,-195V-198M105,-195V-198M99,-195V-198M93,-195V-198M87,-192V-198M80,-195V-198M74,-195V-198M68,-195V-198M62,-195V-198M56,-192V-198M50,-195V-198M43,-195V-198M37,-195V-198M31,-195V-198M25,-192V-198M19,-195V-198M12,-195V-198M6,-195V-198M0,-195V-198" style="stroke: #000000; stroke-width: 1;"></path><g font-family="Arial" font-size="13" space="preserve" fill="#000000" text-anchor="middle"><text dy=".8em" transform="translate(272,2)">4</text><text dy=".8em" transform="translate(241,2)">5</text><text dy=".8em" transform="translate(210,2)">6</text><text dy=".8em" transform="translate(179,2)">7</text><text dy=".8em" transform="translate(149,2)">8</text><text dy=".8em" transform="translate(118,2)">9</text><text dy=".8em" transform="translate(87,2)">10</text><text dy=".8em" transform="translate(56,2)">11</text><text dy=".8em" transform="translate(25,2)">12</text></g></g><g><path d="M0,0v198M297,0v198M9,0H0M9,17H0M9,33H0M9,50H0M9,66H0M9,83H0M9,99H0M9,116H0M9,132H0M9,149H0M9,165H0M9,182H0M9,198H0M288,0H297M288,17H297M288,33H297M288,50H297M288,66H297M288,83H297M288,99H297M288,116H297M288,132H297M288,149H297M288,165H297M288,182H297M288,198H297" style="stroke: #000000; stroke-width: 1;"></path><g font-family="Arial" font-size="13" space="preserve" fill="#000000" text-anchor="end"><text dy=".4em" transform="translate(-2)">1</text><text dy=".4em" transform="translate(-2,17)">2</text><text dy=".4em" transform="translate(-2,33)">3</text><text dy=".4em" transform="translate(-2,50)">4</text><text dy=".4em" transform="translate(-2,66)">5</text><text dy=".4em" transform="translate(-2,83)">6</text><text dy=".4em" transform="translate(-2,99)">7</text><text dy=".4em" transform="translate(-2,116)">8</text><text dy=".4em" transform="translate(-2,132)">9</text><text dy=".4em" transform="translate(-2,149)">10</text><text dy=".4em" transform="translate(-2,165)">11</text><text dy=".4em" transform="translate(-2,182)">12</text><text dy=".4em" transform="translate(-2,198)">13</text></g></g><path d="M272,0v198M241,0v198M210,0v198M179,0v198M149,0v198M118,0v198M87,0v198M56,0v198M25,0v198" style="stroke: #000000; stroke-width: 1; stroke-dasharray: 1,2;"></path><path d="M0,0h297M0,17h297M0,33h297M0,50h297M0,66h297M0,83h297M0,99h297M0,116h297M0,132h297M0,149h297M0,165h297M0,182h297M0,198h297" style="stroke: #000000; stroke-width: 1; stroke-dasharray: 1,2;"></path></g></g><g transform="translate(-145,1)" style="display: none;"><path d="M297,2h2v8h-297v-2h295z" style="fill: #000000; stroke: #000000; stroke-width: 1px;"></path><path d="M0,0H297V8H0Z" style="fill: #f2f2f2; stroke: #000000; stroke-width: 1;"></path></g></g></svg><svg viewBox="0 0 376 251" preserveAspectRatio="none" x="812" y="541" width="376" height="251"><path d="M0,0H376V251H0Z" style="fill: #ffffff;"></path><g><g transform="translate(60,13)"><path d="M0,0H297V198H0Z" style="fill: #ffffff; stroke: #000000; stroke-width: 1;"></path><svg x="0" y="0" overflow="hidden" width="297" height="198" viewBox="0 0 297 198"><g><path d="M201,124l-126,46" style="stroke: #000000; stroke-width: 1; fill: none;"></path><g transform="translate(201,124)"><path style="stroke: #000000; stroke-width: 1; fill: none;" d="M0,0L48,7m0,1v-2M0,0L-101,3m0,1v-2M0,0L-20,-71m1,0h-2M0,0L-8,14m1,0h-2"></path></g><g transform="translate(75,170)"><path style="stroke: #000000; stroke-width: 1; fill: none;" d="M0,0L25,-4m0,1v-2M0,0L-62,-2m0,1v-2M0,0L12,-9m1,0h-2M0,0L5,22m1,0h-2"></path></g><path d="M196,124a5,5,0,1,0,10,0a5,5,0,1,0,-10,0zM70,170a5,5,0,1,0,10,0a5,5,0,1,0,-10,0z" style="stroke: #000000; fill: none;"></path></g></svg><g><g transform="translate(0,198)"><path d="M0,0h297M0,-198h297M249,-6V0M201,-6V0M162,-6V0M129,-6V0M101,-6V0M75,-6V0M53,-6V0M249,-192V-198M201,-192V-198M162,-192V-198M129,-192V-198M101,-192V-198M75,-192V-198M53,-192V-198" style="stroke: #000000; stroke-width: 1;"></path><g font-family="Arial" font-size="13" space="preserve" fill="#000000" text-anchor="middle"><text dy=".8em" transform="translate(249,2)">4</text><text dy=".8em" transform="translate(201,2)">5</text><text dy=".8em" transform="translate(162,2)">6</text><text dy=".8em" transform="translate(129,2)">7</text><text dy=".8em" transform="translate(101,2)">8</text><text dy=".8em" transform="translate(75,2)">9</text><text dy=".8em" transform="translate(53,2)">10</text></g></g><g><path d="M0,0v198M297,0v198M9,0H0M9,54H0M9,85H0M9,107H0M9,124H0M9,138H0M9,150H0M9,161H0M9,170H0M9,178H0M288,0H297M288,54H297M288,85H297M288,107H297M288,124H297M288,138H297M288,150H297M288,161H297M288,170H297M288,178H297" style="stroke: #000000; stroke-width: 1;"></path><g font-family="Arial" font-size="13" space="preserve" fill="#000000" text-anchor="end"><text dy=".4em" transform="translate(-2)">1</text><text dy=".4em" transform="translate(-2,54)">2</text><text dy=".4em" transform="translate(-2,85)">3</text><text dy=".4em" transform="translate(-2,107)">4</text><text dy=".4em" transform="translate(-2,124)">5</text><text dy=".4em" transform="translate(-2,138)">6</text><text dy=".4em" transform="translate(-2,150)">7</text><text dy=".4em" transform="translate(-2,161)">8</text><text dy=".4em" transform="translate(-2,170)">9</text><text dy=".4em" transform="translate(-2,178)">10</text></g></g><path d="M249,0v198M201,0v198M162,0v198M129,0v198M101,0v198M75,0v198M53,0v198" style="stroke: #000000; stroke-width: 1; stroke-dasharray: 1,2;"></path><path d="M0,0h297M0,54h297M0,85h297M0,107h297M0,124h297M0,138h297M0,150h297M0,161h297M0,170h297M0,178h297" style="stroke: #000000; stroke-width: 1; stroke-dasharray: 1,2;"></path></g></g><g transform="translate(-145,1)" style="display: none;"><path d="M297,2h2v8h-297v-2h295z" style="fill: #000000; stroke: #000000; stroke-width: 1px;"></path><path d="M0,0H297V8H0Z" style="fill: #f2f2f2; stroke: #000000; stroke-width: 1;"></path></g></g></svg></g></svg>