<svg xmlns="http://www.w3.org/2000/svg" viewBox="0 0 1200 800" preserveAspectRatio="none" width="1200" height="800"><path d="M0,0H1200V800H0Z" style="fill: #ffffff;"></path><g><g transform="translate(600,400)" font-family="Arial" font-size="22" space="preserve" font-weight="bold"><ellipse cx="0" cy="0" rx="34" ry="23" style="fill: none; stroke: #000000; stroke-width: 1;"></ellipse><text fill="#000000" text-anchor="middle" dy=".8em" transform="translate(34,5)">-1</text><ellipse cx="0" cy="0" rx="51" ry="34" style="fill: none; stroke: #000000; stroke-width: 1; stroke-dasharray: 3,3;"></ellipse><ellipse cx="0" cy="0" rx="68" ry="45" style="fill: none; stroke: #000000; stroke-width: 1; stroke-dasharray: 3,3;"></ellipse><ellipse cx="0" cy="0" rx="85" ry="57" style="fill: none; stroke: #000000; stroke-width: 1; stroke-dasharray: 3,3;"></ellipse><ellipse cx="0" cy="0" rx="102" ry="68" style="fill: none; stroke: #000000; stroke-width: 1; stroke-dasharray: 3,3;"></ellipse><ellipse cx="0" cy="0" rx="119" ry="79" style="fill: none; stroke: #000000; stroke-width: 1;"></ellipse><text fill="#000000" text-anchor="middle" dy=".8em" transform="translate(119,5)">-0.5</text><ellipse cx="0" cy="0" rx="136" ry="91" style="fill: none; stroke: #000000; stroke-width: 1; stroke-dasharray: 3,3;"></ellipse><ellipse cx="0" cy="0" rx="153" ry="102" style="fill: none; stroke: #000000; stroke-width: 1; stroke-dasharray: 3,3;"></ellipse><ellipse cx="0" cy="0" rx="170" ry="113" style="fill: none; stroke: #000000; stroke-width: 1; stroke-dasharray: 3,3;"></ellipse><ellipse cx="0" cy="0" rx="187" ry="125" style="fill: none; stroke: #000000; stroke-width: 1; stroke-dasharray: 3,3;"></ellipse><ellipse cx="0" cy="0" rx="204" ry="136" style="fill: none; stroke: #000000; stroke-width: 1;"></ellipse><text fill="#000000" text-anchor="middle" dy=".8em" transform="translate(204,5)">0</text><ellipse cx="0" cy="0" rx="221" ry="147" style="fill: none; stroke: #000000; stroke-width: 1; stroke-dasharray: 3,3;"></ellipse><ellipse cx="0" cy="0" rx="238" ry="159" style="fill: none; stroke: #000000; stroke-width: 1; stroke-dasharray: 3,3;"></ellipse><ellipse cx="0" cy="0" rx="255" ry="170" style="fill: none; stroke: #000000; stroke-width: 1; stroke-dasharray: 3,3;"></ellipse><ellipse cx="0" cy="0" rx="272" ry="181" style="fill: none; stroke: #000000; stroke-width: 1; stroke-dasharray: 3,3;"></ellipse><ellipse cx="0" cy="0" rx="289" ry="193" style="fill: none; stroke: #000000; stroke-width: 1;"></ellipse><text fill="#000000" text-anchor="middle" dy=".8em" transform="translate(289,5)">0.5</text><ellipse cx="0" cy="0" rx="306" ry="204" style="fill: none; stroke: #000000; stroke-width: 1; stroke-dasharray: 3,3;"></ellipse><ellipse cx="0" cy="0" rx="323" ry="215" style="fill: none; stroke: #000000; stroke-width: 1; stroke-dasharray: 3,3;"></ellipse><ellipse cx="0" cy="0" rx="340" ry="227" style="fill: none; stroke: #000000; stroke-width: 1; stroke-dasharray: 3,3;"></ellipse><ellipse cx="0" cy="0" rx="357" ry="238" style="fill: none; stroke: #000000; stroke-width: 1; stroke-dasharray: 3,3;"></ellipse><ellipse cx="0" cy="0" rx="374" ry="249" style="fill: none; stroke: #000000; stroke-width: 1;"></ellipse><text fill="#000000" text-anchor="middle" dy=".8em" transform="translate(374,5)">1</text><ellipse cx="0" cy="0" rx="391" ry="261" style="fill: none; stroke: #000000; stroke-width: 1; stroke-dasharray: 3,3;"></ellipse><ellipse cx="0" cy="0" rx="408" ry="272" style="fill: none; stroke: #000000; stroke-width: 1; stroke-dasharray: 3,3;"></ellipse><ellipse cx="0" cy="0" rx="408" ry="272" style="fill: none; stroke: #000000; stroke-width: 1;"></ellipse><path d="M0,0L408,0" style="stroke: #000000; stroke-width: 1;"></path><text fill="#000000" text-anchor="start" dy=".4em" transform="translate(430)">0</text><path d="M0,0L288,-192" style="stroke: #000000; stroke-width: 1;"></path><g transform="translate(304,-203)"><text fill="#000000" font-size="22" transform="translate(0,-13)">π</text><path style="stroke: #000000; stroke-width: 2; fill: none;" d="M0,-8h12"></path><text fill="#000000" font-size="22" transform="translate(1,13)">4</text></g><path d="M0,0L0,-272" style="stroke: #000000; stroke-width: 1;"></path><g transform="translate(-7,-287)"><text fill="#000000" font-size="22" transform="translate(0,-13)">π</text><path style="stroke: #000000; stroke-width: 2; fill: none;" d="M0,-8h12"></path><text fill="#000000" font-size="22" transform="translate(1,13)">2</text></g><path d="M0,0L-288,-192" style="stroke: #000000; stroke-width: 1;"></path><g transform="translate(-331,-203)"><text fill="#000000" font-size="22" transform="translate(0,-13)">3π</text><path style="stroke: #000000; stroke-width: 2; fill: none;" d="M0,-8h25"></path><text fill="#000000" font-size="22" transform="translate(7,13)">4</text></g><path d="M0,0L-408,0" style="stroke: #000000; stroke-width: 1;"></path><g transform="translate(-444,8)"><text fill="#000000" font-size="22">π</text></g><path d="M0,0L-288,192" style="stroke: #000000; stroke-width: 1;"></path><g transform="translate(-331,237)"><text fill="#000000" font-size="22" transform="translate(0,-13)">5π</text><path style="stroke: #000000; stroke-width: 2; fill: none;" d="M0,-8h25"></path><text fill="#000000" font-size="22" transform="translate(7,13)">4</text></g><path d="M0,0L0,272" style="stroke: #000000; stroke-width: 1;"></path><g transform="translate(-13,321)"><text fill="#000000" font-size="22" transform="translate(0,-13)">3π</text><path style="stroke: #000000; stroke-width: 2; fill: none;" d="M0,-8h25"></path><text fill="#000000" font-size="22" transform="translate(7,13)">2</text></g><path d="M0,0L288,192" style="stroke: #000000; stroke-width: 1;"></path><g transform="translate(304,237)"><text fill="#000000" font-size="22" transform="translate(0,-13)">7π</text><path style="stroke: #000000; stroke-width: 2; fill: none;" d="M0,-8h25"></path><text fill="#000000" font-size="22" transform="translate(7,13)">4</text></g><path d="M0,0L403,-43" style="stroke: #000000; stroke-width: 1; stroke-dasharray: 3,3;"></path><path d="M0,0L388,-84" style="stroke: #000000; stroke-width: 1; stroke-dasharray: 3,3;"></path><path d="M0,0L364,-123" style="stroke: #000000; stroke-width: 1; stroke-dasharray: 3,3;"></path><path d="M0,0L330,-160" style="stroke: #000000; stroke-width: 1; stroke-dasharray: 3,3;"></path><path d="M0,0L240,-220" style="stroke: #000000; stroke-width: 1; stroke-dasharray: 3,3;"></path><path d="M0,0L185,-242" style="stroke: #000000; stroke-width: 1; stroke-dasharray: 3,3;"></path><path d="M0,0L126,-259" style="stroke: #000000; stroke-width: 1; stroke-dasharray: 3,3;"></path><path d="M0,0L64,-269" style="stroke: #000000; stroke-width: 1; stroke-dasharray: 3,3;"></path><path d="M0,0L-64,-269" style="stroke: #000000; stroke-width: 1; stroke-dasharray: 3,3;"></path><path d="M0,0L-126,-259" style="stroke: #000000; stroke-width: 1; stroke-dasharray: 3,3;"></path><path d="M0,0L-185,-242" style="stroke: #000000; stroke-width: 1; stroke-dasharray: 3,3;"></path><path d="M0,0L-240,-220" style="stroke: #000000; stroke-width: 1; stroke-dasharray: 3,3;"></path><path d="M0,0L-330,-160" style="stroke: #000000; stroke-width: 1; stroke-dasharray: 3,3;"></path><path d="M0,0L-364,-123" style="stroke: #000000; stroke-width: 1; stroke-dasharray: 3,3;"></path><path d="M0,0L-388,-84" style="stroke: #000000; stroke-width: 1; stroke-dasharray: 3,3;"></path><path d="M0,0L-403,-43" style="stroke: #000000; stroke-width: 1; stroke-dasharray: 3,3;"></path><path d="M0,0L-403,43" style="stroke: #000000; stroke-width: 1; stroke-dasharray: 3,3;"></path><path d="M0,0L-388,84" style="stroke: #000000; stroke-width: 1; stroke-dasharray: 3,3;"></path><path d="M0,0L-364,123" style="stroke: #000000; stroke-width: 1; stroke-dasharray: 3,3;"></path><path d="M0,0L-330,160" style="stroke: #000000; stroke-width: 1; stroke-dasharray: 3,3;"></path><path d="M0,0L-240,220" style="stroke: #000000; stroke-width: 1; stroke-dasharray: 3,3;"></path><path d="M0,0L-185,242" style="stroke: #000000; stroke-width: 1; stroke-dasharray: 3,3;"></path><path d="M0,0L-126,259" style="stroke: #000000; stroke-width: 1; stroke-dasharray: 3,3;"></path><path d="M0,0L-64,269" style="stroke: #000000; stroke-width: 1; stroke-dasharray: 3,3;"></path><path d="M0,0L64,269" style="stroke: #000000; stroke-width: 1; stroke-dasharray: 3,3;"></path><path d="M0,0L126,259" style="stroke: #000000; stroke-width: 1; stroke-dasharray: 3,3;"></path><path d="M0,0L185,242" style="stroke: #000000; stroke-width: 1; stroke-dasharray: 3,3;"></path><path d="M0,0L240,220" style="stroke: #000000; stroke-width: 1; stroke-dasharray: 3,3;"></path><path d="M0,0L330,160" style="stroke: #000000; stroke-width: 1; stroke-dasharray: 3,3;"></path><path d="M0,0L364,123" style="stroke: #000000; stroke-width: 1; stroke-dasharray: 3,3;"></path><path d="M0,0L388,84" style="stroke: #000000; stroke-width: 1; stroke-dasharray: 3,3;"></path><path d="M0,0L403,43" style="stroke: #000000; stroke-width: 1; stroke-dasharray: 3,3;"></path></g><g transform="translate(600,400)"><path d="M374,0v-9l-1,-2v-6l-1,-2v-4l-1,-2v-3l-1,-2v-1l-1,-2v-1l-1,-2v-1l-1,-2v-1l-1,-2v-1l-1,-2l-1,-1v-2l-1,-1l-1,-2v-1l-1,-2l-1,-1l-1,-2v-1l-1,-2l-1,-1l-1,-2l-1,-1l-1,-1v-2l-1,-1l-1,-2l-1,-1l-1,-2l-1,-1l-1,-1l-1,-2l-1,-1l-1,-1l-1,-2l-2,-1l-1,-2l-1,-1l-1,-1l-1,-2l-1,-1l-2,-1l-1,-1l-1,-2l-1,-1l-2,-1l-1,-2l-1,-1l-2,-1l-1,-1l-1,-2l-2,-1l-1,-1l-1,-1l-2,-1l-1,-2l-2,-1l-1,-1l-2,-1l-1,-1l-2,-1l-1,-1l-2,-2l-1,-1l-2,-1l-1,-1l-2,-1l-2,-1l-1,-1l-2,-1l-2,-1l-1,-1l-2,-1l-2,-1l-1,-1l-2,-1l-2,-1l-1,-1l-2,-1l-2,-1l-2,-1l-1,-1l-2,-1l-2,-1h-2l-2,-1l-1,-1l-2,-1l-2,-1l-2,-1h-2l-2,-1l-2,-1l-2,-1h-1l-2,-1l-2,-1l-2,-1h-2l-2,-1l-2,-1h-2l-2,-1l-2,-1h-2l-2,-1h-2l-2,-1l-2,-1h-2l-2,-1h-2l-2,-1h-2l-2,-1h-2l-2,-1h-2l-2,-1h-4l-2,-1h-2l-2,-1h-4l-2,-1h-4l-2,-1h-6l-3,-1h-6l-2,-1h-10l-2,-1h-38l-2,1h-10l-2,1h-8l-2,1h-5l-2,1h-4l-2,1h-3l-2,1h-4l-1,1h-2l-2,1h-4l-1,1h-2l-2,1h-1l-2,1h-2l-1,1h-2l-2,1h-1l-2,1h-2l-1,1h-2l-2,1h-1l-2,1h-1l-2,1l-1,1h-2l-1,1h-2l-1,1l-2,1h-1l-2,1l-1,1h-2l-1,1h-1l-2,1l-1,1l-1,1h-2l-1,1l-1,1h-2l-1,1l-1,1h-2l-1,1l-1,1l-1,1h-1l-2,1l-1,1l-1,1h-1l-1,1l-1,1l-2,1h-1l-1,1l-1,1l-1,1l-1,1h-1l-1,1l-1,1l-1,1l-1,1h-1l-1,1l-1,1l-1,1v1h-1l-1,1l-1,1l-1,1l-1,1l-1,1l-1,1l-1,1l-1,1v1l-1,1h-1l-1,1v1l-1,1l-1,1v1h-1l-1,1v1l-1,1v1l-1,1h-1v1l-1,1v1l-1,1v1l-1,1l-1,1v2l-1,1l-1,1v2l-1,1v1l-1,1v2l-1,1v2l-1,1v3l-1,1v4l-1,1v17l1,1v4l1,1v3h1v3h1v2h1v3h1v2h1v1l1,1v1h1v2h1v1h1v1l1,1v1h1v1h1v1l1,1l1,1v1h1v1h1v1h1v1h1v1h1v1h1v1h1v1h1v1h1v1l1,1v1h1v4h-1v1l-1,1v1h-1v1h-1v1h-1v1h-1v1h-1v1h-1v1h-1v1h-1v1h-1v1l-1,1l-1,1v1h-1v1h-1v1l-1,1v1h-1v1h-1v2h-1v1l-1,1v1h-1v2h-1v3h-1v2h-1v3h-1v3l-1,1v4l-1,1v17l1,1v4l1,1v3l1,1v2l1,1v2l1,1v1l1,1v2l1,1l1,1v2l1,1l1,1v1l1,1v1l1,1v1h1l1,1v1l1,1v1l1,1h1v1l1,1l1,1v1l1,1h1l1,1v1l1,1l1,1l1,1l1,1l1,1l1,1l1,1l1,1h1v1l1,1l1,1l1,1h1l1,1l1,1l1,1l1,1h1l1,1l1,1l1,1l1,1h1l2,1l1,1l1,1h1l1,1l1,1l2,1h1l1,1l1,1l1,1h2l1,1l1,1h2l1,1l1,1h2l1,1l1,1l2,1h1l1,1h2l1,1l2,1h1l2,1l1,1h2l1,1h2l1,1l2,1h1l2,1h1l2,1h2l1,1h2l2,1h1l2,1h2l1,1h2l2,1h1l2,1h2l1,1h4l2,1h2l1,1h4l2,1h3l2,1h4l2,1h5l2,1h8l2,1h10l2,1h38l2,-1h10l2,-1h6l3,-1h6l2,-1h4l2,-1h4l2,-1h2l2,-1h4l2,-1h2l2,-1h2l2,-1h2l2,-1h2l2,-1h2l2,-1l2,-1h2l2,-1h2l2,-1l2,-1h2l2,-1l2,-1h2l2,-1l2,-1l2,-1h1l2,-1l2,-1l2,-1h2l2,-1l2,-1l2,-1l1,-1l2,-1h2l2,-1l2,-1l1,-1l2,-1l2,-1l2,-1l1,-1l2,-1l2,-1l1,-1l2,-1l2,-1l1,-1l2,-1l2,-1l1,-1l2,-1l2,-1l1,-1l2,-1l1,-1l2,-2l1,-1l2,-1l1,-1l2,-1l1,-1l2,-1l1,-2l2,-1l1,-1l1,-1l2,-1l1,-2l1,-1l2,-1l1,-1l1,-2l2,-1l1,-1l1,-2l1,-1l2,-1l1,-1l1,-2l1,-1l1,-1l1,-2l2,-1l1,-2l1,-1l1,-1l1,-2l1,-1l1,-1l1,-2l1,-1l1,-2l1,-1v-2l1,-1l1,-1l1,-2l1,-1l1,-2v-1l1,-2l1,-1l1,-2v-1l1,-2l1,-1v-2l1,-1l1,-2v-1l1,-2v-1l1,-2v-1l1,-2v-1l1,-2v-1l1,-2v-3l1,-2v-4l1,-2v-6l1,-2v-7" style="fill: none; stroke: #ff0000; stroke-width: 1;"></path></g></g></svg>