<svg xmlns="http://www.w3.org/2000/svg" viewBox="0 0 1200 800" preserveAspectRatio="none" width="1200" height="800"><path d="M0,0H1200V800H0Z" style="fill: #ffffff;"></path><g><g transform="translate(192,40)"><path d="M0,0H948V632H0Z" style="fill: #ffffff; stroke: #000000; stroke-width: 1;"></path><svg x="0" y="0" overflow="hidden" width="948" height="632" viewBox="0 0 948 632"><g><path d="M-1,53a1,1,0,1,0,2,0a1,1,0,1,0,-2,0zM1,62a1,1,0,1,0,2,0a1,1,0,1,0,-2,0zM2,88a1,1,0,1,0,2,0a1,1,0,1,0,-2,0zM4,65a1,1,0,1,0,2,0a1,1,0,1,0,-2,0zM6,64a1,1,0,1,0,2,0a1,1,0,1,0,-2,0zM8,111a1,1,0,1,0,2,0a1,1,0,1,0,-2,0zM9,114a1,1,0,1,0,2,0a1,1,0,1,0,-2,0zM11,139a1,1,0,1,0,2,0a1,1,0,1,0,-2,0zM13,154a1,1,0,1,0,2,0a1,1,0,1,0,-2,0zM15,173a1,1,0,1,0,2,0a1,1,0,1,0,-2,0zM16,168a1,1,0,1,0,2,0a1,1,0,1,0,-2,0zM18,167a1,1,0,1,0,2,0a1,1,0,1,0,-2,0zM20,171a1,1,0,1,0,2,0a1,1,0,1,0,-2,0zM21,160a1,1,0,1,0,2,0a1,1,0,1,0,-2,0zM23,163a1,1,0,1,0,2,0a1,1,0,1,0,-2,0zM25,168a1,1,0,1,0,2,0a1,1,0,1,0,-2,0zM27,190a1,1,0,1,0,2,0a1,1,0,1,0,-2,0zM28,172a1,1,0,1,0,2,0a1,1,0,1,0,-2,0zM30,180a1,1,0,1,0,2,0a1,1,0,1,0,-2,0zM32,205a1,1,0,1,0,2,0a1,1,0,1,0,-2,0zM34,206a1,1,0,1,0,2,0a1,1,0,1,0,-2,0zM35,223a1,1,0,1,0,2,0a1,1,0,1,0,-2,0zM37,241a1,1,0,1,0,2,0a1,1,0,1,0,-2,0zM39,252a1,1,0,1,0,2,0a1,1,0,1,0,-2,0zM40,272a1,1,0,1,0,2,0a1,1,0,1,0,-2,0zM42,287a1,1,0,1,0,2,0a1,1,0,1,0,-2,0zM44,295a1,1,0,1,0,2,0a1,1,0,1,0,-2,0zM46,306a1,1,0,1,0,2,0a1,1,0,1,0,-2,0zM47,315a1,1,0,1,0,2,0a1,1,0,1,0,-2,0zM49,304a1,1,0,1,0,2,0a1,1,0,1,0,-2,0zM51,327a1,1,0,1,0,2,0a1,1,0,1,0,-2,0zM53,314a1,1,0,1,0,2,0a1,1,0,1,0,-2,0zM54,332a1,1,0,1,0,2,0a1,1,0,1,0,-2,0zM56,345a1,1,0,1,0,2,0a1,1,0,1,0,-2,0zM58,360a1,1,0,1,0,2,0a1,1,0,1,0,-2,0zM59,366a1,1,0,1,0,2,0a1,1,0,1,0,-2,0zM61,383a1,1,0,1,0,2,0a1,1,0,1,0,-2,0zM63,386a1,1,0,1,0,2,0a1,1,0,1,0,-2,0zM65,386a1,1,0,1,0,2,0a1,1,0,1,0,-2,0zM66,392a1,1,0,1,0,2,0a1,1,0,1,0,-2,0zM68,395a1,1,0,1,0,2,0a1,1,0,1,0,-2,0zM70,401a1,1,0,1,0,2,0a1,1,0,1,0,-2,0zM72,411a1,1,0,1,0,2,0a1,1,0,1,0,-2,0zM73,422a1,1,0,1,0,2,0a1,1,0,1,0,-2,0zM75,422a1,1,0,1,0,2,0a1,1,0,1,0,-2,0zM77,424a1,1,0,1,0,2,0a1,1,0,1,0,-2,0zM78,428a1,1,0,1,0,2,0a1,1,0,1,0,-2,0zM80,426a1,1,0,1,0,2,0a1,1,0,1,0,-2,0zM82,436a1,1,0,1,0,2,0a1,1,0,1,0,-2,0zM84,450a1,1,0,1,0,2,0a1,1,0,1,0,-2,0zM85,449a1,1,0,1,0,2,0a1,1,0,1,0,-2,0zM87,455a1,1,0,1,0,2,0a1,1,0,1,0,-2,0zM89,456a1,1,0,1,0,2,0a1,1,0,1,0,-2,0zM91,466a1,1,0,1,0,2,0a1,1,0,1,0,-2,0zM92,460a1,1,0,1,0,2,0a1,1,0,1,0,-2,0zM94,466a1,1,0,1,0,2,0a1,1,0,1,0,-2,0zM96,466a1,1,0,1,0,2,0a1,1,0,1,0,-2,0zM97,469a1,1,0,1,0,2,0a1,1,0,1,0,-2,0zM99,467a1,1,0,1,0,2,0a1,1,0,1,0,-2,0zM101,473a1,1,0,1,0,2,0a1,1,0,1,0,-2,0zM103,468a1,1,0,1,0,2,0a1,1,0,1,0,-2,0zM104,473a1,1,0,1,0,2,0a1,1,0,1,0,-2,0zM106,478a1,1,0,1,0,2,0a1,1,0,1,0,-2,0zM108,483a1,1,0,1,0,2,0a1,1,0,1,0,-2,0zM110,485a1,1,0,1,0,2,0a1,1,0,1,0,-2,0zM111,486a1,1,0,1,0,2,0a1,1,0,1,0,-2,0zM113,487a1,1,0,1,0,2,0a1,1,0,1,0,-2,0zM115,494a1,1,0,1,0,2,0a1,1,0,1,0,-2,0zM116,501a1,1,0,1,0,2,0a1,1,0,1,0,-2,0zM118,495a1,1,0,1,0,2,0a1,1,0,1,0,-2,0zM120,499a1,1,0,1,0,2,0a1,1,0,1,0,-2,0zM122,502a1,1,0,1,0,2,0a1,1,0,1,0,-2,0zM123,498a1,1,0,1,0,2,0a1,1,0,1,0,-2,0zM125,508a1,1,0,1,0,2,0a1,1,0,1,0,-2,0zM127,514a1,1,0,1,0,2,0a1,1,0,1,0,-2,0zM129,515a1,1,0,1,0,2,0a1,1,0,1,0,-2,0zM130,518a1,1,0,1,0,2,0a1,1,0,1,0,-2,0zM132,517a1,1,0,1,0,2,0a1,1,0,1,0,-2,0zM134,518a1,1,0,1,0,2,0a1,1,0,1,0,-2,0zM135,521a1,1,0,1,0,2,0a1,1,0,1,0,-2,0zM137,528a1,1,0,1,0,2,0a1,1,0,1,0,-2,0zM139,536a1,1,0,1,0,2,0a1,1,0,1,0,-2,0zM141,535a1,1,0,1,0,2,0a1,1,0,1,0,-2,0zM142,536a1,1,0,1,0,2,0a1,1,0,1,0,-2,0zM144,539a1,1,0,1,0,2,0a1,1,0,1,0,-2,0zM146,539a1,1,0,1,0,2,0a1,1,0,1,0,-2,0zM148,538a1,1,0,1,0,2,0a1,1,0,1,0,-2,0zM149,540a1,1,0,1,0,2,0a1,1,0,1,0,-2,0zM151,545a1,1,0,1,0,2,0a1,1,0,1,0,-2,0zM153,547a1,1,0,1,0,2,0a1,1,0,1,0,-2,0zM154,547a1,1,0,1,0,2,0a1,1,0,1,0,-2,0zM156,548a1,1,0,1,0,2,0a1,1,0,1,0,-2,0zM158,550a1,1,0,1,0,2,0a1,1,0,1,0,-2,0zM160,549a1,1,0,1,0,2,0a1,1,0,1,0,-2,0zM161,547a1,1,0,1,0,2,0a1,1,0,1,0,-2,0zM163,548a1,1,0,1,0,2,0a1,1,0,1,0,-2,0zM165,546a1,1,0,1,0,2,0a1,1,0,1,0,-2,0zM167,548a1,1,0,1,0,2,0a1,1,0,1,0,-2,0zM168,544a1,1,0,1,0,2,0a1,1,0,1,0,-2,0zM170,541a1,1,0,1,0,2,0a1,1,0,1,0,-2,0zM172,545a1,1,0,1,0,2,0a1,1,0,1,0,-2,0zM173,548a1,1,0,1,0,2,0a1,1,0,1,0,-2,0zM175,547a1,1,0,1,0,2,0a1,1,0,1,0,-2,0zM177,550a1,1,0,1,0,2,0a1,1,0,1,0,-2,0zM179,551a1,1,0,1,0,2,0a1,1,0,1,0,-2,0zM180,551a1,1,0,1,0,2,0a1,1,0,1,0,-2,0zM182,550a1,1,0,1,0,2,0a1,1,0,1,0,-2,0zM184,550a1,1,0,1,0,2,0a1,1,0,1,0,-2,0zM186,553a1,1,0,1,0,2,0a1,1,0,1,0,-2,0zM187,553a1,1,0,1,0,2,0a1,1,0,1,0,-2,0zM189,554a1,1,0,1,0,2,0a1,1,0,1,0,-2,0zM191,554a1,1,0,1,0,2,0a1,1,0,1,0,-2,0zM192,557a1,1,0,1,0,2,0a1,1,0,1,0,-2,0zM194,558a1,1,0,1,0,2,0a1,1,0,1,0,-2,0zM196,557a1,1,0,1,0,2,0a1,1,0,1,0,-2,0zM198,560a1,1,0,1,0,2,0a1,1,0,1,0,-2,0zM199,563a1,1,0,1,0,2,0a1,1,0,1,0,-2,0zM201,562a1,1,0,1,0,2,0a1,1,0,1,0,-2,0zM203,563a1,1,0,1,0,2,0a1,1,0,1,0,-2,0zM205,564a1,1,0,1,0,2,0a1,1,0,1,0,-2,0zM206,564a1,1,0,1,0,2,0a1,1,0,1,0,-2,0zM208,564a1,1,0,1,0,2,0a1,1,0,1,0,-2,0zM210,563a1,1,0,1,0,2,0a1,1,0,1,0,-2,0zM211,565a1,1,0,1,0,2,0a1,1,0,1,0,-2,0zM213,565a1,1,0,1,0,2,0a1,1,0,1,0,-2,0zM215,567a1,1,0,1,0,2,0a1,1,0,1,0,-2,0zM217,566a1,1,0,1,0,2,0a1,1,0,1,0,-2,0zM218,568a1,1,0,1,0,2,0a1,1,0,1,0,-2,0zM220,567a1,1,0,1,0,2,0a1,1,0,1,0,-2,0zM222,566a1,1,0,1,0,2,0a1,1,0,1,0,-2,0zM224,565a1,1,0,1,0,2,0a1,1,0,1,0,-2,0zM225,567a1,1,0,1,0,2,0a1,1,0,1,0,-2,0zM227,566a1,1,0,1,0,2,0a1,1,0,1,0,-2,0zM229,566a1,1,0,1,0,2,0a1,1,0,1,0,-2,0zM230,566a1,1,0,1,0,2,0a1,1,0,1,0,-2,0zM232,567a1,1,0,1,0,2,0a1,1,0,1,0,-2,0zM234,567a1,1,0,1,0,2,0a1,1,0,1,0,-2,0zM236,571a1,1,0,1,0,2,0a1,1,0,1,0,-2,0zM237,570a1,1,0,1,0,2,0a1,1,0,1,0,-2,0zM239,568a1,1,0,1,0,2,0a1,1,0,1,0,-2,0zM241,568a1,1,0,1,0,2,0a1,1,0,1,0,-2,0zM243,570a1,1,0,1,0,2,0a1,1,0,1,0,-2,0zM244,569a1,1,0,1,0,2,0a1,1,0,1,0,-2,0zM246,568a1,1,0,1,0,2,0a1,1,0,1,0,-2,0zM248,567a1,1,0,1,0,2,0a1,1,0,1,0,-2,0zM249,568a1,1,0,1,0,2,0a1,1,0,1,0,-2,0zM251,567a1,1,0,1,0,2,0a1,1,0,1,0,-2,0zM253,566a1,1,0,1,0,2,0a1,1,0,1,0,-2,0zM255,566a1,1,0,1,0,2,0a1,1,0,1,0,-2,0zM256,569a1,1,0,1,0,2,0a1,1,0,1,0,-2,0zM258,571a1,1,0,1,0,2,0a1,1,0,1,0,-2,0zM260,571a1,1,0,1,0,2,0a1,1,0,1,0,-2,0zM262,574a1,1,0,1,0,2,0a1,1,0,1,0,-2,0zM263,574a1,1,0,1,0,2,0a1,1,0,1,0,-2,0zM265,572a1,1,0,1,0,2,0a1,1,0,1,0,-2,0zM267,572a1,1,0,1,0,2,0a1,1,0,1,0,-2,0zM268,572a1,1,0,1,0,2,0a1,1,0,1,0,-2,0zM270,571a1,1,0,1,0,2,0a1,1,0,1,0,-2,0zM272,570a1,1,0,1,0,2,0a1,1,0,1,0,-2,0zM274,572a1,1,0,1,0,2,0a1,1,0,1,0,-2,0zM275,574a1,1,0,1,0,2,0a1,1,0,1,0,-2,0zM277,575a1,1,0,1,0,2,0a1,1,0,1,0,-2,0zM279,575a1,1,0,1,0,2,0a1,1,0,1,0,-2,0zM281,573a1,1,0,1,0,2,0a1,1,0,1,0,-2,0zM282,573a1,1,0,1,0,2,0a1,1,0,1,0,-2,0zM284,572a1,1,0,1,0,2,0a1,1,0,1,0,-2,0zM286,571a1,1,0,1,0,2,0a1,1,0,1,0,-2,0zM287,570a1,1,0,1,0,2,0a1,1,0,1,0,-2,0zM289,568a1,1,0,1,0,2,0a1,1,0,1,0,-2,0zM291,567a1,1,0,1,0,2,0a1,1,0,1,0,-2,0zM293,568a1,1,0,1,0,2,0a1,1,0,1,0,-2,0zM294,569a1,1,0,1,0,2,0a1,1,0,1,0,-2,0zM296,567a1,1,0,1,0,2,0a1,1,0,1,0,-2,0zM298,567a1,1,0,1,0,2,0a1,1,0,1,0,-2,0zM300,565a1,1,0,1,0,2,0a1,1,0,1,0,-2,0zM301,567a1,1,0,1,0,2,0a1,1,0,1,0,-2,0zM303,565a1,1,0,1,0,2,0a1,1,0,1,0,-2,0zM305,568a1,1,0,1,0,2,0a1,1,0,1,0,-2,0zM306,566a1,1,0,1,0,2,0a1,1,0,1,0,-2,0zM308,568a1,1,0,1,0,2,0a1,1,0,1,0,-2,0zM310,567a1,1,0,1,0,2,0a1,1,0,1,0,-2,0zM312,572a1,1,0,1,0,2,0a1,1,0,1,0,-2,0zM313,571a1,1,0,1,0,2,0a1,1,0,1,0,-2,0zM315,569a1,1,0,1,0,2,0a1,1,0,1,0,-2,0zM317,569a1,1,0,1,0,2,0a1,1,0,1,0,-2,0zM319,572a1,1,0,1,0,2,0a1,1,0,1,0,-2,0zM320,572a1,1,0,1,0,2,0a1,1,0,1,0,-2,0zM322,573a1,1,0,1,0,2,0a1,1,0,1,0,-2,0zM324,574a1,1,0,1,0,2,0a1,1,0,1,0,-2,0zM325,575a1,1,0,1,0,2,0a1,1,0,1,0,-2,0zM327,575a1,1,0,1,0,2,0a1,1,0,1,0,-2,0zM329,574a1,1,0,1,0,2,0a1,1,0,1,0,-2,0zM331,576a1,1,0,1,0,2,0a1,1,0,1,0,-2,0zM332,578a1,1,0,1,0,2,0a1,1,0,1,0,-2,0zM334,579a1,1,0,1,0,2,0a1,1,0,1,0,-2,0zM336,579a1,1,0,1,0,2,0a1,1,0,1,0,-2,0zM338,576a1,1,0,1,0,2,0a1,1,0,1,0,-2,0zM339,576a1,1,0,1,0,2,0a1,1,0,1,0,-2,0zM341,575a1,1,0,1,0,2,0a1,1,0,1,0,-2,0zM343,575a1,1,0,1,0,2,0a1,1,0,1,0,-2,0zM344,578a1,1,0,1,0,2,0a1,1,0,1,0,-2,0zM346,575a1,1,0,1,0,2,0a1,1,0,1,0,-2,0zM348,575a1,1,0,1,0,2,0a1,1,0,1,0,-2,0zM350,574a1,1,0,1,0,2,0a1,1,0,1,0,-2,0zM351,573a1,1,0,1,0,2,0a1,1,0,1,0,-2,0zM353,573a1,1,0,1,0,2,0a1,1,0,1,0,-2,0zM355,573a1,1,0,1,0,2,0a1,1,0,1,0,-2,0zM357,570a1,1,0,1,0,2,0a1,1,0,1,0,-2,0zM358,570a1,1,0,1,0,2,0a1,1,0,1,0,-2,0zM360,568a1,1,0,1,0,2,0a1,1,0,1,0,-2,0zM362,570a1,1,0,1,0,2,0a1,1,0,1,0,-2,0zM363,570a1,1,0,1,0,2,0a1,1,0,1,0,-2,0zM365,570a1,1,0,1,0,2,0a1,1,0,1,0,-2,0zM367,570a1,1,0,1,0,2,0a1,1,0,1,0,-2,0zM369,570a1,1,0,1,0,2,0a1,1,0,1,0,-2,0zM370,568a1,1,0,1,0,2,0a1,1,0,1,0,-2,0zM372,569a1,1,0,1,0,2,0a1,1,0,1,0,-2,0zM374,572a1,1,0,1,0,2,0a1,1,0,1,0,-2,0zM376,573a1,1,0,1,0,2,0a1,1,0,1,0,-2,0zM377,573a1,1,0,1,0,2,0a1,1,0,1,0,-2,0zM379,572a1,1,0,1,0,2,0a1,1,0,1,0,-2,0zM381,572a1,1,0,1,0,2,0a1,1,0,1,0,-2,0zM382,570a1,1,0,1,0,2,0a1,1,0,1,0,-2,0zM384,569a1,1,0,1,0,2,0a1,1,0,1,0,-2,0zM386,569a1,1,0,1,0,2,0a1,1,0,1,0,-2,0zM388,567a1,1,0,1,0,2,0a1,1,0,1,0,-2,0zM389,565a1,1,0,1,0,2,0a1,1,0,1,0,-2,0zM391,567a1,1,0,1,0,2,0a1,1,0,1,0,-2,0zM393,566a1,1,0,1,0,2,0a1,1,0,1,0,-2,0zM395,567a1,1,0,1,0,2,0a1,1,0,1,0,-2,0zM396,566a1,1,0,1,0,2,0a1,1,0,1,0,-2,0zM398,563a1,1,0,1,0,2,0a1,1,0,1,0,-2,0zM400,564a1,1,0,1,0,2,0a1,1,0,1,0,-2,0zM401,564a1,1,0,1,0,2,0a1,1,0,1,0,-2,0zM403,565a1,1,0,1,0,2,0a1,1,0,1,0,-2,0zM405,567a1,1,0,1,0,2,0a1,1,0,1,0,-2,0zM407,566a1,1,0,1,0,2,0a1,1,0,1,0,-2,0zM408,568a1,1,0,1,0,2,0a1,1,0,1,0,-2,0zM410,571a1,1,0,1,0,2,0a1,1,0,1,0,-2,0zM412,569a1,1,0,1,0,2,0a1,1,0,1,0,-2,0zM414,568a1,1,0,1,0,2,0a1,1,0,1,0,-2,0zM415,569a1,1,0,1,0,2,0a1,1,0,1,0,-2,0zM417,570a1,1,0,1,0,2,0a1,1,0,1,0,-2,0zM419,571a1,1,0,1,0,2,0a1,1,0,1,0,-2,0zM420,571a1,1,0,1,0,2,0a1,1,0,1,0,-2,0zM422,572a1,1,0,1,0,2,0a1,1,0,1,0,-2,0zM424,572a1,1,0,1,0,2,0a1,1,0,1,0,-2,0zM426,571a1,1,0,1,0,2,0a1,1,0,1,0,-2,0zM427,571a1,1,0,1,0,2,0a1,1,0,1,0,-2,0zM429,572a1,1,0,1,0,2,0a1,1,0,1,0,-2,0zM431,571a1,1,0,1,0,2,0a1,1,0,1,0,-2,0zM432,572a1,1,0,1,0,2,0a1,1,0,1,0,-2,0zM434,570a1,1,0,1,0,2,0a1,1,0,1,0,-2,0zM436,568a1,1,0,1,0,2,0a1,1,0,1,0,-2,0zM438,566a1,1,0,1,0,2,0a1,1,0,1,0,-2,0zM439,566a1,1,0,1,0,2,0a1,1,0,1,0,-2,0zM441,566a1,1,0,1,0,2,0a1,1,0,1,0,-2,0zM443,568a1,1,0,1,0,2,0a1,1,0,1,0,-2,0zM445,567a1,1,0,1,0,2,0a1,1,0,1,0,-2,0zM446,566a1,1,0,1,0,2,0a1,1,0,1,0,-2,0zM448,569a1,1,0,1,0,2,0a1,1,0,1,0,-2,0zM450,571a1,1,0,1,0,2,0a1,1,0,1,0,-2,0zM451,572a1,1,0,1,0,2,0a1,1,0,1,0,-2,0zM453,571a1,1,0,1,0,2,0a1,1,0,1,0,-2,0zM455,570a1,1,0,1,0,2,0a1,1,0,1,0,-2,0zM457,569a1,1,0,1,0,2,0a1,1,0,1,0,-2,0zM458,571a1,1,0,1,0,2,0a1,1,0,1,0,-2,0zM460,571a1,1,0,1,0,2,0a1,1,0,1,0,-2,0zM462,572a1,1,0,1,0,2,0a1,1,0,1,0,-2,0zM464,569a1,1,0,1,0,2,0a1,1,0,1,0,-2,0zM465,568a1,1,0,1,0,2,0a1,1,0,1,0,-2,0zM467,569a1,1,0,1,0,2,0a1,1,0,1,0,-2,0zM469,570a1,1,0,1,0,2,0a1,1,0,1,0,-2,0zM470,569a1,1,0,1,0,2,0a1,1,0,1,0,-2,0zM472,572a1,1,0,1,0,2,0a1,1,0,1,0,-2,0zM474,572a1,1,0,1,0,2,0a1,1,0,1,0,-2,0zM476,574a1,1,0,1,0,2,0a1,1,0,1,0,-2,0zM477,572a1,1,0,1,0,2,0a1,1,0,1,0,-2,0zM479,572a1,1,0,1,0,2,0a1,1,0,1,0,-2,0zM481,573a1,1,0,1,0,2,0a1,1,0,1,0,-2,0zM483,571a1,1,0,1,0,2,0a1,1,0,1,0,-2,0zM484,569a1,1,0,1,0,2,0a1,1,0,1,0,-2,0zM486,567a1,1,0,1,0,2,0a1,1,0,1,0,-2,0zM488,566a1,1,0,1,0,2,0a1,1,0,1,0,-2,0zM489,566a1,1,0,1,0,2,0a1,1,0,1,0,-2,0zM491,570a1,1,0,1,0,2,0a1,1,0,1,0,-2,0zM493,569a1,1,0,1,0,2,0a1,1,0,1,0,-2,0zM495,568a1,1,0,1,0,2,0a1,1,0,1,0,-2,0zM496,570a1,1,0,1,0,2,0a1,1,0,1,0,-2,0zM498,571a1,1,0,1,0,2,0a1,1,0,1,0,-2,0zM500,571a1,1,0,1,0,2,0a1,1,0,1,0,-2,0zM502,572a1,1,0,1,0,2,0a1,1,0,1,0,-2,0zM503,572a1,1,0,1,0,2,0a1,1,0,1,0,-2,0zM505,572a1,1,0,1,0,2,0a1,1,0,1,0,-2,0zM507,571a1,1,0,1,0,2,0a1,1,0,1,0,-2,0zM508,567a1,1,0,1,0,2,0a1,1,0,1,0,-2,0zM510,566a1,1,0,1,0,2,0a1,1,0,1,0,-2,0zM512,563a1,1,0,1,0,2,0a1,1,0,1,0,-2,0zM514,564a1,1,0,1,0,2,0a1,1,0,1,0,-2,0zM515,565a1,1,0,1,0,2,0a1,1,0,1,0,-2,0zM517,562a1,1,0,1,0,2,0a1,1,0,1,0,-2,0zM519,561a1,1,0,1,0,2,0a1,1,0,1,0,-2,0zM521,561a1,1,0,1,0,2,0a1,1,0,1,0,-2,0zM522,563a1,1,0,1,0,2,0a1,1,0,1,0,-2,0zM524,564a1,1,0,1,0,2,0a1,1,0,1,0,-2,0zM526,563a1,1,0,1,0,2,0a1,1,0,1,0,-2,0zM527,563a1,1,0,1,0,2,0a1,1,0,1,0,-2,0zM529,564a1,1,0,1,0,2,0a1,1,0,1,0,-2,0zM531,565a1,1,0,1,0,2,0a1,1,0,1,0,-2,0zM533,566a1,1,0,1,0,2,0a1,1,0,1,0,-2,0zM534,565a1,1,0,1,0,2,0a1,1,0,1,0,-2,0zM536,566a1,1,0,1,0,2,0a1,1,0,1,0,-2,0zM538,565a1,1,0,1,0,2,0a1,1,0,1,0,-2,0zM540,567a1,1,0,1,0,2,0a1,1,0,1,0,-2,0zM541,568a1,1,0,1,0,2,0a1,1,0,1,0,-2,0zM543,568a1,1,0,1,0,2,0a1,1,0,1,0,-2,0zM545,565a1,1,0,1,0,2,0a1,1,0,1,0,-2,0zM546,566a1,1,0,1,0,2,0a1,1,0,1,0,-2,0zM548,565a1,1,0,1,0,2,0a1,1,0,1,0,-2,0zM550,568a1,1,0,1,0,2,0a1,1,0,1,0,-2,0zM552,569a1,1,0,1,0,2,0a1,1,0,1,0,-2,0zM553,569a1,1,0,1,0,2,0a1,1,0,1,0,-2,0zM555,570a1,1,0,1,0,2,0a1,1,0,1,0,-2,0zM557,568a1,1,0,1,0,2,0a1,1,0,1,0,-2,0zM559,568a1,1,0,1,0,2,0a1,1,0,1,0,-2,0zM560,564a1,1,0,1,0,2,0a1,1,0,1,0,-2,0zM562,564a1,1,0,1,0,2,0a1,1,0,1,0,-2,0zM564,566a1,1,0,1,0,2,0a1,1,0,1,0,-2,0zM565,565a1,1,0,1,0,2,0a1,1,0,1,0,-2,0zM567,567a1,1,0,1,0,2,0a1,1,0,1,0,-2,0zM569,563a1,1,0,1,0,2,0a1,1,0,1,0,-2,0zM571,564a1,1,0,1,0,2,0a1,1,0,1,0,-2,0zM572,563a1,1,0,1,0,2,0a1,1,0,1,0,-2,0zM574,561a1,1,0,1,0,2,0a1,1,0,1,0,-2,0zM576,561a1,1,0,1,0,2,0a1,1,0,1,0,-2,0zM578,562a1,1,0,1,0,2,0a1,1,0,1,0,-2,0zM579,562a1,1,0,1,0,2,0a1,1,0,1,0,-2,0zM581,562a1,1,0,1,0,2,0a1,1,0,1,0,-2,0zM583,561a1,1,0,1,0,2,0a1,1,0,1,0,-2,0zM584,561a1,1,0,1,0,2,0a1,1,0,1,0,-2,0zM586,562a1,1,0,1,0,2,0a1,1,0,1,0,-2,0zM588,563a1,1,0,1,0,2,0a1,1,0,1,0,-2,0zM590,563a1,1,0,1,0,2,0a1,1,0,1,0,-2,0zM591,565a1,1,0,1,0,2,0a1,1,0,1,0,-2,0zM593,567a1,1,0,1,0,2,0a1,1,0,1,0,-2,0zM595,571a1,1,0,1,0,2,0a1,1,0,1,0,-2,0zM597,571a1,1,0,1,0,2,0a1,1,0,1,0,-2,0zM598,571a1,1,0,1,0,2,0a1,1,0,1,0,-2,0zM600,571a1,1,0,1,0,2,0a1,1,0,1,0,-2,0zM602,569a1,1,0,1,0,2,0a1,1,0,1,0,-2,0zM603,568a1,1,0,1,0,2,0a1,1,0,1,0,-2,0zM605,567a1,1,0,1,0,2,0a1,1,0,1,0,-2,0zM607,567a1,1,0,1,0,2,0a1,1,0,1,0,-2,0zM609,565a1,1,0,1,0,2,0a1,1,0,1,0,-2,0zM610,564a1,1,0,1,0,2,0a1,1,0,1,0,-2,0zM612,563a1,1,0,1,0,2,0a1,1,0,1,0,-2,0zM614,564a1,1,0,1,0,2,0a1,1,0,1,0,-2,0zM616,562a1,1,0,1,0,2,0a1,1,0,1,0,-2,0zM617,560a1,1,0,1,0,2,0a1,1,0,1,0,-2,0zM619,560a1,1,0,1,0,2,0a1,1,0,1,0,-2,0zM621,560a1,1,0,1,0,2,0a1,1,0,1,0,-2,0zM622,559a1,1,0,1,0,2,0a1,1,0,1,0,-2,0zM624,559a1,1,0,1,0,2,0a1,1,0,1,0,-2,0zM626,562a1,1,0,1,0,2,0a1,1,0,1,0,-2,0zM628,562a1,1,0,1,0,2,0a1,1,0,1,0,-2,0zM629,564a1,1,0,1,0,2,0a1,1,0,1,0,-2,0zM631,563a1,1,0,1,0,2,0a1,1,0,1,0,-2,0zM633,565a1,1,0,1,0,2,0a1,1,0,1,0,-2,0zM635,567a1,1,0,1,0,2,0a1,1,0,1,0,-2,0zM636,567a1,1,0,1,0,2,0a1,1,0,1,0,-2,0zM638,572a1,1,0,1,0,2,0a1,1,0,1,0,-2,0zM640,570a1,1,0,1,0,2,0a1,1,0,1,0,-2,0zM641,568a1,1,0,1,0,2,0a1,1,0,1,0,-2,0zM643,566a1,1,0,1,0,2,0a1,1,0,1,0,-2,0zM645,565a1,1,0,1,0,2,0a1,1,0,1,0,-2,0zM647,568a1,1,0,1,0,2,0a1,1,0,1,0,-2,0zM648,567a1,1,0,1,0,2,0a1,1,0,1,0,-2,0zM650,566a1,1,0,1,0,2,0a1,1,0,1,0,-2,0zM652,564a1,1,0,1,0,2,0a1,1,0,1,0,-2,0zM654,565a1,1,0,1,0,2,0a1,1,0,1,0,-2,0zM655,565a1,1,0,1,0,2,0a1,1,0,1,0,-2,0zM657,562a1,1,0,1,0,2,0a1,1,0,1,0,-2,0zM659,562a1,1,0,1,0,2,0a1,1,0,1,0,-2,0zM660,561a1,1,0,1,0,2,0a1,1,0,1,0,-2,0zM662,562a1,1,0,1,0,2,0a1,1,0,1,0,-2,0zM664,559a1,1,0,1,0,2,0a1,1,0,1,0,-2,0zM666,562a1,1,0,1,0,2,0a1,1,0,1,0,-2,0zM667,559a1,1,0,1,0,2,0a1,1,0,1,0,-2,0zM669,557a1,1,0,1,0,2,0a1,1,0,1,0,-2,0zM671,557a1,1,0,1,0,2,0a1,1,0,1,0,-2,0zM673,559a1,1,0,1,0,2,0a1,1,0,1,0,-2,0zM674,557a1,1,0,1,0,2,0a1,1,0,1,0,-2,0zM676,560a1,1,0,1,0,2,0a1,1,0,1,0,-2,0zM678,561a1,1,0,1,0,2,0a1,1,0,1,0,-2,0zM679,563a1,1,0,1,0,2,0a1,1,0,1,0,-2,0zM681,564a1,1,0,1,0,2,0a1,1,0,1,0,-2,0zM683,563a1,1,0,1,0,2,0a1,1,0,1,0,-2,0zM685,561a1,1,0,1,0,2,0a1,1,0,1,0,-2,0zM686,562a1,1,0,1,0,2,0a1,1,0,1,0,-2,0zM688,561a1,1,0,1,0,2,0a1,1,0,1,0,-2,0zM690,562a1,1,0,1,0,2,0a1,1,0,1,0,-2,0zM692,561a1,1,0,1,0,2,0a1,1,0,1,0,-2,0zM693,562a1,1,0,1,0,2,0a1,1,0,1,0,-2,0zM695,560a1,1,0,1,0,2,0a1,1,0,1,0,-2,0zM697,562a1,1,0,1,0,2,0a1,1,0,1,0,-2,0zM698,562a1,1,0,1,0,2,0a1,1,0,1,0,-2,0zM700,564a1,1,0,1,0,2,0a1,1,0,1,0,-2,0zM702,566a1,1,0,1,0,2,0a1,1,0,1,0,-2,0zM704,566a1,1,0,1,0,2,0a1,1,0,1,0,-2,0zM705,566a1,1,0,1,0,2,0a1,1,0,1,0,-2,0zM707,567a1,1,0,1,0,2,0a1,1,0,1,0,-2,0zM709,568a1,1,0,1,0,2,0a1,1,0,1,0,-2,0zM711,570a1,1,0,1,0,2,0a1,1,0,1,0,-2,0zM712,570a1,1,0,1,0,2,0a1,1,0,1,0,-2,0zM714,572a1,1,0,1,0,2,0a1,1,0,1,0,-2,0zM716,573a1,1,0,1,0,2,0a1,1,0,1,0,-2,0zM717,576a1,1,0,1,0,2,0a1,1,0,1,0,-2,0zM719,575a1,1,0,1,0,2,0a1,1,0,1,0,-2,0zM721,577a1,1,0,1,0,2,0a1,1,0,1,0,-2,0zM723,578a1,1,0,1,0,2,0a1,1,0,1,0,-2,0zM724,577a1,1,0,1,0,2,0a1,1,0,1,0,-2,0zM726,575a1,1,0,1,0,2,0a1,1,0,1,0,-2,0zM728,572a1,1,0,1,0,2,0a1,1,0,1,0,-2,0zM730,570a1,1,0,1,0,2,0a1,1,0,1,0,-2,0zM731,573a1,1,0,1,0,2,0a1,1,0,1,0,-2,0zM733,572a1,1,0,1,0,2,0a1,1,0,1,0,-2,0zM735,572a1,1,0,1,0,2,0a1,1,0,1,0,-2,0zM736,572a1,1,0,1,0,2,0a1,1,0,1,0,-2,0zM738,573a1,1,0,1,0,2,0a1,1,0,1,0,-2,0zM740,572a1,1,0,1,0,2,0a1,1,0,1,0,-2,0zM742,573a1,1,0,1,0,2,0a1,1,0,1,0,-2,0zM743,570a1,1,0,1,0,2,0a1,1,0,1,0,-2,0zM745,570a1,1,0,1,0,2,0a1,1,0,1,0,-2,0zM747,571a1,1,0,1,0,2,0a1,1,0,1,0,-2,0zM749,571a1,1,0,1,0,2,0a1,1,0,1,0,-2,0zM750,567a1,1,0,1,0,2,0a1,1,0,1,0,-2,0zM752,568a1,1,0,1,0,2,0a1,1,0,1,0,-2,0zM754,566a1,1,0,1,0,2,0a1,1,0,1,0,-2,0zM755,562a1,1,0,1,0,2,0a1,1,0,1,0,-2,0zM757,561a1,1,0,1,0,2,0a1,1,0,1,0,-2,0zM759,557a1,1,0,1,0,2,0a1,1,0,1,0,-2,0zM761,557a1,1,0,1,0,2,0a1,1,0,1,0,-2,0zM762,557a1,1,0,1,0,2,0a1,1,0,1,0,-2,0zM764,554a1,1,0,1,0,2,0a1,1,0,1,0,-2,0zM766,553a1,1,0,1,0,2,0a1,1,0,1,0,-2,0zM768,555a1,1,0,1,0,2,0a1,1,0,1,0,-2,0zM769,557a1,1,0,1,0,2,0a1,1,0,1,0,-2,0zM771,554a1,1,0,1,0,2,0a1,1,0,1,0,-2,0zM773,553a1,1,0,1,0,2,0a1,1,0,1,0,-2,0zM774,555a1,1,0,1,0,2,0a1,1,0,1,0,-2,0zM776,552a1,1,0,1,0,2,0a1,1,0,1,0,-2,0zM778,553a1,1,0,1,0,2,0a1,1,0,1,0,-2,0zM780,551a1,1,0,1,0,2,0a1,1,0,1,0,-2,0zM781,551a1,1,0,1,0,2,0a1,1,0,1,0,-2,0zM783,551a1,1,0,1,0,2,0a1,1,0,1,0,-2,0zM785,555a1,1,0,1,0,2,0a1,1,0,1,0,-2,0zM787,552a1,1,0,1,0,2,0a1,1,0,1,0,-2,0zM788,553a1,1,0,1,0,2,0a1,1,0,1,0,-2,0zM790,552a1,1,0,1,0,2,0a1,1,0,1,0,-2,0zM792,550a1,1,0,1,0,2,0a1,1,0,1,0,-2,0zM793,551a1,1,0,1,0,2,0a1,1,0,1,0,-2,0zM795,551a1,1,0,1,0,2,0a1,1,0,1,0,-2,0zM797,553a1,1,0,1,0,2,0a1,1,0,1,0,-2,0zM799,556a1,1,0,1,0,2,0a1,1,0,1,0,-2,0zM800,557a1,1,0,1,0,2,0a1,1,0,1,0,-2,0zM802,559a1,1,0,1,0,2,0a1,1,0,1,0,-2,0zM804,560a1,1,0,1,0,2,0a1,1,0,1,0,-2,0zM806,559a1,1,0,1,0,2,0a1,1,0,1,0,-2,0zM807,558a1,1,0,1,0,2,0a1,1,0,1,0,-2,0zM809,558a1,1,0,1,0,2,0a1,1,0,1,0,-2,0zM811,556a1,1,0,1,0,2,0a1,1,0,1,0,-2,0zM812,558a1,1,0,1,0,2,0a1,1,0,1,0,-2,0zM814,560a1,1,0,1,0,2,0a1,1,0,1,0,-2,0zM816,564a1,1,0,1,0,2,0a1,1,0,1,0,-2,0zM818,564a1,1,0,1,0,2,0a1,1,0,1,0,-2,0zM819,560a1,1,0,1,0,2,0a1,1,0,1,0,-2,0zM821,565a1,1,0,1,0,2,0a1,1,0,1,0,-2,0zM823,566a1,1,0,1,0,2,0a1,1,0,1,0,-2,0zM825,565a1,1,0,1,0,2,0a1,1,0,1,0,-2,0zM826,564a1,1,0,1,0,2,0a1,1,0,1,0,-2,0zM828,564a1,1,0,1,0,2,0a1,1,0,1,0,-2,0zM830,565a1,1,0,1,0,2,0a1,1,0,1,0,-2,0zM831,566a1,1,0,1,0,2,0a1,1,0,1,0,-2,0zM833,569a1,1,0,1,0,2,0a1,1,0,1,0,-2,0zM835,567a1,1,0,1,0,2,0a1,1,0,1,0,-2,0zM837,565a1,1,0,1,0,2,0a1,1,0,1,0,-2,0zM838,565a1,1,0,1,0,2,0a1,1,0,1,0,-2,0zM840,561a1,1,0,1,0,2,0a1,1,0,1,0,-2,0zM842,563a1,1,0,1,0,2,0a1,1,0,1,0,-2,0zM844,566a1,1,0,1,0,2,0a1,1,0,1,0,-2,0zM845,568a1,1,0,1,0,2,0a1,1,0,1,0,-2,0zM847,570a1,1,0,1,0,2,0a1,1,0,1,0,-2,0zM849,570a1,1,0,1,0,2,0a1,1,0,1,0,-2,0zM850,570a1,1,0,1,0,2,0a1,1,0,1,0,-2,0zM852,570a1,1,0,1,0,2,0a1,1,0,1,0,-2,0zM854,570a1,1,0,1,0,2,0a1,1,0,1,0,-2,0zM856,570a1,1,0,1,0,2,0a1,1,0,1,0,-2,0zM857,572a1,1,0,1,0,2,0a1,1,0,1,0,-2,0zM859,573a1,1,0,1,0,2,0a1,1,0,1,0,-2,0zM861,572a1,1,0,1,0,2,0a1,1,0,1,0,-2,0z" style="stroke: #000000; fill: #000000;"></path></g></svg><g><g transform="translate(0,632)"><path d="M0,0h948M0,-632h948M0,-19V0M17,-10V0M35,-10V0M52,-10V0M69,-10V0M86,-19V0M104,-10V0M121,-10V0M138,-10V0M155,-10V0M173,-19V0M190,-10V0M207,-10V0M225,-10V0M242,-10V0M259,-19V0M276,-10V0M294,-10V0M311,-10V0M328,-10V0M345,-19V0M363,-10V0M380,-10V0M397,-10V0M415,-10V0M432,-19V0M449,-10V0M466,-10V0M484,-10V0M501,-10V0M518,-19V0M535,-10V0M553,-10V0M570,-10V0M587,-10V0M604,-19V0M622,-10V0M639,-10V0M656,-10V0M674,-10V0M691,-19V0M708,-10V0M725,-10V0M743,-10V0M760,-10V0M777,-19V0M794,-10V0M812,-10V0M829,-10V0M846,-10V0M864,-19V0M881,-10V0M898,-10V0M915,-10V0M933,-10V0M0,-613V-632M17,-622V-632M35,-622V-632M52,-622V-632M69,-622V-632M86,-613V-632M104,-622V-632M121,-622V-632M138,-622V-632M155,-622V-632M173,-613V-632M190,-622V-632M207,-622V-632M225,-622V-632M242,-622V-632M259,-613V-632M276,-622V-632M294,-622V-632M311,-622V-632M328,-622V-632M345,-613V-632M363,-622V-632M380,-622V-632M397,-622V-632M415,-622V-632M432,-613V-632M449,-622V-632M466,-622V-632M484,-622V-632M501,-622V-632M518,-613V-632M535,-622V-632M553,-622V-632M570,-622V-632M587,-622V-632M604,-613V-632M622,-622V-632M639,-622V-632M656,-622V-632M674,-622V-632M691,-613V-632M708,-622V-632M725,-622V-632M743,-622V-632M760,-622V-632M777,-613V-632M794,-622V-632M812,-622V-632M829,-622V-632M846,-622V-632M864,-613V-632M881,-622V-632M898,-622V-632M915,-622V-632M933,-622V-632" style="stroke: #000000; stroke-width: 1;"></path><g font-family="Arial" font-size="28" space="preserve" fill="#000000" text-anchor="middle"><text dy=".8em" transform="translate(0,5)">0</text><text dy=".8em" transform="translate(86,5)">50</text><text dy=".8em" transform="translate(173,5)">100</text><text dy=".8em" transform="translate(259,5)">150</text><text dy=".8em" transform="translate(345,5)">200</text><text dy=".8em" transform="translate(432,5)">250</text><text dy=".8em" transform="translate(518,5)">300</text><text dy=".8em" transform="translate(604,5)">350</text><text dy=".8em" transform="translate(691,5)">400</text><text dy=".8em" transform="translate(777,5)">450</text><text dy=".8em" transform="translate(864,5)">500</text></g></g><g><path d="M0,0v632M948,0v632M14,625H0M14,613H0M14,601H0M14,588H0M28,576H0M14,564H0M14,551H0M14,539H0M14,527H0M28,514H0M14,502H0M14,490H0M14,478H0M14,465H0M28,453H0M14,441H0M14,428H0M14,416H0M14,404H0M28,391H0M14,379H0M14,367H0M14,354H0M14,342H0M28,330H0M14,317H0M14,305H0M14,293H0M14,281H0M28,268H0M14,256H0M14,244H0M14,231H0M14,219H0M28,207H0M14,194H0M14,182H0M14,170H0M14,157H0M28,145H0M14,133H0M14,120H0M14,108H0M14,96H0M28,84H0M14,71H0M14,59H0M14,47H0M14,34H0M28,22H0M14,10H0M934,625H948M934,613H948M934,601H948M934,588H948M920,576H948M934,564H948M934,551H948M934,539H948M934,527H948M920,514H948M934,502H948M934,490H948M934,478H948M934,465H948M920,453H948M934,441H948M934,428H948M934,416H948M934,404H948M920,391H948M934,379H948M934,367H948M934,354H948M934,342H948M920,330H948M934,317H948M934,305H948M934,293H948M934,281H948M920,268H948M934,256H948M934,244H948M934,231H948M934,219H948M920,207H948M934,194H948M934,182H948M934,170H948M934,157H948M920,145H948M934,133H948M934,120H948M934,108H948M934,96H948M920,84H948M934,71H948M934,59H948M934,47H948M934,34H948M920,22H948M934,10H948" style="stroke: #000000; stroke-width: 1;"></path><g font-family="Arial" font-size="28" space="preserve" fill="#000000" text-anchor="end"><text dy=".4em" transform="translate(-6,576)">0.1</text><text dy=".4em" transform="translate(-6,514)">0.2</text><text dy=".4em" transform="translate(-6,453)">0.3</text><text dy=".4em" transform="translate(-6,391)">0.4</text><text dy=".4em" transform="translate(-6,330)">0.5</text><text dy=".4em" transform="translate(-6,268)">0.6</text><text dy=".4em" transform="translate(-6,207)">0.7</text><text dy=".4em" transform="translate(-6,145)">0.8</text><text dy=".4em" transform="translate(-6,84)">0.9</text><text dy=".4em" transform="translate(-6,22)">1</text></g></g></g></g><g transform="translate(-462,4)" style="display: none;"><path d="M948,2h2v25h-948v-2h946z" style="fill: #000000; stroke: #000000; stroke-width: 1px;"></path><path d="M0,0H948V25H0Z" style="fill: #f2f2f2; stroke: #000000; stroke-width: 1;"></path></g><svg viewBox="0 0 840 480" preserveAspectRatio="none" x="360" y="0" width="840" height="480"><path d="M0,0H840V480H0Z" style="fill: #ccccff;"></path><g><g font-family="Arial" font-size="24" space="preserve"><text fill="#000000" text-anchor="middle" dy=".4em" transform="translate(420,240)">please move the mouse over the graPad</text></g></g></svg></g></svg>