<svg xmlns="http://www.w3.org/2000/svg" viewBox="0 0 1200 800" preserveAspectRatio="none" width="1200" height="800"><path d="M0,0H1200V800H0Z" style="fill: #ffffff;"></path><g><g transform="translate(60,160)" font-family="Arial" font-size="33" space="preserve"><path d="M1080,4h4v560h-1080v-4h1076z" style="fill: #000000; stroke: #000000; stroke-width: 1px;"></path><path d="M0,0H1080V560H0Z" style="fill: #f2f2f2; stroke: #000000; stroke-width: 1;"></path><g transform="translate(186,105) scale(0.212)"><g><text fill="#000000" font-size="159" transform="translate(41,-94)">2s</text><path style="stroke: #000000; stroke-width: 11; fill: none;" d="M0,-56h231"></path><g transform="translate(0,119)"><text fill="#000000" font-size="159">πα</text><text fill="#000000" font-size="95" transform="translate(195,-83)">2</text></g></g><g transform="translate(374)"><text fill="#000000" font-size="159" transform="translate(121,-94)">dσ</text><path style="stroke: #000000; stroke-width: 11; fill: none;" d="M0,-56h409"></path><text fill="#000000" font-size="159" transform="translate(0,97)">dcosθ</text></g><text fill="#000000" font-size="159" x="863">(e</text><text fill="#000000" font-size="95" transform="translate(1005,-83)">+</text><text fill="#000000" font-size="159" x="1060">e</text><text fill="#000000" font-size="95" transform="translate(1148,-83)">-</text><text fill="#000000" font-size="159" x="1243">→ f</text><g transform="translate(1499)"><text fill="#000000" font-size="159" text-decoration="overline">f</text></g><text fill="#000000" font-size="159" x="1615">) =</text><g transform="translate(1868)"><path style="stroke: #000000; stroke-width: 11; fill: none;" d="M32,-247v382"></path><g transform="translate(64)"><g transform="translate(64)"><text fill="#000000" font-size="159" transform="translate(168,-94)">1</text><path style="stroke: #000000; stroke-width: 11; fill: none;" d="M0,-56h401"></path><text fill="#000000" font-size="159" transform="translate(0,97)">1 - Δα</text></g></g><path style="stroke: #000000; stroke-width: 11; fill: none;" d="M641,-247v382"></path></g><text fill="#000000" font-size="95" transform="translate(2546,-171)">2</text><text fill="#000000" font-size="159" x="2662">(1+cos</text><text fill="#000000" font-size="95" transform="translate(3143,-83)">2</text><text fill="#000000" font-size="159" x="3195">θ)</text></g><g transform="translate(121,292) scale(0.212)"><text fill="#000000" font-size="159">+ 4 Re</text><g transform="translate(517)"><path style="stroke: #000000; stroke-width: 11; fill: none;" d="M64,-247a32,32,0,0,0,-32,32v127a32,32,0,0,1,-32,32a32,32,0,0,1,32,32v127a32,32,0,0,0,32,32"></path><g transform="translate(64)"><g transform="translate(64)"><text fill="#000000" font-size="159" transform="translate(165,-94)">2</text><path style="stroke: #000000; stroke-width: 11; fill: none;" d="M0,-56h401"></path><text fill="#000000" font-size="159" transform="translate(0,97)">1 - Δα</text></g><text fill="#000000" font-size="159" x="545">χ(s)</text><g transform="translate(880)"><path style="stroke: #000000; stroke-width: 11; fill: none;" d="M64,-175h-32v230h32"></path><g transform="translate(64)"><g><text fill="#000000" font-size="159" transform="translate(3)">g</text><path style="stroke: #000000; stroke-width: 11; fill: none;" d="M19,-114L48,-146L77,-114"></path></g><text fill="#000000" font-size="95" transform="translate(94,-83)">e</text><text fill="#000000" font-size="95" transform="translate(94,33)">ν</text><g transform="translate(143)"><text fill="#000000" font-size="159" transform="translate(3)">g</text><path style="stroke: #000000; stroke-width: 11; fill: none;" d="M19,-114L48,-146L77,-114"></path></g><text fill="#000000" font-size="95" transform="translate(237,-83)">f</text><text fill="#000000" font-size="95" transform="translate(237,33)">ν</text><text fill="#000000" font-size="159" x="348">(1 + cos</text><text fill="#000000" font-size="95" transform="translate(912,-83)">2</text><text fill="#000000" font-size="159" x="964">θ) + 2</text><g transform="translate(1434)"><text fill="#000000" font-size="159" transform="translate(3)">g</text><path style="stroke: #000000; stroke-width: 11; fill: none;" d="M19,-114L48,-146L77,-114"></path></g><text fill="#000000" font-size="95" transform="translate(1528,-83)">e</text><text fill="#000000" font-size="95" transform="translate(1528,33)">a</text><g transform="translate(1579)"><text fill="#000000" font-size="159" transform="translate(3)">g</text><path style="stroke: #000000; stroke-width: 11; fill: none;" d="M19,-114L48,-146L77,-114"></path></g><text fill="#000000" font-size="95" transform="translate(1673,-83)">f</text><text fill="#000000" font-size="95" transform="translate(1673,33)">a</text><text fill="#000000" font-size="159" x="1788">cosθ)</text></g><path style="stroke: #000000; stroke-width: 11; fill: none;" d="M2303,-175h32v230h-32"></path></g></g><path style="stroke: #000000; stroke-width: 11; fill: none;" d="M3375,-247a32,32,0,0,1,32,32v127a32,32,0,0,0,32,32a32,32,0,0,0,-32,32v127a32,32,0,0,1,-32,32"></path></g></g><g transform="translate(77,479) scale(0.212)"><text fill="#000000" font-size="159">+ 16</text><g transform="translate(303)"><path style="stroke: #000000; stroke-width: 11; fill: none;" d="M32,-153v191"></path><text fill="#000000" font-size="159" transform="translate(64)">χ(s)</text><path style="stroke: #000000; stroke-width: 11; fill: none;" d="M367,-153v191"></path></g><text fill="#000000" font-size="95" transform="translate(707,-83)">2</text><g transform="translate(823)"><path style="stroke: #000000; stroke-width: 11; fill: none;" d="M64,-175h-32v231h32"></path><g transform="translate(64)"><text fill="#000000" font-size="159">(</text><g transform="translate(54)"><text fill="#000000" font-size="159" transform="translate(3)">g</text><path style="stroke: #000000; stroke-width: 11; fill: none;" d="M19,-114L48,-146L77,-114"></path></g><g transform="translate(148,-70)"><text fill="#000000" font-size="95">e</text><text fill="#000000" font-size="57" transform="translate(53,-50)">2</text></g><text fill="#000000" font-size="95" transform="translate(148,33)">a</text><text fill="#000000" font-size="159" x="296">+</text><g transform="translate(453)"><text fill="#000000" font-size="159" transform="translate(3)">g</text><path style="stroke: #000000; stroke-width: 11; fill: none;" d="M19,-114L48,-146L77,-114"></path></g><g transform="translate(547,-70)"><text fill="#000000" font-size="95">e</text><text fill="#000000" font-size="57" transform="translate(53,-50)">2</text></g><text fill="#000000" font-size="95" transform="translate(547,33)">v</text><text fill="#000000" font-size="159" x="631">)(</text><g transform="translate(740)"><text fill="#000000" font-size="159" transform="translate(3)">g</text><path style="stroke: #000000; stroke-width: 11; fill: none;" d="M19,-114L48,-146L77,-114"></path></g><g transform="translate(834,-70)"><text fill="#000000" font-size="95">f</text><text fill="#000000" font-size="57" transform="translate(44,-50)">2</text></g><text fill="#000000" font-size="95" transform="translate(834,33)">a</text><text fill="#000000" font-size="159" x="973">+</text><g transform="translate(1130)"><text fill="#000000" font-size="159" transform="translate(3)">g</text><path style="stroke: #000000; stroke-width: 11; fill: none;" d="M19,-114L48,-146L77,-114"></path></g><g transform="translate(1224,-70)"><text fill="#000000" font-size="95">f</text><text fill="#000000" font-size="57" transform="translate(44,-50)">2</text></g><text fill="#000000" font-size="95" transform="translate(1224,33)">v</text><text fill="#000000" font-size="159" x="1299">)(1+cos</text><text fill="#000000" font-size="95" transform="translate(1835,-83)">2</text><text fill="#000000" font-size="159" x="1887">θ)+ 8</text><g transform="translate(2315)"><text fill="#000000" font-size="159" transform="translate(3)">g</text><path style="stroke: #000000; stroke-width: 11; fill: none;" d="M19,-114L48,-146L77,-114"></path></g><text fill="#000000" font-size="95" transform="translate(2409,-83)">e</text><text fill="#000000" font-size="95" transform="translate(2409,33)">a</text><g transform="translate(2524)"><text fill="#000000" font-size="159" transform="translate(3)">g</text><path style="stroke: #000000; stroke-width: 11; fill: none;" d="M19,-114L48,-146L77,-114"></path></g><text fill="#000000" font-size="95" transform="translate(2618,-83)">f</text><text fill="#000000" font-size="95" transform="translate(2618,33)">a</text><g transform="translate(2733)"><text fill="#000000" font-size="159" transform="translate(3)">g</text><path style="stroke: #000000; stroke-width: 11; fill: none;" d="M19,-114L48,-146L77,-114"></path></g><text fill="#000000" font-size="95" transform="translate(2827,-83)">e</text><text fill="#000000" font-size="95" transform="translate(2827,33)">v</text><g transform="translate(2876)"><text fill="#000000" font-size="159" transform="translate(3)">g</text><path style="stroke: #000000; stroke-width: 11; fill: none;" d="M19,-114L48,-146L77,-114"></path></g><text fill="#000000" font-size="95" transform="translate(2970,-83)">f</text><text fill="#000000" font-size="95" transform="translate(2970,33)">v</text><text fill="#000000" font-size="159" x="3018">cosθ</text></g><path style="stroke: #000000; stroke-width: 11; fill: none;" d="M3417,-175h32v231h-32"></path></g></g><g font-family="Arial" font-size="18" space="preserve"><path d="M270,-11h540v22h-540z" style="fill: #f2f2f2; stroke: #000000; stroke-width: 1;"></path><text fill="#000000" text-anchor="middle" dy=".4em" transform="translate(540)">Born equation</text></g></g></g></svg>