<svg xmlns="http://www.w3.org/2000/svg" viewBox="0 0 1200 800" preserveAspectRatio="none" width="1200" height="800"><path d="M0,0H1200V800H0Z" style="fill: #ffffff;"></path><g><g><path d="M120,600H240" style="stroke: #000000; stroke-width: 4;"></path></g><g><path d="M120,160H240" style="stroke: #000000; stroke-width: 4;"></path></g><g><path d="M360,80H480" style="stroke: #000000; stroke-width: 4;"></path></g><g><path d="M360,520H480" style="stroke: #000000; stroke-width: 4;"></path></g><g><path d="M540,320H660" style="stroke: #000000; stroke-width: 4;"></path></g><g><path d="M696,256H816" style="stroke: #000000; stroke-width: 4;"></path></g><g><path d="M876,240H996" style="stroke: #000000; stroke-width: 4;"></path></g><g><path d="M1068,200H1188" style="stroke: #000000; stroke-width: 4;"></path></g><g><path d="M384,80L384,496M380,496l4,24l4,-24z" style="stroke: #000000; stroke-width: 1; fill: #000000;"></path></g><g><path d="M408,80L408,496M404,496l4,24l4,-24z" style="stroke: #000000; stroke-width: 1; fill: #000000;"></path></g><g><path d="M432,80L432,296M428,296l4,24l4,-24z" style="stroke: #000000; stroke-width: 1; fill: #000000;"></path></g><g><path d="M456,80L456,216M452,216l4,24l4,-24z" style="stroke: #000000; stroke-width: 1; fill: #000000;"></path></g><g><path d="M360,80L222,577M218,576l-2,24l10,-22z" style="stroke: #000000; stroke-width: 1; fill: #000000;"></path></g><g><path d="M360,520L248,588M246,584l-18,16l22,-9z" style="stroke: #000000; stroke-width: 1; fill: #000000;"></path></g><g><path d="M480,80L556,290M552,291l12,21l-4,-24z" style="stroke: #000000; stroke-width: 1; fill: #000000;"></path></g><g><path d="M180,600L180,624M176,624l4,24l4,-24z" style="stroke: #000000; stroke-width: 1; fill: #000000;"></path></g><g><path d="M180,160L180,184M176,184l4,24l4,-24z" style="stroke: #000000; stroke-width: 1; fill: #000000;"></path></g><g><path d="M600,320L600,344M596,344l4,24l4,-24z" style="stroke: #000000; stroke-width: 1; fill: #000000;"></path></g><g><path d="M720,256L720,280M716,280l4,24l4,-24z" style="stroke: #000000; stroke-width: 1; fill: #000000;"></path></g><g><path d="M1128,200L1128,224M1124,224l4,24l4,-24z" style="stroke: #000000; stroke-width: 1; fill: #000000;"></path></g><g><path d="M384,520L384,624M380,624l4,24l4,-24z" style="stroke: #000000; stroke-width: 1; fill: #000000;"></path></g><g><path d="M432,520L432,624M428,624l4,24l4,-24z" style="stroke: #000000; stroke-width: 1; fill: #000000;"></path></g><g><path d="M456,520L456,624M452,624l4,24l4,-24z" style="stroke: #000000; stroke-width: 1; fill: #000000;"></path></g><g><path d="M480,80L701,242M699,245l21,11l-17,-17z" style="stroke: #000000; stroke-width: 1; fill: #000000;"></path></g><g><path d="M480,80L1057,195M1056,199l24,1l-22,-9z" style="stroke: #000000; stroke-width: 1; fill: #000000;"></path></g><g><path d="M540,320L432,500M429,498l-9,22l16,-18z" style="stroke: #000000; stroke-width: 1; fill: #000000;"></path></g><g><path d="M360,80L237,149M235,145l-19,15l23,-8z" style="stroke: #000000; stroke-width: 1; stroke-dasharray: 3,3; fill: #000000;"></path></g><g><path d="M804,256L451,506M449,503l-17,17l22,-10z" style="stroke: #000000; stroke-width: 1; fill: #000000;"></path></g><g><path d="M936,240L465,508M463,505l-19,15l23,-8z" style="stroke: #000000; stroke-width: 1; stroke-dasharray: 3,3; fill: #000000;"></path></g><g><path d="M1092,200L489,509M487,506l-19,14l23,-7z" style="stroke: #000000; stroke-width: 1; fill: #000000;"></path></g><g font-family="Times New Roman" font-size="25" space="preserve"><text fill="#000000" text-anchor="middle" dy=".4em" transform="translate(180,216)">hadrons</text></g><g font-family="Times New Roman" font-size="25" space="preserve"><text fill="#000000" text-anchor="middle" dy=".4em" transform="translate(180,656)">hadrons</text></g><g font-family="Times New Roman" font-size="25" space="preserve"><text fill="#000000" text-anchor="middle" dy=".4em" transform="translate(384,656)">hadrons</text></g><g font-family="Times New Roman" font-size="25" space="preserve"><text fill="#000000" text-anchor="middle" dy=".4em" transform="translate(456,328)">hadrons</text></g><g font-family="Times New Roman" font-size="25" space="preserve"><text fill="#000000" text-anchor="middle" dy=".4em" transform="translate(600,376)">hadrons</text></g><g font-family="Times New Roman" font-size="25" space="preserve"><text fill="#000000" text-anchor="middle" dy=".4em" transform="translate(1128,256)">hadrons</text></g><g font-family="Times New Roman" font-size="25" space="preserve"><text fill="#000000" text-anchor="middle" dy=".4em" transform="translate(696,304)">hadrons</text></g><g font-family="Times New Roman" font-size="25" space="preserve"><text fill="#000000" text-anchor="middle" dy=".4em" transform="translate(492,656)">radiative</text></g><g font-family="Times New Roman" font-size="27" space="preserve"><g transform="translate(54,748)"><g font-family="Times New Roman" font-size="11" space="preserve" font-style="italic"><text fill="#000000" font-size="27">J</text><text fill="#000000" font-size="16" transform="translate(14,-14)">PC</text></g><text fill="#000000" font-size="27" x="45">=</text></g></g><g font-family="Times New Roman" font-size="27" space="preserve"><g transform="translate(165,748)"><text fill="#000000" font-size="27">0</text><text fill="#000000" font-size="16" transform="translate(15,-14)">-+</text></g></g><g font-family="Times New Roman" font-size="27" space="preserve"><g transform="translate(408,748)"><text fill="#000000" font-size="27">1</text><text fill="#000000" font-size="16" transform="translate(14,-14)">--</text></g></g><g font-family="Times New Roman" font-size="27" space="preserve"><g transform="translate(583,748)"><text fill="#000000" font-size="27">0</text><text fill="#000000" font-size="16" transform="translate(15,-14)">++</text></g></g><g font-family="Times New Roman" font-size="27" space="preserve"><g transform="translate(728,748)"><text fill="#000000" font-size="27">1</text><text fill="#000000" font-size="16" transform="translate(14,-14)">++</text></g></g><g font-family="Times New Roman" font-size="27" space="preserve"><g transform="translate(910,748)"><text fill="#000000" font-size="27">1</text><text fill="#000000" font-size="16" transform="translate(14,-14)">+-</text></g></g><g font-family="Times New Roman" font-size="27" space="preserve"><g transform="translate(1099,748)"><text fill="#000000" font-size="27">2</text><text fill="#000000" font-size="16" transform="translate(15,-14)">++</text></g></g><g font-family="Times New Roman" font-size="27" space="preserve"><g transform="translate(144,144)"><text fill="#000000" font-size="27">η</text><text fill="#000000" font-size="16" transform="translate(16,6)">c</text><text fill="#000000" font-size="27" x="24">(2S)</text></g></g><g font-family="Times New Roman" font-size="27" space="preserve"><g transform="translate(145,584)"><text fill="#000000" font-size="27">η</text><text fill="#000000" font-size="16" transform="translate(16,6)">c</text><text fill="#000000" font-size="27" x="24">(1S)</text></g></g><g font-family="Times New Roman" font-size="27" space="preserve"><g transform="translate(387,66)"><text fill="#000000" font-size="27">ψ(2S)</text></g></g><g font-family="Times New Roman" font-size="27" space="preserve"><g transform="translate(497,530)"><text font-family="Times New Roman" font-size="27" space="preserve" font-style="italic" fill="#000000">J</text><text fill="#000000" font-size="27" x="13">/ψ(1S)</text></g></g><g font-family="Times New Roman" font-size="27" space="preserve"><g transform="translate(573,304)"><text fill="#000000" font-size="27">χ</text><text fill="#000000" font-size="16" transform="translate(15,6)">c0</text><text fill="#000000" font-size="27" x="31">(1P)</text></g></g><g font-family="Times New Roman" font-size="27" space="preserve"><g transform="translate(717,240)"><text fill="#000000" font-size="27">χ</text><text fill="#000000" font-size="16" transform="translate(15,6)">c1</text><text fill="#000000" font-size="27" x="31">(1P)</text></g></g><g font-family="Times New Roman" font-size="27" space="preserve"><g transform="translate(896,224)"><text fill="#000000" font-size="27">h</text><text fill="#000000" font-size="16" transform="translate(16,6)">c1</text><text fill="#000000" font-size="27" x="32">(1P)</text></g></g><g font-family="Times New Roman" font-size="27" space="preserve"><g transform="translate(1089,184)"><text fill="#000000" font-size="27">χ</text><text fill="#000000" font-size="16" transform="translate(15,6)">c2</text><text fill="#000000" font-size="27" x="31">(1P)</text></g></g><g font-family="Times New Roman" font-size="27" space="preserve"><g transform="translate(276,112)"><text font-family="Times New Roman" font-size="27" space="preserve" font-style="italic" fill="#000000">γ</text></g></g><g font-family="Times New Roman" font-size="27" space="preserve"><g transform="translate(276,344)"><text font-family="Times New Roman" font-size="27" space="preserve" font-style="italic" fill="#000000">γ</text></g></g><g font-family="Times New Roman" font-size="27" space="preserve"><g transform="translate(528,184)"><text font-family="Times New Roman" font-size="27" space="preserve" font-style="italic" fill="#000000">γ</text></g></g><g font-family="Times New Roman" font-size="27" space="preserve"><g transform="translate(480,400)"><text font-family="Times New Roman" font-size="27" space="preserve" font-style="italic" fill="#000000">γ</text></g></g><g font-family="Times New Roman" font-size="27" space="preserve"><g transform="translate(540,432)"><text font-family="Times New Roman" font-size="27" space="preserve" font-style="italic" fill="#000000">γ</text></g></g><g font-family="Times New Roman" font-size="27" space="preserve"><g transform="translate(852,312)"><text font-family="Times New Roman" font-size="27" space="preserve" font-style="italic" fill="#000000">γ</text></g></g><g font-family="Times New Roman" font-size="27" space="preserve"><g transform="translate(288,552)"><text font-family="Times New Roman" font-size="27" space="preserve" font-style="italic" fill="#000000">γ</text></g></g><g font-family="Times New Roman" font-size="27" space="preserve"><g transform="translate(456,152)"><g font-family="Times New Roman" font-size="11" space="preserve" font-style="italic"><text fill="#000000" font-size="27">γ</text><text fill="#000000" font-size="16" transform="translate(15,-14)">∗</text></g></g></g><g font-family="Times New Roman" font-size="27" space="preserve"><g transform="translate(426,672)"><g font-family="Times New Roman" font-size="11" space="preserve" font-style="italic"><text fill="#000000" font-size="27">γ</text><text fill="#000000" font-size="16" transform="translate(15,-14)">∗</text></g></g></g><g font-family="Times New Roman" font-size="27" space="preserve"><g transform="translate(354,400)"><text fill="#000000" font-size="27">ππ</text></g></g><g font-family="Times New Roman" font-size="27" space="preserve"><g transform="translate(414,376)"><text fill="#000000" font-size="27">η,π</text><text fill="#000000" font-size="16" transform="translate(38,-14)">0</text></g></g><g font-family="Times New Roman" font-size="27" space="preserve"><g transform="translate(840,280)"><text fill="#000000" font-size="27">π</text><text fill="#000000" font-size="16" transform="translate(17,-14)">0</text></g></g></g></svg>