<svg xmlns="http://www.w3.org/2000/svg" viewBox="0 0 1200 800" preserveAspectRatio="none" width="1200" height="800"><path d="M0,0H1200V800H0Z" style="fill: #ffffff;"></path><g><svg viewBox="0 0 1176 384" preserveAspectRatio="none" x="12" y="8" width="1176" height="384"><path d="M0,0H1176V384H0Z" style="fill: #ffffff;"></path><g><g transform="translate(188,19)"><path d="M0,0H929V303H0Z" style="fill: #ffffff; stroke: #000000; stroke-width: 1;"></path><svg x="0" y="0" overflow="hidden" width="929" height="303" viewBox="0 0 929 303"><g><path d="M5,15l9,15l10,8l9,6l9,6l9,4l10,5l9,4l9,3l10,4l9,4l9,3l9,3l10,3l9,4l9,3l10,3l9,3l9,3l10,3l9,3l9,2l9,3l10,3l9,3l9,3l10,3l9,2l9,3l9,3l10,2l9,3l9,3l10,3l9,2l9,3l9,2l10,3l9,3l9,2l10,3l9,3l9,2l9,3l10,2l9,3l9,3l10,2l9,3l9,2l10,3l9,2l9,3l9,2l10,3l9,3l9,2l10,3l9,2l9,3l9,2l10,3l9,2l9,3l10,2l9,3l9,2l9,3l10,2l9,3l9,2l10,3l9,2l9,3l9,2l10,3l9,2l9,3l10,2l9,3l9,2l9,2l10,3l9,2l9,3l10,2l9,3l9,2l10,3l9,2l9,3l9,2l10,3l9,2l9,2l10,3l9,2l9,3l9,6h10" style="fill: none; stroke: #ff0000; stroke-width: 3;"></path></g><g><path d="M5,36l9,3l10,2l9,2l9,3l9,2l10,2l9,3l9,2l10,2l9,3l9,2l9,2l10,3l9,2l9,2l10,3l9,2l9,2l10,3l9,2l9,2l9,3l10,2l9,2l9,3l10,2l9,2l9,3l9,2l10,2l9,2l9,3l10,2l9,2l9,3l9,2l10,2l9,3l9,2l10,2l9,3l9,2l9,2l10,3l9,2l9,2l10,3l9,2l9,2l10,3l9,2l9,2l9,3l10,2l9,2l9,3l10,2l9,2l9,3l9,2l10,2l9,3l9,2l10,2l9,3l9,2l9,2l10,3l9,2l9,2l10,3l9,2l9,2l9,3l10,2l9,2l9,2l10,3l9,2l9,2l9,3l10,2l9,2l9,3l10,2l9,2l9,3l10,2l9,2l9,3l9,2l10,2l9,3l9,2l10,2l9,3l9,2l9,2l10,3" style="fill: none; stroke: #00ff00; stroke-width: 3;"></path></g><g><path d="M5,106l9,-23l10,-10l9,-5l9,-4l9,-2l10,-2l9,-1h9h10h9h9h9l10,1h9l9,1l10,1l9,1l9,1l10,1l9,1l9,1l9,2l10,1l9,1l9,2l10,1l9,2l9,1l9,2l10,1l9,2l9,1l10,2l9,2l9,1l9,2l10,2l9,1l9,2l10,2l9,2l9,1l9,2l10,2l9,2l9,2l10,1l9,2l9,2l10,2l9,2l9,2l9,2l10,2l9,1l9,2l10,2l9,2l9,2l9,2l10,2l9,2l9,2l10,2l9,2l9,2l9,2l10,2l9,2l9,2l10,2l9,2l9,2l9,2l10,2l9,2l9,2l10,2l9,2l9,2l9,2l10,2l9,2l9,2l10,2l9,2l9,2l10,2l9,2l9,2l9,3l10,2l9,2l9,2l10,2l9,2l9,2l9,2l10,2" style="fill: none; stroke: #0000ff; stroke-width: 3;"></path></g><g><path d="M5,308l9,-19l10,-45l9,-29l9,-21l9,-16l10,-14l9,-11l9,-9l10,-8l9,-7l9,-6l9,-6l10,-4l9,-5l9,-4l10,-3l9,-3l9,-3l10,-3l9,-2l9,-2l9,-2l10,-2l9,-1l9,-2l10,-1l9,-1l9,-1l9,-1l10,-1h9l9,-1h10l9,-1h9h9l10,-1h9h9h10h9h9l9,1h10h9h9l10,1h9h9l10,1h9l9,1l9,1h10l9,1h9l10,1l9,1l9,1h9l10,1l9,1l9,1l10,1l9,1l9,1h9l10,1l9,1l9,1l10,1l9,1l9,2l9,1l10,1l9,1l9,1l10,1l9,1l9,1l9,2l10,1l9,1l9,1l10,1l9,2l9,1l10,1l9,1l9,2l9,1l10,1l9,2l9,1l10,1l9,2l9,1l9,1l10,2" style="fill: none; stroke: #ff00ff; stroke-width: 3;"></path></g></svg><g><g transform="translate(0,303)"><path d="M0,0h929M0,-303h929M0,-9V0M19,-5V0M37,-5V0M56,-5V0M74,-5V0M93,-9V0M111,-5V0M130,-5V0M149,-5V0M167,-5V0M186,-9V0M204,-5V0M223,-5V0M242,-5V0M260,-5V0M279,-9V0M297,-5V0M316,-5V0M334,-5V0M353,-5V0M372,-9V0M390,-5V0M409,-5V0M427,-5V0M446,-5V0M465,-9V0M483,-5V0M502,-5V0M520,-5V0M539,-5V0M557,-9V0M576,-5V0M595,-5V0M613,-5V0M632,-5V0M650,-9V0M669,-5V0M687,-5V0M706,-5V0M725,-5V0M743,-9V0M762,-5V0M780,-5V0M799,-5V0M818,-5V0M836,-9V0M855,-5V0M873,-5V0M892,-5V0M910,-5V0M929,-9V0M0,-294V-303M19,-298V-303M37,-298V-303M56,-298V-303M74,-298V-303M93,-294V-303M111,-298V-303M130,-298V-303M149,-298V-303M167,-298V-303M186,-294V-303M204,-298V-303M223,-298V-303M242,-298V-303M260,-298V-303M279,-294V-303M297,-298V-303M316,-298V-303M334,-298V-303M353,-298V-303M372,-294V-303M390,-298V-303M409,-298V-303M427,-298V-303M446,-298V-303M465,-294V-303M483,-298V-303M502,-298V-303M520,-298V-303M539,-298V-303M557,-294V-303M576,-298V-303M595,-298V-303M613,-298V-303M632,-298V-303M650,-294V-303M669,-298V-303M687,-298V-303M706,-298V-303M725,-298V-303M743,-294V-303M762,-298V-303M780,-298V-303M799,-298V-303M818,-298V-303M836,-294V-303M855,-298V-303M873,-298V-303M892,-298V-303M910,-298V-303M929,-294V-303" style="stroke: #000000; stroke-width: 1;"></path><g font-family="Arial" font-size="19" space="preserve" fill="#000000" text-anchor="middle"><text dy=".8em" transform="translate(0,2)">0</text><text dy=".8em" transform="translate(93,2)">1</text><text dy=".8em" transform="translate(186,2)">2</text><text dy=".8em" transform="translate(279,2)">3</text><text dy=".8em" transform="translate(372,2)">4</text><text dy=".8em" transform="translate(465,2)">5</text><text dy=".8em" transform="translate(557,2)">6</text><text dy=".8em" transform="translate(650,2)">7</text><text dy=".8em" transform="translate(743,2)">8</text><text dy=".8em" transform="translate(836,2)">9</text><text dy=".8em" transform="translate(929,2)">10</text></g></g><g><path d="M0,0v303M929,0v303M28,303H0M14,287H0M14,277H0M14,271H0M14,266H0M14,261H0M14,258H0M14,255H0M14,252H0M28,249H0M14,233H0M14,224H0M14,217H0M14,212H0M14,208H0M14,204H0M14,201H0M14,198H0M28,196H0M14,180H0M14,170H0M14,164H0M14,158H0M14,154H0M14,151H0M14,148H0M14,145H0M28,142H0M14,126H0M14,117H0M14,110H0M14,105H0M14,101H0M14,97H0M14,94H0M14,91H0M28,89H0M14,73H0M14,63H0M14,57H0M14,51H0M14,47H0M14,44H0M14,40H0M14,38H0M28,35H0M14,19H0M14,10H0M14,3H0M901,303H929M915,287H929M915,277H929M915,271H929M915,266H929M915,261H929M915,258H929M915,255H929M915,252H929M901,249H929M915,233H929M915,224H929M915,217H929M915,212H929M915,208H929M915,204H929M915,201H929M915,198H929M901,196H929M915,180H929M915,170H929M915,164H929M915,158H929M915,154H929M915,151H929M915,148H929M915,145H929M901,142H929M915,126H929M915,117H929M915,110H929M915,105H929M915,101H929M915,97H929M915,94H929M915,91H929M901,89H929M915,73H929M915,63H929M915,57H929M915,51H929M915,47H929M915,44H929M915,40H929M915,38H929M901,35H929M915,19H929M915,10H929M915,3H929" style="stroke: #000000; stroke-width: 1;"></path><g font-family="Arial" font-size="19" space="preserve"><g transform="translate(-34,311)"><text fill="#000000" font-size="19">10</text><text fill="#000000" font-size="11" transform="translate(21,-10)">-5</text></g><g transform="translate(-34,257)"><text fill="#000000" font-size="19">10</text><text fill="#000000" font-size="11" transform="translate(21,-10)">-4</text></g><g transform="translate(-34,204)"><text fill="#000000" font-size="19">10</text><text fill="#000000" font-size="11" transform="translate(21,-10)">-3</text></g><g transform="translate(-34,150)"><text fill="#000000" font-size="19">10</text><text fill="#000000" font-size="11" transform="translate(21,-10)">-2</text></g><g transform="translate(-34,97)"><text fill="#000000" font-size="19">10</text><text fill="#000000" font-size="11" transform="translate(21,-10)">-1</text></g><text fill="#000000" text-anchor="end" dy=".4em" transform="translate(-3,35)">1</text></g></g><path d="M0,0v303M93,0v303M186,0v303M279,0v303M372,0v303M465,0v303M557,0v303M650,0v303M743,0v303M836,0v303M929,0v303" style="stroke: #000000; stroke-width: 1; stroke-dasharray: 1,2;"></path><path d="M0,303h929M0,287h929M0,277h929M0,271h929M0,266h929M0,261h929M0,258h929M0,255h929M0,252h929M0,249h929M0,233h929M0,224h929M0,217h929M0,212h929M0,208h929M0,204h929M0,201h929M0,198h929M0,196h929M0,180h929M0,170h929M0,164h929M0,158h929M0,154h929M0,151h929M0,148h929M0,145h929M0,142h929M0,126h929M0,117h929M0,110h929M0,105h929M0,101h929M0,97h929M0,94h929M0,91h929M0,89h929M0,73h929M0,63h929M0,57h929M0,51h929M0,47h929M0,44h929M0,40h929M0,38h929M0,35h929M0,19h929M0,10h929M0,3h929" style="stroke: #000000; stroke-width: 1; stroke-dasharray: 1,2;"></path></g></g><g transform="translate(-453,2)" style="display: none;"><path d="M929,2h2v12h-929v-2h927z" style="fill: #000000; stroke: #000000; stroke-width: 1px;"></path><path d="M0,0H929V12H0Z" style="fill: #f2f2f2; stroke: #000000; stroke-width: 1;"></path></g><g transform="translate(235,230)" font-family="Arial" font-size="14" space="preserve" font-weight="bold"><path d="M353,4h4v96h-353v-4h349z" style="fill: #000000; stroke: #000000; stroke-width: 1px;"></path><path d="M0,0H353V96H0Z" style="fill: #ffffff; stroke: #000000; stroke-width: 1;"></path><path d="M11,14H77" style="stroke: #ff0000; stroke-width: 3;"></path><text fill="#000000" text-anchor="start" dy=".4em" transform="translate(88,14)">gamma = 0.5 mu = 0  beta = 1</text><path d="M11,37H77" style="stroke: #00ff00; stroke-width: 3;"></path><text fill="#000000" text-anchor="start" dy=".4em" transform="translate(88,37)">gamma = 1   mu = 0  beta = 1</text><path d="M11,59H77" style="stroke: #0000ff; stroke-width: 3;"></path><text fill="#000000" text-anchor="start" dy=".4em" transform="translate(88,59)">gamma = 2   mu = 0  beta = 1</text><path d="M11,82H77" style="stroke: #ff00ff; stroke-width: 3;"></path><text fill="#000000" text-anchor="start" dy=".4em" transform="translate(88,82)">gamma = 5   mu = 0  beta = 1</text></g></g></svg><svg viewBox="0 0 1176 384" preserveAspectRatio="none" x="12" y="408" width="1176" height="384"><path d="M0,0H1176V384H0Z" style="fill: #ffffff;"></path><g><g transform="translate(188,19)"><path d="M0,0H929V303H0Z" style="fill: #ffffff; stroke: #000000; stroke-width: 1;"></path><svg x="0" y="0" overflow="hidden" width="929" height="303" viewBox="0 0 929 303"><g><path d="M5,295l9,-154l10,-52l9,-27l9,-17l9,-11l10,-8l9,-5l9,-4l10,-3l9,-2l9,-2l9,-1l10,-1h9h9h10h9h9l10,1l9,1h9l9,1l10,1l9,1l9,1l10,1l9,1l9,1l9,1l10,1l9,1l9,1l10,1l9,1l9,1l9,1l10,1l9,2l9,1l10,1l9,1l9,1l9,1l10,1l9,2l9,1l10,1l9,1l9,1l10,1l9,1l9,2l9,1l10,1l9,1l9,1l10,1l9,1l9,1l9,1l10,1l9,2l9,1l10,1l9,1l9,1l9,1l10,1l9,1l9,1l10,1l9,1l9,1l9,1l10,1l9,1l9,1l10,1l9,1l9,1l9,1l10,1l9,1l9,1l10,1l9,1l9,1l10,1l9,1l9,1l9,1l10,1l9,1l9,1l10,1h9l9,1l9,1l10,1" style="fill: none; stroke: #ff0000; stroke-width: 3;"></path></g><g><path d="M5,55l9,-28l10,-8l9,-4l9,-2l9,-1h10h9h9h10h9l9,1h9l10,1h9l9,1l10,1h9l9,1h10l9,1l9,1h9l10,1h9l9,1l10,1h9l9,1h9l10,1h9l9,1l10,1h9l9,1h9l10,1h9l9,1h10l9,1h9l9,1h10l9,1h9l10,1h9l9,1h10l9,1h9h9l10,1h9l9,1h10l9,1h9l9,1h10h9l9,1h10l9,1h9h9l10,1h9l9,1h10h9l9,1h9h10l9,1h9l10,1h9h9l9,1h10h9l9,1h10h9l9,1h10h9l9,1h9h10l9,1h9h10l9,1h9h9l10,1" style="fill: none; stroke: #00ff00; stroke-width: 3;"></path></g><g><path d="M5,2l9,3l10,2l9,3l9,1l9,2l10,1l9,2l9,1l10,1l9,1l9,1l9,1l10,1h9l9,1l10,1h9l9,1l10,1h9l9,1l9,1h10l9,1h9l10,1h9l9,1h9h10l9,1h9l10,1h9l9,1h9h10l9,1h9h10l9,1h9h9l10,1h9h9l10,1h9h9l10,1h9h9h9l10,1h9h9l10,1h9h9h9l10,1h9h9h10l9,1h9h9h10l9,1h9h10h9h9l9,1h10h9h9h10l9,1h9h9h10l9,1h9h10h9h9h10l9,1h9h9h10h9l9,1h10h9h9h9h10" style="fill: none; stroke: #0000ff; stroke-width: 3;"></path></g><g><path d="M5,-4l9,11l10,6l9,4l9,3l9,2l10,2l9,2l9,1l10,1l9,1l9,2l9,1h10l9,1l9,1l10,1l9,1h9l10,1h9l9,1l9,1h10l9,1h9l10,1h9l9,1h9h10l9,1h9l10,1h9h9l9,1h10h9l9,1h10h9h9l9,1h10h9l9,1h10h9h9l10,1h9h9h9l10,1h9h9h10h9l9,1h9h10h9l9,1h10h9h9h9h10l9,1h9h10h9h9l9,1h10h9h9h10h9l9,1h9h10h9h9h10h9l9,1h10h9h9h9h10h9l9,1h10h9h9h9h10" style="fill: none; stroke: #ff00ff; stroke-width: 3;"></path></g></svg><g><g transform="translate(0,303)"><path d="M0,0h929M0,-303h929M0,-9V0M19,-5V0M37,-5V0M56,-5V0M74,-5V0M93,-9V0M111,-5V0M130,-5V0M149,-5V0M167,-5V0M186,-9V0M204,-5V0M223,-5V0M242,-5V0M260,-5V0M279,-9V0M297,-5V0M316,-5V0M334,-5V0M353,-5V0M372,-9V0M390,-5V0M409,-5V0M427,-5V0M446,-5V0M465,-9V0M483,-5V0M502,-5V0M520,-5V0M539,-5V0M557,-9V0M576,-5V0M595,-5V0M613,-5V0M632,-5V0M650,-9V0M669,-5V0M687,-5V0M706,-5V0M725,-5V0M743,-9V0M762,-5V0M780,-5V0M799,-5V0M818,-5V0M836,-9V0M855,-5V0M873,-5V0M892,-5V0M910,-5V0M929,-9V0M0,-294V-303M19,-298V-303M37,-298V-303M56,-298V-303M74,-298V-303M93,-294V-303M111,-298V-303M130,-298V-303M149,-298V-303M167,-298V-303M186,-294V-303M204,-298V-303M223,-298V-303M242,-298V-303M260,-298V-303M279,-294V-303M297,-298V-303M316,-298V-303M334,-298V-303M353,-298V-303M372,-294V-303M390,-298V-303M409,-298V-303M427,-298V-303M446,-298V-303M465,-294V-303M483,-298V-303M502,-298V-303M520,-298V-303M539,-298V-303M557,-294V-303M576,-298V-303M595,-298V-303M613,-298V-303M632,-298V-303M650,-294V-303M669,-298V-303M687,-298V-303M706,-298V-303M725,-298V-303M743,-294V-303M762,-298V-303M780,-298V-303M799,-298V-303M818,-298V-303M836,-294V-303M855,-298V-303M873,-298V-303M892,-298V-303M910,-298V-303M929,-294V-303" style="stroke: #000000; stroke-width: 1;"></path><g font-family="Arial" font-size="19" space="preserve" fill="#000000" text-anchor="middle"><text dy=".8em" transform="translate(0,2)">0</text><text dy=".8em" transform="translate(93,2)">0.5</text><text dy=".8em" transform="translate(186,2)">1</text><text dy=".8em" transform="translate(279,2)">1.5</text><text dy=".8em" transform="translate(372,2)">2</text><text dy=".8em" transform="translate(465,2)">2.5</text><text dy=".8em" transform="translate(557,2)">3</text><text dy=".8em" transform="translate(650,2)">3.5</text><text dy=".8em" transform="translate(743,2)">4</text><text dy=".8em" transform="translate(836,2)">4.5</text><text dy=".8em" transform="translate(929,2)">5</text></g></g><g><path d="M0,0v303M929,0v303M14,300H0M14,297H0M14,294H0M14,292H0M14,290H0M14,288H0M14,287H0M28,286H0M14,277H0M14,272H0M14,269H0M14,266H0M14,264H0M14,262H0M14,261H0M14,259H0M28,258H0M14,249H0M14,245H0M14,241H0M14,238H0M14,236H0M14,234H0M14,233H0M14,231H0M28,230H0M14,222H0M14,217H0M14,213H0M14,210H0M14,208H0M14,206H0M14,205H0M14,203H0M28,202H0M14,194H0M14,189H0M14,185H0M14,182H0M14,180H0M14,178H0M14,177H0M14,175H0M28,174H0M14,166H0M14,161H0M14,157H0M14,155H0M14,152H0M14,150H0M14,149H0M14,147H0M28,146H0M14,138H0M14,133H0M14,129H0M14,127H0M14,124H0M14,123H0M14,121H0M14,120H0M28,118H0M14,110H0M14,105H0M14,101H0M14,99H0M14,96H0M14,95H0M14,93H0M14,92H0M28,90H0M14,82H0M14,77H0M14,73H0M14,71H0M14,69H0M14,67H0M14,65H0M14,64H0M28,62H0M14,54H0M14,49H0M14,46H0M14,43H0M14,41H0M14,39H0M14,37H0M14,36H0M28,34H0M14,26H0M14,21H0M14,18H0M14,15H0M14,13H0M14,11H0M14,9H0M14,8H0M28,7H0M915,300H929M915,297H929M915,294H929M915,292H929M915,290H929M915,288H929M915,287H929M901,286H929M915,277H929M915,272H929M915,269H929M915,266H929M915,264H929M915,262H929M915,261H929M915,259H929M901,258H929M915,249H929M915,245H929M915,241H929M915,238H929M915,236H929M915,234H929M915,233H929M915,231H929M901,230H929M915,222H929M915,217H929M915,213H929M915,210H929M915,208H929M915,206H929M915,205H929M915,203H929M901,202H929M915,194H929M915,189H929M915,185H929M915,182H929M915,180H929M915,178H929M915,177H929M915,175H929M901,174H929M915,166H929M915,161H929M915,157H929M915,155H929M915,152H929M915,150H929M915,149H929M915,147H929M901,146H929M915,138H929M915,133H929M915,129H929M915,127H929M915,124H929M915,123H929M915,121H929M915,120H929M901,118H929M915,110H929M915,105H929M915,101H929M915,99H929M915,96H929M915,95H929M915,93H929M915,92H929M901,90H929M915,82H929M915,77H929M915,73H929M915,71H929M915,69H929M915,67H929M915,65H929M915,64H929M901,62H929M915,54H929M915,49H929M915,46H929M915,43H929M915,41H929M915,39H929M915,37H929M915,36H929M901,34H929M915,26H929M915,21H929M915,18H929M915,15H929M915,13H929M915,11H929M915,9H929M915,8H929M901,7H929" style="stroke: #000000; stroke-width: 1;"></path><g font-family="Arial" font-size="19" space="preserve"><g transform="translate(-40,294)"><text fill="#000000" font-size="19">10</text><text fill="#000000" font-size="11" transform="translate(21,-10)">-10</text></g><g transform="translate(-34,266)"><text fill="#000000" font-size="19">10</text><text fill="#000000" font-size="11" transform="translate(21,-10)">-9</text></g><g transform="translate(-34,238)"><text fill="#000000" font-size="19">10</text><text fill="#000000" font-size="11" transform="translate(21,-10)">-8</text></g><g transform="translate(-34,210)"><text fill="#000000" font-size="19">10</text><text fill="#000000" font-size="11" transform="translate(21,-10)">-7</text></g><g transform="translate(-34,182)"><text fill="#000000" font-size="19">10</text><text fill="#000000" font-size="11" transform="translate(21,-10)">-6</text></g><g transform="translate(-34,154)"><text fill="#000000" font-size="19">10</text><text fill="#000000" font-size="11" transform="translate(21,-10)">-5</text></g><g transform="translate(-34,126)"><text fill="#000000" font-size="19">10</text><text fill="#000000" font-size="11" transform="translate(21,-10)">-4</text></g><g transform="translate(-34,98)"><text fill="#000000" font-size="19">10</text><text fill="#000000" font-size="11" transform="translate(21,-10)">-3</text></g><g transform="translate(-34,70)"><text fill="#000000" font-size="19">10</text><text fill="#000000" font-size="11" transform="translate(21,-10)">-2</text></g><g transform="translate(-34,42)"><text fill="#000000" font-size="19">10</text><text fill="#000000" font-size="11" transform="translate(21,-10)">-1</text></g><text fill="#000000" text-anchor="end" dy=".4em" transform="translate(-3,7)">1</text></g></g><path d="M0,0v303M93,0v303M186,0v303M279,0v303M372,0v303M465,0v303M557,0v303M650,0v303M743,0v303M836,0v303M929,0v303" style="stroke: #000000; stroke-width: 1; stroke-dasharray: 1,2;"></path><path d="M0,300h929M0,297h929M0,294h929M0,292h929M0,290h929M0,288h929M0,287h929M0,286h929M0,277h929M0,272h929M0,269h929M0,266h929M0,264h929M0,262h929M0,261h929M0,259h929M0,258h929M0,249h929M0,245h929M0,241h929M0,238h929M0,236h929M0,234h929M0,233h929M0,231h929M0,230h929M0,222h929M0,217h929M0,213h929M0,210h929M0,208h929M0,206h929M0,205h929M0,203h929M0,202h929M0,194h929M0,189h929M0,185h929M0,182h929M0,180h929M0,178h929M0,177h929M0,175h929M0,174h929M0,166h929M0,161h929M0,157h929M0,155h929M0,152h929M0,150h929M0,149h929M0,147h929M0,146h929M0,138h929M0,133h929M0,129h929M0,127h929M0,124h929M0,123h929M0,121h929M0,120h929M0,118h929M0,110h929M0,105h929M0,101h929M0,99h929M0,96h929M0,95h929M0,93h929M0,92h929M0,90h929M0,82h929M0,77h929M0,73h929M0,71h929M0,69h929M0,67h929M0,65h929M0,64h929M0,62h929M0,54h929M0,49h929M0,46h929M0,43h929M0,41h929M0,39h929M0,37h929M0,36h929M0,34h929M0,26h929M0,21h929M0,18h929M0,15h929M0,13h929M0,11h929M0,9h929M0,8h929M0,7h929" style="stroke: #000000; stroke-width: 1; stroke-dasharray: 1,2;"></path></g></g><g transform="translate(-453,2)" style="display: none;"><path d="M929,2h2v12h-929v-2h927z" style="fill: #000000; stroke: #000000; stroke-width: 1px;"></path><path d="M0,0H929V12H0Z" style="fill: #f2f2f2; stroke: #000000; stroke-width: 1;"></path></g><g transform="translate(235,230)" font-family="Arial" font-size="14" space="preserve" font-weight="bold"><path d="M353,4h4v96h-353v-4h349z" style="fill: #000000; stroke: #000000; stroke-width: 1px;"></path><path d="M0,0H353V96H0Z" style="fill: #ffffff; stroke: #000000; stroke-width: 1;"></path><path d="M11,14H77" style="stroke: #ff0000; stroke-width: 3;"></path><text fill="#000000" text-anchor="start" dy=".4em" transform="translate(88,14)">sigma = 0.5 theta = 0  m = 1</text><path d="M11,37H77" style="stroke: #00ff00; stroke-width: 3;"></path><text fill="#000000" text-anchor="start" dy=".4em" transform="translate(88,37)">sigma = 1   theta = 0  m = 1</text><path d="M11,59H77" style="stroke: #0000ff; stroke-width: 3;"></path><text fill="#000000" text-anchor="start" dy=".4em" transform="translate(88,59)">sigma = 2   theta = 0  m = 1</text><path d="M11,82H77" style="stroke: #ff00ff; stroke-width: 3;"></path><text fill="#000000" text-anchor="start" dy=".4em" transform="translate(88,82)">sigma = 5   theta = 0  m = 1</text></g></g></svg></g></svg>