<svg xmlns="http://www.w3.org/2000/svg" viewBox="0 0 1200 800" preserveAspectRatio="none" width="1200" height="800"><path d="M0,0H1200V800H0Z" style="fill: #ffffff;"></path><g><svg viewBox="0 0 1176 384" preserveAspectRatio="none" x="12" y="8" width="1176" height="384"><path d="M0,0H1176V384H0Z" style="fill: #ffffff;"></path><g><g transform="translate(188,19)"><path d="M0,0H929V303H0Z" style="fill: #ffffff; stroke: #000000; stroke-width: 1;"></path><svg x="0" y="0" overflow="hidden" width="929" height="303" viewBox="0 0 929 303"><g><path d="M5,303h9h10h9h9h9h10h9h9h10h9h9h9h10h9h9h10h9l9,-1h10h9h9h9l10,-1h9h9l10,-1l9,-1h9l9,-1l10,-1l9,-2l9,-2l10,-2l9,-2l9,-4l9,-3l10,-5l9,-6l9,-7l10,-9l9,-10l9,-13l9,-16l10,-19l9,-24l9,-28l10,-35l9,-43l9,-53h10l9,53l9,43l9,35l10,28l9,24l9,19l10,16l9,13l9,10l9,9l10,7l9,6l9,5l10,3l9,4l9,2l9,2l10,2l9,2l9,1l10,1h9l9,1l9,1h10h9l9,1h10h9h9h9l10,1h9h9h10h9h9h10h9h9h9h10h9h9h10h9h9h9h10" style="fill: none; stroke: #ff0000; stroke-width: 1;"></path></g><g><path d="M5,302h9h10l9,-1h9h9h10h9l9,-1h10h9h9l9,-1h10l9,-1h9l10,-1h9l9,-1l10,-1h9l9,-1l9,-1l10,-1l9,-1l9,-2l10,-1l9,-2l9,-2l9,-2l10,-2l9,-2l9,-3l10,-3l9,-3l9,-3l9,-4l10,-5l9,-4l9,-6l10,-6l9,-6l9,-7l9,-8l10,-9l9,-10l9,-10l10,-12l9,-13l9,-15h10l9,15l9,13l9,12l10,10l9,10l9,9l10,8l9,7l9,6l9,6l10,6l9,4l9,5l10,4l9,3l9,3l9,3l10,3l9,2l9,2l10,2l9,2l9,2l9,1l10,2l9,1l9,1l10,1l9,1h9l9,1l10,1h9l9,1h10l9,1h9l10,1h9h9h9l10,1h9h9h10h9l9,1h9h10" style="fill: none; stroke: #00ff00; stroke-width: 1;"></path></g><g><path d="M5,303h9h10h9h9h9h10h9h9h10h9h9h9h10h9h9h10h9h9h10h9h9h9h10h9h9h10h9l9,-1h9h10h9h9l10,-1h9h9l9,-1l10,-1h9l9,-1l10,-1l9,-2l9,-2l9,-2l10,-2l9,-4l9,-3l10,-5l9,-6l9,-7l10,-9l9,-10l9,-13l9,-16l10,-19l9,-24l9,-28l10,-35l9,-43l9,-53h9l10,53l9,43l9,35l10,28l9,24l9,19l9,16l10,13l9,10l9,9l10,7l9,6l9,5l9,3l10,4l9,2l9,2l10,2l9,2l9,1l9,1h10l9,1l9,1h10h9l9,1h10h9h9h9l10,1h9h9h10h9h9h9h10" style="fill: none; stroke: #0000ff; stroke-width: 1;"></path></g><g><path d="M5,303h9l10,-1h9h9h9h10h9h9h10h9h9h9l10,-1h9h9h10h9l9,-1h10h9h9l9,-1h10l9,-1h9l10,-1h9l9,-1l9,-1h10l9,-1l9,-1l10,-1l9,-1l9,-2l9,-1l10,-2l9,-2l9,-2l10,-2l9,-2l9,-3l9,-3l10,-3l9,-3l9,-4l10,-5l9,-4l9,-6l10,-6l9,-6l9,-7l9,-8l10,-9l9,-10l9,-10l10,-12l9,-13l9,-15h9l10,15l9,13l9,12l10,10l9,10l9,9l9,8l10,7l9,6l9,6l10,6l9,4l9,5l9,4l10,3l9,3l9,3l10,3l9,2l9,2l9,2l10,2l9,2l9,1l10,2l9,1l9,1l10,1l9,1h9l9,1l10,1h9l9,1h10l9,1h9l9,1h10" style="fill: none; stroke: #ff00ff; stroke-width: 1;"></path></g></svg><g><g transform="translate(0,303)"><path d="M0,0h929M0,-303h929M0,-9V0M23,-5V0M46,-5V0M70,-5V0M93,-9V0M116,-5V0M139,-5V0M163,-5V0M186,-9V0M209,-5V0M232,-5V0M255,-5V0M279,-9V0M302,-5V0M325,-5V0M348,-5V0M372,-9V0M395,-5V0M418,-5V0M441,-5V0M465,-9V0M488,-5V0M511,-5V0M534,-5V0M557,-9V0M581,-5V0M604,-5V0M627,-5V0M650,-9V0M674,-5V0M697,-5V0M720,-5V0M743,-9V0M766,-5V0M790,-5V0M813,-5V0M836,-9V0M859,-5V0M883,-5V0M906,-5V0M929,-9V0M0,-294V-303M23,-298V-303M46,-298V-303M70,-298V-303M93,-294V-303M116,-298V-303M139,-298V-303M163,-298V-303M186,-294V-303M209,-298V-303M232,-298V-303M255,-298V-303M279,-294V-303M302,-298V-303M325,-298V-303M348,-298V-303M372,-294V-303M395,-298V-303M418,-298V-303M441,-298V-303M465,-294V-303M488,-298V-303M511,-298V-303M534,-298V-303M557,-294V-303M581,-298V-303M604,-298V-303M627,-298V-303M650,-294V-303M674,-298V-303M697,-298V-303M720,-298V-303M743,-294V-303M766,-298V-303M790,-298V-303M813,-298V-303M836,-294V-303M859,-298V-303M883,-298V-303M906,-298V-303M929,-294V-303" style="stroke: #000000; stroke-width: 1;"></path><g font-family="Arial" font-size="19" space="preserve" fill="#000000" text-anchor="middle"><text dy=".8em" transform="translate(0,2)">-10</text><text dy=".8em" transform="translate(93,2)">-8</text><text dy=".8em" transform="translate(186,2)">-6</text><text dy=".8em" transform="translate(279,2)">-4</text><text dy=".8em" transform="translate(372,2)">-2</text><text dy=".8em" transform="translate(465,2)">0</text><text dy=".8em" transform="translate(557,2)">2</text><text dy=".8em" transform="translate(650,2)">4</text><text dy=".8em" transform="translate(743,2)">6</text><text dy=".8em" transform="translate(836,2)">8</text><text dy=".8em" transform="translate(929,2)">10</text></g></g><g><path d="M0,0v303M929,0v303M28,303H0M14,297H0M14,290H0M14,284H0M14,277H0M28,271H0M14,265H0M14,258H0M14,252H0M14,246H0M28,239H0M14,233H0M14,226H0M14,220H0M14,214H0M28,207H0M14,201H0M14,195H0M14,188H0M14,182H0M28,175H0M14,169H0M14,163H0M14,156H0M14,150H0M28,144H0M14,137H0M14,131H0M14,124H0M14,118H0M28,112H0M14,105H0M14,99H0M14,93H0M14,86H0M28,80H0M14,73H0M14,67H0M14,61H0M14,54H0M28,48H0M14,41H0M14,35H0M14,29H0M14,22H0M28,16H0M14,10H0M14,3H0M901,303H929M915,297H929M915,290H929M915,284H929M915,277H929M901,271H929M915,265H929M915,258H929M915,252H929M915,246H929M901,239H929M915,233H929M915,226H929M915,220H929M915,214H929M901,207H929M915,201H929M915,195H929M915,188H929M915,182H929M901,175H929M915,169H929M915,163H929M915,156H929M915,150H929M901,144H929M915,137H929M915,131H929M915,124H929M915,118H929M901,112H929M915,105H929M915,99H929M915,93H929M915,86H929M901,80H929M915,73H929M915,67H929M915,61H929M915,54H929M901,48H929M915,41H929M915,35H929M915,29H929M915,22H929M901,16H929M915,10H929M915,3H929" style="stroke: #000000; stroke-width: 1;"></path><g font-family="Arial" font-size="19" space="preserve" fill="#000000" text-anchor="end"><text dy=".4em" transform="translate(-3,303)">0</text><text dy=".4em" transform="translate(-3,271)">0.05</text><text dy=".4em" transform="translate(-3,239)">0.1</text><text dy=".4em" transform="translate(-3,207)">0.15</text><text dy=".4em" transform="translate(-3,175)">0.2</text><text dy=".4em" transform="translate(-3,144)">0.25</text><text dy=".4em" transform="translate(-3,112)">0.3</text><text dy=".4em" transform="translate(-3,80)">0.35</text><text dy=".4em" transform="translate(-3,48)">0.4</text><text dy=".4em" transform="translate(-3,16)">0.45</text></g></g><path d="M0,0v303M93,0v303M186,0v303M279,0v303M372,0v303M465,0v303M557,0v303M650,0v303M743,0v303M836,0v303M929,0v303" style="stroke: #000000; stroke-width: 1; stroke-dasharray: 1,2;"></path><path d="M0,303h929M0,271h929M0,239h929M0,207h929M0,175h929M0,144h929M0,112h929M0,80h929M0,48h929M0,16h929" style="stroke: #000000; stroke-width: 1; stroke-dasharray: 1,2;"></path></g></g><g transform="translate(-453,2)" style="display: none;"><path d="M929,2h2v12h-929v-2h927z" style="fill: #000000; stroke: #000000; stroke-width: 1px;"></path><path d="M0,0H929V12H0Z" style="fill: #f2f2f2; stroke: #000000; stroke-width: 1;"></path></g><g transform="translate(823,38)" font-family="Arial" font-size="15" space="preserve" font-weight="bold"><path d="M235,4h4v77h-235v-4h231z" style="fill: #000000; stroke: #000000; stroke-width: 1px;"></path><path d="M0,0H235V77H0Z" style="fill: #ffffff; stroke: #000000; stroke-width: 1;"></path><path d="M7,11H52" style="stroke: #ff0000; stroke-width: 1;"></path><text fill="#000000" text-anchor="start" dy=".4em" transform="translate(59,11)">alpha=0 beta=1</text><path d="M7,29H52" style="stroke: #00ff00; stroke-width: 1;"></path><text fill="#000000" text-anchor="start" dy=".4em" transform="translate(59,29)">alpha=0 beta=2</text><path d="M7,48H52" style="stroke: #0000ff; stroke-width: 1;"></path><text fill="#000000" text-anchor="start" dy=".4em" transform="translate(59,48)">alpha=2 beta=1</text><path d="M7,66H52" style="stroke: #ff00ff; stroke-width: 1;"></path><text fill="#000000" text-anchor="start" dy=".4em" transform="translate(59,66)">alpha=2 beta=2</text></g></g></svg><svg viewBox="0 0 1176 384" preserveAspectRatio="none" x="12" y="408" width="1176" height="384"><path d="M0,0H1176V384H0Z" style="fill: #ffffff;"></path><g><g transform="translate(188,19)"><path d="M0,0H929V303H0Z" style="fill: #ffffff; stroke: #000000; stroke-width: 1;"></path><svg x="0" y="0" overflow="hidden" width="929" height="303" viewBox="0 0 929 303"><g><path d="M5,303h9h10h9h9h9h10h9h9h10h9h9h9h10h9h9h10h9h9h10h9h9l9,-1h10h9h9h10l9,-1h9h9l10,-1l9,-1h9l10,-1l9,-2l9,-1l9,-2l10,-2l9,-2l9,-4l10,-4l9,-4l9,-6l9,-7l10,-9l9,-11l9,-13l10,-16l9,-19l9,-24l10,-27l9,-24l9,-19l9,-16l10,-13l9,-11l9,-8l10,-7l9,-6l9,-5l9,-4l10,-3l9,-3l9,-2l10,-2l9,-1l9,-1l9,-1l10,-1l9,-1h9l10,-1h9h9l9,-1h10h9h9h10h9h9h9h10h9h9h10h9h9l10,-1h9h9h9h10h9h9h10h9h9h9h10" style="fill: none; stroke: #ff0000; stroke-width: 1;"></path></g><g><path d="M5,302h9h10h9l9,-1h9h10h9h9l10,-1h9h9h9l10,-1h9l9,-1h10l9,-1h9l10,-1l9,-1h9l9,-1l10,-1l9,-1l9,-1l10,-2l9,-1l9,-2l9,-2l10,-2l9,-2l9,-2l10,-3l9,-3l9,-3l9,-3l10,-4l9,-5l9,-4l10,-6l9,-6l9,-6l9,-7l10,-8l9,-9l9,-10l10,-10l9,-12l9,-13l10,-14l9,-13l9,-12l9,-11l10,-10l9,-8l9,-8l10,-7l9,-7l9,-6l9,-5l10,-5l9,-4l9,-4l10,-4l9,-3l9,-3l9,-3l10,-2l9,-2l9,-2l10,-2l9,-1l9,-2l9,-1l10,-1l9,-1l9,-1l10,-1l9,-1l9,-1h9l10,-1l9,-1h9h10l9,-1h9l10,-1h9h9h9l10,-1h9h9h10h9h9h9l10,-1" style="fill: none; stroke: #00ff00; stroke-width: 1;"></path></g><g><path d="M5,303h9h10h9h9h9h10h9h9h10h9h9h9h10h9h9h10h9h9h10h9h9h9h10h9h9h10h9h9h9h10h9l9,-1h10h9h9h9l10,-1h9h9l10,-1l9,-1h9l9,-1l10,-2l9,-1l9,-2l10,-2l9,-2l9,-4l10,-4l9,-4l9,-6l9,-7l10,-9l9,-11l9,-13l10,-16l9,-19l9,-24l9,-27l10,-24l9,-19l9,-16l10,-13l9,-11l9,-8l9,-7l10,-6l9,-5l9,-4l10,-3l9,-3l9,-2l9,-2l10,-1l9,-1l9,-1l10,-1l9,-1h9l9,-1h10h9l9,-1h10h9h9h10h9h9h9h10h9h9h10h9h9l9,-1h10" style="fill: none; stroke: #0000ff; stroke-width: 1;"></path></g><g><path d="M5,303h9h10l9,-1h9h9h10h9h9h10h9h9h9h10l9,-1h9h10h9h9l10,-1h9h9h9l10,-1h9l9,-1h10l9,-1h9l9,-1l10,-1h9l9,-1l10,-1l9,-1l9,-1l9,-2l10,-1l9,-2l9,-2l10,-2l9,-2l9,-2l9,-3l10,-3l9,-3l9,-3l10,-4l9,-5l9,-4l10,-6l9,-6l9,-6l9,-7l10,-8l9,-9l9,-10l10,-10l9,-12l9,-13l9,-14l10,-13l9,-12l9,-11l10,-10l9,-8l9,-8l9,-7l10,-7l9,-6l9,-5l10,-5l9,-4l9,-4l9,-4l10,-3l9,-3l9,-3l10,-2l9,-2l9,-2l9,-2l10,-1l9,-2l9,-1l10,-1l9,-1l9,-1l10,-1l9,-1l9,-1h9l10,-1l9,-1h9h10l9,-1h9l9,-1h10" style="fill: none; stroke: #ff00ff; stroke-width: 1;"></path></g></svg><g><g transform="translate(0,303)"><path d="M0,0h929M0,-303h929M0,-9V0M23,-5V0M46,-5V0M70,-5V0M93,-9V0M116,-5V0M139,-5V0M163,-5V0M186,-9V0M209,-5V0M232,-5V0M255,-5V0M279,-9V0M302,-5V0M325,-5V0M348,-5V0M372,-9V0M395,-5V0M418,-5V0M441,-5V0M465,-9V0M488,-5V0M511,-5V0M534,-5V0M557,-9V0M581,-5V0M604,-5V0M627,-5V0M650,-9V0M674,-5V0M697,-5V0M720,-5V0M743,-9V0M766,-5V0M790,-5V0M813,-5V0M836,-9V0M859,-5V0M883,-5V0M906,-5V0M929,-9V0M0,-294V-303M23,-298V-303M46,-298V-303M70,-298V-303M93,-294V-303M116,-298V-303M139,-298V-303M163,-298V-303M186,-294V-303M209,-298V-303M232,-298V-303M255,-298V-303M279,-294V-303M302,-298V-303M325,-298V-303M348,-298V-303M372,-294V-303M395,-298V-303M418,-298V-303M441,-298V-303M465,-294V-303M488,-298V-303M511,-298V-303M534,-298V-303M557,-294V-303M581,-298V-303M604,-298V-303M627,-298V-303M650,-294V-303M674,-298V-303M697,-298V-303M720,-298V-303M743,-294V-303M766,-298V-303M790,-298V-303M813,-298V-303M836,-294V-303M859,-298V-303M883,-298V-303M906,-298V-303M929,-294V-303" style="stroke: #000000; stroke-width: 1;"></path><g font-family="Arial" font-size="19" space="preserve" fill="#000000" text-anchor="middle"><text dy=".8em" transform="translate(0,2)">-10</text><text dy=".8em" transform="translate(93,2)">-8</text><text dy=".8em" transform="translate(186,2)">-6</text><text dy=".8em" transform="translate(279,2)">-4</text><text dy=".8em" transform="translate(372,2)">-2</text><text dy=".8em" transform="translate(465,2)">0</text><text dy=".8em" transform="translate(557,2)">2</text><text dy=".8em" transform="translate(650,2)">4</text><text dy=".8em" transform="translate(743,2)">6</text><text dy=".8em" transform="translate(836,2)">8</text><text dy=".8em" transform="translate(929,2)">10</text></g></g><g><path d="M0,0v303M929,0v303M28,303H0M14,297H0M14,291H0M14,286H0M14,280H0M28,274H0M14,268H0M14,263H0M14,257H0M14,251H0M28,245H0M14,240H0M14,234H0M14,228H0M14,222H0M28,216H0M14,211H0M14,205H0M14,199H0M14,193H0M28,188H0M14,182H0M14,176H0M14,170H0M14,164H0M28,159H0M14,153H0M14,147H0M14,141H0M14,136H0M28,130H0M14,124H0M14,118H0M14,113H0M14,107H0M28,101H0M14,95H0M14,89H0M14,84H0M14,78H0M28,72H0M14,66H0M14,61H0M14,55H0M14,49H0M28,43H0M14,38H0M14,32H0M14,26H0M14,20H0M28,14H0M14,9H0M14,3H0M901,303H929M915,297H929M915,291H929M915,286H929M915,280H929M901,274H929M915,268H929M915,263H929M915,257H929M915,251H929M901,245H929M915,240H929M915,234H929M915,228H929M915,222H929M901,216H929M915,211H929M915,205H929M915,199H929M915,193H929M901,188H929M915,182H929M915,176H929M915,170H929M915,164H929M901,159H929M915,153H929M915,147H929M915,141H929M915,136H929M901,130H929M915,124H929M915,118H929M915,113H929M915,107H929M901,101H929M915,95H929M915,89H929M915,84H929M915,78H929M901,72H929M915,66H929M915,61H929M915,55H929M915,49H929M901,43H929M915,38H929M915,32H929M915,26H929M915,20H929M901,14H929M915,9H929M915,3H929" style="stroke: #000000; stroke-width: 1;"></path><g font-family="Arial" font-size="19" space="preserve" fill="#000000" text-anchor="end"><text dy=".4em" transform="translate(-3,303)">0</text><text dy=".4em" transform="translate(-3,274)">0.1</text><text dy=".4em" transform="translate(-3,245)">0.2</text><text dy=".4em" transform="translate(-3,216)">0.3</text><text dy=".4em" transform="translate(-3,188)">0.4</text><text dy=".4em" transform="translate(-3,159)">0.5</text><text dy=".4em" transform="translate(-3,130)">0.6</text><text dy=".4em" transform="translate(-3,101)">0.7</text><text dy=".4em" transform="translate(-3,72)">0.8</text><text dy=".4em" transform="translate(-3,43)">0.9</text><text dy=".4em" transform="translate(-3,14)">1</text></g></g><path d="M0,0v303M93,0v303M186,0v303M279,0v303M372,0v303M465,0v303M557,0v303M650,0v303M743,0v303M836,0v303M929,0v303" style="stroke: #000000; stroke-width: 1; stroke-dasharray: 1,2;"></path><path d="M0,303h929M0,274h929M0,245h929M0,216h929M0,188h929M0,159h929M0,130h929M0,101h929M0,72h929M0,43h929M0,14h929" style="stroke: #000000; stroke-width: 1; stroke-dasharray: 1,2;"></path></g></g><g transform="translate(-453,2)" style="display: none;"><path d="M929,2h2v12h-929v-2h927z" style="fill: #000000; stroke: #000000; stroke-width: 1px;"></path><path d="M0,0H929V12H0Z" style="fill: #f2f2f2; stroke: #000000; stroke-width: 1;"></path></g><g transform="translate(823,250)" font-family="Arial" font-size="15" space="preserve" font-weight="bold"><path d="M235,4h4v77h-235v-4h231z" style="fill: #000000; stroke: #000000; stroke-width: 1px;"></path><path d="M0,0H235V77H0Z" style="fill: #ffffff; stroke: #000000; stroke-width: 1;"></path><path d="M7,11H52" style="stroke: #ff0000; stroke-width: 1;"></path><text fill="#000000" text-anchor="start" dy=".4em" transform="translate(59,11)">alpha=0 beta=1</text><path d="M7,29H52" style="stroke: #00ff00; stroke-width: 1;"></path><text fill="#000000" text-anchor="start" dy=".4em" transform="translate(59,29)">alpha=0 beta=2</text><path d="M7,48H52" style="stroke: #0000ff; stroke-width: 1;"></path><text fill="#000000" text-anchor="start" dy=".4em" transform="translate(59,48)">alpha=2 beta=1</text><path d="M7,66H52" style="stroke: #ff00ff; stroke-width: 1;"></path><text fill="#000000" text-anchor="start" dy=".4em" transform="translate(59,66)">alpha=2 beta=2</text></g></g></svg></g></svg>