<svg xmlns="http://www.w3.org/2000/svg" viewBox="0 0 1200 800" preserveAspectRatio="none" width="1200" height="800"><path d="M0,0H1200V800H0Z" style="fill: #ffffff;"></path><g><svg viewBox="0 0 1176 384" preserveAspectRatio="none" x="12" y="8" width="1176" height="384"><path d="M0,0H1176V384H0Z" style="fill: #ffffff;"></path><g><g transform="translate(188,19)"><path d="M0,0H929V303H0Z" style="fill: #ffffff; stroke: #000000; stroke-width: 1;"></path><svg x="0" y="0" overflow="hidden" width="929" height="303" viewBox="0 0 929 303"><g><path d="M5,14l9,135l10,41l9,22l9,14l9,9l10,8l9,6l9,4l10,4l9,4l9,3l9,2l10,2l9,2l9,2l10,2l9,1l9,1l10,1l9,1l9,1l9,1l10,1l9,1l9,1h10l9,1h9l9,1h10l9,1h9l10,1h9h9l9,1h10h9h9h10l9,1h9h9h10h9h9h10h9h9h10h9h9h9h10h9h9h10h9l9,-1h9h10h9h9l10,-1h9h9l9,-1h10l9,-1h9l10,-1h9l9,-1h9l10,-1l9,-1l9,-1l10,-1l9,-1l9,-1l9,-1l10,-1l9,-1l9,-2l10,-2l9,-2l9,-2l10,-2l9,-3l9,-4l9,-4l10,-4l9,-6l9,-8l10,-9l9,-14l9,-22l9,-41l10,-135" style="fill: none; stroke: #ff0000; stroke-width: 1;"></path></g><g><path d="M5,-414l9,321l10,99l9,54l9,35l9,25l10,19l9,16l9,13l10,10l9,10l9,8l9,7l10,6l9,6l9,5l10,5l9,5l9,4l10,3l9,4l9,3l9,4l10,2l9,3l9,3l10,2l9,3l9,2l9,2l10,2l9,2l9,2l10,2l9,2l9,2l9,2l10,1l9,2l9,1l10,2l9,1l9,1l9,2l10,1l9,1l9,2l10,1l9,1l9,1l10,1l9,1l9,2l9,1l10,1l9,1l9,1l10,1l9,1h9l9,1l10,1l9,1l9,1l10,1l9,1l9,1h9l10,1l9,1l9,1h10l9,1l9,1l9,1h10l9,1l9,1h10l9,1l9,1l9,1h10l9,1h9l10,1l9,1h9l10,1h9l9,1l9,1h10l9,1h9l10,1l9,1h9l9,1h10" style="fill: none; stroke: #00ff00; stroke-width: 1;"></path></g><g><path d="M5,334h9l10,-1h9l9,-1l9,-1h10l9,-1h9l10,-1l9,-1h9l9,-1h10l9,-1l9,-1h10l9,-1h9l10,-1l9,-1l9,-1h9l10,-1l9,-1h9l10,-1l9,-1l9,-1h9l10,-1l9,-1l9,-1h10l9,-1l9,-1l9,-1l10,-1l9,-1l9,-1l10,-1h9l9,-1l9,-1l10,-1l9,-1l9,-1l10,-1l9,-2l9,-1l10,-1l9,-1l9,-1l9,-1l10,-2l9,-1l9,-1l10,-2l9,-1l9,-1l9,-2l10,-1l9,-2l9,-1l10,-2l9,-2l9,-2l9,-2l10,-2l9,-2l9,-2l10,-2l9,-2l9,-3l9,-2l10,-3l9,-3l9,-2l10,-4l9,-3l9,-4l9,-3l10,-4l9,-5l9,-5l10,-5l9,-6l9,-6l10,-7l9,-8l9,-10l9,-10l10,-13l9,-16l9,-19l10,-25l9,-35l9,-54l9,-99l10,-321" style="fill: none; stroke: #0000ff; stroke-width: 1;"></path></g><g><path d="M5,332l9,-4l10,-4l9,-4l9,-4l9,-4l10,-3l9,-4l9,-4l10,-3l9,-4l9,-3l9,-3l10,-3l9,-3l9,-3l10,-3l9,-3l9,-3l10,-2l9,-3l9,-2l9,-3l10,-2l9,-2l9,-2l10,-2l9,-2l9,-2l9,-2l10,-2l9,-1l9,-2l10,-1l9,-2l9,-1l9,-1l10,-1l9,-1l9,-1l10,-1l9,-1l9,-1h9l10,-1h9h9l10,-1h9h9h10h9h9l9,1h10h9l9,1h10l9,1l9,1l9,1l10,1l9,1l9,1l10,1l9,1l9,2l9,1l10,2l9,1l9,2l10,2l9,2l9,2l9,2l10,2l9,2l9,2l10,3l9,2l9,3l9,2l10,3l9,3l9,3l10,3l9,3l9,3l10,3l9,3l9,4l9,3l10,4l9,4l9,3l10,4l9,4l9,4l9,4l10,4" style="fill: none; stroke: #ff00ff; stroke-width: 1;"></path></g></svg><g><g transform="translate(0,303)"><path d="M0,0h929M0,-303h929M0,-9V0M19,-5V0M37,-5V0M56,-5V0M74,-5V0M93,-9V0M111,-5V0M130,-5V0M149,-5V0M167,-5V0M186,-9V0M204,-5V0M223,-5V0M242,-5V0M260,-5V0M279,-9V0M297,-5V0M316,-5V0M334,-5V0M353,-5V0M372,-9V0M390,-5V0M409,-5V0M427,-5V0M446,-5V0M465,-9V0M483,-5V0M502,-5V0M520,-5V0M539,-5V0M557,-9V0M576,-5V0M595,-5V0M613,-5V0M632,-5V0M650,-9V0M669,-5V0M687,-5V0M706,-5V0M725,-5V0M743,-9V0M762,-5V0M780,-5V0M799,-5V0M818,-5V0M836,-9V0M855,-5V0M873,-5V0M892,-5V0M910,-5V0M929,-9V0M0,-294V-303M19,-298V-303M37,-298V-303M56,-298V-303M74,-298V-303M93,-294V-303M111,-298V-303M130,-298V-303M149,-298V-303M167,-298V-303M186,-294V-303M204,-298V-303M223,-298V-303M242,-298V-303M260,-298V-303M279,-294V-303M297,-298V-303M316,-298V-303M334,-298V-303M353,-298V-303M372,-294V-303M390,-298V-303M409,-298V-303M427,-298V-303M446,-298V-303M465,-294V-303M483,-298V-303M502,-298V-303M520,-298V-303M539,-298V-303M557,-294V-303M576,-298V-303M595,-298V-303M613,-298V-303M632,-298V-303M650,-294V-303M669,-298V-303M687,-298V-303M706,-298V-303M725,-298V-303M743,-294V-303M762,-298V-303M780,-298V-303M799,-298V-303M818,-298V-303M836,-294V-303M855,-298V-303M873,-298V-303M892,-298V-303M910,-298V-303M929,-294V-303" style="stroke: #000000; stroke-width: 1;"></path><g font-family="Arial" font-size="19" space="preserve" fill="#000000" text-anchor="middle"><text dy=".8em" transform="translate(0,2)">0</text><text dy=".8em" transform="translate(93,2)">0.1</text><text dy=".8em" transform="translate(186,2)">0.2</text><text dy=".8em" transform="translate(279,2)">0.3</text><text dy=".8em" transform="translate(372,2)">0.4</text><text dy=".8em" transform="translate(465,2)">0.5</text><text dy=".8em" transform="translate(557,2)">0.6</text><text dy=".8em" transform="translate(650,2)">0.7</text><text dy=".8em" transform="translate(743,2)">0.8</text><text dy=".8em" transform="translate(836,2)">0.9</text><text dy=".8em" transform="translate(929,2)">1</text></g></g><g><path d="M0,0v303M929,0v303M28,299H0M14,292H0M14,285H0M14,278H0M14,271H0M28,263H0M14,256H0M14,249H0M14,242H0M14,235H0M28,228H0M14,221H0M14,214H0M14,207H0M14,200H0M28,193H0M14,186H0M14,178H0M14,171H0M14,164H0M28,157H0M14,150H0M14,143H0M14,136H0M14,129H0M28,122H0M14,115H0M14,108H0M14,100H0M14,93H0M28,86H0M14,79H0M14,72H0M14,65H0M14,58H0M28,51H0M14,44H0M14,37H0M14,30H0M14,22H0M28,15H0M14,8H0M14,1H0M901,299H929M915,292H929M915,285H929M915,278H929M915,271H929M901,263H929M915,256H929M915,249H929M915,242H929M915,235H929M901,228H929M915,221H929M915,214H929M915,207H929M915,200H929M901,193H929M915,186H929M915,178H929M915,171H929M915,164H929M901,157H929M915,150H929M915,143H929M915,136H929M915,129H929M901,122H929M915,115H929M915,108H929M915,100H929M915,93H929M901,86H929M915,79H929M915,72H929M915,65H929M915,58H929M901,51H929M915,44H929M915,37H929M915,30H929M915,22H929M901,15H929M915,8H929M915,1H929" style="stroke: #000000; stroke-width: 1;"></path><g font-family="Arial" font-size="19" space="preserve" fill="#000000" text-anchor="end"><text dy=".4em" transform="translate(-3,299)">0.5</text><text dy=".4em" transform="translate(-3,263)">1</text><text dy=".4em" transform="translate(-3,228)">1.5</text><text dy=".4em" transform="translate(-3,193)">2</text><text dy=".4em" transform="translate(-3,157)">2.5</text><text dy=".4em" transform="translate(-3,122)">3</text><text dy=".4em" transform="translate(-3,86)">3.5</text><text dy=".4em" transform="translate(-3,51)">4</text><text dy=".4em" transform="translate(-3,15)">4.5</text></g></g><path d="M0,0v303M93,0v303M186,0v303M279,0v303M372,0v303M465,0v303M557,0v303M650,0v303M743,0v303M836,0v303M929,0v303" style="stroke: #000000; stroke-width: 1; stroke-dasharray: 1,2;"></path><path d="M0,299h929M0,263h929M0,228h929M0,193h929M0,157h929M0,122h929M0,86h929M0,51h929M0,15h929" style="stroke: #000000; stroke-width: 1; stroke-dasharray: 1,2;"></path></g></g><g transform="translate(-453,2)" style="display: none;"><path d="M929,2h2v12h-929v-2h927z" style="fill: #000000; stroke: #000000; stroke-width: 1px;"></path><path d="M0,0H929V12H0Z" style="fill: #f2f2f2; stroke: #000000; stroke-width: 1;"></path></g><g transform="translate(588,38)" font-family="Arial" font-size="15" space="preserve" font-weight="bold"><path d="M353,4h4v77h-353v-4h349z" style="fill: #000000; stroke: #000000; stroke-width: 1px;"></path><path d="M0,0H353V77H0Z" style="fill: #ffffff; stroke: #000000; stroke-width: 1;"></path><path d="M11,11H77" style="stroke: #ff0000; stroke-width: 1;"></path><text fill="#000000" text-anchor="start" dy=".4em" transform="translate(88,11)">p=0.5  q=0.5</text><path d="M11,29H77" style="stroke: #00ff00; stroke-width: 1;"></path><text fill="#000000" text-anchor="start" dy=".4em" transform="translate(88,29)">p=0.5  q=2</text><path d="M11,48H77" style="stroke: #0000ff; stroke-width: 1;"></path><text fill="#000000" text-anchor="start" dy=".4em" transform="translate(88,48)">p=2    q=0.5</text><path d="M11,66H77" style="stroke: #ff00ff; stroke-width: 1;"></path><text fill="#000000" text-anchor="start" dy=".4em" transform="translate(88,66)">p=2    q=2</text></g></g></svg><svg viewBox="0 0 1176 384" preserveAspectRatio="none" x="12" y="408" width="1176" height="384"><path d="M0,0H1176V384H0Z" style="fill: #ffffff;"></path><g><g transform="translate(188,19)"><path d="M0,0H929V303H0Z" style="fill: #ffffff; stroke: #000000; stroke-width: 1;"></path><svg x="0" y="0" overflow="hidden" width="929" height="303" viewBox="0 0 929 303"><g><path d="M5,289l9,-10l10,-7l9,-5l9,-5l9,-5l10,-4l9,-3l9,-4l10,-3l9,-3l9,-4l9,-3l10,-2l9,-3l9,-3l10,-2l9,-3l9,-3l10,-2l9,-2l9,-3l9,-2l10,-2l9,-3l9,-2l10,-2l9,-2l9,-2l9,-2l10,-3l9,-2l9,-2l10,-2l9,-2l9,-2l9,-2l10,-2l9,-2l9,-2l10,-2l9,-2l9,-2l9,-2l10,-1l9,-2l9,-2l10,-2l9,-2l9,-2l10,-2l9,-2l9,-2l9,-2l10,-2l9,-2l9,-2l10,-2l9,-2l9,-1l9,-2l10,-2l9,-2l9,-2l10,-2l9,-2l9,-2l9,-2l10,-3l9,-2l9,-2l10,-2l9,-2l9,-2l9,-2l10,-3l9,-2l9,-2l10,-2l9,-3l9,-2l9,-3l10,-2l9,-3l9,-2l10,-3l9,-3l9,-3l10,-3l9,-3l9,-3l9,-3l10,-4l9,-4l9,-4l10,-4l9,-5l9,-6l9,-7l10,-10" style="fill: none; stroke: #ff0000; stroke-width: 1;"></path></g><g><path d="M5,271l9,-23l10,-16l9,-13l9,-11l9,-9l10,-9l9,-8l9,-7l10,-7l9,-7l9,-6l9,-6l10,-5l9,-5l9,-5l10,-5l9,-5l9,-4l10,-4l9,-4l9,-4l9,-4l10,-4l9,-3l9,-3l10,-4l9,-3l9,-3l9,-3l10,-3l9,-3l9,-2l10,-3l9,-3l9,-2l9,-3l10,-2l9,-2l9,-2l10,-3l9,-2l9,-2l9,-2l10,-2l9,-1l9,-2l10,-2l9,-2l9,-1l10,-2l9,-1l9,-2l9,-1l10,-2l9,-1l9,-2l10,-1l9,-1l9,-1l9,-1l10,-2l9,-1l9,-1l10,-1l9,-1l9,-1l9,-1h10l9,-1l9,-1l10,-1l9,-1h9l9,-1l10,-1h9l9,-1l10,-1h9l9,-1h9h10l9,-1h9l10,-1h9h9l10,-1h9h9h9l10,-1h9h9h10h9h9h9h10" style="fill: none; stroke: #00ff00; stroke-width: 1;"></path></g><g><path d="M5,303h9h10h9h9h9h10l9,-1h9h10h9l9,-1h9h10l9,-1h9h10l9,-1h9l10,-1h9l9,-1h9l10,-1h9l9,-1l10,-1l9,-1h9l9,-1l10,-1l9,-1l9,-1h10l9,-1l9,-1l9,-1l10,-1l9,-2l9,-1l10,-1l9,-1l9,-1l9,-2l10,-1l9,-1l9,-2l10,-1l9,-2l9,-1l10,-2l9,-2l9,-1l9,-2l10,-2l9,-2l9,-2l10,-2l9,-2l9,-2l9,-2l10,-2l9,-2l9,-3l10,-2l9,-3l9,-2l9,-3l10,-2l9,-3l9,-3l10,-3l9,-3l9,-3l9,-4l10,-3l9,-4l9,-3l10,-4l9,-4l9,-4l9,-4l10,-5l9,-4l9,-5l10,-5l9,-5l9,-6l10,-5l9,-6l9,-7l9,-7l10,-7l9,-8l9,-9l10,-9l9,-11l9,-13l9,-16l10,-23" style="fill: none; stroke: #0000ff; stroke-width: 1;"></path></g><g><path d="M5,303h9l10,-1h9l9,-1l9,-1l10,-1l9,-1l9,-1l10,-2l9,-1l9,-2l9,-2l10,-2l9,-2l9,-3l10,-2l9,-3l9,-2l10,-3l9,-3l9,-3l9,-3l10,-3l9,-4l9,-3l10,-3l9,-4l9,-4l9,-3l10,-4l9,-4l9,-4l10,-4l9,-4l9,-4l9,-4l10,-5l9,-4l9,-4l10,-5l9,-4l9,-4l9,-5l10,-4l9,-5l9,-4l10,-5l9,-4l9,-5l10,-4l9,-5l9,-4l9,-5l10,-4l9,-5l9,-4l10,-5l9,-4l9,-5l9,-4l10,-4l9,-5l9,-4l10,-4l9,-4l9,-4l9,-4l10,-4l9,-4l9,-4l10,-4l9,-3l9,-4l9,-3l10,-4l9,-3l9,-3l10,-3l9,-3l9,-3l9,-3l10,-3l9,-2l9,-3l10,-2l9,-2l9,-2l10,-2l9,-2l9,-2l9,-1l10,-1l9,-2l9,-1h10l9,-1l9,-1h9h10" style="fill: none; stroke: #ff00ff; stroke-width: 1;"></path></g></svg><g><g transform="translate(0,303)"><path d="M0,0h929M0,-303h929M0,-9V0M19,-5V0M37,-5V0M56,-5V0M74,-5V0M93,-9V0M111,-5V0M130,-5V0M149,-5V0M167,-5V0M186,-9V0M204,-5V0M223,-5V0M242,-5V0M260,-5V0M279,-9V0M297,-5V0M316,-5V0M334,-5V0M353,-5V0M372,-9V0M390,-5V0M409,-5V0M427,-5V0M446,-5V0M465,-9V0M483,-5V0M502,-5V0M520,-5V0M539,-5V0M557,-9V0M576,-5V0M595,-5V0M613,-5V0M632,-5V0M650,-9V0M669,-5V0M687,-5V0M706,-5V0M725,-5V0M743,-9V0M762,-5V0M780,-5V0M799,-5V0M818,-5V0M836,-9V0M855,-5V0M873,-5V0M892,-5V0M910,-5V0M929,-9V0M0,-294V-303M19,-298V-303M37,-298V-303M56,-298V-303M74,-298V-303M93,-294V-303M111,-298V-303M130,-298V-303M149,-298V-303M167,-298V-303M186,-294V-303M204,-298V-303M223,-298V-303M242,-298V-303M260,-298V-303M279,-294V-303M297,-298V-303M316,-298V-303M334,-298V-303M353,-298V-303M372,-294V-303M390,-298V-303M409,-298V-303M427,-298V-303M446,-298V-303M465,-294V-303M483,-298V-303M502,-298V-303M520,-298V-303M539,-298V-303M557,-294V-303M576,-298V-303M595,-298V-303M613,-298V-303M632,-298V-303M650,-294V-303M669,-298V-303M687,-298V-303M706,-298V-303M725,-298V-303M743,-294V-303M762,-298V-303M780,-298V-303M799,-298V-303M818,-298V-303M836,-294V-303M855,-298V-303M873,-298V-303M892,-298V-303M910,-298V-303M929,-294V-303" style="stroke: #000000; stroke-width: 1;"></path><g font-family="Arial" font-size="19" space="preserve" fill="#000000" text-anchor="middle"><text dy=".8em" transform="translate(0,2)">0</text><text dy=".8em" transform="translate(93,2)">0.1</text><text dy=".8em" transform="translate(186,2)">0.2</text><text dy=".8em" transform="translate(279,2)">0.3</text><text dy=".8em" transform="translate(372,2)">0.4</text><text dy=".8em" transform="translate(465,2)">0.5</text><text dy=".8em" transform="translate(557,2)">0.6</text><text dy=".8em" transform="translate(650,2)">0.7</text><text dy=".8em" transform="translate(743,2)">0.8</text><text dy=".8em" transform="translate(836,2)">0.9</text><text dy=".8em" transform="translate(929,2)">1</text></g></g><g><path d="M0,0v303M929,0v303M28,303H0M14,297H0M14,291H0M14,285H0M14,279H0M28,273H0M14,267H0M14,261H0M14,255H0M14,249H0M28,243H0M14,237H0M14,230H0M14,224H0M14,218H0M28,212H0M14,206H0M14,200H0M14,194H0M14,188H0M28,182H0M14,176H0M14,170H0M14,164H0M14,158H0M28,152H0M14,146H0M14,140H0M14,134H0M14,128H0M28,122H0M14,116H0M14,110H0M14,104H0M14,98H0M28,91H0M14,85H0M14,79H0M14,73H0M14,67H0M28,61H0M14,55H0M14,49H0M14,43H0M14,37H0M28,31H0M14,25H0M14,19H0M14,13H0M14,7H0M28,1H0M901,303H929M915,297H929M915,291H929M915,285H929M915,279H929M901,273H929M915,267H929M915,261H929M915,255H929M915,249H929M901,243H929M915,237H929M915,230H929M915,224H929M915,218H929M901,212H929M915,206H929M915,200H929M915,194H929M915,188H929M901,182H929M915,176H929M915,170H929M915,164H929M915,158H929M901,152H929M915,146H929M915,140H929M915,134H929M915,128H929M901,122H929M915,116H929M915,110H929M915,104H929M915,98H929M901,91H929M915,85H929M915,79H929M915,73H929M915,67H929M901,61H929M915,55H929M915,49H929M915,43H929M915,37H929M901,31H929M915,25H929M915,19H929M915,13H929M915,7H929M901,1H929" style="stroke: #000000; stroke-width: 1;"></path><g font-family="Arial" font-size="19" space="preserve" fill="#000000" text-anchor="end"><text dy=".4em" transform="translate(-3,303)">0</text><text dy=".4em" transform="translate(-3,273)">0.1</text><text dy=".4em" transform="translate(-3,243)">0.2</text><text dy=".4em" transform="translate(-3,212)">0.3</text><text dy=".4em" transform="translate(-3,182)">0.4</text><text dy=".4em" transform="translate(-3,152)">0.5</text><text dy=".4em" transform="translate(-3,122)">0.6</text><text dy=".4em" transform="translate(-3,91)">0.7</text><text dy=".4em" transform="translate(-3,61)">0.8</text><text dy=".4em" transform="translate(-3,31)">0.9</text><text dy=".4em" transform="translate(-3,1)">1</text></g></g><path d="M0,0v303M93,0v303M186,0v303M279,0v303M372,0v303M465,0v303M557,0v303M650,0v303M743,0v303M836,0v303M929,0v303" style="stroke: #000000; stroke-width: 1; stroke-dasharray: 1,2;"></path><path d="M0,303h929M0,273h929M0,243h929M0,212h929M0,182h929M0,152h929M0,122h929M0,91h929M0,61h929M0,31h929M0,1h929" style="stroke: #000000; stroke-width: 1; stroke-dasharray: 1,2;"></path></g></g><g transform="translate(-453,2)" style="display: none;"><path d="M929,2h2v12h-929v-2h927z" style="fill: #000000; stroke: #000000; stroke-width: 1px;"></path><path d="M0,0H929V12H0Z" style="fill: #f2f2f2; stroke: #000000; stroke-width: 1;"></path></g><g transform="translate(823,250)" font-family="Arial" font-size="15" space="preserve" font-weight="bold"><path d="M235,4h4v77h-235v-4h231z" style="fill: #000000; stroke: #000000; stroke-width: 1px;"></path><path d="M0,0H235V77H0Z" style="fill: #ffffff; stroke: #000000; stroke-width: 1;"></path><path d="M7,11H52" style="stroke: #ff0000; stroke-width: 1;"></path><text fill="#000000" text-anchor="start" dy=".4em" transform="translate(59,11)">p=0.5  q=0.5</text><path d="M7,29H52" style="stroke: #00ff00; stroke-width: 1;"></path><text fill="#000000" text-anchor="start" dy=".4em" transform="translate(59,29)">p=0.5  q=2</text><path d="M7,48H52" style="stroke: #0000ff; stroke-width: 1;"></path><text fill="#000000" text-anchor="start" dy=".4em" transform="translate(59,48)">p=2    q=0.5</text><path d="M7,66H52" style="stroke: #ff00ff; stroke-width: 1;"></path><text fill="#000000" text-anchor="start" dy=".4em" transform="translate(59,66)">p=2    q=2</text></g></g></svg></g></svg>