<svg xmlns="http://www.w3.org/2000/svg" viewBox="0 0 1200 800" preserveAspectRatio="none" width="1200" height="800"><path d="M0,0H1200V800H0Z" style="fill: #ffffff;"></path><g><g transform="translate(192,40)"><path d="M0,0H948V632H0Z" style="fill: #ffffff; stroke: #000000; stroke-width: 1;"></path><svg x="0" y="0" overflow="hidden" width="948" height="632" viewBox="0 0 948 632"><g><g transform="translate(181,567)"><path style="stroke: #000000; stroke-width: 1; fill: none;" d="M0,0H-31m0,1v-2M0,0H31m0,1v-2M0,0V36m1,0h-2M0,0V-36m1,0h-2"></path></g><g transform="translate(276,390)"><path style="stroke: #000000; stroke-width: 1; fill: none;" d="M0,0H-63m0,1v-2M0,0H63m0,1v-2M0,0V32m1,0h-2M0,0V-32m1,0h-2"></path></g><g transform="translate(402,267)"><path style="stroke: #000000; stroke-width: 1; fill: none;" d="M0,0H-44m0,1v-2M0,0H44m0,1v-2M0,0V27m1,0h-2M0,0V-27m1,0h-2"></path></g><g transform="translate(465,185)"><path style="stroke: #000000; stroke-width: 1; fill: none;" d="M0,0H-44m0,1v-2M0,0H44m0,1v-2M0,0V23m1,0h-2M0,0V-23m1,0h-2"></path></g><g transform="translate(559,113)"><path style="stroke: #000000; stroke-width: 1; fill: none;" d="M0,0H-25m0,1v-2M0,0H25m0,1v-2M0,0V18m1,0h-2M0,0V-18m1,0h-2"></path></g><g transform="translate(628,86)"><path style="stroke: #000000; stroke-width: 1; fill: none;" d="M0,0H-31m0,1v-2M0,0H31m0,1v-2M0,0V18m1,0h-2M0,0V-18m1,0h-2"></path></g><g transform="translate(685,126)"><path style="stroke: #000000; stroke-width: 1; fill: none;" d="M0,0H-38m0,1v-2M0,0H38m0,1v-2M0,0V23m1,0h-2M0,0V-23m1,0h-2"></path></g><g transform="translate(779,235)"><path style="stroke: #000000; stroke-width: 1; fill: none;" d="M0,0H-44m0,1v-2M0,0H44m0,1v-2M0,0V27m1,0h-2M0,0V-27m1,0h-2"></path></g><g transform="translate(804,317)"><path style="stroke: #000000; stroke-width: 1; fill: none;" d="M0,0H-50m0,1v-2M0,0H50m0,1v-2M0,0V32m1,0h-2M0,0V-32m1,0h-2"></path></g><g transform="translate(842,476)"><path style="stroke: #000000; stroke-width: 1; fill: none;" d="M0,0H-31m0,1v-2M0,0H31m0,1v-2M0,0V36m1,0h-2M0,0V-36m1,0h-2"></path></g><path d="M177,562v10h10v-10zM271,385v10h10v-10zM397,262v10h10v-10zM460,181v10h10v-10zM554,108v10h10v-10zM623,81v10h10v-10zM680,122v10h10v-10zM774,231v10h10v-10zM799,312v10h10v-10zM837,471v10h10v-10z" style="stroke: #0000ff; fill: #0000ff;"></path></g><g><path d="M82,519l9,-1h9l8,-1l9,-1l9,-1l8,-1l9,-1l9,-1l9,-2l8,-2l9,-2l9,-2l8,-3l9,-2l9,-4l8,-3l9,-4l9,-4l8,-5l9,-5l9,-6l8,-6l9,-7l9,-7l8,-8l9,-8l9,-9l8,-10l9,-10l9,-10l8,-11l9,-12l9,-12l9,-13l8,-13l9,-13l9,-14l8,-14l9,-14l9,-14l8,-15l9,-14l9,-14l8,-14l9,-14l9,-13l8,-13l9,-12l9,-11l8,-11l9,-9l9,-9l8,-8l9,-6l9,-6l9,-4l8,-3l9,-2l9,-1l8,1l9,2l9,3l8,4l9,6l9,7l8,8l9,9l9,9l8,11l9,11l9,13l8,12l9,13l9,14l8,14l9,14l9,14l8,15l9,14l9,14l9,14l8,14l9,13l9,13l8,13l9,12l9,12l8,11l9,10l9,10l8,10l9,8l9,9l8,8l9,7l9,6l8,6l9,6l9,5" style="fill: none; stroke: #0000ff; stroke-width: 3;"></path></g><g><g transform="translate(68,426)"><path style="stroke: #000000; stroke-width: 1; fill: none;" d="M0,0H-25m0,1v-2M0,0H25m0,1v-2M0,0V27m1,0h-2M0,0V-27m1,0h-2"></path></g><g transform="translate(248,346)"><path style="stroke: #000000; stroke-width: 1; fill: none;" d="M0,0H-75m0,1v-2M0,0H75m0,1v-2M0,0V36m1,0h-2M0,0V-36m1,0h-2"></path></g><g transform="translate(364,204)"><path style="stroke: #000000; stroke-width: 1; fill: none;" d="M0,0H-50m0,1v-2M0,0H50m0,1v-2M0,0V32m1,0h-2M0,0V-32m1,0h-2"></path></g><g transform="translate(427,113)"><path style="stroke: #000000; stroke-width: 1; fill: none;" d="M0,0H-38m0,1v-2M0,0H38m0,1v-2M0,0V18m1,0h-2M0,0V-18m1,0h-2"></path></g><g transform="translate(527,67)"><path style="stroke: #000000; stroke-width: 1; fill: none;" d="M0,0H-31m0,1v-2M0,0H31m0,1v-2M0,0V14m1,0h-2M0,0V-14m1,0h-2"></path></g><g transform="translate(597,42)"><path style="stroke: #000000; stroke-width: 1; fill: none;" d="M0,0H-25m0,1v-2M0,0H25m0,1v-2M0,0V14m1,0h-2M0,0V-14m1,0h-2"></path></g><g transform="translate(653,84)"><path style="stroke: #000000; stroke-width: 1; fill: none;" d="M0,0H-44m0,1v-2M0,0H44m0,1v-2M0,0V18m1,0h-2M0,0V-18m1,0h-2"></path></g><g transform="translate(748,192)"><path style="stroke: #000000; stroke-width: 1; fill: none;" d="M0,0H-38m0,1v-2M0,0H38m0,1v-2M0,0V23m1,0h-2M0,0V-23m1,0h-2"></path></g><g transform="translate(811,275)"><path style="stroke: #000000; stroke-width: 1; fill: none;" d="M0,0H-50m0,1v-2M0,0H50m0,1v-2M0,0V27m1,0h-2M0,0V-27m1,0h-2"></path></g><g transform="translate(880,431)"><path style="stroke: #000000; stroke-width: 1; fill: none;" d="M0,0H-25m0,1v-2M0,0H25m0,1v-2M0,0V32m1,0h-2M0,0V-32m1,0h-2"></path></g><path d="M63,426a5,5,0,1,0,10,0a5,5,0,1,0,-10,0zM243,346a5,5,0,1,0,10,0a5,5,0,1,0,-10,0zM359,204a5,5,0,1,0,10,0a5,5,0,1,0,-10,0zM422,113a5,5,0,1,0,10,0a5,5,0,1,0,-10,0zM522,67a5,5,0,1,0,10,0a5,5,0,1,0,-10,0zM592,42a5,5,0,1,0,10,0a5,5,0,1,0,-10,0zM648,84a5,5,0,1,0,10,0a5,5,0,1,0,-10,0zM743,192a5,5,0,1,0,10,0a5,5,0,1,0,-10,0zM806,275a5,5,0,1,0,10,0a5,5,0,1,0,-10,0zM875,431a5,5,0,1,0,10,0a5,5,0,1,0,-10,0z" style="stroke: #ff0000; fill: #ff0000;"></path></g><g><path d="M-38,3882l11,-598l10,-526l10,-462l11,-401l10,-347l10,-298l11,-253l10,-212l10,-175l11,-144l10,-114l10,-89l11,-67l10,-48l10,-31l11,-17l10,-5l10,4l11,12l10,18l10,22l11,24l10,27l10,27l11,27l10,25l10,23l11,21l10,18l11,14l10,11l10,8l11,3h10l10,-4l11,-7l10,-10l10,-14l11,-16l10,-18l10,-20l11,-22l10,-22l10,-24l11,-23l10,-23l10,-23l11,-21l10,-20l10,-18l11,-16l10,-14l10,-11l11,-8l10,-6l10,-3l11,-1l10,2l10,4l11,6l10,7l10,7l11,7l10,6l10,4l11,1l10,-5l10,-10l11,-18l10,-29l11,-40l10,-54l10,-71l11,-90l10,-112l10,-137l11,-165l10,-198l10,-233l11,-274l10,-317l10,-366l11,-420l10,-478l10,-543l11,-612l10,-688l10,-770l11,-859l10,-955l10,-1057l11,-1168l10,-1287l10,-1413l11,-1549l10,-1694l10,-1847l11,-2011l10,-2185" style="fill: none; stroke: #ff0000; stroke-width: 3; stroke-dasharray: 3,3;"></path></g></svg><g><g transform="translate(0,632)"><path d="M0,0h948M0,-632h948M24,-10V0M56,-10V0M87,-10V0M119,-19V0M150,-10V0M181,-10V0M213,-10V0M244,-19V0M276,-10V0M307,-10V0M339,-10V0M370,-19V0M402,-10V0M433,-10V0M465,-10V0M496,-19V0M527,-10V0M559,-10V0M590,-10V0M622,-19V0M653,-10V0M685,-10V0M716,-10V0M748,-19V0M779,-10V0M811,-10V0M842,-10V0M873,-19V0M905,-10V0M936,-10V0M24,-622V-632M56,-622V-632M87,-622V-632M119,-613V-632M150,-622V-632M181,-622V-632M213,-622V-632M244,-613V-632M276,-622V-632M307,-622V-632M339,-622V-632M370,-613V-632M402,-622V-632M433,-622V-632M465,-622V-632M496,-613V-632M527,-622V-632M559,-622V-632M590,-622V-632M622,-613V-632M653,-622V-632M685,-622V-632M716,-622V-632M748,-613V-632M779,-622V-632M811,-622V-632M842,-622V-632M873,-613V-632M905,-622V-632M936,-622V-632" style="stroke: #000000; stroke-width: 1;"></path><g font-family="Arial" font-size="40" space="preserve" fill="#000000" text-anchor="middle"><text dy=".8em" transform="translate(119,4)">-0.2</text><text dy=".8em" transform="translate(244,4)">0</text><text dy=".8em" transform="translate(370,4)">0.2</text><text dy=".8em" transform="translate(496,4)">0.4</text><text dy=".8em" transform="translate(622,4)">0.6</text><text dy=".8em" transform="translate(748,4)">0.8</text><text dy=".8em" transform="translate(873,4)">1</text></g></g><g><path d="M0,0v632M948,0v632M28,612H0M14,590H0M14,567H0M14,544H0M28,522H0M14,499H0M14,476H0M14,453H0M28,431H0M14,408H0M14,385H0M14,363H0M28,340H0M14,317H0M14,294H0M14,272H0M28,249H0M14,226H0M14,204H0M14,181H0M28,158H0M14,135H0M14,113H0M14,90H0M28,67H0M14,45H0M14,22H0M920,612H948M934,590H948M934,567H948M934,544H948M920,522H948M934,499H948M934,476H948M934,453H948M920,431H948M934,408H948M934,385H948M934,363H948M920,340H948M934,317H948M934,294H948M934,272H948M920,249H948M934,226H948M934,204H948M934,181H948M920,158H948M934,135H948M934,113H948M934,90H948M920,67H948M934,45H948M934,22H948" style="stroke: #000000; stroke-width: 1;"></path><g font-family="Arial" font-size="40" space="preserve" fill="#000000" text-anchor="end"><text dy=".4em" transform="translate(-6,612)">-2</text><text dy=".4em" transform="translate(-6,522)">0</text><text dy=".4em" transform="translate(-6,431)">2</text><text dy=".4em" transform="translate(-6,340)">4</text><text dy=".4em" transform="translate(-6,249)">6</text><text dy=".4em" transform="translate(-6,158)">8</text><text dy=".4em" transform="translate(-6,67)">10</text></g></g><path d="M119,0v632M244,0v632M370,0v632M496,0v632M622,0v632M748,0v632M873,0v632" style="stroke: #000000; stroke-width: 1; stroke-dasharray: 1,2;"></path><path d="M0,612h948M0,522h948M0,431h948M0,340h948M0,249h948M0,158h948M0,67h948" style="stroke: #000000; stroke-width: 1; stroke-dasharray: 1,2;"></path></g></g><g transform="translate(-462,4)" style="display: none;"><path d="M948,2h2v25h-948v-2h946z" style="fill: #000000; stroke: #000000; stroke-width: 1px;"></path><path d="M0,0H948V25H0Z" style="fill: #f2f2f2; stroke: #000000; stroke-width: 1;"></path></g><g transform="translate(144,160)" font-family="Arial" font-size="1" space="preserve"><path d="M0,0H240V-16H0Z" style="fill: #ffffff; stroke: #000000; stroke-width: 1;"></path><g transform="translate(12,-2) scale(1.111)"><text fill="#0000ff" font-size="-3">χ</text><text fill="#0000ff" font-size="-2" transform="translate(-2,-1)">2</text><text fill="#0000ff" font-size="-3" x="-3">/ ndf</text></g><text fill="#0000ff" text-anchor="end" dy=".4em" transform="translate(228,-2)"> 8.792 / 7</text><text fill="#0000ff" text-anchor="start" dy=".4em" transform="translate(12,-6)">Constant </text><g transform="translate(228,-6) scale(1.111)"><text fill="#0000ff" font-size="-3" x="-1">9.630 ± 0.391</text></g><text fill="#0000ff" text-anchor="start" dy=".4em" transform="translate(12,-10)">Mean </text><g transform="translate(228,-10) scale(1.111)"><text fill="#0000ff" font-size="-3" x="-1">0.5555 ± 0.0237</text></g><text fill="#0000ff" text-anchor="start" dy=".4em" transform="translate(12,-14)">Sigma </text><g transform="translate(228,-14) scale(1.111)"><text fill="#0000ff" font-size="-3" x="-1">0.2556 ± 0.0219</text></g></g><g transform="translate(864,160)" font-family="Arial" font-size="4" space="preserve"><path d="M0,0H240V40H0Z" style="fill: #ffffff; stroke: #000000; stroke-width: 1;"></path><g transform="translate(12,5) scale(0.807)"><text fill="#ff0000" font-size="5">χ</text><text fill="#ff0000" font-size="3" transform="translate(3,-3)">2</text><text fill="#ff0000" font-size="5" x="7">/ ndf</text></g><text fill="#ff0000" text-anchor="end" dy=".4em" transform="translate(228,3)"> 17.70 / 4</text><text fill="#ff0000" text-anchor="start" dy=".4em" transform="translate(12,9)">p0 </text><g transform="translate(193,10) scale(0.807)"><text fill="#ff0000" font-size="5" x="2">4.644 ± 78093.423</text></g><text fill="#ff0000" text-anchor="start" dy=".4em" transform="translate(12,14)">p1 </text><g transform="translate(194,16) scale(0.807)"><text fill="#ff0000" font-size="5" x="2">-28.63 ± 78043.81</text></g><text fill="#ff0000" text-anchor="start" dy=".4em" transform="translate(12,20)">p2 </text><g transform="translate(198,21) scale(0.807)"><text fill="#ff0000" font-size="5" x="2">109.0 ± 78027.4</text></g><text fill="#ff0000" text-anchor="start" dy=".4em" transform="translate(12,26)">p3 </text><g transform="translate(198,27) scale(0.807)"><text fill="#ff0000" font-size="5" x="2">388.5 ± 71003.5</text></g><text fill="#ff0000" text-anchor="start" dy=".4em" transform="translate(12,31)">p4 </text><g transform="translate(198,33) scale(0.807)"><text fill="#ff0000" font-size="5" x="2">-1437 ± 39.8614</text></g><text fill="#ff0000" text-anchor="start" dy=".4em" transform="translate(12,37)">p5 </text><g transform="translate(193,39) scale(0.807)"><text fill="#ff0000" font-size="5" x="2">1100 ± 65018.0173</text></g></g></g></svg>