<svg xmlns="http://www.w3.org/2000/svg" viewBox="0 0 1200 800" preserveAspectRatio="none" width="1200" height="800"><path d="M0,0H1200V800H0Z" style="fill: #ffffff;"></path><g><svg viewBox="0 0 1176 251" preserveAspectRatio="none" x="12" y="8" width="1176" height="251"><path d="M0,0H1176V251H0Z" style="fill: #ffffff;"></path><g><g transform="translate(188,13)"><path d="M0,0H929V198H0Z" style="fill: #ffffff; stroke: #000000; stroke-width: 1;"></path><svg x="0" y="0" overflow="hidden" width="929" height="198" viewBox="0 0 929 198"><g><path d="M5,198h9h10h9h9h9h10h9h9h10h9h9h9h10h9h9l10,-1h9h9l10,-1h9l9,-1l9,-1l10,-2l9,-1l9,-2l10,-3l9,-3l9,-4l9,-4l10,-5l9,-6l9,-7l10,-7l9,-9l9,-9l9,-10l10,-10l9,-11l9,-12l10,-11l9,-12l9,-11l9,-10l10,-9l9,-9l9,-7l10,-5l9,-4l9,-2h10l9,2l9,4l9,5l10,7l9,9l9,9l10,10l9,11l9,12l9,11l10,12l9,11l9,10l10,10l9,9l9,9l9,7l10,7l9,6l9,5l10,4l9,4l9,3l9,3l10,2l9,1l9,2l10,1l9,1h9l9,1h10h9l9,1h10h9h9h10h9h9h9h10h9h9h10h9h9h9h10" style="fill: none; stroke: #0000ff; stroke-width: 3;"></path></g></svg><g><g transform="translate(0,198)"><path d="M0,0h929M0,-198h929M0,-6V0M19,-3V0M37,-3V0M56,-3V0M74,-3V0M93,-6V0M111,-3V0M130,-3V0M149,-3V0M167,-3V0M186,-6V0M204,-3V0M223,-3V0M242,-3V0M260,-3V0M279,-6V0M297,-3V0M316,-3V0M334,-3V0M353,-3V0M372,-6V0M390,-3V0M409,-3V0M427,-3V0M446,-3V0M465,-6V0M483,-3V0M502,-3V0M520,-3V0M539,-3V0M557,-6V0M576,-3V0M595,-3V0M613,-3V0M632,-3V0M650,-6V0M669,-3V0M687,-3V0M706,-3V0M725,-3V0M743,-6V0M762,-3V0M780,-3V0M799,-3V0M818,-3V0M836,-6V0M855,-3V0M873,-3V0M892,-3V0M910,-3V0M929,-6V0M0,-192V-198M19,-195V-198M37,-195V-198M56,-195V-198M74,-195V-198M93,-192V-198M111,-195V-198M130,-195V-198M149,-195V-198M167,-195V-198M186,-192V-198M204,-195V-198M223,-195V-198M242,-195V-198M260,-195V-198M279,-192V-198M297,-195V-198M316,-195V-198M334,-195V-198M353,-195V-198M372,-192V-198M390,-195V-198M409,-195V-198M427,-195V-198M446,-195V-198M465,-192V-198M483,-195V-198M502,-195V-198M520,-195V-198M539,-195V-198M557,-192V-198M576,-195V-198M595,-195V-198M613,-195V-198M632,-195V-198M650,-192V-198M669,-195V-198M687,-195V-198M706,-195V-198M725,-195V-198M743,-192V-198M762,-195V-198M780,-195V-198M799,-195V-198M818,-195V-198M836,-192V-198M855,-195V-198M873,-195V-198M892,-195V-198M910,-195V-198M929,-192V-198" style="stroke: #000000; stroke-width: 1;"></path><g font-family="Arial" font-size="15" space="preserve" fill="#000000" text-anchor="middle"><text dy=".8em" transform="translate(0,2)">-5</text><text dy=".8em" transform="translate(93,2)">-4</text><text dy=".8em" transform="translate(186,2)">-3</text><text dy=".8em" transform="translate(279,2)">-2</text><text dy=".8em" transform="translate(372,2)">-1</text><text dy=".8em" transform="translate(465,2)">0</text><text dy=".8em" transform="translate(557,2)">1</text><text dy=".8em" transform="translate(650,2)">2</text><text dy=".8em" transform="translate(743,2)">3</text><text dy=".8em" transform="translate(836,2)">4</text><text dy=".8em" transform="translate(929,2)">5</text></g><g font-family="Arial" font-size="18" space="preserve" transform="translate(929,16)"><text fill="#000000" text-anchor="end" dy=".4em">x</text></g></g><g><path d="M0,0v198M929,0v198M28,198H0M14,193H0M14,189H0M14,184H0M14,179H0M28,174H0M14,170H0M14,165H0M14,160H0M14,155H0M28,151H0M14,146H0M14,141H0M14,136H0M14,132H0M28,127H0M14,122H0M14,118H0M14,113H0M14,108H0M28,103H0M14,99H0M14,94H0M14,89H0M14,84H0M28,80H0M14,75H0M14,70H0M14,65H0M14,61H0M28,56H0M14,51H0M14,47H0M14,42H0M14,37H0M28,32H0M14,28H0M14,23H0M14,18H0M14,13H0M28,9H0M14,4H0M901,198H929M915,193H929M915,189H929M915,184H929M915,179H929M901,174H929M915,170H929M915,165H929M915,160H929M915,155H929M901,151H929M915,146H929M915,141H929M915,136H929M915,132H929M901,127H929M915,122H929M915,118H929M915,113H929M915,108H929M901,103H929M915,99H929M915,94H929M915,89H929M915,84H929M901,80H929M915,75H929M915,70H929M915,65H929M915,61H929M901,56H929M915,51H929M915,47H929M915,42H929M915,37H929M901,32H929M915,28H929M915,23H929M915,18H929M915,13H929M901,9H929M915,4H929" style="stroke: #000000; stroke-width: 1;"></path><g font-family="Arial" font-size="15" space="preserve" fill="#000000" text-anchor="end"><text dy=".4em" transform="translate(-2,198)">0</text><text dy=".4em" transform="translate(-2,174)">0.05</text><text dy=".4em" transform="translate(-2,151)">0.1</text><text dy=".4em" transform="translate(-2,127)">0.15</text><text dy=".4em" transform="translate(-2,103)">0.2</text><text dy=".4em" transform="translate(-2,80)">0.25</text><text dy=".4em" transform="translate(-2,56)">0.3</text><text dy=".4em" transform="translate(-2,32)">0.35</text><text dy=".4em" transform="translate(-2,9)">0.4</text></g></g></g></g><g transform="translate(-453,1)" style="display: none;"><path d="M929,2h2v8h-929v-2h927z" style="fill: #000000; stroke: #000000; stroke-width: 1px;"></path><path d="M0,0H929V8H0Z" style="fill: #f2f2f2; stroke: #000000; stroke-width: 1;"></path></g><g transform="translate(687,37)" font-family="Arial" font-size="40" space="preserve" font-weight="bold"><path d="M354,4h4v63h-354v-4h350z" style="fill: #000000; stroke: #000000; stroke-width: 1px;"></path><path d="M0,0H354V63H0Z" style="fill: #ffffff; stroke: #000000; stroke-width: 1;"></path><path d="M11,32H78" style="stroke: #0000ff; stroke-width: 3;"></path><text fill="#000000" text-anchor="start" dy=".4em" transform="translate(89,32)">normal_pdf</text></g></g></svg><svg viewBox="0 0 1176 251" preserveAspectRatio="none" x="12" y="274" width="1176" height="251"><path d="M0,0H1176V251H0Z" style="fill: #ffffff;"></path><g><g transform="translate(188,13)"><path d="M0,0H929V198H0Z" style="fill: #ffffff; stroke: #000000; stroke-width: 1;"></path><svg x="0" y="0" overflow="hidden" width="929" height="198" viewBox="0 0 929 198"><g><path d="M5,198h9h10h9h9h9h10h9h9h10h9h9h9h10h9h9h10h9h9h10h9h9l9,-1h10h9h9l10,-1h9l9,-1l9,-1l10,-1l9,-1l9,-2l10,-1l9,-2l9,-3l9,-3l10,-3l9,-4l9,-4l10,-4l9,-5l9,-6l9,-6l10,-6l9,-7l9,-6l10,-8l9,-7l9,-8l10,-7l9,-8l9,-7l9,-7l10,-7l9,-7l9,-6l10,-6l9,-5l9,-5l9,-5l10,-4l9,-4l9,-3l10,-3l9,-2l9,-2l9,-2l10,-2l9,-1l9,-1l10,-1h9l9,-1h9l10,-1h9h9h10h9h9h9h10h9l9,-1h10h9h9h10h9h9h9h10h9h9h10h9h9h9h10" style="fill: none; stroke: #ff0000; stroke-width: 3;"></path></g><g><path d="M5,9h9h10h9h9h9h10h9h9h10h9h9h9h10h9h9l10,1h9h9h10h9h9h9h10h9l9,1h10l9,1h9l9,1l10,1l9,1l9,2l10,2l9,2l9,2l9,3l10,3l9,4l9,4l10,5l9,5l9,5l9,6l10,6l9,7l9,7l10,7l9,7l9,8l10,7l9,8l9,7l9,8l10,6l9,7l9,6l10,6l9,6l9,5l9,4l10,4l9,4l9,3l10,3l9,3l9,2l9,1l10,2l9,1l9,1l10,1l9,1h9l9,1h10h9h9l10,1h9h9h9h10h9h9h10h9h9h10h9h9h9h10h9h9h10h9h9h9h10" style="fill: none; stroke: #00ff00; stroke-width: 3;"></path></g></svg><g><g transform="translate(0,198)"><path d="M0,0h929M0,-198h929M0,-6V0M19,-3V0M37,-3V0M56,-3V0M74,-3V0M93,-6V0M111,-3V0M130,-3V0M149,-3V0M167,-3V0M186,-6V0M204,-3V0M223,-3V0M242,-3V0M260,-3V0M279,-6V0M297,-3V0M316,-3V0M334,-3V0M353,-3V0M372,-6V0M390,-3V0M409,-3V0M427,-3V0M446,-3V0M465,-6V0M483,-3V0M502,-3V0M520,-3V0M539,-3V0M557,-6V0M576,-3V0M595,-3V0M613,-3V0M632,-3V0M650,-6V0M669,-3V0M687,-3V0M706,-3V0M725,-3V0M743,-6V0M762,-3V0M780,-3V0M799,-3V0M818,-3V0M836,-6V0M855,-3V0M873,-3V0M892,-3V0M910,-3V0M929,-6V0M0,-192V-198M19,-195V-198M37,-195V-198M56,-195V-198M74,-195V-198M93,-192V-198M111,-195V-198M130,-195V-198M149,-195V-198M167,-195V-198M186,-192V-198M204,-195V-198M223,-195V-198M242,-195V-198M260,-195V-198M279,-192V-198M297,-195V-198M316,-195V-198M334,-195V-198M353,-195V-198M372,-192V-198M390,-195V-198M409,-195V-198M427,-195V-198M446,-195V-198M465,-192V-198M483,-195V-198M502,-195V-198M520,-195V-198M539,-195V-198M557,-192V-198M576,-195V-198M595,-195V-198M613,-195V-198M632,-195V-198M650,-192V-198M669,-195V-198M687,-195V-198M706,-195V-198M725,-195V-198M743,-192V-198M762,-195V-198M780,-195V-198M799,-195V-198M818,-195V-198M836,-192V-198M855,-195V-198M873,-195V-198M892,-195V-198M910,-195V-198M929,-192V-198" style="stroke: #000000; stroke-width: 1;"></path><g font-family="Arial" font-size="15" space="preserve" fill="#000000" text-anchor="middle"><text dy=".8em" transform="translate(0,2)">-5</text><text dy=".8em" transform="translate(93,2)">-4</text><text dy=".8em" transform="translate(186,2)">-3</text><text dy=".8em" transform="translate(279,2)">-2</text><text dy=".8em" transform="translate(372,2)">-1</text><text dy=".8em" transform="translate(465,2)">0</text><text dy=".8em" transform="translate(557,2)">1</text><text dy=".8em" transform="translate(650,2)">2</text><text dy=".8em" transform="translate(743,2)">3</text><text dy=".8em" transform="translate(836,2)">4</text><text dy=".8em" transform="translate(929,2)">5</text></g><g font-family="Arial" font-size="18" space="preserve" transform="translate(929,16)"><text fill="#000000" text-anchor="end" dy=".4em">x</text></g></g><g><path d="M0,0v198M929,0v198M28,198H0M14,194H0M14,190H0M14,187H0M14,183H0M28,179H0M14,175H0M14,172H0M14,168H0M14,164H0M28,160H0M14,157H0M14,153H0M14,149H0M14,145H0M28,141H0M14,138H0M14,134H0M14,130H0M14,126H0M28,123H0M14,119H0M14,115H0M14,111H0M14,107H0M28,104H0M14,100H0M14,96H0M14,92H0M14,89H0M28,85H0M14,81H0M14,77H0M14,74H0M14,70H0M28,66H0M14,62H0M14,58H0M14,55H0M14,51H0M28,47H0M14,43H0M14,40H0M14,36H0M14,32H0M28,28H0M14,25H0M14,21H0M14,17H0M14,13H0M28,9H0M14,6H0M14,2H0M901,198H929M915,194H929M915,190H929M915,187H929M915,183H929M901,179H929M915,175H929M915,172H929M915,168H929M915,164H929M901,160H929M915,157H929M915,153H929M915,149H929M915,145H929M901,141H929M915,138H929M915,134H929M915,130H929M915,126H929M901,123H929M915,119H929M915,115H929M915,111H929M915,107H929M901,104H929M915,100H929M915,96H929M915,92H929M915,89H929M901,85H929M915,81H929M915,77H929M915,74H929M915,70H929M901,66H929M915,62H929M915,58H929M915,55H929M915,51H929M901,47H929M915,43H929M915,40H929M915,36H929M915,32H929M901,28H929M915,25H929M915,21H929M915,17H929M915,13H929M901,9H929M915,6H929M915,2H929" style="stroke: #000000; stroke-width: 1;"></path><g font-family="Arial" font-size="15" space="preserve" fill="#000000" text-anchor="end"><text dy=".4em" transform="translate(-2,198)">0</text><text dy=".4em" transform="translate(-2,179)">0.1</text><text dy=".4em" transform="translate(-2,160)">0.2</text><text dy=".4em" transform="translate(-2,141)">0.3</text><text dy=".4em" transform="translate(-2,123)">0.4</text><text dy=".4em" transform="translate(-2,104)">0.5</text><text dy=".4em" transform="translate(-2,85)">0.6</text><text dy=".4em" transform="translate(-2,66)">0.7</text><text dy=".4em" transform="translate(-2,47)">0.8</text><text dy=".4em" transform="translate(-2,28)">0.9</text><text dy=".4em" transform="translate(-2,9)">1</text></g><g font-family="Arial" font-size="18" space="preserve" transform="translate(-74)"><text fill="#000000" text-anchor="end" dy=".4em" transform="rotate(270)">p</text></g></g></g></g><g transform="translate(-453,1)" style="display: none;"><path d="M929,2h2v8h-929v-2h927z" style="fill: #000000; stroke: #000000; stroke-width: 1px;"></path><path d="M0,0H929V8H0Z" style="fill: #f2f2f2; stroke: #000000; stroke-width: 1;"></path></g><g transform="translate(689,73)" font-family="Arial" font-size="24" space="preserve" font-weight="bold"><path d="M354,4h4v62h-354v-4h350z" style="fill: #000000; stroke: #000000; stroke-width: 1px;"></path><path d="M0,0H354V62H0Z" style="fill: #ffffff; stroke: #000000; stroke-width: 1;"></path><path d="M11,17H78" style="stroke: #ff0000; stroke-width: 3;"></path><text fill="#000000" text-anchor="start" dy=".4em" transform="translate(89,17)">normal_cdf</text><path d="M11,46H78" style="stroke: #00ff00; stroke-width: 3;"></path><text fill="#000000" text-anchor="start" dy=".4em" transform="translate(89,46)">normal_cdf_c</text></g></g></svg><svg viewBox="0 0 1176 251" preserveAspectRatio="none" x="12" y="541" width="1176" height="251"><path d="M0,0H1176V251H0Z" style="fill: #ffffff;"></path><g><g transform="translate(188,13)"><path d="M0,0H929V198H0Z" style="fill: #ffffff; stroke: #000000; stroke-width: 1;"></path><svg x="0" y="0" overflow="hidden" width="929" height="198" viewBox="0 0 929 198"><g><path d="M1,189l1,-9l1,-4l1,-3l1,-2l1,-2l1,-2v-1l1,-2l1,-1l1,-1l1,-1l1,-1h1l1,-1l1,-1l1,-1h1l1,-1h1l1,-1v-1l2,-1h1l1,-1h1h1l1,-1h1l1,-1h1h1l1,-1h1v-1h2l1,-1h1h1h1l1,-1h1h1l1,-1h1h1h1v-1h2l1,-1h1h1h1l1,-1h1h1h1h1l1,-1h1v0l2,-1h1h1h1h1l1,-1h1h1h1h1l1,-1h1v0h2l1,-1h1h1h1h1h1l1,-1h1h1h1h1v0l1,-1h1h1h1h1h1l1,-1h1h1h1h1h1h1v-1h2h1h1h1l1,-1h1h1h1h1h1h1l1,-1v0h2h1h1h1h1l1,-1h1h1h1h1h1h1v0l1,-1h1h1h1h1h1h1h1l1,-1h1h1h1h1v0h2l1,-1h1h1h1h1h1h1h1h1l1,-1h1v0h2h1h1h1h1l1,-1h1h1h1h1h1h1h1v0l1,-1h1h1h1h1h1h1h1h1h1l1,-1h1h1v0h2h1h1h1h1l1,-1h1h1h1h1h1h1v0h2l1,-1h1h1h1h1h1h1h1h1h1h1v-1h2h1h1h1h1h1h1h1h1l1,-1h1h1v0h2h1h1h1h1h1l1,-1h1h1h1h1h1v0h2h1h1h1l1,-1h1h1h1h1h1h1h1v0h2l1,-1h1h1h1h1h1h1h1h1h1h1v0l1,-1h1h1h1h1h1h1h1h1h1h1h1h1v-1h2h1h1h1h1h1h1h1h1h1l1,-1h1v0h2h1h1h1h1h1h1h1h1l1,-1h1h1v0h2h1h1h1h1h1h1h1l1,-1h1h1h1v0h2h1h1h1h1h1h1h1l1,-1h1h1h1h1v0h2h1h1h1h1h1l1,-1h1h1h1h1h1v0h2h1h1h1h1h1l1,-1h1h1h1h1h1v0h2h1h1h1h1h1l1,-1h1h1h1h1h1v0h2h1h1h1h1h1l1,-1h1h1h1h1h1v0h2h1h1h1h1h1l1,-1h1h1h1h1h1v0h2h1h1h1h1h1l1,-1h1h1h1h1h1v0h2h1h1h1h1h1h1l1,-1h1h1h1h1v0h2h1h1h1h1h1h1l1,-1h1h1h1h1v0h2h1h1h1h1h1h1h1l1,-1h1h1h1v0h2h1h1h1h1h1h1h1l1,-1h1h1h1v0h2h1h1h1h1h1h1h1h1l1,-1h1h1h1v0h2h1h1h1h1h1h1h1h1l1,-1h1h1v0h2h1h1h1h1h1h1h1h1l1,-1h1h1v0h2h1h1h1h1h1h1h1h1h1l1,-1h1v0h2h1h1h1h1h1h1h1h1h1l1,-1h1v0h2h1h1h1h1h1h1h1h1h1h1l1,-1v0h2h1h1h1h1h1h1h1h1h1h1l1,-1v0h2h1h1h1h1h1h1h1h1h1h1l1,-1v0h2h1h1h1h1h1h1h1h1h1h1l1,-1v0h2h1h1h1h1h1h1h1h1h1h1l1,-1v0h2h1h1h1h1h1h1h1h1h1h1l1,-1v0h2h1h1h1h1h1h1h1h1h1h1l1,-1v0h2h1h1h1h1h1h1h1h1h1l1,-1h1h1v0h2h1h1h1h1h1h1h1l1,-1h1h1h1v0h2h1h1h1h1h1h1l1,-1h1h1h1h1v0h2h1h1h1h1h1l1,-1h1h1h1h1h1v0h2h1h1h1h1l1,-1h1h1h1h1h1h1v0h2h1h1l1,-1h1h1h1h1h1h1h1h1v0h2l1,-1h1h1h1h1h1h1h1h1h1h1v0l1,-1h1h1h1h1h1h1h1h1h1h1l1,-1h1v0h2h1h1h1h1h1h1l1,-1h1h1h1h1v0h2h1h1h1l1,-1h1h1h1h1h1h1h1v0h2l1,-1h1h1h1h1h1h1h1h1h1l1,-1v0h2h1h1h1h1h1h1l1,-1h1h1h1h1v0h2h1l1,-1h1h1h1h1h1h1h1h1l1,-1h1v0h2h1h1h1h1l1,-1h1h1h1h1h1h1v0l2,-1h1h1h1h1h1h1h1l1,-1h1h1h1v0h2h1l1,-1h1h1h1h1h1h1l1,-1h1h1v0h2h1h1l1,-1h1h1h1h1h1h1l1,-1h1v0h2h1l1,-1h1h1h1h1h1h1l1,-1h1h1v0h2l1,-1h1h1h1h1h1l1,-1h1h1h1h1v-1h2h1h1l1,-1h1h1h1h1l1,-1h1h1h1v0l1,-1h1h1h1l1,-1h1h1h1l1,-1h1h1h1l1,-1v0h2l1,-1h1h1h1l1,-1h1h1l1,-1h1h1l1,-1v0l2,-1h1l1,-1h1h1l1,-1h1l1,-1h1h1l1,-1h1v-1l1,-1h1l1,-1h1l1,-1l1,-1h1l1,-1l1,-1l1,-1l1,-1l1,-1l1,-1v-1l1,-2l1,-1l1,-2l1,-2l1,-3l1,-5l1,-9" style="fill: none; stroke: #ff0000; stroke-width: 3;"></path></g><g><path d="M1,9l1,9l1,5l1,3l1,2l1,2l1,1v2l1,1l1,1l1,1l1,1l1,1l1,1l1,1h1l1,1l1,1h1l1,1h1v1l1,1h1l1,1h1h1l1,1h1l1,1h1h1l1,1h1l1,1v0l2,1h1h1l1,1h1h1l1,1h1h1h1l1,1h1v0l2,1h1h1h1l1,1h1h1h1l1,1h1h1h1v1h2h1h1l1,1h1h1h1h1l1,1h1h1h1v0l1,1h1h1h1h1l1,1h1h1h1h1h1l1,1h1v0h2h1l1,1h1h1h1h1h1h1l1,1h1h1v0h2l1,1h1h1h1h1h1h1l1,1h1h1h1v0h2h1l1,1h1h1h1h1h1h1l1,1h1h1v0h2h1h1l1,1h1h1h1h1h1h1h1l1,1v0h2h1h1h1h1h1l1,1h1h1h1h1h1v0h2l1,1h1h1h1h1h1h1h1h1l1,1h1h1v0h2h1h1h1l1,1h1h1h1h1h1h1h1v0l2,1h1h1h1h1h1h1h1h1h1l1,1h1v0h2h1h1h1h1h1h1l1,1h1h1h1h1v0h2h1h1h1l1,1h1h1h1h1h1h1h1v0h2l1,1h1h1h1h1h1h1h1h1h1h1v1h2h1h1h1h1h1h1h1h1h1l1,1h1v0h2h1h1h1h1h1h1h1l1,1h1h1h1v0h2h1h1h1h1h1l1,1h1h1h1h1h1v0h2h1h1h1h1l1,1h1h1h1h1h1h1v0h2h1h1h1l1,1h1h1h1h1h1h1h1v0h2h1h1l1,1h1h1h1h1h1h1h1h1v0h2h1l1,1h1h1h1h1h1h1h1h1h1h1v0l2,1h1h1h1h1h1h1h1h1h1h1h1v0l2,1h1h1h1h1h1h1h1h1h1h1h1v0l2,1h1h1h1h1h1h1h1h1h1h1h1v0l2,1h1h1h1h1h1h1h1h1h1h1h1v0l2,1h1h1h1h1h1h1h1h1h1h1h1v0l2,1h1h1h1h1h1h1h1h1h1h1h1v0l2,1h1h1h1h1h1h1h1h1h1h1h1v0h2l1,1h1h1h1h1h1h1h1h1h1h1v0h2l1,1h1h1h1h1h1h1h1h1h1h1v0h2h1l1,1h1h1h1h1h1h1h1h1h1v0h2h1l1,1h1h1h1h1h1h1h1h1h1h1v0h2h1l1,1h1h1h1h1h1h1h1h1h1v0h2h1h1l1,1h1h1h1h1h1h1h1h1v0h2h1h1l1,1h1h1h1h1h1h1h1h1v0h2h1h1h1l1,1h1h1h1h1h1h1h1v0h2h1h1h1l1,1h1h1h1h1h1h1h1v0h2h1h1h1h1l1,1h1h1h1h1h1h1v0h2h1h1h1h1l1,1h1h1h1h1h1h1v0h2h1h1h1h1l1,1h1h1h1h1h1h1v0h2h1h1h1h1l1,1h1h1h1h1h1h1v0h2h1h1h1h1l1,1h1h1h1h1h1h1v0h2h1h1h1h1l1,1h1h1h1h1h1h1v0h2h1h1h1l1,1h1h1h1h1h1h1h1h1v0h2h1h1l1,1h1h1h1h1h1h1h1h1v0h2h1l1,1h1h1h1h1h1h1h1h1h1v0h2l1,1h1h1h1h1h1h1h1h1h1h1v0l1,1h1h1h1h1h1h1h1h1h1h1h1h1v1h2h1h1h1h1h1h1h1h1h1l1,1h1v0h2h1h1h1h1h1h1l1,1h1h1h1h1v0h2h1h1h1h1l1,1h1h1h1h1h1h1v0h2h1l1,1h1h1h1h1h1h1h1h1h1v0l1,1h1h1h1h1h1h1h1h1h1h1l1,1h1v0h2h1h1h1h1h1l1,1h1h1h1h1h1v0h2h1l1,1h1h1h1h1h1h1h1h1h1v1h2h1h1h1h1h1h1l1,1h1h1h1h1h1v0h2l1,1h1h1h1h1h1h1h1h1l1,1h1v0h2h1h1h1l1,1h1h1h1h1h1h1h1v1h2h1h1h1h1h1l1,1h1h1h1h1h1v0l2,1h1h1h1h1h1h1l1,1h1h1h1h1v0l1,1h1h1h1h1h1h1l1,1h1h1h1h1h1v1h2h1h1h1l1,1h1h1h1h1h1l1,1h1v0h2l1,1h1h1h1h1l1,1h1h1h1h1l1,1v0h2l1,1h1h1h1h1l1,1h1h1h1l1,1h1v0l1,1h1h1h1l1,1h1h1l1,1h1h1h1l1,1h1v0l1,1h1l1,1h1h1l1,1h1l1,1h1h1l1,1h1l1,1v0l1,1l1,1h1l1,1h1l1,1l1,1l1,1h1l1,1l1,1l1,1l1,1v2l1,1l1,2l1,2l1,2l1,3l1,4l1,9" style="fill: none; stroke: #00ff00; stroke-width: 3;"></path></g></svg><g><g transform="translate(0,198)"><path d="M0,0h929M0,-198h929M0,-6V0M19,-3V0M37,-3V0M56,-3V0M74,-3V0M93,-6V0M111,-3V0M130,-3V0M149,-3V0M167,-3V0M186,-6V0M204,-3V0M223,-3V0M242,-3V0M260,-3V0M279,-6V0M297,-3V0M316,-3V0M334,-3V0M353,-3V0M372,-6V0M390,-3V0M409,-3V0M427,-3V0M446,-3V0M465,-6V0M483,-3V0M502,-3V0M520,-3V0M539,-3V0M557,-6V0M576,-3V0M595,-3V0M613,-3V0M632,-3V0M650,-6V0M669,-3V0M687,-3V0M706,-3V0M725,-3V0M743,-6V0M762,-3V0M780,-3V0M799,-3V0M818,-3V0M836,-6V0M855,-3V0M873,-3V0M892,-3V0M910,-3V0M929,-6V0M0,-192V-198M19,-195V-198M37,-195V-198M56,-195V-198M74,-195V-198M93,-192V-198M111,-195V-198M130,-195V-198M149,-195V-198M167,-195V-198M186,-192V-198M204,-195V-198M223,-195V-198M242,-195V-198M260,-195V-198M279,-192V-198M297,-195V-198M316,-195V-198M334,-195V-198M353,-195V-198M372,-192V-198M390,-195V-198M409,-195V-198M427,-195V-198M446,-195V-198M465,-192V-198M483,-195V-198M502,-195V-198M520,-195V-198M539,-195V-198M557,-192V-198M576,-195V-198M595,-195V-198M613,-195V-198M632,-195V-198M650,-192V-198M669,-195V-198M687,-195V-198M706,-195V-198M725,-195V-198M743,-192V-198M762,-195V-198M780,-195V-198M799,-195V-198M818,-195V-198M836,-192V-198M855,-195V-198M873,-195V-198M892,-195V-198M910,-195V-198M929,-192V-198" style="stroke: #000000; stroke-width: 1;"></path><g font-family="Arial" font-size="15" space="preserve" fill="#000000" text-anchor="middle"><text dy=".8em" transform="translate(0,2)">0</text><text dy=".8em" transform="translate(93,2)">0.1</text><text dy=".8em" transform="translate(186,2)">0.2</text><text dy=".8em" transform="translate(279,2)">0.3</text><text dy=".8em" transform="translate(372,2)">0.4</text><text dy=".8em" transform="translate(465,2)">0.5</text><text dy=".8em" transform="translate(557,2)">0.6</text><text dy=".8em" transform="translate(650,2)">0.7</text><text dy=".8em" transform="translate(743,2)">0.8</text><text dy=".8em" transform="translate(836,2)">0.9</text><text dy=".8em" transform="translate(929,2)">1</text></g><g font-family="Arial" font-size="18" space="preserve" transform="translate(929,16)"><text fill="#000000" text-anchor="end" dy=".4em">p</text></g></g><g><path d="M0,0v198M929,0v198M14,197H0M14,192H0M14,187H0M28,181H0M14,176H0M14,170H0M14,165H0M14,159H0M28,154H0M14,148H0M14,143H0M14,137H0M14,132H0M28,127H0M14,121H0M14,116H0M14,110H0M14,105H0M28,99H0M14,94H0M14,88H0M14,83H0M14,77H0M28,72H0M14,66H0M14,61H0M14,56H0M14,50H0M28,45H0M14,39H0M14,34H0M14,28H0M14,23H0M28,17H0M14,12H0M14,6H0M14,1H0M915,197H929M915,192H929M915,187H929M901,181H929M915,176H929M915,170H929M915,165H929M915,159H929M901,154H929M915,148H929M915,143H929M915,137H929M915,132H929M901,127H929M915,121H929M915,116H929M915,110H929M915,105H929M901,99H929M915,94H929M915,88H929M915,83H929M915,77H929M901,72H929M915,66H929M915,61H929M915,56H929M915,50H929M901,45H929M915,39H929M915,34H929M915,28H929M915,23H929M901,17H929M915,12H929M915,6H929M915,1H929" style="stroke: #000000; stroke-width: 1;"></path><g font-family="Arial" font-size="15" space="preserve" fill="#000000" text-anchor="end"><text dy=".4em" transform="translate(-2,181)">-3</text><text dy=".4em" transform="translate(-2,154)">-2</text><text dy=".4em" transform="translate(-2,127)">-1</text><text dy=".4em" transform="translate(-2,99)">0</text><text dy=".4em" transform="translate(-2,72)">1</text><text dy=".4em" transform="translate(-2,45)">2</text><text dy=".4em" transform="translate(-2,17)">3</text></g><g font-family="Arial" font-size="18" space="preserve" transform="translate(-74)"><text fill="#000000" text-anchor="end" dy=".4em" transform="rotate(270)">x</text></g></g></g></g><g transform="translate(-453,1)" style="display: none;"><path d="M929,2h2v8h-929v-2h927z" style="fill: #000000; stroke: #000000; stroke-width: 1px;"></path><path d="M0,0H929V8H0Z" style="fill: #f2f2f2; stroke: #000000; stroke-width: 1;"></path></g><g transform="translate(371,30)" font-family="Arial" font-size="24" space="preserve" font-weight="bold"><path d="M447,4h4v62h-447v-4h443z" style="fill: #000000; stroke: #000000; stroke-width: 1px;"></path><path d="M0,0H447V62H0Z" style="fill: #ffffff; stroke: #000000; stroke-width: 1;"></path><path d="M13,17H99" style="stroke: #ff0000; stroke-width: 3;"></path><text fill="#000000" text-anchor="start" dy=".4em" transform="translate(112,17)">normal_quantile</text><path d="M13,46H99" style="stroke: #00ff00; stroke-width: 3;"></path><text fill="#000000" text-anchor="start" dy=".4em" transform="translate(112,46)">normal_quantile_c</text></g></g></svg></g></svg>