<svg xmlns="http://www.w3.org/2000/svg" viewBox="0 0 1200 800" preserveAspectRatio="none" width="1200" height="800"><path d="M0,0H1200V800H0Z" style="fill: #ffffff;"></path><g><g transform="translate(192,40)"><path d="M0,0H948V632H0Z" style="fill: #ffffff; stroke: #000000; stroke-width: 1;"></path><svg x="0" y="0" overflow="hidden" width="948" height="632" viewBox="0 0 948 632"><g><path fill="#263da8" d="M0,316h24v16h-24zM24,174h23v16h-23zm0,95h23v15h-23zM47,221h24v16h-24zm0,79h24v32h-24zm0,48h24v15h-24zm0,31h24v32h-24zM71,316h24v16h-24zm0,32h24v15h-24zm0,31h24v48h-24zM95,205h24v64h-24zm0,79h24v32h-24zm0,79h24v48h-24zM119,142h23v63h-23zm0,79h23v158h-23zm0,190h23v16h-23zm0,31h23v16h-23zm0,32h23v16h-23zM142,174h24v110h-24zm0,126h24v158h-24zm0,206h24v15h-24zM166,111h24v15h-24zm0,31h24v16h-24zm0,32h24v110h-24zm0,126h24v142h-24zm0,158h24v32h-24zM190,47h23v16h-23zm0,48h23v31h-23zm0,47h23v48h-23zm0,63h23v48h-23zm0,64h23v15h-23zm0,47h23v32h-23zm0,63h23v32h-23zm0,48h23v47h-23zm0,63h23v31h-23zM213,111h24v126h-24zm0,316h24v63h-24zm0,79h24v15h-24zM237,79h24v16h-24zm0,32h24v63h-24zm0,331h24v79h-24zm0,95h24v16h-24zM261,63h23v32h-23zm0,48h23v79h-23zm0,331h23v95h-23zM284,126h24v16h-24zm0,364h24v31h-24zm0,79h24v16h-24zM308,95h24v63h-24zm0,363h24v16h-24zm0,32h24v63h-24zm0,110h24v16h-24zM332,95h24v47h-24zm0,395h24v79h-24zM356,47h23v79h-23zm0,443h23v79h-23zm0,110h23v32h-23zM379,79h24v16h-24zm0,32h24v31h-24zm0,395h24v63h-24zM403,63h24v48h-24zm0,443h24v47h-24zm0,63h24v16h-24zM427,0h23v16h-23zm0,32h23v15h-23zm0,31h23v63h-23zm0,443h23v63h-23zm0,94h23v16h-23zM450,32h24v15h-24zm0,31h24v48h-24zm0,443h24v79h-24zM474,47h24v79h-24zm0,474h24v32h-24zm0,48h24v31h-24zM498,16h23v47h-23zm0,63h23v47h-23zm0,411h23v31h-23zm0,47h23v32h-23zM521,0h24v16h-24zm0,47h24v16h-24zm0,32h24v47h-24zm0,427h24v47h-24zm0,79h24v15h-24zM545,47h24v32h-24zm0,48h24v47h-24zm0,395h24v31h-24zm0,47h24v16h-24zM569,0h24v16h-24zm0,63h24v79h-24zm0,427h24v79h-24zm0,110h24v16h-24zM593,63h23v95h-23zm0,427h23v31h-23zm0,47h23v16h-23zM616,63h24v16h-24zm0,32h24v47h-24zm0,63h24v16h-24zm0,316h24v16h-24zm0,32h24v31h-24zm0,63h24v31h-24zM640,47h24v16h-24zm0,48h24v16h-24zm0,31h24v64h-24zm0,301h24v15h-24zm0,31h24v48h-24zm0,63h24v32h-24zM664,95h23v79h-23zm0,395h23v16h-23zM687,47h24v16h-24zm0,64h24v15h-24zm0,31h24v79h-24zm0,285h24v15h-24zm0,31h24v95h-24zM711,95h24v16h-24zm0,31h24v16h-24zm0,48h24v16h-24zm0,47h24v16h-24zm0,206h24v110h-24zM735,16h23v16h-23zm0,110h23v16h-23zm0,32h23v32h-23zm0,47h23v16h-23zm0,32h23v16h-23zm0,32h23v15h-23zm0,63h23v16h-23zm0,31h23v95h-23zm0,111h23v32h-23zM758,95h24v16h-24zm0,63h24v32h-24zm0,47h24v127h-24zm0,143h24v110h-24zM782,158h24v16h-24zm0,32h24v189h-24zm0,205h24v47h-24zm0,63h24v32h-24zM806,126h24v16h-24zm0,79h24v16h-24zm0,32h24v32h-24zm0,47h24v95h-24zm0,127h24v47h-24zm0,79h24v16h-24zm0,47h24v16h-24zM830,111h23v31h-23zm0,47h23v16h-23zm0,32h23v15h-23zm0,47h23v47h-23zm0,63h23v16h-23zm0,32h23v16h-23zm0,31h23v64h-23zm0,111h23v16h-23zM853,174h24v16h-24zm0,237h24v16h-24zM877,174h24v16h-24zm0,31h24v48h-24zm0,143h24v15h-24zm0,31h24v16h-24zm0,32h24v16h-24zM901,237h23v16h-23zm0,32h23v15h-23z"></path><path fill="#1652cc" d="M142,284h24v16h-24zm24,0h24v16h-24zm24,-31h23v16h-23zm0,31h23v32h-23zm0,64h23v31h-23zm0,63h23v16h-23zM213,237h24v47h-24zm0,63h24v16h-24zm0,48h24v79h-24zM237,174h24v63h-24zm0,142h24v16h-24zm0,95h24v31h-24zM261,190h23v47h-23zm0,205h23v47h-23zM284,142h24v48h-24zm0,300h24v48h-24zM308,158h24v32h-24zm0,316h24v16h-24zM332,142h24v16h-24zm0,332h24v16h-24zM356,126h23v48h-23zm0,348h23v16h-23zm23,0h24v32h-24zM403,111h24v31h-24zm0,379h24v16h-24zM427,126h23v16h-23zm0,364h23v16h-23zM450,111h24v31h-24zm0,379h24v16h-24zM474,126h24v16h-24zm0,32h24v16h-24zm0,316h24v47h-24zM498,126h23v32h-23zm0,395h23v16h-23zM521,126h24v16h-24zm0,348h24v32h-24zM545,158h24v16h-24zm0,316h24v16h-24zm0,47h24v16h-24zM569,142h24v16h-24zm0,32h24v16h-24zm0,300h24v16h-24zm24,-16h23v32h-23zM616,142h24v16h-24zm0,316h24v16h-24zm0,32h24v16h-24zM640,205h24v16h-24zm0,237h24v16h-24zM664,174h23v63h-23zm0,253h23v63h-23zM687,221h24v16h-24zm0,32h24v16h-24zm0,126h24v48h-24zm0,63h24v16h-24zM711,190h24v31h-24zm0,47h24v16h-24zm0,32h24v158h-24zm24,-48h23v16h-23zm0,32h23v16h-23zm0,31h23v48h-23zm0,64h23v15h-23zm23,-16h24v16h-24z"></path><path fill="#1063db" d="M213,284h24v16h-24zm0,32h24v32h-24zm24,-79h24v47h-24zm0,111h24v63h-24zM261,237h23v16h-23zm0,142h23v16h-23zM284,190h24v31h-24zm0,221h24v31h-24zm24,0h24v47h-24zM332,158h24v32h-24zm0,269h24v47h-24zm24,15h23v32h-23zM379,142h24v16h-24zm0,300h24v32h-24zM403,142h24v32h-24zm0,300h24v48h-24zM427,142h23v32h-23zm0,316h23v32h-23zM450,142h24v32h-24zm0,316h24v32h-24zM474,142h24v16h-24zm24,332h23v16h-23zM521,142h24v32h-24zm0,316h24v16h-24zM545,142h24v16h-24zm0,316h24v16h-24zM569,158h24v16h-24zm0,284h24v32h-24zM593,158h23v32h-23zm0,284h23v16h-23zM616,174h24v31h-24zm0,253h24v31h-24zM640,190h24v15h-24zm0,31h24v16h-24zm0,190h24v16h-24zM664,237h23v16h-23zm0,126h23v64h-23zM687,237h24v16h-24zm0,32h24v63h-24zm0,79h24v31h-24zm24,-95h24v16h-24z"></path><path fill="#1171d8" d="M237,300h24v16h-24zm0,32h24v16h-24zm24,-79h23v31h-23zm0,47h23v16h-23zm0,32h23v47h-23zM284,221h24v16h-24zm0,32h24v16h-24zm0,95h24v15h-24zm0,47h24v16h-24zM308,190h24v63h-24zm24,0h24v31h-24zm24,0h23v15h-23zm23,-32h24v16h-24zm0,269h24v15h-24zM427,174h23v16h-23zm47,268h24v32h-24zM498,158h23v16h-23zm0,284h23v16h-23zM521,174h24v16h-24zm0,253h24v31h-24zm24,15h24v16h-24zM569,190h24v15h-24zm0,237h24v15h-24zM593,190h23v15h-23zm0,237h23v15h-23zM616,205h24v16h-24zm0,190h24v32h-24zM640,237h24v16h-24zm0,158h24v16h-24zM664,269h23v15h-23zm23,63h24v16h-24z"></path><path fill="#1380d5" d="M237,284h24v16h-24zm24,0h23v16h-23zm0,32h23v16h-23zm23,-79h24v16h-24zm0,47h24v48h-24zm0,79h24v32h-24zm24,32h24v16h-24zm24,16h24v16h-24zM356,174h23v16h-23zm0,237h23v31h-23zM379,174h24v16h-24zm24,0h24v16h-24zm24,253h23v31h-23zM450,174h24v16h-24zm0,268h24v16h-24zM474,174h24v16h-24zm0,253h24v15h-24zM498,174h23v31h-23zm0,253h23v15h-23zm0,31h23v16h-23zM521,190h24v15h-24zm24,-16h24v31h-24zm0,253h24v15h-24zM569,221h24v16h-24zm0,190h24v16h-24zM593,205h23v32h-23zm0,190h23v32h-23zM616,221h24v16h-24zm24,127h24v47h-24zm24,-95h23v16h-23zm0,31h23v64h-23z"></path><path fill="#0e8ed0" d="M284,269h24v15h-24zm48,-48h24v16h-24zm0,174h24v16h-24zM356,205h23v16h-23zm23,-15h24v31h-24zm0,221h24v16h-24zM403,190h24v15h-24zm0,237h24v15h-24zM569,205h24v16h-24zm47,143h24v15h-24zm24,-95h24v95h-24zm24,95h23v15h-23z"></path><path fill="#089dcc" d="M284,332h24v16h-24zm24,-79h24v47h-24zm0,63h24v16h-24zm0,32h24v15h-24zm0,31h24v16h-24zm24,0h24v16h-24zM356,221h23v16h-23zm0,174h23v16h-23zM379,221h24v16h-24zm48,-31h23v15h-23zm23,0h24v31h-24zm24,15h24v16h-24zm24,0h23v16h-23zm23,0h24v16h-24zm0,206h24v16h-24zM545,205h24v16h-24zm0,206h24v16h-24zm24,-16h24v16h-24zm24,-16h23v16h-23zM616,237h24v32h-24zm0,126h24v32h-24z"></path><path fill="#0da7c2" d="M308,300h24v16h-24zm0,32h24v16h-24zm0,31h24v16h-24zM332,237h24v32h-24zm0,126h24v16h-24zM356,237h23v16h-23zm47,-32h24v32h-24zm24,206h23v16h-23zm23,0h24v31h-24zM474,190h24v15h-24zm24,205h23v16h-23zM545,221h24v16h-24zm24,142h24v32h-24zM593,237h23v47h-23zm0,126h23v16h-23zm23,-79h24v16h-24zm0,32h24v32h-24z"></path><path fill="#1dafb3" d="M332,269h24v15h-24zm47,126h24v16h-24zm24,0h24v32h-24zM474,221h24v16h-24zm0,174h24v32h-24zM498,221h23v16h-23zm23,0h24v16h-24zm0,174h24v16h-24zM545,237h24v16h-24zm0,142h24v16h-24zM569,237h24v32h-24zm0,95h24v16h-24zm24,-48h23v16h-23zm0,32h23v16h-23zm0,32h23v15h-23zm23,-79h24v15h-24zm0,31h24v16h-24z"></path><path fill="#2db7a3" d="M332,300h24v48h-24zm24,-47h23v31h-23zm0,110h23v16h-23zM379,237h24v16h-24zm0,142h24v16h-24zM427,205h23v32h-23zm0,190h23v16h-23zM450,221h24v16h-24zm48,190h23v16h-23zm23,-32h24v16h-24zm24,-95h24v16h-24zm0,111h24v16h-24zM569,284h24v16h-24zm24,16h23v16h-23zm0,32h23v16h-23z"></path><path fill="#52ba91" d="M332,284h24v16h-24zm0,64h24v15h-24zm24,31h23v16h-23zM379,253h24v16h-24zm24,-16h24v16h-24zm47,142h24v32h-24zM521,237h24v16h-24zm24,32h24v15h-24zm24,0h24v15h-24zm0,47h24v16h-24z"></path><path fill="#73bd80" d="M356,284h23v16h-23zm0,32h23v47h-23zm47,63h24v16h-24zm24,0h23v16h-23zM521,253h24v16h-24zm24,110h24v16h-24z"></path><path fill="#94be71" d="M379,269h24v15h-24zm0,94h24v16h-24zm24,0h24v16h-24zm24,0h23v16h-23zM498,237h23v16h-23zm0,126h23v16h-23zm23,-79h24v32h-24zm24,-31h24v16h-24zm0,47h24v16h-24zm0,48h24v15h-24zm24,-48h24v16h-24zm0,48h24v15h-24z"></path><path fill="#b2bc65" d="M356,300h23v16h-23zm23,-16h24v32h-24zm0,48h24v16h-24zm24,0h24v16h-24zm47,-95h24v16h-24zm0,111h24v31h-24zM474,237h24v16h-24zm0,126h24v32h-24zm24,-94h23v15h-23zm0,110h23v16h-23zM521,269h24v15h-24zm0,94h24v16h-24zm24,-47h24v16h-24z"></path><path fill="#d0ba59" d="M379,316h24v16h-24zm0,32h24v15h-24zm24,-95h24v63h-24zm0,95h24v15h-24zM427,237h23v32h-23zm0,79h23v16h-23zm23,-63h24v16h-24zm24,31h24v16h-24zm0,64h24v15h-24zm24,-95h23v16h-23zm23,95h24v15h-24zm24,-16h24v16h-24z"></path><path fill="#e1bf4a" d="M403,316h24v16h-24zm24,-47h23v15h-23zm0,63h23v16h-23zm23,0h24v16h-24zm24,-79h24v31h-24zm24,63h23v16h-23zm0,32h23v15h-23zm23,-16h24v16h-24z"></path><path fill="#f4c53a" d="M427,348h23v15h-23zm71,-48h23v16h-23zm23,16h24v16h-24z"></path><path fill="#fcd12b" d="M427,284h23v16h-23zm23,-15h24v31h-24zm0,47h24v16h-24zm24,-16h24v48h-24zm24,-16h23v16h-23zm0,48h23v16h-23z"></path><path fill="#f9f90e" d="M427,300h23v16h-23zm23,0h24v16h-24z"></path></g></svg><g><g transform="translate(0,632)"><path d="M0,0h948M0,-632h948M0,0V0M24,0V0M47,0V0M71,0V0M95,0V0M119,0V0M142,0V0M166,0V0M190,0V0M213,0V0M237,0V0M261,0V0M284,0V0M308,0V0M332,0V0M356,0V0M379,0V0M403,0V0M427,0V0M450,0V0M474,0V0M498,0V0M521,0V0M545,0V0M569,0V0M593,0V0M616,0V0M640,0V0M664,0V0M687,0V0M711,0V0M735,0V0M758,0V0M782,0V0M806,0V0M830,0V0M853,0V0M877,0V0M901,0V0M924,0V0M948,0V0M0,-632V-632M24,-632V-632M47,-632V-632M71,-632V-632M95,-632V-632M119,-632V-632M142,-632V-632M166,-632V-632M190,-632V-632M213,-632V-632M237,-632V-632M261,-632V-632M284,-632V-632M308,-632V-632M332,-632V-632M356,-632V-632M379,-632V-632M403,-632V-632M427,-632V-632M450,-632V-632M474,-632V-632M498,-632V-632M521,-632V-632M545,-632V-632M569,-632V-632M593,-632V-632M616,-632V-632M640,-632V-632M664,-632V-632M687,-632V-632M711,-632V-632M735,-632V-632M758,-632V-632M782,-632V-632M806,-632V-632M830,-632V-632M853,-632V-632M877,-632V-632M901,-632V-632M924,-632V-632M948,-632V-632" style="stroke: #000000; stroke-width: 1;"></path></g><g><path d="M0,0v632M948,0v632M0,632H0M0,616H0M0,600H0M0,585H0M0,569H0M0,553H0M0,537H0M0,521H0M0,506H0M0,490H0M0,474H0M0,458H0M0,442H0M0,427H0M0,411H0M0,395H0M0,379H0M0,363H0M0,348H0M0,332H0M0,316H0M0,300H0M0,284H0M0,269H0M0,253H0M0,237H0M0,221H0M0,205H0M0,190H0M0,174H0M0,158H0M0,142H0M0,126H0M0,111H0M0,95H0M0,79H0M0,63H0M0,47H0M0,32H0M0,16H0M0,0H0M948,632H948M948,616H948M948,600H948M948,585H948M948,569H948M948,553H948M948,537H948M948,521H948M948,506H948M948,490H948M948,474H948M948,458H948M948,442H948M948,427H948M948,411H948M948,395H948M948,379H948M948,363H948M948,348H948M948,332H948M948,316H948M948,300H948M948,284H948M948,269H948M948,253H948M948,237H948M948,221H948M948,205H948M948,190H948M948,174H948M948,158H948M948,142H948M948,126H948M948,111H948M948,95H948M948,79H948M948,63H948M948,47H948M948,32H948M948,16H948M948,0H948" style="stroke: #000000; stroke-width: 1;"></path></g></g></g><g transform="translate(1146,40)"><path d="M0,0H53V632H0Z" style="fill: #f9f90e; stroke: #000000; stroke-width: 1;"></path><path d="M0,600H53V632H0Z" style="fill: #1652cc;"></path><path d="M0,569H53V601H0Z" style="fill: #1652cc;"></path><path d="M0,537H53V570H0Z" style="fill: #1063db;"></path><path d="M0,506H53V538H0Z" style="fill: #1171d8;"></path><path d="M0,474H53V507H0Z" style="fill: #1380d5;"></path><path d="M0,442H53V475H0Z" style="fill: #0e8ed0;"></path><path d="M0,411H53V443H0Z" style="fill: #089dcc;"></path><path d="M0,379H53V412H0Z" style="fill: #0da7c2;"></path><path d="M0,348H53V380H0Z" style="fill: #1dafb3;"></path><path d="M0,316H53V349H0Z" style="fill: #2db7a3;"></path><path d="M0,284H53V317H0Z" style="fill: #52ba91;"></path><path d="M0,253H53V285H0Z" style="fill: #73bd80;"></path><path d="M0,221H53V254H0Z" style="fill: #94be71;"></path><path d="M0,190H53V222H0Z" style="fill: #b2bc65;"></path><path d="M0,158H53V191H0Z" style="fill: #d0ba59;"></path><path d="M0,126H53V159H0Z" style="fill: #e1bf4a;"></path><path d="M0,95H53V127H0Z" style="fill: #f4c53a;"></path><path d="M0,63H53V96H0Z" style="fill: #fcd12b;"></path><path d="M0,32H53V64H0Z" style="fill: #fae61c;"></path><path d="M0,0H53V33H0Z" style="fill: #f9f90e;"></path><g transform="translate(53)"><path d="M0,0v632M0,632H-28M0,561H-28M0,489H-28M0,418H-28M0,346H-28M0,275H-28M0,204H-28M0,132H-28M0,61H-28" style="stroke: #000000; stroke-width: 1;"></path><g font-family="Arial" font-size="40" space="preserve" fill="#000000" text-anchor="start"><text dy=".4em" transform="translate(6,632)">0</text><text dy=".4em" transform="translate(6,561)">20</text><text dy=".4em" transform="translate(6,489)">40</text><text dy=".4em" transform="translate(6,418)">60</text><text dy=".4em" transform="translate(6,346)">80</text><text dy=".4em" transform="translate(6,275)">100</text><text dy=".4em" transform="translate(6,204)">120</text><text dy=".4em" transform="translate(6,132)">140</text><text dy=".4em" transform="translate(6,61)">160</text></g></g></g><g transform="translate(-462,4)" style="display: none;"><path d="M948,2h2v25h-948v-2h946z" style="fill: #000000; stroke: #000000; stroke-width: 1px;"></path><path d="M0,0H948V25H0Z" style="fill: #f2f2f2; stroke: #000000; stroke-width: 1;"></path></g><g transform="translate(192,672)"><path d="M0,0h948M948,-19V0M924,-10V0M901,-10V0M877,-10V0M853,-10V0M830,-19V0M806,-10V0M782,-10V0M758,-10V0M735,-10V0M711,-19V0M687,-10V0M664,-10V0M640,-10V0M616,-10V0M593,-19V0M569,-10V0M545,-10V0M521,-10V0M498,-10V0M474,-19V0M450,-10V0M427,-10V0M403,-10V0M379,-10V0M356,-19V0M332,-10V0M308,-10V0M284,-10V0M261,-10V0M237,-19V0M213,-10V0M190,-10V0M166,-10V0M142,-10V0M119,-19V0M95,-10V0M71,-10V0M47,-10V0M24,-10V0M0,-19V0" style="stroke: #000000; stroke-width: 1;"></path><g font-family="Arial" font-size="32" space="preserve" font-weight="bold" fill="#000000" text-anchor="middle"><text dy=".8em" transform="translate(948,25)">-4</text><text dy=".8em" transform="translate(830,25)">-3</text><text dy=".8em" transform="translate(711,25)">-2</text><text dy=".8em" transform="translate(593,25)">-1</text><text dy=".8em" transform="translate(474,25)">0</text><text dy=".8em" transform="translate(356,25)">1</text><text dy=".8em" transform="translate(237,25)">2</text><text dy=".8em" transform="translate(119,25)">3</text><text dy=".8em" transform="translate(0,25)">4</text></g></g><g transform="translate(192,40)"><path d="M0,0v632M28,0H0M14,16H0M14,32H0M14,47H0M14,63H0M28,79H0M14,95H0M14,111H0M14,126H0M14,142H0M28,158H0M14,174H0M14,190H0M14,205H0M14,221H0M28,237H0M14,253H0M14,269H0M14,284H0M14,300H0M28,316H0M14,332H0M14,348H0M14,363H0M14,379H0M28,395H0M14,411H0M14,427H0M14,442H0M14,458H0M28,474H0M14,490H0M14,506H0M14,521H0M14,537H0M28,553H0M14,569H0M14,585H0M14,600H0M14,616H0M28,632H0" style="stroke: #000000; stroke-width: 1;"></path><g font-family="Arial" font-size="32" space="preserve" font-weight="bold" fill="#000000" text-anchor="end"><text dy=".4em" transform="translate(-26)">-4</text><text dy=".4em" transform="translate(-26,79)">-3</text><text dy=".4em" transform="translate(-26,158)">-2</text><text dy=".4em" transform="translate(-26,237)">-1</text><text dy=".4em" transform="translate(-26,316)">0</text><text dy=".4em" transform="translate(-26,395)">1</text><text dy=".4em" transform="translate(-26,474)">2</text><text dy=".4em" transform="translate(-26,553)">3</text><text dy=".4em" transform="translate(-26,632)">4</text></g></g></g></svg>