<svg xmlns="http://www.w3.org/2000/svg" viewBox="0 0 1200 800" preserveAspectRatio="none" width="1200" height="800"><path d="M0,0H1200V800H0Z" style="fill: #ffffff;"></path><g><g transform="translate(192,40)"><path d="M0,0H948V632H0Z" style="fill: #ffffff; stroke: #000000; stroke-width: 1;"></path><svg x="0" y="0" overflow="hidden" width="948" height="632" viewBox="0 0 948 632"><g><path d="M199,357a8,8,0,1,0,16,0a8,8,0,1,0,-16,0z" style="stroke: #e1bf4a99; fill: #e1bf4a99;"></path><path d="M233,492a7,7,0,1,0,14,0a7,7,0,1,0,-14,0z" style="stroke: #e1bf4a99; fill: #e1bf4a99;"></path><path d="M780,264a18,18,0,1,0,36,0a18,18,0,1,0,-36,0z" style="stroke: #2db7a399; fill: #2db7a399;"></path><path d="M395,54a4,4,0,1,0,8,0a4,4,0,1,0,-8,0z" style="stroke: #e1bf4a99; fill: #e1bf4a99;"></path><path d="M784,374a4,4,0,1,0,8,0a4,4,0,1,0,-8,0z" style="stroke: #2b379d99; fill: #2b379d99;"></path><path d="M782,306a9,9,0,1,0,18,0a9,9,0,1,0,-18,0z" style="stroke: #c5bb5d99; fill: #c5bb5d99;"></path><path d="M848,454a4,4,0,1,0,8,0a4,4,0,1,0,-8,0z" style="stroke: #1068da99; fill: #1068da99;"></path><path d="M174,85a7,7,0,1,0,14,0a7,7,0,1,0,-14,0z" style="stroke: #e1bf4a99; fill: #e1bf4a99;"></path><path d="M559,130a9,9,0,1,0,18,0a9,9,0,1,0,-18,0z" style="stroke: #1284d499; fill: #1284d499;"></path><path d="M465,137a7,7,0,1,0,14,0a7,7,0,1,0,-14,0z" style="stroke: #b2bc6599; fill: #b2bc6599;"></path><path d="M72,337a19,19,0,1,0,38,0a19,19,0,1,0,-38,0z" style="stroke: #8bbe7599; fill: #8bbe7599;"></path><path d="M193,75a11,11,0,1,0,22,0a11,11,0,1,0,-22,0z" style="stroke: #44b99899; fill: #44b99899;"></path><path d="M472,55a5,5,0,1,0,10,0a5,5,0,1,0,-10,0z" style="stroke: #f9f90e99; fill: #f9f90e99;"></path><path d="M859,196a10,10,0,1,0,20,0a10,10,0,1,0,-20,0z" style="stroke: #f9f90e99; fill: #f9f90e99;"></path><path d="M146,536a7,7,0,1,0,14,0a7,7,0,1,0,-14,0z" style="stroke: #73bd8099; fill: #73bd8099;"></path><path d="M183,168a17,17,0,1,0,34,0a17,17,0,1,0,-34,0z" style="stroke: #1284d499; fill: #1284d499;"></path><path d="M843,53a19,19,0,1,0,38,0a19,19,0,1,0,-38,0z" style="stroke: #22b1ae99; fill: #22b1ae99;"></path><path d="M766,445a9,9,0,1,0,18,0a9,9,0,1,0,-18,0z" style="stroke: #d6bc5499; fill: #d6bc5499;"></path><path d="M581,382a7,7,0,1,0,14,0a7,7,0,1,0,-14,0z" style="stroke: #1284d499; fill: #1284d499;"></path><path d="M591,560a7,7,0,1,0,14,0a7,7,0,1,0,-14,0z" style="stroke: #f9c73599; fill: #f9c73599;"></path><path d="M125,92a8,8,0,1,0,16,0a8,8,0,1,0,-16,0z" style="stroke: #137bd699; fill: #137bd699;"></path><path d="M653,137a12,12,0,1,0,24,0a12,12,0,1,0,-24,0z" style="stroke: #0da7c299; fill: #0da7c299;"></path><path d="M814,102a17,17,0,1,0,34,0a17,17,0,1,0,-34,0z" style="stroke: #d6bc5499; fill: #d6bc5499;"></path><path d="M321,502a13,13,0,1,0,26,0a13,13,0,1,0,-26,0z" style="stroke: #0f5edc99; fill: #0f5edc99;"></path><path d="M75,278a5,5,0,1,0,10,0a5,5,0,1,0,-10,0z" style="stroke: #1284d499; fill: #1284d499;"></path><path d="M509,527a5,5,0,1,0,10,0a5,5,0,1,0,-10,0z" style="stroke: #faec1799; fill: #faec1799;"></path><path d="M509,355a10,10,0,1,0,20,0a10,10,0,1,0,-20,0z" style="stroke: #0a97cd99; fill: #0a97cd99;"></path><path d="M489,491a9,9,0,1,0,18,0a9,9,0,1,0,-18,0z" style="stroke: #1068da99; fill: #1068da99;"></path><path d="M332,382a16,16,0,1,0,32,0a16,16,0,1,0,-32,0z" style="stroke: #18acb899; fill: #18acb899;"></path><path d="M87,175a18,18,0,1,0,36,0a18,18,0,1,0,-36,0z" style="stroke: #22b1ae99; fill: #22b1ae99;"></path><path d="M617,178a17,17,0,1,0,34,0a17,17,0,1,0,-34,0z" style="stroke: #f9c73599; fill: #f9c73599;"></path><path d="M464,210a14,14,0,1,0,28,0a14,14,0,1,0,-28,0z" style="stroke: #eec33f99; fill: #eec33f99;"></path><path d="M400,444a18,18,0,1,0,36,0a18,18,0,1,0,-36,0z" style="stroke: #f9f90e99; fill: #f9f90e99;"></path><path d="M170,305a7,7,0,1,0,14,0a7,7,0,1,0,-14,0z" style="stroke: #06a1ca99; fill: #06a1ca99;"></path><path d="M478,231a5,5,0,1,0,10,0a5,5,0,1,0,-10,0z" style="stroke: #1171d899; fill: #1171d899;"></path><path d="M755,192a19,19,0,1,0,38,0a19,19,0,1,0,-38,0z" style="stroke: #fbde2299; fill: #fbde2299;"></path><path d="M744,305a8,8,0,1,0,16,0a8,8,0,1,0,-16,0z" style="stroke: #d6bc5499; fill: #d6bc5499;"></path><path d="M219,108a17,17,0,1,0,34,0a17,17,0,1,0,-34,0z" style="stroke: #e1bf4a99; fill: #e1bf4a99;"></path><path d="M505,216a7,7,0,1,0,14,0a7,7,0,1,0,-14,0z" style="stroke: #5dbb8b99; fill: #5dbb8b99;"></path><path d="M804,288a6,6,0,1,0,12,0a6,6,0,1,0,-12,0z" style="stroke: #f9c73599; fill: #f9c73599;"></path><path d="M588,206a18,18,0,1,0,36,0a18,18,0,1,0,-36,0z" style="stroke: #9ebd6d99; fill: #9ebd6d99;"></path><path d="M520,514a15,15,0,1,0,30,0a15,15,0,1,0,-30,0z" style="stroke: #1652cc99; fill: #1652cc99;"></path><path d="M106,532a10,10,0,1,0,20,0a10,10,0,1,0,-20,0z" style="stroke: #f9c73599; fill: #f9c73599;"></path><path d="M71,269a10,10,0,1,0,20,0a10,10,0,1,0,-20,0z" style="stroke: #b2bc6599; fill: #b2bc6599;"></path><path d="M835,322a9,9,0,1,0,18,0a9,9,0,1,0,-18,0z" style="stroke: #2b379d99; fill: #2b379d99;"></path><path d="M704,548a18,18,0,1,0,36,0a18,18,0,1,0,-36,0z" style="stroke: #1652cc99; fill: #1652cc99;"></path><path d="M441,217a12,12,0,1,0,24,0a12,12,0,1,0,-24,0z" style="stroke: #1068da99; fill: #1068da99;"></path><path d="M114,422a16,16,0,1,0,32,0a16,16,0,1,0,-32,0z" style="stroke: #eec33f99; fill: #eec33f99;"></path><path d="M69,297a10,10,0,1,0,20,0a10,10,0,1,0,-20,0z" style="stroke: #fcd12b99; fill: #fcd12b99;"></path><path d="M134,578a13,13,0,1,0,26,0a13,13,0,1,0,-26,0z" style="stroke: #22b1ae99; fill: #22b1ae99;"></path><path d="M583,202a7,7,0,1,0,14,0a7,7,0,1,0,-14,0z" style="stroke: #f9f90e99; fill: #f9f90e99;"></path><path d="M687,551a9,9,0,1,0,18,0a9,9,0,1,0,-18,0z" style="stroke: #1652cc99; fill: #1652cc99;"></path><path d="M819,376a7,7,0,1,0,14,0a7,7,0,1,0,-14,0z" style="stroke: #5dbb8b99; fill: #5dbb8b99;"></path><path d="M664,263a17,17,0,1,0,34,0a17,17,0,1,0,-34,0z" style="stroke: #1068da99; fill: #1068da99;"></path><path d="M296,194a19,19,0,1,0,38,0a19,19,0,1,0,-38,0z" style="stroke: #8bbe7599; fill: #8bbe7599;"></path><path d="M854,579a4,4,0,1,0,8,0a4,4,0,1,0,-8,0z" style="stroke: #18acb899; fill: #18acb899;"></path><path d="M628,405a13,13,0,1,0,26,0a13,13,0,1,0,-26,0z" style="stroke: #eec33f99; fill: #eec33f99;"></path><path d="M347,205a10,10,0,1,0,20,0a10,10,0,1,0,-20,0z" style="stroke: #d6bc5499; fill: #d6bc5499;"></path><path d="M441,329a8,8,0,1,0,16,0a8,8,0,1,0,-16,0z" style="stroke: #c5bb5d99; fill: #c5bb5d99;"></path><path d="M169,83a12,12,0,1,0,24,0a12,12,0,1,0,-24,0z" style="stroke: #fbde2299; fill: #fbde2299;"></path><path d="M755,430a16,16,0,1,0,32,0a16,16,0,1,0,-32,0z" style="stroke: #0da7c299; fill: #0da7c299;"></path><path d="M338,429a14,14,0,1,0,28,0a14,14,0,1,0,-28,0z" style="stroke: #fcd12b99; fill: #fcd12b99;"></path><path d="M647,181a11,11,0,1,0,22,0a11,11,0,1,0,-22,0z" style="stroke: #18acb899; fill: #18acb899;"></path><path d="M679,480a20,20,0,1,0,40,0a20,20,0,1,0,-40,0z" style="stroke: #22b1ae99; fill: #22b1ae99;"></path><path d="M624,234a7,7,0,1,0,14,0a7,7,0,1,0,-14,0z" style="stroke: #1284d499; fill: #1284d499;"></path><path d="M283,444a14,14,0,1,0,28,0a14,14,0,1,0,-28,0z" style="stroke: #22b1ae99; fill: #22b1ae99;"></path><path d="M585,421a18,18,0,1,0,36,0a18,18,0,1,0,-36,0z" style="stroke: #fcd12b99; fill: #fcd12b99;"></path><path d="M548,320a5,5,0,1,0,10,0a5,5,0,1,0,-10,0z" style="stroke: #f9f90e99; fill: #f9f90e99;"></path><path d="M605,463a15,15,0,1,0,30,0a15,15,0,1,0,-30,0z" style="stroke: #2143b399; fill: #2143b399;"></path><path d="M245,378a14,14,0,1,0,28,0a14,14,0,1,0,-28,0z" style="stroke: #1284d499; fill: #1284d499;"></path><path d="M228,227a18,18,0,1,0,36,0a18,18,0,1,0,-36,0z" style="stroke: #8bbe7599; fill: #8bbe7599;"></path><path d="M128,125a16,16,0,1,0,32,0a16,16,0,1,0,-32,0z" style="stroke: #eec33f99; fill: #eec33f99;"></path><path d="M744,568a17,17,0,1,0,34,0a17,17,0,1,0,-34,0z" style="stroke: #44b99899; fill: #44b99899;"></path><path d="M212,506a7,7,0,1,0,14,0a7,7,0,1,0,-14,0z" style="stroke: #1652cc99; fill: #1652cc99;"></path><path d="M164,535a4,4,0,1,0,8,0a4,4,0,1,0,-8,0z" style="stroke: #fcd12b99; fill: #fcd12b99;"></path><path d="M772,340a6,6,0,1,0,12,0a6,6,0,1,0,-12,0z" style="stroke: #1171d899; fill: #1171d899;"></path><path d="M177,469a9,9,0,1,0,18,0a9,9,0,1,0,-18,0z" style="stroke: #c5bb5d99; fill: #c5bb5d99;"></path><path d="M376,258a5,5,0,1,0,10,0a5,5,0,1,0,-10,0z" style="stroke: #06a1ca99; fill: #06a1ca99;"></path><path d="M199,396a13,13,0,1,0,26,0a13,13,0,1,0,-26,0z" style="stroke: #faec1799; fill: #faec1799;"></path><path d="M794,329a14,14,0,1,0,28,0a14,14,0,1,0,-28,0z" style="stroke: #2db7a399; fill: #2db7a399;"></path><path d="M763,83a14,14,0,1,0,28,0a14,14,0,1,0,-28,0z" style="stroke: #73bd8099; fill: #73bd8099;"></path><path d="M654,411a5,5,0,1,0,10,0a5,5,0,1,0,-10,0z" style="stroke: #1284d499; fill: #1284d499;"></path><path d="M616,216a14,14,0,1,0,28,0a14,14,0,1,0,-28,0z" style="stroke: #9ebd6d99; fill: #9ebd6d99;"></path><path d="M105,569a8,8,0,1,0,16,0a8,8,0,1,0,-16,0z" style="stroke: #8bbe7599; fill: #8bbe7599;"></path><path d="M800,459a17,17,0,1,0,34,0a17,17,0,1,0,-34,0z" style="stroke: #1068da99; fill: #1068da99;"></path><path d="M132,496a16,16,0,1,0,32,0a16,16,0,1,0,-32,0z" style="stroke: #06a1ca99; fill: #06a1ca99;"></path><path d="M711,240a16,16,0,1,0,32,0a16,16,0,1,0,-32,0z" style="stroke: #9ebd6d99; fill: #9ebd6d99;"></path><path d="M412,63a7,7,0,1,0,14,0a7,7,0,1,0,-14,0z" style="stroke: #2db7a399; fill: #2db7a399;"></path><path d="M283,125a13,13,0,1,0,26,0a13,13,0,1,0,-26,0z" style="stroke: #2b379d99; fill: #2b379d99;"></path><path d="M764,463a13,13,0,1,0,26,0a13,13,0,1,0,-26,0z" style="stroke: #c5bb5d99; fill: #c5bb5d99;"></path><path d="M838,83a5,5,0,1,0,10,0a5,5,0,1,0,-10,0z" style="stroke: #eec33f99; fill: #eec33f99;"></path><path d="M594,120a6,6,0,1,0,12,0a6,6,0,1,0,-12,0z" style="stroke: #0a97cd99; fill: #0a97cd99;"></path><path d="M377,463a19,19,0,1,0,38,0a19,19,0,1,0,-38,0z" style="stroke: #c5bb5d99; fill: #c5bb5d99;"></path><path d="M100,211a12,12,0,1,0,24,0a12,12,0,1,0,-24,0z" style="stroke: #44b99899; fill: #44b99899;"></path><path d="M155,389a7,7,0,1,0,14,0a7,7,0,1,0,-14,0z" style="stroke: #8bbe7599; fill: #8bbe7599;"></path><path d="M321,176a10,10,0,1,0,20,0a10,10,0,1,0,-20,0z" style="stroke: #2143b399; fill: #2143b399;"></path><path d="M461,466a9,9,0,1,0,18,0a9,9,0,1,0,-18,0z" style="stroke: #f9f90e99; fill: #f9f90e99;"></path><path d="M842,188a6,6,0,1,0,12,0a6,6,0,1,0,-12,0z" style="stroke: #0e8ed099; fill: #0e8ed099;"></path><path d="M349,244a15,15,0,1,0,30,0a15,15,0,1,0,-30,0z" style="stroke: #44b99899; fill: #44b99899;"></path><path d="M385,512a15,15,0,1,0,30,0a15,15,0,1,0,-30,0z" style="stroke: #73bd8099; fill: #73bd8099;"></path></g></svg><g><g transform="translate(0,632)"><path d="M0,0h948M0,-632h948M37,-10V0M79,-19V0M120,-10V0M162,-10V0M204,-10V0M246,-19V0M287,-10V0M329,-10V0M371,-10V0M412,-19V0M454,-10V0M496,-10V0M537,-10V0M579,-19V0M621,-10V0M662,-10V0M704,-10V0M746,-19V0M788,-10V0M829,-10V0M871,-10V0M913,-19V0M37,-622V-632M79,-613V-632M120,-622V-632M162,-622V-632M204,-622V-632M246,-613V-632M287,-622V-632M329,-622V-632M371,-622V-632M412,-613V-632M454,-622V-632M496,-622V-632M537,-622V-632M579,-613V-632M621,-622V-632M662,-622V-632M704,-622V-632M746,-613V-632M788,-622V-632M829,-622V-632M871,-622V-632M913,-613V-632" style="stroke: #000000; stroke-width: 1;"></path><g font-family="Arial" font-size="28" space="preserve" fill="#000000" text-anchor="middle"><text dy=".8em" transform="translate(79,5)">0</text><text dy=".8em" transform="translate(246,5)">20</text><text dy=".8em" transform="translate(412,5)">40</text><text dy=".8em" transform="translate(579,5)">60</text><text dy=".8em" transform="translate(746,5)">80</text><text dy=".8em" transform="translate(913,5)">100</text></g><g font-family="Arial" font-size="28" space="preserve" transform="translate(948,45)"><text fill="#000000" text-anchor="end" dy=".4em">X</text></g></g><g><path d="M0,0v632M948,0v632M14,608H0M28,582H0M14,555H0M14,528H0M14,502H0M14,475H0M28,449H0M14,422H0M14,396H0M14,369H0M14,343H0M28,316H0M14,290H0M14,263H0M14,237H0M14,210H0M28,184H0M14,157H0M14,131H0M14,104H0M14,78H0M28,51H0M14,25H0M934,608H948M920,582H948M934,555H948M934,528H948M934,502H948M934,475H948M920,449H948M934,422H948M934,396H948M934,369H948M934,343H948M920,316H948M934,290H948M934,263H948M934,237H948M934,210H948M920,184H948M934,157H948M934,131H948M934,104H948M934,78H948M920,51H948M934,25H948" style="stroke: #000000; stroke-width: 1;"></path><g font-family="Arial" font-size="28" space="preserve" fill="#000000" text-anchor="end"><text dy=".4em" transform="translate(-6,582)">0</text><text dy=".4em" transform="translate(-6,449)">50</text><text dy=".4em" transform="translate(-6,316)">100</text><text dy=".4em" transform="translate(-6,184)">150</text><text dy=".4em" transform="translate(-6,51)">200</text></g><g font-family="Arial" font-size="28" space="preserve" transform="translate(-67)"><text fill="#000000" text-anchor="end" dy=".4em" transform="rotate(270)">Y</text></g></g></g></g><g transform="translate(-462,4)" style="display: none;"><path d="M948,2h2v25h-948v-2h946z" style="fill: #000000; stroke: #000000; stroke-width: 1px;"></path><path d="M0,0H948V25H0Z" style="fill: #f2f2f2; stroke: #000000; stroke-width: 1;"></path></g><g transform="translate(1146,40)"><path d="M0,0H54V632H0Z" style="fill: none; stroke: #000000; stroke-width: 1;"></path><path d="M0,611H54V632H0Z" style="fill: #2143b399;"></path><path d="M0,590H54V612H0Z" style="fill: #2143b399;"></path><path d="M0,569H54V591H0Z" style="fill: #1652cc99;"></path><path d="M0,548H54V570H0Z" style="fill: #0f5edc99;"></path><path d="M0,527H54V549H0Z" style="fill: #1068da99;"></path><path d="M0,506H54V528H0Z" style="fill: #1171d899;"></path><path d="M0,485H54V507H0Z" style="fill: #137bd699;"></path><path d="M0,463H54V486H0Z" style="fill: #1284d499;"></path><path d="M0,442H54V464H0Z" style="fill: #0e8ed099;"></path><path d="M0,421H54V443H0Z" style="fill: #0a97cd99;"></path><path d="M0,400H54V422H0Z" style="fill: #06a1ca99;"></path><path d="M0,379H54V401H0Z" style="fill: #0da7c299;"></path><path d="M0,358H54V380H0Z" style="fill: #18acb899;"></path><path d="M0,337H54V359H0Z" style="fill: #22b1ae99;"></path><path d="M0,316H54V338H0Z" style="fill: #2db7a399;"></path><path d="M0,295H54V317H0Z" style="fill: #44b99899;"></path><path d="M0,274H54V296H0Z" style="fill: #5dbb8b99;"></path><path d="M0,253H54V275H0Z" style="fill: #73bd8099;"></path><path d="M0,232H54V254H0Z" style="fill: #8bbe7599;"></path><path d="M0,211H54V233H0Z" style="fill: #9ebd6d99;"></path><path d="M0,190H54V212H0Z" style="fill: #b2bc6599;"></path><path d="M0,169H54V191H0Z" style="fill: #c5bb5d99;"></path><path d="M0,147H54V170H0Z" style="fill: #d6bc5499;"></path><path d="M0,126H54V148H0Z" style="fill: #e1bf4a99;"></path><path d="M0,105H54V127H0Z" style="fill: #eec33f99;"></path><path d="M0,84H54V106H0Z" style="fill: #f9c73599;"></path><path d="M0,63H54V85H0Z" style="fill: #fcd12b99;"></path><path d="M0,42H54V64H0Z" style="fill: #fbde2299;"></path><path d="M0,21H54V43H0Z" style="fill: #faec1799;"></path><path d="M0,0H54V22H0Z" style="fill: #f9f90e99;"></path><g transform="translate(54)"><path d="M0,0v632M0,632H-28M0,611H-14M0,589H-14M0,568H-14M0,547H-14M0,525H-28M0,504H-14M0,483H-14M0,462H-14M0,440H-14M0,419H-28M0,398H-14M0,376H-14M0,355H-14M0,334H-14M0,312H-28M0,291H-14M0,270H-14M0,249H-14M0,227H-14M0,206H-28M0,185H-14M0,163H-14M0,142H-14M0,121H-14M0,99H-28M0,78H-14M0,57H-14M0,36H-14M0,14H-14" style="stroke: #000000; stroke-width: 1;"></path><g font-family="Arial" font-size="28" space="preserve" fill="#000000" text-anchor="start"><text dy=".4em" transform="translate(6,632)">0</text><text dy=".4em" transform="translate(6,525)">50</text><text dy=".4em" transform="translate(6,419)">100</text><text dy=".4em" transform="translate(6,312)">150</text><text dy=".4em" transform="translate(6,206)">200</text><text dy=".4em" transform="translate(6,99)">250</text></g></g></g></g></svg>