<svg xmlns="http://www.w3.org/2000/svg" viewBox="0 0 1200 800" preserveAspectRatio="none" width="1200" height="800"><path d="M0,0H1200V800H0Z" style="fill: #ffffff;"></path><g><g transform="translate(192,40)"><path d="M0,0H952V632H0Z" style="fill: #ffffff; stroke: #000000; stroke-width: 1;"></path><svg x="0" y="0" overflow="hidden" width="952" height="632" viewBox="0 0 952 632"><g><path d="M0,331h26M13,30v602M26,354h28M40,76v556M53,384h26M66,137v495M79,436h28M93,239v393M106,446h26M119,260v372M132,454h28M146,275v357M159,460h26M172,288v344M185,466h28M199,301v331M212,491h26M225,351v281M238,497h26M251,363v269M264,501h28M278,371v261M291,518h26M304,404v228M317,559h28M331,487v145M344,562h26M357,491v141M370,571h28M384,510v122M397,575h26M410,519v113M423,581h28M437,530v102M450,583h26M463,534v98M476,586h26M489,540v92M502,593h28M516,555v77M529,596h26M542,560v72M555,596h28M569,561v71M582,607h26M595,582v50M608,608h28M622,585v47M635,609h26M648,586v46M661,609h28M675,587v45M688,613h26M701,595v37M714,615h26M727,598v34M740,616h28M754,600v32M767,627h26M780,622v10M793,631h28M807,629v3M820,632h26M833,631v1M846,632h28M860,632v0M873,632h26M886,632v0M899,632h28M913,632v0M926,632h26M939,632v0" style="stroke: #cc3333; stroke-width: 2;"></path><path d="M9.8,331.0a3.2,3.2,0,1,0,6.4,0a3.2,3.2,0,1,0,-6.4,0zM36.8,354.0a3.2,3.2,0,1,0,6.4,0a3.2,3.2,0,1,0,-6.4,0zM62.8,384.0a3.2,3.2,0,1,0,6.4,0a3.2,3.2,0,1,0,-6.4,0zM89.8,436.0a3.2,3.2,0,1,0,6.4,0a3.2,3.2,0,1,0,-6.4,0zM115.8,446.0a3.2,3.2,0,1,0,6.4,0a3.2,3.2,0,1,0,-6.4,0zM142.8,454.0a3.2,3.2,0,1,0,6.4,0a3.2,3.2,0,1,0,-6.4,0zM168.8,460.0a3.2,3.2,0,1,0,6.4,0a3.2,3.2,0,1,0,-6.4,0zM195.8,466.0a3.2,3.2,0,1,0,6.4,0a3.2,3.2,0,1,0,-6.4,0zM221.8,491.0a3.2,3.2,0,1,0,6.4,0a3.2,3.2,0,1,0,-6.4,0zM247.8,497.0a3.2,3.2,0,1,0,6.4,0a3.2,3.2,0,1,0,-6.4,0zM274.8,501.0a3.2,3.2,0,1,0,6.4,0a3.2,3.2,0,1,0,-6.4,0zM300.8,518.0a3.2,3.2,0,1,0,6.4,0a3.2,3.2,0,1,0,-6.4,0zM327.8,559.0a3.2,3.2,0,1,0,6.4,0a3.2,3.2,0,1,0,-6.4,0zM353.8,562.0a3.2,3.2,0,1,0,6.4,0a3.2,3.2,0,1,0,-6.4,0zM380.8,571.0a3.2,3.2,0,1,0,6.4,0a3.2,3.2,0,1,0,-6.4,0zM406.8,575.0a3.2,3.2,0,1,0,6.4,0a3.2,3.2,0,1,0,-6.4,0zM433.8,581.0a3.2,3.2,0,1,0,6.4,0a3.2,3.2,0,1,0,-6.4,0zM459.8,583.0a3.2,3.2,0,1,0,6.4,0a3.2,3.2,0,1,0,-6.4,0zM485.8,586.0a3.2,3.2,0,1,0,6.4,0a3.2,3.2,0,1,0,-6.4,0zM512.8,593.0a3.2,3.2,0,1,0,6.4,0a3.2,3.2,0,1,0,-6.4,0zM538.8,596.0a3.2,3.2,0,1,0,6.4,0a3.2,3.2,0,1,0,-6.4,0zM565.8,596.0a3.2,3.2,0,1,0,6.4,0a3.2,3.2,0,1,0,-6.4,0zM591.8,607.0a3.2,3.2,0,1,0,6.4,0a3.2,3.2,0,1,0,-6.4,0zM618.8,608.0a3.2,3.2,0,1,0,6.4,0a3.2,3.2,0,1,0,-6.4,0zM644.8,609.0a3.2,3.2,0,1,0,6.4,0a3.2,3.2,0,1,0,-6.4,0zM671.8,609.0a3.2,3.2,0,1,0,6.4,0a3.2,3.2,0,1,0,-6.4,0zM697.8,613.0a3.2,3.2,0,1,0,6.4,0a3.2,3.2,0,1,0,-6.4,0zM723.8,615.0a3.2,3.2,0,1,0,6.4,0a3.2,3.2,0,1,0,-6.4,0zM750.8,616.0a3.2,3.2,0,1,0,6.4,0a3.2,3.2,0,1,0,-6.4,0zM776.8,627.0a3.2,3.2,0,1,0,6.4,0a3.2,3.2,0,1,0,-6.4,0zM803.8,631.0a3.2,3.2,0,1,0,6.4,0a3.2,3.2,0,1,0,-6.4,0zM829.8,632.0a3.2,3.2,0,1,0,6.4,0a3.2,3.2,0,1,0,-6.4,0zM856.8,632.0a3.2,3.2,0,1,0,6.4,0a3.2,3.2,0,1,0,-6.4,0zM882.8,632.0a3.2,3.2,0,1,0,6.4,0a3.2,3.2,0,1,0,-6.4,0zM909.8,632.0a3.2,3.2,0,1,0,6.4,0a3.2,3.2,0,1,0,-6.4,0zM935.8,632.0a3.2,3.2,0,1,0,6.4,0a3.2,3.2,0,1,0,-6.4,0z" style="stroke: #0000ff; fill: #0000ff;"></path></g><g><path d="M0,331h26M13,312v38M26,346h28M40,328v36M53,375h26M66,359v32M79,434h28M93,419v31M106,440h26M119,425v29M132,460h28M146,445v30M159,459h26M172,444v30M185,461h28M199,447v27M212,490h26M225,477v26M238,497h26M251,484v26M264,499h28M278,487v24M291,523h26M304,513v20M317,555h28M331,546v19M344,562h26M357,553v18M370,569h28M384,560v18M397,572h26M410,564v16M423,581h28M437,573v16M450,583h26M463,575v15M476,585h26M489,577v15M502,593h28M516,586v13M529,597h26M542,590v13M555,597h28M569,591v11M582,607h26M595,601v12M608,608h28M622,602v11M635,611h26M648,606v11M661,608h28M675,603v10M688,612h26M701,607v10M714,615h26M727,610v9M740,616h28M754,613v5M767,627h26M780,625v3M793,630h28M807,630v1M820,632h26M833,631v1M846,632h28M860,632v0M873,632h26M886,632v0" style="stroke: #000000; stroke-width: 2;"></path><path d="M9.8,331.0a3.2,3.2,0,1,0,6.4,0a3.2,3.2,0,1,0,-6.4,0zM36.8,346.0a3.2,3.2,0,1,0,6.4,0a3.2,3.2,0,1,0,-6.4,0zM62.8,375.0a3.2,3.2,0,1,0,6.4,0a3.2,3.2,0,1,0,-6.4,0zM89.8,434.0a3.2,3.2,0,1,0,6.4,0a3.2,3.2,0,1,0,-6.4,0zM115.8,440.0a3.2,3.2,0,1,0,6.4,0a3.2,3.2,0,1,0,-6.4,0zM142.8,460.0a3.2,3.2,0,1,0,6.4,0a3.2,3.2,0,1,0,-6.4,0zM168.8,459.0a3.2,3.2,0,1,0,6.4,0a3.2,3.2,0,1,0,-6.4,0zM195.8,461.0a3.2,3.2,0,1,0,6.4,0a3.2,3.2,0,1,0,-6.4,0zM221.8,490.0a3.2,3.2,0,1,0,6.4,0a3.2,3.2,0,1,0,-6.4,0zM247.8,497.0a3.2,3.2,0,1,0,6.4,0a3.2,3.2,0,1,0,-6.4,0zM274.8,499.0a3.2,3.2,0,1,0,6.4,0a3.2,3.2,0,1,0,-6.4,0zM300.8,523.0a3.2,3.2,0,1,0,6.4,0a3.2,3.2,0,1,0,-6.4,0zM327.8,555.0a3.2,3.2,0,1,0,6.4,0a3.2,3.2,0,1,0,-6.4,0zM353.8,562.0a3.2,3.2,0,1,0,6.4,0a3.2,3.2,0,1,0,-6.4,0zM380.8,569.0a3.2,3.2,0,1,0,6.4,0a3.2,3.2,0,1,0,-6.4,0zM406.8,572.0a3.2,3.2,0,1,0,6.4,0a3.2,3.2,0,1,0,-6.4,0zM433.8,581.0a3.2,3.2,0,1,0,6.4,0a3.2,3.2,0,1,0,-6.4,0zM459.8,583.0a3.2,3.2,0,1,0,6.4,0a3.2,3.2,0,1,0,-6.4,0zM485.8,585.0a3.2,3.2,0,1,0,6.4,0a3.2,3.2,0,1,0,-6.4,0zM512.8,593.0a3.2,3.2,0,1,0,6.4,0a3.2,3.2,0,1,0,-6.4,0zM538.8,597.0a3.2,3.2,0,1,0,6.4,0a3.2,3.2,0,1,0,-6.4,0zM565.8,597.0a3.2,3.2,0,1,0,6.4,0a3.2,3.2,0,1,0,-6.4,0zM591.8,607.0a3.2,3.2,0,1,0,6.4,0a3.2,3.2,0,1,0,-6.4,0zM618.8,608.0a3.2,3.2,0,1,0,6.4,0a3.2,3.2,0,1,0,-6.4,0zM644.8,611.0a3.2,3.2,0,1,0,6.4,0a3.2,3.2,0,1,0,-6.4,0zM671.8,608.0a3.2,3.2,0,1,0,6.4,0a3.2,3.2,0,1,0,-6.4,0zM697.8,612.0a3.2,3.2,0,1,0,6.4,0a3.2,3.2,0,1,0,-6.4,0zM723.8,615.0a3.2,3.2,0,1,0,6.4,0a3.2,3.2,0,1,0,-6.4,0zM750.8,616.0a3.2,3.2,0,1,0,6.4,0a3.2,3.2,0,1,0,-6.4,0zM776.8,627.0a3.2,3.2,0,1,0,6.4,0a3.2,3.2,0,1,0,-6.4,0zM803.8,630.0a3.2,3.2,0,1,0,6.4,0a3.2,3.2,0,1,0,-6.4,0zM829.8,632.0a3.2,3.2,0,1,0,6.4,0a3.2,3.2,0,1,0,-6.4,0zM856.8,632.0a3.2,3.2,0,1,0,6.4,0a3.2,3.2,0,1,0,-6.4,0zM882.8,632.0a3.2,3.2,0,1,0,6.4,0a3.2,3.2,0,1,0,-6.4,0z" style="stroke: #000000; fill: #000000;"></path></g></svg><g><g transform="translate(0,632)"><path d="M0,0h952M0,-632h952M0,-19V0M26,-19V0M53,-19V0M79,-19V0M106,-19V0M132,-19V0M159,-19V0M185,-19V0M212,-19V0M238,-19V0M264,-19V0M291,-19V0M317,-19V0M344,-19V0M370,-19V0M397,-19V0M423,-19V0M450,-19V0M476,-19V0M502,-19V0M529,-19V0M555,-19V0M582,-19V0M608,-19V0M635,-19V0M661,-19V0M688,-19V0M714,-19V0M740,-19V0M767,-19V0M793,-19V0M820,-19V0M846,-19V0M873,-19V0M899,-19V0M926,-19V0M952,-10V0M0,-613V-632M26,-613V-632M53,-613V-632M79,-613V-632M106,-613V-632M132,-613V-632M159,-613V-632M185,-613V-632M212,-613V-632M238,-613V-632M264,-613V-632M291,-613V-632M317,-613V-632M344,-613V-632M370,-613V-632M397,-613V-632M423,-613V-632M450,-613V-632M476,-613V-632M502,-613V-632M529,-613V-632M555,-613V-632M582,-613V-632M608,-613V-632M635,-613V-632M661,-613V-632M688,-613V-632M714,-613V-632M740,-613V-632M767,-613V-632M793,-613V-632M820,-613V-632M846,-613V-632M873,-613V-632M899,-613V-632M926,-613V-632M952,-622V-632" style="stroke: #000000; stroke-width: 1;"></path><g font-family="Arial" font-size="16" space="preserve" fill="#000000" text-anchor="middle"><text dy=".8em" transform="translate(13,6) rotate(25)" style="text-anchor: start;">france</text><text dy=".8em" transform="translate(40,6) rotate(25)" style="text-anchor: start;">spain</text><text dy=".8em" transform="translate(66,6) rotate(25)" style="text-anchor: start;">sweden</text><text dy=".8em" transform="translate(93,6) rotate(25)" style="text-anchor: start;">germany</text><text dy=".8em" transform="translate(119,6) rotate(25)" style="text-anchor: start;">finland</text><text dy=".8em" transform="translate(146,6) rotate(25)" style="text-anchor: start;">norway</text><text dy=".8em" transform="translate(172,6) rotate(25)" style="text-anchor: start;">poland</text><text dy=".8em" transform="translate(199,6) rotate(25)" style="text-anchor: start;">italy</text><text dy=".8em" transform="translate(225,6) rotate(25)" style="text-anchor: start;">yugoslavia</text><text dy=".8em" transform="translate(251,6) rotate(25)" style="text-anchor: start;">united_kingdom</text><text dy=".8em" transform="translate(278,6) rotate(25)" style="text-anchor: start;">romania</text><text dy=".8em" transform="translate(304,6) rotate(25)" style="text-anchor: start;">belarus</text><text dy=".8em" transform="translate(331,6) rotate(25)" style="text-anchor: start;">greece</text><text dy=".8em" transform="translate(357,6) rotate(25)" style="text-anchor: start;">czechoslovakia</text><text dy=".8em" transform="translate(384,6) rotate(25)" style="text-anchor: start;">bulgaria</text><text dy=".8em" transform="translate(410,6) rotate(25)" style="text-anchor: start;">iceland</text><text dy=".8em" transform="translate(437,6) rotate(25)" style="text-anchor: start;">hungary</text><text dy=".8em" transform="translate(463,6) rotate(25)" style="text-anchor: start;">portugal</text><text dy=".8em" transform="translate(489,6) rotate(25)" style="text-anchor: start;">austria</text><text dy=".8em" transform="translate(516,6) rotate(25)" style="text-anchor: start;">ireland</text><text dy=".8em" transform="translate(542,6) rotate(25)" style="text-anchor: start;">lithuania</text><text dy=".8em" transform="translate(569,6) rotate(25)" style="text-anchor: start;">latvia</text><text dy=".8em" transform="translate(595,6) rotate(25)" style="text-anchor: start;">estonia</text><text dy=".8em" transform="translate(622,6) rotate(25)" style="text-anchor: start;">denmark</text><text dy=".8em" transform="translate(648,6) rotate(25)" style="text-anchor: start;">netherlands</text><text dy=".8em" transform="translate(675,6) rotate(25)" style="text-anchor: start;">switzerland</text><text dy=".8em" transform="translate(701,6) rotate(25)" style="text-anchor: start;">moldova</text><text dy=".8em" transform="translate(727,6) rotate(25)" style="text-anchor: start;">belgium</text><text dy=".8em" transform="translate(754,6) rotate(25)" style="text-anchor: start;">albania</text><text dy=".8em" transform="translate(780,6) rotate(25)" style="text-anchor: start;">cyprus</text><text dy=".8em" transform="translate(807,6) rotate(25)" style="text-anchor: start;">luxembourg</text><text dy=".8em" transform="translate(833,6) rotate(25)" style="text-anchor: start;">andorra</text><text dy=".8em" transform="translate(860,6) rotate(25)" style="text-anchor: start;">malta</text><text dy=".8em" transform="translate(886,6) rotate(25)" style="text-anchor: start;">liechtenstein</text><text dy=".8em" transform="translate(913,6) rotate(25)" style="text-anchor: start;">san_marino</text><text dy=".8em" transform="translate(939,6) rotate(25)" style="text-anchor: start;">monaco</text></g></g><g><path d="M0,0v632M952,0v632M28,632H0M14,604H0M14,577H0M14,549H0M28,522H0M14,494H0M14,467H0M14,439H0M28,412H0M14,384H0M14,357H0M14,329H0M28,302H0M14,274H0M14,247H0M14,219H0M28,192H0M14,164H0M14,137H0M14,109H0M28,82H0M14,54H0M14,27H0M924,632H952M938,604H952M938,577H952M938,549H952M924,522H952M938,494H952M938,467H952M938,439H952M924,412H952M938,384H952M938,357H952M938,329H952M924,302H952M938,274H952M938,247H952M938,219H952M924,192H952M938,164H952M938,137H952M938,109H952M924,82H952M938,54H952M938,27H952" style="stroke: #000000; stroke-width: 1;"></path><g font-family="Arial" font-size="40" space="preserve"><text fill="#000000" text-anchor="end" dy=".4em" transform="translate(-6,632)">0</text><text fill="#000000" text-anchor="end" dy=".4em" transform="translate(-6,522)">0.2</text><text fill="#000000" text-anchor="end" dy=".4em" transform="translate(-6,412)">0.4</text><text fill="#000000" text-anchor="end" dy=".4em" transform="translate(-6,302)">0.6</text><text fill="#000000" text-anchor="end" dy=".4em" transform="translate(-6,192)">0.8</text><text fill="#000000" text-anchor="end" dy=".4em" transform="translate(-6,82)">1</text><g transform="translate(5,-13)"><text fill="#000000" font-size="40">×10</text><text fill="#000000" font-size="24" transform="translate(66,-21)">6</text></g></g></g></g></g><g transform="translate(-464,4)" style="display: none;"><path d="M952,2h2v25h-952v-2h950z" style="fill: #000000; stroke: #000000; stroke-width: 1px;"></path><path d="M0,0H952V25H0Z" style="fill: #f2f2f2; stroke: #000000; stroke-width: 1;"></path></g><g transform="translate(600,160)" font-family="Arial" font-size="20" space="preserve"><path d="M504,4h4v104h-504v-4h500z" style="fill: #000000; stroke: #000000; stroke-width: 1px;"></path><path d="M0,0H504V104H0Z" style="fill: #ffffff; stroke: #000000; stroke-width: 1;"></path><path d="M15,28H111" style="stroke: #cc3333; stroke-width: 2;"></path><path d="M59.8,28.0a3.2,3.2,0,1,0,6.4,0a3.2,3.2,0,1,0,-6.4,0z" style="stroke: #0000ff; fill: #0000ff;"></path><g transform="translate(126,36)"><text fill="#000000" font-size="20">Real countries surfaces from Wikipedia (in km</text><text fill="#000000" font-size="12" transform="translate(413,-10)">2</text><text fill="#000000" font-size="20" x="419">)</text></g><path d="M15,77H111" style="stroke: #000000; stroke-width: 2;"></path><path d="M59.8,77.0a3.2,3.2,0,1,0,6.4,0a3.2,3.2,0,1,0,-6.4,0z" style="stroke: #000000; fill: #000000;"></path><text fill="#000000" text-anchor="start" dy=".4em" transform="translate(126,77)">Countries surfaces from TH2Poly (with errors)</text></g><g transform="translate(600,160)" font-family="Arial" font-size="20" space="preserve"><path d="M504,4h4v104h-504v-4h500z" style="fill: #000000; stroke: #000000; stroke-width: 1px;"></path><path d="M0,0H504V104H0Z" style="fill: #ffffff; stroke: #000000; stroke-width: 1;"></path><path d="M15,28H111" style="stroke: #cc3333; stroke-width: 2;"></path><path d="M59.8,28.0a3.2,3.2,0,1,0,6.4,0a3.2,3.2,0,1,0,-6.4,0z" style="stroke: #0000ff; fill: #0000ff;"></path><g transform="translate(126,36)"><text fill="#000000" font-size="20">Real countries surfaces from Wikipedia (in km</text><text fill="#000000" font-size="12" transform="translate(413,-10)">2</text><text fill="#000000" font-size="20" x="419">)</text></g><path d="M15,77H111" style="stroke: #000000; stroke-width: 2;"></path><path d="M59.8,77.0a3.2,3.2,0,1,0,6.4,0a3.2,3.2,0,1,0,-6.4,0z" style="stroke: #000000; fill: #000000;"></path><text fill="#000000" text-anchor="start" dy=".4em" transform="translate(126,77)">Countries surfaces from TH2Poly (with errors)</text></g></g></svg>