<svg xmlns="http://www.w3.org/2000/svg" viewBox="0 0 1200 800" preserveAspectRatio="none" width="1200" height="800"><path d="M0,0H1200V800H0Z" style="fill: #ffffff;"></path><g><svg viewBox="0 0 1176 384" preserveAspectRatio="none" x="12" y="8" width="1176" height="384"><path d="M0,0H1176V384H0Z" style="fill: #ffffff;"></path><g><g transform="translate(118,38)"><path d="M0,0H941V307H0Z" style="fill: #ffffff; stroke: #000000; stroke-width: 1;"></path><svg x="0" y="0" overflow="hidden" width="941" height="307" viewBox="0 0 941 307"><g><path d="M0,292h24M12,291v2M24,292h24M36,291v2M47,292h24M59,291v2M71,292h24M83,291v2M94,292h24M106,291v1M118,291h24M130,291v1M141,291h24M153,290v1M165,290h24M177,289v1M188,288h24M200,287v2M212,284h24M224,283v2M235,276h24M247,274v3M259,264h24M271,262v4M282,248h24M294,246v4M306,223h24M318,220v6M329,190h24M341,186v8M353,147h24M365,142v10M376,114h24M388,109v10M400,79h24M412,73v12M423,48h24M435,41v15M447,43h24M459,34v17M471,23h24M483,15v17M494,29h24M506,21v16M518,71h24M530,64v14M541,116h24M553,111v11M565,161h24M577,156v9M588,201h24M600,197v7M612,225h24M624,222v5M635,248h24M647,246v4M659,264h24M671,262v3M682,277h24M694,276v2M706,283h24M718,282v2M729,287h24M741,286v1M753,289h24M765,289v1M776,291h24M788,291v0M800,291h24M812,291v1M823,292h24M835,291v1M847,291h24M859,291v1M870,292h24M882,291v1M894,292h24M906,291v1M917,292h24M929,291v1" style="stroke: #000000; stroke-width: 1;"></path></g><g><path d="M0,292h24M12,291v2M24,292h24M36,291v2M47,292h24M59,291v2M71,292h24M83,291v2M94,292h24M106,291v1M118,291h24M130,291v1M141,291h24M153,290v1M165,290h24M177,289v1M188,288h24M200,287v2M212,284h24M224,283v2M235,276h24M247,274v3M259,264h24M271,262v4M282,248h24M294,246v4M306,223h24M318,220v6M329,190h24M341,186v8M353,147h24M365,142v10M376,114h24M388,109v10M400,79h24M412,73v12M423,48h24M435,41v15M447,43h24M459,34v17M471,23h24M483,15v17M494,29h24M506,21v16M518,71h24M530,64v14M541,116h24M553,111v11M565,161h24M577,156v9M588,201h24M600,197v7M612,225h24M624,222v5M635,248h24M647,246v4M659,264h24M671,262v3M682,277h24M694,276v2M706,283h24M718,282v2M729,287h24M741,286v1M753,289h24M765,289v1M776,291h24M788,291v0M800,291h24M812,291v1M823,292h24M835,291v1M847,291h24M859,291v1M870,292h24M882,291v1M894,292h24M906,291v1M917,292h24M929,291v1" style="stroke: #000000; stroke-width: 1;"></path><path d="M8,292a4,4,0,1,0,8,0a4,4,0,1,0,-8,0zM32,292a4,4,0,1,0,8,0a4,4,0,1,0,-8,0zM55,292a4,4,0,1,0,8,0a4,4,0,1,0,-8,0zM79,292a4,4,0,1,0,8,0a4,4,0,1,0,-8,0zM102,292a4,4,0,1,0,8,0a4,4,0,1,0,-8,0zM126,291a4,4,0,1,0,8,0a4,4,0,1,0,-8,0zM149,291a4,4,0,1,0,8,0a4,4,0,1,0,-8,0zM173,290a4,4,0,1,0,8,0a4,4,0,1,0,-8,0zM196,288a4,4,0,1,0,8,0a4,4,0,1,0,-8,0zM220,284a4,4,0,1,0,8,0a4,4,0,1,0,-8,0zM243,276a4,4,0,1,0,8,0a4,4,0,1,0,-8,0zM267,264a4,4,0,1,0,8,0a4,4,0,1,0,-8,0zM290,248a4,4,0,1,0,8,0a4,4,0,1,0,-8,0zM314,223a4,4,0,1,0,8,0a4,4,0,1,0,-8,0zM337,190a4,4,0,1,0,8,0a4,4,0,1,0,-8,0zM361,147a4,4,0,1,0,8,0a4,4,0,1,0,-8,0zM384,114a4,4,0,1,0,8,0a4,4,0,1,0,-8,0zM408,79a4,4,0,1,0,8,0a4,4,0,1,0,-8,0zM431,48a4,4,0,1,0,8,0a4,4,0,1,0,-8,0zM455,43a4,4,0,1,0,8,0a4,4,0,1,0,-8,0zM479,23a4,4,0,1,0,8,0a4,4,0,1,0,-8,0zM502,29a4,4,0,1,0,8,0a4,4,0,1,0,-8,0zM526,71a4,4,0,1,0,8,0a4,4,0,1,0,-8,0zM549,116a4,4,0,1,0,8,0a4,4,0,1,0,-8,0zM573,161a4,4,0,1,0,8,0a4,4,0,1,0,-8,0zM596,201a4,4,0,1,0,8,0a4,4,0,1,0,-8,0zM620,225a4,4,0,1,0,8,0a4,4,0,1,0,-8,0zM643,248a4,4,0,1,0,8,0a4,4,0,1,0,-8,0zM667,264a4,4,0,1,0,8,0a4,4,0,1,0,-8,0zM690,277a4,4,0,1,0,8,0a4,4,0,1,0,-8,0zM714,283a4,4,0,1,0,8,0a4,4,0,1,0,-8,0zM737,287a4,4,0,1,0,8,0a4,4,0,1,0,-8,0zM761,289a4,4,0,1,0,8,0a4,4,0,1,0,-8,0zM784,291a4,4,0,1,0,8,0a4,4,0,1,0,-8,0zM808,291a4,4,0,1,0,8,0a4,4,0,1,0,-8,0zM831,292a4,4,0,1,0,8,0a4,4,0,1,0,-8,0zM855,291a4,4,0,1,0,8,0a4,4,0,1,0,-8,0zM878,292a4,4,0,1,0,8,0a4,4,0,1,0,-8,0zM902,292a4,4,0,1,0,8,0a4,4,0,1,0,-8,0zM925,292a4,4,0,1,0,8,0a4,4,0,1,0,-8,0z" style="stroke: #000000; fill: #000000;"></path></g><g><path d="M0,292h141v-1h47v-4h24v-4h23v-6h24v-10h23v-28h24v-18h23v-23h24v-46h23v-38h24v-32h23v-43h24v-9h24v7h23v-2h24v43h23v34h24v46h23v42h24v16h23v31h24v19h23v13h24v3h23v3h24v4h23v2h47v1h118" style="stroke-linejoin: miter; stroke: #ff0000; stroke-width: 2; fill: none;"></path></g><g><path d="M0,292h24v-1h47v-1h23v-1h24v-5h23v-5h24v-18h23v-7h24v-13h23v-31h24v-36h23v-3h24v-35h23v-1h24v-17h23v-9h24v37h23v16h24v36h24v28h23v9h24v23h23v11h24v10h23v5h24v4h23v1h24v2h47v1h235" style="stroke-linejoin: miter; stroke: #0000ff; stroke-width: 2; stroke-dasharray: 3,3; fill: none;"></path></g><g><path d="M0,288h24M12,288v1M24,287h24M36,287v1M47,287h24M59,287v0M71,287h24M83,287v0M94,286h24M106,285v1M118,285h24M130,285v0M141,284h24M153,284v0M165,283h24M177,282v1M188,282h24M200,281v1M212,280h24M224,279v1M235,277h24M247,276v1M259,274h24M271,274v1M282,271h24M294,270v2M306,264h24M318,264v1M329,255h24M341,254v1M353,240h24M365,239v2M376,223h24M388,222v2M400,192h24M412,191v2M423,141h24M435,139v4M447,83h24M459,81v4M471,39h24M483,36v5M494,68h24M506,66v4M518,129h24M530,128v3M541,182h24M553,180v3M565,216h24M577,214v3M588,240h24M600,239v2M612,252h24M624,252v1M635,262h24M647,262v1M659,268h24M671,267v1M682,274h24M694,274v1M706,277h24M718,276v1M729,279h24M741,278v1M753,281h24M765,281v0M776,283h24M788,283v1M800,283h24M812,283v1M823,285h24M835,285v1M847,285h24M859,285v0M870,287h24M882,286v1M894,287h24M906,287v1M917,288h24M929,287v1" style="stroke: #59d354; stroke-width: 2; stroke-dasharray: 3,3;"></path></g></svg><g><g transform="translate(0,307)"><path d="M0,0h941M0,-9V0M24,-5V0M47,-5V0M71,-5V0M94,-9V0M118,-5V0M141,-5V0M165,-5V0M188,-9V0M212,-5V0M235,-5V0M259,-5V0M282,-9V0M306,-5V0M329,-5V0M353,-5V0M376,-9V0M400,-5V0M423,-5V0M447,-5V0M471,-9V0M494,-5V0M518,-5V0M541,-5V0M565,-9V0M588,-5V0M612,-5V0M635,-5V0M659,-9V0M682,-5V0M706,-5V0M729,-5V0M753,-9V0M776,-5V0M800,-5V0M823,-5V0M847,-9V0M870,-5V0M894,-5V0M917,-5V0M941,-9V0" style="stroke: #000000; stroke-width: 1;"></path><g font-family="Arial" font-size="15" space="preserve" font-weight="bold" fill="#000000" text-anchor="middle"><text dy=".8em" transform="translate(0,3)">-10</text><text dy=".8em" transform="translate(94,3)">-8</text><text dy=".8em" transform="translate(188,3)">-6</text><text dy=".8em" transform="translate(282,3)">-4</text><text dy=".8em" transform="translate(376,3)">-2</text><text dy=".8em" transform="translate(471,3)">0</text><text dy=".8em" transform="translate(565,3)">2</text><text dy=".8em" transform="translate(659,3)">4</text><text dy=".8em" transform="translate(753,3)">6</text><text dy=".8em" transform="translate(847,3)">8</text><text dy=".8em" transform="translate(941,3)">10</text></g><g font-family="Arial" font-size="15" space="preserve" font-weight="bold" transform="translate(941,30)"><text fill="#000000" text-anchor="end" dy=".4em">x variable</text></g></g><g><path d="M0,0v307M14,305H0M28,292H0M14,279H0M14,266H0M14,252H0M28,239H0M14,226H0M14,213H0M14,200H0M28,187H0M14,174H0M14,161H0M14,147H0M28,134H0M14,121H0M14,108H0M14,95H0M28,82H0M14,69H0M14,56H0M14,42H0M28,29H0M14,16H0M14,3H0" style="stroke: #000000; stroke-width: 1;"></path><g font-family="Arial" font-size="15" space="preserve" font-weight="bold" fill="#000000" text-anchor="end"><text dy=".4em" transform="translate(-3,292)">0</text><text dy=".4em" transform="translate(-3,239)">200</text><text dy=".4em" transform="translate(-3,187)">400</text><text dy=".4em" transform="translate(-3,134)">600</text><text dy=".4em" transform="translate(-3,82)">800</text><text dy=".4em" transform="translate(-3,29)">1000</text></g><g font-family="Arial" font-size="15" space="preserve" font-weight="bold" transform="translate(-95)"><text fill="#000000" text-anchor="end" dy=".4em" transform="rotate(270)">Events</text></g></g></g></g><g transform="translate(-459,2)" font-family="Arial" font-size="21" space="preserve" font-weight="bold"><path d="M0,0H941V26H0Z" style="fill: #ffffff; stroke: #000000; stroke-width: 1;"></path><text fill="#000000" text-anchor="start" dy=".8em" transform="translate(47)">Unfolding toy example with TSVDUnfold</text></g><g transform="translate(682,46)" font-family="Arial" font-size="21" space="preserve" font-weight="bold"><path d="M57,16a4,4,0,1,0,8,0a4,4,0,1,0,-8,0z" style="stroke: #000000; fill: #000000;"></path><text fill="#000000" text-anchor="start" dy=".4em" transform="translate(121,16)">Unfolded Data</text><path d="M14,41H107" style="stroke: #ff0000; stroke-width: 2;"></path><text fill="#000000" text-anchor="start" dy=".4em" transform="translate(121,42)">True Data</text><path d="M14,67H107" style="stroke: #0000ff; stroke-width: 2; stroke-dasharray: 3,3;"></path><text fill="#000000" text-anchor="start" dy=".4em" transform="translate(121,67)">Reconstructed Data</text><path d="M14,92H107" style="stroke: #59d354; stroke-width: 2; stroke-dasharray: 3,3;"></path><text fill="#000000" text-anchor="start" dy=".4em" transform="translate(121,93)">True MC</text></g></g></svg><svg viewBox="0 0 1176 384" preserveAspectRatio="none" x="12" y="408" width="1176" height="384"><path d="M0,0H1176V384H0Z" style="fill: #ffffff;"></path></svg><svg viewBox="0 0 564 376" preserveAspectRatio="none" x="24" y="412" width="564" height="376"><path d="M0,0H564V376H0Z" style="fill: #ffffff;"></path><g><g transform="translate(56,38)"><path d="M0,0H423V301H0Z" style="fill: #ffffff; stroke: #000000; stroke-width: 1;"></path><svg x="0" y="0" overflow="hidden" width="423" height="301" viewBox="0 0 423 301"><g><path fill="#263da8" d="M201,128h11v7h-11zm11,-8h10v15h-10zm21,23h10v15h-10zm10,0h11v8h-11z"></path><path fill="#1652cc" d="M137,158h11v8h-11zm11,-15h11v15h-11zm11,0h10v15h-10zm10,8h11v7h-11zm21,-23h11v7h-11zm0,68h11v7h-11zm11,-76h11v8h-11zm0,15h11v8h-11zm0,38h11v23h-11zm11,-60h10v7h-10zm0,68h10v15h-10zM222,90h11v38h-11zm0,61h11v7h-11zM233,90h10v15h-10zm0,68h10v8h-10zm10,-23h11v8h-11zm0,16h11v7h-11zm11,-16h10v16h-10zm10,0h11v8h-11zm11,-7h11v15h-11zm11,0h10v15h-10z"></path><path fill="#1063db" d="M0,0h11v301h-11zM11,0h10v301h-10zM21,0h11v301h-11zM32,0h10v301h-10zM42,0h11v301h-11zM53,0h10v301h-10zM63,0h11v301h-11zM74,0h11v301h-11zM85,0h10v301h-10zM95,0h11v301h-11zm11,0h10v211h-10zm0,218h10v83h-10zM116,0h11v196h-11zm0,226h11v75h-11zM127,0h10v181h-10zm0,218h10v83h-10zM137,0h11v158h-11zm0,166h11v7h-11zm0,52h11v83h-11zM148,0h11v128h-11zm0,135h11v8h-11zm0,23h11v8h-11zm0,53h11v90h-11zM159,0h10v135h-10zm0,158h10v8h-10zm0,53h10v90h-10zM169,0h11v135h-11zm0,143h11v8h-11zm0,60h11v98h-11zM180,0h10v135h-10zm0,143h10v15h-10zm0,53h10v105h-10zM190,0h11v128h-11zm0,135h11v16h-11zm0,46h11v15h-11zm0,22h11v98h-11zM201,0h11v90h-11zm0,113h11v7h-11zm0,53h11v7h-11zm0,30h11v105h-11zM212,0h10v98h-10zm0,158h10v23h-10zm0,38h10v105h-10zM222,0h11v90h-11zm0,158h11v8h-11zm0,30h11v113h-11zM233,0h10v90h-10zm0,105h10v8h-10zm0,61h10v22h-10zm0,30h10v105h-10zM243,0h11v105h-11zm0,158h11v143h-11zM254,0h10v98h-10zm0,151h10v150h-10zM264,0h11v90h-11zm0,128h11v7h-11zm0,30h11v143h-11zM275,0h11v83h-11zm0,120h11v8h-11zm0,38h11v143h-11zM286,0h10v83h-10zm0,113h10v15h-10zm0,30h10v8h-10zm0,15h10v143h-10zM296,0h11v83h-11zm0,105h11v196h-11zM307,0h10v301h-10zm10,0h11v301h-11zm11,0h10v301h-10zm10,0h11v301h-11zm11,0h11v301h-11zm11,0h10v301h-10zm10,0h11v301h-11zm11,0h10v301h-10zm10,0h11v301h-11zm11,0h10v301h-10zm10,0h11v301h-11z"></path><path fill="#1171d8" d="M106,211h10v7h-10zm10,-15h11v30h-11zm11,-15h10v37h-10zm10,-8h11v8h-11zm0,30h11v15h-11zm11,-75h11v7h-11zm0,38h11v7h-11zm0,37h11v8h-11zm11,-68h10v8h-10zm0,68h10v8h-10zm10,-7h11v7h-11zm11,-8h10v8h-10zM201,90h11v23h-11zm11,8h10v15h-10zm10,83h11v7h-11zm11,-68h10v7h-10zm0,75h10v8h-10zM254,98h10v7h-10zm0,30h10v7h-10zM264,90h11v8h-11zm0,53h11v15h-11zM275,83h11v15h-11zm0,30h11v7h-11zm0,30h11v15h-11zM286,83h10v30h-10zm0,68h10v7h-10zM296,83h11v22h-11z"></path><path fill="#1380d5" d="M137,181h11v22h-11zm11,-8h11v8h-11zm0,23h11v7h-11zm11,0h10v7h-10zm10,-61h11v8h-11zm0,23h11v8h-11zm0,30h11v8h-11zm11,-53h10v8h-10zm10,38h11v8h-11zm32,-7h11v15h-11zm21,-61h11v8h-11zm21,-7h11v7h-11zm0,22h11v8h-11zM275,98h11v15h-11z"></path><path fill="#0e8ed0" d="M148,181h11v15h-11zm11,-15h10v7h-10zm0,22h10v8h-10zm21,-7h10v7h-10zm74,-76h10v8h-10zm10,0h11v15h-11z"></path><path fill="#089dcc" d="M243,113h11v7h-11zm11,7h10v8h-10z"></path><path fill="#0da7c2" d="M159,173h10v15h-10zm10,8h11v7h-11zm21,-30h11v7h-11zm11,7h11v8h-11zm32,-38h10v8h-10zm10,8h11v7h-11zm11,-15h10v7h-10z"></path><path fill="#1dafb3" d="M169,166h11v7h-11zm11,-8h10v8h-10zm0,15h10v8h-10zm10,-7h11v7h-11zm11,-23h11v8h-11zm11,8h10v7h-10zm10,-23h11v7h-11zm11,7h10v8h-10z"></path><path fill="#2db7a3" d="M169,173h11v8h-11zm43,-38h10v8h-10zm10,8h11v8h-11zm21,-23h11v8h-11z"></path><path fill="#52ba91" d="M180,166h10v7h-10z"></path><path fill="#94be71" d="M190,158h11v8h-11zm43,-30h10v7h-10z"></path><path fill="#d0ba59" d="M201,151h11v7h-11z"></path><path fill="#fcd12b" d="M222,135h11v8h-11z"></path><path fill="#f9f90e" d="M212,143h10v8h-10z"></path></g><g><path fill="#263da8" d="M201,128h11v7h-11zm11,-8h10v15h-10zm21,23h10v15h-10zm10,0h11v8h-11z"></path><path fill="#1652cc" d="M137,158h11v8h-11zm11,-15h11v15h-11zm11,0h10v15h-10zm10,8h11v7h-11zm21,-23h11v7h-11zm0,68h11v7h-11zm11,-76h11v8h-11zm0,15h11v8h-11zm0,38h11v23h-11zm11,-60h10v7h-10zm0,68h10v15h-10zM222,90h11v38h-11zm0,61h11v7h-11zM233,90h10v15h-10zm0,68h10v8h-10zm10,-23h11v8h-11zm0,16h11v7h-11zm11,-16h10v16h-10zm10,0h11v8h-11zm11,-7h11v15h-11zm11,0h10v15h-10z"></path><path fill="#1063db" d="M0,0h11v301h-11zM11,0h10v301h-10zM21,0h11v301h-11zM32,0h10v301h-10zM42,0h11v301h-11zM53,0h10v301h-10zM63,0h11v301h-11zM74,0h11v301h-11zM85,0h10v301h-10zM95,0h11v301h-11zm11,0h10v211h-10zm0,218h10v83h-10zM116,0h11v196h-11zm0,226h11v75h-11zM127,0h10v181h-10zm0,218h10v83h-10zM137,0h11v158h-11zm0,166h11v7h-11zm0,52h11v83h-11zM148,0h11v128h-11zm0,135h11v8h-11zm0,23h11v8h-11zm0,53h11v90h-11zM159,0h10v135h-10zm0,158h10v8h-10zm0,53h10v90h-10zM169,0h11v135h-11zm0,143h11v8h-11zm0,60h11v98h-11zM180,0h10v135h-10zm0,143h10v15h-10zm0,53h10v105h-10zM190,0h11v128h-11zm0,135h11v16h-11zm0,46h11v15h-11zm0,22h11v98h-11zM201,0h11v90h-11zm0,113h11v7h-11zm0,53h11v7h-11zm0,30h11v105h-11zM212,0h10v98h-10zm0,158h10v23h-10zm0,38h10v105h-10zM222,0h11v90h-11zm0,158h11v8h-11zm0,30h11v113h-11zM233,0h10v90h-10zm0,105h10v8h-10zm0,61h10v22h-10zm0,30h10v105h-10zM243,0h11v105h-11zm0,158h11v143h-11zM254,0h10v98h-10zm0,151h10v150h-10zM264,0h11v90h-11zm0,128h11v7h-11zm0,30h11v143h-11zM275,0h11v83h-11zm0,120h11v8h-11zm0,38h11v143h-11zM286,0h10v83h-10zm0,113h10v15h-10zm0,30h10v8h-10zm0,15h10v143h-10zM296,0h11v83h-11zm0,105h11v196h-11zM307,0h10v301h-10zm10,0h11v301h-11zm11,0h10v301h-10zm10,0h11v301h-11zm11,0h11v301h-11zm11,0h10v301h-10zm10,0h11v301h-11zm11,0h10v301h-10zm10,0h11v301h-11zm11,0h10v301h-10zm10,0h11v301h-11z"></path><path fill="#1171d8" d="M106,211h10v7h-10zm10,-15h11v30h-11zm11,-15h10v37h-10zm10,-8h11v8h-11zm0,30h11v15h-11zm11,-75h11v7h-11zm0,38h11v7h-11zm0,37h11v8h-11zm11,-68h10v8h-10zm0,68h10v8h-10zm10,-7h11v7h-11zm11,-8h10v8h-10zM201,90h11v23h-11zm11,8h10v15h-10zm10,83h11v7h-11zm11,-68h10v7h-10zm0,75h10v8h-10zM254,98h10v7h-10zm0,30h10v7h-10zM264,90h11v8h-11zm0,53h11v15h-11zM275,83h11v15h-11zm0,30h11v7h-11zm0,30h11v15h-11zM286,83h10v30h-10zm0,68h10v7h-10zM296,83h11v22h-11z"></path><path fill="#1380d5" d="M137,181h11v22h-11zm11,-8h11v8h-11zm0,23h11v7h-11zm11,0h10v7h-10zm10,-61h11v8h-11zm0,23h11v8h-11zm0,30h11v8h-11zm11,-53h10v8h-10zm10,38h11v8h-11zm32,-7h11v15h-11zm21,-61h11v8h-11zm21,-7h11v7h-11zm0,22h11v8h-11zM275,98h11v15h-11z"></path><path fill="#0e8ed0" d="M148,181h11v15h-11zm11,-15h10v7h-10zm0,22h10v8h-10zm21,-7h10v7h-10zm74,-76h10v8h-10zm10,0h11v15h-11z"></path><path fill="#089dcc" d="M243,113h11v7h-11zm11,7h10v8h-10z"></path><path fill="#0da7c2" d="M159,173h10v15h-10zm10,8h11v7h-11zm21,-30h11v7h-11zm11,7h11v8h-11zm32,-38h10v8h-10zm10,8h11v7h-11zm11,-15h10v7h-10z"></path><path fill="#1dafb3" d="M169,166h11v7h-11zm11,-8h10v8h-10zm0,15h10v8h-10zm10,-7h11v7h-11zm11,-23h11v8h-11zm11,8h10v7h-10zm10,-23h11v7h-11zm11,7h10v8h-10z"></path><path fill="#2db7a3" d="M169,173h11v8h-11zm43,-38h10v8h-10zm10,8h11v8h-11zm21,-23h11v8h-11z"></path><path fill="#52ba91" d="M180,166h10v7h-10z"></path><path fill="#94be71" d="M190,158h11v8h-11zm43,-30h10v7h-10z"></path><path fill="#d0ba59" d="M201,151h11v7h-11z"></path><path fill="#fcd12b" d="M222,135h11v8h-11z"></path><path fill="#f9f90e" d="M212,143h10v8h-10z"></path></g></svg><g><g transform="translate(0,301)"><path d="M0,0h423M0,-8V0M11,-4V0M21,-4V0M32,-4V0M42,-8V0M53,-4V0M63,-4V0M74,-4V0M85,-8V0M95,-4V0M106,-4V0M116,-4V0M127,-8V0M137,-4V0M148,-4V0M159,-4V0M169,-8V0M180,-4V0M190,-4V0M201,-4V0M212,-8V0M222,-4V0M233,-4V0M243,-4V0M254,-8V0M264,-4V0M275,-4V0M286,-4V0M296,-8V0M307,-4V0M317,-4V0M328,-4V0M338,-8V0M349,-4V0M360,-4V0M370,-4V0M381,-8V0M391,-4V0M402,-4V0M412,-4V0M423,-8V0" style="stroke: #000000; stroke-width: 1;"></path><g font-family="Arial" font-size="15" space="preserve" font-weight="bold" fill="#000000" text-anchor="middle"><text dy=".8em" transform="translate(0,3)">-10</text><text dy=".8em" transform="translate(42,3)">-8</text><text dy=".8em" transform="translate(85,3)">-6</text><text dy=".8em" transform="translate(127,3)">-4</text><text dy=".8em" transform="translate(169,3)">-2</text><text dy=".8em" transform="translate(212,3)">0</text><text dy=".8em" transform="translate(254,3)">2</text><text dy=".8em" transform="translate(296,3)">4</text><text dy=".8em" transform="translate(338,3)">6</text><text dy=".8em" transform="translate(381,3)">8</text><text dy=".8em" transform="translate(423,3)">10</text></g><g font-family="Arial" font-size="15" space="preserve" font-weight="bold" transform="translate(423,30)"><text fill="#000000" text-anchor="end" dy=".4em">x variable</text></g></g><g><path d="M0,0v301M14,301H0M7,293H0M7,286H0M7,278H0M14,271H0M7,263H0M7,256H0M7,248H0M14,241H0M7,233H0M7,226H0M7,218H0M14,211H0M7,203H0M7,196H0M7,188H0M14,181H0M7,173H0M7,166H0M7,158H0M14,151H0M7,143H0M7,135H0M7,128H0M14,120H0M7,113H0M7,105H0M7,98H0M14,90H0M7,83H0M7,75H0M7,68H0M14,60H0M7,53H0M7,45H0M7,38H0M14,30H0M7,23H0M7,15H0M7,8H0M14,0H0" style="stroke: #000000; stroke-width: 1;"></path><g font-family="Arial" font-size="15" space="preserve" font-weight="bold" fill="#000000" text-anchor="end"><text dy=".4em" transform="translate(-3,301)">-10</text><text dy=".4em" transform="translate(-3,271)">-8</text><text dy=".4em" transform="translate(-3,241)">-6</text><text dy=".4em" transform="translate(-3,211)">-4</text><text dy=".4em" transform="translate(-3,181)">-2</text><text dy=".4em" transform="translate(-3,151)">0</text><text dy=".4em" transform="translate(-3,120)">2</text><text dy=".4em" transform="translate(-3,90)">4</text><text dy=".4em" transform="translate(-3,60)">6</text><text dy=".4em" transform="translate(-3,30)">8</text><text dy=".4em" transform="translate(-3)">10</text></g><g font-family="Arial" font-size="15" space="preserve" font-weight="bold" transform="translate(-46)"><text fill="#000000" text-anchor="end" dy=".4em" transform="rotate(270)">x variable</text></g></g></g></g><g transform="translate(-206,2)" font-family="Arial" font-size="20" space="preserve" font-weight="bold"><path d="M0,0H423V25H0Z" style="fill: #ffffff; stroke: #000000; stroke-width: 1;"></path><text fill="#000000" text-anchor="start" dy=".8em" transform="translate(21)">TSVDUnfold covariance matrix</text></g><g transform="translate(482,38)"><path d="M0,0H23V301H0Z" style="fill: none; stroke: #000000; stroke-width: 1;"></path><path d="M0,286H23V301H0Z" style="fill: #1652cc;"></path><path d="M0,271H23V287H0Z" style="fill: #1652cc;"></path><path d="M0,256H23V272H0Z" style="fill: #1063db;"></path><path d="M0,241H23V257H0Z" style="fill: #1171d8;"></path><path d="M0,226H23V242H0Z" style="fill: #1380d5;"></path><path d="M0,211H23V227H0Z" style="fill: #0e8ed0;"></path><path d="M0,196H23V212H0Z" style="fill: #089dcc;"></path><path d="M0,181H23V197H0Z" style="fill: #0da7c2;"></path><path d="M0,166H23V182H0Z" style="fill: #1dafb3;"></path><path d="M0,151H23V167H0Z" style="fill: #2db7a3;"></path><path d="M0,135H23V152H0Z" style="fill: #52ba91;"></path><path d="M0,120H23V136H0Z" style="fill: #73bd80;"></path><path d="M0,105H23V121H0Z" style="fill: #94be71;"></path><path d="M0,90H23V106H0Z" style="fill: #b2bc65;"></path><path d="M0,75H23V91H0Z" style="fill: #d0ba59;"></path><path d="M0,60H23V76H0Z" style="fill: #e1bf4a;"></path><path d="M0,45H23V61H0Z" style="fill: #f4c53a;"></path><path d="M0,30H23V46H0Z" style="fill: #fcd12b;"></path><path d="M0,15H23V31H0Z" style="fill: #fae61c;"></path><path d="M0,0H23V16H0Z" style="fill: #f9f90e;"></path><g transform="translate(23)"><path d="M0,0v301M0,264H-14M0,219H-14M0,175H-14M0,130H-14M0,86H-14M0,42H-14" style="stroke: #000000; stroke-width: 1;"></path><g font-family="Arial" font-size="15" space="preserve" font-weight="bold" fill="#000000" text-anchor="start"><text dy=".4em" transform="translate(3,264)">0</text><text dy=".4em" transform="translate(3,219)">200</text><text dy=".4em" transform="translate(3,175)">400</text><text dy=".4em" transform="translate(3,130)">600</text><text dy=".4em" transform="translate(3,86)">800</text><text dy=".4em" transform="translate(3,42)">1000</text></g></g></g></g></svg><svg viewBox="0 0 564 376" preserveAspectRatio="none" x="612" y="412" width="564" height="376"><path d="M0,0H564V376H0Z" style="fill: #ffffff;"></path><g><g transform="translate(56,38)"><path d="M0,0H451V301H0Z" style="fill: #ffffff; stroke: #000000; stroke-width: 1;"></path><svg x="0" y="0" overflow="hidden" width="451" height="301" viewBox="0 0 451 301"><g><path d="M0,16h11v24h12v-5h11v81h11v-57h11v-10h12v24h11v-13h11v24h11v38h23v-13h11v35h12v88h11v-98h11v9h11v-27h12v21h11v2h11v11h12v-44h11v10h11v-10h11v62h12v-67h11v65h11v-55h11v35h12v-25h11v21h11v-32h12v196h101" style="stroke-linejoin: miter; stroke: #000000; stroke-width: 1; fill: none;"></path></g><g><path d="M0,16h11v24h12v-5h11v81h11v-57h11v-10h12v24h11v-13h11v24h11v38h23v-13h11v35h12v88h11v-98h11v9h11v-27h12v21h11v2h11v11h12v-44h11v10h11v-10h11v62h12v-67h11v65h11v-55h11v35h12v-25h11v21h11v-32h12v196h101" style="stroke-linejoin: miter; stroke: #000000; stroke-width: 2; fill: none;"></path></g></svg><g><g transform="translate(0,301)"><path d="M0,0h451M0,-9V0M11,-5V0M23,-5V0M34,-5V0M45,-5V0M56,-9V0M68,-5V0M79,-5V0M90,-5V0M101,-5V0M113,-9V0M124,-5V0M135,-5V0M147,-5V0M158,-5V0M169,-9V0M180,-5V0M192,-5V0M203,-5V0M214,-5V0M226,-9V0M237,-5V0M248,-5V0M259,-5V0M271,-5V0M282,-9V0M293,-5V0M304,-5V0M316,-5V0M327,-5V0M338,-9V0M350,-5V0M361,-5V0M372,-5V0M383,-5V0M395,-9V0M406,-5V0M417,-5V0M428,-5V0M440,-5V0M451,-9V0" style="stroke: #000000; stroke-width: 1;"></path><g font-family="Arial" font-size="15" space="preserve" font-weight="bold" fill="#000000" text-anchor="middle"><text dy=".8em" transform="translate(0,3)">0</text><text dy=".8em" transform="translate(56,3)">5</text><text dy=".8em" transform="translate(113,3)">10</text><text dy=".8em" transform="translate(169,3)">15</text><text dy=".8em" transform="translate(226,3)">20</text><text dy=".8em" transform="translate(282,3)">25</text><text dy=".8em" transform="translate(338,3)">30</text><text dy=".8em" transform="translate(395,3)">35</text><text dy=".8em" transform="translate(451,3)">40</text></g><g font-family="Arial" font-size="15" space="preserve" font-weight="bold" transform="translate(451,30)"><text fill="#000000" text-anchor="end" dy=".4em">i</text></g></g><g><path d="M0,0v301M14,301H0M7,283H0M7,273H0M7,265H0M7,260H0M7,255H0M7,251H0M7,248H0M7,245H0M14,242H0M7,224H0M7,214H0M7,206H0M7,200H0M7,196H0M7,192H0M7,188H0M7,185H0M14,183H0M7,165H0M7,154H0M7,147H0M7,141H0M7,137H0M7,133H0M7,129H0M7,126H0M14,123H0M7,106H0M7,95H0M7,88H0M7,82H0M7,77H0M7,73H0M7,70H0M7,67H0M14,64H0M7,46H0M7,36H0M7,29H0M7,23H0M7,18H0M7,14H0M7,11H0M7,8H0M14,5H0" style="stroke: #000000; stroke-width: 1;"></path><g font-family="Arial" font-size="15" space="preserve" font-weight="bold"><g transform="translate(-28,308)"><text fill="#000000" font-size="15">10</text><text fill="#000000" font-size="9" transform="translate(17,-8)">-3</text></g><g transform="translate(-28,249)"><text fill="#000000" font-size="15">10</text><text fill="#000000" font-size="9" transform="translate(17,-8)">-2</text></g><g transform="translate(-28,190)"><text fill="#000000" font-size="15">10</text><text fill="#000000" font-size="9" transform="translate(17,-8)">-1</text></g><text fill="#000000" text-anchor="end" dy=".4em" transform="translate(-3,123)">1</text><text fill="#000000" text-anchor="end" dy=".4em" transform="translate(-3,64)">10</text><g transform="translate(-25,12)"><text fill="#000000" font-size="15">10</text><text fill="#000000" font-size="9" transform="translate(17,-8)">2</text></g></g><g font-family="Arial" font-size="15" space="preserve" font-weight="bold" transform="translate(-46)"><g transform="rotate(270) translate(-20,5)"><text fill="#000000" font-size="15">|d</text><text fill="#000000" font-size="9" transform="translate(13,3)">i</text><text fill="#000000" font-size="15" x="16">|</text></g></g></g></g></g><g transform="translate(-220,2)" font-family="Arial" font-size="19" space="preserve" font-weight="bold"><path d="M0,0H451V25H0Z" style="fill: #ffffff; stroke: #000000; stroke-width: 1;"></path><g transform="translate(23,19) scale(0.920)"><text fill="#000000" font-size="21">TSVDUnfold |d</text><text fill="#000000" font-size="13" transform="translate(147,4)">i</text><text fill="#000000" font-size="21" x="150">|</text></g></g><g><path d="M56,161H507" style="stroke: #000000; stroke-width: 1; stroke-dasharray: 3,3;"></path></g></g></svg></g></svg>