<svg xmlns="http://www.w3.org/2000/svg" viewBox="0 0 1200 800" preserveAspectRatio="none" width="1200" height="800"><path d="M0,0H1200V800H0Z" style="fill: #ffffff;"></path><g><svg viewBox="0 0 576 384" preserveAspectRatio="none" x="12" y="8" width="576" height="384"><path d="M0,0H576V384H0Z" style="fill: #ffffff;"></path><g><g transform="translate(58,38)"><path d="M0,0H461V307H0Z" style="fill: #ffffff; stroke: #000000; stroke-width: 1;"></path><svg x="0" y="0" overflow="hidden" width="461" height="307" viewBox="0 0 461 307"><g><path d="M28.7,303.0v4.0h4.0v-4.0zM59.5,296.8v4.0h4.0v-4.0zM90.2,286.6v4.0h4.0v-4.0zM120.9,272.3v4.0h4.0v-4.0zM151.7,253.8v4.0h4.0v-4.0zM182.4,253.8v4.0h4.0v-4.0zM182.4,231.3v4.0h4.0v-4.0zM182.4,204.7v4.0h4.0v-4.0zM243.9,174.0v4.0h4.0v-4.0zM274.6,139.2v4.0h4.0v-4.0zM305.3,100.3v4.0h4.0v-4.0z" style="stroke: #0000ff; fill: #0000ff;"></path></g><g><path d="M27.9,302.2l5.6,5.6m0,-5.6l-5.6,5.6M58.7,296.0l5.6,5.6m0,-5.6l-5.6,5.6M89.4,285.8l5.6,5.6m0,-5.6l-5.6,5.6M120.1,271.5l5.6,5.6m0,-5.6l-5.6,5.6M150.9,253.0l5.6,5.6m0,-5.6l-5.6,5.6M181.6,229.2l5.6,5.6m0,-5.6l-5.6,5.6M243.1,173.2l5.6,5.6m0,-5.6l-5.6,5.6M273.8,138.4l5.6,5.6m0,-5.6l-5.6,5.6M304.5,99.5l5.6,5.6m0,-5.6l-5.6,5.6" style="stroke: #ff0000; fill: none;"></path></g><g><path d="M31,305l5,-1l6,-1l6,-1l5,-2l6,-1l6,-1l5,-2l6,-2l6,-2l5,-2l6,-2l5,-2l6,-3l6,-3l5,-2l6,-3l6,-3l5,-3l6,-4l6,-3l5,-4l6,-3l6,-5l5,-4l6,-4l6,-5l5,-4l6,-5l5,-5l6,-5l6,-5l5,-6l6,-5l6,-5l5,-5l6,-5l6,-5l5,-5l6,-7l6,-6l5,-6l6,-7l5,-6l6,-7l6,-7l5,-7l6,-7l6,-8l5,-7" style="stroke: #000000; stroke-width: 1; fill: none;"></path><path d="M31,305h1m4,-1h1m5,-1h1m5,-1h1m4,-2h1m5,-1h1m5,-1h1m4,-2h1m5,-2h1m5,-2h1m4,-2h1m5,-2h1m4,-2h1m5,-3h1m5,-3h1m4,-2h1m5,-3h1m5,-3h1m4,-3h1m5,-4h1m5,-3h1m4,-4h1m5,-3h1m5,-5h1m4,-4h1m5,-4h1m5,-5h1m4,-4h1m5,-5h1m4,-5h1m5,-5h1m5,-5h1m4,-6h1m5,-5h1m5,-5h1m4,-5h1m5,-5h1m5,-5h1m4,-5h1m5,-7h1m5,-6h1m4,-6h1m5,-7h1m4,-6h1m5,-7h1m5,-7h1m4,-7h1m5,-7h1m5,-8h1m4,-7h1" style="stroke: #000000; fill: none;"></path></g></svg><g><g transform="translate(0,307)"><path d="M0,0h461M0,-9V0M15,-5V0M31,-5V0M46,-5V0M61,-9V0M77,-5V0M92,-5V0M108,-5V0M123,-9V0M138,-5V0M154,-5V0M169,-5V0M184,-9V0M200,-5V0M215,-5V0M231,-5V0M246,-9V0M261,-5V0M277,-5V0M292,-5V0M307,-9V0M323,-5V0M338,-5V0M353,-5V0M369,-9V0M384,-5V0M400,-5V0M415,-5V0M430,-9V0M446,-5V0M461,-5V0" style="stroke: #000000; stroke-width: 1;"></path><g font-family="Arial" font-size="13" space="preserve" fill="#000000" text-anchor="middle"><text dy=".8em" transform="translate(0,3)">0</text><text dy=".8em" transform="translate(61,3)">2</text><text dy=".8em" transform="translate(123,3)">4</text><text dy=".8em" transform="translate(184,3)">6</text><text dy=".8em" transform="translate(246,3)">8</text><text dy=".8em" transform="translate(307,3)">10</text><text dy=".8em" transform="translate(369,3)">12</text><text dy=".8em" transform="translate(430,3)">14</text></g><g font-family="Arial" font-size="77" space="preserve" transform="translate(461,123)"><text fill="#000000" text-anchor="end" dy=".4em">X-axis</text></g></g><g><path d="M0,0v307M14,307H0M7,297H0M7,287H0M7,276H0M14,266H0M7,256H0M7,246H0M7,235H0M14,225H0M7,215H0M7,205H0M7,194H0M14,184H0M7,174H0M7,164H0M7,154H0M14,143H0M7,133H0M7,123H0M7,113H0M14,102H0M7,92H0M7,82H0M7,72H0M14,61H0M7,51H0M7,41H0M7,31H0M14,20H0M7,10H0M7,0H0" style="stroke: #000000; stroke-width: 1;"></path><g font-family="Arial" font-size="13" space="preserve" fill="#000000" text-anchor="end"><text dy=".4em" transform="translate(-3,307)">0</text><text dy=".4em" transform="translate(-3,266)">20</text><text dy=".4em" transform="translate(-3,225)">40</text><text dy=".4em" transform="translate(-3,184)">60</text><text dy=".4em" transform="translate(-3,143)">80</text><text dy=".4em" transform="translate(-3,102)">100</text><text dy=".4em" transform="translate(-3,61)">120</text><text dy=".4em" transform="translate(-3,20)">140</text></g><g font-family="Arial" font-size="13" space="preserve" transform="translate(-36)"><text fill="#000000" text-anchor="end" dy=".4em" transform="rotate(270)">Y-axis</text></g></g></g></g><g transform="translate(143,2)" font-family="Arial" font-size="20" space="preserve"><text fill="#000000" text-anchor="middle" dy=".4em" transform="translate(146,12)">Approx: ties = mean</text></g></g></svg><svg viewBox="0 0 576 384" preserveAspectRatio="none" x="612" y="8" width="576" height="384"><path d="M0,0H576V384H0Z" style="fill: #ffffff;"></path><g><g transform="translate(58,38)"><path d="M0,0H461V307H0Z" style="fill: #ffffff; stroke: #000000; stroke-width: 1;"></path><svg x="0" y="0" overflow="hidden" width="461" height="307" viewBox="0 0 461 307"><g><path d="M28.7,303.0v4.0h4.0v-4.0zM59.5,296.8v4.0h4.0v-4.0zM90.2,286.6v4.0h4.0v-4.0zM120.9,272.3v4.0h4.0v-4.0zM151.7,253.8v4.0h4.0v-4.0zM182.4,253.8v4.0h4.0v-4.0zM182.4,231.3v4.0h4.0v-4.0zM182.4,204.7v4.0h4.0v-4.0zM243.9,174.0v4.0h4.0v-4.0zM274.6,139.2v4.0h4.0v-4.0zM305.3,100.3v4.0h4.0v-4.0z" style="stroke: #0000ff; fill: #0000ff;"></path></g><g><path d="M27.9,302.2l5.6,5.6m0,-5.6l-5.6,5.6M58.7,296.0l5.6,5.6m0,-5.6l-5.6,5.6M89.4,285.8l5.6,5.6m0,-5.6l-5.6,5.6M120.1,271.5l5.6,5.6m0,-5.6l-5.6,5.6M150.9,253.0l5.6,5.6m0,-5.6l-5.6,5.6M181.6,229.2l5.6,5.6m0,-5.6l-5.6,5.6M243.1,173.2l5.6,5.6m0,-5.6l-5.6,5.6M273.8,138.4l5.6,5.6m0,-5.6l-5.6,5.6M304.5,99.5l5.6,5.6m0,-5.6l-5.6,5.6" style="stroke: #ff0000; fill: none;"></path></g><g><path d="M37,304l15,-3l25,-7l21,-8l37,-19l25,-16l15,-12l25,-21l34,-31l21,-21l43,-52l22,-73h80" style="stroke: #000000; stroke-width: 1; fill: none;"></path><path d="M37,304h1m14,-3h1m24,-7h1m20,-8h1m36,-19h1m24,-16h1m14,-12h1m24,-21h1m33,-31h1m20,-21h1m42,-52h1M320,41h1m26,0h1m52,0h1" style="stroke: #000000; fill: none;"></path></g></svg><g><g transform="translate(0,307)"><path d="M0,0h461M0,-9V0M15,-5V0M31,-5V0M46,-5V0M61,-9V0M77,-5V0M92,-5V0M108,-5V0M123,-9V0M138,-5V0M154,-5V0M169,-5V0M184,-9V0M200,-5V0M215,-5V0M231,-5V0M246,-9V0M261,-5V0M277,-5V0M292,-5V0M307,-9V0M323,-5V0M338,-5V0M353,-5V0M369,-9V0M384,-5V0M400,-5V0M415,-5V0M430,-9V0M446,-5V0M461,-5V0" style="stroke: #000000; stroke-width: 1;"></path><g font-family="Arial" font-size="13" space="preserve" fill="#000000" text-anchor="middle"><text dy=".8em" transform="translate(0,3)">0</text><text dy=".8em" transform="translate(61,3)">2</text><text dy=".8em" transform="translate(123,3)">4</text><text dy=".8em" transform="translate(184,3)">6</text><text dy=".8em" transform="translate(246,3)">8</text><text dy=".8em" transform="translate(307,3)">10</text><text dy=".8em" transform="translate(369,3)">12</text><text dy=".8em" transform="translate(430,3)">14</text></g></g><g><path d="M0,0v307M14,307H0M7,297H0M7,287H0M7,276H0M14,266H0M7,256H0M7,246H0M7,235H0M14,225H0M7,215H0M7,205H0M7,194H0M14,184H0M7,174H0M7,164H0M7,154H0M14,143H0M7,133H0M7,123H0M7,113H0M14,102H0M7,92H0M7,82H0M7,72H0M14,61H0M7,51H0M7,41H0M7,31H0M14,20H0M7,10H0M7,0H0" style="stroke: #000000; stroke-width: 1;"></path><g font-family="Arial" font-size="13" space="preserve" fill="#000000" text-anchor="end"><text dy=".4em" transform="translate(-3,307)">0</text><text dy=".4em" transform="translate(-3,266)">20</text><text dy=".4em" transform="translate(-3,225)">40</text><text dy=".4em" transform="translate(-3,184)">60</text><text dy=".4em" transform="translate(-3,143)">80</text><text dy=".4em" transform="translate(-3,102)">100</text><text dy=".4em" transform="translate(-3,61)">120</text><text dy=".4em" transform="translate(-3,20)">140</text></g></g></g></g><g transform="translate(143,2)" font-family="Arial" font-size="20" space="preserve"><text fill="#000000" text-anchor="middle" dy=".4em" transform="translate(146,12)">Approx: ties = mean</text></g></g></svg><svg viewBox="0 0 576 384" preserveAspectRatio="none" x="12" y="408" width="576" height="384"><path d="M0,0H576V384H0Z" style="fill: #ffffff;"></path><g><g transform="translate(58,38)"><path d="M0,0H461V307H0Z" style="fill: #ffffff; stroke: #000000; stroke-width: 1;"></path><svg x="0" y="0" overflow="hidden" width="461" height="307" viewBox="0 0 461 307"><g><path d="M28.7,303.0v4.0h4.0v-4.0zM59.5,296.8v4.0h4.0v-4.0zM90.2,286.6v4.0h4.0v-4.0zM120.9,272.3v4.0h4.0v-4.0zM151.7,253.8v4.0h4.0v-4.0zM182.4,253.8v4.0h4.0v-4.0zM182.4,231.3v4.0h4.0v-4.0zM182.4,204.7v4.0h4.0v-4.0zM243.9,174.0v4.0h4.0v-4.0zM274.6,139.2v4.0h4.0v-4.0zM305.3,100.3v4.0h4.0v-4.0z" style="stroke: #0000ff; fill: #0000ff;"></path></g><g><path d="M27.9,302.2l5.6,5.6m0,-5.6l-5.6,5.6M58.7,296.0l5.6,5.6m0,-5.6l-5.6,5.6M89.4,285.8l5.6,5.6m0,-5.6l-5.6,5.6M120.1,271.5l5.6,5.6m0,-5.6l-5.6,5.6M150.9,253.0l5.6,5.6m0,-5.6l-5.6,5.6M181.6,253.0l5.6,5.6m0,-5.6l-5.6,5.6M243.1,173.2l5.6,5.6m0,-5.6l-5.6,5.6M273.8,138.4l5.6,5.6m0,-5.6l-5.6,5.6M304.5,99.5l5.6,5.6m0,-5.6l-5.6,5.6" style="stroke: #ff0000; fill: none;"></path></g><g><path d="M31,305l5,-3h23l6,-8h22l6,-13h28l6,-16h22l6,-9h28l6,-40h56l6,-57h22l6,-37h23l5,-20" style="stroke: #000000; stroke-width: 1; fill: none;"></path><path d="M31,305h1m4,-3h1m5,0h1m5,0h1m4,0h1m5,0h1m5,-8h1m4,0h1m5,0h1m5,0h1m4,0h1m5,-13h1m4,0h1m5,0h1m5,0h1m4,0h1m5,0h1m5,-16h1m4,0h1m5,0h1m5,0h1m4,0h1m5,-9h1m5,0h1m4,0h1m5,0h1m5,0h1m4,0h1m5,-40h1m4,0h1m5,0h1m5,0h1m4,0h1m5,0h1m5,0h1m4,0h1m5,0h1m5,0h1m4,0h1m5,-57h1m5,0h1m4,0h1m5,0h1m4,0h1m5,-37h1m5,0h1m4,0h1m5,0h1m5,0h1m4,-20h1" style="stroke: #000000; fill: none;"></path></g></svg><g><g transform="translate(0,307)"><path d="M0,0h461M0,-9V0M15,-5V0M31,-5V0M46,-5V0M61,-9V0M77,-5V0M92,-5V0M108,-5V0M123,-9V0M138,-5V0M154,-5V0M169,-5V0M184,-9V0M200,-5V0M215,-5V0M231,-5V0M246,-9V0M261,-5V0M277,-5V0M292,-5V0M307,-9V0M323,-5V0M338,-5V0M353,-5V0M369,-9V0M384,-5V0M400,-5V0M415,-5V0M430,-9V0M446,-5V0M461,-5V0" style="stroke: #000000; stroke-width: 1;"></path><g font-family="Arial" font-size="13" space="preserve" fill="#000000" text-anchor="middle"><text dy=".8em" transform="translate(0,3)">0</text><text dy=".8em" transform="translate(61,3)">2</text><text dy=".8em" transform="translate(123,3)">4</text><text dy=".8em" transform="translate(184,3)">6</text><text dy=".8em" transform="translate(246,3)">8</text><text dy=".8em" transform="translate(307,3)">10</text><text dy=".8em" transform="translate(369,3)">12</text><text dy=".8em" transform="translate(430,3)">14</text></g></g><g><path d="M0,0v307M14,307H0M7,297H0M7,287H0M7,276H0M14,266H0M7,256H0M7,246H0M7,235H0M14,225H0M7,215H0M7,205H0M7,194H0M14,184H0M7,174H0M7,164H0M7,154H0M14,143H0M7,133H0M7,123H0M7,113H0M14,102H0M7,92H0M7,82H0M7,72H0M14,61H0M7,51H0M7,41H0M7,31H0M14,20H0M7,10H0M7,0H0" style="stroke: #000000; stroke-width: 1;"></path><g font-family="Arial" font-size="13" space="preserve" fill="#000000" text-anchor="end"><text dy=".4em" transform="translate(-3,307)">0</text><text dy=".4em" transform="translate(-3,266)">20</text><text dy=".4em" transform="translate(-3,225)">40</text><text dy=".4em" transform="translate(-3,184)">60</text><text dy=".4em" transform="translate(-3,143)">80</text><text dy=".4em" transform="translate(-3,102)">100</text><text dy=".4em" transform="translate(-3,61)">120</text><text dy=".4em" transform="translate(-3,20)">140</text></g></g></g></g><g transform="translate(155,2)" font-family="Arial" font-size="20" space="preserve"><text fill="#000000" text-anchor="middle" dy=".4em" transform="translate(134,12)">Approx: ties = min</text></g></g></svg><svg viewBox="0 0 576 384" preserveAspectRatio="none" x="612" y="408" width="576" height="384"><path d="M0,0H576V384H0Z" style="fill: #ffffff;"></path><g><g transform="translate(58,38)"><path d="M0,0H461V307H0Z" style="fill: #ffffff; stroke: #000000; stroke-width: 1;"></path><svg x="0" y="0" overflow="hidden" width="461" height="307" viewBox="0 0 461 307"><g><path d="M28.7,303.0v4.0h4.0v-4.0zM59.5,296.8v4.0h4.0v-4.0zM90.2,286.6v4.0h4.0v-4.0zM120.9,272.3v4.0h4.0v-4.0zM151.7,253.8v4.0h4.0v-4.0zM182.4,253.8v4.0h4.0v-4.0zM182.4,231.3v4.0h4.0v-4.0zM182.4,204.7v4.0h4.0v-4.0zM243.9,174.0v4.0h4.0v-4.0zM274.6,139.2v4.0h4.0v-4.0zM305.3,100.3v4.0h4.0v-4.0z" style="stroke: #0000ff; fill: #0000ff;"></path></g><g><path d="M27.9,302.2l5.6,5.6m0,-5.6l-5.6,5.6M58.7,296.0l5.6,5.6m0,-5.6l-5.6,5.6M89.4,285.8l5.6,5.6m0,-5.6l-5.6,5.6M120.1,271.5l5.6,5.6m0,-5.6l-5.6,5.6M150.9,253.0l5.6,5.6m0,-5.6l-5.6,5.6M181.6,203.9l5.6,5.6m0,-5.6l-5.6,5.6M243.1,173.2l5.6,5.6m0,-5.6l-5.6,5.6M273.8,138.4l5.6,5.6m0,-5.6l-5.6,5.6M304.5,99.5l5.6,5.6m0,-5.6l-5.6,5.6" style="stroke: #ff0000; fill: none;"></path></g><g><path d="M37,304l15,-3l25,-7l21,-8l37,-19l25,-21l15,-25l25,-22l34,-17l21,-16l43,-52l22,-12h80" style="stroke: #000000; stroke-width: 1; fill: none;"></path><path d="M37,304h1m14,-3h1m24,-7h1m20,-8h1m36,-19h1m24,-21h1m14,-25h1m24,-22h1m33,-17h1m20,-16h1m42,-52h1m21,-12h1m26,0h1m52,0h1" style="stroke: #000000; fill: none;"></path></g></svg><g><g transform="translate(0,307)"><path d="M0,0h461M0,-9V0M15,-5V0M31,-5V0M46,-5V0M61,-9V0M77,-5V0M92,-5V0M108,-5V0M123,-9V0M138,-5V0M154,-5V0M169,-5V0M184,-9V0M200,-5V0M215,-5V0M231,-5V0M246,-9V0M261,-5V0M277,-5V0M292,-5V0M307,-9V0M323,-5V0M338,-5V0M353,-5V0M369,-9V0M384,-5V0M400,-5V0M415,-5V0M430,-9V0M446,-5V0M461,-5V0" style="stroke: #000000; stroke-width: 1;"></path><g font-family="Arial" font-size="13" space="preserve" fill="#000000" text-anchor="middle"><text dy=".8em" transform="translate(0,3)">0</text><text dy=".8em" transform="translate(61,3)">2</text><text dy=".8em" transform="translate(123,3)">4</text><text dy=".8em" transform="translate(184,3)">6</text><text dy=".8em" transform="translate(246,3)">8</text><text dy=".8em" transform="translate(307,3)">10</text><text dy=".8em" transform="translate(369,3)">12</text><text dy=".8em" transform="translate(430,3)">14</text></g></g><g><path d="M0,0v307M14,307H0M7,297H0M7,287H0M7,276H0M14,266H0M7,256H0M7,246H0M7,235H0M14,225H0M7,215H0M7,205H0M7,194H0M14,184H0M7,174H0M7,164H0M7,154H0M14,143H0M7,133H0M7,123H0M7,113H0M14,102H0M7,92H0M7,82H0M7,72H0M14,61H0M7,51H0M7,41H0M7,31H0M14,20H0M7,10H0M7,0H0" style="stroke: #000000; stroke-width: 1;"></path><g font-family="Arial" font-size="13" space="preserve" fill="#000000" text-anchor="end"><text dy=".4em" transform="translate(-3,307)">0</text><text dy=".4em" transform="translate(-3,266)">20</text><text dy=".4em" transform="translate(-3,225)">40</text><text dy=".4em" transform="translate(-3,184)">60</text><text dy=".4em" transform="translate(-3,143)">80</text><text dy=".4em" transform="translate(-3,102)">100</text><text dy=".4em" transform="translate(-3,61)">120</text><text dy=".4em" transform="translate(-3,20)">140</text></g></g></g></g><g transform="translate(58,2)" font-family="Arial" font-size="19" space="preserve"><text fill="#000000" text-anchor="middle" dy=".8em" transform="translate(231)">Approx: ties = max</text></g></g></svg></g></svg>