<svg xmlns="http://www.w3.org/2000/svg" viewBox="0 0 1200 800" preserveAspectRatio="none" width="1200" height="800"><path d="M0,0H1200V800H0Z" style="fill: #ffffff;"></path><g><g transform="translate(4800,-19600)" font-family="Arial" font-size="1000" space="preserve" font-weight="bold"><path d="M14400,3h3v1200h-14400v-3h14397z" style="fill: #000000; stroke: #000000; stroke-width: 1px;"></path><path d="M0,0H14400V1200H0Z" style="fill: #ce5e60; stroke: #000000; stroke-width: 1;"></path><text fill="#000000" text-anchor="middle" dy=".4em" transform="translate(7200,600)">Analyze.mac</text></g><g transform="translate(600,-17600)" font-family="Arial" font-size="619" space="preserve" font-weight="bold" fill="#000000" text-anchor="middle"><path d="M16,-16h4800v3200h-4800z" style="fill: #7f7f9b; stroke: #000000; stroke-width: 1;"></path><path d="M12,-12h4800v3200h-4800z" style="fill: #7f7f9b; stroke: #000000; stroke-width: 1;"></path><path d="M8,-8h4800v3200h-4800z" style="fill: #7f7f9b; stroke: #000000; stroke-width: 1;"></path><path d="M4,-4h4800v3200h-4800z" style="fill: #7f7f9b; stroke: #000000; stroke-width: 1;"></path><path d="M0,0H4800V3200H0Z" style="fill: #7f7f9b; stroke: #000000; stroke-width: 1;"></path><text dy=".4em" transform="translate(2400,1200)">Dynamically</text><text dy=".4em" transform="translate(2400,2000)">Linked</text><text dy=".4em" transform="translate(2400,2800)">Libraries</text></g><g transform="translate(1800,-17840)" font-family="Arial" font-size="466" space="preserve" font-weight="bold"><path d="M2400,3h3v560h-2400v-3h2397z" style="fill: #000000; stroke: #000000; stroke-width: 1px;"></path><path d="M0,0H2400V560H0Z" style="fill: #876656; stroke: #000000; stroke-width: 1;"></path><text fill="#000000" text-anchor="middle" dy=".4em" transform="translate(1200,280)">DLLs</text></g><g transform="translate(6600,-17600)" font-family="Arial" font-size="666" space="preserve" font-weight="bold" fill="#000000" text-anchor="middle"><path d="M16,-16h4800v3200h-4800z" style="fill: #f2f2f2; stroke: #000000; stroke-width: 1;"></path><path d="M12,-12h4800v3200h-4800z" style="fill: #f2f2f2; stroke: #000000; stroke-width: 1;"></path><path d="M8,-8h4800v3200h-4800z" style="fill: #f2f2f2; stroke: #000000; stroke-width: 1;"></path><path d="M4,-4h4800v3200h-4800z" style="fill: #f2f2f2; stroke: #000000; stroke-width: 1;"></path><path d="M0,0H4800V3200H0Z" style="fill: #f2f2f2; stroke: #000000; stroke-width: 1;"></path><text dy=".4em" transform="translate(2400,1200)">Commented</text><text dy=".4em" transform="translate(2400,2000)">Header</text><text dy=".4em" transform="translate(2400,2800)">Files</text></g><g transform="translate(7800,-17840)" font-family="Arial" font-size="466" space="preserve" font-weight="bold"><path d="M2400,3h3v560h-2400v-3h2397z" style="fill: #000000; stroke: #000000; stroke-width: 1px;"></path><path d="M0,0H2400V560H0Z" style="fill: #876656; stroke: #000000; stroke-width: 1;"></path><text fill="#000000" text-anchor="middle" dy=".4em" transform="translate(1200,280)">C++</text></g><g transform="translate(12600,-17600)" font-family="Arial" font-size="619" space="preserve" font-weight="bold" fill="#000000" text-anchor="middle"><path d="M16,-16h4800v3200h-4800z" style="fill: #f2f2f2; stroke: #000000; stroke-width: 1;"></path><path d="M12,-12h4800v3200h-4800z" style="fill: #f2f2f2; stroke: #000000; stroke-width: 1;"></path><path d="M8,-8h4800v3200h-4800z" style="fill: #f2f2f2; stroke: #000000; stroke-width: 1;"></path><path d="M4,-4h4800v3200h-4800z" style="fill: #f2f2f2; stroke: #000000; stroke-width: 1;"></path><path d="M0,0H4800V3200H0Z" style="fill: #f2f2f2; stroke: #000000; stroke-width: 1;"></path><text dy=".4em" transform="translate(2400,1200)">Objects</text><text dy=".4em" transform="translate(2400,2000)">Description</text><text dy=".4em" transform="translate(2400,2800)">Files</text></g><g transform="translate(13800,-17840)" font-family="Arial" font-size="466" space="preserve" font-weight="bold"><path d="M2400,3h3v560h-2400v-3h2397z" style="fill: #000000; stroke: #000000; stroke-width: 1px;"></path><path d="M0,0H2400V560H0Z" style="fill: #876656; stroke: #000000; stroke-width: 1;"></path><text fill="#000000" text-anchor="middle" dy=".4em" transform="translate(1200,280)">ODL</text></g><g transform="translate(18600,-17600)" font-family="Arial" font-size="666" space="preserve" font-weight="bold" fill="#000000" text-anchor="middle"><path d="M16,-16h4800v3200h-4800z" style="fill: #f2f2f2; stroke: #000000; stroke-width: 1;"></path><path d="M12,-12h4800v3200h-4800z" style="fill: #f2f2f2; stroke: #000000; stroke-width: 1;"></path><path d="M8,-8h4800v3200h-4800z" style="fill: #f2f2f2; stroke: #000000; stroke-width: 1;"></path><path d="M4,-4h4800v3200h-4800z" style="fill: #f2f2f2; stroke: #000000; stroke-width: 1;"></path><path d="M0,0H4800V3200H0Z" style="fill: #f2f2f2; stroke: #000000; stroke-width: 1;"></path><text dy=".4em" transform="translate(2400,1200)">Interface</text><text dy=".4em" transform="translate(2400,2000)">Definition</text><text dy=".4em" transform="translate(2400,2800)">Language</text></g><g transform="translate(19800,-17840)" font-family="Arial" font-size="466" space="preserve" font-weight="bold"><path d="M2400,3h3v560h-2400v-3h2397z" style="fill: #000000; stroke: #000000; stroke-width: 1px;"></path><path d="M0,0H2400V560H0Z" style="fill: #876656; stroke: #000000; stroke-width: 1;"></path><text fill="#000000" text-anchor="middle" dy=".4em" transform="translate(1200,280)">IDL</text></g><g><path d="M9360,-12800h6480v5600h-6480z" style="fill: #c0b6ac;"></path><path d="M9360,-12800h6480l-12,12h-6456v5576l-12,12z" style="fill: #e5dace;"></path><path d="M15840,-7200v-5600l-12,12v5576h-6456l-12,12z" style="fill: #a19890;"></path></g><g font-family="Arial" font-size="24" space="preserve" font-weight="bold"><text fill="#000000" text-anchor="middle" transform="translate(12600,-11840)">Process 1</text></g><g transform="translate(10560,-11680)" font-family="Arial" font-size="579" space="preserve" font-weight="bold" fill="#000000" text-anchor="middle"><path d="M4080,4h4v1440h-4080v-4h4076z" style="fill: #000000; stroke: #000000; stroke-width: 1px;"></path><path d="M0,0H4080V1440H0Z" style="fill: #f2f2f2; stroke: #000000; stroke-width: 1;"></path><text dy=".4em" transform="translate(2040,360)">Dictionary</text><text dy=".4em" transform="translate(2040,1080)">in memory</text></g><g transform="translate(10320,-9600)" font-family="Arial" font-size="662" space="preserve" font-weight="bold" fill="#000000" text-anchor="middle"><path d="M16,-16h4200v1920h-4200z" style="fill: #f2f2f2; stroke: #000000; stroke-width: 1;"></path><path d="M12,-12h4200v1920h-4200z" style="fill: #f2f2f2; stroke: #000000; stroke-width: 1;"></path><path d="M8,-8h4200v1920h-4200z" style="fill: #f2f2f2; stroke: #000000; stroke-width: 1;"></path><path d="M4,-4h4200v1920h-4200z" style="fill: #f2f2f2; stroke: #000000; stroke-width: 1;"></path><path d="M0,0H4200V1920H0Z" style="fill: #f2f2f2; stroke: #000000; stroke-width: 1;"></path><text dy=".4em" transform="translate(2100,480)">Objects</text><text dy=".4em" transform="translate(2100,1440)">in memory</text></g><g><path d="M18600,-12800h5400v5600h-5400z" style="fill: #c0b6ac;"></path><path d="M18600,-12800h5400l-12,12h-5376v5576l-12,12z" style="fill: #e5dace;"></path><path d="M24000,-7200v-5600l-12,12v5576h-5376l-12,12z" style="fill: #a19890;"></path></g><g font-family="Arial" font-size="24" space="preserve" font-weight="bold"><text fill="#000000" text-anchor="middle" transform="translate(21300,-11840)">Process 2</text></g><g transform="translate(19200,-11680)" font-family="Arial" font-size="596" space="preserve" font-weight="bold" fill="#000000" text-anchor="middle"><path d="M4200,4h4v1440h-4200v-4h4196z" style="fill: #000000; stroke: #000000; stroke-width: 1px;"></path><path d="M0,0H4200V1440H0Z" style="fill: #f2f2f2; stroke: #000000; stroke-width: 1;"></path><text dy=".4em" transform="translate(2100,360)">Dictionary</text><text dy=".4em" transform="translate(2100,1080)">in memory</text></g><g transform="translate(19500,-9600)" font-family="Arial" font-size="568" space="preserve" font-weight="bold" fill="#000000" text-anchor="middle"><path d="M16,-16h3600v1920h-3600z" style="fill: #f2f2f2; stroke: #000000; stroke-width: 1;"></path><path d="M12,-12h3600v1920h-3600z" style="fill: #f2f2f2; stroke: #000000; stroke-width: 1;"></path><path d="M8,-8h3600v1920h-3600z" style="fill: #f2f2f2; stroke: #000000; stroke-width: 1;"></path><path d="M4,-4h3600v1920h-3600z" style="fill: #f2f2f2; stroke: #000000; stroke-width: 1;"></path><path d="M0,0H3600V1920H0Z" style="fill: #f2f2f2; stroke: #000000; stroke-width: 1;"></path><text dy=".4em" transform="translate(1800,480)">Objects</text><text dy=".4em" transform="translate(1800,1440)">in memory</text></g><g><path d="M15480,-11600h840v3200h-840z" style="fill: #936870;"></path><path d="M15480,-11600h840l-3,3h-834v3194l-3,3z" style="fill: #b07c86;"></path><path d="M16320,-8400v-3200l-3,3v3194h-834l-3,3z" style="fill: #7b575e;"></path></g><g font-family="Arial" font-size="20" space="preserve" font-weight="bold"><text fill="#000000" text-anchor="middle" dy=".4em" transform="translate(15900,-10000) rotate(-90)">Stub1</text></g><g><path d="M18120,-11600h840v3200h-840z" style="fill: #936870;"></path><path d="M18120,-11600h840l-3,3h-834v3194l-3,3z" style="fill: #b07c86;"></path><path d="M18960,-8400v-3200l-3,3v3194h-834l-3,3z" style="fill: #7b575e;"></path></g><g font-family="Arial" font-size="20" space="preserve" font-weight="bold"><text fill="#000000" text-anchor="middle" dy=".4em" transform="translate(18540,-10000) rotate(90)">Stub2</text></g><g><path d="M16200,-10400L17990,-10400M17990,-10394l10,-6l-10,-6z" style="stroke: #000000; stroke-width: 6; fill: #000000;"></path></g><g><path d="M18120,-9600L16222,-9600M16222,-9606l-10,6l10,6z" style="stroke: #000000; stroke-width: 6; fill: #000000;"></path></g><g transform="translate(1200,-13200)" font-family="Arial" font-size="628" space="preserve" font-weight="bold" fill="#000000" text-anchor="middle"><path d="M0,0H8400V2000H0Z" style="fill: #7f7f9b; stroke: #000000; stroke-width: 1;"></path><text dy=".4em" transform="translate(4200,500)">C++ Interpreter</text><text dy=".4em" transform="translate(4200,1500)">and program builder</text></g><g transform="translate(3000,-10800)" font-family="Arial" font-size="18" space="preserve" font-weight="bold"><path d="M0,0H6600V880H0Z" style="fill: #7f7f9b; stroke: #000000; stroke-width: 1;"></path><text fill="#000000" text-anchor="middle" dy=".4em" transform="translate(3300,440)">Command Thread</text></g><g transform="translate(1200,-9280)" font-family="Arial" font-size="516" space="preserve" font-weight="bold" fill="#000000" text-anchor="middle"><path d="M8,-8h8040v2480h-8040z" style="fill: #7f7f9b; stroke: #000000; stroke-width: 1;"></path><path d="M4,-4h8040v2480h-8040z" style="fill: #7f7f9b; stroke: #000000; stroke-width: 1;"></path><path d="M0,0H8040V2480H0Z" style="fill: #7f7f9b; stroke: #000000; stroke-width: 1;"></path><text dy=".4em" transform="translate(4020,310)">Viewer Thread(s)</text><text dy=".4em" transform="translate(4020,930)">Picking</text><text dy=".4em" transform="translate(4020,1550)">Context Menus</text><text dy=".4em" transform="translate(4020,2170)">Inspector/Browser</text></g><g transform="translate(600,-6000)" font-family="Arial" font-size="466" space="preserve" font-weight="bold" fill="#000000" text-anchor="middle"><path d="M16,-16h6600v2800h-6600z" style="fill: #f2f2f2; stroke: #000000; stroke-width: 1;"></path><path d="M12,-12h6600v2800h-6600z" style="fill: #f2f2f2; stroke: #000000; stroke-width: 1;"></path><path d="M8,-8h6600v2800h-6600z" style="fill: #f2f2f2; stroke: #000000; stroke-width: 1;"></path><path d="M4,-4h6600v2800h-6600z" style="fill: #f2f2f2; stroke: #000000; stroke-width: 1;"></path><path d="M0,0H6600V2800H0Z" style="fill: #f2f2f2; stroke: #000000; stroke-width: 1;"></path><text dy=".4em" transform="translate(3300,840)">generated</text><text dy=".4em" transform="translate(3300,1400)">automatically</text><text dy=".4em" transform="translate(3300,1960)">from dictionary</text><text dy=".4em" transform="translate(3300,2520)">and source files</text></g><g transform="translate(1800,-6240)" font-family="Arial" font-size="466" space="preserve" font-weight="bold"><path d="M4200,3h3v560h-4200v-3h4197z" style="fill: #000000; stroke: #000000; stroke-width: 1px;"></path><path d="M0,0H4200V560H0Z" style="fill: #876656; stroke: #000000; stroke-width: 1;"></path><text fill="#000000" text-anchor="middle" dy=".4em" transform="translate(2100,280)">HTML Files</text></g><g transform="translate(600,-2400)" font-family="Arial" font-size="500" space="preserve" font-weight="bold" fill="#000000" text-anchor="middle"><path d="M16,-16h6600v2400h-6600z" style="fill: #f2f2f2; stroke: #000000; stroke-width: 1;"></path><path d="M12,-12h6600v2400h-6600z" style="fill: #f2f2f2; stroke: #000000; stroke-width: 1;"></path><path d="M8,-8h6600v2400h-6600z" style="fill: #f2f2f2; stroke: #000000; stroke-width: 1;"></path><path d="M4,-4h6600v2400h-6600z" style="fill: #f2f2f2; stroke: #000000; stroke-width: 1;"></path><path d="M0,0H6600V2400H0Z" style="fill: #f2f2f2; stroke: #000000; stroke-width: 1;"></path><text dy=".4em" transform="translate(3300,900)">generated</text><text dy=".4em" transform="translate(3300,1500)">automatically</text><text dy=".4em" transform="translate(3300,2100)">from HTML files</text></g><g transform="translate(1800,-2640)" font-family="Arial" font-size="466" space="preserve" font-weight="bold"><path d="M4200,3h3v560h-4200v-3h4197z" style="fill: #000000; stroke: #000000; stroke-width: 1px;"></path><path d="M0,0H4200V560H0Z" style="fill: #876656; stroke: #000000; stroke-width: 1;"></path><text fill="#000000" text-anchor="middle" dy=".4em" transform="translate(2100,280)">Printed Docs</text></g><g><path d="M240,-13440h16860v6880h-16860z" style="stroke: #000000; stroke-width: 1; stroke-dasharray: 3,3; fill: none;"></path></g><g><path d="M12240,-18080h12000v3920h-12000z" style="stroke: #000000; stroke-width: 1; stroke-dasharray: 1,2; fill: none;"></path></g><g><path d="M3000,-13200L3000,-14310M3006,-14310l-6,-10l-6,10z" style="stroke: #000000; stroke-width: 6; fill: #000000;"></path></g><g><path d="M6600,-6560L6600,-6170M6594,-6170l6,10l6,-10z" style="stroke: #000000; stroke-width: 6; fill: #000000;"></path></g><g><path d="M6600,-3200L6600,-2570M6594,-2570l6,10l6,-10z" style="stroke: #000000; stroke-width: 6; fill: #000000;"></path></g><g><path d="M10200,-6560L10200,-5770M10194,-5770l6,10l6,-10z" style="stroke: #000000; stroke-width: 6; fill: #000000;"></path></g><g><path d="M11400,-5680L11400,-6390M11406,-6390l-6,-10l-6,10z" style="stroke: #000000; stroke-width: 6; fill: #000000;"></path></g><g><path d="M7800,-14400L7800,-13290M7794,-13290l6,10l6,-10z" style="stroke: #000000; stroke-width: 6; fill: #000000;"></path></g><g><path d="M10200,-14400L10200,-12890M10194,-12890l6,10l6,-10z" style="stroke: #000000; stroke-width: 6; fill: #000000;"></path></g><g><path d="M13800,-14400L13800,-12890M13794,-12890l6,10l6,-10z" style="stroke: #000000; stroke-width: 6; fill: #000000;"></path></g><g transform="translate(12600,-6240)" font-family="Arial" font-size="666" space="preserve" font-weight="bold"><path d="M7800,3h3v800h-7800v-3h7797z" style="fill: #000000; stroke: #000000; stroke-width: 1px;"></path><path d="M0,0H7800V800H0Z" style="fill: #876656; stroke: #000000; stroke-width: 1;"></path><text fill="#000000" text-anchor="middle" dy=".4em" transform="translate(3900,400)">Objects Data Base</text></g><svg viewBox="0 0 696 232" preserveAspectRatio="none" x="444" y="552" width="696" height="232"><path d="M0,0H696V232H0Z" style="fill: #936870;"></path><g><g transform="translate(29,58)"><path d="M24,-24h116v145h-116z" style="fill: #f2f2f2; stroke: #000000; stroke-width: 1;"></path><path d="M20,-20h116v145h-116z" style="fill: #f2f2f2; stroke: #000000; stroke-width: 1;"></path><path d="M16,-16h116v145h-116z" style="fill: #f2f2f2; stroke: #000000; stroke-width: 1;"></path><path d="M12,-12h116v145h-116z" style="fill: #f2f2f2; stroke: #000000; stroke-width: 1;"></path><path d="M8,-8h116v145h-116z" style="fill: #f2f2f2; stroke: #000000; stroke-width: 1;"></path><path d="M4,-4h116v145h-116z" style="fill: #f2f2f2; stroke: #000000; stroke-width: 1;"></path><path d="M0,0H116V145H0Z" style="fill: #f2f2f2; stroke: #000000; stroke-width: 1;"></path></g><g transform="translate(232,145)"><path d="M24,-24h58v58h-58z" style="fill: #f2f2f2; stroke: #000000; stroke-width: 1;"></path><path d="M20,-20h58v58h-58z" style="fill: #f2f2f2; stroke: #000000; stroke-width: 1;"></path><path d="M16,-16h58v58h-58z" style="fill: #f2f2f2; stroke: #000000; stroke-width: 1;"></path><path d="M12,-12h58v58h-58z" style="fill: #f2f2f2; stroke: #000000; stroke-width: 1;"></path><path d="M8,-8h58v58h-58z" style="fill: #f2f2f2; stroke: #000000; stroke-width: 1;"></path><path d="M4,-4h58v58h-58z" style="fill: #f2f2f2; stroke: #000000; stroke-width: 1;"></path><path d="M0,0H58V58H0Z" style="fill: #f2f2f2; stroke: #000000; stroke-width: 1;"></path></g><g transform="translate(348,145)"><path d="M24,-24h58v58h-58z" style="fill: #f2f2f2; stroke: #000000; stroke-width: 1;"></path><path d="M20,-20h58v58h-58z" style="fill: #f2f2f2; stroke: #000000; stroke-width: 1;"></path><path d="M16,-16h58v58h-58z" style="fill: #f2f2f2; stroke: #000000; stroke-width: 1;"></path><path d="M12,-12h58v58h-58z" style="fill: #f2f2f2; stroke: #000000; stroke-width: 1;"></path><path d="M8,-8h58v58h-58z" style="fill: #f2f2f2; stroke: #000000; stroke-width: 1;"></path><path d="M4,-4h58v58h-58z" style="fill: #f2f2f2; stroke: #000000; stroke-width: 1;"></path><path d="M0,0H58V58H0Z" style="fill: #f2f2f2; stroke: #000000; stroke-width: 1;"></path></g><g transform="translate(232,58)"><path d="M24,-24h58v58h-58z" style="fill: #f2f2f2; stroke: #000000; stroke-width: 1;"></path><path d="M20,-20h58v58h-58z" style="fill: #f2f2f2; stroke: #000000; stroke-width: 1;"></path><path d="M16,-16h58v58h-58z" style="fill: #f2f2f2; stroke: #000000; stroke-width: 1;"></path><path d="M12,-12h58v58h-58z" style="fill: #f2f2f2; stroke: #000000; stroke-width: 1;"></path><path d="M8,-8h58v58h-58z" style="fill: #f2f2f2; stroke: #000000; stroke-width: 1;"></path><path d="M4,-4h58v58h-58z" style="fill: #f2f2f2; stroke: #000000; stroke-width: 1;"></path><path d="M0,0H58V58H0Z" style="fill: #f2f2f2; stroke: #000000; stroke-width: 1;"></path></g><g transform="translate(348,58)"><path d="M24,-24h58v58h-58z" style="fill: #f2f2f2; stroke: #000000; stroke-width: 1;"></path><path d="M20,-20h58v58h-58z" style="fill: #f2f2f2; stroke: #000000; stroke-width: 1;"></path><path d="M16,-16h58v58h-58z" style="fill: #f2f2f2; stroke: #000000; stroke-width: 1;"></path><path d="M12,-12h58v58h-58z" style="fill: #f2f2f2; stroke: #000000; stroke-width: 1;"></path><path d="M8,-8h58v58h-58z" style="fill: #f2f2f2; stroke: #000000; stroke-width: 1;"></path><path d="M4,-4h58v58h-58z" style="fill: #f2f2f2; stroke: #000000; stroke-width: 1;"></path><path d="M0,0H58V58H0Z" style="fill: #f2f2f2; stroke: #000000; stroke-width: 1;"></path></g><g transform="translate(493,189)"><path d="M24,-24h29v15h-29z" style="fill: #f2f2f2; stroke: #000000; stroke-width: 1;"></path><path d="M20,-20h29v15h-29z" style="fill: #f2f2f2; stroke: #000000; stroke-width: 1;"></path><path d="M16,-16h29v15h-29z" style="fill: #f2f2f2; stroke: #000000; stroke-width: 1;"></path><path d="M12,-12h29v15h-29z" style="fill: #f2f2f2; stroke: #000000; stroke-width: 1;"></path><path d="M8,-8h29v15h-29z" style="fill: #f2f2f2; stroke: #000000; stroke-width: 1;"></path><path d="M4,-4h29v15h-29z" style="fill: #f2f2f2; stroke: #000000; stroke-width: 1;"></path><path d="M0,0H29V15H0Z" style="fill: #f2f2f2; stroke: #000000; stroke-width: 1;"></path></g><g transform="translate(528,189)"><path d="M24,-24h29v15h-29z" style="fill: #f2f2f2; stroke: #000000; stroke-width: 1;"></path><path d="M20,-20h29v15h-29z" style="fill: #f2f2f2; stroke: #000000; stroke-width: 1;"></path><path d="M16,-16h29v15h-29z" style="fill: #f2f2f2; stroke: #000000; stroke-width: 1;"></path><path d="M12,-12h29v15h-29z" style="fill: #f2f2f2; stroke: #000000; stroke-width: 1;"></path><path d="M8,-8h29v15h-29z" style="fill: #f2f2f2; stroke: #000000; stroke-width: 1;"></path><path d="M4,-4h29v15h-29z" style="fill: #f2f2f2; stroke: #000000; stroke-width: 1;"></path><path d="M0,0H29V15H0Z" style="fill: #f2f2f2; stroke: #000000; stroke-width: 1;"></path></g><g transform="translate(563,189)"><path d="M24,-24h29v15h-29z" style="fill: #f2f2f2; stroke: #000000; stroke-width: 1;"></path><path d="M20,-20h29v15h-29z" style="fill: #f2f2f2; stroke: #000000; stroke-width: 1;"></path><path d="M16,-16h29v15h-29z" style="fill: #f2f2f2; stroke: #000000; stroke-width: 1;"></path><path d="M12,-12h29v15h-29z" style="fill: #f2f2f2; stroke: #000000; stroke-width: 1;"></path><path d="M8,-8h29v15h-29z" style="fill: #f2f2f2; stroke: #000000; stroke-width: 1;"></path><path d="M4,-4h29v15h-29z" style="fill: #f2f2f2; stroke: #000000; stroke-width: 1;"></path><path d="M0,0H29V15H0Z" style="fill: #f2f2f2; stroke: #000000; stroke-width: 1;"></path></g><g transform="translate(597,189)"><path d="M24,-24h29v15h-29z" style="fill: #f2f2f2; stroke: #000000; stroke-width: 1;"></path><path d="M20,-20h29v15h-29z" style="fill: #f2f2f2; stroke: #000000; stroke-width: 1;"></path><path d="M16,-16h29v15h-29z" style="fill: #f2f2f2; stroke: #000000; stroke-width: 1;"></path><path d="M12,-12h29v15h-29z" style="fill: #f2f2f2; stroke: #000000; stroke-width: 1;"></path><path d="M8,-8h29v15h-29z" style="fill: #f2f2f2; stroke: #000000; stroke-width: 1;"></path><path d="M4,-4h29v15h-29z" style="fill: #f2f2f2; stroke: #000000; stroke-width: 1;"></path><path d="M0,0H29V15H0Z" style="fill: #f2f2f2; stroke: #000000; stroke-width: 1;"></path></g><g transform="translate(493,168)"><path d="M24,-24h29v14h-29z" style="fill: #f2f2f2; stroke: #000000; stroke-width: 1;"></path><path d="M20,-20h29v14h-29z" style="fill: #f2f2f2; stroke: #000000; stroke-width: 1;"></path><path d="M16,-16h29v14h-29z" style="fill: #f2f2f2; stroke: #000000; stroke-width: 1;"></path><path d="M12,-12h29v14h-29z" style="fill: #f2f2f2; stroke: #000000; stroke-width: 1;"></path><path d="M8,-8h29v14h-29z" style="fill: #f2f2f2; stroke: #000000; stroke-width: 1;"></path><path d="M4,-4h29v14h-29z" style="fill: #f2f2f2; stroke: #000000; stroke-width: 1;"></path><path d="M0,0H29V14H0Z" style="fill: #f2f2f2; stroke: #000000; stroke-width: 1;"></path></g><g transform="translate(528,168)"><path d="M24,-24h29v14h-29z" style="fill: #f2f2f2; stroke: #000000; stroke-width: 1;"></path><path d="M20,-20h29v14h-29z" style="fill: #f2f2f2; stroke: #000000; stroke-width: 1;"></path><path d="M16,-16h29v14h-29z" style="fill: #f2f2f2; stroke: #000000; stroke-width: 1;"></path><path d="M12,-12h29v14h-29z" style="fill: #f2f2f2; stroke: #000000; stroke-width: 1;"></path><path d="M8,-8h29v14h-29z" style="fill: #f2f2f2; stroke: #000000; stroke-width: 1;"></path><path d="M4,-4h29v14h-29z" style="fill: #f2f2f2; stroke: #000000; stroke-width: 1;"></path><path d="M0,0H29V14H0Z" style="fill: #f2f2f2; stroke: #000000; stroke-width: 1;"></path></g><g transform="translate(563,168)"><path d="M24,-24h29v14h-29z" style="fill: #f2f2f2; stroke: #000000; stroke-width: 1;"></path><path d="M20,-20h29v14h-29z" style="fill: #f2f2f2; stroke: #000000; stroke-width: 1;"></path><path d="M16,-16h29v14h-29z" style="fill: #f2f2f2; stroke: #000000; stroke-width: 1;"></path><path d="M12,-12h29v14h-29z" style="fill: #f2f2f2; stroke: #000000; stroke-width: 1;"></path><path d="M8,-8h29v14h-29z" style="fill: #f2f2f2; stroke: #000000; stroke-width: 1;"></path><path d="M4,-4h29v14h-29z" style="fill: #f2f2f2; stroke: #000000; stroke-width: 1;"></path><path d="M0,0H29V14H0Z" style="fill: #f2f2f2; stroke: #000000; stroke-width: 1;"></path></g><g transform="translate(597,168)"><path d="M24,-24h29v14h-29z" style="fill: #f2f2f2; stroke: #000000; stroke-width: 1;"></path><path d="M20,-20h29v14h-29z" style="fill: #f2f2f2; stroke: #000000; stroke-width: 1;"></path><path d="M16,-16h29v14h-29z" style="fill: #f2f2f2; stroke: #000000; stroke-width: 1;"></path><path d="M12,-12h29v14h-29z" style="fill: #f2f2f2; stroke: #000000; stroke-width: 1;"></path><path d="M8,-8h29v14h-29z" style="fill: #f2f2f2; stroke: #000000; stroke-width: 1;"></path><path d="M4,-4h29v14h-29z" style="fill: #f2f2f2; stroke: #000000; stroke-width: 1;"></path><path d="M0,0H29V14H0Z" style="fill: #f2f2f2; stroke: #000000; stroke-width: 1;"></path></g><g transform="translate(493,148)"><path d="M24,-24h29v15h-29z" style="fill: #f2f2f2; stroke: #000000; stroke-width: 1;"></path><path d="M20,-20h29v15h-29z" style="fill: #f2f2f2; stroke: #000000; stroke-width: 1;"></path><path d="M16,-16h29v15h-29z" style="fill: #f2f2f2; stroke: #000000; stroke-width: 1;"></path><path d="M12,-12h29v15h-29z" style="fill: #f2f2f2; stroke: #000000; stroke-width: 1;"></path><path d="M8,-8h29v15h-29z" style="fill: #f2f2f2; stroke: #000000; stroke-width: 1;"></path><path d="M4,-4h29v15h-29z" style="fill: #f2f2f2; stroke: #000000; stroke-width: 1;"></path><path d="M0,0H29V15H0Z" style="fill: #f2f2f2; stroke: #000000; stroke-width: 1;"></path></g><g transform="translate(528,148)"><path d="M24,-24h29v15h-29z" style="fill: #f2f2f2; stroke: #000000; stroke-width: 1;"></path><path d="M20,-20h29v15h-29z" style="fill: #f2f2f2; stroke: #000000; stroke-width: 1;"></path><path d="M16,-16h29v15h-29z" style="fill: #f2f2f2; stroke: #000000; stroke-width: 1;"></path><path d="M12,-12h29v15h-29z" style="fill: #f2f2f2; stroke: #000000; stroke-width: 1;"></path><path d="M8,-8h29v15h-29z" style="fill: #f2f2f2; stroke: #000000; stroke-width: 1;"></path><path d="M4,-4h29v15h-29z" style="fill: #f2f2f2; stroke: #000000; stroke-width: 1;"></path><path d="M0,0H29V15H0Z" style="fill: #f2f2f2; stroke: #000000; stroke-width: 1;"></path></g><g transform="translate(563,148)"><path d="M24,-24h29v15h-29z" style="fill: #f2f2f2; stroke: #000000; stroke-width: 1;"></path><path d="M20,-20h29v15h-29z" style="fill: #f2f2f2; stroke: #000000; stroke-width: 1;"></path><path d="M16,-16h29v15h-29z" style="fill: #f2f2f2; stroke: #000000; stroke-width: 1;"></path><path d="M12,-12h29v15h-29z" style="fill: #f2f2f2; stroke: #000000; stroke-width: 1;"></path><path d="M8,-8h29v15h-29z" style="fill: #f2f2f2; stroke: #000000; stroke-width: 1;"></path><path d="M4,-4h29v15h-29z" style="fill: #f2f2f2; stroke: #000000; stroke-width: 1;"></path><path d="M0,0H29V15H0Z" style="fill: #f2f2f2; stroke: #000000; stroke-width: 1;"></path></g><g transform="translate(597,148)"><path d="M24,-24h29v15h-29z" style="fill: #f2f2f2; stroke: #000000; stroke-width: 1;"></path><path d="M20,-20h29v15h-29z" style="fill: #f2f2f2; stroke: #000000; stroke-width: 1;"></path><path d="M16,-16h29v15h-29z" style="fill: #f2f2f2; stroke: #000000; stroke-width: 1;"></path><path d="M12,-12h29v15h-29z" style="fill: #f2f2f2; stroke: #000000; stroke-width: 1;"></path><path d="M8,-8h29v15h-29z" style="fill: #f2f2f2; stroke: #000000; stroke-width: 1;"></path><path d="M4,-4h29v15h-29z" style="fill: #f2f2f2; stroke: #000000; stroke-width: 1;"></path><path d="M0,0H29V15H0Z" style="fill: #f2f2f2; stroke: #000000; stroke-width: 1;"></path></g><g transform="translate(493,128)"><path d="M24,-24h29v15h-29z" style="fill: #f2f2f2; stroke: #000000; stroke-width: 1;"></path><path d="M20,-20h29v15h-29z" style="fill: #f2f2f2; stroke: #000000; stroke-width: 1;"></path><path d="M16,-16h29v15h-29z" style="fill: #f2f2f2; stroke: #000000; stroke-width: 1;"></path><path d="M12,-12h29v15h-29z" style="fill: #f2f2f2; stroke: #000000; stroke-width: 1;"></path><path d="M8,-8h29v15h-29z" style="fill: #f2f2f2; stroke: #000000; stroke-width: 1;"></path><path d="M4,-4h29v15h-29z" style="fill: #f2f2f2; stroke: #000000; stroke-width: 1;"></path><path d="M0,0H29V15H0Z" style="fill: #f2f2f2; stroke: #000000; stroke-width: 1;"></path></g><g transform="translate(528,128)"><path d="M24,-24h29v15h-29z" style="fill: #f2f2f2; stroke: #000000; stroke-width: 1;"></path><path d="M20,-20h29v15h-29z" style="fill: #f2f2f2; stroke: #000000; stroke-width: 1;"></path><path d="M16,-16h29v15h-29z" style="fill: #f2f2f2; stroke: #000000; stroke-width: 1;"></path><path d="M12,-12h29v15h-29z" style="fill: #f2f2f2; stroke: #000000; stroke-width: 1;"></path><path d="M8,-8h29v15h-29z" style="fill: #f2f2f2; stroke: #000000; stroke-width: 1;"></path><path d="M4,-4h29v15h-29z" style="fill: #f2f2f2; stroke: #000000; stroke-width: 1;"></path><path d="M0,0H29V15H0Z" style="fill: #f2f2f2; stroke: #000000; stroke-width: 1;"></path></g><g transform="translate(563,128)"><path d="M24,-24h29v15h-29z" style="fill: #f2f2f2; stroke: #000000; stroke-width: 1;"></path><path d="M20,-20h29v15h-29z" style="fill: #f2f2f2; stroke: #000000; stroke-width: 1;"></path><path d="M16,-16h29v15h-29z" style="fill: #f2f2f2; stroke: #000000; stroke-width: 1;"></path><path d="M12,-12h29v15h-29z" style="fill: #f2f2f2; stroke: #000000; stroke-width: 1;"></path><path d="M8,-8h29v15h-29z" style="fill: #f2f2f2; stroke: #000000; stroke-width: 1;"></path><path d="M4,-4h29v15h-29z" style="fill: #f2f2f2; stroke: #000000; stroke-width: 1;"></path><path d="M0,0H29V15H0Z" style="fill: #f2f2f2; stroke: #000000; stroke-width: 1;"></path></g><g transform="translate(597,128)"><path d="M24,-24h29v15h-29z" style="fill: #f2f2f2; stroke: #000000; stroke-width: 1;"></path><path d="M20,-20h29v15h-29z" style="fill: #f2f2f2; stroke: #000000; stroke-width: 1;"></path><path d="M16,-16h29v15h-29z" style="fill: #f2f2f2; stroke: #000000; stroke-width: 1;"></path><path d="M12,-12h29v15h-29z" style="fill: #f2f2f2; stroke: #000000; stroke-width: 1;"></path><path d="M8,-8h29v15h-29z" style="fill: #f2f2f2; stroke: #000000; stroke-width: 1;"></path><path d="M4,-4h29v15h-29z" style="fill: #f2f2f2; stroke: #000000; stroke-width: 1;"></path><path d="M0,0H29V15H0Z" style="fill: #f2f2f2; stroke: #000000; stroke-width: 1;"></path></g><g transform="translate(493,107)"><path d="M24,-24h29v15h-29z" style="fill: #f2f2f2; stroke: #000000; stroke-width: 1;"></path><path d="M20,-20h29v15h-29z" style="fill: #f2f2f2; stroke: #000000; stroke-width: 1;"></path><path d="M16,-16h29v15h-29z" style="fill: #f2f2f2; stroke: #000000; stroke-width: 1;"></path><path d="M12,-12h29v15h-29z" style="fill: #f2f2f2; stroke: #000000; stroke-width: 1;"></path><path d="M8,-8h29v15h-29z" style="fill: #f2f2f2; stroke: #000000; stroke-width: 1;"></path><path d="M4,-4h29v15h-29z" style="fill: #f2f2f2; stroke: #000000; stroke-width: 1;"></path><path d="M0,0H29V15H0Z" style="fill: #f2f2f2; stroke: #000000; stroke-width: 1;"></path></g><g transform="translate(528,107)"><path d="M24,-24h29v15h-29z" style="fill: #f2f2f2; stroke: #000000; stroke-width: 1;"></path><path d="M20,-20h29v15h-29z" style="fill: #f2f2f2; stroke: #000000; stroke-width: 1;"></path><path d="M16,-16h29v15h-29z" style="fill: #f2f2f2; stroke: #000000; stroke-width: 1;"></path><path d="M12,-12h29v15h-29z" style="fill: #f2f2f2; stroke: #000000; stroke-width: 1;"></path><path d="M8,-8h29v15h-29z" style="fill: #f2f2f2; stroke: #000000; stroke-width: 1;"></path><path d="M4,-4h29v15h-29z" style="fill: #f2f2f2; stroke: #000000; stroke-width: 1;"></path><path d="M0,0H29V15H0Z" style="fill: #f2f2f2; stroke: #000000; stroke-width: 1;"></path></g><g transform="translate(563,107)"><path d="M24,-24h29v15h-29z" style="fill: #f2f2f2; stroke: #000000; stroke-width: 1;"></path><path d="M20,-20h29v15h-29z" style="fill: #f2f2f2; stroke: #000000; stroke-width: 1;"></path><path d="M16,-16h29v15h-29z" style="fill: #f2f2f2; stroke: #000000; stroke-width: 1;"></path><path d="M12,-12h29v15h-29z" style="fill: #f2f2f2; stroke: #000000; stroke-width: 1;"></path><path d="M8,-8h29v15h-29z" style="fill: #f2f2f2; stroke: #000000; stroke-width: 1;"></path><path d="M4,-4h29v15h-29z" style="fill: #f2f2f2; stroke: #000000; stroke-width: 1;"></path><path d="M0,0H29V15H0Z" style="fill: #f2f2f2; stroke: #000000; stroke-width: 1;"></path></g><g transform="translate(597,107)"><path d="M24,-24h29v15h-29z" style="fill: #f2f2f2; stroke: #000000; stroke-width: 1;"></path><path d="M20,-20h29v15h-29z" style="fill: #f2f2f2; stroke: #000000; stroke-width: 1;"></path><path d="M16,-16h29v15h-29z" style="fill: #f2f2f2; stroke: #000000; stroke-width: 1;"></path><path d="M12,-12h29v15h-29z" style="fill: #f2f2f2; stroke: #000000; stroke-width: 1;"></path><path d="M8,-8h29v15h-29z" style="fill: #f2f2f2; stroke: #000000; stroke-width: 1;"></path><path d="M4,-4h29v15h-29z" style="fill: #f2f2f2; stroke: #000000; stroke-width: 1;"></path><path d="M0,0H29V15H0Z" style="fill: #f2f2f2; stroke: #000000; stroke-width: 1;"></path></g><g transform="translate(493,87)"><path d="M24,-24h29v15h-29z" style="fill: #f2f2f2; stroke: #000000; stroke-width: 1;"></path><path d="M20,-20h29v15h-29z" style="fill: #f2f2f2; stroke: #000000; stroke-width: 1;"></path><path d="M16,-16h29v15h-29z" style="fill: #f2f2f2; stroke: #000000; stroke-width: 1;"></path><path d="M12,-12h29v15h-29z" style="fill: #f2f2f2; stroke: #000000; stroke-width: 1;"></path><path d="M8,-8h29v15h-29z" style="fill: #f2f2f2; stroke: #000000; stroke-width: 1;"></path><path d="M4,-4h29v15h-29z" style="fill: #f2f2f2; stroke: #000000; stroke-width: 1;"></path><path d="M0,0H29V15H0Z" style="fill: #f2f2f2; stroke: #000000; stroke-width: 1;"></path></g><g transform="translate(528,87)"><path d="M24,-24h29v15h-29z" style="fill: #f2f2f2; stroke: #000000; stroke-width: 1;"></path><path d="M20,-20h29v15h-29z" style="fill: #f2f2f2; stroke: #000000; stroke-width: 1;"></path><path d="M16,-16h29v15h-29z" style="fill: #f2f2f2; stroke: #000000; stroke-width: 1;"></path><path d="M12,-12h29v15h-29z" style="fill: #f2f2f2; stroke: #000000; stroke-width: 1;"></path><path d="M8,-8h29v15h-29z" style="fill: #f2f2f2; stroke: #000000; stroke-width: 1;"></path><path d="M4,-4h29v15h-29z" style="fill: #f2f2f2; stroke: #000000; stroke-width: 1;"></path><path d="M0,0H29V15H0Z" style="fill: #f2f2f2; stroke: #000000; stroke-width: 1;"></path></g><g transform="translate(563,87)"><path d="M24,-24h29v15h-29z" style="fill: #f2f2f2; stroke: #000000; stroke-width: 1;"></path><path d="M20,-20h29v15h-29z" style="fill: #f2f2f2; stroke: #000000; stroke-width: 1;"></path><path d="M16,-16h29v15h-29z" style="fill: #f2f2f2; stroke: #000000; stroke-width: 1;"></path><path d="M12,-12h29v15h-29z" style="fill: #f2f2f2; stroke: #000000; stroke-width: 1;"></path><path d="M8,-8h29v15h-29z" style="fill: #f2f2f2; stroke: #000000; stroke-width: 1;"></path><path d="M4,-4h29v15h-29z" style="fill: #f2f2f2; stroke: #000000; stroke-width: 1;"></path><path d="M0,0H29V15H0Z" style="fill: #f2f2f2; stroke: #000000; stroke-width: 1;"></path></g><g transform="translate(597,87)"><path d="M24,-24h29v15h-29z" style="fill: #f2f2f2; stroke: #000000; stroke-width: 1;"></path><path d="M20,-20h29v15h-29z" style="fill: #f2f2f2; stroke: #000000; stroke-width: 1;"></path><path d="M16,-16h29v15h-29z" style="fill: #f2f2f2; stroke: #000000; stroke-width: 1;"></path><path d="M12,-12h29v15h-29z" style="fill: #f2f2f2; stroke: #000000; stroke-width: 1;"></path><path d="M8,-8h29v15h-29z" style="fill: #f2f2f2; stroke: #000000; stroke-width: 1;"></path><path d="M4,-4h29v15h-29z" style="fill: #f2f2f2; stroke: #000000; stroke-width: 1;"></path><path d="M0,0H29V15H0Z" style="fill: #f2f2f2; stroke: #000000; stroke-width: 1;"></path></g><g transform="translate(493,67)"><path d="M24,-24h29v15h-29z" style="fill: #f2f2f2; stroke: #000000; stroke-width: 1;"></path><path d="M20,-20h29v15h-29z" style="fill: #f2f2f2; stroke: #000000; stroke-width: 1;"></path><path d="M16,-16h29v15h-29z" style="fill: #f2f2f2; stroke: #000000; stroke-width: 1;"></path><path d="M12,-12h29v15h-29z" style="fill: #f2f2f2; stroke: #000000; stroke-width: 1;"></path><path d="M8,-8h29v15h-29z" style="fill: #f2f2f2; stroke: #000000; stroke-width: 1;"></path><path d="M4,-4h29v15h-29z" style="fill: #f2f2f2; stroke: #000000; stroke-width: 1;"></path><path d="M0,0H29V15H0Z" style="fill: #f2f2f2; stroke: #000000; stroke-width: 1;"></path></g><g transform="translate(528,67)"><path d="M24,-24h29v15h-29z" style="fill: #f2f2f2; stroke: #000000; stroke-width: 1;"></path><path d="M20,-20h29v15h-29z" style="fill: #f2f2f2; stroke: #000000; stroke-width: 1;"></path><path d="M16,-16h29v15h-29z" style="fill: #f2f2f2; stroke: #000000; stroke-width: 1;"></path><path d="M12,-12h29v15h-29z" style="fill: #f2f2f2; stroke: #000000; stroke-width: 1;"></path><path d="M8,-8h29v15h-29z" style="fill: #f2f2f2; stroke: #000000; stroke-width: 1;"></path><path d="M4,-4h29v15h-29z" style="fill: #f2f2f2; stroke: #000000; stroke-width: 1;"></path><path d="M0,0H29V15H0Z" style="fill: #f2f2f2; stroke: #000000; stroke-width: 1;"></path></g><g transform="translate(563,67)"><path d="M24,-24h29v15h-29z" style="fill: #f2f2f2; stroke: #000000; stroke-width: 1;"></path><path d="M20,-20h29v15h-29z" style="fill: #f2f2f2; stroke: #000000; stroke-width: 1;"></path><path d="M16,-16h29v15h-29z" style="fill: #f2f2f2; stroke: #000000; stroke-width: 1;"></path><path d="M12,-12h29v15h-29z" style="fill: #f2f2f2; stroke: #000000; stroke-width: 1;"></path><path d="M8,-8h29v15h-29z" style="fill: #f2f2f2; stroke: #000000; stroke-width: 1;"></path><path d="M4,-4h29v15h-29z" style="fill: #f2f2f2; stroke: #000000; stroke-width: 1;"></path><path d="M0,0H29V15H0Z" style="fill: #f2f2f2; stroke: #000000; stroke-width: 1;"></path></g><g transform="translate(597,67)"><path d="M24,-24h29v15h-29z" style="fill: #f2f2f2; stroke: #000000; stroke-width: 1;"></path><path d="M20,-20h29v15h-29z" style="fill: #f2f2f2; stroke: #000000; stroke-width: 1;"></path><path d="M16,-16h29v15h-29z" style="fill: #f2f2f2; stroke: #000000; stroke-width: 1;"></path><path d="M12,-12h29v15h-29z" style="fill: #f2f2f2; stroke: #000000; stroke-width: 1;"></path><path d="M8,-8h29v15h-29z" style="fill: #f2f2f2; stroke: #000000; stroke-width: 1;"></path><path d="M4,-4h29v15h-29z" style="fill: #f2f2f2; stroke: #000000; stroke-width: 1;"></path><path d="M0,0H29V15H0Z" style="fill: #f2f2f2; stroke: #000000; stroke-width: 1;"></path></g><g transform="translate(493,46)"><path d="M24,-24h29v15h-29z" style="fill: #f2f2f2; stroke: #000000; stroke-width: 1;"></path><path d="M20,-20h29v15h-29z" style="fill: #f2f2f2; stroke: #000000; stroke-width: 1;"></path><path d="M16,-16h29v15h-29z" style="fill: #f2f2f2; stroke: #000000; stroke-width: 1;"></path><path d="M12,-12h29v15h-29z" style="fill: #f2f2f2; stroke: #000000; stroke-width: 1;"></path><path d="M8,-8h29v15h-29z" style="fill: #f2f2f2; stroke: #000000; stroke-width: 1;"></path><path d="M4,-4h29v15h-29z" style="fill: #f2f2f2; stroke: #000000; stroke-width: 1;"></path><path d="M0,0H29V15H0Z" style="fill: #f2f2f2; stroke: #000000; stroke-width: 1;"></path></g><g transform="translate(528,46)"><path d="M24,-24h29v15h-29z" style="fill: #f2f2f2; stroke: #000000; stroke-width: 1;"></path><path d="M20,-20h29v15h-29z" style="fill: #f2f2f2; stroke: #000000; stroke-width: 1;"></path><path d="M16,-16h29v15h-29z" style="fill: #f2f2f2; stroke: #000000; stroke-width: 1;"></path><path d="M12,-12h29v15h-29z" style="fill: #f2f2f2; stroke: #000000; stroke-width: 1;"></path><path d="M8,-8h29v15h-29z" style="fill: #f2f2f2; stroke: #000000; stroke-width: 1;"></path><path d="M4,-4h29v15h-29z" style="fill: #f2f2f2; stroke: #000000; stroke-width: 1;"></path><path d="M0,0H29V15H0Z" style="fill: #f2f2f2; stroke: #000000; stroke-width: 1;"></path></g><g transform="translate(563,46)"><path d="M24,-24h29v15h-29z" style="fill: #f2f2f2; stroke: #000000; stroke-width: 1;"></path><path d="M20,-20h29v15h-29z" style="fill: #f2f2f2; stroke: #000000; stroke-width: 1;"></path><path d="M16,-16h29v15h-29z" style="fill: #f2f2f2; stroke: #000000; stroke-width: 1;"></path><path d="M12,-12h29v15h-29z" style="fill: #f2f2f2; stroke: #000000; stroke-width: 1;"></path><path d="M8,-8h29v15h-29z" style="fill: #f2f2f2; stroke: #000000; stroke-width: 1;"></path><path d="M4,-4h29v15h-29z" style="fill: #f2f2f2; stroke: #000000; stroke-width: 1;"></path><path d="M0,0H29V15H0Z" style="fill: #f2f2f2; stroke: #000000; stroke-width: 1;"></path></g><g transform="translate(597,46)"><path d="M24,-24h29v15h-29z" style="fill: #f2f2f2; stroke: #000000; stroke-width: 1;"></path><path d="M20,-20h29v15h-29z" style="fill: #f2f2f2; stroke: #000000; stroke-width: 1;"></path><path d="M16,-16h29v15h-29z" style="fill: #f2f2f2; stroke: #000000; stroke-width: 1;"></path><path d="M12,-12h29v15h-29z" style="fill: #f2f2f2; stroke: #000000; stroke-width: 1;"></path><path d="M8,-8h29v15h-29z" style="fill: #f2f2f2; stroke: #000000; stroke-width: 1;"></path><path d="M4,-4h29v15h-29z" style="fill: #f2f2f2; stroke: #000000; stroke-width: 1;"></path><path d="M0,0H29V15H0Z" style="fill: #f2f2f2; stroke: #000000; stroke-width: 1;"></path></g><g font-family="Arial" font-size="16" space="preserve" font-weight="bold"><text fill="#000000" text-anchor="middle" dy=".4em" transform="translate(87,20)">DAQ</text></g><g font-family="Arial" font-size="16" space="preserve" font-weight="bold"><text fill="#000000" text-anchor="middle" dy=".4em" transform="translate(348,20)">DST</text></g><g font-family="Arial" font-size="16" space="preserve" font-weight="bold"><text fill="#000000" text-anchor="middle" dy=".4em" transform="translate(580,20)">Physics Analysis</text></g><g font-family="Arial" font-size="16" space="preserve" font-weight="bold"><text fill="#000000" text-anchor="middle" dy=".4em" transform="translate(87,212)">Events</text></g><g font-family="Arial" font-size="16" space="preserve" font-weight="bold"><text fill="#000000" text-anchor="middle" dy=".4em" transform="translate(87,223)">Containers</text></g><g font-family="Arial" font-size="16" space="preserve" font-weight="bold"><text fill="#000000" text-anchor="middle" dy=".4em" transform="translate(348,212)">Tracks/Hits</text></g><g font-family="Arial" font-size="16" space="preserve" font-weight="bold"><text fill="#000000" text-anchor="middle" dy=".4em" transform="translate(348,223)">Containers</text></g><g font-family="Arial" font-size="16" space="preserve" font-weight="bold"><text fill="#000000" text-anchor="middle" dy=".4em" transform="translate(580,212)">Attributes</text></g><g font-family="Arial" font-size="16" space="preserve" font-weight="bold"><text fill="#000000" text-anchor="middle" dy=".4em" transform="translate(580,223)">Containers</text></g></g></svg></g></svg>