<svg xmlns="http://www.w3.org/2000/svg" viewBox="0 0 1200 800" preserveAspectRatio="none" width="1200" height="800"><path d="M0,0H1200V800H0Z" style="fill: #ffffff;"></path><g><g transform="translate(120,16)"><path d="M0,0H1056V704H0Z" style="fill: #ffffff; stroke: #000000; stroke-width: 1;"></path><svg x="0" y="0" overflow="hidden" width="1056" height="704" viewBox="0 0 1056 704"><g><path d="M0,704l1055,-704" style="fill: none;"></path></g><g><path d="M0,582l1,-1h2l1,-1h3l1,-1h4l1,-1h3l1,-1h3l1,-1h3l1,-1h3l2,-1h2l1,-1h3l1,-1h3l1,-1h3l1,-1h2l2,-1h3l1,-1h3l1,-1h2l1,-1h3l1,-1h2l2,-1h3l1,-1h2l1,-1h3l1,-1h3l1,-1h2l2,-1h2l1,-1h3l1,-1h2l1,-1h3l1,-1h2l1,-1h4l1,-1h2l1,-1h2l1,-1h3l1,-1h2l1,-1h2l2,-1h2l1,-1h3l1,-1h2l1,-1h2l1,-1h2l1,-1h3l1,-1h3l1,-1h2l1,-1h2l1,-1h2l1,-1h2l1,-1h3l1,-1h2l1,-1h2l1,-1h2l1,-1h2l1,-1h2l1,-1h3l1,-1h2l1,-1h2l1,-1h2l1,-1h2l1,-1h2l1,-1h3l1,-1h1l1,-1h2l1,-1h2l1,-1h2l1,-1h2l1,-1h2l2,-1h1l1,-1h2l1,-1h2l1,-1h1l1,-1h2l1,-1h2l1,-1h3l1,-1h1l1,-1h2l1,-1h1l1,-1h2l1,-1h2l1,-1h1l1,-1h3l1,-1h1l1,-1h2l1,-1h1l1,-1h2l1,-1h1l1,-1h2l1,-1h1l2,-1h2l1,-1h1l1,-1h2l1,-1h1l1,-1h1l1,-1h2l1,-1h1l1,-1h3l1,-1h1l1,-1h1l1,-1h2l1,-1h1l1,-1h1l1,-1h1l1,-1h2l1,-1h2l1,-1h1l1,-1h1l1,-1h2l1,-1h1l1,-1h1l1,-1h1l1,-1h1l1,-1h3l1,-1h1l1,-1h1l1,-1h1l1,-1h1l1,-1h1l1,-1h1l1,-1h1l1,-1h1l1,-1h3l1,-1h1l1,-1h1l1,-1h1l1,-1h1l1,-1h1l1,-1h1l1,-1h1l1,-1h1l2,-1l1,-1h1l1,-1h1l1,-1h1l1,-1h1l1,-1h1l1,-1h1l1,-1h1l1,-1h1l1,-1h1l2,-1l1,-1h1l1,-1h1l1,-1h1l1,-1h1l1,-1h1l1,-1l1,-1h1l1,-1h1l1,-1h1l2,-1l1,-1h1l1,-1h1l1,-1h1l1,-1l1,-1h1l1,-1h1l1,-1l1,-1h1l1,-1h1l1,-1l2,-1h1l1,-1h1l1,-1l1,-1h1l1,-1h1l1,-1l1,-1h1l1,-1l1,-1h1l1,-1l1,-1h1l2,-1h1l1,-1l1,-1h1l1,-1l1,-1h1l1,-1l1,-1h1l1,-1l1,-1h1l1,-1l1,-1h1l1,-1l2,-1h1l1,-1l1,-1l1,-1h1l1,-1l1,-1h1l1,-1l1,-1l1,-1h1l1,-1l1,-1h1l1,-1l1,-1l1,-1h2l1,-1l1,-1l1,-1h1l1,-1l1,-1l1,-1h1l1,-1l1,-1l1,-1h1l1,-1l1,-1l1,-1l1,-1h1l2,-1l1,-1l1,-1l1,-1h1l1,-1l1,-1l1,-1l1,-1h1l1,-1l1,-1l1,-1l1,-1l1,-1h1l1,-1l1,-1l2,-1l1,-1l1,-1l1,-1h1l1,-1l1,-1l1,-1l1,-1l1,-1l1,-1l1,-1l1,-1l1,-1h1l1,-1l1,-1l1,-1l2,-1l1,-1l1,-1l1,-1l1,-1l1,-1l1,-1l1,-1l1,-1l1,-1l1,-1l1,-1l1,-1l1,-1l1,-1l1,-1l1,-1l1,-1l2,-1l1,-1l1,-1l1,-1l1,-1l1,-1l1,-1l1,-1l1,-1l1,-1l1,-1l1,-1l1,-1l1,-2l1,-1l1,-1l1,-1l1,-1l1,-1l2,-1l1,-1l1,-2l1,-1l1,-1l1,-1l1,-1l1,-1l1,-1l1,-2l1,-1l1,-1l1,-1l1,-1l1,-2l1,-1l1,-1l1,-1l2,-2l1,-1l1,-1l1,-1l1,-2l1,-1l1,-1l1,-2l1,-1l1,-1l1,-2l1,-1l1,-1l1,-2l1,-1l1,-1l1,-2l1,-1l2,-1l1,-2l1,-1l1,-2l1,-1l1,-1l1,-2l1,-1l1,-2l1,-1l1,-2l1,-1l1,-2l1,-1l1,-2l1,-1l1,-2l1,-1l2,-2l1,-1l1,-2l1,-1l1,-2l1,-2l1,-1l1,-2l1,-1l1,-2l1,-1l1,-2l1,-2l1,-1l1,-2l1,-2l1,-1l1,-2l2,-2l1,-1l1,-2l1,-2l1,-1l1,-2l1,-2l1,-1l1,-2l1,-2l1,-1l1,-2l1,-2l1,-2l1,-1l1,-2l1,-2l1,-1l1,-2l2,-2l1,-1l1,-2l1,-2l1,-1l1,-2l1,-2l1,-1l1,-2l1,-2l1,-1l1,-2l1,-1l1,-2l1,-1l1,-2l1,-1l1,-2l2,-1l1,-2l1,-1l1,-1l1,-2l1,-1l1,-1l1,-1l1,-1l1,-1l1,-1l1,-1l1,-1l1,-1l1,-1l1,-1l1,-1h1l2,-1l1,-1h2l1,-1h2l1,-1h5l1,1h2l1,1h1l2,1h1l1,1l1,1h1l1,1l1,1l1,1l1,1l1,1l1,1l1,1l1,1l1,1l1,2l1,1l1,1l1,2l2,1l1,1l1,2l1,1l1,2l1,1l1,2l1,1l1,2l1,1l1,2l1,2l1,1l1,2l1,2l1,1l1,2l1,2l1,1l2,2l1,2l1,1l1,2l1,2l1,1l1,2l1,2l1,1l1,2l1,2l1,2l1,1l1,2l1,2l1,1l1,2l1,2l2,1l1,2l1,2l1,1l1,2l1,2l1,1l1,2l1,2l1,1l1,2l1,1l1,2l1,2l1,1l1,2l1,1l1,2l2,1l1,2l1,1l1,2l1,1l1,2l1,1l1,2l1,1l1,2l1,1l1,2l1,1l1,2l1,1l1,2l1,1l1,1l2,2l1,1l1,2l1,1l1,1l1,2l1,1l1,1l1,2l1,1l1,1l1,2l1,1l1,1l1,1l1,2l1,1l1,1l2,2l1,1l1,1l1,1l1,2l1,1l1,1l1,1l1,1l1,2l1,1l1,1l1,1l1,1l1,1l1,2l1,1l1,1l1,1l2,1l1,1l1,1l1,2l1,1l1,1l1,1l1,1l1,1l1,1l1,1l1,1l1,1l1,1l1,1l1,1l1,2l1,1l2,1l1,1l1,1l1,1l1,1l1,1l1,1l1,1l1,1l1,1l1,1l1,1l1,1l1,1h1l1,1l1,1l1,1l2,1l1,1l1,1l1,1l1,1l1,1l1,1l1,1l1,1l1,1h1l1,1l1,1l1,1l1,1l1,1l1,1l1,1h2l1,1l1,1l1,1l1,1l1,1l1,1h1l1,1l1,1l1,1l1,1l1,1h1l1,1l1,1l1,1l1,1h2l1,1l1,1l1,1l1,1h1l1,1l1,1l1,1h1l1,1l1,1l1,1h1l1,1l1,1l1,1h1l1,1l2,1l1,1h1l1,1l1,1l1,1h1l1,1l1,1h1l1,1l1,1l1,1h1l1,1l1,1h1l1,1l2,1h1l1,1l1,1l1,1h1l1,1l1,1h1l1,1l1,1h1l1,1l1,1h1l1,1h1l1,1l2,1h1l1,1l1,1h1l1,1l1,1h1l1,1h1l1,1l1,1h1l1,1l1,1h1l1,1h1l2,1l1,1h1l1,1h1l1,1l1,1h1l1,1h1l1,1l1,1h1l1,1h1l1,1l1,1h1l2,1h1l1,1h1l1,1h1l1,1l1,1" style="stroke: #000000; stroke-width: 2; fill: none;"></path></g><g><path d="M0,460h26l1,-1h34l1,-1h20l1,-1h16l1,-1h13l1,-1h12l1,-1h10l1,-1h10l1,-1h8l1,-1h9l1,-1h7l1,-1h7l1,-1h7l1,-1h6l1,-1h6l1,-1h6l1,-1h5l1,-1h6l1,-1h5l1,-1h4l1,-1h6l1,-1h4l1,-1h4l1,-1h4l2,-1h4l1,-1h4l1,-1h4l1,-1h4l1,-1h4l1,-1h3l1,-1h3l1,-1h4l2,-1h3l1,-1h3l1,-1h3l1,-1h3l1,-1h3l1,-1h3l1,-1h3l1,-1h2l1,-1h3l1,-1h3l1,-1h3l1,-1h2l1,-1h2l1,-1h3l1,-1h2l2,-1h2l1,-1h2l1,-1h2l1,-1h2l1,-1h2l1,-1h2l2,-1h2l1,-1h2l1,-1h2l1,-1h2l1,-1h2l1,-1h1l1,-1h3l1,-1h2l1,-1h1l1,-1h2l1,-1h1l1,-1h2l1,-1h1l1,-1h3l1,-1h1l1,-1h2l1,-1h1l1,-1h2l1,-1h1l1,-1h1l1,-1h1l1,-1h3l1,-1h1l1,-1h1l1,-1h1l1,-1h2l1,-1h1l1,-1h1l1,-1h1l1,-1h2l1,-1h1l1,-1h1l1,-1h1l1,-1h1l1,-1h1l1,-1h1l1,-1h1l1,-1h1l1,-1h2l1,-1h1l1,-1h1l1,-1l1,-1h1l1,-1h1l1,-1h1l1,-1h1l1,-1l1,-1h1l1,-1h1l2,-1h1l1,-1l1,-1h1l1,-1h1l1,-1l1,-1h1l1,-1h1l1,-1l1,-1h1l1,-1l1,-1h1l2,-1h1l1,-1l1,-1h1l1,-1l1,-1h1l1,-1l1,-1h1l1,-1l1,-1h1l1,-1l1,-1l1,-1h1l2,-1l1,-1h1l1,-1l1,-1l1,-1h1l1,-1l1,-1h1l1,-1l1,-1l1,-1h1l1,-1l1,-1l1,-1l1,-1h2l1,-1l1,-1l1,-1h1l1,-1l1,-1l1,-1l1,-1l1,-1h1l1,-1l1,-1l1,-1l1,-1l1,-1h1l1,-1l2,-1l1,-1l1,-1l1,-1l1,-1l1,-1l1,-1h1l1,-1l1,-1l1,-1l1,-1l1,-1l1,-1l1,-1l1,-1l1,-1l1,-1l1,-1l2,-1l1,-1l1,-1l1,-1l1,-1l1,-1l1,-1l1,-1l1,-1l1,-1l1,-1l1,-1l1,-1l1,-1l1,-1l1,-1l1,-1l1,-1l2,-1l1,-2l1,-1l1,-1l1,-1l1,-1l1,-1l1,-1l1,-1l1,-2l1,-1l1,-1l1,-1l1,-1l1,-2l1,-1l1,-1l1,-1l2,-1l1,-2l1,-1l1,-1l1,-1l1,-2l1,-1l1,-1l1,-2l1,-1l1,-1l1,-2l1,-1l1,-1l1,-2l1,-1l1,-1l1,-2l2,-1l1,-1l1,-2l1,-1l1,-2l1,-1l1,-2l1,-1l1,-1l1,-2l1,-1l1,-2l1,-1l1,-2l1,-1l1,-2l1,-1l1,-2l2,-1l1,-2l1,-1l1,-2l1,-1l1,-2l1,-2l1,-1l1,-2l1,-1l1,-2l1,-1l1,-2l1,-2l1,-1l1,-2l1,-1l1,-2l1,-1l2,-2l1,-2l1,-1l1,-2l1,-1l1,-2l1,-1l1,-2l1,-1l1,-2l1,-1l1,-2l1,-1l1,-2l1,-1l1,-2l1,-1l1,-1l2,-2l1,-1l1,-1l1,-2l1,-1l1,-1l1,-1l1,-1l1,-1l1,-1l1,-1l1,-1l1,-1l1,-1l1,-1l1,-1h1l1,-1l2,-1h1l1,-1h1l1,-1h10l1,1h2l2,1l1,1h1l1,1l1,1l1,1h1l1,1l1,1l1,1l1,2l1,1l1,1l1,1l1,1l1,2l1,1l1,1l2,2l1,1l1,2l1,1l1,2l1,2l1,1l1,2l1,1l1,2l1,2l1,2l1,1l1,2l1,2l1,2l1,1l1,2l1,2l2,2l1,2l1,1l1,2l1,2l1,2l1,2l1,1l1,2l1,2l1,2l1,2l1,2l1,1l1,2l1,2l1,2l1,2l2,1l1,2l1,2l1,2l1,2l1,1l1,2l1,2l1,2l1,1l1,2l1,2l1,2l1,1l1,2l1,2l1,2l1,1l2,2l1,2l1,1l1,2l1,2l1,1l1,2l1,1l1,2l1,2l1,1l1,2l1,1l1,2l1,2l1,1l1,2l1,1l2,2l1,1l1,2l1,1l1,2l1,1l1,2l1,1l1,2l1,1l1,2l1,1l1,2l1,1l1,1l1,2l1,1l1,2l2,1l1,1l1,2l1,1l1,2l1,1l1,1l1,2l1,1l1,1l1,2l1,1l1,1l1,2l1,1l1,1l1,1l1,2l1,1l2,1l1,1l1,2l1,1l1,1l1,1l1,2l1,1l1,1l1,1l1,1l1,2l1,1l1,1l1,1l1,1l1,2l1,1l2,1l1,1l1,1l1,1l1,1l1,2l1,1l1,1l1,1l1,1l1,1l1,1l1,1l1,1l1,1l1,2l1,1l1,1l2,1l1,1l1,1l1,1l1,1l1,1l1,1l1,1l1,1l1,1l1,1l1,1l1,1l1,1l1,1l1,1l1,1l1,1l2,1l1,1l1,1l1,1l1,1l1,1l1,1l1,1l1,1l1,1l1,1l1,1l1,1l1,1l1,1h1l1,1l1,1l2,1l1,1l1,1l1,1l1,1l1,1l1,1l1,1h1l1,1l1,1l1,1l1,1l1,1l1,1l1,1h1l1,1l1,1l2,1l1,1l1,1l1,1h1l1,1l1,1l1,1l1,1l1,1h1l1,1l1,1l1,1l1,1h1l1,1l1,1l2,1l1,1h1l1,1l1,1l1,1l1,1h1l1,1l1,1l1,1l1,1h1l1,1l1,1l1,1h1l1,1l2,1l1,1h1l1,1l1,1l1,1h1l1,1l1,1l1,1h1l1,1l1,1l1,1h1l1,1l1,1h1l2,1l1,1l1,1h1l1,1l1,1h1l1,1l1,1h1l1,1l1,1l1,1h1l1,1l1,1h1l1,1l2,1h1l1,1l1,1h1l1,1l1,1h1" style="stroke: #0000ff; stroke-width: 2; fill: none;"></path></g></svg><g><g transform="translate(0,704)"><path d="M0,0h1056M0,-704h1056M0,-21V0M41,-11V0M81,-11V0M122,-11V0M162,-21V0M203,-11V0M243,-11V0M284,-11V0M325,-21V0M365,-11V0M406,-11V0M446,-11V0M487,-21V0M527,-11V0M568,-11V0M609,-11V0M649,-21V0M690,-11V0M730,-11V0M771,-11V0M811,-21V0M852,-11V0M893,-11V0M933,-11V0M974,-21V0M1014,-11V0M1055,-11V0M0,-683V-704M41,-693V-704M81,-693V-704M122,-693V-704M162,-683V-704M203,-693V-704M243,-693V-704M284,-693V-704M325,-683V-704M365,-693V-704M406,-693V-704M446,-693V-704M487,-683V-704M527,-693V-704M568,-693V-704M609,-693V-704M649,-683V-704M690,-693V-704M730,-693V-704M771,-693V-704M811,-683V-704M852,-693V-704M893,-693V-704M933,-693V-704M974,-683V-704M1014,-693V-704M1055,-693V-704" style="stroke: #000000; stroke-width: 1;"></path><g font-family="Arial" font-size="32" space="preserve" fill="#000000" text-anchor="middle"><text dy=".8em" transform="translate(0,5)">0</text><text dy=".8em" transform="translate(162,5)">2000</text><text dy=".8em" transform="translate(325,5)">4000</text><text dy=".8em" transform="translate(487,5)">6000</text><text dy=".8em" transform="translate(649,5)">8000</text><text dy=".8em" transform="translate(811,5)">10000</text><text dy=".8em" transform="translate(974,5)">12000</text></g><g font-family="Arial" font-size="32" space="preserve" transform="translate(1056,51)"><text fill="#000000" text-anchor="end" dy=".4em">E [GeV]</text></g></g><g><path d="M0,0v704M1056,0v704M16,699H0M16,687H0M16,677H0M32,667H0M16,606H0M16,570H0M16,545H0M16,525H0M16,509H0M16,495H0M16,483H0M16,473H0M32,464H0M16,402H0M16,367H0M16,341H0M16,322H0M16,305H0M16,292H0M16,280H0M16,270H0M32,260H0M16,199H0M16,163H0M16,138H0M16,118H0M16,102H0M16,88H0M16,77H0M16,66H0M32,57H0M1040,699H1056M1040,687H1056M1040,677H1056M1024,667H1056M1040,606H1056M1040,570H1056M1040,545H1056M1040,525H1056M1040,509H1056M1040,495H1056M1040,483H1056M1040,473H1056M1024,464H1056M1040,402H1056M1040,367H1056M1040,341H1056M1040,322H1056M1040,305H1056M1040,292H1056M1040,280H1056M1040,270H1056M1024,260H1056M1040,199H1056M1040,163H1056M1040,138H1056M1040,118H1056M1040,102H1056M1040,88H1056M1040,77H1056M1040,66H1056M1024,57H1056" style="stroke: #000000; stroke-width: 1;"></path><g font-family="Arial" font-size="32" space="preserve"><g transform="translate(-58,681)"><text fill="#000000" font-size="32">10</text><text fill="#000000" font-size="19" transform="translate(35,-17)">-6</text></g><g transform="translate(-58,478)"><text fill="#000000" font-size="32">10</text><text fill="#000000" font-size="19" transform="translate(35,-17)">-5</text></g><g transform="translate(-58,274)"><text fill="#000000" font-size="32">10</text><text fill="#000000" font-size="19" transform="translate(35,-17)">-4</text></g><g transform="translate(-58,71)"><text fill="#000000" font-size="32">10</text><text fill="#000000" font-size="19" transform="translate(35,-17)">-3</text></g></g><g font-family="Arial" font-size="32" space="preserve" transform="translate(-100)"><text fill="#000000" text-anchor="end" dy=".4em" transform="rotate(270)">Events</text></g></g></g></g><g transform="translate(756,40)" font-family="Arial" font-size="32" space="preserve"><path d="M10,21H77" style="stroke: #000000; stroke-width: 2;"></path><text fill="#000000" text-anchor="start" dy=".4em" transform="translate(87,21)">NonRel BW</text><path d="M10,59H77" style="stroke: #0000ff; stroke-width: 2;"></path><text fill="#000000" text-anchor="start" dy=".4em" transform="translate(87,59)">Rel BW</text></g><g font-family="Arial" font-size="29" space="preserve"><text fill="#000000" text-anchor="start" transform="translate(276,600)">Comparing BW</text></g><g font-family="Arial" font-size="29" space="preserve"><text fill="#000000" text-anchor="start" transform="translate(276,630)">M = 9000 GeV</text></g><g font-family="Arial" font-size="29" space="preserve"><g transform="translate(276,659)"><text fill="#000000" font-size="29">Γ = 1350 GeV</text></g></g></g></svg>