<svg xmlns="http://www.w3.org/2000/svg" viewBox="0 0 1200 800" preserveAspectRatio="none" width="1200" height="800"><path d="M0,0H1200V800H0Z" style="fill: #ffffff;"></path><g><g transform="translate(120,16)"><path d="M0,0H1056V704H0Z" style="fill: #ffffff; stroke: #000000; stroke-width: 1;"></path><svg x="0" y="0" overflow="hidden" width="1056" height="704" viewBox="0 0 1056 704"><g><path d="M0,704l1055,-704" style="fill: none;"></path></g><g><path d="M0,582l1,-1h2l1,-1h3l1,-1h4l1,-1h3l1,-1h3l1,-1h3l1,-1h3l2,-1h2l1,-1h3l1,-1h3l1,-1h3l1,-1h2l2,-1h3l1,-1h3l1,-1h2l1,-1h3l1,-1h2l2,-1h3l1,-1h2l1,-1h3l1,-1h3l1,-1h2l2,-1h2l1,-1h3l1,-1h2l1,-1h3l1,-1h2l1,-1h4l1,-1h2l1,-1h2l1,-1h3l1,-1h2l1,-1h2l2,-1h2l1,-1h3l1,-1h2l1,-1h2l1,-1h2l1,-1h3l1,-1h3l1,-1h2l1,-1h2l1,-1h2l1,-1h2l1,-1h3l1,-1h2l1,-1h2l1,-1h2l1,-1h2l1,-1h2l1,-1h3l1,-1h2l1,-1h2l1,-1h2l1,-1h2l1,-1h2l1,-1h3l1,-1h1l1,-1h2l1,-1h2l1,-1h2l1,-1h2l1,-1h2l2,-1h1l1,-1h2l1,-1h2l1,-1h1l1,-1h2l1,-1h2l1,-1h3l1,-1h1l1,-1h2l1,-1h1l1,-1h2l1,-1h2l1,-1h1l1,-1h3l1,-1h1l1,-1h2l1,-1h1l1,-1h2l1,-1h1l1,-1h2l1,-1h1l2,-1h2l1,-1h1l1,-1h2l1,-1h1l1,-1h1l1,-1h2l1,-1h1l1,-1h3l1,-1h1l1,-1h1l1,-1h2l1,-1h1l1,-1h1l1,-1h1l1,-1h2l1,-1h2l1,-1h1l1,-1h1l1,-1h2l1,-1h1l1,-1h1l1,-1h1l1,-1h1l1,-1h3l1,-1h1l1,-1h1l1,-1h1l1,-1h1l1,-1h1l1,-1h1l1,-1h1l1,-1h1l1,-1h3l1,-1h1l1,-1h1l1,-1h1l1,-1h1l1,-1h1l1,-1h1l1,-1h1l1,-1h1l2,-1l1,-1h1l1,-1h1l1,-1h1l1,-1h1l1,-1h1l1,-1h1l1,-1h1l1,-1h1l1,-1h1l2,-1l1,-1h1l1,-1h1l1,-1h1l1,-1h1l1,-1h1l1,-1l1,-1h1l1,-1h1l1,-1h1l2,-1l1,-1h1l1,-1h1l1,-1h1l1,-1l1,-1h1l1,-1h1l1,-1l1,-1h1l1,-1h1l1,-1l2,-1h1l1,-1h1l1,-1l1,-1h1l1,-1h1l1,-1l1,-1h1l1,-1l1,-1h1l1,-1l1,-1h1l2,-1h1l1,-1l1,-1h1l1,-1l1,-1h1l1,-1l1,-1h1l1,-1l1,-1h1l1,-1l1,-1h1l1,-1l2,-1h1l1,-1l1,-1l1,-1h1l1,-1l1,-1h1l1,-1l1,-1l1,-1h1l1,-1l1,-1h1l1,-1l1,-1l1,-1h2l1,-1l1,-1l1,-1h1l1,-1l1,-1l1,-1h1l1,-1l1,-1l1,-1h1l1,-1l1,-1l1,-1l1,-1h1l2,-1l1,-1l1,-1l1,-1h1l1,-1l1,-1l1,-1l1,-1h1l1,-1l1,-1l1,-1l1,-1l1,-1h1l1,-1l1,-1l2,-1l1,-1l1,-1l1,-1h1l1,-1l1,-1l1,-1l1,-1l1,-1l1,-1l1,-1l1,-1l1,-1h1l1,-1l1,-1l1,-1l2,-1l1,-1l1,-1l1,-1l1,-1l1,-1l1,-1l1,-1l1,-1l1,-1l1,-1l1,-1l1,-1l1,-1l1,-1l1,-1l1,-1l1,-1l2,-1l1,-1l1,-1l1,-1l1,-1l1,-1l1,-1l1,-1l1,-1l1,-1l1,-1l1,-1l1,-1l1,-2l1,-1l1,-1l1,-1l1,-1l1,-1l2,-1l1,-1l1,-2l1,-1l1,-1l1,-1l1,-1l1,-1l1,-1l1,-2l1,-1l1,-1l1,-1l1,-1l1,-2l1,-1l1,-1l1,-1l2,-2l1,-1l1,-1l1,-1l1,-2l1,-1l1,-1l1,-2l1,-1l1,-1l1,-2l1,-1l1,-1l1,-2l1,-1l1,-1l1,-2l1,-1l2,-1l1,-2l1,-1l1,-2l1,-1l1,-1l1,-2l1,-1l1,-2l1,-1l1,-2l1,-1l1,-2l1,-1l1,-2l1,-1l1,-2l1,-1l2,-2l1,-1l1,-2l1,-1l1,-2l1,-2l1,-1l1,-2l1,-1l1,-2l1,-1l1,-2l1,-2l1,-1l1,-2l1,-2l1,-1l1,-2l2,-2l1,-1l1,-2l1,-2l1,-1l1,-2l1,-2l1,-1l1,-2l1,-2l1,-1l1,-2l1,-2l1,-2l1,-1l1,-2l1,-2l1,-1l1,-2l2,-2l1,-1l1,-2l1,-2l1,-1l1,-2l1,-2l1,-1l1,-2l1,-2l1,-1l1,-2l1,-1l1,-2l1,-1l1,-2l1,-1l1,-2l2,-1l1,-2l1,-1l1,-1l1,-2l1,-1l1,-1l1,-1l1,-1l1,-1l1,-1l1,-1l1,-1l1,-1l1,-1l1,-1l1,-1h1l2,-1l1,-1h2l1,-1h2l1,-1h5l1,1h2l1,1h1l2,1h1l1,1l1,1h1l1,1l1,1l1,1l1,1l1,1l1,1l1,1l1,1l1,1l1,2l1,1l1,1l1,2l2,1l1,1l1,2l1,1l1,2l1,1l1,2l1,1l1,2l1,1l1,2l1,2l1,1l1,2l1,2l1,1l1,2l1,2l1,1l2,2l1,2l1,1l1,2l1,2l1,1l1,2l1,2l1,1l1,2l1,2l1,2l1,1l1,2l1,2l1,1l1,2l1,2l2,1l1,2l1,2l1,1l1,2l1,2l1,1l1,2l1,2l1,1l1,2l1,1l1,2l1,2l1,1l1,2l1,1l1,2l2,1l1,2l1,1l1,2l1,1l1,2l1,1l1,2l1,1l1,2l1,1l1,2l1,1l1,2l1,1l1,2l1,1l1,1l2,2l1,1l1,2l1,1l1,1l1,2l1,1l1,1l1,2l1,1l1,1l1,2l1,1l1,1l1,1l1,2l1,1l1,1l2,2l1,1l1,1l1,1l1,2l1,1l1,1l1,1l1,1l1,2l1,1l1,1l1,1l1,1l1,1l1,2l1,1l1,1l1,1l2,1l1,1l1,1l1,2l1,1l1,1l1,1l1,1l1,1l1,1l1,1l1,1l1,1l1,1l1,1l1,1l1,2l1,1l2,1l1,1l1,1l1,1l1,1l1,1l1,1l1,1l1,1l1,1l1,1l1,1l1,1l1,1h1l1,1l1,1l1,1l2,1l1,1l1,1l1,1l1,1l1,1l1,1l1,1l1,1l1,1h1l1,1l1,1l1,1l1,1l1,1l1,1l1,1h2l1,1l1,1l1,1l1,1l1,1l1,1h1l1,1l1,1l1,1l1,1l1,1h1l1,1l1,1l1,1l1,1h2l1,1l1,1l1,1l1,1h1l1,1l1,1l1,1h1l1,1l1,1l1,1h1l1,1l1,1l1,1h1l1,1l2,1l1,1h1l1,1l1,1l1,1h1l1,1l1,1h1l1,1l1,1l1,1h1l1,1l1,1h1l1,1l2,1h1l1,1l1,1l1,1h1l1,1l1,1h1l1,1l1,1h1l1,1l1,1h1l1,1h1l1,1l2,1h1l1,1l1,1h1l1,1l1,1h1l1,1h1l1,1l1,1h1l1,1l1,1h1l1,1h1l2,1l1,1h1l1,1h1l1,1l1,1h1l1,1h1l1,1l1,1h1l1,1h1l1,1l1,1h1l2,1h1l1,1h1l1,1h1l1,1l1,1" style="stroke: #000000; stroke-width: 2; fill: none;"></path></g><g><path d="M0,460h26l1,-1h34l1,-1h20l1,-1h16l1,-1h13l1,-1h12l1,-1h10l1,-1h10l1,-1h8l1,-1h9l1,-1h7l1,-1h7l1,-1h7l1,-1h6l1,-1h6l1,-1h6l1,-1h5l1,-1h6l1,-1h5l1,-1h4l1,-1h6l1,-1h4l1,-1h4l1,-1h4l2,-1h4l1,-1h4l1,-1h4l1,-1h4l1,-1h4l1,-1h3l1,-1h3l1,-1h4l2,-1h3l1,-1h3l1,-1h3l1,-1h3l1,-1h3l1,-1h3l1,-1h3l1,-1h2l1,-1h3l1,-1h3l1,-1h3l1,-1h2l1,-1h2l1,-1h3l1,-1h2l2,-1h2l1,-1h2l1,-1h2l1,-1h2l1,-1h2l1,-1h2l2,-1h2l1,-1h2l1,-1h2l1,-1h2l1,-1h2l1,-1h1l1,-1h3l1,-1h2l1,-1h1l1,-1h2l1,-1h1l1,-1h2l1,-1h1l1,-1h3l1,-1h1l1,-1h2l1,-1h1l1,-1h2l1,-1h1l1,-1h1l1,-1h1l1,-1h3l1,-1h1l1,-1h1l1,-1h1l1,-1h2l1,-1h1l1,-1h1l1,-1h1l1,-1h2l1,-1h1l1,-1h1l1,-1h1l1,-1h1l1,-1h1l1,-1h1l1,-1h1l1,-1h1l1,-1h2l1,-1h1l1,-1h1l1,-1l1,-1h1l1,-1h1l1,-1h1l1,-1h1l1,-1l1,-1h1l1,-1h1l2,-1h1l1,-1l1,-1h1l1,-1h1l1,-1l1,-1h1l1,-1h1l1,-1l1,-1h1l1,-1l1,-1h1l2,-1h1l1,-1l1,-1h1l1,-1l1,-1h1l1,-1l1,-1h1l1,-1l1,-1h1l1,-1l1,-1l1,-1h1l2,-1l1,-1h1l1,-1l1,-1l1,-1h1l1,-1l1,-1h1l1,-1l1,-1l1,-1h1l1,-1l1,-1l1,-1l1,-1h2l1,-1l1,-1l1,-1h1l1,-1l1,-1l1,-1l1,-1l1,-1h1l1,-1l1,-1l1,-1l1,-1l1,-1h1l1,-1l2,-1l1,-1l1,-1l1,-1l1,-1l1,-1l1,-1h1l1,-1l1,-1l1,-1l1,-1l1,-1l1,-1l1,-1l1,-1l1,-1l1,-1l1,-1l2,-1l1,-1l1,-1l1,-1l1,-1l1,-1l1,-1l1,-1l1,-1l1,-1l1,-1l1,-1l1,-1l1,-1l1,-1l1,-1l1,-1l1,-1l2,-1l1,-2l1,-1l1,-1l1,-1l1,-1l1,-1l1,-1l1,-1l1,-2l1,-1l1,-1l1,-1l1,-1l1,-2l1,-1l1,-1l1,-1l2,-1l1,-2l1,-1l1,-1l1,-1l1,-2l1,-1l1,-1l1,-2l1,-1l1,-1l1,-2l1,-1l1,-1l1,-2l1,-1l1,-1l1,-2l2,-1l1,-1l1,-2l1,-1l1,-2l1,-1l1,-2l1,-1l1,-1l1,-2l1,-1l1,-2l1,-1l1,-2l1,-1l1,-2l1,-1l1,-2l2,-1l1,-2l1,-1l1,-2l1,-1l1,-2l1,-2l1,-1l1,-2l1,-1l1,-2l1,-1l1,-2l1,-2l1,-1l1,-2l1,-1l1,-2l1,-1l2,-2l1,-2l1,-1l1,-2l1,-1l1,-2l1,-1l1,-2l1,-1l1,-2l1,-1l1,-2l1,-1l1,-2l1,-1l1,-2l1,-1l1,-1l2,-2l1,-1l1,-1l1,-2l1,-1l1,-1l1,-1l1,-1l1,-1l1,-1l1,-1l1,-1l1,-1l1,-1l1,-1l1,-1h1l1,-1l2,-1h1l1,-1h1l1,-1h10l1,1h2l2,1l1,1h1l1,1l1,1l1,1h1l1,1l1,1l1,1l1,2l1,1l1,1l1,1l1,1l1,2l1,1l1,1l2,2l1,1l1,2l1,1l1,2l1,2l1,1l1,2l1,1l1,2l1,2l1,2l1,1l1,2l1,2l1,2l1,1l1,2l1,2l2,2l1,2l1,1l1,2l1,2l1,2l1,2l1,1l1,2l1,2l1,2l1,2l1,2l1,1l1,2l1,2l1,2l1,2l2,1l1,2l1,2l1,2l1,2l1,1l1,2l1,2l1,2l1,1l1,2l1,2l1,2l1,1l1,2l1,2l1,2l1,1l2,2l1,2l1,1l1,2l1,2l1,1l1,2l1,1l1,2l1,2l1,1l1,2l1,1l1,2l1,2l1,1l1,2l1,1l2,2l1,1l1,2l1,1l1,2l1,1l1,2l1,1l1,2l1,1l1,2l1,1l1,2l1,1l1,1l1,2l1,1l1,2l2,1l1,1l1,2l1,1l1,2l1,1l1,1l1,2l1,1l1,1l1,2l1,1l1,1l1,2l1,1l1,1l1,1l1,2l1,1l2,1l1,1l1,2l1,1l1,1l1,1l1,2l1,1l1,1l1,1l1,1l1,2l1,1l1,1l1,1l1,1l1,2l1,1l2,1l1,1l1,1l1,1l1,1l1,2l1,1l1,1l1,1l1,1l1,1l1,1l1,1l1,1l1,1l1,2l1,1l1,1l2,1l1,1l1,1l1,1l1,1l1,1l1,1l1,1l1,1l1,1l1,1l1,1l1,1l1,1l1,1l1,1l1,1l1,1l2,1l1,1l1,1l1,1l1,1l1,1l1,1l1,1l1,1l1,1l1,1l1,1l1,1l1,1l1,1h1l1,1l1,1l2,1l1,1l1,1l1,1l1,1l1,1l1,1l1,1h1l1,1l1,1l1,1l1,1l1,1l1,1l1,1h1l1,1l1,1l2,1l1,1l1,1l1,1h1l1,1l1,1l1,1l1,1l1,1h1l1,1l1,1l1,1l1,1h1l1,1l1,1l2,1l1,1h1l1,1l1,1l1,1l1,1h1l1,1l1,1l1,1l1,1h1l1,1l1,1l1,1h1l1,1l2,1l1,1h1l1,1l1,1l1,1h1l1,1l1,1l1,1h1l1,1l1,1l1,1h1l1,1l1,1h1l2,1l1,1l1,1h1l1,1l1,1h1l1,1l1,1h1l1,1l1,1l1,1h1l1,1l1,1h1l1,1l2,1h1l1,1l1,1h1l1,1l1,1h1" style="stroke: #0000ff; stroke-width: 2; fill: none;"></path></g></svg><g><g transform="translate(0,704)"><path d="M0,0h1056M0,-704h1056M0,-24V0M41,-12V0M81,-12V0M122,-12V0M162,-24V0M203,-12V0M243,-12V0M284,-12V0M325,-24V0M365,-12V0M406,-12V0M446,-12V0M487,-24V0M527,-12V0M568,-12V0M609,-12V0M649,-24V0M690,-12V0M730,-12V0M771,-12V0M811,-24V0M852,-12V0M893,-12V0M933,-12V0M974,-24V0M1014,-12V0M1055,-12V0M0,-680V-704M41,-692V-704M81,-692V-704M122,-692V-704M162,-680V-704M203,-692V-704M243,-692V-704M284,-692V-704M325,-680V-704M365,-692V-704M406,-692V-704M446,-692V-704M487,-680V-704M527,-692V-704M568,-692V-704M609,-692V-704M649,-680V-704M690,-692V-704M730,-692V-704M771,-692V-704M811,-680V-704M852,-692V-704M893,-692V-704M933,-692V-704M974,-680V-704M1014,-692V-704M1055,-692V-704" style="stroke: #000000; stroke-width: 1;"></path><g font-family="Arial" font-size="32" space="preserve" fill="#000000" text-anchor="middle"><text dy=".8em" transform="translate(0,5)">0</text><text dy=".8em" transform="translate(162,5)">2000</text><text dy=".8em" transform="translate(325,5)">4000</text><text dy=".8em" transform="translate(487,5)">6000</text><text dy=".8em" transform="translate(649,5)">8000</text><text dy=".8em" transform="translate(811,5)">10000</text><text dy=".8em" transform="translate(974,5)">12000</text></g><g font-family="Arial" font-size="32" space="preserve" transform="translate(1056,51)"><text fill="#000000" text-anchor="end" dy=".4em">E [GeV]</text></g></g><g><path d="M0,0v704M1056,0v704M18,699H0M18,687H0M18,677H0M36,667H0M18,606H0M18,570H0M18,545H0M18,525H0M18,509H0M18,495H0M18,483H0M18,473H0M36,464H0M18,402H0M18,367H0M18,341H0M18,322H0M18,305H0M18,292H0M18,280H0M18,270H0M36,260H0M18,199H0M18,163H0M18,138H0M18,118H0M18,102H0M18,88H0M18,77H0M18,66H0M36,57H0M1038,699H1056M1038,687H1056M1038,677H1056M1020,667H1056M1038,606H1056M1038,570H1056M1038,545H1056M1038,525H1056M1038,509H1056M1038,495H1056M1038,483H1056M1038,473H1056M1020,464H1056M1038,402H1056M1038,367H1056M1038,341H1056M1038,322H1056M1038,305H1056M1038,292H1056M1038,280H1056M1038,270H1056M1020,260H1056M1038,199H1056M1038,163H1056M1038,138H1056M1038,118H1056M1038,102H1056M1038,88H1056M1038,77H1056M1038,66H1056M1020,57H1056" style="stroke: #000000; stroke-width: 1;"></path><g font-family="Arial" font-size="32" space="preserve"><g transform="translate(-58,681)"><text fill="#000000" font-size="32">10</text><text fill="#000000" font-size="19" transform="translate(35,-17)">-6</text></g><g transform="translate(-58,478)"><text fill="#000000" font-size="32">10</text><text fill="#000000" font-size="19" transform="translate(35,-17)">-5</text></g><g transform="translate(-58,274)"><text fill="#000000" font-size="32">10</text><text fill="#000000" font-size="19" transform="translate(35,-17)">-4</text></g><g transform="translate(-58,71)"><text fill="#000000" font-size="32">10</text><text fill="#000000" font-size="19" transform="translate(35,-17)">-3</text></g></g><g font-family="Arial" font-size="32" space="preserve" transform="translate(-100)"><text fill="#000000" text-anchor="end" dy=".4em" transform="rotate(270)">Events</text></g></g></g></g><g transform="translate(756,40)" font-family="Arial" font-size="32" space="preserve"><path d="M10,21H77" style="stroke: #000000; stroke-width: 2;"></path><text fill="#000000" text-anchor="start" dy=".4em" transform="translate(87,21)">NonRel BW</text><path d="M10,59H77" style="stroke: #0000ff; stroke-width: 2;"></path><text fill="#000000" text-anchor="start" dy=".4em" transform="translate(87,59)">Rel BW</text></g><g font-family="Arial" font-size="29" space="preserve"><text fill="#000000" text-anchor="start" transform="translate(276,600)">Comparing BW</text></g><g font-family="Arial" font-size="29" space="preserve"><text fill="#000000" text-anchor="start" transform="translate(276,630)">M = 9000 GeV</text></g><g font-family="Arial" font-size="29" space="preserve"><g transform="translate(276,659)"><text fill="#000000" font-size="29">Γ = 1350 GeV</text></g></g></g></svg>