<svg xmlns="http://www.w3.org/2000/svg" viewBox="0 0 1200 800" preserveAspectRatio="none" width="1200" height="800"><path d="M0,0H1200V800H0Z" style="fill: #ffffff;"></path><g><svg viewBox="0 0 1080 360" preserveAspectRatio="none" x="60" y="24" width="1080" height="360"><path d="M0,0H1080V360H0Z" style="fill: #c0b6ac;"></path><g><g font-family="Arial" font-size="106" space="preserve" font-weight="bold"><text fill="#ff0000" text-anchor="middle" dy=".4em" transform="translate(540,77)">ROOT</text></g><g><path d="M54,342L864,108" style="stroke: #ff0000; stroke-width: 8;"></path></g><g><path d="M648,324L972,36" style="stroke: #ff0000; stroke-width: 8;"></path></g><g><path d="M54,108L540,324" style="stroke: #ffff00; stroke-width: 4;"></path></g></g></svg><svg viewBox="0 0 1080 360" preserveAspectRatio="none" x="60" y="424" width="1080" height="360"><path d="M0,0H1080V360H0Z" style="fill: #c0b6ac;"></path></svg><svg viewBox="0 0 497 324" preserveAspectRatio="none" x="82" y="442" width="497" height="324"><path d="M0,0H497V324H0Z" style="fill: #cccccc;"></path><g><g font-family="Arial" font-size="32" space="preserve" font-weight="bold"><text fill="#000000" text-anchor="start" transform="translate(25,65)">This is pad21</text></g><g transform="translate(50,99)" font-family="Arial" font-size="19" space="preserve" font-weight="bold" fill="#000000" text-anchor="middle"><path d="M16,16h394v192h-394z" style="fill: #bc9e82; stroke: #000000; stroke-width: 1;"></path><path d="M12,12h394v192h-394z" style="fill: #bc9e82; stroke: #000000; stroke-width: 1;"></path><path d="M8,8h394v192h-394z" style="fill: #bc9e82; stroke: #000000; stroke-width: 1;"></path><path d="M4,4h394v192h-394z" style="fill: #bc9e82; stroke: #000000; stroke-width: 1;"></path><path d="M0,0H394V192H0Z" style="fill: #bc9e82; stroke: #000000; stroke-width: 1;"></path><text dy=".4em" transform="translate(197,32)">This is a PavesText</text><text dy=".4em" transform="translate(197,96)">You can add new lines</text><text dy=".4em" transform="translate(197,160)">Text formatting is automatic</text></g></g></svg><svg viewBox="0 0 497 324" preserveAspectRatio="none" x="622" y="442" width="497" height="324"><path d="M0,0H497V324H0Z" style="fill: #cccccc;"></path><g><g font-family="Arial" font-size="32" space="preserve" font-weight="bold"><text fill="#000000" text-anchor="start" transform="translate(25,65)">This is pad22</text></g><g transform="translate(49,132)" font-family="Arial" font-size="33" space="preserve" font-weight="bold"><path d="M398,3h3v65h-398v-3h395z" style="fill: #000000; stroke: #000000; stroke-width: 1px;"></path><path d="M0,0H398V65H0Z" style="fill: #b2a596; stroke: #000000; stroke-width: 1;"></path><text fill="#000000" text-anchor="middle" dy=".4em" transform="translate(199,33)">This is a PaveLabel</text></g></g></svg></g></svg>