<svg xmlns="http://www.w3.org/2000/svg" viewBox="0 0 1200 800" preserveAspectRatio="none" width="1200" height="800"><path d="M0,0H1200V800H0Z" style="fill: #ffffff;"></path><g><g transform="translate(24,336)" font-family="Arial" font-size="48" space="preserve" font-weight="bold"><path d="M216,3h3v128h-216v-3h213z" style="fill: #000000; stroke: #000000; stroke-width: 1px;"></path><path d="M0,0H216V128H0Z" style="fill: #829e8c; stroke: #000000; stroke-width: 1;"></path><text fill="#000000" text-anchor="middle" dy=".4em" transform="translate(108,64)">Compile</text></g><g transform="translate(336,320)" font-family="Arial" font-size="25" space="preserve" font-weight="bold" fill="#000000" text-anchor="middle"><path d="M444,4h4v160h-444v-4h440z" style="fill: #000000; stroke: #000000; stroke-width: 1px;"></path><path d="M0,0H444V160H0Z" style="fill: #f2f2f2; stroke: #000000; stroke-width: 1;"></path><text dy=".4em" transform="translate(222,40)">Substitute some operators</text><text dy=".4em" transform="translate(222,120)">to C++ style</text></g><g transform="translate(876,336)" font-family="Arial" font-size="67" space="preserve" font-weight="bold"><path d="M300,3h3v128h-300v-3h297z" style="fill: #000000; stroke: #000000; stroke-width: 1px;"></path><path d="M0,0H300V128H0Z" style="fill: #ddba87; stroke: #000000; stroke-width: 1;"></path><text fill="#000000" text-anchor="middle" dy=".4em" transform="translate(150,64)">Analyze</text></g><g><path d="M240,400L308,400M308,410l16,-9l-16,-9z" style="stroke: #0000ff; stroke-width: 6; fill: #000000;"></path></g><g><path d="M780,400L848,400M848,410l16,-9l-16,-9z" style="stroke: #0000ff; stroke-width: 6; fill: #000000;"></path></g></g></svg>