<svg xmlns="http://www.w3.org/2000/svg" viewBox="0 0 1200 800" preserveAspectRatio="none" width="1200" height="800"><path d="M0,0H1200V800H0Z" style="fill: #ffffff;"></path><g><svg viewBox="0 0 1176 251" preserveAspectRatio="none" x="12" y="8" width="1176" height="251"><path d="M0,0H1176V251H0Z" style="fill: #ffffff;"></path><g><g transform="translate(118,25)"><path d="M0,0H941V201H0Z" style="fill: #ffffff; stroke: #000000; stroke-width: 1;"></path><svg x="0" y="0" overflow="hidden" width="941" height="201" viewBox="0 0 941 201"><g><path d="M5,194h9h10l9,-1h10h9h9h10h9l10,-1h9h10h9h9l10,-1h9h10l9,-1h9h10l9,-1h10l9,-1l9,-1l10,-1l9,-1l10,-1l9,-1l9,-3l10,-3l9,-5l10,-6l9,-6l10,-8l9,-9l9,-9l10,-10l9,-11l10,-11l9,-11l9,-12l10,-12l9,-11l10,-10l9,-10l9,-8l10,-7l9,-6l10,-4l9,-1h10l9,1l9,4l10,6l9,7l10,8l9,10l9,10l10,11l9,12l10,12l9,11l9,11l10,11l9,10l10,9l9,9l9,8l10,6l9,6l10,6l9,4l10,4l9,3l9,2l10,3l9,1l10,2l9,1l9,1h10l9,1h10h9l9,1h10h9h10h9h9h10h9h10h9h10h9h9h10h9h10" style="fill: none; stroke: #ff0000; stroke-width: 2;"></path></g><g><path d="M5,197h9h10h9h10h9l9,-1h10h9h10h9l10,-1h9h9h10l9,-1h10h9l9,-1h10l9,-1l10,-1h9l9,-1l10,-1l9,-2l10,-1l9,-2l9,-3l10,-4l9,-5l10,-6l9,-6l10,-8l9,-9l9,-9l10,-10l9,-11l10,-11l9,-11l9,-12l10,-12l9,-11l10,-10l9,-10l9,-8l10,-7l9,-6l10,-4l9,-1h10l9,1l9,4l10,6l9,7l10,8l9,10l9,10l10,11l9,12l10,12l9,11l9,11l10,11l9,10l10,9l9,9l9,8l10,6l9,6l10,6l9,4l10,4l9,3l9,2l10,3l9,1l10,2l9,1l9,1h10l9,1h10h9l9,1h10h9h10h9h9h10h9h10h9h10h9h9h10h9h10" style="fill: none; stroke: #00ff00; stroke-width: 2;"></path></g><g><path d="M5,199h9h10h9h10h9h9h10l9,-1h10h9h10h9l9,-1h10h9l10,-1h9l9,-1h10l9,-1l10,-1h9l9,-2l10,-1l9,-1l10,-2l9,-3l9,-3l10,-4l9,-5l10,-6l9,-6l10,-8l9,-9l9,-9l10,-10l9,-11l10,-11l9,-11l9,-12l10,-12l9,-11l10,-10l9,-10l9,-8l10,-7l9,-6l10,-4l9,-1h10l9,1l9,4l10,6l9,7l10,8l9,10l9,10l10,11l9,12l10,12l9,11l9,11l10,11l9,10l10,9l9,9l9,8l10,6l9,6l10,6l9,4l10,4l9,3l9,2l10,3l9,1l10,2l9,1l9,1h10l9,1h10h9l9,1h10h9h10h9h9h10h9h10h9h10h9h9h10h9h10" style="fill: none; stroke: #0000ff; stroke-width: 2;"></path></g></svg><g><g transform="translate(0,201)"><path d="M0,0h941M0,-8V0M19,-4V0M38,-4V0M56,-4V0M75,-4V0M94,-8V0M113,-4V0M132,-4V0M151,-4V0M169,-4V0M188,-8V0M207,-4V0M226,-4V0M245,-4V0M263,-4V0M282,-8V0M301,-4V0M320,-4V0M339,-4V0M358,-4V0M376,-8V0M395,-4V0M414,-4V0M433,-4V0M452,-4V0M471,-8V0M489,-4V0M508,-4V0M527,-4V0M546,-4V0M565,-8V0M583,-4V0M602,-4V0M621,-4V0M640,-4V0M659,-8V0M678,-4V0M696,-4V0M715,-4V0M734,-4V0M753,-8V0M772,-4V0M790,-4V0M809,-4V0M828,-4V0M847,-8V0M866,-4V0M885,-4V0M903,-4V0M922,-4V0M941,-8V0" style="stroke: #000000; stroke-width: 1;"></path><g font-family="Arial" font-size="9" space="preserve" fill="#000000" text-anchor="middle"><text dy=".8em" transform="translate(0,2)">-5</text><text dy=".8em" transform="translate(94,2)">-4</text><text dy=".8em" transform="translate(188,2)">-3</text><text dy=".8em" transform="translate(282,2)">-2</text><text dy=".8em" transform="translate(376,2)">-1</text><text dy=".8em" transform="translate(471,2)">0</text><text dy=".8em" transform="translate(565,2)">1</text><text dy=".8em" transform="translate(659,2)">2</text><text dy=".8em" transform="translate(753,2)">3</text><text dy=".8em" transform="translate(847,2)">4</text><text dy=".8em" transform="translate(941,2)">5</text></g></g><g><path d="M0,0v201M35,201H0M18,197H0M18,193H0M18,189H0M18,186H0M35,182H0M18,178H0M18,174H0M18,170H0M18,166H0M35,163H0M18,159H0M18,155H0M18,151H0M18,147H0M35,143H0M18,140H0M18,136H0M18,132H0M18,128H0M35,124H0M18,120H0M18,117H0M18,113H0M18,109H0M35,105H0M18,101H0M18,97H0M18,94H0M18,90H0M35,86H0M18,82H0M18,78H0M18,74H0M18,71H0M35,67H0M18,63H0M18,59H0M18,55H0M18,51H0M35,48H0M18,44H0M18,40H0M18,36H0M18,32H0M35,28H0M18,25H0M18,21H0M18,17H0M18,13H0M35,9H0M18,5H0M18,2H0" style="stroke: #000000; stroke-width: 1;"></path><g font-family="Arial" font-size="9" space="preserve" fill="#000000" text-anchor="end"><text dy=".4em" transform="translate(-2,201)">0</text><text dy=".4em" transform="translate(-2,182)">0.1</text><text dy=".4em" transform="translate(-2,163)">0.2</text><text dy=".4em" transform="translate(-2,143)">0.3</text><text dy=".4em" transform="translate(-2,124)">0.4</text><text dy=".4em" transform="translate(-2,105)">0.5</text><text dy=".4em" transform="translate(-2,86)">0.6</text><text dy=".4em" transform="translate(-2,67)">0.7</text><text dy=".4em" transform="translate(-2,48)">0.8</text><text dy=".4em" transform="translate(-2,28)">0.9</text><text dy=".4em" transform="translate(-2,9)">1</text></g></g></g></g><g transform="translate(118,1)" font-family="Arial" font-size="13" space="preserve"><text fill="#000000" text-anchor="middle" dy=".8em" transform="translate(471)">crystalball</text></g><g transform="translate(823)" font-family="Arial" font-size="21" space="preserve"><path d="M0,0H235V100H0Z" style="fill: #ffffff; stroke: #000000; stroke-width: 1;"></path><path d="M7,19H52" style="stroke: #ff0000; stroke-width: 2;"></path><text fill="#000000" text-anchor="start" dy=".4em" transform="translate(59,19)">N=0.5 alpha=2</text><path d="M7,50H52" style="stroke: #00ff00; stroke-width: 2;"></path><text fill="#000000" text-anchor="start" dy=".4em" transform="translate(59,50)">N=1   alpha=2</text><path d="M7,81H52" style="stroke: #0000ff; stroke-width: 2;"></path><text fill="#000000" text-anchor="start" dy=".4em" transform="translate(59,82)">N=2   alpha=2</text></g></g></svg><svg viewBox="0 0 1176 251" preserveAspectRatio="none" x="12" y="274" width="1176" height="251"><path d="M0,0H1176V251H0Z" style="fill: #ffffff;"></path><g><g transform="translate(118,25)"><path d="M0,0H941V201H0Z" style="fill: #ffffff; stroke: #000000; stroke-width: 1;"></path><svg x="0" y="0" overflow="hidden" width="941" height="201" viewBox="0 0 941 201"><g><path d="M5,200h9h10h9h10h9l9,-1h10h9h10h9h10l9,-1h9h10h9l10,-1h9l9,-1h10l9,-1l10,-1l9,-1l9,-1l10,-1l9,-2l10,-2l9,-2l9,-3l10,-5l9,-5l10,-6l9,-6l10,-8l9,-9l9,-9l10,-10l9,-11l10,-11l9,-11l9,-12l10,-12l9,-11l10,-10l9,-10l9,-8l10,-7l9,-6l10,-4l9,-1h10l9,1l9,4l10,6l9,7l10,8l9,10l9,10l10,11l9,12l10,12l9,11l9,11l10,11l9,10l10,9l9,9l9,8l10,6l9,6l10,6l9,4l10,4l9,3l9,2l10,3l9,1l10,2l9,1l9,1h10l9,1h10h9l9,1h10h9h10h9h9h10h9h10h9h10h9h9h10h9h10" style="fill: none; stroke: #ff0000; stroke-width: 2;"></path></g><g><path d="M5,201h9h10h9h10h9h9h10h9h10h9h10h9h9h10h9h10l9,-1h9h10h9h10l9,-1l9,-1h10l9,-1l10,-1l9,-2l9,-1l10,-2l9,-3l10,-2l9,-3l10,-4l9,-4l9,-4l10,-4l9,-5l10,-5l9,-5l9,-5l10,-5l9,-5l10,-5l9,-4l9,-4l10,-3l9,-2l10,-2l9,-1h10l9,1l9,2l10,2l9,3l10,4l9,4l9,5l10,5l9,5l10,5l9,5l9,5l10,5l9,4l10,4l9,4l9,4l10,3l9,2l10,3l9,2l10,1l9,2l9,1l10,1h9l10,1l9,1h9h10h9l10,1h9h9h10h9h10h9h9h10h9h10h9h10h9h9h10h9h10" style="fill: none; stroke: #0000ff; stroke-width: 2;"></path></g><g><path d="M5,200h9h10h9h10h9h9h10h9h10h9l10,-1h9h9h10h9h10l9,-1h9h10h9l10,-1h9l9,-1h10l9,-1l10,-1l9,-1l9,-2l10,-2l9,-2l10,-3l9,-3l10,-4l9,-4l9,-5l10,-5l9,-5l10,-6l9,-5l9,-6l10,-6l9,-5l10,-6l9,-4l9,-4l10,-4l9,-3l10,-2h9h10h9l9,2l10,3l9,4l10,4l9,4l9,6l10,5l9,6l10,6l9,5l9,6l10,5l9,5l10,5l9,4l9,4l10,3l9,3l10,2l9,3l10,1l9,2l9,1l10,1l9,1l10,1h9l9,1h10h9l10,1h9h9h10h9h10h9h9h10h9h10h9h10h9h9h10h9h10" style="fill: none; stroke: #00ff00; stroke-width: 2;"></path></g></svg><g><g transform="translate(0,201)"><path d="M0,0h941M0,-8V0M19,-4V0M38,-4V0M56,-4V0M75,-4V0M94,-8V0M113,-4V0M132,-4V0M151,-4V0M169,-4V0M188,-8V0M207,-4V0M226,-4V0M245,-4V0M263,-4V0M282,-8V0M301,-4V0M320,-4V0M339,-4V0M358,-4V0M376,-8V0M395,-4V0M414,-4V0M433,-4V0M452,-4V0M471,-8V0M489,-4V0M508,-4V0M527,-4V0M546,-4V0M565,-8V0M583,-4V0M602,-4V0M621,-4V0M640,-4V0M659,-8V0M678,-4V0M696,-4V0M715,-4V0M734,-4V0M753,-8V0M772,-4V0M790,-4V0M809,-4V0M828,-4V0M847,-8V0M866,-4V0M885,-4V0M903,-4V0M922,-4V0M941,-8V0" style="stroke: #000000; stroke-width: 1;"></path><g font-family="Arial" font-size="9" space="preserve" fill="#000000" text-anchor="middle"><text dy=".8em" transform="translate(0,2)">-5</text><text dy=".8em" transform="translate(94,2)">-4</text><text dy=".8em" transform="translate(188,2)">-3</text><text dy=".8em" transform="translate(282,2)">-2</text><text dy=".8em" transform="translate(376,2)">-1</text><text dy=".8em" transform="translate(471,2)">0</text><text dy=".8em" transform="translate(565,2)">1</text><text dy=".8em" transform="translate(659,2)">2</text><text dy=".8em" transform="translate(753,2)">3</text><text dy=".8em" transform="translate(847,2)">4</text><text dy=".8em" transform="translate(941,2)">5</text></g></g><g><path d="M0,0v201M35,201H0M18,196H0M18,191H0M18,186H0M18,181H0M35,177H0M18,172H0M18,167H0M18,162H0M18,157H0M35,152H0M18,147H0M18,142H0M18,137H0M18,133H0M35,128H0M18,123H0M18,118H0M18,113H0M18,108H0M35,103H0M18,98H0M18,93H0M18,89H0M18,84H0M35,79H0M18,74H0M18,69H0M18,64H0M18,59H0M35,54H0M18,49H0M18,45H0M18,40H0M18,35H0M35,30H0M18,25H0M18,20H0M18,15H0M18,10H0M35,5H0M18,1H0" style="stroke: #000000; stroke-width: 1;"></path><g font-family="Arial" font-size="9" space="preserve" fill="#000000" text-anchor="end"><text dy=".4em" transform="translate(-2,201)">0</text><text dy=".4em" transform="translate(-2,177)">0.1</text><text dy=".4em" transform="translate(-2,152)">0.2</text><text dy=".4em" transform="translate(-2,128)">0.3</text><text dy=".4em" transform="translate(-2,103)">0.4</text><text dy=".4em" transform="translate(-2,79)">0.5</text><text dy=".4em" transform="translate(-2,54)">0.6</text><text dy=".4em" transform="translate(-2,30)">0.7</text><text dy=".4em" transform="translate(-2,5)">0.8</text></g></g></g></g><g transform="translate(118,1)" font-family="Arial" font-size="13" space="preserve"><text fill="#000000" text-anchor="middle" dy=".8em" transform="translate(471)">crystalballn</text></g><g transform="translate(823)" font-family="Arial" font-size="19" space="preserve"><path d="M0,0H235V100H0Z" style="fill: #ffffff; stroke: #000000; stroke-width: 1;"></path><path d="M7,19H52" style="stroke: #ff0000; stroke-width: 2;"></path><text fill="#000000" text-anchor="start" dy=".4em" transform="translate(59,19)">N=3    alpha=2</text><path d="M7,50H52" style="stroke: #0000ff; stroke-width: 2;"></path><text fill="#000000" text-anchor="start" dy=".4em" transform="translate(59,50)">N=1.01 alpha=3</text><path d="M7,81H52" style="stroke: #00ff00; stroke-width: 2;"></path><text fill="#000000" text-anchor="start" dy=".4em" transform="translate(59,82)">N=2    alpha=3</text></g></g></svg><svg viewBox="0 0 1176 251" preserveAspectRatio="none" x="12" y="541" width="1176" height="251"><path d="M0,0H1176V251H0Z" style="fill: #ffffff;"></path><g><g transform="translate(118,25)"><path d="M0,0H941V201H0Z" style="fill: #ffffff; stroke: #000000; stroke-width: 1;"></path><svg x="0" y="0" overflow="hidden" width="941" height="201" viewBox="0 0 941 201"><g><path d="M5,184h9h10l9,-1h10h9l9,-1h10h9l10,-1h9l10,-1h9l9,-1h10l9,-1l10,-1h9l9,-1l10,-1h9l10,-1l9,-1l9,-1l10,-1l9,-1l10,-1l9,-1l9,-1l10,-2l9,-1l10,-2l9,-1l10,-2l9,-2l9,-3l10,-2l9,-3l10,-3l9,-4l9,-4l10,-5l9,-4l10,-6l9,-5l9,-6l10,-6l9,-6l10,-7l9,-7l10,-6l9,-7l9,-6l10,-7l9,-6l10,-6l9,-5l9,-5l10,-5l9,-5l10,-4l9,-3l9,-3l10,-3l9,-3l10,-2l9,-2l9,-1l10,-2l9,-1l10,-1h9l10,-1h9l9,-1h10h9l10,-1h9h9h10h9h10h9h9h10h9h10h9h9h10h9h10h9h10h9h9h10h9h10" style="fill: none; stroke: #cc3333; stroke-width: 2;"></path></g><g><path d="M5,17h9h10l9,1h10h9l9,1h10h9l10,1h9l10,1h9l9,1h10l9,1l10,1h9l9,1l10,1h9l10,1l9,1l9,1l10,1l9,1l10,1l9,1l9,1l10,2l9,1l10,2l9,1l10,2l9,2l9,3l10,2l9,3l10,3l9,4l9,4l10,5l9,4l10,6l9,5l9,6l10,6l9,6l10,7l9,7l10,6l9,7l9,6l10,7l9,6l10,6l9,5l9,5l10,5l9,5l10,4l9,3l9,3l10,3l9,3l10,2l9,2l9,1l10,2l9,1l10,1h9l10,1h9l9,1h10h9l10,1h9h9h10h9h10h9h9h10h9h10h9h9h10h9h10h9h10h9h9h10h9h10" style="fill: none; stroke: #ff00ff; stroke-width: 2;"></path></g></svg><g><g transform="translate(0,201)"><path d="M0,0h941M0,-8V0M19,-4V0M38,-4V0M56,-4V0M75,-4V0M94,-8V0M113,-4V0M132,-4V0M151,-4V0M169,-4V0M188,-8V0M207,-4V0M226,-4V0M245,-4V0M263,-4V0M282,-8V0M301,-4V0M320,-4V0M339,-4V0M358,-4V0M376,-8V0M395,-4V0M414,-4V0M433,-4V0M452,-4V0M471,-8V0M489,-4V0M508,-4V0M527,-4V0M546,-4V0M565,-8V0M583,-4V0M602,-4V0M621,-4V0M640,-4V0M659,-8V0M678,-4V0M696,-4V0M715,-4V0M734,-4V0M753,-8V0M772,-4V0M790,-4V0M809,-4V0M828,-4V0M847,-8V0M866,-4V0M885,-4V0M903,-4V0M922,-4V0M941,-8V0" style="stroke: #000000; stroke-width: 1;"></path><g font-family="Arial" font-size="9" space="preserve" fill="#000000" text-anchor="middle"><text dy=".8em" transform="translate(0,2)">-5</text><text dy=".8em" transform="translate(94,2)">-4</text><text dy=".8em" transform="translate(188,2)">-3</text><text dy=".8em" transform="translate(282,2)">-2</text><text dy=".8em" transform="translate(376,2)">-1</text><text dy=".8em" transform="translate(471,2)">0</text><text dy=".8em" transform="translate(565,2)">1</text><text dy=".8em" transform="translate(659,2)">2</text><text dy=".8em" transform="translate(753,2)">3</text><text dy=".8em" transform="translate(847,2)">4</text><text dy=".8em" transform="translate(941,2)">5</text></g></g><g><path d="M0,0v201M35,201H0M18,197H0M18,193H0M18,189H0M18,185H0M35,181H0M18,177H0M18,173H0M18,169H0M18,165H0M35,161H0M18,157H0M18,153H0M18,149H0M18,145H0M35,141H0M18,137H0M18,133H0M18,129H0M18,125H0M35,121H0M18,117H0M18,113H0M18,109H0M18,105H0M35,101H0M18,96H0M18,92H0M18,88H0M18,84H0M35,80H0M18,76H0M18,72H0M18,68H0M18,64H0M35,60H0M18,56H0M18,52H0M18,48H0M18,44H0M35,40H0M18,36H0M18,32H0M18,28H0M18,24H0M35,20H0M18,16H0M18,12H0M18,8H0M18,4H0M35,0H0" style="stroke: #000000; stroke-width: 1;"></path><g font-family="Arial" font-size="9" space="preserve" fill="#000000" text-anchor="end"><text dy=".4em" transform="translate(-2,201)">0</text><text dy=".4em" transform="translate(-2,181)">0.1</text><text dy=".4em" transform="translate(-2,161)">0.2</text><text dy=".4em" transform="translate(-2,141)">0.3</text><text dy=".4em" transform="translate(-2,121)">0.4</text><text dy=".4em" transform="translate(-2,101)">0.5</text><text dy=".4em" transform="translate(-2,80)">0.6</text><text dy=".4em" transform="translate(-2,60)">0.7</text><text dy=".4em" transform="translate(-2,40)">0.8</text><text dy=".4em" transform="translate(-2,20)">0.9</text><text dy=".4em" transform="translate(-2)">1</text></g></g></g></g><g transform="translate(118,1)" font-family="Arial" font-size="13" space="preserve"><text fill="#000000" text-anchor="middle" dy=".8em" transform="translate(471)">ROOT::Math::crystalball_cdf(x, 1.2, 2, 1, 0)</text></g><g transform="translate(823)" font-family="Arial" font-size="21" space="preserve"><path d="M0,0H235V75H0Z" style="fill: #ffffff; stroke: #000000; stroke-width: 1;"></path><path d="M7,20H52" style="stroke: #cc3333; stroke-width: 2;"></path><text fill="#000000" text-anchor="start" dy=".4em" transform="translate(59,20)">N=1.2 alpha=2</text><path d="M7,55H52" style="stroke: #ff00ff; stroke-width: 2;"></path><text fill="#000000" text-anchor="start" dy=".4em" transform="translate(59,56)">N=1.2 alpha=2</text></g></g></svg></g></svg>