<svg xmlns="http://www.w3.org/2000/svg" viewBox="0 0 1200 800" preserveAspectRatio="none" width="1200" height="800"><defs><pattern id="pat_3005_0" patternUnits="userSpaceOnUse" width="8" height="8"><path d="M0,0L8,8" style="stroke: #ffffff; stroke-width: 1;"></path></pattern><pattern id="pat_3004_9" patternUnits="userSpaceOnUse" width="8" height="8"><path d="M8,0L0,8" style="stroke: #5954d8; stroke-width: 1;"></path></pattern><pattern id="pat_3002_2" patternUnits="userSpaceOnUse" width="4" height="2"><path d="M1,0h1v1h-1zM3,1h1v1h-1z" style="fill: #ff0000;"></path></pattern></defs><path d="M0,0H1200V800H0Z" style="fill: #ffffff;"></path><g><g transform="translate(120,80)"><path d="M0,0H960V640H0Z" style="fill: #ffffff; stroke: #000000; stroke-width: 1;"></path><svg x="0" y="0" overflow="hidden" width="960" height="640" viewBox="0 0 960 640"><g><path d="M43.64,320.11C48.1,314.82,57.06,304.21,66.01,293.7S79.44,277.91,88.39,267.55S101.82,252.02,110.77,241.93S124.2,226.81,133.15,217.08S146.57,202.54,155.52,193.27S168.95,179.44,177.9,170.72S191.33,157.75,200.28,149.67S213.71,137.68,222.66,130.32S236.08,119.43,245.03,112.86S258.46,103.19,267.41,97.48S280.84,89.11,289.79,84.32S303.22,77.35,312.17,73.52S325.59,68.01,334.55,65.18S347.97,61.18,356.92,59.39S370.35,56.95,379.3,56.2S392.73,55.34,401.68,55.65S415.1,56.38,424.06,57.74S437.48,60.06,446.43,62.46S459.86,66.33,468.81,69.74S482.24,75.14,491.19,79.54S504.62,86.39,513.57,91.73S526.99,99.99,535.94,106.2S549.37,115.78,558.32,122.82S571.75,133.61,580.7,141.4S594.13,153.31,603.08,161.77S616.5,174.67,625.45,183.72S638.88,197.49,647.83,207.04S661.26,221.53,670.21,231.48S683.64,246.56,692.59,256.81S706.01,272.32,714.97,282.78S728.39,298.56,737.34,309.11S750.77,325.01,759.72,335.56S773.15,351.42,782.1,361.85S799.98,382.57,804.48,387.72L861.01,338.44C856.59,333.37,847.84,323.3,839.02,313.01S825.8,297.51,816.9,287.03S803.54,271.21,794.55,260.61S781.04,244.63,771.95,234.01S758.29,218.04,749.1,207.51S735.29,191.69,725.98,181.34S712,165.82,702.56,155.76S688.38,140.69,678.79,130.99S664.38,116.51,654.61,107.28S639.92,93.51,629.94,84.83S614.93,71.91,604.68,63.86S589.28,51.92,578.73,44.61S562.85,33.78,551.96,27.3S535.54,17.74,524.26,12.22S507.23,4.11,495.55,-0.33S477.9,-6.77,465.86,-9.98S447.65,-14.54,435.33,-16.4S416.72,-18.88,404.26,-19.31S385.48,-19.57,373.06,-18.54S354.39,-16.59,342.17,-14.15S323.86,-10.08,311.96,-6.34S294.19,-0.35,282.67,4.56S265.51,12.26,254.39,18.2S237.83,27.41,227.08,34.25S211.08,44.77,200.67,52.39S185.15,64.07,175.02,72.39S159.91,85.08,150.02,94S135.26,107.57,125.57,117S111.09,131.32,101.57,141.18S87.33,156.11,77.95,166.31S63.91,181.73,54.66,192.16S40.8,207.92,31.65,218.5S17.98,234.42,8.91,245.08S-9.2,266.42,-13.71,271.78Z" style="fill: url(#pat_3005_0); opacity: 0.75;"></path><path d="M43.64,320.11C48.1,314.82,57.06,304.21,66.01,293.7S79.44,277.91,88.39,267.55S101.82,252.02,110.77,241.93S124.2,226.81,133.15,217.08S146.57,202.54,155.52,193.27S168.95,179.44,177.9,170.72S191.33,157.75,200.28,149.67S213.71,137.68,222.66,130.32S236.08,119.43,245.03,112.86S258.46,103.19,267.41,97.48S280.84,89.11,289.79,84.32S303.22,77.35,312.17,73.52S325.59,68.01,334.55,65.18S347.97,61.18,356.92,59.39S370.35,56.95,379.3,56.2S392.73,55.34,401.68,55.65S415.1,56.38,424.06,57.74S437.48,60.06,446.43,62.46S459.86,66.33,468.81,69.74S482.24,75.14,491.19,79.54S504.62,86.39,513.57,91.73S526.99,99.99,535.94,106.2S549.37,115.78,558.32,122.82S571.75,133.61,580.7,141.4S594.13,153.31,603.08,161.77S616.5,174.67,625.45,183.72S638.88,197.49,647.83,207.04S661.26,221.53,670.21,231.48S683.64,246.56,692.59,256.81S706.01,272.32,714.97,282.78S728.39,298.56,737.34,309.11S750.77,325.01,759.72,335.56S773.15,351.42,782.1,361.85S799.98,382.57,804.48,387.72" style="stroke: #ff0000; stroke-width: 4; fill: none;"></path></g><g><path d="M43.64,55.54C48.12,55.54,57.06,55.8,66.01,56.86S79.44,58.71,88.39,60.81S101.82,64.23,110.77,67.35S124.2,72.31,133.15,76.42S146.57,82.86,155.52,87.93S168.95,95.78,177.9,101.75S191.33,110.95,200.28,117.75S213.71,128.2,222.66,135.78S236.08,147.37,245.03,155.65S258.46,168.27,267.41,177.16S280.84,190.69,289.79,200.1S303.22,214.4,312.17,224.24S325.59,239.16,334.55,249.34S347.97,264.73,356.92,275.14S370.35,290.86,379.3,301.4S392.73,317.28,401.68,327.84S415.1,343.73,424.06,354.2S437.48,369.94,446.43,380.23S459.86,395.65,468.81,405.65S482.24,420.61,491.19,430.22S504.62,444.56,513.57,453.69S526.99,467.28,535.94,475.82S549.37,488.52,558.32,496.4S571.75,508.08,580.7,515.21S594.13,525.76,603.08,532.08S616.5,541.38,625.45,546.83S638.88,554.8,647.83,559.31S661.26,565.87,670.21,569.4S683.64,574.48,692.59,577.01S706.01,580.55,714.97,582.04S728.39,584.02,737.34,584.46S750.77,584.86,759.72,584.24S773.15,583.05,782.1,581.38S800.07,577.25,804.48,575.91L835.06,676.35C828.41,678.38,814.94,682.08,801.32,684.6S780.76,688.05,766.94,688.99S746.04,690.01,732.2,689.34S711.34,687.87,697.71,685.62S677.27,681.77,664.05,678.06S644.3,672.05,631.6,667.05S612.69,659.16,600.54,653.06S582.48,643.57,570.87,636.53S553.62,625.68,542.49,617.84S525.95,605.84,515.24,597.31S499.3,584.32,488.95,575.21S473.52,561.38,463.45,551.78S448.45,537.23,438.63,527.23S423.98,512.1,414.37,501.79S400.01,486.22,390.58,475.69S376.49,459.8,367.22,449.14S353.35,433.09,344.22,422.41S330.57,406.34,321.58,395.73S308.13,379.8,299.27,369.37S286.02,353.74,277.3,343.6S264.26,328.42,255.69,318.67S242.87,304.11,234.47,294.87S221.9,281.09,213.69,272.45S201.41,259.6,193.42,251.66S181.47,239.9,173.75,232.75S162.21,222.2,154.81,215.91S143.75,206.69,136.72,201.34S126.25,193.53,119.67,189.12S109.89,182.77,103.81,179.31S94.82,174.39,89.29,171.83S81.16,168.25,76.19,166.5S68.91,164.11,64.42,163.04S57.9,161.64,53.73,161.14S45.6,160.53,43.56,160.54Z" style="fill: url(#pat_3004_9); opacity: 0.75;"></path><path d="M43.64,55.54C48.12,55.54,57.06,55.8,66.01,56.86S79.44,58.71,88.39,60.81S101.82,64.23,110.77,67.35S124.2,72.31,133.15,76.42S146.57,82.86,155.52,87.93S168.95,95.78,177.9,101.75S191.33,110.95,200.28,117.75S213.71,128.2,222.66,135.78S236.08,147.37,245.03,155.65S258.46,168.27,267.41,177.16S280.84,190.69,289.79,200.1S303.22,214.4,312.17,224.24S325.59,239.16,334.55,249.34S347.97,264.73,356.92,275.14S370.35,290.86,379.3,301.4S392.73,317.28,401.68,327.84S415.1,343.73,424.06,354.2S437.48,369.94,446.43,380.23S459.86,395.65,468.81,405.65S482.24,420.61,491.19,430.22S504.62,444.56,513.57,453.69S526.99,467.28,535.94,475.82S549.37,488.52,558.32,496.4S571.75,508.08,580.7,515.21S594.13,525.76,603.08,532.08S616.5,541.38,625.45,546.83S638.88,554.8,647.83,559.31S661.26,565.87,670.21,569.4S683.64,574.48,692.59,577.01S706.01,580.55,714.97,582.04S728.39,584.02,737.34,584.46S750.77,584.86,759.72,584.24S773.15,583.05,782.1,581.38S800.07,577.25,804.48,575.91" style="stroke: #0000ff; stroke-width: 2; fill: none;"></path></g><g><path d="M155.52,373.03C159.99,367.74,168.95,357.13,177.9,346.62S191.33,330.82,200.28,320.47S213.71,304.94,222.66,294.84S236.08,279.73,245.03,270S258.46,255.46,267.41,246.18S280.84,232.36,289.79,223.64S303.22,210.67,312.17,202.58S325.59,190.59,334.55,183.23S347.97,172.35,356.92,165.78S370.35,156.1,379.3,150.4S392.73,142.03,401.68,137.24S415.1,130.26,424.06,126.43S437.48,120.92,446.43,118.09S459.86,114.1,468.81,112.3S482.24,109.86,491.19,109.12S504.62,108.26,513.57,108.57S526.99,109.3,535.94,110.66S549.37,112.97,558.32,115.37S571.75,119.24,580.7,122.66S594.13,128.05,603.08,132.45S616.5,139.31,625.45,144.64S638.88,152.9,647.83,159.12S661.26,168.69,670.21,175.73S683.64,186.53,692.59,194.32S706.01,206.22,714.97,214.69S728.39,227.59,737.34,236.64S750.77,250.4,759.72,259.95S773.15,274.44,782.1,284.4S795.52,299.47,804.48,309.73S817.9,325.23,826.85,335.69S840.28,351.47,849.23,362.03S862.66,377.93,871.61,388.47S885.03,404.33,893.99,414.77S911.87,435.48,916.36,440.64L882.44,470.21C877.9,465,868.86,454.59,859.83,444.07S846.28,428.18,837.3,417.59S823.84,401.66,814.91,391.13S801.53,375.31,792.66,364.95S779.37,349.41,770.57,339.32S757.37,324.21,748.64,314.49S735.54,299.97,726.88,290.73S713.91,276.95,705.34,268.28S692.51,255.39,684.05,247.38S671.37,235.52,663.04,228.26S650.57,217.54,642.39,211.1S630.15,201.64,622.16,196.08S610.2,187.95,602.42,183.3S590.79,176.56,583.24,172.84S571.97,167.5,564.66,164.7S553.76,160.75,546.67,158.84S536.11,156.21,529.18,155.15S518.87,153.78,512.02,153.54S501.8,153.38,494.93,153.96S484.65,155.01,477.66,156.42S467.16,158.73,459.98,161.01S449.17,164.63,441.75,167.81S430.57,172.8,422.92,176.91S411.37,183.31,403.5,188.34S391.62,196.13,383.54,202.06S371.37,211.21,363.13,217.99S350.71,228.41,342.32,235.99S329.7,247.58,321.19,255.87S308.4,268.52,299.79,277.44S286.85,291.01,278.16,300.46S265.09,314.81,256.33,324.7S243.16,339.68,234.32,349.89S221.04,365.36,212.16,375.79S194.36,396.77,189.93,402.03Z" style="fill: url(#pat_3002_2); opacity: 0.75;"></path><path d="M155.52,373.03C159.99,367.74,168.95,357.13,177.9,346.62S191.33,330.82,200.28,320.47S213.71,304.94,222.66,294.84S236.08,279.73,245.03,270S258.46,255.46,267.41,246.18S280.84,232.36,289.79,223.64S303.22,210.67,312.17,202.58S325.59,190.59,334.55,183.23S347.97,172.35,356.92,165.78S370.35,156.1,379.3,150.4S392.73,142.03,401.68,137.24S415.1,130.26,424.06,126.43S437.48,120.92,446.43,118.09S459.86,114.1,468.81,112.3S482.24,109.86,491.19,109.12S504.62,108.26,513.57,108.57S526.99,109.3,535.94,110.66S549.37,112.97,558.32,115.37S571.75,119.24,580.7,122.66S594.13,128.05,603.08,132.45S616.5,139.31,625.45,144.64S638.88,152.9,647.83,159.12S661.26,168.69,670.21,175.73S683.64,186.53,692.59,194.32S706.01,206.22,714.97,214.69S728.39,227.59,737.34,236.64S750.77,250.4,759.72,259.95S773.15,274.44,782.1,284.4S795.52,299.47,804.48,309.73S817.9,325.23,826.85,335.69S840.28,351.47,849.23,362.03S862.66,377.93,871.61,388.47S885.03,404.33,893.99,414.77S911.87,435.48,916.36,440.64" style="stroke: #ffff00; stroke-width: 2; fill: none;"></path></g></svg><g><g transform="translate(0,640)"><path d="M0,0h960M21,-12V0M44,-24V0M66,-12V0M88,-12V0M111,-12V0M133,-12V0M156,-24V0M178,-12V0M200,-12V0M223,-12V0M245,-12V0M267,-24V0M290,-12V0M312,-12V0M335,-12V0M357,-12V0M379,-24V0M402,-12V0M424,-12V0M446,-12V0M469,-12V0M491,-24V0M514,-12V0M536,-12V0M558,-12V0M581,-12V0M603,-24V0M625,-12V0M648,-12V0M670,-12V0M693,-12V0M715,-24V0M737,-12V0M760,-12V0M782,-12V0M804,-12V0M827,-24V0M849,-12V0M872,-12V0M894,-12V0M916,-12V0M939,-24V0" style="stroke: #000000; stroke-width: 1;"></path><g font-family="Arial" font-size="28" space="preserve" fill="#000000" text-anchor="middle"><text dy=".8em" transform="translate(44,5)">0</text><text dy=".8em" transform="translate(156,5)">0.5</text><text dy=".8em" transform="translate(267,5)">1</text><text dy=".8em" transform="translate(379,5)">1.5</text><text dy=".8em" transform="translate(491,5)">2</text><text dy=".8em" transform="translate(603,5)">2.5</text><text dy=".8em" transform="translate(715,5)">3</text><text dy=".8em" transform="translate(827,5)">3.5</text><text dy=".8em" transform="translate(939,5)">4</text></g></g><g><path d="M0,0v640M18,638H0M18,611H0M36,585H0M18,558H0M18,532H0M18,505H0M18,479H0M36,452H0M18,426H0M18,399H0M18,373H0M18,347H0M36,320H0M18,294H0M18,267H0M18,241H0M18,214H0M36,188H0M18,161H0M18,135H0M18,108H0M18,82H0M36,56H0M18,29H0M18,3H0" style="stroke: #000000; stroke-width: 1;"></path><g font-family="Arial" font-size="28" space="preserve" fill="#000000" text-anchor="end"><text dy=".4em" transform="translate(-6,585)">-10</text><text dy=".4em" transform="translate(-6,452)">-5</text><text dy=".4em" transform="translate(-6,320)">0</text><text dy=".4em" transform="translate(-6,188)">5</text><text dy=".4em" transform="translate(-6,56)">10</text></g></g><path d="M44,0v640M156,0v640M267,0v640M379,0v640M491,0v640M603,0v640M715,0v640M827,0v640M939,0v640" style="stroke: #000000; stroke-width: 1; stroke-dasharray: 1,2;"></path><path d="M0,585h960M0,452h960M0,320h960M0,188h960M0,56h960" style="stroke: #000000; stroke-width: 1; stroke-dasharray: 1,2;"></path></g></g><g transform="translate(429,4)" font-family="Arial" font-size="31" space="preserve"><text fill="#000000" text-anchor="middle" dy=".4em" transform="translate(171,26)">Exclusion graphs</text></g></g></svg>