<svg xmlns="http://www.w3.org/2000/svg" viewBox="0 0 1200 800" preserveAspectRatio="none" width="1200" height="800"><path d="M0,0H1200V800H0Z" style="fill: #ffffff;"></path><g><g transform="translate(120,80)"><path d="M0,0H960V640H0Z" style="fill: #ffffff; stroke: #000000; stroke-width: 1;"></path><svg x="0" y="0" overflow="hidden" width="960" height="640" viewBox="0 0 960 640"><g><path d="M5,30l10,3l9,4l10,6l9,8l10,10l10,11l9,14l10,15l9,17l10,18l10,20l9,21l10,22l9,24l10,24l10,25l9,25l10,26l9,27l10,26l10,27l9,26l10,26l9,26l10,26l10,24l9,24l10,23l9,23l10,21l10,16l9,-18l10,-18l9,-16l10,-14l10,-13l9,-12l10,-10l9,-9l10,-7l10,-5l9,-4l10,-3l9,-1h10l10,1l9,3l10,3l9,5l10,6l10,7l9,7l10,8l9,9l10,9l10,10l9,10l10,10l9,10l10,11l10,10l9,10l10,-3l9,-10l10,-9l10,-8l9,-8l10,-7l9,-6l10,-6l10,-5l9,-4l10,-4l9,-2l10,-2l10,-1h9h10l9,2l10,2l10,2l9,4l10,4l9,4l10,5l10,6l9,5l10,7l9,6l10,6l10,7l9,7l10,6l9,3l10,-6l10,-6l9,-6l10,-6l9,-5" style="fill: none; stroke: #ff0000; stroke-width: 2;"></path></g></svg><g><g transform="translate(0,640)"><path d="M0,0h960M0,-24V0M19,-12V0M38,-12V0M58,-12V0M77,-12V0M96,-24V0M115,-12V0M134,-12V0M154,-12V0M173,-12V0M192,-24V0M211,-12V0M230,-12V0M250,-12V0M269,-12V0M288,-24V0M307,-12V0M326,-12V0M346,-12V0M365,-12V0M384,-24V0M403,-12V0M422,-12V0M442,-12V0M461,-12V0M480,-24V0M499,-12V0M518,-12V0M538,-12V0M557,-12V0M576,-24V0M595,-12V0M614,-12V0M634,-12V0M653,-12V0M672,-24V0M691,-12V0M710,-12V0M730,-12V0M749,-12V0M768,-24V0M787,-12V0M806,-12V0M826,-12V0M845,-12V0M864,-24V0M883,-12V0M902,-12V0M922,-12V0M941,-12V0M960,-24V0" style="stroke: #000000; stroke-width: 1;"></path><g font-family="Arial" font-size="28" space="preserve" fill="#000000" text-anchor="middle"><text dy=".8em" transform="translate(0,5)">0</text><text dy=".8em" transform="translate(96,5)">1</text><text dy=".8em" transform="translate(192,5)">2</text><text dy=".8em" transform="translate(288,5)">3</text><text dy=".8em" transform="translate(384,5)">4</text><text dy=".8em" transform="translate(480,5)">5</text><text dy=".8em" transform="translate(576,5)">6</text><text dy=".8em" transform="translate(672,5)">7</text><text dy=".8em" transform="translate(768,5)">8</text><text dy=".8em" transform="translate(864,5)">9</text><text dy=".8em" transform="translate(960,5)">10</text></g></g><g><path d="M0,0v640M36,640H0M18,628H0M18,616H0M18,603H0M18,591H0M36,579H0M18,567H0M18,555H0M18,542H0M18,530H0M36,518H0M18,506H0M18,494H0M18,481H0M18,469H0M36,457H0M18,445H0M18,433H0M18,420H0M18,408H0M36,396H0M18,384H0M18,372H0M18,360H0M18,347H0M36,335H0M18,323H0M18,311H0M18,299H0M18,286H0M36,274H0M18,262H0M18,250H0M18,238H0M18,225H0M36,213H0M18,201H0M18,189H0M18,177H0M18,164H0M36,152H0M18,140H0M18,128H0M18,116H0M18,103H0M36,91H0M18,79H0M18,67H0M18,55H0M18,42H0M36,30H0M18,18H0M18,6H0" style="stroke: #000000; stroke-width: 1;"></path><g font-family="Arial" font-size="28" space="preserve" fill="#000000" text-anchor="end"><text dy=".4em" transform="translate(-6,640)">0</text><text dy=".4em" transform="translate(-6,579)">0.1</text><text dy=".4em" transform="translate(-6,518)">0.2</text><text dy=".4em" transform="translate(-6,457)">0.3</text><text dy=".4em" transform="translate(-6,396)">0.4</text><text dy=".4em" transform="translate(-6,335)">0.5</text><text dy=".4em" transform="translate(-6,274)">0.6</text><text dy=".4em" transform="translate(-6,213)">0.7</text><text dy=".4em" transform="translate(-6,152)">0.8</text><text dy=".4em" transform="translate(-6,91)">0.9</text><text dy=".4em" transform="translate(-6,30)">1</text></g></g><path d="M0,0v640M96,0v640M192,0v640M288,0v640M384,0v640M480,0v640M576,0v640M672,0v640M768,0v640M864,0v640M960,0v640" style="stroke: #000000; stroke-width: 1; stroke-dasharray: 1,2;"></path><path d="M0,640h960M0,579h960M0,518h960M0,457h960M0,396h960M0,335h960M0,274h960M0,213h960M0,152h960M0,91h960M0,30h960" style="stroke: #000000; stroke-width: 1; stroke-dasharray: 1,2;"></path></g></g><g transform="translate(466,4)" font-family="Arial" font-size="30" space="preserve"><text fill="#000000" text-anchor="middle" dy=".4em" transform="translate(134,24)">abs(sin(x)/x)</text></g></g></svg>