<svg xmlns="http://www.w3.org/2000/svg" viewBox="0 0 1200 800" preserveAspectRatio="none" width="1200" height="800"><path d="M0,0H1200V800H0Z" style="fill: #ffffff;"></path><g><g transform="translate(120,80)"><path d="M0,0H960V640H0Z" style="fill: #ffffff; stroke: #000000; stroke-width: 1;"></path><svg x="0" y="0" overflow="hidden" width="960" height="640" viewBox="0 0 960 640"><g><path d="M5,30l10,3l9,4l10,6l9,8l10,10l10,11l9,14l10,15l9,17l10,18l10,20l9,21l10,22l9,24l10,24l10,25l9,25l10,26l9,27l10,26l10,27l9,26l10,26l9,26l10,26l10,24l9,24l10,23l9,23l10,21l10,16l9,-18l10,-18l9,-16l10,-14l10,-13l9,-12l10,-10l9,-9l10,-7l10,-5l9,-4l10,-3l9,-1h10l10,1l9,3l10,3l9,5l10,6l10,7l9,7l10,8l9,9l10,9l10,10l9,10l10,10l9,10l10,11l10,10l9,10l10,-3l9,-10l10,-9l10,-8l9,-8l10,-7l9,-6l10,-6l10,-5l9,-4l10,-4l9,-2l10,-2l10,-1h9h10l9,2l10,2l10,2l9,4l10,4l9,4l10,5l10,6l9,5l10,7l9,6l10,6l10,7l9,7l10,6l9,3l10,-6l10,-6l9,-6l10,-6l9,-5" style="fill: none; stroke: #ff0000; stroke-width: 2;"></path></g></svg><g><g transform="translate(0,640)"><path d="M0,0h960M0,-19V0M19,-10V0M38,-10V0M58,-10V0M77,-10V0M96,-19V0M115,-10V0M134,-10V0M154,-10V0M173,-10V0M192,-19V0M211,-10V0M230,-10V0M250,-10V0M269,-10V0M288,-19V0M307,-10V0M326,-10V0M346,-10V0M365,-10V0M384,-19V0M403,-10V0M422,-10V0M442,-10V0M461,-10V0M480,-19V0M499,-10V0M518,-10V0M538,-10V0M557,-10V0M576,-19V0M595,-10V0M614,-10V0M634,-10V0M653,-10V0M672,-19V0M691,-10V0M710,-10V0M730,-10V0M749,-10V0M768,-19V0M787,-10V0M806,-10V0M826,-10V0M845,-10V0M864,-19V0M883,-10V0M902,-10V0M922,-10V0M941,-10V0M960,-19V0" style="stroke: #000000; stroke-width: 1;"></path><g font-family="Arial" font-size="28" space="preserve" fill="#000000" text-anchor="middle"><text dy=".8em" transform="translate(0,5)">0</text><text dy=".8em" transform="translate(96,5)">1</text><text dy=".8em" transform="translate(192,5)">2</text><text dy=".8em" transform="translate(288,5)">3</text><text dy=".8em" transform="translate(384,5)">4</text><text dy=".8em" transform="translate(480,5)">5</text><text dy=".8em" transform="translate(576,5)">6</text><text dy=".8em" transform="translate(672,5)">7</text><text dy=".8em" transform="translate(768,5)">8</text><text dy=".8em" transform="translate(864,5)">9</text><text dy=".8em" transform="translate(960,5)">10</text></g></g><g><path d="M0,0v640M29,640H0M15,628H0M15,616H0M15,603H0M15,591H0M29,579H0M15,567H0M15,555H0M15,542H0M15,530H0M29,518H0M15,506H0M15,494H0M15,481H0M15,469H0M29,457H0M15,445H0M15,433H0M15,420H0M15,408H0M29,396H0M15,384H0M15,372H0M15,360H0M15,347H0M29,335H0M15,323H0M15,311H0M15,299H0M15,286H0M29,274H0M15,262H0M15,250H0M15,238H0M15,225H0M29,213H0M15,201H0M15,189H0M15,177H0M15,164H0M29,152H0M15,140H0M15,128H0M15,116H0M15,103H0M29,91H0M15,79H0M15,67H0M15,55H0M15,42H0M29,30H0M15,18H0M15,6H0" style="stroke: #000000; stroke-width: 1;"></path><g font-family="Arial" font-size="28" space="preserve" fill="#000000" text-anchor="end"><text dy=".4em" transform="translate(-6,640)">0</text><text dy=".4em" transform="translate(-6,579)">0.1</text><text dy=".4em" transform="translate(-6,518)">0.2</text><text dy=".4em" transform="translate(-6,457)">0.3</text><text dy=".4em" transform="translate(-6,396)">0.4</text><text dy=".4em" transform="translate(-6,335)">0.5</text><text dy=".4em" transform="translate(-6,274)">0.6</text><text dy=".4em" transform="translate(-6,213)">0.7</text><text dy=".4em" transform="translate(-6,152)">0.8</text><text dy=".4em" transform="translate(-6,91)">0.9</text><text dy=".4em" transform="translate(-6,30)">1</text></g></g><path d="M0,0v640M96,0v640M192,0v640M288,0v640M384,0v640M480,0v640M576,0v640M672,0v640M768,0v640M864,0v640M960,0v640" style="stroke: #000000; stroke-width: 1; stroke-dasharray: 1,2;"></path><path d="M0,640h960M0,579h960M0,518h960M0,457h960M0,396h960M0,335h960M0,274h960M0,213h960M0,152h960M0,91h960M0,30h960" style="stroke: #000000; stroke-width: 1; stroke-dasharray: 1,2;"></path></g></g><g transform="translate(466,4)" font-family="Arial" font-size="30" space="preserve"><text fill="#000000" text-anchor="middle" dy=".4em" transform="translate(134,24)">abs(sin(x)/x)</text></g></g></svg>