<svg xmlns="http://www.w3.org/2000/svg" viewBox="0 0 1200 800" preserveAspectRatio="none" width="1200" height="800"><path d="M0,0H1200V800H0Z" style="fill: #ffffff;"></path><g><g transform="translate(50,400)"><path d="M0,0h1100M0,-22V0M22,-11V0M44,-11V0M66,-11V0M88,-11V0M110,-22V0M132,-11V0M154,-11V0M176,-11V0M198,-11V0M220,-22V0M242,-11V0M264,-11V0M286,-11V0M308,-11V0M330,-22V0M352,-11V0M374,-11V0M396,-11V0M418,-11V0M440,-22V0M462,-11V0M484,-11V0M506,-11V0M528,-11V0M550,-22V0M572,-11V0M594,-11V0M616,-11V0M638,-11V0M660,-22V0M682,-11V0M704,-11V0M726,-11V0M748,-11V0M770,-22V0M792,-11V0M814,-11V0M836,-11V0M858,-11V0M880,-22V0M902,-11V0M924,-11V0M946,-11V0M968,-11V0M990,-22V0M1012,-11V0M1034,-11V0M1056,-11V0M1078,-11V0M1100,-22V0" style="stroke: #000000; stroke-width: 1;"></path><g font-family="Arial" font-size="9" space="preserve" font-weight="bold" text-anchor="middle"><text fill="#ff0000" dy=".8em" transform="translate(0,5)">0</text><text fill="#000000" dy=".8em" transform="translate(110,5)">10</text><text fill="#0000ff" dy=".8em" transform="translate(330,5)">value of 30</text><text fill="#000000" dy=".8em" transform="translate(440,5) rotate(-30)">40</text><text fill="#00ff00" dy=".8em" transform="translate(550,5)">6th label</text><text fill="#000000" dy=".8em" transform="translate(660,5)">60</text><text fill="#000000" dy=".8em" transform="translate(770,5)">70</text><text fill="#000000" dy=".8em" transform="translate(880,5)">80</text><text fill="#00ff00" dy=".8em" transform="translate(990,5)">2nd to last label</text><text fill="#000000" dy=".8em" transform="translate(1100,5)">100</text></g><g font-family="Arial" font-size="40" space="preserve" transform="translate(1100,64)"><text fill="#0000ff" text-anchor="end" dy=".4em">Axis Title</text></g></g></g></svg>