<svg xmlns="http://www.w3.org/2000/svg" viewBox="0 0 1200 800" preserveAspectRatio="none" width="1200" height="800"><path d="M0,0H1200V800H0Z" style="fill: #ffffff;"></path><g><g transform="translate(330,480)"><path d="M0,0h600M0,-12V0M21,-6V0M43,-6V0M64,-6V0M86,-12V0M107,-6V0M129,-6V0M150,-6V0M171,-12V0M193,-6V0M214,-6V0M236,-6V0M257,-12V0M279,-6V0M300,-6V0M321,-6V0M343,-12V0M364,-6V0M386,-6V0M407,-6V0M429,-12V0M450,-6V0M471,-6V0M493,-6V0M514,-12V0M536,-6V0M557,-6V0M579,-6V0M600,-12V0" style="stroke: #000000; stroke-width: 1;"></path><g font-family="Arial" font-size="32" space="preserve" font-weight="bold" fill="#000000" text-anchor="middle"><text dy=".8em" transform="translate(0,5)">-6</text><text dy=".8em" transform="translate(86,5)">-4</text><text dy=".8em" transform="translate(171,5)">-2</text><text dy=".8em" transform="translate(257,5)">0</text><text dy=".8em" transform="translate(343,5)">2</text><text dy=".8em" transform="translate(429,5)">4</text><text dy=".8em" transform="translate(514,5)">6</text><text dy=".8em" transform="translate(600,5)">8</text></g></g><g transform="translate(330,320)"><path d="M0,0h600M0,-12V0M26,-6V0M41,-6V0M52,-6V0M60,-6V0M67,-6V0M72,-6V0M77,-6V0M82,-6V0M86,-12V0M112,-6V0M127,-6V0M137,-6V0M146,-6V0M152,-6V0M158,-6V0M163,-6V0M168,-6V0M171,-12V0M197,-6V0M212,-6V0M223,-6V0M231,-6V0M238,-6V0M244,-6V0M249,-6V0M253,-6V0M257,-12V0M283,-6V0M298,-6V0M309,-6V0M317,-6V0M324,-6V0M330,-6V0M335,-6V0M339,-6V0M343,-12V0M369,-6V0M384,-6V0M394,-6V0M403,-6V0M410,-6V0M415,-6V0M420,-6V0M425,-6V0M429,-12V0M454,-6V0M469,-6V0M480,-6V0M488,-6V0M495,-6V0M501,-6V0M506,-6V0M510,-6V0M514,-12V0M540,-6V0M555,-6V0M566,-6V0M574,-6V0M581,-6V0M587,-6V0M592,-6V0M596,-6V0M600,-12V0" style="stroke: #000000; stroke-width: 1;"></path><g font-family="Arial" font-size="32" space="preserve" font-weight="bold"><g transform="translate(-27,40)"><text fill="#000000" font-size="32">10</text><text fill="#000000" font-size="19" transform="translate(36,-17)">-3</text></g><g transform="translate(59,40)"><text fill="#000000" font-size="32">10</text><text fill="#000000" font-size="19" transform="translate(36,-17)">-2</text></g><g transform="translate(145,40)"><text fill="#000000" font-size="32">10</text><text fill="#000000" font-size="19" transform="translate(36,-17)">-1</text></g><text fill="#000000" text-anchor="middle" transform="translate(257,40)">1</text><text fill="#000000" text-anchor="middle" transform="translate(343,40)">10</text><g transform="translate(406,40)"><text fill="#000000" font-size="32">10</text><text fill="#000000" font-size="19" transform="translate(36,-17)">2</text></g><g transform="translate(491,40)"><text fill="#000000" font-size="32">10</text><text fill="#000000" font-size="19" transform="translate(36,-17)">3</text></g><g transform="translate(577,40)"><text fill="#000000" font-size="32">10</text><text fill="#000000" font-size="19" transform="translate(36,-17)">4</text></g></g></g><g transform="translate(60,80)"><path d="M0,0v640M29,640H0M7,636H0M7,632H0M7,628H0M7,624H0M15,620H0M7,616H0M7,612H0M7,608H0M7,604H0M15,600H0M7,596H0M7,592H0M7,588H0M7,584H0M15,580H0M7,576H0M7,572H0M7,568H0M7,564H0M29,560H0M7,556H0M7,552H0M7,548H0M7,544H0M15,540H0M7,536H0M7,532H0M7,528H0M7,524H0M15,520H0M7,516H0M7,512H0M7,508H0M7,504H0M15,500H0M7,496H0M7,492H0M7,488H0M7,484H0M29,480H0M7,476H0M7,472H0M7,468H0M7,464H0M15,460H0M7,456H0M7,452H0M7,448H0M7,444H0M15,440H0M7,436H0M7,432H0M7,428H0M7,424H0M15,420H0M7,416H0M7,412H0M7,408H0M7,404H0M29,400H0M7,396H0M7,392H0M7,388H0M7,384H0M15,380H0M7,376H0M7,372H0M7,368H0M7,364H0M15,360H0M7,356H0M7,352H0M7,348H0M7,344H0M15,340H0M7,336H0M7,332H0M7,328H0M7,324H0M29,320H0M7,316H0M7,312H0M7,308H0M7,304H0M15,300H0M7,296H0M7,292H0M7,288H0M7,284H0M15,280H0M7,276H0M7,272H0M7,268H0M7,264H0M15,260H0M7,256H0M7,252H0M7,248H0M7,244H0M29,240H0M7,236H0M7,232H0M7,228H0M7,224H0M15,220H0M7,216H0M7,212H0M7,208H0M7,204H0M15,200H0M7,196H0M7,192H0M7,188H0M7,184H0M15,180H0M7,176H0M7,172H0M7,168H0M7,164H0M29,160H0M7,156H0M7,152H0M7,148H0M7,144H0M15,140H0M7,136H0M7,132H0M7,128H0M7,124H0M15,120H0M7,116H0M7,112H0M7,108H0M7,104H0M15,100H0M7,96H0M7,92H0M7,88H0M7,84H0M29,80H0M7,76H0M7,72H0M7,68H0M7,64H0M15,60H0M7,56H0M7,52H0M7,48H0M7,44H0M15,40H0M7,36H0M7,32H0M7,28H0M7,24H0M15,20H0M7,16H0M7,12H0M7,8H0M7,4H0M29,0H0" style="stroke: #000000; stroke-width: 1;"></path><g font-family="Arial" font-size="32" space="preserve" font-weight="bold" fill="#000000" text-anchor="end"><text dy=".4em" transform="translate(-6,640)">-8</text><text dy=".4em" transform="translate(-6,560)">-6</text><text dy=".4em" transform="translate(-6,480)">-4</text><text dy=".4em" transform="translate(-6,400)">-2</text><text dy=".4em" transform="translate(-6,320)">0</text><text dy=".4em" transform="translate(-6,240)">2</text><text dy=".4em" transform="translate(-6,160)">4</text><text dy=".4em" transform="translate(-6,80)">6</text><text dy=".4em" transform="translate(-6)">8</text></g><g font-family="Arial" font-size="32" space="preserve" font-weight="bold" transform="translate(-38)"><text fill="#000000" text-anchor="end" dy=".4em" transform="rotate(270)">axis3</text></g></g><g transform="translate(180,80)"><path d="M0,0v640M29,640H0M15,592H0M15,564H0M15,544H0M15,528H0M15,515H0M15,505H0M15,496H0M15,487H0M29,480H0M15,432H0M15,404H0M15,384H0M15,368H0M15,355H0M15,345H0M15,336H0M15,327H0M29,320H0M15,272H0M15,244H0M15,224H0M15,208H0M15,195H0M15,185H0M15,176H0M15,167H0M29,160H0M15,112H0M15,84H0M15,64H0M15,48H0M15,35H0M15,25H0M15,16H0M15,7H0M29,0H0" style="stroke: #000000; stroke-width: 1;"></path><g font-family="Arial" font-size="32" space="preserve" font-weight="bold"><text fill="#000000" text-anchor="end" dy=".4em" transform="translate(-6,640)">1</text><text fill="#000000" text-anchor="end" dy=".4em" transform="translate(-6,480)">10</text><g transform="translate(-53,334)"><text fill="#000000" font-size="32">10</text><text fill="#000000" font-size="19" transform="translate(36,-17)">2</text></g><g transform="translate(-53,174)"><text fill="#000000" font-size="32">10</text><text fill="#000000" font-size="19" transform="translate(36,-17)">3</text></g><g transform="translate(-53,14)"><text fill="#000000" font-size="32">10</text><text fill="#000000" font-size="19" transform="translate(36,-17)">4</text></g></g><g font-family="Arial" font-size="32" space="preserve" font-weight="bold" transform="translate(-77)"><text fill="#000000" text-anchor="end" dy=".4em" transform="rotate(270)">axis4</text></g></g><g transform="translate(330,640)"><path d="M0,0h600M0,-12V12M2,-3V3M5,-3V3M8,-3V3M10,-3V3M12,-3V3M15,-3V3M18,-3V3M20,-3V3M22,-3V3M25,-6V6M28,-3V3M30,-3V3M32,-3V3M35,-3V3M38,-3V3M40,-3V3M42,-3V3M45,-3V3M48,-3V3M50,-6V6M52,-3V3M55,-3V3M58,-3V3M60,-3V3M62,-3V3M65,-3V3M68,-3V3M70,-3V3M72,-3V3M75,-6V6M78,-3V3M80,-3V3M82,-3V3M85,-3V3M88,-3V3M90,-3V3M92,-3V3M95,-3V3M98,-3V3M100,-12V12M102,-3V3M105,-3V3M108,-3V3M110,-3V3M112,-3V3M115,-3V3M118,-3V3M120,-3V3M122,-3V3M125,-6V6M128,-3V3M130,-3V3M132,-3V3M135,-3V3M138,-3V3M140,-3V3M142,-3V3M145,-3V3M148,-3V3M150,-6V6M152,-3V3M155,-3V3M158,-3V3M160,-3V3M162,-3V3M165,-3V3M168,-3V3M170,-3V3M172,-3V3M175,-6V6M178,-3V3M180,-3V3M182,-3V3M185,-3V3M188,-3V3M190,-3V3M192,-3V3M195,-3V3M198,-3V3M200,-12V12M202,-3V3M205,-3V3M208,-3V3M210,-3V3M212,-3V3M215,-3V3M218,-3V3M220,-3V3M222,-3V3M225,-6V6M228,-3V3M230,-3V3M232,-3V3M235,-3V3M238,-3V3M240,-3V3M242,-3V3M245,-3V3M248,-3V3M250,-6V6M252,-3V3M255,-3V3M258,-3V3M260,-3V3M262,-3V3M265,-3V3M268,-3V3M270,-3V3M272,-3V3M275,-6V6M278,-3V3M280,-3V3M282,-3V3M285,-3V3M288,-3V3M290,-3V3M292,-3V3M295,-3V3M298,-3V3M300,-12V12M302,-3V3M305,-3V3M308,-3V3M310,-3V3M312,-3V3M315,-3V3M318,-3V3M320,-3V3M322,-3V3M325,-6V6M328,-3V3M330,-3V3M332,-3V3M335,-3V3M338,-3V3M340,-3V3M342,-3V3M345,-3V3M348,-3V3M350,-6V6M352,-3V3M355,-3V3M358,-3V3M360,-3V3M362,-3V3M365,-3V3M368,-3V3M370,-3V3M372,-3V3M375,-6V6M378,-3V3M380,-3V3M382,-3V3M385,-3V3M388,-3V3M390,-3V3M392,-3V3M395,-3V3M398,-3V3M400,-12V12M402,-3V3M405,-3V3M408,-3V3M410,-3V3M412,-3V3M415,-3V3M418,-3V3M420,-3V3M422,-3V3M425,-6V6M428,-3V3M430,-3V3M432,-3V3M435,-3V3M438,-3V3M440,-3V3M442,-3V3M445,-3V3M448,-3V3M450,-6V6M452,-3V3M455,-3V3M458,-3V3M460,-3V3M462,-3V3M465,-3V3M468,-3V3M470,-3V3M472,-3V3M475,-6V6M478,-3V3M480,-3V3M482,-3V3M485,-3V3M488,-3V3M490,-3V3M492,-3V3M495,-3V3M498,-3V3M500,-12V12M502,-3V3M505,-3V3M508,-3V3M510,-3V3M512,-3V3M515,-3V3M518,-3V3M520,-3V3M522,-3V3M525,-6V6M528,-3V3M530,-3V3M532,-3V3M535,-3V3M538,-3V3M540,-3V3M542,-3V3M545,-3V3M548,-3V3M550,-6V6M552,-3V3M555,-3V3M558,-3V3M560,-3V3M562,-3V3M565,-3V3M567,-3V3M570,-3V3M572,-3V3M575,-6V6M577,-3V3M580,-3V3M582,-3V3M585,-3V3M587,-3V3M590,-3V3M592,-3V3M595,-3V3M597,-3V3M600,-12V12" style="stroke: #000000; stroke-width: 1;"></path><g font-family="Arial" font-size="24" space="preserve" font-weight="bold" fill="#000000" text-anchor="middle"><text dy=".8em" transform="translate(0,18)">1.2</text><text dy=".8em" transform="translate(100,18)">1.22</text><text dy=".8em" transform="translate(200,18)">1.24</text><text dy=".8em" transform="translate(300,18)">1.26</text><text dy=".8em" transform="translate(400,18)">1.28</text><text dy=".8em" transform="translate(500,18)">1.3</text><text dy=".8em" transform="translate(600,18)">1.32</text></g></g><g transform="translate(330,200)"><path d="M0,0h600M0,0V12M4,0V3M8,0V3M11,0V3M15,0V6M19,0V3M23,0V3M26,0V3M30,0V6M34,0V3M38,0V3M41,0V3M45,0V6M49,0V3M53,0V3M56,0V3M60,0V6M64,0V3M68,0V3M71,0V3M75,0V12M79,0V3M83,0V3M86,0V3M90,0V6M94,0V3M98,0V3M101,0V3M105,0V6M109,0V3M113,0V3M116,0V3M120,0V6M124,0V3M128,0V3M131,0V3M135,0V6M139,0V3M143,0V3M146,0V3M150,0V12M154,0V3M158,0V3M161,0V3M165,0V6M169,0V3M173,0V3M176,0V3M180,0V6M184,0V3M188,0V3M191,0V3M195,0V6M199,0V3M203,0V3M206,0V3M210,0V6M214,0V3M218,0V3M221,0V3M225,0V12M229,0V3M233,0V3M236,0V3M240,0V6M244,0V3M248,0V3M251,0V3M255,0V6M259,0V3M263,0V3M266,0V3M270,0V6M274,0V3M278,0V3M281,0V3M285,0V6M289,0V3M293,0V3M296,0V3M300,0V12M304,0V3M308,0V3M311,0V3M315,0V6M319,0V3M323,0V3M326,0V3M330,0V6M334,0V3M338,0V3M341,0V3M345,0V6M349,0V3M353,0V3M356,0V3M360,0V6M364,0V3M368,0V3M371,0V3M375,0V12M379,0V3M383,0V3M386,0V3M390,0V6M394,0V3M398,0V3M401,0V3M405,0V6M409,0V3M413,0V3M416,0V3M420,0V6M424,0V3M428,0V3M431,0V3M435,0V6M439,0V3M443,0V3M446,0V3M450,0V12M454,0V3M458,0V3M461,0V3M465,0V6M469,0V3M473,0V3M476,0V3M480,0V6M484,0V3M488,0V3M491,0V3M495,0V6M499,0V3M503,0V3M506,0V3M510,0V6M514,0V3M518,0V3M521,0V3M525,0V12M529,0V3M533,0V3M536,0V3M540,0V6M544,0V3M548,0V3M551,0V3M555,0V6M559,0V3M563,0V3M566,0V3M570,0V6M574,0V3M578,0V3M581,0V3M585,0V6M589,0V3M593,0V3M596,0V3M600,0V12" style="stroke: #000000; stroke-width: 1;"></path><g font-family="Arial" font-size="32" space="preserve" font-weight="bold" fill="#000000" text-anchor="middle"><text transform="translate(0,-8)">100</text><text transform="translate(75,-8)">200</text><text transform="translate(150,-8)">300</text><text transform="translate(225,-8)">400</text><text transform="translate(300,-8)">500</text><text transform="translate(375,-8)">600</text><text transform="translate(450,-8)">700</text><text transform="translate(525,-8)">800</text><text transform="translate(600,-8)">900</text></g></g><g transform="translate(270,60)"><path d="M0,0h660M0,-13V0M15,-7V0M31,-7V0M46,-7V0M61,-7V0M77,-13V0M92,-7V0M107,-7V0M123,-7V0M138,-7V0M153,-13V0M169,-7V0M184,-7V0M200,-7V0M215,-7V0M230,-13V0M246,-7V0M261,-7V0M276,-7V0M292,-7V0M307,-13V0M322,-7V0M338,-7V0M353,-7V0M368,-7V0M384,-13V0M399,-7V0M414,-7V0M430,-7V0M445,-7V0M460,-13V0M476,-7V0M491,-7V0M507,-7V0M522,-7V0M537,-13V0M553,-7V0M568,-7V0M583,-7V0M599,-7V0M614,-13V0M629,-7V0M645,-7V0M660,-7V0" style="stroke: #000000; stroke-width: 1;"></path><g font-family="Arial" font-size="32" space="preserve" font-weight="bold"><text fill="#000000" text-anchor="middle" dy=".8em" transform="translate(0,5)">0</text><text fill="#000000" text-anchor="middle" dy=".8em" transform="translate(77,5)">0.5</text><text fill="#000000" text-anchor="middle" dy=".8em" transform="translate(153,5)">1</text><text fill="#000000" text-anchor="middle" dy=".8em" transform="translate(230,5)">1.5</text><text fill="#000000" text-anchor="middle" dy=".8em" transform="translate(307,5)">2</text><text fill="#000000" text-anchor="middle" dy=".8em" transform="translate(384,5)">2.5</text><text fill="#000000" text-anchor="middle" dy=".8em" transform="translate(460,5)">3</text><text fill="#000000" text-anchor="middle" dy=".8em" transform="translate(537,5)">3.5</text><text fill="#000000" text-anchor="middle" dy=".8em" transform="translate(614,5)">4</text><g transform="translate(665,-11)"><text fill="#000000" font-size="32">×10</text><text fill="#000000" font-size="19" transform="translate(56,-17)">-6</text></g></g></g><g transform="translate(1080,80)"><path d="M0,0v640M0,640H-29M0,636H-7M0,633H-7M0,629H-7M0,626H-15M0,622H-7M0,619H-7M0,615H-7M0,612H-15M0,608H-7M0,604H-7M0,601H-7M0,597H-15M0,594H-7M0,590H-7M0,587H-7M0,583H-15M0,580H-7M0,576H-7M0,572H-7M0,569H-29M0,565H-7M0,562H-7M0,558H-7M0,555H-15M0,551H-7M0,548H-7M0,544H-7M0,540H-15M0,537H-7M0,533H-7M0,530H-7M0,526H-15M0,523H-7M0,519H-7M0,516H-7M0,512H-15M0,508H-7M0,505H-7M0,501H-7M0,498H-29M0,494H-7M0,491H-7M0,487H-7M0,484H-15M0,480H-7M0,476H-7M0,473H-7M0,469H-15M0,466H-7M0,462H-7M0,459H-7M0,455H-15M0,452H-7M0,448H-7M0,444H-7M0,441H-15M0,437H-7M0,434H-7M0,430H-7M0,427H-29M0,423H-7M0,420H-7M0,416H-7M0,412H-15M0,409H-7M0,405H-7M0,402H-7M0,398H-15M0,395H-7M0,391H-7M0,388H-7M0,384H-15M0,380H-7M0,377H-7M0,373H-7M0,370H-15M0,366H-7M0,363H-7M0,359H-7M0,356H-29M0,352H-7M0,348H-7M0,345H-7M0,341H-15M0,338H-7M0,334H-7M0,331H-7M0,327H-15M0,324H-7M0,320H-7M0,316H-7M0,313H-15M0,309H-7M0,306H-7M0,302H-7M0,299H-15M0,295H-7M0,292H-7M0,288H-7M0,284H-29M0,281H-7M0,277H-7M0,274H-7M0,270H-15M0,267H-7M0,263H-7M0,260H-7M0,256H-15M0,252H-7M0,249H-7M0,245H-7M0,242H-15M0,238H-7M0,235H-7M0,231H-7M0,228H-15M0,224H-7M0,220H-7M0,217H-7M0,213H-29M0,210H-7M0,206H-7M0,203H-7M0,199H-15M0,196H-7M0,192H-7M0,188H-7M0,185H-15M0,181H-7M0,178H-7M0,174H-7M0,171H-15M0,167H-7M0,164H-7M0,160H-7M0,156H-15M0,153H-7M0,149H-7M0,146H-7M0,142H-29M0,139H-7M0,135H-7M0,132H-7M0,128H-15M0,124H-7M0,121H-7M0,117H-7M0,114H-15M0,110H-7M0,107H-7M0,103H-7M0,100H-15M0,96H-7M0,92H-7M0,89H-7M0,85H-15M0,82H-7M0,78H-7M0,75H-7M0,71H-29M0,68H-7M0,64H-7M0,60H-7M0,57H-15M0,53H-7M0,50H-7M0,46H-7M0,43H-15M0,39H-7M0,36H-7M0,32H-7M0,28H-15M0,25H-7M0,21H-7M0,18H-7M0,14H-15M0,11H-7M0,7H-7M0,4H-7M0,0H-29" style="stroke: #000000; stroke-width: 1;"></path><g font-family="Arial" font-size="32" space="preserve" font-weight="bold" fill="#000000" text-anchor="start"><text dy=".4em" transform="translate(6,640)">0</text><text dy=".4em" transform="translate(6,569)">1000</text><text dy=".4em" transform="translate(6,498)">2000</text><text dy=".4em" transform="translate(6,427)">3000</text><text dy=".4em" transform="translate(6,356)">4000</text><text dy=".4em" transform="translate(6,284)">5000</text><text dy=".4em" transform="translate(6,213)">6000</text><text dy=".4em" transform="translate(6,142)">7000</text><text dy=".4em" transform="translate(6,71)">8000</text><text dy=".4em" transform="translate(6)">9000</text></g></g><g transform="translate(990,80)"><path d="M0,0v640M0,0H-29M0,4H-7M0,7H-7M0,11H-7M0,14H-15M0,18H-7M0,21H-7M0,25H-7M0,28H-15M0,32H-7M0,36H-7M0,39H-7M0,43H-15M0,46H-7M0,50H-7M0,53H-7M0,57H-15M0,60H-7M0,64H-7M0,68H-7M0,71H-29M0,75H-7M0,78H-7M0,82H-7M0,85H-15M0,89H-7M0,92H-7M0,96H-7M0,100H-15M0,103H-7M0,107H-7M0,110H-7M0,114H-15M0,117H-7M0,121H-7M0,124H-7M0,128H-15M0,132H-7M0,135H-7M0,139H-7M0,142H-29M0,146H-7M0,149H-7M0,153H-7M0,156H-15M0,160H-7M0,164H-7M0,167H-7M0,171H-15M0,174H-7M0,178H-7M0,181H-7M0,185H-15M0,188H-7M0,192H-7M0,196H-7M0,199H-15M0,203H-7M0,206H-7M0,210H-7M0,213H-29M0,217H-7M0,220H-7M0,224H-7M0,228H-15M0,231H-7M0,235H-7M0,238H-7M0,242H-15M0,245H-7M0,249H-7M0,252H-7M0,256H-15M0,260H-7M0,263H-7M0,267H-7M0,270H-15M0,274H-7M0,277H-7M0,281H-7M0,284H-29M0,288H-7M0,292H-7M0,295H-7M0,299H-15M0,302H-7M0,306H-7M0,309H-7M0,313H-15M0,316H-7M0,320H-7M0,324H-7M0,327H-15M0,331H-7M0,334H-7M0,338H-7M0,341H-15M0,345H-7M0,348H-7M0,352H-7M0,356H-29M0,359H-7M0,363H-7M0,366H-7M0,370H-15M0,373H-7M0,377H-7M0,380H-7M0,384H-15M0,388H-7M0,391H-7M0,395H-7M0,398H-15M0,402H-7M0,405H-7M0,409H-7M0,412H-15M0,416H-7M0,420H-7M0,423H-7M0,427H-29M0,430H-7M0,434H-7M0,437H-7M0,441H-15M0,444H-7M0,448H-7M0,452H-7M0,455H-15M0,459H-7M0,462H-7M0,466H-7M0,469H-15M0,473H-7M0,476H-7M0,480H-7M0,484H-15M0,487H-7M0,491H-7M0,494H-7M0,498H-29M0,501H-7M0,505H-7M0,508H-7M0,512H-15M0,516H-7M0,519H-7M0,523H-7M0,526H-15M0,530H-7M0,533H-7M0,537H-7M0,540H-15M0,544H-7M0,548H-7M0,551H-7M0,555H-15M0,558H-7M0,562H-7M0,565H-7M0,569H-29M0,572H-7M0,576H-7M0,580H-7M0,583H-15M0,587H-7M0,590H-7M0,594H-7M0,597H-15M0,601H-7M0,604H-7M0,608H-7M0,612H-15M0,615H-7M0,619H-7M0,622H-7M0,626H-15M0,629H-7M0,633H-7M0,636H-7M0,640H-29" style="stroke: #000000; stroke-width: 1;"></path><g font-family="Arial" font-size="32" space="preserve" font-weight="bold" fill="#000000" text-anchor="start"><text dy=".4em" transform="translate(6)">0</text><text dy=".4em" transform="translate(6,71)">10</text><text dy=".4em" transform="translate(6,142)">20</text><text dy=".4em" transform="translate(6,213)">30</text><text dy=".4em" transform="translate(6,284)">40</text><text dy=".4em" transform="translate(6,356)">50</text><text dy=".4em" transform="translate(6,427)">60</text><text dy=".4em" transform="translate(6,498)">70</text><text dy=".4em" transform="translate(6,569)">80</text><text dy=".4em" transform="translate(6,640)">90</text></g></g></g></svg>