<svg xmlns="http://www.w3.org/2000/svg" viewBox="0 0 1200 800" preserveAspectRatio="none" width="1200" height="800"><path d="M0,0H1200V800H0Z" style="fill: #ffffff;"></path><g><g transform="translate(50,400)"><path d="M0,0h1100M0,-20V0M22,-10V0M44,-10V0M66,-10V0M88,-10V0M110,-20V0M132,-10V0M154,-10V0M176,-10V0M198,-10V0M220,-20V0M242,-10V0M264,-10V0M286,-10V0M308,-10V0M330,-20V0M352,-10V0M374,-10V0M396,-10V0M418,-10V0M440,-20V0M462,-10V0M484,-10V0M506,-10V0M528,-10V0M550,-20V0M572,-10V0M594,-10V0M616,-10V0M638,-10V0M660,-20V0M682,-10V0M704,-10V0M726,-10V0M748,-10V0M770,-20V0M792,-10V0M814,-10V0M836,-10V0M858,-10V0M880,-20V0M902,-10V0M924,-10V0M946,-10V0M968,-10V0M990,-20V0M1012,-10V0M1034,-10V0M1056,-10V0M1078,-10V0M1100,-20V0" style="stroke: #000000; stroke-width: 1;"></path><g font-family="Arial" font-size="9" space="preserve" font-weight="bold" text-anchor="middle"><text fill="#ff0000" dy=".8em" transform="translate(0,5)">0</text><text fill="#000000" dy=".8em" transform="translate(110,5)">10</text><text fill="#0000ff" dy=".8em" transform="translate(330,5)">value of 30</text><text fill="#000000" dy=".8em" transform="translate(440,5) rotate(-30)">40</text><text fill="#00ff00" dy=".8em" transform="translate(550,5)">6th label</text><text fill="#000000" dy=".8em" transform="translate(660,5)">60</text><text fill="#000000" dy=".8em" transform="translate(770,5)">70</text><text fill="#000000" dy=".8em" transform="translate(880,5)">80</text><text fill="#00ff00" dy=".8em" transform="translate(990,5)">2nd to last label</text><text fill="#000000" dy=".8em" transform="translate(1100,5)">100</text></g><g font-family="Arial" font-size="40" space="preserve" transform="translate(1100,64)"><text fill="#0000ff" text-anchor="end" dy=".4em">Axis Title</text></g></g></g></svg>