<svg xmlns="http://www.w3.org/2000/svg" viewBox="0 0 1200 800" preserveAspectRatio="none" width="1200" height="800"><path d="M0,0H1200V800H0Z" style="fill: #ffffff;"></path><g><g transform="translate(120,80)"><path d="M0,0H960V640H0Z" style="fill: #ffffff; stroke: #000000; stroke-width: 1;"></path><svg x="0" y="0" overflow="hidden" width="960" height="640" viewBox="0 0 960 640"><g><path d="M108,587l162,-102l120,-144l60,-96l90,-85l66,-32l54,48l90,128l24,96l36,187" style="stroke: #000000; stroke-width: 1; fill: none;"></path><g transform="translate(108,587)"><path style="stroke: #000000; stroke-width: 1; fill: none;" d="M0,0H-30m0,3v-6M0,0H30m0,3v-6M0,0V43m3,0h-6M0,0V-43m3,0h-6"></path></g><g transform="translate(270,485)"><path style="stroke: #000000; stroke-width: 1; fill: none;" d="M0,0H-60m0,3v-6M0,0H60m0,3v-6M0,0V37m3,0h-6M0,0V-37m3,0h-6"></path></g><g transform="translate(390,341)"><path style="stroke: #000000; stroke-width: 1; fill: none;" d="M0,0H-42m0,3v-6M0,0H42m0,3v-6M0,0V32m3,0h-6M0,0V-32m3,0h-6"></path></g><g transform="translate(450,245)"><path style="stroke: #000000; stroke-width: 1; fill: none;" d="M0,0H-42m0,3v-6M0,0H42m0,3v-6M0,0V27m3,0h-6M0,0V-27m3,0h-6"></path></g><g transform="translate(540,160)"><path style="stroke: #000000; stroke-width: 1; fill: none;" d="M0,0H-24m0,3v-6M0,0H24m0,3v-6M0,0V21m3,0h-6M0,0V-21m3,0h-6"></path></g><g transform="translate(606,128)"><path style="stroke: #000000; stroke-width: 1; fill: none;" d="M0,0H-30m0,3v-6M0,0H30m0,3v-6M0,0V21m3,0h-6M0,0V-21m3,0h-6"></path></g><g transform="translate(660,176)"><path style="stroke: #000000; stroke-width: 1; fill: none;" d="M0,0H-36m0,3v-6M0,0H36m0,3v-6M0,0V27m3,0h-6M0,0V-27m3,0h-6"></path></g><g transform="translate(750,304)"><path style="stroke: #000000; stroke-width: 1; fill: none;" d="M0,0H-42m0,3v-6M0,0H42m0,3v-6M0,0V32m3,0h-6M0,0V-32m3,0h-6"></path></g><g transform="translate(774,400)"><path style="stroke: #000000; stroke-width: 1; fill: none;" d="M0,0H-48m0,3v-6M0,0H48m0,3v-6M0,0V37m3,0h-6M0,0V-37m3,0h-6"></path></g><g transform="translate(810,587)"><path style="stroke: #000000; stroke-width: 1; fill: none;" d="M0,0H-30m0,3v-6M0,0H30m0,3v-6M0,0V43m3,0h-6M0,0V-43m3,0h-6"></path></g><path d="M104,583v8h8v-8zM266,481v8h8v-8zM386,337v8h8v-8zM446,241v8h8v-8zM536,156v8h8v-8zM602,124v8h8v-8zM656,172v8h8v-8zM746,300v8h8v-8zM770,396v8h8v-8zM806,583v8h8v-8z" style="stroke: #0000ff; fill: #0000ff;"></path></g><g><path d="M72,596l171,-162l111,-167l60,-107l96,-53l66,-30l54,49l90,127l60,98l66,182" style="stroke: #000000; stroke-width: 1; fill: none;"></path><g transform="translate(72,596)"><path style="stroke: #000000; stroke-width: 1; fill: none;" d="M0,0H-24m0,3v-6M0,0H24m0,3v-6M0,0V32m3,0h-6M0,0V-32m3,0h-6"></path></g><g transform="translate(243,434)"><path style="stroke: #000000; stroke-width: 1; fill: none;" d="M0,0H-72m0,3v-6M0,0H72m0,3v-6M0,0V43m3,0h-6M0,0V-43m3,0h-6"></path></g><g transform="translate(354,267)"><path style="stroke: #000000; stroke-width: 1; fill: none;" d="M0,0H-48m0,3v-6M0,0H48m0,3v-6M0,0V37m3,0h-6M0,0V-37m3,0h-6"></path></g><g transform="translate(414,160)"><path style="stroke: #000000; stroke-width: 1; fill: none;" d="M0,0H-36m0,3v-6M0,0H36m0,3v-6M0,0V21m3,0h-6M0,0V-21m3,0h-6"></path></g><g transform="translate(510,107)"><path style="stroke: #000000; stroke-width: 1; fill: none;" d="M0,0H-30m0,3v-6M0,0H30m0,3v-6M0,0V16m3,0h-6M0,0V-16m3,0h-6"></path></g><g transform="translate(576,77)"><path style="stroke: #000000; stroke-width: 1; fill: none;" d="M0,0H-24m0,3v-6M0,0H24m0,3v-6M0,0V16m3,0h-6M0,0V-16m3,0h-6"></path></g><g transform="translate(630,126)"><path style="stroke: #000000; stroke-width: 1; fill: none;" d="M0,0H-42m0,3v-6M0,0H42m0,3v-6M0,0V21m3,0h-6M0,0V-21m3,0h-6"></path></g><g transform="translate(720,253)"><path style="stroke: #000000; stroke-width: 1; fill: none;" d="M0,0H-36m0,3v-6M0,0H36m0,3v-6M0,0V27m3,0h-6M0,0V-27m3,0h-6"></path></g><g transform="translate(780,351)"><path style="stroke: #000000; stroke-width: 1; fill: none;" d="M0,0H-48m0,3v-6M0,0H48m0,3v-6M0,0V32m3,0h-6M0,0V-32m3,0h-6"></path></g><g transform="translate(846,533)"><path style="stroke: #000000; stroke-width: 1; fill: none;" d="M0,0H-24m0,3v-6M0,0H24m0,3v-6M0,0V37m3,0h-6M0,0V-37m3,0h-6"></path></g><path d="M68,596a4,4,0,1,0,8,0a4,4,0,1,0,-8,0zM239,434a4,4,0,1,0,8,0a4,4,0,1,0,-8,0zM350,267a4,4,0,1,0,8,0a4,4,0,1,0,-8,0zM410,160a4,4,0,1,0,8,0a4,4,0,1,0,-8,0zM506,107a4,4,0,1,0,8,0a4,4,0,1,0,-8,0zM572,77a4,4,0,1,0,8,0a4,4,0,1,0,-8,0zM626,126a4,4,0,1,0,8,0a4,4,0,1,0,-8,0zM716,253a4,4,0,1,0,8,0a4,4,0,1,0,-8,0zM776,351a4,4,0,1,0,8,0a4,4,0,1,0,-8,0zM842,533a4,4,0,1,0,8,0a4,4,0,1,0,-8,0z" style="stroke: #ff0000; fill: #ff0000;"></path></g></svg><g><g transform="translate(0,640)"><path d="M0,0h960M0,-19V0M30,-10V0M60,-10V0M90,-10V0M120,-19V0M150,-10V0M180,-10V0M210,-10V0M240,-19V0M270,-10V0M300,-10V0M330,-10V0M360,-19V0M390,-10V0M420,-10V0M450,-10V0M480,-19V0M510,-10V0M540,-10V0M570,-10V0M600,-19V0M630,-10V0M660,-10V0M690,-10V0M720,-19V0M750,-10V0M780,-10V0M810,-10V0M840,-19V0M870,-10V0M900,-10V0M930,-10V0M960,-19V0" style="stroke: #000000; stroke-width: 1;"></path><g font-family="Arial" font-size="28" space="preserve" fill="#000000" text-anchor="middle"><text dy=".8em" transform="translate(0,5)">-0.4</text><text dy=".8em" transform="translate(120,5)">-0.2</text><text dy=".8em" transform="translate(240,5)">0</text><text dy=".8em" transform="translate(360,5)">0.2</text><text dy=".8em" transform="translate(480,5)">0.4</text><text dy=".8em" transform="translate(600,5)">0.6</text><text dy=".8em" transform="translate(720,5)">0.8</text><text dy=".8em" transform="translate(840,5)">1</text><text dy=".8em" transform="translate(960,5)">1.2</text></g><g font-family="Arial" font-size="28" space="preserve" transform="translate(960,45)"><text fill="#000000" text-anchor="end" dy=".4em">X title</text></g></g><g><path d="M0,0v640M29,640H0M15,613H0M15,587H0M15,560H0M29,533H0M15,507H0M15,480H0M15,453H0M29,427H0M15,400H0M15,373H0M15,347H0M29,320H0M15,293H0M15,267H0M15,240H0M29,213H0M15,187H0M15,160H0M15,133H0M29,107H0M15,80H0M15,53H0M15,27H0M29,0H0" style="stroke: #000000; stroke-width: 1;"></path><g font-family="Arial" font-size="28" space="preserve" fill="#000000" text-anchor="end"><text dy=".4em" transform="translate(-6,640)">0</text><text dy=".4em" transform="translate(-6,533)">2</text><text dy=".4em" transform="translate(-6,427)">4</text><text dy=".4em" transform="translate(-6,320)">6</text><text dy=".4em" transform="translate(-6,213)">8</text><text dy=".4em" transform="translate(-6,107)">10</text><text dy=".4em" transform="translate(-6)">12</text></g><g font-family="Arial" font-size="28" space="preserve" transform="translate(-62)"><text fill="#000000" text-anchor="end" dy=".4em" transform="rotate(270)">Y title</text></g></g><path d="M0,0v640M120,0v640M240,0v640M360,0v640M480,0v640M600,0v640M720,0v640M840,0v640M960,0v640" style="stroke: #000000; stroke-width: 1; stroke-dasharray: 1,2;"></path><path d="M0,640h960M0,533h960M0,427h960M0,320h960M0,213h960M0,107h960M0,0h960" style="stroke: #000000; stroke-width: 1; stroke-dasharray: 1,2;"></path></g></g></g></svg>