<svg xmlns="http://www.w3.org/2000/svg" viewBox="0 0 1200 800" preserveAspectRatio="none" width="1200" height="800"><path d="M0,0H1200V800H0Z" style="fill: #ffffff;"></path><g><g transform="translate(120,80)"><path d="M0,0H960V640H0Z" style="fill: #ffffff; stroke: #000000; stroke-width: 1;"></path><svg x="0" y="0" overflow="hidden" width="960" height="640" viewBox="0 0 960 640"><g><path d="M111,591l171,-112l126,-160l63,-107l94,-95l69,-35l57,53l95,142l25,107l38,207" style="stroke: #000000; stroke-width: 1; fill: none;"></path><g transform="translate(111,591)"><path style="stroke: #000000; stroke-width: 1; fill: none;" d="M0,0H-31m0,3v-6M0,0H31m0,3v-6M0,0V47m3,0h-6M0,0V-47m3,0h-6"></path></g><g transform="translate(282,479)"><path style="stroke: #000000; stroke-width: 1; fill: none;" d="M0,0H-63m0,3v-6M0,0H63m0,3v-6M0,0V41m3,0h-6M0,0V-41m3,0h-6"></path></g><g transform="translate(408,319)"><path style="stroke: #000000; stroke-width: 1; fill: none;" d="M0,0H-44m0,3v-6M0,0H44m0,3v-6M0,0V36m3,0h-6M0,0V-36m3,0h-6"></path></g><g transform="translate(471,212)"><path style="stroke: #000000; stroke-width: 1; fill: none;" d="M0,0H-44m0,3v-6M0,0H44m0,3v-6M0,0V30m3,0h-6M0,0V-30m3,0h-6"></path></g><g transform="translate(565,117)"><path style="stroke: #000000; stroke-width: 1; fill: none;" d="M0,0H-25m0,3v-6M0,0H25m0,3v-6M0,0V24m3,0h-6M0,0V-24m3,0h-6"></path></g><g transform="translate(634,82)"><path style="stroke: #000000; stroke-width: 1; fill: none;" d="M0,0H-31m0,3v-6M0,0H31m0,3v-6M0,0V24m3,0h-6M0,0V-24m3,0h-6"></path></g><g transform="translate(691,135)"><path style="stroke: #000000; stroke-width: 1; fill: none;" d="M0,0H-38m0,3v-6M0,0H38m0,3v-6M0,0V30m3,0h-6M0,0V-30m3,0h-6"></path></g><g transform="translate(786,277)"><path style="stroke: #000000; stroke-width: 1; fill: none;" d="M0,0H-44m0,3v-6M0,0H44m0,3v-6M0,0V36m3,0h-6M0,0V-36m3,0h-6"></path></g><g transform="translate(811,384)"><path style="stroke: #000000; stroke-width: 1; fill: none;" d="M0,0H-50m0,3v-6M0,0H50m0,3v-6M0,0V41m3,0h-6M0,0V-41m3,0h-6"></path></g><g transform="translate(849,591)"><path style="stroke: #000000; stroke-width: 1; fill: none;" d="M0,0H-31m0,3v-6M0,0H31m0,3v-6M0,0V47m3,0h-6M0,0V-47m3,0h-6"></path></g><path d="M107,587v8h8v-8zM278,475v8h8v-8zM404,315v8h8v-8zM467,208v8h8v-8zM561,113v8h8v-8zM630,78v8h8v-8zM687,131v8h8v-8zM782,273v8h8v-8zM807,380v8h8v-8zM845,587v8h8v-8z" style="stroke: #0000ff; fill: #0000ff;"></path></g></svg><g><g transform="translate(0,640)"><path d="M0,0h960M30,-10V0M61,-10V0M93,-10V0M124,-19V0M156,-10V0M187,-10V0M219,-10V0M250,-19V0M282,-10V0M313,-10V0M345,-10V0M376,-19V0M408,-10V0M439,-10V0M471,-10V0M502,-19V0M534,-10V0M565,-10V0M597,-10V0M628,-19V0M660,-10V0M691,-10V0M723,-10V0M754,-19V0M786,-10V0M817,-10V0M849,-10V0M880,-19V0M911,-10V0M943,-10V0" style="stroke: #000000; stroke-width: 1;"></path><g font-family="Arial" font-size="28" space="preserve" fill="#000000" text-anchor="middle"><text dy=".8em" transform="translate(124,5)">-0.2</text><text dy=".8em" transform="translate(250,5)">0</text><text dy=".8em" transform="translate(376,5)">0.2</text><text dy=".8em" transform="translate(502,5)">0.4</text><text dy=".8em" transform="translate(628,5)">0.6</text><text dy=".8em" transform="translate(754,5)">0.8</text><text dy=".8em" transform="translate(880,5)">1</text></g></g><g><path d="M0,0v640M15,639H0M15,627H0M15,615H0M15,603H0M29,591H0M15,580H0M15,568H0M15,556H0M15,544H0M29,532H0M15,520H0M15,508H0M15,497H0M15,485H0M29,473H0M15,461H0M15,449H0M15,437H0M15,425H0M29,414H0M15,402H0M15,390H0M15,378H0M15,366H0M29,354H0M15,343H0M15,331H0M15,319H0M15,307H0M29,295H0M15,283H0M15,271H0M15,260H0M15,248H0M29,236H0M15,224H0M15,212H0M15,200H0M15,188H0M29,177H0M15,165H0M15,153H0M15,141H0M15,129H0M29,117H0M15,105H0M15,94H0M15,82H0M15,70H0M29,58H0M15,46H0M15,34H0M15,23H0M15,11H0" style="stroke: #000000; stroke-width: 1;"></path><g font-family="Arial" font-size="28" space="preserve" fill="#000000" text-anchor="end"><text dy=".4em" transform="translate(-6,591)">1</text><text dy=".4em" transform="translate(-6,532)">2</text><text dy=".4em" transform="translate(-6,473)">3</text><text dy=".4em" transform="translate(-6,414)">4</text><text dy=".4em" transform="translate(-6,354)">5</text><text dy=".4em" transform="translate(-6,295)">6</text><text dy=".4em" transform="translate(-6,236)">7</text><text dy=".4em" transform="translate(-6,177)">8</text><text dy=".4em" transform="translate(-6,117)">9</text><text dy=".4em" transform="translate(-6,58)">10</text></g></g><path d="M124,0v640M250,0v640M376,0v640M502,0v640M628,0v640M754,0v640M880,0v640" style="stroke: #000000; stroke-width: 1; stroke-dasharray: 1,2;"></path><path d="M0,591h960M0,532h960M0,473h960M0,414h960M0,354h960M0,295h960M0,236h960M0,177h960M0,117h960M0,58h960" style="stroke: #000000; stroke-width: 1; stroke-dasharray: 1,2;"></path></g></g><g transform="translate(362,4)" font-family="Arial" font-size="35" space="preserve"><text fill="#000000" text-anchor="middle" dy=".4em" transform="translate(238,25)">TGraphErrors Example</text></g></g></svg>