<svg xmlns="http://www.w3.org/2000/svg" viewBox="0 0 1200 800" preserveAspectRatio="none" width="1200" height="800"><path d="M0,0H1200V800H0Z" style="fill: #ffffff;"></path><g><g transform="translate(120,80)"><path d="M0,0H960V640H0Z" style="fill: #ffffff; stroke: #000000; stroke-width: 1;"></path><svg x="0" y="0" overflow="hidden" width="960" height="640" viewBox="0 0 960 640"><g><g><path d="M128,491a4,4,0,1,0,8,0a4,4,0,1,0,-8,0zM302,301a4,4,0,1,0,8,0a4,4,0,1,0,-8,0zM476,110a4,4,0,1,0,8,0a4,4,0,1,0,-8,0zM650,396a4,4,0,1,0,8,0a4,4,0,1,0,-8,0zM824,206a4,4,0,1,0,8,0a4,4,0,1,0,-8,0z" style="stroke: #000000; fill: #000000;"></path></g><g><g transform="translate(132,491)"><path style="stroke: #ff0000; stroke-width: 1; fill: none;" d="M0,0H-52M0,0H52M0,0V95M0,0V-48"></path></g><g transform="translate(306,301)"><path style="stroke: #ff0000; stroke-width: 1; fill: none;" d="M0,0H-52M0,0H52M0,0V48M0,0V-95"></path></g><g transform="translate(480,110)"><path style="stroke: #ff0000; stroke-width: 1; fill: none;" d="M0,0H-52M0,0H52M0,0V95M0,0V-48"></path></g><g transform="translate(654,396)"><path style="stroke: #ff0000; stroke-width: 1; fill: none;" d="M0,0H-52M0,0H52M0,0V48M0,0V-95"></path></g><g transform="translate(828,206)"><path style="stroke: #ff0000; stroke-width: 1; fill: none;" d="M0,0H-52M0,0H52M0,0V95M0,0V-48"></path></g></g><g><g transform="translate(132,491)"><path d="M-26,48H26V-57H-26Z" style="fill: none; stroke: #0000ff; stroke-width: 1;"></path></g><g transform="translate(306,301)"><path d="M-26,38H26V-67H-26Z" style="fill: none; stroke: #0000ff; stroke-width: 1;"></path></g><g transform="translate(480,110)"><path d="M-26,76H26V-57H-26Z" style="fill: none; stroke: #0000ff; stroke-width: 1;"></path></g><g transform="translate(654,396)"><path d="M-26,29H26V-38H-26Z" style="fill: none; stroke: #0000ff; stroke-width: 1;"></path></g><g transform="translate(828,206)"><path d="M-26,114H26V-76H-26Z" style="fill: none; stroke: #0000ff; stroke-width: 1;"></path></g></g></g></svg><g><g transform="translate(0,640)"><path d="M0,0h960M28,-10V0M63,-10V0M97,-10V0M132,-19V0M167,-10V0M202,-10V0M237,-10V0M271,-10V0M306,-19V0M341,-10V0M376,-10V0M410,-10V0M445,-10V0M480,-19V0M515,-10V0M550,-10V0M584,-10V0M619,-10V0M654,-19V0M689,-10V0M723,-10V0M758,-10V0M793,-10V0M828,-19V0M863,-10V0M897,-10V0M932,-10V0" style="stroke: #000000; stroke-width: 1;"></path><g font-family="Arial" font-size="28" space="preserve" fill="#000000" text-anchor="middle"><text dy=".8em" transform="translate(132,5)">0</text><text dy=".8em" transform="translate(306,5)">1</text><text dy=".8em" transform="translate(480,5)">2</text><text dy=".8em" transform="translate(654,5)">3</text><text dy=".8em" transform="translate(828,5)">4</text></g></g><g><path d="M0,0v640M15,625H0M15,606H0M29,587H0M15,568H0M15,549H0M15,530H0M15,510H0M29,491H0M15,472H0M15,453H0M15,434H0M15,415H0M29,396H0M15,377H0M15,358H0M15,339H0M15,320H0M29,301H0M15,282H0M15,263H0M15,244H0M15,225H0M29,206H0M15,187H0M15,168H0M15,149H0M15,130H0M29,110H0M15,91H0M15,72H0M15,53H0M15,34H0M29,15H0" style="stroke: #000000; stroke-width: 1;"></path><g font-family="Arial" font-size="28" space="preserve" fill="#000000" text-anchor="end"><text dy=".4em" transform="translate(-6,587)">-1</text><text dy=".4em" transform="translate(-6,491)">0</text><text dy=".4em" transform="translate(-6,396)">1</text><text dy=".4em" transform="translate(-6,301)">2</text><text dy=".4em" transform="translate(-6,206)">3</text><text dy=".4em" transform="translate(-6,110)">4</text><text dy=".4em" transform="translate(-6,15)">5</text></g></g><path d="M132,0v640M306,0v640M480,0v640M654,0v640M828,0v640" style="stroke: #000000; stroke-width: 1; stroke-dasharray: 1,2;"></path><path d="M0,587h960M0,491h960M0,396h960M0,301h960M0,206h960M0,110h960M0,15h960" style="stroke: #000000; stroke-width: 1; stroke-dasharray: 1,2;"></path></g></g><g transform="translate(314,4)" font-family="Arial" font-size="33" space="preserve"><text fill="#000000" text-anchor="middle" dy=".4em" transform="translate(286,25)">TGraphMultiErrors Example</text></g></g></svg>