<svg xmlns="http://www.w3.org/2000/svg" viewBox="0 0 1200 800" preserveAspectRatio="none" width="1200" height="800"><path d="M0,0H1200V800H0Z" style="fill: #ffffff;"></path><g><svg viewBox="0 0 376 251" preserveAspectRatio="none" x="12" y="8" width="376" height="251"><path d="M0,0H376V251H0Z" style="fill: #ffffff;"></path><g><g transform="translate(38,25)"><path d="M0,0H301V201H0Z" style="fill: #ffffff; stroke: #000000; stroke-width: 1;"></path><svg x="0" y="0" overflow="hidden" width="301" height="201" viewBox="0 0 301 201"><g><path d="M67,134l167,-67" style="stroke: #000000; stroke-width: 1; fill: none;"></path><g transform="translate(67,134)"><path style="stroke: #000000; stroke-width: 1; fill: none;" d="M0,0H-42m0,3v-6M0,0H42m0,3v-6M0,0V50m3,0h-6M0,0V-50m3,0h-6"></path></g><g transform="translate(234,67)"><path style="stroke: #000000; stroke-width: 1; fill: none;" d="M0,0H-42m0,3v-6M0,0H42m0,3v-6M0,0V50m3,0h-6M0,0V-50m3,0h-6"></path></g><path d="M63,134a4,4,0,1,0,8,0a4,4,0,1,0,-8,0zM230,67a4,4,0,1,0,8,0a4,4,0,1,0,-8,0z" style="stroke: #000000; fill: none;"></path></g></svg><g><g transform="translate(0,201)"><path d="M0,0h301M0,-4V0M8,-4V0M17,-4V0M25,-8V0M33,-4V0M42,-4V0M50,-4V0M59,-4V0M67,-8V0M75,-4V0M84,-4V0M92,-4V0M100,-4V0M109,-8V0M117,-4V0M125,-4V0M134,-4V0M142,-4V0M151,-8V0M159,-4V0M167,-4V0M176,-4V0M184,-4V0M192,-8V0M201,-4V0M209,-4V0M217,-4V0M226,-4V0M234,-8V0M242,-4V0M251,-4V0M259,-4V0M268,-4V0M276,-8V0M284,-4V0M293,-4V0M301,-4V0" style="stroke: #000000; stroke-width: 1;"></path><g font-family="Arial" font-size="9" space="preserve" fill="#000000" text-anchor="middle"><text dy=".8em" transform="translate(25,2)">4</text><text dy=".8em" transform="translate(67,2)">5</text><text dy=".8em" transform="translate(109,2)">6</text><text dy=".8em" transform="translate(151,2)">7</text><text dy=".8em" transform="translate(192,2)">8</text><text dy=".8em" transform="translate(234,2)">9</text><text dy=".8em" transform="translate(276,2)">10</text></g></g><g><path d="M0,0v201M11,201H0M11,184H0M11,168H0M11,151H0M11,134H0M11,117H0M11,101H0M11,84H0M11,67H0M11,50H0M11,33H0M11,17H0M11,0H0" style="stroke: #000000; stroke-width: 1;"></path><g font-family="Arial" font-size="9" space="preserve" fill="#000000" text-anchor="end"><text dy=".4em" transform="translate(-2,201)">1</text><text dy=".4em" transform="translate(-2,184)">2</text><text dy=".4em" transform="translate(-2,168)">3</text><text dy=".4em" transform="translate(-2,151)">4</text><text dy=".4em" transform="translate(-2,134)">5</text><text dy=".4em" transform="translate(-2,117)">6</text><text dy=".4em" transform="translate(-2,101)">7</text><text dy=".4em" transform="translate(-2,84)">8</text><text dy=".4em" transform="translate(-2,67)">9</text><text dy=".4em" transform="translate(-2,50)">10</text><text dy=".4em" transform="translate(-2,33)">11</text><text dy=".4em" transform="translate(-2,17)">12</text><text dy=".4em" transform="translate(-2)">13</text></g></g><path d="M25,0v201M67,0v201M109,0v201M151,0v201M192,0v201M234,0v201M276,0v201" style="stroke: #000000; stroke-width: 1; stroke-dasharray: 1,2;"></path><path d="M0,201h301M0,184h301M0,168h301M0,151h301M0,134h301M0,117h301M0,101h301M0,84h301M0,67h301M0,50h301M0,33h301M0,17h301M0,0h301" style="stroke: #000000; stroke-width: 1; stroke-dasharray: 1,2;"></path></g></g></g></svg><svg viewBox="0 0 376 251" preserveAspectRatio="none" x="412" y="8" width="376" height="251"><path d="M0,0H376V251H0Z" style="fill: #ffffff;"></path><g><g transform="translate(38,25)"><path d="M0,0H301V201H0Z" style="fill: #ffffff; stroke: #000000; stroke-width: 1;"></path><svg x="0" y="0" overflow="hidden" width="301" height="201" viewBox="0 0 301 201"><g><path d="M234,67l-167,67" style="stroke: #000000; stroke-width: 1; fill: none;"></path><g transform="translate(234,67)"><path style="stroke: #000000; stroke-width: 1; fill: none;" d="M0,0H42m0,3v-6M0,0H-42m0,3v-6M0,0V-50m3,0h-6M0,0V50m3,0h-6"></path></g><g transform="translate(67,134)"><path style="stroke: #000000; stroke-width: 1; fill: none;" d="M0,0H42m0,3v-6M0,0H-42m0,3v-6M0,0V-50m3,0h-6M0,0V50m3,0h-6"></path></g><path d="M230,67a4,4,0,1,0,8,0a4,4,0,1,0,-8,0zM63,134a4,4,0,1,0,8,0a4,4,0,1,0,-8,0z" style="stroke: #000000; fill: none;"></path></g></svg><g><g transform="translate(0,201)"><path d="M0,0h301M301,-4V0M293,-4V0M284,-4V0M276,-8V0M268,-4V0M259,-4V0M251,-4V0M242,-4V0M234,-8V0M226,-4V0M217,-4V0M209,-4V0M201,-4V0M192,-8V0M184,-4V0M176,-4V0M167,-4V0M159,-4V0M150,-8V0M142,-4V0M134,-4V0M125,-4V0M117,-4V0M109,-8V0M100,-4V0M92,-4V0M84,-4V0M75,-4V0M67,-8V0M59,-4V0M50,-4V0M42,-4V0M33,-4V0M25,-8V0M17,-4V0M8,-4V0M0,-4V0" style="stroke: #000000; stroke-width: 1;"></path><g font-family="Arial" font-size="9" space="preserve" fill="#000000" text-anchor="middle"><text dy=".8em" transform="translate(276,2)">4</text><text dy=".8em" transform="translate(234,2)">5</text><text dy=".8em" transform="translate(192,2)">6</text><text dy=".8em" transform="translate(150,2)">7</text><text dy=".8em" transform="translate(109,2)">8</text><text dy=".8em" transform="translate(67,2)">9</text><text dy=".8em" transform="translate(25,2)">10</text></g></g><g><path d="M0,0v201M11,0H0M11,17H0M11,34H0M11,50H0M11,67H0M11,84H0M11,101H0M11,117H0M11,134H0M11,151H0M11,168H0M11,184H0M11,201H0" style="stroke: #000000; stroke-width: 1;"></path><g font-family="Arial" font-size="9" space="preserve" fill="#000000" text-anchor="end"><text dy=".4em" transform="translate(-2)">1</text><text dy=".4em" transform="translate(-2,17)">2</text><text dy=".4em" transform="translate(-2,34)">3</text><text dy=".4em" transform="translate(-2,50)">4</text><text dy=".4em" transform="translate(-2,67)">5</text><text dy=".4em" transform="translate(-2,84)">6</text><text dy=".4em" transform="translate(-2,101)">7</text><text dy=".4em" transform="translate(-2,117)">8</text><text dy=".4em" transform="translate(-2,134)">9</text><text dy=".4em" transform="translate(-2,151)">10</text><text dy=".4em" transform="translate(-2,168)">11</text><text dy=".4em" transform="translate(-2,184)">12</text><text dy=".4em" transform="translate(-2,201)">13</text></g></g><path d="M276,0v201M234,0v201M192,0v201M150,0v201M109,0v201M67,0v201M25,0v201" style="stroke: #000000; stroke-width: 1; stroke-dasharray: 1,2;"></path><path d="M0,0h301M0,17h301M0,34h301M0,50h301M0,67h301M0,84h301M0,101h301M0,117h301M0,134h301M0,151h301M0,168h301M0,184h301M0,201h301" style="stroke: #000000; stroke-width: 1; stroke-dasharray: 1,2;"></path></g></g></g></svg><svg viewBox="0 0 376 251" preserveAspectRatio="none" x="812" y="8" width="376" height="251"><path d="M0,0H376V251H0Z" style="fill: #ffffff;"></path><g><g transform="translate(38,25)"><path d="M0,0H301V201H0Z" style="fill: #ffffff; stroke: #000000; stroke-width: 1;"></path><svg x="0" y="0" overflow="hidden" width="301" height="201" viewBox="0 0 301 201"><g><path d="M199,126l-156,46" style="stroke: #000000; stroke-width: 1; fill: none;"></path><g transform="translate(199,126)"><path style="stroke: #000000; stroke-width: 1; fill: none;" d="M0,0H59m0,3v-6M0,0H-48m0,3v-6M0,0V-72m3,0h-6M0,0V37m3,0h-6"></path></g><g transform="translate(43,172)"><path style="stroke: #000000; stroke-width: 1; fill: none;" d="M0,0H31m0,3v-6M0,0H-28m0,3v-6M0,0V-32m3,0h-6M0,0V23m3,0h-6"></path></g><path d="M195,126a4,4,0,1,0,8,0a4,4,0,1,0,-8,0zM39,172a4,4,0,1,0,8,0a4,4,0,1,0,-8,0z" style="stroke: #000000; fill: none;"></path></g></svg><g><g transform="translate(0,201)"><path d="M0,0h301M258,-8V0M199,-8V0M151,-8V0M110,-8V0M74,-8V0M43,-8V0M15,-8V0" style="stroke: #000000; stroke-width: 1;"></path><g font-family="Arial" font-size="9" space="preserve" fill="#000000" text-anchor="middle"><text dy=".8em" transform="translate(258,2)">4</text><text dy=".8em" transform="translate(199,2)">5</text><text dy=".8em" transform="translate(151,2)">6</text><text dy=".8em" transform="translate(110,2)">7</text><text dy=".8em" transform="translate(74,2)">8</text><text dy=".8em" transform="translate(43,2)">9</text><text dy=".8em" transform="translate(15,2)">10</text></g></g><g><path d="M0,0v201M11,0H0M11,54H0M11,86H0M11,109H0M11,126H0M11,140H0M11,152H0M11,163H0M11,172H0M11,180H0" style="stroke: #000000; stroke-width: 1;"></path><g font-family="Arial" font-size="9" space="preserve" fill="#000000" text-anchor="end"><text dy=".4em" transform="translate(-2)">1</text><text dy=".4em" transform="translate(-2,54)">2</text><text dy=".4em" transform="translate(-2,86)">3</text><text dy=".4em" transform="translate(-2,109)">4</text><text dy=".4em" transform="translate(-2,126)">5</text><text dy=".4em" transform="translate(-2,140)">6</text><text dy=".4em" transform="translate(-2,152)">7</text><text dy=".4em" transform="translate(-2,163)">8</text><text dy=".4em" transform="translate(-2,172)">9</text><text dy=".4em" transform="translate(-2,180)">10</text></g></g><path d="M258,0v201M199,0v201M151,0v201M110,0v201M74,0v201M43,0v201M15,0v201" style="stroke: #000000; stroke-width: 1; stroke-dasharray: 1,2;"></path><path d="M0,0h301M0,54h301M0,86h301M0,109h301M0,126h301M0,140h301M0,152h301M0,163h301M0,172h301M0,180h301" style="stroke: #000000; stroke-width: 1; stroke-dasharray: 1,2;"></path></g></g></g></svg><svg viewBox="0 0 376 251" preserveAspectRatio="none" x="12" y="274" width="376" height="251"><path d="M0,0H376V251H0Z" style="fill: #ffffff;"></path><g><g transform="translate(38,25)"><path d="M0,0H301V201H0Z" style="fill: #ffffff; stroke: #000000; stroke-width: 1;"></path><svg x="0" y="0" overflow="hidden" width="301" height="201" viewBox="0 0 301 201"><g><path d="M56,134l126,-67" style="stroke: #000000; stroke-width: 1; fill: none;"></path><g transform="translate(56,134)"><path style="stroke: #000000; stroke-width: 1; fill: none;" d="M0,0H-31m0,3v-6M0,0H94m0,3v-6M0,0V50m3,0h-6M0,0V-17m3,0h-6"></path></g><g transform="translate(182,67)"><path style="stroke: #000000; stroke-width: 1; fill: none;" d="M0,0H-31m0,3v-6M0,0H94m0,3v-6M0,0V17m3,0h-6M0,0V-50m3,0h-6"></path></g><path d="M52,134a4,4,0,1,0,8,0a4,4,0,1,0,-8,0zM178,67a4,4,0,1,0,8,0a4,4,0,1,0,-8,0z" style="stroke: #000000; fill: none;"></path></g></svg><g><g transform="translate(0,201)"><path d="M0,0h301M0,-4V0M6,-4V0M13,-4V0M19,-4V0M25,-8V0M31,-4V0M38,-4V0M44,-4V0M50,-4V0M56,-8V0M63,-4V0M69,-4V0M75,-4V0M82,-4V0M88,-8V0M94,-4V0M100,-4V0M107,-4V0M113,-4V0M119,-8V0M125,-4V0M132,-4V0M138,-4V0M144,-4V0M150,-8V0M157,-4V0M163,-4V0M169,-4V0M176,-4V0M182,-8V0M188,-4V0M194,-4V0M201,-4V0M207,-4V0M213,-8V0M219,-4V0M226,-4V0M232,-4V0M238,-4V0M245,-8V0M251,-4V0M257,-4V0M263,-4V0M270,-4V0M276,-8V0M282,-4V0M288,-4V0M295,-4V0M301,-4V0" style="stroke: #000000; stroke-width: 1;"></path><g font-family="Arial" font-size="9" space="preserve" fill="#000000" text-anchor="middle"><text dy=".8em" transform="translate(25,2)">4</text><text dy=".8em" transform="translate(56,2)">5</text><text dy=".8em" transform="translate(88,2)">6</text><text dy=".8em" transform="translate(119,2)">7</text><text dy=".8em" transform="translate(150,2)">8</text><text dy=".8em" transform="translate(182,2)">9</text><text dy=".8em" transform="translate(213,2)">10</text><text dy=".8em" transform="translate(245,2)">11</text><text dy=".8em" transform="translate(276,2)">12</text></g></g><g><path d="M0,0v201M11,201H0M11,184H0M11,168H0M11,151H0M11,134H0M11,117H0M11,101H0M11,84H0M11,67H0M11,50H0M11,33H0M11,17H0M11,0H0" style="stroke: #000000; stroke-width: 1;"></path><g font-family="Arial" font-size="9" space="preserve" fill="#000000" text-anchor="end"><text dy=".4em" transform="translate(-2,201)">1</text><text dy=".4em" transform="translate(-2,184)">2</text><text dy=".4em" transform="translate(-2,168)">3</text><text dy=".4em" transform="translate(-2,151)">4</text><text dy=".4em" transform="translate(-2,134)">5</text><text dy=".4em" transform="translate(-2,117)">6</text><text dy=".4em" transform="translate(-2,101)">7</text><text dy=".4em" transform="translate(-2,84)">8</text><text dy=".4em" transform="translate(-2,67)">9</text><text dy=".4em" transform="translate(-2,50)">10</text><text dy=".4em" transform="translate(-2,33)">11</text><text dy=".4em" transform="translate(-2,17)">12</text><text dy=".4em" transform="translate(-2)">13</text></g></g><path d="M25,0v201M56,0v201M88,0v201M119,0v201M150,0v201M182,0v201M213,0v201M245,0v201M276,0v201" style="stroke: #000000; stroke-width: 1; stroke-dasharray: 1,2;"></path><path d="M0,201h301M0,184h301M0,168h301M0,151h301M0,134h301M0,117h301M0,101h301M0,84h301M0,67h301M0,50h301M0,33h301M0,17h301M0,0h301" style="stroke: #000000; stroke-width: 1; stroke-dasharray: 1,2;"></path></g></g></g></svg><svg viewBox="0 0 376 251" preserveAspectRatio="none" x="412" y="274" width="376" height="251"><path d="M0,0H376V251H0Z" style="fill: #ffffff;"></path><g><g transform="translate(38,25)"><path d="M0,0H301V201H0Z" style="fill: #ffffff; stroke: #000000; stroke-width: 1;"></path><svg x="0" y="0" overflow="hidden" width="301" height="201" viewBox="0 0 301 201"><g><path d="M245,67l-126,67" style="stroke: #000000; stroke-width: 1; fill: none;"></path><g transform="translate(245,67)"><path style="stroke: #000000; stroke-width: 1; fill: none;" d="M0,0H31m0,3v-6M0,0H-94m0,3v-6M0,0V-50m3,0h-6M0,0V17m3,0h-6"></path></g><g transform="translate(119,134)"><path style="stroke: #000000; stroke-width: 1; fill: none;" d="M0,0H31m0,3v-6M0,0H-94m0,3v-6M0,0V-17m3,0h-6M0,0V50m3,0h-6"></path></g><path d="M241,67a4,4,0,1,0,8,0a4,4,0,1,0,-8,0zM115,134a4,4,0,1,0,8,0a4,4,0,1,0,-8,0z" style="stroke: #000000; fill: none;"></path></g></svg><g><g transform="translate(0,201)"><path d="M0,0h301M301,-4V0M295,-4V0M288,-4V0M282,-4V0M276,-8V0M270,-4V0M263,-4V0M257,-4V0M251,-4V0M245,-8V0M238,-4V0M232,-4V0M226,-4V0M219,-4V0M213,-8V0M207,-4V0M201,-4V0M194,-4V0M188,-4V0M182,-8V0M176,-4V0M169,-4V0M163,-4V0M157,-4V0M151,-8V0M144,-4V0M138,-4V0M132,-4V0M125,-4V0M119,-8V0M113,-4V0M107,-4V0M100,-4V0M94,-4V0M88,-8V0M82,-4V0M75,-4V0M69,-4V0M63,-4V0M56,-8V0M50,-4V0M44,-4V0M38,-4V0M31,-4V0M25,-8V0M19,-4V0M13,-4V0M6,-4V0M0,-4V0" style="stroke: #000000; stroke-width: 1;"></path><g font-family="Arial" font-size="9" space="preserve" fill="#000000" text-anchor="middle"><text dy=".8em" transform="translate(276,2)">4</text><text dy=".8em" transform="translate(245,2)">5</text><text dy=".8em" transform="translate(213,2)">6</text><text dy=".8em" transform="translate(182,2)">7</text><text dy=".8em" transform="translate(151,2)">8</text><text dy=".8em" transform="translate(119,2)">9</text><text dy=".8em" transform="translate(88,2)">10</text><text dy=".8em" transform="translate(56,2)">11</text><text dy=".8em" transform="translate(25,2)">12</text></g></g><g><path d="M0,0v201M11,0H0M11,17H0M11,34H0M11,50H0M11,67H0M11,84H0M11,101H0M11,117H0M11,134H0M11,151H0M11,168H0M11,184H0M11,201H0" style="stroke: #000000; stroke-width: 1;"></path><g font-family="Arial" font-size="9" space="preserve" fill="#000000" text-anchor="end"><text dy=".4em" transform="translate(-2)">1</text><text dy=".4em" transform="translate(-2,17)">2</text><text dy=".4em" transform="translate(-2,34)">3</text><text dy=".4em" transform="translate(-2,50)">4</text><text dy=".4em" transform="translate(-2,67)">5</text><text dy=".4em" transform="translate(-2,84)">6</text><text dy=".4em" transform="translate(-2,101)">7</text><text dy=".4em" transform="translate(-2,117)">8</text><text dy=".4em" transform="translate(-2,134)">9</text><text dy=".4em" transform="translate(-2,151)">10</text><text dy=".4em" transform="translate(-2,168)">11</text><text dy=".4em" transform="translate(-2,184)">12</text><text dy=".4em" transform="translate(-2,201)">13</text></g></g><path d="M276,0v201M245,0v201M213,0v201M182,0v201M151,0v201M119,0v201M88,0v201M56,0v201M25,0v201" style="stroke: #000000; stroke-width: 1; stroke-dasharray: 1,2;"></path><path d="M0,0h301M0,17h301M0,34h301M0,50h301M0,67h301M0,84h301M0,101h301M0,117h301M0,134h301M0,151h301M0,168h301M0,184h301M0,201h301" style="stroke: #000000; stroke-width: 1; stroke-dasharray: 1,2;"></path></g></g></g></svg><svg viewBox="0 0 376 251" preserveAspectRatio="none" x="812" y="274" width="376" height="251"><path d="M0,0H376V251H0Z" style="fill: #ffffff;"></path><g><g transform="translate(38,25)"><path d="M0,0H301V201H0Z" style="fill: #ffffff; stroke: #000000; stroke-width: 1;"></path><svg x="0" y="0" overflow="hidden" width="301" height="201" viewBox="0 0 301 201"><g><path d="M204,126l-128,46" style="stroke: #000000; stroke-width: 1; fill: none;"></path><g transform="translate(204,126)"><path style="stroke: #000000; stroke-width: 1; fill: none;" d="M0,0H48m0,3v-6M0,0H-102m0,3v-6M0,0V-72m3,0h-6M0,0V14m3,0h-6"></path></g><g transform="translate(76,172)"><path style="stroke: #000000; stroke-width: 1; fill: none;" d="M0,0H26m0,3v-6M0,0H-62m0,3v-6M0,0V-9m3,0h-6M0,0V23m3,0h-6"></path></g><path d="M200,126a4,4,0,1,0,8,0a4,4,0,1,0,-8,0zM72,172a4,4,0,1,0,8,0a4,4,0,1,0,-8,0z" style="stroke: #000000; fill: none;"></path></g></svg><g><g transform="translate(0,201)"><path d="M0,0h301M253,-8V0M204,-8V0M165,-8V0M131,-8V0M102,-8V0M76,-8V0M54,-8V0" style="stroke: #000000; stroke-width: 1;"></path><g font-family="Arial" font-size="9" space="preserve" fill="#000000" text-anchor="middle"><text dy=".8em" transform="translate(253,2)">4</text><text dy=".8em" transform="translate(204,2)">5</text><text dy=".8em" transform="translate(165,2)">6</text><text dy=".8em" transform="translate(131,2)">7</text><text dy=".8em" transform="translate(102,2)">8</text><text dy=".8em" transform="translate(76,2)">9</text><text dy=".8em" transform="translate(54,2)">10</text></g></g><g><path d="M0,0v201M11,0H0M11,54H0M11,86H0M11,109H0M11,126H0M11,140H0M11,152H0M11,163H0M11,172H0M11,180H0" style="stroke: #000000; stroke-width: 1;"></path><g font-family="Arial" font-size="9" space="preserve" fill="#000000" text-anchor="end"><text dy=".4em" transform="translate(-2)">1</text><text dy=".4em" transform="translate(-2,54)">2</text><text dy=".4em" transform="translate(-2,86)">3</text><text dy=".4em" transform="translate(-2,109)">4</text><text dy=".4em" transform="translate(-2,126)">5</text><text dy=".4em" transform="translate(-2,140)">6</text><text dy=".4em" transform="translate(-2,152)">7</text><text dy=".4em" transform="translate(-2,163)">8</text><text dy=".4em" transform="translate(-2,172)">9</text><text dy=".4em" transform="translate(-2,180)">10</text></g></g><path d="M253,0v201M204,0v201M165,0v201M131,0v201M102,0v201M76,0v201M54,0v201" style="stroke: #000000; stroke-width: 1; stroke-dasharray: 1,2;"></path><path d="M0,0h301M0,54h301M0,86h301M0,109h301M0,126h301M0,140h301M0,152h301M0,163h301M0,172h301M0,180h301" style="stroke: #000000; stroke-width: 1; stroke-dasharray: 1,2;"></path></g></g></g></svg><svg viewBox="0 0 376 251" preserveAspectRatio="none" x="12" y="541" width="376" height="251"><path d="M0,0H376V251H0Z" style="fill: #ffffff;"></path><g><g transform="translate(38,25)"><path d="M0,0H301V201H0Z" style="fill: #ffffff; stroke: #000000; stroke-width: 1;"></path><svg x="0" y="0" overflow="hidden" width="301" height="201" viewBox="0 0 301 201"><g><path d="M56,134l126,-67" style="stroke: #000000; stroke-width: 1; fill: none;"></path><g transform="translate(56,134)"><path style="stroke: #000000; stroke-width: 1; fill: none;" d="M0,0L-31,-8m0,3v-6M0,0L94,-3m0,3v-6M0,0L16,50m3,0h-6M0,0L6,-17m3,0h-6"></path></g><g transform="translate(182,67)"><path style="stroke: #000000; stroke-width: 1; fill: none;" d="M0,0L-31,8m0,3v-6M0,0L94,3m0,3v-6M0,0L-16,17m3,0h-6M0,0L-6,-50m3,0h-6"></path></g><path d="M52,134a4,4,0,1,0,8,0a4,4,0,1,0,-8,0zM178,67a4,4,0,1,0,8,0a4,4,0,1,0,-8,0z" style="stroke: #000000; fill: none;"></path></g></svg><g><g transform="translate(0,201)"><path d="M0,0h301M0,-4V0M6,-4V0M13,-4V0M19,-4V0M25,-8V0M31,-4V0M38,-4V0M44,-4V0M50,-4V0M56,-8V0M63,-4V0M69,-4V0M75,-4V0M82,-4V0M88,-8V0M94,-4V0M100,-4V0M107,-4V0M113,-4V0M119,-8V0M125,-4V0M132,-4V0M138,-4V0M144,-4V0M150,-8V0M157,-4V0M163,-4V0M169,-4V0M176,-4V0M182,-8V0M188,-4V0M194,-4V0M201,-4V0M207,-4V0M213,-8V0M219,-4V0M226,-4V0M232,-4V0M238,-4V0M245,-8V0M251,-4V0M257,-4V0M263,-4V0M270,-4V0M276,-8V0M282,-4V0M288,-4V0M295,-4V0M301,-4V0" style="stroke: #000000; stroke-width: 1;"></path><g font-family="Arial" font-size="9" space="preserve" fill="#000000" text-anchor="middle"><text dy=".8em" transform="translate(25,2)">4</text><text dy=".8em" transform="translate(56,2)">5</text><text dy=".8em" transform="translate(88,2)">6</text><text dy=".8em" transform="translate(119,2)">7</text><text dy=".8em" transform="translate(150,2)">8</text><text dy=".8em" transform="translate(182,2)">9</text><text dy=".8em" transform="translate(213,2)">10</text><text dy=".8em" transform="translate(245,2)">11</text><text dy=".8em" transform="translate(276,2)">12</text></g></g><g><path d="M0,0v201M11,201H0M11,184H0M11,168H0M11,151H0M11,134H0M11,117H0M11,101H0M11,84H0M11,67H0M11,50H0M11,33H0M11,17H0M11,0H0" style="stroke: #000000; stroke-width: 1;"></path><g font-family="Arial" font-size="9" space="preserve" fill="#000000" text-anchor="end"><text dy=".4em" transform="translate(-2,201)">1</text><text dy=".4em" transform="translate(-2,184)">2</text><text dy=".4em" transform="translate(-2,168)">3</text><text dy=".4em" transform="translate(-2,151)">4</text><text dy=".4em" transform="translate(-2,134)">5</text><text dy=".4em" transform="translate(-2,117)">6</text><text dy=".4em" transform="translate(-2,101)">7</text><text dy=".4em" transform="translate(-2,84)">8</text><text dy=".4em" transform="translate(-2,67)">9</text><text dy=".4em" transform="translate(-2,50)">10</text><text dy=".4em" transform="translate(-2,33)">11</text><text dy=".4em" transform="translate(-2,17)">12</text><text dy=".4em" transform="translate(-2)">13</text></g></g><path d="M25,0v201M56,0v201M88,0v201M119,0v201M150,0v201M182,0v201M213,0v201M245,0v201M276,0v201" style="stroke: #000000; stroke-width: 1; stroke-dasharray: 1,2;"></path><path d="M0,201h301M0,184h301M0,168h301M0,151h301M0,134h301M0,117h301M0,101h301M0,84h301M0,67h301M0,50h301M0,33h301M0,17h301M0,0h301" style="stroke: #000000; stroke-width: 1; stroke-dasharray: 1,2;"></path></g></g></g></svg><svg viewBox="0 0 376 251" preserveAspectRatio="none" x="412" y="541" width="376" height="251"><path d="M0,0H376V251H0Z" style="fill: #ffffff;"></path><g><g transform="translate(38,25)"><path d="M0,0H301V201H0Z" style="fill: #ffffff; stroke: #000000; stroke-width: 1;"></path><svg x="0" y="0" overflow="hidden" width="301" height="201" viewBox="0 0 301 201"><g><path d="M245,67l-126,67" style="stroke: #000000; stroke-width: 1; fill: none;"></path><g transform="translate(245,67)"><path style="stroke: #000000; stroke-width: 1; fill: none;" d="M0,0L31,8m0,3v-6M0,0L-94,3m0,3v-6M0,0L-16,-50m3,0h-6M0,0L-6,17m3,0h-6"></path></g><g transform="translate(119,134)"><path style="stroke: #000000; stroke-width: 1; fill: none;" d="M0,0L31,-8m0,3v-6M0,0L-94,-3m0,3v-6M0,0L16,-17m3,0h-6M0,0L6,50m3,0h-6"></path></g><path d="M241,67a4,4,0,1,0,8,0a4,4,0,1,0,-8,0zM115,134a4,4,0,1,0,8,0a4,4,0,1,0,-8,0z" style="stroke: #000000; fill: none;"></path></g></svg><g><g transform="translate(0,201)"><path d="M0,0h301M301,-4V0M295,-4V0M288,-4V0M282,-4V0M276,-8V0M270,-4V0M263,-4V0M257,-4V0M251,-4V0M245,-8V0M238,-4V0M232,-4V0M226,-4V0M219,-4V0M213,-8V0M207,-4V0M201,-4V0M194,-4V0M188,-4V0M182,-8V0M176,-4V0M169,-4V0M163,-4V0M157,-4V0M151,-8V0M144,-4V0M138,-4V0M132,-4V0M125,-4V0M119,-8V0M113,-4V0M107,-4V0M100,-4V0M94,-4V0M88,-8V0M82,-4V0M75,-4V0M69,-4V0M63,-4V0M56,-8V0M50,-4V0M44,-4V0M38,-4V0M31,-4V0M25,-8V0M19,-4V0M13,-4V0M6,-4V0M0,-4V0" style="stroke: #000000; stroke-width: 1;"></path><g font-family="Arial" font-size="9" space="preserve" fill="#000000" text-anchor="middle"><text dy=".8em" transform="translate(276,2)">4</text><text dy=".8em" transform="translate(245,2)">5</text><text dy=".8em" transform="translate(213,2)">6</text><text dy=".8em" transform="translate(182,2)">7</text><text dy=".8em" transform="translate(151,2)">8</text><text dy=".8em" transform="translate(119,2)">9</text><text dy=".8em" transform="translate(88,2)">10</text><text dy=".8em" transform="translate(56,2)">11</text><text dy=".8em" transform="translate(25,2)">12</text></g></g><g><path d="M0,0v201M11,0H0M11,17H0M11,34H0M11,50H0M11,67H0M11,84H0M11,101H0M11,117H0M11,134H0M11,151H0M11,168H0M11,184H0M11,201H0" style="stroke: #000000; stroke-width: 1;"></path><g font-family="Arial" font-size="9" space="preserve" fill="#000000" text-anchor="end"><text dy=".4em" transform="translate(-2)">1</text><text dy=".4em" transform="translate(-2,17)">2</text><text dy=".4em" transform="translate(-2,34)">3</text><text dy=".4em" transform="translate(-2,50)">4</text><text dy=".4em" transform="translate(-2,67)">5</text><text dy=".4em" transform="translate(-2,84)">6</text><text dy=".4em" transform="translate(-2,101)">7</text><text dy=".4em" transform="translate(-2,117)">8</text><text dy=".4em" transform="translate(-2,134)">9</text><text dy=".4em" transform="translate(-2,151)">10</text><text dy=".4em" transform="translate(-2,168)">11</text><text dy=".4em" transform="translate(-2,184)">12</text><text dy=".4em" transform="translate(-2,201)">13</text></g></g><path d="M276,0v201M245,0v201M213,0v201M182,0v201M151,0v201M119,0v201M88,0v201M56,0v201M25,0v201" style="stroke: #000000; stroke-width: 1; stroke-dasharray: 1,2;"></path><path d="M0,0h301M0,17h301M0,34h301M0,50h301M0,67h301M0,84h301M0,101h301M0,117h301M0,134h301M0,151h301M0,168h301M0,184h301M0,201h301" style="stroke: #000000; stroke-width: 1; stroke-dasharray: 1,2;"></path></g></g></g></svg><svg viewBox="0 0 376 251" preserveAspectRatio="none" x="812" y="541" width="376" height="251"><path d="M0,0H376V251H0Z" style="fill: #ffffff;"></path><g><g transform="translate(38,25)"><path d="M0,0H301V201H0Z" style="fill: #ffffff; stroke: #000000; stroke-width: 1;"></path><svg x="0" y="0" overflow="hidden" width="301" height="201" viewBox="0 0 301 201"><g><path d="M204,126l-128,46" style="stroke: #000000; stroke-width: 1; fill: none;"></path><g transform="translate(204,126)"><path style="stroke: #000000; stroke-width: 1; fill: none;" d="M0,0L48,7m0,3v-6M0,0L-102,3m0,3v-6M0,0L-21,-72m3,0h-6M0,0L-9,14m3,0h-6"></path></g><g transform="translate(76,172)"><path style="stroke: #000000; stroke-width: 1; fill: none;" d="M0,0L26,-4m0,3v-6M0,0L-62,-2m0,3v-6M0,0L12,-9m3,0h-6M0,0L5,23m3,0h-6"></path></g><path d="M200,126a4,4,0,1,0,8,0a4,4,0,1,0,-8,0zM72,172a4,4,0,1,0,8,0a4,4,0,1,0,-8,0z" style="stroke: #000000; fill: none;"></path></g></svg><g><g transform="translate(0,201)"><path d="M0,0h301M253,-8V0M204,-8V0M165,-8V0M131,-8V0M102,-8V0M76,-8V0M54,-8V0" style="stroke: #000000; stroke-width: 1;"></path><g font-family="Arial" font-size="9" space="preserve" fill="#000000" text-anchor="middle"><text dy=".8em" transform="translate(253,2)">4</text><text dy=".8em" transform="translate(204,2)">5</text><text dy=".8em" transform="translate(165,2)">6</text><text dy=".8em" transform="translate(131,2)">7</text><text dy=".8em" transform="translate(102,2)">8</text><text dy=".8em" transform="translate(76,2)">9</text><text dy=".8em" transform="translate(54,2)">10</text></g></g><g><path d="M0,0v201M11,0H0M11,54H0M11,86H0M11,109H0M11,126H0M11,140H0M11,152H0M11,163H0M11,172H0M11,180H0" style="stroke: #000000; stroke-width: 1;"></path><g font-family="Arial" font-size="9" space="preserve" fill="#000000" text-anchor="end"><text dy=".4em" transform="translate(-2)">1</text><text dy=".4em" transform="translate(-2,54)">2</text><text dy=".4em" transform="translate(-2,86)">3</text><text dy=".4em" transform="translate(-2,109)">4</text><text dy=".4em" transform="translate(-2,126)">5</text><text dy=".4em" transform="translate(-2,140)">6</text><text dy=".4em" transform="translate(-2,152)">7</text><text dy=".4em" transform="translate(-2,163)">8</text><text dy=".4em" transform="translate(-2,172)">9</text><text dy=".4em" transform="translate(-2,180)">10</text></g></g><path d="M253,0v201M204,0v201M165,0v201M131,0v201M102,0v201M76,0v201M54,0v201" style="stroke: #000000; stroke-width: 1; stroke-dasharray: 1,2;"></path><path d="M0,0h301M0,54h301M0,86h301M0,109h301M0,126h301M0,140h301M0,152h301M0,163h301M0,172h301M0,180h301" style="stroke: #000000; stroke-width: 1; stroke-dasharray: 1,2;"></path></g></g></g></svg></g></svg>