<svg xmlns="http://www.w3.org/2000/svg" viewBox="0 0 1200 800" preserveAspectRatio="none" width="1200" height="800"><defs><pattern id="pat_3012_2" patternUnits="userSpaceOnUse" width="10" height="20"><path d="M5,1A4,4,0,0,0,5,9A4,4,0,0,0,5,1M0,11A4,4,0,0,1,0,19M10,11A4,4,0,0,0,10,19" style="stroke: #ff0000; stroke-width: 1; fill: none;"></path></pattern></defs><path d="M0,0H1200V800H0Z" style="fill: #ffffff;"></path><g><svg viewBox="0 0 576 784" preserveAspectRatio="none" x="12" y="8" width="576" height="784"><path d="M0,0H576V784H0Z" style="fill: #ffffff;"></path><g><g transform="translate(288,392)" font-family="Arial" font-size="25" space="preserve" font-weight="bold"><ellipse cx="0" cy="0" rx="19" ry="26" style="fill: none; stroke: #000000; stroke-width: 1;"></ellipse><text fill="#000000" text-anchor="middle" dy=".8em" transform="translate(19,5)">-1</text><ellipse cx="0" cy="0" rx="29" ry="39" style="fill: none; stroke: #000000; stroke-width: 1; stroke-dasharray: 3,3;"></ellipse><ellipse cx="0" cy="0" rx="38" ry="52" style="fill: none; stroke: #000000; stroke-width: 1; stroke-dasharray: 3,3;"></ellipse><ellipse cx="0" cy="0" rx="48" ry="65" style="fill: none; stroke: #000000; stroke-width: 1; stroke-dasharray: 3,3;"></ellipse><ellipse cx="0" cy="0" rx="58" ry="79" style="fill: none; stroke: #000000; stroke-width: 1; stroke-dasharray: 3,3;"></ellipse><ellipse cx="0" cy="0" rx="67" ry="92" style="fill: none; stroke: #000000; stroke-width: 1;"></ellipse><text fill="#000000" text-anchor="middle" dy=".8em" transform="translate(67,5)">-0.5</text><ellipse cx="0" cy="0" rx="77" ry="105" style="fill: none; stroke: #000000; stroke-width: 1; stroke-dasharray: 3,3;"></ellipse><ellipse cx="0" cy="0" rx="86" ry="118" style="fill: none; stroke: #000000; stroke-width: 1; stroke-dasharray: 3,3;"></ellipse><ellipse cx="0" cy="0" rx="96" ry="131" style="fill: none; stroke: #000000; stroke-width: 1; stroke-dasharray: 3,3;"></ellipse><ellipse cx="0" cy="0" rx="105" ry="144" style="fill: none; stroke: #000000; stroke-width: 1; stroke-dasharray: 3,3;"></ellipse><ellipse cx="0" cy="0" rx="115" ry="157" style="fill: none; stroke: #000000; stroke-width: 1;"></ellipse><text fill="#000000" text-anchor="middle" dy=".8em" transform="translate(115,5)">0</text><ellipse cx="0" cy="0" rx="125" ry="170" style="fill: none; stroke: #000000; stroke-width: 1; stroke-dasharray: 3,3;"></ellipse><ellipse cx="0" cy="0" rx="134" ry="183" style="fill: none; stroke: #000000; stroke-width: 1; stroke-dasharray: 3,3;"></ellipse><ellipse cx="0" cy="0" rx="144" ry="196" style="fill: none; stroke: #000000; stroke-width: 1; stroke-dasharray: 3,3;"></ellipse><ellipse cx="0" cy="0" rx="153" ry="209" style="fill: none; stroke: #000000; stroke-width: 1; stroke-dasharray: 3,3;"></ellipse><ellipse cx="0" cy="0" rx="163" ry="222" style="fill: none; stroke: #000000; stroke-width: 1;"></ellipse><text fill="#000000" text-anchor="middle" dy=".8em" transform="translate(163,5)">0.5</text><ellipse cx="0" cy="0" rx="173" ry="236" style="fill: none; stroke: #000000; stroke-width: 1; stroke-dasharray: 3,3;"></ellipse><ellipse cx="0" cy="0" rx="182" ry="249" style="fill: none; stroke: #000000; stroke-width: 1; stroke-dasharray: 3,3;"></ellipse><ellipse cx="0" cy="0" rx="192" ry="262" style="fill: none; stroke: #000000; stroke-width: 1; stroke-dasharray: 3,3;"></ellipse><ellipse cx="0" cy="0" rx="201" ry="275" style="fill: none; stroke: #000000; stroke-width: 1; stroke-dasharray: 3,3;"></ellipse><ellipse cx="0" cy="0" rx="211" ry="288" style="fill: none; stroke: #000000; stroke-width: 1;"></ellipse><text fill="#000000" text-anchor="middle" dy=".8em" transform="translate(211,5)">1</text><ellipse cx="0" cy="0" rx="220" ry="301" style="fill: none; stroke: #000000; stroke-width: 1; stroke-dasharray: 3,3;"></ellipse><ellipse cx="0" cy="0" rx="230" ry="314" style="fill: none; stroke: #000000; stroke-width: 1; stroke-dasharray: 3,3;"></ellipse><ellipse cx="0" cy="0" rx="230" ry="314" style="fill: none; stroke: #000000; stroke-width: 1;"></ellipse><path d="M0,0L230,0" style="stroke: #000000; stroke-width: 1;"></path><text fill="#000000" text-anchor="start" dy=".4em" transform="translate(255)">0</text><path d="M0,0L-115,-272" style="stroke: #000000; stroke-width: 1;"></path><g transform="translate(-157,-301)"><text fill="#000000" font-size="25" transform="translate(0,-15)">2π</text><path style="stroke: #000000; stroke-width: 3; fill: none;" d="M0,-9h28"></path><text fill="#000000" font-size="25" transform="translate(8,15)">3</text></g><path d="M0,0L-115,272" style="stroke: #000000; stroke-width: 1;"></path><g transform="translate(-158,340)"><text fill="#000000" font-size="25" transform="translate(0,-15)">4π</text><path style="stroke: #000000; stroke-width: 3; fill: none;" d="M0,-9h28"></path><text fill="#000000" font-size="25" transform="translate(8,15)">3</text></g><path d="M0,0L220,-93" style="stroke: #000000; stroke-width: 1; stroke-dasharray: 3,3;"></path><path d="M0,0L190,-177" style="stroke: #000000; stroke-width: 1; stroke-dasharray: 3,3;"></path><path d="M0,0L143,-245" style="stroke: #000000; stroke-width: 1; stroke-dasharray: 3,3;"></path><path d="M0,0L84,-292" style="stroke: #000000; stroke-width: 1; stroke-dasharray: 3,3;"></path><path d="M0,0L17,-313" style="stroke: #000000; stroke-width: 1; stroke-dasharray: 3,3;"></path><path d="M0,0L-51,-306" style="stroke: #000000; stroke-width: 1; stroke-dasharray: 3,3;"></path><path d="M0,0L-169,-214" style="stroke: #000000; stroke-width: 1; stroke-dasharray: 3,3;"></path><path d="M0,0L-207,-136" style="stroke: #000000; stroke-width: 1; stroke-dasharray: 3,3;"></path><path d="M0,0L-227,-47" style="stroke: #000000; stroke-width: 1; stroke-dasharray: 3,3;"></path><path d="M0,0L-227,47" style="stroke: #000000; stroke-width: 1; stroke-dasharray: 3,3;"></path><path d="M0,0L-207,136" style="stroke: #000000; stroke-width: 1; stroke-dasharray: 3,3;"></path><path d="M0,0L-169,214" style="stroke: #000000; stroke-width: 1; stroke-dasharray: 3,3;"></path><path d="M0,0L-51,306" style="stroke: #000000; stroke-width: 1; stroke-dasharray: 3,3;"></path><path d="M0,0L17,313" style="stroke: #000000; stroke-width: 1; stroke-dasharray: 3,3;"></path><path d="M0,0L84,292" style="stroke: #000000; stroke-width: 1; stroke-dasharray: 3,3;"></path><path d="M0,0L143,245" style="stroke: #000000; stroke-width: 1; stroke-dasharray: 3,3;"></path><path d="M0,0L190,177" style="stroke: #000000; stroke-width: 1; stroke-dasharray: 3,3;"></path><path d="M0,0L220,93" style="stroke: #000000; stroke-width: 1; stroke-dasharray: 3,3;"></path></g><g transform="translate(288,392)"><path d="M211,0l-1,-2l-2,-2l-4,-1l-5,-2l-7,-1l-7,-2l-9,-1h-10l-11,-1h-11l-12,-1l-11,1h-24l-11,1l-11,1l-11,1h-9l-8,1l-7,1l-6,1h-5l-3,1h-2l1,-1h2l4,-1l5,-2l6,-2l7,-2l9,-3l9,-3l9,-4l10,-3l10,-4l11,-4l10,-5l10,-4l10,-5l9,-4l8,-5l7,-4l7,-4l5,-4l5,-3l3,-3l2,-3l1,-2l-1,-1l-2,-1l-2,-1h-4l-5,1l-6,1l-6,2l-7,2l-8,2l-8,3l-8,3l-8,4l-9,3l-8,4l-8,3l-7,4l-7,3l-6,3l-6,3l-5,2l-4,2l-3,1l-2,1l-1,1l-1,-1l1,-2l2,-2l3,-2l3,-3l3,-3l4,-4l5,-4l4,-5l5,-4l5,-5l4,-5l5,-5l4,-4l4,-5l4,-4l3,-4l3,-4l2,-4l2,-3l1,-2v-5l-1,-1h-3l-2,1h-2l-2,1l-3,2l-3,1l-2,2l-3,1l-3,2l-2,1l-2,1l-3,2h-1l-2,1l-2,1h-1l-1,-1l-1,-1v-4l1,-1v-4l1,-2v-7l-1,-1v-1h-2l-2,1l-1,1l-2,1l-2,2l-2,2l-2,2l-3,2l-2,3l-2,2l-2,3l-2,2l-2,2l-2,2l-2,2l-1,1h-2v-2l1,-2v-2l1,-4l2,-4l1,-5l2,-5l2,-6l2,-6l2,-7l3,-8l2,-7l2,-7l2,-8l2,-7l2,-7l1,-6l2,-6v-5l1,-5v-5l-1,-2h-1l-2,1l-2,2l-2,4l-3,5l-3,5l-3,7l-4,8l-3,9l-4,9l-4,10l-4,10l-4,11l-4,10l-3,11l-4,10l-3,10l-3,9l-2,8l-2,7l-2,6l-2,5l-1,3v1h-1v-1l1,-4l1,-4l1,-7l1,-8l2,-9l1,-11l2,-12l2,-13l2,-13l2,-14l2,-15l1,-14l2,-15l1,-14l1,-13l1,-13l1,-12v-26l-1,-6l-1,-3l-1,-2h-1l-2,2l-1,5l-2,6l-2,8l-2,9l-2,11l-2,13l-2,13l-2,15l-2,16l-2,15l-2,17l-1,16l-2,15l-1,16l-1,14l-1,13v12l-1,11v9l-1,7v9v-9l-1,-7v-9l-1,-11v-12l-1,-13l-1,-14l-1,-16l-2,-15l-1,-16l-2,-17l-2,-15l-2,-16l-2,-15l-2,-13l-2,-13l-2,-11l-2,-9l-2,-8l-2,-6l-1,-5l-2,-2h-1l-1,2l-1,3l-1,6v26l1,12l1,13l1,13l1,14l2,15l1,14l2,15l2,14l2,13l2,13l2,12l1,11l2,9l1,8l1,7l1,4l1,4v1h-1v-1l-1,-3l-2,-5l-2,-6l-2,-7l-2,-8l-3,-9l-3,-10l-4,-10l-3,-11l-4,-10l-4,-11l-4,-10l-4,-10l-4,-9l-3,-9l-4,-8l-3,-7l-3,-5l-3,-5l-2,-4l-2,-2l-2,-1h-1l-1,2v5l1,5v5l2,6l1,6l2,7l2,7l2,8l2,7l2,7l3,8l2,7l2,6l2,6l2,5l1,5l2,4l1,4v2l1,2v2h-2l-1,-1l-2,-2l-2,-2l-2,-2l-2,-2l-2,-3l-2,-2l-2,-3l-3,-2l-2,-2l-2,-2l-2,-2l-2,-1l-1,-1l-2,-1h-2v1l-1,1v7l1,2v4l1,1v4l-1,1l-1,1h-1l-2,-1l-2,-1h-1l-3,-2l-2,-1l-2,-1l-3,-2l-3,-1l-2,-2l-3,-1l-3,-2l-2,-1h-2l-2,-1h-3l-1,1v5l1,2l2,3l2,4l3,4l3,4l4,4l4,5l4,4l5,5l4,5l5,5l5,4l4,5l5,4l4,4l3,3l3,3l3,2l2,2l1,2l-1,1l-1,-1l-2,-1l-3,-1l-4,-2l-5,-2l-6,-3l-6,-3l-7,-3l-7,-4l-8,-3l-8,-4l-9,-3l-8,-4l-8,-3l-8,-3l-8,-2l-7,-2l-6,-2l-6,-1l-5,-1h-4l-2,1l-2,1l-1,1l1,2l2,3l3,3l5,3l5,4l7,4l7,4l8,5l9,4l10,5l10,4l10,5l11,4l10,4l10,3l9,4l9,3l9,3l7,2l6,2l5,2l4,1h2l1,1h-2l-3,-1h-5l-6,-1l-7,-1l-8,-1h-9l-11,-1l-11,-1l-11,-1h-24l-11,-1l-12,1h-11l-11,1h-10l-9,1l-7,2l-7,1l-5,2l-4,1l-2,2l-1,2l1,2l2,2l4,1l5,2l7,1l7,2l9,1h10l11,1h11l12,1l11,-1h24l11,-1l11,-1l11,-1h9l8,-1l7,-1l6,-1h5l3,-1h2l-1,1h-2l-4,1l-5,2l-6,2l-7,2l-9,3l-9,3l-9,4l-10,3l-10,4l-11,4l-10,5l-10,4l-10,5l-9,4l-8,5l-7,4l-7,4l-5,4l-5,3l-3,3l-2,3l-1,2l1,1l2,1l2,1h4l5,-1l6,-1l6,-2l7,-2l8,-2l8,-3l8,-3l8,-4l9,-3l8,-4l8,-3l7,-4l7,-3l6,-3l6,-3l5,-2l4,-2l3,-1l2,-1l1,-1l1,1l-1,2l-2,2l-3,2l-3,3l-3,3l-4,4l-5,4l-4,5l-5,4l-5,5l-4,5l-5,5l-4,4l-4,5l-4,4l-3,4l-3,4l-2,4l-2,3l-1,2v5l1,1h3l2,-1h2l2,-1l3,-2l3,-1l2,-2l3,-1l3,-2l2,-1l2,-1l3,-2h1l2,-1l2,-1h1l1,1l1,1v4l-1,1v4l-1,2v7l1,1v1h2l2,-1l1,-1l2,-1l2,-2l2,-2l2,-2l3,-2l2,-3l2,-2l2,-3l2,-2l2,-2l2,-2l2,-2l1,-1h2v2l-1,2v2l-1,4l-2,4l-1,5l-2,5l-2,6l-2,6l-2,7l-3,8l-2,7l-2,7l-2,8l-2,7l-2,7l-1,6l-2,6v5l-1,5v5l1,2h1l2,-1l2,-2l2,-4l3,-5l3,-5l3,-7l4,-8l3,-9l4,-9l4,-10l4,-10l4,-11l4,-10l3,-11l4,-10l3,-10l3,-9l2,-8l2,-7l2,-6l2,-5l1,-3v-1h1v1l-1,4l-1,4l-1,7l-1,8l-2,9l-1,11l-2,12l-2,13l-2,13l-2,14l-2,15l-1,14l-2,15l-1,14l-1,13l-1,13l-1,12v26l1,6l1,3l1,2h1l2,-2l1,-5l2,-6l2,-8l2,-9l2,-11l2,-13l2,-13l2,-15l2,-16l2,-15l2,-17l1,-16l2,-15l1,-16l1,-14l1,-13v-12l1,-11v-9l1,-7v-9v9l1,7v9l1,11v12l1,13l1,14l1,16l2,15l1,16l2,17l2,15l2,16l2,15l2,13l2,13l2,11l2,9l2,8l2,6l1,5l2,2h1l1,-2l1,-3l1,-6v-26l-1,-12l-1,-13l-1,-13l-1,-14l-2,-15l-1,-14l-2,-15l-2,-14l-2,-13l-2,-13l-2,-12l-1,-11l-2,-9l-1,-8l-1,-7l-1,-4l-1,-4v-1h1v1l1,3l2,5l2,6l2,7l2,8l3,9l3,10l4,10l3,11l4,10l4,11l4,10l4,10l4,9l3,9l4,8l3,7l3,5l3,5l2,4l2,2l2,1h1l1,-2v-5l-1,-5v-5l-2,-6l-1,-6l-2,-7l-2,-7l-2,-8l-2,-7l-2,-7l-3,-8l-2,-7l-2,-6l-2,-6l-2,-5l-1,-5l-2,-4l-1,-4v-2l-1,-2v-2h2l1,1l2,2l2,2l2,2l2,2l2,3l2,2l2,3l3,2l2,2l2,2l2,2l2,1l1,1l2,1h2v-1l1,-1v-7l-1,-2v-4l-1,-1v-4l1,-1l1,-1h1l2,1l2,1h1l3,2l2,1l2,1l3,2l3,1l2,2l3,1l3,2l2,1h2l2,1h3l1,-1v-5l-1,-2l-2,-3l-2,-4l-3,-4l-3,-4l-4,-4l-4,-5l-4,-4l-5,-5l-4,-5l-5,-5l-5,-4l-4,-5l-5,-4l-4,-4l-3,-3l-3,-3l-3,-2l-2,-2l-1,-2l1,-1l1,1l2,1l3,1l4,2l5,2l6,3l6,3l7,3l7,4l8,3l8,4l9,3l8,4l8,3l8,3l8,2l7,2l6,2l6,1l5,1h4l2,-1l2,-1l1,-1l-1,-2l-2,-3l-3,-3l-5,-3l-5,-4l-7,-4l-7,-4l-8,-5l-9,-4l-10,-5l-10,-4l-10,-5l-11,-4l-10,-4l-10,-3l-9,-4l-9,-3l-9,-3l-7,-2l-6,-2l-5,-2l-4,-1h-2l-1,-1h2l3,1h5l6,1l7,1l8,1h9l11,1l11,1l11,1h24l11,1l12,-1h11l11,-1h10l9,-1l7,-2l7,-1l5,-2l4,-1l2,-2Z" style="fill: url(#pat_3012_2);"></path><path d="M211,0l-1,-2l-2,-2l-4,-1l-5,-2l-7,-1l-7,-2l-9,-1h-10l-11,-1h-11l-12,-1l-11,1h-24l-11,1l-11,1l-11,1h-9l-8,1l-7,1l-6,1h-5l-3,1h-2l1,-1h2l4,-1l5,-2l6,-2l7,-2l9,-3l9,-3l9,-4l10,-3l10,-4l11,-4l10,-5l10,-4l10,-5l9,-4l8,-5l7,-4l7,-4l5,-4l5,-3l3,-3l2,-3l1,-2l-1,-1l-2,-1l-2,-1h-4l-5,1l-6,1l-6,2l-7,2l-8,2l-8,3l-8,3l-8,4l-9,3l-8,4l-8,3l-7,4l-7,3l-6,3l-6,3l-5,2l-4,2l-3,1l-2,1l-1,1l-1,-1l1,-2l2,-2l3,-2l3,-3l3,-3l4,-4l5,-4l4,-5l5,-4l5,-5l4,-5l5,-5l4,-4l4,-5l4,-4l3,-4l3,-4l2,-4l2,-3l1,-2v-5l-1,-1h-3l-2,1h-2l-2,1l-3,2l-3,1l-2,2l-3,1l-3,2l-2,1l-2,1l-3,2h-1l-2,1l-2,1h-1l-1,-1l-1,-1v-4l1,-1v-4l1,-2v-7l-1,-1v-1h-2l-2,1l-1,1l-2,1l-2,2l-2,2l-2,2l-3,2l-2,3l-2,2l-2,3l-2,2l-2,2l-2,2l-2,2l-1,1h-2v-2l1,-2v-2l1,-4l2,-4l1,-5l2,-5l2,-6l2,-6l2,-7l3,-8l2,-7l2,-7l2,-8l2,-7l2,-7l1,-6l2,-6v-5l1,-5v-5l-1,-2h-1l-2,1l-2,2l-2,4l-3,5l-3,5l-3,7l-4,8l-3,9l-4,9l-4,10l-4,10l-4,11l-4,10l-3,11l-4,10l-3,10l-3,9l-2,8l-2,7l-2,6l-2,5l-1,3v1h-1v-1l1,-4l1,-4l1,-7l1,-8l2,-9l1,-11l2,-12l2,-13l2,-13l2,-14l2,-15l1,-14l2,-15l1,-14l1,-13l1,-13l1,-12v-26l-1,-6l-1,-3l-1,-2h-1l-2,2l-1,5l-2,6l-2,8l-2,9l-2,11l-2,13l-2,13l-2,15l-2,16l-2,15l-2,17l-1,16l-2,15l-1,16l-1,14l-1,13v12l-1,11v9l-1,7v9v-9l-1,-7v-9l-1,-11v-12l-1,-13l-1,-14l-1,-16l-2,-15l-1,-16l-2,-17l-2,-15l-2,-16l-2,-15l-2,-13l-2,-13l-2,-11l-2,-9l-2,-8l-2,-6l-1,-5l-2,-2h-1l-1,2l-1,3l-1,6v26l1,12l1,13l1,13l1,14l2,15l1,14l2,15l2,14l2,13l2,13l2,12l1,11l2,9l1,8l1,7l1,4l1,4v1h-1v-1l-1,-3l-2,-5l-2,-6l-2,-7l-2,-8l-3,-9l-3,-10l-4,-10l-3,-11l-4,-10l-4,-11l-4,-10l-4,-10l-4,-9l-3,-9l-4,-8l-3,-7l-3,-5l-3,-5l-2,-4l-2,-2l-2,-1h-1l-1,2v5l1,5v5l2,6l1,6l2,7l2,7l2,8l2,7l2,7l3,8l2,7l2,6l2,6l2,5l1,5l2,4l1,4v2l1,2v2h-2l-1,-1l-2,-2l-2,-2l-2,-2l-2,-2l-2,-3l-2,-2l-2,-3l-3,-2l-2,-2l-2,-2l-2,-2l-2,-1l-1,-1l-2,-1h-2v1l-1,1v7l1,2v4l1,1v4l-1,1l-1,1h-1l-2,-1l-2,-1h-1l-3,-2l-2,-1l-2,-1l-3,-2l-3,-1l-2,-2l-3,-1l-3,-2l-2,-1h-2l-2,-1h-3l-1,1v5l1,2l2,3l2,4l3,4l3,4l4,4l4,5l4,4l5,5l4,5l5,5l5,4l4,5l5,4l4,4l3,3l3,3l3,2l2,2l1,2l-1,1l-1,-1l-2,-1l-3,-1l-4,-2l-5,-2l-6,-3l-6,-3l-7,-3l-7,-4l-8,-3l-8,-4l-9,-3l-8,-4l-8,-3l-8,-3l-8,-2l-7,-2l-6,-2l-6,-1l-5,-1h-4l-2,1l-2,1l-1,1l1,2l2,3l3,3l5,3l5,4l7,4l7,4l8,5l9,4l10,5l10,4l10,5l11,4l10,4l10,3l9,4l9,3l9,3l7,2l6,2l5,2l4,1h2l1,1h-2l-3,-1h-5l-6,-1l-7,-1l-8,-1h-9l-11,-1l-11,-1l-11,-1h-24l-11,-1l-12,1h-11l-11,1h-10l-9,1l-7,2l-7,1l-5,2l-4,1l-2,2l-1,2l1,2l2,2l4,1l5,2l7,1l7,2l9,1h10l11,1h11l12,1l11,-1h24l11,-1l11,-1l11,-1h9l8,-1l7,-1l6,-1h5l3,-1h2l-1,1h-2l-4,1l-5,2l-6,2l-7,2l-9,3l-9,3l-9,4l-10,3l-10,4l-11,4l-10,5l-10,4l-10,5l-9,4l-8,5l-7,4l-7,4l-5,4l-5,3l-3,3l-2,3l-1,2l1,1l2,1l2,1h4l5,-1l6,-1l6,-2l7,-2l8,-2l8,-3l8,-3l8,-4l9,-3l8,-4l8,-3l7,-4l7,-3l6,-3l6,-3l5,-2l4,-2l3,-1l2,-1l1,-1l1,1l-1,2l-2,2l-3,2l-3,3l-3,3l-4,4l-5,4l-4,5l-5,4l-5,5l-4,5l-5,5l-4,4l-4,5l-4,4l-3,4l-3,4l-2,4l-2,3l-1,2v5l1,1h3l2,-1h2l2,-1l3,-2l3,-1l2,-2l3,-1l3,-2l2,-1l2,-1l3,-2h1l2,-1l2,-1h1l1,1l1,1v4l-1,1v4l-1,2v7l1,1v1h2l2,-1l1,-1l2,-1l2,-2l2,-2l2,-2l3,-2l2,-3l2,-2l2,-3l2,-2l2,-2l2,-2l2,-2l1,-1h2v2l-1,2v2l-1,4l-2,4l-1,5l-2,5l-2,6l-2,6l-2,7l-3,8l-2,7l-2,7l-2,8l-2,7l-2,7l-1,6l-2,6v5l-1,5v5l1,2h1l2,-1l2,-2l2,-4l3,-5l3,-5l3,-7l4,-8l3,-9l4,-9l4,-10l4,-10l4,-11l4,-10l3,-11l4,-10l3,-10l3,-9l2,-8l2,-7l2,-6l2,-5l1,-3v-1h1v1l-1,4l-1,4l-1,7l-1,8l-2,9l-1,11l-2,12l-2,13l-2,13l-2,14l-2,15l-1,14l-2,15l-1,14l-1,13l-1,13l-1,12v26l1,6l1,3l1,2h1l2,-2l1,-5l2,-6l2,-8l2,-9l2,-11l2,-13l2,-13l2,-15l2,-16l2,-15l2,-17l1,-16l2,-15l1,-16l1,-14l1,-13v-12l1,-11v-9l1,-7v-9v9l1,7v9l1,11v12l1,13l1,14l1,16l2,15l1,16l2,17l2,15l2,16l2,15l2,13l2,13l2,11l2,9l2,8l2,6l1,5l2,2h1l1,-2l1,-3l1,-6v-26l-1,-12l-1,-13l-1,-13l-1,-14l-2,-15l-1,-14l-2,-15l-2,-14l-2,-13l-2,-13l-2,-12l-1,-11l-2,-9l-1,-8l-1,-7l-1,-4l-1,-4v-1h1v1l1,3l2,5l2,6l2,7l2,8l3,9l3,10l4,10l3,11l4,10l4,11l4,10l4,10l4,9l3,9l4,8l3,7l3,5l3,5l2,4l2,2l2,1h1l1,-2v-5l-1,-5v-5l-2,-6l-1,-6l-2,-7l-2,-7l-2,-8l-2,-7l-2,-7l-3,-8l-2,-7l-2,-6l-2,-6l-2,-5l-1,-5l-2,-4l-1,-4v-2l-1,-2v-2h2l1,1l2,2l2,2l2,2l2,2l2,3l2,2l2,3l3,2l2,2l2,2l2,2l2,1l1,1l2,1h2v-1l1,-1v-7l-1,-2v-4l-1,-1v-4l1,-1l1,-1h1l2,1l2,1h1l3,2l2,1l2,1l3,2l3,1l2,2l3,1l3,2l2,1h2l2,1h3l1,-1v-5l-1,-2l-2,-3l-2,-4l-3,-4l-3,-4l-4,-4l-4,-5l-4,-4l-5,-5l-4,-5l-5,-5l-5,-4l-4,-5l-5,-4l-4,-4l-3,-3l-3,-3l-3,-2l-2,-2l-1,-2l1,-1l1,1l2,1l3,1l4,2l5,2l6,3l6,3l7,3l7,4l8,3l8,4l9,3l8,4l8,3l8,3l8,2l7,2l6,2l6,1l5,1h4l2,-1l2,-1l1,-1l-1,-2l-2,-3l-3,-3l-5,-3l-5,-4l-7,-4l-7,-4l-8,-5l-9,-4l-10,-5l-10,-4l-10,-5l-11,-4l-10,-4l-10,-3l-9,-4l-9,-3l-9,-3l-7,-2l-6,-2l-5,-2l-4,-1h-2l-1,-1h2l3,1h5l6,1l7,1l8,1h9l11,1l11,1l11,1h24l11,1l12,-1h11l11,-1h10l9,-1l7,-2l7,-1l5,-2l4,-1l2,-2" style="fill: none; stroke: #ff0000; stroke-width: 2;"></path></g><g transform="translate(288,392)"><path d="M211,0C211.3,-17.1,201.8,-57.8,183,-81S143.6,-113.4,117,-116S71,-107.4,50,-94S22,-62.6,12,-49S4.8,-26,0,-26S-2,-35.4,-12,-49S-29,-80.6,-50,-94S-90.4,-118.6,-117,-116S-164.2,-104.2,-183,-81S-211,-32.4,-211,0S-201.8,57.8,-183,81S-143.6,113.4,-117,116S-71,107.4,-50,94S-22,62.6,-12,49S-4.8,26,0,26S2,35.4,12,49S29,80.6,50,94S90.4,118.6,117,116S173.5,92.5,183,81" style="fill: none; stroke: #0000ff; stroke-width: 1;"></path><path d="M211.0,-8.0l5.3,16.0l-13.3,-10.0h16.0l-13.3,10.0zM183.0,-89.0l5.3,16.0l-13.3,-10.0h16.0l-13.3,10.0zM117.0,-124.0l5.3,16.0l-13.3,-10.0h16.0l-13.3,10.0zM50.0,-102.0l5.3,16.0l-13.3,-10.0h16.0l-13.3,10.0zM12.0,-57.0l5.3,16.0l-13.3,-10.0h16.0l-13.3,10.0zM0.0,-34.0l5.3,16.0l-13.3,-10.0h16.0l-13.3,10.0zM-12.0,-57.0l5.3,16.0l-13.3,-10.0h16.0l-13.3,10.0zM-50.0,-102.0l5.3,16.0l-13.3,-10.0h16.0l-13.3,10.0zM-117.0,-124.0l5.3,16.0l-13.3,-10.0h16.0l-13.3,10.0zM-183.0,-89.0l5.3,16.0l-13.3,-10.0h16.0l-13.3,10.0zM-211.0,-8.0l5.3,16.0l-13.3,-10.0h16.0l-13.3,10.0zM-183.0,73.0l5.3,16.0l-13.3,-10.0h16.0l-13.3,10.0zM-117.0,108.0l5.3,16.0l-13.3,-10.0h16.0l-13.3,10.0zM-50.0,86.0l5.3,16.0l-13.3,-10.0h16.0l-13.3,10.0zM-12.0,41.0l5.3,16.0l-13.3,-10.0h16.0l-13.3,10.0zM0.0,18.0l5.3,16.0l-13.3,-10.0h16.0l-13.3,10.0zM12.0,41.0l5.3,16.0l-13.3,-10.0h16.0l-13.3,10.0zM50.0,86.0l5.3,16.0l-13.3,-10.0h16.0l-13.3,10.0zM117.0,108.0l5.3,16.0l-13.3,-10.0h16.0l-13.3,10.0zM183.0,73.0l5.3,16.0l-13.3,-10.0h16.0l-13.3,10.0z" style="stroke: #0000ff; fill: #0000ff;"></path></g><g transform="translate(240,4)" font-family="Arial" font-size="28" space="preserve"><text fill="#000000" text-anchor="middle" dy=".4em" transform="translate(48,25)">Graph</text></g></g></svg><svg viewBox="0 0 576 784" preserveAspectRatio="none" x="612" y="8" width="576" height="784"><path d="M0,0H576V784H0Z" style="fill: #ffffff;"></path><g><g transform="translate(288,392)" font-family="Arial" font-size="25" space="preserve" font-weight="bold"><ellipse cx="0" cy="0" rx="19" ry="26" style="fill: none; stroke: #000000; stroke-width: 1;"></ellipse><text fill="#000000" text-anchor="middle" dy=".8em" transform="translate(19,5)">0.6</text><ellipse cx="0" cy="0" rx="25" ry="34" style="fill: none; stroke: #000000; stroke-width: 1; stroke-dasharray: 3,3;"></ellipse><ellipse cx="0" cy="0" rx="32" ry="43" style="fill: none; stroke: #000000; stroke-width: 1; stroke-dasharray: 3,3;"></ellipse><ellipse cx="0" cy="0" rx="38" ry="52" style="fill: none; stroke: #000000; stroke-width: 1; stroke-dasharray: 3,3;"></ellipse><ellipse cx="0" cy="0" rx="44" ry="61" style="fill: none; stroke: #000000; stroke-width: 1; stroke-dasharray: 3,3;"></ellipse><ellipse cx="0" cy="0" rx="51" ry="69" style="fill: none; stroke: #000000; stroke-width: 1;"></ellipse><text fill="#000000" text-anchor="middle" dy=".8em" transform="translate(51,5)">0.8</text><ellipse cx="0" cy="0" rx="57" ry="78" style="fill: none; stroke: #000000; stroke-width: 1; stroke-dasharray: 3,3;"></ellipse><ellipse cx="0" cy="0" rx="64" ry="87" style="fill: none; stroke: #000000; stroke-width: 1; stroke-dasharray: 3,3;"></ellipse><ellipse cx="0" cy="0" rx="70" ry="96" style="fill: none; stroke: #000000; stroke-width: 1; stroke-dasharray: 3,3;"></ellipse><ellipse cx="0" cy="0" rx="77" ry="104" style="fill: none; stroke: #000000; stroke-width: 1; stroke-dasharray: 3,3;"></ellipse><ellipse cx="0" cy="0" rx="83" ry="113" style="fill: none; stroke: #000000; stroke-width: 1;"></ellipse><text fill="#000000" text-anchor="middle" dy=".8em" transform="translate(83,5)">1</text><ellipse cx="0" cy="0" rx="89" ry="122" style="fill: none; stroke: #000000; stroke-width: 1; stroke-dasharray: 3,3;"></ellipse><ellipse cx="0" cy="0" rx="96" ry="131" style="fill: none; stroke: #000000; stroke-width: 1; stroke-dasharray: 3,3;"></ellipse><ellipse cx="0" cy="0" rx="102" ry="139" style="fill: none; stroke: #000000; stroke-width: 1; stroke-dasharray: 3,3;"></ellipse><ellipse cx="0" cy="0" rx="109" ry="148" style="fill: none; stroke: #000000; stroke-width: 1; stroke-dasharray: 3,3;"></ellipse><ellipse cx="0" cy="0" rx="115" ry="157" style="fill: none; stroke: #000000; stroke-width: 1;"></ellipse><text fill="#000000" text-anchor="middle" dy=".8em" transform="translate(115,5)">1.2</text><ellipse cx="0" cy="0" rx="121" ry="166" style="fill: none; stroke: #000000; stroke-width: 1; stroke-dasharray: 3,3;"></ellipse><ellipse cx="0" cy="0" rx="128" ry="175" style="fill: none; stroke: #000000; stroke-width: 1; stroke-dasharray: 3,3;"></ellipse><ellipse cx="0" cy="0" rx="134" ry="183" style="fill: none; stroke: #000000; stroke-width: 1; stroke-dasharray: 3,3;"></ellipse><ellipse cx="0" cy="0" rx="141" ry="192" style="fill: none; stroke: #000000; stroke-width: 1; stroke-dasharray: 3,3;"></ellipse><ellipse cx="0" cy="0" rx="147" ry="201" style="fill: none; stroke: #000000; stroke-width: 1;"></ellipse><text fill="#000000" text-anchor="middle" dy=".8em" transform="translate(147,5)">1.4</text><ellipse cx="0" cy="0" rx="153" ry="210" style="fill: none; stroke: #000000; stroke-width: 1; stroke-dasharray: 3,3;"></ellipse><ellipse cx="0" cy="0" rx="160" ry="218" style="fill: none; stroke: #000000; stroke-width: 1; stroke-dasharray: 3,3;"></ellipse><ellipse cx="0" cy="0" rx="166" ry="227" style="fill: none; stroke: #000000; stroke-width: 1; stroke-dasharray: 3,3;"></ellipse><ellipse cx="0" cy="0" rx="173" ry="236" style="fill: none; stroke: #000000; stroke-width: 1; stroke-dasharray: 3,3;"></ellipse><ellipse cx="0" cy="0" rx="179" ry="245" style="fill: none; stroke: #000000; stroke-width: 1;"></ellipse><text fill="#000000" text-anchor="middle" dy=".8em" transform="translate(179,5)">1.6</text><ellipse cx="0" cy="0" rx="186" ry="253" style="fill: none; stroke: #000000; stroke-width: 1; stroke-dasharray: 3,3;"></ellipse><ellipse cx="0" cy="0" rx="192" ry="262" style="fill: none; stroke: #000000; stroke-width: 1; stroke-dasharray: 3,3;"></ellipse><ellipse cx="0" cy="0" rx="198" ry="271" style="fill: none; stroke: #000000; stroke-width: 1; stroke-dasharray: 3,3;"></ellipse><ellipse cx="0" cy="0" rx="205" ry="280" style="fill: none; stroke: #000000; stroke-width: 1; stroke-dasharray: 3,3;"></ellipse><ellipse cx="0" cy="0" rx="211" ry="288" style="fill: none; stroke: #000000; stroke-width: 1;"></ellipse><text fill="#000000" text-anchor="middle" dy=".8em" transform="translate(211,5)">1.8</text><ellipse cx="0" cy="0" rx="218" ry="297" style="fill: none; stroke: #000000; stroke-width: 1; stroke-dasharray: 3,3;"></ellipse><ellipse cx="0" cy="0" rx="224" ry="306" style="fill: none; stroke: #000000; stroke-width: 1; stroke-dasharray: 3,3;"></ellipse><ellipse cx="0" cy="0" rx="230" ry="314" style="fill: none; stroke: #000000; stroke-width: 1;"></ellipse><path d="M0,0L230,0" style="stroke: #000000; stroke-width: 1;"></path><text fill="#000000" text-anchor="start" dy=".4em" transform="translate(255)">0</text><path d="M0,0L163,-222" style="stroke: #000000; stroke-width: 1;"></path><g transform="translate(180,-246)"><text fill="#000000" font-size="25" transform="translate(0,-15)">π</text><path style="stroke: #000000; stroke-width: 3; fill: none;" d="M0,-9h14"></path><text fill="#000000" font-size="25" transform="translate(1,15)">4</text></g><path d="M0,0L0,-314" style="stroke: #000000; stroke-width: 1;"></path><g transform="translate(-8,-348)"><text fill="#000000" font-size="25" transform="translate(0,-15)">π</text><path style="stroke: #000000; stroke-width: 3; fill: none;" d="M0,-9h14"></path><text fill="#000000" font-size="25" transform="translate(1,15)">2</text></g><path d="M0,0L-163,-222" style="stroke: #000000; stroke-width: 1;"></path><g transform="translate(-210,-246)"><text fill="#000000" font-size="25" transform="translate(0,-15)">3π</text><path style="stroke: #000000; stroke-width: 3; fill: none;" d="M0,-9h28"></path><text fill="#000000" font-size="25" transform="translate(8,15)">4</text></g><path d="M0,0L-230,0" style="stroke: #000000; stroke-width: 1;"></path><g transform="translate(-271,9)"><text fill="#000000" font-size="25">π</text></g><path d="M0,0L-163,222" style="stroke: #000000; stroke-width: 1;"></path><g transform="translate(-210,285)"><text fill="#000000" font-size="25" transform="translate(0,-15)">5π</text><path style="stroke: #000000; stroke-width: 3; fill: none;" d="M0,-9h28"></path><text fill="#000000" font-size="25" transform="translate(8,15)">4</text></g><path d="M0,0L0,314" style="stroke: #000000; stroke-width: 1;"></path><g transform="translate(-15,387)"><text fill="#000000" font-size="25" transform="translate(0,-15)">3π</text><path style="stroke: #000000; stroke-width: 3; fill: none;" d="M0,-9h28"></path><text fill="#000000" font-size="25" transform="translate(8,15)">2</text></g><path d="M0,0L163,222" style="stroke: #000000; stroke-width: 1;"></path><g transform="translate(180,285)"><text fill="#000000" font-size="25" transform="translate(0,-15)">7π</text><path style="stroke: #000000; stroke-width: 3; fill: none;" d="M0,-9h28"></path><text fill="#000000" font-size="25" transform="translate(8,15)">4</text></g><path d="M0,0L227,-49" style="stroke: #000000; stroke-width: 1; stroke-dasharray: 3,3;"></path><path d="M0,0L219,-97" style="stroke: #000000; stroke-width: 1; stroke-dasharray: 3,3;"></path><path d="M0,0L205,-143" style="stroke: #000000; stroke-width: 1; stroke-dasharray: 3,3;"></path><path d="M0,0L186,-185" style="stroke: #000000; stroke-width: 1; stroke-dasharray: 3,3;"></path><path d="M0,0L135,-254" style="stroke: #000000; stroke-width: 1; stroke-dasharray: 3,3;"></path><path d="M0,0L104,-280" style="stroke: #000000; stroke-width: 1; stroke-dasharray: 3,3;"></path><path d="M0,0L71,-299" style="stroke: #000000; stroke-width: 1; stroke-dasharray: 3,3;"></path><path d="M0,0L36,-310" style="stroke: #000000; stroke-width: 1; stroke-dasharray: 3,3;"></path><path d="M0,0L-36,-310" style="stroke: #000000; stroke-width: 1; stroke-dasharray: 3,3;"></path><path d="M0,0L-71,-299" style="stroke: #000000; stroke-width: 1; stroke-dasharray: 3,3;"></path><path d="M0,0L-104,-280" style="stroke: #000000; stroke-width: 1; stroke-dasharray: 3,3;"></path><path d="M0,0L-135,-254" style="stroke: #000000; stroke-width: 1; stroke-dasharray: 3,3;"></path><path d="M0,0L-186,-185" style="stroke: #000000; stroke-width: 1; stroke-dasharray: 3,3;"></path><path d="M0,0L-205,-143" style="stroke: #000000; stroke-width: 1; stroke-dasharray: 3,3;"></path><path d="M0,0L-219,-97" style="stroke: #000000; stroke-width: 1; stroke-dasharray: 3,3;"></path><path d="M0,0L-227,-49" style="stroke: #000000; stroke-width: 1; stroke-dasharray: 3,3;"></path><path d="M0,0L-227,49" style="stroke: #000000; stroke-width: 1; stroke-dasharray: 3,3;"></path><path d="M0,0L-219,97" style="stroke: #000000; stroke-width: 1; stroke-dasharray: 3,3;"></path><path d="M0,0L-205,143" style="stroke: #000000; stroke-width: 1; stroke-dasharray: 3,3;"></path><path d="M0,0L-186,185" style="stroke: #000000; stroke-width: 1; stroke-dasharray: 3,3;"></path><path d="M0,0L-135,254" style="stroke: #000000; stroke-width: 1; stroke-dasharray: 3,3;"></path><path d="M0,0L-104,280" style="stroke: #000000; stroke-width: 1; stroke-dasharray: 3,3;"></path><path d="M0,0L-71,299" style="stroke: #000000; stroke-width: 1; stroke-dasharray: 3,3;"></path><path d="M0,0L-36,310" style="stroke: #000000; stroke-width: 1; stroke-dasharray: 3,3;"></path><path d="M0,0L36,310" style="stroke: #000000; stroke-width: 1; stroke-dasharray: 3,3;"></path><path d="M0,0L71,299" style="stroke: #000000; stroke-width: 1; stroke-dasharray: 3,3;"></path><path d="M0,0L104,280" style="stroke: #000000; stroke-width: 1; stroke-dasharray: 3,3;"></path><path d="M0,0L135,254" style="stroke: #000000; stroke-width: 1; stroke-dasharray: 3,3;"></path><path d="M0,0L186,185" style="stroke: #000000; stroke-width: 1; stroke-dasharray: 3,3;"></path><path d="M0,0L205,143" style="stroke: #000000; stroke-width: 1; stroke-dasharray: 3,3;"></path><path d="M0,0L219,97" style="stroke: #000000; stroke-width: 1; stroke-dasharray: 3,3;"></path><path d="M0,0L227,49" style="stroke: #000000; stroke-width: 1; stroke-dasharray: 3,3;"></path></g><g transform="translate(288,392)"><path d="M83,0L147,0M110,-46A115,157,0,0,1,110,46M94,-27L157,-45M112,-85A128,175,0,0,1,128,16M100,-60L158,-95M107,-125A141,193,0,0,1,140,-24M98,-96L150,-147M95,-164A153,208,0,0,1,144,-70M88,-131L131,-196M74,-198A163,222,0,0,1,138,-118M70,-163L103,-238M48,-223A171,233,0,0,1,120,-165M46,-186L67,-269M17,-239A176,240,0,0,1,93,-204M17,-199L25,-286M-16,-243A179,244,0,0,1,58,-231M-13,-200L-19,-287M-49,-235A179,244,0,0,1,18,-243M-42,-188L-61,-272M-79,-215A176,240,0,0,1,-22,-238M-67,-166L-98,-242M-104,-185A171,233,0,0,1,-59,-218M-85,-135L-127,-202M-121,-148A163,222,0,0,1,-89,-186M-96,-100L-147,-153M-131,-106A153,208,0,0,1,-109,-145M-98,-64L-156,-102M-133,-64A141,193,0,0,1,-120,-101M-94,-31L-156,-52M-127,-24A128,175,0,0,1,-121,-59M-83,-4L-147,-6M-115,11A115,157,0,0,1,-114,-21M-69,17L-132,32M-98,38A102,139,0,0,1,-101,10M-53,29L-112,62M-78,57A89,121,0,0,1,-86,33M-38,34L-91,83M-59,69A77,106,0,0,1,-69,48M-25,34L-69,97M-40,74A67,92,0,0,1,-53,57M-15,32L-49,106M-24,74A59,81,0,0,1,-39,61M-8,28L-30,110M-10,72A54,74,0,0,1,-27,64M-3,26L-13,112M2,70A51,70,0,0,1,-17,66M1,26L5,114M14,67A51,70,0,0,1,-8,69M6,29L22,113M26,65A54,74,0,0,1,2,74M12,33L42,111M39,61A59,81,0,0,1,13,79M22,38L62,106M55,54A67,92,0,0,1,27,84M35,39L85,94M71,41A77,106,0,0,1,44,87M50,36L107,76M87,22A89,121,0,0,1,64,84M67,25L129,49M102,-4A102,139,0,0,1,86,75" style="fill: none; stroke: #ff00ff; stroke-width: 2;"></path><path d="M115,-6l-6,12h12zM126,-42l-6,12h12zM129,-84l-6,12h12zM124,-127l-6,12h12zM110,-170l-6,12h12zM87,-206l-6,12h12zM56,-234l-6,12h12zM21,-248l-6,12h12zM-16,-249l-6,12h12zM-51,-236l-6,12h12zM-82,-210l-6,12h12zM-106,-174l-6,12h12zM-121,-133l-6,12h12zM-127,-89l-6,12h12zM-125,-47l-6,12h12zM-115,-11l-6,12h12zM-100,18l-6,12h12zM-82,39l-6,12h12zM-64,53l-6,12h12zM-47,60l-6,12h12zM-32,63l-6,12h12zM-19,63l-6,12h12zM-8,63l-6,12h12zM3,64l-6,12h12zM14,65l-6,12h12zM27,66l-6,12h12zM42,66l-6,12h12zM60,61l-6,12h12zM79,50l-6,12h12zM98,31l-6,12h12z" style="stroke: #ffff00; fill: #ffff00;"></path></g><g transform="translate(240,4)" font-family="Arial" font-size="28" space="preserve"><text fill="#000000" text-anchor="middle" dy=".4em" transform="translate(48,25)">Graph</text></g></g></svg></g></svg>