<svg xmlns="http://www.w3.org/2000/svg" viewBox="0 0 1200 800" preserveAspectRatio="none" width="1200" height="800"><path d="M0,0H1200V800H0Z" style="fill: #ffffff;"></path><g><g transform="translate(120,80)"><path d="M0,0H960V640H0Z" style="fill: #ffffff; stroke: #000000; stroke-width: 1;"></path><svg x="0" y="0" overflow="hidden" width="960" height="640" viewBox="0 0 960 640"><g><path d="M0,586.67Q27.56,547.58,45.93,522.17C64.31,496.77,73.49,484.14,91.87,459.64S119.43,423.04,137.8,399.71S165.36,364.91,183.73,342.96S211.29,310.31,229.67,289.97S257.22,259.79,275.6,241.27S303.16,213.86,321.53,197.34S349.09,172.98,367.46,158.62S395.02,137.56,413.4,125.5S440.96,107.94,459.33,98.31S486.89,84.43,505.26,77.32S532.82,67.26,551.2,62.74S578.76,56.6,597.13,54.72S624.69,52.56,643.06,53.33S670.62,55.17,689,58.6S716.56,64.42,734.93,70.46S762.49,80.21,780.86,88.81S808.42,102.38,826.79,113.45Q863.84,137.58,872.73,144.14" style="stroke: #ff0000; stroke-width: 4; fill: none;"></path><path d="M-4,583v8h8v-8zM42,518v8h8v-8zM88,456v8h8v-8zM134,396v8h8v-8zM180,339v8h8v-8zM226,286v8h8v-8zM272,237v8h8v-8zM318,193v8h8v-8zM363,155v8h8v-8zM409,121v8h8v-8zM455,94v8h8v-8zM501,73v8h8v-8zM547,59v8h8v-8zM593,51v8h8v-8zM639,49v8h8v-8zM685,55v8h8v-8zM731,66v8h8v-8zM777,85v8h8v-8zM823,109v8h8v-8zM869,140v8h8v-8z" style="stroke: #0000ff; fill: #0000ff;"></path></g></svg><g><g transform="translate(0,640)"><path d="M0,0h960M0,-19V0M23,-10V0M46,-10V0M69,-10V0M92,-19V0M115,-10V0M138,-10V0M161,-10V0M184,-19V0M207,-10V0M230,-10V0M253,-10V0M276,-19V0M299,-10V0M322,-10V0M344,-10V0M367,-19V0M390,-10V0M413,-10V0M436,-10V0M459,-19V0M482,-10V0M505,-10V0M528,-10V0M551,-19V0M574,-10V0M597,-10V0M620,-10V0M643,-19V0M666,-10V0M689,-10V0M712,-10V0M735,-19V0M758,-10V0M781,-10V0M804,-10V0M827,-19V0M850,-10V0M873,-10V0M896,-10V0M919,-19V0M942,-10V0" style="stroke: #000000; stroke-width: 1;"></path><g font-family="Arial" font-size="28" space="preserve" fill="#000000" text-anchor="middle"><text dy=".8em" transform="translate(0,5)">0</text><text dy=".8em" transform="translate(92,5)">0.2</text><text dy=".8em" transform="translate(184,5)">0.4</text><text dy=".8em" transform="translate(276,5)">0.6</text><text dy=".8em" transform="translate(367,5)">0.8</text><text dy=".8em" transform="translate(459,5)">1</text><text dy=".8em" transform="translate(551,5)">1.2</text><text dy=".8em" transform="translate(643,5)">1.4</text><text dy=".8em" transform="translate(735,5)">1.6</text><text dy=".8em" transform="translate(827,5)">1.8</text><text dy=".8em" transform="translate(919,5)">2</text></g><g font-family="Arial" font-size="28" space="preserve" transform="translate(960,45)"><text fill="#000000" text-anchor="end" dy=".4em">X title</text></g></g><g><path d="M0,0v640M15,639H0M15,626H0M15,612H0M15,599H0M29,586H0M15,572H0M15,559H0M15,546H0M15,533H0M29,519H0M15,506H0M15,493H0M15,479H0M15,466H0M29,453H0M15,439H0M15,426H0M15,413H0M15,399H0M29,386H0M15,373H0M15,359H0M15,346H0M15,333H0M29,319H0M15,306H0M15,293H0M15,279H0M15,266H0M29,253H0M15,240H0M15,226H0M15,213H0M15,200H0M29,186H0M15,173H0M15,160H0M15,146H0M15,133H0M29,120H0M15,106H0M15,93H0M15,80H0M15,66H0M29,53H0M15,40H0M15,26H0M15,13H0" style="stroke: #000000; stroke-width: 1;"></path><g font-family="Arial" font-size="28" space="preserve" fill="#000000" text-anchor="end"><text dy=".4em" transform="translate(-6,586)">2</text><text dy=".4em" transform="translate(-6,519)">3</text><text dy=".4em" transform="translate(-6,453)">4</text><text dy=".4em" transform="translate(-6,386)">5</text><text dy=".4em" transform="translate(-6,319)">6</text><text dy=".4em" transform="translate(-6,253)">7</text><text dy=".4em" transform="translate(-6,186)">8</text><text dy=".4em" transform="translate(-6,120)">9</text><text dy=".4em" transform="translate(-6,53)">10</text></g><g font-family="Arial" font-size="28" space="preserve" transform="translate(-62)"><text fill="#000000" text-anchor="end" dy=".4em" transform="rotate(270)">Y title</text></g></g><path d="M0,0v640M92,0v640M184,0v640M276,0v640M367,0v640M459,0v640M551,0v640M643,0v640M735,0v640M827,0v640M919,0v640" style="stroke: #000000; stroke-width: 1; stroke-dasharray: 1,2;"></path><path d="M0,586h960M0,519h960M0,453h960M0,386h960M0,319h960M0,253h960M0,186h960M0,120h960M0,53h960" style="stroke: #000000; stroke-width: 1; stroke-dasharray: 1,2;"></path></g></g><g transform="translate(443,4)" font-family="Arial" font-size="33" space="preserve"><text fill="#000000" text-anchor="middle" dy=".4em" transform="translate(157,25)">a simple graph</text></g></g></svg>