<svg xmlns="http://www.w3.org/2000/svg" viewBox="0 0 1200 800" preserveAspectRatio="none" width="1200" height="800"><path d="M0,0H1200V800H0Z" style="fill: #ffffff;"></path><g><svg viewBox="0 0 720 480" preserveAspectRatio="none" x="0" y="320" width="720" height="480"><path d="M0,0H720V480H0Z" style="fill: #ffffff;"></path><g><g transform="translate(72,48)"><path d="M0,0H576V384H0Z" style="fill: #ffffff; stroke: #000000; stroke-width: 1;"></path><svg x="0" y="0" overflow="hidden" width="576" height="384" viewBox="0 0 576 384"><g><path fill="#6200ff" d="M14,154h15v19h-15zm0,38h15v10h-15zM29,125h14v9h-14zm0,19h14v29h-14zm0,48h14v10h-14zm0,86h14v10h-14zM43,106h15v9h-15zm0,96h15v67h-15zM58,96h14v10h-14zm0,38h14v39h-14zm0,48h14v10h-14zm0,20h14v9h-14zm0,19h14v9h-14zm0,29h14v9h-14zM72,48h14v10h-14zm0,67h14v10h-14zm0,19h14v77h-14zm0,87h14v29h-14zm0,38h14v10h-14zm0,19h14v10h-14zm0,20h14v9h-14zm0,67h14v9h-14zM86,86h15v10h-15zm0,20h15v172h-15zm0,182h15v19h-15zM101,58h14v9h-14zm0,19h14v29h-14zm0,38h14v192h-14zM115,48h15v10h-15zm0,29h15v9h-15zm0,29h15v48h-15zm0,76h15v10h-15zm0,39h15v9h-15zm0,19h15v48h-15zM130,58h14v9h-14zm0,28h14v48h-14zm0,164h14v9h-14zm0,19h14v29h-14zm0,38h14v10h-14zM144,38h14v10h-14zm0,39h14v38h-14zm0,192h14v38h-14zm0,48h14v29h-14zM158,58h15v9h-15zm0,19h15v38h-15zm0,192h15v57h-15zM173,58h14v38h-14zm0,230h14v29h-14zm0,38h14v20h-14zM187,0h15v10h-15zm0,29h15v9h-15zm0,19h15v58h-15zm0,250h15v48h-15zM202,10h14v19h-14zm0,38h14v29h-14zm0,250h14v19h-14zm0,28h14v10h-14zm0,29h14v10h-14zM216,48h14v48h-14zm0,250h14v57h-14zM230,48h15v38h-15zm0,240h15v10h-15zm0,19h15v19h-15zm0,48h15v10h-15zM245,29h14v9h-14zm0,19h14v38h-14zm0,259h14v29h-14zm0,39h14v9h-14zM259,19h15v19h-15zm0,29h15v29h-15zm0,269h15v19h-15zM274,0h14v10h-14zm0,19h14v10h-14zm0,19h14v29h-14zm0,39h14v9h-14zm0,230h14v19h-14zm0,29h14v10h-14zm0,19h14v10h-14zM288,19h14v29h-14zm0,39h14v19h-14zm0,259h14v19h-14zM302,29h15v57h-15zm0,269h15v19h-15zm0,28h15v20h-15zM317,29h14v9h-14zm0,19h14v29h-14zm0,259h14v29h-14zM331,38h15v20h-15zm0,29h15v19h-15zm0,231h15v28h-15zM346,38h14v10h-14zm0,20h14v38h-14zm0,230h14v48h-14zm0,58h14v9h-14zM360,29h14v67h-14zm0,259h14v67h-14zM374,29h15v67h-15zm0,249h15v10h-15zm0,20h15v38h-15zM389,67h14v39h-14zm0,202h14v57h-14zM403,58h15v48h-15zm0,220h15v39h-15zm0,58h15v10h-15zm0,19h15v10h-15zM418,48h14v19h-14zm0,29h14v48h-14zm0,192h14v29h-14zm0,38h14v29h-14zM432,19h14v10h-14zm0,58h14v38h-14zm0,48h14v19h-14zm0,67h14v10h-14zm0,58h14v38h-14zm0,48h14v19h-14zM446,67h15v10h-15zm0,19h15v39h-15zm0,68h15v28h-15zm0,67h15v67h-15zm0,96h15v9h-15zM461,58h14v9h-14zm0,19h14v201h-14zm0,221h14v9h-14zM475,86h15v48h-15zm0,58h15v115h-15zm0,125h15v9h-15zM490,134h14v20h-14zm0,29h14v106h-14zm14,-38h14v9h-14zm0,29h14v9h-14zm0,19h14v48h-14zm0,57h14v20h-14zm14,-96h15v10h-15zm0,20h15v76h-15zm0,86h15v10h-15zm0,19h15v10h-15zm0,39h15v9h-15zM533,154h14v19h-14zm0,28h14v10h-14zm0,29h14v19h-14zm0,29h14v10h-14zm14,-58h15v20h-15z"></path><path fill="#3300ff" d="M115,154h15v19h-15zm0,38h15v29h-15zm0,38h15v10h-15zm15,-96h14v29h-14zm0,39h14v19h-14zm0,29h14v9h-14zm0,19h14v29h-14zm0,38h14v10h-14zM144,115h14v29h-14zm0,39h14v9h-14zm0,76h14v10h-14zm0,20h14v19h-14zM158,115h15v19h-15zm0,135h15v19h-15zM173,96h14v29h-14zm0,163h14v29h-14zM187,106h15v19h-15zm0,153h15v39h-15zM202,77h14v29h-14zm0,201h14v20h-14zM216,96h14v10h-14zm0,182h14v20h-14zM230,86h15v20h-15zm0,212h15v9h-15zM245,86h14v10h-14zm0,202h14v19h-14zM259,77h15v19h-15zm0,221h15v19h-15zM274,67h14v10h-14zm0,19h14v10h-14zm0,212h14v9h-14zM288,77h14v9h-14zm0,221h14v19h-14zM317,77h14v19h-14zm0,211h14v19h-14zM331,86h15v10h-15zm0,202h15v10h-15zM360,96h14v10h-14zm0,182h14v10h-14zM374,96h15v29h-15zm0,192h15v10h-15zM389,106h14v9h-14zm0,153h14v10h-14zM403,106h15v28h-15zm0,134h15v38h-15zM418,125h14v29h-14zm0,38h14v19h-14zm0,77h14v29h-14zM432,115h14v10h-14zm0,29h14v10h-14zm0,29h14v19h-14zm0,38h14v10h-14zm0,19h14v20h-14zm14,-96h15v20h-15zm0,48h15v39h-15z"></path><path fill="#0014ff" d="M115,173h15v9h-15zm15,-10h14v10h-14zm0,29h14v10h-14zm0,19h14v10h-14zm14,-67h14v10h-14zm0,29h14v57h-14zm0,67h14v10h-14zM158,134h15v39h-15zm0,68h15v19h-15zm0,28h15v20h-15zM173,125h14v9h-14zm0,125h14v9h-14zM202,106h14v9h-14zm0,153h14v10h-14zm14,10h14v9h-14zm14,9h15v10h-15zM245,96h14v10h-14zm14,0h15v10h-15zm0,182h15v20h-15zM274,96h14v10h-14zm0,182h14v20h-14zM288,86h14v20h-14zm0,202h14v10h-14zM302,86h15v20h-15zm0,202h15v10h-15zM317,96h14v10h-14zm0,182h14v10h-14zM331,96h15v10h-15zm0,182h15v10h-15zM346,96h14v19h-14zm0,182h14v10h-14zM360,106h14v9h-14zm0,153h14v19h-14zm14,10h15v9h-15zM389,115h14v10h-14zm0,125h14v19h-14zM403,134h15v10h-15zm0,96h15v10h-15zm15,-76h14v9h-14zm0,28h14v10h-14zm0,20h14v9h-14zm0,19h14v19h-14zm14,-67h14v19h-14zm0,48h14v9h-14zm0,19h14v9h-14z"></path><path fill="#0044ff" d="M144,163h14v10h-14zm14,19h15v20h-15zm15,-38h14v10h-14zm0,96h14v10h-14zM187,125h15v19h-15zm0,125h15v9h-15zM202,115h14v10h-14zm0,154h14v9h-14zM216,106h14v19h-14zm0,144h14v19h-14zM230,106h15v19h-15zm0,163h15v9h-15zM245,106h14v9h-14zm0,172h14v10h-14zM259,106h15v9h-15zm15,163h14v9h-14zm14,9h14v10h-14zm14,-9h15v19h-15zM317,106h14v9h-14zm14,0h15v19h-15zm0,163h15v9h-15zM346,115h14v10h-14zm0,154h14v9h-14zM360,115h14v10h-14zm14,10h15v9h-15zm0,115h15v29h-15zM389,125h14v29h-14zm0,105h14v10h-14zm14,-86h15v19h-15zm0,38h15v10h-15zm0,20h15v28h-15zm15,-10h14v10h-14zm0,19h14v10h-14z"></path><path fill="#008bff" d="M158,173h15v9h-15zm0,48h15v9h-15zm15,-87h14v10h-14zm0,20h14v9h-14zm0,67h14v19h-14zm14,-77h15v10h-15zm0,86h15v20h-15zM202,125h14v9h-14zm0,125h14v9h-14zm28,9h15v10h-15zm15,10h14v9h-14zm14,0h15v9h-15zM274,106h14v9h-14zm14,0h14v9h-14zm0,163h14v9h-14zM302,106h15v9h-15zm0,153h15v10h-15zm15,10h14v9h-14zm14,-10h15v10h-15zM360,125h14v19h-14zm0,105h14v29h-14zm14,-96h15v10h-15zm0,96h15v10h-15zm15,-76h14v9h-14zm14,9h15v19h-15zm0,29h15v10h-15z"></path><path fill="#00bbff" d="M173,163h14v48h-14zm14,-9h15v9h-15zm0,28h15v10h-15zm0,39h15v9h-15zm15,0h14v19h-14zm14,19h14v10h-14zm14,0h15v10h-15zM245,125h14v9h-14zm0,125h14v19h-14zM259,115h15v10h-15zm0,144h15v10h-15zM274,115h14v10h-14zm0,144h14v10h-14zM288,115h14v10h-14zm29,0h14v10h-14zm14,135h15v9h-15zM346,125h14v19h-14zm0,115h14v29h-14zm28,-86h15v9h-15zm0,57h15v19h-15zm15,-48h14v10h-14zm0,19h14v48h-14z"></path><path fill="#00fffb" d="M173,211h14v10h-14zm29,-77h14v29h-14zm0,106h14v10h-14zM216,125h14v19h-14zm14,0h15v9h-15zm0,125h15v9h-15zM245,115h14v10h-14zm14,10h15v9h-15zm43,-10h15v10h-15zm0,135h15v9h-15zM317,125h14v9h-14zm0,125h14v19h-14zM331,134h15v10h-15zm15,10h14v10h-14zm14,0h14v19h-14zm14,0h15v10h-15zm0,19h15v19h-15zm15,10h14v9h-14z"></path><path fill="#00ffcc" d="M187,163h15v10h-15zm0,29h15v29h-15zm15,-10h14v10h-14zm14,-38h14v10h-14zm29,-10h14v10h-14zm14,116h15v9h-15zm15,0h14v9h-14zM288,125h14v9h-14zm0,134h14v10h-14zM317,134h14v10h-14zm14,-9h15v9h-15zm15,105h14v10h-14zm14,-57h14v9h-14zm0,48h14v9h-14zm14,-29h15v19h-15z"></path><path fill="#00ff84" d="M187,173h15v9h-15zm15,-10h14v19h-14zm0,48h14v10h-14zm14,-57h14v9h-14zm14,-20h15v10h-15zm0,96h15v10h-15zm15,10h14v10h-14zM259,134h15v10h-15zm15,0h14v10h-14zm14,106h14v19h-14zM302,125h15v9h-15zm0,115h15v10h-15zm15,-10h14v20h-14zm14,0h15v20h-15zm15,-9h14v9h-14zm14,-58h14v10h-14zm0,19h14v10h-14zm14,0h15v10h-15z"></path><path fill="#00ff55" d="M202,192h14v19h-14zm14,-29h14v10h-14zm0,58h14v19h-14zm14,-77h15v10h-15zm29,96h15v10h-15zM274,125h14v9h-14zm28,9h15v10h-15zm0,96h15v10h-15zm15,-86h14v10h-14zm14,0h15v10h-15zm15,10h14v19h-14zm14,38h14v29h-14z"></path><path fill="#00ff0d" d="M216,173h14v9h-14zm14,48h15v9h-15zm15,-77h14v19h-14zm0,86h14v10h-14zm72,-76h14v9h-14zm14,67h15v9h-15zm15,-48h14v29h-14zm0,38h14v10h-14z"></path><path fill="#22ff00" d="M216,211h14v10h-14zm14,-57h15v9h-15zm0,28h15v20h-15zm0,29h15v10h-15zm29,10h15v9h-15zm15,-77h14v10h-14zm0,86h14v20h-14zm14,-96h14v10h-14zm0,87h14v19h-14zm14,-77h15v10h-15zm29,10h15v19h-15zm15,48h14v9h-14z"></path><path fill="#69ff00" d="M216,192h14v19h-14zm14,10h15v9h-15zm15,-39h14v10h-14zm14,-19h15v19h-15zm0,86h15v10h-15zm15,-76h14v9h-14zm14,-10h14v10h-14zm29,67h14v19h-14zm14,-38h15v9h-15zm0,38h15v10h-15z"></path><path fill="#99ff00" d="M216,182h14v10h-14zm14,-19h15v19h-15zm15,48h14v19h-14zm14,-48h15v10h-15zm0,48h15v10h-15zm15,10h14v9h-14zm14,-58h14v10h-14zm0,48h14v10h-14zm14,-57h15v9h-15zm0,38h15v10h-15zm0,29h15v9h-15zm15,-58h14v10h-14zm14,19h15v29h-15z"></path><path fill="#e0ff00" d="M245,173h14v9h-14zm0,19h14v19h-14zm14,-19h15v19h-15zm29,-19h14v9h-14zm29,38h14v10h-14z"></path><path fill="#ffee00" d="M245,182h14v10h-14zm29,20h14v19h-14zm28,-39h15v10h-15zm15,39h14v9h-14z"></path><path fill="#ffa600" d="M274,182h14v10h-14zm14,-9h14v9h-14zm14,9h15v10h-15zm0,20h15v9h-15zm15,-20h14v10h-14z"></path><path fill="#ff7700" d="M259,202h15v9h-15zm15,-39h14v19h-14zm0,29h14v10h-14zm14,-10h14v10h-14zm0,20h14v9h-14zm14,-29h15v9h-15zm0,38h15v10h-15zm15,-38h14v9h-14z"></path><path fill="#ff2f00" d="M259,192h15v10h-15z"></path><path fill="#ff0000" d="M288,192h14v10h-14z"></path></g></svg><g><g transform="translate(0,384)"><path d="M0,0h576M0,-12V0M14,-6V0M29,-6V0M43,-6V0M58,-6V0M72,-12V0M86,-6V0M101,-6V0M115,-6V0M130,-6V0M144,-12V0M158,-6V0M173,-6V0M187,-6V0M202,-6V0M216,-12V0M230,-6V0M245,-6V0M259,-6V0M274,-6V0M288,-12V0M302,-6V0M317,-6V0M331,-6V0M346,-6V0M360,-12V0M374,-6V0M389,-6V0M403,-6V0M418,-6V0M432,-12V0M446,-6V0M461,-6V0M475,-6V0M490,-6V0M504,-12V0M518,-6V0M533,-6V0M547,-6V0M562,-6V0M576,-12V0" style="stroke: #000000; stroke-width: 1;"></path><g font-family="Arial" font-size="17" space="preserve" fill="#000000" text-anchor="middle"><text dy=".8em" transform="translate(0,3)">-4</text><text dy=".8em" transform="translate(72,3)">-3</text><text dy=".8em" transform="translate(144,3)">-2</text><text dy=".8em" transform="translate(216,3)">-1</text><text dy=".8em" transform="translate(288,3)">0</text><text dy=".8em" transform="translate(360,3)">1</text><text dy=".8em" transform="translate(432,3)">2</text><text dy=".8em" transform="translate(504,3)">3</text><text dy=".8em" transform="translate(576,3)">4</text></g></g><g><path d="M0,0v384M17,384H0M9,374H0M9,365H0M9,355H0M9,346H0M17,336H0M9,326H0M9,317H0M9,307H0M9,298H0M17,288H0M9,278H0M9,269H0M9,259H0M9,250H0M17,240H0M9,230H0M9,221H0M9,211H0M9,202H0M17,192H0M9,182H0M9,173H0M9,163H0M9,154H0M17,144H0M9,134H0M9,125H0M9,115H0M9,106H0M17,96H0M9,86H0M9,77H0M9,67H0M9,58H0M17,48H0M9,38H0M9,29H0M9,19H0M9,10H0M17,0H0" style="stroke: #000000; stroke-width: 1;"></path><g font-family="Arial" font-size="17" space="preserve" fill="#000000" text-anchor="end"><text dy=".4em" transform="translate(-3,384)">-20</text><text dy=".4em" transform="translate(-3,336)">-15</text><text dy=".4em" transform="translate(-3,288)">-10</text><text dy=".4em" transform="translate(-3,240)">-5</text><text dy=".4em" transform="translate(-3,192)">0</text><text dy=".4em" transform="translate(-3,144)">5</text><text dy=".4em" transform="translate(-3,96)">10</text><text dy=".4em" transform="translate(-3,48)">15</text><text dy=".4em" transform="translate(-3)">20</text></g></g></g></g></g></svg><svg viewBox="0 0 540 480" preserveAspectRatio="none" x="660" y="320" width="540" height="480"><path d="M0,0H540V480H0Z" style="fill: #ffffff;"></path><g><g transform="translate(54,48)"><path d="M0,0H432V384H0Z" style="fill: #ffffff; stroke: #000000; stroke-width: 1;"></path><svg x="0" y="0" overflow="hidden" width="432" height="384" viewBox="0 0 432 384"><g><path d="M0,384h0v-10h0zM0,374h0v-9h0zM0,365h1v-10h-1zM0,355h1v-9h-1zM0,346h3v-10h-3zM0,336h7v-10h-7zM0,326h10v-9h-10zM0,317h19v-10h-19zM0,307h31v-9h-31zM0,298h49v-10h-49zM0,288h74v-10h-74zM0,278h107v-9h-107zM0,269h142v-10h-142zM0,259h185v-9h-185zM0,250h235v-10h-235zM0,240h274v-10h-274zM0,230h326v-9h-326zM0,221h380v-10h-380zM0,211h411v-9h-411zM0,202h408v-10h-408zM0,192h402v-10h-402zM0,182h405v-9h-405zM0,173h374v-10h-374zM0,163h322v-9h-322zM0,154h286v-10h-286zM0,144h230v-10h-230zM0,134h192v-9h-192zM0,125h136v-10h-136zM0,115h102v-9h-102zM0,106h62v-10h-62zM0,96h42v-10h-42zM0,86h27v-9h-27zM0,77h19v-10h-19zM0,67h10v-9h-10zM0,58h7v-10h-7zM0,48h3v-10h-3zM0,38h2v-9h-2zM0,29h1v-10h-1zM0,19h0v-9h0zM0,10h0v-10h0z" style="fill: #333399;"></path></g></svg><g><g transform="translate(0,384)"><path d="M0,0h432M0,-12V0M11,-6V0M21,-6V0M32,-6V0M42,-12V0M53,-6V0M63,-6V0M74,-6V0M85,-12V0M95,-6V0M106,-6V0M116,-6V0M127,-12V0M137,-6V0M148,-6V0M159,-6V0M169,-12V0M180,-6V0M190,-6V0M201,-6V0M211,-12V0M222,-6V0M233,-6V0M243,-6V0M254,-12V0M264,-6V0M275,-6V0M285,-6V0M296,-12V0M307,-6V0M317,-6V0M328,-6V0M338,-12V0M349,-6V0M359,-6V0M370,-6V0M381,-12V0M391,-6V0M402,-6V0M412,-6V0M423,-12V0" style="stroke: #000000; stroke-width: 1;"></path><g font-family="Arial" font-size="16" space="preserve" fill="#000000" text-anchor="middle"><text dy=".8em" transform="translate(0,3)">0</text><text dy=".8em" transform="translate(42,3)">200</text><text dy=".8em" transform="translate(85,3)">400</text><text dy=".8em" transform="translate(127,3)">600</text><text dy=".8em" transform="translate(169,3)">800</text><text dy=".8em" transform="translate(211,3)">1000</text><text dy=".8em" transform="translate(254,3)">1200</text><text dy=".8em" transform="translate(296,3)">1400</text><text dy=".8em" transform="translate(338,3)">1600</text><text dy=".8em" transform="translate(381,3)">1800</text><text dy=".8em" transform="translate(423,3)">2000</text></g></g><g><path d="M0,0v384M13,384H0M7,374H0M7,365H0M7,355H0M7,346H0M13,336H0M7,326H0M7,317H0M7,307H0M7,298H0M13,288H0M7,278H0M7,269H0M7,259H0M7,250H0M13,240H0M7,230H0M7,221H0M7,211H0M7,202H0M13,192H0M7,182H0M7,173H0M7,163H0M7,154H0M13,144H0M7,134H0M7,125H0M7,115H0M7,106H0M13,96H0M7,86H0M7,77H0M7,67H0M7,58H0M13,48H0M7,38H0M7,29H0M7,19H0M7,10H0M13,0H0" style="stroke: #000000; stroke-width: 1;"></path><g font-family="Arial" font-size="17" space="preserve" fill="#000000" text-anchor="end"><text dy=".4em" transform="translate(-3,384)">-20</text><text dy=".4em" transform="translate(-3,336)">-15</text><text dy=".4em" transform="translate(-3,288)">-10</text><text dy=".4em" transform="translate(-3,240)">-5</text><text dy=".4em" transform="translate(-3,192)">0</text><text dy=".4em" transform="translate(-3,144)">5</text><text dy=".4em" transform="translate(-3,96)">10</text><text dy=".4em" transform="translate(-3,48)">15</text><text dy=".4em" transform="translate(-3)">20</text></g></g></g></g></g></svg><svg viewBox="0 0 720 360" preserveAspectRatio="none" x="0" y="0" width="720" height="360"><path d="M0,0H720V360H0Z" style="fill: #ffffff;"></path><g><g transform="translate(72,36)"><path d="M0,0H576V288H0Z" style="fill: #ffffff; stroke: #000000; stroke-width: 1;"></path><svg x="0" y="0" overflow="hidden" width="576" height="288" viewBox="0 0 576 288"><g><path d="M0,288h14v0h-14zM14,288h15v0h-15zM29,287h14v1h-14zM43,287h15v1h-15zM58,287h14v1h-14zM72,283h14v5h-14zM86,281h15v7h-15zM101,277h14v11h-14zM115,268h15v20h-15zM130,257h14v31h-14zM144,243h14v45h-14zM158,231h15v57h-15zM173,196h14v92h-14zM187,176h15v112h-15zM202,138h14v150h-14zM216,103h14v185h-14zM230,83h15v205h-15zM245,55h14v233h-14zM259,32h15v256h-15zM274,16h14v272h-14zM288,14h14v274h-14zM302,30h15v258h-15zM317,51h14v237h-14zM331,79h15v209h-15zM346,115h14v173h-14zM360,147h14v141h-14zM374,171h15v117h-15zM389,200h14v88h-14zM403,223h15v65h-15zM418,245h14v43h-14zM432,257h14v31h-14zM446,270h15v18h-15zM461,277h14v11h-14zM475,281h15v7h-15zM490,284h14v4h-14zM504,287h14v1h-14zM518,286h15v2h-15zM533,287h14v1h-14zM547,288h15v0h-15zM562,288h14v0h-14z" style="fill: #0000cc;"></path></g></svg><g><g transform="translate(0,288)"><path d="M0,0h576M0,-9V0M14,-5V0M29,-5V0M43,-5V0M58,-5V0M72,-9V0M86,-5V0M101,-5V0M115,-5V0M130,-5V0M144,-9V0M158,-5V0M173,-5V0M187,-5V0M202,-5V0M216,-9V0M230,-5V0M245,-5V0M259,-5V0M274,-5V0M288,-9V0M302,-5V0M317,-5V0M331,-5V0M346,-5V0M360,-9V0M374,-5V0M389,-5V0M403,-5V0M418,-5V0M432,-9V0M446,-5V0M461,-5V0M475,-5V0M490,-5V0M504,-9V0M518,-5V0M533,-5V0M547,-5V0M562,-5V0M576,-9V0" style="stroke: #000000; stroke-width: 1;"></path><g font-family="Arial" font-size="13" space="preserve" fill="#000000" text-anchor="middle"><text dy=".8em" transform="translate(0,3)">-4</text><text dy=".8em" transform="translate(72,3)">-3</text><text dy=".8em" transform="translate(144,3)">-2</text><text dy=".8em" transform="translate(216,3)">-1</text><text dy=".8em" transform="translate(288,3)">0</text><text dy=".8em" transform="translate(360,3)">1</text><text dy=".8em" transform="translate(432,3)">2</text><text dy=".8em" transform="translate(504,3)">3</text><text dy=".8em" transform="translate(576,3)">4</text></g></g><g><path d="M0,0v288M17,288H0M9,281H0M9,275H0M9,268H0M17,261H0M9,254H0M9,248H0M9,241H0M17,234H0M9,227H0M9,221H0M9,214H0M17,207H0M9,200H0M9,194H0M9,187H0M17,180H0M9,173H0M9,167H0M9,160H0M17,153H0M9,147H0M9,140H0M9,133H0M17,126H0M9,120H0M9,113H0M9,106H0M17,99H0M9,93H0M9,86H0M9,79H0M17,72H0M9,66H0M9,59H0M9,52H0M17,46H0M9,39H0M9,32H0M9,25H0M17,19H0M9,12H0M9,5H0" style="stroke: #000000; stroke-width: 1;"></path><g font-family="Arial" font-size="13" space="preserve" fill="#000000" text-anchor="end"><text dy=".4em" transform="translate(-3,288)">0</text><text dy=".4em" transform="translate(-3,261)">200</text><text dy=".4em" transform="translate(-3,234)">400</text><text dy=".4em" transform="translate(-3,207)">600</text><text dy=".4em" transform="translate(-3,180)">800</text><text dy=".4em" transform="translate(-3,153)">1000</text><text dy=".4em" transform="translate(-3,126)">1200</text><text dy=".4em" transform="translate(-3,99)">1400</text><text dy=".4em" transform="translate(-3,72)">1600</text><text dy=".4em" transform="translate(-3,46)">1800</text><text dy=".4em" transform="translate(-3,19)">2000</text></g></g></g></g></g></svg><g font-family="Arial" font-size="14" space="preserve"><text fill="#000000" text-anchor="start" transform="translate(720,96)">This example demonstrates how to display</text></g><g font-family="Arial" font-size="14" space="preserve"><text fill="#000000" text-anchor="start" transform="translate(720,120)">a histogram and its two projections.</text></g></g></svg>