<svg xmlns="http://www.w3.org/2000/svg" viewBox="0 0 1200 800" preserveAspectRatio="none" width="1200" height="800"><path d="M0,0H1200V800H0Z" style="fill: #ffffff;"></path><g><g transform="translate(120,120)"><path d="M0,0H960V600H0Z" style="fill: #ffffff; stroke: #000000; stroke-width: 1;"></path><svg x="0" y="0" overflow="hidden" width="960" height="600" viewBox="0 0 960 600"><g><path d="M0,101h48v73h48v290h48v-314h48v290h48v-218h48v351h48v-36h48v-206h48v-73h48v121h48v-242h48v-60h48v145h48v-193h48v193h48v-97h48v158h48v36h48v48h48L960,603H0Z" style="stroke-linejoin: miter; stroke: #000099; stroke-width: 1; fill: #7c99d1;"></path></g></svg><g><g transform="translate(0,600)"><path d="M0,0h960M0,-24V0M48,-24V0M96,-24V0M144,-24V0M192,-24V0M240,-24V0M288,-24V0M336,-24V0M384,-24V0M432,-24V0M480,-24V0M528,-24V0M576,-24V0M624,-24V0M672,-24V0M720,-24V0M768,-24V0M816,-24V0M864,-24V0M912,-24V0M960,-12V0" style="stroke: #000000; stroke-width: 1;"></path><g font-family="Arial" font-size="19" space="preserve" fill="#000000" text-anchor="middle"><text dy=".8em" transform="translate(24,6) rotate(25)" style="text-anchor: start;">Valery</text><text dy=".8em" transform="translate(72,6) rotate(25)" style="text-anchor: start;">Odile</text><text dy=".8em" transform="translate(120,6) rotate(25)" style="text-anchor: start;">Fons</text><text dy=".8em" transform="translate(168,6) rotate(25)" style="text-anchor: start;">Jeff</text><text dy=".8em" transform="translate(216,6) rotate(25)" style="text-anchor: start;">Sebastien</text><text dy=".8em" transform="translate(264,6) rotate(25)" style="text-anchor: start;">Greg</text><text dy=".8em" transform="translate(312,6) rotate(25)" style="text-anchor: start;">Peter</text><text dy=".8em" transform="translate(360,6) rotate(25)" style="text-anchor: start;">Bjarne</text><text dy=".8em" transform="translate(408,6) rotate(25)" style="text-anchor: start;">Pasha</text><text dy=".8em" transform="translate(456,6) rotate(25)" style="text-anchor: start;">Eddy</text><text dy=".8em" transform="translate(504,6) rotate(25)" style="text-anchor: start;">Rene</text><text dy=".8em" transform="translate(552,6) rotate(25)" style="text-anchor: start;">Philippe</text><text dy=".8em" transform="translate(600,6) rotate(25)" style="text-anchor: start;">Nicolas</text><text dy=".8em" transform="translate(648,6) rotate(25)" style="text-anchor: start;">Jean</text><text dy=".8em" transform="translate(696,6) rotate(25)" style="text-anchor: start;">Anton</text><text dy=".8em" transform="translate(744,6) rotate(25)" style="text-anchor: start;">Suzanne</text><text dy=".8em" transform="translate(792,6) rotate(25)" style="text-anchor: start;">Marie</text><text dy=".8em" transform="translate(840,6) rotate(25)" style="text-anchor: start;">Pierre</text><text dy=".8em" transform="translate(888,6) rotate(25)" style="text-anchor: start;">Otto</text><text dy=".8em" transform="translate(936,6) rotate(25)" style="text-anchor: start;">Xavier</text></g></g><g><path d="M0,0v600M18,597H0M18,585H0M36,573H0M18,561H0M18,549H0M18,537H0M18,524H0M36,512H0M18,500H0M18,488H0M18,476H0M18,464H0M36,452H0M18,440H0M18,428H0M18,416H0M18,403H0M36,391H0M18,379H0M18,367H0M18,355H0M18,343H0M36,331H0M18,319H0M18,307H0M18,295H0M18,283H0M36,270H0M18,258H0M18,246H0M18,234H0M18,222H0M36,210H0M18,198H0M18,186H0M18,174H0M18,162H0M36,150H0M18,137H0M18,125H0M18,113H0M18,101H0M36,89H0M18,77H0M18,65H0M18,53H0M18,41H0M36,29H0M18,16H0M18,4H0" style="stroke: #000000; stroke-width: 1;"></path><g font-family="Arial" font-size="28" space="preserve" fill="#000000" text-anchor="end"><text dy=".4em" transform="translate(-6,573)">225</text><text dy=".4em" transform="translate(-6,512)">230</text><text dy=".4em" transform="translate(-6,452)">235</text><text dy=".4em" transform="translate(-6,391)">240</text><text dy=".4em" transform="translate(-6,331)">245</text><text dy=".4em" transform="translate(-6,270)">250</text><text dy=".4em" transform="translate(-6,210)">255</text><text dy=".4em" transform="translate(-6,150)">260</text><text dy=".4em" transform="translate(-6,89)">265</text><text dy=".4em" transform="translate(-6,29)">270</text></g></g><path d="M0,0v600M48,0v600M96,0v600M144,0v600M192,0v600M240,0v600M288,0v600M336,0v600M384,0v600M432,0v600M480,0v600M528,0v600M576,0v600M624,0v600M672,0v600M720,0v600M768,0v600M816,0v600M864,0v600M912,0v600M960,0v600" style="stroke: #000000; stroke-width: 1; stroke-dasharray: 1,2;"></path><path d="M0,573h960M0,512h960M0,452h960M0,391h960M0,331h960M0,270h960M0,210h960M0,150h960M0,89h960M0,29h960" style="stroke: #000000; stroke-width: 1; stroke-dasharray: 1,2;"></path></g></g><g transform="translate(120,4)" font-family="Arial" font-size="40" space="preserve"><text fill="#000000" text-anchor="middle" dy=".8em" transform="translate(480)">test</text></g><g transform="translate(840,16)" font-family="Arial" font-size="12" space="preserve" font-weight="bold" fill="#000000" text-anchor="start"><path d="M336,4h4v104h-336v-4h332z" style="fill: #000000; stroke: #000000; stroke-width: 1px;"></path><path d="M0,0H336V104H0Z" style="fill: #e5e5e5; stroke: #000000; stroke-width: 1;"></path><text dy=".4em" transform="translate(17,13)">Use the axis Context Menu LabelsOption</text><text dy=".4em" transform="translate(17,39)"> "a"   to sort by alphabetic order</text><text dy=".4em" transform="translate(17,65)"> "&gt;"   to sort by decreasing values</text><text dy=".4em" transform="translate(17,91)"> "&lt;"   to sort by increasing values</text></g></g></svg>