<svg xmlns="http://www.w3.org/2000/svg" viewBox="0 0 1200 800" preserveAspectRatio="none" width="1200" height="800"><path d="M0,0H1200V800H0Z" style="fill: #ffffff;"></path><g><g transform="translate(120,80)"><path d="M0,0H960V640H0Z" style="fill: #ffffff; stroke: #000000; stroke-width: 1;"></path><svg x="0" y="0" overflow="hidden" width="960" height="640" viewBox="0 0 960 640"><g><path d="M-1,53a1,1,0,1,0,2,0a1,1,0,1,0,-2,0zM1,63a1,1,0,1,0,2,0a1,1,0,1,0,-2,0zM2,89a1,1,0,1,0,2,0a1,1,0,1,0,-2,0zM4,66a1,1,0,1,0,2,0a1,1,0,1,0,-2,0zM6,65a1,1,0,1,0,2,0a1,1,0,1,0,-2,0zM8,112a1,1,0,1,0,2,0a1,1,0,1,0,-2,0zM9,116a1,1,0,1,0,2,0a1,1,0,1,0,-2,0zM11,141a1,1,0,1,0,2,0a1,1,0,1,0,-2,0zM13,156a1,1,0,1,0,2,0a1,1,0,1,0,-2,0zM15,175a1,1,0,1,0,2,0a1,1,0,1,0,-2,0zM16,170a1,1,0,1,0,2,0a1,1,0,1,0,-2,0zM18,169a1,1,0,1,0,2,0a1,1,0,1,0,-2,0zM20,173a1,1,0,1,0,2,0a1,1,0,1,0,-2,0zM22,162a1,1,0,1,0,2,0a1,1,0,1,0,-2,0zM23,165a1,1,0,1,0,2,0a1,1,0,1,0,-2,0zM25,170a1,1,0,1,0,2,0a1,1,0,1,0,-2,0zM27,192a1,1,0,1,0,2,0a1,1,0,1,0,-2,0zM29,174a1,1,0,1,0,2,0a1,1,0,1,0,-2,0zM30,182a1,1,0,1,0,2,0a1,1,0,1,0,-2,0zM32,208a1,1,0,1,0,2,0a1,1,0,1,0,-2,0zM34,209a1,1,0,1,0,2,0a1,1,0,1,0,-2,0zM36,225a1,1,0,1,0,2,0a1,1,0,1,0,-2,0zM37,245a1,1,0,1,0,2,0a1,1,0,1,0,-2,0zM39,255a1,1,0,1,0,2,0a1,1,0,1,0,-2,0zM41,275a1,1,0,1,0,2,0a1,1,0,1,0,-2,0zM43,291a1,1,0,1,0,2,0a1,1,0,1,0,-2,0zM44,299a1,1,0,1,0,2,0a1,1,0,1,0,-2,0zM46,310a1,1,0,1,0,2,0a1,1,0,1,0,-2,0zM48,319a1,1,0,1,0,2,0a1,1,0,1,0,-2,0zM50,308a1,1,0,1,0,2,0a1,1,0,1,0,-2,0zM51,331a1,1,0,1,0,2,0a1,1,0,1,0,-2,0zM53,318a1,1,0,1,0,2,0a1,1,0,1,0,-2,0zM55,336a1,1,0,1,0,2,0a1,1,0,1,0,-2,0zM57,349a1,1,0,1,0,2,0a1,1,0,1,0,-2,0zM58,365a1,1,0,1,0,2,0a1,1,0,1,0,-2,0zM60,371a1,1,0,1,0,2,0a1,1,0,1,0,-2,0zM62,388a1,1,0,1,0,2,0a1,1,0,1,0,-2,0zM64,391a1,1,0,1,0,2,0a1,1,0,1,0,-2,0zM65,391a1,1,0,1,0,2,0a1,1,0,1,0,-2,0zM67,397a1,1,0,1,0,2,0a1,1,0,1,0,-2,0zM69,400a1,1,0,1,0,2,0a1,1,0,1,0,-2,0zM71,406a1,1,0,1,0,2,0a1,1,0,1,0,-2,0zM72,416a1,1,0,1,0,2,0a1,1,0,1,0,-2,0zM74,427a1,1,0,1,0,2,0a1,1,0,1,0,-2,0zM76,428a1,1,0,1,0,2,0a1,1,0,1,0,-2,0zM78,430a1,1,0,1,0,2,0a1,1,0,1,0,-2,0zM79,434a1,1,0,1,0,2,0a1,1,0,1,0,-2,0zM81,431a1,1,0,1,0,2,0a1,1,0,1,0,-2,0zM83,442a1,1,0,1,0,2,0a1,1,0,1,0,-2,0zM85,456a1,1,0,1,0,2,0a1,1,0,1,0,-2,0zM86,455a1,1,0,1,0,2,0a1,1,0,1,0,-2,0zM88,461a1,1,0,1,0,2,0a1,1,0,1,0,-2,0zM90,462a1,1,0,1,0,2,0a1,1,0,1,0,-2,0zM92,472a1,1,0,1,0,2,0a1,1,0,1,0,-2,0zM93,466a1,1,0,1,0,2,0a1,1,0,1,0,-2,0zM95,472a1,1,0,1,0,2,0a1,1,0,1,0,-2,0zM97,472a1,1,0,1,0,2,0a1,1,0,1,0,-2,0zM99,475a1,1,0,1,0,2,0a1,1,0,1,0,-2,0zM100,473a1,1,0,1,0,2,0a1,1,0,1,0,-2,0zM102,479a1,1,0,1,0,2,0a1,1,0,1,0,-2,0zM104,474a1,1,0,1,0,2,0a1,1,0,1,0,-2,0zM106,479a1,1,0,1,0,2,0a1,1,0,1,0,-2,0zM107,484a1,1,0,1,0,2,0a1,1,0,1,0,-2,0zM109,489a1,1,0,1,0,2,0a1,1,0,1,0,-2,0zM111,492a1,1,0,1,0,2,0a1,1,0,1,0,-2,0zM113,492a1,1,0,1,0,2,0a1,1,0,1,0,-2,0zM114,493a1,1,0,1,0,2,0a1,1,0,1,0,-2,0zM116,501a1,1,0,1,0,2,0a1,1,0,1,0,-2,0zM118,507a1,1,0,1,0,2,0a1,1,0,1,0,-2,0zM120,502a1,1,0,1,0,2,0a1,1,0,1,0,-2,0zM121,505a1,1,0,1,0,2,0a1,1,0,1,0,-2,0zM123,508a1,1,0,1,0,2,0a1,1,0,1,0,-2,0zM125,504a1,1,0,1,0,2,0a1,1,0,1,0,-2,0zM127,515a1,1,0,1,0,2,0a1,1,0,1,0,-2,0zM128,521a1,1,0,1,0,2,0a1,1,0,1,0,-2,0zM130,522a1,1,0,1,0,2,0a1,1,0,1,0,-2,0zM132,524a1,1,0,1,0,2,0a1,1,0,1,0,-2,0zM134,523a1,1,0,1,0,2,0a1,1,0,1,0,-2,0zM135,525a1,1,0,1,0,2,0a1,1,0,1,0,-2,0zM137,527a1,1,0,1,0,2,0a1,1,0,1,0,-2,0zM139,535a1,1,0,1,0,2,0a1,1,0,1,0,-2,0zM141,543a1,1,0,1,0,2,0a1,1,0,1,0,-2,0zM142,542a1,1,0,1,0,2,0a1,1,0,1,0,-2,0zM144,543a1,1,0,1,0,2,0a1,1,0,1,0,-2,0zM146,545a1,1,0,1,0,2,0a1,1,0,1,0,-2,0zM148,546a1,1,0,1,0,2,0a1,1,0,1,0,-2,0zM149,545a1,1,0,1,0,2,0a1,1,0,1,0,-2,0zM151,547a1,1,0,1,0,2,0a1,1,0,1,0,-2,0zM153,551a1,1,0,1,0,2,0a1,1,0,1,0,-2,0zM155,554a1,1,0,1,0,2,0a1,1,0,1,0,-2,0zM156,554a1,1,0,1,0,2,0a1,1,0,1,0,-2,0zM158,555a1,1,0,1,0,2,0a1,1,0,1,0,-2,0zM160,557a1,1,0,1,0,2,0a1,1,0,1,0,-2,0zM162,556a1,1,0,1,0,2,0a1,1,0,1,0,-2,0zM163,554a1,1,0,1,0,2,0a1,1,0,1,0,-2,0zM165,555a1,1,0,1,0,2,0a1,1,0,1,0,-2,0zM167,553a1,1,0,1,0,2,0a1,1,0,1,0,-2,0zM169,555a1,1,0,1,0,2,0a1,1,0,1,0,-2,0zM170,551a1,1,0,1,0,2,0a1,1,0,1,0,-2,0zM172,548a1,1,0,1,0,2,0a1,1,0,1,0,-2,0zM174,552a1,1,0,1,0,2,0a1,1,0,1,0,-2,0zM176,555a1,1,0,1,0,2,0a1,1,0,1,0,-2,0zM177,554a1,1,0,1,0,2,0a1,1,0,1,0,-2,0zM179,557a1,1,0,1,0,2,0a1,1,0,1,0,-2,0zM181,558a1,1,0,1,0,2,0a1,1,0,1,0,-2,0zM183,558a1,1,0,1,0,2,0a1,1,0,1,0,-2,0zM184,557a1,1,0,1,0,2,0a1,1,0,1,0,-2,0zM186,557a1,1,0,1,0,2,0a1,1,0,1,0,-2,0zM188,560a1,1,0,1,0,2,0a1,1,0,1,0,-2,0zM190,560a1,1,0,1,0,2,0a1,1,0,1,0,-2,0zM191,561a1,1,0,1,0,2,0a1,1,0,1,0,-2,0zM193,561a1,1,0,1,0,2,0a1,1,0,1,0,-2,0zM195,564a1,1,0,1,0,2,0a1,1,0,1,0,-2,0zM197,565a1,1,0,1,0,2,0a1,1,0,1,0,-2,0zM198,564a1,1,0,1,0,2,0a1,1,0,1,0,-2,0zM200,567a1,1,0,1,0,2,0a1,1,0,1,0,-2,0zM202,571a1,1,0,1,0,2,0a1,1,0,1,0,-2,0zM204,569a1,1,0,1,0,2,0a1,1,0,1,0,-2,0zM205,570a1,1,0,1,0,2,0a1,1,0,1,0,-2,0zM207,571a1,1,0,1,0,2,0a1,1,0,1,0,-2,0zM209,571a1,1,0,1,0,2,0a1,1,0,1,0,-2,0zM211,571a1,1,0,1,0,2,0a1,1,0,1,0,-2,0zM212,570a1,1,0,1,0,2,0a1,1,0,1,0,-2,0zM214,572a1,1,0,1,0,2,0a1,1,0,1,0,-2,0zM216,572a1,1,0,1,0,2,0a1,1,0,1,0,-2,0zM218,574a1,1,0,1,0,2,0a1,1,0,1,0,-2,0zM219,573a1,1,0,1,0,2,0a1,1,0,1,0,-2,0zM221,575a1,1,0,1,0,2,0a1,1,0,1,0,-2,0zM223,574a1,1,0,1,0,2,0a1,1,0,1,0,-2,0zM225,573a1,1,0,1,0,2,0a1,1,0,1,0,-2,0zM226,572a1,1,0,1,0,2,0a1,1,0,1,0,-2,0zM228,574a1,1,0,1,0,2,0a1,1,0,1,0,-2,0zM230,573a1,1,0,1,0,2,0a1,1,0,1,0,-2,0zM232,573a1,1,0,1,0,2,0a1,1,0,1,0,-2,0zM233,574a1,1,0,1,0,2,0a1,1,0,1,0,-2,0zM235,574a1,1,0,1,0,2,0a1,1,0,1,0,-2,0zM237,575a1,1,0,1,0,2,0a1,1,0,1,0,-2,0zM239,578a1,1,0,1,0,2,0a1,1,0,1,0,-2,0zM240,577a1,1,0,1,0,2,0a1,1,0,1,0,-2,0zM242,575a1,1,0,1,0,2,0a1,1,0,1,0,-2,0zM244,576a1,1,0,1,0,2,0a1,1,0,1,0,-2,0zM246,577a1,1,0,1,0,2,0a1,1,0,1,0,-2,0zM247,576a1,1,0,1,0,2,0a1,1,0,1,0,-2,0zM249,576a1,1,0,1,0,2,0a1,1,0,1,0,-2,0zM251,574a1,1,0,1,0,2,0a1,1,0,1,0,-2,0zM253,575a1,1,0,1,0,2,0a1,1,0,1,0,-2,0zM254,574a1,1,0,1,0,2,0a1,1,0,1,0,-2,0zM256,574a1,1,0,1,0,2,0a1,1,0,1,0,-2,0zM258,573a1,1,0,1,0,2,0a1,1,0,1,0,-2,0zM260,576a1,1,0,1,0,2,0a1,1,0,1,0,-2,0zM261,578a1,1,0,1,0,2,0a1,1,0,1,0,-2,0zM263,578a1,1,0,1,0,2,0a1,1,0,1,0,-2,0zM265,581a1,1,0,1,0,2,0a1,1,0,1,0,-2,0zM267,581a1,1,0,1,0,2,0a1,1,0,1,0,-2,0zM268,579a1,1,0,1,0,2,0a1,1,0,1,0,-2,0zM270,579a1,1,0,1,0,2,0a1,1,0,1,0,-2,0zM272,580a1,1,0,1,0,2,0a1,1,0,1,0,-2,0zM274,578a1,1,0,1,0,2,0a1,1,0,1,0,-2,0zM275,577a1,1,0,1,0,2,0a1,1,0,1,0,-2,0zM277,579a1,1,0,1,0,2,0a1,1,0,1,0,-2,0zM279,581a1,1,0,1,0,2,0a1,1,0,1,0,-2,0zM281,582a1,1,0,1,0,2,0a1,1,0,1,0,-2,0zM282,582a1,1,0,1,0,2,0a1,1,0,1,0,-2,0zM284,580a1,1,0,1,0,2,0a1,1,0,1,0,-2,0zM286,580a1,1,0,1,0,2,0a1,1,0,1,0,-2,0zM288,579a1,1,0,1,0,2,0a1,1,0,1,0,-2,0zM289,578a1,1,0,1,0,2,0a1,1,0,1,0,-2,0zM291,577a1,1,0,1,0,2,0a1,1,0,1,0,-2,0zM293,576a1,1,0,1,0,2,0a1,1,0,1,0,-2,0zM295,574a1,1,0,1,0,2,0a1,1,0,1,0,-2,0zM296,575a1,1,0,1,0,2,0a1,1,0,1,0,-2,0zM298,576a1,1,0,1,0,2,0a1,1,0,1,0,-2,0zM300,575a1,1,0,1,0,2,0a1,1,0,1,0,-2,0zM302,574a1,1,0,1,0,2,0a1,1,0,1,0,-2,0zM303,573a1,1,0,1,0,2,0a1,1,0,1,0,-2,0zM305,574a1,1,0,1,0,2,0a1,1,0,1,0,-2,0zM307,572a1,1,0,1,0,2,0a1,1,0,1,0,-2,0zM309,575a1,1,0,1,0,2,0a1,1,0,1,0,-2,0zM310,574a1,1,0,1,0,2,0a1,1,0,1,0,-2,0zM312,575a1,1,0,1,0,2,0a1,1,0,1,0,-2,0zM314,574a1,1,0,1,0,2,0a1,1,0,1,0,-2,0zM316,579a1,1,0,1,0,2,0a1,1,0,1,0,-2,0zM317,578a1,1,0,1,0,2,0a1,1,0,1,0,-2,0zM319,577a1,1,0,1,0,2,0a1,1,0,1,0,-2,0zM321,576a1,1,0,1,0,2,0a1,1,0,1,0,-2,0zM323,579a1,1,0,1,0,2,0a1,1,0,1,0,-2,0zM324,580a1,1,0,1,0,2,0a1,1,0,1,0,-2,0zM326,580a1,1,0,1,0,2,0a1,1,0,1,0,-2,0zM328,581a1,1,0,1,0,2,0a1,1,0,1,0,-2,0zM330,583a1,1,0,1,0,2,0a1,1,0,1,0,-2,0zM331,582a1,1,0,1,0,2,0a1,1,0,1,0,-2,0zM333,581a1,1,0,1,0,2,0a1,1,0,1,0,-2,0zM335,584a1,1,0,1,0,2,0a1,1,0,1,0,-2,0zM337,585a1,1,0,1,0,2,0a1,1,0,1,0,-2,0zM338,587a1,1,0,1,0,2,0a1,1,0,1,0,-2,0zM340,586a1,1,0,1,0,2,0a1,1,0,1,0,-2,0zM342,583a1,1,0,1,0,2,0a1,1,0,1,0,-2,0zM344,583a1,1,0,1,0,2,0a1,1,0,1,0,-2,0zM345,583a1,1,0,1,0,2,0a1,1,0,1,0,-2,0zM347,582a1,1,0,1,0,2,0a1,1,0,1,0,-2,0zM349,586a1,1,0,1,0,2,0a1,1,0,1,0,-2,0zM351,582a1,1,0,1,0,2,0a1,1,0,1,0,-2,0zM352,583a1,1,0,1,0,2,0a1,1,0,1,0,-2,0zM354,581a1,1,0,1,0,2,0a1,1,0,1,0,-2,0zM356,580a1,1,0,1,0,2,0a1,1,0,1,0,-2,0zM358,580a1,1,0,1,0,2,0a1,1,0,1,0,-2,0zM359,580a1,1,0,1,0,2,0a1,1,0,1,0,-2,0zM361,577a1,1,0,1,0,2,0a1,1,0,1,0,-2,0zM363,578a1,1,0,1,0,2,0a1,1,0,1,0,-2,0zM365,575a1,1,0,1,0,2,0a1,1,0,1,0,-2,0zM366,577a1,1,0,1,0,2,0a1,1,0,1,0,-2,0zM368,577a1,1,0,1,0,2,0a1,1,0,1,0,-2,0zM370,577a1,1,0,1,0,2,0a1,1,0,1,0,-2,0zM372,577a1,1,0,1,0,2,0a1,1,0,1,0,-2,0zM373,578a1,1,0,1,0,2,0a1,1,0,1,0,-2,0zM375,576a1,1,0,1,0,2,0a1,1,0,1,0,-2,0zM377,576a1,1,0,1,0,2,0a1,1,0,1,0,-2,0zM379,579a1,1,0,1,0,2,0a1,1,0,1,0,-2,0zM380,580a1,1,0,1,0,2,0a1,1,0,1,0,-2,0zM382,581a1,1,0,1,0,2,0a1,1,0,1,0,-2,0zM384,579a1,1,0,1,0,2,0a1,1,0,1,0,-2,0zM386,579a1,1,0,1,0,2,0a1,1,0,1,0,-2,0zM387,577a1,1,0,1,0,2,0a1,1,0,1,0,-2,0zM389,576a1,1,0,1,0,2,0a1,1,0,1,0,-2,0zM391,576a1,1,0,1,0,2,0a1,1,0,1,0,-2,0zM393,574a1,1,0,1,0,2,0a1,1,0,1,0,-2,0zM394,572a1,1,0,1,0,2,0a1,1,0,1,0,-2,0zM396,574a1,1,0,1,0,2,0a1,1,0,1,0,-2,0zM398,573a1,1,0,1,0,2,0a1,1,0,1,0,-2,0zM400,574a1,1,0,1,0,2,0a1,1,0,1,0,-2,0zM401,573a1,1,0,1,0,2,0a1,1,0,1,0,-2,0zM403,570a1,1,0,1,0,2,0a1,1,0,1,0,-2,0zM405,571a1,1,0,1,0,2,0a1,1,0,1,0,-2,0zM407,571a1,1,0,1,0,2,0a1,1,0,1,0,-2,0zM408,572a1,1,0,1,0,2,0a1,1,0,1,0,-2,0zM410,574a1,1,0,1,0,2,0a1,1,0,1,0,-2,0zM412,573a1,1,0,1,0,2,0a1,1,0,1,0,-2,0zM414,576a1,1,0,1,0,2,0a1,1,0,1,0,-2,0zM415,578a1,1,0,1,0,2,0a1,1,0,1,0,-2,0zM417,576a1,1,0,1,0,2,0a1,1,0,1,0,-2,0zM419,575a1,1,0,1,0,2,0a1,1,0,1,0,-2,0zM420,576a1,1,0,1,0,2,0a1,1,0,1,0,-2,0zM422,577a1,1,0,1,0,2,0a1,1,0,1,0,-2,0zM424,578a1,1,0,1,0,2,0a1,1,0,1,0,-2,0zM426,578a1,1,0,1,0,2,0a1,1,0,1,0,-2,0zM427,579a1,1,0,1,0,2,0a1,1,0,1,0,-2,0zM429,580a1,1,0,1,0,2,0a1,1,0,1,0,-2,0zM431,579a1,1,0,1,0,2,0a1,1,0,1,0,-2,0zM433,578a1,1,0,1,0,2,0a1,1,0,1,0,-2,0zM434,579a1,1,0,1,0,2,0a1,1,0,1,0,-2,0zM436,579a1,1,0,1,0,2,0a1,1,0,1,0,-2,0zM438,579a1,1,0,1,0,2,0a1,1,0,1,0,-2,0zM440,577a1,1,0,1,0,2,0a1,1,0,1,0,-2,0zM441,576a1,1,0,1,0,2,0a1,1,0,1,0,-2,0zM443,573a1,1,0,1,0,2,0a1,1,0,1,0,-2,0zM445,574a1,1,0,1,0,2,0a1,1,0,1,0,-2,0zM447,573a1,1,0,1,0,2,0a1,1,0,1,0,-2,0zM448,575a1,1,0,1,0,2,0a1,1,0,1,0,-2,0zM450,574a1,1,0,1,0,2,0a1,1,0,1,0,-2,0zM452,573a1,1,0,1,0,2,0a1,1,0,1,0,-2,0zM454,576a1,1,0,1,0,2,0a1,1,0,1,0,-2,0zM455,579a1,1,0,1,0,2,0a1,1,0,1,0,-2,0zM457,580a1,1,0,1,0,2,0a1,1,0,1,0,-2,0zM459,579a1,1,0,1,0,2,0a1,1,0,1,0,-2,0zM461,578a1,1,0,1,0,2,0a1,1,0,1,0,-2,0zM462,577a1,1,0,1,0,2,0a1,1,0,1,0,-2,0zM464,579a1,1,0,1,0,2,0a1,1,0,1,0,-2,0zM466,578a1,1,0,1,0,2,0a1,1,0,1,0,-2,0zM468,579a1,1,0,1,0,2,0a1,1,0,1,0,-2,0zM469,576a1,1,0,1,0,2,0a1,1,0,1,0,-2,0zM471,575a1,1,0,1,0,2,0a1,1,0,1,0,-2,0zM473,576a1,1,0,1,0,2,0a1,1,0,1,0,-2,0zM475,577a1,1,0,1,0,2,0a1,1,0,1,0,-2,0zM476,576a1,1,0,1,0,2,0a1,1,0,1,0,-2,0zM478,579a1,1,0,1,0,2,0a1,1,0,1,0,-2,0zM480,579a1,1,0,1,0,2,0a1,1,0,1,0,-2,0zM482,581a1,1,0,1,0,2,0a1,1,0,1,0,-2,0zM483,580a1,1,0,1,0,2,0a1,1,0,1,0,-2,0zM485,579a1,1,0,1,0,2,0a1,1,0,1,0,-2,0zM487,580a1,1,0,1,0,2,0a1,1,0,1,0,-2,0zM489,578a1,1,0,1,0,2,0a1,1,0,1,0,-2,0zM490,576a1,1,0,1,0,2,0a1,1,0,1,0,-2,0zM492,574a1,1,0,1,0,2,0a1,1,0,1,0,-2,0zM494,573a1,1,0,1,0,2,0a1,1,0,1,0,-2,0zM496,573a1,1,0,1,0,2,0a1,1,0,1,0,-2,0zM497,577a1,1,0,1,0,2,0a1,1,0,1,0,-2,0zM499,576a1,1,0,1,0,2,0a1,1,0,1,0,-2,0zM501,575a1,1,0,1,0,2,0a1,1,0,1,0,-2,0zM503,577a1,1,0,1,0,2,0a1,1,0,1,0,-2,0zM504,578a1,1,0,1,0,2,0a1,1,0,1,0,-2,0zM506,578a1,1,0,1,0,2,0a1,1,0,1,0,-2,0zM508,579a1,1,0,1,0,2,0a1,1,0,1,0,-2,0zM510,579a1,1,0,1,0,2,0a1,1,0,1,0,-2,0zM511,580a1,1,0,1,0,2,0a1,1,0,1,0,-2,0zM513,578a1,1,0,1,0,2,0a1,1,0,1,0,-2,0zM515,575a1,1,0,1,0,2,0a1,1,0,1,0,-2,0zM517,573a1,1,0,1,0,2,0a1,1,0,1,0,-2,0zM518,570a1,1,0,1,0,2,0a1,1,0,1,0,-2,0zM520,571a1,1,0,1,0,2,0a1,1,0,1,0,-2,0zM522,572a1,1,0,1,0,2,0a1,1,0,1,0,-2,0zM524,569a1,1,0,1,0,2,0a1,1,0,1,0,-2,0zM525,568a1,1,0,1,0,2,0a1,1,0,1,0,-2,0zM527,568a1,1,0,1,0,2,0a1,1,0,1,0,-2,0zM529,571a1,1,0,1,0,2,0a1,1,0,1,0,-2,0zM531,571a1,1,0,1,0,2,0a1,1,0,1,0,-2,0zM532,570a1,1,0,1,0,2,0a1,1,0,1,0,-2,0zM534,570a1,1,0,1,0,2,0a1,1,0,1,0,-2,0zM536,571a1,1,0,1,0,2,0a1,1,0,1,0,-2,0zM538,572a1,1,0,1,0,2,0a1,1,0,1,0,-2,0zM539,573a1,1,0,1,0,2,0a1,1,0,1,0,-2,0zM541,572a1,1,0,1,0,2,0a1,1,0,1,0,-2,0zM543,573a1,1,0,1,0,2,0a1,1,0,1,0,-2,0zM545,572a1,1,0,1,0,2,0a1,1,0,1,0,-2,0zM546,574a1,1,0,1,0,2,0a1,1,0,1,0,-2,0zM548,575a1,1,0,1,0,2,0a1,1,0,1,0,-2,0zM550,575a1,1,0,1,0,2,0a1,1,0,1,0,-2,0zM552,572a1,1,0,1,0,2,0a1,1,0,1,0,-2,0zM553,573a1,1,0,1,0,2,0a1,1,0,1,0,-2,0zM555,572a1,1,0,1,0,2,0a1,1,0,1,0,-2,0zM557,575a1,1,0,1,0,2,0a1,1,0,1,0,-2,0zM559,576a1,1,0,1,0,2,0a1,1,0,1,0,-2,0zM560,576a1,1,0,1,0,2,0a1,1,0,1,0,-2,0zM562,577a1,1,0,1,0,2,0a1,1,0,1,0,-2,0zM564,576a1,1,0,1,0,2,0a1,1,0,1,0,-2,0zM566,575a1,1,0,1,0,2,0a1,1,0,1,0,-2,0zM567,572a1,1,0,1,0,2,0a1,1,0,1,0,-2,0zM569,571a1,1,0,1,0,2,0a1,1,0,1,0,-2,0zM571,573a1,1,0,1,0,2,0a1,1,0,1,0,-2,0zM573,572a1,1,0,1,0,2,0a1,1,0,1,0,-2,0zM574,574a1,1,0,1,0,2,0a1,1,0,1,0,-2,0zM576,570a1,1,0,1,0,2,0a1,1,0,1,0,-2,0zM578,572a1,1,0,1,0,2,0a1,1,0,1,0,-2,0zM580,571a1,1,0,1,0,2,0a1,1,0,1,0,-2,0zM581,569a1,1,0,1,0,2,0a1,1,0,1,0,-2,0zM583,568a1,1,0,1,0,2,0a1,1,0,1,0,-2,0zM585,569a1,1,0,1,0,2,0a1,1,0,1,0,-2,0zM587,569a1,1,0,1,0,2,0a1,1,0,1,0,-2,0zM588,569a1,1,0,1,0,2,0a1,1,0,1,0,-2,0zM590,568a1,1,0,1,0,2,0a1,1,0,1,0,-2,0zM592,568a1,1,0,1,0,2,0a1,1,0,1,0,-2,0zM594,569a1,1,0,1,0,2,0a1,1,0,1,0,-2,0zM595,570a1,1,0,1,0,2,0a1,1,0,1,0,-2,0zM597,570a1,1,0,1,0,2,0a1,1,0,1,0,-2,0zM599,572a1,1,0,1,0,2,0a1,1,0,1,0,-2,0zM601,574a1,1,0,1,0,2,0a1,1,0,1,0,-2,0zM602,578a1,1,0,1,0,2,0a1,1,0,1,0,-2,0zM604,578a1,1,0,1,0,2,0a1,1,0,1,0,-2,0zM606,578a1,1,0,1,0,2,0a1,1,0,1,0,-2,0zM608,578a1,1,0,1,0,2,0a1,1,0,1,0,-2,0zM609,576a1,1,0,1,0,2,0a1,1,0,1,0,-2,0zM611,575a1,1,0,1,0,2,0a1,1,0,1,0,-2,0zM613,575a1,1,0,1,0,2,0a1,1,0,1,0,-2,0zM615,574a1,1,0,1,0,2,0a1,1,0,1,0,-2,0zM616,572a1,1,0,1,0,2,0a1,1,0,1,0,-2,0zM618,572a1,1,0,1,0,2,0a1,1,0,1,0,-2,0zM620,570a1,1,0,1,0,2,0a1,1,0,1,0,-2,0zM622,572a1,1,0,1,0,2,0a1,1,0,1,0,-2,0zM623,569a1,1,0,1,0,2,0a1,1,0,1,0,-2,0zM625,567a1,1,0,1,0,2,0a1,1,0,1,0,-2,0zM627,567a1,1,0,1,0,2,0a1,1,0,1,0,-2,0zM629,567a1,1,0,1,0,2,0a1,1,0,1,0,-2,0zM630,566a1,1,0,1,0,2,0a1,1,0,1,0,-2,0zM632,566a1,1,0,1,0,2,0a1,1,0,1,0,-2,0zM634,569a1,1,0,1,0,2,0a1,1,0,1,0,-2,0zM636,569a1,1,0,1,0,2,0a1,1,0,1,0,-2,0zM637,571a1,1,0,1,0,2,0a1,1,0,1,0,-2,0zM639,570a1,1,0,1,0,2,0a1,1,0,1,0,-2,0zM641,573a1,1,0,1,0,2,0a1,1,0,1,0,-2,0zM643,574a1,1,0,1,0,2,0a1,1,0,1,0,-2,0zM644,574a1,1,0,1,0,2,0a1,1,0,1,0,-2,0zM646,579a1,1,0,1,0,2,0a1,1,0,1,0,-2,0zM648,577a1,1,0,1,0,2,0a1,1,0,1,0,-2,0zM650,576a1,1,0,1,0,2,0a1,1,0,1,0,-2,0zM651,574a1,1,0,1,0,2,0a1,1,0,1,0,-2,0zM653,572a1,1,0,1,0,2,0a1,1,0,1,0,-2,0zM655,575a1,1,0,1,0,2,0a1,1,0,1,0,-2,0zM657,574a1,1,0,1,0,2,0a1,1,0,1,0,-2,0zM658,573a1,1,0,1,0,2,0a1,1,0,1,0,-2,0zM660,572a1,1,0,1,0,2,0a1,1,0,1,0,-2,0zM662,573a1,1,0,1,0,2,0a1,1,0,1,0,-2,0zM664,572a1,1,0,1,0,2,0a1,1,0,1,0,-2,0zM665,570a1,1,0,1,0,2,0a1,1,0,1,0,-2,0zM667,569a1,1,0,1,0,2,0a1,1,0,1,0,-2,0zM669,568a1,1,0,1,0,2,0a1,1,0,1,0,-2,0zM671,569a1,1,0,1,0,2,0a1,1,0,1,0,-2,0zM672,566a1,1,0,1,0,2,0a1,1,0,1,0,-2,0zM674,569a1,1,0,1,0,2,0a1,1,0,1,0,-2,0zM676,566a1,1,0,1,0,2,0a1,1,0,1,0,-2,0zM678,564a1,1,0,1,0,2,0a1,1,0,1,0,-2,0zM679,564a1,1,0,1,0,2,0a1,1,0,1,0,-2,0zM681,566a1,1,0,1,0,2,0a1,1,0,1,0,-2,0zM683,564a1,1,0,1,0,2,0a1,1,0,1,0,-2,0zM685,567a1,1,0,1,0,2,0a1,1,0,1,0,-2,0zM686,568a1,1,0,1,0,2,0a1,1,0,1,0,-2,0zM688,571a1,1,0,1,0,2,0a1,1,0,1,0,-2,0zM690,571a1,1,0,1,0,2,0a1,1,0,1,0,-2,0zM692,570a1,1,0,1,0,2,0a1,1,0,1,0,-2,0zM693,568a1,1,0,1,0,2,0a1,1,0,1,0,-2,0zM695,569a1,1,0,1,0,2,0a1,1,0,1,0,-2,0zM697,568a1,1,0,1,0,2,0a1,1,0,1,0,-2,0zM699,569a1,1,0,1,0,2,0a1,1,0,1,0,-2,0zM700,568a1,1,0,1,0,2,0a1,1,0,1,0,-2,0zM702,570a1,1,0,1,0,2,0a1,1,0,1,0,-2,0zM704,567a1,1,0,1,0,2,0a1,1,0,1,0,-2,0zM706,569a1,1,0,1,0,2,0a1,1,0,1,0,-2,0zM707,569a1,1,0,1,0,2,0a1,1,0,1,0,-2,0zM709,571a1,1,0,1,0,2,0a1,1,0,1,0,-2,0zM711,573a1,1,0,1,0,2,0a1,1,0,1,0,-2,0zM713,573a1,1,0,1,0,2,0a1,1,0,1,0,-2,0zM714,573a1,1,0,1,0,2,0a1,1,0,1,0,-2,0zM716,574a1,1,0,1,0,2,0a1,1,0,1,0,-2,0zM718,575a1,1,0,1,0,2,0a1,1,0,1,0,-2,0zM720,578a1,1,0,1,0,2,0a1,1,0,1,0,-2,0zM721,578a1,1,0,1,0,2,0a1,1,0,1,0,-2,0zM723,579a1,1,0,1,0,2,0a1,1,0,1,0,-2,0zM725,580a1,1,0,1,0,2,0a1,1,0,1,0,-2,0zM727,583a1,1,0,1,0,2,0a1,1,0,1,0,-2,0zM728,582a1,1,0,1,0,2,0a1,1,0,1,0,-2,0zM730,585a1,1,0,1,0,2,0a1,1,0,1,0,-2,0zM732,585a1,1,0,1,0,2,0a1,1,0,1,0,-2,0zM734,584a1,1,0,1,0,2,0a1,1,0,1,0,-2,0zM735,583a1,1,0,1,0,2,0a1,1,0,1,0,-2,0zM737,579a1,1,0,1,0,2,0a1,1,0,1,0,-2,0zM739,577a1,1,0,1,0,2,0a1,1,0,1,0,-2,0zM741,580a1,1,0,1,0,2,0a1,1,0,1,0,-2,0zM742,579a1,1,0,1,0,2,0a1,1,0,1,0,-2,0zM744,579a1,1,0,1,0,2,0a1,1,0,1,0,-2,0zM746,579a1,1,0,1,0,2,0a1,1,0,1,0,-2,0zM748,580a1,1,0,1,0,2,0a1,1,0,1,0,-2,0zM749,580a1,1,0,1,0,2,0a1,1,0,1,0,-2,0zM751,580a1,1,0,1,0,2,0a1,1,0,1,0,-2,0zM753,577a1,1,0,1,0,2,0a1,1,0,1,0,-2,0zM755,577a1,1,0,1,0,2,0a1,1,0,1,0,-2,0zM756,578a1,1,0,1,0,2,0a1,1,0,1,0,-2,0zM758,578a1,1,0,1,0,2,0a1,1,0,1,0,-2,0zM760,575a1,1,0,1,0,2,0a1,1,0,1,0,-2,0zM762,575a1,1,0,1,0,2,0a1,1,0,1,0,-2,0zM763,573a1,1,0,1,0,2,0a1,1,0,1,0,-2,0zM765,570a1,1,0,1,0,2,0a1,1,0,1,0,-2,0zM767,568a1,1,0,1,0,2,0a1,1,0,1,0,-2,0zM769,564a1,1,0,1,0,2,0a1,1,0,1,0,-2,0zM770,564a1,1,0,1,0,2,0a1,1,0,1,0,-2,0zM772,564a1,1,0,1,0,2,0a1,1,0,1,0,-2,0zM774,561a1,1,0,1,0,2,0a1,1,0,1,0,-2,0zM776,560a1,1,0,1,0,2,0a1,1,0,1,0,-2,0zM777,562a1,1,0,1,0,2,0a1,1,0,1,0,-2,0zM779,564a1,1,0,1,0,2,0a1,1,0,1,0,-2,0zM781,561a1,1,0,1,0,2,0a1,1,0,1,0,-2,0zM783,560a1,1,0,1,0,2,0a1,1,0,1,0,-2,0zM784,562a1,1,0,1,0,2,0a1,1,0,1,0,-2,0zM786,559a1,1,0,1,0,2,0a1,1,0,1,0,-2,0zM788,560a1,1,0,1,0,2,0a1,1,0,1,0,-2,0zM790,558a1,1,0,1,0,2,0a1,1,0,1,0,-2,0zM791,558a1,1,0,1,0,2,0a1,1,0,1,0,-2,0zM793,558a1,1,0,1,0,2,0a1,1,0,1,0,-2,0zM795,562a1,1,0,1,0,2,0a1,1,0,1,0,-2,0zM797,559a1,1,0,1,0,2,0a1,1,0,1,0,-2,0zM798,560a1,1,0,1,0,2,0a1,1,0,1,0,-2,0zM800,559a1,1,0,1,0,2,0a1,1,0,1,0,-2,0zM802,557a1,1,0,1,0,2,0a1,1,0,1,0,-2,0zM804,558a1,1,0,1,0,2,0a1,1,0,1,0,-2,0zM805,558a1,1,0,1,0,2,0a1,1,0,1,0,-2,0zM807,560a1,1,0,1,0,2,0a1,1,0,1,0,-2,0zM809,563a1,1,0,1,0,2,0a1,1,0,1,0,-2,0zM811,564a1,1,0,1,0,2,0a1,1,0,1,0,-2,0zM812,566a1,1,0,1,0,2,0a1,1,0,1,0,-2,0zM814,567a1,1,0,1,0,2,0a1,1,0,1,0,-2,0zM816,566a1,1,0,1,0,2,0a1,1,0,1,0,-2,0zM818,565a1,1,0,1,0,2,0a1,1,0,1,0,-2,0zM819,565a1,1,0,1,0,2,0a1,1,0,1,0,-2,0zM821,564a1,1,0,1,0,2,0a1,1,0,1,0,-2,0zM823,565a1,1,0,1,0,2,0a1,1,0,1,0,-2,0zM825,567a1,1,0,1,0,2,0a1,1,0,1,0,-2,0zM826,571a1,1,0,1,0,2,0a1,1,0,1,0,-2,0zM828,571a1,1,0,1,0,2,0a1,1,0,1,0,-2,0zM830,567a1,1,0,1,0,2,0a1,1,0,1,0,-2,0zM832,572a1,1,0,1,0,2,0a1,1,0,1,0,-2,0zM833,574a1,1,0,1,0,2,0a1,1,0,1,0,-2,0zM835,572a1,1,0,1,0,2,0a1,1,0,1,0,-2,0zM837,571a1,1,0,1,0,2,0a1,1,0,1,0,-2,0zM838,572a1,1,0,1,0,2,0a1,1,0,1,0,-2,0zM840,572a1,1,0,1,0,2,0a1,1,0,1,0,-2,0zM842,573a1,1,0,1,0,2,0a1,1,0,1,0,-2,0zM844,576a1,1,0,1,0,2,0a1,1,0,1,0,-2,0zM845,575a1,1,0,1,0,2,0a1,1,0,1,0,-2,0zM847,572a1,1,0,1,0,2,0a1,1,0,1,0,-2,0zM849,572a1,1,0,1,0,2,0a1,1,0,1,0,-2,0zM851,569a1,1,0,1,0,2,0a1,1,0,1,0,-2,0zM852,570a1,1,0,1,0,2,0a1,1,0,1,0,-2,0zM854,573a1,1,0,1,0,2,0a1,1,0,1,0,-2,0zM856,575a1,1,0,1,0,2,0a1,1,0,1,0,-2,0zM858,577a1,1,0,1,0,2,0a1,1,0,1,0,-2,0zM859,577a1,1,0,1,0,2,0a1,1,0,1,0,-2,0zM861,578a1,1,0,1,0,2,0a1,1,0,1,0,-2,0zM863,577a1,1,0,1,0,2,0a1,1,0,1,0,-2,0zM865,578a1,1,0,1,0,2,0a1,1,0,1,0,-2,0zM866,577a1,1,0,1,0,2,0a1,1,0,1,0,-2,0zM868,579a1,1,0,1,0,2,0a1,1,0,1,0,-2,0zM870,580a1,1,0,1,0,2,0a1,1,0,1,0,-2,0zM872,580a1,1,0,1,0,2,0a1,1,0,1,0,-2,0z" style="stroke: #000000; fill: #000000;"></path></g></svg><g><g transform="translate(0,640)"><path d="M0,0h960M0,-19V0M17,-10V0M35,-10V0M52,-10V0M70,-10V0M87,-19V0M105,-10V0M122,-10V0M140,-10V0M157,-10V0M175,-19V0M192,-10V0M210,-10V0M227,-10V0M245,-10V0M262,-19V0M280,-10V0M297,-10V0M315,-10V0M332,-10V0M350,-19V0M367,-10V0M385,-10V0M402,-10V0M420,-10V0M437,-19V0M455,-10V0M472,-10V0M490,-10V0M507,-10V0M525,-19V0M542,-10V0M560,-10V0M577,-10V0M595,-10V0M612,-19V0M630,-10V0M647,-10V0M665,-10V0M682,-10V0M700,-19V0M717,-10V0M735,-10V0M752,-10V0M770,-10V0M787,-19V0M805,-10V0M822,-10V0M839,-10V0M857,-10V0M874,-19V0M892,-10V0M909,-10V0M927,-10V0M944,-10V0" style="stroke: #000000; stroke-width: 1;"></path><g font-family="Arial" font-size="28" space="preserve" fill="#000000" text-anchor="middle"><text dy=".8em" transform="translate(0,5)">0</text><text dy=".8em" transform="translate(87,5)">50</text><text dy=".8em" transform="translate(175,5)">100</text><text dy=".8em" transform="translate(262,5)">150</text><text dy=".8em" transform="translate(350,5)">200</text><text dy=".8em" transform="translate(437,5)">250</text><text dy=".8em" transform="translate(525,5)">300</text><text dy=".8em" transform="translate(612,5)">350</text><text dy=".8em" transform="translate(700,5)">400</text><text dy=".8em" transform="translate(787,5)">450</text><text dy=".8em" transform="translate(874,5)">500</text></g></g><g><path d="M0,0v640M15,633H0M15,621H0M15,608H0M15,596H0M29,583H0M15,571H0M15,558H0M15,546H0M15,533H0M29,521H0M15,509H0M15,496H0M15,484H0M15,471H0M29,459H0M15,446H0M15,434H0M15,421H0M15,409H0M29,396H0M15,384H0M15,371H0M15,359H0M15,346H0M29,334H0M15,321H0M15,309H0M15,297H0M15,284H0M29,272H0M15,259H0M15,247H0M15,234H0M15,222H0M29,209H0M15,197H0M15,184H0M15,172H0M15,159H0M29,147H0M15,134H0M15,122H0M15,110H0M15,97H0M29,85H0M15,72H0M15,60H0M15,47H0M15,35H0M29,22H0M15,10H0" style="stroke: #000000; stroke-width: 1;"></path><g font-family="Arial" font-size="28" space="preserve" fill="#000000" text-anchor="end"><text dy=".4em" transform="translate(-6,583)">0.1</text><text dy=".4em" transform="translate(-6,521)">0.2</text><text dy=".4em" transform="translate(-6,459)">0.3</text><text dy=".4em" transform="translate(-6,396)">0.4</text><text dy=".4em" transform="translate(-6,334)">0.5</text><text dy=".4em" transform="translate(-6,272)">0.6</text><text dy=".4em" transform="translate(-6,209)">0.7</text><text dy=".4em" transform="translate(-6,147)">0.8</text><text dy=".4em" transform="translate(-6,85)">0.9</text><text dy=".4em" transform="translate(-6,22)">1</text></g></g></g></g><g transform="translate(120,4)" font-family="Arial" font-size="40" space="preserve"><text fill="#000000" text-anchor="middle" dy=".8em" transform="translate(480)">Graph</text></g><svg viewBox="0 0 840 480" preserveAspectRatio="none" x="360" y="0" width="840" height="480"><path d="M0,0H840V480H0Z" style="fill: #ccccff;"></path><g><g font-family="Arial" font-size="24" space="preserve" font-weight="bold"><text fill="#000000" text-anchor="middle" dy=".4em" transform="translate(420,240)">please move the mouse over the graPad</text></g></g></svg></g></svg>