<svg xmlns="http://www.w3.org/2000/svg" viewBox="0 0 1200 800" preserveAspectRatio="none" width="1200" height="800"><path d="M0,0H1200V800H0Z" style="fill: #ffffff;"></path><g><g transform="translate(120,80)"><path d="M0,0H960V640H0Z" style="fill: #ffffff; stroke: #000000; stroke-width: 1;"></path><svg x="0" y="0" overflow="hidden" width="960" height="640" viewBox="0 0 960 640"><g><path fill="#263da8" d="M77,192h19v13h-19zm57,141h20v13h-20zm20,13h19v12h-19zm0,64h19v12h-19zM173,269h19v25h-19zm0,38h19v39h-19zm0,51h19v26h-19zM192,256h19v13h-19zm0,26h19v12h-19zm0,25h19v39h-19zm0,51h19v26h-19zm0,52h19v12h-19zM211,154h19v12h-19zm0,76h19v77h-19zm0,90h19v51h-19zm0,90h19v25h-19zM230,51h20v13h-20zm0,205h20v154h-20zm20,-51h19v64h-19zm0,77h19v25h-19zm0,38h19v13h-19zm0,64h19v13h-19zm0,26h19v51h-19zM269,166h19v52h-19zm0,64h19v26h-19zm0,167h19v13h-19zm0,25h19v13h-19zm0,26h19v13h-19zm0,26h19v25h-19zM288,141h19v13h-19zm0,38h19v51h-19zm0,77h19v13h-19zm0,141h19v13h-19zm0,25h19v13h-19zm0,52h19v12h-19zm0,25h19v13h-19zM307,102h19v26h-19zm0,52h19v51h-19zm0,64h19v12h-19zm0,192h19v38h-19zm0,51h19v13h-19zm0,38h19v13h-19zM326,128h20v26h-20zm0,38h20v13h-20zm0,39h20v13h-20zm0,230h20v39h-20zm0,51h20v13h-20zM346,141h19v13h-19zm0,25h19v13h-19zm0,282h19v26h-19zm0,38h19v13h-19zm0,64h19v13h-19zM365,102h19v26h-19zm0,90h19v13h-19zm0,256h19v64h-19zm0,77h19v13h-19zM384,90h19v12h-19zm0,64h19v38h-19zm0,307h19v38h-19zM403,102h19v13h-19zm0,26h19v38h-19zm0,358h19v13h-19zM422,102h20v52h-20zm0,359h20v51h-20zM442,128h19v13h-19zm0,333h19v89h-19zM461,102h19v13h-19zm0,26h19v13h-19zm0,26h19v25h-19zm0,320h19v25h-19zM480,90h19v25h-19zm0,38h19v13h-19zm0,26h19v12h-19zm0,320h19v25h-19zM499,141h19v25h-19zm0,320h19v38h-19zM518,102h20v26h-20zm0,39h20v25h-20zm0,307h20v26h-20zm0,38h20v13h-20zm0,64h20v13h-20zM538,102h19v13h-19zm0,39h19v25h-19zm0,38h19v13h-19zm0,282h19v64h-19zM557,77h19v13h-19zm0,25h19v13h-19zm0,26h19v13h-19zm0,26h19v12h-19zm0,25h19v13h-19zm0,256h19v13h-19zm0,26h19v25h-19zM576,128h19v13h-19zm0,26h19v12h-19zm0,307h19v13h-19zm0,77h19v12h-19zM595,128h19v13h-19zm0,38h19v26h-19zm0,308h19v25h-19zm0,51h19v13h-19zm19,-90h20v26h-20zM634,128h19v13h-19zm0,51h19v13h-19zm0,26h19v13h-19zm0,230h19v51h-19zM653,166h19v52h-19zm0,90h19v13h-19zm0,141h19v51h-19zm0,77h19v25h-19zM672,179h19v26h-19zm0,39h19v12h-19zm0,102h19v13h-19zm0,64h19v13h-19zm0,26h19v51h-19zm0,102h19v13h-19zM691,128h19v13h-19zm0,38h19v13h-19zm0,26h19v64h-19zm0,115h19v13h-19zm0,26h19v77h-19zm0,89h19v13h-19zM710,154h20v12h-20zm0,38h20v13h-20zm0,38h20v52h-20zm0,77h20v39h-20zm0,51h20v39h-20zm0,52h20v25h-20zM730,179h19v13h-19zm0,39h19v76h-19zm0,89h19v26h-19zm0,39h19v12h-19zm0,25h19v39h-19zm0,64h19v26h-19zM749,230h19v26h-19zm0,52h19v12h-19zm0,38h19v13h-19zm0,26h19v12h-19zm0,25h19v13h-19zm0,39h19v12h-19zm0,102h19v13h-19zM768,294h19v13h-19zm0,39h19v25h-19zm0,64h19v13h-19zM787,269h19v13h-19zm0,25h19v13h-19zm0,26h19v13h-19zm0,128h19v13h-19zM806,243h20v13h-20zm0,90h20v13h-20zm0,38h20v13h-20zm20,-38h19v13h-19zM883,205h19v13h-19z"></path><path fill="#1652cc" d="M250,269h19v13h-19zm0,38h19v13h-19zm0,26h19v51h-19zm19,-77h19v38h-19zm0,102h19v13h-19zm0,26h19v13h-19zm0,26h19v12h-19zM288,230h19v13h-19zm0,128h19v13h-19zm0,52h19v12h-19zm0,25h19v13h-19zM307,205h19v13h-19zm0,25h19v26h-19zm0,154h19v26h-19zm0,64h19v13h-19zM326,179h20v26h-20zm0,243h20v13h-20zM346,179h19v26h-19zm0,256h19v13h-19zM365,166h19v26h-19zm0,39h19v13h-19zm0,205h19v12h-19zm0,25h19v13h-19zm19,13h19v13h-19zM403,179h19v13h-19zm0,26h19v13h-19zm0,230h19v51h-19zM422,154h20v38h-20zm20,0h19v25h-19zm19,307h19v13h-19zM480,179h19v13h-19zm0,269h19v26h-19zM499,166h19v13h-19zm0,282h19v13h-19zM518,166h20v26h-20zm20,0h19v13h-19zm0,39h19v13h-19zm0,230h19v26h-19zM557,166h19v13h-19zm19,0h19v13h-19zm0,26h19v13h-19zm0,230h19v39h-19zM595,192h19v13h-19zm0,218h19v38h-19zm0,51h19v13h-19zM614,192h20v26h-20zm0,64h20v13h-20zm0,166h20v13h-20zM634,192h19v13h-19zm0,26h19v25h-19zm0,38h19v13h-19zm0,128h19v13h-19zm0,26h19v25h-19zM653,218h19v25h-19zm0,64h19v12h-19zm0,76h19v13h-19zM672,230h19v39h-19zm0,52h19v25h-19zm0,64h19v38h-19zm0,51h19v13h-19zM691,256h19v13h-19zm0,26h19v25h-19zm0,38h19v13h-19zm0,90h19v12h-19zM710,282h20v25h-20zm0,64h20v12h-20zm20,-13h19v13h-19zm19,-39h19v13h-19z"></path><path fill="#1063db" d="M269,294h19v39h-19zm0,52h19v12h-19zm0,25h19v13h-19zM288,243h19v13h-19zm0,26h19v38h-19zm0,51h19v38h-19zm0,51h19v26h-19zm19,-13h19v13h-19zM326,218h20v25h-20zm0,102h20v13h-20zm0,64h20v38h-20zM346,218h19v12h-19zm0,192h19v25h-19zM365,218h19v12h-19zm0,204h19v13h-19zM384,192h19v13h-19zm0,230h19v26h-19zM403,166h19v13h-19zm0,26h19v13h-19zm19,0h20v13h-20zm0,243h20v26h-20zM442,179h19v13h-19zm0,256h19v26h-19zM461,192h19v26h-19zm0,243h19v26h-19zM480,166h19v13h-19zm0,269h19v13h-19zM499,179h19v26h-19zm39,13h19v13h-19zm0,230h19v13h-19zM557,192h19v26h-19zm0,230h19v13h-19zm0,26h19v13h-19zM576,179h19v13h-19zm0,26h19v13h-19zm19,0h19v25h-19zm0,243h19v13h-19zM614,218h20v38h-20zm0,179h20v25h-20zM634,243h19v13h-19zm0,26h19v25h-19zm0,38h19v13h-19zm0,90h19v13h-19zM653,243h19v13h-19zm0,51h19v13h-19zm0,39h19v25h-19zm0,51h19v13h-19zM672,269h19v13h-19zm0,38h19v13h-19zm0,26h19v13h-19zm19,-64h19v13h-19z"></path><path fill="#1171d8" d="M269,333h19v13h-19zm19,-26h19v13h-19zm19,-51h19v38h-19zm0,51h19v26h-19zm0,64h19v13h-19zm19,-64h20v13h-20zM346,205h19v13h-19zm19,25h19v13h-19zm19,-25h19v13h-19zm0,205h19v12h-19zm19,12h19v13h-19zM442,192h19v26h-19zm0,230h19v13h-19zM461,179h19v13h-19zm19,13h19v26h-19zm19,13h19v13h-19zm0,230h19v13h-19zM518,192h20v26h-20zm0,243h20v13h-20zM576,218h19v12h-19zm0,25h19v13h-19zm0,167h19v12h-19zM614,269h20v13h-20zm0,115h20v13h-20zm20,-64h19v13h-19zm0,26h19v38h-19zm19,-77h19v13h-19zm0,38h19v26h-19zm0,64h19v13h-19z"></path><path fill="#1380d5" d="M307,333h19v25h-19zm19,-77h20v13h-20zm0,77h20v13h-20zm0,25h20v26h-20zM346,230h19v26h-19zm0,141h19v39h-19zM365,243h19v13h-19zm19,-25h19v12h-19zm0,25h19v26h-19zm0,154h19v13h-19zM403,218h19v12h-19zm0,192h19v12h-19zM422,205h20v25h-20zm0,205h20v12h-20zm20,0h19v12h-19zm19,12h19v13h-19zm19,0h19v13h-19zM499,218h19v12h-19zm0,204h19v13h-19zm19,-25h20v13h-20zm0,25h20v13h-20zm20,-12h19v12h-19zm19,0h19v12h-19zM576,230h19v13h-19zm0,167h19v13h-19zM595,230h19v13h-19zm0,26h19v13h-19zm0,115h19v13h-19zm0,26h19v13h-19zm19,-90h20v13h-20zm0,39h20v12h-20zm0,25h20v13h-20zm20,-77h19v13h-19zm0,39h19v13h-19z"></path><path fill="#0e8ed0" d="M326,269h20v13h-20zm20,25h19v13h-19zm0,26h19v13h-19zm0,38h19v13h-19zM384,230h19v13h-19zm0,154h19v13h-19zM403,243h19v13h-19zm0,154h19v13h-19zm19,25h20v13h-20zM442,218h19v12h-19zm0,179h19v13h-19zM480,218h19v25h-19zm19,192h19v12h-19zM557,218h19v12h-19zm38,76h19v13h-19zm19,-12h20v25h-20z"></path><path fill="#089dcc" d="M307,294h19v13h-19zm19,-51h20v13h-20zm0,39h20v25h-20zm0,64h20v12h-20zm20,-90h19v38h-19zm0,77h19v25h-19zm19,-77h19v13h-19zm0,90h19v38h-19zm0,51h19v13h-19zm38,-13h19v13h-19zM422,230h20v26h-20zm0,154h20v13h-20zM461,218h19v25h-19zm19,179h19v25h-19zM518,218h20v12h-20zm20,25h19v13h-19zm0,154h19v13h-19zm19,0h19v13h-19zM576,256h19v13h-19zm0,128h19v13h-19zM595,243h19v13h-19zm0,115h19v13h-19zm0,26h19v13h-19zm19,-26h20v13h-20z"></path><path fill="#0da7c2" d="M365,269h19v25h-19zm0,51h19v13h-19zm0,64h19v13h-19zM480,243h19v13h-19zm38,167h20v12h-20zM538,218h19v12h-19zm19,12h19v13h-19zm0,141h19v13h-19zM576,269h19v25h-19zm0,102h19v13h-19zM595,269h19v25h-19zm0,51h19v13h-19zm0,26h19v12h-19zm19,-26h20v13h-20z"></path><path fill="#1dafb3" d="M365,333h19v13h-19zm19,-64h19v38h-19zm19,-39h19v13h-19zm19,167h20v13h-20zM442,230h19v13h-19zm19,167h19v25h-19zM499,230h19v13h-19zm0,154h19v26h-19zM518,230h20v13h-20zm0,154h20v13h-20zm20,0h19v13h-19zM557,243h19v26h-19zm0,141h19v13h-19zm19,-26h19v13h-19zm38,-25h20v13h-20z"></path><path fill="#2db7a3" d="M346,307h19v13h-19zm38,64h19v13h-19zM461,243h19v13h-19zm0,128h19v13h-19zM499,243h19v13h-19zm39,13h19v13h-19zm0,115h19v13h-19zm38,-77h19v13h-19zm0,26h19v26h-19zm19,-13h19v13h-19zm0,26h19v13h-19z"></path><path fill="#52ba91" d="M384,346h19v12h-19zm38,-90h20v13h-20zm0,102h20v26h-20zm20,13h19v13h-19zM461,269h19v13h-19zm0,115h19v13h-19zm19,-13h19v13h-19zm19,-25h19v12h-19zm19,-77h20v13h-20zm0,102h20v13h-20zM538,230h19v13h-19zm0,39h19v25h-19zm19,0h19v51h-19zm0,77h19v12h-19zm19,-39h19v13h-19zm0,39h19v12h-19z"></path><path fill="#73bd80" d="M365,307h19v13h-19zm19,0h19v13h-19zm19,-38h19v25h-19zm0,89h19v13h-19zm39,26h19v13h-19zm38,0h19v13h-19zM518,243h20v26h-20zm20,103h19v25h-19zm19,-13h19v13h-19z"></path><path fill="#94be71" d="M365,294h19v13h-19zm19,64h19v13h-19zM403,256h19v13h-19zm0,51h19v13h-19zm0,39h19v12h-19zm0,25h19v13h-19zM442,243h19v13h-19zm0,103h19v25h-19zm38,-77h19v13h-19zm0,89h19v13h-19zm19,-89h19v13h-19zm0,102h19v13h-19zm39,-77h19v13h-19zm19,26h19v13h-19zm0,38h19v13h-19z"></path><path fill="#b2bc65" d="M384,320h19v13h-19zm19,13h19v13h-19zm19,13h20v12h-20zm20,-90h19v13h-19zm38,0h19v13h-19zm19,0h19v13h-19zm19,90h20v12h-20zm20,-39h19v13h-19z"></path><path fill="#d0ba59" d="M384,333h19v13h-19zm38,-51h20v12h-20zm0,25h20v26h-20zm20,-38h19v13h-19zm57,64h19v13h-19zm0,25h19v13h-19zm19,-76h20v12h-20zm0,51h20v13h-20zm0,25h20v13h-20zm20,-38h19v13h-19z"></path><path fill="#e1bf4a" d="M442,282h19v25h-19zm38,12h19v13h-19zm38,13h20v26h-20z"></path><path fill="#f4c53a" d="M422,269h20v13h-20zm0,25h20v13h-20zm39,-12h19v12h-19zm0,76h19v13h-19zm19,-25h19v13h-19zm19,-39h19v13h-19zm19,0h20v13h-20zm20,39h19v13h-19z"></path><path fill="#fcd12b" d="M422,333h20v13h-20zm20,-13h19v13h-19zm19,-64h19v13h-19zm0,38h19v13h-19zm0,52h19v12h-19zm19,-64h19v12h-19zm0,25h19v13h-19z"></path><path fill="#fae61c" d="M403,294h19v13h-19zm0,26h19v13h-19zm39,-13h19v13h-19zm0,26h19v13h-19zm19,-13h19v26h-19zm19,26h19v12h-19zm19,-64h19v12h-19zm0,38h19v13h-19z"></path><path fill="#f9f90e" d="M461,307h19v13h-19zm19,13h19v13h-19zm19,-13h19v13h-19z"></path></g></svg><g><g transform="translate(0,640)"><path d="M0,0h960M0,-24V0M19,-12V0M38,-12V0M58,-12V0M77,-12V0M96,-24V0M115,-12V0M134,-12V0M154,-12V0M173,-12V0M192,-24V0M211,-12V0M230,-12V0M250,-12V0M269,-12V0M288,-24V0M307,-12V0M326,-12V0M346,-12V0M365,-12V0M384,-24V0M403,-12V0M422,-12V0M442,-12V0M461,-12V0M480,-24V0M499,-12V0M518,-12V0M538,-12V0M557,-12V0M576,-24V0M595,-12V0M614,-12V0M634,-12V0M653,-12V0M672,-24V0M691,-12V0M710,-12V0M730,-12V0M749,-12V0M768,-24V0M787,-12V0M806,-12V0M826,-12V0M845,-12V0M864,-24V0M883,-12V0M902,-12V0M922,-12V0M941,-12V0M960,-24V0" style="stroke: #000000; stroke-width: 1;"></path><g font-family="Arial" font-size="28" space="preserve" fill="#000000" text-anchor="middle"><text dy=".8em" transform="translate(0,5)">-5</text><text dy=".8em" transform="translate(96,5)">-4</text><text dy=".8em" transform="translate(192,5)">-3</text><text dy=".8em" transform="translate(288,5)">-2</text><text dy=".8em" transform="translate(384,5)">-1</text><text dy=".8em" transform="translate(480,5)">0</text><text dy=".8em" transform="translate(576,5)">1</text><text dy=".8em" transform="translate(672,5)">2</text><text dy=".8em" transform="translate(768,5)">3</text><text dy=".8em" transform="translate(864,5)">4</text><text dy=".8em" transform="translate(960,5)">5</text></g></g><g><path d="M0,0v640M36,640H0M18,627H0M18,614H0M18,602H0M18,589H0M36,576H0M18,563H0M18,550H0M18,538H0M18,525H0M36,512H0M18,499H0M18,486H0M18,474H0M18,461H0M36,448H0M18,435H0M18,422H0M18,410H0M18,397H0M36,384H0M18,371H0M18,358H0M18,346H0M18,333H0M36,320H0M18,307H0M18,294H0M18,282H0M18,269H0M36,256H0M18,243H0M18,230H0M18,218H0M18,205H0M36,192H0M18,179H0M18,166H0M18,154H0M18,141H0M36,128H0M18,115H0M18,102H0M18,90H0M18,77H0M36,64H0M18,51H0M18,38H0M18,26H0M18,13H0M36,0H0" style="stroke: #000000; stroke-width: 1;"></path><g font-family="Arial" font-size="28" space="preserve" fill="#000000" text-anchor="end"><text dy=".4em" transform="translate(-6,640)">-5</text><text dy=".4em" transform="translate(-6,576)">-4</text><text dy=".4em" transform="translate(-6,512)">-3</text><text dy=".4em" transform="translate(-6,448)">-2</text><text dy=".4em" transform="translate(-6,384)">-1</text><text dy=".4em" transform="translate(-6,320)">0</text><text dy=".4em" transform="translate(-6,256)">1</text><text dy=".4em" transform="translate(-6,192)">2</text><text dy=".4em" transform="translate(-6,128)">3</text><text dy=".4em" transform="translate(-6,64)">4</text><text dy=".4em" transform="translate(-6)">5</text></g></g></g></g><g transform="translate(936,52)" font-family="Arial" font-size="20" space="preserve" fill="#000000"><path d="M0,0H240V192H0Z" style="fill: #ffffff; stroke: #000000; stroke-width: 1;"></path><text text-anchor="middle" dy=".4em" transform="translate(120,16)">h2</text><text text-anchor="start" dy=".4em" transform="translate(12,48)">Entries </text><text text-anchor="end" dy=".4em" transform="translate(228,48)"> 10000</text><text text-anchor="start" dy=".4em" transform="translate(12,80)">Mean x </text><text text-anchor="end" dy=".4em" transform="translate(228,80)"> 0.007785</text><text text-anchor="start" dy=".4em" transform="translate(12,112)">Mean y </text><text text-anchor="end" dy=".4em" transform="translate(228,112)"> -1.487e-5</text><text text-anchor="start" dy=".4em" transform="translate(12,144)">Std Dev x </text><text text-anchor="end" dy=".4em" transform="translate(228,144)"> 0.9966</text><text text-anchor="start" dy=".4em" transform="translate(12,176)">Std Dev y </text><text text-anchor="end" dy=".4em" transform="translate(228,176)"> 0.9965</text><path d="M0,32h240" style="stroke: #000000; stroke-width: 1;"></path></g><g font-family="Arial" font-size="40" space="preserve" font-weight="bold"><text fill="#cc0000" text-anchor="middle" dy=".4em" transform="translate(600,656)">please move the mouse over the frame</text></g></g></svg>