<svg xmlns="http://www.w3.org/2000/svg" viewBox="0 0 1200 800" preserveAspectRatio="none" width="1200" height="800"><path d="M0,0H1200V800H0Z" style="fill: #ffffff;"></path><g><g transform="translate(120,80)"><path d="M0,0H960V600H0Z" style="fill: #ffffff; stroke: #000000; stroke-width: 1;"></path><svg x="0" y="0" overflow="hidden" width="960" height="600" viewBox="0 0 960 600"><g><path d="M0,573h48v-22h48v-44h48v-58h48v-53h48v-55h48v-128h48v-39h48v-110h48v-14h48v-21h48v41h48v67h48v43h48v129h48v63h48v94h48v40h48v31h48v30h48L960,603H0Z" style="stroke-linejoin: miter; stroke: #000099; stroke-width: 1; fill: #7c99d1;"></path></g></svg><g><g transform="translate(0,600)"><path d="M0,0h960M0,-19V0M48,-19V0M96,-19V0M144,-19V0M192,-19V0M240,-19V0M288,-19V0M336,-19V0M384,-19V0M432,-19V0M480,-19V0M528,-19V0M576,-19V0M624,-19V0M672,-19V0M720,-19V0M768,-19V0M816,-19V0M864,-19V0M912,-19V0M960,-10V0" style="stroke: #000000; stroke-width: 1;"></path><g font-family="Arial" font-size="18" space="preserve" fill="#000000" text-anchor="middle"><text dy=".8em" transform="translate(24,6) rotate(25)" style="text-anchor: start;">Jean</text><text dy=".8em" transform="translate(72,6) rotate(25)" style="text-anchor: start;">Pierre</text><text dy=".8em" transform="translate(120,6) rotate(25)" style="text-anchor: start;">Marie</text><text dy=".8em" transform="translate(168,6) rotate(25)" style="text-anchor: start;">Odile</text><text dy=".8em" transform="translate(216,6) rotate(25)" style="text-anchor: start;">Sebastien</text><text dy=".8em" transform="translate(264,6) rotate(25)" style="text-anchor: start;">Fons</text><text dy=".8em" transform="translate(312,6) rotate(25)" style="text-anchor: start;">Rene</text><text dy=".8em" transform="translate(360,6) rotate(25)" style="text-anchor: start;">Nicolas</text><text dy=".8em" transform="translate(408,6) rotate(25)" style="text-anchor: start;">Xavier</text><text dy=".8em" transform="translate(456,6) rotate(25)" style="text-anchor: start;">Greg</text><text dy=".8em" transform="translate(504,6) rotate(25)" style="text-anchor: start;">Bjarne</text><text dy=".8em" transform="translate(552,6) rotate(25)" style="text-anchor: start;">Anton</text><text dy=".8em" transform="translate(600,6) rotate(25)" style="text-anchor: start;">Otto</text><text dy=".8em" transform="translate(648,6) rotate(25)" style="text-anchor: start;">Eddy</text><text dy=".8em" transform="translate(696,6) rotate(25)" style="text-anchor: start;">Peter</text><text dy=".8em" transform="translate(744,6) rotate(25)" style="text-anchor: start;">Pasha</text><text dy=".8em" transform="translate(792,6) rotate(25)" style="text-anchor: start;">Philippe</text><text dy=".8em" transform="translate(840,6) rotate(25)" style="text-anchor: start;">Suzanne</text><text dy=".8em" transform="translate(888,6) rotate(25)" style="text-anchor: start;">Jeff</text><text dy=".8em" transform="translate(936,6) rotate(25)" style="text-anchor: start;">Valery</text></g></g><g><path d="M0,0v600M14,594H0M14,583H0M14,572H0M14,560H0M27,549H0M14,537H0M14,526H0M14,515H0M14,503H0M27,492H0M14,481H0M14,469H0M14,458H0M14,446H0M27,435H0M14,424H0M14,412H0M14,401H0M14,389H0M27,378H0M14,367H0M14,355H0M14,344H0M14,333H0M27,321H0M14,310H0M14,298H0M14,287H0M14,276H0M27,264H0M14,253H0M14,241H0M14,230H0M14,219H0M27,207H0M14,196H0M14,185H0M14,173H0M14,162H0M27,150H0M14,139H0M14,128H0M14,116H0M14,105H0M27,93H0M14,82H0M14,71H0M14,59H0M14,48H0M27,37H0M14,25H0M14,14H0M14,2H0" style="stroke: #000000; stroke-width: 1;"></path><g font-family="Arial" font-size="28" space="preserve" fill="#000000" text-anchor="end"><text dy=".4em" transform="translate(-6,549)">50</text><text dy=".4em" transform="translate(-6,492)">100</text><text dy=".4em" transform="translate(-6,435)">150</text><text dy=".4em" transform="translate(-6,378)">200</text><text dy=".4em" transform="translate(-6,321)">250</text><text dy=".4em" transform="translate(-6,264)">300</text><text dy=".4em" transform="translate(-6,207)">350</text><text dy=".4em" transform="translate(-6,150)">400</text><text dy=".4em" transform="translate(-6,93)">450</text><text dy=".4em" transform="translate(-6,37)">500</text></g></g><path d="M0,0v600M48,0v600M96,0v600M144,0v600M192,0v600M240,0v600M288,0v600M336,0v600M384,0v600M432,0v600M480,0v600M528,0v600M576,0v600M624,0v600M672,0v600M720,0v600M768,0v600M816,0v600M864,0v600M912,0v600M960,0v600" style="stroke: #000000; stroke-width: 1; stroke-dasharray: 1,2;"></path><path d="M0,549h960M0,492h960M0,435h960M0,378h960M0,321h960M0,264h960M0,207h960M0,150h960M0,93h960M0,37h960" style="stroke: #000000; stroke-width: 1; stroke-dasharray: 1,2;"></path></g></g><g transform="translate(120,4)" font-family="Arial" font-size="40" space="preserve"><text fill="#000000" text-anchor="middle" dy=".8em" transform="translate(480)">test</text></g><g transform="translate(720,16)" font-family="Arial" font-size="17" space="preserve" font-weight="bold" fill="#000000" text-anchor="start"><path d="M456,4h4v224h-456v-4h452z" style="fill: #000000; stroke: #000000; stroke-width: 1px;"></path><path d="M0,0H456V224H0Z" style="fill: #e5e5e5; stroke: #000000; stroke-width: 1;"></path><text dy=".4em" transform="translate(23,28)">Use the axis Context Menu LabelsOption</text><text dy=".4em" transform="translate(23,84)"> "a"   to sort by alphabetic order</text><text dy=".4em" transform="translate(23,140)"> "&gt;"   to sort by decreasing values</text><text dy=".4em" transform="translate(23,196)"> "&lt;"   to sort by increasing values</text></g></g></svg>