<svg xmlns="http://www.w3.org/2000/svg" viewBox="0 0 1200 800" preserveAspectRatio="none" width="1200" height="800"><path d="M0,0H1200V800H0Z" style="fill: #fefefe;"></path><g><svg viewBox="0 0 1116 320" preserveAspectRatio="none" x="84" y="0" width="1116" height="320"><path d="M0,0H1116V320H0Z" style="fill: #fefefe;"></path><g><g transform="translate(28,2)"><path d="M0,0H1083V318H0Z" style="fill: #fefefe; stroke: #000000; stroke-width: 1;"></path><svg x="0" y="0" overflow="hidden" width="1083" height="318" viewBox="0 0 1083 318"><g><g transform="translate(979,85)"><path style="stroke: #000000; stroke-width: 1; fill: none;" d="M0,0H-22m0,3v-6M0,0H22m0,3v-6M0,0V34m3,0h-6M0,0V-34m3,0h-6"></path></g><g transform="translate(839,109)"><path style="stroke: #000000; stroke-width: 1; fill: none;" d="M0,0H-30m0,3v-6M0,0H30m0,3v-6M0,0V33m3,0h-6M0,0V-33m3,0h-6"></path></g><g transform="translate(655,122)"><path style="stroke: #000000; stroke-width: 1; fill: none;" d="M0,0H-27m0,3v-6M0,0H27m0,3v-6M0,0V33m3,0h-6M0,0V-33m3,0h-6"></path></g><g transform="translate(461,132)"><path style="stroke: #000000; stroke-width: 1; fill: none;" d="M0,0H-25m0,3v-6M0,0H25m0,3v-6M0,0V34m3,0h-6M0,0V-34m3,0h-6"></path></g><g transform="translate(313,133)"><path style="stroke: #000000; stroke-width: 1; fill: none;" d="M0,0H-25m0,3v-6M0,0H25m0,3v-6M0,0V39m3,0h-6M0,0V-39m3,0h-6"></path></g><g transform="translate(200,137)"><path style="stroke: #000000; stroke-width: 1; fill: none;" d="M0,0H-22m0,3v-6M0,0H22m0,3v-6M0,0V46m3,0h-6M0,0V-46m3,0h-6"></path></g><path d="M979,77l-8,16h16zM839,101l-8,16h16zM655,114l-8,16h16zM461,124l-8,16h16zM313,125l-8,16h16zM200,129l-8,16h16z" style="stroke: #000000; fill: #000000;"></path></g><g><g transform="translate(969,44)"><path style="stroke: #000000; stroke-width: 1; fill: none;" d="M0,0H-28m0,3v-6M0,0H28m0,3v-6M0,0V25m3,0h-6M0,0V-25m3,0h-6"></path></g><g transform="translate(823,60)"><path style="stroke: #000000; stroke-width: 1; fill: none;" d="M0,0H-25m0,3v-6M0,0H25m0,3v-6M0,0V23m3,0h-6M0,0V-23m3,0h-6"></path></g><g transform="translate(697,75)"><path style="stroke: #000000; stroke-width: 1; fill: none;" d="M0,0H-22m0,3v-6M0,0H22m0,3v-6M0,0V22m3,0h-6M0,0V-22m3,0h-6"></path></g><g transform="translate(590,90)"><path style="stroke: #000000; stroke-width: 1; fill: none;" d="M0,0H-20m0,3v-6M0,0H20m0,3v-6M0,0V22m3,0h-6M0,0V-22m3,0h-6"></path></g><g transform="translate(496,102)"><path style="stroke: #000000; stroke-width: 1; fill: none;" d="M0,0H-18m0,3v-6M0,0H18m0,3v-6M0,0V23m3,0h-6M0,0V-23m3,0h-6"></path></g><g transform="translate(415,112)"><path style="stroke: #000000; stroke-width: 1; fill: none;" d="M0,0H-17m0,3v-6M0,0H17m0,3v-6M0,0V24m3,0h-6M0,0V-24m3,0h-6"></path></g><g transform="translate(343,122)"><path style="stroke: #000000; stroke-width: 1; fill: none;" d="M0,0H-15m0,3v-6M0,0H15m0,3v-6M0,0V25m3,0h-6M0,0V-25m3,0h-6"></path></g><g transform="translate(282,133)"><path style="stroke: #000000; stroke-width: 1; fill: none;" d="M0,0H-14m0,3v-6M0,0H14m0,3v-6M0,0V28m3,0h-6M0,0V-28m3,0h-6"></path></g><g transform="translate(228,142)"><path style="stroke: #000000; stroke-width: 1; fill: none;" d="M0,0H-13m0,3v-6M0,0H13m0,3v-6M0,0V30m3,0h-6M0,0V-30m3,0h-6"></path></g><g transform="translate(183,153)"><path style="stroke: #000000; stroke-width: 1; fill: none;" d="M0,0H-12m0,3v-6M0,0H12m0,3v-6M0,0V34m3,0h-6M0,0V-34m3,0h-6"></path></g><g transform="translate(144,170)"><path style="stroke: #000000; stroke-width: 1; fill: none;" d="M0,0H-11m0,3v-6M0,0H11m0,3v-6M0,0V38m3,0h-6M0,0V-38m3,0h-6"></path></g><g transform="translate(110,181)"><path style="stroke: #000000; stroke-width: 1; fill: none;" d="M0,0H-10m0,3v-6M0,0H10m0,3v-6M0,0V43m3,0h-6M0,0V-43m3,0h-6"></path></g><g transform="translate(83,193)"><path style="stroke: #000000; stroke-width: 1; fill: none;" d="M0,0H-10m0,3v-6M0,0H10m0,3v-6M0,0V49m3,0h-6M0,0V-49m3,0h-6"></path></g><g transform="translate(60,210)"><path style="stroke: #000000; stroke-width: 1; fill: none;" d="M0,0H-9m0,3v-6M0,0H9m0,3v-6M0,0V58m3,0h-6M0,0V-58m3,0h-6"></path></g><path d="M969,52l-8,-16h16zM823,68l-8,-16h16zM697,83l-8,-16h16zM590,98l-8,-16h16zM496,110l-8,-16h16zM415,120l-8,-16h16zM343,130l-8,-16h16zM282,141l-8,-16h16zM228,150l-8,-16h16zM183,161l-8,-16h16zM144,178l-8,-16h16zM110,189l-8,-16h16zM83,201l-8,-16h16zM60,218l-8,-16h16z" style="stroke: #000000; fill: #000000;"></path></g></svg><g><g transform="translate(0,318)"><path d="M0,0h1083M0,-10V0M55,-5V0M110,-5V0M165,-5V0M219,-5V0M274,-10V0M329,-5V0M384,-5V0M439,-5V0M494,-5V0M548,-10V0M603,-5V0M658,-5V0M713,-5V0M768,-5V0M823,-10V0M877,-5V0M932,-5V0M987,-5V0M1042,-5V0" style="stroke: #000000; stroke-width: 1;"></path><g font-family="Arial" font-size="11" space="preserve" fill="#000000" text-anchor="middle"><text dy=".8em" transform="translate(0,2)">0</text><text dy=".8em" transform="translate(274,2)">100</text><text dy=".8em" transform="translate(548,2)">200</text><text dy=".8em" transform="translate(823,2)">300</text></g></g><g><path d="M0,0v318M17,308H0M17,287H0M17,266H0M33,245H0M17,223H0M17,202H0M17,181H0M17,160H0M33,138H0M17,117H0M17,96H0M17,74H0M17,53H0M33,32H0M17,11H0" style="stroke: #000000; stroke-width: 1;"></path><g font-family="Arial" font-size="32" space="preserve" fill="#000000" text-anchor="end"><text dy=".4em" transform="translate(-2,245)">2</text><text dy=".4em" transform="translate(-2,138)">3</text><text dy=".4em" transform="translate(-2,32)">4</text></g></g></g></g></g></svg><svg viewBox="0 0 1116 464" preserveAspectRatio="none" x="84" y="320" width="1116" height="464"><path d="M0,0H1116V464H0Z" style="fill: #fefefe;"></path><g><g transform="translate(28,2)"><path d="M0,0H1083V322H0Z" style="fill: #fefefe; stroke: #000000; stroke-width: 1;"></path><svg x="0" y="0" overflow="hidden" width="1083" height="322" viewBox="0 0 1083 322"><g><g transform="translate(979,86)"><path style="stroke: #000000; stroke-width: 1; fill: none;" d="M0,0H-22m0,3v-6M0,0H22m0,3v-6M0,0V34m3,0h-6M0,0V-34m3,0h-6"></path></g><g transform="translate(839,110)"><path style="stroke: #000000; stroke-width: 1; fill: none;" d="M0,0H-30m0,3v-6M0,0H30m0,3v-6M0,0V33m3,0h-6M0,0V-33m3,0h-6"></path></g><g transform="translate(655,123)"><path style="stroke: #000000; stroke-width: 1; fill: none;" d="M0,0H-27m0,3v-6M0,0H27m0,3v-6M0,0V33m3,0h-6M0,0V-33m3,0h-6"></path></g><g transform="translate(461,134)"><path style="stroke: #000000; stroke-width: 1; fill: none;" d="M0,0H-25m0,3v-6M0,0H25m0,3v-6M0,0V34m3,0h-6M0,0V-34m3,0h-6"></path></g><g transform="translate(313,134)"><path style="stroke: #000000; stroke-width: 1; fill: none;" d="M0,0H-25m0,3v-6M0,0H25m0,3v-6M0,0V40m3,0h-6M0,0V-40m3,0h-6"></path></g><g transform="translate(200,138)"><path style="stroke: #000000; stroke-width: 1; fill: none;" d="M0,0H-22m0,3v-6M0,0H22m0,3v-6M0,0V46m3,0h-6M0,0V-46m3,0h-6"></path></g><path d="M979,94l-8,-16h16zM839,118l-8,-16h16zM655,131l-8,-16h16zM461,142l-8,-16h16zM313,142l-8,-16h16zM200,146l-8,-16h16z" style="stroke: #000000; fill: #000000;"></path></g><g><g transform="translate(969,44)"><path style="stroke: #000000; stroke-width: 1; fill: none;" d="M0,0H-28m0,3v-6M0,0H28m0,3v-6M0,0V25m3,0h-6M0,0V-25m3,0h-6"></path></g><g transform="translate(823,61)"><path style="stroke: #000000; stroke-width: 1; fill: none;" d="M0,0H-25m0,3v-6M0,0H25m0,3v-6M0,0V23m3,0h-6M0,0V-23m3,0h-6"></path></g><g transform="translate(697,76)"><path style="stroke: #000000; stroke-width: 1; fill: none;" d="M0,0H-22m0,3v-6M0,0H22m0,3v-6M0,0V23m3,0h-6M0,0V-23m3,0h-6"></path></g><g transform="translate(590,91)"><path style="stroke: #000000; stroke-width: 1; fill: none;" d="M0,0H-20m0,3v-6M0,0H20m0,3v-6M0,0V22m3,0h-6M0,0V-22m3,0h-6"></path></g><g transform="translate(496,103)"><path style="stroke: #000000; stroke-width: 1; fill: none;" d="M0,0H-18m0,3v-6M0,0H18m0,3v-6M0,0V23m3,0h-6M0,0V-23m3,0h-6"></path></g><g transform="translate(415,113)"><path style="stroke: #000000; stroke-width: 1; fill: none;" d="M0,0H-17m0,3v-6M0,0H17m0,3v-6M0,0V24m3,0h-6M0,0V-24m3,0h-6"></path></g><g transform="translate(343,124)"><path style="stroke: #000000; stroke-width: 1; fill: none;" d="M0,0H-15m0,3v-6M0,0H15m0,3v-6M0,0V26m3,0h-6M0,0V-26m3,0h-6"></path></g><g transform="translate(282,135)"><path style="stroke: #000000; stroke-width: 1; fill: none;" d="M0,0H-14m0,3v-6M0,0H14m0,3v-6M0,0V28m3,0h-6M0,0V-28m3,0h-6"></path></g><g transform="translate(228,144)"><path style="stroke: #000000; stroke-width: 1; fill: none;" d="M0,0H-13m0,3v-6M0,0H13m0,3v-6M0,0V30m3,0h-6M0,0V-30m3,0h-6"></path></g><g transform="translate(183,155)"><path style="stroke: #000000; stroke-width: 1; fill: none;" d="M0,0H-12m0,3v-6M0,0H12m0,3v-6M0,0V34m3,0h-6M0,0V-34m3,0h-6"></path></g><g transform="translate(144,172)"><path style="stroke: #000000; stroke-width: 1; fill: none;" d="M0,0H-11m0,3v-6M0,0H11m0,3v-6M0,0V38m3,0h-6M0,0V-38m3,0h-6"></path></g><g transform="translate(110,183)"><path style="stroke: #000000; stroke-width: 1; fill: none;" d="M0,0H-10m0,3v-6M0,0H10m0,3v-6M0,0V44m3,0h-6M0,0V-44m3,0h-6"></path></g><g transform="translate(83,195)"><path style="stroke: #000000; stroke-width: 1; fill: none;" d="M0,0H-10m0,3v-6M0,0H10m0,3v-6M0,0V50m3,0h-6M0,0V-50m3,0h-6"></path></g><g transform="translate(60,212)"><path style="stroke: #000000; stroke-width: 1; fill: none;" d="M0,0H-9m0,3v-6M0,0H9m0,3v-6M0,0V59m3,0h-6M0,0V-59m3,0h-6"></path></g><path d="M969,36l-8,16h16zM823,53l-8,16h16zM697,68l-8,16h16zM590,83l-8,16h16zM496,95l-8,16h16zM415,105l-8,16h16zM343,116l-8,16h16zM282,127l-8,16h16zM228,136l-8,16h16zM183,147l-8,16h16zM144,164l-8,16h16zM110,175l-8,16h16zM83,187l-8,16h16zM60,204l-8,16h16z" style="stroke: #000000; fill: #000000;"></path></g></svg><g><g transform="translate(0,322)"><path d="M0,0h1083M0,-14V0M55,-7V0M110,-7V0M165,-7V0M219,-7V0M274,-14V0M329,-7V0M384,-7V0M439,-7V0M494,-7V0M548,-14V0M603,-7V0M658,-7V0M713,-7V0M768,-7V0M823,-14V0M877,-7V0M932,-7V0M987,-7V0M1042,-7V0" style="stroke: #000000; stroke-width: 1;"></path><g font-family="Arial" font-size="32" space="preserve" fill="#000000" text-anchor="middle"><text dy=".8em" transform="translate(0,2)">0</text><text dy=".8em" transform="translate(274,2)">100</text><text dy=".8em" transform="translate(548,2)">200</text><text dy=".8em" transform="translate(823,2)">300</text></g></g><g><path d="M0,0v322M17,312H0M17,291H0M17,269H0M33,248H0M17,226H0M17,205H0M17,183H0M17,162H0M33,140H0M17,118H0M17,97H0M17,75H0M17,54H0M33,32H0M17,11H0" style="stroke: #000000; stroke-width: 1;"></path><g font-family="Arial" font-size="32" space="preserve" fill="#000000" text-anchor="end"><text dy=".4em" transform="translate(-3,248)">2</text><text dy=".4em" transform="translate(-3,140)">3</text><text dy=".4em" transform="translate(-3,32)">4</text></g></g></g></g><g font-family="Times New Roman" font-size="22" space="preserve" font-style="italic"><text fill="#000000" text-anchor="start" transform="translate(14,401)">Non-symmetric symbols should be used carefully in plotting.These two graphs show how misleading</text></g><g font-family="Times New Roman" font-size="22" space="preserve" font-style="italic"><text fill="#000000" text-anchor="start" transform="translate(14,423)">a careless use of symbols can be. The two plots represent the same data sets but because of a bad</text></g><g font-family="Times New Roman" font-size="22" space="preserve" font-style="italic"><text fill="#000000" text-anchor="start" transform="translate(14,445)">symbol choice, the two plots on the top appear further apart than for the bottom example.</text></g></g></svg></g></svg>