<svg xmlns="http://www.w3.org/2000/svg" viewBox="0 0 1200 800" preserveAspectRatio="none" width="1200" height="800"><path d="M0,0H1200V800H0Z" style="fill: #cccccc;"></path><g><svg viewBox="0 0 576 384" preserveAspectRatio="none" x="12" y="8" width="576" height="384"><path d="M0,0H576V384H0Z" style="fill: #cccccc;"></path><g><g transform="translate(58,38)"><path d="M0,0H461V307H0Z" style="fill: #f2f2f2; stroke: #000000; stroke-width: 1;"></path><svg x="0" y="0" overflow="hidden" width="461" height="307" viewBox="0 0 461 307"><g><path d="M3,307h4h5h4h5h5h4h5h4h5h5h4h5h5l4,-1h5h4h5l5,-1l4,-1l5,-1l4,-1l5,-2l5,-2l4,-2l5,-4l4,-4l5,-4l5,-6l4,-7l5,-8l5,-9l4,-10l5,-12l4,-13l5,-14l5,-16l4,-16l5,-17l4,-18l5,-17l5,-18l4,-17l5,-16l4,-15l5,-13l5,-10l4,-9l5,-5l5,-3h4l5,3l4,5l5,9l5,10l4,13l5,15l4,16l5,17l5,18l4,17l5,18l4,17l5,16l5,16l4,14l5,13l4,12l5,10l5,9l4,8l5,7l5,6l4,4l5,4l4,4l5,2l5,2l4,2l5,1l4,1l5,1l5,1h4h5h4l5,1h5h4h5h5h4h5h4h5h5h4h5h4h5" style="fill: none; stroke: #ff0000; stroke-width: 1; stroke-dasharray: 3,3;"></path></g><g><path d="M3,307h4h5l4,-1h5h5h4h5h4h5l5,-1h4h5l5,-1h4l5,-1l4,-1h5l5,-1l4,-2l5,-1l4,-2l5,-2l5,-2l4,-3l5,-4l4,-3l5,-5l5,-5l4,-6l5,-8l5,-8l4,-9l5,-10l4,-11l5,-13l5,-14l4,-14l5,-16l4,-17l5,-17l5,-17l4,-16l5,-16l4,-15l5,-14l5,-11l4,-9l5,-6l5,-3h4l5,3l4,6l5,9l5,11l4,14l5,15l4,16l5,16l5,17l4,17l5,17l4,16l5,14l5,14l4,13l5,11l4,10l5,9l5,8l4,8l5,6l5,5l4,5l5,3l4,4l5,3l5,2l4,2l5,2l4,1l5,2l5,1h4l5,1l4,1h5l5,1h4h5l5,1h4h5h4h5h5h4l5,1h4h5" style="fill: none; stroke: #0000ff; stroke-width: 1;"></path></g><g><path d="M3,304h4l5,-1h4h5l5,-1h4h5l4,-1h5l5,-1l4,-1h5l5,-1l4,-1l5,-1l4,-1l5,-1l5,-2l4,-1l5,-2l4,-2l5,-2l5,-2l4,-3l5,-3l4,-3l5,-4l5,-5l4,-5l5,-5l5,-7l4,-7l5,-8l4,-9l5,-10l5,-11l4,-13l5,-13l4,-14l5,-15l5,-16l4,-16l5,-16l4,-16l5,-14l5,-12l4,-10l5,-7l5,-3h4l5,3l4,7l5,10l5,12l4,14l5,16l4,16l5,16l5,16l4,15l5,14l4,13l5,13l5,11l4,10l5,9l4,8l5,7l5,7l4,5l5,5l5,5l4,4l5,3l4,3l5,3l5,2l4,2l5,2l4,2l5,1l5,2l4,1l5,1l4,1l5,1l5,1h4l5,1l5,1h4l5,1h4h5l5,1h4h5l4,1h5" style="fill: none; stroke: #ff0000; stroke-width: 1;"></path></g><g><path d="M3,298l4,-1h5h4l5,-1h5l4,-1h5l4,-1h5l5,-1l4,-1l5,-1h5l4,-1l5,-1l4,-1l5,-1l5,-1l4,-2l5,-1l4,-2l5,-1l5,-2l4,-2l5,-2l4,-3l5,-3l5,-3l4,-3l5,-4l5,-4l4,-4l5,-6l4,-6l5,-6l5,-8l4,-8l5,-10l4,-10l5,-12l5,-13l4,-13l5,-15l4,-15l5,-15l5,-14l4,-12l5,-8l5,-5h4l5,5l4,8l5,12l5,14l4,15l5,15l4,15l5,13l5,13l4,12l5,10l4,10l5,8l5,8l4,6l5,6l4,6l5,4l5,4l4,4l5,3l5,3l4,3l5,3l4,2l5,2l5,2l4,1l5,2l4,1l5,2l5,1l4,1l5,1l4,1l5,1h5l4,1l5,1l5,1h4l5,1h4l5,1h5l4,1h5h4l5,1" style="fill: none; stroke: #000000; stroke-width: 1;"></path></g></svg><g><g transform="translate(0,307)"><path d="M0,0h461M0,-12V0M9,-6V0M18,-6V0M28,-6V0M37,-6V0M46,-12V0M55,-6V0M65,-6V0M74,-6V0M83,-6V0M92,-12V0M101,-6V0M111,-6V0M120,-6V0M129,-6V0M138,-12V0M148,-6V0M157,-6V0M166,-6V0M175,-6V0M184,-12V0M194,-6V0M203,-6V0M212,-6V0M221,-6V0M231,-12V0M240,-6V0M249,-6V0M258,-6V0M267,-6V0M277,-12V0M286,-6V0M295,-6V0M304,-6V0M313,-6V0M323,-12V0M332,-6V0M341,-6V0M350,-6V0M360,-6V0M369,-12V0M378,-6V0M387,-6V0M396,-6V0M406,-6V0M415,-12V0M424,-6V0M433,-6V0M443,-6V0M452,-6V0M461,-12V0" style="stroke: #000000; stroke-width: 1;"></path><g font-family="Arial" font-size="13" space="preserve" fill="#000000" text-anchor="middle"><text dy=".8em" transform="translate(0,3)">-5</text><text dy=".8em" transform="translate(46,3)">-4</text><text dy=".8em" transform="translate(92,3)">-3</text><text dy=".8em" transform="translate(138,3)">-2</text><text dy=".8em" transform="translate(184,3)">-1</text><text dy=".8em" transform="translate(231,3)">0</text><text dy=".8em" transform="translate(277,3)">1</text><text dy=".8em" transform="translate(323,3)">2</text><text dy=".8em" transform="translate(369,3)">3</text><text dy=".8em" transform="translate(415,3)">4</text><text dy=".8em" transform="translate(461,3)">5</text></g></g><g><path d="M0,0v307M17,307H0M9,300H0M9,292H0M9,285H0M9,278H0M17,270H0M9,263H0M9,256H0M9,248H0M9,241H0M17,234H0M9,226H0M9,219H0M9,212H0M9,204H0M17,197H0M9,190H0M9,182H0M9,175H0M9,168H0M17,160H0M9,153H0M9,146H0M9,138H0M9,131H0M17,124H0M9,116H0M9,109H0M9,102H0M9,94H0M17,87H0M9,80H0M9,72H0M9,65H0M9,58H0M17,50H0M9,43H0M9,35H0M9,28H0M9,21H0M17,13H0M9,6H0" style="stroke: #000000; stroke-width: 1;"></path><g font-family="Arial" font-size="13" space="preserve" fill="#000000" text-anchor="end"><text dy=".4em" transform="translate(-3,307)">0</text><text dy=".4em" transform="translate(-3,270)">0.05</text><text dy=".4em" transform="translate(-3,234)">0.1</text><text dy=".4em" transform="translate(-3,197)">0.15</text><text dy=".4em" transform="translate(-3,160)">0.2</text><text dy=".4em" transform="translate(-3,124)">0.25</text><text dy=".4em" transform="translate(-3,87)">0.3</text><text dy=".4em" transform="translate(-3,50)">0.35</text><text dy=".4em" transform="translate(-3,13)">0.4</text></g></g><path d="M0,0v307M46,0v307M92,0v307M138,0v307M184,0v307M231,0v307M277,0v307M323,0v307M369,0v307M415,0v307M461,0v307" style="stroke: #000000; stroke-width: 1; stroke-dasharray: 1,2;"></path><path d="M0,307h461M0,270h461M0,234h461M0,197h461M0,160h461M0,124h461M0,87h461M0,50h461M0,13h461" style="stroke: #000000; stroke-width: 1; stroke-dasharray: 1,2;"></path></g></g><g transform="translate(58,2)" font-family="Arial" font-size="19" space="preserve"><text fill="#000000" text-anchor="middle" dy=".8em" transform="translate(231)">Student density</text></g><g transform="translate(346,42)" font-family="Arial" font-size="9" space="preserve"><path d="M0,0H167V73H0Z" style="fill: #ffffff; stroke: #000000; stroke-width: 1;"></path><path d="M5,11H37" style="stroke: #ff0000; stroke-width: 1; stroke-dasharray: 3,3;"></path><text fill="#000000" text-anchor="start" dy=".4em" transform="translate(42,11)">Normal(0,1)</text><path d="M5,28H37" style="stroke: #0000ff; stroke-width: 1;"></path><text fill="#000000" text-anchor="start" dy=".4em" transform="translate(42,28)">10 degrees of freedom</text><path d="M5,45H37" style="stroke: #ff0000; stroke-width: 1;"></path><text fill="#000000" text-anchor="start" dy=".4em" transform="translate(42,46)">3 degrees of freedom</text><path d="M5,62H37" style="stroke: #000000; stroke-width: 1;"></path><text fill="#000000" text-anchor="start" dy=".4em" transform="translate(42,63)">1 degree of freedom</text></g></g></svg><svg viewBox="0 0 576 384" preserveAspectRatio="none" x="612" y="8" width="576" height="384"><path d="M0,0H576V384H0Z" style="fill: #cccccc;"></path><g><g transform="translate(58,38)"><path d="M0,0H461V307H0Z" style="fill: #f2f2f2; stroke: #000000; stroke-width: 1;"></path><svg x="0" y="0" overflow="hidden" width="461" height="307" viewBox="0 0 461 307"><g><path d="M3,307h4h5h4h5h5h4h5h4h5h5h4l5,-1h5h4h5h4h5l5,-1h4h5l4,-1h5l5,-1h4l5,-1l4,-1l5,-1l5,-1l4,-2l5,-2l5,-2l4,-2l5,-3l4,-3l5,-4l5,-4l4,-5l5,-5l4,-7l5,-6l5,-8l4,-8l5,-9l4,-9l5,-10l5,-10l4,-11l5,-11l5,-12l4,-11l5,-11l4,-11l5,-11l5,-11l4,-10l5,-9l4,-9l5,-8l5,-7l4,-7l5,-6l4,-5l5,-5l5,-4l4,-4l5,-3l4,-3l5,-3l5,-2l4,-2l5,-1l5,-1l4,-2h5l4,-1l5,-1h5l4,-1h5l4,-1h5h5h4l5,-1h4h5h5h4h5h5h4h5h4h5h5h4h5h4h5" style="fill: none; stroke: #0000ff; stroke-width: 1;"></path></g><g><path d="M3,305h4l5,-1h4h5h5h4h5l4,-1h5h5l4,-1h5h5l4,-1h5h4l5,-1h5l4,-1l5,-1l4,-1h5l5,-1l4,-1l5,-1l4,-2l5,-1l5,-2l4,-1l5,-2l5,-3l4,-2l5,-3l4,-3l5,-4l5,-3l4,-5l5,-5l4,-5l5,-6l5,-7l4,-7l5,-8l4,-9l5,-9l5,-10l4,-10l5,-10l5,-11l4,-11l5,-10l4,-11l5,-10l5,-10l4,-9l5,-8l4,-8l5,-8l5,-6l4,-6l5,-6l4,-5l5,-4l5,-4l4,-3l5,-4l4,-2l5,-3l5,-2l4,-2l5,-2l5,-1l4,-2l5,-1l4,-1l5,-1l5,-1l4,-1l5,-1h4l5,-1l5,-1h4h5l4,-1h5l5,-1h4h5l5,-1h4h5h4h5l5,-1h4h5h4h5" style="fill: none; stroke: #ff0000; stroke-width: 1;"></path></g><g><path d="M3,288h4h5l4,-1h5l5,-1h4l5,-1h4l5,-1h5l4,-1h5l5,-1l4,-1h5l4,-1l5,-1l5,-1h4l5,-1l4,-1l5,-1l5,-2l4,-1l5,-1l4,-1l5,-2l5,-2l4,-1l5,-2l5,-2l4,-2l5,-3l4,-2l5,-3l5,-3l4,-4l5,-4l4,-4l5,-5l5,-5l4,-5l5,-7l4,-6l5,-8l5,-8l4,-8l5,-9l5,-10l4,-9l5,-9l4,-9l5,-9l5,-8l4,-7l5,-7l4,-6l5,-6l5,-5l4,-5l5,-4l4,-4l5,-3l5,-3l4,-3l5,-3l4,-2l5,-2l5,-2l4,-2l5,-2l5,-2l4,-1l5,-1l4,-2l5,-1l5,-1l4,-1l5,-1l4,-1l5,-1l5,-1h4l5,-1l4,-1l5,-1h5l4,-1h5l5,-1h4l5,-1h4l5,-1h5l4,-1h5l4,-1h5" style="fill: none; stroke: #000000; stroke-width: 1;"></path></g></svg><g><g transform="translate(0,307)"><path d="M0,0h461M0,-12V0M9,-6V0M18,-6V0M28,-6V0M37,-6V0M46,-12V0M55,-6V0M65,-6V0M74,-6V0M83,-6V0M92,-12V0M101,-6V0M111,-6V0M120,-6V0M129,-6V0M138,-12V0M148,-6V0M157,-6V0M166,-6V0M175,-6V0M184,-12V0M194,-6V0M203,-6V0M212,-6V0M221,-6V0M231,-12V0M240,-6V0M249,-6V0M258,-6V0M267,-6V0M277,-12V0M286,-6V0M295,-6V0M304,-6V0M313,-6V0M323,-12V0M332,-6V0M341,-6V0M350,-6V0M360,-6V0M369,-12V0M378,-6V0M387,-6V0M396,-6V0M406,-6V0M415,-12V0M424,-6V0M433,-6V0M443,-6V0M452,-6V0M461,-12V0" style="stroke: #000000; stroke-width: 1;"></path><g font-family="Arial" font-size="13" space="preserve" fill="#000000" text-anchor="middle"><text dy=".8em" transform="translate(0,3)">-5</text><text dy=".8em" transform="translate(46,3)">-4</text><text dy=".8em" transform="translate(92,3)">-3</text><text dy=".8em" transform="translate(138,3)">-2</text><text dy=".8em" transform="translate(184,3)">-1</text><text dy=".8em" transform="translate(231,3)">0</text><text dy=".8em" transform="translate(277,3)">1</text><text dy=".8em" transform="translate(323,3)">2</text><text dy=".8em" transform="translate(369,3)">3</text><text dy=".8em" transform="translate(415,3)">4</text><text dy=".8em" transform="translate(461,3)">5</text></g></g><g><path d="M0,0v307M17,307H0M9,301H0M9,295H0M9,289H0M9,284H0M17,278H0M9,272H0M9,266H0M9,260H0M9,254H0M17,249H0M9,243H0M9,237H0M9,231H0M9,225H0M17,219H0M9,213H0M9,208H0M9,202H0M9,196H0M17,190H0M9,184H0M9,178H0M9,172H0M9,167H0M17,161H0M9,155H0M9,149H0M9,143H0M9,137H0M17,132H0M9,126H0M9,120H0M9,114H0M9,108H0M17,102H0M9,96H0M9,91H0M9,85H0M9,79H0M17,73H0M9,67H0M9,61H0M9,55H0M9,50H0M17,44H0M9,38H0M9,32H0M9,26H0M9,20H0M17,15H0M9,9H0M9,3H0" style="stroke: #000000; stroke-width: 1;"></path><g font-family="Arial" font-size="13" space="preserve" fill="#000000" text-anchor="end"><text dy=".4em" transform="translate(-3,307)">0</text><text dy=".4em" transform="translate(-3,278)">0.1</text><text dy=".4em" transform="translate(-3,249)">0.2</text><text dy=".4em" transform="translate(-3,219)">0.3</text><text dy=".4em" transform="translate(-3,190)">0.4</text><text dy=".4em" transform="translate(-3,161)">0.5</text><text dy=".4em" transform="translate(-3,132)">0.6</text><text dy=".4em" transform="translate(-3,102)">0.7</text><text dy=".4em" transform="translate(-3,73)">0.8</text><text dy=".4em" transform="translate(-3,44)">0.9</text><text dy=".4em" transform="translate(-3,15)">1</text></g></g><path d="M0,0v307M46,0v307M92,0v307M138,0v307M184,0v307M231,0v307M277,0v307M323,0v307M369,0v307M415,0v307M461,0v307" style="stroke: #000000; stroke-width: 1; stroke-dasharray: 1,2;"></path><path d="M0,307h461M0,278h461M0,249h461M0,219h461M0,190h461M0,161h461M0,132h461M0,102h461M0,73h461M0,44h461M0,15h461" style="stroke: #000000; stroke-width: 1; stroke-dasharray: 1,2;"></path></g></g><g transform="translate(58,2)" font-family="Arial" font-size="19" space="preserve"><text fill="#000000" text-anchor="middle" dy=".8em" transform="translate(231)">Student cumulative dist.</text></g><g transform="translate(346,154)" font-family="Arial" font-size="9" space="preserve"><path d="M0,0H167V77H0Z" style="fill: #ffffff; stroke: #000000; stroke-width: 1;"></path><path d="M5,14H37" style="stroke: #0000ff; stroke-width: 1;"></path><text fill="#000000" text-anchor="start" dy=".4em" transform="translate(42,14)">10 degrees of freedom</text><path d="M5,39H37" style="stroke: #ff0000; stroke-width: 1;"></path><text fill="#000000" text-anchor="start" dy=".4em" transform="translate(42,38)">3 degrees of freedom</text><path d="M5,63H37" style="stroke: #000000; stroke-width: 1;"></path><text fill="#000000" text-anchor="start" dy=".4em" transform="translate(42,63)">1 degree of freedom</text></g></g></svg><svg viewBox="0 0 576 384" preserveAspectRatio="none" x="12" y="408" width="576" height="384"><path d="M0,0H576V384H0Z" style="fill: #cccccc;"></path><g><g transform="translate(58,38)"><path d="M0,0H461V307H0Z" style="fill: #f2f2f2; stroke: #000000; stroke-width: 1;"></path><svg x="0" y="0" overflow="hidden" width="461" height="307" viewBox="0 0 461 307"><g><path d="M3,15l4,126l5,40l4,22l5,14l5,10l4,8l5,6l4,5l5,4l5,4l4,3l5,3l5,2l4,2l5,3l4,1l5,2l5,2l4,1l5,1l4,2l5,1l5,1l4,1l5,1h4l5,1l5,1l4,1l5,1h5l4,1h5l4,1l5,1h5l4,1h5h4l5,1h5l4,1h5h4l5,1h5h4l5,1h5h4l5,1h4h5h5l4,1h5h4h5l5,1h4h5h4h5l5,1h4h5h4h5l5,1h4h5h5h4h5h4l5,1h5h4h5h4h5h5h4l5,1h4h5h5h4h5h5h4h5h4l5,1h5h4h5h4h5" style="fill: none; stroke: #000000; stroke-width: 1;"></path></g><g><path d="M3,-52l4,154l5,48l4,26l5,16l5,13l4,9l5,7l4,6l5,5l5,5l4,4l5,3l5,3l4,3l5,2l4,2l5,3l5,1l4,2l5,2l4,1l5,2l5,1l4,1l5,2l4,1l5,1l5,1l4,1l5,1h5l4,1l5,1l4,1l5,1h5l4,1l5,1h4l5,1h5l4,1l5,1h4l5,1h5l4,1h5h5l4,1h5l4,1h5h5l4,1h5l4,1h5h5h4l5,1h4h5l5,1h4h5l4,1h5h5h4l5,1h5h4h5h4l5,1h5h4h5h4l5,1h5h4h5h4l5,1h5h4h5h5h4l5,1h4h5h5h4h5h4l5,1" style="fill: none; stroke: #ff0000; stroke-width: 1;"></path></g><g><path d="M3,307l4,-2l5,-6l4,-7l5,-7l5,-6l4,-5l5,-4l4,-3l5,-3l5,-1l4,-1h5h5h4h5l4,1h5l5,1l4,1l5,1h4l5,1l5,1l4,1l5,1l4,1l5,1l5,1h4l5,1l5,1l4,1h5l4,1l5,1h5l4,1l5,1h4l5,1h5l4,1l5,1h4l5,1h5l4,1h5h5l4,1h5l4,1h5h5l4,1h5h4l5,1h5h4l5,1h4h5l5,1h4h5h4l5,1h5h4h5l5,1h4h5h4l5,1h5h4h5h4h5l5,1h4h5h4h5l5,1h4h5h5h4h5h4l5,1h5h4h5h4h5" style="fill: none; stroke: #59d354; stroke-width: 1;"></path></g><g><path d="M3,307h4h5l4,-1l5,-1l5,-1l4,-2l5,-2l4,-3l5,-3l5,-4l4,-4l5,-4l5,-3l4,-4l5,-4l4,-4l5,-4l5,-3l4,-3l5,-3l4,-3l5,-2l5,-3l4,-1l5,-2l4,-2l5,-1l5,-1l4,-1h5l5,-1h4h5h4l5,1h5h4l5,1l4,1h5l5,1l4,1l5,1l4,1l5,1l5,1l4,1l5,1l5,1l4,1l5,2l4,1l5,1l5,1l4,1l5,1l4,2l5,1l5,1l4,1l5,1l4,1l5,1l5,1l4,1l5,1l4,1l5,1l5,1l4,1l5,1l5,1l4,1l5,1h4l5,1l5,1l4,1h5l4,1l5,1l5,1h4l5,1l4,1h5l5,1h4l5,1l5,1h4l5,1h4l5,1h5l4,1h5l4,1h5" style="fill: none; stroke: #0000ff; stroke-width: 1;"></path></g></svg><g><g transform="translate(0,307)"><path d="M0,0h461M0,-12V0M12,-6V0M23,-6V0M35,-6V0M46,-12V0M58,-6V0M69,-6V0M81,-6V0M92,-12V0M104,-6V0M115,-6V0M127,-6V0M138,-12V0M150,-6V0M161,-6V0M173,-6V0M184,-12V0M196,-6V0M207,-6V0M219,-6V0M231,-12V0M242,-6V0M254,-6V0M265,-6V0M277,-12V0M288,-6V0M300,-6V0M311,-6V0M323,-12V0M334,-6V0M346,-6V0M357,-6V0M369,-12V0M380,-6V0M392,-6V0M403,-6V0M415,-12V0M426,-6V0M438,-6V0M449,-6V0M461,-12V0" style="stroke: #000000; stroke-width: 1;"></path><g font-family="Arial" font-size="13" space="preserve" fill="#000000" text-anchor="middle"><text dy=".8em" transform="translate(0,3)">0</text><text dy=".8em" transform="translate(46,3)">0.2</text><text dy=".8em" transform="translate(92,3)">0.4</text><text dy=".8em" transform="translate(138,3)">0.6</text><text dy=".8em" transform="translate(184,3)">0.8</text><text dy=".8em" transform="translate(231,3)">1</text><text dy=".8em" transform="translate(277,3)">1.2</text><text dy=".8em" transform="translate(323,3)">1.4</text><text dy=".8em" transform="translate(369,3)">1.6</text><text dy=".8em" transform="translate(415,3)">1.8</text><text dy=".8em" transform="translate(461,3)">2</text></g></g><g><path d="M0,0v307M17,307H0M9,298H0M9,288H0M9,279H0M9,270H0M17,261H0M9,251H0M9,242H0M9,233H0M9,224H0M17,214H0M9,205H0M9,196H0M9,186H0M9,177H0M17,168H0M9,159H0M9,149H0M9,140H0M9,131H0M17,121H0M9,112H0M9,103H0M9,94H0M9,84H0M17,75H0M9,66H0M9,57H0M9,47H0M9,38H0M17,29H0M9,19H0M9,10H0M9,1H0" style="stroke: #000000; stroke-width: 1;"></path><g font-family="Arial" font-size="13" space="preserve" fill="#000000" text-anchor="end"><text dy=".4em" transform="translate(-3,307)">0</text><text dy=".4em" transform="translate(-3,261)">0.5</text><text dy=".4em" transform="translate(-3,214)">1</text><text dy=".4em" transform="translate(-3,168)">1.5</text><text dy=".4em" transform="translate(-3,121)">2</text><text dy=".4em" transform="translate(-3,75)">2.5</text><text dy=".4em" transform="translate(-3,29)">3</text></g></g><path d="M0,0v307M46,0v307M92,0v307M138,0v307M184,0v307M231,0v307M277,0v307M323,0v307M369,0v307M415,0v307M461,0v307" style="stroke: #000000; stroke-width: 1; stroke-dasharray: 1,2;"></path><path d="M0,307h461M0,261h461M0,214h461M0,168h461M0,121h461M0,75h461M0,29h461" style="stroke: #000000; stroke-width: 1; stroke-dasharray: 1,2;"></path></g></g><g transform="translate(58,2)" font-family="Arial" font-size="19" space="preserve"><text fill="#000000" text-anchor="middle" dy=".8em" transform="translate(231)">F-Dist. density</text></g><g transform="translate(403,42)" font-family="Arial" font-size="14" space="preserve"><path d="M0,0H109V73H0Z" style="fill: #ffffff; stroke: #000000; stroke-width: 1;"></path><path d="M3,11H24" style="stroke: #000000; stroke-width: 1;"></path><text fill="#000000" text-anchor="start" dy=".4em" transform="translate(27,11)">N=1 M=1</text><path d="M3,28H24" style="stroke: #ff0000; stroke-width: 1;"></path><text fill="#000000" text-anchor="start" dy=".4em" transform="translate(27,28)">N=1 M=10</text><path d="M3,45H24" style="stroke: #59d354; stroke-width: 1;"></path><text fill="#000000" text-anchor="start" dy=".4em" transform="translate(27,46)">N=10 M=1</text><path d="M3,62H24" style="stroke: #0000ff; stroke-width: 1;"></path><text fill="#000000" text-anchor="start" dy=".4em" transform="translate(27,63)">N=10 M=10</text></g></g></svg><svg viewBox="0 0 576 384" preserveAspectRatio="none" x="612" y="408" width="576" height="384"><path d="M0,0H576V384H0Z" style="fill: #cccccc;"></path><g><g transform="translate(58,38)"><path d="M0,0H461V307H0Z" style="fill: #f2f2f2; stroke: #000000; stroke-width: 1;"></path><svg x="0" y="0" overflow="hidden" width="461" height="307" viewBox="0 0 461 307"><g><path d="M3,293l4,-23l5,-16l4,-13l5,-10l5,-10l4,-8l5,-8l4,-7l5,-6l5,-6l4,-6l5,-6l5,-5l4,-4l5,-5l4,-4l5,-5l5,-4l4,-3l5,-4l4,-4l5,-3l5,-3l4,-3l5,-4l4,-3l5,-2l5,-3l4,-3l5,-3l5,-2l4,-3l5,-2l4,-2l5,-3l5,-2l4,-2l5,-2l4,-2l5,-2l5,-2l4,-2l5,-2l4,-2l5,-2l5,-1l4,-2l5,-2l5,-2l4,-1l5,-2l4,-1l5,-2l5,-1l4,-2l5,-1l4,-2l5,-1l5,-2l4,-1l5,-1l4,-2l5,-1l5,-1l4,-1l5,-2l4,-1l5,-1l5,-1l4,-1l5,-1l5,-1l4,-2l5,-1l4,-1l5,-1l5,-1l4,-1l5,-1l4,-1l5,-1l5,-1l4,-1l5,-1l4,-1h5l5,-1l4,-1l5,-1l5,-1l4,-1l5,-1l4,-1h5l5,-1l4,-1l5,-1l4,-1h5" style="fill: none; stroke: #000000; stroke-width: 1;"></path></g><g><path d="M3,286l4,-29l5,-20l4,-16l5,-13l5,-12l4,-11l5,-10l4,-9l5,-8l5,-8l4,-8l5,-7l5,-7l4,-6l5,-6l4,-6l5,-6l5,-5l4,-6l5,-5l4,-5l5,-4l5,-5l4,-4l5,-5l4,-4l5,-4l5,-4l4,-4l5,-4l5,-3l4,-4l5,-3l4,-4l5,-3l5,-3l4,-3l5,-3l4,-3l5,-3l5,-3l4,-3l5,-2l4,-3l5,-3l5,-2l4,-3l5,-2l5,-3l4,-2l5,-2l4,-3l5,-2l5,-2l4,-2l5,-2l4,-2l5,-2l5,-2l4,-2l5,-2l4,-2l5,-2l5,-2l4,-1l5,-2l4,-2l5,-2l5,-1l4,-2l5,-2l5,-1l4,-2l5,-1l4,-2l5,-1l5,-2l4,-1l5,-2l4,-1l5,-1l5,-2l4,-1l5,-1l4,-2l5,-1l5,-1l4,-1l5,-2l5,-1l4,-1l5,-1l4,-1l5,-1l5,-1l4,-2l5,-1l4,-1l5,-1" style="fill: none; stroke: #ff0000; stroke-width: 1;"></path></g><g><path d="M3,326l4,-1h5l4,-1l5,-2l5,-3l4,-4l5,-3l4,-5l5,-4l5,-5l4,-5l5,-5l5,-5l4,-5l5,-5l4,-5l5,-5l5,-5l4,-4l5,-5l4,-4l5,-5l5,-4l4,-4l5,-5l4,-4l5,-4l5,-3l4,-4l5,-4l5,-3l4,-4l5,-3l4,-4l5,-3l5,-3l4,-3l5,-3l4,-3l5,-3l5,-3l4,-3l5,-3l4,-2l5,-3l5,-2l4,-3l5,-2l5,-3l4,-2l5,-2l4,-3l5,-2l5,-2l4,-2l5,-2l4,-2l5,-2l5,-2l4,-2l5,-2l4,-2l5,-2l5,-2l4,-2l5,-1l4,-2l5,-2l5,-1l4,-2l5,-2l5,-1l4,-2l5,-1l4,-2l5,-1l5,-2l4,-1l5,-2l4,-1l5,-2l5,-1l4,-1l5,-2l4,-1l5,-1l5,-2l4,-1l5,-1l5,-1l4,-1l5,-2l4,-1l5,-1l5,-1l4,-1l5,-1l4,-2l5,-1" style="fill: none; stroke: #59d354; stroke-width: 1;"></path></g><g><path d="M3,326h4h5l4,-1h5h5h4l5,-1l4,-1l5,-1l5,-2l4,-2l5,-2l5,-3l4,-4l5,-4l4,-4l5,-4l5,-5l4,-6l5,-5l4,-6l5,-7l5,-6l4,-7l5,-7l4,-7l5,-8l5,-7l4,-8l5,-7l5,-8l4,-7l5,-8l4,-8l5,-8l5,-7l4,-8l5,-7l4,-8l5,-7l5,-8l4,-7l5,-7l4,-7l5,-7l5,-7l4,-6l5,-7l5,-6l4,-7l5,-6l4,-6l5,-6l5,-5l4,-6l5,-6l4,-5l5,-5l5,-5l4,-6l5,-4l4,-5l5,-5l5,-4l4,-5l5,-4l4,-4l5,-5l5,-4l4,-4l5,-3l5,-4l4,-4l5,-3l4,-4l5,-3l5,-3l4,-3l5,-3l4,-3l5,-3l5,-3l4,-3l5,-3l4,-2l5,-3l5,-2l4,-3l5,-2l5,-2l4,-3l5,-2l4,-2l5,-2l5,-2l4,-2l5,-2l4,-2l5,-1" style="fill: none; stroke: #0000ff; stroke-width: 1;"></path></g></svg><g><g transform="translate(0,307)"><path d="M0,0h461M0,-12V0M12,-6V0M23,-6V0M35,-6V0M46,-12V0M58,-6V0M69,-6V0M81,-6V0M92,-12V0M104,-6V0M115,-6V0M127,-6V0M138,-12V0M150,-6V0M161,-6V0M173,-6V0M184,-12V0M196,-6V0M207,-6V0M219,-6V0M231,-12V0M242,-6V0M254,-6V0M265,-6V0M277,-12V0M288,-6V0M300,-6V0M311,-6V0M323,-12V0M334,-6V0M346,-6V0M357,-6V0M369,-12V0M380,-6V0M392,-6V0M403,-6V0M415,-12V0M426,-6V0M438,-6V0M449,-6V0M461,-12V0" style="stroke: #000000; stroke-width: 1;"></path><g font-family="Arial" font-size="13" space="preserve" fill="#000000" text-anchor="middle"><text dy=".8em" transform="translate(0,3)">0</text><text dy=".8em" transform="translate(46,3)">0.2</text><text dy=".8em" transform="translate(92,3)">0.4</text><text dy=".8em" transform="translate(138,3)">0.6</text><text dy=".8em" transform="translate(184,3)">0.8</text><text dy=".8em" transform="translate(231,3)">1</text><text dy=".8em" transform="translate(277,3)">1.2</text><text dy=".8em" transform="translate(323,3)">1.4</text><text dy=".8em" transform="translate(369,3)">1.6</text><text dy=".8em" transform="translate(415,3)">1.8</text><text dy=".8em" transform="translate(461,3)">2</text></g></g><g><path d="M0,0v307M9,305H0M9,295H0M9,285H0M17,274H0M9,264H0M9,254H0M9,244H0M9,233H0M17,223H0M9,213H0M9,203H0M9,192H0M9,182H0M17,172H0M9,162H0M9,152H0M9,141H0M9,131H0M17,121H0M9,111H0M9,100H0M9,90H0M9,80H0M17,70H0M9,59H0M9,49H0M9,39H0M9,29H0M17,18H0M9,8H0" style="stroke: #000000; stroke-width: 1;"></path><g font-family="Arial" font-size="13" space="preserve" fill="#000000" text-anchor="end"><text dy=".4em" transform="translate(-3,274)">0.1</text><text dy=".4em" transform="translate(-3,223)">0.2</text><text dy=".4em" transform="translate(-3,172)">0.3</text><text dy=".4em" transform="translate(-3,121)">0.4</text><text dy=".4em" transform="translate(-3,70)">0.5</text><text dy=".4em" transform="translate(-3,18)">0.6</text></g></g><path d="M0,0v307M46,0v307M92,0v307M138,0v307M184,0v307M231,0v307M277,0v307M323,0v307M369,0v307M415,0v307M461,0v307" style="stroke: #000000; stroke-width: 1; stroke-dasharray: 1,2;"></path><path d="M0,274h461M0,223h461M0,172h461M0,121h461M0,70h461M0,18h461" style="stroke: #000000; stroke-width: 1; stroke-dasharray: 1,2;"></path></g></g><g transform="translate(58,2)" font-family="Arial" font-size="19" space="preserve"><text fill="#000000" text-anchor="middle" dy=".8em" transform="translate(231)">Cumulative dist. function for F</text></g><g transform="translate(403,192)" font-family="Arial" font-size="14" space="preserve"><path d="M0,0H109V77H0Z" style="fill: #ffffff; stroke: #000000; stroke-width: 1;"></path><path d="M3,11H24" style="stroke: #000000; stroke-width: 1;"></path><text fill="#000000" text-anchor="start" dy=".4em" transform="translate(27,11)">N=1 M=1</text><path d="M3,29H24" style="stroke: #ff0000; stroke-width: 1;"></path><text fill="#000000" text-anchor="start" dy=".4em" transform="translate(27,29)">N=1 M=10</text><path d="M3,48H24" style="stroke: #59d354; stroke-width: 1;"></path><text fill="#000000" text-anchor="start" dy=".4em" transform="translate(27,48)">N=10 M=1</text><path d="M3,66H24" style="stroke: #0000ff; stroke-width: 1;"></path><text fill="#000000" text-anchor="start" dy=".4em" transform="translate(27,66)">N=10 M=10</text></g></g></svg></g></svg>