<svg xmlns="http://www.w3.org/2000/svg" viewBox="0 0 1200 800" preserveAspectRatio="none" width="1200" height="800"><path d="M0,0H1200V800H0Z" style="fill: #cccccc;"></path><g><svg viewBox="0 0 576 384" preserveAspectRatio="none" x="12" y="8" width="576" height="384"><path d="M0,0H576V384H0Z" style="fill: #cccccc;"></path><g><g transform="translate(58,38)"><path d="M0,0H461V307H0Z" style="fill: #f2f2f2; stroke: #000000; stroke-width: 1;"></path><svg x="0" y="0" overflow="hidden" width="461" height="307" viewBox="0 0 461 307"><g><path d="M3,307h4h5h4h5h5h4h5h4h5h5h4h5h5l4,-1h5h4h5l5,-1l4,-1l5,-1l4,-1l5,-2l5,-2l4,-2l5,-4l4,-4l5,-4l5,-6l4,-7l5,-8l5,-9l4,-10l5,-12l4,-13l5,-14l5,-16l4,-16l5,-17l4,-18l5,-17l5,-18l4,-17l5,-16l4,-15l5,-13l5,-10l4,-9l5,-5l5,-3h4l5,3l4,5l5,9l5,10l4,13l5,15l4,16l5,17l5,18l4,17l5,18l4,17l5,16l5,16l4,14l5,13l4,12l5,10l5,9l4,8l5,7l5,6l4,4l5,4l4,4l5,2l5,2l4,2l5,1l4,1l5,1l5,1h4h5h4l5,1h5h4h5h5h4h5h4h5h5h4h5h4h5" style="fill: none; stroke: #ff0000; stroke-width: 1; stroke-dasharray: 3,3;"></path></g><g><path d="M3,307h4h5l4,-1h5h5h4h5h4h5l5,-1h4h5l5,-1h4l5,-1l4,-1h5l5,-1l4,-2l5,-1l4,-2l5,-2l5,-2l4,-3l5,-4l4,-3l5,-5l5,-5l4,-6l5,-8l5,-8l4,-9l5,-10l4,-11l5,-13l5,-14l4,-14l5,-16l4,-17l5,-17l5,-17l4,-16l5,-16l4,-15l5,-14l5,-11l4,-9l5,-6l5,-3h4l5,3l4,6l5,9l5,11l4,14l5,15l4,16l5,16l5,17l4,17l5,17l4,16l5,14l5,14l4,13l5,11l4,10l5,9l5,8l4,8l5,6l5,5l4,5l5,3l4,4l5,3l5,2l4,2l5,2l4,1l5,2l5,1h4l5,1l4,1h5l5,1h4h5l5,1h4h5h4h5h5h4l5,1h4h5" style="fill: none; stroke: #0000ff; stroke-width: 1;"></path></g><g><path d="M3,304h4l5,-1h4h5l5,-1h4h5l4,-1h5l5,-1l4,-1h5l5,-1l4,-1l5,-1l4,-1l5,-1l5,-2l4,-1l5,-2l4,-2l5,-2l5,-2l4,-3l5,-3l4,-3l5,-4l5,-5l4,-5l5,-5l5,-7l4,-7l5,-8l4,-9l5,-10l5,-11l4,-13l5,-13l4,-14l5,-15l5,-16l4,-16l5,-16l4,-16l5,-14l5,-12l4,-10l5,-7l5,-3h4l5,3l4,7l5,10l5,12l4,14l5,16l4,16l5,16l5,16l4,15l5,14l4,13l5,13l5,11l4,10l5,9l4,8l5,7l5,7l4,5l5,5l5,5l4,4l5,3l4,3l5,3l5,2l4,2l5,2l4,2l5,1l5,2l4,1l5,1l4,1l5,1l5,1h4l5,1l5,1h4l5,1h4h5l5,1h4h5l4,1h5" style="fill: none; stroke: #ff0000; stroke-width: 1;"></path></g><g><path d="M3,298l4,-1h5h4l5,-1h5l4,-1h5l4,-1h5l5,-1l4,-1l5,-1h5l4,-1l5,-1l4,-1l5,-1l5,-1l4,-2l5,-1l4,-2l5,-1l5,-2l4,-2l5,-2l4,-3l5,-3l5,-3l4,-3l5,-4l5,-4l4,-4l5,-6l4,-6l5,-6l5,-8l4,-8l5,-10l4,-10l5,-12l5,-13l4,-13l5,-15l4,-15l5,-15l5,-14l4,-12l5,-8l5,-5h4l5,5l4,8l5,12l5,14l4,15l5,15l4,15l5,13l5,13l4,12l5,10l4,10l5,8l5,8l4,6l5,6l4,6l5,4l5,4l4,4l5,3l5,3l4,3l5,3l4,2l5,2l5,2l4,1l5,2l4,1l5,2l5,1l4,1l5,1l4,1l5,1h5l4,1l5,1l5,1h4l5,1h4l5,1h5l4,1h5h4l5,1" style="fill: none; stroke: #000000; stroke-width: 1;"></path></g></svg><g><g transform="translate(0,307)"><path d="M0,0h461M0,-9V0M9,-5V0M18,-5V0M28,-5V0M37,-5V0M46,-9V0M55,-5V0M65,-5V0M74,-5V0M83,-5V0M92,-9V0M101,-5V0M111,-5V0M120,-5V0M129,-5V0M138,-9V0M148,-5V0M157,-5V0M166,-5V0M175,-5V0M184,-9V0M194,-5V0M203,-5V0M212,-5V0M221,-5V0M231,-9V0M240,-5V0M249,-5V0M258,-5V0M267,-5V0M277,-9V0M286,-5V0M295,-5V0M304,-5V0M313,-5V0M323,-9V0M332,-5V0M341,-5V0M350,-5V0M360,-5V0M369,-9V0M378,-5V0M387,-5V0M396,-5V0M406,-5V0M415,-9V0M424,-5V0M433,-5V0M443,-5V0M452,-5V0M461,-9V0" style="stroke: #000000; stroke-width: 1;"></path><g font-family="Arial" font-size="13" space="preserve" fill="#000000" text-anchor="middle"><text dy=".8em" transform="translate(0,3)">-5</text><text dy=".8em" transform="translate(46,3)">-4</text><text dy=".8em" transform="translate(92,3)">-3</text><text dy=".8em" transform="translate(138,3)">-2</text><text dy=".8em" transform="translate(184,3)">-1</text><text dy=".8em" transform="translate(231,3)">0</text><text dy=".8em" transform="translate(277,3)">1</text><text dy=".8em" transform="translate(323,3)">2</text><text dy=".8em" transform="translate(369,3)">3</text><text dy=".8em" transform="translate(415,3)">4</text><text dy=".8em" transform="translate(461,3)">5</text></g></g><g><path d="M0,0v307M14,307H0M7,300H0M7,292H0M7,285H0M7,278H0M14,270H0M7,263H0M7,256H0M7,248H0M7,241H0M14,234H0M7,226H0M7,219H0M7,212H0M7,204H0M14,197H0M7,190H0M7,182H0M7,175H0M7,168H0M14,160H0M7,153H0M7,146H0M7,138H0M7,131H0M14,124H0M7,116H0M7,109H0M7,102H0M7,94H0M14,87H0M7,80H0M7,72H0M7,65H0M7,58H0M14,50H0M7,43H0M7,35H0M7,28H0M7,21H0M14,13H0M7,6H0" style="stroke: #000000; stroke-width: 1;"></path><g font-family="Arial" font-size="13" space="preserve" fill="#000000" text-anchor="end"><text dy=".4em" transform="translate(-3,307)">0</text><text dy=".4em" transform="translate(-3,270)">0.05</text><text dy=".4em" transform="translate(-3,234)">0.1</text><text dy=".4em" transform="translate(-3,197)">0.15</text><text dy=".4em" transform="translate(-3,160)">0.2</text><text dy=".4em" transform="translate(-3,124)">0.25</text><text dy=".4em" transform="translate(-3,87)">0.3</text><text dy=".4em" transform="translate(-3,50)">0.35</text><text dy=".4em" transform="translate(-3,13)">0.4</text></g></g><path d="M0,0v307M46,0v307M92,0v307M138,0v307M184,0v307M231,0v307M277,0v307M323,0v307M369,0v307M415,0v307M461,0v307" style="stroke: #000000; stroke-width: 1; stroke-dasharray: 1,2;"></path><path d="M0,307h461M0,270h461M0,234h461M0,197h461M0,160h461M0,124h461M0,87h461M0,50h461M0,13h461" style="stroke: #000000; stroke-width: 1; stroke-dasharray: 1,2;"></path></g></g><g transform="translate(58,2)" font-family="Arial" font-size="19" space="preserve"><text fill="#000000" text-anchor="middle" dy=".8em" transform="translate(231)">Student density</text></g><g transform="translate(346,42)" font-family="Arial" font-size="9" space="preserve"><path d="M0,0H167V73H0Z" style="fill: #ffffff; stroke: #000000; stroke-width: 1;"></path><path d="M5,11H37" style="stroke: #ff0000; stroke-width: 1; stroke-dasharray: 3,3;"></path><text fill="#000000" text-anchor="start" dy=".4em" transform="translate(42,11)">Normal(0,1)</text><path d="M5,28H37" style="stroke: #0000ff; stroke-width: 1;"></path><text fill="#000000" text-anchor="start" dy=".4em" transform="translate(42,28)">10 degrees of freedom</text><path d="M5,45H37" style="stroke: #ff0000; stroke-width: 1;"></path><text fill="#000000" text-anchor="start" dy=".4em" transform="translate(42,46)">3 degrees of freedom</text><path d="M5,62H37" style="stroke: #000000; stroke-width: 1;"></path><text fill="#000000" text-anchor="start" dy=".4em" transform="translate(42,63)">1 degree of freedom</text></g></g></svg><svg viewBox="0 0 576 384" preserveAspectRatio="none" x="612" y="8" width="576" height="384"><path d="M0,0H576V384H0Z" style="fill: #cccccc;"></path><g><g transform="translate(58,38)"><path d="M0,0H461V307H0Z" style="fill: #f2f2f2; stroke: #000000; stroke-width: 1;"></path><svg x="0" y="0" overflow="hidden" width="461" height="307" viewBox="0 0 461 307"><g><path d="M3,307h4h5h4h5h5h4h5h4h5h5h4l5,-1h5h4h5h4h5l5,-1h4h5l4,-1h5l5,-1h4l5,-1l4,-1l5,-1l5,-1l4,-2l5,-2l5,-2l4,-2l5,-3l4,-3l5,-4l5,-4l4,-5l5,-5l4,-7l5,-6l5,-8l4,-8l5,-9l4,-9l5,-10l5,-10l4,-11l5,-11l5,-12l4,-11l5,-11l4,-11l5,-11l5,-11l4,-10l5,-9l4,-9l5,-8l5,-7l4,-7l5,-6l4,-5l5,-5l5,-4l4,-4l5,-3l4,-3l5,-3l5,-2l4,-2l5,-1l5,-1l4,-2h5l4,-1l5,-1h5l4,-1h5l4,-1h5h5h4l5,-1h4h5h5h4h5h5h4h5h4h5h5h4h5h4h5" style="fill: none; stroke: #0000ff; stroke-width: 1;"></path></g><g><path d="M3,305h4l5,-1h4h5h5h4h5l4,-1h5h5l4,-1h5h5l4,-1h5h4l5,-1h5l4,-1l5,-1l4,-1h5l5,-1l4,-1l5,-1l4,-2l5,-1l5,-2l4,-1l5,-2l5,-3l4,-2l5,-3l4,-3l5,-4l5,-3l4,-5l5,-5l4,-5l5,-6l5,-7l4,-7l5,-8l4,-9l5,-9l5,-10l4,-10l5,-10l5,-11l4,-11l5,-10l4,-11l5,-10l5,-10l4,-9l5,-8l4,-8l5,-8l5,-6l4,-6l5,-6l4,-5l5,-4l5,-4l4,-3l5,-4l4,-2l5,-3l5,-2l4,-2l5,-2l5,-1l4,-2l5,-1l4,-1l5,-1l5,-1l4,-1l5,-1h4l5,-1l5,-1h4h5l4,-1h5l5,-1h4h5l5,-1h4h5h4h5l5,-1h4h5h4h5" style="fill: none; stroke: #ff0000; stroke-width: 1;"></path></g><g><path d="M3,288h4h5l4,-1h5l5,-1h4l5,-1h4l5,-1h5l4,-1h5l5,-1l4,-1h5l4,-1l5,-1l5,-1h4l5,-1l4,-1l5,-1l5,-2l4,-1l5,-1l4,-1l5,-2l5,-2l4,-1l5,-2l5,-2l4,-2l5,-3l4,-2l5,-3l5,-3l4,-4l5,-4l4,-4l5,-5l5,-5l4,-5l5,-7l4,-6l5,-8l5,-8l4,-8l5,-9l5,-10l4,-9l5,-9l4,-9l5,-9l5,-8l4,-7l5,-7l4,-6l5,-6l5,-5l4,-5l5,-4l4,-4l5,-3l5,-3l4,-3l5,-3l4,-2l5,-2l5,-2l4,-2l5,-2l5,-2l4,-1l5,-1l4,-2l5,-1l5,-1l4,-1l5,-1l4,-1l5,-1l5,-1h4l5,-1l4,-1l5,-1h5l4,-1h5l5,-1h4l5,-1h4l5,-1h5l4,-1h5l4,-1h5" style="fill: none; stroke: #000000; stroke-width: 1;"></path></g></svg><g><g transform="translate(0,307)"><path d="M0,0h461M0,-9V0M9,-5V0M18,-5V0M28,-5V0M37,-5V0M46,-9V0M55,-5V0M65,-5V0M74,-5V0M83,-5V0M92,-9V0M101,-5V0M111,-5V0M120,-5V0M129,-5V0M138,-9V0M148,-5V0M157,-5V0M166,-5V0M175,-5V0M184,-9V0M194,-5V0M203,-5V0M212,-5V0M221,-5V0M231,-9V0M240,-5V0M249,-5V0M258,-5V0M267,-5V0M277,-9V0M286,-5V0M295,-5V0M304,-5V0M313,-5V0M323,-9V0M332,-5V0M341,-5V0M350,-5V0M360,-5V0M369,-9V0M378,-5V0M387,-5V0M396,-5V0M406,-5V0M415,-9V0M424,-5V0M433,-5V0M443,-5V0M452,-5V0M461,-9V0" style="stroke: #000000; stroke-width: 1;"></path><g font-family="Arial" font-size="13" space="preserve" fill="#000000" text-anchor="middle"><text dy=".8em" transform="translate(0,3)">-5</text><text dy=".8em" transform="translate(46,3)">-4</text><text dy=".8em" transform="translate(92,3)">-3</text><text dy=".8em" transform="translate(138,3)">-2</text><text dy=".8em" transform="translate(184,3)">-1</text><text dy=".8em" transform="translate(231,3)">0</text><text dy=".8em" transform="translate(277,3)">1</text><text dy=".8em" transform="translate(323,3)">2</text><text dy=".8em" transform="translate(369,3)">3</text><text dy=".8em" transform="translate(415,3)">4</text><text dy=".8em" transform="translate(461,3)">5</text></g></g><g><path d="M0,0v307M14,307H0M7,301H0M7,295H0M7,289H0M7,284H0M14,278H0M7,272H0M7,266H0M7,260H0M7,254H0M14,249H0M7,243H0M7,237H0M7,231H0M7,225H0M14,219H0M7,213H0M7,208H0M7,202H0M7,196H0M14,190H0M7,184H0M7,178H0M7,172H0M7,167H0M14,161H0M7,155H0M7,149H0M7,143H0M7,137H0M14,132H0M7,126H0M7,120H0M7,114H0M7,108H0M14,102H0M7,96H0M7,91H0M7,85H0M7,79H0M14,73H0M7,67H0M7,61H0M7,55H0M7,50H0M14,44H0M7,38H0M7,32H0M7,26H0M7,20H0M14,15H0M7,9H0M7,3H0" style="stroke: #000000; stroke-width: 1;"></path><g font-family="Arial" font-size="13" space="preserve" fill="#000000" text-anchor="end"><text dy=".4em" transform="translate(-3,307)">0</text><text dy=".4em" transform="translate(-3,278)">0.1</text><text dy=".4em" transform="translate(-3,249)">0.2</text><text dy=".4em" transform="translate(-3,219)">0.3</text><text dy=".4em" transform="translate(-3,190)">0.4</text><text dy=".4em" transform="translate(-3,161)">0.5</text><text dy=".4em" transform="translate(-3,132)">0.6</text><text dy=".4em" transform="translate(-3,102)">0.7</text><text dy=".4em" transform="translate(-3,73)">0.8</text><text dy=".4em" transform="translate(-3,44)">0.9</text><text dy=".4em" transform="translate(-3,15)">1</text></g></g><path d="M0,0v307M46,0v307M92,0v307M138,0v307M184,0v307M231,0v307M277,0v307M323,0v307M369,0v307M415,0v307M461,0v307" style="stroke: #000000; stroke-width: 1; stroke-dasharray: 1,2;"></path><path d="M0,307h461M0,278h461M0,249h461M0,219h461M0,190h461M0,161h461M0,132h461M0,102h461M0,73h461M0,44h461M0,15h461" style="stroke: #000000; stroke-width: 1; stroke-dasharray: 1,2;"></path></g></g><g transform="translate(58,2)" font-family="Arial" font-size="19" space="preserve"><text fill="#000000" text-anchor="middle" dy=".8em" transform="translate(231)">Student cumulative dist.</text></g><g transform="translate(346,154)" font-family="Arial" font-size="9" space="preserve"><path d="M0,0H167V77H0Z" style="fill: #ffffff; stroke: #000000; stroke-width: 1;"></path><path d="M5,14H37" style="stroke: #0000ff; stroke-width: 1;"></path><text fill="#000000" text-anchor="start" dy=".4em" transform="translate(42,14)">10 degrees of freedom</text><path d="M5,39H37" style="stroke: #ff0000; stroke-width: 1;"></path><text fill="#000000" text-anchor="start" dy=".4em" transform="translate(42,38)">3 degrees of freedom</text><path d="M5,63H37" style="stroke: #000000; stroke-width: 1;"></path><text fill="#000000" text-anchor="start" dy=".4em" transform="translate(42,63)">1 degree of freedom</text></g></g></svg><svg viewBox="0 0 576 384" preserveAspectRatio="none" x="12" y="408" width="576" height="384"><path d="M0,0H576V384H0Z" style="fill: #cccccc;"></path><g><g transform="translate(58,38)"><path d="M0,0H461V307H0Z" style="fill: #f2f2f2; stroke: #000000; stroke-width: 1;"></path><svg x="0" y="0" overflow="hidden" width="461" height="307" viewBox="0 0 461 307"><g><path d="M3,15l4,126l5,40l4,22l5,14l5,10l4,8l5,6l4,5l5,4l5,4l4,3l5,3l5,2l4,2l5,3l4,1l5,2l5,2l4,1l5,1l4,2l5,1l5,1l4,1l5,1h4l5,1l5,1l4,1l5,1h5l4,1h5l4,1l5,1h5l4,1h5h4l5,1h5l4,1h5h4l5,1h5h4l5,1h5h4l5,1h4h5h5l4,1h5h4h5l5,1h4h5h4h5l5,1h4h5h4h5l5,1h4h5h5h4h5h4l5,1h5h4h5h4h5h5h4l5,1h4h5h5h4h5h5h4h5h4l5,1h5h4h5h4h5" style="fill: none; stroke: #000000; stroke-width: 1;"></path></g><g><path d="M3,-52l4,154l5,48l4,26l5,16l5,13l4,9l5,7l4,6l5,5l5,5l4,4l5,3l5,3l4,3l5,2l4,2l5,3l5,1l4,2l5,2l4,1l5,2l5,1l4,1l5,2l4,1l5,1l5,1l4,1l5,1h5l4,1l5,1l4,1l5,1h5l4,1l5,1h4l5,1h5l4,1l5,1h4l5,1h5l4,1h5h5l4,1h5l4,1h5h5l4,1h5l4,1h5h5h4l5,1h4h5l5,1h4h5l4,1h5h5h4l5,1h5h4h5h4l5,1h5h4h5h4l5,1h5h4h5h4l5,1h5h4h5h5h4l5,1h4h5h5h4h5h4l5,1" style="fill: none; stroke: #ff0000; stroke-width: 1;"></path></g><g><path d="M3,307l4,-2l5,-6l4,-7l5,-7l5,-6l4,-5l5,-4l4,-3l5,-3l5,-1l4,-1h5h5h4h5l4,1h5l5,1l4,1l5,1h4l5,1l5,1l4,1l5,1l4,1l5,1l5,1h4l5,1l5,1l4,1h5l4,1l5,1h5l4,1l5,1h4l5,1h5l4,1l5,1h4l5,1h5l4,1h5h5l4,1h5l4,1h5h5l4,1h5h4l5,1h5h4l5,1h4h5l5,1h4h5h4l5,1h5h4h5l5,1h4h5h4l5,1h5h4h5h4h5l5,1h4h5h4h5l5,1h4h5h5h4h5h4l5,1h5h4h5h4h5" style="fill: none; stroke: #59d354; stroke-width: 1;"></path></g><g><path d="M3,307h4h5l4,-1l5,-1l5,-1l4,-2l5,-2l4,-3l5,-3l5,-4l4,-4l5,-4l5,-3l4,-4l5,-4l4,-4l5,-4l5,-3l4,-3l5,-3l4,-3l5,-2l5,-3l4,-1l5,-2l4,-2l5,-1l5,-1l4,-1h5l5,-1h4h5h4l5,1h5h4l5,1l4,1h5l5,1l4,1l5,1l4,1l5,1l5,1l4,1l5,1l5,1l4,1l5,2l4,1l5,1l5,1l4,1l5,1l4,2l5,1l5,1l4,1l5,1l4,1l5,1l5,1l4,1l5,1l4,1l5,1l5,1l4,1l5,1l5,1l4,1l5,1h4l5,1l5,1l4,1h5l4,1l5,1l5,1h4l5,1l4,1h5l5,1h4l5,1l5,1h4l5,1h4l5,1h5l4,1h5l4,1h5" style="fill: none; stroke: #0000ff; stroke-width: 1;"></path></g></svg><g><g transform="translate(0,307)"><path d="M0,0h461M0,-9V0M12,-5V0M23,-5V0M35,-5V0M46,-9V0M58,-5V0M69,-5V0M81,-5V0M92,-9V0M104,-5V0M115,-5V0M127,-5V0M138,-9V0M150,-5V0M161,-5V0M173,-5V0M184,-9V0M196,-5V0M207,-5V0M219,-5V0M231,-9V0M242,-5V0M254,-5V0M265,-5V0M277,-9V0M288,-5V0M300,-5V0M311,-5V0M323,-9V0M334,-5V0M346,-5V0M357,-5V0M369,-9V0M380,-5V0M392,-5V0M403,-5V0M415,-9V0M426,-5V0M438,-5V0M449,-5V0M461,-9V0" style="stroke: #000000; stroke-width: 1;"></path><g font-family="Arial" font-size="13" space="preserve" fill="#000000" text-anchor="middle"><text dy=".8em" transform="translate(0,3)">0</text><text dy=".8em" transform="translate(46,3)">0.2</text><text dy=".8em" transform="translate(92,3)">0.4</text><text dy=".8em" transform="translate(138,3)">0.6</text><text dy=".8em" transform="translate(184,3)">0.8</text><text dy=".8em" transform="translate(231,3)">1</text><text dy=".8em" transform="translate(277,3)">1.2</text><text dy=".8em" transform="translate(323,3)">1.4</text><text dy=".8em" transform="translate(369,3)">1.6</text><text dy=".8em" transform="translate(415,3)">1.8</text><text dy=".8em" transform="translate(461,3)">2</text></g></g><g><path d="M0,0v307M14,307H0M7,298H0M7,288H0M7,279H0M7,270H0M14,261H0M7,251H0M7,242H0M7,233H0M7,224H0M14,214H0M7,205H0M7,196H0M7,186H0M7,177H0M14,168H0M7,159H0M7,149H0M7,140H0M7,131H0M14,121H0M7,112H0M7,103H0M7,94H0M7,84H0M14,75H0M7,66H0M7,57H0M7,47H0M7,38H0M14,29H0M7,19H0M7,10H0M7,1H0" style="stroke: #000000; stroke-width: 1;"></path><g font-family="Arial" font-size="13" space="preserve" fill="#000000" text-anchor="end"><text dy=".4em" transform="translate(-3,307)">0</text><text dy=".4em" transform="translate(-3,261)">0.5</text><text dy=".4em" transform="translate(-3,214)">1</text><text dy=".4em" transform="translate(-3,168)">1.5</text><text dy=".4em" transform="translate(-3,121)">2</text><text dy=".4em" transform="translate(-3,75)">2.5</text><text dy=".4em" transform="translate(-3,29)">3</text></g></g><path d="M0,0v307M46,0v307M92,0v307M138,0v307M184,0v307M231,0v307M277,0v307M323,0v307M369,0v307M415,0v307M461,0v307" style="stroke: #000000; stroke-width: 1; stroke-dasharray: 1,2;"></path><path d="M0,307h461M0,261h461M0,214h461M0,168h461M0,121h461M0,75h461M0,29h461" style="stroke: #000000; stroke-width: 1; stroke-dasharray: 1,2;"></path></g></g><g transform="translate(58,2)" font-family="Arial" font-size="19" space="preserve"><text fill="#000000" text-anchor="middle" dy=".8em" transform="translate(231)">F-Dist. density</text></g><g transform="translate(403,42)" font-family="Arial" font-size="14" space="preserve"><path d="M0,0H109V73H0Z" style="fill: #ffffff; stroke: #000000; stroke-width: 1;"></path><path d="M3,11H24" style="stroke: #000000; stroke-width: 1;"></path><text fill="#000000" text-anchor="start" dy=".4em" transform="translate(27,11)">N=1 M=1</text><path d="M3,28H24" style="stroke: #ff0000; stroke-width: 1;"></path><text fill="#000000" text-anchor="start" dy=".4em" transform="translate(27,28)">N=1 M=10</text><path d="M3,45H24" style="stroke: #59d354; stroke-width: 1;"></path><text fill="#000000" text-anchor="start" dy=".4em" transform="translate(27,46)">N=10 M=1</text><path d="M3,62H24" style="stroke: #0000ff; stroke-width: 1;"></path><text fill="#000000" text-anchor="start" dy=".4em" transform="translate(27,63)">N=10 M=10</text></g></g></svg><svg viewBox="0 0 576 384" preserveAspectRatio="none" x="612" y="408" width="576" height="384"><path d="M0,0H576V384H0Z" style="fill: #cccccc;"></path><g><g transform="translate(58,38)"><path d="M0,0H461V307H0Z" style="fill: #f2f2f2; stroke: #000000; stroke-width: 1;"></path><svg x="0" y="0" overflow="hidden" width="461" height="307" viewBox="0 0 461 307"><g><path d="M3,293l4,-23l5,-16l4,-13l5,-10l5,-10l4,-8l5,-8l4,-7l5,-6l5,-6l4,-6l5,-6l5,-5l4,-4l5,-5l4,-4l5,-5l5,-4l4,-3l5,-4l4,-4l5,-3l5,-3l4,-3l5,-4l4,-3l5,-2l5,-3l4,-3l5,-3l5,-2l4,-3l5,-2l4,-2l5,-3l5,-2l4,-2l5,-2l4,-2l5,-2l5,-2l4,-2l5,-2l4,-2l5,-2l5,-1l4,-2l5,-2l5,-2l4,-1l5,-2l4,-1l5,-2l5,-1l4,-2l5,-1l4,-2l5,-1l5,-2l4,-1l5,-1l4,-2l5,-1l5,-1l4,-1l5,-2l4,-1l5,-1l5,-1l4,-1l5,-1l5,-1l4,-2l5,-1l4,-1l5,-1l5,-1l4,-1l5,-1l4,-1l5,-1l5,-1l4,-1l5,-1l4,-1h5l5,-1l4,-1l5,-1l5,-1l4,-1l5,-1l4,-1h5l5,-1l4,-1l5,-1l4,-1h5" style="fill: none; stroke: #000000; stroke-width: 1;"></path></g><g><path d="M3,286l4,-29l5,-20l4,-16l5,-13l5,-12l4,-11l5,-10l4,-9l5,-8l5,-8l4,-8l5,-7l5,-7l4,-6l5,-6l4,-6l5,-6l5,-5l4,-6l5,-5l4,-5l5,-4l5,-5l4,-4l5,-5l4,-4l5,-4l5,-4l4,-4l5,-4l5,-3l4,-4l5,-3l4,-4l5,-3l5,-3l4,-3l5,-3l4,-3l5,-3l5,-3l4,-3l5,-2l4,-3l5,-3l5,-2l4,-3l5,-2l5,-3l4,-2l5,-2l4,-3l5,-2l5,-2l4,-2l5,-2l4,-2l5,-2l5,-2l4,-2l5,-2l4,-2l5,-2l5,-2l4,-1l5,-2l4,-2l5,-2l5,-1l4,-2l5,-2l5,-1l4,-2l5,-1l4,-2l5,-1l5,-2l4,-1l5,-2l4,-1l5,-1l5,-2l4,-1l5,-1l4,-2l5,-1l5,-1l4,-1l5,-2l5,-1l4,-1l5,-1l4,-1l5,-1l5,-1l4,-2l5,-1l4,-1l5,-1" style="fill: none; stroke: #ff0000; stroke-width: 1;"></path></g><g><path d="M3,326l4,-1h5l4,-1l5,-2l5,-3l4,-4l5,-3l4,-5l5,-4l5,-5l4,-5l5,-5l5,-5l4,-5l5,-5l4,-5l5,-5l5,-5l4,-4l5,-5l4,-4l5,-5l5,-4l4,-4l5,-5l4,-4l5,-4l5,-3l4,-4l5,-4l5,-3l4,-4l5,-3l4,-4l5,-3l5,-3l4,-3l5,-3l4,-3l5,-3l5,-3l4,-3l5,-3l4,-2l5,-3l5,-2l4,-3l5,-2l5,-3l4,-2l5,-2l4,-3l5,-2l5,-2l4,-2l5,-2l4,-2l5,-2l5,-2l4,-2l5,-2l4,-2l5,-2l5,-2l4,-2l5,-1l4,-2l5,-2l5,-1l4,-2l5,-2l5,-1l4,-2l5,-1l4,-2l5,-1l5,-2l4,-1l5,-2l4,-1l5,-2l5,-1l4,-1l5,-2l4,-1l5,-1l5,-2l4,-1l5,-1l5,-1l4,-1l5,-2l4,-1l5,-1l5,-1l4,-1l5,-1l4,-2l5,-1" style="fill: none; stroke: #59d354; stroke-width: 1;"></path></g><g><path d="M3,326h4h5l4,-1h5h5h4l5,-1l4,-1l5,-1l5,-2l4,-2l5,-2l5,-3l4,-4l5,-4l4,-4l5,-4l5,-5l4,-6l5,-5l4,-6l5,-7l5,-6l4,-7l5,-7l4,-7l5,-8l5,-7l4,-8l5,-7l5,-8l4,-7l5,-8l4,-8l5,-8l5,-7l4,-8l5,-7l4,-8l5,-7l5,-8l4,-7l5,-7l4,-7l5,-7l5,-7l4,-6l5,-7l5,-6l4,-7l5,-6l4,-6l5,-6l5,-5l4,-6l5,-6l4,-5l5,-5l5,-5l4,-6l5,-4l4,-5l5,-5l5,-4l4,-5l5,-4l4,-4l5,-5l5,-4l4,-4l5,-3l5,-4l4,-4l5,-3l4,-4l5,-3l5,-3l4,-3l5,-3l4,-3l5,-3l5,-3l4,-3l5,-3l4,-2l5,-3l5,-2l4,-3l5,-2l5,-2l4,-3l5,-2l4,-2l5,-2l5,-2l4,-2l5,-2l4,-2l5,-1" style="fill: none; stroke: #0000ff; stroke-width: 1;"></path></g></svg><g><g transform="translate(0,307)"><path d="M0,0h461M0,-9V0M12,-5V0M23,-5V0M35,-5V0M46,-9V0M58,-5V0M69,-5V0M81,-5V0M92,-9V0M104,-5V0M115,-5V0M127,-5V0M138,-9V0M150,-5V0M161,-5V0M173,-5V0M184,-9V0M196,-5V0M207,-5V0M219,-5V0M231,-9V0M242,-5V0M254,-5V0M265,-5V0M277,-9V0M288,-5V0M300,-5V0M311,-5V0M323,-9V0M334,-5V0M346,-5V0M357,-5V0M369,-9V0M380,-5V0M392,-5V0M403,-5V0M415,-9V0M426,-5V0M438,-5V0M449,-5V0M461,-9V0" style="stroke: #000000; stroke-width: 1;"></path><g font-family="Arial" font-size="13" space="preserve" fill="#000000" text-anchor="middle"><text dy=".8em" transform="translate(0,3)">0</text><text dy=".8em" transform="translate(46,3)">0.2</text><text dy=".8em" transform="translate(92,3)">0.4</text><text dy=".8em" transform="translate(138,3)">0.6</text><text dy=".8em" transform="translate(184,3)">0.8</text><text dy=".8em" transform="translate(231,3)">1</text><text dy=".8em" transform="translate(277,3)">1.2</text><text dy=".8em" transform="translate(323,3)">1.4</text><text dy=".8em" transform="translate(369,3)">1.6</text><text dy=".8em" transform="translate(415,3)">1.8</text><text dy=".8em" transform="translate(461,3)">2</text></g></g><g><path d="M0,0v307M7,305H0M7,295H0M7,285H0M14,274H0M7,264H0M7,254H0M7,244H0M7,233H0M14,223H0M7,213H0M7,203H0M7,192H0M7,182H0M14,172H0M7,162H0M7,152H0M7,141H0M7,131H0M14,121H0M7,111H0M7,100H0M7,90H0M7,80H0M14,70H0M7,59H0M7,49H0M7,39H0M7,29H0M14,18H0M7,8H0" style="stroke: #000000; stroke-width: 1;"></path><g font-family="Arial" font-size="13" space="preserve" fill="#000000" text-anchor="end"><text dy=".4em" transform="translate(-3,274)">0.1</text><text dy=".4em" transform="translate(-3,223)">0.2</text><text dy=".4em" transform="translate(-3,172)">0.3</text><text dy=".4em" transform="translate(-3,121)">0.4</text><text dy=".4em" transform="translate(-3,70)">0.5</text><text dy=".4em" transform="translate(-3,18)">0.6</text></g></g><path d="M0,0v307M46,0v307M92,0v307M138,0v307M184,0v307M231,0v307M277,0v307M323,0v307M369,0v307M415,0v307M461,0v307" style="stroke: #000000; stroke-width: 1; stroke-dasharray: 1,2;"></path><path d="M0,274h461M0,223h461M0,172h461M0,121h461M0,70h461M0,18h461" style="stroke: #000000; stroke-width: 1; stroke-dasharray: 1,2;"></path></g></g><g transform="translate(58,2)" font-family="Arial" font-size="19" space="preserve"><text fill="#000000" text-anchor="middle" dy=".8em" transform="translate(231)">Cumulative dist. function for F</text></g><g transform="translate(403,192)" font-family="Arial" font-size="14" space="preserve"><path d="M0,0H109V77H0Z" style="fill: #ffffff; stroke: #000000; stroke-width: 1;"></path><path d="M3,11H24" style="stroke: #000000; stroke-width: 1;"></path><text fill="#000000" text-anchor="start" dy=".4em" transform="translate(27,11)">N=1 M=1</text><path d="M3,29H24" style="stroke: #ff0000; stroke-width: 1;"></path><text fill="#000000" text-anchor="start" dy=".4em" transform="translate(27,29)">N=1 M=10</text><path d="M3,48H24" style="stroke: #59d354; stroke-width: 1;"></path><text fill="#000000" text-anchor="start" dy=".4em" transform="translate(27,48)">N=10 M=1</text><path d="M3,66H24" style="stroke: #0000ff; stroke-width: 1;"></path><text fill="#000000" text-anchor="start" dy=".4em" transform="translate(27,66)">N=10 M=10</text></g></g></svg></g></svg>