<svg xmlns="http://www.w3.org/2000/svg" viewBox="0 0 1200 800" preserveAspectRatio="none" width="1200" height="800"><path d="M0,0H1200V800H0Z" style="fill: #ffffff;"></path><g><svg viewBox="0 0 1176 384" preserveAspectRatio="none" x="12" y="8" width="1176" height="384"><path d="M0,0H1176V384H0Z" style="fill: #ffffff;"></path><g><g transform="translate(118,38)"><path d="M0,0H941V307H0Z" style="fill: #ffffff; stroke: #000000; stroke-width: 1;"></path><svg x="0" y="0" overflow="hidden" width="941" height="307" viewBox="0 0 941 307"><g><path d="M5,307h9h10h9h10h9h9h10h9h10h9h10h9h9h10h9h10h9l9,-1h10h9h10h9l9,-1h10h9l10,-1l9,-1h9l10,-1l9,-2l10,-1l9,-2l10,-2l9,-3l9,-3l10,-4l9,-5l10,-5l9,-8l9,-8l10,-11l9,-13l10,-16l9,-20l9,-23l10,-29l9,-36l10,-43l9,-53h10l9,53l9,43l10,36l9,29l10,23l9,20l9,16l10,13l9,11l10,8l9,8l9,5l10,5l9,4l10,3l9,3l9,2l10,2l9,1l10,2l9,1h10l9,1l9,1h10h9l10,1h9h9h10h9l10,1h9h9h10h9h10h9h9h10h9h10h9h10h9h9h10h9h10" style="fill: none; stroke: #ff0000; stroke-width: 1;"></path></g><g><path d="M5,306h9h10l9,-1h10h9h9h10l9,-1h10h9h10l9,-1h9l10,-1h9l10,-1h9l9,-1l10,-1h9l10,-1l9,-1l9,-1l10,-2l9,-1l10,-1l9,-2l9,-2l10,-2l9,-2l10,-2l9,-3l10,-3l9,-3l9,-4l10,-4l9,-4l10,-5l9,-6l9,-5l10,-7l9,-7l10,-8l9,-9l9,-10l10,-11l9,-12l10,-13l9,-15h10l9,15l9,13l10,12l9,11l10,10l9,9l9,8l10,7l9,7l10,5l9,6l9,5l10,4l9,4l10,4l9,3l9,3l10,3l9,2l10,2l9,2l10,2l9,2l9,1l10,1l9,2l10,1l9,1l9,1h10l9,1l10,1h9l9,1h10l9,1h10l9,1h9h10h9l10,1h9h10h9h9l10,1h9h10" style="fill: none; stroke: #00ff00; stroke-width: 1;"></path></g><g><path d="M5,307h9h10h9h10h9h9h10h9h10h9h10h9h9h10h9h10h9h9h10h9h10h9h9h10h9h10h9l9,-1h10h9h10h9l10,-1h9h9l10,-1l9,-1h10l9,-1l9,-2l10,-1l9,-2l10,-2l9,-3l9,-3l10,-4l9,-5l10,-5l9,-8l10,-8l9,-11l9,-13l10,-16l9,-20l10,-23l9,-29l9,-36l10,-43l9,-53h10l9,53l9,43l10,36l9,29l10,23l9,20l9,16l10,13l9,11l10,8l9,8l10,5l9,5l9,4l10,3l9,3l10,2l9,2l9,1l10,2l9,1h10l9,1l9,1h10h9l10,1h9h9h10h9l10,1h9h10h9h9h10h9h10" style="fill: none; stroke: #0000ff; stroke-width: 1;"></path></g><g><path d="M5,307h9l10,-1h9h10h9h9h10h9h10h9h10h9l9,-1h10h9h10h9l9,-1h10h9h10l9,-1h9l10,-1h9l10,-1h9l9,-1l10,-1h9l10,-1l9,-1l10,-1l9,-2l9,-1l10,-1l9,-2l10,-2l9,-2l9,-2l10,-2l9,-3l10,-3l9,-3l9,-4l10,-4l9,-4l10,-5l9,-6l10,-5l9,-7l9,-7l10,-8l9,-9l10,-10l9,-11l9,-12l10,-13l9,-15h10l9,15l9,13l10,12l9,11l10,10l9,9l9,8l10,7l9,7l10,5l9,6l10,5l9,4l9,4l10,4l9,3l10,3l9,3l9,2l10,2l9,2l10,2l9,2l9,1l10,1l9,2l10,1l9,1l9,1h10l9,1l10,1h9l10,1h9l9,1h10l9,1h10" style="fill: none; stroke: #ff00ff; stroke-width: 1;"></path></g></svg><g><g transform="translate(0,307)"><path d="M0,0h941M0,-12V0M24,-6V0M47,-6V0M71,-6V0M94,-12V0M118,-6V0M141,-6V0M165,-6V0M188,-12V0M212,-6V0M235,-6V0M259,-6V0M282,-12V0M306,-6V0M329,-6V0M353,-6V0M376,-12V0M400,-6V0M423,-6V0M447,-6V0M471,-12V0M494,-6V0M518,-6V0M541,-6V0M565,-12V0M588,-6V0M612,-6V0M635,-6V0M659,-12V0M682,-6V0M706,-6V0M729,-6V0M753,-12V0M776,-6V0M800,-6V0M823,-6V0M847,-12V0M870,-6V0M894,-6V0M917,-6V0M941,-12V0" style="stroke: #000000; stroke-width: 1;"></path><g font-family="Arial" font-size="13" space="preserve" fill="#000000" text-anchor="middle"><text dy=".8em" transform="translate(0,3)">-10</text><text dy=".8em" transform="translate(94,3)">-8</text><text dy=".8em" transform="translate(188,3)">-6</text><text dy=".8em" transform="translate(282,3)">-4</text><text dy=".8em" transform="translate(376,3)">-2</text><text dy=".8em" transform="translate(471,3)">0</text><text dy=".8em" transform="translate(565,3)">2</text><text dy=".8em" transform="translate(659,3)">4</text><text dy=".8em" transform="translate(753,3)">6</text><text dy=".8em" transform="translate(847,3)">8</text><text dy=".8em" transform="translate(941,3)">10</text></g></g><g><path d="M0,0v307M35,307H0M18,301H0M18,294H0M18,288H0M18,281H0M35,275H0M18,268H0M18,262H0M18,255H0M18,249H0M35,242H0M18,236H0M18,229H0M18,223H0M18,217H0M35,210H0M18,204H0M18,197H0M18,191H0M18,184H0M35,178H0M18,171H0M18,165H0M18,158H0M18,152H0M35,145H0M18,139H0M18,133H0M18,126H0M18,120H0M35,113H0M18,107H0M18,100H0M18,94H0M18,87H0M35,81H0M18,74H0M18,68H0M18,61H0M18,55H0M35,48H0M18,42H0M18,36H0M18,29H0M18,23H0M35,16H0M18,10H0M18,3H0" style="stroke: #000000; stroke-width: 1;"></path><g font-family="Arial" font-size="13" space="preserve" fill="#000000" text-anchor="end"><text dy=".4em" transform="translate(-3,307)">0</text><text dy=".4em" transform="translate(-3,275)">0.05</text><text dy=".4em" transform="translate(-3,242)">0.1</text><text dy=".4em" transform="translate(-3,210)">0.15</text><text dy=".4em" transform="translate(-3,178)">0.2</text><text dy=".4em" transform="translate(-3,145)">0.25</text><text dy=".4em" transform="translate(-3,113)">0.3</text><text dy=".4em" transform="translate(-3,81)">0.35</text><text dy=".4em" transform="translate(-3,48)">0.4</text><text dy=".4em" transform="translate(-3,16)">0.45</text></g></g><path d="M0,0v307M94,0v307M188,0v307M282,0v307M376,0v307M471,0v307M565,0v307M659,0v307M753,0v307M847,0v307M941,0v307" style="stroke: #000000; stroke-width: 1; stroke-dasharray: 1,2;"></path><path d="M0,307h941M0,275h941M0,242h941M0,210h941M0,178h941M0,145h941M0,113h941M0,81h941M0,48h941M0,16h941" style="stroke: #000000; stroke-width: 1; stroke-dasharray: 1,2;"></path></g></g><g transform="translate(118,2)" font-family="Arial" font-size="19" space="preserve"><text fill="#000000" text-anchor="middle" dy=".8em" transform="translate(471)">TMath::LaplaceDist(x, [0], [1])</text></g><g transform="translate(823,38)" font-family="Arial" font-size="15" space="preserve"><path d="M0,0H235V77H0Z" style="fill: #ffffff; stroke: #000000; stroke-width: 1;"></path><path d="M7,11H52" style="stroke: #ff0000; stroke-width: 1;"></path><text fill="#000000" text-anchor="start" dy=".4em" transform="translate(59,11)">alpha=0 beta=1</text><path d="M7,29H52" style="stroke: #00ff00; stroke-width: 1;"></path><text fill="#000000" text-anchor="start" dy=".4em" transform="translate(59,29)">alpha=0 beta=2</text><path d="M7,48H52" style="stroke: #0000ff; stroke-width: 1;"></path><text fill="#000000" text-anchor="start" dy=".4em" transform="translate(59,48)">alpha=2 beta=1</text><path d="M7,66H52" style="stroke: #ff00ff; stroke-width: 1;"></path><text fill="#000000" text-anchor="start" dy=".4em" transform="translate(59,66)">alpha=2 beta=2</text></g></g></svg><svg viewBox="0 0 1176 384" preserveAspectRatio="none" x="12" y="408" width="1176" height="384"><path d="M0,0H1176V384H0Z" style="fill: #ffffff;"></path><g><g transform="translate(118,38)"><path d="M0,0H941V307H0Z" style="fill: #ffffff; stroke: #000000; stroke-width: 1;"></path><svg x="0" y="0" overflow="hidden" width="941" height="307" viewBox="0 0 941 307"><g><path d="M5,307h9h10h9h10h9h9h10h9h10h9h10h9h9h10h9h10h9h9h10h9h10l9,-1h9h10h9h10l9,-1h9h10l9,-1l10,-1h9l10,-1l9,-2l9,-1l10,-2l9,-2l10,-3l9,-3l9,-4l10,-5l9,-6l10,-7l9,-9l9,-10l10,-14l9,-16l10,-19l9,-24l10,-28l9,-24l9,-20l10,-16l9,-13l10,-11l9,-9l9,-7l10,-6l9,-5l10,-3l9,-4l9,-2l10,-3l9,-1l10,-2l9,-1l9,-1l10,-1h9l10,-1h9l10,-1h9h9h10l9,-1h10h9h9h10h9h10h9h9h10h9h10h9h9h10h9h10h9h10h9h9h10h9h10" style="fill: none; stroke: #ff0000; stroke-width: 1;"></path></g><g><path d="M5,306h9h10h9l10,-1h9h9h10h9l10,-1h9h10h9l9,-1h10l9,-1h10l9,-1h9l10,-1l9,-1h10l9,-1l9,-1l10,-1l9,-2l10,-1l9,-1l9,-2l10,-2l9,-2l10,-2l9,-2l10,-3l9,-3l9,-3l10,-4l9,-4l10,-4l9,-5l9,-6l10,-5l9,-7l10,-7l9,-8l9,-9l10,-10l9,-11l10,-12l9,-13l10,-14l9,-14l9,-12l10,-10l9,-10l10,-9l9,-8l9,-7l10,-7l9,-6l10,-5l9,-5l9,-5l10,-3l9,-4l10,-3l9,-3l9,-3l10,-2l9,-3l10,-2l9,-1l10,-2l9,-1l9,-2l10,-1l9,-1l10,-1l9,-1l9,-1h10l9,-1l10,-1h9l9,-1h10l9,-1h10h9l9,-1h10h9h10l9,-1h10h9h9h10h9h10" style="fill: none; stroke: #00ff00; stroke-width: 1;"></path></g><g><path d="M5,307h9h10h9h10h9h9h10h9h10h9h10h9h9h10h9h10h9h9h10h9h10h9h9h10h9h10h9h9h10h9h10l9,-1h10h9h9h10l9,-1h10h9l9,-1l10,-1h9l10,-1l9,-2l9,-1l10,-2l9,-2l10,-3l9,-3l10,-4l9,-5l9,-6l10,-7l9,-9l10,-10l9,-14l9,-16l10,-19l9,-24l10,-28l9,-24l9,-20l10,-16l9,-13l10,-11l9,-9l9,-7l10,-6l9,-5l10,-3l9,-4l10,-2l9,-3l9,-1l10,-2l9,-1l10,-1l9,-1h9l10,-1h9l10,-1h9h9h10l9,-1h10h9h9h10h9h10h9h10h9h9h10h9h10" style="fill: none; stroke: #0000ff; stroke-width: 1;"></path></g><g><path d="M5,307h9h10l9,-1h10h9h9h10h9h10h9h10h9h9l10,-1h9h10h9h9l10,-1h9h10h9l9,-1h10l9,-1h10l9,-1h9l10,-1l9,-1h10l9,-1l10,-1l9,-1l9,-2l10,-1l9,-1l10,-2l9,-2l9,-2l10,-2l9,-2l10,-3l9,-3l9,-3l10,-4l9,-4l10,-4l9,-5l10,-6l9,-5l9,-7l10,-7l9,-8l10,-9l9,-10l9,-11l10,-12l9,-13l10,-14l9,-14l9,-12l10,-10l9,-10l10,-9l9,-8l9,-7l10,-7l9,-6l10,-5l9,-5l10,-5l9,-3l9,-4l10,-3l9,-3l10,-3l9,-2l9,-3l10,-2l9,-1l10,-2l9,-1l9,-2l10,-1l9,-1l10,-1l9,-1l9,-1h10l9,-1l10,-1h9l10,-1h9l9,-1h10h9l10,-1" style="fill: none; stroke: #ff00ff; stroke-width: 1;"></path></g></svg><g><g transform="translate(0,307)"><path d="M0,0h941M0,-12V0M24,-6V0M47,-6V0M71,-6V0M94,-12V0M118,-6V0M141,-6V0M165,-6V0M188,-12V0M212,-6V0M235,-6V0M259,-6V0M282,-12V0M306,-6V0M329,-6V0M353,-6V0M376,-12V0M400,-6V0M423,-6V0M447,-6V0M471,-12V0M494,-6V0M518,-6V0M541,-6V0M565,-12V0M588,-6V0M612,-6V0M635,-6V0M659,-12V0M682,-6V0M706,-6V0M729,-6V0M753,-12V0M776,-6V0M800,-6V0M823,-6V0M847,-12V0M870,-6V0M894,-6V0M917,-6V0M941,-12V0" style="stroke: #000000; stroke-width: 1;"></path><g font-family="Arial" font-size="13" space="preserve" fill="#000000" text-anchor="middle"><text dy=".8em" transform="translate(0,3)">-10</text><text dy=".8em" transform="translate(94,3)">-8</text><text dy=".8em" transform="translate(188,3)">-6</text><text dy=".8em" transform="translate(282,3)">-4</text><text dy=".8em" transform="translate(376,3)">-2</text><text dy=".8em" transform="translate(471,3)">0</text><text dy=".8em" transform="translate(565,3)">2</text><text dy=".8em" transform="translate(659,3)">4</text><text dy=".8em" transform="translate(753,3)">6</text><text dy=".8em" transform="translate(847,3)">8</text><text dy=".8em" transform="translate(941,3)">10</text></g></g><g><path d="M0,0v307M35,307H0M18,301H0M18,295H0M18,289H0M18,284H0M35,278H0M18,272H0M18,266H0M18,260H0M18,254H0M35,249H0M18,243H0M18,237H0M18,231H0M18,225H0M35,219H0M18,213H0M18,208H0M18,202H0M18,196H0M35,190H0M18,184H0M18,178H0M18,173H0M18,167H0M35,161H0M18,155H0M18,149H0M18,143H0M18,137H0M35,132H0M18,126H0M18,120H0M18,114H0M18,108H0M35,102H0M18,96H0M18,91H0M18,85H0M18,79H0M35,73H0M18,67H0M18,61H0M18,56H0M18,50H0M35,44H0M18,38H0M18,32H0M18,26H0M18,20H0M35,15H0M18,9H0M18,3H0" style="stroke: #000000; stroke-width: 1;"></path><g font-family="Arial" font-size="13" space="preserve" fill="#000000" text-anchor="end"><text dy=".4em" transform="translate(-3,307)">0</text><text dy=".4em" transform="translate(-3,278)">0.1</text><text dy=".4em" transform="translate(-3,249)">0.2</text><text dy=".4em" transform="translate(-3,219)">0.3</text><text dy=".4em" transform="translate(-3,190)">0.4</text><text dy=".4em" transform="translate(-3,161)">0.5</text><text dy=".4em" transform="translate(-3,132)">0.6</text><text dy=".4em" transform="translate(-3,102)">0.7</text><text dy=".4em" transform="translate(-3,73)">0.8</text><text dy=".4em" transform="translate(-3,44)">0.9</text><text dy=".4em" transform="translate(-3,15)">1</text></g></g><path d="M0,0v307M94,0v307M188,0v307M282,0v307M376,0v307M471,0v307M565,0v307M659,0v307M753,0v307M847,0v307M941,0v307" style="stroke: #000000; stroke-width: 1; stroke-dasharray: 1,2;"></path><path d="M0,307h941M0,278h941M0,249h941M0,219h941M0,190h941M0,161h941M0,132h941M0,102h941M0,73h941M0,44h941M0,15h941" style="stroke: #000000; stroke-width: 1; stroke-dasharray: 1,2;"></path></g></g><g transform="translate(118,2)" font-family="Arial" font-size="19" space="preserve"><text fill="#000000" text-anchor="middle" dy=".8em" transform="translate(471)">TMath::LaplaceDistI(x, [0], [1])</text></g><g transform="translate(823,250)" font-family="Arial" font-size="15" space="preserve"><path d="M0,0H235V77H0Z" style="fill: #ffffff; stroke: #000000; stroke-width: 1;"></path><path d="M7,11H52" style="stroke: #ff0000; stroke-width: 1;"></path><text fill="#000000" text-anchor="start" dy=".4em" transform="translate(59,11)">alpha=0 beta=1</text><path d="M7,29H52" style="stroke: #00ff00; stroke-width: 1;"></path><text fill="#000000" text-anchor="start" dy=".4em" transform="translate(59,29)">alpha=0 beta=2</text><path d="M7,48H52" style="stroke: #0000ff; stroke-width: 1;"></path><text fill="#000000" text-anchor="start" dy=".4em" transform="translate(59,48)">alpha=2 beta=1</text><path d="M7,66H52" style="stroke: #ff00ff; stroke-width: 1;"></path><text fill="#000000" text-anchor="start" dy=".4em" transform="translate(59,66)">alpha=2 beta=2</text></g></g></svg></g></svg>