<svg xmlns="http://www.w3.org/2000/svg" viewBox="0 0 1200 800" preserveAspectRatio="none" width="1200" height="800"><path d="M0,0H1200V800H0Z" style="fill: #ffffff;"></path><g><svg viewBox="0 0 1176 384" preserveAspectRatio="none" x="12" y="8" width="1176" height="384"><path d="M0,0H1176V384H0Z" style="fill: #ffffff;"></path><g><g transform="translate(118,38)"><path d="M0,0H941V307H0Z" style="fill: #ffffff; stroke: #000000; stroke-width: 1;"></path><svg x="0" y="0" overflow="hidden" width="941" height="307" viewBox="0 0 941 307"><g><path d="M5,15l9,136l10,41l9,22l10,15l9,10l9,7l10,6l9,5l10,4l9,3l10,3l9,3l9,2l10,2l9,2l10,1l9,2l9,1l10,1l9,1l10,1l9,1l9,1l10,1h9l10,1l9,1h9l10,1h9l10,1h9h10l9,1h9h10l9,1h10h9h9h10l9,1h10h9h9h10h9h10h9h10h9h9h10h9h10h9h9l10,-1h9h10h9h9l10,-1h9h10l9,-1h9h10l9,-1h10l9,-1h10l9,-1l9,-1h10l9,-1l10,-1l9,-1l9,-1l10,-1l9,-1l10,-1l9,-2l9,-1l10,-2l9,-2l10,-2l9,-3l9,-3l10,-3l9,-4l10,-5l9,-6l10,-7l9,-10l9,-15l10,-22l9,-41l10,-136" style="fill: none; stroke: #ff0000; stroke-width: 1;"></path></g><g><path d="M5,-419l9,324l10,102l9,54l10,35l9,26l9,19l10,16l9,13l10,11l9,9l10,8l9,7l9,7l10,6l9,5l10,5l9,5l9,4l10,4l9,3l10,4l9,3l9,3l10,3l9,2l10,3l9,2l9,3l10,2l9,2l10,2l9,2l10,2l9,2l9,1l10,2l9,2l10,1l9,2l9,1l10,2l9,1l10,2l9,1l9,1l10,2l9,1l10,1l9,1l10,1l9,1l9,1l10,2l9,1l10,1l9,1l9,1l10,1l9,1h10l9,1l9,1l10,1l9,1l10,1l9,1h9l10,1l9,1l10,1l9,1h10l9,1l9,1l10,1h9l10,1l9,1h9l10,1l9,1h10l9,1l9,1h10l9,1l10,1h9l9,1h10l9,1l10,1h9l10,1h9l9,1h10l9,1l10,1" style="fill: none; stroke: #00ff00; stroke-width: 1;"></path></g><g><path d="M5,339l9,-1l10,-1h9l10,-1h9l9,-1h10l9,-1l10,-1h9l10,-1h9l9,-1l10,-1h9l10,-1l9,-1h9l10,-1l9,-1h10l9,-1l9,-1h10l9,-1l10,-1l9,-1h9l10,-1l9,-1l10,-1l9,-1h10l9,-1l9,-1l10,-1l9,-1l10,-1l9,-1h9l10,-1l9,-1l10,-1l9,-1l9,-1l10,-1l9,-2l10,-1l9,-1l10,-1l9,-1l9,-1l10,-1l9,-2l10,-1l9,-1l9,-2l10,-1l9,-2l10,-1l9,-2l9,-1l10,-2l9,-2l10,-1l9,-2l9,-2l10,-2l9,-2l10,-2l9,-2l10,-3l9,-2l9,-3l10,-2l9,-3l10,-3l9,-3l9,-4l10,-3l9,-4l10,-4l9,-5l9,-5l10,-5l9,-6l10,-7l9,-7l9,-8l10,-9l9,-11l10,-13l9,-16l10,-19l9,-26l9,-35l10,-54l9,-102l10,-324" style="fill: none; stroke: #0000ff; stroke-width: 1;"></path></g><g><path d="M5,337l9,-5l10,-4l9,-4l10,-4l9,-4l9,-3l10,-4l9,-4l10,-3l9,-4l10,-3l9,-3l9,-4l10,-3l9,-3l10,-3l9,-2l9,-3l10,-3l9,-2l10,-3l9,-2l9,-3l10,-2l9,-2l10,-2l9,-2l9,-2l10,-2l9,-2l10,-1l9,-2l10,-1l9,-2l9,-1l10,-1l9,-1l10,-1l9,-1l9,-1l10,-1l9,-1h10l9,-1h9h10l9,-1h10h9h10h9h9l10,1h9h10l9,1h9l10,1l9,1l10,1l9,1l9,1l10,1l9,1l10,1l9,2l9,1l10,2l9,1l10,2l9,2l10,2l9,2l9,2l10,2l9,2l10,3l9,2l9,3l10,2l9,3l10,3l9,2l9,3l10,3l9,3l10,4l9,3l9,3l10,4l9,3l10,4l9,4l10,3l9,4l9,4l10,4l9,4l10,5" style="fill: none; stroke: #ff00ff; stroke-width: 1;"></path></g></svg><g><g transform="translate(0,307)"><path d="M0,0h941M0,-9V0M19,-5V0M38,-5V0M56,-5V0M75,-5V0M94,-9V0M113,-5V0M132,-5V0M151,-5V0M169,-5V0M188,-9V0M207,-5V0M226,-5V0M245,-5V0M263,-5V0M282,-9V0M301,-5V0M320,-5V0M339,-5V0M358,-5V0M376,-9V0M395,-5V0M414,-5V0M433,-5V0M452,-5V0M471,-9V0M489,-5V0M508,-5V0M527,-5V0M546,-5V0M565,-9V0M583,-5V0M602,-5V0M621,-5V0M640,-5V0M659,-9V0M678,-5V0M696,-5V0M715,-5V0M734,-5V0M753,-9V0M772,-5V0M790,-5V0M809,-5V0M828,-5V0M847,-9V0M866,-5V0M885,-5V0M903,-5V0M922,-5V0M941,-9V0" style="stroke: #000000; stroke-width: 1;"></path><g font-family="Arial" font-size="13" space="preserve" fill="#000000" text-anchor="middle"><text dy=".8em" transform="translate(0,3)">0</text><text dy=".8em" transform="translate(94,3)">0.1</text><text dy=".8em" transform="translate(188,3)">0.2</text><text dy=".8em" transform="translate(282,3)">0.3</text><text dy=".8em" transform="translate(376,3)">0.4</text><text dy=".8em" transform="translate(471,3)">0.5</text><text dy=".8em" transform="translate(565,3)">0.6</text><text dy=".8em" transform="translate(659,3)">0.7</text><text dy=".8em" transform="translate(753,3)">0.8</text><text dy=".8em" transform="translate(847,3)">0.9</text><text dy=".8em" transform="translate(941,3)">1</text></g></g><g><path d="M0,0v307M28,303H0M14,296H0M14,289H0M14,281H0M14,274H0M28,267H0M14,260H0M14,253H0M14,245H0M14,238H0M28,231H0M14,224H0M14,217H0M14,210H0M14,202H0M28,195H0M14,188H0M14,181H0M14,174H0M14,166H0M28,159H0M14,152H0M14,145H0M14,138H0M14,130H0M28,123H0M14,116H0M14,109H0M14,102H0M14,95H0M28,87H0M14,80H0M14,73H0M14,66H0M14,59H0M28,51H0M14,44H0M14,37H0M14,30H0M14,23H0M28,16H0M14,8H0M14,1H0" style="stroke: #000000; stroke-width: 1;"></path><g font-family="Arial" font-size="13" space="preserve" fill="#000000" text-anchor="end"><text dy=".4em" transform="translate(-3,303)">0.5</text><text dy=".4em" transform="translate(-3,267)">1</text><text dy=".4em" transform="translate(-3,231)">1.5</text><text dy=".4em" transform="translate(-3,195)">2</text><text dy=".4em" transform="translate(-3,159)">2.5</text><text dy=".4em" transform="translate(-3,123)">3</text><text dy=".4em" transform="translate(-3,87)">3.5</text><text dy=".4em" transform="translate(-3,51)">4</text><text dy=".4em" transform="translate(-3,16)">4.5</text></g></g><path d="M0,0v307M94,0v307M188,0v307M282,0v307M376,0v307M471,0v307M565,0v307M659,0v307M753,0v307M847,0v307M941,0v307" style="stroke: #000000; stroke-width: 1; stroke-dasharray: 1,2;"></path><path d="M0,303h941M0,267h941M0,231h941M0,195h941M0,159h941M0,123h941M0,87h941M0,51h941M0,16h941" style="stroke: #000000; stroke-width: 1; stroke-dasharray: 1,2;"></path></g></g><g transform="translate(118,2)" font-family="Arial" font-size="19" space="preserve"><text fill="#000000" text-anchor="middle" dy=".8em" transform="translate(471)">TMath::BetaDist(x, [0], [1])</text></g><g transform="translate(588,38)" font-family="Arial" font-size="15" space="preserve"><path d="M0,0H353V77H0Z" style="fill: #ffffff; stroke: #000000; stroke-width: 1;"></path><path d="M11,11H77" style="stroke: #ff0000; stroke-width: 1;"></path><text fill="#000000" text-anchor="start" dy=".4em" transform="translate(88,11)">p=0.5  q=0.5</text><path d="M11,29H77" style="stroke: #00ff00; stroke-width: 1;"></path><text fill="#000000" text-anchor="start" dy=".4em" transform="translate(88,29)">p=0.5  q=2</text><path d="M11,48H77" style="stroke: #0000ff; stroke-width: 1;"></path><text fill="#000000" text-anchor="start" dy=".4em" transform="translate(88,48)">p=2    q=0.5</text><path d="M11,66H77" style="stroke: #ff00ff; stroke-width: 1;"></path><text fill="#000000" text-anchor="start" dy=".4em" transform="translate(88,66)">p=2    q=2</text></g></g></svg><svg viewBox="0 0 1176 384" preserveAspectRatio="none" x="12" y="408" width="1176" height="384"><path d="M0,0H1176V384H0Z" style="fill: #ffffff;"></path><g><g transform="translate(118,38)"><path d="M0,0H941V307H0Z" style="fill: #ffffff; stroke: #000000; stroke-width: 1;"></path><svg x="0" y="0" overflow="hidden" width="941" height="307" viewBox="0 0 941 307"><g><path d="M5,293l9,-10l10,-7l9,-6l10,-5l9,-4l9,-4l10,-4l9,-4l10,-3l9,-3l10,-3l9,-3l9,-3l10,-3l9,-3l10,-3l9,-2l9,-3l10,-2l9,-3l10,-2l9,-2l9,-3l10,-2l9,-2l10,-2l9,-3l9,-2l10,-2l9,-2l10,-2l9,-2l10,-2l9,-2l9,-2l10,-2l9,-2l10,-2l9,-2l9,-2l10,-2l9,-2l10,-2l9,-2l9,-2l10,-2l9,-2l10,-2l9,-2l10,-2l9,-2l9,-2l10,-2l9,-2l10,-2l9,-2l9,-2l10,-2l9,-2l10,-2l9,-2l9,-2l10,-2l9,-2l10,-2l9,-2l9,-2l10,-2l9,-2l10,-2l9,-2l10,-3l9,-2l9,-2l10,-2l9,-3l10,-2l9,-2l9,-3l10,-2l9,-3l10,-2l9,-3l9,-2l10,-3l9,-3l10,-3l9,-3l9,-3l10,-3l9,-4l10,-3l9,-4l10,-4l9,-5l9,-4l10,-6l9,-7l10,-10" style="fill: none; stroke: #ff0000; stroke-width: 1;"></path></g><g><path d="M5,275l9,-24l10,-16l9,-13l10,-11l9,-10l9,-9l10,-8l9,-7l10,-7l9,-7l10,-6l9,-6l9,-5l10,-5l9,-5l10,-5l9,-5l9,-4l10,-5l9,-4l10,-4l9,-4l9,-3l10,-4l9,-3l10,-4l9,-3l9,-3l10,-3l9,-3l10,-3l9,-2l10,-3l9,-3l9,-2l10,-3l9,-2l10,-2l9,-3l9,-2l10,-2l9,-2l10,-2l9,-2l9,-2l10,-2l9,-1l10,-2l9,-2l10,-1l9,-2l9,-2l10,-1l9,-1l10,-2l9,-1l9,-2l10,-1l9,-1l10,-1l9,-1l9,-1l10,-2l9,-1l10,-1h9l9,-1l10,-1l9,-1l10,-1l9,-1l10,-1h9l9,-1l10,-1h9l10,-1h9l9,-1h10l9,-1h10l9,-1h9l10,-1h9h10l9,-1h9h10h9l10,-1h9h10h9h9h10h9h10" style="fill: none; stroke: #00ff00; stroke-width: 1;"></path></g><g><path d="M5,307h9h10h9h10h9h9l10,-1h9h10h9l10,-1h9h9l10,-1h9h10l9,-1h9l10,-1h9l10,-1h9l9,-1l10,-1h9l10,-1l9,-1h9l10,-1l9,-1l10,-1l9,-1l10,-1l9,-1l9,-1l10,-1l9,-1l10,-1l9,-1l9,-1l10,-1l9,-2l10,-1l9,-1l9,-2l10,-1l9,-2l10,-1l9,-2l10,-1l9,-2l9,-2l10,-2l9,-1l10,-2l9,-2l9,-2l10,-2l9,-2l10,-3l9,-2l9,-2l10,-2l9,-3l10,-2l9,-3l9,-3l10,-2l9,-3l10,-3l9,-3l10,-3l9,-4l9,-3l10,-3l9,-4l10,-4l9,-3l9,-4l10,-5l9,-4l10,-4l9,-5l9,-5l10,-5l9,-5l10,-6l9,-5l9,-7l10,-6l9,-7l10,-8l9,-8l10,-8l9,-10l9,-11l10,-13l9,-16l10,-24" style="fill: none; stroke: #0000ff; stroke-width: 1;"></path></g><g><path d="M5,307h9l10,-1h9l10,-1l9,-1l9,-1l10,-1l9,-1l10,-2l9,-1l10,-2l9,-2l9,-2l10,-2l9,-3l10,-2l9,-3l9,-3l10,-2l9,-3l10,-3l9,-4l9,-3l10,-3l9,-4l10,-3l9,-4l9,-3l10,-4l9,-4l10,-4l9,-4l10,-4l9,-4l9,-4l10,-5l9,-4l10,-4l9,-5l9,-4l10,-4l9,-5l10,-4l9,-5l9,-4l10,-5l9,-5l10,-4l9,-5l10,-4l9,-5l9,-5l10,-4l9,-5l10,-4l9,-5l9,-4l10,-5l9,-4l10,-5l9,-4l9,-4l10,-5l9,-4l10,-4l9,-4l9,-4l10,-4l9,-4l10,-4l9,-4l10,-3l9,-4l9,-4l10,-3l9,-3l10,-4l9,-3l9,-3l10,-3l9,-3l10,-2l9,-3l9,-2l10,-3l9,-2l10,-2l9,-2l9,-2l10,-1l9,-2l10,-1l9,-1l10,-1l9,-1l9,-1l10,-1h9h10" style="fill: none; stroke: #ff00ff; stroke-width: 1;"></path></g></svg><g><g transform="translate(0,307)"><path d="M0,0h941M0,-9V0M19,-5V0M38,-5V0M56,-5V0M75,-5V0M94,-9V0M113,-5V0M132,-5V0M151,-5V0M169,-5V0M188,-9V0M207,-5V0M226,-5V0M245,-5V0M263,-5V0M282,-9V0M301,-5V0M320,-5V0M339,-5V0M358,-5V0M376,-9V0M395,-5V0M414,-5V0M433,-5V0M452,-5V0M471,-9V0M489,-5V0M508,-5V0M527,-5V0M546,-5V0M565,-9V0M583,-5V0M602,-5V0M621,-5V0M640,-5V0M659,-9V0M678,-5V0M696,-5V0M715,-5V0M734,-5V0M753,-9V0M772,-5V0M790,-5V0M809,-5V0M828,-5V0M847,-9V0M866,-5V0M885,-5V0M903,-5V0M922,-5V0M941,-9V0" style="stroke: #000000; stroke-width: 1;"></path><g font-family="Arial" font-size="13" space="preserve" fill="#000000" text-anchor="middle"><text dy=".8em" transform="translate(0,3)">0</text><text dy=".8em" transform="translate(94,3)">0.1</text><text dy=".8em" transform="translate(188,3)">0.2</text><text dy=".8em" transform="translate(282,3)">0.3</text><text dy=".8em" transform="translate(376,3)">0.4</text><text dy=".8em" transform="translate(471,3)">0.5</text><text dy=".8em" transform="translate(565,3)">0.6</text><text dy=".8em" transform="translate(659,3)">0.7</text><text dy=".8em" transform="translate(753,3)">0.8</text><text dy=".8em" transform="translate(847,3)">0.9</text><text dy=".8em" transform="translate(941,3)">1</text></g></g><g><path d="M0,0v307M28,307H0M14,301H0M14,295H0M14,289H0M14,283H0M28,276H0M14,270H0M14,264H0M14,258H0M14,252H0M28,246H0M14,240H0M14,234H0M14,227H0M14,221H0M28,215H0M14,209H0M14,203H0M14,197H0M14,191H0M28,185H0M14,178H0M14,172H0M14,166H0M14,160H0M28,154H0M14,148H0M14,142H0M14,136H0M14,129H0M28,123H0M14,117H0M14,111H0M14,105H0M14,99H0M28,93H0M14,87H0M14,80H0M14,74H0M14,68H0M28,62H0M14,56H0M14,50H0M14,44H0M14,38H0M28,31H0M14,25H0M14,19H0M14,13H0M14,7H0M28,1H0" style="stroke: #000000; stroke-width: 1;"></path><g font-family="Arial" font-size="13" space="preserve" fill="#000000" text-anchor="end"><text dy=".4em" transform="translate(-3,307)">0</text><text dy=".4em" transform="translate(-3,276)">0.1</text><text dy=".4em" transform="translate(-3,246)">0.2</text><text dy=".4em" transform="translate(-3,215)">0.3</text><text dy=".4em" transform="translate(-3,185)">0.4</text><text dy=".4em" transform="translate(-3,154)">0.5</text><text dy=".4em" transform="translate(-3,123)">0.6</text><text dy=".4em" transform="translate(-3,93)">0.7</text><text dy=".4em" transform="translate(-3,62)">0.8</text><text dy=".4em" transform="translate(-3,31)">0.9</text><text dy=".4em" transform="translate(-3,1)">1</text></g></g><path d="M0,0v307M94,0v307M188,0v307M282,0v307M376,0v307M471,0v307M565,0v307M659,0v307M753,0v307M847,0v307M941,0v307" style="stroke: #000000; stroke-width: 1; stroke-dasharray: 1,2;"></path><path d="M0,307h941M0,276h941M0,246h941M0,215h941M0,185h941M0,154h941M0,123h941M0,93h941M0,62h941M0,31h941M0,1h941" style="stroke: #000000; stroke-width: 1; stroke-dasharray: 1,2;"></path></g></g><g transform="translate(118,2)" font-family="Arial" font-size="19" space="preserve"><text fill="#000000" text-anchor="middle" dy=".8em" transform="translate(471)">TMath::BetaDistI(x, [0], [1])</text></g><g transform="translate(823,250)" font-family="Arial" font-size="15" space="preserve"><path d="M0,0H235V77H0Z" style="fill: #ffffff; stroke: #000000; stroke-width: 1;"></path><path d="M7,11H52" style="stroke: #ff0000; stroke-width: 1;"></path><text fill="#000000" text-anchor="start" dy=".4em" transform="translate(59,11)">p=0.5  q=0.5</text><path d="M7,29H52" style="stroke: #00ff00; stroke-width: 1;"></path><text fill="#000000" text-anchor="start" dy=".4em" transform="translate(59,29)">p=0.5  q=2</text><path d="M7,48H52" style="stroke: #0000ff; stroke-width: 1;"></path><text fill="#000000" text-anchor="start" dy=".4em" transform="translate(59,48)">p=2    q=0.5</text><path d="M7,66H52" style="stroke: #ff00ff; stroke-width: 1;"></path><text fill="#000000" text-anchor="start" dy=".4em" transform="translate(59,66)">p=2    q=2</text></g></g></svg></g></svg>