<svg xmlns="http://www.w3.org/2000/svg" viewBox="0 0 1200 800" preserveAspectRatio="none" width="1200" height="800"><path d="M0,0H1200V800H0Z" style="fill: #ffffff;"></path><g><svg viewBox="0 0 1176 384" preserveAspectRatio="none" x="12" y="8" width="1176" height="384"><path d="M0,0H1176V384H0Z" style="fill: #ffffff;"></path><g><g transform="translate(118,38)"><path d="M0,0H941V307H0Z" style="fill: #ffffff; stroke: #000000; stroke-width: 1;"></path><svg x="0" y="0" overflow="hidden" width="941" height="307" viewBox="0 0 941 307"><g><path d="M5,15l9,15l10,9l9,6l10,5l9,5l9,4l10,4l9,4l10,4l9,3l10,4l9,3l9,4l10,3l9,3l10,3l9,3l9,3l10,3l9,3l10,3l9,3l9,3l10,2l9,3l10,3l9,3l9,3l10,2l9,3l10,3l9,3l10,2l9,3l9,3l10,2l9,3l10,3l9,2l9,3l10,3l9,2l10,3l9,3l9,2l10,3l9,2l10,3l9,3l10,2l9,3l9,2l10,3l9,3l10,2l9,3l9,2l10,3l9,2l10,3l9,3l9,2l10,3l9,2l10,3l9,2l9,3l10,2l9,3l10,2l9,3l10,2l9,3l9,2l10,3l9,2l10,3l9,2l9,3l10,2l9,3l10,2l9,3l9,2l10,3l9,2l10,3l9,2l9,3l10,2l9,3l10,2l9,3l10,2l9,3l9,2l10,3l9,6h10" style="fill: none; stroke: #ff0000; stroke-width: 2;"></path></g><g><path d="M5,37l9,2l10,3l9,2l10,2l9,3l9,2l10,2l9,3l10,2l9,2l10,3l9,2l9,3l10,2l9,2l10,3l9,2l9,2l10,3l9,2l10,2l9,3l9,2l10,2l9,3l10,2l9,2l9,3l10,2l9,3l10,2l9,2l10,3l9,2l9,2l10,3l9,2l10,2l9,3l9,2l10,2l9,3l10,2l9,3l9,2l10,2l9,3l10,2l9,2l10,3l9,2l9,2l10,3l9,2l10,2l9,3l9,2l10,3l9,2l10,2l9,3l9,2l10,2l9,3l10,2l9,2l9,3l10,2l9,2l10,3l9,2l10,3l9,2l9,2l10,3l9,2l10,2l9,3l9,2l10,2l9,3l10,2l9,2l9,3l10,2l9,3l10,2l9,2l9,3l10,2l9,2l10,3l9,2l10,2l9,3l9,2l10,2l9,3l10,2" style="fill: none; stroke: #00ff00; stroke-width: 2;"></path></g><g><path d="M5,107l9,-23l10,-10l9,-5l10,-4l9,-2l9,-2l10,-1h9l10,-1h9h10l9,1h9l10,1l9,1l10,1l9,1l9,1l10,1l9,1l10,1l9,2l9,1l10,1l9,2l10,1l9,2l9,1l10,2l9,1l10,2l9,2l10,1l9,2l9,1l10,2l9,2l10,2l9,1l9,2l10,2l9,2l10,2l9,1l9,2l10,2l9,2l10,2l9,2l10,2l9,1l9,2l10,2l9,2l10,2l9,2l9,2l10,2l9,2l10,2l9,2l9,2l10,2l9,2l10,2l9,2l9,2l10,2l9,2l10,2l9,2l10,2l9,2l9,2l10,2l9,2l10,2l9,2l9,2l10,2l9,2l10,2l9,2l9,3l10,2l9,2l10,2l9,2l9,2l10,2l9,2l10,2l9,2l10,2l9,3l9,2l10,2l9,2l10,2" style="fill: none; stroke: #0000ff; stroke-width: 2;"></path></g><g><path d="M5,312l9,-19l10,-46l9,-29l10,-22l9,-16l9,-13l10,-12l9,-9l10,-8l9,-7l10,-6l9,-6l9,-5l10,-4l9,-4l10,-4l9,-3l9,-3l10,-2l9,-3l10,-2l9,-2l9,-2l10,-1l9,-2l10,-1l9,-1l9,-1l10,-1l9,-1h10l9,-1h10l9,-1h9h10l9,-1h10h9h9h10h9l10,1h9h9h10l9,1h10h9l10,1h9l9,1l10,1h9l10,1l9,1h9l10,1l9,1h10l9,1l9,1l10,1l9,1l10,1l9,1l9,1l10,1l9,1l10,1l9,1l10,1l9,1l9,1l10,1l9,1l10,1l9,1l9,2l10,1l9,1l10,1l9,1l9,2l10,1l9,1l10,1l9,2l9,1l10,1l9,2l10,1l9,1l10,2l9,1l9,1l10,2l9,1l10,1" style="fill: none; stroke: #ff00ff; stroke-width: 2;"></path></g></svg><g><g transform="translate(0,307)"><path d="M0,0h941M0,-12V0M19,-6V0M38,-6V0M56,-6V0M75,-6V0M94,-12V0M113,-6V0M132,-6V0M151,-6V0M169,-6V0M188,-12V0M207,-6V0M226,-6V0M245,-6V0M263,-6V0M282,-12V0M301,-6V0M320,-6V0M339,-6V0M358,-6V0M376,-12V0M395,-6V0M414,-6V0M433,-6V0M452,-6V0M471,-12V0M489,-6V0M508,-6V0M527,-6V0M546,-6V0M565,-12V0M583,-6V0M602,-6V0M621,-6V0M640,-6V0M659,-12V0M678,-6V0M696,-6V0M715,-6V0M734,-6V0M753,-12V0M772,-6V0M790,-6V0M809,-6V0M828,-6V0M847,-12V0M866,-6V0M885,-6V0M903,-6V0M922,-6V0M941,-12V0" style="stroke: #000000; stroke-width: 1;"></path><g font-family="Arial" font-size="13" space="preserve" fill="#000000" text-anchor="middle"><text dy=".8em" transform="translate(0,3)">0</text><text dy=".8em" transform="translate(94,3)">1</text><text dy=".8em" transform="translate(188,3)">2</text><text dy=".8em" transform="translate(282,3)">3</text><text dy=".8em" transform="translate(376,3)">4</text><text dy=".8em" transform="translate(471,3)">5</text><text dy=".8em" transform="translate(565,3)">6</text><text dy=".8em" transform="translate(659,3)">7</text><text dy=".8em" transform="translate(753,3)">8</text><text dy=".8em" transform="translate(847,3)">9</text><text dy=".8em" transform="translate(941,3)">10</text></g></g><g><path d="M0,0v307M35,307H0M18,291H0M18,281H0M18,274H0M18,269H0M18,265H0M18,261H0M18,258H0M18,255H0M35,253H0M18,236H0M18,227H0M18,220H0M18,215H0M18,211H0M18,207H0M18,204H0M18,201H0M35,198H0M18,182H0M18,173H0M18,166H0M18,161H0M18,156H0M18,153H0M18,149H0M18,147H0M35,144H0M18,128H0M18,118H0M18,112H0M18,106H0M18,102H0M18,98H0M18,95H0M18,92H0M35,90H0M18,74H0M18,64H0M18,57H0M18,52H0M18,48H0M18,44H0M18,41H0M18,38H0M35,36H0M18,19H0M18,10H0M18,3H0" style="stroke: #000000; stroke-width: 1;"></path><g font-family="Arial" font-size="13" space="preserve"><g transform="translate(-24,313)"><text fill="#000000" font-size="13">10</text><text fill="#000000" font-size="8" transform="translate(14,-7)">-5</text></g><g transform="translate(-24,259)"><text fill="#000000" font-size="13">10</text><text fill="#000000" font-size="8" transform="translate(14,-7)">-4</text></g><g transform="translate(-24,204)"><text fill="#000000" font-size="13">10</text><text fill="#000000" font-size="8" transform="translate(14,-7)">-3</text></g><g transform="translate(-24,150)"><text fill="#000000" font-size="13">10</text><text fill="#000000" font-size="8" transform="translate(14,-7)">-2</text></g><g transform="translate(-24,96)"><text fill="#000000" font-size="13">10</text><text fill="#000000" font-size="8" transform="translate(14,-7)">-1</text></g><text fill="#000000" text-anchor="end" dy=".4em" transform="translate(-3,36)">1</text></g></g><path d="M0,0v307M94,0v307M188,0v307M282,0v307M376,0v307M471,0v307M565,0v307M659,0v307M753,0v307M847,0v307M941,0v307" style="stroke: #000000; stroke-width: 1; stroke-dasharray: 1,2;"></path><path d="M0,307h941M0,291h941M0,281h941M0,274h941M0,269h941M0,265h941M0,261h941M0,258h941M0,255h941M0,253h941M0,236h941M0,227h941M0,220h941M0,215h941M0,211h941M0,207h941M0,204h941M0,201h941M0,198h941M0,182h941M0,173h941M0,166h941M0,161h941M0,156h941M0,153h941M0,149h941M0,147h941M0,144h941M0,128h941M0,118h941M0,112h941M0,106h941M0,102h941M0,98h941M0,95h941M0,92h941M0,90h941M0,74h941M0,64h941M0,57h941M0,52h941M0,48h941M0,44h941M0,41h941M0,38h941M0,36h941M0,19h941M0,10h941M0,3h941" style="stroke: #000000; stroke-width: 1; stroke-dasharray: 1,2;"></path></g></g><g transform="translate(118,2)" font-family="Arial" font-size="19" space="preserve"><text fill="#000000" text-anchor="middle" dy=".8em" transform="translate(471)">TMath::GammaDist(x, [0], [1], [2])</text></g><g transform="translate(235,230)" font-family="Arial" font-size="14" space="preserve"><path d="M0,0H353V96H0Z" style="fill: #ffffff; stroke: #000000; stroke-width: 1;"></path><path d="M11,14H77" style="stroke: #ff0000; stroke-width: 2;"></path><text fill="#000000" text-anchor="start" dy=".4em" transform="translate(88,14)">gamma = 0.5 mu = 0  beta = 1</text><path d="M11,37H77" style="stroke: #00ff00; stroke-width: 2;"></path><text fill="#000000" text-anchor="start" dy=".4em" transform="translate(88,37)">gamma = 1   mu = 0  beta = 1</text><path d="M11,59H77" style="stroke: #0000ff; stroke-width: 2;"></path><text fill="#000000" text-anchor="start" dy=".4em" transform="translate(88,59)">gamma = 2   mu = 0  beta = 1</text><path d="M11,82H77" style="stroke: #ff00ff; stroke-width: 2;"></path><text fill="#000000" text-anchor="start" dy=".4em" transform="translate(88,82)">gamma = 5   mu = 0  beta = 1</text></g></g></svg><svg viewBox="0 0 1176 384" preserveAspectRatio="none" x="12" y="408" width="1176" height="384"><path d="M0,0H1176V384H0Z" style="fill: #ffffff;"></path><g><g transform="translate(118,38)"><path d="M0,0H941V307H0Z" style="fill: #ffffff; stroke: #000000; stroke-width: 1;"></path><svg x="0" y="0" overflow="hidden" width="941" height="307" viewBox="0 0 941 307"><g><path d="M5,298l9,-156l10,-52l9,-27l10,-17l9,-12l9,-7l10,-6l9,-4l10,-3l9,-2l10,-2l9,-1l9,-1h10h9h10h9l9,1h10l9,1h10l9,1l9,1l10,1l9,1l10,1l9,1l9,1l10,1l9,1l10,1l9,1l10,1l9,1l9,2l10,1l9,1l10,1l9,1l9,1l10,1l9,2l10,1l9,1l9,1l10,1l9,1l10,2l9,1l10,1l9,1l9,1l10,1l9,1l10,2l9,1l9,1l10,1l9,1l10,1l9,1l9,1l10,1l9,1l10,2l9,1l9,1l10,1l9,1l10,1l9,1l10,1l9,1l9,1l10,1l9,1l10,1l9,1l9,1l10,1l9,1l10,1l9,1l9,1l10,1l9,1l10,1l9,1l9,1l10,1l9,1l10,1l9,1l10,1l9,1l9,1l10,1h9l10,1" style="fill: none; stroke: #ff0000; stroke-width: 2;"></path></g><g><path d="M5,56l9,-29l10,-8l9,-4l10,-2l9,-1h9h10h9h10l9,1h10h9l9,1l10,1h9l10,1h9l9,1l10,1h9l10,1h9l9,1l10,1h9l10,1h9l9,1l10,1h9l10,1h9l10,1h9l9,1l10,1h9l10,1h9l9,1h10l9,1h10l9,1h9l10,1h9l10,1h9l10,1h9h9l10,1h9l10,1h9l9,1h10l9,1h10h9l9,1h10l9,1h10l9,1h9h10l9,1h10l9,1h10h9l9,1h10h9l10,1h9l9,1h10h9l10,1h9h9l10,1h9h10l9,1h9h10l9,1h10h9l10,1h9h9l10,1h9h10" style="fill: none; stroke: #00ff00; stroke-width: 2;"></path></g><g><path d="M5,2l9,3l10,3l9,2l10,2l9,1l9,2l10,1l9,1l10,1l9,1l10,1l9,1l9,1l10,1h9l10,1l9,1h9l10,1l9,1h10l9,1h9l10,1h9l10,1h9l9,1h10l9,1h10l9,1h10l9,1h9h10l9,1h10h9l9,1h10l9,1h10h9l9,1h10h9l10,1h9h10h9l9,1h10h9l10,1h9h9h10l9,1h10h9h9l10,1h9h10h9l9,1h10h9h10l9,1h10h9h9h10l9,1h10h9h9l10,1h9h10h9h9l10,1h9h10h9h9h10l9,1h10h9h10h9l9,1h10h9h10" style="fill: none; stroke: #0000ff; stroke-width: 2;"></path></g><g><path d="M5,-4l9,12l10,5l9,4l10,3l9,2l9,2l10,2l9,1l10,2l9,1l10,1l9,1l9,1l10,1l9,1h10l9,1l9,1h10l9,1l10,1h9l9,1h10l9,1h10l9,1h9h10l9,1h10l9,1h10h9l9,1h10l9,1h10h9h9l10,1h9h10l9,1h9h10h9l10,1h9h10l9,1h9h10h9h10l9,1h9h10h9l10,1h9h9h10h9l10,1h9h9h10h9l10,1h9h10h9h9h10l9,1h10h9h9h10h9l10,1h9h9h10h9h10l9,1h9h10h9h10h9h10h9l9,1h10h9h10" style="fill: none; stroke: #ff00ff; stroke-width: 2;"></path></g></svg><g><g transform="translate(0,307)"><path d="M0,0h941M0,-12V0M19,-6V0M38,-6V0M56,-6V0M75,-6V0M94,-12V0M113,-6V0M132,-6V0M151,-6V0M169,-6V0M188,-12V0M207,-6V0M226,-6V0M245,-6V0M263,-6V0M282,-12V0M301,-6V0M320,-6V0M339,-6V0M358,-6V0M376,-12V0M395,-6V0M414,-6V0M433,-6V0M452,-6V0M471,-12V0M489,-6V0M508,-6V0M527,-6V0M546,-6V0M565,-12V0M583,-6V0M602,-6V0M621,-6V0M640,-6V0M659,-12V0M678,-6V0M696,-6V0M715,-6V0M734,-6V0M753,-12V0M772,-6V0M790,-6V0M809,-6V0M828,-6V0M847,-12V0M866,-6V0M885,-6V0M903,-6V0M922,-6V0M941,-12V0" style="stroke: #000000; stroke-width: 1;"></path><g font-family="Arial" font-size="13" space="preserve" fill="#000000" text-anchor="middle"><text dy=".8em" transform="translate(0,3)">0</text><text dy=".8em" transform="translate(94,3)">0.5</text><text dy=".8em" transform="translate(188,3)">1</text><text dy=".8em" transform="translate(282,3)">1.5</text><text dy=".8em" transform="translate(376,3)">2</text><text dy=".8em" transform="translate(471,3)">2.5</text><text dy=".8em" transform="translate(565,3)">3</text><text dy=".8em" transform="translate(659,3)">3.5</text><text dy=".8em" transform="translate(753,3)">4</text><text dy=".8em" transform="translate(847,3)">4.5</text><text dy=".8em" transform="translate(941,3)">5</text></g></g><g><path d="M0,0v307M18,304H0M18,301H0M18,298H0M18,296H0M18,294H0M18,292H0M18,291H0M35,290H0M18,281H0M18,276H0M18,273H0M18,270H0M18,268H0M18,266H0M18,264H0M18,263H0M35,261H0M18,253H0M18,248H0M18,244H0M18,241H0M18,239H0M18,237H0M18,236H0M18,234H0M35,233H0M18,224H0M18,219H0M18,216H0M18,213H0M18,211H0M18,209H0M18,207H0M18,206H0M35,205H0M18,196H0M18,191H0M18,188H0M18,185H0M18,183H0M18,181H0M18,179H0M18,178H0M35,176H0M18,168H0M18,163H0M18,159H0M18,157H0M18,154H0M18,152H0M18,151H0M18,149H0M35,148H0M18,140H0M18,135H0M18,131H0M18,128H0M18,126H0M18,124H0M18,123H0M18,121H0M35,120H0M18,111H0M18,106H0M18,103H0M18,100H0M18,98H0M18,96H0M18,94H0M18,93H0M35,91H0M18,83H0M18,78H0M18,74H0M18,72H0M18,69H0M18,68H0M18,66H0M18,64H0M35,63H0M18,55H0M18,50H0M18,46H0M18,43H0M18,41H0M18,39H0M18,38H0M18,36H0M35,35H0M18,26H0M18,21H0M18,18H0M18,15H0M18,13H0M18,11H0M18,9H0M18,8H0M35,7H0" style="stroke: #000000; stroke-width: 1;"></path><g font-family="Arial" font-size="13" space="preserve"><g transform="translate(-28,296)"><text fill="#000000" font-size="13">10</text><text fill="#000000" font-size="8" transform="translate(14,-7)">-10</text></g><g transform="translate(-24,267)"><text fill="#000000" font-size="13">10</text><text fill="#000000" font-size="8" transform="translate(14,-7)">-9</text></g><g transform="translate(-24,239)"><text fill="#000000" font-size="13">10</text><text fill="#000000" font-size="8" transform="translate(14,-7)">-8</text></g><g transform="translate(-24,211)"><text fill="#000000" font-size="13">10</text><text fill="#000000" font-size="8" transform="translate(14,-7)">-7</text></g><g transform="translate(-24,182)"><text fill="#000000" font-size="13">10</text><text fill="#000000" font-size="8" transform="translate(14,-7)">-6</text></g><g transform="translate(-24,154)"><text fill="#000000" font-size="13">10</text><text fill="#000000" font-size="8" transform="translate(14,-7)">-5</text></g><g transform="translate(-24,126)"><text fill="#000000" font-size="13">10</text><text fill="#000000" font-size="8" transform="translate(14,-7)">-4</text></g><g transform="translate(-24,97)"><text fill="#000000" font-size="13">10</text><text fill="#000000" font-size="8" transform="translate(14,-7)">-3</text></g><g transform="translate(-24,69)"><text fill="#000000" font-size="13">10</text><text fill="#000000" font-size="8" transform="translate(14,-7)">-2</text></g><g transform="translate(-24,41)"><text fill="#000000" font-size="13">10</text><text fill="#000000" font-size="8" transform="translate(14,-7)">-1</text></g><text fill="#000000" text-anchor="end" dy=".4em" transform="translate(-3,7)">1</text></g></g><path d="M0,0v307M94,0v307M188,0v307M282,0v307M376,0v307M471,0v307M565,0v307M659,0v307M753,0v307M847,0v307M941,0v307" style="stroke: #000000; stroke-width: 1; stroke-dasharray: 1,2;"></path><path d="M0,304h941M0,301h941M0,298h941M0,296h941M0,294h941M0,292h941M0,291h941M0,290h941M0,281h941M0,276h941M0,273h941M0,270h941M0,268h941M0,266h941M0,264h941M0,263h941M0,261h941M0,253h941M0,248h941M0,244h941M0,241h941M0,239h941M0,237h941M0,236h941M0,234h941M0,233h941M0,224h941M0,219h941M0,216h941M0,213h941M0,211h941M0,209h941M0,207h941M0,206h941M0,205h941M0,196h941M0,191h941M0,188h941M0,185h941M0,183h941M0,181h941M0,179h941M0,178h941M0,176h941M0,168h941M0,163h941M0,159h941M0,157h941M0,154h941M0,152h941M0,151h941M0,149h941M0,148h941M0,140h941M0,135h941M0,131h941M0,128h941M0,126h941M0,124h941M0,123h941M0,121h941M0,120h941M0,111h941M0,106h941M0,103h941M0,100h941M0,98h941M0,96h941M0,94h941M0,93h941M0,91h941M0,83h941M0,78h941M0,74h941M0,72h941M0,69h941M0,68h941M0,66h941M0,64h941M0,63h941M0,55h941M0,50h941M0,46h941M0,43h941M0,41h941M0,39h941M0,38h941M0,36h941M0,35h941M0,26h941M0,21h941M0,18h941M0,15h941M0,13h941M0,11h941M0,9h941M0,8h941M0,7h941" style="stroke: #000000; stroke-width: 1; stroke-dasharray: 1,2;"></path></g></g><g transform="translate(118,2)" font-family="Arial" font-size="19" space="preserve"><text fill="#000000" text-anchor="middle" dy=".8em" transform="translate(471)">TMath::LogNormal(x, [0], [1], [2])</text></g><g transform="translate(235,230)" font-family="Arial" font-size="14" space="preserve"><path d="M0,0H353V96H0Z" style="fill: #ffffff; stroke: #000000; stroke-width: 1;"></path><path d="M11,14H77" style="stroke: #ff0000; stroke-width: 2;"></path><text fill="#000000" text-anchor="start" dy=".4em" transform="translate(88,14)">sigma = 0.5 theta = 0  m = 1</text><path d="M11,37H77" style="stroke: #00ff00; stroke-width: 2;"></path><text fill="#000000" text-anchor="start" dy=".4em" transform="translate(88,37)">sigma = 1   theta = 0  m = 1</text><path d="M11,59H77" style="stroke: #0000ff; stroke-width: 2;"></path><text fill="#000000" text-anchor="start" dy=".4em" transform="translate(88,59)">sigma = 2   theta = 0  m = 1</text><path d="M11,82H77" style="stroke: #ff00ff; stroke-width: 2;"></path><text fill="#000000" text-anchor="start" dy=".4em" transform="translate(88,82)">sigma = 5   theta = 0  m = 1</text></g></g></svg></g></svg>