<svg xmlns="http://www.w3.org/2000/svg" viewBox="0 0 1200 800" preserveAspectRatio="none" width="1200" height="800"><path d="M0,0H1200V800H0Z" style="fill: #ffffff;"></path><g><g transform="translate(120,80)"><path d="M0,0H960V640H0Z" style="fill: #ffffff; stroke: #000000; stroke-width: 1;"></path><svg x="0" y="0" overflow="hidden" width="960" height="640" viewBox="0 0 960 640"><g><g transform="translate(184,574)"><path style="stroke: #000000; stroke-width: 1; fill: none;" d="M0,0H-32m0,3v-6M0,0H32m0,3v-6M0,0V37m3,0h-6M0,0V-37m3,0h-6"></path></g><g transform="translate(279,395)"><path style="stroke: #000000; stroke-width: 1; fill: none;" d="M0,0H-64m0,3v-6M0,0H64m0,3v-6M0,0V32m3,0h-6M0,0V-32m3,0h-6"></path></g><g transform="translate(407,271)"><path style="stroke: #000000; stroke-width: 1; fill: none;" d="M0,0H-45m0,3v-6M0,0H45m0,3v-6M0,0V28m3,0h-6M0,0V-28m3,0h-6"></path></g><g transform="translate(470,188)"><path style="stroke: #000000; stroke-width: 1; fill: none;" d="M0,0H-45m0,3v-6M0,0H45m0,3v-6M0,0V23m3,0h-6M0,0V-23m3,0h-6"></path></g><g transform="translate(566,114)"><path style="stroke: #000000; stroke-width: 1; fill: none;" d="M0,0H-25m0,3v-6M0,0H25m0,3v-6M0,0V18m3,0h-6M0,0V-18m3,0h-6"></path></g><g transform="translate(636,87)"><path style="stroke: #000000; stroke-width: 1; fill: none;" d="M0,0H-32m0,3v-6M0,0H32m0,3v-6M0,0V18m3,0h-6M0,0V-18m3,0h-6"></path></g><g transform="translate(693,128)"><path style="stroke: #000000; stroke-width: 1; fill: none;" d="M0,0H-38m0,3v-6M0,0H38m0,3v-6M0,0V23m3,0h-6M0,0V-23m3,0h-6"></path></g><g transform="translate(789,238)"><path style="stroke: #000000; stroke-width: 1; fill: none;" d="M0,0H-45m0,3v-6M0,0H45m0,3v-6M0,0V28m3,0h-6M0,0V-28m3,0h-6"></path></g><g transform="translate(814,321)"><path style="stroke: #000000; stroke-width: 1; fill: none;" d="M0,0H-51m0,3v-6M0,0H51m0,3v-6M0,0V32m3,0h-6M0,0V-32m3,0h-6"></path></g><g transform="translate(853,482)"><path style="stroke: #000000; stroke-width: 1; fill: none;" d="M0,0H-32m0,3v-6M0,0H32m0,3v-6M0,0V37m3,0h-6M0,0V-37m3,0h-6"></path></g><path d="M180,570v8h8v-8zM275,391v8h8v-8zM403,267v8h8v-8zM466,184v8h8v-8zM562,110v8h8v-8zM632,83v8h8v-8zM689,124v8h8v-8zM785,234v8h8v-8zM810,317v8h8v-8zM849,478v8h8v-8z" style="stroke: #0000ff; fill: #0000ff;"></path></g><g><path d="M83,525h9l9,-1h9l9,-1l8,-1l9,-1l9,-2l9,-1l9,-2l8,-1l9,-2l9,-3l9,-2l9,-3l8,-3l9,-4l9,-4l9,-4l8,-5l9,-5l9,-6l9,-6l9,-7l8,-7l9,-8l9,-9l9,-9l9,-9l8,-11l9,-10l9,-12l9,-11l9,-13l8,-12l9,-14l9,-13l9,-14l9,-14l8,-15l9,-14l9,-15l9,-14l8,-14l9,-15l9,-13l9,-14l9,-12l8,-13l9,-11l9,-11l9,-10l9,-9l8,-7l9,-7l9,-6l9,-4l9,-3l8,-2l9,-1l9,1l9,2l9,3l8,5l9,5l9,7l9,8l8,9l9,10l9,11l9,11l9,13l8,12l9,14l9,14l9,14l9,14l8,15l9,14l9,15l9,14l9,14l8,14l9,13l9,14l9,12l8,13l9,11l9,12l9,10l9,10l8,10l9,9l9,8l9,8l9,7l8,7l9,6l9,6l9,5" style="fill: none; stroke: #0000ff; stroke-width: 2;"></path></g><g><g transform="translate(69,432)"><path style="stroke: #000000; stroke-width: 1; fill: none;" d="M0,0H-25m0,3v-6M0,0H25m0,3v-6M0,0V28m3,0h-6M0,0V-28m3,0h-6"></path></g><g transform="translate(251,351)"><path style="stroke: #000000; stroke-width: 1; fill: none;" d="M0,0H-76m0,3v-6M0,0H76m0,3v-6M0,0V37m3,0h-6M0,0V-37m3,0h-6"></path></g><g transform="translate(369,206)"><path style="stroke: #000000; stroke-width: 1; fill: none;" d="M0,0H-51m0,3v-6M0,0H51m0,3v-6M0,0V32m3,0h-6M0,0V-32m3,0h-6"></path></g><g transform="translate(432,114)"><path style="stroke: #000000; stroke-width: 1; fill: none;" d="M0,0H-38m0,3v-6M0,0H38m0,3v-6M0,0V18m3,0h-6M0,0V-18m3,0h-6"></path></g><g transform="translate(534,68)"><path style="stroke: #000000; stroke-width: 1; fill: none;" d="M0,0H-32m0,3v-6M0,0H32m0,3v-6M0,0V14m3,0h-6M0,0V-14m3,0h-6"></path></g><g transform="translate(604,43)"><path style="stroke: #000000; stroke-width: 1; fill: none;" d="M0,0H-25m0,3v-6M0,0H25m0,3v-6M0,0V14m3,0h-6M0,0V-14m3,0h-6"></path></g><g transform="translate(662,85)"><path style="stroke: #000000; stroke-width: 1; fill: none;" d="M0,0H-45m0,3v-6M0,0H45m0,3v-6M0,0V18m3,0h-6M0,0V-18m3,0h-6"></path></g><g transform="translate(757,194)"><path style="stroke: #000000; stroke-width: 1; fill: none;" d="M0,0H-38m0,3v-6M0,0H38m0,3v-6M0,0V23m3,0h-6M0,0V-23m3,0h-6"></path></g><g transform="translate(821,279)"><path style="stroke: #000000; stroke-width: 1; fill: none;" d="M0,0H-51m0,3v-6M0,0H51m0,3v-6M0,0V28m3,0h-6M0,0V-28m3,0h-6"></path></g><g transform="translate(891,436)"><path style="stroke: #000000; stroke-width: 1; fill: none;" d="M0,0H-25m0,3v-6M0,0H25m0,3v-6M0,0V32m3,0h-6M0,0V-32m3,0h-6"></path></g><path d="M65,432a4,4,0,1,0,8,0a4,4,0,1,0,-8,0zM247,351a4,4,0,1,0,8,0a4,4,0,1,0,-8,0zM365,206a4,4,0,1,0,8,0a4,4,0,1,0,-8,0zM428,114a4,4,0,1,0,8,0a4,4,0,1,0,-8,0zM530,68a4,4,0,1,0,8,0a4,4,0,1,0,-8,0zM600,43a4,4,0,1,0,8,0a4,4,0,1,0,-8,0zM658,85a4,4,0,1,0,8,0a4,4,0,1,0,-8,0zM753,194a4,4,0,1,0,8,0a4,4,0,1,0,-8,0zM817,279a4,4,0,1,0,8,0a4,4,0,1,0,-8,0zM887,436a4,4,0,1,0,8,0a4,4,0,1,0,-8,0z" style="stroke: #ff0000; fill: #ff0000;"></path></g><g><path d="M-38,3931l10,-605l11,-533l10,-468l11,-406l10,-352l11,-301l10,-256l11,-215l10,-178l11,-145l10,-116l11,-90l10,-68l10,-48l11,-31l10,-18l11,-5l10,4l11,12l10,18l11,23l10,25l11,27l10,27l11,27l10,25l11,24l10,21l11,18l10,15l10,11l11,7l10,4h11l10,-4l11,-7l10,-11l11,-13l10,-17l11,-18l10,-21l11,-21l10,-23l11,-24l10,-24l11,-23l10,-23l11,-21l10,-21l10,-18l11,-16l10,-14l11,-11l10,-9l11,-6l10,-3h11l10,2l11,4l10,6l11,7l10,7l11,7l10,6l11,4l10,1l11,-5l10,-10l10,-19l11,-29l10,-40l11,-55l10,-72l11,-91l10,-113l11,-139l10,-168l11,-200l10,-236l11,-277l10,-321l11,-371l10,-425l11,-484l10,-550l10,-620l11,-697l10,-780l11,-869l10,-967l11,-1071l10,-1183l11,-1303l10,-1431l11,-1569l10,-1714l11,-1871l10,-2037l11,-2213" style="fill: none; stroke: #ff0000; stroke-width: 2; stroke-dasharray: 3,3;"></path></g></svg><g><g transform="translate(0,640)"><path d="M0,0h960M25,-10V0M56,-10V0M88,-10V0M120,-19V0M152,-10V0M184,-10V0M216,-10V0M247,-19V0M279,-10V0M311,-10V0M343,-10V0M375,-19V0M407,-10V0M439,-10V0M470,-10V0M502,-19V0M534,-10V0M566,-10V0M598,-10V0M630,-19V0M662,-10V0M693,-10V0M725,-10V0M757,-19V0M789,-10V0M821,-10V0M853,-10V0M885,-19V0M916,-10V0M948,-10V0" style="stroke: #000000; stroke-width: 1;"></path><g font-family="Arial" font-size="28" space="preserve" fill="#000000" text-anchor="middle"><text dy=".8em" transform="translate(120,5)">-0.2</text><text dy=".8em" transform="translate(247,5)">0</text><text dy=".8em" transform="translate(375,5)">0.2</text><text dy=".8em" transform="translate(502,5)">0.4</text><text dy=".8em" transform="translate(630,5)">0.6</text><text dy=".8em" transform="translate(757,5)">0.8</text><text dy=".8em" transform="translate(885,5)">1</text></g></g><g><path d="M0,0v640M29,620H0M15,597H0M15,574H0M15,551H0M29,528H0M15,505H0M15,482H0M15,459H0M29,436H0M15,413H0M15,390H0M15,367H0M29,344H0M15,321H0M15,298H0M15,275H0M29,252H0M15,229H0M15,206H0M15,183H0M29,160H0M15,137H0M15,114H0M15,91H0M29,68H0M15,45H0M15,22H0" style="stroke: #000000; stroke-width: 1;"></path><g font-family="Arial" font-size="28" space="preserve" fill="#000000" text-anchor="end"><text dy=".4em" transform="translate(-6,620)">-2</text><text dy=".4em" transform="translate(-6,528)">0</text><text dy=".4em" transform="translate(-6,436)">2</text><text dy=".4em" transform="translate(-6,344)">4</text><text dy=".4em" transform="translate(-6,252)">6</text><text dy=".4em" transform="translate(-6,160)">8</text><text dy=".4em" transform="translate(-6,68)">10</text></g></g><path d="M120,0v640M247,0v640M375,0v640M502,0v640M630,0v640M757,0v640M885,0v640" style="stroke: #000000; stroke-width: 1; stroke-dasharray: 1,2;"></path><path d="M0,620h960M0,528h960M0,436h960M0,344h960M0,252h960M0,160h960M0,68h960" style="stroke: #000000; stroke-width: 1; stroke-dasharray: 1,2;"></path></g></g><g transform="translate(144,52)" font-family="Arial" font-size="17" space="preserve"><path d="M0,0H240V92H0Z" style="fill: #ffffff; stroke: #000000; stroke-width: 1;"></path><g transform="translate(12,19) scale(0.902)"><text fill="#0000ff" font-size="19">χ</text><text fill="#0000ff" font-size="11" transform="translate(11,-10)">2</text><text fill="#0000ff" font-size="19" x="25">/ ndf</text></g><text fill="#0000ff" text-anchor="end" dy=".4em" transform="translate(228,12)"> 8.792 / 7</text><text fill="#0000ff" text-anchor="start" dy=".4em" transform="translate(12,35)">Constant </text><g transform="translate(119,41) scale(0.902)"><text fill="#0000ff" font-size="19" x="8">9.630 ± 0.391</text></g><text fill="#0000ff" text-anchor="start" dy=".4em" transform="translate(12,58)">Mean </text><g transform="translate(99,64) scale(0.902)"><text fill="#0000ff" font-size="19" x="8">0.5555 ± 0.0237</text></g><text fill="#0000ff" text-anchor="start" dy=".4em" transform="translate(12,81)">Sigma </text><g transform="translate(100,87) scale(0.902)"><text fill="#0000ff" font-size="19" x="8">0.2556 ± 0.0219</text></g></g><g transform="translate(864,52)" font-family="Arial" font-size="16" space="preserve"><path d="M0,0H240V148H0Z" style="fill: #ffffff; stroke: #000000; stroke-width: 1;"></path><g transform="translate(12,17) scale(0.893)"><text fill="#ff0000" font-size="18">χ</text><text fill="#ff0000" font-size="11" transform="translate(11,-9)">2</text><text fill="#ff0000" font-size="18" x="23">/ ndf</text></g><text fill="#ff0000" text-anchor="end" dy=".4em" transform="translate(228,11)"> 17.70 / 4</text><text fill="#ff0000" text-anchor="start" dy=".4em" transform="translate(12,32)">p0 </text><g transform="translate(90,37) scale(0.893)"><text fill="#ff0000" font-size="18" x="7">4.644 ± 78093.423</text></g><text fill="#ff0000" text-anchor="start" dy=".4em" transform="translate(12,53)">p1 </text><g transform="translate(94,59) scale(0.893)"><text fill="#ff0000" font-size="18" x="7">-28.63 ± 78043.81</text></g><text fill="#ff0000" text-anchor="start" dy=".4em" transform="translate(12,74)">p2 </text><g transform="translate(108,80) scale(0.893)"><text fill="#ff0000" font-size="18" x="7">109.0 ± 78027.4</text></g><text fill="#ff0000" text-anchor="start" dy=".4em" transform="translate(12,95)">p3 </text><g transform="translate(108,101) scale(0.893)"><text fill="#ff0000" font-size="18" x="7">388.5 ± 71003.5</text></g><text fill="#ff0000" text-anchor="start" dy=".4em" transform="translate(12,116)">p4 </text><g transform="translate(108,122) scale(0.893)"><text fill="#ff0000" font-size="18" x="7">-1437 ± 39.8614</text></g><text fill="#ff0000" text-anchor="start" dy=".4em" transform="translate(12,137)">p5 </text><g transform="translate(88,143) scale(0.893)"><text fill="#ff0000" font-size="18" x="7">1100 ± 65018.0173</text></g></g></g></svg>