<svg xmlns="http://www.w3.org/2000/svg" viewBox="0 0 1200 800" preserveAspectRatio="none" width="1200" height="800"><path d="M0,0H1200V800H0Z" style="fill: #ffffff;"></path><g><g transform="translate(60,160)" font-family="Arial" font-size="29" space="preserve" font-weight="bold"><path d="M1080,4h4v560h-1080v-4h1076z" style="fill: #000000; stroke: #000000; stroke-width: 1px;"></path><path d="M0,0H1080V560H0Z" style="fill: #f2f2f2; stroke: #000000; stroke-width: 1;"></path><text fill="#000000" text-anchor="middle" dy=".4em" transform="translate(540,56)">A TPaveText can contain severals line of text.</text><text fill="#000000" text-anchor="middle" dy=".4em" transform="translate(540,168)">They are added to the pave using the AddText method.</text><path d="M0,280L1080,280" style="stroke: #000000; stroke-width: 1;"></path><text fill="#ff9933" text-anchor="middle" dy=".4em" transform="translate(540,392)">Even complex TLatex formulas can be added:</text><g transform="translate(403,517) scale(0.311)"><text fill="#0000ff" font-size="95">F(t) =</text><g transform="translate(280)"><path style="stroke: #0000ff; stroke-width: 10; fill: none;" d="M95,-121h-95l38,49l-38,113h95"></path><text fill="#0000ff" font-size="57" transform="translate(-12,95)">i=-∞</text><text fill="#0000ff" font-size="57" transform="translate(23,-135)">∞</text></g><text fill="#0000ff" font-size="95" x="375">A(i)cos</text><g transform="translate(692)"><path style="stroke: #0000ff; stroke-width: 10; fill: none;" d="M38,-147h-19v228h19"></path><g transform="translate(38)"><text fill="#0000ff" font-size="95" transform="translate(45,-56)">i</text><path style="stroke: #0000ff; stroke-width: 10; fill: none;" d="M0,-33h106"></path><text fill="#0000ff" font-size="95" transform="translate(0,58)">t+i</text></g><path style="stroke: #0000ff; stroke-width: 10; fill: none;" d="M153,-147h19v228h-19"></path></g></g></g></g></svg>