<svg xmlns="http://www.w3.org/2000/svg" viewBox="0 0 1200 800" preserveAspectRatio="none" width="1200" height="800"><path d="M0,0H1200V800H0Z" style="fill: #ffffff;"></path><g><svg viewBox="0 0 1194 558" preserveAspectRatio="none" x="3" y="2" width="1194" height="558"><path d="M0,0H1194V558H0Z" style="fill: #ffffff;"></path><g><g transform="translate(119,56)"><path d="M0,0H955V502H0Z" style="fill: #ffffff; stroke: #000000; stroke-width: 1;"></path><svg x="0" y="0" overflow="hidden" width="955" height="502" viewBox="0 0 955 502"><g><path d="M57,500h20M67,498v3M134,501h20M144,500v2M172,495h20M182,492v6M191,496h20M201,494v5M210,481h20M220,477v9M229,488h20M239,484v8M248,475h20M258,469v11M267,446h20M277,438v16M287,431h20M297,422v18M306,397h20M316,386v22M325,353h20M335,340v26M344,305h20M354,290v30M363,238h20M373,220v35M382,192h20M392,173v38M401,168h20M411,148v40M420,120h20M430,99v42M439,48h20M449,25v46M458,47h20M468,24v46M478,47h20M488,24v46M497,74h20M507,52v44M516,121h20M526,100v42M535,152h20M545,132v40M554,192h20M564,173v38M573,235h20M583,218v35M592,318h20M602,303v29M611,343h20M621,330v26M630,390h20M640,379v22M649,430h20M659,421v18M669,453h20M679,445v15M688,462h20M698,455v14M707,476h20M717,470v11M726,488h20M736,484v8M745,492h20M755,488v7M764,501h20M774,500v2M802,499h20M812,497v4M821,501h20M831,500v2M860,501h20M870,500v2" style="stroke: #000099; stroke-width: 1;"></path></g><g><path d="M5,502h10h9h10h9h10h9h10h9h10h10h9h10l9,-1h10h9l10,-1h9l10,-1l9,-1l10,-2l10,-2l9,-2l10,-4l9,-4l10,-5l9,-6l10,-7l9,-9l10,-10l10,-12l9,-15l10,-16l9,-18l10,-20l9,-22l10,-23l9,-25l10,-27l9,-27l10,-27l10,-27l9,-27l10,-24l9,-23l10,-20l9,-17l10,-13l9,-9l10,-5h10l9,4l10,8l9,13l10,16l9,20l10,22l9,25l10,26l9,27l10,27l10,28l9,26l10,25l9,24l10,22l9,21l10,18l9,16l10,15l10,12l9,11l10,9l9,7l10,7l9,5l10,4l9,3l10,3l9,2l10,1l10,2l9,1h10l9,1h10h9l10,1h9h10h10h9h10h9h10h9h10h9h10h9" style="fill: none; stroke: #ff0000; stroke-width: 2;"></path></g></svg><g><g transform="translate(0,502)"><path d="M0,0h955M0,-502h955M0,-17V0M19,-9V0M38,-9V0M57,-9V0M76,-9V0M96,-17V0M115,-9V0M134,-9V0M153,-9V0M172,-9V0M191,-17V0M210,-9V0M229,-9V0M248,-9V0M267,-9V0M287,-17V0M306,-9V0M325,-9V0M344,-9V0M363,-9V0M382,-17V0M401,-9V0M420,-9V0M439,-9V0M458,-9V0M478,-17V0M497,-9V0M516,-9V0M535,-9V0M554,-9V0M573,-17V0M592,-9V0M611,-9V0M630,-9V0M649,-9V0M669,-17V0M688,-9V0M707,-9V0M726,-9V0M745,-9V0M764,-17V0M783,-9V0M802,-9V0M821,-9V0M840,-9V0M860,-17V0M879,-9V0M898,-9V0M917,-9V0M936,-9V0M955,-17V0M0,-485V-502M19,-493V-502M38,-493V-502M57,-493V-502M76,-493V-502M96,-485V-502M115,-493V-502M134,-493V-502M153,-493V-502M172,-493V-502M191,-485V-502M210,-493V-502M229,-493V-502M248,-493V-502M267,-493V-502M287,-485V-502M306,-493V-502M325,-493V-502M344,-493V-502M363,-493V-502M382,-485V-502M401,-493V-502M420,-493V-502M439,-493V-502M458,-493V-502M478,-485V-502M497,-493V-502M516,-493V-502M535,-493V-502M554,-493V-502M573,-485V-502M592,-493V-502M611,-493V-502M630,-493V-502M649,-493V-502M669,-485V-502M688,-493V-502M707,-493V-502M726,-493V-502M745,-493V-502M764,-485V-502M783,-493V-502M802,-493V-502M821,-493V-502M840,-493V-502M860,-485V-502M879,-493V-502M898,-493V-502M917,-493V-502M936,-493V-502M955,-485V-502" style="stroke: #000000; stroke-width: 1;"></path></g><g><path d="M0,0v502M955,0v502M36,502H0M18,491H0M18,479H0M18,468H0M18,456H0M36,445H0M18,433H0M18,422H0M18,410H0M18,399H0M36,388H0M18,376H0M18,365H0M18,353H0M18,342H0M36,330H0M18,319H0M18,308H0M18,296H0M18,285H0M36,273H0M18,262H0M18,250H0M18,239H0M18,227H0M36,216H0M18,205H0M18,193H0M18,182H0M18,170H0M36,159H0M18,147H0M18,136H0M18,125H0M18,113H0M36,102H0M18,90H0M18,79H0M18,67H0M18,56H0M36,44H0M18,33H0M18,22H0M18,10H0M919,502H955M937,491H955M937,479H955M937,468H955M937,456H955M919,445H955M937,433H955M937,422H955M937,410H955M937,399H955M919,388H955M937,376H955M937,365H955M937,353H955M937,342H955M919,330H955M937,319H955M937,308H955M937,296H955M937,285H955M919,273H955M937,262H955M937,250H955M937,239H955M937,227H955M919,216H955M937,205H955M937,193H955M937,182H955M937,170H955M919,159H955M937,147H955M937,136H955M937,125H955M937,113H955M919,102H955M937,90H955M937,79H955M937,67H955M937,56H955M919,44H955M937,33H955M937,22H955M937,10H955" style="stroke: #000000; stroke-width: 1;"></path><g font-family="Arial" font-size="28" space="preserve" fill="#000000" text-anchor="end"><text dy=".4em" transform="translate(-6,502)">0</text><text dy=".4em" transform="translate(-6,445)">50</text><text dy=".4em" transform="translate(-6,388)">100</text><text dy=".4em" transform="translate(-6,330)">150</text><text dy=".4em" transform="translate(-6,273)">200</text><text dy=".4em" transform="translate(-6,216)">250</text><text dy=".4em" transform="translate(-6,159)">300</text><text dy=".4em" transform="translate(-6,102)">350</text><text dy=".4em" transform="translate(-6,44)">400</text></g><g font-family="Arial" font-size="28" space="preserve" transform="translate(-78)"><text fill="#000000" text-anchor="end" dy=".4em" transform="rotate(270)">y</text></g></g></g></g><g transform="translate(119,3)" font-family="Arial" font-size="28" space="preserve"><text fill="#000000" text-anchor="middle" dy=".8em" transform="translate(478)">h1</text></g></g></svg><svg viewBox="0 0 1194 238" preserveAspectRatio="none" x="3" y="560" width="1194" height="238"><path d="M0,0H1194V238H0Z" style="fill: #ffffff;"></path><g><g transform="translate(119)"><path d="M0,0H955V167H0Z" style="fill: #ffffff; stroke: #000000; stroke-width: 1;"></path><svg x="0" y="0" overflow="hidden" width="955" height="167" viewBox="0 0 955 167"><g><path d="M10,85h19l19,1l19,1l19,1l19,1l19,2l19,2l19,3l19,2l20,3l19,3l19,2l19,2l19,2l19,1h38l19,-1h58l19,1l19,1h57l19,-1l19,-1h58l19,1h38l19,-1l19,-1l19,-2l19,-3l19,-3l20,-2l19,-3l19,-3l19,-2l19,-2l19,-1l19,-1l19,-1l19,-1h19L945,82h-19l-19,-1l-19,-1l-19,-1l-19,-1l-19,-2l-19,-2l-19,-3l-19,-3l-20,-2l-19,-3l-19,-3l-19,-2l-19,-1l-19,-1h-38l-19,1h-58l-19,-1l-19,-1h-57l-19,1l-19,1h-58l-19,-1h-38l-19,1l-19,2l-19,2l-19,2l-19,3l-20,3l-19,2l-19,3l-19,2l-19,2l-19,1l-19,1l-19,1l-19,1h-19Z" style="fill: #00ff00;"></path></g><g><path d="M10,84h19l19,1h19l19,1h19l19,1l19,1l19,2l19,1l20,1l19,2l19,1l19,1l19,1h153l19,1h57l19,-1h153l19,-1l19,-1l19,-1l19,-2l20,-1l19,-1l19,-2l19,-1l19,-1h19l19,-1h19l19,-1h19L945,83h-19l-19,-1h-19l-19,-1h-19l-19,-1l-19,-1l-19,-2l-19,-1l-20,-1l-19,-2l-19,-1l-19,-1l-19,-1h-153l-19,-1h-57l-19,1h-153l-19,1l-19,1l-19,1l-19,2l-20,1l-19,1l-19,2l-19,1l-19,1h-19l-19,1h-19l-19,1h-19Z" style="fill: #ffff00;"></path></g><g><path d="M10,86l19,1l19,2l19,-420l19,427l19,6l19,9l19,-33l19,60l19,-118l20,79l19,-115l19,153l19,-21l19,-67l19,49l19,-10l19,-12l19,-1l19,-36l20,24l19,60l19,-7l19,-74l19,32l19,1l19,20l19,28l19,-26l19,-26l20,-28l19,77l19,-67l19,18l19,31l19,-7l19,-58l19,-3l19,34l19,-32l20,102l19,2l19,-147l19,56l19,54l19,-142l19,131l19,-3l19,-2l19,-1" style="stroke: #000000; stroke-width: 1; fill: none;"></path><g transform="translate(10,86)"><path style="stroke: #000000; stroke-width: 1; fill: none;" d="M0,0H-10m0,3v-6M0,0H10m0,3v-6M0,0V21m3,0h-6M0,0V-21m3,0h-6"></path></g><g transform="translate(29,87)"><path style="stroke: #000000; stroke-width: 1; fill: none;" d="M0,0H-10m0,3v-6M0,0H10m0,3v-6M0,0V21m3,0h-6M0,0V-21m3,0h-6"></path></g><g transform="translate(48,89)"><path style="stroke: #000000; stroke-width: 1; fill: none;" d="M0,0H-10m0,3v-6M0,0H10m0,3v-6M0,0V21m3,0h-6M0,0V-21m3,0h-6"></path></g><g transform="translate(86,96)"><path style="stroke: #000000; stroke-width: 1; fill: none;" d="M0,0H-10m0,3v-6M0,0H10m0,3v-6M0,0V21m3,0h-6M0,0V-21m3,0h-6"></path></g><g transform="translate(105,102)"><path style="stroke: #000000; stroke-width: 1; fill: none;" d="M0,0H-10m0,3v-6M0,0H10m0,3v-6M0,0V21m3,0h-6M0,0V-21m3,0h-6"></path></g><g transform="translate(124,111)"><path style="stroke: #000000; stroke-width: 1; fill: none;" d="M0,0H-10m0,3v-6M0,0H10m0,3v-6M0,0V21m3,0h-6M0,0V-21m3,0h-6"></path></g><g transform="translate(143,78)"><path style="stroke: #000000; stroke-width: 1; fill: none;" d="M0,0H-10m0,3v-6M0,0H10m0,3v-6M0,0V21m3,0h-6M0,0V-21m3,0h-6"></path></g><g transform="translate(162,138)"><path style="stroke: #000000; stroke-width: 1; fill: none;" d="M0,0H-10m0,3v-6M0,0H10m0,3v-6M0,0V21m3,0h-6M0,0V-21m3,0h-6"></path></g><g transform="translate(181,20)"><path style="stroke: #000000; stroke-width: 1; fill: none;" d="M0,0H-10m0,3v-6M0,0H10m0,3v-6M0,0V21m3,0h-6M0,0V-21m3,0h-6"></path></g><g transform="translate(201,99)"><path style="stroke: #000000; stroke-width: 1; fill: none;" d="M0,0H-10m0,3v-6M0,0H10m0,3v-6M0,0V21m3,0h-6M0,0V-21m3,0h-6"></path></g><g transform="translate(239,137)"><path style="stroke: #000000; stroke-width: 1; fill: none;" d="M0,0H-10m0,3v-6M0,0H10m0,3v-6M0,0V21m3,0h-6M0,0V-21m3,0h-6"></path></g><g transform="translate(258,116)"><path style="stroke: #000000; stroke-width: 1; fill: none;" d="M0,0H-10m0,3v-6M0,0H10m0,3v-6M0,0V21m3,0h-6M0,0V-21m3,0h-6"></path></g><g transform="translate(277,49)"><path style="stroke: #000000; stroke-width: 1; fill: none;" d="M0,0H-10m0,3v-6M0,0H10m0,3v-6M0,0V21m3,0h-6M0,0V-21m3,0h-6"></path></g><g transform="translate(296,98)"><path style="stroke: #000000; stroke-width: 1; fill: none;" d="M0,0H-10m0,3v-6M0,0H10m0,3v-6M0,0V21m3,0h-6M0,0V-21m3,0h-6"></path></g><g transform="translate(315,88)"><path style="stroke: #000000; stroke-width: 1; fill: none;" d="M0,0H-10m0,3v-6M0,0H10m0,3v-6M0,0V21m3,0h-6M0,0V-21m3,0h-6"></path></g><g transform="translate(334,76)"><path style="stroke: #000000; stroke-width: 1; fill: none;" d="M0,0H-10m0,3v-6M0,0H10m0,3v-6M0,0V21m3,0h-6M0,0V-21m3,0h-6"></path></g><g transform="translate(353,75)"><path style="stroke: #000000; stroke-width: 1; fill: none;" d="M0,0H-10m0,3v-6M0,0H10m0,3v-6M0,0V21m3,0h-6M0,0V-21m3,0h-6"></path></g><g transform="translate(372,39)"><path style="stroke: #000000; stroke-width: 1; fill: none;" d="M0,0H-10m0,3v-6M0,0H10m0,3v-6M0,0V21m3,0h-6M0,0V-21m3,0h-6"></path></g><g transform="translate(392,63)"><path style="stroke: #000000; stroke-width: 1; fill: none;" d="M0,0H-10m0,3v-6M0,0H10m0,3v-6M0,0V21m3,0h-6M0,0V-21m3,0h-6"></path></g><g transform="translate(411,123)"><path style="stroke: #000000; stroke-width: 1; fill: none;" d="M0,0H-10m0,3v-6M0,0H10m0,3v-6M0,0V21m3,0h-6M0,0V-21m3,0h-6"></path></g><g transform="translate(430,116)"><path style="stroke: #000000; stroke-width: 1; fill: none;" d="M0,0H-10m0,3v-6M0,0H10m0,3v-6M0,0V21m3,0h-6M0,0V-21m3,0h-6"></path></g><g transform="translate(449,42)"><path style="stroke: #000000; stroke-width: 1; fill: none;" d="M0,0H-10m0,3v-6M0,0H10m0,3v-6M0,0V21m3,0h-6M0,0V-21m3,0h-6"></path></g><g transform="translate(468,74)"><path style="stroke: #000000; stroke-width: 1; fill: none;" d="M0,0H-10m0,3v-6M0,0H10m0,3v-6M0,0V21m3,0h-6M0,0V-21m3,0h-6"></path></g><g transform="translate(487,75)"><path style="stroke: #000000; stroke-width: 1; fill: none;" d="M0,0H-10m0,3v-6M0,0H10m0,3v-6M0,0V21m3,0h-6M0,0V-21m3,0h-6"></path></g><g transform="translate(506,95)"><path style="stroke: #000000; stroke-width: 1; fill: none;" d="M0,0H-10m0,3v-6M0,0H10m0,3v-6M0,0V21m3,0h-6M0,0V-21m3,0h-6"></path></g><g transform="translate(525,123)"><path style="stroke: #000000; stroke-width: 1; fill: none;" d="M0,0H-10m0,3v-6M0,0H10m0,3v-6M0,0V21m3,0h-6M0,0V-21m3,0h-6"></path></g><g transform="translate(544,97)"><path style="stroke: #000000; stroke-width: 1; fill: none;" d="M0,0H-10m0,3v-6M0,0H10m0,3v-6M0,0V21m3,0h-6M0,0V-21m3,0h-6"></path></g><g transform="translate(563,71)"><path style="stroke: #000000; stroke-width: 1; fill: none;" d="M0,0H-10m0,3v-6M0,0H10m0,3v-6M0,0V21m3,0h-6M0,0V-21m3,0h-6"></path></g><g transform="translate(583,43)"><path style="stroke: #000000; stroke-width: 1; fill: none;" d="M0,0H-10m0,3v-6M0,0H10m0,3v-6M0,0V21m3,0h-6M0,0V-21m3,0h-6"></path></g><g transform="translate(602,120)"><path style="stroke: #000000; stroke-width: 1; fill: none;" d="M0,0H-10m0,3v-6M0,0H10m0,3v-6M0,0V21m3,0h-6M0,0V-21m3,0h-6"></path></g><g transform="translate(621,53)"><path style="stroke: #000000; stroke-width: 1; fill: none;" d="M0,0H-10m0,3v-6M0,0H10m0,3v-6M0,0V21m3,0h-6M0,0V-21m3,0h-6"></path></g><g transform="translate(640,71)"><path style="stroke: #000000; stroke-width: 1; fill: none;" d="M0,0H-10m0,3v-6M0,0H10m0,3v-6M0,0V21m3,0h-6M0,0V-21m3,0h-6"></path></g><g transform="translate(659,102)"><path style="stroke: #000000; stroke-width: 1; fill: none;" d="M0,0H-10m0,3v-6M0,0H10m0,3v-6M0,0V21m3,0h-6M0,0V-21m3,0h-6"></path></g><g transform="translate(678,95)"><path style="stroke: #000000; stroke-width: 1; fill: none;" d="M0,0H-10m0,3v-6M0,0H10m0,3v-6M0,0V21m3,0h-6M0,0V-21m3,0h-6"></path></g><g transform="translate(697,37)"><path style="stroke: #000000; stroke-width: 1; fill: none;" d="M0,0H-10m0,3v-6M0,0H10m0,3v-6M0,0V21m3,0h-6M0,0V-21m3,0h-6"></path></g><g transform="translate(716,34)"><path style="stroke: #000000; stroke-width: 1; fill: none;" d="M0,0H-10m0,3v-6M0,0H10m0,3v-6M0,0V21m3,0h-6M0,0V-21m3,0h-6"></path></g><g transform="translate(735,68)"><path style="stroke: #000000; stroke-width: 1; fill: none;" d="M0,0H-10m0,3v-6M0,0H10m0,3v-6M0,0V21m3,0h-6M0,0V-21m3,0h-6"></path></g><g transform="translate(754,36)"><path style="stroke: #000000; stroke-width: 1; fill: none;" d="M0,0H-10m0,3v-6M0,0H10m0,3v-6M0,0V21m3,0h-6M0,0V-21m3,0h-6"></path></g><g transform="translate(774,138)"><path style="stroke: #000000; stroke-width: 1; fill: none;" d="M0,0H-10m0,3v-6M0,0H10m0,3v-6M0,0V21m3,0h-6M0,0V-21m3,0h-6"></path></g><g transform="translate(793,140)"><path style="stroke: #000000; stroke-width: 1; fill: none;" d="M0,0H-10m0,3v-6M0,0H10m0,3v-6M0,0V21m3,0h-6M0,0V-21m3,0h-6"></path></g><g transform="translate(831,49)"><path style="stroke: #000000; stroke-width: 1; fill: none;" d="M0,0H-10m0,3v-6M0,0H10m0,3v-6M0,0V21m3,0h-6M0,0V-21m3,0h-6"></path></g><g transform="translate(850,103)"><path style="stroke: #000000; stroke-width: 1; fill: none;" d="M0,0H-10m0,3v-6M0,0H10m0,3v-6M0,0V21m3,0h-6M0,0V-21m3,0h-6"></path></g><g transform="translate(888,92)"><path style="stroke: #000000; stroke-width: 1; fill: none;" d="M0,0H-10m0,3v-6M0,0H10m0,3v-6M0,0V21m3,0h-6M0,0V-21m3,0h-6"></path></g><g transform="translate(907,89)"><path style="stroke: #000000; stroke-width: 1; fill: none;" d="M0,0H-10m0,3v-6M0,0H10m0,3v-6M0,0V21m3,0h-6M0,0V-21m3,0h-6"></path></g><g transform="translate(926,87)"><path style="stroke: #000000; stroke-width: 1; fill: none;" d="M0,0H-10m0,3v-6M0,0H10m0,3v-6M0,0V21m3,0h-6M0,0V-21m3,0h-6"></path></g><g transform="translate(945,86)"><path style="stroke: #000000; stroke-width: 1; fill: none;" d="M0,0H-10m0,3v-6M0,0H10m0,3v-6M0,0V21m3,0h-6M0,0V-21m3,0h-6"></path></g></g></svg><g><g transform="translate(0,167)"><path d="M0,0h955M0,-167h955M0,-24V0M19,-12V0M38,-12V0M57,-12V0M76,-12V0M96,-24V0M115,-12V0M134,-12V0M153,-12V0M172,-12V0M191,-24V0M210,-12V0M229,-12V0M248,-12V0M267,-12V0M287,-24V0M306,-12V0M325,-12V0M344,-12V0M363,-12V0M382,-24V0M401,-12V0M420,-12V0M439,-12V0M458,-12V0M478,-24V0M497,-12V0M516,-12V0M535,-12V0M554,-12V0M573,-24V0M592,-12V0M611,-12V0M630,-12V0M649,-12V0M669,-24V0M688,-12V0M707,-12V0M726,-12V0M745,-12V0M764,-24V0M783,-12V0M802,-12V0M821,-12V0M840,-12V0M860,-24V0M879,-12V0M898,-12V0M917,-12V0M936,-12V0M955,-24V0M0,-143V-167M19,-155V-167M38,-155V-167M57,-155V-167M76,-155V-167M96,-143V-167M115,-155V-167M134,-155V-167M153,-155V-167M172,-155V-167M191,-143V-167M210,-155V-167M229,-155V-167M248,-155V-167M267,-155V-167M287,-143V-167M306,-155V-167M325,-155V-167M344,-155V-167M363,-155V-167M382,-143V-167M401,-155V-167M420,-155V-167M439,-155V-167M458,-155V-167M478,-143V-167M497,-155V-167M516,-155V-167M535,-155V-167M554,-155V-167M573,-143V-167M592,-155V-167M611,-155V-167M630,-155V-167M649,-155V-167M669,-143V-167M688,-155V-167M707,-155V-167M726,-155V-167M745,-155V-167M764,-143V-167M783,-155V-167M802,-155V-167M821,-155V-167M840,-155V-167M860,-143V-167M879,-155V-167M898,-155V-167M917,-155V-167M936,-155V-167M955,-143V-167" style="stroke: #000000; stroke-width: 1;"></path><g font-family="Arial" font-size="28" space="preserve" fill="#000000" text-anchor="middle"><text dy=".8em" transform="translate(0,5)">-5</text><text dy=".8em" transform="translate(96,5)">-4</text><text dy=".8em" transform="translate(191,5)">-3</text><text dy=".8em" transform="translate(287,5)">-2</text><text dy=".8em" transform="translate(382,5)">-1</text><text dy=".8em" transform="translate(478,5)">0</text><text dy=".8em" transform="translate(573,5)">1</text><text dy=".8em" transform="translate(669,5)">2</text><text dy=".8em" transform="translate(764,5)">3</text><text dy=".8em" transform="translate(860,5)">4</text><text dy=".8em" transform="translate(955,5)">5</text></g><g font-family="Arial" font-size="28" space="preserve" transform="translate(955,45)"><text fill="#000000" text-anchor="end" dy=".4em">x</text></g></g><g><path d="M0,0v167M955,0v167M36,167H0M18,163H0M18,159H0M18,154H0M18,150H0M36,146H0M18,142H0M18,138H0M18,134H0M18,129H0M36,125H0M18,121H0M18,117H0M18,113H0M18,109H0M36,104H0M18,100H0M18,96H0M18,92H0M18,88H0M36,84H0M18,79H0M18,75H0M18,71H0M18,67H0M36,63H0M18,58H0M18,54H0M18,50H0M18,46H0M36,42H0M18,38H0M18,33H0M18,29H0M18,25H0M36,21H0M18,17H0M18,13H0M18,8H0M18,4H0M36,0H0M919,167H955M937,163H955M937,159H955M937,154H955M937,150H955M919,146H955M937,142H955M937,138H955M937,134H955M937,129H955M919,125H955M937,121H955M937,117H955M937,113H955M937,109H955M919,104H955M937,100H955M937,96H955M937,92H955M937,88H955M919,84H955M937,79H955M937,75H955M937,71H955M937,67H955M919,63H955M937,58H955M937,54H955M937,50H955M937,46H955M919,42H955M937,38H955M937,33H955M937,29H955M937,25H955M919,21H955M937,17H955M937,13H955M937,8H955M937,4H955M919,0H955" style="stroke: #000000; stroke-width: 1;"></path><g font-family="Arial" font-size="28" space="preserve" fill="#000000" text-anchor="end"><text dy=".4em" transform="translate(-6,167)">-2</text><text dy=".4em" transform="translate(-6,146)">-1.5</text><text dy=".4em" transform="translate(-6,125)">-1</text><text dy=".4em" transform="translate(-6,104)">-0.5</text><text dy=".4em" transform="translate(-6,84)">0</text><text dy=".4em" transform="translate(-6,63)">0.5</text><text dy=".4em" transform="translate(-6,42)">1</text><text dy=".4em" transform="translate(-6,21)">1.5</text><text dy=".4em" transform="translate(-6)">2</text></g></g></g></g><g><path d="M119,42H1074" style="stroke: #000000; stroke-width: 1; stroke-dasharray: 3,3;"></path></g><g><path d="M119,84H1074" style="stroke: #000000; stroke-width: 1; stroke-dasharray: 3,3;"></path></g><g><path d="M119,84V84" style="stroke: #000000; stroke-width: 1; stroke-dasharray: 3,3;"></path></g></g></svg></g></svg>