<svg xmlns="http://www.w3.org/2000/svg" viewBox="0 0 1200 800" preserveAspectRatio="none" width="1200" height="800"><path d="M0,0H1200V800H0Z" style="fill: #ffffff;"></path><g><svg viewBox="0 0 1194 558" preserveAspectRatio="none" x="3" y="2" width="1194" height="558"><path d="M0,0H1194V558H0Z" style="fill: #ffffff;"></path><g><g transform="translate(119,56)"><path d="M0,0H955V502H0Z" style="fill: #ffffff; stroke: #000000; stroke-width: 1;"></path><svg x="0" y="0" overflow="hidden" width="955" height="502" viewBox="0 0 955 502"><g><path d="M57,500h20M67,498v3M134,501h20M144,500v2M172,495h20M182,492v6M191,496h20M201,494v5M210,481h20M220,477v9M229,488h20M239,484v8M248,475h20M258,469v11M267,446h20M277,438v16M287,431h20M297,422v18M306,397h20M316,386v22M325,353h20M335,340v26M344,305h20M354,290v30M363,238h20M373,220v35M382,192h20M392,173v38M401,168h20M411,148v40M420,120h20M430,99v42M439,48h20M449,25v46M458,47h20M468,24v46M478,47h20M488,24v46M497,74h20M507,52v44M516,121h20M526,100v42M535,152h20M545,132v40M554,192h20M564,173v38M573,235h20M583,218v35M592,318h20M602,303v29M611,343h20M621,330v26M630,390h20M640,379v22M649,430h20M659,421v18M669,453h20M679,445v15M688,462h20M698,455v14M707,476h20M717,470v11M726,488h20M736,484v8M745,492h20M755,488v7M764,501h20M774,500v2M802,499h20M812,497v4M821,501h20M831,500v2M860,501h20M870,500v2" style="stroke: #000099; stroke-width: 1;"></path></g><g><path d="M5,502h10h9h10h9h10h9h10h9h10h10h9h10l9,-1h10h9l10,-1h9l10,-1l9,-1l10,-2l10,-2l9,-2l10,-4l9,-4l10,-5l9,-6l10,-7l9,-9l10,-10l10,-12l9,-15l10,-16l9,-18l10,-20l9,-22l10,-23l9,-25l10,-27l9,-27l10,-27l10,-27l9,-27l10,-24l9,-23l10,-20l9,-17l10,-13l9,-9l10,-5h10l9,4l10,8l9,13l10,16l9,20l10,22l9,25l10,26l9,27l10,27l10,28l9,26l10,25l9,24l10,22l9,21l10,18l9,16l10,15l10,12l9,11l10,9l9,7l10,7l9,5l10,4l9,3l10,3l9,2l10,1l10,2l9,1h10l9,1h10h9l10,1h9h10h10h9h10h9h10h9h10h9h10h9" style="fill: none; stroke: #ff0000; stroke-width: 2;"></path></g></svg><g><g transform="translate(0,502)"><path d="M0,0h955M0,-502h955M0,-13V0M19,-7V0M38,-7V0M57,-7V0M76,-7V0M96,-13V0M115,-7V0M134,-7V0M153,-7V0M172,-7V0M191,-13V0M210,-7V0M229,-7V0M248,-7V0M267,-7V0M287,-13V0M306,-7V0M325,-7V0M344,-7V0M363,-7V0M382,-13V0M401,-7V0M420,-7V0M439,-7V0M458,-7V0M478,-13V0M497,-7V0M516,-7V0M535,-7V0M554,-7V0M573,-13V0M592,-7V0M611,-7V0M630,-7V0M649,-7V0M669,-13V0M688,-7V0M707,-7V0M726,-7V0M745,-7V0M764,-13V0M783,-7V0M802,-7V0M821,-7V0M840,-7V0M860,-13V0M879,-7V0M898,-7V0M917,-7V0M936,-7V0M955,-13V0M0,-489V-502M19,-495V-502M38,-495V-502M57,-495V-502M76,-495V-502M96,-489V-502M115,-495V-502M134,-495V-502M153,-495V-502M172,-495V-502M191,-489V-502M210,-495V-502M229,-495V-502M248,-495V-502M267,-495V-502M287,-489V-502M306,-495V-502M325,-495V-502M344,-495V-502M363,-495V-502M382,-489V-502M401,-495V-502M420,-495V-502M439,-495V-502M458,-495V-502M478,-489V-502M497,-495V-502M516,-495V-502M535,-495V-502M554,-495V-502M573,-489V-502M592,-495V-502M611,-495V-502M630,-495V-502M649,-495V-502M669,-489V-502M688,-495V-502M707,-495V-502M726,-495V-502M745,-495V-502M764,-489V-502M783,-495V-502M802,-495V-502M821,-495V-502M840,-495V-502M860,-489V-502M879,-495V-502M898,-495V-502M917,-495V-502M936,-495V-502M955,-489V-502" style="stroke: #000000; stroke-width: 1;"></path></g><g><path d="M0,0v502M955,0v502M23,502H0M12,491H0M12,479H0M12,468H0M12,456H0M23,445H0M12,433H0M12,422H0M12,410H0M12,399H0M23,388H0M12,376H0M12,365H0M12,353H0M12,342H0M23,330H0M12,319H0M12,308H0M12,296H0M12,285H0M23,273H0M12,262H0M12,250H0M12,239H0M12,227H0M23,216H0M12,205H0M12,193H0M12,182H0M12,170H0M23,159H0M12,147H0M12,136H0M12,125H0M12,113H0M23,102H0M12,90H0M12,79H0M12,67H0M12,56H0M23,44H0M12,33H0M12,22H0M12,10H0M932,502H955M943,491H955M943,479H955M943,468H955M943,456H955M932,445H955M943,433H955M943,422H955M943,410H955M943,399H955M932,388H955M943,376H955M943,365H955M943,353H955M943,342H955M932,330H955M943,319H955M943,308H955M943,296H955M943,285H955M932,273H955M943,262H955M943,250H955M943,239H955M943,227H955M932,216H955M943,205H955M943,193H955M943,182H955M943,170H955M932,159H955M943,147H955M943,136H955M943,125H955M943,113H955M932,102H955M943,90H955M943,79H955M943,67H955M943,56H955M932,44H955M943,33H955M943,22H955M943,10H955" style="stroke: #000000; stroke-width: 1;"></path><g font-family="Arial" font-size="28" space="preserve" fill="#000000" text-anchor="end"><text dy=".4em" transform="translate(-6,502)">0</text><text dy=".4em" transform="translate(-6,445)">50</text><text dy=".4em" transform="translate(-6,388)">100</text><text dy=".4em" transform="translate(-6,330)">150</text><text dy=".4em" transform="translate(-6,273)">200</text><text dy=".4em" transform="translate(-6,216)">250</text><text dy=".4em" transform="translate(-6,159)">300</text><text dy=".4em" transform="translate(-6,102)">350</text><text dy=".4em" transform="translate(-6,44)">400</text></g><g font-family="Arial" font-size="28" space="preserve" transform="translate(-78)"><text fill="#000000" text-anchor="end" dy=".4em" transform="rotate(270)">y</text></g></g></g></g><g transform="translate(119,3)" font-family="Arial" font-size="28" space="preserve"><text fill="#000000" text-anchor="middle" dy=".8em" transform="translate(478)">h1</text></g></g></svg><svg viewBox="0 0 1194 238" preserveAspectRatio="none" x="3" y="560" width="1194" height="238"><path d="M0,0H1194V238H0Z" style="fill: #ffffff;"></path><g><g transform="translate(119)"><path d="M0,0H955V167H0Z" style="fill: #ffffff; stroke: #000000; stroke-width: 1;"></path><svg x="0" y="0" overflow="hidden" width="955" height="167" viewBox="0 0 955 167"><g><path d="M10,85h19l19,1l19,1l19,1l19,1l19,2l19,2l19,3l19,2l20,3l19,3l19,2l19,2l19,2l19,1h38l19,-1h58l19,1l19,1h57l19,-1l19,-1h58l19,1h38l19,-1l19,-1l19,-2l19,-3l19,-3l20,-2l19,-3l19,-3l19,-2l19,-2l19,-1l19,-1l19,-1l19,-1h19L945,82h-19l-19,-1l-19,-1l-19,-1l-19,-1l-19,-2l-19,-2l-19,-3l-19,-3l-20,-2l-19,-3l-19,-3l-19,-2l-19,-1l-19,-1h-38l-19,1h-58l-19,-1l-19,-1h-57l-19,1l-19,1h-58l-19,-1h-38l-19,1l-19,2l-19,2l-19,2l-19,3l-20,3l-19,2l-19,3l-19,2l-19,2l-19,1l-19,1l-19,1l-19,1h-19Z" style="fill: #00ff00;"></path></g><g><path d="M10,84h19l19,1h19l19,1h19l19,1l19,1l19,2l19,1l20,1l19,2l19,1l19,1l19,1h153l19,1h57l19,-1h153l19,-1l19,-1l19,-1l19,-2l20,-1l19,-1l19,-2l19,-1l19,-1h19l19,-1h19l19,-1h19L945,83h-19l-19,-1h-19l-19,-1h-19l-19,-1l-19,-1l-19,-2l-19,-1l-20,-1l-19,-2l-19,-1l-19,-1l-19,-1h-153l-19,-1h-57l-19,1h-153l-19,1l-19,1l-19,1l-19,2l-20,1l-19,1l-19,2l-19,1l-19,1h-19l-19,1h-19l-19,1h-19Z" style="fill: #ffff00;"></path></g><g><path d="M10,86l19,1l19,2l19,-420l19,427l19,6l19,9l19,-33l19,60l19,-118l20,79l19,-115l19,153l19,-21l19,-67l19,49l19,-10l19,-12l19,-1l19,-36l20,24l19,60l19,-7l19,-74l19,32l19,1l19,20l19,28l19,-26l19,-26l20,-28l19,77l19,-67l19,18l19,31l19,-7l19,-58l19,-3l19,34l19,-32l20,102l19,2l19,-147l19,56l19,54l19,-142l19,131l19,-3l19,-2l19,-1" style="stroke: #000000; stroke-width: 1; fill: none;"></path><g transform="translate(10,86)"><path style="stroke: #000000; stroke-width: 1; fill: none;" d="M0,0H-10m0,3v-6M0,0H10m0,3v-6M0,0V21m3,0h-6M0,0V-21m3,0h-6"></path></g><g transform="translate(29,87)"><path style="stroke: #000000; stroke-width: 1; fill: none;" d="M0,0H-10m0,3v-6M0,0H10m0,3v-6M0,0V21m3,0h-6M0,0V-21m3,0h-6"></path></g><g transform="translate(48,89)"><path style="stroke: #000000; stroke-width: 1; fill: none;" d="M0,0H-10m0,3v-6M0,0H10m0,3v-6M0,0V21m3,0h-6M0,0V-21m3,0h-6"></path></g><g transform="translate(86,96)"><path style="stroke: #000000; stroke-width: 1; fill: none;" d="M0,0H-10m0,3v-6M0,0H10m0,3v-6M0,0V21m3,0h-6M0,0V-21m3,0h-6"></path></g><g transform="translate(105,102)"><path style="stroke: #000000; stroke-width: 1; fill: none;" d="M0,0H-10m0,3v-6M0,0H10m0,3v-6M0,0V21m3,0h-6M0,0V-21m3,0h-6"></path></g><g transform="translate(124,111)"><path style="stroke: #000000; stroke-width: 1; fill: none;" d="M0,0H-10m0,3v-6M0,0H10m0,3v-6M0,0V21m3,0h-6M0,0V-21m3,0h-6"></path></g><g transform="translate(143,78)"><path style="stroke: #000000; stroke-width: 1; fill: none;" d="M0,0H-10m0,3v-6M0,0H10m0,3v-6M0,0V21m3,0h-6M0,0V-21m3,0h-6"></path></g><g transform="translate(162,138)"><path style="stroke: #000000; stroke-width: 1; fill: none;" d="M0,0H-10m0,3v-6M0,0H10m0,3v-6M0,0V21m3,0h-6M0,0V-21m3,0h-6"></path></g><g transform="translate(181,20)"><path style="stroke: #000000; stroke-width: 1; fill: none;" d="M0,0H-10m0,3v-6M0,0H10m0,3v-6M0,0V21m3,0h-6M0,0V-21m3,0h-6"></path></g><g transform="translate(201,99)"><path style="stroke: #000000; stroke-width: 1; fill: none;" d="M0,0H-10m0,3v-6M0,0H10m0,3v-6M0,0V21m3,0h-6M0,0V-21m3,0h-6"></path></g><g transform="translate(239,137)"><path style="stroke: #000000; stroke-width: 1; fill: none;" d="M0,0H-10m0,3v-6M0,0H10m0,3v-6M0,0V21m3,0h-6M0,0V-21m3,0h-6"></path></g><g transform="translate(258,116)"><path style="stroke: #000000; stroke-width: 1; fill: none;" d="M0,0H-10m0,3v-6M0,0H10m0,3v-6M0,0V21m3,0h-6M0,0V-21m3,0h-6"></path></g><g transform="translate(277,49)"><path style="stroke: #000000; stroke-width: 1; fill: none;" d="M0,0H-10m0,3v-6M0,0H10m0,3v-6M0,0V21m3,0h-6M0,0V-21m3,0h-6"></path></g><g transform="translate(296,98)"><path style="stroke: #000000; stroke-width: 1; fill: none;" d="M0,0H-10m0,3v-6M0,0H10m0,3v-6M0,0V21m3,0h-6M0,0V-21m3,0h-6"></path></g><g transform="translate(315,88)"><path style="stroke: #000000; stroke-width: 1; fill: none;" d="M0,0H-10m0,3v-6M0,0H10m0,3v-6M0,0V21m3,0h-6M0,0V-21m3,0h-6"></path></g><g transform="translate(334,76)"><path style="stroke: #000000; stroke-width: 1; fill: none;" d="M0,0H-10m0,3v-6M0,0H10m0,3v-6M0,0V21m3,0h-6M0,0V-21m3,0h-6"></path></g><g transform="translate(353,75)"><path style="stroke: #000000; stroke-width: 1; fill: none;" d="M0,0H-10m0,3v-6M0,0H10m0,3v-6M0,0V21m3,0h-6M0,0V-21m3,0h-6"></path></g><g transform="translate(372,39)"><path style="stroke: #000000; stroke-width: 1; fill: none;" d="M0,0H-10m0,3v-6M0,0H10m0,3v-6M0,0V21m3,0h-6M0,0V-21m3,0h-6"></path></g><g transform="translate(392,63)"><path style="stroke: #000000; stroke-width: 1; fill: none;" d="M0,0H-10m0,3v-6M0,0H10m0,3v-6M0,0V21m3,0h-6M0,0V-21m3,0h-6"></path></g><g transform="translate(411,123)"><path style="stroke: #000000; stroke-width: 1; fill: none;" d="M0,0H-10m0,3v-6M0,0H10m0,3v-6M0,0V21m3,0h-6M0,0V-21m3,0h-6"></path></g><g transform="translate(430,116)"><path style="stroke: #000000; stroke-width: 1; fill: none;" d="M0,0H-10m0,3v-6M0,0H10m0,3v-6M0,0V21m3,0h-6M0,0V-21m3,0h-6"></path></g><g transform="translate(449,42)"><path style="stroke: #000000; stroke-width: 1; fill: none;" d="M0,0H-10m0,3v-6M0,0H10m0,3v-6M0,0V21m3,0h-6M0,0V-21m3,0h-6"></path></g><g transform="translate(468,74)"><path style="stroke: #000000; stroke-width: 1; fill: none;" d="M0,0H-10m0,3v-6M0,0H10m0,3v-6M0,0V21m3,0h-6M0,0V-21m3,0h-6"></path></g><g transform="translate(487,75)"><path style="stroke: #000000; stroke-width: 1; fill: none;" d="M0,0H-10m0,3v-6M0,0H10m0,3v-6M0,0V21m3,0h-6M0,0V-21m3,0h-6"></path></g><g transform="translate(506,95)"><path style="stroke: #000000; stroke-width: 1; fill: none;" d="M0,0H-10m0,3v-6M0,0H10m0,3v-6M0,0V21m3,0h-6M0,0V-21m3,0h-6"></path></g><g transform="translate(525,123)"><path style="stroke: #000000; stroke-width: 1; fill: none;" d="M0,0H-10m0,3v-6M0,0H10m0,3v-6M0,0V21m3,0h-6M0,0V-21m3,0h-6"></path></g><g transform="translate(544,97)"><path style="stroke: #000000; stroke-width: 1; fill: none;" d="M0,0H-10m0,3v-6M0,0H10m0,3v-6M0,0V21m3,0h-6M0,0V-21m3,0h-6"></path></g><g transform="translate(563,71)"><path style="stroke: #000000; stroke-width: 1; fill: none;" d="M0,0H-10m0,3v-6M0,0H10m0,3v-6M0,0V21m3,0h-6M0,0V-21m3,0h-6"></path></g><g transform="translate(583,43)"><path style="stroke: #000000; stroke-width: 1; fill: none;" d="M0,0H-10m0,3v-6M0,0H10m0,3v-6M0,0V21m3,0h-6M0,0V-21m3,0h-6"></path></g><g transform="translate(602,120)"><path style="stroke: #000000; stroke-width: 1; fill: none;" d="M0,0H-10m0,3v-6M0,0H10m0,3v-6M0,0V21m3,0h-6M0,0V-21m3,0h-6"></path></g><g transform="translate(621,53)"><path style="stroke: #000000; stroke-width: 1; fill: none;" d="M0,0H-10m0,3v-6M0,0H10m0,3v-6M0,0V21m3,0h-6M0,0V-21m3,0h-6"></path></g><g transform="translate(640,71)"><path style="stroke: #000000; stroke-width: 1; fill: none;" d="M0,0H-10m0,3v-6M0,0H10m0,3v-6M0,0V21m3,0h-6M0,0V-21m3,0h-6"></path></g><g transform="translate(659,102)"><path style="stroke: #000000; stroke-width: 1; fill: none;" d="M0,0H-10m0,3v-6M0,0H10m0,3v-6M0,0V21m3,0h-6M0,0V-21m3,0h-6"></path></g><g transform="translate(678,95)"><path style="stroke: #000000; stroke-width: 1; fill: none;" d="M0,0H-10m0,3v-6M0,0H10m0,3v-6M0,0V21m3,0h-6M0,0V-21m3,0h-6"></path></g><g transform="translate(697,37)"><path style="stroke: #000000; stroke-width: 1; fill: none;" d="M0,0H-10m0,3v-6M0,0H10m0,3v-6M0,0V21m3,0h-6M0,0V-21m3,0h-6"></path></g><g transform="translate(716,34)"><path style="stroke: #000000; stroke-width: 1; fill: none;" d="M0,0H-10m0,3v-6M0,0H10m0,3v-6M0,0V21m3,0h-6M0,0V-21m3,0h-6"></path></g><g transform="translate(735,68)"><path style="stroke: #000000; stroke-width: 1; fill: none;" d="M0,0H-10m0,3v-6M0,0H10m0,3v-6M0,0V21m3,0h-6M0,0V-21m3,0h-6"></path></g><g transform="translate(754,36)"><path style="stroke: #000000; stroke-width: 1; fill: none;" d="M0,0H-10m0,3v-6M0,0H10m0,3v-6M0,0V21m3,0h-6M0,0V-21m3,0h-6"></path></g><g transform="translate(774,138)"><path style="stroke: #000000; stroke-width: 1; fill: none;" d="M0,0H-10m0,3v-6M0,0H10m0,3v-6M0,0V21m3,0h-6M0,0V-21m3,0h-6"></path></g><g transform="translate(793,140)"><path style="stroke: #000000; stroke-width: 1; fill: none;" d="M0,0H-10m0,3v-6M0,0H10m0,3v-6M0,0V21m3,0h-6M0,0V-21m3,0h-6"></path></g><g transform="translate(831,49)"><path style="stroke: #000000; stroke-width: 1; fill: none;" d="M0,0H-10m0,3v-6M0,0H10m0,3v-6M0,0V21m3,0h-6M0,0V-21m3,0h-6"></path></g><g transform="translate(850,103)"><path style="stroke: #000000; stroke-width: 1; fill: none;" d="M0,0H-10m0,3v-6M0,0H10m0,3v-6M0,0V21m3,0h-6M0,0V-21m3,0h-6"></path></g><g transform="translate(888,92)"><path style="stroke: #000000; stroke-width: 1; fill: none;" d="M0,0H-10m0,3v-6M0,0H10m0,3v-6M0,0V21m3,0h-6M0,0V-21m3,0h-6"></path></g><g transform="translate(907,89)"><path style="stroke: #000000; stroke-width: 1; fill: none;" d="M0,0H-10m0,3v-6M0,0H10m0,3v-6M0,0V21m3,0h-6M0,0V-21m3,0h-6"></path></g><g transform="translate(926,87)"><path style="stroke: #000000; stroke-width: 1; fill: none;" d="M0,0H-10m0,3v-6M0,0H10m0,3v-6M0,0V21m3,0h-6M0,0V-21m3,0h-6"></path></g><g transform="translate(945,86)"><path style="stroke: #000000; stroke-width: 1; fill: none;" d="M0,0H-10m0,3v-6M0,0H10m0,3v-6M0,0V21m3,0h-6M0,0V-21m3,0h-6"></path></g></g></svg><g><g transform="translate(0,167)"><path d="M0,0h955M0,-167h955M0,-19V0M19,-10V0M38,-10V0M57,-10V0M76,-10V0M96,-19V0M115,-10V0M134,-10V0M153,-10V0M172,-10V0M191,-19V0M210,-10V0M229,-10V0M248,-10V0M267,-10V0M287,-19V0M306,-10V0M325,-10V0M344,-10V0M363,-10V0M382,-19V0M401,-10V0M420,-10V0M439,-10V0M458,-10V0M478,-19V0M497,-10V0M516,-10V0M535,-10V0M554,-10V0M573,-19V0M592,-10V0M611,-10V0M630,-10V0M649,-10V0M669,-19V0M688,-10V0M707,-10V0M726,-10V0M745,-10V0M764,-19V0M783,-10V0M802,-10V0M821,-10V0M840,-10V0M860,-19V0M879,-10V0M898,-10V0M917,-10V0M936,-10V0M955,-19V0M0,-148V-167M19,-157V-167M38,-157V-167M57,-157V-167M76,-157V-167M96,-148V-167M115,-157V-167M134,-157V-167M153,-157V-167M172,-157V-167M191,-148V-167M210,-157V-167M229,-157V-167M248,-157V-167M267,-157V-167M287,-148V-167M306,-157V-167M325,-157V-167M344,-157V-167M363,-157V-167M382,-148V-167M401,-157V-167M420,-157V-167M439,-157V-167M458,-157V-167M478,-148V-167M497,-157V-167M516,-157V-167M535,-157V-167M554,-157V-167M573,-148V-167M592,-157V-167M611,-157V-167M630,-157V-167M649,-157V-167M669,-148V-167M688,-157V-167M707,-157V-167M726,-157V-167M745,-157V-167M764,-148V-167M783,-157V-167M802,-157V-167M821,-157V-167M840,-157V-167M860,-148V-167M879,-157V-167M898,-157V-167M917,-157V-167M936,-157V-167M955,-148V-167" style="stroke: #000000; stroke-width: 1;"></path><g font-family="Arial" font-size="28" space="preserve" fill="#000000" text-anchor="middle"><text dy=".8em" transform="translate(0,5)">-5</text><text dy=".8em" transform="translate(96,5)">-4</text><text dy=".8em" transform="translate(191,5)">-3</text><text dy=".8em" transform="translate(287,5)">-2</text><text dy=".8em" transform="translate(382,5)">-1</text><text dy=".8em" transform="translate(478,5)">0</text><text dy=".8em" transform="translate(573,5)">1</text><text dy=".8em" transform="translate(669,5)">2</text><text dy=".8em" transform="translate(764,5)">3</text><text dy=".8em" transform="translate(860,5)">4</text><text dy=".8em" transform="translate(955,5)">5</text></g><g font-family="Arial" font-size="28" space="preserve" transform="translate(955,45)"><text fill="#000000" text-anchor="end" dy=".4em">x</text></g></g><g><path d="M0,0v167M955,0v167M8,167H0M4,163H0M4,159H0M4,154H0M4,150H0M8,146H0M4,142H0M4,138H0M4,134H0M4,129H0M8,125H0M4,121H0M4,117H0M4,113H0M4,109H0M8,104H0M4,100H0M4,96H0M4,92H0M4,88H0M8,84H0M4,79H0M4,75H0M4,71H0M4,67H0M8,63H0M4,58H0M4,54H0M4,50H0M4,46H0M8,42H0M4,38H0M4,33H0M4,29H0M4,25H0M8,21H0M4,17H0M4,13H0M4,8H0M4,4H0M8,0H0M947,167H955M951,163H955M951,159H955M951,154H955M951,150H955M947,146H955M951,142H955M951,138H955M951,134H955M951,129H955M947,125H955M951,121H955M951,117H955M951,113H955M951,109H955M947,104H955M951,100H955M951,96H955M951,92H955M951,88H955M947,84H955M951,79H955M951,75H955M951,71H955M951,67H955M947,63H955M951,58H955M951,54H955M951,50H955M951,46H955M947,42H955M951,38H955M951,33H955M951,29H955M951,25H955M947,21H955M951,17H955M951,13H955M951,8H955M951,4H955M947,0H955" style="stroke: #000000; stroke-width: 1;"></path><g font-family="Arial" font-size="28" space="preserve" fill="#000000" text-anchor="end"><text dy=".4em" transform="translate(-6,167)">-2</text><text dy=".4em" transform="translate(-6,146)">-1.5</text><text dy=".4em" transform="translate(-6,125)">-1</text><text dy=".4em" transform="translate(-6,104)">-0.5</text><text dy=".4em" transform="translate(-6,84)">0</text><text dy=".4em" transform="translate(-6,63)">0.5</text><text dy=".4em" transform="translate(-6,42)">1</text><text dy=".4em" transform="translate(-6,21)">1.5</text><text dy=".4em" transform="translate(-6)">2</text></g></g></g></g><g><path d="M119,42H1074" style="stroke: #000000; stroke-width: 1; stroke-dasharray: 3,3;"></path></g><g><path d="M119,84H1074" style="stroke: #000000; stroke-width: 1; stroke-dasharray: 3,3;"></path></g><g><path d="M119,84V84" style="stroke: #000000; stroke-width: 1; stroke-dasharray: 3,3;"></path></g></g></svg></g></svg>