<svg xmlns="http://www.w3.org/2000/svg" viewBox="0 0 1200 800" preserveAspectRatio="none" width="1200" height="800"><path d="M0,0H1200V800H0Z" style="fill: #ffffff;"></path><g><g transform="translate(120,80)"><path d="M0,0H960V640H0Z" style="fill: #ffffff; stroke: #000000; stroke-width: 1;"></path><svg x="0" y="0" overflow="hidden" width="960" height="640" viewBox="0 0 960 640"><g><path fill="#263da8" d="M0,320h24v16h-24zM24,176h24v16h-24zm0,96h24v16h-24zM48,224h24v16h-24zm0,80h24v32h-24zm0,48h24v16h-24zm0,32h24v32h-24zM72,320h24v16h-24zm0,32h24v16h-24zm0,32h24v48h-24zM96,208h24v64h-24zm0,80h24v32h-24zm0,80h24v48h-24zM120,144h24v64h-24zm0,80h24v160h-24zm0,192h24v16h-24zm0,32h24v16h-24zm0,32h24v16h-24zM144,176h24v112h-24zm0,128h24v160h-24zm0,208h24v16h-24zM168,112h24v16h-24zm0,32h24v16h-24zm0,32h24v112h-24zm0,128h24v144h-24zm0,160h24v32h-24zM192,48h24v16h-24zm0,48h24v32h-24zm0,48h24v48h-24zm0,64h24v48h-24zm0,64h24v16h-24zm0,48h24v32h-24zm0,64h24v32h-24zm0,48h24v48h-24zm0,64h24v32h-24zM216,112h24v128h-24zm0,320h24v64h-24zm0,80h24v16h-24zM240,80h24v16h-24zm0,32h24v64h-24zm0,336h24v80h-24zm0,96h24v16h-24zM264,64h24v32h-24zm0,48h24v80h-24zm0,336h24v96h-24zM288,128h24v16h-24zm0,368h24v32h-24zm0,80h24v16h-24zM312,96h24v64h-24zm0,368h24v16h-24zm0,32h24v64h-24zm0,112h24v16h-24zM336,96h24v48h-24zm0,400h24v80h-24zM360,48h24v80h-24zm0,448h24v80h-24zm0,112h24v32h-24zM384,80h24v16h-24zm0,32h24v32h-24zm0,400h24v64h-24zM408,64h24v48h-24zm0,448h24v48h-24zm0,64h24v16h-24zM432,0h24v16h-24zm0,32h24v16h-24zm0,32h24v64h-24zm0,448h24v64h-24zm0,96h24v16h-24zM456,32h24v16h-24zm0,32h24v48h-24zm0,448h24v80h-24zM480,48h24v80h-24zm0,480h24v32h-24zm0,48h24v32h-24zM504,16h24v48h-24zm0,64h24v48h-24zm0,416h24v32h-24zm0,48h24v32h-24zM528,0h24v16h-24zm0,48h24v16h-24zm0,32h24v48h-24zm0,432h24v48h-24zm0,80h24v16h-24zM552,48h24v32h-24zm0,48h24v48h-24zm0,400h24v32h-24zm0,48h24v16h-24zM576,0h24v16h-24zm0,64h24v80h-24zm0,432h24v80h-24zm0,112h24v16h-24zM600,64h24v96h-24zm0,432h24v32h-24zm0,48h24v16h-24zM624,64h24v16h-24zm0,32h24v48h-24zm0,64h24v16h-24zm0,320h24v16h-24zm0,32h24v32h-24zm0,64h24v32h-24zM648,48h24v16h-24zm0,48h24v16h-24zm0,32h24v64h-24zm0,304h24v16h-24zm0,32h24v48h-24zm0,64h24v32h-24zM672,96h24v80h-24zm0,400h24v16h-24zM696,48h24v16h-24zm0,64h24v16h-24zm0,32h24v80h-24zm0,288h24v16h-24zm0,32h24v96h-24zM720,96h24v16h-24zm0,32h24v16h-24zm0,48h24v16h-24zm0,48h24v16h-24zm0,208h24v112h-24zM744,16h24v16h-24zm0,112h24v16h-24zm0,32h24v32h-24zm0,48h24v16h-24zm0,32h24v16h-24zm0,32h24v16h-24zm0,64h24v16h-24zm0,32h24v96h-24zm0,112h24v32h-24zM768,96h24v16h-24zm0,64h24v32h-24zm0,48h24v128h-24zm0,144h24v112h-24zM792,160h24v16h-24zm0,32h24v192h-24zm0,208h24v48h-24zm0,64h24v32h-24zM816,128h24v16h-24zm0,80h24v16h-24zm0,32h24v32h-24zm0,48h24v96h-24zm0,128h24v48h-24zm0,80h24v16h-24zm0,48h24v16h-24zM840,112h24v32h-24zm0,48h24v16h-24zm0,32h24v16h-24zm0,48h24v48h-24zm0,64h24v16h-24zm0,32h24v16h-24zm0,32h24v64h-24zm0,112h24v16h-24zM864,176h24v16h-24zm0,240h24v16h-24zM888,176h24v16h-24zm0,32h24v48h-24zm0,144h24v16h-24zm0,32h24v16h-24zm0,32h24v16h-24zM912,240h24v16h-24zm0,32h24v16h-24z"></path><path fill="#1652cc" d="M144,288h24v16h-24zm24,0h24v16h-24zm24,-32h24v16h-24zm0,32h24v32h-24zm0,64h24v32h-24zm0,64h24v16h-24zM216,240h24v48h-24zm0,64h24v16h-24zm0,48h24v80h-24zM240,176h24v64h-24zm0,144h24v16h-24zm0,96h24v32h-24zM264,192h24v48h-24zm0,208h24v48h-24zM288,144h24v48h-24zm0,304h24v48h-24zM312,160h24v32h-24zm0,320h24v16h-24zM336,144h24v16h-24zm0,336h24v16h-24zM360,128h24v48h-24zm0,352h24v16h-24zm24,0h24v32h-24zM408,112h24v32h-24zm0,384h24v16h-24zM432,128h24v16h-24zm0,368h24v16h-24zM456,112h24v32h-24zm0,384h24v16h-24zM480,128h24v16h-24zm0,32h24v16h-24zm0,320h24v48h-24zM504,128h24v32h-24zm0,400h24v16h-24zM528,128h24v16h-24zm0,352h24v32h-24zM552,160h24v16h-24zm0,320h24v16h-24zm0,48h24v16h-24zM576,144h24v16h-24zm0,32h24v16h-24zm0,304h24v16h-24zm24,-16h24v32h-24zM624,144h24v16h-24zm0,320h24v16h-24zm0,32h24v16h-24zM648,208h24v16h-24zm0,240h24v16h-24zM672,176h24v64h-24zm0,256h24v64h-24zM696,224h24v16h-24zm0,32h24v16h-24zm0,128h24v48h-24zm0,64h24v16h-24zM720,192h24v32h-24zm0,48h24v16h-24zm0,32h24v160h-24zm24,-48h24v16h-24zm0,32h24v16h-24zm0,32h24v48h-24zm0,64h24v16h-24zm24,-16h24v16h-24z"></path><path fill="#1063db" d="M216,288h24v16h-24zm0,32h24v32h-24zm24,-80h24v48h-24zm0,112h24v64h-24zM264,240h24v16h-24zm0,144h24v16h-24zM288,192h24v32h-24zm0,224h24v32h-24zm24,0h24v48h-24zM336,160h24v32h-24zm0,272h24v48h-24zm24,16h24v32h-24zM384,144h24v16h-24zm0,304h24v32h-24zM408,144h24v32h-24zm0,304h24v48h-24zM432,144h24v32h-24zm0,320h24v32h-24zM456,144h24v32h-24zm0,320h24v32h-24zM480,144h24v16h-24zm24,336h24v16h-24zM528,144h24v32h-24zm0,320h24v16h-24zM552,144h24v16h-24zm0,320h24v16h-24zM576,160h24v16h-24zm0,288h24v32h-24zM600,160h24v32h-24zm0,288h24v16h-24zM624,176h24v32h-24zm0,256h24v32h-24zM648,192h24v16h-24zm0,32h24v16h-24zm0,192h24v16h-24zM672,240h24v16h-24zm0,128h24v64h-24zM696,240h24v16h-24zm0,32h24v64h-24zm0,80h24v32h-24zm24,-96h24v16h-24z"></path><path fill="#1171d8" d="M240,304h24v16h-24zm0,32h24v16h-24zm24,-80h24v32h-24zm0,48h24v16h-24zm0,32h24v48h-24zM288,224h24v16h-24zm0,32h24v16h-24zm0,96h24v16h-24zm0,48h24v16h-24zM312,192h24v64h-24zm24,0h24v32h-24zm24,0h24v16h-24zm24,-32h24v16h-24zm0,272h24v16h-24zM432,176h24v16h-24zm48,272h24v32h-24zM504,160h24v16h-24zm0,288h24v16h-24zM528,176h24v16h-24zm0,256h24v32h-24zm24,16h24v16h-24zM576,192h24v16h-24zm0,240h24v16h-24zM600,192h24v16h-24zm0,240h24v16h-24zM624,208h24v16h-24zm0,192h24v32h-24zM648,240h24v16h-24zm0,160h24v16h-24zM672,272h24v16h-24zm24,64h24v16h-24z"></path><path fill="#1380d5" d="M240,288h24v16h-24zm24,0h24v16h-24zm0,32h24v16h-24zm24,-80h24v16h-24zm0,48h24v48h-24zm0,80h24v32h-24zm24,32h24v16h-24zm24,16h24v16h-24zM360,176h24v16h-24zm0,240h24v32h-24zM384,176h24v16h-24zm24,0h24v16h-24zm24,256h24v32h-24zM456,176h24v16h-24zm0,272h24v16h-24zM480,176h24v16h-24zm0,256h24v16h-24zM504,176h24v32h-24zm0,256h24v16h-24zm0,32h24v16h-24zM528,192h24v16h-24zm24,-16h24v32h-24zm0,256h24v16h-24zM576,224h24v16h-24zm0,192h24v16h-24zM600,208h24v32h-24zm0,192h24v32h-24zM624,224h24v16h-24zm24,128h24v48h-24zm24,-96h24v16h-24zm0,32h24v64h-24z"></path><path fill="#0e8ed0" d="M288,272h24v16h-24zm48,-48h24v16h-24zm0,176h24v16h-24zM360,208h24v16h-24zm24,-16h24v32h-24zm0,224h24v16h-24zM408,192h24v16h-24zm0,240h24v16h-24zM576,208h24v16h-24zm48,144h24v16h-24zm24,-96h24v96h-24zm24,96h24v16h-24z"></path><path fill="#089dcc" d="M288,336h24v16h-24zm24,-80h24v48h-24zm0,64h24v16h-24zm0,32h24v16h-24zm0,32h24v16h-24zm24,0h24v16h-24zM360,224h24v16h-24zm0,176h24v16h-24zM384,224h24v16h-24zm48,-32h24v16h-24zm24,0h24v32h-24zm24,16h24v16h-24zm24,0h24v16h-24zm24,0h24v16h-24zm0,208h24v16h-24zM552,208h24v16h-24zm0,208h24v16h-24zm24,-16h24v16h-24zm24,-16h24v16h-24zM624,240h24v32h-24zm0,128h24v32h-24z"></path><path fill="#0da7c2" d="M312,304h24v16h-24zm0,32h24v16h-24zm0,32h24v16h-24zM336,240h24v32h-24zm0,128h24v16h-24zM360,240h24v16h-24zm48,-32h24v32h-24zm24,208h24v16h-24zm24,0h24v32h-24zM480,192h24v16h-24zm24,208h24v16h-24zM552,224h24v16h-24zm24,144h24v32h-24zM600,240h24v48h-24zm0,128h24v16h-24zm24,-80h24v16h-24zm0,32h24v32h-24z"></path><path fill="#1dafb3" d="M336,272h24v16h-24zm48,128h24v16h-24zm24,0h24v32h-24zM480,224h24v16h-24zm0,176h24v32h-24zM504,224h24v16h-24zm24,0h24v16h-24zm0,176h24v16h-24zM552,240h24v16h-24zm0,144h24v16h-24zM576,240h24v32h-24zm0,96h24v16h-24zm24,-48h24v16h-24zm0,32h24v16h-24zm0,32h24v16h-24zm24,-80h24v16h-24zm0,32h24v16h-24z"></path><path fill="#2db7a3" d="M336,304h24v48h-24zm24,-48h24v32h-24zm0,112h24v16h-24zM384,240h24v16h-24zm0,144h24v16h-24zM432,208h24v32h-24zm0,192h24v16h-24zM456,224h24v16h-24zm48,192h24v16h-24zm24,-32h24v16h-24zm24,-96h24v16h-24zm0,112h24v16h-24zM576,288h24v16h-24zm24,16h24v16h-24zm0,32h24v16h-24z"></path><path fill="#52ba91" d="M336,288h24v16h-24zm0,64h24v16h-24zm24,32h24v16h-24zM384,256h24v16h-24zm24,-16h24v16h-24zm48,144h24v32h-24zM528,240h24v16h-24zm24,32h24v16h-24zm24,0h24v16h-24zm0,48h24v16h-24z"></path><path fill="#73bd80" d="M360,288h24v16h-24zm0,32h24v48h-24zm48,64h24v16h-24zm24,0h24v16h-24zM528,256h24v16h-24zm24,112h24v16h-24z"></path><path fill="#94be71" d="M384,272h24v16h-24zm0,96h24v16h-24zm24,0h24v16h-24zm24,0h24v16h-24zM504,240h24v16h-24zm0,128h24v16h-24zm24,-80h24v32h-24zm24,-32h24v16h-24zm0,48h24v16h-24zm0,48h24v16h-24zm24,-48h24v16h-24zm0,48h24v16h-24z"></path><path fill="#b2bc65" d="M360,304h24v16h-24zm24,-16h24v32h-24zm0,48h24v16h-24zm24,0h24v16h-24zm48,-96h24v16h-24zm0,112h24v32h-24zM480,240h24v16h-24zm0,128h24v32h-24zm24,-96h24v16h-24zm0,112h24v16h-24zM528,272h24v16h-24zm0,96h24v16h-24zm24,-48h24v16h-24z"></path><path fill="#d0ba59" d="M384,320h24v16h-24zm0,32h24v16h-24zm24,-96h24v64h-24zm0,96h24v16h-24zM432,240h24v32h-24zm0,80h24v16h-24zm24,-64h24v16h-24zm24,32h24v16h-24zm0,64h24v16h-24zm24,-96h24v16h-24zm24,96h24v16h-24zm24,-16h24v16h-24z"></path><path fill="#e1bf4a" d="M408,320h24v16h-24zm24,-48h24v16h-24zm0,64h24v16h-24zm24,0h24v16h-24zm24,-80h24v32h-24zm24,64h24v16h-24zm0,32h24v16h-24zm24,-16h24v16h-24z"></path><path fill="#f4c53a" d="M432,352h24v16h-24zm72,-48h24v16h-24zm24,16h24v16h-24z"></path><path fill="#fcd12b" d="M432,288h24v16h-24zm24,-16h24v32h-24zm0,48h24v16h-24zm24,-16h24v48h-24zm24,-16h24v16h-24zm0,48h24v16h-24z"></path><path fill="#f9f90e" d="M432,304h24v16h-24zm24,0h24v16h-24z"></path></g></svg><g><g transform="translate(0,640)"><path d="M0,0h960M0,0V0M24,0V0M48,0V0M72,0V0M96,0V0M120,0V0M144,0V0M168,0V0M192,0V0M216,0V0M240,0V0M264,0V0M288,0V0M312,0V0M336,0V0M360,0V0M384,0V0M408,0V0M432,0V0M456,0V0M480,0V0M504,0V0M528,0V0M552,0V0M576,0V0M600,0V0M624,0V0M648,0V0M672,0V0M696,0V0M720,0V0M744,0V0M768,0V0M792,0V0M816,0V0M840,0V0M864,0V0M888,0V0M912,0V0M936,0V0M960,0V0" style="stroke: #000000; stroke-width: 1;"></path></g><g><path d="M0,0v640M0,640H0M0,624H0M0,608H0M0,592H0M0,576H0M0,560H0M0,544H0M0,528H0M0,512H0M0,496H0M0,480H0M0,464H0M0,448H0M0,432H0M0,416H0M0,400H0M0,384H0M0,368H0M0,352H0M0,336H0M0,320H0M0,304H0M0,288H0M0,272H0M0,256H0M0,240H0M0,224H0M0,208H0M0,192H0M0,176H0M0,160H0M0,144H0M0,128H0M0,112H0M0,96H0M0,80H0M0,64H0M0,48H0M0,32H0M0,16H0M0,0H0" style="stroke: #000000; stroke-width: 1;"></path></g></g></g><g transform="translate(1086,80)"><path d="M0,0H54V640H0Z" style="fill: #f9f90e; stroke: #000000; stroke-width: 1;"></path><path d="M0,608H54V640H0Z" style="fill: #1652cc;"></path><path d="M0,576H54V609H0Z" style="fill: #1652cc;"></path><path d="M0,544H54V577H0Z" style="fill: #1063db;"></path><path d="M0,512H54V545H0Z" style="fill: #1171d8;"></path><path d="M0,480H54V513H0Z" style="fill: #1380d5;"></path><path d="M0,448H54V481H0Z" style="fill: #0e8ed0;"></path><path d="M0,416H54V449H0Z" style="fill: #089dcc;"></path><path d="M0,384H54V417H0Z" style="fill: #0da7c2;"></path><path d="M0,352H54V385H0Z" style="fill: #1dafb3;"></path><path d="M0,320H54V353H0Z" style="fill: #2db7a3;"></path><path d="M0,288H54V321H0Z" style="fill: #52ba91;"></path><path d="M0,256H54V289H0Z" style="fill: #73bd80;"></path><path d="M0,224H54V257H0Z" style="fill: #94be71;"></path><path d="M0,192H54V225H0Z" style="fill: #b2bc65;"></path><path d="M0,160H54V193H0Z" style="fill: #d0ba59;"></path><path d="M0,128H54V161H0Z" style="fill: #e1bf4a;"></path><path d="M0,96H54V129H0Z" style="fill: #f4c53a;"></path><path d="M0,64H54V97H0Z" style="fill: #fcd12b;"></path><path d="M0,32H54V65H0Z" style="fill: #fae61c;"></path><path d="M0,0H54V33H0Z" style="fill: #f9f90e;"></path><g transform="translate(54)"><path d="M0,0v640M0,640H-29M0,568H-29M0,495H-29M0,423H-29M0,351H-29M0,278H-29M0,206H-29M0,134H-29M0,61H-29" style="stroke: #000000; stroke-width: 1;"></path><g font-family="Arial" font-size="28" space="preserve" fill="#000000" text-anchor="start"><text dy=".4em" transform="translate(6,640)">0</text><text dy=".4em" transform="translate(6,568)">20</text><text dy=".4em" transform="translate(6,495)">40</text><text dy=".4em" transform="translate(6,423)">60</text><text dy=".4em" transform="translate(6,351)">80</text><text dy=".4em" transform="translate(6,278)">100</text><text dy=".4em" transform="translate(6,206)">120</text><text dy=".4em" transform="translate(6,134)">140</text><text dy=".4em" transform="translate(6,61)">160</text></g></g></g><g transform="translate(936,52)" font-family="Arial" font-size="20" space="preserve" fill="#000000"><path d="M0,0H240V192H0Z" style="fill: #ffffff; stroke: #000000; stroke-width: 1;"></path><text text-anchor="middle" dy=".4em" transform="translate(120,16)">hpxpy</text><text text-anchor="start" dy=".4em" transform="translate(12,48)">Entries </text><text text-anchor="end" dy=".4em" transform="translate(228,48)"> 25000</text><text text-anchor="start" dy=".4em" transform="translate(12,80)">Mean x </text><text text-anchor="end" dy=".4em" transform="translate(228,80)"> -0.01431</text><text text-anchor="start" dy=".4em" transform="translate(12,112)">Mean y </text><text text-anchor="end" dy=".4em" transform="translate(228,112)"> -0.006923</text><text text-anchor="start" dy=".4em" transform="translate(12,144)">Std Dev x </text><text text-anchor="end" dy=".4em" transform="translate(228,144)"> 0.9975</text><text text-anchor="start" dy=".4em" transform="translate(12,176)">Std Dev y </text><text text-anchor="end" dy=".4em" transform="translate(228,176)"> 1.009</text><path d="M0,32h240" style="stroke: #000000; stroke-width: 1;"></path></g><g transform="translate(505,4)" font-family="Arial" font-size="35" space="preserve"><text fill="#000000" text-anchor="middle" dy=".4em" transform="translate(95,22)">py vs px</text></g><g transform="translate(120,720)"><path d="M0,0h960M960,-19V0M936,-10V0M912,-10V0M888,-10V0M864,-10V0M840,-19V0M816,-10V0M792,-10V0M768,-10V0M744,-10V0M720,-19V0M696,-10V0M672,-10V0M648,-10V0M624,-10V0M600,-19V0M576,-10V0M552,-10V0M528,-10V0M504,-10V0M480,-19V0M456,-10V0M432,-10V0M408,-10V0M384,-10V0M360,-19V0M336,-10V0M312,-10V0M288,-10V0M264,-10V0M240,-19V0M216,-10V0M192,-10V0M168,-10V0M144,-10V0M120,-19V0M96,-10V0M72,-10V0M48,-10V0M24,-10V0M0,-19V0" style="stroke: #000000; stroke-width: 1;"></path><g font-family="Arial" font-size="32" space="preserve" font-weight="bold" fill="#000000" text-anchor="middle"><text dy=".8em" transform="translate(960,25)">-4</text><text dy=".8em" transform="translate(840,25)">-3</text><text dy=".8em" transform="translate(720,25)">-2</text><text dy=".8em" transform="translate(600,25)">-1</text><text dy=".8em" transform="translate(480,25)">0</text><text dy=".8em" transform="translate(360,25)">1</text><text dy=".8em" transform="translate(240,25)">2</text><text dy=".8em" transform="translate(120,25)">3</text><text dy=".8em" transform="translate(0,25)">4</text></g></g><g transform="translate(120,80)"><path d="M0,0v640M29,0H0M15,16H0M15,32H0M15,48H0M15,64H0M29,80H0M15,96H0M15,112H0M15,128H0M15,144H0M29,160H0M15,176H0M15,192H0M15,208H0M15,224H0M29,240H0M15,256H0M15,272H0M15,288H0M15,304H0M29,320H0M15,336H0M15,352H0M15,368H0M15,384H0M29,400H0M15,416H0M15,432H0M15,448H0M15,464H0M29,480H0M15,496H0M15,512H0M15,528H0M15,544H0M29,560H0M15,576H0M15,592H0M15,608H0M15,624H0M29,640H0" style="stroke: #000000; stroke-width: 1;"></path><g font-family="Arial" font-size="32" space="preserve" font-weight="bold" fill="#000000" text-anchor="end"><text dy=".4em" transform="translate(-26)">-4</text><text dy=".4em" transform="translate(-26,80)">-3</text><text dy=".4em" transform="translate(-26,160)">-2</text><text dy=".4em" transform="translate(-26,240)">-1</text><text dy=".4em" transform="translate(-26,320)">0</text><text dy=".4em" transform="translate(-26,400)">1</text><text dy=".4em" transform="translate(-26,480)">2</text><text dy=".4em" transform="translate(-26,560)">3</text><text dy=".4em" transform="translate(-26,640)">4</text></g></g></g></svg>