<svg xmlns="http://www.w3.org/2000/svg" viewBox="0 0 1200 800" preserveAspectRatio="none" width="1200" height="800"><path d="M0,0H1200V800H0Z" style="fill: #ffffff;"></path><g><g transform="translate(120,80)"><path d="M0,0H960V640H0Z" style="fill: #ffffff; stroke: #000000; stroke-width: 1;"></path><svg x="0" y="0" overflow="hidden" width="960" height="640" viewBox="0 0 960 640"><g><path d="M202,362a8,8,0,1,0,16,0a8,8,0,1,0,-16,0z" style="stroke: #e1bf4a99; fill: #e1bf4a99;"></path><path d="M236,498a7,7,0,1,0,14,0a7,7,0,1,0,-14,0z" style="stroke: #e1bf4a99; fill: #e1bf4a99;"></path><path d="M790,267a18,18,0,1,0,36,0a18,18,0,1,0,-36,0z" style="stroke: #2db7a399; fill: #2db7a399;"></path><path d="M400,55a4,4,0,1,0,8,0a4,4,0,1,0,-8,0z" style="stroke: #e1bf4a99; fill: #e1bf4a99;"></path><path d="M794,379a4,4,0,1,0,8,0a4,4,0,1,0,-8,0z" style="stroke: #2b379d99; fill: #2b379d99;"></path><path d="M792,310a9,9,0,1,0,18,0a9,9,0,1,0,-18,0z" style="stroke: #c5bb5d99; fill: #c5bb5d99;"></path><path d="M859,460a4,4,0,1,0,8,0a4,4,0,1,0,-8,0z" style="stroke: #1068da99; fill: #1068da99;"></path><path d="M176,86a7,7,0,1,0,14,0a7,7,0,1,0,-14,0z" style="stroke: #e1bf4a99; fill: #e1bf4a99;"></path><path d="M566,131a9,9,0,1,0,18,0a9,9,0,1,0,-18,0z" style="stroke: #1284d499; fill: #1284d499;"></path><path d="M471,139a7,7,0,1,0,14,0a7,7,0,1,0,-14,0z" style="stroke: #b2bc6599; fill: #b2bc6599;"></path><path d="M73,341a19,19,0,1,0,38,0a19,19,0,1,0,-38,0z" style="stroke: #8bbe7599; fill: #8bbe7599;"></path><path d="M195,76a11,11,0,1,0,22,0a11,11,0,1,0,-22,0z" style="stroke: #44b99899; fill: #44b99899;"></path><path d="M478,56a5,5,0,1,0,10,0a5,5,0,1,0,-10,0z" style="stroke: #f9f90e99; fill: #f9f90e99;"></path><path d="M870,198a10,10,0,1,0,20,0a10,10,0,1,0,-20,0z" style="stroke: #f9f90e99; fill: #f9f90e99;"></path><path d="M148,543a7,7,0,1,0,14,0a7,7,0,1,0,-14,0z" style="stroke: #73bd8099; fill: #73bd8099;"></path><path d="M185,170a17,17,0,1,0,34,0a17,17,0,1,0,-34,0z" style="stroke: #1284d499; fill: #1284d499;"></path><path d="M854,53a19,19,0,1,0,38,0a19,19,0,1,0,-38,0z" style="stroke: #22b1ae99; fill: #22b1ae99;"></path><path d="M775,451a9,9,0,1,0,18,0a9,9,0,1,0,-18,0z" style="stroke: #d6bc5499; fill: #d6bc5499;"></path><path d="M589,387a7,7,0,1,0,14,0a7,7,0,1,0,-14,0z" style="stroke: #1284d499; fill: #1284d499;"></path><path d="M599,567a7,7,0,1,0,14,0a7,7,0,1,0,-14,0z" style="stroke: #f9c73599; fill: #f9c73599;"></path><path d="M127,94a8,8,0,1,0,16,0a8,8,0,1,0,-16,0z" style="stroke: #137bd699; fill: #137bd699;"></path><path d="M662,138a12,12,0,1,0,24,0a12,12,0,1,0,-24,0z" style="stroke: #0da7c299; fill: #0da7c299;"></path><path d="M825,103a17,17,0,1,0,34,0a17,17,0,1,0,-34,0z" style="stroke: #d6bc5499; fill: #d6bc5499;"></path><path d="M325,509a13,13,0,1,0,26,0a13,13,0,1,0,-26,0z" style="stroke: #0f5edc99; fill: #0f5edc99;"></path><path d="M76,281a5,5,0,1,0,10,0a5,5,0,1,0,-10,0z" style="stroke: #1284d499; fill: #1284d499;"></path><path d="M516,534a5,5,0,1,0,10,0a5,5,0,1,0,-10,0z" style="stroke: #faec1799; fill: #faec1799;"></path><path d="M516,360a10,10,0,1,0,20,0a10,10,0,1,0,-20,0z" style="stroke: #0a97cd99; fill: #0a97cd99;"></path><path d="M495,497a9,9,0,1,0,18,0a9,9,0,1,0,-18,0z" style="stroke: #1068da99; fill: #1068da99;"></path><path d="M337,387a16,16,0,1,0,32,0a16,16,0,1,0,-32,0z" style="stroke: #18acb899; fill: #18acb899;"></path><path d="M89,177a18,18,0,1,0,36,0a18,18,0,1,0,-36,0z" style="stroke: #22b1ae99; fill: #22b1ae99;"></path><path d="M625,180a17,17,0,1,0,34,0a17,17,0,1,0,-34,0z" style="stroke: #f9c73599; fill: #f9c73599;"></path><path d="M470,213a14,14,0,1,0,28,0a14,14,0,1,0,-28,0z" style="stroke: #eec33f99; fill: #eec33f99;"></path><path d="M405,450a18,18,0,1,0,36,0a18,18,0,1,0,-36,0z" style="stroke: #f9f90e99; fill: #f9f90e99;"></path><path d="M172,309a7,7,0,1,0,14,0a7,7,0,1,0,-14,0z" style="stroke: #06a1ca99; fill: #06a1ca99;"></path><path d="M484,234a5,5,0,1,0,10,0a5,5,0,1,0,-10,0z" style="stroke: #1171d899; fill: #1171d899;"></path><path d="M764,194a19,19,0,1,0,38,0a19,19,0,1,0,-38,0z" style="stroke: #fbde2299; fill: #fbde2299;"></path><path d="M754,309a8,8,0,1,0,16,0a8,8,0,1,0,-16,0z" style="stroke: #d6bc5499; fill: #d6bc5499;"></path><path d="M222,110a17,17,0,1,0,34,0a17,17,0,1,0,-34,0z" style="stroke: #e1bf4a99; fill: #e1bf4a99;"></path><path d="M511,219a7,7,0,1,0,14,0a7,7,0,1,0,-14,0z" style="stroke: #5dbb8b99; fill: #5dbb8b99;"></path><path d="M814,292a6,6,0,1,0,12,0a6,6,0,1,0,-12,0z" style="stroke: #f9c73599; fill: #f9c73599;"></path><path d="M596,209a18,18,0,1,0,36,0a18,18,0,1,0,-36,0z" style="stroke: #9ebd6d99; fill: #9ebd6d99;"></path><path d="M527,520a15,15,0,1,0,30,0a15,15,0,1,0,-30,0z" style="stroke: #1652cc99; fill: #1652cc99;"></path><path d="M107,538a10,10,0,1,0,20,0a10,10,0,1,0,-20,0z" style="stroke: #f9c73599; fill: #f9c73599;"></path><path d="M72,273a10,10,0,1,0,20,0a10,10,0,1,0,-20,0z" style="stroke: #b2bc6599; fill: #b2bc6599;"></path><path d="M846,326a9,9,0,1,0,18,0a9,9,0,1,0,-18,0z" style="stroke: #2b379d99; fill: #2b379d99;"></path><path d="M713,555a18,18,0,1,0,36,0a18,18,0,1,0,-36,0z" style="stroke: #1652cc99; fill: #1652cc99;"></path><path d="M447,219a12,12,0,1,0,24,0a12,12,0,1,0,-24,0z" style="stroke: #1068da99; fill: #1068da99;"></path><path d="M116,427a16,16,0,1,0,32,0a16,16,0,1,0,-32,0z" style="stroke: #eec33f99; fill: #eec33f99;"></path><path d="M70,301a10,10,0,1,0,20,0a10,10,0,1,0,-20,0z" style="stroke: #fcd12b99; fill: #fcd12b99;"></path><path d="M135,586a13,13,0,1,0,26,0a13,13,0,1,0,-26,0z" style="stroke: #22b1ae99; fill: #22b1ae99;"></path><path d="M591,205a7,7,0,1,0,14,0a7,7,0,1,0,-14,0z" style="stroke: #f9f90e99; fill: #f9f90e99;"></path><path d="M696,558a9,9,0,1,0,18,0a9,9,0,1,0,-18,0z" style="stroke: #1652cc99; fill: #1652cc99;"></path><path d="M830,381a7,7,0,1,0,14,0a7,7,0,1,0,-14,0z" style="stroke: #5dbb8b99; fill: #5dbb8b99;"></path><path d="M672,266a17,17,0,1,0,34,0a17,17,0,1,0,-34,0z" style="stroke: #1068da99; fill: #1068da99;"></path><path d="M300,197a19,19,0,1,0,38,0a19,19,0,1,0,-38,0z" style="stroke: #8bbe7599; fill: #8bbe7599;"></path><path d="M865,587a4,4,0,1,0,8,0a4,4,0,1,0,-8,0z" style="stroke: #18acb899; fill: #18acb899;"></path><path d="M636,410a13,13,0,1,0,26,0a13,13,0,1,0,-26,0z" style="stroke: #eec33f99; fill: #eec33f99;"></path><path d="M351,208a10,10,0,1,0,20,0a10,10,0,1,0,-20,0z" style="stroke: #d6bc5499; fill: #d6bc5499;"></path><path d="M446,333a8,8,0,1,0,16,0a8,8,0,1,0,-16,0z" style="stroke: #c5bb5d99; fill: #c5bb5d99;"></path><path d="M171,85a12,12,0,1,0,24,0a12,12,0,1,0,-24,0z" style="stroke: #fbde2299; fill: #fbde2299;"></path><path d="M765,436a16,16,0,1,0,32,0a16,16,0,1,0,-32,0z" style="stroke: #0da7c299; fill: #0da7c299;"></path><path d="M342,434a14,14,0,1,0,28,0a14,14,0,1,0,-28,0z" style="stroke: #fcd12b99; fill: #fcd12b99;"></path><path d="M656,183a11,11,0,1,0,22,0a11,11,0,1,0,-22,0z" style="stroke: #18acb899; fill: #18acb899;"></path><path d="M687,486a20,20,0,1,0,40,0a20,20,0,1,0,-40,0z" style="stroke: #22b1ae99; fill: #22b1ae99;"></path><path d="M632,237a7,7,0,1,0,14,0a7,7,0,1,0,-14,0z" style="stroke: #1284d499; fill: #1284d499;"></path><path d="M287,450a14,14,0,1,0,28,0a14,14,0,1,0,-28,0z" style="stroke: #22b1ae99; fill: #22b1ae99;"></path><path d="M593,426a18,18,0,1,0,36,0a18,18,0,1,0,-36,0z" style="stroke: #fcd12b99; fill: #fcd12b99;"></path><path d="M555,324a5,5,0,1,0,10,0a5,5,0,1,0,-10,0z" style="stroke: #f9f90e99; fill: #f9f90e99;"></path><path d="M613,469a15,15,0,1,0,30,0a15,15,0,1,0,-30,0z" style="stroke: #2143b399; fill: #2143b399;"></path><path d="M249,383a14,14,0,1,0,28,0a14,14,0,1,0,-28,0z" style="stroke: #1284d499; fill: #1284d499;"></path><path d="M231,229a18,18,0,1,0,36,0a18,18,0,1,0,-36,0z" style="stroke: #8bbe7599; fill: #8bbe7599;"></path><path d="M130,127a16,16,0,1,0,32,0a16,16,0,1,0,-32,0z" style="stroke: #eec33f99; fill: #eec33f99;"></path><path d="M754,575a17,17,0,1,0,34,0a17,17,0,1,0,-34,0z" style="stroke: #44b99899; fill: #44b99899;"></path><path d="M214,512a7,7,0,1,0,14,0a7,7,0,1,0,-14,0z" style="stroke: #1652cc99; fill: #1652cc99;"></path><path d="M167,542a4,4,0,1,0,8,0a4,4,0,1,0,-8,0z" style="stroke: #fcd12b99; fill: #fcd12b99;"></path><path d="M782,344a6,6,0,1,0,12,0a6,6,0,1,0,-12,0z" style="stroke: #1171d899; fill: #1171d899;"></path><path d="M179,475a9,9,0,1,0,18,0a9,9,0,1,0,-18,0z" style="stroke: #c5bb5d99; fill: #c5bb5d99;"></path><path d="M381,261a5,5,0,1,0,10,0a5,5,0,1,0,-10,0z" style="stroke: #06a1ca99; fill: #06a1ca99;"></path><path d="M202,401a13,13,0,1,0,26,0a13,13,0,1,0,-26,0z" style="stroke: #faec1799; fill: #faec1799;"></path><path d="M804,333a14,14,0,1,0,28,0a14,14,0,1,0,-28,0z" style="stroke: #2db7a399; fill: #2db7a399;"></path><path d="M773,84a14,14,0,1,0,28,0a14,14,0,1,0,-28,0z" style="stroke: #73bd8099; fill: #73bd8099;"></path><path d="M663,416a5,5,0,1,0,10,0a5,5,0,1,0,-10,0z" style="stroke: #1284d499; fill: #1284d499;"></path><path d="M624,219a14,14,0,1,0,28,0a14,14,0,1,0,-28,0z" style="stroke: #9ebd6d99; fill: #9ebd6d99;"></path><path d="M107,576a8,8,0,1,0,16,0a8,8,0,1,0,-16,0z" style="stroke: #8bbe7599; fill: #8bbe7599;"></path><path d="M810,465a17,17,0,1,0,34,0a17,17,0,1,0,-34,0z" style="stroke: #1068da99; fill: #1068da99;"></path><path d="M134,503a16,16,0,1,0,32,0a16,16,0,1,0,-32,0z" style="stroke: #06a1ca99; fill: #06a1ca99;"></path><path d="M720,243a16,16,0,1,0,32,0a16,16,0,1,0,-32,0z" style="stroke: #9ebd6d99; fill: #9ebd6d99;"></path><path d="M418,64a7,7,0,1,0,14,0a7,7,0,1,0,-14,0z" style="stroke: #2db7a399; fill: #2db7a399;"></path><path d="M286,127a13,13,0,1,0,26,0a13,13,0,1,0,-26,0z" style="stroke: #2b379d99; fill: #2b379d99;"></path><path d="M773,469a13,13,0,1,0,26,0a13,13,0,1,0,-26,0z" style="stroke: #c5bb5d99; fill: #c5bb5d99;"></path><path d="M849,84a5,5,0,1,0,10,0a5,5,0,1,0,-10,0z" style="stroke: #eec33f99; fill: #eec33f99;"></path><path d="M602,122a6,6,0,1,0,12,0a6,6,0,1,0,-12,0z" style="stroke: #0a97cd99; fill: #0a97cd99;"></path><path d="M382,469a19,19,0,1,0,38,0a19,19,0,1,0,-38,0z" style="stroke: #c5bb5d99; fill: #c5bb5d99;"></path><path d="M101,214a12,12,0,1,0,24,0a12,12,0,1,0,-24,0z" style="stroke: #44b99899; fill: #44b99899;"></path><path d="M157,394a7,7,0,1,0,14,0a7,7,0,1,0,-14,0z" style="stroke: #8bbe7599; fill: #8bbe7599;"></path><path d="M326,178a10,10,0,1,0,20,0a10,10,0,1,0,-20,0z" style="stroke: #2143b399; fill: #2143b399;"></path><path d="M467,472a9,9,0,1,0,18,0a9,9,0,1,0,-18,0z" style="stroke: #f9f90e99; fill: #f9f90e99;"></path><path d="M852,190a6,6,0,1,0,12,0a6,6,0,1,0,-12,0z" style="stroke: #0e8ed099; fill: #0e8ed099;"></path><path d="M353,247a15,15,0,1,0,30,0a15,15,0,1,0,-30,0z" style="stroke: #44b99899; fill: #44b99899;"></path><path d="M390,519a15,15,0,1,0,30,0a15,15,0,1,0,-30,0z" style="stroke: #73bd8099; fill: #73bd8099;"></path></g></svg><g><g transform="translate(0,640)"><path d="M0,0h960M38,-10V0M80,-19V0M122,-10V0M164,-10V0M206,-10V0M249,-19V0M291,-10V0M333,-10V0M375,-10V0M418,-19V0M460,-10V0M502,-10V0M544,-10V0M586,-19V0M629,-10V0M671,-10V0M713,-10V0M755,-19V0M797,-10V0M840,-10V0M882,-10V0M924,-19V0" style="stroke: #000000; stroke-width: 1;"></path><g font-family="Arial" font-size="28" space="preserve" fill="#000000" text-anchor="middle"><text dy=".8em" transform="translate(80,5)">0</text><text dy=".8em" transform="translate(249,5)">20</text><text dy=".8em" transform="translate(418,5)">40</text><text dy=".8em" transform="translate(586,5)">60</text><text dy=".8em" transform="translate(755,5)">80</text><text dy=".8em" transform="translate(924,5)">100</text></g><g font-family="Arial" font-size="28" space="preserve" transform="translate(960,45)"><text fill="#000000" text-anchor="end" dy=".4em">X</text></g></g><g><path d="M0,0v640M15,616H0M29,589H0M15,562H0M15,535H0M15,508H0M15,481H0M29,455H0M15,428H0M15,401H0M15,374H0M15,347H0M29,320H0M15,293H0M15,267H0M15,240H0M15,213H0M29,186H0M15,159H0M15,132H0M15,105H0M15,79H0M29,52H0M15,25H0" style="stroke: #000000; stroke-width: 1;"></path><g font-family="Arial" font-size="28" space="preserve" fill="#000000" text-anchor="end"><text dy=".4em" transform="translate(-6,589)">0</text><text dy=".4em" transform="translate(-6,455)">50</text><text dy=".4em" transform="translate(-6,320)">100</text><text dy=".4em" transform="translate(-6,186)">150</text><text dy=".4em" transform="translate(-6,52)">200</text></g><g font-family="Arial" font-size="28" space="preserve" transform="translate(-67)"><text fill="#000000" text-anchor="end" dy=".4em" transform="rotate(270)">Y</text></g></g></g></g><g transform="translate(120,4)" font-family="Arial" font-size="40" space="preserve"><text fill="#000000" text-anchor="middle" dy=".8em" transform="translate(480)">Scatter plot</text></g><g transform="translate(1086,80)"><path d="M0,0H54V640H0Z" style="fill: none; stroke: #000000; stroke-width: 1;"></path><path d="M0,619H54V640H0Z" style="fill: #2143b399;"></path><path d="M0,597H54V620H0Z" style="fill: #2143b399;"></path><path d="M0,576H54V598H0Z" style="fill: #1652cc99;"></path><path d="M0,555H54V577H0Z" style="fill: #0f5edc99;"></path><path d="M0,533H54V556H0Z" style="fill: #1068da99;"></path><path d="M0,512H54V534H0Z" style="fill: #1171d899;"></path><path d="M0,491H54V513H0Z" style="fill: #137bd699;"></path><path d="M0,469H54V492H0Z" style="fill: #1284d499;"></path><path d="M0,448H54V470H0Z" style="fill: #0e8ed099;"></path><path d="M0,427H54V449H0Z" style="fill: #0a97cd99;"></path><path d="M0,405H54V428H0Z" style="fill: #06a1ca99;"></path><path d="M0,384H54V406H0Z" style="fill: #0da7c299;"></path><path d="M0,363H54V385H0Z" style="fill: #18acb899;"></path><path d="M0,341H54V364H0Z" style="fill: #22b1ae99;"></path><path d="M0,320H54V342H0Z" style="fill: #2db7a399;"></path><path d="M0,299H54V321H0Z" style="fill: #44b99899;"></path><path d="M0,277H54V300H0Z" style="fill: #5dbb8b99;"></path><path d="M0,256H54V278H0Z" style="fill: #73bd8099;"></path><path d="M0,235H54V257H0Z" style="fill: #8bbe7599;"></path><path d="M0,213H54V236H0Z" style="fill: #9ebd6d99;"></path><path d="M0,192H54V214H0Z" style="fill: #b2bc6599;"></path><path d="M0,171H54V193H0Z" style="fill: #c5bb5d99;"></path><path d="M0,149H54V172H0Z" style="fill: #d6bc5499;"></path><path d="M0,128H54V150H0Z" style="fill: #e1bf4a99;"></path><path d="M0,107H54V129H0Z" style="fill: #eec33f99;"></path><path d="M0,85H54V108H0Z" style="fill: #f9c73599;"></path><path d="M0,64H54V86H0Z" style="fill: #fcd12b99;"></path><path d="M0,43H54V65H0Z" style="fill: #fbde2299;"></path><path d="M0,21H54V44H0Z" style="fill: #faec1799;"></path><path d="M0,0H54V22H0Z" style="fill: #f9f90e99;"></path><g transform="translate(54)"><path d="M0,0v640M0,640H-29M0,618H-15M0,597H-15M0,575H-15M0,554H-15M0,532H-29M0,511H-15M0,489H-15M0,467H-15M0,446H-15M0,424H-29M0,403H-15M0,381H-15M0,360H-15M0,338H-15M0,316H-29M0,295H-15M0,273H-15M0,252H-15M0,230H-15M0,209H-29M0,187H-15M0,165H-15M0,144H-15M0,122H-15M0,101H-29M0,79H-15M0,58H-15M0,36H-15M0,14H-15" style="stroke: #000000; stroke-width: 1;"></path><g font-family="Arial" font-size="28" space="preserve" fill="#000000" text-anchor="start"><text dy=".4em" transform="translate(6,640)">0</text><text dy=".4em" transform="translate(6,532)">50</text><text dy=".4em" transform="translate(6,424)">100</text><text dy=".4em" transform="translate(6,316)">150</text><text dy=".4em" transform="translate(6,209)">200</text><text dy=".4em" transform="translate(6,101)">250</text></g></g></g></g></svg>