<svg xmlns="http://www.w3.org/2000/svg" viewBox="0 0 1200 800" preserveAspectRatio="none" width="1200" height="800"><path d="M0,0H1200V800H0Z" style="fill: #ffffff;"></path><g><svg viewBox="0 0 576 784" preserveAspectRatio="none" x="12" y="8" width="576" height="784"><path d="M0,0H576V784H0Z" style="fill: #ffffff;"></path><g><g transform="translate(58,78)"><path d="M0,0H461V627H0Z" style="fill: #ffffff; stroke: #000000; stroke-width: 1;"></path><svg x="0" y="0" overflow="hidden" width="461" height="627" viewBox="0 0 461 627"><g><path d="M0,588v-79l46,-39l46,39v79l-46,39z" style="fill: #e1bf4a; stroke: #000000; stroke-width: 1;"></path><path d="M92,588v-79l46,-39l46,39v79l-46,39z" style="fill: #263da8; stroke: #000000; stroke-width: 1;"></path><path d="M184,588v-79l46,-39l47,39v79l-47,39z" style="fill: #263da8; stroke: #000000; stroke-width: 1;"></path><path d="M277,588v-79l46,-39l46,39v79l-46,39z" style="fill: #263da8; stroke: #000000; stroke-width: 1;"></path><path d="M369,588v-79l46,-39l46,39v79l-46,39z" style="fill: #263da8; stroke: #000000; stroke-width: 1;"></path><path d="M46,470v-78l46,-39l46,39v78l-46,39z" style="fill: #263da8; stroke: #000000; stroke-width: 1;"></path><path d="M138,470v-78l46,-39l46,39v78l-46,39z" style="fill: #263da8; stroke: #000000; stroke-width: 1;"></path><path d="M230,470v-78l47,-39l46,39v78l-46,39z" style="fill: #263da8; stroke: #000000; stroke-width: 1;"></path><path d="M323,470v-78l46,-39l46,39v78l-46,39z" style="fill: #263da8; stroke: #000000; stroke-width: 1;"></path><path d="M0,353v-79l46,-39l46,39v79l-46,39z" style="fill: #263da8; stroke: #000000; stroke-width: 1;"></path><path d="M92,353v-79l46,-39l46,39v79l-46,39z" style="fill: #263da8; stroke: #000000; stroke-width: 1;"></path><path d="M184,353v-79l46,-39l47,39v79l-47,39z" style="fill: #52ba91; stroke: #000000; stroke-width: 1;"></path><path d="M277,353v-79l46,-39l46,39v79l-46,39z" style="fill: #263da8; stroke: #000000; stroke-width: 1;"></path><path d="M369,353v-79l46,-39l46,39v79l-46,39z" style="fill: #263da8; stroke: #000000; stroke-width: 1;"></path><path d="M46,235v-78l46,-39l46,39v78l-46,39z" style="fill: #263da8; stroke: #000000; stroke-width: 1;"></path><path d="M138,235v-78l46,-39l46,39v78l-46,39z" style="fill: #263da8; stroke: #000000; stroke-width: 1;"></path><path d="M230,235v-78l47,-39l46,39v78l-46,39z" style="fill: #f9f90e; stroke: #000000; stroke-width: 1;"></path><path d="M323,235v-78l46,-39l46,39v78l-46,39z" style="fill: #263da8; stroke: #000000; stroke-width: 1;"></path><path d="M0,118v-79l46,-39l46,39v79l-46,39z" style="fill: #263da8; stroke: #000000; stroke-width: 1;"></path><path d="M92,118v-79l46,-39l46,39v79l-46,39z" style="fill: #263da8; stroke: #000000; stroke-width: 1;"></path><path d="M184,118v-79l46,-39l47,39v79l-47,39z" style="fill: #263da8; stroke: #000000; stroke-width: 1;"></path><path d="M277,118v-79l46,-39l46,39v79l-46,39z" style="fill: #263da8; stroke: #000000; stroke-width: 1;"></path><path d="M369,118v-79l46,-39l46,39v79l-46,39z" style="fill: #263da8; stroke: #000000; stroke-width: 1;"></path></g></svg><g><g transform="translate(0,627)"><path d="M0,0h461M0,-19V0M11,-10V0M21,-10V0M32,-10V0M43,-10V0M53,-19V0M64,-10V0M75,-10V0M85,-10V0M96,-10V0M106,-19V0M117,-10V0M128,-10V0M138,-10V0M149,-10V0M160,-19V0M170,-10V0M181,-10V0M192,-10V0M202,-10V0M213,-19V0M224,-10V0M234,-10V0M245,-10V0M256,-10V0M266,-19V0M277,-10V0M287,-10V0M298,-10V0M309,-10V0M319,-19V0M330,-10V0M341,-10V0M351,-10V0M362,-10V0M373,-19V0M383,-10V0M394,-10V0M405,-10V0M415,-10V0M426,-19V0M436,-10V0M447,-10V0M458,-10V0" style="stroke: #000000; stroke-width: 1;"></path><g font-family="Arial" font-size="20" space="preserve" fill="#000000" text-anchor="middle"><text dy=".8em" transform="translate(0,4)">0</text><text dy=".8em" transform="translate(53,4)">0.1</text><text dy=".8em" transform="translate(106,4)">0.2</text><text dy=".8em" transform="translate(160,4)">0.3</text><text dy=".8em" transform="translate(213,4)">0.4</text><text dy=".8em" transform="translate(266,4)">0.5</text><text dy=".8em" transform="translate(319,4)">0.6</text><text dy=".8em" transform="translate(373,4)">0.7</text><text dy=".8em" transform="translate(426,4)">0.8</text></g></g><g><path d="M0,0v627M14,627H0M7,611H0M7,596H0M7,580H0M7,564H0M14,549H0M7,533H0M7,517H0M7,502H0M7,486H0M14,470H0M7,455H0M7,439H0M7,423H0M7,408H0M14,392H0M7,376H0M7,361H0M7,345H0M7,329H0M14,314H0M7,298H0M7,282H0M7,266H0M7,251H0M14,235H0M7,219H0M7,204H0M7,188H0M7,172H0M14,157H0M7,141H0M7,125H0M7,110H0M7,94H0M14,78H0M7,63H0M7,47H0M7,31H0M7,16H0M14,0H0" style="stroke: #000000; stroke-width: 1;"></path><g font-family="Arial" font-size="20" space="preserve" fill="#000000" text-anchor="end"><text dy=".4em" transform="translate(-4,627)">0</text><text dy=".4em" transform="translate(-4,549)">0.1</text><text dy=".4em" transform="translate(-4,470)">0.2</text><text dy=".4em" transform="translate(-4,392)">0.3</text><text dy=".4em" transform="translate(-4,314)">0.4</text><text dy=".4em" transform="translate(-4,235)">0.5</text><text dy=".4em" transform="translate(-4,157)">0.6</text><text dy=".4em" transform="translate(-4,78)">0.7</text><text dy=".4em" transform="translate(-4)">0.8</text></g></g><path d="M0,0v627M53,0v627M106,0v627M160,0v627M213,0v627M266,0v627M319,0v627M373,0v627M426,0v627" style="stroke: #000000; stroke-width: 1; stroke-dasharray: 1,2;"></path><path d="M0,627h461M0,549h461M0,470h461M0,392h461M0,314h461M0,235h461M0,157h461M0,78h461M0,0h461" style="stroke: #000000; stroke-width: 1; stroke-dasharray: 1,2;"></path></g></g><g transform="translate(521,78)"><path d="M0,0H23V627H0Z" style="fill: none; stroke: #000000; stroke-width: 1;"></path><path d="M0,596H23V627H0Z" style="fill: #1652cc;"></path><path d="M0,564H23V597H0Z" style="fill: #1652cc;"></path><path d="M0,533H23V565H0Z" style="fill: #1063db;"></path><path d="M0,502H23V534H0Z" style="fill: #1171d8;"></path><path d="M0,470H23V503H0Z" style="fill: #1380d5;"></path><path d="M0,439H23V471H0Z" style="fill: #0e8ed0;"></path><path d="M0,408H23V440H0Z" style="fill: #089dcc;"></path><path d="M0,376H23V409H0Z" style="fill: #0da7c2;"></path><path d="M0,345H23V377H0Z" style="fill: #1dafb3;"></path><path d="M0,314H23V346H0Z" style="fill: #2db7a3;"></path><path d="M0,282H23V315H0Z" style="fill: #52ba91;"></path><path d="M0,251H23V283H0Z" style="fill: #73bd80;"></path><path d="M0,219H23V252H0Z" style="fill: #94be71;"></path><path d="M0,188H23V220H0Z" style="fill: #b2bc65;"></path><path d="M0,157H23V189H0Z" style="fill: #d0ba59;"></path><path d="M0,125H23V158H0Z" style="fill: #e1bf4a;"></path><path d="M0,94H23V126H0Z" style="fill: #f4c53a;"></path><path d="M0,63H23V95H0Z" style="fill: #fcd12b;"></path><path d="M0,31H23V64H0Z" style="fill: #fae61c;"></path><path d="M0,0H23V32H0Z" style="fill: #f9f90e;"></path><g transform="translate(23)"><path d="M0,0v627M0,627H-14M0,564H-14M0,502H-14M0,439H-14M0,376H-14M0,314H-14M0,251H-14M0,188H-14M0,125H-14M0,63H-14M0,0H-14" style="stroke: #000000; stroke-width: 1;"></path><g font-family="Arial" font-size="20" space="preserve" fill="#000000" text-anchor="start"><text dy=".4em" transform="translate(4,627)">0</text><text dy=".4em" transform="translate(4,564)">2</text><text dy=".4em" transform="translate(4,502)">4</text><text dy=".4em" transform="translate(4,439)">6</text><text dy=".4em" transform="translate(4,376)">8</text><text dy=".4em" transform="translate(4,314)">10</text><text dy=".4em" transform="translate(4,251)">12</text><text dy=".4em" transform="translate(4,188)">14</text><text dy=".4em" transform="translate(4,125)">16</text><text dy=".4em" transform="translate(4,63)">18</text><text dy=".4em" transform="translate(4)">20</text></g></g></g><g transform="translate(58,4)" font-family="Arial" font-size="37" space="preserve"><text fill="#000000" text-anchor="middle" dy=".8em" transform="translate(231)">Option V (default)</text></g></g></svg><svg viewBox="0 0 576 784" preserveAspectRatio="none" x="612" y="8" width="576" height="784"><path d="M0,0H576V784H0Z" style="fill: #ffffff;"></path><g><g transform="translate(58,78)"><path d="M0,0H461V627H0Z" style="fill: #ffffff; stroke: #000000; stroke-width: 1;"></path><svg x="0" y="0" overflow="hidden" width="461" height="627" viewBox="0 0 461 627"><g><path d="M0,564l29,-62h57l29,62l-29,63h-57z" style="fill: #e1bf4a; stroke: #000000; stroke-width: 1;"></path><path d="M0,439l29,-63h57l29,63l-29,63h-57z" style="fill: #263da8; stroke: #000000; stroke-width: 1;"></path><path d="M0,314l29,-63h57l29,63l-29,62h-57z" style="fill: #263da8; stroke: #000000; stroke-width: 1;"></path><path d="M0,188l29,-63h57l29,63l-29,63h-57z" style="fill: #263da8; stroke: #000000; stroke-width: 1;"></path><path d="M0,63l29,-63h57l29,63l-29,62h-57z" style="fill: #263da8; stroke: #000000; stroke-width: 1;"></path><path d="M86,502l29,-63h58l29,63l-29,62h-58z" style="fill: #263da8; stroke: #000000; stroke-width: 1;"></path><path d="M86,376l29,-62h58l29,62l-29,63h-58z" style="fill: #263da8; stroke: #000000; stroke-width: 1;"></path><path d="M86,251l29,-63h58l29,63l-29,63h-58z" style="fill: #263da8; stroke: #000000; stroke-width: 1;"></path><path d="M86,125l29,-62h58l29,62l-29,63h-58z" style="fill: #263da8; stroke: #000000; stroke-width: 1;"></path><path d="M173,564l29,-62h57l29,62l-29,63h-57z" style="fill: #263da8; stroke: #000000; stroke-width: 1;"></path><path d="M173,439l29,-63h57l29,63l-29,63h-57z" style="fill: #263da8; stroke: #000000; stroke-width: 1;"></path><path d="M173,314l29,-63h57l29,63l-29,62h-57z" style="fill: #52ba91; stroke: #000000; stroke-width: 1;"></path><path d="M173,188l29,-63h57l29,63l-29,63h-57z" style="fill: #263da8; stroke: #000000; stroke-width: 1;"></path><path d="M173,63l29,-63h57l29,63l-29,62h-57z" style="fill: #263da8; stroke: #000000; stroke-width: 1;"></path><path d="M259,502l29,-63h58l29,63l-29,62h-58z" style="fill: #263da8; stroke: #000000; stroke-width: 1;"></path><path d="M259,376l29,-62h58l29,62l-29,63h-58z" style="fill: #263da8; stroke: #000000; stroke-width: 1;"></path><path d="M259,251l29,-63h58l29,63l-29,63h-58z" style="fill: #f9f90e; stroke: #000000; stroke-width: 1;"></path><path d="M259,125l29,-62h58l29,62l-29,63h-58z" style="fill: #263da8; stroke: #000000; stroke-width: 1;"></path><path d="M346,564l29,-62h57l29,62l-29,63h-57z" style="fill: #263da8; stroke: #000000; stroke-width: 1;"></path><path d="M346,439l29,-63h57l29,63l-29,63h-57z" style="fill: #263da8; stroke: #000000; stroke-width: 1;"></path><path d="M346,314l29,-63h57l29,63l-29,62h-57z" style="fill: #263da8; stroke: #000000; stroke-width: 1;"></path><path d="M346,188l29,-63h57l29,63l-29,63h-57z" style="fill: #263da8; stroke: #000000; stroke-width: 1;"></path><path d="M346,63l29,-63h57l29,63l-29,62h-57z" style="fill: #263da8; stroke: #000000; stroke-width: 1;"></path></g></svg><g><g transform="translate(0,627)"><path d="M0,0h461M0,-19V0M12,-10V0M23,-10V0M35,-10V0M46,-10V0M58,-19V0M69,-10V0M81,-10V0M92,-10V0M104,-10V0M115,-19V0M127,-10V0M138,-10V0M150,-10V0M161,-10V0M173,-19V0M184,-10V0M196,-10V0M207,-10V0M219,-10V0M231,-19V0M242,-10V0M254,-10V0M265,-10V0M277,-10V0M288,-19V0M300,-10V0M311,-10V0M323,-10V0M334,-10V0M346,-19V0M357,-10V0M369,-10V0M380,-10V0M392,-10V0M403,-19V0M415,-10V0M426,-10V0M438,-10V0M449,-10V0M461,-19V0" style="stroke: #000000; stroke-width: 1;"></path><g font-family="Arial" font-size="20" space="preserve" fill="#000000" text-anchor="middle"><text dy=".8em" transform="translate(0,4)">0</text><text dy=".8em" transform="translate(58,4)">0.1</text><text dy=".8em" transform="translate(115,4)">0.2</text><text dy=".8em" transform="translate(173,4)">0.3</text><text dy=".8em" transform="translate(231,4)">0.4</text><text dy=".8em" transform="translate(288,4)">0.5</text><text dy=".8em" transform="translate(346,4)">0.6</text><text dy=".8em" transform="translate(403,4)">0.7</text><text dy=".8em" transform="translate(461,4)">0.8</text></g></g><g><path d="M0,0v627M14,627H0M7,613H0M7,598H0M7,584H0M7,569H0M14,555H0M7,540H0M7,526H0M7,511H0M7,497H0M14,482H0M7,468H0M7,453H0M7,439H0M7,424H0M14,410H0M7,395H0M7,381H0M7,366H0M7,352H0M14,337H0M7,323H0M7,308H0M7,294H0M7,279H0M14,265H0M7,251H0M7,236H0M7,222H0M7,207H0M14,193H0M7,178H0M7,164H0M7,149H0M7,135H0M14,120H0M7,106H0M7,91H0M7,77H0M7,62H0M14,48H0M7,33H0M7,19H0M7,4H0" style="stroke: #000000; stroke-width: 1;"></path><g font-family="Arial" font-size="20" space="preserve" fill="#000000" text-anchor="end"><text dy=".4em" transform="translate(-4,627)">0</text><text dy=".4em" transform="translate(-4,555)">0.1</text><text dy=".4em" transform="translate(-4,482)">0.2</text><text dy=".4em" transform="translate(-4,410)">0.3</text><text dy=".4em" transform="translate(-4,337)">0.4</text><text dy=".4em" transform="translate(-4,265)">0.5</text><text dy=".4em" transform="translate(-4,193)">0.6</text><text dy=".4em" transform="translate(-4,120)">0.7</text><text dy=".4em" transform="translate(-4,48)">0.8</text></g></g><path d="M0,0v627M58,0v627M115,0v627M173,0v627M231,0v627M288,0v627M346,0v627M403,0v627M461,0v627" style="stroke: #000000; stroke-width: 1; stroke-dasharray: 1,2;"></path><path d="M0,627h461M0,555h461M0,482h461M0,410h461M0,337h461M0,265h461M0,193h461M0,120h461M0,48h461" style="stroke: #000000; stroke-width: 1; stroke-dasharray: 1,2;"></path></g></g><g transform="translate(521,78)"><path d="M0,0H23V627H0Z" style="fill: none; stroke: #000000; stroke-width: 1;"></path><path d="M0,596H23V627H0Z" style="fill: #1652cc;"></path><path d="M0,564H23V597H0Z" style="fill: #1652cc;"></path><path d="M0,533H23V565H0Z" style="fill: #1063db;"></path><path d="M0,502H23V534H0Z" style="fill: #1171d8;"></path><path d="M0,470H23V503H0Z" style="fill: #1380d5;"></path><path d="M0,439H23V471H0Z" style="fill: #0e8ed0;"></path><path d="M0,408H23V440H0Z" style="fill: #089dcc;"></path><path d="M0,376H23V409H0Z" style="fill: #0da7c2;"></path><path d="M0,345H23V377H0Z" style="fill: #1dafb3;"></path><path d="M0,314H23V346H0Z" style="fill: #2db7a3;"></path><path d="M0,282H23V315H0Z" style="fill: #52ba91;"></path><path d="M0,251H23V283H0Z" style="fill: #73bd80;"></path><path d="M0,219H23V252H0Z" style="fill: #94be71;"></path><path d="M0,188H23V220H0Z" style="fill: #b2bc65;"></path><path d="M0,157H23V189H0Z" style="fill: #d0ba59;"></path><path d="M0,125H23V158H0Z" style="fill: #e1bf4a;"></path><path d="M0,94H23V126H0Z" style="fill: #f4c53a;"></path><path d="M0,63H23V95H0Z" style="fill: #fcd12b;"></path><path d="M0,31H23V64H0Z" style="fill: #fae61c;"></path><path d="M0,0H23V32H0Z" style="fill: #f9f90e;"></path><g transform="translate(23)"><path d="M0,0v627M0,627H-14M0,564H-14M0,502H-14M0,439H-14M0,376H-14M0,314H-14M0,251H-14M0,188H-14M0,125H-14M0,63H-14M0,0H-14" style="stroke: #000000; stroke-width: 1;"></path><g font-family="Arial" font-size="20" space="preserve" fill="#000000" text-anchor="start"><text dy=".4em" transform="translate(4,627)">0</text><text dy=".4em" transform="translate(4,564)">2</text><text dy=".4em" transform="translate(4,502)">4</text><text dy=".4em" transform="translate(4,439)">6</text><text dy=".4em" transform="translate(4,376)">8</text><text dy=".4em" transform="translate(4,314)">10</text><text dy=".4em" transform="translate(4,251)">12</text><text dy=".4em" transform="translate(4,188)">14</text><text dy=".4em" transform="translate(4,125)">16</text><text dy=".4em" transform="translate(4,63)">18</text><text dy=".4em" transform="translate(4)">20</text></g></g></g><g transform="translate(58,4)" font-family="Arial" font-size="39" space="preserve"><text fill="#000000" text-anchor="middle" dy=".8em" transform="translate(231)">Option H</text></g></g></svg></g></svg>