<svg xmlns="http://www.w3.org/2000/svg" viewBox="0 0 1200 800" preserveAspectRatio="none" width="1200" height="800"><path d="M0,0H1200V800H0Z" style="fill: #ffffff;"></path><g><g transform="translate(120,80)"><path d="M0,0H1024V640H0Z" style="fill: #ffffff; stroke: #000000; stroke-width: 1;"></path><svg x="0" y="0" overflow="hidden" width="1024" height="640" viewBox="0 0 1024 640"><g><path d="M0,335h28M14,30v610M28,358h30M43,77v563M57,389h28M71,139v501M85,441h30M100,242v398M114,452h28M128,263v377M142,459h30M157,279v361M171,466h28M185,292v348M199,472h30M214,304v336M228,498h28M242,355v285M256,504h28M270,367v273M284,508h30M299,375v265M313,524h28M327,409v231M341,566h30M356,493v147M370,569h28M384,498v142M398,578h30M413,516v124M427,583h28M441,525v115M455,588h30M470,536v104M484,590h28M498,541v99M512,593h28M526,547v93M540,601h30M555,562v78M569,604h28M583,567v73M597,604h30M612,568v72M626,615h28M640,590v50M654,616h30M669,592v48M683,617h28M697,594v46M711,617h30M726,594v46M740,621h28M754,602v38M768,623h28M782,606v34M796,624h30M811,608v32M825,635h28M839,630v10M853,639h30M868,637v3M882,640h28M896,639v1M910,640h30M925,640v0M939,640h28M953,640v0M967,640h30M982,640v0M996,640h28M1010,640v0" style="stroke: #cc3333; stroke-width: 2;"></path><path d="M10.8,335.0a3.2,3.2,0,1,0,6.4,0a3.2,3.2,0,1,0,-6.4,0zM39.8,358.0a3.2,3.2,0,1,0,6.4,0a3.2,3.2,0,1,0,-6.4,0zM67.8,389.0a3.2,3.2,0,1,0,6.4,0a3.2,3.2,0,1,0,-6.4,0zM96.8,441.0a3.2,3.2,0,1,0,6.4,0a3.2,3.2,0,1,0,-6.4,0zM124.8,452.0a3.2,3.2,0,1,0,6.4,0a3.2,3.2,0,1,0,-6.4,0zM153.8,459.0a3.2,3.2,0,1,0,6.4,0a3.2,3.2,0,1,0,-6.4,0zM181.8,466.0a3.2,3.2,0,1,0,6.4,0a3.2,3.2,0,1,0,-6.4,0zM210.8,472.0a3.2,3.2,0,1,0,6.4,0a3.2,3.2,0,1,0,-6.4,0zM238.8,498.0a3.2,3.2,0,1,0,6.4,0a3.2,3.2,0,1,0,-6.4,0zM266.8,504.0a3.2,3.2,0,1,0,6.4,0a3.2,3.2,0,1,0,-6.4,0zM295.8,508.0a3.2,3.2,0,1,0,6.4,0a3.2,3.2,0,1,0,-6.4,0zM323.8,524.0a3.2,3.2,0,1,0,6.4,0a3.2,3.2,0,1,0,-6.4,0zM352.8,566.0a3.2,3.2,0,1,0,6.4,0a3.2,3.2,0,1,0,-6.4,0zM380.8,569.0a3.2,3.2,0,1,0,6.4,0a3.2,3.2,0,1,0,-6.4,0zM409.8,578.0a3.2,3.2,0,1,0,6.4,0a3.2,3.2,0,1,0,-6.4,0zM437.8,583.0a3.2,3.2,0,1,0,6.4,0a3.2,3.2,0,1,0,-6.4,0zM466.8,588.0a3.2,3.2,0,1,0,6.4,0a3.2,3.2,0,1,0,-6.4,0zM494.8,590.0a3.2,3.2,0,1,0,6.4,0a3.2,3.2,0,1,0,-6.4,0zM522.8,593.0a3.2,3.2,0,1,0,6.4,0a3.2,3.2,0,1,0,-6.4,0zM551.8,601.0a3.2,3.2,0,1,0,6.4,0a3.2,3.2,0,1,0,-6.4,0zM579.8,604.0a3.2,3.2,0,1,0,6.4,0a3.2,3.2,0,1,0,-6.4,0zM608.8,604.0a3.2,3.2,0,1,0,6.4,0a3.2,3.2,0,1,0,-6.4,0zM636.8,615.0a3.2,3.2,0,1,0,6.4,0a3.2,3.2,0,1,0,-6.4,0zM665.8,616.0a3.2,3.2,0,1,0,6.4,0a3.2,3.2,0,1,0,-6.4,0zM693.8,617.0a3.2,3.2,0,1,0,6.4,0a3.2,3.2,0,1,0,-6.4,0zM722.8,617.0a3.2,3.2,0,1,0,6.4,0a3.2,3.2,0,1,0,-6.4,0zM750.8,621.0a3.2,3.2,0,1,0,6.4,0a3.2,3.2,0,1,0,-6.4,0zM778.8,623.0a3.2,3.2,0,1,0,6.4,0a3.2,3.2,0,1,0,-6.4,0zM807.8,624.0a3.2,3.2,0,1,0,6.4,0a3.2,3.2,0,1,0,-6.4,0zM835.8,635.0a3.2,3.2,0,1,0,6.4,0a3.2,3.2,0,1,0,-6.4,0zM864.8,639.0a3.2,3.2,0,1,0,6.4,0a3.2,3.2,0,1,0,-6.4,0zM892.8,640.0a3.2,3.2,0,1,0,6.4,0a3.2,3.2,0,1,0,-6.4,0zM921.8,640.0a3.2,3.2,0,1,0,6.4,0a3.2,3.2,0,1,0,-6.4,0zM949.8,640.0a3.2,3.2,0,1,0,6.4,0a3.2,3.2,0,1,0,-6.4,0zM978.8,640.0a3.2,3.2,0,1,0,6.4,0a3.2,3.2,0,1,0,-6.4,0zM1006.8,640.0a3.2,3.2,0,1,0,6.4,0a3.2,3.2,0,1,0,-6.4,0z" style="stroke: #0000ff; fill: #0000ff;"></path></g><g><path d="M0,335h28M14,316v39M28,351h30M43,332v37M57,380h28M71,364v32M85,440h30M100,424v32M114,445h28M128,430v30M142,466h30M157,450v31M171,465h28M185,450v30M199,467h30M214,453v27M228,496h28M242,483v26M256,503h28M270,490v26M284,505h30M299,493v24M313,529h28M327,519v20M341,563h30M356,553v19M370,569h28M384,560v19M398,576h30M413,567v18M427,580h28M441,571v17M455,589h30M470,581v16M484,590h28M498,582v16M512,592h28M526,585v14M540,600h30M555,593v14M569,604h28M583,598v13M597,604h30M612,599v11M626,615h28M640,609v11M654,615h30M669,610v10M683,619h28M697,613v11M711,616h30M726,611v10M740,620h28M754,615v10M768,622h28M782,618v9M796,623h30M811,621v5M825,634h28M839,633v3M853,638h30M868,638v1M882,640h28M896,639v1M910,640h30M925,640v0M939,640h28M953,640v0" style="stroke: #000099; stroke-width: 1;"></path><path d="M10.8,335.0a3.2,3.2,0,1,0,6.4,0a3.2,3.2,0,1,0,-6.4,0zM39.8,351.0a3.2,3.2,0,1,0,6.4,0a3.2,3.2,0,1,0,-6.4,0zM67.8,380.0a3.2,3.2,0,1,0,6.4,0a3.2,3.2,0,1,0,-6.4,0zM96.8,440.0a3.2,3.2,0,1,0,6.4,0a3.2,3.2,0,1,0,-6.4,0zM124.8,445.0a3.2,3.2,0,1,0,6.4,0a3.2,3.2,0,1,0,-6.4,0zM153.8,466.0a3.2,3.2,0,1,0,6.4,0a3.2,3.2,0,1,0,-6.4,0zM181.8,465.0a3.2,3.2,0,1,0,6.4,0a3.2,3.2,0,1,0,-6.4,0zM210.8,467.0a3.2,3.2,0,1,0,6.4,0a3.2,3.2,0,1,0,-6.4,0zM238.8,496.0a3.2,3.2,0,1,0,6.4,0a3.2,3.2,0,1,0,-6.4,0zM266.8,503.0a3.2,3.2,0,1,0,6.4,0a3.2,3.2,0,1,0,-6.4,0zM295.8,505.0a3.2,3.2,0,1,0,6.4,0a3.2,3.2,0,1,0,-6.4,0zM323.8,529.0a3.2,3.2,0,1,0,6.4,0a3.2,3.2,0,1,0,-6.4,0zM352.8,563.0a3.2,3.2,0,1,0,6.4,0a3.2,3.2,0,1,0,-6.4,0zM380.8,569.0a3.2,3.2,0,1,0,6.4,0a3.2,3.2,0,1,0,-6.4,0zM409.8,576.0a3.2,3.2,0,1,0,6.4,0a3.2,3.2,0,1,0,-6.4,0zM437.8,580.0a3.2,3.2,0,1,0,6.4,0a3.2,3.2,0,1,0,-6.4,0zM466.8,589.0a3.2,3.2,0,1,0,6.4,0a3.2,3.2,0,1,0,-6.4,0zM494.8,590.0a3.2,3.2,0,1,0,6.4,0a3.2,3.2,0,1,0,-6.4,0zM522.8,592.0a3.2,3.2,0,1,0,6.4,0a3.2,3.2,0,1,0,-6.4,0zM551.8,600.0a3.2,3.2,0,1,0,6.4,0a3.2,3.2,0,1,0,-6.4,0zM579.8,604.0a3.2,3.2,0,1,0,6.4,0a3.2,3.2,0,1,0,-6.4,0zM608.8,604.0a3.2,3.2,0,1,0,6.4,0a3.2,3.2,0,1,0,-6.4,0zM636.8,615.0a3.2,3.2,0,1,0,6.4,0a3.2,3.2,0,1,0,-6.4,0zM665.8,615.0a3.2,3.2,0,1,0,6.4,0a3.2,3.2,0,1,0,-6.4,0zM693.8,619.0a3.2,3.2,0,1,0,6.4,0a3.2,3.2,0,1,0,-6.4,0zM722.8,616.0a3.2,3.2,0,1,0,6.4,0a3.2,3.2,0,1,0,-6.4,0zM750.8,620.0a3.2,3.2,0,1,0,6.4,0a3.2,3.2,0,1,0,-6.4,0zM778.8,622.0a3.2,3.2,0,1,0,6.4,0a3.2,3.2,0,1,0,-6.4,0zM807.8,623.0a3.2,3.2,0,1,0,6.4,0a3.2,3.2,0,1,0,-6.4,0zM835.8,634.0a3.2,3.2,0,1,0,6.4,0a3.2,3.2,0,1,0,-6.4,0zM864.8,638.0a3.2,3.2,0,1,0,6.4,0a3.2,3.2,0,1,0,-6.4,0zM892.8,640.0a3.2,3.2,0,1,0,6.4,0a3.2,3.2,0,1,0,-6.4,0zM921.8,640.0a3.2,3.2,0,1,0,6.4,0a3.2,3.2,0,1,0,-6.4,0zM949.8,640.0a3.2,3.2,0,1,0,6.4,0a3.2,3.2,0,1,0,-6.4,0z" style="stroke: #000000; fill: #000000;"></path></g></svg><g><g transform="translate(0,640)"><path d="M0,0h1024M0,-24V0M28,-24V0M57,-24V0M85,-24V0M114,-24V0M142,-24V0M171,-24V0M199,-24V0M228,-24V0M256,-24V0M284,-24V0M313,-24V0M341,-24V0M370,-24V0M398,-24V0M427,-24V0M455,-24V0M484,-24V0M512,-24V0M540,-24V0M569,-24V0M597,-24V0M626,-24V0M654,-24V0M683,-24V0M711,-24V0M740,-24V0M768,-24V0M796,-24V0M825,-24V0M853,-24V0M882,-24V0M910,-24V0M939,-24V0M967,-24V0M996,-24V0M1024,-12V0" style="stroke: #000000; stroke-width: 1;"></path><g font-family="Arial" font-size="16" space="preserve" fill="#000000" text-anchor="middle"><text dy=".8em" transform="translate(14,6) rotate(25)" style="text-anchor: start;">france</text><text dy=".8em" transform="translate(43,6) rotate(25)" style="text-anchor: start;">spain</text><text dy=".8em" transform="translate(71,6) rotate(25)" style="text-anchor: start;">sweden</text><text dy=".8em" transform="translate(100,6) rotate(25)" style="text-anchor: start;">germany</text><text dy=".8em" transform="translate(128,6) rotate(25)" style="text-anchor: start;">finland</text><text dy=".8em" transform="translate(157,6) rotate(25)" style="text-anchor: start;">norway</text><text dy=".8em" transform="translate(185,6) rotate(25)" style="text-anchor: start;">poland</text><text dy=".8em" transform="translate(214,6) rotate(25)" style="text-anchor: start;">italy</text><text dy=".8em" transform="translate(242,6) rotate(25)" style="text-anchor: start;">yugoslavia</text><text dy=".8em" transform="translate(270,6) rotate(25)" style="text-anchor: start;">united_kingdom</text><text dy=".8em" transform="translate(299,6) rotate(25)" style="text-anchor: start;">romania</text><text dy=".8em" transform="translate(327,6) rotate(25)" style="text-anchor: start;">belarus</text><text dy=".8em" transform="translate(356,6) rotate(25)" style="text-anchor: start;">greece</text><text dy=".8em" transform="translate(384,6) rotate(25)" style="text-anchor: start;">czechoslovakia</text><text dy=".8em" transform="translate(413,6) rotate(25)" style="text-anchor: start;">bulgaria</text><text dy=".8em" transform="translate(441,6) rotate(25)" style="text-anchor: start;">iceland</text><text dy=".8em" transform="translate(470,6) rotate(25)" style="text-anchor: start;">hungary</text><text dy=".8em" transform="translate(498,6) rotate(25)" style="text-anchor: start;">portugal</text><text dy=".8em" transform="translate(526,6) rotate(25)" style="text-anchor: start;">austria</text><text dy=".8em" transform="translate(555,6) rotate(25)" style="text-anchor: start;">ireland</text><text dy=".8em" transform="translate(583,6) rotate(25)" style="text-anchor: start;">lithuania</text><text dy=".8em" transform="translate(612,6) rotate(25)" style="text-anchor: start;">latvia</text><text dy=".8em" transform="translate(640,6) rotate(25)" style="text-anchor: start;">estonia</text><text dy=".8em" transform="translate(669,6) rotate(25)" style="text-anchor: start;">denmark</text><text dy=".8em" transform="translate(697,6) rotate(25)" style="text-anchor: start;">netherlands</text><text dy=".8em" transform="translate(726,6) rotate(25)" style="text-anchor: start;">switzerland</text><text dy=".8em" transform="translate(754,6) rotate(25)" style="text-anchor: start;">moldova</text><text dy=".8em" transform="translate(782,6) rotate(25)" style="text-anchor: start;">belgium</text><text dy=".8em" transform="translate(811,6) rotate(25)" style="text-anchor: start;">albania</text><text dy=".8em" transform="translate(839,6) rotate(25)" style="text-anchor: start;">cyprus</text><text dy=".8em" transform="translate(868,6) rotate(25)" style="text-anchor: start;">luxembourg</text><text dy=".8em" transform="translate(896,6) rotate(25)" style="text-anchor: start;">andorra</text><text dy=".8em" transform="translate(925,6) rotate(25)" style="text-anchor: start;">malta</text><text dy=".8em" transform="translate(953,6) rotate(25)" style="text-anchor: start;">liechtenstein</text><text dy=".8em" transform="translate(982,6) rotate(25)" style="text-anchor: start;">san_marino</text><text dy=".8em" transform="translate(1010,6) rotate(25)" style="text-anchor: start;">monaco</text></g></g><g><path d="M0,0v640M36,640H0M18,612H0M18,584H0M18,556H0M36,529H0M18,501H0M18,473H0M18,445H0M36,417H0M18,389H0M18,361H0M18,334H0M36,306H0M18,278H0M18,250H0M18,222H0M36,194H0M18,166H0M18,139H0M18,111H0M36,83H0M18,55H0M18,27H0" style="stroke: #000000; stroke-width: 1;"></path><g font-family="Arial" font-size="28" space="preserve"><text fill="#000000" text-anchor="end" dy=".4em" transform="translate(-6,640)">0</text><text fill="#000000" text-anchor="end" dy=".4em" transform="translate(-6,529)">0.2</text><text fill="#000000" text-anchor="end" dy=".4em" transform="translate(-6,417)">0.4</text><text fill="#000000" text-anchor="end" dy=".4em" transform="translate(-6,306)">0.6</text><text fill="#000000" text-anchor="end" dy=".4em" transform="translate(-6,194)">0.8</text><text fill="#000000" text-anchor="end" dy=".4em" transform="translate(-6,83)">1</text><g transform="translate(5,-10)"><text fill="#000000" font-size="28">×10</text><text fill="#000000" font-size="17" transform="translate(47,-15)">6</text></g></g></g></g></g><g transform="translate(88,4)" font-family="Arial" font-size="39" space="preserve"><g transform="translate(273,44) scale(0.873)"><text fill="#000000" font-size="45">Countries surfaces (in km</text><text fill="#000000" font-size="27" transform="translate(517,-24)">2</text><text fill="#000000" font-size="45" x="532">)</text></g></g><g transform="translate(600,160)" font-family="Arial" font-size="20" space="preserve"><path d="M0,0H504V104H0Z" style="fill: #ffffff; stroke: #000000; stroke-width: 1;"></path><path d="M15,28H111" style="stroke: #cc3333; stroke-width: 2;"></path><path d="M59.8,28.0a3.2,3.2,0,1,0,6.4,0a3.2,3.2,0,1,0,-6.4,0z" style="stroke: #0000ff; fill: #0000ff;"></path><g transform="translate(126,36)"><text fill="#000000" font-size="20">Real countries surfaces from Wikipedia (in km</text><text fill="#000000" font-size="12" transform="translate(413,-10)">2</text><text fill="#000000" font-size="20" x="419">)</text></g><path d="M15,77H111" style="stroke: #000099; stroke-width: 1;"></path><path d="M59.8,77.0a3.2,3.2,0,1,0,6.4,0a3.2,3.2,0,1,0,-6.4,0z" style="stroke: #000000; fill: #000000;"></path><text fill="#000000" text-anchor="start" dy=".4em" transform="translate(126,77)">Countries surfaces from TH2Poly (with errors)</text></g><g transform="translate(600,160)" font-family="Arial" font-size="20" space="preserve"><path d="M0,0H504V104H0Z" style="fill: #ffffff; stroke: #000000; stroke-width: 1;"></path><path d="M15,28H111" style="stroke: #cc3333; stroke-width: 2;"></path><path d="M59.8,28.0a3.2,3.2,0,1,0,6.4,0a3.2,3.2,0,1,0,-6.4,0z" style="stroke: #0000ff; fill: #0000ff;"></path><g transform="translate(126,36)"><text fill="#000000" font-size="20">Real countries surfaces from Wikipedia (in km</text><text fill="#000000" font-size="12" transform="translate(413,-10)">2</text><text fill="#000000" font-size="20" x="419">)</text></g><path d="M15,77H111" style="stroke: #000099; stroke-width: 1;"></path><path d="M59.8,77.0a3.2,3.2,0,1,0,6.4,0a3.2,3.2,0,1,0,-6.4,0z" style="stroke: #000000; fill: #000000;"></path><text fill="#000000" text-anchor="start" dy=".4em" transform="translate(126,77)">Countries surfaces from TH2Poly (with errors)</text></g></g></svg>