<svg xmlns="http://www.w3.org/2000/svg" viewBox="0 0 1200 800" preserveAspectRatio="none" width="1200" height="800"><path d="M0,0H1200V800H0Z" style="fill: #ffffff;"></path><g><svg viewBox="0 0 601 361" preserveAspectRatio="none" x="0" y="38" width="601" height="361"><path d="M0,0H601V361H0Z" style="fill: #ffffff;"></path><g><g transform="translate(60)"><path d="M0,0H541V361H0Z" style="fill: #ffffff; stroke: #000000; stroke-width: 1;"></path><g><g transform="translate(0,361)"><path d="M0,0h541M0,-361h541M0,-10V0M11,-5V0M22,-5V0M32,-5V0M43,-5V0M54,-10V0M65,-5V0M76,-5V0M87,-5V0M97,-5V0M108,-10V0M119,-5V0M130,-5V0M141,-5V0M151,-5V0M162,-10V0M173,-5V0M184,-5V0M195,-5V0M206,-5V0M216,-10V0M227,-5V0M238,-5V0M249,-5V0M260,-5V0M271,-10V0M281,-5V0M292,-5V0M303,-5V0M314,-5V0M325,-10V0M335,-5V0M346,-5V0M357,-5V0M368,-5V0M379,-10V0M390,-5V0M400,-5V0M411,-5V0M422,-5V0M433,-10V0M444,-5V0M454,-5V0M465,-5V0M476,-5V0M487,-10V0M498,-5V0M509,-5V0M519,-5V0M530,-5V0M541,-10V0M0,-351V-361M11,-356V-361M22,-356V-361M32,-356V-361M43,-356V-361M54,-351V-361M65,-356V-361M76,-356V-361M87,-356V-361M97,-356V-361M108,-351V-361M119,-356V-361M130,-356V-361M141,-356V-361M151,-356V-361M162,-351V-361M173,-356V-361M184,-356V-361M195,-356V-361M206,-356V-361M216,-351V-361M227,-356V-361M238,-356V-361M249,-356V-361M260,-356V-361M271,-351V-361M281,-356V-361M292,-356V-361M303,-356V-361M314,-356V-361M325,-351V-361M335,-356V-361M346,-356V-361M357,-356V-361M368,-356V-361M379,-351V-361M390,-356V-361M400,-356V-361M411,-356V-361M422,-356V-361M433,-351V-361M444,-356V-361M454,-356V-361M465,-356V-361M476,-356V-361M487,-351V-361M498,-356V-361M509,-356V-361M519,-356V-361M530,-356V-361M541,-351V-361" style="stroke: #000000; stroke-width: 1;"></path><g font-family="Arial" font-size="13" space="preserve" fill="#000000" text-anchor="middle"><text dy=".8em" transform="translate(0,3)">0</text><text dy=".8em" transform="translate(54,3)">0.1</text><text dy=".8em" transform="translate(108,3)">0.2</text><text dy=".8em" transform="translate(162,3)">0.3</text><text dy=".8em" transform="translate(216,3)">0.4</text><text dy=".8em" transform="translate(271,3)">0.5</text><text dy=".8em" transform="translate(325,3)">0.6</text><text dy=".8em" transform="translate(379,3)">0.7</text><text dy=".8em" transform="translate(433,3)">0.8</text><text dy=".8em" transform="translate(487,3)">0.9</text><text dy=".8em" transform="translate(541,3)">1</text></g><g transform="translate(0,-361)" font-family="Arial" font-size="13" space="preserve" fill="#000000" text-anchor="middle"><text transform="translate(0,-4)">0</text><text transform="translate(54,-4)">0.1</text><text transform="translate(108,-4)">0.2</text><text transform="translate(162,-4)">0.3</text><text transform="translate(216,-4)">0.4</text><text transform="translate(271,-4)">0.5</text><text transform="translate(325,-4)">0.6</text><text transform="translate(379,-4)">0.7</text><text transform="translate(433,-4)">0.8</text><text transform="translate(487,-4)">0.9</text><text transform="translate(541,-4)">1</text></g></g><g><path d="M0,0v361M18,361H0M9,352H0M9,343H0M9,334H0M18,325H0M9,316H0M9,307H0M9,298H0M18,289H0M9,280H0M9,271H0M9,262H0M18,253H0M9,244H0M9,235H0M9,226H0M18,217H0M9,208H0M9,199H0M9,190H0M18,181H0M9,171H0M9,162H0M9,153H0M18,144H0M9,135H0M9,126H0M9,117H0M18,108H0M9,99H0M9,90H0M9,81H0M18,72H0M9,63H0M9,54H0M9,45H0M18,36H0M9,27H0M9,18H0M9,9H0M18,0H0" style="stroke: #000000; stroke-width: 1;"></path><g font-family="Arial" font-size="13" space="preserve" fill="#000000" text-anchor="end"><text dy=".4em" transform="translate(-3,361)">0</text><text dy=".4em" transform="translate(-3,325)">2</text><text dy=".4em" transform="translate(-3,289)">4</text><text dy=".4em" transform="translate(-3,253)">6</text><text dy=".4em" transform="translate(-3,217)">8</text><text dy=".4em" transform="translate(-3,181)">10</text><text dy=".4em" transform="translate(-3,144)">12</text><text dy=".4em" transform="translate(-3,108)">14</text><text dy=".4em" transform="translate(-3,72)">16</text><text dy=".4em" transform="translate(-3,36)">18</text><text dy=".4em" transform="translate(-3)">20</text></g></g></g></g><g transform="translate(30,2)" font-family="Arial" font-size="18" space="preserve"><text fill="#000000" text-anchor="middle" dy=".8em" transform="translate(271)">test1</text></g></g></svg><svg viewBox="0 0 601 401" preserveAspectRatio="none" x="0" y="399" width="601" height="401"><path d="M0,0H601V401H0Z" style="fill: #ffffff;"></path><g><g transform="translate(60)"><path d="M0,0H541V361H0Z" style="fill: #ffffff; stroke: #000000; stroke-width: 1;"></path><g><g transform="translate(0,361)"><path d="M0,0h541M0,-11V0M11,-6V0M22,-6V0M32,-6V0M43,-6V0M54,-11V0M65,-6V0M76,-6V0M87,-6V0M97,-6V0M108,-11V0M119,-6V0M130,-6V0M141,-6V0M151,-6V0M162,-11V0M173,-6V0M184,-6V0M195,-6V0M206,-6V0M216,-11V0M227,-6V0M238,-6V0M249,-6V0M260,-6V0M271,-11V0M281,-6V0M292,-6V0M303,-6V0M314,-6V0M325,-11V0M335,-6V0M346,-6V0M357,-6V0M368,-6V0M379,-11V0M390,-6V0M400,-6V0M411,-6V0M422,-6V0M433,-11V0M444,-6V0M454,-6V0M465,-6V0M476,-6V0M487,-11V0M498,-6V0M509,-6V0M519,-6V0M530,-6V0M541,-11V0" style="stroke: #000000; stroke-width: 1;"></path><g font-family="Arial" font-size="14" space="preserve" fill="#000000" text-anchor="middle"><text dy=".8em" transform="translate(0,3)">0</text><text dy=".8em" transform="translate(54,3)">0.1</text><text dy=".8em" transform="translate(108,3)">0.2</text><text dy=".8em" transform="translate(162,3)">0.3</text><text dy=".8em" transform="translate(216,3)">0.4</text><text dy=".8em" transform="translate(271,3)">0.5</text><text dy=".8em" transform="translate(325,3)">0.6</text><text dy=".8em" transform="translate(379,3)">0.7</text><text dy=".8em" transform="translate(433,3)">0.8</text><text dy=".8em" transform="translate(487,3)">0.9</text><text dy=".8em" transform="translate(541,3)">1</text></g></g><g><path d="M0,0v361M16,361H0M8,352H0M8,343H0M8,334H0M16,325H0M8,316H0M8,307H0M8,298H0M16,289H0M8,280H0M8,271H0M8,262H0M16,253H0M8,244H0M8,235H0M8,226H0M16,217H0M8,208H0M8,199H0M8,190H0M16,181H0M8,171H0M8,162H0M8,153H0M16,144H0M8,135H0M8,126H0M8,117H0M16,108H0M8,99H0M8,90H0M8,81H0M16,72H0M8,63H0M8,54H0M8,45H0M16,36H0M8,27H0M8,18H0M8,9H0M16,0H0" style="stroke: #000000; stroke-width: 1;"></path><g font-family="Arial" font-size="14" space="preserve" fill="#000000" text-anchor="end"><text dy=".4em" transform="translate(-3,361)">-1</text><text dy=".4em" transform="translate(-3,325)">-0.8</text><text dy=".4em" transform="translate(-3,289)">-0.6</text><text dy=".4em" transform="translate(-3,253)">-0.4</text><text dy=".4em" transform="translate(-3,217)">-0.2</text><text dy=".4em" transform="translate(-3,181)">0</text><text dy=".4em" transform="translate(-3,144)">0.2</text><text dy=".4em" transform="translate(-3,108)">0.4</text><text dy=".4em" transform="translate(-3,72)">0.6</text><text dy=".4em" transform="translate(-3,36)">0.8</text><text dy=".4em" transform="translate(-3)">1</text></g></g></g></g><g transform="translate(30,2)" font-family="Arial" font-size="20" space="preserve"><text fill="#000000" text-anchor="middle" dy=".8em" transform="translate(271)">test3</text></g></g></svg><svg viewBox="0 0 541 361" preserveAspectRatio="none" x="601" y="38" width="541" height="361"><path d="M0,0H541V361H0Z" style="fill: #ffffff;"></path><g><g><path d="M0,0H541V361H0Z" style="fill: #ffffff; stroke: #000000; stroke-width: 1;"></path><g><g transform="translate(0,361)"><path d="M0,0h541M0,-361h541M0,-11V0M11,-6V0M22,-6V0M32,-6V0M43,-6V0M54,-11V0M65,-6V0M76,-6V0M87,-6V0M97,-6V0M108,-11V0M119,-6V0M130,-6V0M141,-6V0M151,-6V0M162,-11V0M173,-6V0M184,-6V0M195,-6V0M206,-6V0M216,-11V0M227,-6V0M238,-6V0M249,-6V0M260,-6V0M271,-11V0M281,-6V0M292,-6V0M303,-6V0M314,-6V0M325,-11V0M335,-6V0M346,-6V0M357,-6V0M368,-6V0M379,-11V0M390,-6V0M400,-6V0M411,-6V0M422,-6V0M433,-11V0M444,-6V0M454,-6V0M465,-6V0M476,-6V0M487,-11V0M498,-6V0M509,-6V0M519,-6V0M530,-6V0M541,-11V0M0,-350V-361M11,-355V-361M22,-355V-361M32,-355V-361M43,-355V-361M54,-350V-361M65,-355V-361M76,-355V-361M87,-355V-361M97,-355V-361M108,-350V-361M119,-355V-361M130,-355V-361M141,-355V-361M151,-355V-361M162,-350V-361M173,-355V-361M184,-355V-361M195,-355V-361M206,-355V-361M216,-350V-361M227,-355V-361M238,-355V-361M249,-355V-361M260,-355V-361M271,-350V-361M281,-355V-361M292,-355V-361M303,-355V-361M314,-355V-361M325,-350V-361M335,-355V-361M346,-355V-361M357,-355V-361M368,-355V-361M379,-350V-361M390,-355V-361M400,-355V-361M411,-355V-361M422,-355V-361M433,-350V-361M444,-355V-361M454,-355V-361M465,-355V-361M476,-355V-361M487,-350V-361M498,-355V-361M509,-355V-361M519,-355V-361M530,-355V-361M541,-350V-361" style="stroke: #000000; stroke-width: 1;"></path><g font-family="Arial" font-size="13" space="preserve" fill="#000000" text-anchor="middle"><text dy=".8em" transform="translate(0,3)">0</text><text dy=".8em" transform="translate(54,3)">0.1</text><text dy=".8em" transform="translate(108,3)">0.2</text><text dy=".8em" transform="translate(162,3)">0.3</text><text dy=".8em" transform="translate(216,3)">0.4</text><text dy=".8em" transform="translate(271,3)">0.5</text><text dy=".8em" transform="translate(325,3)">0.6</text><text dy=".8em" transform="translate(379,3)">0.7</text><text dy=".8em" transform="translate(433,3)">0.8</text><text dy=".8em" transform="translate(487,3)">0.9</text><text dy=".8em" transform="translate(541,3)">1</text></g><g transform="translate(0,-361)" font-family="Arial" font-size="13" space="preserve" fill="#000000" text-anchor="middle"><text transform="translate(0,-4)">0</text><text transform="translate(54,-4)">0.1</text><text transform="translate(108,-4)">0.2</text><text transform="translate(162,-4)">0.3</text><text transform="translate(216,-4)">0.4</text><text transform="translate(271,-4)">0.5</text><text transform="translate(325,-4)">0.6</text><text transform="translate(379,-4)">0.7</text><text transform="translate(433,-4)">0.8</text><text transform="translate(487,-4)">0.9</text><text transform="translate(541,-4)">1</text></g></g><g><path d="M0,0v361M541,0v361M16,361H0M8,354H0M8,347H0M8,339H0M8,332H0M16,325H0M8,318H0M8,310H0M8,303H0M8,296H0M16,289H0M8,282H0M8,274H0M8,267H0M8,260H0M16,253H0M8,245H0M8,238H0M8,231H0M8,224H0M16,217H0M8,209H0M8,202H0M8,195H0M8,188H0M16,181H0M8,173H0M8,166H0M8,159H0M8,152H0M16,144H0M8,137H0M8,130H0M8,123H0M8,116H0M16,108H0M8,101H0M8,94H0M8,87H0M8,79H0M16,72H0M8,65H0M8,58H0M8,51H0M8,43H0M16,36H0M8,29H0M8,22H0M8,14H0M8,7H0M16,0H0M525,361H541M533,354H541M533,347H541M533,339H541M533,332H541M525,325H541M533,318H541M533,310H541M533,303H541M533,296H541M525,289H541M533,282H541M533,274H541M533,267H541M533,260H541M525,253H541M533,245H541M533,238H541M533,231H541M533,224H541M525,217H541M533,209H541M533,202H541M533,195H541M533,188H541M525,181H541M533,173H541M533,166H541M533,159H541M533,152H541M525,144H541M533,137H541M533,130H541M533,123H541M533,116H541M525,108H541M533,101H541M533,94H541M533,87H541M533,79H541M525,72H541M533,65H541M533,58H541M533,51H541M533,43H541M525,36H541M533,29H541M533,22H541M533,14H541M533,7H541M525,0H541" style="stroke: #000000; stroke-width: 1;"></path><g font-family="Arial" font-size="13" space="preserve" fill="#000000" text-anchor="end"><text dy=".4em" transform="translate(-4,361)">0</text><text dy=".4em" transform="translate(-4,325)">10</text><text dy=".4em" transform="translate(-4,289)">20</text><text dy=".4em" transform="translate(-4,253)">30</text><text dy=".4em" transform="translate(-4,217)">40</text><text dy=".4em" transform="translate(-4,181)">50</text><text dy=".4em" transform="translate(-4,144)">60</text><text dy=".4em" transform="translate(-4,108)">70</text><text dy=".4em" transform="translate(-4,72)">80</text><text dy=".4em" transform="translate(-4,36)">90</text><text dy=".4em" transform="translate(-4)">100</text></g><g transform="translate(541)" font-family="Arial" font-size="13" space="preserve" fill="#000000" text-anchor="start"><text dy=".4em" transform="translate(4,361)">0</text><text dy=".4em" transform="translate(4,325)">10</text><text dy=".4em" transform="translate(4,289)">20</text><text dy=".4em" transform="translate(4,253)">30</text><text dy=".4em" transform="translate(4,217)">40</text><text dy=".4em" transform="translate(4,181)">50</text><text dy=".4em" transform="translate(4,144)">60</text><text dy=".4em" transform="translate(4,108)">70</text><text dy=".4em" transform="translate(4,72)">80</text><text dy=".4em" transform="translate(4,36)">90</text><text dy=".4em" transform="translate(4)">100</text></g></g></g></g><g transform="translate(0,2)" font-family="Arial" font-size="18" space="preserve"><text fill="#000000" text-anchor="middle" dy=".8em" transform="translate(271)">test2</text></g></g></svg><svg viewBox="0 0 541 401" preserveAspectRatio="none" x="601" y="399" width="541" height="401"><path d="M0,0H541V401H0Z" style="fill: #ffffff;"></path><g><g><path d="M0,0H541V361H0Z" style="fill: #ffffff; stroke: #000000; stroke-width: 1;"></path><g><g transform="translate(0,361)"><path d="M0,0h541M0,-12V0M11,-6V0M22,-6V0M32,-6V0M43,-6V0M54,-12V0M65,-6V0M76,-6V0M87,-6V0M97,-6V0M108,-12V0M119,-6V0M130,-6V0M141,-6V0M151,-6V0M162,-12V0M173,-6V0M184,-6V0M195,-6V0M206,-6V0M216,-12V0M227,-6V0M238,-6V0M249,-6V0M260,-6V0M271,-12V0M281,-6V0M292,-6V0M303,-6V0M314,-6V0M325,-12V0M335,-6V0M346,-6V0M357,-6V0M368,-6V0M379,-12V0M390,-6V0M400,-6V0M411,-6V0M422,-6V0M433,-12V0M444,-6V0M454,-6V0M465,-6V0M476,-6V0M487,-12V0M498,-6V0M509,-6V0M519,-6V0M530,-6V0M541,-12V0" style="stroke: #000000; stroke-width: 1;"></path><g font-family="Arial" font-size="14" space="preserve" fill="#000000" text-anchor="middle"><text dy=".8em" transform="translate(0,3)">0</text><text dy=".8em" transform="translate(54,3)">0.1</text><text dy=".8em" transform="translate(108,3)">0.2</text><text dy=".8em" transform="translate(162,3)">0.3</text><text dy=".8em" transform="translate(216,3)">0.4</text><text dy=".8em" transform="translate(271,3)">0.5</text><text dy=".8em" transform="translate(325,3)">0.6</text><text dy=".8em" transform="translate(379,3)">0.7</text><text dy=".8em" transform="translate(433,3)">0.8</text><text dy=".8em" transform="translate(487,3)">0.9</text><text dy=".8em" transform="translate(541,3)">1</text></g></g><g><path d="M0,0v361M541,0v361M15,361H0M8,354H0M8,347H0M8,339H0M8,332H0M15,325H0M8,318H0M8,310H0M8,303H0M8,296H0M15,289H0M8,282H0M8,274H0M8,267H0M8,260H0M15,253H0M8,245H0M8,238H0M8,231H0M8,224H0M15,217H0M8,209H0M8,202H0M8,195H0M8,188H0M15,181H0M8,173H0M8,166H0M8,159H0M8,152H0M15,144H0M8,137H0M8,130H0M8,123H0M8,116H0M15,108H0M8,101H0M8,94H0M8,87H0M8,79H0M15,72H0M8,65H0M8,58H0M8,51H0M8,43H0M15,36H0M8,29H0M8,22H0M8,14H0M8,7H0M15,0H0M526,361H541M533,354H541M533,347H541M533,339H541M533,332H541M526,325H541M533,318H541M533,310H541M533,303H541M533,296H541M526,289H541M533,282H541M533,274H541M533,267H541M533,260H541M526,253H541M533,245H541M533,238H541M533,231H541M533,224H541M526,217H541M533,209H541M533,202H541M533,195H541M533,188H541M526,181H541M533,173H541M533,166H541M533,159H541M533,152H541M526,144H541M533,137H541M533,130H541M533,123H541M533,116H541M526,108H541M533,101H541M533,94H541M533,87H541M533,79H541M526,72H541M533,65H541M533,58H541M533,51H541M533,43H541M526,36H541M533,29H541M533,22H541M533,14H541M533,7H541M526,0H541" style="stroke: #000000; stroke-width: 1;"></path><g font-family="Arial" font-size="14" space="preserve" fill="#000000" text-anchor="end"><text dy=".4em" transform="translate(-3,361)">0</text><text dy=".4em" transform="translate(-3,325)">100</text><text dy=".4em" transform="translate(-3,289)">200</text><text dy=".4em" transform="translate(-3,253)">300</text><text dy=".4em" transform="translate(-3,217)">400</text><text dy=".4em" transform="translate(-3,181)">500</text><text dy=".4em" transform="translate(-3,144)">600</text><text dy=".4em" transform="translate(-3,108)">700</text><text dy=".4em" transform="translate(-3,72)">800</text><text dy=".4em" transform="translate(-3,36)">900</text><text dy=".4em" transform="translate(-3)">1000</text></g><g transform="translate(541)" font-family="Arial" font-size="14" space="preserve" fill="#000000" text-anchor="start"><text dy=".4em" transform="translate(3,361)">0</text><text dy=".4em" transform="translate(3,325)">100</text><text dy=".4em" transform="translate(3,289)">200</text><text dy=".4em" transform="translate(3,253)">300</text><text dy=".4em" transform="translate(3,217)">400</text><text dy=".4em" transform="translate(3,181)">500</text><text dy=".4em" transform="translate(3,144)">600</text><text dy=".4em" transform="translate(3,108)">700</text><text dy=".4em" transform="translate(3,72)">800</text><text dy=".4em" transform="translate(3,36)">900</text><text dy=".4em" transform="translate(3)">1000</text></g></g></g></g><g transform="translate(0,2)" font-family="Arial" font-size="20" space="preserve"><text fill="#000000" text-anchor="middle" dy=".8em" transform="translate(271)">test4</text></g></g></svg></g></svg>